<?xml version="1.0" encoding="utf-8" standalone="no"?>
<!DOCTYPE svg PUBLIC "-//W3C//DTD SVG 1.1//EN"
  "http://www.w3.org/Graphics/SVG/1.1/DTD/svg11.dtd">
<svg xmlns:xlink="http://www.w3.org/1999/xlink" width="403.478594pt" height="308.582062pt" viewBox="0 0 403.478594 308.582062" xmlns="http://www.w3.org/2000/svg" version="1.1">
 <metadata>
  <rdf:RDF xmlns:dc="http://purl.org/dc/elements/1.1/" xmlns:cc="http://creativecommons.org/ns#" xmlns:rdf="http://www.w3.org/1999/02/22-rdf-syntax-ns#">
   <cc:Work>
    <dc:type rdf:resource="http://purl.org/dc/dcmitype/StillImage"/>
    <dc:date>2023-04-30T07:12:32.030269</dc:date>
    <dc:format>image/svg+xml</dc:format>
    <dc:creator>
     <cc:Agent>
      <dc:title>Matplotlib v3.7.1, https://matplotlib.org/</dc:title>
     </cc:Agent>
    </dc:creator>
   </cc:Work>
  </rdf:RDF>
 </metadata>
 <defs>
  <style type="text/css">*{stroke-linejoin: round; stroke-linecap: butt}</style>
 </defs>
 <g id="figure_1">
  <g id="patch_1">
   <path d="M 0 308.582062 
L 403.478594 308.582062 
L 403.478594 0 
L 0 0 
z
" style="fill: #ffffff"/>
  </g>
  <g id="axes_1">
   <g id="patch_2">
    <path d="M 29.439063 284.991437 
L 386.559062 284.991437 
L 386.559062 18.879437 
L 29.439063 18.879437 
z
" style="fill: #ffffff"/>
   </g>
   <g id="line2d_1">
    <path d="M 29.439063 211.199039 
L 386.559062 211.199039 
" clip-path="url(#p5139418bd2)" style="fill: none; stroke: #000000; stroke-linecap: square"/>
   </g>
   <g id="matplotlib.axis_1">
    <g id="xtick_1">
     <g id="line2d_2">
      <defs>
       <path id="m7587c1e653" d="M 0 0 
L 0 3.5 
" style="stroke: #000000; stroke-width: 0.8"/>
      </defs>
      <g>
       <use xlink:href="#m7587c1e653" x="29.439063" y="284.991437" style="stroke: #000000; stroke-width: 0.8"/>
      </g>
     </g>
     <g id="text_1">
      <!-- Jun -->
      <g transform="translate(21.499219 299.482062) scale(0.1 -0.1)">
       <defs>
        <path id="IPAexGothic-4a" d="M 1819 4634 
L 1819 1234 
Q 1819 -31 763 -31 
Q 303 -31 -125 209 
L 84 644 
Q 378 447 694 447 
Q 1250 447 1250 1203 
L 1250 4634 
L 1819 4634 
z
" transform="scale(0.015625)"/>
        <path id="IPAexGothic-75" d="M 3284 63 
L 2772 63 
L 2772 644 
Q 2300 0 1625 0 
Q 1072 0 763 375 
Q 519 678 519 1241 
L 519 3250 
L 1069 3250 
L 1069 1259 
Q 1069 466 1734 466 
Q 2406 466 2734 1291 
L 2734 3250 
L 3284 3250 
L 3284 63 
z
" transform="scale(0.015625)"/>
        <path id="IPAexGothic-6e" d="M 3328 63 
L 2778 63 
L 2778 2041 
Q 2778 2853 2106 2853 
Q 1428 2853 1113 2041 
L 1113 63 
L 563 63 
L 563 3250 
L 1075 3250 
L 1075 2675 
Q 1525 3316 2222 3316 
Q 3328 3316 3328 2072 
L 3328 63 
z
" transform="scale(0.015625)"/>
       </defs>
       <use xlink:href="#IPAexGothic-4a"/>
       <use xlink:href="#IPAexGothic-75" x="37.988281"/>
       <use xlink:href="#IPAexGothic-6e" x="98.388672"/>
      </g>
     </g>
    </g>
    <g id="xtick_2">
     <g id="line2d_3">
      <g>
       <use xlink:href="#m7587c1e653" x="61.515709" y="284.991437" style="stroke: #000000; stroke-width: 0.8"/>
      </g>
     </g>
     <g id="text_2">
      <!-- Jul -->
      <g transform="translate(55.246178 299.482062) scale(0.1 -0.1)">
       <defs>
        <path id="IPAexGothic-6c" d="M 1131 63 
L 581 63 
L 581 4794 
L 1131 4794 
L 1131 63 
z
" transform="scale(0.015625)"/>
       </defs>
       <use xlink:href="#IPAexGothic-4a"/>
       <use xlink:href="#IPAexGothic-75" x="37.988281"/>
       <use xlink:href="#IPAexGothic-6c" x="98.388672"/>
      </g>
     </g>
    </g>
    <g id="xtick_3">
     <g id="line2d_4">
      <g>
       <use xlink:href="#m7587c1e653" x="94.661577" y="284.991437" style="stroke: #000000; stroke-width: 0.8"/>
      </g>
     </g>
     <g id="text_3">
      <!-- Aug -->
      <g transform="translate(85.679546 299.42425) scale(0.1 -0.1)">
       <defs>
        <path id="IPAexGothic-41" d="M 4056 63 
L 3444 63 
L 2938 1409 
L 1100 1409 
L 603 63 
L -6 63 
L 1806 4666 
L 2259 4666 
L 4056 63 
z
M 2778 1863 
L 2316 3078 
Q 2125 3588 2028 4000 
L 2009 4000 
Q 1897 3563 1716 3078 
L 1263 1863 
L 2778 1863 
z
" transform="scale(0.015625)"/>
        <path id="IPAexGothic-67" d="M 1331 1150 
Q 1006 1122 1006 900 
Q 1006 613 1763 575 
L 2131 556 
Q 3303 497 3303 -294 
Q 3303 -700 2925 -959 
Q 2519 -1253 1794 -1253 
Q 1138 -1253 738 -1028 
Q 353 -809 353 -428 
Q 353 84 1075 247 
L 1075 269 
Q 506 413 506 778 
Q 506 1116 994 1297 
Q 456 1575 456 2181 
Q 456 2650 769 2963 
Q 1128 3322 1738 3322 
Q 2125 3322 2422 3153 
Q 2650 3453 3259 3463 
L 3259 3013 
Q 2838 3003 2703 2938 
Q 3034 2613 3034 2169 
Q 3034 1728 2734 1425 
Q 2400 1094 1813 1094 
Q 1563 1094 1331 1150 
z
M 1734 2919 
Q 1409 2919 1197 2706 
Q 988 2497 988 2181 
Q 988 1872 1184 1684 
Q 1397 1472 1756 1472 
Q 2094 1472 2297 1678 
Q 2503 1881 2503 2203 
Q 2503 2497 2297 2700 
Q 2081 2919 1734 2919 
z
M 1753 159 
Q 903 159 903 -366 
Q 903 -875 1800 -875 
Q 2378 -875 2638 -606 
Q 2772 -481 2772 -313 
Q 2772 159 1753 159 
z
" transform="scale(0.015625)"/>
       </defs>
       <use xlink:href="#IPAexGothic-41"/>
       <use xlink:href="#IPAexGothic-75" x="63.720703"/>
       <use xlink:href="#IPAexGothic-67" x="124.121094"/>
      </g>
     </g>
    </g>
    <g id="xtick_4">
     <g id="line2d_5">
      <g>
       <use xlink:href="#m7587c1e653" x="127.807446" y="284.991437" style="stroke: #000000; stroke-width: 0.8"/>
      </g>
     </g>
     <g id="text_4">
      <!-- Sep -->
      <g transform="translate(118.932446 299.482062) scale(0.1 -0.1)">
       <defs>
        <path id="IPAexGothic-53" d="M 2919 3641 
Q 2563 4259 1853 4259 
Q 1453 4259 1213 4009 
Q 1028 3803 1028 3534 
Q 1028 3238 1266 3047 
Q 1444 2913 1984 2688 
L 2200 2597 
Q 2925 2306 3191 1953 
Q 3422 1644 3422 1259 
Q 3422 644 2969 288 
Q 2559 -31 1931 -31 
Q 881 -31 313 766 
L 753 1100 
Q 1203 459 1938 459 
Q 2288 459 2534 625 
Q 2841 847 2841 1216 
Q 2841 1503 2616 1728 
Q 2375 1959 1728 2206 
L 1541 2278 
Q 453 2694 453 3481 
Q 453 4006 806 4347 
Q 1203 4725 1863 4725 
Q 2841 4725 3359 3956 
L 2919 3641 
z
" transform="scale(0.015625)"/>
        <path id="IPAexGothic-65" d="M 863 1594 
Q 891 1041 1209 722 
Q 1534 397 1997 397 
Q 2606 397 2963 966 
L 3322 728 
Q 2869 -31 1931 -31 
Q 1222 -31 766 422 
Q 306 884 306 1641 
Q 306 2444 788 2925 
Q 1216 3353 1856 3353 
Q 2459 3353 2866 2956 
Q 3322 2494 3322 1722 
L 3322 1594 
L 863 1594 
z
M 2756 1997 
Q 2709 2431 2450 2681 
Q 2194 2938 1844 2938 
Q 1438 2938 1150 2591 
Q 953 2356 894 1997 
L 2756 1997 
z
" transform="scale(0.015625)"/>
        <path id="IPAexGothic-70" d="M 1075 2688 
Q 1525 3341 2206 3341 
Q 2769 3341 3172 2938 
Q 3641 2469 3641 1644 
Q 3641 841 3178 372 
Q 2775 -31 2200 -31 
Q 1569 -31 1106 497 
L 1106 -1216 
L 563 -1216 
L 563 3250 
L 1075 3250 
L 1075 2688 
z
M 1106 1950 
L 1106 1291 
Q 1106 897 1516 600 
Q 1791 403 2106 403 
Q 2469 403 2725 659 
Q 3066 997 3066 1631 
Q 3066 2200 2784 2559 
Q 2503 2900 2100 2900 
Q 1656 2900 1338 2484 
Q 1106 2184 1106 1950 
z
" transform="scale(0.015625)"/>
       </defs>
       <use xlink:href="#IPAexGothic-53"/>
       <use xlink:href="#IPAexGothic-65" x="58.496094"/>
       <use xlink:href="#IPAexGothic-70" x="115.380859"/>
      </g>
     </g>
    </g>
    <g id="xtick_5">
     <g id="line2d_6">
      <g>
       <use xlink:href="#m7587c1e653" x="159.884092" y="284.991437" style="stroke: #000000; stroke-width: 0.8"/>
      </g>
     </g>
     <g id="text_5">
      <!-- Oct -->
      <g transform="translate(151.448936 299.482062) scale(0.1 -0.1)">
       <defs>
        <path id="IPAexGothic-4f" d="M 2541 4725 
Q 3456 4725 4044 4138 
Q 4709 3472 4709 2331 
Q 4709 1219 4031 550 
Q 3450 -31 2541 -31 
Q 1638 -31 1056 550 
Q 378 1219 378 2356 
Q 378 3469 1044 4138 
Q 1631 4725 2541 4725 
z
M 2541 4266 
Q 1953 4266 1531 3844 
Q 994 3303 994 2350 
Q 994 1391 1531 863 
Q 1947 447 2541 447 
Q 3131 447 3556 863 
Q 4094 1400 4094 2375 
Q 4094 3297 3550 3844 
Q 3138 4266 2541 4266 
z
" transform="scale(0.015625)"/>
        <path id="IPAexGothic-63" d="M 3269 784 
Q 2834 -31 1900 -31 
Q 1228 -31 788 409 
Q 313 891 313 1663 
Q 313 2428 788 2913 
Q 1222 3347 1881 3347 
Q 2813 3347 3206 2541 
L 2763 2309 
Q 2484 2900 1900 2900 
Q 1516 2900 1234 2619 
Q 881 2266 881 1650 
Q 881 1069 1222 728 
Q 1522 428 1956 428 
Q 2547 428 2847 1016 
L 3269 784 
z
" transform="scale(0.015625)"/>
        <path id="IPAexGothic-74" d="M 2125 241 
Q 1769 -6 1397 -6 
Q 653 -6 653 831 
L 653 2859 
L 219 2859 
L 219 3250 
L 653 3250 
L 653 3966 
L 1178 4228 
L 1178 3250 
L 2063 3250 
L 2063 2859 
L 1178 2859 
L 1178 906 
Q 1178 416 1513 416 
Q 1738 416 1941 588 
L 2125 241 
z
" transform="scale(0.015625)"/>
       </defs>
       <use xlink:href="#IPAexGothic-4f"/>
       <use xlink:href="#IPAexGothic-63" x="79.6875"/>
       <use xlink:href="#IPAexGothic-74" x="134.082031"/>
      </g>
     </g>
    </g>
    <g id="xtick_6">
     <g id="line2d_7">
      <g>
       <use xlink:href="#m7587c1e653" x="193.029961" y="284.991437" style="stroke: #000000; stroke-width: 0.8"/>
      </g>
     </g>
     <g id="text_6">
      <!-- Nov -->
      <g transform="translate(183.781523 299.482062) scale(0.1 -0.1)">
       <defs>
        <path id="IPAexGothic-4e" d="M 4244 63 
L 3731 63 
L 1697 3150 
Q 1466 3500 1141 4097 
L 1116 4097 
L 1128 3797 
Q 1159 2803 1159 2469 
L 1159 63 
L 609 63 
L 609 4634 
L 1366 4634 
L 3113 1978 
Q 3453 1447 3713 966 
L 3738 966 
Q 3694 1897 3694 2469 
L 3694 4634 
L 4244 4634 
L 4244 63 
z
" transform="scale(0.015625)"/>
        <path id="IPAexGothic-6f" d="M 1919 3341 
Q 2594 3341 3056 2888 
Q 3531 2413 3531 1638 
Q 3531 888 3066 422 
Q 2609 -31 1919 -31 
Q 1228 -31 781 416 
Q 313 881 313 1656 
Q 313 2413 788 2888 
Q 1241 3341 1919 3341 
z
M 1919 2919 
Q 1519 2919 1241 2631 
Q 888 2278 888 1650 
Q 888 1031 1234 684 
Q 1516 403 1919 403 
Q 2331 403 2609 691 
Q 2956 1038 2956 1672 
Q 2956 2269 2603 2631 
Q 2316 2919 1919 2919 
z
" transform="scale(0.015625)"/>
        <path id="IPAexGothic-76" d="M 3103 3250 
L 1747 6 
L 1375 6 
L 25 3250 
L 628 3250 
L 1338 1388 
L 1522 844 
L 1569 703 
L 1588 703 
Q 1641 884 1822 1388 
L 2516 3250 
L 3103 3250 
z
" transform="scale(0.015625)"/>
       </defs>
       <use xlink:href="#IPAexGothic-4e"/>
       <use xlink:href="#IPAexGothic-6f" x="75.976562"/>
       <use xlink:href="#IPAexGothic-76" x="136.376953"/>
      </g>
     </g>
    </g>
    <g id="xtick_7">
     <g id="line2d_8">
      <g>
       <use xlink:href="#m7587c1e653" x="225.106607" y="284.991437" style="stroke: #000000; stroke-width: 0.8"/>
      </g>
     </g>
     <g id="text_7">
      <!-- Dec -->
      <g transform="translate(215.75817 299.482062) scale(0.1 -0.1)">
       <defs>
        <path id="IPAexGothic-44" d="M 609 4634 
L 1984 4634 
Q 3159 4634 3791 4050 
Q 4456 3444 4456 2356 
Q 4456 1047 3516 441 
Q 2925 63 1941 63 
L 609 63 
L 609 4634 
z
M 1172 556 
L 1894 556 
Q 3853 556 3853 2356 
Q 3853 4147 1928 4147 
L 1172 4147 
L 1172 556 
z
" transform="scale(0.015625)"/>
       </defs>
       <use xlink:href="#IPAexGothic-44"/>
       <use xlink:href="#IPAexGothic-65" x="75.683594"/>
       <use xlink:href="#IPAexGothic-63" x="132.568359"/>
      </g>
     </g>
    </g>
    <g id="xtick_8">
     <g id="line2d_9">
      <g>
       <use xlink:href="#m7587c1e653" x="258.252476" y="284.991437" style="stroke: #000000; stroke-width: 0.8"/>
      </g>
     </g>
     <g id="text_8">
      <!-- 2023 -->
      <g transform="translate(245.655601 299.482062) scale(0.1 -0.1)">
       <defs>
        <path id="IPAexGothic-32" d="M 3659 63 
L 447 63 
L 447 594 
Q 825 1475 1894 2203 
L 2072 2322 
Q 2619 2697 2791 2906 
Q 2988 3153 2988 3444 
Q 2988 3772 2756 4003 
Q 2500 4259 2084 4259 
Q 1250 4259 991 3328 
L 497 3506 
Q 853 4725 2116 4725 
Q 2806 4725 3216 4316 
Q 3575 3947 3575 3425 
Q 3575 3038 3344 2722 
Q 3131 2416 2366 1938 
L 2231 1856 
Q 1256 1253 978 569 
L 3659 569 
L 3659 63 
z
" transform="scale(0.015625)"/>
        <path id="IPAexGothic-30" d="M 2038 4725 
Q 2881 4725 3334 3944 
Q 3694 3325 3694 2344 
Q 3694 1372 3334 741 
Q 2888 -31 2016 -31 
Q 1147 -31 700 741 
Q 341 1372 341 2350 
Q 341 3713 1000 4334 
Q 1419 4725 2038 4725 
z
M 2016 4266 
Q 1516 4266 1228 3759 
Q 934 3247 934 2344 
Q 934 1456 1222 947 
Q 1513 447 2016 447 
Q 2619 447 2909 1153 
Q 3100 1622 3100 2375 
Q 3100 3256 2806 3759 
Q 2509 4266 2016 4266 
z
" transform="scale(0.015625)"/>
        <path id="IPAexGothic-33" d="M 2381 2419 
Q 3506 2216 3506 1278 
Q 3506 716 3128 356 
Q 2709 -31 1944 -31 
Q 797 -31 288 881 
L 756 1131 
Q 1109 441 1938 441 
Q 2425 441 2694 691 
Q 2950 928 2950 1291 
Q 2950 1719 2566 1978 
Q 2216 2213 1644 2213 
L 1363 2213 
L 1363 2669 
L 1656 2669 
Q 2231 2669 2534 2888 
Q 2859 3119 2859 3509 
Q 2859 3934 2494 4138 
Q 2259 4278 1931 4278 
Q 1238 4278 903 3578 
L 434 3803 
Q 897 4725 1938 4725 
Q 2597 4725 3006 4394 
Q 3416 4069 3416 3534 
Q 3416 3028 3019 2706 
Q 2763 2500 2381 2444 
L 2381 2419 
z
" transform="scale(0.015625)"/>
       </defs>
       <use xlink:href="#IPAexGothic-32"/>
       <use xlink:href="#IPAexGothic-30" x="62.988281"/>
       <use xlink:href="#IPAexGothic-32" x="125.976562"/>
       <use xlink:href="#IPAexGothic-33" x="188.964844"/>
      </g>
     </g>
    </g>
    <g id="xtick_9">
     <g id="line2d_10">
      <g>
       <use xlink:href="#m7587c1e653" x="291.398344" y="284.991437" style="stroke: #000000; stroke-width: 0.8"/>
      </g>
     </g>
     <g id="text_9">
      <!-- Feb -->
      <g transform="translate(282.574906 299.482062) scale(0.1 -0.1)">
       <defs>
        <path id="IPAexGothic-46" d="M 3469 4141 
L 1172 4141 
L 1172 2656 
L 3206 2656 
L 3206 2188 
L 1172 2188 
L 1172 63 
L 609 63 
L 609 4634 
L 3469 4634 
L 3469 4141 
z
" transform="scale(0.015625)"/>
        <path id="IPAexGothic-62" d="M 1125 2731 
Q 1550 3341 2219 3341 
Q 2788 3341 3191 2938 
Q 3659 2469 3659 1644 
Q 3659 838 3191 372 
Q 2788 -31 2206 -31 
Q 1559 -31 1088 516 
L 1009 44 
L 581 44 
L 581 4794 
L 1125 4794 
L 1125 2731 
z
M 1125 1997 
L 1125 1253 
Q 1125 888 1528 600 
Q 1803 403 2119 403 
Q 2488 403 2744 659 
Q 3084 1009 3084 1631 
Q 3084 2194 2803 2553 
Q 2525 2900 2125 2900 
Q 1759 2900 1438 2578 
Q 1125 2266 1125 1997 
z
" transform="scale(0.015625)"/>
       </defs>
       <use xlink:href="#IPAexGothic-46"/>
       <use xlink:href="#IPAexGothic-65" x="57.177734"/>
       <use xlink:href="#IPAexGothic-62" x="114.0625"/>
      </g>
     </g>
    </g>
    <g id="xtick_10">
     <g id="line2d_11">
      <g>
       <use xlink:href="#m7587c1e653" x="321.336548" y="284.991437" style="stroke: #000000; stroke-width: 0.8"/>
      </g>
     </g>
     <g id="text_10">
      <!-- Mar -->
      <g transform="translate(312.227173 299.482062) scale(0.1 -0.1)">
       <defs>
        <path id="IPAexGothic-4d" d="M 5147 63 
L 4597 63 
L 4597 2534 
Q 4597 3281 4634 4134 
L 4609 4134 
Q 4356 3409 4066 2675 
L 3066 209 
L 2650 209 
L 1641 2725 
Q 1328 3506 1128 4141 
L 1103 4141 
Q 1141 3131 1141 2553 
L 1141 63 
L 609 63 
L 609 4634 
L 1416 4634 
L 2503 1944 
Q 2697 1472 2869 906 
L 2888 906 
Q 3028 1416 3234 1931 
L 4316 4634 
L 5147 4634 
L 5147 63 
z
" transform="scale(0.015625)"/>
        <path id="IPAexGothic-61" d="M 3156 63 
L 2672 63 
Q 2559 303 2531 556 
L 2509 556 
Q 2147 -25 1428 -25 
Q 934 -25 622 288 
Q 347 563 347 959 
Q 347 1947 2050 1997 
L 2478 2009 
L 2478 2175 
Q 2478 2509 2288 2700 
Q 2088 2900 1775 2900 
Q 1238 2900 969 2378 
L 494 2597 
Q 938 3328 1788 3328 
Q 2375 3328 2691 3000 
Q 2984 2706 2984 2169 
L 2984 997 
Q 2984 400 3156 63 
z
M 2491 1625 
L 2141 1619 
Q 903 1591 903 953 
Q 903 728 1050 581 
Q 1231 403 1525 403 
Q 1934 403 2234 703 
Q 2491 969 2491 1344 
L 2491 1625 
z
" transform="scale(0.015625)"/>
        <path id="IPAexGothic-72" d="M 2309 3316 
L 2213 2769 
Q 2106 2791 2022 2791 
Q 1653 2791 1413 2444 
Q 1113 2006 1113 1675 
L 1113 63 
L 563 63 
L 563 3250 
L 1081 3250 
L 1056 2303 
L 1069 2303 
Q 1422 3341 2097 3341 
Q 2206 3341 2309 3316 
z
" transform="scale(0.015625)"/>
       </defs>
       <use xlink:href="#IPAexGothic-4d"/>
       <use xlink:href="#IPAexGothic-61" x="90.185547"/>
       <use xlink:href="#IPAexGothic-72" x="145.166016"/>
      </g>
     </g>
    </g>
    <g id="xtick_11">
     <g id="line2d_12">
      <g>
       <use xlink:href="#m7587c1e653" x="354.482416" y="284.991437" style="stroke: #000000; stroke-width: 0.8"/>
      </g>
     </g>
     <g id="text_11">
      <!-- Apr -->
      <g transform="translate(346.340228 299.482062) scale(0.1 -0.1)">
       <use xlink:href="#IPAexGothic-41"/>
       <use xlink:href="#IPAexGothic-70" x="63.720703"/>
       <use xlink:href="#IPAexGothic-72" x="125.830078"/>
      </g>
     </g>
    </g>
    <g id="xtick_12">
     <g id="line2d_13">
      <g>
       <use xlink:href="#m7587c1e653" x="386.559063" y="284.991437" style="stroke: #000000; stroke-width: 0.8"/>
      </g>
     </g>
     <g id="text_12">
      <!-- May -->
      <g transform="translate(376.839531 299.482062) scale(0.1 -0.1)">
       <defs>
        <path id="IPAexGothic-79" d="M 3122 3250 
L 1575 -488 
Q 1278 -1203 550 -1203 
L 478 -1203 
L 344 -703 
L 447 -703 
Q 969 -703 1150 -238 
L 1356 275 
L 38 3250 
L 659 3250 
L 1363 1459 
Q 1528 1025 1606 781 
L 1625 781 
Q 1750 1169 1863 1459 
L 2528 3250 
L 3122 3250 
z
" transform="scale(0.015625)"/>
       </defs>
       <use xlink:href="#IPAexGothic-4d"/>
       <use xlink:href="#IPAexGothic-61" x="90.185547"/>
       <use xlink:href="#IPAexGothic-79" x="145.166016"/>
      </g>
     </g>
    </g>
   </g>
   <g id="matplotlib.axis_2">
    <g id="ytick_1">
     <g id="line2d_14">
      <defs>
       <path id="mababc7a651" d="M 0 0 
L -3.5 0 
" style="stroke: #000000; stroke-width: 0.8"/>
      </defs>
      <g>
       <use xlink:href="#mababc7a651" x="29.439063" y="269.014637" style="stroke: #000000; stroke-width: 0.8"/>
      </g>
     </g>
     <g id="text_13">
      <!-- 0.5 -->
      <g transform="translate(7.2 272.759949) scale(0.1 -0.1)">
       <defs>
        <path id="IPAexGothic-2e" d="M 1184 63 
L 494 63 
L 494 753 
L 1184 753 
L 1184 63 
z
" transform="scale(0.015625)"/>
        <path id="IPAexGothic-35" d="M 1178 2603 
Q 1634 2963 2172 2963 
Q 2816 2963 3241 2528 
Q 3638 2113 3638 1497 
Q 3638 938 3297 513 
Q 2869 -31 2031 -31 
Q 959 -31 469 784 
L 938 1028 
Q 1309 434 2013 434 
Q 2466 434 2769 716 
Q 3081 1013 3081 1503 
Q 3081 1966 2806 2241 
Q 2519 2528 2056 2528 
Q 1406 2528 1072 2028 
L 591 2091 
L 884 4634 
L 3406 4634 
L 3406 4153 
L 1341 4153 
L 1134 2603 
L 1178 2603 
z
" transform="scale(0.015625)"/>
       </defs>
       <use xlink:href="#IPAexGothic-30"/>
       <use xlink:href="#IPAexGothic-2e" x="62.988281"/>
       <use xlink:href="#IPAexGothic-35" x="89.404297"/>
      </g>
     </g>
    </g>
    <g id="ytick_2">
     <g id="line2d_15">
      <g>
       <use xlink:href="#mababc7a651" x="29.439063" y="211.199039" style="stroke: #000000; stroke-width: 0.8"/>
      </g>
     </g>
     <g id="text_14">
      <!-- 1.0 -->
      <g transform="translate(7.2 214.944352) scale(0.1 -0.1)">
       <defs>
        <path id="IPAexGothic-31" d="M 2463 63 
L 1900 63 
L 1900 4103 
Q 1372 3922 788 3797 
L 684 4231 
Q 1519 4441 2106 4731 
L 2463 4731 
L 2463 63 
z
" transform="scale(0.015625)"/>
       </defs>
       <use xlink:href="#IPAexGothic-31"/>
       <use xlink:href="#IPAexGothic-2e" x="62.988281"/>
       <use xlink:href="#IPAexGothic-30" x="89.404297"/>
      </g>
     </g>
    </g>
    <g id="ytick_3">
     <g id="line2d_16">
      <g>
       <use xlink:href="#mababc7a651" x="29.439063" y="153.383442" style="stroke: #000000; stroke-width: 0.8"/>
      </g>
     </g>
     <g id="text_15">
      <!-- 1.5 -->
      <g transform="translate(7.2 157.128754) scale(0.1 -0.1)">
       <use xlink:href="#IPAexGothic-31"/>
       <use xlink:href="#IPAexGothic-2e" x="62.988281"/>
       <use xlink:href="#IPAexGothic-35" x="89.404297"/>
      </g>
     </g>
    </g>
    <g id="ytick_4">
     <g id="line2d_17">
      <g>
       <use xlink:href="#mababc7a651" x="29.439063" y="95.567844" style="stroke: #000000; stroke-width: 0.8"/>
      </g>
     </g>
     <g id="text_16">
      <!-- 2.0 -->
      <g transform="translate(7.2 99.313157) scale(0.1 -0.1)">
       <use xlink:href="#IPAexGothic-32"/>
       <use xlink:href="#IPAexGothic-2e" x="62.988281"/>
       <use xlink:href="#IPAexGothic-30" x="89.404297"/>
      </g>
     </g>
    </g>
    <g id="ytick_5">
     <g id="line2d_18">
      <g>
       <use xlink:href="#mababc7a651" x="29.439063" y="37.752247" style="stroke: #000000; stroke-width: 0.8"/>
      </g>
     </g>
     <g id="text_17">
      <!-- 2.5 -->
      <g transform="translate(7.2 41.497559) scale(0.1 -0.1)">
       <use xlink:href="#IPAexGothic-32"/>
       <use xlink:href="#IPAexGothic-2e" x="62.988281"/>
       <use xlink:href="#IPAexGothic-35" x="89.404297"/>
      </g>
     </g>
    </g>
   </g>
   <g id="line2d_19">
    <path d="M 29.439063 227.411867 
L 30.508284 255.471758 
L 31.577506 269.405805 
L 32.646727 242.945807 
L 33.715949 262.441258 
L 35.854392 251.639145 
L 36.923613 227.514621 
L 37.992835 229.940841 
L 39.062057 194.078383 
L 40.131278 246.403784 
L 41.2005 250.411663 
L 42.269721 205.84664 
L 43.338943 249.191321 
L 44.408164 272.895437 
L 45.477386 243.090535 
L 46.546607 247.559579 
L 47.615829 238.429093 
L 48.685051 112.810292 
L 49.754272 184.323192 
L 50.823494 181.498781 
L 51.892715 30.975437 
L 54.031158 168.571026 
L 55.10038 110.868109 
L 56.169601 213.126183 
L 57.238823 156.293505 
L 58.308045 124.518024 
L 59.377266 151.875457 
L 60.446488 236.751655 
L 61.515709 106.655378 
L 62.584931 51.387485 
L 63.654152 102.788184 
L 64.723374 95.926279 
L 65.792595 36.542983 
L 66.861817 79.37836 
L 67.931039 35.439549 
L 69.00026 110.396771 
L 70.069482 116.980214 
L 71.138703 109.726148 
L 72.207925 177.160719 
L 73.277146 110.814502 
L 74.346368 153.702013 
L 75.415589 148.460822 
L 76.484811 164.812112 
L 77.554033 190.526245 
L 78.623254 181.526351 
L 79.692476 197.096587 
L 80.761697 219.976945 
L 81.830919 163.710275 
L 82.90014 173.022011 
L 83.969362 196.817697 
L 85.038583 179.527296 
L 86.107805 191.661352 
L 87.177027 192.887858 
L 88.246248 173.15897 
L 89.31547 188.50237 
L 90.384691 201.809366 
L 91.453913 195.197746 
L 92.523134 183.412435 
L 93.592356 192.046725 
L 94.661577 204.737627 
L 95.730799 199.025674 
L 96.800021 189.016626 
L 98.938464 182.941981 
L 100.007685 200.02008 
L 101.076907 192.032303 
L 102.146128 181.775482 
L 103.21535 186.871327 
L 104.284571 193.9839 
L 105.353793 204.601463 
L 106.423015 225.669065 
L 107.492236 207.989558 
L 108.561458 218.057369 
L 109.630679 204.232725 
L 110.699901 217.282458 
L 111.769122 202.720535 
L 112.838344 195.141529 
L 113.907565 153.461242 
L 114.976787 171.531238 
L 116.046009 185.828914 
L 117.11523 204.950127 
L 118.184452 187.736367 
L 119.253673 211.671324 
L 120.322895 216.92144 
L 121.392116 231.587854 
L 122.461338 248.509599 
L 123.53056 240.826108 
L 124.599781 241.29957 
L 125.669003 247.072575 
L 126.738224 251.367839 
L 127.807446 251.669425 
L 128.876667 251.785215 
L 129.945889 242.900107 
L 131.01511 251.663262 
L 132.084332 241.186243 
L 133.153554 228.929625 
L 134.222775 240.670472 
L 135.291997 239.689961 
L 136.361218 228.587222 
L 137.43044 234.114512 
L 138.499661 220.053728 
L 139.568883 221.634093 
L 140.638104 247.789493 
L 141.707326 250.578039 
L 142.776548 230.847867 
L 143.845769 240.571341 
L 144.914991 229.667605 
L 145.984212 228.965012 
L 147.053434 226.507 
L 148.122655 266.267581 
L 149.191877 173.994674 
L 150.261098 228.352097 
L 151.33032 212.968149 
L 152.399542 243.863512 
L 153.468763 195.951487 
L 154.537985 187.500784 
L 155.607206 195.32975 
L 156.676428 238.855842 
L 157.745649 224.563828 
L 158.814871 239.674853 
L 159.884092 205.067187 
L 160.953314 219.657973 
L 162.022536 258.893645 
L 163.091757 189.095647 
L 164.160979 231.988543 
L 165.2302 230.452082 
L 166.299422 208.848889 
L 167.368643 214.413367 
L 168.437865 237.774657 
L 169.507086 208.216448 
L 170.576308 269.328924 
L 171.64553 186.857034 
L 172.714751 168.652783 
L 173.783973 211.199039 
L 174.853194 197.903063 
L 175.922416 190.42842 
L 176.991637 209.746404 
L 178.060859 135.123595 
L 179.13008 212.926136 
L 180.199302 239.34414 
L 181.268524 184.631705 
L 182.337745 193.892671 
L 183.406967 220.351516 
L 184.476188 197.002011 
L 185.54541 191.634272 
L 186.614631 213.253557 
L 187.683853 183.049443 
L 188.753074 199.198481 
L 189.822296 190.346771 
L 190.891518 160.309806 
L 191.960739 189.784075 
L 193.029961 198.104074 
L 194.099182 152.110827 
L 195.168404 152.9204 
L 196.237625 232.748365 
L 197.306847 165.024121 
L 198.376068 194.085734 
L 199.44529 199.838398 
L 200.514512 173.564927 
L 201.583733 209.205445 
L 202.652955 206.690562 
L 203.722176 156.249641 
L 204.791398 220.402577 
L 205.860619 215.284532 
L 206.929841 225.924092 
L 207.999063 188.099011 
L 209.068284 185.511636 
L 210.137506 211.199039 
L 211.206727 194.160213 
L 212.275949 184.55213 
L 213.34517 182.799057 
L 215.483613 203.930102 
L 216.552835 168.757197 
L 217.622057 220.491359 
L 218.691278 171.577359 
L 220.829721 192.11637 
L 221.898943 204.402838 
L 222.968164 198.987955 
L 224.037386 181.777237 
L 225.106607 142.696764 
L 226.175829 213.580923 
L 227.245051 220.529523 
L 228.314272 204.080643 
L 229.383494 205.292279 
L 230.452715 181.962456 
L 231.521937 194.793532 
L 232.591158 197.432704 
L 233.66038 173.295964 
L 234.729601 175.045451 
L 235.798823 167.16196 
L 236.868045 187.120934 
L 237.937266 183.834422 
L 239.006488 173.778001 
L 240.075709 181.23856 
L 241.144931 201.020413 
L 242.214152 187.828789 
L 243.283374 213.66936 
L 244.352595 207.768569 
L 245.421817 207.295129 
L 246.491039 192.832229 
L 247.56026 206.958159 
L 248.629482 188.728128 
L 249.698703 193.851266 
L 250.767925 207.103197 
L 251.837146 215.224404 
L 252.906368 196.113595 
L 253.975589 220.91992 
L 255.044811 200.04709 
L 256.114033 223.444191 
L 257.183254 251.024981 
L 258.252476 228.180558 
L 259.321697 208.755181 
L 260.390919 251.311193 
L 261.46014 254.432046 
L 262.529362 215.74342 
L 263.598583 126.299141 
L 264.667805 90.185267 
L 265.737027 169.01121 
L 266.806248 202.233317 
L 267.87547 208.810336 
L 268.944691 167.736099 
L 270.013913 215.685286 
L 271.083134 255.304956 
L 272.152356 257.151057 
L 273.221577 241.910597 
L 274.290799 230.363911 
L 275.360021 201.639485 
L 276.429242 252.591109 
L 277.498464 261.202922 
L 278.567685 248.191392 
L 279.636907 245.888016 
L 280.706128 248.528538 
L 281.77535 233.937612 
L 282.844571 243.873594 
L 283.913793 245.699396 
L 284.983015 238.379427 
L 286.052236 250.421781 
L 287.121458 242.025158 
L 288.190679 235.679743 
L 289.259901 231.977605 
L 290.329122 268.725993 
L 291.398344 251.010186 
L 292.467565 243.44844 
L 293.536787 231.173865 
L 294.606009 246.470516 
L 295.67523 240.806074 
L 296.744452 205.729567 
L 297.813673 216.74151 
L 298.882895 221.239134 
L 299.952116 222.049942 
L 301.021338 236.243828 
L 302.09056 216.587974 
L 303.159781 250.056764 
L 304.229003 220.887451 
L 305.298224 228.799652 
L 306.367446 253.712581 
L 307.436667 218.850978 
L 308.505889 215.357996 
L 309.57511 237.280047 
L 310.644332 193.27922 
L 311.713554 224.105076 
L 312.782775 238.379537 
L 313.851997 241.772305 
L 314.921218 251.269511 
L 315.99044 255.03236 
L 318.128883 237.065956 
L 319.198104 226.130001 
L 320.267326 244.38679 
L 321.336548 206.157732 
L 322.405769 233.765533 
L 323.474991 159.336552 
L 324.544212 185.327724 
L 325.613434 214.962751 
L 326.682655 217.21233 
L 327.751877 183.217935 
L 328.821098 224.645526 
L 329.89032 214.214028 
L 330.959542 235.628575 
L 332.028763 247.936648 
L 333.097985 239.212375 
L 334.167206 229.20156 
L 336.305649 253.457905 
L 337.374871 223.82357 
L 338.444092 230.110703 
L 339.513314 231.751414 
L 340.582536 221.724925 
L 341.651757 218.438731 
L 342.720979 196.729311 
L 343.7902 269.644947 
L 344.859422 186.805833 
L 345.928643 151.469654 
L 346.997865 196.794784 
L 348.067086 186.090119 
L 349.136308 212.367022 
L 350.20553 270.557568 
L 351.274751 131.696335 
L 352.343973 246.286327 
L 353.413194 246.583352 
L 354.482416 237.988485 
L 355.551637 247.318928 
L 356.620859 158.670839 
L 357.69008 179.975338 
L 358.759302 223.430761 
L 359.828524 212.644411 
L 360.897745 225.046752 
L 361.966967 197.113467 
L 363.036188 202.169595 
L 364.10541 251.481393 
L 365.174631 236.781261 
L 366.243853 190.034499 
L 368.382296 209.627986 
L 369.451518 206.447701 
L 370.520739 229.946022 
L 371.589961 202.966425 
L 372.659182 187.325942 
L 373.728404 234.850923 
L 374.797625 249.425785 
L 375.866847 237.707895 
L 376.936068 238.97414 
L 378.00529 232.48244 
L 379.074512 220.86156 
L 380.143733 241.904439 
L 381.212955 236.738014 
L 382.282176 191.805638 
L 383.351398 91.540341 
L 385.489841 209.431011 
L 385.489841 209.431011 
" clip-path="url(#p5139418bd2)" style="fill: none; stroke: #1f77b4; stroke-width: 1.5; stroke-linecap: square"/>
   </g>
   <g id="line2d_20">
    <path d="M 29.439063 230.929789 
L 30.508284 242.60231 
L 31.577506 262.8168 
L 32.646727 257.425513 
L 33.715949 253.337157 
L 34.78517 259.836211 
L 35.854392 254.434415 
L 36.923613 240.414674 
L 37.992835 228.735232 
L 39.062057 213.41839 
L 40.131278 223.501825 
L 41.2005 248.433331 
L 42.269721 230.677266 
L 43.338943 229.912564 
L 44.408164 262.11981 
L 45.477386 259.625445 
L 46.546607 245.355694 
L 47.615829 243.118728 
L 48.685051 189.281671 
L 49.754272 152.189606 
L 50.823494 182.917915 
L 51.892715 119.473036 
L 52.961937 68.196709 
L 54.031158 137.669929 
L 55.10038 141.957318 
L 56.169601 170.127431 
L 57.238823 187.579679 
L 58.308045 141.084002 
L 59.377266 138.693349 
L 60.446488 201.292679 
L 61.515709 186.000414 
L 62.584931 80.567026 
L 63.654152 78.413733 
L 64.723374 99.383107 
L 65.792595 67.931655 
L 66.861817 58.815077 
L 67.931039 58.306173 
L 69.00026 75.699401 
L 70.069482 113.713912 
L 71.138703 113.383995 
L 72.207925 146.569691 
L 73.277146 147.022086 
L 74.346368 133.443524 
L 75.415589 151.100956 
L 76.484811 156.832948 
L 77.554033 178.224324 
L 78.623254 186.098223 
L 79.692476 189.532009 
L 80.761697 209.091256 
L 81.830919 194.807872 
L 82.90014 168.434555 
L 83.969362 185.419494 
L 85.038583 188.44227 
L 86.107805 185.724694 
L 87.177027 192.276003 
L 88.246248 183.362139 
L 89.31547 181.032368 
L 90.384691 195.324076 
L 91.453913 198.546144 
L 92.523134 189.431392 
L 93.592356 187.79659 
L 94.661577 198.54902 
L 95.730799 201.914295 
L 96.800021 194.115474 
L 97.869242 187.422411 
L 98.938464 184.383085 
L 100.007685 191.750659 
L 101.076907 196.087179 
L 102.146128 186.997904 
L 103.21535 184.346184 
L 104.284571 190.473981 
L 105.353793 199.403219 
L 106.423015 215.633088 
L 107.492236 217.185071 
L 108.561458 213.134848 
L 109.630679 211.351742 
L 110.699901 210.94113 
L 111.769122 210.228598 
L 112.838344 198.987184 
L 113.907565 175.731796 
L 114.976787 162.744798 
L 117.11523 195.737687 
L 118.184452 196.62741 
L 119.253673 200.268399 
L 120.322895 214.327003 
L 121.392116 224.517111 
L 122.461338 240.462163 
L 123.53056 244.757718 
L 124.599781 241.063165 
L 125.669003 244.236496 
L 126.738224 249.249927 
L 127.807446 251.518783 
L 128.876667 251.727342 
L 129.945889 247.466905 
L 131.01511 247.402446 
L 132.084332 246.595581 
L 133.153554 235.262778 
L 134.222775 234.987471 
L 135.291997 240.181603 
L 136.361218 234.304978 
L 137.43044 231.390872 
L 138.499661 227.332189 
L 139.568883 220.846856 
L 141.707326 249.196285 
L 142.776548 241.279862 
L 143.845769 235.839395 
L 144.914991 235.281663 
L 145.984212 229.316941 
L 147.053434 227.743627 
L 148.122655 248.882551 
L 149.191877 230.621466 
L 150.261098 204.147875 
L 151.33032 220.93913 
L 152.399542 229.635769 
L 153.468763 222.625721 
L 154.537985 191.792225 
L 155.607206 191.471858 
L 156.676428 219.272458 
L 157.745649 231.97864 
L 158.814871 232.42119 
L 159.884092 223.814193 
L 160.953314 212.595296 
L 162.022536 241.501939 
L 163.091757 230.097519 
L 164.160979 212.536835 
L 165.2302 231.223399 
L 166.299422 220.196168 
L 167.368643 211.66473 
L 168.437865 226.773505 
L 169.507086 224.052711 
L 170.576308 244.24423 
L 171.64553 237.116008 
L 172.714751 178.033043 
L 174.853194 204.731901 
L 175.922416 194.218394 
L 176.991637 200.456001 
L 178.060859 177.011185 
L 179.13008 179.059561 
L 180.199302 227.005264 
L 181.268524 215.29372 
L 182.337745 189.34014 
L 183.406967 207.855357 
L 184.476188 209.25497 
L 185.54541 194.345323 
L 186.614631 202.914504 
L 187.683853 199.04078 
L 188.753074 191.364392 
L 189.822296 194.846812 
L 190.891518 176.074523 
L 191.960739 175.764073 
L 193.029961 194.009205 
L 194.099182 176.860376 
L 195.168404 152.516084 
L 196.237625 198.91713 
L 197.306847 203.448625 
L 198.376068 180.273516 
L 199.44529 196.993923 
L 200.514512 187.318791 
L 201.583733 192.562593 
L 202.652955 207.954654 
L 203.722176 183.674736 
L 204.791398 192.091624 
L 205.860619 217.873602 
L 206.929841 220.737602 
L 207.999063 208.513572 
L 209.068284 186.8113 
L 210.137506 198.998945 
L 211.206727 202.972279 
L 212.275949 189.440136 
L 213.34517 183.678277 
L 214.414392 188.335204 
L 215.483613 198.897374 
L 216.552835 187.448754 
L 217.622057 197.179515 
L 218.691278 198.341262 
L 219.7605 176.894581 
L 221.898943 198.406453 
L 222.968164 201.724689 
L 224.037386 190.654224 
L 225.106607 163.401008 
L 226.175829 182.424595 
L 227.245051 217.110216 
L 228.314272 212.600777 
L 229.383494 204.687964 
L 230.452715 194.139114 
L 231.521937 188.526714 
L 232.591158 196.119779 
L 233.66038 185.880047 
L 234.729601 174.173214 
L 235.798823 171.1536 
L 236.868045 177.474475 
L 237.937266 185.48723 
L 239.006488 178.891638 
L 240.075709 177.554882 
L 241.144931 191.49043 
L 242.214152 194.588989 
L 243.283374 201.412831 
L 244.352595 210.756455 
L 245.421817 207.532084 
L 246.491039 200.270107 
L 247.56026 200.091846 
L 248.629482 198.165608 
L 249.698703 191.313905 
L 250.767925 200.651084 
L 251.837146 211.235099 
L 252.906368 206.046382 
L 253.975589 209.168684 
L 255.044811 210.952529 
L 256.114033 212.341773 
L 257.183254 238.302243 
L 258.252476 240.353858 
L 259.321697 218.904029 
L 260.390919 232.400817 
L 261.46014 252.888083 
L 262.529362 237.150337 
L 263.598583 177.577562 
L 264.667805 108.989297 
L 265.737027 133.576313 
L 266.806248 186.602691 
L 267.87547 205.566408 
L 268.944691 189.803691 
L 270.013913 193.854637 
L 271.083134 237.669294 
L 272.152356 256.234041 
L 273.221577 249.907348 
L 274.290799 236.3212 
L 275.360021 216.936234 
L 276.429242 230.424572 
L 277.498464 257.029702 
L 278.567685 254.991137 
L 279.636907 247.048016 
L 280.706128 247.219224 
L 281.77535 241.544538 
L 282.844571 239.046068 
L 283.913793 244.791574 
L 284.983015 242.11844 
L 286.052236 244.62081 
L 287.121458 246.332876 
L 288.190679 238.909678 
L 289.259901 233.847098 
L 290.329122 252.591834 
L 291.398344 260.456547 
L 292.467565 247.319155 
L 293.536787 237.521782 
L 294.606009 239.155159 
L 295.67523 243.68652 
L 296.744452 224.763671 
L 297.813673 211.366742 
L 298.882895 219.013772 
L 299.952116 221.645319 
L 301.021338 229.405031 
L 302.09056 226.898006 
L 303.159781 234.831969 
L 304.229003 236.643788 
L 305.298224 224.92031 
L 306.367446 242.167574 
L 307.436667 237.975354 
L 308.505889 217.118387 
L 309.57511 226.918474 
L 310.644332 217.470651 
L 311.713554 209.70189 
L 312.782775 231.509136 
L 313.851997 240.092508 
L 315.99044 253.174961 
L 317.059661 250.620979 
L 319.198104 231.755086 
L 320.267326 235.714517 
L 321.336548 227.087281 
L 322.405769 220.856887 
L 323.474991 201.979325 
L 324.544212 172.879669 
L 325.613434 201.014775 
L 326.682655 216.093253 
L 327.751877 201.361197 
L 328.821098 205.689899 
L 329.89032 219.5565 
L 330.959542 225.485354 
L 332.028763 242.005556 
L 333.097985 243.688865 
L 334.167206 234.342313 
L 335.236428 235.172055 
L 336.305649 247.370212 
L 337.374871 239.894402 
L 338.444092 227.016627 
L 339.513314 230.934568 
L 340.582536 226.863796 
L 341.651757 220.094475 
L 342.720979 208.079088 
L 343.7902 240.575619 
L 344.859422 237.346517 
L 345.928643 170.130648 
L 346.997865 175.823307 
L 348.067086 191.548291 
L 349.136308 199.90677 
L 350.20553 246.573458 
L 351.274751 222.041376 
L 352.343973 201.463386 
L 353.413194 246.434977 
L 354.482416 242.395209 
L 355.551637 242.783083 
L 356.620859 211.199039 
L 357.69008 169.683708 
L 358.759302 203.603942 
L 359.828524 218.171346 
L 360.897745 219.023784 
L 361.966967 211.92582 
L 363.036188 199.666658 
L 364.10541 229.912564 
L 365.174631 244.458602 
L 366.243853 215.842327 
L 367.313074 194.909964 
L 368.382296 204.722485 
L 369.451518 208.048487 
L 370.520739 218.834091 
L 371.589961 217.28368 
L 372.659182 195.378597 
L 373.728404 213.553984 
L 374.797625 242.452465 
L 375.866847 243.773232 
L 376.936068 238.343282 
L 378.00529 235.786131 
L 379.074512 226.840682 
L 380.143733 231.964677 
L 381.212955 239.359363 
L 382.282176 216.536691 
L 383.351398 148.589041 
L 384.420619 122.509928 
L 385.489841 182.504922 
L 385.489841 182.504922 
" clip-path="url(#p5139418bd2)" style="fill: none; stroke: #ff7f0e; stroke-width: 1.5; stroke-linecap: square"/>
   </g>
   <g id="line2d_21">
    <path d="M 29.439063 229.122786 
L 30.508284 239.928401 
L 31.577506 252.698705 
L 32.646727 256.780278 
L 33.715949 259.139403 
L 34.78517 254.622372 
L 35.854392 257.208287 
L 36.923613 246.388486 
L 37.992835 237.055655 
L 39.062057 218.326475 
L 41.2005 233.387372 
L 42.269721 236.234427 
L 43.338943 237.293425 
L 45.477386 256.313321 
L 46.546607 255.822722 
L 47.615829 243.109331 
L 48.685051 212.36467 
L 50.823494 162.563334 
L 51.892715 143.84129 
L 52.961937 113.406318 
L 54.031158 107.256927 
L 55.10038 129.127564 
L 56.169601 169.610337 
L 57.238823 165.645532 
L 58.308045 169.115602 
L 59.377266 144.753156 
L 60.446488 179.647632 
L 61.515709 175.437505 
L 62.584931 150.710969 
L 63.654152 88.208754 
L 64.723374 84.394062 
L 65.792595 80.114816 
L 66.861817 71.804879 
L 67.931039 51.239386 
L 69.00026 76.931758 
L 70.069482 90.291085 
L 71.138703 112.392863 
L 72.207925 137.201801 
L 73.277146 135.362509 
L 74.346368 149.276885 
L 75.415589 138.58476 
L 76.484811 155.795645 
L 77.554033 168.900399 
L 80.761697 200.539182 
L 81.830919 195.575228 
L 82.90014 187.912342 
L 83.969362 178.52472 
L 85.038583 183.482093 
L 86.107805 189.523726 
L 87.177027 188.153999 
L 88.246248 186.18367 
L 89.31547 185.09643 
L 90.384691 188.315827 
L 91.453913 195.281979 
L 92.523134 193.687884 
L 93.592356 190.308761 
L 94.661577 193.689874 
L 95.730799 198.708102 
L 96.800021 197.755094 
L 97.869242 191.402728 
L 98.938464 185.944654 
L 100.007685 189.7987 
L 101.076907 191.844605 
L 102.146128 191.480812 
L 103.21535 186.955724 
L 104.284571 187.634041 
L 105.353793 195.355837 
L 106.423015 208.84012 
L 108.561458 217.476612 
L 109.630679 210.241718 
L 110.699901 213.36349 
L 111.769122 208.263285 
L 112.838344 205.402114 
L 113.907565 185.324114 
L 114.976787 174.344388 
L 116.046009 170.831497 
L 117.11523 188.120092 
L 118.184452 193.123075 
L 119.253673 201.848623 
L 120.322895 206.082407 
L 122.461338 233.236603 
L 123.53056 240.583648 
L 124.599781 243.620823 
L 125.669003 243.114997 
L 127.807446 250.064959 
L 128.876667 251.607698 
L 129.945889 248.893225 
L 131.01511 248.891095 
L 132.084332 245.382199 
L 134.222775 237.10204 
L 135.291997 236.582508 
L 136.361218 236.477418 
L 137.43044 234.241533 
L 138.499661 227.752305 
L 139.568883 225.467971 
L 140.638104 230.718701 
L 141.707326 240.92208 
L 142.776548 243.507227 
L 143.845769 241.044337 
L 144.914991 233.826969 
L 145.984212 233.222764 
L 147.053434 228.38915 
L 148.122655 242.740121 
L 149.191877 229.269077 
L 150.261098 229.870881 
L 151.33032 207.161383 
L 152.399542 229.209749 
L 153.468763 219.501156 
L 154.537985 212.031087 
L 155.607206 192.98185 
L 156.676428 209.581314 
L 157.745649 221.065989 
L 158.814871 234.616737 
L 159.884092 224.06468 
L 160.953314 222.447011 
L 162.022536 230.764786 
L 163.091757 226.735849 
L 164.160979 230.732013 
L 165.2302 218.850986 
L 166.299422 224.281475 
L 167.368643 218.302399 
L 168.437865 221.123664 
L 169.507086 220.93512 
L 170.576308 242.141688 
L 171.64553 228.364316 
L 172.714751 218.44859 
L 173.783973 190.029585 
L 174.853194 193.727182 
L 175.922416 200.139008 
L 176.991637 199.610689 
L 178.060859 181.624175 
L 179.13008 190.09163 
L 181.268524 214.510045 
L 182.337745 208.573118 
L 183.406967 200.569432 
L 184.476188 204.342327 
L 185.54541 203.652593 
L 186.614631 200.974213 
L 187.683853 196.618162 
L 188.753074 199.093369 
L 189.822296 191.026031 
L 190.891518 184.214067 
L 191.960739 180.790352 
L 193.029961 183.611312 
L 194.099182 181.298308 
L 195.168404 169.270937 
L 196.237625 184.905831 
L 197.306847 188.492178 
L 198.376068 200.403438 
L 199.44529 187.108997 
L 200.514512 189.611924 
L 201.583733 195.033037 
L 202.652955 197.447481 
L 203.722176 192.747876 
L 204.791398 197.145102 
L 205.860619 200.314175 
L 206.929841 220.626045 
L 209.068284 201.295556 
L 210.137506 195.464272 
L 211.206727 197.405968 
L 212.275949 197.113713 
L 213.34517 187.261183 
L 214.414392 187.08549 
L 215.483613 193.741822 
L 216.552835 189.550213 
L 217.622057 199.469935 
L 218.691278 189.152671 
L 219.7605 193.119185 
L 220.829721 182.150609 
L 221.898943 193.164416 
L 222.968164 198.60058 
L 224.037386 195.400607 
L 225.106607 176.246527 
L 226.175829 182.20913 
L 227.245051 196.443074 
L 228.314272 212.928431 
L 229.383494 210.214796 
L 230.452715 197.539344 
L 231.521937 194.357613 
L 233.66038 188.916137 
L 234.729601 182.357292 
L 235.798823 171.871023 
L 236.868045 176.669151 
L 237.937266 179.625281 
L 239.006488 181.687232 
L 240.075709 179.678119 
L 241.144931 185.826618 
L 242.214152 190.280728 
L 243.283374 201.282161 
L 244.352595 203.568241 
L 245.421817 209.613962 
L 246.491039 202.82065 
L 247.56026 202.539923 
L 248.629482 196.411828 
L 249.698703 196.743275 
L 250.767925 196.795762 
L 251.837146 205.708887 
L 252.906368 206.399686 
L 253.975589 211.222913 
L 255.044811 206.203506 
L 256.114033 215.275699 
L 257.183254 227.04317 
L 258.252476 235.049338 
L 259.321697 230.893623 
L 260.390919 231.014516 
L 261.46014 240.403632 
L 262.529362 242.143466 
L 263.598583 209.55923 
L 264.667805 152.790998 
L 265.737027 131.180415 
L 266.806248 159.879638 
L 267.87547 194.434509 
L 268.944691 194.078898 
L 270.013913 199.039398 
L 271.083134 218.686553 
L 272.152356 244.703586 
L 273.221577 251.750355 
L 274.290799 243.877834 
L 275.360021 225.985777 
L 276.429242 230.404356 
L 278.567685 254.199875 
L 279.636907 252.076606 
L 281.77535 243.017663 
L 282.844571 242.328067 
L 283.913793 241.322359 
L 284.983015 242.707579 
L 286.052236 244.981923 
L 287.121458 243.764543 
L 288.190679 242.927891 
L 289.259901 236.657187 
L 290.329122 247.335431 
L 291.398344 252.068319 
L 292.467565 255.212423 
L 293.536787 242.265414 
L 294.606009 240.610269 
L 295.67523 239.708955 
L 296.744452 232.583033 
L 297.813673 222.156768 
L 298.882895 214.756056 
L 299.952116 220.03548 
L 301.021338 226.75576 
L 302.09056 225.307435 
L 303.159781 235.305016 
L 304.229003 230.400667 
L 305.298224 234.101419 
L 306.367446 235.597281 
L 307.436667 235.016415 
L 308.505889 230.998408 
L 309.57511 224.298607 
L 310.644332 216.77092 
L 311.713554 219.728418 
L 312.782775 220.168553 
L 313.851997 235.06089 
L 314.921218 243.990749 
L 315.99044 249.55491 
L 317.059661 250.837773 
L 318.128883 246.346832 
L 319.198104 236.739674 
L 320.267326 236.167242 
L 321.336548 226.769203 
L 322.405769 229.364982 
L 323.474991 203.387961 
L 324.544212 196.658751 
L 325.613434 188.424055 
L 326.682655 206.663801 
L 327.751877 206.069522 
L 328.821098 209.659357 
L 329.89032 208.600655 
L 330.959542 225.206181 
L 332.028763 233.601789 
L 333.097985 241.084532 
L 334.167206 239.115899 
L 335.236428 236.539116 
L 336.305649 241.724612 
L 337.374871 240.189745 
L 338.444092 236.74839 
L 339.513314 228.620524 
L 340.582536 227.958032 
L 341.651757 224.130838 
L 342.720979 212.813983 
L 343.7902 233.750892 
L 344.859422 225.457117 
L 345.928643 214.850353 
L 346.997865 179.576668 
L 348.067086 179.326206 
L 349.136308 198.877806 
L 350.20553 230.048416 
L 351.274751 218.911035 
L 352.343973 230.841344 
L 353.413194 218.786929 
L 354.482416 243.712699 
L 355.551637 244.069427 
L 356.620859 220.923793 
L 357.69008 201.608566 
L 358.759302 190.148872 
L 359.828524 206.694286 
L 360.897745 220.51326 
L 361.966967 212.165852 
L 363.036188 208.761677 
L 365.174631 232.258454 
L 366.243853 229.284271 
L 367.313074 210.676295 
L 368.382296 200.010647 
L 369.451518 205.300287 
L 370.520739 215.848678 
L 371.589961 213.78464 
L 372.659182 208.090792 
L 373.728404 210.129375 
L 374.797625 227.056885 
L 375.866847 240.899692 
L 376.936068 242.203393 
L 379.074512 231.060772 
L 380.143733 232.13758 
L 381.212955 233.583248 
L 382.282176 225.739054 
L 383.351398 184.847844 
L 384.420619 148.860843 
L 385.489841 156.968288 
L 385.489841 156.968288 
" clip-path="url(#p5139418bd2)" style="fill: none; stroke: #2ca02c; stroke-width: 1.5; stroke-linecap: square"/>
   </g>
   <g id="line2d_22">
    <path d="M 29.439063 221.275211 
L 30.508284 236.505406 
L 31.577506 248.478994 
L 32.646727 250.372301 
L 33.715949 258.240554 
L 34.78517 258.641514 
L 35.854392 253.887849 
L 36.923613 250.742613 
L 37.992835 242.558839 
L 39.062057 227.832517 
L 40.131278 226.152528 
L 41.2005 232.537407 
L 42.269721 227.154092 
L 43.338943 239.663468 
L 44.408164 247.949949 
L 45.477386 246.12502 
L 46.546607 254.219959 
L 47.615829 251.824807 
L 48.685051 220.968504 
L 49.754272 205.919399 
L 50.823494 186.135769 
L 51.892715 136.533121 
L 52.961937 133.903952 
L 54.031158 128.780364 
L 55.10038 108.165345 
L 56.169601 154.661857 
L 57.238823 166.381937 
L 58.308045 156.222628 
L 60.446488 174.127491 
L 61.515709 164.056515 
L 62.584931 151.002816 
L 63.654152 139.788926 
L 64.723374 90.161987 
L 65.792595 73.226844 
L 66.861817 79.930908 
L 67.931039 63.162834 
L 69.00026 67.394559 
L 70.069482 87.608872 
L 71.138703 95.307164 
L 72.207925 130.829051 
L 73.277146 130.923693 
L 75.415589 149.07322 
L 76.484811 145.514995 
L 77.554033 165.230701 
L 78.623254 172.15619 
L 79.692476 183.990017 
L 80.761697 198.107108 
L 81.830919 192.195781 
L 82.90014 190.267628 
L 83.969362 190.194295 
L 85.038583 178.776002 
L 86.107805 185.572177 
L 87.177027 190.372599 
L 88.246248 184.54832 
L 89.31547 186.766963 
L 90.384691 189.473261 
L 91.453913 190.069324 
L 92.523134 192.410021 
L 95.730799 195.044354 
L 96.800021 196.351076 
L 97.869242 194.867136 
L 98.938464 189.335364 
L 100.007685 189.603599 
L 101.076907 190.360547 
L 102.146128 189.394825 
L 103.21535 190.342872 
L 104.284571 188.74688 
L 105.353793 192.084855 
L 106.423015 203.69443 
L 107.492236 208.628052 
L 108.561458 214.390906 
L 109.630679 214.306201 
L 110.699901 212.043229 
L 111.769122 210.791529 
L 112.838344 205.110817 
L 114.976787 181.995215 
L 116.046009 177.300368 
L 117.11523 180.166067 
L 118.184452 188.02426 
L 119.253673 198.022962 
L 121.392116 213.03684 
L 122.461338 228.256977 
L 123.53056 235.194567 
L 124.599781 240.763189 
L 125.669003 244.49752 
L 126.738224 245.259188 
L 128.876667 250.498685 
L 129.945889 249.519384 
L 131.01511 249.59516 
L 132.084332 247.032432 
L 133.153554 241.548346 
L 134.222775 240.987516 
L 136.361218 234.646856 
L 137.43044 235.892398 
L 139.568883 226.256947 
L 140.638104 231.579139 
L 141.707326 236.122417 
L 142.776548 238.507266 
L 143.845769 242.782759 
L 144.914991 238.331566 
L 145.984212 232.634606 
L 147.053434 231.587191 
L 148.122655 239.646891 
L 149.191877 229.193149 
L 150.261098 229.040635 
L 151.33032 225.896331 
L 152.399542 217.632953 
L 153.468763 221.78581 
L 154.537985 212.266073 
L 155.607206 208.065956 
L 156.676428 206.313066 
L 157.745649 213.521109 
L 158.814871 226.061058 
L 159.884092 227.980673 
L 160.953314 222.980288 
L 162.022536 233.074257 
L 163.091757 221.710038 
L 164.160979 228.075685 
L 165.2302 230.662107 
L 166.299422 216.432907 
L 167.368643 221.898783 
L 168.437865 223.537176 
L 169.507086 218.034898 
L 170.576308 235.927619 
L 171.64553 230.806248 
L 172.714751 215.976432 
L 173.783973 216.679967 
L 174.853194 192.041922 
L 175.922416 192.910047 
L 176.991637 202.612348 
L 178.060859 185.877122 
L 179.13008 190.175906 
L 180.199302 204.536808 
L 181.268524 198.448671 
L 182.337745 209.676726 
L 183.406967 211.634562 
L 184.476188 199.686873 
L 185.54541 201.281933 
L 186.614631 206.126362 
L 187.683853 196.71423 
L 188.753074 197.268091 
L 189.822296 196.960725 
L 190.891518 183.923798 
L 191.960739 185.627441 
L 193.029961 185.325715 
L 194.099182 176.313222 
L 195.168404 174.670499 
L 196.237625 188.327129 
L 197.306847 180.177036 
L 199.44529 200.262414 
L 200.514512 183.839538 
L 201.583733 194.796847 
L 202.652955 198.049398 
L 203.722176 188.189868 
L 204.791398 200.271432 
L 205.860619 201.939318 
L 206.929841 207.269481 
L 207.999063 213.289999 
L 209.068284 204.949238 
L 210.137506 203.848238 
L 211.206727 195.139464 
L 212.275949 194.305696 
L 213.34517 193.674278 
L 214.414392 188.888776 
L 215.483613 191.5016 
L 216.552835 187.892686 
L 217.622057 198.041309 
L 218.691278 193.005785 
L 219.7605 187.405469 
L 220.829721 192.869183 
L 221.898943 188.066754 
L 222.968164 194.64471 
L 224.037386 194.587132 
L 225.106607 183.841066 
L 226.175829 186.599767 
L 227.245051 192.921842 
L 228.314272 198.395901 
L 229.383494 211.065593 
L 231.521937 196.858291 
L 232.591158 195.13317 
L 233.66038 187.209652 
L 234.729601 185.572071 
L 235.798823 178.699715 
L 236.868045 175.832866 
L 237.937266 178.493445 
L 239.006488 178.184745 
L 241.144931 185.331186 
L 242.214152 186.329848 
L 243.283374 196.546057 
L 244.352595 202.936162 
L 245.421817 204.510717 
L 246.491039 205.626636 
L 247.56026 203.868227 
L 248.629482 199.222196 
L 249.698703 195.776348 
L 250.767925 199.414406 
L 251.837146 201.670223 
L 252.906368 203.378204 
L 253.975589 210.206468 
L 255.044811 208.524885 
L 256.114033 210.766072 
L 257.183254 225.546373 
L 259.321697 229.083162 
L 260.390919 236.464788 
L 261.46014 237.497733 
L 262.529362 234.806213 
L 263.598583 221.777563 
L 264.667805 187.059161 
L 265.737027 156.996009 
L 266.806248 152.052377 
L 267.87547 173.746238 
L 268.944691 188.21243 
L 270.013913 199.845473 
L 271.083134 216.297816 
L 273.221577 244.014071 
L 274.290799 246.895303 
L 275.360021 234.888058 
L 276.429242 233.419403 
L 277.498464 239.247932 
L 278.567685 243.609469 
L 279.636907 252.205565 
L 280.706128 251.204953 
L 281.77535 244.342162 
L 282.844571 243.23247 
L 283.913793 243.18381 
L 284.983015 240.595936 
L 286.052236 244.706237 
L 287.121458 244.25254 
L 288.190679 241.813187 
L 289.259901 240.314936 
L 290.329122 246.039879 
L 291.398344 248.270489 
L 292.467565 250.000714 
L 293.536787 249.838473 
L 294.606009 243.336882 
L 295.67523 240.659262 
L 296.744452 232.232699 
L 297.813673 228.85032 
L 298.882895 221.92811 
L 299.952116 216.625799 
L 301.021338 224.341012 
L 302.09056 224.305296 
L 303.159781 232.157378 
L 304.229003 231.895875 
L 305.298224 230.002881 
L 306.367446 239.449318 
L 307.436667 231.67145 
L 308.505889 230.453386 
L 309.57511 232.608966 
L 310.644332 217.294661 
L 311.713554 218.652145 
L 312.782775 224.730893 
L 313.851997 226.036156 
L 314.921218 239.412963 
L 315.99044 246.900947 
L 317.059661 248.666268 
L 318.128883 247.606781 
L 319.198104 241.709108 
L 320.267326 238.715508 
L 321.336548 229.449148 
L 322.405769 228.566113 
L 323.474991 215.237231 
L 324.544212 199.101393 
L 325.613434 201.497978 
L 326.682655 196.262164 
L 327.751877 201.188106 
L 328.821098 211.008323 
L 329.89032 210.81501 
L 330.959542 216.028823 
L 332.028763 231.439145 
L 334.167206 238.256773 
L 335.236428 239.534264 
L 336.305649 241.103387 
L 337.374871 237.564451 
L 338.444092 237.772997 
L 339.513314 235.524322 
L 340.582536 226.940241 
L 341.651757 225.659602 
L 342.720979 217.875523 
L 343.7902 230.879977 
L 344.859422 223.746317 
L 345.928643 210.571632 
L 346.997865 210.586262 
L 348.067086 181.23276 
L 349.136308 188.387747 
L 350.20553 222.631901 
L 351.274751 211.503893 
L 352.343973 226.523011 
L 353.413194 235.045011 
L 354.482416 223.94509 
L 355.551637 244.629308 
L 357.69008 211.905399 
L 358.759302 207.461883 
L 359.828524 196.157487 
L 360.897745 211.571442 
L 361.966967 215.092211 
L 363.036188 209.744566 
L 364.10541 221.301717 
L 365.174631 224.484392 
L 366.243853 223.115774 
L 367.313074 222.587786 
L 368.382296 210.4151 
L 369.451518 201.651481 
L 370.520739 211.994848 
L 371.589961 212.759506 
L 372.659182 207.682134 
L 373.728404 215.434441 
L 374.797625 221.513588 
L 375.866847 229.833401 
L 376.936068 240.422297 
L 378.00529 239.871335 
L 379.074512 232.767645 
L 380.143733 233.895044 
L 381.212955 233.309256 
L 382.282176 224.541142 
L 383.351398 201.966659 
L 384.420619 176.712912 
L 385.489841 166.440971 
L 385.489841 166.440971 
" clip-path="url(#p5139418bd2)" style="fill: none; stroke: #d62728; stroke-width: 1.5; stroke-linecap: square"/>
   </g>
   <g id="line2d_23">
    <path d="M 29.439063 222.506149 
L 30.508284 229.225195 
L 31.577506 244.328125 
L 32.646727 247.402355 
L 34.78517 258.019032 
L 35.854392 257.295259 
L 36.923613 249.2435 
L 37.992835 246.974437 
L 39.062057 234.54074 
L 40.131278 231.861658 
L 41.2005 231.553594 
L 42.269721 227.717781 
L 43.338943 232.012654 
L 44.408164 247.643113 
L 46.546607 246.413994 
L 47.615829 251.305355 
L 48.685051 234.325278 
L 49.754272 214.484016 
L 50.823494 201.387908 
L 51.892715 163.586194 
L 52.961937 129.858474 
L 54.031158 141.397281 
L 55.10038 125.3209 
L 56.169601 134.972888 
L 57.238823 154.989431 
L 58.308045 158.76708 
L 59.377266 155.361922 
L 60.446488 182.873277 
L 61.515709 162.532711 
L 62.584931 145.998895 
L 63.654152 142.271252 
L 64.723374 131.739654 
L 65.792595 80.2958 
L 66.861817 74.469261 
L 67.931039 71.612377 
L 69.00026 73.369884 
L 70.069482 78.170446 
L 71.138703 92.205622 
L 72.207925 114.651386 
L 73.277146 126.98029 
L 74.346368 135.707335 
L 75.415589 141.820322 
L 76.484811 152.338799 
L 77.554033 155.572908 
L 78.623254 168.629853 
L 79.692476 177.501124 
L 80.761697 192.046346 
L 81.830919 191.863517 
L 82.90014 188.562489 
L 83.969362 191.603524 
L 85.038583 188.124556 
L 86.107805 181.447777 
L 87.177027 187.0666 
L 88.246248 187.0915 
L 89.31547 185.34807 
L 90.384691 189.913695 
L 91.453913 190.637736 
L 92.523134 188.763136 
L 94.661577 195.654061 
L 95.730799 195.075047 
L 96.800021 193.860278 
L 97.869242 194.307816 
L 98.938464 192.563919 
L 100.007685 191.542008 
L 102.146128 188.685177 
L 103.21535 188.893792 
L 104.284571 191.078975 
L 105.353793 192.074346 
L 106.423015 199.593102 
L 107.492236 204.565698 
L 108.561458 210.577143 
L 109.630679 212.428944 
L 110.699901 214.907852 
L 111.769122 210.23647 
L 112.838344 207.817891 
L 113.907565 196.188428 
L 114.976787 189.862088 
L 116.046009 182.770205 
L 117.11523 183.291563 
L 118.184452 181.712392 
L 119.253673 193.113415 
L 121.392116 211.463604 
L 123.53056 230.909798 
L 125.669003 242.063784 
L 126.738224 245.919887 
L 127.807446 246.583547 
L 128.876667 248.741635 
L 129.945889 249.036102 
L 131.01511 249.952996 
L 132.084332 247.98217 
L 133.153554 243.701758 
L 134.222775 241.373489 
L 135.291997 240.72956 
L 136.361218 235.993508 
L 138.499661 232.924776 
L 139.568883 229.099784 
L 140.638104 230.988135 
L 141.707326 235.724345 
L 142.776548 235.091221 
L 143.845769 238.923995 
L 144.914991 240.309621 
L 145.984212 236.532871 
L 147.053434 231.439783 
L 148.122655 239.832571 
L 149.191877 229.288225 
L 150.261098 229.025515 
L 151.33032 226.018762 
L 152.399542 229.776904 
L 153.468763 213.604985 
L 154.537985 215.680869 
L 155.607206 209.062995 
L 156.676428 214.984372 
L 157.745649 210.206824 
L 158.814871 219.314815 
L 159.884092 222.17396 
L 160.953314 226.369517 
L 162.022536 231.430807 
L 163.091757 225.577264 
L 164.160979 223.851206 
L 165.2302 228.555607 
L 166.299422 226.648719 
L 167.368643 216.031922 
L 168.437865 225.28565 
L 169.507086 220.640156 
L 170.576308 231.061495 
L 171.64553 227.73105 
L 172.714751 220.726004 
L 173.783973 215.037011 
L 174.853194 213.157231 
L 175.922416 191.720756 
L 176.991637 196.460668 
L 178.060859 191.350375 
L 179.13008 191.757527 
L 180.199302 201.836996 
L 181.268524 200.792232 
L 182.337745 197.550137 
L 183.406967 211.894043 
L 184.476188 208.846332 
L 185.54541 198.115669 
L 186.614631 203.773183 
L 187.683853 201.828184 
L 188.753074 197.214919 
L 189.822296 195.912493 
L 191.960739 185.115566 
L 193.029961 188.215948 
L 194.099182 179.230873 
L 195.168404 171.901027 
L 196.237625 188.619752 
L 197.306847 183.951829 
L 198.376068 183.070739 
L 199.44529 191.957715 
L 200.514512 195.323676 
L 201.583733 189.316525 
L 202.652955 197.266248 
L 203.722176 190.602066 
L 204.791398 195.331172 
L 205.860619 203.427593 
L 206.929841 207.153921 
L 207.999063 203.660003 
L 209.068284 208.209749 
L 210.137506 206.225655 
L 211.206727 201.968952 
L 212.275949 193.086981 
L 213.34517 192.080368 
L 214.414392 193.671134 
L 215.483613 192.037551 
L 216.552835 187.230909 
L 217.622057 195.127704 
L 218.691278 193.136595 
L 219.7605 190.879234 
L 220.829721 188.360647 
L 221.898943 195.259724 
L 222.968164 190.323195 
L 224.037386 192.16594 
L 225.106607 185.535827 
L 226.175829 190.356327 
L 227.245051 194.157665 
L 228.314272 195.231943 
L 229.383494 199.805793 
L 230.452715 205.75506 
L 231.521937 201.980701 
L 232.591158 196.973377 
L 234.729601 184.857416 
L 235.798823 182.068236 
L 236.868045 180.423619 
L 237.937266 177.468219 
L 239.006488 177.562124 
L 240.075709 178.80059 
L 241.144931 185.690961 
L 242.214152 185.834271 
L 244.352595 198.87215 
L 245.421817 203.82049 
L 246.491039 202.259429 
L 247.56026 205.894119 
L 248.629482 200.979192 
L 249.698703 198.165651 
L 250.767925 198.124359 
L 251.837146 202.74615 
L 252.906368 200.578123 
L 253.975589 207.104849 
L 255.044811 208.241904 
L 256.114033 211.671763 
L 257.183254 220.244674 
L 258.252476 226.078778 
L 259.321697 223.863886 
L 260.390919 233.998962 
L 261.46014 240.383726 
L 262.529362 233.517676 
L 263.598583 219.293385 
L 264.667805 203.251104 
L 265.737027 183.622751 
L 266.806248 167.197618 
L 267.87547 165.252998 
L 268.944691 172.562654 
L 271.083134 213.618043 
L 272.152356 226.041419 
L 273.221577 232.462632 
L 274.290799 241.448056 
L 275.360021 239.391526 
L 276.429242 238.737845 
L 277.498464 239.787062 
L 278.567685 241.114508 
L 279.636907 244.070253 
L 280.706128 251.48424 
L 282.844571 244.248661 
L 283.913793 243.731784 
L 284.983015 242.244278 
L 286.052236 242.65733 
L 287.121458 244.176889 
L 288.190679 242.605043 
L 289.259901 239.931252 
L 290.329122 246.935916 
L 291.398344 247.059347 
L 292.467565 247.328921 
L 293.536787 246.558014 
L 294.606009 249.176368 
L 295.67523 242.836748 
L 296.744452 234.590488 
L 297.813673 229.319501 
L 298.882895 227.373291 
L 299.952116 221.952487 
L 301.021338 220.862935 
L 302.09056 222.835301 
L 303.159781 230.068009 
L 304.229003 230.003639 
L 305.298224 231.284555 
L 306.367446 235.291923 
L 307.436667 235.670859 
L 308.505889 228.611926 
L 309.57511 231.859133 
L 310.644332 225.800643 
L 311.713554 218.691941 
L 312.782775 222.921585 
L 313.851997 228.392567 
L 314.921218 231.680575 
L 315.99044 242.787511 
L 317.059661 246.709389 
L 318.128883 246.472815 
L 319.198104 243.713377 
L 320.267326 242.251513 
L 321.336548 232.996184 
L 322.405769 230.328151 
L 323.474991 217.506195 
L 325.613434 202.444106 
L 326.682655 204.81148 
L 327.751877 193.751729 
L 328.821098 206.275183 
L 329.89032 211.656683 
L 330.959542 216.266542 
L 332.028763 223.305393 
L 333.097985 233.047093 
L 334.167206 233.898707 
L 335.236428 238.766741 
L 336.305649 242.515821 
L 337.374871 237.896497 
L 338.444092 236.121135 
L 339.513314 236.59999 
L 340.582536 232.917594 
L 341.651757 225.295033 
L 342.720979 220.440519 
L 343.7902 231.054901 
L 344.859422 223.345173 
L 345.928643 212.189456 
L 346.997865 207.93829 
L 348.067086 206.054431 
L 349.136308 188.0728 
L 350.20553 211.199039 
L 351.274751 208.701605 
L 353.413194 230.900906 
L 354.482416 235.641406 
L 355.551637 229.113732 
L 356.620859 231.97843 
L 357.69008 219.871379 
L 359.828524 208.516872 
L 360.897745 202.5267 
L 361.966967 208.814891 
L 363.036188 212.61957 
L 364.10541 219.624428 
L 365.174631 224.597112 
L 366.243853 218.369966 
L 367.313074 218.790986 
L 368.382296 220.115873 
L 369.451518 209.632221 
L 370.520739 207.904703 
L 371.589961 210.24341 
L 372.659182 208.073872 
L 373.728404 213.692434 
L 374.797625 223.256838 
L 375.866847 224.972284 
L 378.00529 238.889668 
L 379.074512 236.363955 
L 380.143733 234.670446 
L 381.212955 234.470726 
L 382.282176 226.181154 
L 383.351398 205.997636 
L 384.420619 192.877195 
L 385.489841 183.915274 
L 385.489841 183.915274 
" clip-path="url(#p5139418bd2)" style="fill: none; stroke: #9467bd; stroke-width: 1.5; stroke-linecap: square"/>
   </g>
   <g id="line2d_24">
    <path d="M 29.439063 221.989476 
L 30.508284 228.904971 
L 31.577506 237.483987 
L 33.715949 250.133055 
L 35.854392 256.994611 
L 36.923613 253.038847 
L 39.062057 239.915086 
L 40.131278 236.632969 
L 41.2005 235.239876 
L 42.269721 227.68395 
L 43.338943 231.670455 
L 44.408164 240.522 
L 45.477386 246.901912 
L 46.546607 247.094508 
L 47.615829 245.135114 
L 48.685051 236.98727 
L 49.754272 227.417148 
L 50.823494 209.558869 
L 52.961937 154.479575 
L 54.031158 136.912814 
L 55.10038 136.626651 
L 56.169601 143.651398 
L 57.238823 138.702995 
L 58.308045 150.24993 
L 59.377266 157.637623 
L 60.446488 172.805614 
L 61.515709 172.308881 
L 62.584931 147.756838 
L 63.654152 139.424444 
L 64.723374 135.249771 
L 65.792595 118.380389 
L 66.861817 80.14313 
L 67.931039 68.347758 
L 69.00026 78.528388 
L 71.138703 83.731536 
L 72.207925 109.142714 
L 73.277146 114.016671 
L 74.346368 131.704446 
L 75.415589 137.894546 
L 76.484811 145.867244 
L 77.554033 159.375849 
L 78.623254 160.199988 
L 79.692476 173.774933 
L 80.761697 185.603024 
L 81.830919 187.691034 
L 83.969362 189.973888 
L 85.038583 189.661866 
L 86.107805 188.720384 
L 87.177027 183.420157 
L 88.246248 184.839306 
L 89.31547 187.32764 
L 90.384691 188.234936 
L 91.453913 190.808875 
L 92.523134 189.459306 
L 93.592356 189.315904 
L 94.661577 194.488321 
L 95.730799 196.222111 
L 96.800021 194.084129 
L 97.869242 192.551171 
L 98.938464 192.477858 
L 100.007685 193.836383 
L 101.076907 191.623847 
L 102.146128 188.740474 
L 103.21535 188.38451 
L 104.284571 189.755489 
L 105.353793 193.432394 
L 106.423015 198.363082 
L 107.492236 201.032618 
L 108.561458 206.925265 
L 109.630679 209.543013 
L 110.699901 213.252545 
L 111.769122 212.963095 
L 112.838344 207.846519 
L 114.976787 192.369156 
L 116.046009 189.197994 
L 118.184452 184.042107 
L 119.253673 187.198671 
L 122.461338 218.675332 
L 123.53056 224.780796 
L 124.599781 232.725185 
L 126.738224 243.690539 
L 127.807446 246.907814 
L 128.876667 247.474879 
L 129.945889 247.797075 
L 131.01511 249.480254 
L 132.084332 248.556817 
L 133.153554 245.08607 
L 134.222775 243.204053 
L 136.361218 238.815428 
L 138.499661 232.270423 
L 139.568883 231.130882 
L 140.638104 232.49656 
L 141.707326 234.57189 
L 142.776548 234.929153 
L 143.845769 236.028174 
L 144.914991 237.444895 
L 145.984212 238.514573 
L 147.053434 234.934333 
L 148.122655 238.395766 
L 149.191877 231.266365 
L 150.261098 229.132824 
L 151.33032 226.515892 
L 152.399542 229.239417 
L 153.468763 224.817696 
L 154.537985 209.621523 
L 155.607206 212.522123 
L 157.745649 216.641101 
L 158.814871 215.732855 
L 159.884092 217.061613 
L 160.953314 221.758769 
L 162.022536 232.710465 
L 163.091757 225.409058 
L 164.160979 226.675144 
L 165.2302 224.981941 
L 166.299422 225.516094 
L 167.368643 224.706134 
L 168.437865 219.993368 
L 169.507086 222.621729 
L 170.576308 230.960194 
L 171.64553 224.808205 
L 172.714751 219.699069 
L 173.783973 219.194515 
L 174.853194 212.348296 
L 175.922416 209.65087 
L 176.991637 194.907088 
L 178.060859 187.807324 
L 179.13008 195.211158 
L 180.199302 201.189777 
L 181.268524 199.121299 
L 182.337745 199.667689 
L 183.406967 201.664094 
L 184.476188 209.536309 
L 185.54541 206.137929 
L 186.614631 200.771985 
L 187.683853 200.539284 
L 188.753074 201.393693 
L 190.891518 190.557175 
L 191.960739 190.24811 
L 193.029961 187.367939 
L 194.099182 182.763564 
L 195.168404 175.139954 
L 196.237625 184.260041 
L 198.376068 185.693006 
L 199.44529 186.011723 
L 200.514512 189.053189 
L 201.583733 197.746163 
L 202.652955 192.377572 
L 203.722176 191.188962 
L 204.791398 196.093335 
L 205.860619 198.888857 
L 206.929841 207.49831 
L 209.068284 200.805821 
L 210.137506 208.713277 
L 211.206727 204.293783 
L 212.275949 199.221764 
L 213.34517 191.424833 
L 214.414392 192.344692 
L 215.483613 195.438584 
L 216.552835 188.410429 
L 217.622057 193.421343 
L 218.691278 191.466693 
L 219.7605 191.34645 
L 220.829721 191.086209 
L 221.898943 191.173373 
L 222.968164 195.888562 
L 224.037386 188.934661 
L 225.106607 184.957424 
L 227.245051 195.922878 
L 228.314272 195.865522 
L 229.383494 196.964714 
L 230.452715 196.992366 
L 231.521937 203.993471 
L 232.591158 201.233957 
L 233.66038 193.29733 
L 234.729601 188.48751 
L 235.798823 182.050611 
L 236.868045 182.922867 
L 237.937266 180.997684 
L 239.006488 176.85942 
L 240.075709 178.181248 
L 241.144931 182.759312 
L 242.214152 186.049535 
L 243.283374 190.908696 
L 244.352595 194.995539 
L 245.421817 200.316108 
L 246.491039 202.053777 
L 247.56026 203.05515 
L 248.629482 203.188982 
L 249.698703 199.818307 
L 250.767925 199.700281 
L 251.837146 201.146293 
L 252.906368 201.664569 
L 253.975589 204.221356 
L 255.044811 205.956449 
L 256.114033 210.922625 
L 257.183254 219.423925 
L 258.252476 221.610325 
L 259.321697 223.37897 
L 260.390919 229.049003 
L 261.46014 237.766712 
L 262.529362 236.693885 
L 264.667805 204.185953 
L 265.737027 198.109798 
L 268.944691 165.669523 
L 270.013913 180.766015 
L 271.083134 207.173387 
L 272.152356 222.415569 
L 273.221577 228.878611 
L 274.290799 232.116043 
L 275.360021 235.824645 
L 276.429242 241.744141 
L 277.498464 242.955834 
L 278.567685 241.247706 
L 279.636907 241.929208 
L 280.706128 244.83055 
L 281.77535 248.808845 
L 282.844571 247.351661 
L 283.913793 244.492239 
L 284.983015 242.862764 
L 286.052236 243.66558 
L 287.121458 242.552297 
L 288.190679 242.817807 
L 289.259901 240.92033 
L 290.329122 245.569599 
L 291.398344 247.629856 
L 292.467565 246.468575 
L 293.536787 244.839602 
L 294.606009 246.543437 
L 295.67523 247.840138 
L 296.744452 237.555391 
L 297.813673 231.830536 
L 298.882895 228.017048 
L 299.952116 226.505229 
L 301.021338 224.482092 
L 302.09056 220.162131 
L 303.159781 227.964603 
L 304.229003 228.595117 
L 305.298224 229.804007 
L 306.367446 235.451266 
L 307.436667 232.73684 
L 308.505889 232.56268 
L 309.57511 230.112794 
L 310.644332 226.306774 
L 311.713554 225.520005 
L 312.782775 222.253967 
L 313.851997 226.331124 
L 314.921218 232.637563 
L 315.99044 236.043033 
L 317.059661 243.321083 
L 318.128883 245.177288 
L 319.198104 243.392969 
L 320.267326 243.825994 
L 321.336548 237.09032 
L 322.405769 233.124849 
L 323.474991 221.039659 
L 324.544212 212.702705 
L 325.613434 210.684665 
L 326.682655 205.036894 
L 327.751877 201.452401 
L 328.821098 199.483568 
L 330.959542 216.050304 
L 332.028763 222.313926 
L 333.097985 226.144196 
L 334.167206 232.416854 
L 335.236428 235.082206 
L 336.305649 241.405172 
L 337.374871 239.654475 
L 338.444092 236.643814 
L 340.582536 234.275732 
L 341.651757 230.64629 
L 342.720979 221.01198 
L 343.7902 230.898177 
L 344.859422 224.796132 
L 345.928643 213.836756 
L 346.997865 209.756475 
L 348.067086 204.548007 
L 349.136308 207.130202 
L 350.20553 207.450722 
L 351.274751 200.66163 
L 352.343973 216.005997 
L 353.413194 224.572582 
L 354.482416 232.120267 
L 355.551637 237.700452 
L 356.620859 219.860697 
L 357.69008 224.810058 
L 358.759302 220.473006 
L 359.828524 214.0332 
L 360.897745 211.447442 
L 361.966967 201.640442 
L 363.036188 207.732467 
L 364.10541 220.268411 
L 365.174631 222.695635 
L 366.243853 219.51243 
L 367.313074 215.447644 
L 368.382296 217.315148 
L 369.451518 217.950687 
L 370.520739 213.291937 
L 371.589961 207.095546 
L 372.659182 206.703642 
L 373.728404 213.024949 
L 374.797625 220.627892 
L 375.866847 225.818628 
L 376.936068 227.452042 
L 379.074512 236.113523 
L 380.143733 237.311855 
L 381.212955 235.018307 
L 382.282176 228.435885 
L 383.351398 210.878997 
L 384.420619 198.008228 
L 385.489841 195.789994 
L 385.489841 195.789994 
" clip-path="url(#p5139418bd2)" style="fill: none; stroke: #8c564b; stroke-width: 1.5; stroke-linecap: square"/>
   </g>
   <g id="line2d_25">
    <path d="M 29.439063 224.216778 
L 30.508284 227.596136 
L 31.577506 236.094002 
L 32.646727 238.285498 
L 33.715949 247.009287 
L 34.78517 251.173405 
L 35.854392 253.38057 
L 36.923613 253.391419 
L 37.992835 250.111493 
L 39.062057 240.35466 
L 40.131278 240.873149 
L 41.2005 238.743918 
L 42.269721 231.524757 
L 43.338943 231.087585 
L 44.408164 239.084283 
L 45.477386 240.893702 
L 46.546607 246.996197 
L 47.615829 245.910647 
L 48.685051 233.085415 
L 49.754272 230.86679 
L 50.823494 221.875268 
L 51.892715 192.984554 
L 52.961937 172.579527 
L 54.031158 156.56697 
L 55.10038 133.393898 
L 56.169601 150.105108 
L 57.238823 145.513232 
L 58.308045 136.739153 
L 59.377266 150.483069 
L 60.446488 172.207681 
L 61.515709 164.739432 
L 62.584931 159.007124 
L 63.654152 141.932814 
L 64.723374 133.752243 
L 66.861817 113.209754 
L 67.931039 74.203567 
L 69.00026 74.821343 
L 70.069482 84.425418 
L 71.138703 85.512302 
L 72.207925 100.005778 
L 73.277146 109.382331 
L 74.346368 120.19955 
L 75.415589 134.191304 
L 76.484811 141.997781 
L 77.554033 153.047456 
L 78.623254 162.735832 
L 79.692476 166.052801 
L 80.761697 181.433711 
L 81.830919 182.665304 
L 82.90014 185.684395 
L 83.969362 190.052933 
L 85.038583 188.528151 
L 86.107805 189.949308 
L 87.177027 189.323584 
L 88.246248 181.997329 
L 89.31547 185.368481 
L 90.384691 189.494891 
L 91.453913 189.251731 
L 92.523134 189.776067 
L 93.592356 189.831957 
L 94.661577 191.63289 
L 95.730799 195.146246 
L 96.800021 195.216294 
L 97.869242 192.932486 
L 98.938464 191.218756 
L 100.007685 193.58218 
L 101.076907 193.580143 
L 102.146128 190.258975 
L 103.21535 188.474989 
L 104.284571 189.198645 
L 105.353793 191.981943 
L 106.423015 198.601115 
L 107.492236 199.784621 
L 108.561458 203.618883 
L 109.630679 206.544268 
L 110.699901 210.681256 
L 111.769122 211.804545 
L 112.838344 210.573035 
L 113.907565 201.272819 
L 116.046009 191.453746 
L 117.11523 191.567199 
L 118.184452 186.873421 
L 119.253673 188.362043 
L 120.322895 191.892493 
L 122.461338 214.499122 
L 123.53056 222.158824 
L 124.599781 227.322903 
L 125.669003 234.922937 
L 126.738224 240.308315 
L 127.807446 244.880253 
L 128.876667 247.623529 
L 129.945889 246.836933 
L 131.01511 248.36133 
L 132.084332 248.346486 
L 133.153554 246.014508 
L 134.222775 244.469403 
L 135.291997 242.710852 
L 136.361218 239.410904 
L 137.43044 238.158751 
L 138.499661 233.598803 
L 139.568883 230.819473 
L 140.638104 233.710105 
L 141.707326 235.321048 
L 142.776548 234.048867 
L 143.845769 235.757231 
L 144.914991 235.145673 
L 145.984212 236.280027 
L 147.053434 236.891486 
L 148.122655 240.248563 
L 149.191877 231.206691 
L 150.261098 230.855381 
L 151.33032 226.97232 
L 152.399542 229.200263 
L 153.468763 225.060755 
L 154.537985 220.171876 
L 155.607206 207.679122 
L 156.676428 216.719103 
L 157.745649 216.123738 
L 158.814871 220.271379 
L 159.884092 214.26839 
L 160.953314 217.436337 
L 162.022536 228.104504 
L 163.091757 227.449084 
L 164.160979 226.376218 
L 165.2302 227.223636 
L 166.299422 222.819885 
L 167.368643 223.999794 
L 168.437865 226.684388 
L 169.507086 218.385403 
L 170.576308 231.107781 
L 171.64553 225.63427 
L 172.714751 218.212387 
L 173.783973 218.52415 
L 174.853194 216.383034 
L 175.922416 209.44702 
L 176.991637 209.664523 
L 178.060859 187.671964 
L 179.13008 191.709338 
L 180.199302 202.671045 
L 181.268524 198.947973 
L 182.337745 198.387136 
L 183.406967 202.852002 
L 184.476188 201.008475 
L 185.54541 207.131896 
L 186.614631 207.18111 
L 187.683853 198.380668 
L 188.753074 200.348606 
L 189.822296 199.87207 
L 190.891518 191.497092 
L 191.960739 190.446999 
L 193.029961 191.399083 
L 194.099182 182.804438 
L 195.168404 178.836405 
L 196.237625 185.145917 
L 197.306847 181.658839 
L 198.376068 186.284838 
L 199.44529 187.806378 
L 200.514512 184.297498 
L 201.583733 192.130815 
L 202.652955 199.063592 
L 203.722176 187.727666 
L 204.791398 195.808404 
L 205.860619 199.024939 
L 206.929841 203.154815 
L 207.999063 204.902638 
L 209.068284 201.663825 
L 210.137506 202.345891 
L 211.206727 206.736348 
L 214.414392 191.746216 
L 215.483613 194.064329 
L 216.552835 191.922213 
L 217.622057 193.527147 
L 218.691278 190.499864 
L 219.7605 190.157175 
L 220.829721 191.456708 
L 221.898943 193.073793 
L 222.968164 192.318328 
L 224.037386 193.959995 
L 225.106607 183.119016 
L 227.245051 195.385749 
L 228.314272 197.120655 
L 229.383494 197.255697 
L 230.452715 194.920628 
L 231.521937 196.680503 
L 232.591158 203.076989 
L 233.66038 197.57802 
L 234.729601 190.830877 
L 235.798823 185.624953 
L 236.868045 182.786056 
L 237.937266 183.053444 
L 239.006488 179.987536 
L 240.075709 177.492985 
L 241.144931 181.681811 
L 242.214152 183.494688 
L 243.283374 190.37394 
L 245.421817 196.827227 
L 246.491039 199.273135 
L 247.56026 202.7665 
L 248.629482 201.103242 
L 249.698703 201.896283 
L 250.767925 200.885534 
L 251.837146 202.043694 
L 252.906368 200.439377 
L 253.975589 204.616121 
L 255.044811 203.633554 
L 256.114033 208.62509 
L 257.183254 217.74467 
L 258.252476 220.720925 
L 259.321697 219.863341 
L 260.390919 227.927071 
L 261.46014 233.158476 
L 262.529362 234.910488 
L 263.598583 225.785975 
L 264.667805 207.941713 
L 265.737027 199.687402 
L 266.806248 198.707123 
L 267.87547 190.269042 
L 268.944691 174.012436 
L 270.013913 174.001014 
L 272.152356 216.068495 
L 273.221577 225.453198 
L 274.290799 229.092188 
L 275.360021 228.265121 
L 276.429242 238.433858 
L 277.498464 244.842663 
L 278.567685 243.724589 
L 279.636907 241.926549 
L 280.706128 242.904976 
L 281.77535 243.356351 
L 282.844571 248.122206 
L 283.913793 247.117699 
L 284.983015 243.645552 
L 286.052236 243.986768 
L 287.121458 243.433191 
L 288.190679 241.603178 
L 289.259901 241.348576 
L 290.329122 245.588154 
L 292.467565 247.045601 
L 293.536787 244.443331 
L 295.67523 245.747859 
L 296.744452 242.868152 
L 297.813673 234.842259 
L 298.882895 230.38515 
L 299.952116 227.185875 
L 301.021338 227.958074 
L 302.09056 223.389952 
L 303.159781 225.05755 
L 304.229003 226.98329 
L 305.298224 228.624362 
L 306.367446 233.647225 
L 307.436667 233.246031 
L 308.505889 230.430796 
L 309.57511 233.251507 
L 310.644332 225.549898 
L 311.713554 225.995159 
L 312.782775 227.465659 
L 313.851997 225.295127 
L 314.921218 230.343622 
L 315.99044 236.22079 
L 317.059661 237.527549 
L 318.128883 242.454916 
L 319.198104 242.69455 
L 320.267326 243.535674 
L 321.336548 239.268226 
L 322.405769 236.622724 
L 323.474991 225.01847 
L 324.544212 216.551369 
L 325.613434 213.028343 
L 326.682655 211.640465 
L 327.751877 202.135661 
L 328.821098 205.063105 
L 329.89032 201.700388 
L 330.959542 212.108094 
L 332.028763 221.294101 
L 333.097985 224.91422 
L 334.167206 226.586756 
L 335.236428 233.659203 
L 336.305649 237.965307 
L 337.374871 239.090415 
L 338.444092 238.351026 
L 340.582536 233.567325 
L 341.651757 232.163538 
L 342.720979 226.405136 
L 343.7902 229.918076 
L 344.859422 225.572872 
L 345.928643 216.58916 
L 348.067086 206.636402 
L 349.136308 205.696889 
L 350.20553 219.365454 
L 351.274751 198.769517 
L 352.343973 208.497259 
L 353.413194 221.001101 
L 354.482416 226.606567 
L 355.551637 234.457609 
L 356.620859 229.239561 
L 357.69008 214.906728 
L 358.759302 224.614148 
L 359.828524 219.388388 
L 360.897745 215.676684 
L 361.966967 209.501049 
L 363.036188 201.716173 
L 364.10541 215.272482 
L 365.174631 222.800972 
L 366.243853 218.557175 
L 367.313074 216.872474 
L 368.382296 214.634301 
L 369.451518 215.824891 
L 370.520739 219.75121 
L 372.659182 204.452877 
L 373.728404 211.199039 
L 374.797625 219.122065 
L 376.936068 227.812218 
L 378.00529 228.186767 
L 379.074512 230.361332 
L 380.143733 236.964366 
L 381.212955 237.230102 
L 382.282176 229.817299 
L 383.351398 215.385231 
L 384.420619 203.614138 
L 385.489841 199.705702 
L 385.489841 199.705702 
" clip-path="url(#p5139418bd2)" style="fill: none; stroke: #e377c2; stroke-width: 1.5; stroke-linecap: square"/>
   </g>
   <g id="patch_3">
    <path d="M 29.439063 284.991437 
L 29.439063 18.879437 
" style="fill: none; stroke: #000000; stroke-width: 0.8; stroke-linejoin: miter; stroke-linecap: square"/>
   </g>
   <g id="patch_4">
    <path d="M 386.559062 284.991437 
L 386.559062 18.879437 
" style="fill: none; stroke: #000000; stroke-width: 0.8; stroke-linejoin: miter; stroke-linecap: square"/>
   </g>
   <g id="patch_5">
    <path d="M 29.439063 284.991437 
L 386.559063 284.991437 
" style="fill: none; stroke: #000000; stroke-width: 0.8; stroke-linejoin: miter; stroke-linecap: square"/>
   </g>
   <g id="patch_6">
    <path d="M 29.439063 18.879437 
L 386.559063 18.879437 
" style="fill: none; stroke: #000000; stroke-width: 0.8; stroke-linejoin: miter; stroke-linecap: square"/>
   </g>
   <g id="legend_1">
    <g id="patch_7">
     <path d="M 341.260625 127.613812 
L 379.559062 127.613812 
Q 381.559062 127.613812 381.559062 125.613812 
L 381.559062 25.879437 
Q 381.559062 23.879437 379.559062 23.879437 
L 341.260625 23.879437 
Q 339.260625 23.879437 339.260625 25.879437 
L 339.260625 125.613812 
Q 339.260625 127.613812 341.260625 127.613812 
z
" style="fill: #ffffff; opacity: 0.8; stroke: #cccccc; stroke-linejoin: miter"/>
    </g>
    <g id="line2d_26">
     <path d="M 343.260625 31.870062 
L 353.260625 31.870062 
L 363.260625 31.870062 
" style="fill: none; stroke: #1f77b4; stroke-width: 1.5; stroke-linecap: square"/>
    </g>
    <g id="text_18">
     <!-- 1 -->
     <g transform="translate(371.260625 35.370062) scale(0.1 -0.1)">
      <use xlink:href="#IPAexGothic-31"/>
     </g>
    </g>
    <g id="line2d_27">
     <path d="M 343.260625 46.260687 
L 353.260625 46.260687 
L 363.260625 46.260687 
" style="fill: none; stroke: #ff7f0e; stroke-width: 1.5; stroke-linecap: square"/>
    </g>
    <g id="text_19">
     <!-- 2 -->
     <g transform="translate(371.260625 49.760687) scale(0.1 -0.1)">
      <use xlink:href="#IPAexGothic-32"/>
     </g>
    </g>
    <g id="line2d_28">
     <path d="M 343.260625 60.651312 
L 353.260625 60.651312 
L 363.260625 60.651312 
" style="fill: none; stroke: #2ca02c; stroke-width: 1.5; stroke-linecap: square"/>
    </g>
    <g id="text_20">
     <!-- 3 -->
     <g transform="translate(371.260625 64.151312) scale(0.1 -0.1)">
      <use xlink:href="#IPAexGothic-33"/>
     </g>
    </g>
    <g id="line2d_29">
     <path d="M 343.260625 75.041937 
L 353.260625 75.041937 
L 363.260625 75.041937 
" style="fill: none; stroke: #d62728; stroke-width: 1.5; stroke-linecap: square"/>
    </g>
    <g id="text_21">
     <!-- 4 -->
     <g transform="translate(371.260625 78.541937) scale(0.1 -0.1)">
      <defs>
       <path id="IPAexGothic-34" d="M 3813 1159 
L 3059 1159 
L 3059 63 
L 2547 63 
L 2547 1159 
L 197 1159 
L 197 1672 
L 2456 4678 
L 3059 4678 
L 3059 1634 
L 3813 1634 
L 3813 1159 
z
M 2578 4109 
L 2559 4109 
Q 2278 3656 2003 3284 
L 759 1634 
L 2547 1634 
L 2547 3144 
Q 2547 3481 2578 4109 
z
" transform="scale(0.015625)"/>
      </defs>
      <use xlink:href="#IPAexGothic-34"/>
     </g>
    </g>
    <g id="line2d_30">
     <path d="M 343.260625 89.432562 
L 353.260625 89.432562 
L 363.260625 89.432562 
" style="fill: none; stroke: #9467bd; stroke-width: 1.5; stroke-linecap: square"/>
    </g>
    <g id="text_22">
     <!-- 5 -->
     <g transform="translate(371.260625 92.932562) scale(0.1 -0.1)">
      <use xlink:href="#IPAexGothic-35"/>
     </g>
    </g>
    <g id="line2d_31">
     <path d="M 343.260625 103.823187 
L 353.260625 103.823187 
L 363.260625 103.823187 
" style="fill: none; stroke: #8c564b; stroke-width: 1.5; stroke-linecap: square"/>
    </g>
    <g id="text_23">
     <!-- 6 -->
     <g transform="translate(371.260625 107.323187) scale(0.1 -0.1)">
      <defs>
       <path id="IPAexGothic-36" d="M 1056 2328 
Q 1509 2981 2234 2981 
Q 2906 2981 3316 2513 
Q 3675 2106 3675 1522 
Q 3675 884 3272 434 
Q 2853 -31 2178 -31 
Q 1375 -31 922 581 
Q 481 1178 481 2228 
Q 481 3425 1013 4109 
Q 1494 4725 2272 4725 
Q 3191 4725 3609 4025 
L 3150 3775 
Q 2894 4266 2300 4266 
Q 1119 4266 1031 2328 
L 1056 2328 
z
M 2141 2547 
Q 1684 2547 1384 2206 
Q 1116 1900 1116 1541 
Q 1116 1156 1353 844 
Q 1672 428 2159 428 
Q 2669 428 2941 844 
Q 3125 1128 3125 1503 
Q 3125 1944 2881 2228 
Q 2600 2547 2141 2547 
z
" transform="scale(0.015625)"/>
      </defs>
      <use xlink:href="#IPAexGothic-36"/>
     </g>
    </g>
    <g id="line2d_32">
     <path d="M 343.260625 118.213812 
L 353.260625 118.213812 
L 363.260625 118.213812 
" style="fill: none; stroke: #e377c2; stroke-width: 1.5; stroke-linecap: square"/>
    </g>
    <g id="text_24">
     <!-- 7 -->
     <g transform="translate(371.260625 121.713812) scale(0.1 -0.1)">
      <defs>
       <path id="IPAexGothic-37" d="M 3597 4263 
Q 2238 2106 1778 63 
L 1131 63 
Q 1581 1834 2950 4128 
L 428 4128 
L 428 4634 
L 3597 4634 
L 3597 4263 
z
" transform="scale(0.015625)"/>
      </defs>
      <use xlink:href="#IPAexGothic-37"/>
     </g>
    </g>
   </g>
  </g>
  <g id="axes_2">
   <g id="matplotlib.axis_3"/>
   <g id="patch_8">
    <path d="M 29.439063 284.991437 
L 29.439063 18.879437 
" style="fill: none; stroke: #000000; stroke-width: 0.8; stroke-linejoin: miter; stroke-linecap: square"/>
   </g>
   <g id="patch_9">
    <path d="M 386.559062 284.991437 
L 386.559062 18.879437 
" style="fill: none; stroke: #000000; stroke-width: 0.8; stroke-linejoin: miter; stroke-linecap: square"/>
   </g>
   <g id="patch_10">
    <path d="M 29.439063 284.991437 
L 386.559063 284.991437 
" style="fill: none; stroke: #000000; stroke-width: 0.8; stroke-linejoin: miter; stroke-linecap: square"/>
   </g>
   <g id="patch_11">
    <path d="M 29.439063 18.879437 
L 386.559063 18.879437 
" style="fill: none; stroke: #000000; stroke-width: 0.8; stroke-linejoin: miter; stroke-linecap: square"/>
   </g>
  </g>
  <g id="text_25">
   <!-- : 2023/04/30 16:12:30(JST) -->
   <g transform="translate(211.087188 15.423437) scale(0.1 -0.1)">
    <defs>
     <path id="IPAexGothic-66f4" d="M 2956 3994 
L 2956 4588 
L 513 4588 
L 513 4984 
L 5881 4984 
L 5881 4588 
L 3413 4588 
L 3413 3994 
L 5300 3994 
L 5300 1288 
L 4838 1288 
L 4838 1759 
L 3406 1759 
Q 3384 1125 3150 709 
Q 4291 244 5997 31 
L 5694 -428 
Q 4109 -166 2906 384 
Q 2294 -266 744 -488 
L 494 -66 
Q 1903 59 2491 588 
Q 2041 813 1594 1166 
L 1928 1434 
Q 2331 1106 2747 897 
Q 2922 1219 2950 1759 
L 1556 1759 
L 1556 1413 
L 1097 1413 
L 1097 3994 
L 2956 3994 
z
M 2956 3609 
L 1556 3609 
L 1556 3078 
L 2956 3078 
L 2956 3609 
z
M 3413 3609 
L 3413 3078 
L 4838 3078 
L 4838 3609 
L 3413 3609 
z
M 2956 2700 
L 1556 2700 
L 1556 2144 
L 2956 2144 
L 2956 2700 
z
M 3413 2700 
L 3413 2144 
L 4838 2144 
L 4838 2700 
L 3413 2700 
z
" transform="scale(0.015625)"/>
     <path id="IPAexGothic-65b0" d="M 3891 2803 
Q 3881 1759 3794 1166 
Q 3653 197 3097 -563 
L 2741 -250 
Q 3450 700 3450 2631 
L 3450 4647 
Q 3516 4656 3622 4666 
Q 4656 4778 5447 5063 
L 5825 4678 
Q 4897 4419 3891 4294 
L 3891 3219 
L 6119 3219 
L 6119 2803 
L 5275 2803 
L 5275 -447 
L 4834 -447 
L 4834 2803 
L 3891 2803 
z
M 2822 4069 
Q 2678 3572 2519 3181 
L 3250 3181 
L 3250 2784 
L 2059 2784 
L 2059 2216 
L 3184 2216 
L 3184 1831 
L 2059 1831 
L 2059 1544 
Q 2613 1197 3031 847 
L 2781 456 
Q 2472 791 2059 1128 
L 2059 -447 
L 1644 -447 
L 1644 1294 
Q 1272 628 575 -31 
L 269 341 
Q 1041 938 1528 1831 
L 453 1831 
L 453 2216 
L 1644 2216 
L 1644 2784 
L 319 2784 
L 319 3181 
L 1125 3181 
Q 1013 3706 881 4069 
L 453 4069 
L 453 4453 
L 1631 4453 
L 1631 5309 
L 2072 5309 
L 2072 4453 
L 3166 4453 
L 3166 4069 
L 2822 4069 
z
M 2391 4069 
L 1325 4069 
Q 1450 3672 1534 3181 
L 2109 3181 
Q 2294 3659 2391 4069 
z
" transform="scale(0.015625)"/>
     <path id="IPAexGothic-65e5" d="M 5231 4800 
L 5231 -288 
L 4744 -288 
L 4744 128 
L 1647 128 
L 1647 -288 
L 1159 -288 
L 1159 4800 
L 5231 4800 
z
M 1647 4372 
L 1647 2731 
L 4744 2731 
L 4744 4372 
L 1647 4372 
z
M 1647 2297 
L 1647 556 
L 4744 556 
L 4744 2297 
L 1647 2297 
z
" transform="scale(0.015625)"/>
     <path id="IPAexGothic-6642" d="M 2328 4728 
L 2328 563 
L 934 563 
L 934 56 
L 519 56 
L 519 4728 
L 2328 4728 
z
M 934 4331 
L 934 2881 
L 1906 2881 
L 1906 4331 
L 934 4331 
z
M 934 2497 
L 934 953 
L 1906 953 
L 1906 2497 
L 934 2497 
z
M 3938 4372 
L 3938 5313 
L 4378 5313 
L 4378 4372 
L 5772 4372 
L 5772 3981 
L 4378 3981 
L 4378 3194 
L 6072 3194 
L 6072 2803 
L 5203 2803 
L 5203 2047 
L 5959 2047 
L 5959 1650 
L 5216 1650 
L 5216 31 
Q 5216 -447 4691 -447 
Q 4394 -447 3888 -391 
L 3784 78 
Q 4272 0 4591 0 
Q 4775 0 4775 172 
L 4775 1650 
L 2581 1650 
L 2581 2047 
L 4763 2047 
L 4763 2803 
L 2538 2803 
L 2538 3194 
L 3938 3194 
L 3938 3981 
L 2716 3981 
L 2716 4372 
L 3938 4372 
z
M 3669 384 
Q 3331 950 2956 1325 
L 3291 1575 
Q 3719 1147 4025 659 
L 3669 384 
z
" transform="scale(0.015625)"/>
     <path id="IPAexGothic-3a" d="M 1369 2559 
L 672 2559 
L 672 3250 
L 1369 3250 
L 1369 2559 
z
M 1369 63 
L 672 63 
L 672 753 
L 1369 753 
L 1369 63 
z
" transform="scale(0.015625)"/>
     <path id="IPAexGothic-20" transform="scale(0.015625)"/>
     <path id="IPAexGothic-2f" d="M 2719 4709 
L 600 -884 
L 300 -763 
L 2413 4831 
L 2719 4709 
z
" transform="scale(0.015625)"/>
     <path id="IPAexGothic-28" d="M 1928 -1016 
L 1653 -1166 
Q 488 69 488 1875 
Q 488 3678 1653 4909 
L 1928 4763 
Q 1006 3522 1006 1881 
Q 1006 203 1928 -1016 
z
" transform="scale(0.015625)"/>
     <path id="IPAexGothic-54" d="M 3866 4141 
L 2175 4141 
L 2175 63 
L 1606 63 
L 1606 4141 
L -31 4141 
L -31 4634 
L 3866 4634 
L 3866 4141 
z
" transform="scale(0.015625)"/>
     <path id="IPAexGothic-29" d="M 466 4909 
Q 1638 3672 1638 1875 
Q 1638 75 466 -1166 
L 191 -1016 
Q 1119 216 1119 1881 
Q 1119 3509 191 4763 
L 466 4909 
z
" transform="scale(0.015625)"/>
    </defs>
    <use xlink:href="#IPAexGothic-66f4"/>
    <use xlink:href="#IPAexGothic-65b0" x="100"/>
    <use xlink:href="#IPAexGothic-65e5" x="200"/>
    <use xlink:href="#IPAexGothic-6642" x="300"/>
    <use xlink:href="#IPAexGothic-3a" x="400"/>
    <use xlink:href="#IPAexGothic-20" x="431.982422"/>
    <use xlink:href="#IPAexGothic-32" x="458.984375"/>
    <use xlink:href="#IPAexGothic-30" x="521.972656"/>
    <use xlink:href="#IPAexGothic-32" x="584.960938"/>
    <use xlink:href="#IPAexGothic-33" x="647.949219"/>
    <use xlink:href="#IPAexGothic-2f" x="710.9375"/>
    <use xlink:href="#IPAexGothic-30" x="760.9375"/>
    <use xlink:href="#IPAexGothic-34" x="823.925781"/>
    <use xlink:href="#IPAexGothic-2f" x="886.914062"/>
    <use xlink:href="#IPAexGothic-33" x="936.914062"/>
    <use xlink:href="#IPAexGothic-30" x="999.902344"/>
    <use xlink:href="#IPAexGothic-20" x="1062.890625"/>
    <use xlink:href="#IPAexGothic-31" x="1089.892578"/>
    <use xlink:href="#IPAexGothic-36" x="1152.880859"/>
    <use xlink:href="#IPAexGothic-3a" x="1215.869141"/>
    <use xlink:href="#IPAexGothic-31" x="1247.851562"/>
    <use xlink:href="#IPAexGothic-32" x="1310.839844"/>
    <use xlink:href="#IPAexGothic-3a" x="1373.828125"/>
    <use xlink:href="#IPAexGothic-33" x="1405.810547"/>
    <use xlink:href="#IPAexGothic-30" x="1468.798828"/>
    <use xlink:href="#IPAexGothic-28" x="1531.787109"/>
    <use xlink:href="#IPAexGothic-4a" x="1565.087891"/>
    <use xlink:href="#IPAexGothic-53" x="1603.076172"/>
    <use xlink:href="#IPAexGothic-54" x="1661.572266"/>
    <use xlink:href="#IPAexGothic-29" x="1721.484375"/>
   </g>
  </g>
 </g>
 <defs>
  <clipPath id="p5139418bd2">
   <rect x="29.439063" y="18.879437" width="357.12" height="266.112"/>
  </clipPath>
 </defs>
</svg>
