<?xml version="1.0" encoding="utf-8" standalone="no"?>
<!DOCTYPE svg PUBLIC "-//W3C//DTD SVG 1.1//EN"
  "http://www.w3.org/Graphics/SVG/1.1/DTD/svg11.dtd">
<svg xmlns:xlink="http://www.w3.org/1999/xlink" width="397.176476pt" height="308.582062pt" viewBox="0 0 397.176476 308.582062" xmlns="http://www.w3.org/2000/svg" version="1.1">
 <metadata>
  <rdf:RDF xmlns:dc="http://purl.org/dc/elements/1.1/" xmlns:cc="http://creativecommons.org/ns#" xmlns:rdf="http://www.w3.org/1999/02/22-rdf-syntax-ns#">
   <cc:Work>
    <dc:type rdf:resource="http://purl.org/dc/dcmitype/StillImage"/>
    <dc:date>2023-05-06T07:13:22.141792</dc:date>
    <dc:format>image/svg+xml</dc:format>
    <dc:creator>
     <cc:Agent>
      <dc:title>Matplotlib v3.7.1, https://matplotlib.org/</dc:title>
     </cc:Agent>
    </dc:creator>
   </cc:Work>
  </rdf:RDF>
 </metadata>
 <defs>
  <style type="text/css">*{stroke-linejoin: round; stroke-linecap: butt}</style>
 </defs>
 <g id="figure_1">
  <g id="patch_1">
   <path d="M 0 308.582062 
L 397.176476 308.582062 
L 397.176476 0 
L 0 0 
z
" style="fill: #ffffff"/>
  </g>
  <g id="axes_1">
   <g id="patch_2">
    <path d="M 29.439063 284.991437 
L 386.559062 284.991437 
L 386.559062 18.879437 
L 29.439063 18.879437 
z
" style="fill: #ffffff"/>
   </g>
   <g id="line2d_1">
    <path d="M 29.439063 211.199039 
L 386.559062 211.199039 
" clip-path="url(#pb0dc69b821)" style="fill: none; stroke: #000000; stroke-linecap: square"/>
   </g>
   <g id="matplotlib.axis_1">
    <g id="xtick_1">
     <g id="line2d_2">
      <defs>
       <path id="m8991784644" d="M 0 0 
L 0 3.5 
" style="stroke: #000000; stroke-width: 0.8"/>
      </defs>
      <g>
       <use xlink:href="#m8991784644" x="29.439063" y="284.991437" style="stroke: #000000; stroke-width: 0.8"/>
      </g>
     </g>
     <g id="text_1">
      <!-- Jun -->
      <g transform="translate(21.499219 299.482062) scale(0.1 -0.1)">
       <defs>
        <path id="IPAexGothic-4a" d="M 1819 4634 
L 1819 1234 
Q 1819 -31 763 -31 
Q 303 -31 -125 209 
L 84 644 
Q 378 447 694 447 
Q 1250 447 1250 1203 
L 1250 4634 
L 1819 4634 
z
" transform="scale(0.015625)"/>
        <path id="IPAexGothic-75" d="M 3284 63 
L 2772 63 
L 2772 644 
Q 2300 0 1625 0 
Q 1072 0 763 375 
Q 519 678 519 1241 
L 519 3250 
L 1069 3250 
L 1069 1259 
Q 1069 466 1734 466 
Q 2406 466 2734 1291 
L 2734 3250 
L 3284 3250 
L 3284 63 
z
" transform="scale(0.015625)"/>
        <path id="IPAexGothic-6e" d="M 3328 63 
L 2778 63 
L 2778 2041 
Q 2778 2853 2106 2853 
Q 1428 2853 1113 2041 
L 1113 63 
L 563 63 
L 563 3250 
L 1075 3250 
L 1075 2675 
Q 1525 3316 2222 3316 
Q 3328 3316 3328 2072 
L 3328 63 
z
" transform="scale(0.015625)"/>
       </defs>
       <use xlink:href="#IPAexGothic-4a"/>
       <use xlink:href="#IPAexGothic-75" x="37.988281"/>
       <use xlink:href="#IPAexGothic-6e" x="98.388672"/>
      </g>
     </g>
    </g>
    <g id="xtick_2">
     <g id="line2d_3">
      <g>
       <use xlink:href="#m8991784644" x="60.949651" y="284.991437" style="stroke: #000000; stroke-width: 0.8"/>
      </g>
     </g>
     <g id="text_2">
      <!-- Jul -->
      <g transform="translate(54.680119 299.482062) scale(0.1 -0.1)">
       <defs>
        <path id="IPAexGothic-6c" d="M 1131 63 
L 581 63 
L 581 4794 
L 1131 4794 
L 1131 63 
z
" transform="scale(0.015625)"/>
       </defs>
       <use xlink:href="#IPAexGothic-4a"/>
       <use xlink:href="#IPAexGothic-75" x="37.988281"/>
       <use xlink:href="#IPAexGothic-6c" x="98.388672"/>
      </g>
     </g>
    </g>
    <g id="xtick_3">
     <g id="line2d_4">
      <g>
       <use xlink:href="#m8991784644" x="93.510592" y="284.991437" style="stroke: #000000; stroke-width: 0.8"/>
      </g>
     </g>
     <g id="text_3">
      <!-- Aug -->
      <g transform="translate(84.528561 299.42425) scale(0.1 -0.1)">
       <defs>
        <path id="IPAexGothic-41" d="M 4056 63 
L 3444 63 
L 2938 1409 
L 1100 1409 
L 603 63 
L -6 63 
L 1806 4666 
L 2259 4666 
L 4056 63 
z
M 2778 1863 
L 2316 3078 
Q 2125 3588 2028 4000 
L 2009 4000 
Q 1897 3563 1716 3078 
L 1263 1863 
L 2778 1863 
z
" transform="scale(0.015625)"/>
        <path id="IPAexGothic-67" d="M 1331 1150 
Q 1006 1122 1006 900 
Q 1006 613 1763 575 
L 2131 556 
Q 3303 497 3303 -294 
Q 3303 -700 2925 -959 
Q 2519 -1253 1794 -1253 
Q 1138 -1253 738 -1028 
Q 353 -809 353 -428 
Q 353 84 1075 247 
L 1075 269 
Q 506 413 506 778 
Q 506 1116 994 1297 
Q 456 1575 456 2181 
Q 456 2650 769 2963 
Q 1128 3322 1738 3322 
Q 2125 3322 2422 3153 
Q 2650 3453 3259 3463 
L 3259 3013 
Q 2838 3003 2703 2938 
Q 3034 2613 3034 2169 
Q 3034 1728 2734 1425 
Q 2400 1094 1813 1094 
Q 1563 1094 1331 1150 
z
M 1734 2919 
Q 1409 2919 1197 2706 
Q 988 2497 988 2181 
Q 988 1872 1184 1684 
Q 1397 1472 1756 1472 
Q 2094 1472 2297 1678 
Q 2503 1881 2503 2203 
Q 2503 2497 2297 2700 
Q 2081 2919 1734 2919 
z
M 1753 159 
Q 903 159 903 -366 
Q 903 -875 1800 -875 
Q 2378 -875 2638 -606 
Q 2772 -481 2772 -313 
Q 2772 159 1753 159 
z
" transform="scale(0.015625)"/>
       </defs>
       <use xlink:href="#IPAexGothic-41"/>
       <use xlink:href="#IPAexGothic-75" x="63.720703"/>
       <use xlink:href="#IPAexGothic-67" x="124.121094"/>
      </g>
     </g>
    </g>
    <g id="xtick_4">
     <g id="line2d_5">
      <g>
       <use xlink:href="#m8991784644" x="126.071533" y="284.991437" style="stroke: #000000; stroke-width: 0.8"/>
      </g>
     </g>
     <g id="text_4">
      <!-- Sep -->
      <g transform="translate(117.196533 299.482062) scale(0.1 -0.1)">
       <defs>
        <path id="IPAexGothic-53" d="M 2919 3641 
Q 2563 4259 1853 4259 
Q 1453 4259 1213 4009 
Q 1028 3803 1028 3534 
Q 1028 3238 1266 3047 
Q 1444 2913 1984 2688 
L 2200 2597 
Q 2925 2306 3191 1953 
Q 3422 1644 3422 1259 
Q 3422 644 2969 288 
Q 2559 -31 1931 -31 
Q 881 -31 313 766 
L 753 1100 
Q 1203 459 1938 459 
Q 2288 459 2534 625 
Q 2841 847 2841 1216 
Q 2841 1503 2616 1728 
Q 2375 1959 1728 2206 
L 1541 2278 
Q 453 2694 453 3481 
Q 453 4006 806 4347 
Q 1203 4725 1863 4725 
Q 2841 4725 3359 3956 
L 2919 3641 
z
" transform="scale(0.015625)"/>
        <path id="IPAexGothic-65" d="M 863 1594 
Q 891 1041 1209 722 
Q 1534 397 1997 397 
Q 2606 397 2963 966 
L 3322 728 
Q 2869 -31 1931 -31 
Q 1222 -31 766 422 
Q 306 884 306 1641 
Q 306 2444 788 2925 
Q 1216 3353 1856 3353 
Q 2459 3353 2866 2956 
Q 3322 2494 3322 1722 
L 3322 1594 
L 863 1594 
z
M 2756 1997 
Q 2709 2431 2450 2681 
Q 2194 2938 1844 2938 
Q 1438 2938 1150 2591 
Q 953 2356 894 1997 
L 2756 1997 
z
" transform="scale(0.015625)"/>
        <path id="IPAexGothic-70" d="M 1075 2688 
Q 1525 3341 2206 3341 
Q 2769 3341 3172 2938 
Q 3641 2469 3641 1644 
Q 3641 841 3178 372 
Q 2775 -31 2200 -31 
Q 1569 -31 1106 497 
L 1106 -1216 
L 563 -1216 
L 563 3250 
L 1075 3250 
L 1075 2688 
z
M 1106 1950 
L 1106 1291 
Q 1106 897 1516 600 
Q 1791 403 2106 403 
Q 2469 403 2725 659 
Q 3066 997 3066 1631 
Q 3066 2200 2784 2559 
Q 2503 2900 2100 2900 
Q 1656 2900 1338 2484 
Q 1106 2184 1106 1950 
z
" transform="scale(0.015625)"/>
       </defs>
       <use xlink:href="#IPAexGothic-53"/>
       <use xlink:href="#IPAexGothic-65" x="58.496094"/>
       <use xlink:href="#IPAexGothic-70" x="115.380859"/>
      </g>
     </g>
    </g>
    <g id="xtick_5">
     <g id="line2d_6">
      <g>
       <use xlink:href="#m8991784644" x="157.582121" y="284.991437" style="stroke: #000000; stroke-width: 0.8"/>
      </g>
     </g>
     <g id="text_5">
      <!-- Oct -->
      <g transform="translate(149.146965 299.482062) scale(0.1 -0.1)">
       <defs>
        <path id="IPAexGothic-4f" d="M 2541 4725 
Q 3456 4725 4044 4138 
Q 4709 3472 4709 2331 
Q 4709 1219 4031 550 
Q 3450 -31 2541 -31 
Q 1638 -31 1056 550 
Q 378 1219 378 2356 
Q 378 3469 1044 4138 
Q 1631 4725 2541 4725 
z
M 2541 4266 
Q 1953 4266 1531 3844 
Q 994 3303 994 2350 
Q 994 1391 1531 863 
Q 1947 447 2541 447 
Q 3131 447 3556 863 
Q 4094 1400 4094 2375 
Q 4094 3297 3550 3844 
Q 3138 4266 2541 4266 
z
" transform="scale(0.015625)"/>
        <path id="IPAexGothic-63" d="M 3269 784 
Q 2834 -31 1900 -31 
Q 1228 -31 788 409 
Q 313 891 313 1663 
Q 313 2428 788 2913 
Q 1222 3347 1881 3347 
Q 2813 3347 3206 2541 
L 2763 2309 
Q 2484 2900 1900 2900 
Q 1516 2900 1234 2619 
Q 881 2266 881 1650 
Q 881 1069 1222 728 
Q 1522 428 1956 428 
Q 2547 428 2847 1016 
L 3269 784 
z
" transform="scale(0.015625)"/>
        <path id="IPAexGothic-74" d="M 2125 241 
Q 1769 -6 1397 -6 
Q 653 -6 653 831 
L 653 2859 
L 219 2859 
L 219 3250 
L 653 3250 
L 653 3966 
L 1178 4228 
L 1178 3250 
L 2063 3250 
L 2063 2859 
L 1178 2859 
L 1178 906 
Q 1178 416 1513 416 
Q 1738 416 1941 588 
L 2125 241 
z
" transform="scale(0.015625)"/>
       </defs>
       <use xlink:href="#IPAexGothic-4f"/>
       <use xlink:href="#IPAexGothic-63" x="79.6875"/>
       <use xlink:href="#IPAexGothic-74" x="134.082031"/>
      </g>
     </g>
    </g>
    <g id="xtick_6">
     <g id="line2d_7">
      <g>
       <use xlink:href="#m8991784644" x="190.143062" y="284.991437" style="stroke: #000000; stroke-width: 0.8"/>
      </g>
     </g>
     <g id="text_6">
      <!-- Nov -->
      <g transform="translate(180.894625 299.482062) scale(0.1 -0.1)">
       <defs>
        <path id="IPAexGothic-4e" d="M 4244 63 
L 3731 63 
L 1697 3150 
Q 1466 3500 1141 4097 
L 1116 4097 
L 1128 3797 
Q 1159 2803 1159 2469 
L 1159 63 
L 609 63 
L 609 4634 
L 1366 4634 
L 3113 1978 
Q 3453 1447 3713 966 
L 3738 966 
Q 3694 1897 3694 2469 
L 3694 4634 
L 4244 4634 
L 4244 63 
z
" transform="scale(0.015625)"/>
        <path id="IPAexGothic-6f" d="M 1919 3341 
Q 2594 3341 3056 2888 
Q 3531 2413 3531 1638 
Q 3531 888 3066 422 
Q 2609 -31 1919 -31 
Q 1228 -31 781 416 
Q 313 881 313 1656 
Q 313 2413 788 2888 
Q 1241 3341 1919 3341 
z
M 1919 2919 
Q 1519 2919 1241 2631 
Q 888 2278 888 1650 
Q 888 1031 1234 684 
Q 1516 403 1919 403 
Q 2331 403 2609 691 
Q 2956 1038 2956 1672 
Q 2956 2269 2603 2631 
Q 2316 2919 1919 2919 
z
" transform="scale(0.015625)"/>
        <path id="IPAexGothic-76" d="M 3103 3250 
L 1747 6 
L 1375 6 
L 25 3250 
L 628 3250 
L 1338 1388 
L 1522 844 
L 1569 703 
L 1588 703 
Q 1641 884 1822 1388 
L 2516 3250 
L 3103 3250 
z
" transform="scale(0.015625)"/>
       </defs>
       <use xlink:href="#IPAexGothic-4e"/>
       <use xlink:href="#IPAexGothic-6f" x="75.976562"/>
       <use xlink:href="#IPAexGothic-76" x="136.376953"/>
      </g>
     </g>
    </g>
    <g id="xtick_7">
     <g id="line2d_8">
      <g>
       <use xlink:href="#m8991784644" x="221.653651" y="284.991437" style="stroke: #000000; stroke-width: 0.8"/>
      </g>
     </g>
     <g id="text_7">
      <!-- Dec -->
      <g transform="translate(212.305213 299.482062) scale(0.1 -0.1)">
       <defs>
        <path id="IPAexGothic-44" d="M 609 4634 
L 1984 4634 
Q 3159 4634 3791 4050 
Q 4456 3444 4456 2356 
Q 4456 1047 3516 441 
Q 2925 63 1941 63 
L 609 63 
L 609 4634 
z
M 1172 556 
L 1894 556 
Q 3853 556 3853 2356 
Q 3853 4147 1928 4147 
L 1172 4147 
L 1172 556 
z
" transform="scale(0.015625)"/>
       </defs>
       <use xlink:href="#IPAexGothic-44"/>
       <use xlink:href="#IPAexGothic-65" x="75.683594"/>
       <use xlink:href="#IPAexGothic-63" x="132.568359"/>
      </g>
     </g>
    </g>
    <g id="xtick_8">
     <g id="line2d_9">
      <g>
       <use xlink:href="#m8991784644" x="254.214592" y="284.991437" style="stroke: #000000; stroke-width: 0.8"/>
      </g>
     </g>
     <g id="text_8">
      <!-- 2023 -->
      <g transform="translate(241.617717 299.482062) scale(0.1 -0.1)">
       <defs>
        <path id="IPAexGothic-32" d="M 3659 63 
L 447 63 
L 447 594 
Q 825 1475 1894 2203 
L 2072 2322 
Q 2619 2697 2791 2906 
Q 2988 3153 2988 3444 
Q 2988 3772 2756 4003 
Q 2500 4259 2084 4259 
Q 1250 4259 991 3328 
L 497 3506 
Q 853 4725 2116 4725 
Q 2806 4725 3216 4316 
Q 3575 3947 3575 3425 
Q 3575 3038 3344 2722 
Q 3131 2416 2366 1938 
L 2231 1856 
Q 1256 1253 978 569 
L 3659 569 
L 3659 63 
z
" transform="scale(0.015625)"/>
        <path id="IPAexGothic-30" d="M 2038 4725 
Q 2881 4725 3334 3944 
Q 3694 3325 3694 2344 
Q 3694 1372 3334 741 
Q 2888 -31 2016 -31 
Q 1147 -31 700 741 
Q 341 1372 341 2350 
Q 341 3713 1000 4334 
Q 1419 4725 2038 4725 
z
M 2016 4266 
Q 1516 4266 1228 3759 
Q 934 3247 934 2344 
Q 934 1456 1222 947 
Q 1513 447 2016 447 
Q 2619 447 2909 1153 
Q 3100 1622 3100 2375 
Q 3100 3256 2806 3759 
Q 2509 4266 2016 4266 
z
" transform="scale(0.015625)"/>
        <path id="IPAexGothic-33" d="M 2381 2419 
Q 3506 2216 3506 1278 
Q 3506 716 3128 356 
Q 2709 -31 1944 -31 
Q 797 -31 288 881 
L 756 1131 
Q 1109 441 1938 441 
Q 2425 441 2694 691 
Q 2950 928 2950 1291 
Q 2950 1719 2566 1978 
Q 2216 2213 1644 2213 
L 1363 2213 
L 1363 2669 
L 1656 2669 
Q 2231 2669 2534 2888 
Q 2859 3119 2859 3509 
Q 2859 3934 2494 4138 
Q 2259 4278 1931 4278 
Q 1238 4278 903 3578 
L 434 3803 
Q 897 4725 1938 4725 
Q 2597 4725 3006 4394 
Q 3416 4069 3416 3534 
Q 3416 3028 3019 2706 
Q 2763 2500 2381 2444 
L 2381 2419 
z
" transform="scale(0.015625)"/>
       </defs>
       <use xlink:href="#IPAexGothic-32"/>
       <use xlink:href="#IPAexGothic-30" x="62.988281"/>
       <use xlink:href="#IPAexGothic-32" x="125.976562"/>
       <use xlink:href="#IPAexGothic-33" x="188.964844"/>
      </g>
     </g>
    </g>
    <g id="xtick_9">
     <g id="line2d_10">
      <g>
       <use xlink:href="#m8991784644" x="286.775533" y="284.991437" style="stroke: #000000; stroke-width: 0.8"/>
      </g>
     </g>
     <g id="text_9">
      <!-- Feb -->
      <g transform="translate(277.952096 299.482062) scale(0.1 -0.1)">
       <defs>
        <path id="IPAexGothic-46" d="M 3469 4141 
L 1172 4141 
L 1172 2656 
L 3206 2656 
L 3206 2188 
L 1172 2188 
L 1172 63 
L 609 63 
L 609 4634 
L 3469 4634 
L 3469 4141 
z
" transform="scale(0.015625)"/>
        <path id="IPAexGothic-62" d="M 1125 2731 
Q 1550 3341 2219 3341 
Q 2788 3341 3191 2938 
Q 3659 2469 3659 1644 
Q 3659 838 3191 372 
Q 2788 -31 2206 -31 
Q 1559 -31 1088 516 
L 1009 44 
L 581 44 
L 581 4794 
L 1125 4794 
L 1125 2731 
z
M 1125 1997 
L 1125 1253 
Q 1125 888 1528 600 
Q 1803 403 2119 403 
Q 2488 403 2744 659 
Q 3084 1009 3084 1631 
Q 3084 2194 2803 2553 
Q 2525 2900 2125 2900 
Q 1759 2900 1438 2578 
Q 1125 2266 1125 1997 
z
" transform="scale(0.015625)"/>
       </defs>
       <use xlink:href="#IPAexGothic-46"/>
       <use xlink:href="#IPAexGothic-65" x="57.177734"/>
       <use xlink:href="#IPAexGothic-62" x="114.0625"/>
      </g>
     </g>
    </g>
    <g id="xtick_10">
     <g id="line2d_11">
      <g>
       <use xlink:href="#m8991784644" x="316.185415" y="284.991437" style="stroke: #000000; stroke-width: 0.8"/>
      </g>
     </g>
     <g id="text_10">
      <!-- Mar -->
      <g transform="translate(307.07604 299.482062) scale(0.1 -0.1)">
       <defs>
        <path id="IPAexGothic-4d" d="M 5147 63 
L 4597 63 
L 4597 2534 
Q 4597 3281 4634 4134 
L 4609 4134 
Q 4356 3409 4066 2675 
L 3066 209 
L 2650 209 
L 1641 2725 
Q 1328 3506 1128 4141 
L 1103 4141 
Q 1141 3131 1141 2553 
L 1141 63 
L 609 63 
L 609 4634 
L 1416 4634 
L 2503 1944 
Q 2697 1472 2869 906 
L 2888 906 
Q 3028 1416 3234 1931 
L 4316 4634 
L 5147 4634 
L 5147 63 
z
" transform="scale(0.015625)"/>
        <path id="IPAexGothic-61" d="M 3156 63 
L 2672 63 
Q 2559 303 2531 556 
L 2509 556 
Q 2147 -25 1428 -25 
Q 934 -25 622 288 
Q 347 563 347 959 
Q 347 1947 2050 1997 
L 2478 2009 
L 2478 2175 
Q 2478 2509 2288 2700 
Q 2088 2900 1775 2900 
Q 1238 2900 969 2378 
L 494 2597 
Q 938 3328 1788 3328 
Q 2375 3328 2691 3000 
Q 2984 2706 2984 2169 
L 2984 997 
Q 2984 400 3156 63 
z
M 2491 1625 
L 2141 1619 
Q 903 1591 903 953 
Q 903 728 1050 581 
Q 1231 403 1525 403 
Q 1934 403 2234 703 
Q 2491 969 2491 1344 
L 2491 1625 
z
" transform="scale(0.015625)"/>
        <path id="IPAexGothic-72" d="M 2309 3316 
L 2213 2769 
Q 2106 2791 2022 2791 
Q 1653 2791 1413 2444 
Q 1113 2006 1113 1675 
L 1113 63 
L 563 63 
L 563 3250 
L 1081 3250 
L 1056 2303 
L 1069 2303 
Q 1422 3341 2097 3341 
Q 2206 3341 2309 3316 
z
" transform="scale(0.015625)"/>
       </defs>
       <use xlink:href="#IPAexGothic-4d"/>
       <use xlink:href="#IPAexGothic-61" x="90.185547"/>
       <use xlink:href="#IPAexGothic-72" x="145.166016"/>
      </g>
     </g>
    </g>
    <g id="xtick_11">
     <g id="line2d_12">
      <g>
       <use xlink:href="#m8991784644" x="348.746357" y="284.991437" style="stroke: #000000; stroke-width: 0.8"/>
      </g>
     </g>
     <g id="text_11">
      <!-- Apr -->
      <g transform="translate(340.604169 299.482062) scale(0.1 -0.1)">
       <use xlink:href="#IPAexGothic-41"/>
       <use xlink:href="#IPAexGothic-70" x="63.720703"/>
       <use xlink:href="#IPAexGothic-72" x="125.830078"/>
      </g>
     </g>
    </g>
    <g id="xtick_12">
     <g id="line2d_13">
      <g>
       <use xlink:href="#m8991784644" x="380.256945" y="284.991437" style="stroke: #000000; stroke-width: 0.8"/>
      </g>
     </g>
     <g id="text_12">
      <!-- May -->
      <g transform="translate(370.537414 299.482062) scale(0.1 -0.1)">
       <defs>
        <path id="IPAexGothic-79" d="M 3122 3250 
L 1575 -488 
Q 1278 -1203 550 -1203 
L 478 -1203 
L 344 -703 
L 447 -703 
Q 969 -703 1150 -238 
L 1356 275 
L 38 3250 
L 659 3250 
L 1363 1459 
Q 1528 1025 1606 781 
L 1625 781 
Q 1750 1169 1863 1459 
L 2528 3250 
L 3122 3250 
z
" transform="scale(0.015625)"/>
       </defs>
       <use xlink:href="#IPAexGothic-4d"/>
       <use xlink:href="#IPAexGothic-61" x="90.185547"/>
       <use xlink:href="#IPAexGothic-79" x="145.166016"/>
      </g>
     </g>
    </g>
   </g>
   <g id="matplotlib.axis_2">
    <g id="ytick_1">
     <g id="line2d_14">
      <defs>
       <path id="me4e8cbf739" d="M 0 0 
L -3.5 0 
" style="stroke: #000000; stroke-width: 0.8"/>
      </defs>
      <g>
       <use xlink:href="#me4e8cbf739" x="29.439063" y="269.014637" style="stroke: #000000; stroke-width: 0.8"/>
      </g>
     </g>
     <g id="text_13">
      <!-- 0.5 -->
      <g transform="translate(7.2 272.759949) scale(0.1 -0.1)">
       <defs>
        <path id="IPAexGothic-2e" d="M 1184 63 
L 494 63 
L 494 753 
L 1184 753 
L 1184 63 
z
" transform="scale(0.015625)"/>
        <path id="IPAexGothic-35" d="M 1178 2603 
Q 1634 2963 2172 2963 
Q 2816 2963 3241 2528 
Q 3638 2113 3638 1497 
Q 3638 938 3297 513 
Q 2869 -31 2031 -31 
Q 959 -31 469 784 
L 938 1028 
Q 1309 434 2013 434 
Q 2466 434 2769 716 
Q 3081 1013 3081 1503 
Q 3081 1966 2806 2241 
Q 2519 2528 2056 2528 
Q 1406 2528 1072 2028 
L 591 2091 
L 884 4634 
L 3406 4634 
L 3406 4153 
L 1341 4153 
L 1134 2603 
L 1178 2603 
z
" transform="scale(0.015625)"/>
       </defs>
       <use xlink:href="#IPAexGothic-30"/>
       <use xlink:href="#IPAexGothic-2e" x="62.988281"/>
       <use xlink:href="#IPAexGothic-35" x="89.404297"/>
      </g>
     </g>
    </g>
    <g id="ytick_2">
     <g id="line2d_15">
      <g>
       <use xlink:href="#me4e8cbf739" x="29.439063" y="211.199039" style="stroke: #000000; stroke-width: 0.8"/>
      </g>
     </g>
     <g id="text_14">
      <!-- 1.0 -->
      <g transform="translate(7.2 214.944352) scale(0.1 -0.1)">
       <defs>
        <path id="IPAexGothic-31" d="M 2463 63 
L 1900 63 
L 1900 4103 
Q 1372 3922 788 3797 
L 684 4231 
Q 1519 4441 2106 4731 
L 2463 4731 
L 2463 63 
z
" transform="scale(0.015625)"/>
       </defs>
       <use xlink:href="#IPAexGothic-31"/>
       <use xlink:href="#IPAexGothic-2e" x="62.988281"/>
       <use xlink:href="#IPAexGothic-30" x="89.404297"/>
      </g>
     </g>
    </g>
    <g id="ytick_3">
     <g id="line2d_16">
      <g>
       <use xlink:href="#me4e8cbf739" x="29.439063" y="153.383442" style="stroke: #000000; stroke-width: 0.8"/>
      </g>
     </g>
     <g id="text_15">
      <!-- 1.5 -->
      <g transform="translate(7.2 157.128754) scale(0.1 -0.1)">
       <use xlink:href="#IPAexGothic-31"/>
       <use xlink:href="#IPAexGothic-2e" x="62.988281"/>
       <use xlink:href="#IPAexGothic-35" x="89.404297"/>
      </g>
     </g>
    </g>
    <g id="ytick_4">
     <g id="line2d_17">
      <g>
       <use xlink:href="#me4e8cbf739" x="29.439063" y="95.567844" style="stroke: #000000; stroke-width: 0.8"/>
      </g>
     </g>
     <g id="text_16">
      <!-- 2.0 -->
      <g transform="translate(7.2 99.313157) scale(0.1 -0.1)">
       <use xlink:href="#IPAexGothic-32"/>
       <use xlink:href="#IPAexGothic-2e" x="62.988281"/>
       <use xlink:href="#IPAexGothic-30" x="89.404297"/>
      </g>
     </g>
    </g>
    <g id="ytick_5">
     <g id="line2d_18">
      <g>
       <use xlink:href="#me4e8cbf739" x="29.439063" y="37.752247" style="stroke: #000000; stroke-width: 0.8"/>
      </g>
     </g>
     <g id="text_17">
      <!-- 2.5 -->
      <g transform="translate(7.2 41.497559) scale(0.1 -0.1)">
       <use xlink:href="#IPAexGothic-32"/>
       <use xlink:href="#IPAexGothic-2e" x="62.988281"/>
       <use xlink:href="#IPAexGothic-35" x="89.404297"/>
      </g>
     </g>
    </g>
   </g>
   <g id="line2d_19">
    <path d="M 29.439063 227.411867 
L 30.489415 255.471758 
L 31.539768 269.405805 
L 32.590121 242.945807 
L 33.640474 262.441258 
L 35.74118 251.639145 
L 36.791533 227.514621 
L 37.841886 229.940841 
L 38.892239 194.078383 
L 39.942592 246.403784 
L 40.992945 250.411663 
L 42.043298 205.84664 
L 43.093651 249.191321 
L 44.144004 272.895437 
L 45.194357 243.090535 
L 46.24471 247.559579 
L 47.295063 238.429093 
L 48.345415 112.810292 
L 49.395768 184.323192 
L 50.446121 181.498781 
L 51.496474 30.975437 
L 53.59718 168.571026 
L 54.647533 110.868109 
L 55.697886 213.126183 
L 56.748239 156.293505 
L 57.798592 124.518024 
L 58.848945 151.875457 
L 59.899298 236.751655 
L 60.949651 106.655378 
L 62.000004 51.387485 
L 63.050357 102.788184 
L 64.10071 95.926279 
L 65.151063 36.542983 
L 66.201415 79.37836 
L 67.251768 35.439549 
L 68.302121 110.396771 
L 69.352474 116.980214 
L 70.402827 109.726148 
L 71.45318 177.160719 
L 72.503533 110.814502 
L 73.553886 153.702013 
L 74.604239 148.460822 
L 75.654592 164.812112 
L 76.704945 190.526245 
L 77.755298 181.526351 
L 78.805651 197.096587 
L 79.856004 219.976945 
L 80.906357 163.710275 
L 81.95671 173.022011 
L 83.007063 196.817697 
L 84.057415 179.527296 
L 85.107768 191.661352 
L 86.158121 192.887858 
L 87.208474 173.15897 
L 88.258827 188.50237 
L 89.30918 201.809366 
L 90.359533 195.197746 
L 91.409886 183.412435 
L 92.460239 192.046725 
L 93.510592 204.737627 
L 94.560945 199.025674 
L 95.611298 189.016626 
L 97.712004 182.941981 
L 98.762357 200.02008 
L 99.81271 192.032303 
L 100.863063 181.775482 
L 101.913415 186.871327 
L 102.963768 193.9839 
L 104.014121 204.601463 
L 105.064474 225.669065 
L 106.114827 207.989558 
L 107.16518 218.057369 
L 108.215533 204.232725 
L 109.265886 217.282458 
L 110.316239 202.720535 
L 111.366592 195.141529 
L 112.416945 153.461242 
L 113.467298 171.531238 
L 114.517651 185.828914 
L 115.568004 204.950127 
L 116.618357 187.736367 
L 117.66871 211.671324 
L 118.719063 216.92144 
L 119.769415 231.587854 
L 120.819768 248.509599 
L 121.870121 240.826108 
L 122.920474 241.29957 
L 123.970827 247.072575 
L 125.02118 251.367839 
L 126.071533 251.669425 
L 127.121886 251.785215 
L 128.172239 242.900107 
L 129.222592 251.663262 
L 130.272945 241.186243 
L 131.323298 228.929625 
L 132.373651 240.670472 
L 133.424004 239.689961 
L 134.474357 228.587222 
L 135.52471 234.114512 
L 136.575063 220.053728 
L 137.625415 221.634093 
L 138.675768 247.789493 
L 139.726121 250.578039 
L 140.776474 230.847867 
L 141.826827 240.571341 
L 142.87718 229.667605 
L 143.927533 228.965012 
L 144.977886 226.507 
L 146.028239 266.267581 
L 147.078592 173.994674 
L 148.128945 228.352097 
L 149.179298 212.968149 
L 150.229651 243.863512 
L 151.280004 195.951487 
L 152.330357 187.500784 
L 153.38071 195.32975 
L 154.431062 238.855842 
L 155.481415 224.563828 
L 156.531768 239.674853 
L 157.582121 205.067187 
L 158.632474 219.657973 
L 159.682827 258.893645 
L 160.73318 189.095647 
L 161.783533 231.988543 
L 162.833886 230.452082 
L 163.884239 208.848889 
L 164.934592 214.413367 
L 165.984945 237.774657 
L 167.035298 208.216448 
L 168.085651 269.328924 
L 169.136004 186.857034 
L 170.186357 168.652783 
L 171.23671 211.199039 
L 172.287062 197.903063 
L 173.337415 190.42842 
L 174.387768 209.746404 
L 175.438121 135.123595 
L 176.488474 212.926136 
L 177.538827 239.34414 
L 178.58918 184.631705 
L 179.639533 193.892671 
L 180.689886 220.351516 
L 181.740239 197.002011 
L 182.790592 191.634272 
L 183.840945 213.253557 
L 184.891298 183.049443 
L 185.941651 199.198481 
L 186.992004 190.346771 
L 188.042357 160.309806 
L 189.09271 189.784075 
L 190.143062 198.104074 
L 191.193415 152.110827 
L 192.243768 152.9204 
L 193.294121 232.748365 
L 194.344474 165.024121 
L 195.394827 194.085734 
L 196.44518 199.838398 
L 197.495533 173.564927 
L 198.545886 209.205445 
L 199.596239 206.690562 
L 200.646592 156.249641 
L 201.696945 220.402577 
L 202.747298 215.284532 
L 203.797651 225.924092 
L 204.848004 188.099011 
L 205.898357 185.511636 
L 206.94871 211.199039 
L 207.999062 194.160213 
L 209.049415 184.55213 
L 210.099768 182.799057 
L 212.200474 203.930102 
L 213.250827 168.757197 
L 214.30118 220.491359 
L 215.351533 171.577359 
L 217.452239 192.11637 
L 218.502592 204.402838 
L 219.552945 198.987955 
L 220.603298 181.777237 
L 221.653651 142.696764 
L 222.704004 213.580923 
L 223.754357 220.529523 
L 224.80471 204.080643 
L 225.855062 205.292279 
L 226.905415 181.962456 
L 227.955768 194.793532 
L 229.006121 197.432704 
L 230.056474 173.295964 
L 231.106827 175.045451 
L 232.15718 167.16196 
L 233.207533 187.120934 
L 234.257886 183.834422 
L 235.308239 173.778001 
L 236.358592 181.23856 
L 237.408945 201.020413 
L 238.459298 187.828789 
L 239.509651 213.66936 
L 240.560004 207.768569 
L 241.610357 207.295129 
L 242.66071 192.832229 
L 243.711062 206.958159 
L 244.761415 188.728128 
L 245.811768 193.851266 
L 246.862121 207.103197 
L 247.912474 215.224404 
L 248.962827 196.113595 
L 250.01318 220.91992 
L 251.063533 200.04709 
L 252.113886 223.444191 
L 253.164239 251.024981 
L 254.214592 228.180558 
L 255.264945 208.755181 
L 256.315298 251.311193 
L 257.365651 254.432046 
L 258.416004 215.74342 
L 259.466357 126.299141 
L 260.51671 90.185267 
L 261.567062 169.01121 
L 262.617415 202.233317 
L 263.667768 208.810336 
L 264.718121 167.736099 
L 265.768474 215.685286 
L 266.818827 255.304956 
L 267.86918 257.151057 
L 268.919533 241.910597 
L 269.969886 230.363911 
L 271.020239 201.639485 
L 272.070592 252.591109 
L 273.120945 261.202922 
L 274.171298 248.191392 
L 275.221651 245.888016 
L 276.272004 248.528538 
L 277.322357 233.937612 
L 278.37271 243.873594 
L 279.423063 245.699396 
L 280.473415 238.379427 
L 281.523768 250.421781 
L 282.574121 242.025158 
L 283.624474 235.679743 
L 284.674827 231.977605 
L 285.72518 268.725993 
L 286.775533 251.010186 
L 287.825886 243.44844 
L 288.876239 231.173865 
L 289.926592 246.470516 
L 290.976945 240.806074 
L 292.027298 205.729567 
L 293.077651 216.74151 
L 294.128004 221.239134 
L 295.178357 222.049942 
L 296.22871 236.243828 
L 297.279063 216.587974 
L 298.329415 250.056764 
L 299.379768 220.887451 
L 300.430121 228.799652 
L 301.480474 253.712581 
L 302.530827 218.850978 
L 303.58118 215.357996 
L 304.631533 237.280047 
L 305.681886 193.27922 
L 306.732239 224.105076 
L 307.782592 238.379537 
L 308.832945 241.772305 
L 309.883298 251.269511 
L 310.933651 255.03236 
L 313.034357 237.065956 
L 314.08471 226.130001 
L 315.135063 244.38679 
L 316.185415 206.157732 
L 317.235768 233.765533 
L 318.286121 159.336552 
L 319.336474 185.327724 
L 320.386827 214.962751 
L 321.43718 217.21233 
L 322.487533 183.217935 
L 323.537886 224.645526 
L 324.588239 214.214028 
L 325.638592 235.628575 
L 326.688945 247.936648 
L 327.739298 239.212375 
L 328.789651 229.20156 
L 330.890357 253.457905 
L 331.94071 223.82357 
L 332.991063 230.110703 
L 334.041415 231.751414 
L 335.091768 221.724925 
L 336.142121 218.438731 
L 337.192474 196.729311 
L 338.242827 269.644947 
L 339.29318 186.805833 
L 340.343533 151.469654 
L 341.393886 196.794784 
L 342.444239 186.090119 
L 343.494592 212.367022 
L 344.544945 270.557568 
L 345.595298 131.696335 
L 346.645651 246.286327 
L 347.696004 246.583352 
L 348.746357 237.988485 
L 349.79671 247.318928 
L 350.847063 158.670839 
L 351.897415 179.975338 
L 352.947768 223.430761 
L 353.998121 212.644411 
L 355.048474 225.046752 
L 356.098827 197.113467 
L 357.14918 202.169595 
L 358.199533 251.481393 
L 359.249886 236.781261 
L 360.300239 190.034499 
L 362.400945 209.627986 
L 363.451298 206.447701 
L 364.501651 229.946022 
L 365.552004 202.966425 
L 366.602357 187.325942 
L 367.65271 234.850923 
L 368.703063 249.425785 
L 369.753415 239.100404 
L 370.803768 239.052377 
L 371.854121 232.547715 
L 372.904474 220.893946 
L 373.954827 241.999931 
L 375.00518 236.824654 
L 376.055533 191.724138 
L 377.105886 86.998199 
L 379.206592 209.431011 
L 380.256945 130.116068 
L 381.307298 83.165494 
L 382.357651 129.624869 
L 383.408004 217.170417 
L 384.458357 254.494953 
L 385.50871 247.504963 
L 385.50871 247.504963 
" clip-path="url(#pb0dc69b821)" style="fill: none; stroke: #1f77b4; stroke-width: 1.5; stroke-linecap: square"/>
   </g>
   <g id="line2d_20">
    <path d="M 29.439063 230.929789 
L 30.489415 242.60231 
L 31.539768 262.8168 
L 32.590121 257.425513 
L 33.640474 253.337157 
L 34.690827 259.836211 
L 35.74118 254.434415 
L 36.791533 240.414674 
L 37.841886 228.735232 
L 38.892239 213.41839 
L 39.942592 223.501825 
L 40.992945 248.433331 
L 42.043298 230.677266 
L 43.093651 229.912564 
L 44.144004 262.11981 
L 45.194357 259.625445 
L 46.24471 245.355694 
L 47.295063 243.118728 
L 48.345415 189.281671 
L 49.395768 152.189606 
L 50.446121 182.917915 
L 51.496474 119.473036 
L 52.546827 68.196709 
L 53.59718 137.669929 
L 54.647533 141.957318 
L 55.697886 170.127431 
L 56.748239 187.579679 
L 57.798592 141.084002 
L 58.848945 138.693349 
L 59.899298 201.292679 
L 60.949651 186.000414 
L 62.000004 80.567026 
L 63.050357 78.413733 
L 64.10071 99.383107 
L 65.151063 67.931655 
L 66.201415 58.815077 
L 67.251768 58.306173 
L 68.302121 75.699401 
L 69.352474 113.713912 
L 70.402827 113.383995 
L 71.45318 146.569691 
L 72.503533 147.022086 
L 73.553886 133.443524 
L 74.604239 151.100956 
L 75.654592 156.832948 
L 76.704945 178.224324 
L 77.755298 186.098223 
L 78.805651 189.532009 
L 79.856004 209.091256 
L 80.906357 194.807872 
L 81.95671 168.434555 
L 83.007063 185.419494 
L 84.057415 188.44227 
L 85.107768 185.724694 
L 86.158121 192.276003 
L 87.208474 183.362139 
L 88.258827 181.032368 
L 89.30918 195.324076 
L 90.359533 198.546144 
L 91.409886 189.431392 
L 92.460239 187.79659 
L 93.510592 198.54902 
L 94.560945 201.914295 
L 95.611298 194.115474 
L 96.661651 187.422411 
L 97.712004 184.383085 
L 98.762357 191.750659 
L 99.81271 196.087179 
L 100.863063 186.997904 
L 101.913415 184.346184 
L 102.963768 190.473981 
L 104.014121 199.403219 
L 105.064474 215.633088 
L 106.114827 217.185071 
L 107.16518 213.134848 
L 108.215533 211.351742 
L 109.265886 210.94113 
L 110.316239 210.228598 
L 111.366592 198.987184 
L 112.416945 175.731796 
L 113.467298 162.744798 
L 115.568004 195.737687 
L 116.618357 196.62741 
L 117.66871 200.268399 
L 118.719063 214.327003 
L 119.769415 224.517111 
L 120.819768 240.462163 
L 121.870121 244.757718 
L 122.920474 241.063165 
L 123.970827 244.236496 
L 125.02118 249.249927 
L 126.071533 251.518783 
L 127.121886 251.727342 
L 128.172239 247.466905 
L 129.222592 247.402446 
L 130.272945 246.595581 
L 131.323298 235.262778 
L 132.373651 234.987471 
L 133.424004 240.181603 
L 134.474357 234.304978 
L 135.52471 231.390872 
L 136.575063 227.332189 
L 137.625415 220.846856 
L 139.726121 249.196285 
L 140.776474 241.279862 
L 141.826827 235.839395 
L 142.87718 235.281663 
L 143.927533 229.316941 
L 144.977886 227.743627 
L 146.028239 248.882551 
L 147.078592 230.621466 
L 148.128945 204.147875 
L 149.179298 220.93913 
L 150.229651 229.635769 
L 151.280004 222.625721 
L 152.330357 191.792225 
L 153.38071 191.471858 
L 154.431062 219.272458 
L 155.481415 231.97864 
L 156.531768 232.42119 
L 157.582121 223.814193 
L 158.632474 212.595296 
L 159.682827 241.501939 
L 160.73318 230.097519 
L 161.783533 212.536835 
L 162.833886 231.223399 
L 163.884239 220.196168 
L 164.934592 211.66473 
L 165.984945 226.773505 
L 167.035298 224.052711 
L 168.085651 244.24423 
L 169.136004 237.116008 
L 170.186357 178.033043 
L 172.287062 204.731901 
L 173.337415 194.218394 
L 174.387768 200.456001 
L 175.438121 177.011185 
L 176.488474 179.059561 
L 177.538827 227.005264 
L 178.58918 215.29372 
L 179.639533 189.34014 
L 180.689886 207.855357 
L 181.740239 209.25497 
L 182.790592 194.345323 
L 183.840945 202.914504 
L 184.891298 199.04078 
L 185.941651 191.364392 
L 186.992004 194.846812 
L 188.042357 176.074523 
L 189.09271 175.764073 
L 190.143062 194.009205 
L 191.193415 176.860376 
L 192.243768 152.516084 
L 193.294121 198.91713 
L 194.344474 203.448625 
L 195.394827 180.273516 
L 196.44518 196.993923 
L 197.495533 187.318791 
L 198.545886 192.562593 
L 199.596239 207.954654 
L 200.646592 183.674736 
L 201.696945 192.091624 
L 202.747298 217.873602 
L 203.797651 220.737602 
L 204.848004 208.513572 
L 205.898357 186.8113 
L 206.94871 198.998945 
L 207.999062 202.972279 
L 209.049415 189.440136 
L 210.099768 183.678277 
L 211.150121 188.335204 
L 212.200474 198.897374 
L 213.250827 187.448754 
L 214.30118 197.179515 
L 215.351533 198.341262 
L 216.401886 176.894581 
L 218.502592 198.406453 
L 219.552945 201.724689 
L 220.603298 190.654224 
L 221.653651 163.401008 
L 222.704004 182.424595 
L 223.754357 217.110216 
L 224.80471 212.600777 
L 225.855062 204.687964 
L 226.905415 194.139114 
L 227.955768 188.526714 
L 229.006121 196.119779 
L 230.056474 185.880047 
L 231.106827 174.173214 
L 232.15718 171.1536 
L 233.207533 177.474475 
L 234.257886 185.48723 
L 235.308239 178.891638 
L 236.358592 177.554882 
L 237.408945 191.49043 
L 238.459298 194.588989 
L 239.509651 201.412831 
L 240.560004 210.756455 
L 241.610357 207.532084 
L 242.66071 200.270107 
L 243.711062 200.091846 
L 244.761415 198.165608 
L 245.811768 191.313905 
L 246.862121 200.651084 
L 247.912474 211.235099 
L 248.962827 206.046382 
L 250.01318 209.168684 
L 251.063533 210.952529 
L 252.113886 212.341773 
L 253.164239 238.302243 
L 254.214592 240.353858 
L 255.264945 218.904029 
L 256.315298 232.400817 
L 257.365651 252.888083 
L 258.416004 237.150337 
L 259.466357 177.577562 
L 260.51671 108.989297 
L 261.567062 133.576313 
L 262.617415 186.602691 
L 263.667768 205.566408 
L 264.718121 189.803691 
L 265.768474 193.854637 
L 266.818827 237.669294 
L 267.86918 256.234041 
L 268.919533 249.907348 
L 269.969886 236.3212 
L 271.020239 216.936234 
L 272.070592 230.424572 
L 273.120945 257.029702 
L 274.171298 254.991137 
L 275.221651 247.048016 
L 276.272004 247.219224 
L 277.322357 241.544538 
L 278.37271 239.046068 
L 279.423063 244.791574 
L 280.473415 242.11844 
L 281.523768 244.62081 
L 282.574121 246.332876 
L 283.624474 238.909678 
L 284.674827 233.847098 
L 285.72518 252.591834 
L 286.775533 260.456547 
L 287.825886 247.319155 
L 288.876239 237.521782 
L 289.926592 239.155159 
L 290.976945 243.68652 
L 292.027298 224.763671 
L 293.077651 211.366742 
L 294.128004 219.013772 
L 295.178357 221.645319 
L 296.22871 229.405031 
L 297.279063 226.898006 
L 298.329415 234.831969 
L 299.379768 236.643788 
L 300.430121 224.92031 
L 301.480474 242.167574 
L 302.530827 237.975354 
L 303.58118 217.118387 
L 304.631533 226.918474 
L 305.681886 217.470651 
L 306.732239 209.70189 
L 307.782592 231.509136 
L 308.832945 240.092508 
L 310.933651 253.174961 
L 311.984004 250.620979 
L 314.08471 231.755086 
L 315.135063 235.714517 
L 316.185415 227.087281 
L 317.235768 220.856887 
L 318.286121 201.979325 
L 319.336474 172.879669 
L 320.386827 201.014775 
L 321.43718 216.093253 
L 322.487533 201.361197 
L 323.537886 205.689899 
L 324.588239 219.5565 
L 325.638592 225.485354 
L 326.688945 242.005556 
L 327.739298 243.688865 
L 328.789651 234.342313 
L 329.840004 235.172055 
L 330.890357 247.370212 
L 331.94071 239.894402 
L 332.991063 227.016627 
L 334.041415 230.934568 
L 335.091768 226.863796 
L 336.142121 220.094475 
L 337.192474 208.079088 
L 338.242827 240.575619 
L 339.29318 237.346517 
L 340.343533 170.130648 
L 341.393886 175.823307 
L 342.444239 191.548291 
L 343.494592 199.90677 
L 344.544945 246.573458 
L 345.595298 222.041376 
L 346.645651 201.463386 
L 347.696004 246.434977 
L 348.746357 242.395209 
L 349.79671 242.783083 
L 350.847063 211.199039 
L 351.897415 169.683708 
L 352.947768 203.603942 
L 353.998121 218.171346 
L 355.048474 219.023784 
L 356.098827 211.92582 
L 357.14918 199.666658 
L 358.199533 229.912564 
L 359.249886 244.458602 
L 360.300239 215.842327 
L 361.350592 194.909964 
L 362.400945 204.722485 
L 363.451298 208.048487 
L 364.501651 218.834091 
L 365.552004 217.28368 
L 366.602357 195.378597 
L 367.65271 213.553984 
L 368.703063 242.452465 
L 369.753415 244.424657 
L 370.803768 239.076394 
L 371.854121 235.858164 
L 372.904474 226.890552 
L 373.954827 232.032516 
L 375.00518 239.450599 
L 376.055533 216.556472 
L 377.105886 146.82254 
L 378.156239 120.54721 
L 379.206592 182.504922 
L 380.256945 174.862836 
L 381.307298 107.895755 
L 382.357651 107.622584 
L 383.408004 179.774108 
L 384.458357 237.766921 
L 385.50871 251.080542 
L 385.50871 251.080542 
" clip-path="url(#pb0dc69b821)" style="fill: none; stroke: #ff7f0e; stroke-width: 1.5; stroke-linecap: square"/>
   </g>
   <g id="line2d_21">
    <path d="M 29.439063 229.122786 
L 30.489415 239.928401 
L 31.539768 252.698705 
L 32.590121 256.780278 
L 33.640474 259.139403 
L 34.690827 254.622372 
L 35.74118 257.208287 
L 36.791533 246.388486 
L 37.841886 237.055655 
L 38.892239 218.326475 
L 40.992945 233.387372 
L 42.043298 236.234427 
L 43.093651 237.293425 
L 45.194357 256.313321 
L 46.24471 255.822722 
L 47.295063 243.109331 
L 48.345415 212.36467 
L 50.446121 162.563334 
L 51.496474 143.84129 
L 52.546827 113.406318 
L 53.59718 107.256927 
L 54.647533 129.127564 
L 55.697886 169.610337 
L 56.748239 165.645532 
L 57.798592 169.115602 
L 58.848945 144.753156 
L 59.899298 179.647632 
L 60.949651 175.437505 
L 62.000004 150.710969 
L 63.050357 88.208754 
L 64.10071 84.394062 
L 65.151063 80.114816 
L 66.201415 71.804879 
L 67.251768 51.239386 
L 68.302121 76.931758 
L 69.352474 90.291085 
L 70.402827 112.392863 
L 71.45318 137.201801 
L 72.503533 135.362509 
L 73.553886 149.276885 
L 74.604239 138.58476 
L 75.654592 155.795645 
L 76.704945 168.900399 
L 79.856004 200.539182 
L 80.906357 195.575228 
L 81.95671 187.912342 
L 83.007063 178.52472 
L 84.057415 183.482093 
L 85.107768 189.523726 
L 86.158121 188.153999 
L 87.208474 186.18367 
L 88.258827 185.09643 
L 89.30918 188.315827 
L 90.359533 195.281979 
L 91.409886 193.687884 
L 92.460239 190.308761 
L 93.510592 193.689874 
L 94.560945 198.708102 
L 95.611298 197.755094 
L 96.661651 191.402728 
L 97.712004 185.944654 
L 98.762357 189.7987 
L 99.81271 191.844605 
L 100.863063 191.480812 
L 101.913415 186.955724 
L 102.963768 187.634041 
L 104.014121 195.355837 
L 105.064474 208.84012 
L 107.16518 217.476612 
L 108.215533 210.241718 
L 109.265886 213.36349 
L 110.316239 208.263285 
L 111.366592 205.402114 
L 112.416945 185.324114 
L 113.467298 174.344388 
L 114.517651 170.831497 
L 115.568004 188.120092 
L 116.618357 193.123075 
L 117.66871 201.848623 
L 118.719063 206.082407 
L 120.819768 233.236603 
L 121.870121 240.583648 
L 122.920474 243.620823 
L 123.970827 243.114997 
L 126.071533 250.064959 
L 127.121886 251.607698 
L 128.172239 248.893225 
L 129.222592 248.891095 
L 130.272945 245.382199 
L 132.373651 237.10204 
L 133.424004 236.582508 
L 134.474357 236.477418 
L 135.52471 234.241533 
L 136.575063 227.752305 
L 137.625415 225.467971 
L 138.675768 230.718701 
L 139.726121 240.92208 
L 140.776474 243.507227 
L 141.826827 241.044337 
L 142.87718 233.826969 
L 143.927533 233.222764 
L 144.977886 228.38915 
L 146.028239 242.740121 
L 147.078592 229.269077 
L 148.128945 229.870881 
L 149.179298 207.161383 
L 150.229651 229.209749 
L 151.280004 219.501156 
L 152.330357 212.031087 
L 153.38071 192.98185 
L 154.431062 209.581314 
L 155.481415 221.065989 
L 156.531768 234.616737 
L 157.582121 224.06468 
L 158.632474 222.447011 
L 159.682827 230.764786 
L 160.73318 226.735849 
L 161.783533 230.732013 
L 162.833886 218.850986 
L 163.884239 224.281475 
L 164.934592 218.302399 
L 165.984945 221.123664 
L 167.035298 220.93512 
L 168.085651 242.141688 
L 169.136004 228.364316 
L 170.186357 218.44859 
L 171.23671 190.029585 
L 172.287062 193.727182 
L 173.337415 200.139008 
L 174.387768 199.610689 
L 175.438121 181.624175 
L 176.488474 190.09163 
L 178.58918 214.510045 
L 179.639533 208.573118 
L 180.689886 200.569432 
L 181.740239 204.342327 
L 182.790592 203.652593 
L 183.840945 200.974213 
L 184.891298 196.618162 
L 185.941651 199.093369 
L 186.992004 191.026031 
L 188.042357 184.214067 
L 189.09271 180.790352 
L 190.143062 183.611312 
L 191.193415 181.298308 
L 192.243768 169.270937 
L 193.294121 184.905831 
L 194.344474 188.492178 
L 195.394827 200.403438 
L 196.44518 187.108997 
L 197.495533 189.611924 
L 198.545886 195.033037 
L 199.596239 197.447481 
L 200.646592 192.747876 
L 201.696945 197.145102 
L 202.747298 200.314175 
L 203.797651 220.626045 
L 205.898357 201.295556 
L 206.94871 195.464272 
L 207.999062 197.405968 
L 209.049415 197.113713 
L 210.099768 187.261183 
L 211.150121 187.08549 
L 212.200474 193.741822 
L 213.250827 189.550213 
L 214.30118 199.469935 
L 215.351533 189.152671 
L 216.401886 193.119185 
L 217.452239 182.150609 
L 218.502592 193.164416 
L 219.552945 198.60058 
L 220.603298 195.400607 
L 221.653651 176.246527 
L 222.704004 182.20913 
L 223.754357 196.443074 
L 224.80471 212.928431 
L 225.855062 210.214796 
L 226.905415 197.539344 
L 227.955768 194.357613 
L 230.056474 188.916137 
L 231.106827 182.357292 
L 232.15718 171.871023 
L 233.207533 176.669151 
L 234.257886 179.625281 
L 235.308239 181.687232 
L 236.358592 179.678119 
L 237.408945 185.826618 
L 238.459298 190.280728 
L 239.509651 201.282161 
L 240.560004 203.568241 
L 241.610357 209.613962 
L 242.66071 202.82065 
L 243.711062 202.539923 
L 244.761415 196.411828 
L 245.811768 196.743275 
L 246.862121 196.795762 
L 247.912474 205.708887 
L 248.962827 206.399686 
L 250.01318 211.222913 
L 251.063533 206.203506 
L 252.113886 215.275699 
L 253.164239 227.04317 
L 254.214592 235.049338 
L 255.264945 230.893623 
L 256.315298 231.014516 
L 257.365651 240.403632 
L 258.416004 242.143466 
L 259.466357 209.55923 
L 260.51671 152.790998 
L 261.567062 131.180415 
L 262.617415 159.879638 
L 263.667768 194.434509 
L 264.718121 194.078898 
L 265.768474 199.039398 
L 266.818827 218.686553 
L 267.86918 244.703586 
L 268.919533 251.750355 
L 269.969886 243.877834 
L 271.020239 225.985777 
L 272.070592 230.404356 
L 274.171298 254.199875 
L 275.221651 252.076606 
L 277.322357 243.017663 
L 278.37271 242.328067 
L 279.423063 241.322359 
L 280.473415 242.707579 
L 281.523768 244.981923 
L 282.574121 243.764543 
L 283.624474 242.927891 
L 284.674827 236.657187 
L 285.72518 247.335431 
L 286.775533 252.068319 
L 287.825886 255.212423 
L 288.876239 242.265414 
L 289.926592 240.610269 
L 290.976945 239.708955 
L 292.027298 232.583033 
L 293.077651 222.156768 
L 294.128004 214.756056 
L 295.178357 220.03548 
L 296.22871 226.75576 
L 297.279063 225.307435 
L 298.329415 235.305016 
L 299.379768 230.400667 
L 300.430121 234.101419 
L 301.480474 235.597281 
L 302.530827 235.016415 
L 303.58118 230.998408 
L 304.631533 224.298607 
L 305.681886 216.77092 
L 306.732239 219.728418 
L 307.782592 220.168553 
L 308.832945 235.06089 
L 309.883298 243.990749 
L 310.933651 249.55491 
L 311.984004 250.837773 
L 313.034357 246.346832 
L 314.08471 236.739674 
L 315.135063 236.167242 
L 316.185415 226.769203 
L 317.235768 229.364982 
L 318.286121 203.387961 
L 319.336474 196.658751 
L 320.386827 188.424055 
L 321.43718 206.663801 
L 322.487533 206.069522 
L 323.537886 209.659357 
L 324.588239 208.600655 
L 325.638592 225.206181 
L 326.688945 233.601789 
L 327.739298 241.084532 
L 328.789651 239.115899 
L 329.840004 236.539116 
L 330.890357 241.724612 
L 331.94071 240.189745 
L 332.991063 236.74839 
L 334.041415 228.620524 
L 335.091768 227.958032 
L 336.142121 224.130838 
L 337.192474 212.813983 
L 338.242827 233.750892 
L 339.29318 225.457117 
L 340.343533 214.850353 
L 341.393886 179.576668 
L 342.444239 179.326206 
L 343.494592 198.877806 
L 344.544945 230.048416 
L 345.595298 218.911035 
L 346.645651 230.841344 
L 347.696004 218.786929 
L 348.746357 243.712699 
L 349.79671 244.069427 
L 350.847063 220.923793 
L 351.897415 201.608566 
L 352.947768 190.148872 
L 353.998121 206.694286 
L 355.048474 220.51326 
L 356.098827 212.165852 
L 357.14918 208.761677 
L 359.249886 232.258454 
L 360.300239 229.284271 
L 361.350592 210.676295 
L 362.400945 200.010647 
L 363.451298 205.300287 
L 364.501651 215.848678 
L 365.552004 213.78464 
L 366.602357 208.090792 
L 367.65271 210.129375 
L 368.703063 227.056885 
L 369.753415 241.349589 
L 370.803768 242.671461 
L 372.904474 231.121045 
L 373.954827 232.204561 
L 375.00518 233.657594 
L 376.055533 225.789041 
L 377.105886 183.957116 
L 378.156239 147.686905 
L 379.206592 155.882217 
L 380.256945 166.810498 
L 381.307298 148.962223 
L 382.357651 115.392571 
L 383.408004 152.815384 
L 384.458357 210.746294 
L 385.50871 241.138996 
L 385.50871 241.138996 
" clip-path="url(#pb0dc69b821)" style="fill: none; stroke: #2ca02c; stroke-width: 1.5; stroke-linecap: square"/>
   </g>
   <g id="line2d_22">
    <path d="M 29.439063 221.275211 
L 30.489415 236.505406 
L 31.539768 248.478994 
L 32.590121 250.372301 
L 33.640474 258.240554 
L 34.690827 258.641514 
L 35.74118 253.887849 
L 36.791533 250.742613 
L 37.841886 242.558839 
L 38.892239 227.832517 
L 39.942592 226.152528 
L 40.992945 232.537407 
L 42.043298 227.154092 
L 43.093651 239.663468 
L 44.144004 247.949949 
L 45.194357 246.12502 
L 46.24471 254.219959 
L 47.295063 251.824807 
L 48.345415 220.968504 
L 49.395768 205.919399 
L 50.446121 186.135769 
L 51.496474 136.533121 
L 52.546827 133.903952 
L 53.59718 128.780364 
L 54.647533 108.165345 
L 55.697886 154.661857 
L 56.748239 166.381937 
L 57.798592 156.222628 
L 59.899298 174.127491 
L 60.949651 164.056515 
L 62.000004 151.002816 
L 63.050357 139.788926 
L 64.10071 90.161987 
L 65.151063 73.226844 
L 66.201415 79.930908 
L 67.251768 63.162834 
L 68.302121 67.394559 
L 69.352474 87.608872 
L 70.402827 95.307164 
L 71.45318 130.829051 
L 72.503533 130.923693 
L 74.604239 149.07322 
L 75.654592 145.514995 
L 76.704945 165.230701 
L 77.755298 172.15619 
L 78.805651 183.990017 
L 79.856004 198.107108 
L 80.906357 192.195781 
L 81.95671 190.267628 
L 83.007063 190.194295 
L 84.057415 178.776002 
L 85.107768 185.572177 
L 86.158121 190.372599 
L 87.208474 184.54832 
L 88.258827 186.766963 
L 89.30918 189.473261 
L 90.359533 190.069324 
L 91.409886 192.410021 
L 94.560945 195.044354 
L 95.611298 196.351076 
L 96.661651 194.867136 
L 97.712004 189.335364 
L 98.762357 189.603599 
L 99.81271 190.360547 
L 100.863063 189.394825 
L 101.913415 190.342872 
L 102.963768 188.74688 
L 104.014121 192.084855 
L 105.064474 203.69443 
L 106.114827 208.628052 
L 107.16518 214.390906 
L 108.215533 214.306201 
L 109.265886 212.043229 
L 110.316239 210.791529 
L 111.366592 205.110817 
L 113.467298 181.995215 
L 114.517651 177.300368 
L 115.568004 180.166067 
L 116.618357 188.02426 
L 117.66871 198.022962 
L 119.769415 213.03684 
L 120.819768 228.256977 
L 121.870121 235.194567 
L 122.920474 240.763189 
L 123.970827 244.49752 
L 125.02118 245.259188 
L 127.121886 250.498685 
L 128.172239 249.519384 
L 129.222592 249.59516 
L 130.272945 247.032432 
L 131.323298 241.548346 
L 132.373651 240.987516 
L 134.474357 234.646856 
L 135.52471 235.892398 
L 137.625415 226.256947 
L 138.675768 231.579139 
L 139.726121 236.122417 
L 140.776474 238.507266 
L 141.826827 242.782759 
L 142.87718 238.331566 
L 143.927533 232.634606 
L 144.977886 231.587191 
L 146.028239 239.646891 
L 147.078592 229.193149 
L 148.128945 229.040635 
L 149.179298 225.896331 
L 150.229651 217.632953 
L 151.280004 221.78581 
L 152.330357 212.266073 
L 153.38071 208.065956 
L 154.431062 206.313066 
L 155.481415 213.521109 
L 156.531768 226.061058 
L 157.582121 227.980673 
L 158.632474 222.980288 
L 159.682827 233.074257 
L 160.73318 221.710038 
L 161.783533 228.075685 
L 162.833886 230.662107 
L 163.884239 216.432907 
L 164.934592 221.898783 
L 165.984945 223.537176 
L 167.035298 218.034898 
L 168.085651 235.927619 
L 169.136004 230.806248 
L 170.186357 215.976432 
L 171.23671 216.679967 
L 172.287062 192.041922 
L 173.337415 192.910047 
L 174.387768 202.612348 
L 175.438121 185.877122 
L 176.488474 190.175906 
L 177.538827 204.536808 
L 178.58918 198.448671 
L 179.639533 209.676726 
L 180.689886 211.634562 
L 181.740239 199.686873 
L 182.790592 201.281933 
L 183.840945 206.126362 
L 184.891298 196.71423 
L 185.941651 197.268091 
L 186.992004 196.960725 
L 188.042357 183.923798 
L 189.09271 185.627441 
L 190.143062 185.325715 
L 191.193415 176.313222 
L 192.243768 174.670499 
L 193.294121 188.327129 
L 194.344474 180.177036 
L 196.44518 200.262414 
L 197.495533 183.839538 
L 198.545886 194.796847 
L 199.596239 198.049398 
L 200.646592 188.189868 
L 201.696945 200.271432 
L 202.747298 201.939318 
L 203.797651 207.269481 
L 204.848004 213.289999 
L 205.898357 204.949238 
L 206.94871 203.848238 
L 207.999062 195.139464 
L 209.049415 194.305696 
L 210.099768 193.674278 
L 211.150121 188.888776 
L 212.200474 191.5016 
L 213.250827 187.892686 
L 214.30118 198.041309 
L 215.351533 193.005785 
L 216.401886 187.405469 
L 217.452239 192.869183 
L 218.502592 188.066754 
L 219.552945 194.64471 
L 220.603298 194.587132 
L 221.653651 183.841066 
L 222.704004 186.599767 
L 223.754357 192.921842 
L 224.80471 198.395901 
L 225.855062 211.065593 
L 227.955768 196.858291 
L 229.006121 195.13317 
L 230.056474 187.209652 
L 231.106827 185.572071 
L 232.15718 178.699715 
L 233.207533 175.832866 
L 234.257886 178.493445 
L 235.308239 178.184745 
L 237.408945 185.331186 
L 238.459298 186.329848 
L 239.509651 196.546057 
L 240.560004 202.936162 
L 241.610357 204.510717 
L 242.66071 205.626636 
L 243.711062 203.868227 
L 244.761415 199.222196 
L 245.811768 195.776348 
L 246.862121 199.414406 
L 247.912474 201.670223 
L 248.962827 203.378204 
L 250.01318 210.206468 
L 251.063533 208.524885 
L 252.113886 210.766072 
L 253.164239 225.546373 
L 255.264945 229.083162 
L 256.315298 236.464788 
L 257.365651 237.497733 
L 258.416004 234.806213 
L 259.466357 221.777563 
L 260.51671 187.059161 
L 261.567062 156.996009 
L 262.617415 152.052377 
L 263.667768 173.746238 
L 264.718121 188.21243 
L 265.768474 199.845473 
L 266.818827 216.297816 
L 268.919533 244.014071 
L 269.969886 246.895303 
L 271.020239 234.888058 
L 272.070592 233.419403 
L 273.120945 239.247932 
L 274.171298 243.609469 
L 275.221651 252.205565 
L 276.272004 251.204953 
L 277.322357 244.342162 
L 278.37271 243.23247 
L 279.423063 243.18381 
L 280.473415 240.595936 
L 281.523768 244.706237 
L 282.574121 244.25254 
L 283.624474 241.813187 
L 284.674827 240.314936 
L 285.72518 246.039879 
L 286.775533 248.270489 
L 287.825886 250.000714 
L 288.876239 249.838473 
L 289.926592 243.336882 
L 290.976945 240.659262 
L 292.027298 232.232699 
L 293.077651 228.85032 
L 294.128004 221.92811 
L 295.178357 216.625799 
L 296.22871 224.341012 
L 297.279063 224.305296 
L 298.329415 232.157378 
L 299.379768 231.895875 
L 300.430121 230.002881 
L 301.480474 239.449318 
L 302.530827 231.67145 
L 303.58118 230.453386 
L 304.631533 232.608966 
L 305.681886 217.294661 
L 306.732239 218.652145 
L 307.782592 224.730893 
L 308.832945 226.036156 
L 309.883298 239.412963 
L 310.933651 246.900947 
L 311.984004 248.666268 
L 313.034357 247.606781 
L 314.08471 241.709108 
L 315.135063 238.715508 
L 316.185415 229.449148 
L 317.235768 228.566113 
L 318.286121 215.237231 
L 319.336474 199.101393 
L 320.386827 201.497978 
L 321.43718 196.262164 
L 322.487533 201.188106 
L 323.537886 211.008323 
L 324.588239 210.81501 
L 325.638592 216.028823 
L 326.688945 231.439145 
L 328.789651 238.256773 
L 329.840004 239.534264 
L 330.890357 241.103387 
L 331.94071 237.564451 
L 332.991063 237.772997 
L 334.041415 235.524322 
L 335.091768 226.940241 
L 336.142121 225.659602 
L 337.192474 217.875523 
L 338.242827 230.879977 
L 339.29318 223.746317 
L 340.343533 210.571632 
L 341.393886 210.586262 
L 342.444239 181.23276 
L 343.494592 188.387747 
L 344.544945 222.631901 
L 345.595298 211.503893 
L 346.645651 226.523011 
L 347.696004 235.045011 
L 348.746357 223.94509 
L 349.79671 244.629308 
L 351.897415 211.905399 
L 352.947768 207.461883 
L 353.998121 196.157487 
L 355.048474 211.571442 
L 356.098827 215.092211 
L 357.14918 209.744566 
L 358.199533 221.301717 
L 359.249886 224.484392 
L 360.300239 223.115774 
L 361.350592 222.587786 
L 362.400945 210.4151 
L 363.451298 201.651481 
L 364.501651 211.994848 
L 365.552004 212.759506 
L 366.602357 207.682134 
L 367.65271 215.434441 
L 368.703063 221.513588 
L 369.753415 230.214528 
L 370.803768 240.780985 
L 371.854121 240.247292 
L 372.904474 233.18147 
L 373.954827 233.965038 
L 375.00518 233.381355 
L 376.055533 224.586892 
L 378.156239 176.007142 
L 379.206592 165.648143 
L 380.256945 149.775738 
L 381.307298 149.07257 
L 382.357651 144.313341 
L 383.408004 147.398753 
L 384.458357 187.104218 
L 385.50871 221.286612 
L 385.50871 221.286612 
" clip-path="url(#pb0dc69b821)" style="fill: none; stroke: #d62728; stroke-width: 1.5; stroke-linecap: square"/>
   </g>
   <g id="line2d_23">
    <path d="M 29.439063 222.506149 
L 30.489415 229.225195 
L 31.539768 244.328125 
L 32.590121 247.402355 
L 34.690827 258.019032 
L 35.74118 257.295259 
L 36.791533 249.2435 
L 37.841886 246.974437 
L 38.892239 234.54074 
L 39.942592 231.861658 
L 40.992945 231.553594 
L 42.043298 227.717781 
L 43.093651 232.012654 
L 44.144004 247.643113 
L 46.24471 246.413994 
L 47.295063 251.305355 
L 48.345415 234.325278 
L 49.395768 214.484016 
L 50.446121 201.387908 
L 51.496474 163.586194 
L 52.546827 129.858474 
L 53.59718 141.397281 
L 54.647533 125.3209 
L 55.697886 134.972888 
L 56.748239 154.989431 
L 57.798592 158.76708 
L 58.848945 155.361922 
L 59.899298 182.873277 
L 60.949651 162.532711 
L 62.000004 145.998895 
L 63.050357 142.271252 
L 64.10071 131.739654 
L 65.151063 80.2958 
L 66.201415 74.469261 
L 67.251768 71.612377 
L 68.302121 73.369884 
L 69.352474 78.170446 
L 70.402827 92.205622 
L 71.45318 114.651386 
L 72.503533 126.98029 
L 73.553886 135.707335 
L 74.604239 141.820322 
L 75.654592 152.338799 
L 76.704945 155.572908 
L 77.755298 168.629853 
L 78.805651 177.501124 
L 79.856004 192.046346 
L 80.906357 191.863517 
L 81.95671 188.562489 
L 83.007063 191.603524 
L 84.057415 188.124556 
L 85.107768 181.447777 
L 86.158121 187.0666 
L 87.208474 187.0915 
L 88.258827 185.34807 
L 89.30918 189.913695 
L 90.359533 190.637736 
L 91.409886 188.763136 
L 93.510592 195.654061 
L 94.560945 195.075047 
L 95.611298 193.860278 
L 96.661651 194.307816 
L 97.712004 192.563919 
L 98.762357 191.542008 
L 100.863063 188.685177 
L 101.913415 188.893792 
L 102.963768 191.078975 
L 104.014121 192.074346 
L 105.064474 199.593102 
L 106.114827 204.565698 
L 107.16518 210.577143 
L 108.215533 212.428944 
L 109.265886 214.907852 
L 110.316239 210.23647 
L 111.366592 207.817891 
L 112.416945 196.188428 
L 113.467298 189.862088 
L 114.517651 182.770205 
L 115.568004 183.291563 
L 116.618357 181.712392 
L 117.66871 193.113415 
L 119.769415 211.463604 
L 121.870121 230.909798 
L 123.970827 242.063784 
L 125.02118 245.919887 
L 126.071533 246.583547 
L 127.121886 248.741635 
L 128.172239 249.036102 
L 129.222592 249.952996 
L 130.272945 247.98217 
L 131.323298 243.701758 
L 132.373651 241.373489 
L 133.424004 240.72956 
L 134.474357 235.993508 
L 136.575063 232.924776 
L 137.625415 229.099784 
L 138.675768 230.988135 
L 139.726121 235.724345 
L 140.776474 235.091221 
L 141.826827 238.923995 
L 142.87718 240.309621 
L 143.927533 236.532871 
L 144.977886 231.439783 
L 146.028239 239.832571 
L 147.078592 229.288225 
L 148.128945 229.025515 
L 149.179298 226.018762 
L 150.229651 229.776904 
L 151.280004 213.604985 
L 152.330357 215.680869 
L 153.38071 209.062995 
L 154.431062 214.984372 
L 155.481415 210.206824 
L 156.531768 219.314815 
L 157.582121 222.17396 
L 158.632474 226.369517 
L 159.682827 231.430807 
L 160.73318 225.577264 
L 161.783533 223.851206 
L 162.833886 228.555607 
L 163.884239 226.648719 
L 164.934592 216.031922 
L 165.984945 225.28565 
L 167.035298 220.640156 
L 168.085651 231.061495 
L 169.136004 227.73105 
L 170.186357 220.726004 
L 171.23671 215.037011 
L 172.287062 213.157231 
L 173.337415 191.720756 
L 174.387768 196.460668 
L 175.438121 191.350375 
L 176.488474 191.757527 
L 177.538827 201.836996 
L 178.58918 200.792232 
L 179.639533 197.550137 
L 180.689886 211.894043 
L 181.740239 208.846332 
L 182.790592 198.115669 
L 183.840945 203.773183 
L 184.891298 201.828184 
L 185.941651 197.214919 
L 186.992004 195.912493 
L 189.09271 185.115566 
L 190.143062 188.215948 
L 191.193415 179.230873 
L 192.243768 171.901027 
L 193.294121 188.619752 
L 194.344474 183.951829 
L 195.394827 183.070739 
L 196.44518 191.957715 
L 197.495533 195.323676 
L 198.545886 189.316525 
L 199.596239 197.266248 
L 200.646592 190.602066 
L 201.696945 195.331172 
L 202.747298 203.427593 
L 203.797651 207.153921 
L 204.848004 203.660003 
L 205.898357 208.209749 
L 206.94871 206.225655 
L 207.999062 201.968952 
L 209.049415 193.086981 
L 210.099768 192.080368 
L 211.150121 193.671134 
L 212.200474 192.037551 
L 213.250827 187.230909 
L 214.30118 195.127704 
L 215.351533 193.136595 
L 217.452239 188.360647 
L 218.502592 195.259724 
L 219.552945 190.323195 
L 220.603298 192.16594 
L 221.653651 185.535827 
L 222.704004 190.356327 
L 223.754357 194.157665 
L 224.80471 195.231943 
L 225.855062 199.805793 
L 226.905415 205.75506 
L 227.955768 201.980701 
L 229.006121 196.973377 
L 231.106827 184.857416 
L 232.15718 182.068236 
L 233.207533 180.423619 
L 234.257886 177.468219 
L 235.308239 177.562124 
L 236.358592 178.80059 
L 237.408945 185.690961 
L 238.459298 185.834271 
L 240.560004 198.87215 
L 241.610357 203.82049 
L 242.66071 202.259429 
L 243.711062 205.894119 
L 244.761415 200.979192 
L 245.811768 198.165651 
L 246.862121 198.124359 
L 247.912474 202.74615 
L 248.962827 200.578123 
L 250.01318 207.104849 
L 251.063533 208.241904 
L 252.113886 211.671763 
L 253.164239 220.244674 
L 254.214592 226.078778 
L 255.264945 223.863886 
L 256.315298 233.998962 
L 257.365651 240.383726 
L 258.416004 233.517676 
L 259.466357 219.293385 
L 260.51671 203.251104 
L 261.567062 183.622751 
L 262.617415 167.197618 
L 263.667768 165.252998 
L 264.718121 172.562654 
L 266.818827 213.618043 
L 267.86918 226.041419 
L 268.919533 232.462632 
L 269.969886 241.448056 
L 271.020239 239.391526 
L 272.070592 238.737845 
L 273.120945 239.787062 
L 274.171298 241.114508 
L 275.221651 244.070253 
L 276.272004 251.48424 
L 278.37271 244.248661 
L 279.423063 243.731784 
L 280.473415 242.244278 
L 281.523768 242.65733 
L 282.574121 244.176889 
L 283.624474 242.605043 
L 284.674827 239.931252 
L 285.72518 246.935916 
L 286.775533 247.059347 
L 287.825886 247.328921 
L 288.876239 246.558014 
L 289.926592 249.176368 
L 290.976945 242.836748 
L 292.027298 234.590488 
L 293.077651 229.319501 
L 294.128004 227.373291 
L 295.178357 221.952487 
L 296.22871 220.862935 
L 297.279063 222.835301 
L 298.329415 230.068009 
L 299.379768 230.003639 
L 300.430121 231.284555 
L 301.480474 235.291923 
L 302.530827 235.670859 
L 303.58118 228.611926 
L 304.631533 231.859133 
L 305.681886 225.800643 
L 306.732239 218.691941 
L 307.782592 222.921585 
L 308.832945 228.392567 
L 309.883298 231.680575 
L 310.933651 242.787511 
L 311.984004 246.709389 
L 313.034357 246.472815 
L 314.08471 243.713377 
L 315.135063 242.251513 
L 316.185415 232.996184 
L 317.235768 230.328151 
L 318.286121 217.506195 
L 320.386827 202.444106 
L 321.43718 204.81148 
L 322.487533 193.751729 
L 323.537886 206.275183 
L 324.588239 211.656683 
L 325.638592 216.266542 
L 326.688945 223.305393 
L 327.739298 233.047093 
L 328.789651 233.898707 
L 329.840004 238.766741 
L 330.890357 242.515821 
L 331.94071 237.896497 
L 332.991063 236.121135 
L 334.041415 236.59999 
L 335.091768 232.917594 
L 336.142121 225.295033 
L 337.192474 220.440519 
L 338.242827 231.054901 
L 339.29318 223.345173 
L 340.343533 212.189456 
L 341.393886 207.93829 
L 342.444239 206.054431 
L 343.494592 188.0728 
L 344.544945 211.199039 
L 345.595298 208.701605 
L 347.696004 230.900906 
L 348.746357 235.641406 
L 349.79671 229.113732 
L 350.847063 231.97843 
L 351.897415 219.871379 
L 353.998121 208.516872 
L 355.048474 202.5267 
L 356.098827 208.814891 
L 357.14918 212.61957 
L 358.199533 219.624428 
L 359.249886 224.597112 
L 360.300239 218.369966 
L 361.350592 218.790986 
L 362.400945 220.115873 
L 363.451298 209.632221 
L 364.501651 207.904703 
L 365.552004 210.24341 
L 366.602357 208.073872 
L 367.65271 213.692434 
L 368.703063 223.256838 
L 369.753415 225.292592 
L 371.854121 239.19396 
L 372.904474 236.682498 
L 373.954827 235.015614 
L 375.00518 234.544139 
L 376.055533 226.231095 
L 377.105886 205.578078 
L 378.156239 192.403863 
L 379.206592 183.378 
L 380.256945 159.096445 
L 381.307298 138.098858 
L 382.357651 145.342862 
L 384.458357 177.210476 
L 385.50871 202.061969 
L 385.50871 202.061969 
" clip-path="url(#pb0dc69b821)" style="fill: none; stroke: #9467bd; stroke-width: 1.5; stroke-linecap: square"/>
   </g>
   <g id="line2d_24">
    <path d="M 29.439063 221.989476 
L 30.489415 228.904971 
L 31.539768 237.483987 
L 33.640474 250.133055 
L 35.74118 256.994611 
L 36.791533 253.038847 
L 38.892239 239.915086 
L 39.942592 236.632969 
L 40.992945 235.239876 
L 42.043298 227.68395 
L 43.093651 231.670455 
L 44.144004 240.522 
L 45.194357 246.901912 
L 46.24471 247.094508 
L 47.295063 245.135114 
L 48.345415 236.98727 
L 49.395768 227.417148 
L 50.446121 209.558869 
L 52.546827 154.479575 
L 53.59718 136.912814 
L 54.647533 136.626651 
L 55.697886 143.651398 
L 56.748239 138.702995 
L 57.798592 150.24993 
L 58.848945 157.637623 
L 59.899298 172.805614 
L 60.949651 172.308881 
L 62.000004 147.756838 
L 63.050357 139.424444 
L 64.10071 135.249771 
L 65.151063 118.380389 
L 66.201415 80.14313 
L 67.251768 68.347758 
L 68.302121 78.528388 
L 70.402827 83.731536 
L 71.45318 109.142714 
L 72.503533 114.016671 
L 73.553886 131.704446 
L 74.604239 137.894546 
L 75.654592 145.867244 
L 76.704945 159.375849 
L 77.755298 160.199988 
L 78.805651 173.774933 
L 79.856004 185.603024 
L 80.906357 187.691034 
L 83.007063 189.973888 
L 84.057415 189.661866 
L 85.107768 188.720384 
L 86.158121 183.420157 
L 87.208474 184.839306 
L 88.258827 187.32764 
L 89.30918 188.234936 
L 90.359533 190.808875 
L 91.409886 189.459306 
L 92.460239 189.315904 
L 93.510592 194.488321 
L 94.560945 196.222111 
L 95.611298 194.084129 
L 96.661651 192.551171 
L 97.712004 192.477858 
L 98.762357 193.836383 
L 99.81271 191.623847 
L 100.863063 188.740474 
L 101.913415 188.38451 
L 102.963768 189.755489 
L 104.014121 193.432394 
L 105.064474 198.363082 
L 106.114827 201.032618 
L 107.16518 206.925265 
L 108.215533 209.543013 
L 109.265886 213.252545 
L 110.316239 212.963095 
L 111.366592 207.846519 
L 113.467298 192.369156 
L 114.517651 189.197994 
L 116.618357 184.042107 
L 117.66871 187.198671 
L 120.819768 218.675332 
L 121.870121 224.780796 
L 122.920474 232.725185 
L 125.02118 243.690539 
L 126.071533 246.907814 
L 127.121886 247.474879 
L 128.172239 247.797075 
L 129.222592 249.480254 
L 130.272945 248.556817 
L 131.323298 245.08607 
L 133.424004 241.095177 
L 134.474357 238.815428 
L 136.575063 232.270423 
L 137.625415 231.130882 
L 138.675768 232.49656 
L 139.726121 234.57189 
L 140.776474 234.929153 
L 141.826827 236.028174 
L 142.87718 237.444895 
L 143.927533 238.514573 
L 144.977886 234.934333 
L 146.028239 238.395766 
L 147.078592 231.266365 
L 148.128945 229.132824 
L 149.179298 226.515892 
L 150.229651 229.239417 
L 151.280004 224.817696 
L 152.330357 209.621523 
L 153.38071 212.522123 
L 155.481415 216.641101 
L 156.531768 215.732855 
L 157.582121 217.061613 
L 158.632474 221.758769 
L 159.682827 232.710465 
L 160.73318 225.409058 
L 161.783533 226.675144 
L 162.833886 224.981941 
L 163.884239 225.516094 
L 164.934592 224.706134 
L 165.984945 219.993368 
L 167.035298 222.621729 
L 168.085651 230.960194 
L 169.136004 224.808205 
L 170.186357 219.699069 
L 171.23671 219.194515 
L 172.287062 212.348296 
L 173.337415 209.65087 
L 174.387768 194.907088 
L 175.438121 187.807324 
L 176.488474 195.211158 
L 177.538827 201.189777 
L 178.58918 199.121299 
L 179.639533 199.667689 
L 180.689886 201.664094 
L 181.740239 209.536309 
L 182.790592 206.137929 
L 183.840945 200.771985 
L 184.891298 200.539284 
L 185.941651 201.393693 
L 188.042357 190.557175 
L 189.09271 190.24811 
L 190.143062 187.367939 
L 191.193415 182.763564 
L 192.243768 175.139954 
L 193.294121 184.260041 
L 195.394827 185.693006 
L 196.44518 186.011723 
L 197.495533 189.053189 
L 198.545886 197.746163 
L 199.596239 192.377572 
L 200.646592 191.188962 
L 201.696945 196.093335 
L 202.747298 198.888857 
L 203.797651 207.49831 
L 205.898357 200.805821 
L 206.94871 208.713277 
L 207.999062 204.293783 
L 209.049415 199.221764 
L 210.099768 191.424833 
L 211.150121 192.344692 
L 212.200474 195.438584 
L 213.250827 188.410429 
L 214.30118 193.421343 
L 215.351533 191.466693 
L 216.401886 191.34645 
L 217.452239 191.086209 
L 218.502592 191.173373 
L 219.552945 195.888562 
L 220.603298 188.934661 
L 221.653651 184.957424 
L 223.754357 195.922878 
L 224.80471 195.865522 
L 225.855062 196.964714 
L 226.905415 196.992366 
L 227.955768 203.993471 
L 229.006121 201.233957 
L 230.056474 193.29733 
L 231.106827 188.48751 
L 232.15718 182.050611 
L 233.207533 182.922867 
L 234.257886 180.997684 
L 235.308239 176.85942 
L 236.358592 178.181248 
L 237.408945 182.759312 
L 238.459298 186.049535 
L 239.509651 190.908696 
L 240.560004 194.995539 
L 241.610357 200.316108 
L 242.66071 202.053777 
L 243.711062 203.05515 
L 244.761415 203.188982 
L 245.811768 199.818307 
L 246.862121 199.700281 
L 247.912474 201.146293 
L 248.962827 201.664569 
L 250.01318 204.221356 
L 251.063533 205.956449 
L 252.113886 210.922625 
L 253.164239 219.423925 
L 254.214592 221.610325 
L 255.264945 223.37897 
L 256.315298 229.049003 
L 257.365651 237.766712 
L 258.416004 236.693885 
L 260.51671 204.185953 
L 261.567062 198.109798 
L 264.718121 165.669523 
L 265.768474 180.766015 
L 266.818827 207.173387 
L 267.86918 222.415569 
L 268.919533 228.878611 
L 269.969886 232.116043 
L 271.020239 235.824645 
L 272.070592 241.744141 
L 273.120945 242.955834 
L 274.171298 241.247706 
L 275.221651 241.929208 
L 276.272004 244.83055 
L 277.322357 248.808845 
L 278.37271 247.351661 
L 279.423063 244.492239 
L 280.473415 242.862764 
L 281.523768 243.66558 
L 282.574121 242.552297 
L 283.624474 242.817807 
L 284.674827 240.92033 
L 285.72518 245.569599 
L 286.775533 247.629856 
L 287.825886 246.468575 
L 288.876239 244.839602 
L 289.926592 246.543437 
L 290.976945 247.840138 
L 292.027298 237.555391 
L 293.077651 231.830536 
L 294.128004 228.017048 
L 295.178357 226.505229 
L 296.22871 224.482092 
L 297.279063 220.162131 
L 298.329415 227.964603 
L 299.379768 228.595117 
L 300.430121 229.804007 
L 301.480474 235.451266 
L 302.530827 232.73684 
L 303.58118 232.56268 
L 304.631533 230.112794 
L 305.681886 226.306774 
L 306.732239 225.520005 
L 307.782592 222.253967 
L 308.832945 226.331124 
L 309.883298 232.637563 
L 310.933651 236.043033 
L 311.984004 243.321083 
L 313.034357 245.177288 
L 314.08471 243.392969 
L 315.135063 243.825994 
L 316.185415 237.09032 
L 317.235768 233.124849 
L 318.286121 221.039659 
L 319.336474 212.702705 
L 320.386827 210.684665 
L 321.43718 205.036894 
L 322.487533 201.452401 
L 323.537886 199.483568 
L 325.638592 216.050304 
L 326.688945 222.313926 
L 327.739298 226.144196 
L 328.789651 232.416854 
L 329.840004 235.082206 
L 330.890357 241.405172 
L 331.94071 239.654475 
L 332.991063 236.643814 
L 335.091768 234.275732 
L 336.142121 230.64629 
L 337.192474 221.01198 
L 338.242827 230.898177 
L 339.29318 224.796132 
L 340.343533 213.836756 
L 341.393886 209.756475 
L 342.444239 204.548007 
L 343.494592 207.130202 
L 344.544945 207.450722 
L 345.595298 200.66163 
L 346.645651 216.005997 
L 347.696004 224.572582 
L 348.746357 232.120267 
L 349.79671 237.700452 
L 350.847063 219.860697 
L 351.897415 224.810058 
L 352.947768 220.473006 
L 353.998121 214.0332 
L 355.048474 211.447442 
L 356.098827 201.640442 
L 357.14918 207.732467 
L 358.199533 220.268411 
L 359.249886 222.695635 
L 360.300239 219.51243 
L 361.350592 215.447644 
L 362.400945 217.315148 
L 363.451298 217.950687 
L 364.501651 213.291937 
L 365.552004 207.095546 
L 366.602357 206.703642 
L 367.65271 213.024949 
L 368.703063 220.627892 
L 369.753415 226.083403 
L 370.803768 227.727252 
L 372.904474 236.379788 
L 373.954827 237.591338 
L 375.00518 235.319626 
L 376.055533 228.491175 
L 377.105886 210.557 
L 378.156239 197.635586 
L 379.206592 195.404241 
L 380.256945 175.626667 
L 381.307298 148.325703 
L 382.357651 136.712246 
L 384.458357 183.137439 
L 385.50871 192.225794 
L 385.50871 192.225794 
" clip-path="url(#pb0dc69b821)" style="fill: none; stroke: #8c564b; stroke-width: 1.5; stroke-linecap: square"/>
   </g>
   <g id="line2d_25">
    <path d="M 29.439063 224.216778 
L 30.489415 227.596136 
L 31.539768 236.094002 
L 32.590121 238.285498 
L 33.640474 247.009287 
L 34.690827 251.173405 
L 35.74118 253.38057 
L 36.791533 253.391419 
L 37.841886 250.111493 
L 38.892239 240.35466 
L 39.942592 240.873149 
L 40.992945 238.743918 
L 42.043298 231.524757 
L 43.093651 231.087585 
L 44.144004 239.084283 
L 45.194357 240.893702 
L 46.24471 246.996197 
L 47.295063 245.910647 
L 48.345415 233.085415 
L 49.395768 230.86679 
L 50.446121 221.875268 
L 51.496474 192.984554 
L 52.546827 172.579527 
L 53.59718 156.56697 
L 54.647533 133.393898 
L 55.697886 150.105108 
L 56.748239 145.513232 
L 57.798592 136.739153 
L 58.848945 150.483069 
L 59.899298 172.207681 
L 60.949651 164.739432 
L 62.000004 159.007124 
L 63.050357 141.932814 
L 64.10071 133.752243 
L 66.201415 113.209754 
L 67.251768 74.203567 
L 68.302121 74.821343 
L 69.352474 84.425418 
L 70.402827 85.512302 
L 71.45318 100.005778 
L 72.503533 109.382331 
L 73.553886 120.19955 
L 74.604239 134.191304 
L 75.654592 141.997781 
L 76.704945 153.047456 
L 77.755298 162.735832 
L 78.805651 166.052801 
L 79.856004 181.433711 
L 80.906357 182.665304 
L 81.95671 185.684395 
L 83.007063 190.052933 
L 84.057415 188.528151 
L 85.107768 189.949308 
L 86.158121 189.323584 
L 87.208474 181.997329 
L 88.258827 185.368481 
L 89.30918 189.494891 
L 90.359533 189.251731 
L 91.409886 189.776067 
L 92.460239 189.831957 
L 93.510592 191.63289 
L 94.560945 195.146246 
L 95.611298 195.216294 
L 96.661651 192.932486 
L 97.712004 191.218756 
L 98.762357 193.58218 
L 99.81271 193.580143 
L 100.863063 190.258975 
L 101.913415 188.474989 
L 102.963768 189.198645 
L 104.014121 191.981943 
L 105.064474 198.601115 
L 106.114827 199.784621 
L 107.16518 203.618883 
L 108.215533 206.544268 
L 109.265886 210.681256 
L 110.316239 211.804545 
L 111.366592 210.573035 
L 112.416945 201.272819 
L 114.517651 191.453746 
L 115.568004 191.567199 
L 116.618357 186.873421 
L 117.66871 188.362043 
L 118.719063 191.892493 
L 120.819768 214.499122 
L 121.870121 222.158824 
L 122.920474 227.322903 
L 123.970827 234.922937 
L 125.02118 240.308315 
L 126.071533 244.880253 
L 127.121886 247.623529 
L 128.172239 246.836933 
L 129.222592 248.36133 
L 130.272945 248.346486 
L 131.323298 246.014508 
L 132.373651 244.469403 
L 133.424004 242.710852 
L 134.474357 239.410904 
L 135.52471 238.158751 
L 136.575063 233.598803 
L 137.625415 230.819473 
L 138.675768 233.710105 
L 139.726121 235.321048 
L 140.776474 234.048867 
L 141.826827 235.757231 
L 142.87718 235.145673 
L 143.927533 236.280027 
L 144.977886 236.891486 
L 146.028239 240.248563 
L 147.078592 231.206691 
L 148.128945 230.855381 
L 149.179298 226.97232 
L 150.229651 229.200263 
L 151.280004 225.060755 
L 152.330357 220.171876 
L 153.38071 207.679122 
L 154.431062 216.719103 
L 155.481415 216.123738 
L 156.531768 220.271379 
L 157.582121 214.26839 
L 158.632474 217.436337 
L 159.682827 228.104504 
L 160.73318 227.449084 
L 161.783533 226.376218 
L 162.833886 227.223636 
L 163.884239 222.819885 
L 164.934592 223.999794 
L 165.984945 226.684388 
L 167.035298 218.385403 
L 168.085651 231.107781 
L 169.136004 225.63427 
L 170.186357 218.212387 
L 171.23671 218.52415 
L 172.287062 216.383034 
L 173.337415 209.44702 
L 174.387768 209.664523 
L 175.438121 187.671964 
L 176.488474 191.709338 
L 177.538827 202.671045 
L 178.58918 198.947973 
L 179.639533 198.387136 
L 180.689886 202.852002 
L 181.740239 201.008475 
L 182.790592 207.131896 
L 183.840945 207.18111 
L 184.891298 198.380668 
L 185.941651 200.348606 
L 186.992004 199.87207 
L 188.042357 191.497092 
L 189.09271 190.446999 
L 190.143062 191.399083 
L 191.193415 182.804438 
L 192.243768 178.836405 
L 193.294121 185.145917 
L 194.344474 181.658839 
L 195.394827 186.284838 
L 196.44518 187.806378 
L 197.495533 184.297498 
L 198.545886 192.130815 
L 199.596239 199.063592 
L 200.646592 187.727666 
L 201.696945 195.808404 
L 202.747298 199.024939 
L 203.797651 203.154815 
L 204.848004 204.902638 
L 205.898357 201.663825 
L 206.94871 202.345891 
L 207.999062 206.736348 
L 211.150121 191.746216 
L 212.200474 194.064329 
L 213.250827 191.922213 
L 214.30118 193.527147 
L 215.351533 190.499864 
L 216.401886 190.157175 
L 217.452239 191.456708 
L 218.502592 193.073793 
L 219.552945 192.318328 
L 220.603298 193.959995 
L 221.653651 183.119016 
L 223.754357 195.385749 
L 224.80471 197.120655 
L 225.855062 197.255697 
L 226.905415 194.920628 
L 227.955768 196.680503 
L 229.006121 203.076989 
L 230.056474 197.57802 
L 231.106827 190.830877 
L 232.15718 185.624953 
L 233.207533 182.786056 
L 234.257886 183.053444 
L 235.308239 179.987536 
L 236.358592 177.492985 
L 237.408945 181.681811 
L 238.459298 183.494688 
L 239.509651 190.37394 
L 241.610357 196.827227 
L 242.66071 199.273135 
L 243.711062 202.7665 
L 244.761415 201.103242 
L 245.811768 201.896283 
L 246.862121 200.885534 
L 247.912474 202.043694 
L 248.962827 200.439377 
L 250.01318 204.616121 
L 251.063533 203.633554 
L 252.113886 208.62509 
L 253.164239 217.74467 
L 254.214592 220.720925 
L 255.264945 219.863341 
L 256.315298 227.927071 
L 257.365651 233.158476 
L 258.416004 234.910488 
L 259.466357 225.785975 
L 260.51671 207.941713 
L 261.567062 199.687402 
L 262.617415 198.707123 
L 263.667768 190.269042 
L 264.718121 174.012436 
L 265.768474 174.001014 
L 267.86918 216.068495 
L 268.919533 225.453198 
L 269.969886 229.092188 
L 271.020239 228.265121 
L 272.070592 238.433858 
L 273.120945 244.842663 
L 274.171298 243.724589 
L 275.221651 241.926549 
L 276.272004 242.904976 
L 277.322357 243.356351 
L 278.37271 248.122206 
L 279.423063 247.117699 
L 280.473415 243.645552 
L 281.523768 243.986768 
L 282.574121 243.433191 
L 283.624474 241.603178 
L 284.674827 241.348576 
L 285.72518 245.588154 
L 287.825886 247.045601 
L 288.876239 244.443331 
L 290.976945 245.747859 
L 292.027298 242.868152 
L 293.077651 234.842259 
L 294.128004 230.38515 
L 295.178357 227.185875 
L 296.22871 227.958074 
L 297.279063 223.389952 
L 298.329415 225.05755 
L 299.379768 226.98329 
L 300.430121 228.624362 
L 301.480474 233.647225 
L 302.530827 233.246031 
L 303.58118 230.430796 
L 304.631533 233.251507 
L 305.681886 225.549898 
L 306.732239 225.995159 
L 307.782592 227.465659 
L 308.832945 225.295127 
L 309.883298 230.343622 
L 310.933651 236.22079 
L 311.984004 237.527549 
L 313.034357 242.454916 
L 314.08471 242.69455 
L 315.135063 243.535674 
L 316.185415 239.268226 
L 317.235768 236.622724 
L 318.286121 225.01847 
L 319.336474 216.551369 
L 320.386827 213.028343 
L 321.43718 211.640465 
L 322.487533 202.135661 
L 323.537886 205.063105 
L 324.588239 201.700388 
L 325.638592 212.108094 
L 326.688945 221.294101 
L 327.739298 224.91422 
L 328.789651 226.586756 
L 329.840004 233.659203 
L 330.890357 237.965307 
L 331.94071 239.090415 
L 332.991063 238.351026 
L 335.091768 233.567325 
L 336.142121 232.163538 
L 337.192474 226.405136 
L 338.242827 229.918076 
L 339.29318 225.572872 
L 340.343533 216.58916 
L 342.444239 206.636402 
L 343.494592 205.696889 
L 344.544945 219.365454 
L 345.595298 198.769517 
L 346.645651 208.497259 
L 347.696004 221.001101 
L 348.746357 226.606567 
L 349.79671 234.457609 
L 350.847063 229.239561 
L 351.897415 214.906728 
L 352.947768 224.614148 
L 353.998121 219.388388 
L 355.048474 215.676684 
L 356.098827 209.501049 
L 357.14918 201.716173 
L 358.199533 215.272482 
L 359.249886 222.800972 
L 360.300239 218.557175 
L 361.350592 216.872474 
L 362.400945 214.634301 
L 363.451298 215.824891 
L 364.501651 219.75121 
L 366.602357 204.452877 
L 367.65271 211.199039 
L 368.703063 219.122065 
L 370.803768 228.047303 
L 371.854121 228.430693 
L 372.904474 230.604082 
L 373.954827 237.204907 
L 375.00518 237.482213 
L 376.055533 230.081928 
L 377.105886 215.134229 
L 378.156239 203.320906 
L 379.206592 199.390569 
L 380.256945 187.609692 
L 381.307298 164.960216 
L 382.357651 145.766864 
L 383.408004 151.084892 
L 384.458357 178.742688 
L 385.50871 194.83006 
L 385.50871 194.83006 
" clip-path="url(#pb0dc69b821)" style="fill: none; stroke: #e377c2; stroke-width: 1.5; stroke-linecap: square"/>
   </g>
   <g id="patch_3">
    <path d="M 29.439063 284.991437 
L 29.439063 18.879437 
" style="fill: none; stroke: #000000; stroke-width: 0.8; stroke-linejoin: miter; stroke-linecap: square"/>
   </g>
   <g id="patch_4">
    <path d="M 386.559062 284.991437 
L 386.559062 18.879437 
" style="fill: none; stroke: #000000; stroke-width: 0.8; stroke-linejoin: miter; stroke-linecap: square"/>
   </g>
   <g id="patch_5">
    <path d="M 29.439063 284.991437 
L 386.559063 284.991437 
" style="fill: none; stroke: #000000; stroke-width: 0.8; stroke-linejoin: miter; stroke-linecap: square"/>
   </g>
   <g id="patch_6">
    <path d="M 29.439063 18.879437 
L 386.559063 18.879437 
" style="fill: none; stroke: #000000; stroke-width: 0.8; stroke-linejoin: miter; stroke-linecap: square"/>
   </g>
   <g id="legend_1">
    <g id="patch_7">
     <path d="M 188.849844 127.613812 
L 227.148281 127.613812 
Q 229.148281 127.613812 229.148281 125.613812 
L 229.148281 25.879437 
Q 229.148281 23.879437 227.148281 23.879437 
L 188.849844 23.879437 
Q 186.849844 23.879437 186.849844 25.879437 
L 186.849844 125.613812 
Q 186.849844 127.613812 188.849844 127.613812 
z
" style="fill: #ffffff; opacity: 0.8; stroke: #cccccc; stroke-linejoin: miter"/>
    </g>
    <g id="line2d_26">
     <path d="M 190.849844 31.870062 
L 200.849844 31.870062 
L 210.849844 31.870062 
" style="fill: none; stroke: #1f77b4; stroke-width: 1.5; stroke-linecap: square"/>
    </g>
    <g id="text_18">
     <!-- 1 -->
     <g transform="translate(218.849844 35.370062) scale(0.1 -0.1)">
      <use xlink:href="#IPAexGothic-31"/>
     </g>
    </g>
    <g id="line2d_27">
     <path d="M 190.849844 46.260687 
L 200.849844 46.260687 
L 210.849844 46.260687 
" style="fill: none; stroke: #ff7f0e; stroke-width: 1.5; stroke-linecap: square"/>
    </g>
    <g id="text_19">
     <!-- 2 -->
     <g transform="translate(218.849844 49.760687) scale(0.1 -0.1)">
      <use xlink:href="#IPAexGothic-32"/>
     </g>
    </g>
    <g id="line2d_28">
     <path d="M 190.849844 60.651312 
L 200.849844 60.651312 
L 210.849844 60.651312 
" style="fill: none; stroke: #2ca02c; stroke-width: 1.5; stroke-linecap: square"/>
    </g>
    <g id="text_20">
     <!-- 3 -->
     <g transform="translate(218.849844 64.151312) scale(0.1 -0.1)">
      <use xlink:href="#IPAexGothic-33"/>
     </g>
    </g>
    <g id="line2d_29">
     <path d="M 190.849844 75.041937 
L 200.849844 75.041937 
L 210.849844 75.041937 
" style="fill: none; stroke: #d62728; stroke-width: 1.5; stroke-linecap: square"/>
    </g>
    <g id="text_21">
     <!-- 4 -->
     <g transform="translate(218.849844 78.541937) scale(0.1 -0.1)">
      <defs>
       <path id="IPAexGothic-34" d="M 3813 1159 
L 3059 1159 
L 3059 63 
L 2547 63 
L 2547 1159 
L 197 1159 
L 197 1672 
L 2456 4678 
L 3059 4678 
L 3059 1634 
L 3813 1634 
L 3813 1159 
z
M 2578 4109 
L 2559 4109 
Q 2278 3656 2003 3284 
L 759 1634 
L 2547 1634 
L 2547 3144 
Q 2547 3481 2578 4109 
z
" transform="scale(0.015625)"/>
      </defs>
      <use xlink:href="#IPAexGothic-34"/>
     </g>
    </g>
    <g id="line2d_30">
     <path d="M 190.849844 89.432562 
L 200.849844 89.432562 
L 210.849844 89.432562 
" style="fill: none; stroke: #9467bd; stroke-width: 1.5; stroke-linecap: square"/>
    </g>
    <g id="text_22">
     <!-- 5 -->
     <g transform="translate(218.849844 92.932562) scale(0.1 -0.1)">
      <use xlink:href="#IPAexGothic-35"/>
     </g>
    </g>
    <g id="line2d_31">
     <path d="M 190.849844 103.823187 
L 200.849844 103.823187 
L 210.849844 103.823187 
" style="fill: none; stroke: #8c564b; stroke-width: 1.5; stroke-linecap: square"/>
    </g>
    <g id="text_23">
     <!-- 6 -->
     <g transform="translate(218.849844 107.323187) scale(0.1 -0.1)">
      <defs>
       <path id="IPAexGothic-36" d="M 1056 2328 
Q 1509 2981 2234 2981 
Q 2906 2981 3316 2513 
Q 3675 2106 3675 1522 
Q 3675 884 3272 434 
Q 2853 -31 2178 -31 
Q 1375 -31 922 581 
Q 481 1178 481 2228 
Q 481 3425 1013 4109 
Q 1494 4725 2272 4725 
Q 3191 4725 3609 4025 
L 3150 3775 
Q 2894 4266 2300 4266 
Q 1119 4266 1031 2328 
L 1056 2328 
z
M 2141 2547 
Q 1684 2547 1384 2206 
Q 1116 1900 1116 1541 
Q 1116 1156 1353 844 
Q 1672 428 2159 428 
Q 2669 428 2941 844 
Q 3125 1128 3125 1503 
Q 3125 1944 2881 2228 
Q 2600 2547 2141 2547 
z
" transform="scale(0.015625)"/>
      </defs>
      <use xlink:href="#IPAexGothic-36"/>
     </g>
    </g>
    <g id="line2d_32">
     <path d="M 190.849844 118.213812 
L 200.849844 118.213812 
L 210.849844 118.213812 
" style="fill: none; stroke: #e377c2; stroke-width: 1.5; stroke-linecap: square"/>
    </g>
    <g id="text_24">
     <!-- 7 -->
     <g transform="translate(218.849844 121.713812) scale(0.1 -0.1)">
      <defs>
       <path id="IPAexGothic-37" d="M 3597 4263 
Q 2238 2106 1778 63 
L 1131 63 
Q 1581 1834 2950 4128 
L 428 4128 
L 428 4634 
L 3597 4634 
L 3597 4263 
z
" transform="scale(0.015625)"/>
      </defs>
      <use xlink:href="#IPAexGothic-37"/>
     </g>
    </g>
   </g>
  </g>
  <g id="axes_2">
   <g id="matplotlib.axis_3"/>
   <g id="patch_8">
    <path d="M 29.439063 284.991437 
L 29.439063 18.879437 
" style="fill: none; stroke: #000000; stroke-width: 0.8; stroke-linejoin: miter; stroke-linecap: square"/>
   </g>
   <g id="patch_9">
    <path d="M 386.559062 284.991437 
L 386.559062 18.879437 
" style="fill: none; stroke: #000000; stroke-width: 0.8; stroke-linejoin: miter; stroke-linecap: square"/>
   </g>
   <g id="patch_10">
    <path d="M 29.439063 284.991437 
L 386.559063 284.991437 
" style="fill: none; stroke: #000000; stroke-width: 0.8; stroke-linejoin: miter; stroke-linecap: square"/>
   </g>
   <g id="patch_11">
    <path d="M 29.439063 18.879437 
L 386.559063 18.879437 
" style="fill: none; stroke: #000000; stroke-width: 0.8; stroke-linejoin: miter; stroke-linecap: square"/>
   </g>
  </g>
  <g id="text_25">
   <!-- : 2023/05/06 16:13:19(JST) -->
   <g transform="translate(211.087188 15.423437) scale(0.1 -0.1)">
    <defs>
     <path id="IPAexGothic-66f4" d="M 2956 3994 
L 2956 4588 
L 513 4588 
L 513 4984 
L 5881 4984 
L 5881 4588 
L 3413 4588 
L 3413 3994 
L 5300 3994 
L 5300 1288 
L 4838 1288 
L 4838 1759 
L 3406 1759 
Q 3384 1125 3150 709 
Q 4291 244 5997 31 
L 5694 -428 
Q 4109 -166 2906 384 
Q 2294 -266 744 -488 
L 494 -66 
Q 1903 59 2491 588 
Q 2041 813 1594 1166 
L 1928 1434 
Q 2331 1106 2747 897 
Q 2922 1219 2950 1759 
L 1556 1759 
L 1556 1413 
L 1097 1413 
L 1097 3994 
L 2956 3994 
z
M 2956 3609 
L 1556 3609 
L 1556 3078 
L 2956 3078 
L 2956 3609 
z
M 3413 3609 
L 3413 3078 
L 4838 3078 
L 4838 3609 
L 3413 3609 
z
M 2956 2700 
L 1556 2700 
L 1556 2144 
L 2956 2144 
L 2956 2700 
z
M 3413 2700 
L 3413 2144 
L 4838 2144 
L 4838 2700 
L 3413 2700 
z
" transform="scale(0.015625)"/>
     <path id="IPAexGothic-65b0" d="M 3891 2803 
Q 3881 1759 3794 1166 
Q 3653 197 3097 -563 
L 2741 -250 
Q 3450 700 3450 2631 
L 3450 4647 
Q 3516 4656 3622 4666 
Q 4656 4778 5447 5063 
L 5825 4678 
Q 4897 4419 3891 4294 
L 3891 3219 
L 6119 3219 
L 6119 2803 
L 5275 2803 
L 5275 -447 
L 4834 -447 
L 4834 2803 
L 3891 2803 
z
M 2822 4069 
Q 2678 3572 2519 3181 
L 3250 3181 
L 3250 2784 
L 2059 2784 
L 2059 2216 
L 3184 2216 
L 3184 1831 
L 2059 1831 
L 2059 1544 
Q 2613 1197 3031 847 
L 2781 456 
Q 2472 791 2059 1128 
L 2059 -447 
L 1644 -447 
L 1644 1294 
Q 1272 628 575 -31 
L 269 341 
Q 1041 938 1528 1831 
L 453 1831 
L 453 2216 
L 1644 2216 
L 1644 2784 
L 319 2784 
L 319 3181 
L 1125 3181 
Q 1013 3706 881 4069 
L 453 4069 
L 453 4453 
L 1631 4453 
L 1631 5309 
L 2072 5309 
L 2072 4453 
L 3166 4453 
L 3166 4069 
L 2822 4069 
z
M 2391 4069 
L 1325 4069 
Q 1450 3672 1534 3181 
L 2109 3181 
Q 2294 3659 2391 4069 
z
" transform="scale(0.015625)"/>
     <path id="IPAexGothic-65e5" d="M 5231 4800 
L 5231 -288 
L 4744 -288 
L 4744 128 
L 1647 128 
L 1647 -288 
L 1159 -288 
L 1159 4800 
L 5231 4800 
z
M 1647 4372 
L 1647 2731 
L 4744 2731 
L 4744 4372 
L 1647 4372 
z
M 1647 2297 
L 1647 556 
L 4744 556 
L 4744 2297 
L 1647 2297 
z
" transform="scale(0.015625)"/>
     <path id="IPAexGothic-6642" d="M 2328 4728 
L 2328 563 
L 934 563 
L 934 56 
L 519 56 
L 519 4728 
L 2328 4728 
z
M 934 4331 
L 934 2881 
L 1906 2881 
L 1906 4331 
L 934 4331 
z
M 934 2497 
L 934 953 
L 1906 953 
L 1906 2497 
L 934 2497 
z
M 3938 4372 
L 3938 5313 
L 4378 5313 
L 4378 4372 
L 5772 4372 
L 5772 3981 
L 4378 3981 
L 4378 3194 
L 6072 3194 
L 6072 2803 
L 5203 2803 
L 5203 2047 
L 5959 2047 
L 5959 1650 
L 5216 1650 
L 5216 31 
Q 5216 -447 4691 -447 
Q 4394 -447 3888 -391 
L 3784 78 
Q 4272 0 4591 0 
Q 4775 0 4775 172 
L 4775 1650 
L 2581 1650 
L 2581 2047 
L 4763 2047 
L 4763 2803 
L 2538 2803 
L 2538 3194 
L 3938 3194 
L 3938 3981 
L 2716 3981 
L 2716 4372 
L 3938 4372 
z
M 3669 384 
Q 3331 950 2956 1325 
L 3291 1575 
Q 3719 1147 4025 659 
L 3669 384 
z
" transform="scale(0.015625)"/>
     <path id="IPAexGothic-3a" d="M 1369 2559 
L 672 2559 
L 672 3250 
L 1369 3250 
L 1369 2559 
z
M 1369 63 
L 672 63 
L 672 753 
L 1369 753 
L 1369 63 
z
" transform="scale(0.015625)"/>
     <path id="IPAexGothic-20" transform="scale(0.015625)"/>
     <path id="IPAexGothic-2f" d="M 2719 4709 
L 600 -884 
L 300 -763 
L 2413 4831 
L 2719 4709 
z
" transform="scale(0.015625)"/>
     <path id="IPAexGothic-39" d="M 2984 2356 
Q 2544 1716 1813 1716 
Q 1253 1716 847 2056 
Q 366 2459 366 3163 
Q 366 3813 769 4266 
Q 1181 4725 1869 4725 
Q 2800 4725 3241 3950 
Q 3559 3378 3559 2472 
Q 3559 1250 3041 588 
Q 2553 -31 1769 -31 
Q 859 -31 391 703 
L 853 953 
Q 1156 428 1753 428 
Q 2922 428 3009 2356 
L 2984 2356 
z
M 1888 4278 
Q 1450 4278 1172 3950 
Q 922 3653 922 3200 
Q 922 2741 1159 2478 
Q 1434 2163 1906 2163 
Q 2431 2163 2728 2572 
Q 2925 2847 2925 3169 
Q 2925 3553 2694 3863 
Q 2375 4278 1888 4278 
z
" transform="scale(0.015625)"/>
     <path id="IPAexGothic-28" d="M 1928 -1016 
L 1653 -1166 
Q 488 69 488 1875 
Q 488 3678 1653 4909 
L 1928 4763 
Q 1006 3522 1006 1881 
Q 1006 203 1928 -1016 
z
" transform="scale(0.015625)"/>
     <path id="IPAexGothic-54" d="M 3866 4141 
L 2175 4141 
L 2175 63 
L 1606 63 
L 1606 4141 
L -31 4141 
L -31 4634 
L 3866 4634 
L 3866 4141 
z
" transform="scale(0.015625)"/>
     <path id="IPAexGothic-29" d="M 466 4909 
Q 1638 3672 1638 1875 
Q 1638 75 466 -1166 
L 191 -1016 
Q 1119 216 1119 1881 
Q 1119 3509 191 4763 
L 466 4909 
z
" transform="scale(0.015625)"/>
    </defs>
    <use xlink:href="#IPAexGothic-66f4"/>
    <use xlink:href="#IPAexGothic-65b0" x="100"/>
    <use xlink:href="#IPAexGothic-65e5" x="200"/>
    <use xlink:href="#IPAexGothic-6642" x="300"/>
    <use xlink:href="#IPAexGothic-3a" x="400"/>
    <use xlink:href="#IPAexGothic-20" x="431.982422"/>
    <use xlink:href="#IPAexGothic-32" x="458.984375"/>
    <use xlink:href="#IPAexGothic-30" x="521.972656"/>
    <use xlink:href="#IPAexGothic-32" x="584.960938"/>
    <use xlink:href="#IPAexGothic-33" x="647.949219"/>
    <use xlink:href="#IPAexGothic-2f" x="710.9375"/>
    <use xlink:href="#IPAexGothic-30" x="760.9375"/>
    <use xlink:href="#IPAexGothic-35" x="823.925781"/>
    <use xlink:href="#IPAexGothic-2f" x="886.914062"/>
    <use xlink:href="#IPAexGothic-30" x="936.914062"/>
    <use xlink:href="#IPAexGothic-36" x="999.902344"/>
    <use xlink:href="#IPAexGothic-20" x="1062.890625"/>
    <use xlink:href="#IPAexGothic-31" x="1089.892578"/>
    <use xlink:href="#IPAexGothic-36" x="1152.880859"/>
    <use xlink:href="#IPAexGothic-3a" x="1215.869141"/>
    <use xlink:href="#IPAexGothic-31" x="1247.851562"/>
    <use xlink:href="#IPAexGothic-33" x="1310.839844"/>
    <use xlink:href="#IPAexGothic-3a" x="1373.828125"/>
    <use xlink:href="#IPAexGothic-31" x="1405.810547"/>
    <use xlink:href="#IPAexGothic-39" x="1468.798828"/>
    <use xlink:href="#IPAexGothic-28" x="1531.787109"/>
    <use xlink:href="#IPAexGothic-4a" x="1565.087891"/>
    <use xlink:href="#IPAexGothic-53" x="1603.076172"/>
    <use xlink:href="#IPAexGothic-54" x="1661.572266"/>
    <use xlink:href="#IPAexGothic-29" x="1721.484375"/>
   </g>
  </g>
 </g>
 <defs>
  <clipPath id="pb0dc69b821">
   <rect x="29.439063" y="18.879437" width="357.12" height="266.112"/>
  </clipPath>
 </defs>
</svg>
