<?xml version="1.0" encoding="utf-8" standalone="no"?>
<!DOCTYPE svg PUBLIC "-//W3C//DTD SVG 1.1//EN"
  "http://www.w3.org/Graphics/SVG/1.1/DTD/svg11.dtd">
<svg xmlns:xlink="http://www.w3.org/1999/xlink" width="393.759062pt" height="308.582062pt" viewBox="0 0 393.759062 308.582062" xmlns="http://www.w3.org/2000/svg" version="1.1">
 <metadata>
  <rdf:RDF xmlns:dc="http://purl.org/dc/elements/1.1/" xmlns:cc="http://creativecommons.org/ns#" xmlns:rdf="http://www.w3.org/1999/02/22-rdf-syntax-ns#">
   <cc:Work>
    <dc:type rdf:resource="http://purl.org/dc/dcmitype/StillImage"/>
    <dc:date>2023-03-16T07:14:59.332416</dc:date>
    <dc:format>image/svg+xml</dc:format>
    <dc:creator>
     <cc:Agent>
      <dc:title>Matplotlib v3.7.1, https://matplotlib.org/</dc:title>
     </cc:Agent>
    </dc:creator>
   </cc:Work>
  </rdf:RDF>
 </metadata>
 <defs>
  <style type="text/css">*{stroke-linejoin: round; stroke-linecap: butt}</style>
 </defs>
 <g id="figure_1">
  <g id="patch_1">
   <path d="M 0 308.582062 
L 393.759062 308.582062 
L 393.759062 0 
L 0 0 
z
" style="fill: #ffffff"/>
  </g>
  <g id="axes_1">
   <g id="patch_2">
    <path d="M 29.439063 284.991437 
L 386.559062 284.991437 
L 386.559062 18.879437 
L 29.439063 18.879437 
z
" style="fill: #ffffff"/>
   </g>
   <g id="line2d_1">
    <path d="M 29.439063 211.199039 
L 386.559062 211.199039 
" clip-path="url(#p24130eec37)" style="fill: none; stroke: #000000; stroke-linecap: square"/>
   </g>
   <g id="matplotlib.axis_1">
    <g id="xtick_1">
     <g id="line2d_2">
      <defs>
       <path id="m11b4a51187" d="M 0 0 
L 0 3.5 
" style="stroke: #000000; stroke-width: 0.8"/>
      </defs>
      <g>
       <use xlink:href="#m11b4a51187" x="29.439063" y="284.991437" style="stroke: #000000; stroke-width: 0.8"/>
      </g>
     </g>
     <g id="text_1">
      <!-- Jun -->
      <g transform="translate(21.499219 299.482062) scale(0.1 -0.1)">
       <defs>
        <path id="IPAexGothic-4a" d="M 1819 4634 
L 1819 1234 
Q 1819 -31 763 -31 
Q 303 -31 -125 209 
L 84 644 
Q 378 447 694 447 
Q 1250 447 1250 1203 
L 1250 4634 
L 1819 4634 
z
" transform="scale(0.015625)"/>
        <path id="IPAexGothic-75" d="M 3284 63 
L 2772 63 
L 2772 644 
Q 2300 0 1625 0 
Q 1072 0 763 375 
Q 519 678 519 1241 
L 519 3250 
L 1069 3250 
L 1069 1259 
Q 1069 466 1734 466 
Q 2406 466 2734 1291 
L 2734 3250 
L 3284 3250 
L 3284 63 
z
" transform="scale(0.015625)"/>
        <path id="IPAexGothic-6e" d="M 3328 63 
L 2778 63 
L 2778 2041 
Q 2778 2853 2106 2853 
Q 1428 2853 1113 2041 
L 1113 63 
L 563 63 
L 563 3250 
L 1075 3250 
L 1075 2675 
Q 1525 3316 2222 3316 
Q 3328 3316 3328 2072 
L 3328 63 
z
" transform="scale(0.015625)"/>
       </defs>
       <use xlink:href="#IPAexGothic-4a"/>
       <use xlink:href="#IPAexGothic-75" x="37.988281"/>
       <use xlink:href="#IPAexGothic-6e" x="98.388672"/>
      </g>
     </g>
    </g>
    <g id="xtick_2">
     <g id="line2d_3">
      <g>
       <use xlink:href="#m11b4a51187" x="66.510343" y="284.991437" style="stroke: #000000; stroke-width: 0.8"/>
      </g>
     </g>
     <g id="text_2">
      <!-- Jul -->
      <g transform="translate(60.240812 299.482062) scale(0.1 -0.1)">
       <defs>
        <path id="IPAexGothic-6c" d="M 1131 63 
L 581 63 
L 581 4794 
L 1131 4794 
L 1131 63 
z
" transform="scale(0.015625)"/>
       </defs>
       <use xlink:href="#IPAexGothic-4a"/>
       <use xlink:href="#IPAexGothic-75" x="37.988281"/>
       <use xlink:href="#IPAexGothic-6c" x="98.388672"/>
      </g>
     </g>
    </g>
    <g id="xtick_3">
     <g id="line2d_4">
      <g>
       <use xlink:href="#m11b4a51187" x="104.817332" y="284.991437" style="stroke: #000000; stroke-width: 0.8"/>
      </g>
     </g>
     <g id="text_3">
      <!-- Aug -->
      <g transform="translate(95.835301 299.42425) scale(0.1 -0.1)">
       <defs>
        <path id="IPAexGothic-41" d="M 4056 63 
L 3444 63 
L 2938 1409 
L 1100 1409 
L 603 63 
L -6 63 
L 1806 4666 
L 2259 4666 
L 4056 63 
z
M 2778 1863 
L 2316 3078 
Q 2125 3588 2028 4000 
L 2009 4000 
Q 1897 3563 1716 3078 
L 1263 1863 
L 2778 1863 
z
" transform="scale(0.015625)"/>
        <path id="IPAexGothic-67" d="M 1331 1150 
Q 1006 1122 1006 900 
Q 1006 613 1763 575 
L 2131 556 
Q 3303 497 3303 -294 
Q 3303 -700 2925 -959 
Q 2519 -1253 1794 -1253 
Q 1138 -1253 738 -1028 
Q 353 -809 353 -428 
Q 353 84 1075 247 
L 1075 269 
Q 506 413 506 778 
Q 506 1116 994 1297 
Q 456 1575 456 2181 
Q 456 2650 769 2963 
Q 1128 3322 1738 3322 
Q 2125 3322 2422 3153 
Q 2650 3453 3259 3463 
L 3259 3013 
Q 2838 3003 2703 2938 
Q 3034 2613 3034 2169 
Q 3034 1728 2734 1425 
Q 2400 1094 1813 1094 
Q 1563 1094 1331 1150 
z
M 1734 2919 
Q 1409 2919 1197 2706 
Q 988 2497 988 2181 
Q 988 1872 1184 1684 
Q 1397 1472 1756 1472 
Q 2094 1472 2297 1678 
Q 2503 1881 2503 2203 
Q 2503 2497 2297 2700 
Q 2081 2919 1734 2919 
z
M 1753 159 
Q 903 159 903 -366 
Q 903 -875 1800 -875 
Q 2378 -875 2638 -606 
Q 2772 -481 2772 -313 
Q 2772 159 1753 159 
z
" transform="scale(0.015625)"/>
       </defs>
       <use xlink:href="#IPAexGothic-41"/>
       <use xlink:href="#IPAexGothic-75" x="63.720703"/>
       <use xlink:href="#IPAexGothic-67" x="124.121094"/>
      </g>
     </g>
    </g>
    <g id="xtick_4">
     <g id="line2d_5">
      <g>
       <use xlink:href="#m11b4a51187" x="143.124322" y="284.991437" style="stroke: #000000; stroke-width: 0.8"/>
      </g>
     </g>
     <g id="text_4">
      <!-- Sep -->
      <g transform="translate(134.249322 299.482062) scale(0.1 -0.1)">
       <defs>
        <path id="IPAexGothic-53" d="M 2919 3641 
Q 2563 4259 1853 4259 
Q 1453 4259 1213 4009 
Q 1028 3803 1028 3534 
Q 1028 3238 1266 3047 
Q 1444 2913 1984 2688 
L 2200 2597 
Q 2925 2306 3191 1953 
Q 3422 1644 3422 1259 
Q 3422 644 2969 288 
Q 2559 -31 1931 -31 
Q 881 -31 313 766 
L 753 1100 
Q 1203 459 1938 459 
Q 2288 459 2534 625 
Q 2841 847 2841 1216 
Q 2841 1503 2616 1728 
Q 2375 1959 1728 2206 
L 1541 2278 
Q 453 2694 453 3481 
Q 453 4006 806 4347 
Q 1203 4725 1863 4725 
Q 2841 4725 3359 3956 
L 2919 3641 
z
" transform="scale(0.015625)"/>
        <path id="IPAexGothic-65" d="M 863 1594 
Q 891 1041 1209 722 
Q 1534 397 1997 397 
Q 2606 397 2963 966 
L 3322 728 
Q 2869 -31 1931 -31 
Q 1222 -31 766 422 
Q 306 884 306 1641 
Q 306 2444 788 2925 
Q 1216 3353 1856 3353 
Q 2459 3353 2866 2956 
Q 3322 2494 3322 1722 
L 3322 1594 
L 863 1594 
z
M 2756 1997 
Q 2709 2431 2450 2681 
Q 2194 2938 1844 2938 
Q 1438 2938 1150 2591 
Q 953 2356 894 1997 
L 2756 1997 
z
" transform="scale(0.015625)"/>
        <path id="IPAexGothic-70" d="M 1075 2688 
Q 1525 3341 2206 3341 
Q 2769 3341 3172 2938 
Q 3641 2469 3641 1644 
Q 3641 841 3178 372 
Q 2775 -31 2200 -31 
Q 1569 -31 1106 497 
L 1106 -1216 
L 563 -1216 
L 563 3250 
L 1075 3250 
L 1075 2688 
z
M 1106 1950 
L 1106 1291 
Q 1106 897 1516 600 
Q 1791 403 2106 403 
Q 2469 403 2725 659 
Q 3066 997 3066 1631 
Q 3066 2200 2784 2559 
Q 2503 2900 2100 2900 
Q 1656 2900 1338 2484 
Q 1106 2184 1106 1950 
z
" transform="scale(0.015625)"/>
       </defs>
       <use xlink:href="#IPAexGothic-53"/>
       <use xlink:href="#IPAexGothic-65" x="58.496094"/>
       <use xlink:href="#IPAexGothic-70" x="115.380859"/>
      </g>
     </g>
    </g>
    <g id="xtick_5">
     <g id="line2d_6">
      <g>
       <use xlink:href="#m11b4a51187" x="180.195602" y="284.991437" style="stroke: #000000; stroke-width: 0.8"/>
      </g>
     </g>
     <g id="text_5">
      <!-- Oct -->
      <g transform="translate(171.760446 299.482062) scale(0.1 -0.1)">
       <defs>
        <path id="IPAexGothic-4f" d="M 2541 4725 
Q 3456 4725 4044 4138 
Q 4709 3472 4709 2331 
Q 4709 1219 4031 550 
Q 3450 -31 2541 -31 
Q 1638 -31 1056 550 
Q 378 1219 378 2356 
Q 378 3469 1044 4138 
Q 1631 4725 2541 4725 
z
M 2541 4266 
Q 1953 4266 1531 3844 
Q 994 3303 994 2350 
Q 994 1391 1531 863 
Q 1947 447 2541 447 
Q 3131 447 3556 863 
Q 4094 1400 4094 2375 
Q 4094 3297 3550 3844 
Q 3138 4266 2541 4266 
z
" transform="scale(0.015625)"/>
        <path id="IPAexGothic-63" d="M 3269 784 
Q 2834 -31 1900 -31 
Q 1228 -31 788 409 
Q 313 891 313 1663 
Q 313 2428 788 2913 
Q 1222 3347 1881 3347 
Q 2813 3347 3206 2541 
L 2763 2309 
Q 2484 2900 1900 2900 
Q 1516 2900 1234 2619 
Q 881 2266 881 1650 
Q 881 1069 1222 728 
Q 1522 428 1956 428 
Q 2547 428 2847 1016 
L 3269 784 
z
" transform="scale(0.015625)"/>
        <path id="IPAexGothic-74" d="M 2125 241 
Q 1769 -6 1397 -6 
Q 653 -6 653 831 
L 653 2859 
L 219 2859 
L 219 3250 
L 653 3250 
L 653 3966 
L 1178 4228 
L 1178 3250 
L 2063 3250 
L 2063 2859 
L 1178 2859 
L 1178 906 
Q 1178 416 1513 416 
Q 1738 416 1941 588 
L 2125 241 
z
" transform="scale(0.015625)"/>
       </defs>
       <use xlink:href="#IPAexGothic-4f"/>
       <use xlink:href="#IPAexGothic-63" x="79.6875"/>
       <use xlink:href="#IPAexGothic-74" x="134.082031"/>
      </g>
     </g>
    </g>
    <g id="xtick_6">
     <g id="line2d_7">
      <g>
       <use xlink:href="#m11b4a51187" x="218.502592" y="284.991437" style="stroke: #000000; stroke-width: 0.8"/>
      </g>
     </g>
     <g id="text_6">
      <!-- Nov -->
      <g transform="translate(209.254154 299.482062) scale(0.1 -0.1)">
       <defs>
        <path id="IPAexGothic-4e" d="M 4244 63 
L 3731 63 
L 1697 3150 
Q 1466 3500 1141 4097 
L 1116 4097 
L 1128 3797 
Q 1159 2803 1159 2469 
L 1159 63 
L 609 63 
L 609 4634 
L 1366 4634 
L 3113 1978 
Q 3453 1447 3713 966 
L 3738 966 
Q 3694 1897 3694 2469 
L 3694 4634 
L 4244 4634 
L 4244 63 
z
" transform="scale(0.015625)"/>
        <path id="IPAexGothic-6f" d="M 1919 3341 
Q 2594 3341 3056 2888 
Q 3531 2413 3531 1638 
Q 3531 888 3066 422 
Q 2609 -31 1919 -31 
Q 1228 -31 781 416 
Q 313 881 313 1656 
Q 313 2413 788 2888 
Q 1241 3341 1919 3341 
z
M 1919 2919 
Q 1519 2919 1241 2631 
Q 888 2278 888 1650 
Q 888 1031 1234 684 
Q 1516 403 1919 403 
Q 2331 403 2609 691 
Q 2956 1038 2956 1672 
Q 2956 2269 2603 2631 
Q 2316 2919 1919 2919 
z
" transform="scale(0.015625)"/>
        <path id="IPAexGothic-76" d="M 3103 3250 
L 1747 6 
L 1375 6 
L 25 3250 
L 628 3250 
L 1338 1388 
L 1522 844 
L 1569 703 
L 1588 703 
Q 1641 884 1822 1388 
L 2516 3250 
L 3103 3250 
z
" transform="scale(0.015625)"/>
       </defs>
       <use xlink:href="#IPAexGothic-4e"/>
       <use xlink:href="#IPAexGothic-6f" x="75.976562"/>
       <use xlink:href="#IPAexGothic-76" x="136.376953"/>
      </g>
     </g>
    </g>
    <g id="xtick_7">
     <g id="line2d_8">
      <g>
       <use xlink:href="#m11b4a51187" x="255.573872" y="284.991437" style="stroke: #000000; stroke-width: 0.8"/>
      </g>
     </g>
     <g id="text_7">
      <!-- Dec -->
      <g transform="translate(246.225435 299.482062) scale(0.1 -0.1)">
       <defs>
        <path id="IPAexGothic-44" d="M 609 4634 
L 1984 4634 
Q 3159 4634 3791 4050 
Q 4456 3444 4456 2356 
Q 4456 1047 3516 441 
Q 2925 63 1941 63 
L 609 63 
L 609 4634 
z
M 1172 556 
L 1894 556 
Q 3853 556 3853 2356 
Q 3853 4147 1928 4147 
L 1172 4147 
L 1172 556 
z
" transform="scale(0.015625)"/>
       </defs>
       <use xlink:href="#IPAexGothic-44"/>
       <use xlink:href="#IPAexGothic-65" x="75.683594"/>
       <use xlink:href="#IPAexGothic-63" x="132.568359"/>
      </g>
     </g>
    </g>
    <g id="xtick_8">
     <g id="line2d_9">
      <g>
       <use xlink:href="#m11b4a51187" x="293.880862" y="284.991437" style="stroke: #000000; stroke-width: 0.8"/>
      </g>
     </g>
     <g id="text_8">
      <!-- 2023 -->
      <g transform="translate(281.283987 299.482062) scale(0.1 -0.1)">
       <defs>
        <path id="IPAexGothic-32" d="M 3659 63 
L 447 63 
L 447 594 
Q 825 1475 1894 2203 
L 2072 2322 
Q 2619 2697 2791 2906 
Q 2988 3153 2988 3444 
Q 2988 3772 2756 4003 
Q 2500 4259 2084 4259 
Q 1250 4259 991 3328 
L 497 3506 
Q 853 4725 2116 4725 
Q 2806 4725 3216 4316 
Q 3575 3947 3575 3425 
Q 3575 3038 3344 2722 
Q 3131 2416 2366 1938 
L 2231 1856 
Q 1256 1253 978 569 
L 3659 569 
L 3659 63 
z
" transform="scale(0.015625)"/>
        <path id="IPAexGothic-30" d="M 2038 4725 
Q 2881 4725 3334 3944 
Q 3694 3325 3694 2344 
Q 3694 1372 3334 741 
Q 2888 -31 2016 -31 
Q 1147 -31 700 741 
Q 341 1372 341 2350 
Q 341 3713 1000 4334 
Q 1419 4725 2038 4725 
z
M 2016 4266 
Q 1516 4266 1228 3759 
Q 934 3247 934 2344 
Q 934 1456 1222 947 
Q 1513 447 2016 447 
Q 2619 447 2909 1153 
Q 3100 1622 3100 2375 
Q 3100 3256 2806 3759 
Q 2509 4266 2016 4266 
z
" transform="scale(0.015625)"/>
        <path id="IPAexGothic-33" d="M 2381 2419 
Q 3506 2216 3506 1278 
Q 3506 716 3128 356 
Q 2709 -31 1944 -31 
Q 797 -31 288 881 
L 756 1131 
Q 1109 441 1938 441 
Q 2425 441 2694 691 
Q 2950 928 2950 1291 
Q 2950 1719 2566 1978 
Q 2216 2213 1644 2213 
L 1363 2213 
L 1363 2669 
L 1656 2669 
Q 2231 2669 2534 2888 
Q 2859 3119 2859 3509 
Q 2859 3934 2494 4138 
Q 2259 4278 1931 4278 
Q 1238 4278 903 3578 
L 434 3803 
Q 897 4725 1938 4725 
Q 2597 4725 3006 4394 
Q 3416 4069 3416 3534 
Q 3416 3028 3019 2706 
Q 2763 2500 2381 2444 
L 2381 2419 
z
" transform="scale(0.015625)"/>
       </defs>
       <use xlink:href="#IPAexGothic-32"/>
       <use xlink:href="#IPAexGothic-30" x="62.988281"/>
       <use xlink:href="#IPAexGothic-32" x="125.976562"/>
       <use xlink:href="#IPAexGothic-33" x="188.964844"/>
      </g>
     </g>
    </g>
    <g id="xtick_9">
     <g id="line2d_10">
      <g>
       <use xlink:href="#m11b4a51187" x="332.187851" y="284.991437" style="stroke: #000000; stroke-width: 0.8"/>
      </g>
     </g>
     <g id="text_9">
      <!-- Feb -->
      <g transform="translate(323.364414 299.482062) scale(0.1 -0.1)">
       <defs>
        <path id="IPAexGothic-46" d="M 3469 4141 
L 1172 4141 
L 1172 2656 
L 3206 2656 
L 3206 2188 
L 1172 2188 
L 1172 63 
L 609 63 
L 609 4634 
L 3469 4634 
L 3469 4141 
z
" transform="scale(0.015625)"/>
        <path id="IPAexGothic-62" d="M 1125 2731 
Q 1550 3341 2219 3341 
Q 2788 3341 3191 2938 
Q 3659 2469 3659 1644 
Q 3659 838 3191 372 
Q 2788 -31 2206 -31 
Q 1559 -31 1088 516 
L 1009 44 
L 581 44 
L 581 4794 
L 1125 4794 
L 1125 2731 
z
M 1125 1997 
L 1125 1253 
Q 1125 888 1528 600 
Q 1803 403 2119 403 
Q 2488 403 2744 659 
Q 3084 1009 3084 1631 
Q 3084 2194 2803 2553 
Q 2525 2900 2125 2900 
Q 1759 2900 1438 2578 
Q 1125 2266 1125 1997 
z
" transform="scale(0.015625)"/>
       </defs>
       <use xlink:href="#IPAexGothic-46"/>
       <use xlink:href="#IPAexGothic-65" x="57.177734"/>
       <use xlink:href="#IPAexGothic-62" x="114.0625"/>
      </g>
     </g>
    </g>
    <g id="xtick_10">
     <g id="line2d_11">
      <g>
       <use xlink:href="#m11b4a51187" x="366.787713" y="284.991437" style="stroke: #000000; stroke-width: 0.8"/>
      </g>
     </g>
     <g id="text_10">
      <!-- Mar -->
      <g transform="translate(357.678338 299.482062) scale(0.1 -0.1)">
       <defs>
        <path id="IPAexGothic-4d" d="M 5147 63 
L 4597 63 
L 4597 2534 
Q 4597 3281 4634 4134 
L 4609 4134 
Q 4356 3409 4066 2675 
L 3066 209 
L 2650 209 
L 1641 2725 
Q 1328 3506 1128 4141 
L 1103 4141 
Q 1141 3131 1141 2553 
L 1141 63 
L 609 63 
L 609 4634 
L 1416 4634 
L 2503 1944 
Q 2697 1472 2869 906 
L 2888 906 
Q 3028 1416 3234 1931 
L 4316 4634 
L 5147 4634 
L 5147 63 
z
" transform="scale(0.015625)"/>
        <path id="IPAexGothic-61" d="M 3156 63 
L 2672 63 
Q 2559 303 2531 556 
L 2509 556 
Q 2147 -25 1428 -25 
Q 934 -25 622 288 
Q 347 563 347 959 
Q 347 1947 2050 1997 
L 2478 2009 
L 2478 2175 
Q 2478 2509 2288 2700 
Q 2088 2900 1775 2900 
Q 1238 2900 969 2378 
L 494 2597 
Q 938 3328 1788 3328 
Q 2375 3328 2691 3000 
Q 2984 2706 2984 2169 
L 2984 997 
Q 2984 400 3156 63 
z
M 2491 1625 
L 2141 1619 
Q 903 1591 903 953 
Q 903 728 1050 581 
Q 1231 403 1525 403 
Q 1934 403 2234 703 
Q 2491 969 2491 1344 
L 2491 1625 
z
" transform="scale(0.015625)"/>
        <path id="IPAexGothic-72" d="M 2309 3316 
L 2213 2769 
Q 2106 2791 2022 2791 
Q 1653 2791 1413 2444 
Q 1113 2006 1113 1675 
L 1113 63 
L 563 63 
L 563 3250 
L 1081 3250 
L 1056 2303 
L 1069 2303 
Q 1422 3341 2097 3341 
Q 2206 3341 2309 3316 
z
" transform="scale(0.015625)"/>
       </defs>
       <use xlink:href="#IPAexGothic-4d"/>
       <use xlink:href="#IPAexGothic-61" x="90.185547"/>
       <use xlink:href="#IPAexGothic-72" x="145.166016"/>
      </g>
     </g>
    </g>
   </g>
   <g id="matplotlib.axis_2">
    <g id="ytick_1">
     <g id="line2d_12">
      <defs>
       <path id="m71b9b9be53" d="M 0 0 
L -3.5 0 
" style="stroke: #000000; stroke-width: 0.8"/>
      </defs>
      <g>
       <use xlink:href="#m71b9b9be53" x="29.439063" y="269.014637" style="stroke: #000000; stroke-width: 0.8"/>
      </g>
     </g>
     <g id="text_11">
      <!-- 0.5 -->
      <g transform="translate(7.2 272.759949) scale(0.1 -0.1)">
       <defs>
        <path id="IPAexGothic-2e" d="M 1184 63 
L 494 63 
L 494 753 
L 1184 753 
L 1184 63 
z
" transform="scale(0.015625)"/>
        <path id="IPAexGothic-35" d="M 1178 2603 
Q 1634 2963 2172 2963 
Q 2816 2963 3241 2528 
Q 3638 2113 3638 1497 
Q 3638 938 3297 513 
Q 2869 -31 2031 -31 
Q 959 -31 469 784 
L 938 1028 
Q 1309 434 2013 434 
Q 2466 434 2769 716 
Q 3081 1013 3081 1503 
Q 3081 1966 2806 2241 
Q 2519 2528 2056 2528 
Q 1406 2528 1072 2028 
L 591 2091 
L 884 4634 
L 3406 4634 
L 3406 4153 
L 1341 4153 
L 1134 2603 
L 1178 2603 
z
" transform="scale(0.015625)"/>
       </defs>
       <use xlink:href="#IPAexGothic-30"/>
       <use xlink:href="#IPAexGothic-2e" x="62.988281"/>
       <use xlink:href="#IPAexGothic-35" x="89.404297"/>
      </g>
     </g>
    </g>
    <g id="ytick_2">
     <g id="line2d_13">
      <g>
       <use xlink:href="#m71b9b9be53" x="29.439063" y="211.199039" style="stroke: #000000; stroke-width: 0.8"/>
      </g>
     </g>
     <g id="text_12">
      <!-- 1.0 -->
      <g transform="translate(7.2 214.944352) scale(0.1 -0.1)">
       <defs>
        <path id="IPAexGothic-31" d="M 2463 63 
L 1900 63 
L 1900 4103 
Q 1372 3922 788 3797 
L 684 4231 
Q 1519 4441 2106 4731 
L 2463 4731 
L 2463 63 
z
" transform="scale(0.015625)"/>
       </defs>
       <use xlink:href="#IPAexGothic-31"/>
       <use xlink:href="#IPAexGothic-2e" x="62.988281"/>
       <use xlink:href="#IPAexGothic-30" x="89.404297"/>
      </g>
     </g>
    </g>
    <g id="ytick_3">
     <g id="line2d_14">
      <g>
       <use xlink:href="#m71b9b9be53" x="29.439063" y="153.383442" style="stroke: #000000; stroke-width: 0.8"/>
      </g>
     </g>
     <g id="text_13">
      <!-- 1.5 -->
      <g transform="translate(7.2 157.128754) scale(0.1 -0.1)">
       <use xlink:href="#IPAexGothic-31"/>
       <use xlink:href="#IPAexGothic-2e" x="62.988281"/>
       <use xlink:href="#IPAexGothic-35" x="89.404297"/>
      </g>
     </g>
    </g>
    <g id="ytick_4">
     <g id="line2d_15">
      <g>
       <use xlink:href="#m71b9b9be53" x="29.439063" y="95.567844" style="stroke: #000000; stroke-width: 0.8"/>
      </g>
     </g>
     <g id="text_14">
      <!-- 2.0 -->
      <g transform="translate(7.2 99.313157) scale(0.1 -0.1)">
       <use xlink:href="#IPAexGothic-32"/>
       <use xlink:href="#IPAexGothic-2e" x="62.988281"/>
       <use xlink:href="#IPAexGothic-30" x="89.404297"/>
      </g>
     </g>
    </g>
    <g id="ytick_5">
     <g id="line2d_16">
      <g>
       <use xlink:href="#m71b9b9be53" x="29.439063" y="37.752247" style="stroke: #000000; stroke-width: 0.8"/>
      </g>
     </g>
     <g id="text_15">
      <!-- 2.5 -->
      <g transform="translate(7.2 41.497559) scale(0.1 -0.1)">
       <use xlink:href="#IPAexGothic-32"/>
       <use xlink:href="#IPAexGothic-2e" x="62.988281"/>
       <use xlink:href="#IPAexGothic-35" x="89.404297"/>
      </g>
     </g>
    </g>
   </g>
   <g id="line2d_17">
    <path d="M 29.439063 227.411867 
L 30.674772 255.471758 
L 31.910481 269.405805 
L 33.146191 242.945807 
L 34.3819 262.441258 
L 36.853319 251.639145 
L 38.089028 227.514621 
L 39.324737 229.940841 
L 40.560447 194.078383 
L 41.796156 246.403784 
L 43.031865 250.411663 
L 44.267575 205.84664 
L 45.503284 249.191321 
L 46.738993 272.895437 
L 47.974703 243.090535 
L 49.210412 247.559579 
L 50.446121 238.429093 
L 51.681831 112.810292 
L 52.91754 184.323192 
L 54.153249 181.498781 
L 55.388959 30.975437 
L 57.860377 168.571026 
L 59.096087 110.868109 
L 60.331796 213.126183 
L 61.567505 156.293505 
L 62.803215 124.518024 
L 64.038924 151.875457 
L 65.274633 236.751655 
L 66.510343 106.655378 
L 67.746052 51.387485 
L 68.981761 102.788184 
L 70.217471 95.926279 
L 71.45318 36.542983 
L 72.688889 79.37836 
L 73.924599 35.439549 
L 75.160308 110.396771 
L 76.396018 116.980214 
L 77.631727 109.726148 
L 78.867436 177.160719 
L 80.103146 110.814502 
L 81.338855 153.702013 
L 82.574564 148.460822 
L 83.810274 164.812112 
L 85.045983 190.526245 
L 86.281692 181.526351 
L 87.517402 197.096587 
L 88.753111 219.976945 
L 89.98882 163.710275 
L 91.22453 173.022011 
L 92.460239 196.817697 
L 93.695948 179.527296 
L 94.931658 191.661352 
L 96.167367 192.887858 
L 97.403076 173.15897 
L 98.638786 188.50237 
L 99.874495 201.809366 
L 101.110204 195.197746 
L 102.345914 183.412435 
L 103.581623 192.046725 
L 104.817332 204.737627 
L 106.053042 199.025674 
L 107.288751 189.016626 
L 108.52446 185.809755 
L 109.76017 182.941981 
L 110.995879 200.02008 
L 112.231588 192.032303 
L 113.467298 181.775482 
L 114.703007 186.871327 
L 115.938716 193.9839 
L 117.174426 204.601463 
L 118.410135 225.669065 
L 119.645845 207.989558 
L 120.881554 218.057369 
L 122.117263 204.232725 
L 123.352973 217.282458 
L 124.588682 202.720535 
L 125.824391 195.141529 
L 127.060101 153.461242 
L 128.29581 171.531238 
L 129.531519 185.828914 
L 130.767229 204.950127 
L 132.002938 187.736367 
L 133.238647 211.671324 
L 134.474357 216.92144 
L 135.710066 231.587854 
L 136.945775 248.509599 
L 138.181485 240.826108 
L 139.417194 241.29957 
L 140.652903 247.072575 
L 141.888613 251.367839 
L 143.124322 251.669425 
L 144.360031 251.785215 
L 145.595741 242.900107 
L 146.83145 251.663262 
L 148.067159 241.186243 
L 149.302869 228.929625 
L 150.538578 240.670472 
L 151.774287 239.689961 
L 153.009997 228.587222 
L 154.245706 234.114512 
L 155.481415 220.053728 
L 156.717125 221.634093 
L 157.952834 247.789493 
L 159.188543 250.578039 
L 160.424253 230.847867 
L 161.659962 240.571341 
L 162.895671 229.667605 
L 164.131381 228.965012 
L 165.36709 226.507 
L 166.6028 266.267581 
L 167.838509 173.994674 
L 169.074218 228.352097 
L 170.309928 212.968149 
L 171.545637 243.863512 
L 172.781346 195.951487 
L 174.017056 187.500784 
L 175.252765 195.32975 
L 176.488474 238.855842 
L 177.724184 224.563828 
L 178.959893 239.674853 
L 180.195602 205.067187 
L 181.431312 219.657973 
L 182.667021 258.893645 
L 183.90273 189.095647 
L 185.13844 231.988543 
L 186.374149 230.452082 
L 187.609858 208.848889 
L 188.845568 214.413367 
L 190.081277 237.774657 
L 191.316986 208.216448 
L 192.552696 269.328924 
L 193.788405 186.857034 
L 195.024114 168.652783 
L 196.259824 211.199039 
L 197.495533 197.903063 
L 198.731242 190.42842 
L 199.966952 209.746404 
L 201.202661 135.123595 
L 202.43837 212.926136 
L 203.67408 239.34414 
L 204.909789 184.631705 
L 206.145498 193.892671 
L 207.381208 220.351516 
L 208.616917 197.002011 
L 209.852627 191.634272 
L 211.088336 213.253557 
L 212.324045 183.049443 
L 213.559755 199.198481 
L 214.795464 190.346771 
L 216.031173 160.309806 
L 217.266883 189.784075 
L 218.502592 198.104074 
L 219.738301 152.110827 
L 220.974011 152.9204 
L 222.20972 232.748365 
L 223.445429 165.024121 
L 224.681139 194.085734 
L 225.916848 199.838398 
L 227.152557 173.564927 
L 228.388267 209.205445 
L 229.623976 206.690562 
L 230.859685 156.249641 
L 232.095395 220.402577 
L 233.331104 215.284532 
L 234.566813 225.924092 
L 235.802523 188.099011 
L 237.038232 185.511636 
L 238.273941 211.199039 
L 239.509651 194.160213 
L 240.74536 184.55213 
L 241.981069 182.799057 
L 244.452488 203.930102 
L 245.688197 168.757197 
L 246.923907 220.491359 
L 248.159616 171.577359 
L 250.631035 192.11637 
L 251.866744 204.402838 
L 253.102454 198.987955 
L 254.338163 181.777237 
L 255.573872 142.696764 
L 256.809582 213.580923 
L 258.045291 220.529523 
L 259.281 204.080643 
L 260.51671 205.292279 
L 261.752419 181.962456 
L 262.988128 194.793532 
L 264.223838 197.432704 
L 265.459547 173.295964 
L 266.695256 175.045451 
L 267.930966 167.16196 
L 269.166675 187.120934 
L 270.402384 183.834422 
L 271.638094 173.778001 
L 272.873803 181.23856 
L 274.109512 201.020413 
L 275.345222 187.828789 
L 276.580931 213.66936 
L 277.81664 207.768569 
L 279.05235 207.295129 
L 280.288059 192.832229 
L 281.523768 206.958159 
L 282.759478 188.728128 
L 283.995187 193.851266 
L 285.230896 207.103197 
L 286.466606 215.224404 
L 287.702315 196.113595 
L 288.938024 220.91992 
L 290.173734 200.04709 
L 291.409443 223.444191 
L 292.645152 251.024981 
L 293.880862 228.180558 
L 295.116571 208.755181 
L 296.35228 251.311193 
L 297.58799 254.432046 
L 298.823699 215.74342 
L 300.059409 126.299141 
L 301.295118 90.185267 
L 302.530827 169.01121 
L 303.766537 202.233317 
L 305.002246 208.810336 
L 306.237955 167.736099 
L 307.473665 215.685286 
L 308.709374 255.304956 
L 309.945083 257.151057 
L 311.180793 241.910597 
L 312.416502 230.363911 
L 313.652211 201.639485 
L 314.887921 252.591109 
L 316.12363 261.202922 
L 317.359339 248.191392 
L 318.595049 245.888016 
L 319.830758 248.528538 
L 321.066467 233.937612 
L 322.302177 243.873594 
L 323.537886 245.699396 
L 324.773595 238.379427 
L 326.009305 250.421781 
L 327.245014 242.025158 
L 328.480723 235.679743 
L 329.716433 231.977605 
L 330.952142 268.725993 
L 332.187851 251.010186 
L 333.423561 243.44844 
L 334.65927 231.173865 
L 335.894979 246.470516 
L 337.130689 240.806074 
L 338.366398 205.729567 
L 339.602107 216.74151 
L 340.837817 221.239134 
L 342.073526 222.049942 
L 343.309236 236.243828 
L 344.544945 216.587974 
L 345.780654 250.056764 
L 347.016364 220.887451 
L 348.252073 228.799652 
L 349.487782 253.712581 
L 350.723492 218.850978 
L 351.959201 215.357996 
L 353.19491 237.280047 
L 354.43062 193.27922 
L 355.666329 224.105076 
L 356.902038 238.379537 
L 358.137748 241.772305 
L 359.373457 251.269511 
L 360.609166 255.03236 
L 363.080585 237.065956 
L 364.316294 226.130001 
L 365.552004 244.38679 
L 366.787713 206.157732 
L 368.023422 233.765533 
L 369.259132 159.336552 
L 370.494841 185.327724 
L 371.73055 214.962751 
L 372.96626 217.21233 
L 374.201969 183.217935 
L 375.437678 224.645526 
L 376.673388 214.214028 
L 377.909097 235.628575 
L 379.144806 247.936648 
L 380.380516 239.212375 
L 381.616225 229.20156 
L 382.851934 240.777423 
L 384.087644 253.457905 
L 385.323353 223.82357 
L 385.323353 223.82357 
" clip-path="url(#p24130eec37)" style="fill: none; stroke: #1f77b4; stroke-width: 1.5; stroke-linecap: square"/>
   </g>
   <g id="line2d_18">
    <path d="M 29.439063 230.929789 
L 30.674772 242.60231 
L 31.910481 262.8168 
L 33.146191 257.425513 
L 34.3819 253.337157 
L 35.617609 259.836211 
L 36.853319 254.434415 
L 38.089028 240.414674 
L 39.324737 228.735232 
L 40.560447 213.41839 
L 41.796156 223.501825 
L 43.031865 248.433331 
L 44.267575 230.677266 
L 45.503284 229.912564 
L 46.738993 262.11981 
L 47.974703 259.625445 
L 49.210412 245.355694 
L 50.446121 243.118728 
L 51.681831 189.281671 
L 52.91754 152.189606 
L 54.153249 182.917915 
L 55.388959 119.473036 
L 56.624668 68.196709 
L 57.860377 137.669929 
L 59.096087 141.957318 
L 60.331796 170.127431 
L 61.567505 187.579679 
L 62.803215 141.084002 
L 64.038924 138.693349 
L 65.274633 201.292679 
L 66.510343 186.000414 
L 67.746052 80.567026 
L 68.981761 78.413733 
L 70.217471 99.383107 
L 71.45318 67.931655 
L 72.688889 58.815077 
L 73.924599 58.306173 
L 75.160308 75.699401 
L 76.396018 113.713912 
L 77.631727 113.383995 
L 78.867436 146.569691 
L 80.103146 147.022086 
L 81.338855 133.443524 
L 82.574564 151.100956 
L 83.810274 156.832948 
L 85.045983 178.224324 
L 86.281692 186.098223 
L 87.517402 189.532009 
L 88.753111 209.091256 
L 89.98882 194.807872 
L 91.22453 168.434555 
L 92.460239 185.419494 
L 93.695948 188.44227 
L 94.931658 185.724694 
L 96.167367 192.276003 
L 97.403076 183.362139 
L 98.638786 181.032368 
L 99.874495 195.324076 
L 101.110204 198.546144 
L 102.345914 189.431392 
L 103.581623 187.79659 
L 104.817332 198.54902 
L 106.053042 201.914295 
L 107.288751 194.115474 
L 108.52446 187.422411 
L 109.76017 184.383085 
L 110.995879 191.750659 
L 112.231588 196.087179 
L 113.467298 186.997904 
L 114.703007 184.346184 
L 115.938716 190.473981 
L 117.174426 199.403219 
L 118.410135 215.633088 
L 119.645845 217.185071 
L 120.881554 213.134848 
L 122.117263 211.351742 
L 123.352973 210.94113 
L 124.588682 210.228598 
L 125.824391 198.987184 
L 127.060101 175.731796 
L 128.29581 162.744798 
L 130.767229 195.737687 
L 132.002938 196.62741 
L 133.238647 200.268399 
L 134.474357 214.327003 
L 135.710066 224.517111 
L 136.945775 240.462163 
L 138.181485 244.757718 
L 139.417194 241.063165 
L 140.652903 244.236496 
L 141.888613 249.249927 
L 143.124322 251.518783 
L 144.360031 251.727342 
L 145.595741 247.466905 
L 146.83145 247.402446 
L 148.067159 246.595581 
L 149.302869 235.262778 
L 150.538578 234.987471 
L 151.774287 240.181603 
L 153.009997 234.304978 
L 154.245706 231.390872 
L 155.481415 227.332189 
L 156.717125 220.846856 
L 159.188543 249.196285 
L 160.424253 241.279862 
L 161.659962 235.839395 
L 162.895671 235.281663 
L 164.131381 229.316941 
L 165.36709 227.743627 
L 166.6028 248.882551 
L 167.838509 230.621466 
L 169.074218 204.147875 
L 170.309928 220.93913 
L 171.545637 229.635769 
L 172.781346 222.625721 
L 174.017056 191.792225 
L 175.252765 191.471858 
L 176.488474 219.272458 
L 177.724184 231.97864 
L 178.959893 232.42119 
L 180.195602 223.814193 
L 181.431312 212.595296 
L 182.667021 241.501939 
L 183.90273 230.097519 
L 185.13844 212.536835 
L 186.374149 231.223399 
L 187.609858 220.196168 
L 188.845568 211.66473 
L 190.081277 226.773505 
L 191.316986 224.052711 
L 192.552696 244.24423 
L 193.788405 237.116008 
L 195.024114 178.033043 
L 197.495533 204.731901 
L 198.731242 194.218394 
L 199.966952 200.456001 
L 201.202661 177.011185 
L 202.43837 179.059561 
L 203.67408 227.005264 
L 204.909789 215.29372 
L 206.145498 189.34014 
L 207.381208 207.855357 
L 208.616917 209.25497 
L 209.852627 194.345323 
L 211.088336 202.914504 
L 212.324045 199.04078 
L 213.559755 191.364392 
L 214.795464 194.846812 
L 216.031173 176.074523 
L 217.266883 175.764073 
L 218.502592 194.009205 
L 219.738301 176.860376 
L 220.974011 152.516084 
L 222.20972 198.91713 
L 223.445429 203.448625 
L 224.681139 180.273516 
L 225.916848 196.993923 
L 227.152557 187.318791 
L 228.388267 192.562593 
L 229.623976 207.954654 
L 230.859685 183.674736 
L 232.095395 192.091624 
L 233.331104 217.873602 
L 234.566813 220.737602 
L 235.802523 208.513572 
L 237.038232 186.8113 
L 238.273941 198.998945 
L 239.509651 202.972279 
L 240.74536 189.440136 
L 241.981069 183.678277 
L 243.216779 188.335204 
L 244.452488 198.897374 
L 245.688197 187.448754 
L 246.923907 197.179515 
L 248.159616 198.341262 
L 249.395325 176.894581 
L 250.631035 187.16406 
L 251.866744 198.406453 
L 253.102454 201.724689 
L 254.338163 190.654224 
L 255.573872 163.401008 
L 256.809582 182.424595 
L 258.045291 217.110216 
L 259.281 212.600777 
L 260.51671 204.687964 
L 261.752419 194.139114 
L 262.988128 188.526714 
L 264.223838 196.119779 
L 265.459547 185.880047 
L 266.695256 174.173214 
L 267.930966 171.1536 
L 269.166675 177.474475 
L 270.402384 185.48723 
L 271.638094 178.891638 
L 272.873803 177.554882 
L 274.109512 191.49043 
L 275.345222 194.588989 
L 276.580931 201.412831 
L 277.81664 210.756455 
L 279.05235 207.532084 
L 280.288059 200.270107 
L 281.523768 200.091846 
L 282.759478 198.165608 
L 283.995187 191.313905 
L 285.230896 200.651084 
L 286.466606 211.235099 
L 287.702315 206.046382 
L 288.938024 209.168684 
L 290.173734 210.952529 
L 291.409443 212.341773 
L 292.645152 238.302243 
L 293.880862 240.353858 
L 295.116571 218.904029 
L 296.35228 232.400817 
L 297.58799 252.888083 
L 298.823699 237.150337 
L 300.059409 177.577562 
L 301.295118 108.989297 
L 302.530827 133.576313 
L 303.766537 186.602691 
L 305.002246 205.566408 
L 306.237955 189.803691 
L 307.473665 193.854637 
L 308.709374 237.669294 
L 309.945083 256.234041 
L 311.180793 249.907348 
L 312.416502 236.3212 
L 313.652211 216.936234 
L 314.887921 230.424572 
L 316.12363 257.029702 
L 317.359339 254.991137 
L 318.595049 247.048016 
L 319.830758 247.219224 
L 321.066467 241.544538 
L 322.302177 239.046068 
L 323.537886 244.791574 
L 324.773595 242.11844 
L 326.009305 244.62081 
L 327.245014 246.332876 
L 328.480723 238.909678 
L 329.716433 233.847098 
L 330.952142 252.591834 
L 332.187851 260.456547 
L 333.423561 247.319155 
L 334.65927 237.521782 
L 335.894979 239.155159 
L 337.130689 243.68652 
L 338.366398 224.763671 
L 339.602107 211.366742 
L 340.837817 219.013772 
L 342.073526 221.645319 
L 343.309236 229.405031 
L 344.544945 226.898006 
L 345.780654 234.831969 
L 347.016364 236.643788 
L 348.252073 224.92031 
L 349.487782 242.167574 
L 350.723492 237.975354 
L 351.959201 217.118387 
L 353.19491 226.918474 
L 354.43062 217.470651 
L 355.666329 209.70189 
L 356.902038 231.509136 
L 358.137748 240.092508 
L 360.609166 253.174961 
L 361.844876 250.620979 
L 363.080585 241.617658 
L 364.316294 231.755086 
L 365.552004 235.714517 
L 366.787713 227.087281 
L 368.023422 220.856887 
L 369.259132 201.979325 
L 370.494841 172.879669 
L 371.73055 201.014775 
L 372.96626 216.093253 
L 374.201969 201.361197 
L 375.437678 205.689899 
L 376.673388 219.5565 
L 377.909097 225.485354 
L 379.144806 242.005556 
L 380.380516 243.688865 
L 381.616225 234.342313 
L 382.851934 235.172055 
L 384.087644 247.370212 
L 385.323353 239.894402 
L 385.323353 239.894402 
" clip-path="url(#p24130eec37)" style="fill: none; stroke: #ff7f0e; stroke-width: 1.5; stroke-linecap: square"/>
   </g>
   <g id="line2d_19">
    <path d="M 29.439063 229.122786 
L 30.674772 239.928401 
L 31.910481 252.698705 
L 33.146191 256.780278 
L 34.3819 259.139403 
L 35.617609 254.622372 
L 36.853319 257.208287 
L 38.089028 246.388486 
L 39.324737 237.055655 
L 40.560447 218.326475 
L 43.031865 233.387372 
L 44.267575 236.234427 
L 45.503284 237.293425 
L 47.974703 256.313321 
L 49.210412 255.822722 
L 50.446121 243.109331 
L 51.681831 212.36467 
L 54.153249 162.563334 
L 55.388959 143.84129 
L 56.624668 113.406318 
L 57.860377 107.256927 
L 59.096087 129.127564 
L 60.331796 169.610337 
L 61.567505 165.645532 
L 62.803215 169.115602 
L 64.038924 144.753156 
L 65.274633 179.647632 
L 66.510343 175.437505 
L 67.746052 150.710969 
L 68.981761 88.208754 
L 70.217471 84.394062 
L 71.45318 80.114816 
L 72.688889 71.804879 
L 73.924599 51.239386 
L 75.160308 76.931758 
L 76.396018 90.291085 
L 77.631727 112.392863 
L 78.867436 137.201801 
L 80.103146 135.362509 
L 81.338855 149.276885 
L 82.574564 138.58476 
L 83.810274 155.795645 
L 85.045983 168.900399 
L 88.753111 200.539182 
L 89.98882 195.575228 
L 91.22453 187.912342 
L 92.460239 178.52472 
L 93.695948 183.482093 
L 94.931658 189.523726 
L 96.167367 188.153999 
L 97.403076 186.18367 
L 98.638786 185.09643 
L 99.874495 188.315827 
L 101.110204 195.281979 
L 102.345914 193.687884 
L 103.581623 190.308761 
L 104.817332 193.689874 
L 106.053042 198.708102 
L 107.288751 197.755094 
L 108.52446 191.402728 
L 109.76017 185.944654 
L 110.995879 189.7987 
L 112.231588 191.844605 
L 113.467298 191.480812 
L 114.703007 186.955724 
L 115.938716 187.634041 
L 117.174426 195.355837 
L 118.410135 208.84012 
L 120.881554 217.476612 
L 122.117263 210.241718 
L 123.352973 213.36349 
L 124.588682 208.263285 
L 125.824391 205.402114 
L 127.060101 185.324114 
L 128.29581 174.344388 
L 129.531519 170.831497 
L 130.767229 188.120092 
L 132.002938 193.123075 
L 133.238647 201.848623 
L 134.474357 206.082407 
L 135.710066 220.402845 
L 136.945775 233.236603 
L 138.181485 240.583648 
L 139.417194 243.620823 
L 140.652903 243.114997 
L 143.124322 250.064959 
L 144.360031 251.607698 
L 145.595741 248.893225 
L 146.83145 248.891095 
L 148.067159 245.382199 
L 150.538578 237.10204 
L 151.774287 236.582508 
L 153.009997 236.477418 
L 154.245706 234.241533 
L 155.481415 227.752305 
L 156.717125 225.467971 
L 157.952834 230.718701 
L 159.188543 240.92208 
L 160.424253 243.507227 
L 161.659962 241.044337 
L 162.895671 233.826969 
L 164.131381 233.222764 
L 165.36709 228.38915 
L 166.6028 242.740121 
L 167.838509 229.269077 
L 169.074218 229.870881 
L 170.309928 207.161383 
L 171.545637 229.209749 
L 172.781346 219.501156 
L 174.017056 212.031087 
L 175.252765 192.98185 
L 176.488474 209.581314 
L 177.724184 221.065989 
L 178.959893 234.616737 
L 180.195602 224.06468 
L 181.431312 222.447011 
L 182.667021 230.764786 
L 183.90273 226.735849 
L 185.13844 230.732013 
L 186.374149 218.850986 
L 187.609858 224.281475 
L 188.845568 218.302399 
L 190.081277 221.123664 
L 191.316986 220.93512 
L 192.552696 242.141688 
L 193.788405 228.364316 
L 195.024114 218.44859 
L 196.259824 190.029585 
L 197.495533 193.727182 
L 198.731242 200.139008 
L 199.966952 199.610689 
L 201.202661 181.624175 
L 202.43837 190.09163 
L 204.909789 214.510045 
L 206.145498 208.573118 
L 207.381208 200.569432 
L 208.616917 204.342327 
L 209.852627 203.652593 
L 211.088336 200.974213 
L 212.324045 196.618162 
L 213.559755 199.093369 
L 214.795464 191.026031 
L 216.031173 184.214067 
L 217.266883 180.790352 
L 218.502592 183.611312 
L 219.738301 181.298308 
L 220.974011 169.270937 
L 222.20972 184.905831 
L 223.445429 188.492178 
L 224.681139 200.403438 
L 225.916848 187.108997 
L 227.152557 189.611924 
L 228.388267 195.033037 
L 229.623976 197.447481 
L 230.859685 192.747876 
L 232.095395 197.145102 
L 233.331104 200.314175 
L 234.566813 220.626045 
L 237.038232 201.295556 
L 238.273941 195.464272 
L 239.509651 197.405968 
L 240.74536 197.113713 
L 241.981069 187.261183 
L 243.216779 187.08549 
L 244.452488 193.741822 
L 245.688197 189.550213 
L 246.923907 199.469935 
L 248.159616 189.152671 
L 249.395325 193.119185 
L 250.631035 182.150609 
L 251.866744 193.164416 
L 253.102454 198.60058 
L 254.338163 195.400607 
L 255.573872 176.246527 
L 256.809582 182.20913 
L 258.045291 196.443074 
L 259.281 212.928431 
L 260.51671 210.214796 
L 261.752419 197.539344 
L 262.988128 194.357613 
L 265.459547 188.916137 
L 266.695256 182.357292 
L 267.930966 171.871023 
L 269.166675 176.669151 
L 270.402384 179.625281 
L 271.638094 181.687232 
L 272.873803 179.678119 
L 274.109512 185.826618 
L 275.345222 190.280728 
L 276.580931 201.282161 
L 277.81664 203.568241 
L 279.05235 209.613962 
L 280.288059 202.82065 
L 281.523768 202.539923 
L 282.759478 196.411828 
L 283.995187 196.743275 
L 285.230896 196.795762 
L 286.466606 205.708887 
L 287.702315 206.399686 
L 288.938024 211.222913 
L 290.173734 206.203506 
L 291.409443 215.275699 
L 292.645152 227.04317 
L 293.880862 235.049338 
L 295.116571 230.893623 
L 296.35228 231.014516 
L 297.58799 240.403632 
L 298.823699 242.143466 
L 300.059409 209.55923 
L 301.295118 152.790998 
L 302.530827 131.180415 
L 303.766537 159.879638 
L 305.002246 194.434509 
L 306.237955 194.078898 
L 307.473665 199.039398 
L 308.709374 218.686553 
L 309.945083 244.703586 
L 311.180793 251.750355 
L 312.416502 243.877834 
L 313.652211 225.985777 
L 314.887921 230.404356 
L 317.359339 254.199875 
L 318.595049 252.076606 
L 321.066467 243.017663 
L 322.302177 242.328067 
L 323.537886 241.322359 
L 324.773595 242.707579 
L 326.009305 244.981923 
L 327.245014 243.764543 
L 328.480723 242.927891 
L 329.716433 236.657187 
L 330.952142 247.335431 
L 332.187851 252.068319 
L 333.423561 255.212423 
L 334.65927 242.265414 
L 335.894979 240.610269 
L 337.130689 239.708955 
L 338.366398 232.583033 
L 339.602107 222.156768 
L 340.837817 214.756056 
L 342.073526 220.03548 
L 343.309236 226.75576 
L 344.544945 225.307435 
L 345.780654 235.305016 
L 347.016364 230.400667 
L 348.252073 234.101419 
L 349.487782 235.597281 
L 350.723492 235.016415 
L 351.959201 230.998408 
L 353.19491 224.298607 
L 354.43062 216.77092 
L 355.666329 219.728418 
L 356.902038 220.168553 
L 358.137748 235.06089 
L 359.373457 243.990749 
L 360.609166 249.55491 
L 361.844876 250.837773 
L 363.080585 246.346832 
L 364.316294 236.739674 
L 365.552004 236.167242 
L 366.787713 226.769203 
L 368.023422 229.364982 
L 369.259132 203.387961 
L 370.494841 196.658751 
L 371.73055 188.424055 
L 372.96626 206.663801 
L 374.201969 206.069522 
L 375.437678 209.659357 
L 376.673388 208.600655 
L 377.909097 225.206181 
L 379.144806 233.601789 
L 380.380516 241.084532 
L 381.616225 239.115899 
L 382.851934 236.539116 
L 384.087644 241.724612 
L 385.323353 240.189745 
L 385.323353 240.189745 
" clip-path="url(#p24130eec37)" style="fill: none; stroke: #2ca02c; stroke-width: 1.5; stroke-linecap: square"/>
   </g>
   <g id="line2d_20">
    <path d="M 29.439063 221.275211 
L 30.674772 236.505406 
L 31.910481 248.478994 
L 33.146191 250.372301 
L 34.3819 258.240554 
L 35.617609 258.641514 
L 36.853319 253.887849 
L 38.089028 250.742613 
L 39.324737 242.558839 
L 40.560447 227.832517 
L 41.796156 226.152528 
L 43.031865 232.537407 
L 44.267575 227.154092 
L 45.503284 239.663468 
L 46.738993 247.949949 
L 47.974703 246.12502 
L 49.210412 254.219959 
L 50.446121 251.824807 
L 51.681831 220.968504 
L 52.91754 205.919399 
L 54.153249 186.135769 
L 55.388959 136.533121 
L 56.624668 133.903952 
L 57.860377 128.780364 
L 59.096087 108.165345 
L 60.331796 154.661857 
L 61.567505 166.381937 
L 62.803215 156.222628 
L 65.274633 174.127491 
L 66.510343 164.056515 
L 67.746052 151.002816 
L 68.981761 139.788926 
L 70.217471 90.161987 
L 71.45318 73.226844 
L 72.688889 79.930908 
L 73.924599 63.162834 
L 75.160308 67.394559 
L 76.396018 87.608872 
L 77.631727 95.307164 
L 78.867436 130.829051 
L 80.103146 130.923693 
L 82.574564 149.07322 
L 83.810274 145.514995 
L 85.045983 165.230701 
L 86.281692 172.15619 
L 87.517402 183.990017 
L 88.753111 198.107108 
L 89.98882 192.195781 
L 91.22453 190.267628 
L 92.460239 190.194295 
L 93.695948 178.776002 
L 94.931658 185.572177 
L 96.167367 190.372599 
L 97.403076 184.54832 
L 98.638786 186.766963 
L 99.874495 189.473261 
L 101.110204 190.069324 
L 102.345914 192.410021 
L 106.053042 195.044354 
L 107.288751 196.351076 
L 108.52446 194.867136 
L 109.76017 189.335364 
L 110.995879 189.603599 
L 112.231588 190.360547 
L 113.467298 189.394825 
L 114.703007 190.342872 
L 115.938716 188.74688 
L 117.174426 192.084855 
L 118.410135 203.69443 
L 119.645845 208.628052 
L 120.881554 214.390906 
L 122.117263 214.306201 
L 123.352973 212.043229 
L 124.588682 210.791529 
L 125.824391 205.110817 
L 127.060101 194.096195 
L 128.29581 181.995215 
L 129.531519 177.300368 
L 130.767229 180.166067 
L 132.002938 188.02426 
L 133.238647 198.022962 
L 135.710066 213.03684 
L 136.945775 228.256977 
L 138.181485 235.194567 
L 139.417194 240.763189 
L 140.652903 244.49752 
L 141.888613 245.259188 
L 144.360031 250.498685 
L 145.595741 249.519384 
L 146.83145 249.59516 
L 148.067159 247.032432 
L 149.302869 241.548346 
L 150.538578 240.987516 
L 153.009997 234.646856 
L 154.245706 235.892398 
L 156.717125 226.256947 
L 157.952834 231.579139 
L 159.188543 236.122417 
L 160.424253 238.507266 
L 161.659962 242.782759 
L 162.895671 238.331566 
L 164.131381 232.634606 
L 165.36709 231.587191 
L 166.6028 239.646891 
L 167.838509 229.193149 
L 169.074218 229.040635 
L 170.309928 225.896331 
L 171.545637 217.632953 
L 172.781346 221.78581 
L 174.017056 212.266073 
L 175.252765 208.065956 
L 176.488474 206.313066 
L 177.724184 213.521109 
L 178.959893 226.061058 
L 180.195602 227.980673 
L 181.431312 222.980288 
L 182.667021 233.074257 
L 183.90273 221.710038 
L 185.13844 228.075685 
L 186.374149 230.662107 
L 187.609858 216.432907 
L 188.845568 221.898783 
L 190.081277 223.537176 
L 191.316986 218.034898 
L 192.552696 235.927619 
L 193.788405 230.806248 
L 195.024114 215.976432 
L 196.259824 216.679967 
L 197.495533 192.041922 
L 198.731242 192.910047 
L 199.966952 202.612348 
L 201.202661 185.877122 
L 202.43837 190.175906 
L 203.67408 204.536808 
L 204.909789 198.448671 
L 206.145498 209.676726 
L 207.381208 211.634562 
L 208.616917 199.686873 
L 209.852627 201.281933 
L 211.088336 206.126362 
L 212.324045 196.71423 
L 213.559755 197.268091 
L 214.795464 196.960725 
L 216.031173 183.923798 
L 217.266883 185.627441 
L 218.502592 185.325715 
L 219.738301 176.313222 
L 220.974011 174.670499 
L 222.20972 188.327129 
L 223.445429 180.177036 
L 225.916848 200.262414 
L 227.152557 183.839538 
L 228.388267 194.796847 
L 229.623976 198.049398 
L 230.859685 188.189868 
L 232.095395 200.271432 
L 233.331104 201.939318 
L 234.566813 207.269481 
L 235.802523 213.289999 
L 237.038232 204.949238 
L 238.273941 203.848238 
L 239.509651 195.139464 
L 240.74536 194.305696 
L 241.981069 193.674278 
L 243.216779 188.888776 
L 244.452488 191.5016 
L 245.688197 187.892686 
L 246.923907 198.041309 
L 248.159616 193.005785 
L 249.395325 187.405469 
L 250.631035 192.869183 
L 251.866744 188.066754 
L 253.102454 194.64471 
L 254.338163 194.587132 
L 255.573872 183.841066 
L 256.809582 186.599767 
L 258.045291 192.921842 
L 259.281 198.395901 
L 260.51671 211.065593 
L 262.988128 196.858291 
L 264.223838 195.13317 
L 265.459547 187.209652 
L 266.695256 185.572071 
L 267.930966 178.699715 
L 269.166675 175.832866 
L 270.402384 178.493445 
L 271.638094 178.184745 
L 272.873803 181.575194 
L 274.109512 185.331186 
L 275.345222 186.329848 
L 276.580931 196.546057 
L 277.81664 202.936162 
L 279.05235 204.510717 
L 280.288059 205.626636 
L 281.523768 203.868227 
L 282.759478 199.222196 
L 283.995187 195.776348 
L 285.230896 199.414406 
L 286.466606 201.670223 
L 287.702315 203.378204 
L 288.938024 210.206468 
L 290.173734 208.524885 
L 291.409443 210.766072 
L 292.645152 225.546373 
L 295.116571 229.083162 
L 296.35228 236.464788 
L 297.58799 237.497733 
L 298.823699 234.806213 
L 300.059409 221.777563 
L 301.295118 187.059161 
L 302.530827 156.996009 
L 303.766537 152.052377 
L 305.002246 173.746238 
L 306.237955 188.21243 
L 307.473665 199.845473 
L 308.709374 216.297816 
L 311.180793 244.014071 
L 312.416502 246.895303 
L 313.652211 234.888058 
L 314.887921 233.419403 
L 316.12363 239.247932 
L 317.359339 243.609469 
L 318.595049 252.205565 
L 319.830758 251.204953 
L 321.066467 244.342162 
L 322.302177 243.23247 
L 323.537886 243.18381 
L 324.773595 240.595936 
L 326.009305 244.706237 
L 327.245014 244.25254 
L 328.480723 241.813187 
L 329.716433 240.314936 
L 330.952142 246.039879 
L 332.187851 248.270489 
L 333.423561 250.000714 
L 334.65927 249.838473 
L 335.894979 243.336882 
L 337.130689 240.659262 
L 338.366398 232.232699 
L 339.602107 228.85032 
L 340.837817 221.92811 
L 342.073526 216.625799 
L 343.309236 224.341012 
L 344.544945 224.305296 
L 345.780654 232.157378 
L 347.016364 231.895875 
L 348.252073 230.002881 
L 349.487782 239.449318 
L 350.723492 231.67145 
L 351.959201 230.453386 
L 353.19491 232.608966 
L 354.43062 217.294661 
L 355.666329 218.652145 
L 356.902038 224.730893 
L 358.137748 226.036156 
L 359.373457 239.412963 
L 360.609166 246.900947 
L 361.844876 248.666268 
L 363.080585 247.606781 
L 364.316294 241.709108 
L 365.552004 238.715508 
L 366.787713 229.449148 
L 368.023422 228.566113 
L 369.259132 215.237231 
L 370.494841 199.101393 
L 371.73055 201.497978 
L 372.96626 196.262164 
L 374.201969 201.188106 
L 375.437678 211.008323 
L 376.673388 210.81501 
L 377.909097 216.028823 
L 379.144806 231.439145 
L 380.380516 235.037249 
L 381.616225 238.256773 
L 382.851934 239.534264 
L 384.087644 241.103387 
L 385.323353 237.564451 
L 385.323353 237.564451 
" clip-path="url(#p24130eec37)" style="fill: none; stroke: #d62728; stroke-width: 1.5; stroke-linecap: square"/>
   </g>
   <g id="line2d_21">
    <path d="M 29.439063 222.506149 
L 30.674772 229.225195 
L 31.910481 244.328125 
L 33.146191 247.402355 
L 35.617609 258.019032 
L 36.853319 257.295259 
L 38.089028 249.2435 
L 39.324737 246.974437 
L 40.560447 234.54074 
L 41.796156 231.861658 
L 43.031865 231.553594 
L 44.267575 227.717781 
L 45.503284 232.012654 
L 46.738993 247.643113 
L 49.210412 246.413994 
L 50.446121 251.305355 
L 51.681831 234.325278 
L 52.91754 214.484016 
L 54.153249 201.387908 
L 55.388959 163.586194 
L 56.624668 129.858474 
L 57.860377 141.397281 
L 59.096087 125.3209 
L 60.331796 134.972888 
L 61.567505 154.989431 
L 62.803215 158.76708 
L 64.038924 155.361922 
L 65.274633 182.873277 
L 66.510343 162.532711 
L 67.746052 145.998895 
L 68.981761 142.271252 
L 70.217471 131.739654 
L 71.45318 80.2958 
L 72.688889 74.469261 
L 73.924599 71.612377 
L 75.160308 73.369884 
L 76.396018 78.170446 
L 77.631727 92.205622 
L 78.867436 114.651386 
L 80.103146 126.98029 
L 81.338855 135.707335 
L 82.574564 141.820322 
L 83.810274 152.338799 
L 85.045983 155.572908 
L 86.281692 168.629853 
L 87.517402 177.501124 
L 88.753111 192.046346 
L 89.98882 191.863517 
L 91.22453 188.562489 
L 92.460239 191.603524 
L 93.695948 188.124556 
L 94.931658 181.447777 
L 96.167367 187.0666 
L 97.403076 187.0915 
L 98.638786 185.34807 
L 99.874495 189.913695 
L 101.110204 190.637736 
L 102.345914 188.763136 
L 104.817332 195.654061 
L 106.053042 195.075047 
L 107.288751 193.860278 
L 108.52446 194.307816 
L 109.76017 192.563919 
L 110.995879 191.542008 
L 113.467298 188.685177 
L 114.703007 188.893792 
L 115.938716 191.078975 
L 117.174426 192.074346 
L 118.410135 199.593102 
L 119.645845 204.565698 
L 120.881554 210.577143 
L 122.117263 212.428944 
L 123.352973 214.907852 
L 124.588682 210.23647 
L 125.824391 207.817891 
L 127.060101 196.188428 
L 128.29581 189.862088 
L 129.531519 182.770205 
L 130.767229 183.291563 
L 132.002938 181.712392 
L 133.238647 193.113415 
L 135.710066 211.463604 
L 138.181485 230.909798 
L 140.652903 242.063784 
L 141.888613 245.919887 
L 143.124322 246.583547 
L 144.360031 248.741635 
L 145.595741 249.036102 
L 146.83145 249.952996 
L 148.067159 247.98217 
L 149.302869 243.701758 
L 150.538578 241.373489 
L 151.774287 240.72956 
L 153.009997 235.993508 
L 155.481415 232.924776 
L 156.717125 229.099784 
L 157.952834 230.988135 
L 159.188543 235.724345 
L 160.424253 235.091221 
L 161.659962 238.923995 
L 162.895671 240.309621 
L 164.131381 236.532871 
L 165.36709 231.439783 
L 166.6028 239.832571 
L 167.838509 229.288225 
L 169.074218 229.025515 
L 170.309928 226.018762 
L 171.545637 229.776904 
L 172.781346 213.604985 
L 174.017056 215.680869 
L 175.252765 209.062995 
L 176.488474 214.984372 
L 177.724184 210.206824 
L 178.959893 219.314815 
L 180.195602 222.17396 
L 181.431312 226.369517 
L 182.667021 231.430807 
L 183.90273 225.577264 
L 185.13844 223.851206 
L 186.374149 228.555607 
L 187.609858 226.648719 
L 188.845568 216.031922 
L 190.081277 225.28565 
L 191.316986 220.640156 
L 192.552696 231.061495 
L 193.788405 227.73105 
L 195.024114 220.726004 
L 196.259824 215.037011 
L 197.495533 213.157231 
L 198.731242 191.720756 
L 199.966952 196.460668 
L 201.202661 191.350375 
L 202.43837 191.757527 
L 203.67408 201.836996 
L 204.909789 200.792232 
L 206.145498 197.550137 
L 207.381208 211.894043 
L 208.616917 208.846332 
L 209.852627 198.115669 
L 211.088336 203.773183 
L 212.324045 201.828184 
L 213.559755 197.214919 
L 214.795464 195.912493 
L 217.266883 185.115566 
L 218.502592 188.215948 
L 219.738301 179.230873 
L 220.974011 171.901027 
L 222.20972 188.619752 
L 223.445429 183.951829 
L 224.681139 183.070739 
L 225.916848 191.957715 
L 227.152557 195.323676 
L 228.388267 189.316525 
L 229.623976 197.266248 
L 230.859685 190.602066 
L 232.095395 195.331172 
L 233.331104 203.427593 
L 234.566813 207.153921 
L 235.802523 203.660003 
L 237.038232 208.209749 
L 238.273941 206.225655 
L 239.509651 201.968952 
L 240.74536 193.086981 
L 241.981069 192.080368 
L 243.216779 193.671134 
L 244.452488 192.037551 
L 245.688197 187.230909 
L 246.923907 195.127704 
L 248.159616 193.136595 
L 249.395325 190.879234 
L 250.631035 188.360647 
L 251.866744 195.259724 
L 253.102454 190.323195 
L 254.338163 192.16594 
L 255.573872 185.535827 
L 256.809582 190.356327 
L 258.045291 194.157665 
L 259.281 195.231943 
L 260.51671 199.805793 
L 261.752419 205.75506 
L 262.988128 201.980701 
L 264.223838 196.973377 
L 266.695256 184.857416 
L 267.930966 182.068236 
L 269.166675 180.423619 
L 270.402384 177.468219 
L 271.638094 177.562124 
L 272.873803 178.80059 
L 274.109512 185.690961 
L 275.345222 185.834271 
L 277.81664 198.87215 
L 279.05235 203.82049 
L 280.288059 202.259429 
L 281.523768 205.894119 
L 282.759478 200.979192 
L 283.995187 198.165651 
L 285.230896 198.124359 
L 286.466606 202.74615 
L 287.702315 200.578123 
L 288.938024 207.104849 
L 290.173734 208.241904 
L 291.409443 211.671763 
L 292.645152 220.244674 
L 293.880862 226.078778 
L 295.116571 223.863886 
L 296.35228 233.998962 
L 297.58799 240.383726 
L 298.823699 233.517676 
L 300.059409 219.293385 
L 301.295118 203.251104 
L 302.530827 183.622751 
L 303.766537 167.197618 
L 305.002246 165.252998 
L 306.237955 172.562654 
L 307.473665 194.202864 
L 308.709374 213.618043 
L 309.945083 226.041419 
L 311.180793 232.462632 
L 312.416502 241.448056 
L 313.652211 239.391526 
L 314.887921 238.737845 
L 316.12363 239.787062 
L 317.359339 241.114508 
L 318.595049 244.070253 
L 319.830758 251.48424 
L 322.302177 244.248661 
L 323.537886 243.731784 
L 324.773595 242.244278 
L 326.009305 242.65733 
L 327.245014 244.176889 
L 328.480723 242.605043 
L 329.716433 239.931252 
L 330.952142 246.935916 
L 332.187851 247.059347 
L 333.423561 247.328921 
L 334.65927 246.558014 
L 335.894979 249.176368 
L 337.130689 242.836748 
L 338.366398 234.590488 
L 339.602107 229.319501 
L 340.837817 227.373291 
L 342.073526 221.952487 
L 343.309236 220.862935 
L 344.544945 222.835301 
L 345.780654 230.068009 
L 347.016364 230.003639 
L 348.252073 231.284555 
L 349.487782 235.291923 
L 350.723492 235.670859 
L 351.959201 228.611926 
L 353.19491 231.859133 
L 354.43062 225.800643 
L 355.666329 218.691941 
L 356.902038 222.921585 
L 358.137748 228.392567 
L 359.373457 231.680575 
L 360.609166 242.787511 
L 361.844876 246.709389 
L 363.080585 246.472815 
L 364.316294 243.713377 
L 365.552004 242.251513 
L 366.787713 232.996184 
L 368.023422 230.328151 
L 369.259132 217.506195 
L 371.73055 202.444106 
L 372.96626 204.81148 
L 374.201969 193.751729 
L 375.437678 206.275183 
L 376.673388 211.656683 
L 377.909097 216.266542 
L 379.144806 223.305393 
L 380.380516 233.047093 
L 381.616225 233.898707 
L 382.851934 238.766741 
L 384.087644 242.515821 
L 385.323353 237.896497 
L 385.323353 237.896497 
" clip-path="url(#p24130eec37)" style="fill: none; stroke: #9467bd; stroke-width: 1.5; stroke-linecap: square"/>
   </g>
   <g id="line2d_22">
    <path d="M 29.439063 221.989476 
L 30.674772 228.904971 
L 31.910481 237.483987 
L 34.3819 250.133055 
L 36.853319 256.994611 
L 38.089028 253.038847 
L 40.560447 239.915086 
L 41.796156 236.632969 
L 43.031865 235.239876 
L 44.267575 227.68395 
L 45.503284 231.670455 
L 46.738993 240.522 
L 47.974703 246.901912 
L 49.210412 247.094508 
L 50.446121 245.135114 
L 51.681831 236.98727 
L 52.91754 227.417148 
L 54.153249 209.558869 
L 56.624668 154.479575 
L 57.860377 136.912814 
L 59.096087 136.626651 
L 60.331796 143.651398 
L 61.567505 138.702995 
L 62.803215 150.24993 
L 64.038924 157.637623 
L 65.274633 172.805614 
L 66.510343 172.308881 
L 67.746052 147.756838 
L 68.981761 139.424444 
L 70.217471 135.249771 
L 71.45318 118.380389 
L 72.688889 80.14313 
L 73.924599 68.347758 
L 75.160308 78.528388 
L 77.631727 83.731536 
L 78.867436 109.142714 
L 80.103146 114.016671 
L 81.338855 131.704446 
L 82.574564 137.894546 
L 83.810274 145.867244 
L 85.045983 159.375849 
L 86.281692 160.199988 
L 87.517402 173.774933 
L 88.753111 185.603024 
L 89.98882 187.691034 
L 92.460239 189.973888 
L 93.695948 189.661866 
L 94.931658 188.720384 
L 96.167367 183.420157 
L 97.403076 184.839306 
L 98.638786 187.32764 
L 99.874495 188.234936 
L 101.110204 190.808875 
L 102.345914 189.459306 
L 103.581623 189.315904 
L 104.817332 194.488321 
L 106.053042 196.222111 
L 107.288751 194.084129 
L 108.52446 192.551171 
L 109.76017 192.477858 
L 110.995879 193.836383 
L 112.231588 191.623847 
L 113.467298 188.740474 
L 114.703007 188.38451 
L 115.938716 189.755489 
L 117.174426 193.432394 
L 118.410135 198.363082 
L 119.645845 201.032618 
L 120.881554 206.925265 
L 122.117263 209.543013 
L 123.352973 213.252545 
L 124.588682 212.963095 
L 125.824391 207.846519 
L 128.29581 192.369156 
L 129.531519 189.197994 
L 132.002938 184.042107 
L 133.238647 187.198671 
L 136.945775 218.675332 
L 138.181485 224.780796 
L 139.417194 232.725185 
L 141.888613 243.690539 
L 143.124322 246.907814 
L 144.360031 247.474879 
L 145.595741 247.797075 
L 146.83145 249.480254 
L 148.067159 248.556817 
L 149.302869 245.08607 
L 150.538578 243.204053 
L 153.009997 238.815428 
L 155.481415 232.270423 
L 156.717125 231.130882 
L 157.952834 232.49656 
L 159.188543 234.57189 
L 160.424253 234.929153 
L 161.659962 236.028174 
L 162.895671 237.444895 
L 164.131381 238.514573 
L 165.36709 234.934333 
L 166.6028 238.395766 
L 167.838509 231.266365 
L 169.074218 229.132824 
L 170.309928 226.515892 
L 171.545637 229.239417 
L 172.781346 224.817696 
L 174.017056 209.621523 
L 175.252765 212.522123 
L 177.724184 216.641101 
L 178.959893 215.732855 
L 180.195602 217.061613 
L 181.431312 221.758769 
L 182.667021 232.710465 
L 183.90273 225.409058 
L 185.13844 226.675144 
L 186.374149 224.981941 
L 187.609858 225.516094 
L 188.845568 224.706134 
L 190.081277 219.993368 
L 191.316986 222.621729 
L 192.552696 230.960194 
L 193.788405 224.808205 
L 195.024114 219.699069 
L 196.259824 219.194515 
L 197.495533 212.348296 
L 198.731242 209.65087 
L 199.966952 194.907088 
L 201.202661 187.807324 
L 202.43837 195.211158 
L 203.67408 201.189777 
L 204.909789 199.121299 
L 206.145498 199.667689 
L 207.381208 201.664094 
L 208.616917 209.536309 
L 209.852627 206.137929 
L 211.088336 200.771985 
L 212.324045 200.539284 
L 213.559755 201.393693 
L 216.031173 190.557175 
L 217.266883 190.24811 
L 218.502592 187.367939 
L 219.738301 182.763564 
L 220.974011 175.139954 
L 222.20972 184.260041 
L 224.681139 185.693006 
L 225.916848 186.011723 
L 227.152557 189.053189 
L 228.388267 197.746163 
L 229.623976 192.377572 
L 230.859685 191.188962 
L 232.095395 196.093335 
L 233.331104 198.888857 
L 234.566813 207.49831 
L 237.038232 200.805821 
L 238.273941 208.713277 
L 239.509651 204.293783 
L 240.74536 199.221764 
L 241.981069 191.424833 
L 243.216779 192.344692 
L 244.452488 195.438584 
L 245.688197 188.410429 
L 246.923907 193.421343 
L 248.159616 191.466693 
L 249.395325 191.34645 
L 250.631035 191.086209 
L 251.866744 191.173373 
L 253.102454 195.888562 
L 254.338163 188.934661 
L 255.573872 184.957424 
L 258.045291 195.922878 
L 259.281 195.865522 
L 260.51671 196.964714 
L 261.752419 196.992366 
L 262.988128 203.993471 
L 264.223838 201.233957 
L 265.459547 193.29733 
L 266.695256 188.48751 
L 267.930966 182.050611 
L 269.166675 182.922867 
L 270.402384 180.997684 
L 271.638094 176.85942 
L 272.873803 178.181248 
L 274.109512 182.759312 
L 275.345222 186.049535 
L 276.580931 190.908696 
L 277.81664 194.995539 
L 279.05235 200.316108 
L 280.288059 202.053777 
L 281.523768 203.05515 
L 282.759478 203.188982 
L 283.995187 199.818307 
L 285.230896 199.700281 
L 286.466606 201.146293 
L 287.702315 201.664569 
L 288.938024 204.221356 
L 290.173734 205.956449 
L 291.409443 210.922625 
L 292.645152 219.423925 
L 293.880862 221.610325 
L 295.116571 223.37897 
L 296.35228 229.049003 
L 297.58799 237.766712 
L 298.823699 236.693885 
L 301.295118 204.185953 
L 302.530827 198.109798 
L 305.002246 175.034151 
L 306.237955 165.669523 
L 307.473665 180.766015 
L 308.709374 207.173387 
L 309.945083 222.415569 
L 311.180793 228.878611 
L 312.416502 232.116043 
L 313.652211 235.824645 
L 314.887921 241.744141 
L 316.12363 242.955834 
L 317.359339 241.247706 
L 318.595049 241.929208 
L 319.830758 244.83055 
L 321.066467 248.808845 
L 322.302177 247.351661 
L 323.537886 244.492239 
L 324.773595 242.862764 
L 326.009305 243.66558 
L 327.245014 242.552297 
L 328.480723 242.817807 
L 329.716433 240.92033 
L 330.952142 245.569599 
L 332.187851 247.629856 
L 333.423561 246.468575 
L 334.65927 244.839602 
L 335.894979 246.543437 
L 337.130689 247.840138 
L 338.366398 237.555391 
L 339.602107 231.830536 
L 340.837817 228.017048 
L 342.073526 226.505229 
L 343.309236 224.482092 
L 344.544945 220.162131 
L 345.780654 227.964603 
L 347.016364 228.595117 
L 348.252073 229.804007 
L 349.487782 235.451266 
L 350.723492 232.73684 
L 351.959201 232.56268 
L 353.19491 230.112794 
L 354.43062 226.306774 
L 355.666329 225.520005 
L 356.902038 222.253967 
L 358.137748 226.331124 
L 359.373457 232.637563 
L 360.609166 236.043033 
L 361.844876 243.321083 
L 363.080585 245.177288 
L 364.316294 243.392969 
L 365.552004 243.825994 
L 366.787713 237.09032 
L 368.023422 233.124849 
L 369.259132 221.039659 
L 370.494841 212.702705 
L 371.73055 210.684665 
L 372.96626 205.036894 
L 374.201969 201.452401 
L 375.437678 199.483568 
L 377.909097 216.050304 
L 379.144806 222.313926 
L 380.380516 226.144196 
L 381.616225 232.416854 
L 382.851934 235.082206 
L 384.087644 241.405172 
L 385.323353 239.654475 
L 385.323353 239.654475 
" clip-path="url(#p24130eec37)" style="fill: none; stroke: #8c564b; stroke-width: 1.5; stroke-linecap: square"/>
   </g>
   <g id="line2d_23">
    <path d="M 29.439063 224.216778 
L 30.674772 227.596136 
L 31.910481 236.094002 
L 33.146191 238.285498 
L 34.3819 247.009287 
L 35.617609 251.173405 
L 36.853319 253.38057 
L 38.089028 253.391419 
L 39.324737 250.111493 
L 40.560447 240.35466 
L 41.796156 240.873149 
L 43.031865 238.743918 
L 44.267575 231.524757 
L 45.503284 231.087585 
L 46.738993 239.084283 
L 47.974703 240.893702 
L 49.210412 246.996197 
L 50.446121 245.910647 
L 51.681831 233.085415 
L 52.91754 230.86679 
L 54.153249 221.875268 
L 55.388959 192.984554 
L 56.624668 172.579527 
L 57.860377 156.56697 
L 59.096087 133.393898 
L 60.331796 150.105108 
L 61.567505 145.513232 
L 62.803215 136.739153 
L 64.038924 150.483069 
L 65.274633 172.207681 
L 66.510343 164.739432 
L 67.746052 159.007124 
L 68.981761 141.932814 
L 70.217471 133.752243 
L 72.688889 113.209754 
L 73.924599 74.203567 
L 75.160308 74.821343 
L 76.396018 84.425418 
L 77.631727 85.512302 
L 78.867436 100.005778 
L 80.103146 109.382331 
L 81.338855 120.19955 
L 82.574564 134.191304 
L 83.810274 141.997781 
L 85.045983 153.047456 
L 86.281692 162.735832 
L 87.517402 166.052801 
L 88.753111 181.433711 
L 89.98882 182.665304 
L 91.22453 185.684395 
L 92.460239 190.052933 
L 93.695948 188.528151 
L 94.931658 189.949308 
L 96.167367 189.323584 
L 97.403076 181.997329 
L 98.638786 185.368481 
L 99.874495 189.494891 
L 101.110204 189.251731 
L 102.345914 189.776067 
L 103.581623 189.831957 
L 104.817332 191.63289 
L 106.053042 195.146246 
L 107.288751 195.216294 
L 108.52446 192.932486 
L 109.76017 191.218756 
L 110.995879 193.58218 
L 112.231588 193.580143 
L 113.467298 190.258975 
L 114.703007 188.474989 
L 115.938716 189.198645 
L 117.174426 191.981943 
L 118.410135 198.601115 
L 119.645845 199.784621 
L 120.881554 203.618883 
L 122.117263 206.544268 
L 123.352973 210.681256 
L 124.588682 211.804545 
L 125.824391 210.573035 
L 127.060101 201.272819 
L 129.531519 191.453746 
L 130.767229 191.567199 
L 132.002938 186.873421 
L 133.238647 188.362043 
L 134.474357 191.892493 
L 136.945775 214.499122 
L 138.181485 222.158824 
L 139.417194 227.322903 
L 140.652903 234.922937 
L 141.888613 240.308315 
L 143.124322 244.880253 
L 144.360031 247.623529 
L 145.595741 246.836933 
L 146.83145 248.36133 
L 148.067159 248.346486 
L 149.302869 246.014508 
L 150.538578 244.469403 
L 151.774287 242.710852 
L 153.009997 239.410904 
L 154.245706 238.158751 
L 155.481415 233.598803 
L 156.717125 230.819473 
L 157.952834 233.710105 
L 159.188543 235.321048 
L 160.424253 234.048867 
L 161.659962 235.757231 
L 162.895671 235.145673 
L 164.131381 236.280027 
L 165.36709 236.891486 
L 166.6028 240.248563 
L 167.838509 231.206691 
L 169.074218 230.855381 
L 170.309928 226.97232 
L 171.545637 229.200263 
L 172.781346 225.060755 
L 174.017056 220.171876 
L 175.252765 207.679122 
L 176.488474 216.719103 
L 177.724184 216.123738 
L 178.959893 220.271379 
L 180.195602 214.26839 
L 181.431312 217.436337 
L 182.667021 228.104504 
L 183.90273 227.449084 
L 185.13844 226.376218 
L 186.374149 227.223636 
L 187.609858 222.819885 
L 188.845568 223.999794 
L 190.081277 226.684388 
L 191.316986 218.385403 
L 192.552696 231.107781 
L 193.788405 225.63427 
L 195.024114 218.212387 
L 196.259824 218.52415 
L 197.495533 216.383034 
L 198.731242 209.44702 
L 199.966952 209.664523 
L 201.202661 187.671964 
L 202.43837 191.709338 
L 203.67408 202.671045 
L 204.909789 198.947973 
L 206.145498 198.387136 
L 207.381208 202.852002 
L 208.616917 201.008475 
L 209.852627 207.131896 
L 211.088336 207.18111 
L 212.324045 198.380668 
L 213.559755 200.348606 
L 214.795464 199.87207 
L 216.031173 191.497092 
L 217.266883 190.446999 
L 218.502592 191.399083 
L 219.738301 182.804438 
L 220.974011 178.836405 
L 222.20972 185.145917 
L 223.445429 181.658839 
L 224.681139 186.284838 
L 225.916848 187.806378 
L 227.152557 184.297498 
L 228.388267 192.130815 
L 229.623976 199.063592 
L 230.859685 187.727666 
L 232.095395 195.808404 
L 233.331104 199.024939 
L 234.566813 203.154815 
L 235.802523 204.902638 
L 237.038232 201.663825 
L 238.273941 202.345891 
L 239.509651 206.736348 
L 243.216779 191.746216 
L 244.452488 194.064329 
L 245.688197 191.922213 
L 246.923907 193.527147 
L 248.159616 190.499864 
L 249.395325 190.157175 
L 250.631035 191.456708 
L 251.866744 193.073793 
L 253.102454 192.318328 
L 254.338163 193.959995 
L 255.573872 183.119016 
L 258.045291 195.385749 
L 259.281 197.120655 
L 260.51671 197.255697 
L 261.752419 194.920628 
L 262.988128 196.680503 
L 264.223838 203.076989 
L 265.459547 197.57802 
L 266.695256 190.830877 
L 267.930966 185.624953 
L 269.166675 182.786056 
L 270.402384 183.053444 
L 271.638094 179.987536 
L 272.873803 177.492985 
L 274.109512 181.681811 
L 275.345222 183.494688 
L 276.580931 190.37394 
L 279.05235 196.827227 
L 280.288059 199.273135 
L 281.523768 202.7665 
L 282.759478 201.103242 
L 283.995187 201.896283 
L 285.230896 200.885534 
L 286.466606 202.043694 
L 287.702315 200.439377 
L 288.938024 204.616121 
L 290.173734 203.633554 
L 291.409443 208.62509 
L 292.645152 217.74467 
L 293.880862 220.720925 
L 295.116571 219.863341 
L 296.35228 227.927071 
L 297.58799 233.158476 
L 298.823699 234.910488 
L 300.059409 225.785975 
L 301.295118 207.941713 
L 302.530827 199.687402 
L 303.766537 198.707123 
L 305.002246 190.269042 
L 306.237955 174.012436 
L 307.473665 174.001014 
L 309.945083 216.068495 
L 311.180793 225.453198 
L 312.416502 229.092188 
L 313.652211 228.265121 
L 314.887921 238.433858 
L 316.12363 244.842663 
L 317.359339 243.724589 
L 318.595049 241.926549 
L 319.830758 242.904976 
L 321.066467 243.356351 
L 322.302177 248.122206 
L 323.537886 247.117699 
L 324.773595 243.645552 
L 326.009305 243.986768 
L 327.245014 243.433191 
L 328.480723 241.603178 
L 329.716433 241.348576 
L 330.952142 245.588154 
L 333.423561 247.045601 
L 334.65927 244.443331 
L 337.130689 245.747859 
L 338.366398 242.868152 
L 339.602107 234.842259 
L 340.837817 230.38515 
L 342.073526 227.185875 
L 343.309236 227.958074 
L 344.544945 223.389952 
L 345.780654 225.05755 
L 347.016364 226.98329 
L 348.252073 228.624362 
L 349.487782 233.647225 
L 350.723492 233.246031 
L 351.959201 230.430796 
L 353.19491 233.251507 
L 354.43062 225.549898 
L 355.666329 225.995159 
L 356.902038 227.465659 
L 358.137748 225.295127 
L 359.373457 230.343622 
L 360.609166 236.22079 
L 361.844876 237.527549 
L 363.080585 242.454916 
L 364.316294 242.69455 
L 365.552004 243.535674 
L 366.787713 239.268226 
L 368.023422 236.622724 
L 369.259132 225.01847 
L 370.494841 216.551369 
L 371.73055 213.028343 
L 372.96626 211.640465 
L 374.201969 202.135661 
L 375.437678 205.063105 
L 376.673388 201.700388 
L 377.909097 212.108094 
L 379.144806 221.294101 
L 380.380516 224.91422 
L 381.616225 226.586756 
L 382.851934 233.659203 
L 384.087644 237.965307 
L 385.323353 239.090415 
L 385.323353 239.090415 
" clip-path="url(#p24130eec37)" style="fill: none; stroke: #e377c2; stroke-width: 1.5; stroke-linecap: square"/>
   </g>
   <g id="patch_3">
    <path d="M 29.439063 284.991437 
L 29.439063 18.879437 
" style="fill: none; stroke: #000000; stroke-width: 0.8; stroke-linejoin: miter; stroke-linecap: square"/>
   </g>
   <g id="patch_4">
    <path d="M 386.559062 284.991437 
L 386.559062 18.879437 
" style="fill: none; stroke: #000000; stroke-width: 0.8; stroke-linejoin: miter; stroke-linecap: square"/>
   </g>
   <g id="patch_5">
    <path d="M 29.439063 284.991437 
L 386.559063 284.991437 
" style="fill: none; stroke: #000000; stroke-width: 0.8; stroke-linejoin: miter; stroke-linecap: square"/>
   </g>
   <g id="patch_6">
    <path d="M 29.439063 18.879437 
L 386.559063 18.879437 
" style="fill: none; stroke: #000000; stroke-width: 0.8; stroke-linejoin: miter; stroke-linecap: square"/>
   </g>
   <g id="legend_1">
    <g id="patch_7">
     <path d="M 341.260625 127.613812 
L 379.559062 127.613812 
Q 381.559062 127.613812 381.559062 125.613812 
L 381.559062 25.879437 
Q 381.559062 23.879437 379.559062 23.879437 
L 341.260625 23.879437 
Q 339.260625 23.879437 339.260625 25.879437 
L 339.260625 125.613812 
Q 339.260625 127.613812 341.260625 127.613812 
z
" style="fill: #ffffff; opacity: 0.8; stroke: #cccccc; stroke-linejoin: miter"/>
    </g>
    <g id="line2d_24">
     <path d="M 343.260625 31.870062 
L 353.260625 31.870062 
L 363.260625 31.870062 
" style="fill: none; stroke: #1f77b4; stroke-width: 1.5; stroke-linecap: square"/>
    </g>
    <g id="text_16">
     <!-- 1 -->
     <g transform="translate(371.260625 35.370062) scale(0.1 -0.1)">
      <use xlink:href="#IPAexGothic-31"/>
     </g>
    </g>
    <g id="line2d_25">
     <path d="M 343.260625 46.260687 
L 353.260625 46.260687 
L 363.260625 46.260687 
" style="fill: none; stroke: #ff7f0e; stroke-width: 1.5; stroke-linecap: square"/>
    </g>
    <g id="text_17">
     <!-- 2 -->
     <g transform="translate(371.260625 49.760687) scale(0.1 -0.1)">
      <use xlink:href="#IPAexGothic-32"/>
     </g>
    </g>
    <g id="line2d_26">
     <path d="M 343.260625 60.651312 
L 353.260625 60.651312 
L 363.260625 60.651312 
" style="fill: none; stroke: #2ca02c; stroke-width: 1.5; stroke-linecap: square"/>
    </g>
    <g id="text_18">
     <!-- 3 -->
     <g transform="translate(371.260625 64.151312) scale(0.1 -0.1)">
      <use xlink:href="#IPAexGothic-33"/>
     </g>
    </g>
    <g id="line2d_27">
     <path d="M 343.260625 75.041937 
L 353.260625 75.041937 
L 363.260625 75.041937 
" style="fill: none; stroke: #d62728; stroke-width: 1.5; stroke-linecap: square"/>
    </g>
    <g id="text_19">
     <!-- 4 -->
     <g transform="translate(371.260625 78.541937) scale(0.1 -0.1)">
      <defs>
       <path id="IPAexGothic-34" d="M 3813 1159 
L 3059 1159 
L 3059 63 
L 2547 63 
L 2547 1159 
L 197 1159 
L 197 1672 
L 2456 4678 
L 3059 4678 
L 3059 1634 
L 3813 1634 
L 3813 1159 
z
M 2578 4109 
L 2559 4109 
Q 2278 3656 2003 3284 
L 759 1634 
L 2547 1634 
L 2547 3144 
Q 2547 3481 2578 4109 
z
" transform="scale(0.015625)"/>
      </defs>
      <use xlink:href="#IPAexGothic-34"/>
     </g>
    </g>
    <g id="line2d_28">
     <path d="M 343.260625 89.432562 
L 353.260625 89.432562 
L 363.260625 89.432562 
" style="fill: none; stroke: #9467bd; stroke-width: 1.5; stroke-linecap: square"/>
    </g>
    <g id="text_20">
     <!-- 5 -->
     <g transform="translate(371.260625 92.932562) scale(0.1 -0.1)">
      <use xlink:href="#IPAexGothic-35"/>
     </g>
    </g>
    <g id="line2d_29">
     <path d="M 343.260625 103.823187 
L 353.260625 103.823187 
L 363.260625 103.823187 
" style="fill: none; stroke: #8c564b; stroke-width: 1.5; stroke-linecap: square"/>
    </g>
    <g id="text_21">
     <!-- 6 -->
     <g transform="translate(371.260625 107.323187) scale(0.1 -0.1)">
      <defs>
       <path id="IPAexGothic-36" d="M 1056 2328 
Q 1509 2981 2234 2981 
Q 2906 2981 3316 2513 
Q 3675 2106 3675 1522 
Q 3675 884 3272 434 
Q 2853 -31 2178 -31 
Q 1375 -31 922 581 
Q 481 1178 481 2228 
Q 481 3425 1013 4109 
Q 1494 4725 2272 4725 
Q 3191 4725 3609 4025 
L 3150 3775 
Q 2894 4266 2300 4266 
Q 1119 4266 1031 2328 
L 1056 2328 
z
M 2141 2547 
Q 1684 2547 1384 2206 
Q 1116 1900 1116 1541 
Q 1116 1156 1353 844 
Q 1672 428 2159 428 
Q 2669 428 2941 844 
Q 3125 1128 3125 1503 
Q 3125 1944 2881 2228 
Q 2600 2547 2141 2547 
z
" transform="scale(0.015625)"/>
      </defs>
      <use xlink:href="#IPAexGothic-36"/>
     </g>
    </g>
    <g id="line2d_30">
     <path d="M 343.260625 118.213812 
L 353.260625 118.213812 
L 363.260625 118.213812 
" style="fill: none; stroke: #e377c2; stroke-width: 1.5; stroke-linecap: square"/>
    </g>
    <g id="text_22">
     <!-- 7 -->
     <g transform="translate(371.260625 121.713812) scale(0.1 -0.1)">
      <defs>
       <path id="IPAexGothic-37" d="M 3597 4263 
Q 2238 2106 1778 63 
L 1131 63 
Q 1581 1834 2950 4128 
L 428 4128 
L 428 4634 
L 3597 4634 
L 3597 4263 
z
" transform="scale(0.015625)"/>
      </defs>
      <use xlink:href="#IPAexGothic-37"/>
     </g>
    </g>
   </g>
  </g>
  <g id="axes_2">
   <g id="matplotlib.axis_3"/>
   <g id="patch_8">
    <path d="M 29.439063 284.991437 
L 29.439063 18.879437 
" style="fill: none; stroke: #000000; stroke-width: 0.8; stroke-linejoin: miter; stroke-linecap: square"/>
   </g>
   <g id="patch_9">
    <path d="M 386.559062 284.991437 
L 386.559062 18.879437 
" style="fill: none; stroke: #000000; stroke-width: 0.8; stroke-linejoin: miter; stroke-linecap: square"/>
   </g>
   <g id="patch_10">
    <path d="M 29.439063 284.991437 
L 386.559063 284.991437 
" style="fill: none; stroke: #000000; stroke-width: 0.8; stroke-linejoin: miter; stroke-linecap: square"/>
   </g>
   <g id="patch_11">
    <path d="M 29.439063 18.879437 
L 386.559063 18.879437 
" style="fill: none; stroke: #000000; stroke-width: 0.8; stroke-linejoin: miter; stroke-linecap: square"/>
   </g>
  </g>
  <g id="text_23">
   <!-- : 2023/03/16 16:14:57(JST) -->
   <g transform="translate(211.087188 15.423437) scale(0.1 -0.1)">
    <defs>
     <path id="IPAexGothic-66f4" d="M 2956 3994 
L 2956 4588 
L 513 4588 
L 513 4984 
L 5881 4984 
L 5881 4588 
L 3413 4588 
L 3413 3994 
L 5300 3994 
L 5300 1288 
L 4838 1288 
L 4838 1759 
L 3406 1759 
Q 3384 1125 3150 709 
Q 4291 244 5997 31 
L 5694 -428 
Q 4109 -166 2906 384 
Q 2294 -266 744 -488 
L 494 -66 
Q 1903 59 2491 588 
Q 2041 813 1594 1166 
L 1928 1434 
Q 2331 1106 2747 897 
Q 2922 1219 2950 1759 
L 1556 1759 
L 1556 1413 
L 1097 1413 
L 1097 3994 
L 2956 3994 
z
M 2956 3609 
L 1556 3609 
L 1556 3078 
L 2956 3078 
L 2956 3609 
z
M 3413 3609 
L 3413 3078 
L 4838 3078 
L 4838 3609 
L 3413 3609 
z
M 2956 2700 
L 1556 2700 
L 1556 2144 
L 2956 2144 
L 2956 2700 
z
M 3413 2700 
L 3413 2144 
L 4838 2144 
L 4838 2700 
L 3413 2700 
z
" transform="scale(0.015625)"/>
     <path id="IPAexGothic-65b0" d="M 3891 2803 
Q 3881 1759 3794 1166 
Q 3653 197 3097 -563 
L 2741 -250 
Q 3450 700 3450 2631 
L 3450 4647 
Q 3516 4656 3622 4666 
Q 4656 4778 5447 5063 
L 5825 4678 
Q 4897 4419 3891 4294 
L 3891 3219 
L 6119 3219 
L 6119 2803 
L 5275 2803 
L 5275 -447 
L 4834 -447 
L 4834 2803 
L 3891 2803 
z
M 2822 4069 
Q 2678 3572 2519 3181 
L 3250 3181 
L 3250 2784 
L 2059 2784 
L 2059 2216 
L 3184 2216 
L 3184 1831 
L 2059 1831 
L 2059 1544 
Q 2613 1197 3031 847 
L 2781 456 
Q 2472 791 2059 1128 
L 2059 -447 
L 1644 -447 
L 1644 1294 
Q 1272 628 575 -31 
L 269 341 
Q 1041 938 1528 1831 
L 453 1831 
L 453 2216 
L 1644 2216 
L 1644 2784 
L 319 2784 
L 319 3181 
L 1125 3181 
Q 1013 3706 881 4069 
L 453 4069 
L 453 4453 
L 1631 4453 
L 1631 5309 
L 2072 5309 
L 2072 4453 
L 3166 4453 
L 3166 4069 
L 2822 4069 
z
M 2391 4069 
L 1325 4069 
Q 1450 3672 1534 3181 
L 2109 3181 
Q 2294 3659 2391 4069 
z
" transform="scale(0.015625)"/>
     <path id="IPAexGothic-65e5" d="M 5231 4800 
L 5231 -288 
L 4744 -288 
L 4744 128 
L 1647 128 
L 1647 -288 
L 1159 -288 
L 1159 4800 
L 5231 4800 
z
M 1647 4372 
L 1647 2731 
L 4744 2731 
L 4744 4372 
L 1647 4372 
z
M 1647 2297 
L 1647 556 
L 4744 556 
L 4744 2297 
L 1647 2297 
z
" transform="scale(0.015625)"/>
     <path id="IPAexGothic-6642" d="M 2328 4728 
L 2328 563 
L 934 563 
L 934 56 
L 519 56 
L 519 4728 
L 2328 4728 
z
M 934 4331 
L 934 2881 
L 1906 2881 
L 1906 4331 
L 934 4331 
z
M 934 2497 
L 934 953 
L 1906 953 
L 1906 2497 
L 934 2497 
z
M 3938 4372 
L 3938 5313 
L 4378 5313 
L 4378 4372 
L 5772 4372 
L 5772 3981 
L 4378 3981 
L 4378 3194 
L 6072 3194 
L 6072 2803 
L 5203 2803 
L 5203 2047 
L 5959 2047 
L 5959 1650 
L 5216 1650 
L 5216 31 
Q 5216 -447 4691 -447 
Q 4394 -447 3888 -391 
L 3784 78 
Q 4272 0 4591 0 
Q 4775 0 4775 172 
L 4775 1650 
L 2581 1650 
L 2581 2047 
L 4763 2047 
L 4763 2803 
L 2538 2803 
L 2538 3194 
L 3938 3194 
L 3938 3981 
L 2716 3981 
L 2716 4372 
L 3938 4372 
z
M 3669 384 
Q 3331 950 2956 1325 
L 3291 1575 
Q 3719 1147 4025 659 
L 3669 384 
z
" transform="scale(0.015625)"/>
     <path id="IPAexGothic-3a" d="M 1369 2559 
L 672 2559 
L 672 3250 
L 1369 3250 
L 1369 2559 
z
M 1369 63 
L 672 63 
L 672 753 
L 1369 753 
L 1369 63 
z
" transform="scale(0.015625)"/>
     <path id="IPAexGothic-20" transform="scale(0.015625)"/>
     <path id="IPAexGothic-2f" d="M 2719 4709 
L 600 -884 
L 300 -763 
L 2413 4831 
L 2719 4709 
z
" transform="scale(0.015625)"/>
     <path id="IPAexGothic-28" d="M 1928 -1016 
L 1653 -1166 
Q 488 69 488 1875 
Q 488 3678 1653 4909 
L 1928 4763 
Q 1006 3522 1006 1881 
Q 1006 203 1928 -1016 
z
" transform="scale(0.015625)"/>
     <path id="IPAexGothic-54" d="M 3866 4141 
L 2175 4141 
L 2175 63 
L 1606 63 
L 1606 4141 
L -31 4141 
L -31 4634 
L 3866 4634 
L 3866 4141 
z
" transform="scale(0.015625)"/>
     <path id="IPAexGothic-29" d="M 466 4909 
Q 1638 3672 1638 1875 
Q 1638 75 466 -1166 
L 191 -1016 
Q 1119 216 1119 1881 
Q 1119 3509 191 4763 
L 466 4909 
z
" transform="scale(0.015625)"/>
    </defs>
    <use xlink:href="#IPAexGothic-66f4"/>
    <use xlink:href="#IPAexGothic-65b0" x="100"/>
    <use xlink:href="#IPAexGothic-65e5" x="200"/>
    <use xlink:href="#IPAexGothic-6642" x="300"/>
    <use xlink:href="#IPAexGothic-3a" x="400"/>
    <use xlink:href="#IPAexGothic-20" x="431.982422"/>
    <use xlink:href="#IPAexGothic-32" x="458.984375"/>
    <use xlink:href="#IPAexGothic-30" x="521.972656"/>
    <use xlink:href="#IPAexGothic-32" x="584.960938"/>
    <use xlink:href="#IPAexGothic-33" x="647.949219"/>
    <use xlink:href="#IPAexGothic-2f" x="710.9375"/>
    <use xlink:href="#IPAexGothic-30" x="760.9375"/>
    <use xlink:href="#IPAexGothic-33" x="823.925781"/>
    <use xlink:href="#IPAexGothic-2f" x="886.914062"/>
    <use xlink:href="#IPAexGothic-31" x="936.914062"/>
    <use xlink:href="#IPAexGothic-36" x="999.902344"/>
    <use xlink:href="#IPAexGothic-20" x="1062.890625"/>
    <use xlink:href="#IPAexGothic-31" x="1089.892578"/>
    <use xlink:href="#IPAexGothic-36" x="1152.880859"/>
    <use xlink:href="#IPAexGothic-3a" x="1215.869141"/>
    <use xlink:href="#IPAexGothic-31" x="1247.851562"/>
    <use xlink:href="#IPAexGothic-34" x="1310.839844"/>
    <use xlink:href="#IPAexGothic-3a" x="1373.828125"/>
    <use xlink:href="#IPAexGothic-35" x="1405.810547"/>
    <use xlink:href="#IPAexGothic-37" x="1468.798828"/>
    <use xlink:href="#IPAexGothic-28" x="1531.787109"/>
    <use xlink:href="#IPAexGothic-4a" x="1565.087891"/>
    <use xlink:href="#IPAexGothic-53" x="1603.076172"/>
    <use xlink:href="#IPAexGothic-54" x="1661.572266"/>
    <use xlink:href="#IPAexGothic-29" x="1721.484375"/>
   </g>
  </g>
 </g>
 <defs>
  <clipPath id="p24130eec37">
   <rect x="29.439063" y="18.879437" width="357.12" height="266.112"/>
  </clipPath>
 </defs>
</svg>
