<?xml version="1.0" encoding="utf-8" standalone="no"?>
<!DOCTYPE svg PUBLIC "-//W3C//DTD SVG 1.1//EN"
  "http://www.w3.org/Graphics/SVG/1.1/DTD/svg11.dtd">
<svg xmlns:xlink="http://www.w3.org/1999/xlink" width="399.252322pt" height="308.582062pt" viewBox="0 0 399.252322 308.582062" xmlns="http://www.w3.org/2000/svg" version="1.1">
 <metadata>
  <rdf:RDF xmlns:dc="http://purl.org/dc/elements/1.1/" xmlns:cc="http://creativecommons.org/ns#" xmlns:rdf="http://www.w3.org/1999/02/22-rdf-syntax-ns#">
   <cc:Work>
    <dc:type rdf:resource="http://purl.org/dc/dcmitype/StillImage"/>
    <dc:date>2023-05-04T07:13:58.874960</dc:date>
    <dc:format>image/svg+xml</dc:format>
    <dc:creator>
     <cc:Agent>
      <dc:title>Matplotlib v3.7.1, https://matplotlib.org/</dc:title>
     </cc:Agent>
    </dc:creator>
   </cc:Work>
  </rdf:RDF>
 </metadata>
 <defs>
  <style type="text/css">*{stroke-linejoin: round; stroke-linecap: butt}</style>
 </defs>
 <g id="figure_1">
  <g id="patch_1">
   <path d="M 0 308.582062 
L 399.252322 308.582062 
L 399.252322 0 
L 0 0 
z
" style="fill: #ffffff"/>
  </g>
  <g id="axes_1">
   <g id="patch_2">
    <path d="M 29.439063 284.991437 
L 386.559062 284.991437 
L 386.559062 18.879437 
L 29.439063 18.879437 
z
" style="fill: #ffffff"/>
   </g>
   <g id="line2d_1">
    <path d="M 29.439063 211.199039 
L 386.559062 211.199039 
" clip-path="url(#pb38bd85be5)" style="fill: none; stroke: #000000; stroke-linecap: square"/>
   </g>
   <g id="matplotlib.axis_1">
    <g id="xtick_1">
     <g id="line2d_2">
      <defs>
       <path id="m73853a4a71" d="M 0 0 
L 0 3.5 
" style="stroke: #000000; stroke-width: 0.8"/>
      </defs>
      <g>
       <use xlink:href="#m73853a4a71" x="29.439063" y="284.991437" style="stroke: #000000; stroke-width: 0.8"/>
      </g>
     </g>
     <g id="text_1">
      <!-- Jun -->
      <g transform="translate(21.499219 299.482062) scale(0.1 -0.1)">
       <defs>
        <path id="IPAexGothic-4a" d="M 1819 4634 
L 1819 1234 
Q 1819 -31 763 -31 
Q 303 -31 -125 209 
L 84 644 
Q 378 447 694 447 
Q 1250 447 1250 1203 
L 1250 4634 
L 1819 4634 
z
" transform="scale(0.015625)"/>
        <path id="IPAexGothic-75" d="M 3284 63 
L 2772 63 
L 2772 644 
Q 2300 0 1625 0 
Q 1072 0 763 375 
Q 519 678 519 1241 
L 519 3250 
L 1069 3250 
L 1069 1259 
Q 1069 466 1734 466 
Q 2406 466 2734 1291 
L 2734 3250 
L 3284 3250 
L 3284 63 
z
" transform="scale(0.015625)"/>
        <path id="IPAexGothic-6e" d="M 3328 63 
L 2778 63 
L 2778 2041 
Q 2778 2853 2106 2853 
Q 1428 2853 1113 2041 
L 1113 63 
L 563 63 
L 563 3250 
L 1075 3250 
L 1075 2675 
Q 1525 3316 2222 3316 
Q 3328 3316 3328 2072 
L 3328 63 
z
" transform="scale(0.015625)"/>
       </defs>
       <use xlink:href="#IPAexGothic-4a"/>
       <use xlink:href="#IPAexGothic-75" x="37.988281"/>
       <use xlink:href="#IPAexGothic-6e" x="98.388672"/>
      </g>
     </g>
    </g>
    <g id="xtick_2">
     <g id="line2d_3">
      <g>
       <use xlink:href="#m73853a4a71" x="61.136104" y="284.991437" style="stroke: #000000; stroke-width: 0.8"/>
      </g>
     </g>
     <g id="text_2">
      <!-- Jul -->
      <g transform="translate(54.866573 299.482062) scale(0.1 -0.1)">
       <defs>
        <path id="IPAexGothic-6c" d="M 1131 63 
L 581 63 
L 581 4794 
L 1131 4794 
L 1131 63 
z
" transform="scale(0.015625)"/>
       </defs>
       <use xlink:href="#IPAexGothic-4a"/>
       <use xlink:href="#IPAexGothic-75" x="37.988281"/>
       <use xlink:href="#IPAexGothic-6c" x="98.388672"/>
      </g>
     </g>
    </g>
    <g id="xtick_3">
     <g id="line2d_4">
      <g>
       <use xlink:href="#m73853a4a71" x="93.889713" y="284.991437" style="stroke: #000000; stroke-width: 0.8"/>
      </g>
     </g>
     <g id="text_3">
      <!-- Aug -->
      <g transform="translate(84.907682 299.42425) scale(0.1 -0.1)">
       <defs>
        <path id="IPAexGothic-41" d="M 4056 63 
L 3444 63 
L 2938 1409 
L 1100 1409 
L 603 63 
L -6 63 
L 1806 4666 
L 2259 4666 
L 4056 63 
z
M 2778 1863 
L 2316 3078 
Q 2125 3588 2028 4000 
L 2009 4000 
Q 1897 3563 1716 3078 
L 1263 1863 
L 2778 1863 
z
" transform="scale(0.015625)"/>
        <path id="IPAexGothic-67" d="M 1331 1150 
Q 1006 1122 1006 900 
Q 1006 613 1763 575 
L 2131 556 
Q 3303 497 3303 -294 
Q 3303 -700 2925 -959 
Q 2519 -1253 1794 -1253 
Q 1138 -1253 738 -1028 
Q 353 -809 353 -428 
Q 353 84 1075 247 
L 1075 269 
Q 506 413 506 778 
Q 506 1116 994 1297 
Q 456 1575 456 2181 
Q 456 2650 769 2963 
Q 1128 3322 1738 3322 
Q 2125 3322 2422 3153 
Q 2650 3453 3259 3463 
L 3259 3013 
Q 2838 3003 2703 2938 
Q 3034 2613 3034 2169 
Q 3034 1728 2734 1425 
Q 2400 1094 1813 1094 
Q 1563 1094 1331 1150 
z
M 1734 2919 
Q 1409 2919 1197 2706 
Q 988 2497 988 2181 
Q 988 1872 1184 1684 
Q 1397 1472 1756 1472 
Q 2094 1472 2297 1678 
Q 2503 1881 2503 2203 
Q 2503 2497 2297 2700 
Q 2081 2919 1734 2919 
z
M 1753 159 
Q 903 159 903 -366 
Q 903 -875 1800 -875 
Q 2378 -875 2638 -606 
Q 2772 -481 2772 -313 
Q 2772 159 1753 159 
z
" transform="scale(0.015625)"/>
       </defs>
       <use xlink:href="#IPAexGothic-41"/>
       <use xlink:href="#IPAexGothic-75" x="63.720703"/>
       <use xlink:href="#IPAexGothic-67" x="124.121094"/>
      </g>
     </g>
    </g>
    <g id="xtick_4">
     <g id="line2d_5">
      <g>
       <use xlink:href="#m73853a4a71" x="126.643323" y="284.991437" style="stroke: #000000; stroke-width: 0.8"/>
      </g>
     </g>
     <g id="text_4">
      <!-- Sep -->
      <g transform="translate(117.768323 299.482062) scale(0.1 -0.1)">
       <defs>
        <path id="IPAexGothic-53" d="M 2919 3641 
Q 2563 4259 1853 4259 
Q 1453 4259 1213 4009 
Q 1028 3803 1028 3534 
Q 1028 3238 1266 3047 
Q 1444 2913 1984 2688 
L 2200 2597 
Q 2925 2306 3191 1953 
Q 3422 1644 3422 1259 
Q 3422 644 2969 288 
Q 2559 -31 1931 -31 
Q 881 -31 313 766 
L 753 1100 
Q 1203 459 1938 459 
Q 2288 459 2534 625 
Q 2841 847 2841 1216 
Q 2841 1503 2616 1728 
Q 2375 1959 1728 2206 
L 1541 2278 
Q 453 2694 453 3481 
Q 453 4006 806 4347 
Q 1203 4725 1863 4725 
Q 2841 4725 3359 3956 
L 2919 3641 
z
" transform="scale(0.015625)"/>
        <path id="IPAexGothic-65" d="M 863 1594 
Q 891 1041 1209 722 
Q 1534 397 1997 397 
Q 2606 397 2963 966 
L 3322 728 
Q 2869 -31 1931 -31 
Q 1222 -31 766 422 
Q 306 884 306 1641 
Q 306 2444 788 2925 
Q 1216 3353 1856 3353 
Q 2459 3353 2866 2956 
Q 3322 2494 3322 1722 
L 3322 1594 
L 863 1594 
z
M 2756 1997 
Q 2709 2431 2450 2681 
Q 2194 2938 1844 2938 
Q 1438 2938 1150 2591 
Q 953 2356 894 1997 
L 2756 1997 
z
" transform="scale(0.015625)"/>
        <path id="IPAexGothic-70" d="M 1075 2688 
Q 1525 3341 2206 3341 
Q 2769 3341 3172 2938 
Q 3641 2469 3641 1644 
Q 3641 841 3178 372 
Q 2775 -31 2200 -31 
Q 1569 -31 1106 497 
L 1106 -1216 
L 563 -1216 
L 563 3250 
L 1075 3250 
L 1075 2688 
z
M 1106 1950 
L 1106 1291 
Q 1106 897 1516 600 
Q 1791 403 2106 403 
Q 2469 403 2725 659 
Q 3066 997 3066 1631 
Q 3066 2200 2784 2559 
Q 2503 2900 2100 2900 
Q 1656 2900 1338 2484 
Q 1106 2184 1106 1950 
z
" transform="scale(0.015625)"/>
       </defs>
       <use xlink:href="#IPAexGothic-53"/>
       <use xlink:href="#IPAexGothic-65" x="58.496094"/>
       <use xlink:href="#IPAexGothic-70" x="115.380859"/>
      </g>
     </g>
    </g>
    <g id="xtick_5">
     <g id="line2d_6">
      <g>
       <use xlink:href="#m73853a4a71" x="158.340364" y="284.991437" style="stroke: #000000; stroke-width: 0.8"/>
      </g>
     </g>
     <g id="text_5">
      <!-- Oct -->
      <g transform="translate(149.905208 299.482062) scale(0.1 -0.1)">
       <defs>
        <path id="IPAexGothic-4f" d="M 2541 4725 
Q 3456 4725 4044 4138 
Q 4709 3472 4709 2331 
Q 4709 1219 4031 550 
Q 3450 -31 2541 -31 
Q 1638 -31 1056 550 
Q 378 1219 378 2356 
Q 378 3469 1044 4138 
Q 1631 4725 2541 4725 
z
M 2541 4266 
Q 1953 4266 1531 3844 
Q 994 3303 994 2350 
Q 994 1391 1531 863 
Q 1947 447 2541 447 
Q 3131 447 3556 863 
Q 4094 1400 4094 2375 
Q 4094 3297 3550 3844 
Q 3138 4266 2541 4266 
z
" transform="scale(0.015625)"/>
        <path id="IPAexGothic-63" d="M 3269 784 
Q 2834 -31 1900 -31 
Q 1228 -31 788 409 
Q 313 891 313 1663 
Q 313 2428 788 2913 
Q 1222 3347 1881 3347 
Q 2813 3347 3206 2541 
L 2763 2309 
Q 2484 2900 1900 2900 
Q 1516 2900 1234 2619 
Q 881 2266 881 1650 
Q 881 1069 1222 728 
Q 1522 428 1956 428 
Q 2547 428 2847 1016 
L 3269 784 
z
" transform="scale(0.015625)"/>
        <path id="IPAexGothic-74" d="M 2125 241 
Q 1769 -6 1397 -6 
Q 653 -6 653 831 
L 653 2859 
L 219 2859 
L 219 3250 
L 653 3250 
L 653 3966 
L 1178 4228 
L 1178 3250 
L 2063 3250 
L 2063 2859 
L 1178 2859 
L 1178 906 
Q 1178 416 1513 416 
Q 1738 416 1941 588 
L 2125 241 
z
" transform="scale(0.015625)"/>
       </defs>
       <use xlink:href="#IPAexGothic-4f"/>
       <use xlink:href="#IPAexGothic-63" x="79.6875"/>
       <use xlink:href="#IPAexGothic-74" x="134.082031"/>
      </g>
     </g>
    </g>
    <g id="xtick_6">
     <g id="line2d_7">
      <g>
       <use xlink:href="#m73853a4a71" x="191.093974" y="284.991437" style="stroke: #000000; stroke-width: 0.8"/>
      </g>
     </g>
     <g id="text_6">
      <!-- Nov -->
      <g transform="translate(181.845536 299.482062) scale(0.1 -0.1)">
       <defs>
        <path id="IPAexGothic-4e" d="M 4244 63 
L 3731 63 
L 1697 3150 
Q 1466 3500 1141 4097 
L 1116 4097 
L 1128 3797 
Q 1159 2803 1159 2469 
L 1159 63 
L 609 63 
L 609 4634 
L 1366 4634 
L 3113 1978 
Q 3453 1447 3713 966 
L 3738 966 
Q 3694 1897 3694 2469 
L 3694 4634 
L 4244 4634 
L 4244 63 
z
" transform="scale(0.015625)"/>
        <path id="IPAexGothic-6f" d="M 1919 3341 
Q 2594 3341 3056 2888 
Q 3531 2413 3531 1638 
Q 3531 888 3066 422 
Q 2609 -31 1919 -31 
Q 1228 -31 781 416 
Q 313 881 313 1656 
Q 313 2413 788 2888 
Q 1241 3341 1919 3341 
z
M 1919 2919 
Q 1519 2919 1241 2631 
Q 888 2278 888 1650 
Q 888 1031 1234 684 
Q 1516 403 1919 403 
Q 2331 403 2609 691 
Q 2956 1038 2956 1672 
Q 2956 2269 2603 2631 
Q 2316 2919 1919 2919 
z
" transform="scale(0.015625)"/>
        <path id="IPAexGothic-76" d="M 3103 3250 
L 1747 6 
L 1375 6 
L 25 3250 
L 628 3250 
L 1338 1388 
L 1522 844 
L 1569 703 
L 1588 703 
Q 1641 884 1822 1388 
L 2516 3250 
L 3103 3250 
z
" transform="scale(0.015625)"/>
       </defs>
       <use xlink:href="#IPAexGothic-4e"/>
       <use xlink:href="#IPAexGothic-6f" x="75.976562"/>
       <use xlink:href="#IPAexGothic-76" x="136.376953"/>
      </g>
     </g>
    </g>
    <g id="xtick_7">
     <g id="line2d_8">
      <g>
       <use xlink:href="#m73853a4a71" x="222.791015" y="284.991437" style="stroke: #000000; stroke-width: 0.8"/>
      </g>
     </g>
     <g id="text_7">
      <!-- Dec -->
      <g transform="translate(213.442578 299.482062) scale(0.1 -0.1)">
       <defs>
        <path id="IPAexGothic-44" d="M 609 4634 
L 1984 4634 
Q 3159 4634 3791 4050 
Q 4456 3444 4456 2356 
Q 4456 1047 3516 441 
Q 2925 63 1941 63 
L 609 63 
L 609 4634 
z
M 1172 556 
L 1894 556 
Q 3853 556 3853 2356 
Q 3853 4147 1928 4147 
L 1172 4147 
L 1172 556 
z
" transform="scale(0.015625)"/>
       </defs>
       <use xlink:href="#IPAexGothic-44"/>
       <use xlink:href="#IPAexGothic-65" x="75.683594"/>
       <use xlink:href="#IPAexGothic-63" x="132.568359"/>
      </g>
     </g>
    </g>
    <g id="xtick_8">
     <g id="line2d_9">
      <g>
       <use xlink:href="#m73853a4a71" x="255.544625" y="284.991437" style="stroke: #000000; stroke-width: 0.8"/>
      </g>
     </g>
     <g id="text_8">
      <!-- 2023 -->
      <g transform="translate(242.94775 299.482062) scale(0.1 -0.1)">
       <defs>
        <path id="IPAexGothic-32" d="M 3659 63 
L 447 63 
L 447 594 
Q 825 1475 1894 2203 
L 2072 2322 
Q 2619 2697 2791 2906 
Q 2988 3153 2988 3444 
Q 2988 3772 2756 4003 
Q 2500 4259 2084 4259 
Q 1250 4259 991 3328 
L 497 3506 
Q 853 4725 2116 4725 
Q 2806 4725 3216 4316 
Q 3575 3947 3575 3425 
Q 3575 3038 3344 2722 
Q 3131 2416 2366 1938 
L 2231 1856 
Q 1256 1253 978 569 
L 3659 569 
L 3659 63 
z
" transform="scale(0.015625)"/>
        <path id="IPAexGothic-30" d="M 2038 4725 
Q 2881 4725 3334 3944 
Q 3694 3325 3694 2344 
Q 3694 1372 3334 741 
Q 2888 -31 2016 -31 
Q 1147 -31 700 741 
Q 341 1372 341 2350 
Q 341 3713 1000 4334 
Q 1419 4725 2038 4725 
z
M 2016 4266 
Q 1516 4266 1228 3759 
Q 934 3247 934 2344 
Q 934 1456 1222 947 
Q 1513 447 2016 447 
Q 2619 447 2909 1153 
Q 3100 1622 3100 2375 
Q 3100 3256 2806 3759 
Q 2509 4266 2016 4266 
z
" transform="scale(0.015625)"/>
        <path id="IPAexGothic-33" d="M 2381 2419 
Q 3506 2216 3506 1278 
Q 3506 716 3128 356 
Q 2709 -31 1944 -31 
Q 797 -31 288 881 
L 756 1131 
Q 1109 441 1938 441 
Q 2425 441 2694 691 
Q 2950 928 2950 1291 
Q 2950 1719 2566 1978 
Q 2216 2213 1644 2213 
L 1363 2213 
L 1363 2669 
L 1656 2669 
Q 2231 2669 2534 2888 
Q 2859 3119 2859 3509 
Q 2859 3934 2494 4138 
Q 2259 4278 1931 4278 
Q 1238 4278 903 3578 
L 434 3803 
Q 897 4725 1938 4725 
Q 2597 4725 3006 4394 
Q 3416 4069 3416 3534 
Q 3416 3028 3019 2706 
Q 2763 2500 2381 2444 
L 2381 2419 
z
" transform="scale(0.015625)"/>
       </defs>
       <use xlink:href="#IPAexGothic-32"/>
       <use xlink:href="#IPAexGothic-30" x="62.988281"/>
       <use xlink:href="#IPAexGothic-32" x="125.976562"/>
       <use xlink:href="#IPAexGothic-33" x="188.964844"/>
      </g>
     </g>
    </g>
    <g id="xtick_9">
     <g id="line2d_10">
      <g>
       <use xlink:href="#m73853a4a71" x="288.298234" y="284.991437" style="stroke: #000000; stroke-width: 0.8"/>
      </g>
     </g>
     <g id="text_9">
      <!-- Feb -->
      <g transform="translate(279.474797 299.482062) scale(0.1 -0.1)">
       <defs>
        <path id="IPAexGothic-46" d="M 3469 4141 
L 1172 4141 
L 1172 2656 
L 3206 2656 
L 3206 2188 
L 1172 2188 
L 1172 63 
L 609 63 
L 609 4634 
L 3469 4634 
L 3469 4141 
z
" transform="scale(0.015625)"/>
        <path id="IPAexGothic-62" d="M 1125 2731 
Q 1550 3341 2219 3341 
Q 2788 3341 3191 2938 
Q 3659 2469 3659 1644 
Q 3659 838 3191 372 
Q 2788 -31 2206 -31 
Q 1559 -31 1088 516 
L 1009 44 
L 581 44 
L 581 4794 
L 1125 4794 
L 1125 2731 
z
M 1125 1997 
L 1125 1253 
Q 1125 888 1528 600 
Q 1803 403 2119 403 
Q 2488 403 2744 659 
Q 3084 1009 3084 1631 
Q 3084 2194 2803 2553 
Q 2525 2900 2125 2900 
Q 1759 2900 1438 2578 
Q 1125 2266 1125 1997 
z
" transform="scale(0.015625)"/>
       </defs>
       <use xlink:href="#IPAexGothic-46"/>
       <use xlink:href="#IPAexGothic-65" x="57.177734"/>
       <use xlink:href="#IPAexGothic-62" x="114.0625"/>
      </g>
     </g>
    </g>
    <g id="xtick_10">
     <g id="line2d_11">
      <g>
       <use xlink:href="#m73853a4a71" x="317.882139" y="284.991437" style="stroke: #000000; stroke-width: 0.8"/>
      </g>
     </g>
     <g id="text_10">
      <!-- Mar -->
      <g transform="translate(308.772764 299.482062) scale(0.1 -0.1)">
       <defs>
        <path id="IPAexGothic-4d" d="M 5147 63 
L 4597 63 
L 4597 2534 
Q 4597 3281 4634 4134 
L 4609 4134 
Q 4356 3409 4066 2675 
L 3066 209 
L 2650 209 
L 1641 2725 
Q 1328 3506 1128 4141 
L 1103 4141 
Q 1141 3131 1141 2553 
L 1141 63 
L 609 63 
L 609 4634 
L 1416 4634 
L 2503 1944 
Q 2697 1472 2869 906 
L 2888 906 
Q 3028 1416 3234 1931 
L 4316 4634 
L 5147 4634 
L 5147 63 
z
" transform="scale(0.015625)"/>
        <path id="IPAexGothic-61" d="M 3156 63 
L 2672 63 
Q 2559 303 2531 556 
L 2509 556 
Q 2147 -25 1428 -25 
Q 934 -25 622 288 
Q 347 563 347 959 
Q 347 1947 2050 1997 
L 2478 2009 
L 2478 2175 
Q 2478 2509 2288 2700 
Q 2088 2900 1775 2900 
Q 1238 2900 969 2378 
L 494 2597 
Q 938 3328 1788 3328 
Q 2375 3328 2691 3000 
Q 2984 2706 2984 2169 
L 2984 997 
Q 2984 400 3156 63 
z
M 2491 1625 
L 2141 1619 
Q 903 1591 903 953 
Q 903 728 1050 581 
Q 1231 403 1525 403 
Q 1934 403 2234 703 
Q 2491 969 2491 1344 
L 2491 1625 
z
" transform="scale(0.015625)"/>
        <path id="IPAexGothic-72" d="M 2309 3316 
L 2213 2769 
Q 2106 2791 2022 2791 
Q 1653 2791 1413 2444 
Q 1113 2006 1113 1675 
L 1113 63 
L 563 63 
L 563 3250 
L 1081 3250 
L 1056 2303 
L 1069 2303 
Q 1422 3341 2097 3341 
Q 2206 3341 2309 3316 
z
" transform="scale(0.015625)"/>
       </defs>
       <use xlink:href="#IPAexGothic-4d"/>
       <use xlink:href="#IPAexGothic-61" x="90.185547"/>
       <use xlink:href="#IPAexGothic-72" x="145.166016"/>
      </g>
     </g>
    </g>
    <g id="xtick_11">
     <g id="line2d_12">
      <g>
       <use xlink:href="#m73853a4a71" x="350.635749" y="284.991437" style="stroke: #000000; stroke-width: 0.8"/>
      </g>
     </g>
     <g id="text_11">
      <!-- Apr -->
      <g transform="translate(342.493561 299.482062) scale(0.1 -0.1)">
       <use xlink:href="#IPAexGothic-41"/>
       <use xlink:href="#IPAexGothic-70" x="63.720703"/>
       <use xlink:href="#IPAexGothic-72" x="125.830078"/>
      </g>
     </g>
    </g>
    <g id="xtick_12">
     <g id="line2d_13">
      <g>
       <use xlink:href="#m73853a4a71" x="382.33279" y="284.991437" style="stroke: #000000; stroke-width: 0.8"/>
      </g>
     </g>
     <g id="text_12">
      <!-- May -->
      <g transform="translate(372.613259 299.482062) scale(0.1 -0.1)">
       <defs>
        <path id="IPAexGothic-79" d="M 3122 3250 
L 1575 -488 
Q 1278 -1203 550 -1203 
L 478 -1203 
L 344 -703 
L 447 -703 
Q 969 -703 1150 -238 
L 1356 275 
L 38 3250 
L 659 3250 
L 1363 1459 
Q 1528 1025 1606 781 
L 1625 781 
Q 1750 1169 1863 1459 
L 2528 3250 
L 3122 3250 
z
" transform="scale(0.015625)"/>
       </defs>
       <use xlink:href="#IPAexGothic-4d"/>
       <use xlink:href="#IPAexGothic-61" x="90.185547"/>
       <use xlink:href="#IPAexGothic-79" x="145.166016"/>
      </g>
     </g>
    </g>
   </g>
   <g id="matplotlib.axis_2">
    <g id="ytick_1">
     <g id="line2d_14">
      <defs>
       <path id="mc2506926dc" d="M 0 0 
L -3.5 0 
" style="stroke: #000000; stroke-width: 0.8"/>
      </defs>
      <g>
       <use xlink:href="#mc2506926dc" x="29.439063" y="269.014637" style="stroke: #000000; stroke-width: 0.8"/>
      </g>
     </g>
     <g id="text_13">
      <!-- 0.5 -->
      <g transform="translate(7.2 272.759949) scale(0.1 -0.1)">
       <defs>
        <path id="IPAexGothic-2e" d="M 1184 63 
L 494 63 
L 494 753 
L 1184 753 
L 1184 63 
z
" transform="scale(0.015625)"/>
        <path id="IPAexGothic-35" d="M 1178 2603 
Q 1634 2963 2172 2963 
Q 2816 2963 3241 2528 
Q 3638 2113 3638 1497 
Q 3638 938 3297 513 
Q 2869 -31 2031 -31 
Q 959 -31 469 784 
L 938 1028 
Q 1309 434 2013 434 
Q 2466 434 2769 716 
Q 3081 1013 3081 1503 
Q 3081 1966 2806 2241 
Q 2519 2528 2056 2528 
Q 1406 2528 1072 2028 
L 591 2091 
L 884 4634 
L 3406 4634 
L 3406 4153 
L 1341 4153 
L 1134 2603 
L 1178 2603 
z
" transform="scale(0.015625)"/>
       </defs>
       <use xlink:href="#IPAexGothic-30"/>
       <use xlink:href="#IPAexGothic-2e" x="62.988281"/>
       <use xlink:href="#IPAexGothic-35" x="89.404297"/>
      </g>
     </g>
    </g>
    <g id="ytick_2">
     <g id="line2d_15">
      <g>
       <use xlink:href="#mc2506926dc" x="29.439063" y="211.199039" style="stroke: #000000; stroke-width: 0.8"/>
      </g>
     </g>
     <g id="text_14">
      <!-- 1.0 -->
      <g transform="translate(7.2 214.944352) scale(0.1 -0.1)">
       <defs>
        <path id="IPAexGothic-31" d="M 2463 63 
L 1900 63 
L 1900 4103 
Q 1372 3922 788 3797 
L 684 4231 
Q 1519 4441 2106 4731 
L 2463 4731 
L 2463 63 
z
" transform="scale(0.015625)"/>
       </defs>
       <use xlink:href="#IPAexGothic-31"/>
       <use xlink:href="#IPAexGothic-2e" x="62.988281"/>
       <use xlink:href="#IPAexGothic-30" x="89.404297"/>
      </g>
     </g>
    </g>
    <g id="ytick_3">
     <g id="line2d_16">
      <g>
       <use xlink:href="#mc2506926dc" x="29.439063" y="153.383442" style="stroke: #000000; stroke-width: 0.8"/>
      </g>
     </g>
     <g id="text_15">
      <!-- 1.5 -->
      <g transform="translate(7.2 157.128754) scale(0.1 -0.1)">
       <use xlink:href="#IPAexGothic-31"/>
       <use xlink:href="#IPAexGothic-2e" x="62.988281"/>
       <use xlink:href="#IPAexGothic-35" x="89.404297"/>
      </g>
     </g>
    </g>
    <g id="ytick_4">
     <g id="line2d_17">
      <g>
       <use xlink:href="#mc2506926dc" x="29.439063" y="95.567844" style="stroke: #000000; stroke-width: 0.8"/>
      </g>
     </g>
     <g id="text_16">
      <!-- 2.0 -->
      <g transform="translate(7.2 99.313157) scale(0.1 -0.1)">
       <use xlink:href="#IPAexGothic-32"/>
       <use xlink:href="#IPAexGothic-2e" x="62.988281"/>
       <use xlink:href="#IPAexGothic-30" x="89.404297"/>
      </g>
     </g>
    </g>
    <g id="ytick_5">
     <g id="line2d_18">
      <g>
       <use xlink:href="#mc2506926dc" x="29.439063" y="37.752247" style="stroke: #000000; stroke-width: 0.8"/>
      </g>
     </g>
     <g id="text_17">
      <!-- 2.5 -->
      <g transform="translate(7.2 41.497559) scale(0.1 -0.1)">
       <use xlink:href="#IPAexGothic-32"/>
       <use xlink:href="#IPAexGothic-2e" x="62.988281"/>
       <use xlink:href="#IPAexGothic-35" x="89.404297"/>
      </g>
     </g>
    </g>
   </g>
   <g id="line2d_19">
    <path d="M 29.439063 227.411867 
L 30.495631 255.471758 
L 31.552199 269.405805 
L 32.608767 242.945807 
L 33.665335 262.441258 
L 35.778471 251.639145 
L 36.835039 227.514621 
L 37.891607 229.940841 
L 38.948175 194.078383 
L 40.004743 246.403784 
L 41.061311 250.411663 
L 42.117879 205.84664 
L 43.174447 249.191321 
L 44.231015 272.895437 
L 45.287583 243.090535 
L 46.344151 247.559579 
L 47.400719 238.429093 
L 48.457287 112.810292 
L 49.513855 184.323192 
L 50.570423 181.498781 
L 51.626991 30.975437 
L 53.740128 168.571026 
L 54.796696 110.868109 
L 55.853264 213.126183 
L 56.909832 156.293505 
L 57.9664 124.518024 
L 59.022968 151.875457 
L 60.079536 236.751655 
L 61.136104 106.655378 
L 62.192672 51.387485 
L 63.24924 102.788184 
L 64.305808 95.926279 
L 65.362376 36.542983 
L 66.418944 79.37836 
L 67.475512 35.439549 
L 68.53208 110.396771 
L 69.588648 116.980214 
L 70.645216 109.726148 
L 71.701784 177.160719 
L 72.758352 110.814502 
L 73.81492 153.702013 
L 74.871489 148.460822 
L 75.928057 164.812112 
L 76.984625 190.526245 
L 78.041193 181.526351 
L 79.097761 197.096587 
L 80.154329 219.976945 
L 81.210897 163.710275 
L 82.267465 173.022011 
L 83.324033 196.817697 
L 84.380601 179.527296 
L 85.437169 191.661352 
L 86.493737 192.887858 
L 87.550305 173.15897 
L 88.606873 188.50237 
L 89.663441 201.809366 
L 90.720009 195.197746 
L 91.776577 183.412435 
L 92.833145 192.046725 
L 93.889713 204.737627 
L 94.946281 199.025674 
L 96.002849 189.016626 
L 98.115986 182.941981 
L 99.172554 200.02008 
L 100.229122 192.032303 
L 101.28569 181.775482 
L 102.342258 186.871327 
L 103.398826 193.9839 
L 104.455394 204.601463 
L 105.511962 225.669065 
L 106.56853 207.989558 
L 107.625098 218.057369 
L 108.681666 204.232725 
L 109.738234 217.282458 
L 110.794802 202.720535 
L 111.85137 195.141529 
L 112.907938 153.461242 
L 113.964506 171.531238 
L 115.021074 185.828914 
L 116.077642 204.950127 
L 117.13421 187.736367 
L 118.190778 211.671324 
L 119.247347 216.92144 
L 120.303915 231.587854 
L 121.360483 248.509599 
L 122.417051 240.826108 
L 123.473619 241.29957 
L 124.530187 247.072575 
L 125.586755 251.367839 
L 126.643323 251.669425 
L 127.699891 251.785215 
L 128.756459 242.900107 
L 129.813027 251.663262 
L 130.869595 241.186243 
L 131.926163 228.929625 
L 132.982731 240.670472 
L 134.039299 239.689961 
L 135.095867 228.587222 
L 136.152435 234.114512 
L 137.209003 220.053728 
L 138.265571 221.634093 
L 139.322139 247.789493 
L 140.378707 250.578039 
L 141.435276 230.847867 
L 142.491844 240.571341 
L 143.548412 229.667605 
L 144.60498 228.965012 
L 145.661548 226.507 
L 146.718116 266.267581 
L 147.774684 173.994674 
L 148.831252 228.352097 
L 149.88782 212.968149 
L 150.944388 243.863512 
L 152.000956 195.951487 
L 153.057524 187.500784 
L 154.114092 195.32975 
L 155.17066 238.855842 
L 156.227228 224.563828 
L 157.283796 239.674853 
L 158.340364 205.067187 
L 159.396932 219.657973 
L 160.4535 258.893645 
L 161.510068 189.095647 
L 162.566636 231.988543 
L 163.623205 230.452082 
L 164.679773 208.848889 
L 165.736341 214.413367 
L 166.792909 237.774657 
L 167.849477 208.216448 
L 168.906045 269.328924 
L 169.962613 186.857034 
L 171.019181 168.652783 
L 172.075749 211.199039 
L 173.132317 197.903063 
L 174.188885 190.42842 
L 175.245453 209.746404 
L 176.302021 135.123595 
L 177.358589 212.926136 
L 178.415157 239.34414 
L 179.471725 184.631705 
L 180.528293 193.892671 
L 181.584861 220.351516 
L 182.641429 197.002011 
L 183.697997 191.634272 
L 184.754565 213.253557 
L 185.811134 183.049443 
L 186.867702 199.198481 
L 187.92427 190.346771 
L 188.980838 160.309806 
L 190.037406 189.784075 
L 191.093974 198.104074 
L 192.150542 152.110827 
L 193.20711 152.9204 
L 194.263678 232.748365 
L 195.320246 165.024121 
L 196.376814 194.085734 
L 197.433382 199.838398 
L 198.48995 173.564927 
L 199.546518 209.205445 
L 200.603086 206.690562 
L 201.659654 156.249641 
L 202.716222 220.402577 
L 203.77279 215.284532 
L 204.829358 225.924092 
L 205.885926 188.099011 
L 206.942494 185.511636 
L 207.999063 211.199039 
L 209.055631 194.160213 
L 210.112199 184.55213 
L 211.168767 182.799057 
L 213.281903 203.930102 
L 214.338471 168.757197 
L 215.395039 220.491359 
L 216.451607 171.577359 
L 218.564743 192.11637 
L 219.621311 204.402838 
L 220.677879 198.987955 
L 221.734447 181.777237 
L 222.791015 142.696764 
L 223.847583 213.580923 
L 224.904151 220.529523 
L 225.960719 204.080643 
L 227.017287 205.292279 
L 228.073855 181.962456 
L 229.130423 194.793532 
L 230.186991 197.432704 
L 231.24356 173.295964 
L 232.300128 175.045451 
L 233.356696 167.16196 
L 234.413264 187.120934 
L 235.469832 183.834422 
L 236.5264 173.778001 
L 237.582968 181.23856 
L 238.639536 201.020413 
L 239.696104 187.828789 
L 240.752672 213.66936 
L 241.80924 207.768569 
L 242.865808 207.295129 
L 243.922376 192.832229 
L 244.978944 206.958159 
L 246.035512 188.728128 
L 247.09208 193.851266 
L 248.148648 207.103197 
L 249.205216 215.224404 
L 250.261784 196.113595 
L 251.318352 220.91992 
L 252.37492 200.04709 
L 253.431489 223.444191 
L 254.488057 251.024981 
L 255.544625 228.180558 
L 256.601193 208.755181 
L 257.657761 251.311193 
L 258.714329 254.432046 
L 259.770897 215.74342 
L 260.827465 126.299141 
L 261.884033 90.185267 
L 262.940601 169.01121 
L 263.997169 202.233317 
L 265.053737 208.810336 
L 266.110305 167.736099 
L 267.166873 215.685286 
L 268.223441 255.304956 
L 269.280009 257.151057 
L 270.336577 241.910597 
L 271.393145 230.363911 
L 272.449713 201.639485 
L 273.506281 252.591109 
L 274.562849 261.202922 
L 275.619418 248.191392 
L 276.675986 245.888016 
L 277.732554 248.528538 
L 278.789122 233.937612 
L 279.84569 243.873594 
L 280.902258 245.699396 
L 281.958826 238.379427 
L 283.015394 250.421781 
L 284.071962 242.025158 
L 285.12853 235.679743 
L 286.185098 231.977605 
L 287.241666 268.725993 
L 288.298234 251.010186 
L 289.354802 243.44844 
L 290.41137 231.173865 
L 291.467938 246.470516 
L 292.524506 240.806074 
L 293.581074 205.729567 
L 294.637642 216.74151 
L 295.69421 221.239134 
L 296.750778 222.049942 
L 297.807347 236.243828 
L 298.863915 216.587974 
L 299.920483 250.056764 
L 300.977051 220.887451 
L 302.033619 228.799652 
L 303.090187 253.712581 
L 304.146755 218.850978 
L 305.203323 215.357996 
L 306.259891 237.280047 
L 307.316459 193.27922 
L 308.373027 224.105076 
L 309.429595 238.379537 
L 310.486163 241.772305 
L 311.542731 251.269511 
L 312.599299 255.03236 
L 314.712435 237.065956 
L 315.769003 226.130001 
L 316.825571 244.38679 
L 317.882139 206.157732 
L 318.938707 233.765533 
L 319.995276 159.336552 
L 321.051844 185.327724 
L 322.108412 214.962751 
L 323.16498 217.21233 
L 324.221548 183.217935 
L 325.278116 224.645526 
L 326.334684 214.214028 
L 327.391252 235.628575 
L 328.44782 247.936648 
L 329.504388 239.212375 
L 330.560956 229.20156 
L 332.674092 253.457905 
L 333.73066 223.82357 
L 334.787228 230.110703 
L 335.843796 231.751414 
L 336.900364 221.724925 
L 337.956932 218.438731 
L 339.0135 196.729311 
L 340.070068 269.644947 
L 341.126636 186.805833 
L 342.183205 151.469654 
L 343.239773 196.794784 
L 344.296341 186.090119 
L 345.352909 212.367022 
L 346.409477 270.557568 
L 347.466045 131.696335 
L 348.522613 246.286327 
L 349.579181 246.583352 
L 350.635749 237.988485 
L 351.692317 247.318928 
L 352.748885 158.670839 
L 353.805453 179.975338 
L 354.862021 223.430761 
L 355.918589 212.644411 
L 356.975157 225.046752 
L 358.031725 197.113467 
L 359.088293 202.169595 
L 360.144861 251.481393 
L 361.201429 236.781261 
L 362.257997 190.034499 
L 364.371134 209.627986 
L 365.427702 206.447701 
L 366.48427 229.946022 
L 367.540838 202.966425 
L 368.597406 187.325942 
L 369.653974 234.850923 
L 370.710542 249.425785 
L 371.76711 239.100404 
L 372.823678 239.052377 
L 373.880246 232.547715 
L 374.936814 220.893946 
L 375.993382 241.999931 
L 377.04995 236.824654 
L 378.106518 191.724138 
L 379.163086 86.998199 
L 381.276222 209.431011 
L 382.33279 130.116068 
L 383.389358 83.165494 
L 384.445926 129.624869 
L 385.502494 217.170417 
L 385.502494 217.170417 
" clip-path="url(#pb38bd85be5)" style="fill: none; stroke: #1f77b4; stroke-width: 1.5; stroke-linecap: square"/>
   </g>
   <g id="line2d_20">
    <path d="M 29.439063 230.929789 
L 30.495631 242.60231 
L 31.552199 262.8168 
L 32.608767 257.425513 
L 33.665335 253.337157 
L 34.721903 259.836211 
L 35.778471 254.434415 
L 36.835039 240.414674 
L 37.891607 228.735232 
L 38.948175 213.41839 
L 40.004743 223.501825 
L 41.061311 248.433331 
L 42.117879 230.677266 
L 43.174447 229.912564 
L 44.231015 262.11981 
L 45.287583 259.625445 
L 46.344151 245.355694 
L 47.400719 243.118728 
L 48.457287 189.281671 
L 49.513855 152.189606 
L 50.570423 182.917915 
L 51.626991 119.473036 
L 52.68356 68.196709 
L 53.740128 137.669929 
L 54.796696 141.957318 
L 55.853264 170.127431 
L 56.909832 187.579679 
L 57.9664 141.084002 
L 59.022968 138.693349 
L 60.079536 201.292679 
L 61.136104 186.000414 
L 62.192672 80.567026 
L 63.24924 78.413733 
L 64.305808 99.383107 
L 65.362376 67.931655 
L 66.418944 58.815077 
L 67.475512 58.306173 
L 68.53208 75.699401 
L 69.588648 113.713912 
L 70.645216 113.383995 
L 71.701784 146.569691 
L 72.758352 147.022086 
L 73.81492 133.443524 
L 74.871489 151.100956 
L 75.928057 156.832948 
L 76.984625 178.224324 
L 78.041193 186.098223 
L 79.097761 189.532009 
L 80.154329 209.091256 
L 81.210897 194.807872 
L 82.267465 168.434555 
L 83.324033 185.419494 
L 84.380601 188.44227 
L 85.437169 185.724694 
L 86.493737 192.276003 
L 87.550305 183.362139 
L 88.606873 181.032368 
L 89.663441 195.324076 
L 90.720009 198.546144 
L 91.776577 189.431392 
L 92.833145 187.79659 
L 93.889713 198.54902 
L 94.946281 201.914295 
L 96.002849 194.115474 
L 97.059418 187.422411 
L 98.115986 184.383085 
L 99.172554 191.750659 
L 100.229122 196.087179 
L 101.28569 186.997904 
L 102.342258 184.346184 
L 103.398826 190.473981 
L 104.455394 199.403219 
L 105.511962 215.633088 
L 106.56853 217.185071 
L 107.625098 213.134848 
L 108.681666 211.351742 
L 109.738234 210.94113 
L 110.794802 210.228598 
L 111.85137 198.987184 
L 112.907938 175.731796 
L 113.964506 162.744798 
L 116.077642 195.737687 
L 117.13421 196.62741 
L 118.190778 200.268399 
L 119.247347 214.327003 
L 120.303915 224.517111 
L 121.360483 240.462163 
L 122.417051 244.757718 
L 123.473619 241.063165 
L 124.530187 244.236496 
L 125.586755 249.249927 
L 126.643323 251.518783 
L 127.699891 251.727342 
L 128.756459 247.466905 
L 129.813027 247.402446 
L 130.869595 246.595581 
L 131.926163 235.262778 
L 132.982731 234.987471 
L 134.039299 240.181603 
L 135.095867 234.304978 
L 136.152435 231.390872 
L 137.209003 227.332189 
L 138.265571 220.846856 
L 140.378707 249.196285 
L 141.435276 241.279862 
L 142.491844 235.839395 
L 143.548412 235.281663 
L 144.60498 229.316941 
L 145.661548 227.743627 
L 146.718116 248.882551 
L 147.774684 230.621466 
L 148.831252 204.147875 
L 149.88782 220.93913 
L 150.944388 229.635769 
L 152.000956 222.625721 
L 153.057524 191.792225 
L 154.114092 191.471858 
L 155.17066 219.272458 
L 156.227228 231.97864 
L 157.283796 232.42119 
L 158.340364 223.814193 
L 159.396932 212.595296 
L 160.4535 241.501939 
L 161.510068 230.097519 
L 162.566636 212.536835 
L 163.623205 231.223399 
L 164.679773 220.196168 
L 165.736341 211.66473 
L 166.792909 226.773505 
L 167.849477 224.052711 
L 168.906045 244.24423 
L 169.962613 237.116008 
L 171.019181 178.033043 
L 173.132317 204.731901 
L 174.188885 194.218394 
L 175.245453 200.456001 
L 176.302021 177.011185 
L 177.358589 179.059561 
L 178.415157 227.005264 
L 179.471725 215.29372 
L 180.528293 189.34014 
L 181.584861 207.855357 
L 182.641429 209.25497 
L 183.697997 194.345323 
L 184.754565 202.914504 
L 185.811134 199.04078 
L 186.867702 191.364392 
L 187.92427 194.846812 
L 188.980838 176.074523 
L 190.037406 175.764073 
L 191.093974 194.009205 
L 192.150542 176.860376 
L 193.20711 152.516084 
L 194.263678 198.91713 
L 195.320246 203.448625 
L 196.376814 180.273516 
L 197.433382 196.993923 
L 198.48995 187.318791 
L 199.546518 192.562593 
L 200.603086 207.954654 
L 201.659654 183.674736 
L 202.716222 192.091624 
L 203.77279 217.873602 
L 204.829358 220.737602 
L 205.885926 208.513572 
L 206.942494 186.8113 
L 207.999063 198.998945 
L 209.055631 202.972279 
L 210.112199 189.440136 
L 211.168767 183.678277 
L 212.225335 188.335204 
L 213.281903 198.897374 
L 214.338471 187.448754 
L 215.395039 197.179515 
L 216.451607 198.341262 
L 217.508175 176.894581 
L 219.621311 198.406453 
L 220.677879 201.724689 
L 221.734447 190.654224 
L 222.791015 163.401008 
L 223.847583 182.424595 
L 224.904151 217.110216 
L 225.960719 212.600777 
L 227.017287 204.687964 
L 228.073855 194.139114 
L 229.130423 188.526714 
L 230.186991 196.119779 
L 231.24356 185.880047 
L 232.300128 174.173214 
L 233.356696 171.1536 
L 234.413264 177.474475 
L 235.469832 185.48723 
L 236.5264 178.891638 
L 237.582968 177.554882 
L 238.639536 191.49043 
L 239.696104 194.588989 
L 240.752672 201.412831 
L 241.80924 210.756455 
L 242.865808 207.532084 
L 243.922376 200.270107 
L 244.978944 200.091846 
L 246.035512 198.165608 
L 247.09208 191.313905 
L 248.148648 200.651084 
L 249.205216 211.235099 
L 250.261784 206.046382 
L 251.318352 209.168684 
L 252.37492 210.952529 
L 253.431489 212.341773 
L 254.488057 238.302243 
L 255.544625 240.353858 
L 256.601193 218.904029 
L 257.657761 232.400817 
L 258.714329 252.888083 
L 259.770897 237.150337 
L 260.827465 177.577562 
L 261.884033 108.989297 
L 262.940601 133.576313 
L 263.997169 186.602691 
L 265.053737 205.566408 
L 266.110305 189.803691 
L 267.166873 193.854637 
L 268.223441 237.669294 
L 269.280009 256.234041 
L 270.336577 249.907348 
L 271.393145 236.3212 
L 272.449713 216.936234 
L 273.506281 230.424572 
L 274.562849 257.029702 
L 275.619418 254.991137 
L 276.675986 247.048016 
L 277.732554 247.219224 
L 278.789122 241.544538 
L 279.84569 239.046068 
L 280.902258 244.791574 
L 281.958826 242.11844 
L 283.015394 244.62081 
L 284.071962 246.332876 
L 285.12853 238.909678 
L 286.185098 233.847098 
L 287.241666 252.591834 
L 288.298234 260.456547 
L 289.354802 247.319155 
L 290.41137 237.521782 
L 291.467938 239.155159 
L 292.524506 243.68652 
L 293.581074 224.763671 
L 294.637642 211.366742 
L 295.69421 219.013772 
L 296.750778 221.645319 
L 297.807347 229.405031 
L 298.863915 226.898006 
L 299.920483 234.831969 
L 300.977051 236.643788 
L 302.033619 224.92031 
L 303.090187 242.167574 
L 304.146755 237.975354 
L 305.203323 217.118387 
L 306.259891 226.918474 
L 307.316459 217.470651 
L 308.373027 209.70189 
L 309.429595 231.509136 
L 310.486163 240.092508 
L 312.599299 253.174961 
L 313.655867 250.620979 
L 315.769003 231.755086 
L 316.825571 235.714517 
L 317.882139 227.087281 
L 318.938707 220.856887 
L 319.995276 201.979325 
L 321.051844 172.879669 
L 322.108412 201.014775 
L 323.16498 216.093253 
L 324.221548 201.361197 
L 325.278116 205.689899 
L 326.334684 219.5565 
L 327.391252 225.485354 
L 328.44782 242.005556 
L 329.504388 243.688865 
L 330.560956 234.342313 
L 331.617524 235.172055 
L 332.674092 247.370212 
L 333.73066 239.894402 
L 334.787228 227.016627 
L 335.843796 230.934568 
L 336.900364 226.863796 
L 337.956932 220.094475 
L 339.0135 208.079088 
L 340.070068 240.575619 
L 341.126636 237.346517 
L 342.183205 170.130648 
L 343.239773 175.823307 
L 344.296341 191.548291 
L 345.352909 199.90677 
L 346.409477 246.573458 
L 347.466045 222.041376 
L 348.522613 201.463386 
L 349.579181 246.434977 
L 350.635749 242.395209 
L 351.692317 242.783083 
L 352.748885 211.199039 
L 353.805453 169.683708 
L 354.862021 203.603942 
L 355.918589 218.171346 
L 356.975157 219.023784 
L 358.031725 211.92582 
L 359.088293 199.666658 
L 360.144861 229.912564 
L 361.201429 244.458602 
L 362.257997 215.842327 
L 363.314565 194.909964 
L 364.371134 204.722485 
L 365.427702 208.048487 
L 366.48427 218.834091 
L 367.540838 217.28368 
L 368.597406 195.378597 
L 369.653974 213.553984 
L 370.710542 242.452465 
L 371.76711 244.424657 
L 372.823678 239.076394 
L 373.880246 235.858164 
L 374.936814 226.890552 
L 375.993382 232.032516 
L 377.04995 239.450599 
L 378.106518 216.556472 
L 379.163086 146.82254 
L 380.219654 120.54721 
L 381.276222 182.504922 
L 382.33279 174.862836 
L 383.389358 107.895755 
L 384.445926 107.622584 
L 385.502494 179.774108 
L 385.502494 179.774108 
" clip-path="url(#pb38bd85be5)" style="fill: none; stroke: #ff7f0e; stroke-width: 1.5; stroke-linecap: square"/>
   </g>
   <g id="line2d_21">
    <path d="M 29.439063 229.122786 
L 30.495631 239.928401 
L 31.552199 252.698705 
L 32.608767 256.780278 
L 33.665335 259.139403 
L 34.721903 254.622372 
L 35.778471 257.208287 
L 36.835039 246.388486 
L 37.891607 237.055655 
L 38.948175 218.326475 
L 41.061311 233.387372 
L 42.117879 236.234427 
L 43.174447 237.293425 
L 45.287583 256.313321 
L 46.344151 255.822722 
L 47.400719 243.109331 
L 48.457287 212.36467 
L 50.570423 162.563334 
L 51.626991 143.84129 
L 52.68356 113.406318 
L 53.740128 107.256927 
L 54.796696 129.127564 
L 55.853264 169.610337 
L 56.909832 165.645532 
L 57.9664 169.115602 
L 59.022968 144.753156 
L 60.079536 179.647632 
L 61.136104 175.437505 
L 62.192672 150.710969 
L 63.24924 88.208754 
L 64.305808 84.394062 
L 65.362376 80.114816 
L 66.418944 71.804879 
L 67.475512 51.239386 
L 68.53208 76.931758 
L 69.588648 90.291085 
L 70.645216 112.392863 
L 71.701784 137.201801 
L 72.758352 135.362509 
L 73.81492 149.276885 
L 74.871489 138.58476 
L 75.928057 155.795645 
L 76.984625 168.900399 
L 80.154329 200.539182 
L 81.210897 195.575228 
L 82.267465 187.912342 
L 83.324033 178.52472 
L 84.380601 183.482093 
L 85.437169 189.523726 
L 86.493737 188.153999 
L 87.550305 186.18367 
L 88.606873 185.09643 
L 89.663441 188.315827 
L 90.720009 195.281979 
L 91.776577 193.687884 
L 92.833145 190.308761 
L 93.889713 193.689874 
L 94.946281 198.708102 
L 96.002849 197.755094 
L 97.059418 191.402728 
L 98.115986 185.944654 
L 99.172554 189.7987 
L 100.229122 191.844605 
L 101.28569 191.480812 
L 102.342258 186.955724 
L 103.398826 187.634041 
L 104.455394 195.355837 
L 105.511962 208.84012 
L 107.625098 217.476612 
L 108.681666 210.241718 
L 109.738234 213.36349 
L 110.794802 208.263285 
L 111.85137 205.402114 
L 112.907938 185.324114 
L 113.964506 174.344388 
L 115.021074 170.831497 
L 116.077642 188.120092 
L 117.13421 193.123075 
L 118.190778 201.848623 
L 119.247347 206.082407 
L 121.360483 233.236603 
L 122.417051 240.583648 
L 123.473619 243.620823 
L 124.530187 243.114997 
L 126.643323 250.064959 
L 127.699891 251.607698 
L 128.756459 248.893225 
L 129.813027 248.891095 
L 130.869595 245.382199 
L 132.982731 237.10204 
L 134.039299 236.582508 
L 135.095867 236.477418 
L 136.152435 234.241533 
L 137.209003 227.752305 
L 138.265571 225.467971 
L 139.322139 230.718701 
L 140.378707 240.92208 
L 141.435276 243.507227 
L 142.491844 241.044337 
L 143.548412 233.826969 
L 144.60498 233.222764 
L 145.661548 228.38915 
L 146.718116 242.740121 
L 147.774684 229.269077 
L 148.831252 229.870881 
L 149.88782 207.161383 
L 150.944388 229.209749 
L 152.000956 219.501156 
L 153.057524 212.031087 
L 154.114092 192.98185 
L 155.17066 209.581314 
L 156.227228 221.065989 
L 157.283796 234.616737 
L 158.340364 224.06468 
L 159.396932 222.447011 
L 160.4535 230.764786 
L 161.510068 226.735849 
L 162.566636 230.732013 
L 163.623205 218.850986 
L 164.679773 224.281475 
L 165.736341 218.302399 
L 166.792909 221.123664 
L 167.849477 220.93512 
L 168.906045 242.141688 
L 169.962613 228.364316 
L 171.019181 218.44859 
L 172.075749 190.029585 
L 173.132317 193.727182 
L 174.188885 200.139008 
L 175.245453 199.610689 
L 176.302021 181.624175 
L 177.358589 190.09163 
L 179.471725 214.510045 
L 180.528293 208.573118 
L 181.584861 200.569432 
L 182.641429 204.342327 
L 183.697997 203.652593 
L 184.754565 200.974213 
L 185.811134 196.618162 
L 186.867702 199.093369 
L 187.92427 191.026031 
L 188.980838 184.214067 
L 190.037406 180.790352 
L 191.093974 183.611312 
L 192.150542 181.298308 
L 193.20711 169.270937 
L 194.263678 184.905831 
L 195.320246 188.492178 
L 196.376814 200.403438 
L 197.433382 187.108997 
L 198.48995 189.611924 
L 199.546518 195.033037 
L 200.603086 197.447481 
L 201.659654 192.747876 
L 202.716222 197.145102 
L 203.77279 200.314175 
L 204.829358 220.626045 
L 206.942494 201.295556 
L 207.999063 195.464272 
L 209.055631 197.405968 
L 210.112199 197.113713 
L 211.168767 187.261183 
L 212.225335 187.08549 
L 213.281903 193.741822 
L 214.338471 189.550213 
L 215.395039 199.469935 
L 216.451607 189.152671 
L 217.508175 193.119185 
L 218.564743 182.150609 
L 219.621311 193.164416 
L 220.677879 198.60058 
L 221.734447 195.400607 
L 222.791015 176.246527 
L 223.847583 182.20913 
L 224.904151 196.443074 
L 225.960719 212.928431 
L 227.017287 210.214796 
L 228.073855 197.539344 
L 229.130423 194.357613 
L 231.24356 188.916137 
L 232.300128 182.357292 
L 233.356696 171.871023 
L 234.413264 176.669151 
L 235.469832 179.625281 
L 236.5264 181.687232 
L 237.582968 179.678119 
L 238.639536 185.826618 
L 239.696104 190.280728 
L 240.752672 201.282161 
L 241.80924 203.568241 
L 242.865808 209.613962 
L 243.922376 202.82065 
L 244.978944 202.539923 
L 246.035512 196.411828 
L 247.09208 196.743275 
L 248.148648 196.795762 
L 249.205216 205.708887 
L 250.261784 206.399686 
L 251.318352 211.222913 
L 252.37492 206.203506 
L 253.431489 215.275699 
L 254.488057 227.04317 
L 255.544625 235.049338 
L 256.601193 230.893623 
L 257.657761 231.014516 
L 258.714329 240.403632 
L 259.770897 242.143466 
L 260.827465 209.55923 
L 261.884033 152.790998 
L 262.940601 131.180415 
L 263.997169 159.879638 
L 265.053737 194.434509 
L 266.110305 194.078898 
L 267.166873 199.039398 
L 268.223441 218.686553 
L 269.280009 244.703586 
L 270.336577 251.750355 
L 271.393145 243.877834 
L 272.449713 225.985777 
L 273.506281 230.404356 
L 275.619418 254.199875 
L 276.675986 252.076606 
L 278.789122 243.017663 
L 279.84569 242.328067 
L 280.902258 241.322359 
L 281.958826 242.707579 
L 283.015394 244.981923 
L 284.071962 243.764543 
L 285.12853 242.927891 
L 286.185098 236.657187 
L 287.241666 247.335431 
L 288.298234 252.068319 
L 289.354802 255.212423 
L 290.41137 242.265414 
L 291.467938 240.610269 
L 292.524506 239.708955 
L 293.581074 232.583033 
L 294.637642 222.156768 
L 295.69421 214.756056 
L 296.750778 220.03548 
L 297.807347 226.75576 
L 298.863915 225.307435 
L 299.920483 235.305016 
L 300.977051 230.400667 
L 302.033619 234.101419 
L 303.090187 235.597281 
L 304.146755 235.016415 
L 305.203323 230.998408 
L 306.259891 224.298607 
L 307.316459 216.77092 
L 308.373027 219.728418 
L 309.429595 220.168553 
L 310.486163 235.06089 
L 311.542731 243.990749 
L 312.599299 249.55491 
L 313.655867 250.837773 
L 314.712435 246.346832 
L 315.769003 236.739674 
L 316.825571 236.167242 
L 317.882139 226.769203 
L 318.938707 229.364982 
L 319.995276 203.387961 
L 321.051844 196.658751 
L 322.108412 188.424055 
L 323.16498 206.663801 
L 324.221548 206.069522 
L 325.278116 209.659357 
L 326.334684 208.600655 
L 327.391252 225.206181 
L 328.44782 233.601789 
L 329.504388 241.084532 
L 330.560956 239.115899 
L 331.617524 236.539116 
L 332.674092 241.724612 
L 333.73066 240.189745 
L 334.787228 236.74839 
L 335.843796 228.620524 
L 336.900364 227.958032 
L 337.956932 224.130838 
L 339.0135 212.813983 
L 340.070068 233.750892 
L 341.126636 225.457117 
L 342.183205 214.850353 
L 343.239773 179.576668 
L 344.296341 179.326206 
L 345.352909 198.877806 
L 346.409477 230.048416 
L 347.466045 218.911035 
L 348.522613 230.841344 
L 349.579181 218.786929 
L 350.635749 243.712699 
L 351.692317 244.069427 
L 352.748885 220.923793 
L 353.805453 201.608566 
L 354.862021 190.148872 
L 355.918589 206.694286 
L 356.975157 220.51326 
L 358.031725 212.165852 
L 359.088293 208.761677 
L 361.201429 232.258454 
L 362.257997 229.284271 
L 363.314565 210.676295 
L 364.371134 200.010647 
L 365.427702 205.300287 
L 366.48427 215.848678 
L 367.540838 213.78464 
L 368.597406 208.090792 
L 369.653974 210.129375 
L 370.710542 227.056885 
L 371.76711 241.349589 
L 372.823678 242.671461 
L 374.936814 231.121045 
L 375.993382 232.204561 
L 377.04995 233.657594 
L 378.106518 225.789041 
L 379.163086 183.957116 
L 380.219654 147.686905 
L 381.276222 155.882217 
L 382.33279 166.810498 
L 383.389358 148.962223 
L 384.445926 115.392571 
L 385.502494 152.815384 
L 385.502494 152.815384 
" clip-path="url(#pb38bd85be5)" style="fill: none; stroke: #2ca02c; stroke-width: 1.5; stroke-linecap: square"/>
   </g>
   <g id="line2d_22">
    <path d="M 29.439063 221.275211 
L 30.495631 236.505406 
L 31.552199 248.478994 
L 32.608767 250.372301 
L 33.665335 258.240554 
L 34.721903 258.641514 
L 35.778471 253.887849 
L 36.835039 250.742613 
L 37.891607 242.558839 
L 38.948175 227.832517 
L 40.004743 226.152528 
L 41.061311 232.537407 
L 42.117879 227.154092 
L 43.174447 239.663468 
L 44.231015 247.949949 
L 45.287583 246.12502 
L 46.344151 254.219959 
L 47.400719 251.824807 
L 48.457287 220.968504 
L 49.513855 205.919399 
L 50.570423 186.135769 
L 51.626991 136.533121 
L 52.68356 133.903952 
L 53.740128 128.780364 
L 54.796696 108.165345 
L 55.853264 154.661857 
L 56.909832 166.381937 
L 57.9664 156.222628 
L 60.079536 174.127491 
L 61.136104 164.056515 
L 62.192672 151.002816 
L 63.24924 139.788926 
L 64.305808 90.161987 
L 65.362376 73.226844 
L 66.418944 79.930908 
L 67.475512 63.162834 
L 68.53208 67.394559 
L 69.588648 87.608872 
L 70.645216 95.307164 
L 71.701784 130.829051 
L 72.758352 130.923693 
L 74.871489 149.07322 
L 75.928057 145.514995 
L 76.984625 165.230701 
L 78.041193 172.15619 
L 79.097761 183.990017 
L 80.154329 198.107108 
L 81.210897 192.195781 
L 82.267465 190.267628 
L 83.324033 190.194295 
L 84.380601 178.776002 
L 85.437169 185.572177 
L 86.493737 190.372599 
L 87.550305 184.54832 
L 88.606873 186.766963 
L 89.663441 189.473261 
L 90.720009 190.069324 
L 91.776577 192.410021 
L 94.946281 195.044354 
L 96.002849 196.351076 
L 97.059418 194.867136 
L 98.115986 189.335364 
L 99.172554 189.603599 
L 100.229122 190.360547 
L 101.28569 189.394825 
L 102.342258 190.342872 
L 103.398826 188.74688 
L 104.455394 192.084855 
L 105.511962 203.69443 
L 106.56853 208.628052 
L 107.625098 214.390906 
L 108.681666 214.306201 
L 109.738234 212.043229 
L 110.794802 210.791529 
L 111.85137 205.110817 
L 113.964506 181.995215 
L 115.021074 177.300368 
L 116.077642 180.166067 
L 117.13421 188.02426 
L 118.190778 198.022962 
L 120.303915 213.03684 
L 121.360483 228.256977 
L 122.417051 235.194567 
L 123.473619 240.763189 
L 124.530187 244.49752 
L 125.586755 245.259188 
L 127.699891 250.498685 
L 128.756459 249.519384 
L 129.813027 249.59516 
L 130.869595 247.032432 
L 131.926163 241.548346 
L 132.982731 240.987516 
L 135.095867 234.646856 
L 136.152435 235.892398 
L 138.265571 226.256947 
L 139.322139 231.579139 
L 140.378707 236.122417 
L 141.435276 238.507266 
L 142.491844 242.782759 
L 143.548412 238.331566 
L 144.60498 232.634606 
L 145.661548 231.587191 
L 146.718116 239.646891 
L 147.774684 229.193149 
L 148.831252 229.040635 
L 149.88782 225.896331 
L 150.944388 217.632953 
L 152.000956 221.78581 
L 153.057524 212.266073 
L 154.114092 208.065956 
L 155.17066 206.313066 
L 156.227228 213.521109 
L 157.283796 226.061058 
L 158.340364 227.980673 
L 159.396932 222.980288 
L 160.4535 233.074257 
L 161.510068 221.710038 
L 162.566636 228.075685 
L 163.623205 230.662107 
L 164.679773 216.432907 
L 165.736341 221.898783 
L 166.792909 223.537176 
L 167.849477 218.034898 
L 168.906045 235.927619 
L 169.962613 230.806248 
L 171.019181 215.976432 
L 172.075749 216.679967 
L 173.132317 192.041922 
L 174.188885 192.910047 
L 175.245453 202.612348 
L 176.302021 185.877122 
L 177.358589 190.175906 
L 178.415157 204.536808 
L 179.471725 198.448671 
L 180.528293 209.676726 
L 181.584861 211.634562 
L 182.641429 199.686873 
L 183.697997 201.281933 
L 184.754565 206.126362 
L 185.811134 196.71423 
L 186.867702 197.268091 
L 187.92427 196.960725 
L 188.980838 183.923798 
L 190.037406 185.627441 
L 191.093974 185.325715 
L 192.150542 176.313222 
L 193.20711 174.670499 
L 194.263678 188.327129 
L 195.320246 180.177036 
L 197.433382 200.262414 
L 198.48995 183.839538 
L 199.546518 194.796847 
L 200.603086 198.049398 
L 201.659654 188.189868 
L 202.716222 200.271432 
L 203.77279 201.939318 
L 204.829358 207.269481 
L 205.885926 213.289999 
L 206.942494 204.949238 
L 207.999063 203.848238 
L 209.055631 195.139464 
L 210.112199 194.305696 
L 211.168767 193.674278 
L 212.225335 188.888776 
L 213.281903 191.5016 
L 214.338471 187.892686 
L 215.395039 198.041309 
L 216.451607 193.005785 
L 217.508175 187.405469 
L 218.564743 192.869183 
L 219.621311 188.066754 
L 220.677879 194.64471 
L 221.734447 194.587132 
L 222.791015 183.841066 
L 223.847583 186.599767 
L 224.904151 192.921842 
L 225.960719 198.395901 
L 227.017287 211.065593 
L 229.130423 196.858291 
L 230.186991 195.13317 
L 231.24356 187.209652 
L 232.300128 185.572071 
L 233.356696 178.699715 
L 234.413264 175.832866 
L 235.469832 178.493445 
L 236.5264 178.184745 
L 238.639536 185.331186 
L 239.696104 186.329848 
L 240.752672 196.546057 
L 241.80924 202.936162 
L 242.865808 204.510717 
L 243.922376 205.626636 
L 244.978944 203.868227 
L 246.035512 199.222196 
L 247.09208 195.776348 
L 248.148648 199.414406 
L 249.205216 201.670223 
L 250.261784 203.378204 
L 251.318352 210.206468 
L 252.37492 208.524885 
L 253.431489 210.766072 
L 254.488057 225.546373 
L 256.601193 229.083162 
L 257.657761 236.464788 
L 258.714329 237.497733 
L 259.770897 234.806213 
L 260.827465 221.777563 
L 261.884033 187.059161 
L 262.940601 156.996009 
L 263.997169 152.052377 
L 265.053737 173.746238 
L 266.110305 188.21243 
L 267.166873 199.845473 
L 268.223441 216.297816 
L 270.336577 244.014071 
L 271.393145 246.895303 
L 272.449713 234.888058 
L 273.506281 233.419403 
L 274.562849 239.247932 
L 275.619418 243.609469 
L 276.675986 252.205565 
L 277.732554 251.204953 
L 278.789122 244.342162 
L 279.84569 243.23247 
L 280.902258 243.18381 
L 281.958826 240.595936 
L 283.015394 244.706237 
L 284.071962 244.25254 
L 285.12853 241.813187 
L 286.185098 240.314936 
L 287.241666 246.039879 
L 288.298234 248.270489 
L 289.354802 250.000714 
L 290.41137 249.838473 
L 291.467938 243.336882 
L 292.524506 240.659262 
L 293.581074 232.232699 
L 294.637642 228.85032 
L 295.69421 221.92811 
L 296.750778 216.625799 
L 297.807347 224.341012 
L 298.863915 224.305296 
L 299.920483 232.157378 
L 300.977051 231.895875 
L 302.033619 230.002881 
L 303.090187 239.449318 
L 304.146755 231.67145 
L 305.203323 230.453386 
L 306.259891 232.608966 
L 307.316459 217.294661 
L 308.373027 218.652145 
L 309.429595 224.730893 
L 310.486163 226.036156 
L 311.542731 239.412963 
L 312.599299 246.900947 
L 313.655867 248.666268 
L 314.712435 247.606781 
L 315.769003 241.709108 
L 316.825571 238.715508 
L 317.882139 229.449148 
L 318.938707 228.566113 
L 319.995276 215.237231 
L 321.051844 199.101393 
L 322.108412 201.497978 
L 323.16498 196.262164 
L 324.221548 201.188106 
L 325.278116 211.008323 
L 326.334684 210.81501 
L 327.391252 216.028823 
L 328.44782 231.439145 
L 330.560956 238.256773 
L 331.617524 239.534264 
L 332.674092 241.103387 
L 333.73066 237.564451 
L 334.787228 237.772997 
L 335.843796 235.524322 
L 336.900364 226.940241 
L 337.956932 225.659602 
L 339.0135 217.875523 
L 340.070068 230.879977 
L 341.126636 223.746317 
L 342.183205 210.571632 
L 343.239773 210.586262 
L 344.296341 181.23276 
L 345.352909 188.387747 
L 346.409477 222.631901 
L 347.466045 211.503893 
L 348.522613 226.523011 
L 349.579181 235.045011 
L 350.635749 223.94509 
L 351.692317 244.629308 
L 353.805453 211.905399 
L 354.862021 207.461883 
L 355.918589 196.157487 
L 356.975157 211.571442 
L 358.031725 215.092211 
L 359.088293 209.744566 
L 360.144861 221.301717 
L 361.201429 224.484392 
L 362.257997 223.115774 
L 363.314565 222.587786 
L 364.371134 210.4151 
L 365.427702 201.651481 
L 366.48427 211.994848 
L 367.540838 212.759506 
L 368.597406 207.682134 
L 369.653974 215.434441 
L 370.710542 221.513588 
L 371.76711 230.214528 
L 372.823678 240.780985 
L 373.880246 240.247292 
L 374.936814 233.18147 
L 375.993382 233.965038 
L 377.04995 233.381355 
L 378.106518 224.586892 
L 380.219654 176.007142 
L 381.276222 165.648143 
L 382.33279 149.775738 
L 383.389358 149.07257 
L 384.445926 144.313341 
L 385.502494 147.398753 
L 385.502494 147.398753 
" clip-path="url(#pb38bd85be5)" style="fill: none; stroke: #d62728; stroke-width: 1.5; stroke-linecap: square"/>
   </g>
   <g id="line2d_23">
    <path d="M 29.439063 222.506149 
L 30.495631 229.225195 
L 31.552199 244.328125 
L 32.608767 247.402355 
L 34.721903 258.019032 
L 35.778471 257.295259 
L 36.835039 249.2435 
L 37.891607 246.974437 
L 38.948175 234.54074 
L 40.004743 231.861658 
L 41.061311 231.553594 
L 42.117879 227.717781 
L 43.174447 232.012654 
L 44.231015 247.643113 
L 46.344151 246.413994 
L 47.400719 251.305355 
L 48.457287 234.325278 
L 49.513855 214.484016 
L 50.570423 201.387908 
L 51.626991 163.586194 
L 52.68356 129.858474 
L 53.740128 141.397281 
L 54.796696 125.3209 
L 55.853264 134.972888 
L 56.909832 154.989431 
L 57.9664 158.76708 
L 59.022968 155.361922 
L 60.079536 182.873277 
L 61.136104 162.532711 
L 62.192672 145.998895 
L 63.24924 142.271252 
L 64.305808 131.739654 
L 65.362376 80.2958 
L 66.418944 74.469261 
L 67.475512 71.612377 
L 68.53208 73.369884 
L 69.588648 78.170446 
L 70.645216 92.205622 
L 71.701784 114.651386 
L 72.758352 126.98029 
L 73.81492 135.707335 
L 74.871489 141.820322 
L 75.928057 152.338799 
L 76.984625 155.572908 
L 78.041193 168.629853 
L 79.097761 177.501124 
L 80.154329 192.046346 
L 81.210897 191.863517 
L 82.267465 188.562489 
L 83.324033 191.603524 
L 84.380601 188.124556 
L 85.437169 181.447777 
L 86.493737 187.0666 
L 87.550305 187.0915 
L 88.606873 185.34807 
L 89.663441 189.913695 
L 90.720009 190.637736 
L 91.776577 188.763136 
L 93.889713 195.654061 
L 94.946281 195.075047 
L 96.002849 193.860278 
L 97.059418 194.307816 
L 98.115986 192.563919 
L 99.172554 191.542008 
L 101.28569 188.685177 
L 102.342258 188.893792 
L 103.398826 191.078975 
L 104.455394 192.074346 
L 105.511962 199.593102 
L 106.56853 204.565698 
L 107.625098 210.577143 
L 108.681666 212.428944 
L 109.738234 214.907852 
L 110.794802 210.23647 
L 111.85137 207.817891 
L 112.907938 196.188428 
L 113.964506 189.862088 
L 115.021074 182.770205 
L 116.077642 183.291563 
L 117.13421 181.712392 
L 118.190778 193.113415 
L 120.303915 211.463604 
L 122.417051 230.909798 
L 124.530187 242.063784 
L 125.586755 245.919887 
L 126.643323 246.583547 
L 127.699891 248.741635 
L 128.756459 249.036102 
L 129.813027 249.952996 
L 130.869595 247.98217 
L 131.926163 243.701758 
L 132.982731 241.373489 
L 134.039299 240.72956 
L 135.095867 235.993508 
L 137.209003 232.924776 
L 138.265571 229.099784 
L 139.322139 230.988135 
L 140.378707 235.724345 
L 141.435276 235.091221 
L 142.491844 238.923995 
L 143.548412 240.309621 
L 144.60498 236.532871 
L 145.661548 231.439783 
L 146.718116 239.832571 
L 147.774684 229.288225 
L 148.831252 229.025515 
L 149.88782 226.018762 
L 150.944388 229.776904 
L 152.000956 213.604985 
L 153.057524 215.680869 
L 154.114092 209.062995 
L 155.17066 214.984372 
L 156.227228 210.206824 
L 157.283796 219.314815 
L 158.340364 222.17396 
L 159.396932 226.369517 
L 160.4535 231.430807 
L 161.510068 225.577264 
L 162.566636 223.851206 
L 163.623205 228.555607 
L 164.679773 226.648719 
L 165.736341 216.031922 
L 166.792909 225.28565 
L 167.849477 220.640156 
L 168.906045 231.061495 
L 169.962613 227.73105 
L 171.019181 220.726004 
L 172.075749 215.037011 
L 173.132317 213.157231 
L 174.188885 191.720756 
L 175.245453 196.460668 
L 176.302021 191.350375 
L 177.358589 191.757527 
L 178.415157 201.836996 
L 179.471725 200.792232 
L 180.528293 197.550137 
L 181.584861 211.894043 
L 182.641429 208.846332 
L 183.697997 198.115669 
L 184.754565 203.773183 
L 185.811134 201.828184 
L 186.867702 197.214919 
L 187.92427 195.912493 
L 190.037406 185.115566 
L 191.093974 188.215948 
L 192.150542 179.230873 
L 193.20711 171.901027 
L 194.263678 188.619752 
L 195.320246 183.951829 
L 196.376814 183.070739 
L 197.433382 191.957715 
L 198.48995 195.323676 
L 199.546518 189.316525 
L 200.603086 197.266248 
L 201.659654 190.602066 
L 202.716222 195.331172 
L 203.77279 203.427593 
L 204.829358 207.153921 
L 205.885926 203.660003 
L 206.942494 208.209749 
L 207.999063 206.225655 
L 209.055631 201.968952 
L 210.112199 193.086981 
L 211.168767 192.080368 
L 212.225335 193.671134 
L 213.281903 192.037551 
L 214.338471 187.230909 
L 215.395039 195.127704 
L 216.451607 193.136595 
L 218.564743 188.360647 
L 219.621311 195.259724 
L 220.677879 190.323195 
L 221.734447 192.16594 
L 222.791015 185.535827 
L 223.847583 190.356327 
L 224.904151 194.157665 
L 225.960719 195.231943 
L 227.017287 199.805793 
L 228.073855 205.75506 
L 229.130423 201.980701 
L 230.186991 196.973377 
L 232.300128 184.857416 
L 233.356696 182.068236 
L 234.413264 180.423619 
L 235.469832 177.468219 
L 236.5264 177.562124 
L 237.582968 178.80059 
L 238.639536 185.690961 
L 239.696104 185.834271 
L 241.80924 198.87215 
L 242.865808 203.82049 
L 243.922376 202.259429 
L 244.978944 205.894119 
L 246.035512 200.979192 
L 247.09208 198.165651 
L 248.148648 198.124359 
L 249.205216 202.74615 
L 250.261784 200.578123 
L 251.318352 207.104849 
L 252.37492 208.241904 
L 253.431489 211.671763 
L 254.488057 220.244674 
L 255.544625 226.078778 
L 256.601193 223.863886 
L 257.657761 233.998962 
L 258.714329 240.383726 
L 259.770897 233.517676 
L 260.827465 219.293385 
L 261.884033 203.251104 
L 262.940601 183.622751 
L 263.997169 167.197618 
L 265.053737 165.252998 
L 266.110305 172.562654 
L 268.223441 213.618043 
L 269.280009 226.041419 
L 270.336577 232.462632 
L 271.393145 241.448056 
L 272.449713 239.391526 
L 273.506281 238.737845 
L 274.562849 239.787062 
L 275.619418 241.114508 
L 276.675986 244.070253 
L 277.732554 251.48424 
L 279.84569 244.248661 
L 280.902258 243.731784 
L 281.958826 242.244278 
L 283.015394 242.65733 
L 284.071962 244.176889 
L 285.12853 242.605043 
L 286.185098 239.931252 
L 287.241666 246.935916 
L 288.298234 247.059347 
L 289.354802 247.328921 
L 290.41137 246.558014 
L 291.467938 249.176368 
L 292.524506 242.836748 
L 293.581074 234.590488 
L 294.637642 229.319501 
L 295.69421 227.373291 
L 296.750778 221.952487 
L 297.807347 220.862935 
L 298.863915 222.835301 
L 299.920483 230.068009 
L 300.977051 230.003639 
L 302.033619 231.284555 
L 303.090187 235.291923 
L 304.146755 235.670859 
L 305.203323 228.611926 
L 306.259891 231.859133 
L 307.316459 225.800643 
L 308.373027 218.691941 
L 309.429595 222.921585 
L 310.486163 228.392567 
L 311.542731 231.680575 
L 312.599299 242.787511 
L 313.655867 246.709389 
L 314.712435 246.472815 
L 315.769003 243.713377 
L 316.825571 242.251513 
L 317.882139 232.996184 
L 318.938707 230.328151 
L 319.995276 217.506195 
L 322.108412 202.444106 
L 323.16498 204.81148 
L 324.221548 193.751729 
L 325.278116 206.275183 
L 326.334684 211.656683 
L 327.391252 216.266542 
L 328.44782 223.305393 
L 329.504388 233.047093 
L 330.560956 233.898707 
L 331.617524 238.766741 
L 332.674092 242.515821 
L 333.73066 237.896497 
L 334.787228 236.121135 
L 335.843796 236.59999 
L 336.900364 232.917594 
L 337.956932 225.295033 
L 339.0135 220.440519 
L 340.070068 231.054901 
L 341.126636 223.345173 
L 342.183205 212.189456 
L 343.239773 207.93829 
L 344.296341 206.054431 
L 345.352909 188.0728 
L 346.409477 211.199039 
L 347.466045 208.701605 
L 349.579181 230.900906 
L 350.635749 235.641406 
L 351.692317 229.113732 
L 352.748885 231.97843 
L 353.805453 219.871379 
L 355.918589 208.516872 
L 356.975157 202.5267 
L 358.031725 208.814891 
L 359.088293 212.61957 
L 360.144861 219.624428 
L 361.201429 224.597112 
L 362.257997 218.369966 
L 363.314565 218.790986 
L 364.371134 220.115873 
L 365.427702 209.632221 
L 366.48427 207.904703 
L 367.540838 210.24341 
L 368.597406 208.073872 
L 369.653974 213.692434 
L 370.710542 223.256838 
L 371.76711 225.292592 
L 373.880246 239.19396 
L 374.936814 236.682498 
L 375.993382 235.015614 
L 377.04995 234.544139 
L 378.106518 226.231095 
L 379.163086 205.578078 
L 380.219654 192.403863 
L 381.276222 183.378 
L 382.33279 159.096445 
L 383.389358 138.098858 
L 384.445926 145.342862 
L 385.502494 161.994275 
L 385.502494 161.994275 
" clip-path="url(#pb38bd85be5)" style="fill: none; stroke: #9467bd; stroke-width: 1.5; stroke-linecap: square"/>
   </g>
   <g id="line2d_24">
    <path d="M 29.439063 221.989476 
L 30.495631 228.904971 
L 31.552199 237.483987 
L 33.665335 250.133055 
L 35.778471 256.994611 
L 36.835039 253.038847 
L 38.948175 239.915086 
L 40.004743 236.632969 
L 41.061311 235.239876 
L 42.117879 227.68395 
L 43.174447 231.670455 
L 44.231015 240.522 
L 45.287583 246.901912 
L 46.344151 247.094508 
L 47.400719 245.135114 
L 48.457287 236.98727 
L 49.513855 227.417148 
L 50.570423 209.558869 
L 52.68356 154.479575 
L 53.740128 136.912814 
L 54.796696 136.626651 
L 55.853264 143.651398 
L 56.909832 138.702995 
L 57.9664 150.24993 
L 59.022968 157.637623 
L 60.079536 172.805614 
L 61.136104 172.308881 
L 62.192672 147.756838 
L 63.24924 139.424444 
L 64.305808 135.249771 
L 65.362376 118.380389 
L 66.418944 80.14313 
L 67.475512 68.347758 
L 68.53208 78.528388 
L 70.645216 83.731536 
L 71.701784 109.142714 
L 72.758352 114.016671 
L 73.81492 131.704446 
L 74.871489 137.894546 
L 75.928057 145.867244 
L 76.984625 159.375849 
L 78.041193 160.199988 
L 79.097761 173.774933 
L 80.154329 185.603024 
L 81.210897 187.691034 
L 83.324033 189.973888 
L 84.380601 189.661866 
L 85.437169 188.720384 
L 86.493737 183.420157 
L 87.550305 184.839306 
L 88.606873 187.32764 
L 89.663441 188.234936 
L 90.720009 190.808875 
L 91.776577 189.459306 
L 92.833145 189.315904 
L 93.889713 194.488321 
L 94.946281 196.222111 
L 96.002849 194.084129 
L 97.059418 192.551171 
L 98.115986 192.477858 
L 99.172554 193.836383 
L 100.229122 191.623847 
L 101.28569 188.740474 
L 102.342258 188.38451 
L 103.398826 189.755489 
L 104.455394 193.432394 
L 105.511962 198.363082 
L 106.56853 201.032618 
L 107.625098 206.925265 
L 108.681666 209.543013 
L 109.738234 213.252545 
L 110.794802 212.963095 
L 111.85137 207.846519 
L 113.964506 192.369156 
L 115.021074 189.197994 
L 117.13421 184.042107 
L 118.190778 187.198671 
L 121.360483 218.675332 
L 122.417051 224.780796 
L 123.473619 232.725185 
L 125.586755 243.690539 
L 126.643323 246.907814 
L 127.699891 247.474879 
L 128.756459 247.797075 
L 129.813027 249.480254 
L 130.869595 248.556817 
L 131.926163 245.08607 
L 134.039299 241.095177 
L 135.095867 238.815428 
L 137.209003 232.270423 
L 138.265571 231.130882 
L 139.322139 232.49656 
L 140.378707 234.57189 
L 141.435276 234.929153 
L 142.491844 236.028174 
L 143.548412 237.444895 
L 144.60498 238.514573 
L 145.661548 234.934333 
L 146.718116 238.395766 
L 147.774684 231.266365 
L 148.831252 229.132824 
L 149.88782 226.515892 
L 150.944388 229.239417 
L 152.000956 224.817696 
L 153.057524 209.621523 
L 154.114092 212.522123 
L 156.227228 216.641101 
L 157.283796 215.732855 
L 158.340364 217.061613 
L 159.396932 221.758769 
L 160.4535 232.710465 
L 161.510068 225.409058 
L 162.566636 226.675144 
L 163.623205 224.981941 
L 164.679773 225.516094 
L 165.736341 224.706134 
L 166.792909 219.993368 
L 167.849477 222.621729 
L 168.906045 230.960194 
L 169.962613 224.808205 
L 171.019181 219.699069 
L 172.075749 219.194515 
L 173.132317 212.348296 
L 174.188885 209.65087 
L 175.245453 194.907088 
L 176.302021 187.807324 
L 177.358589 195.211158 
L 178.415157 201.189777 
L 179.471725 199.121299 
L 180.528293 199.667689 
L 181.584861 201.664094 
L 182.641429 209.536309 
L 183.697997 206.137929 
L 184.754565 200.771985 
L 185.811134 200.539284 
L 186.867702 201.393693 
L 188.980838 190.557175 
L 190.037406 190.24811 
L 191.093974 187.367939 
L 192.150542 182.763564 
L 193.20711 175.139954 
L 194.263678 184.260041 
L 196.376814 185.693006 
L 197.433382 186.011723 
L 198.48995 189.053189 
L 199.546518 197.746163 
L 200.603086 192.377572 
L 201.659654 191.188962 
L 202.716222 196.093335 
L 203.77279 198.888857 
L 204.829358 207.49831 
L 206.942494 200.805821 
L 207.999063 208.713277 
L 209.055631 204.293783 
L 210.112199 199.221764 
L 211.168767 191.424833 
L 212.225335 192.344692 
L 213.281903 195.438584 
L 214.338471 188.410429 
L 215.395039 193.421343 
L 216.451607 191.466693 
L 217.508175 191.34645 
L 218.564743 191.086209 
L 219.621311 191.173373 
L 220.677879 195.888562 
L 221.734447 188.934661 
L 222.791015 184.957424 
L 224.904151 195.922878 
L 225.960719 195.865522 
L 227.017287 196.964714 
L 228.073855 196.992366 
L 229.130423 203.993471 
L 230.186991 201.233957 
L 231.24356 193.29733 
L 232.300128 188.48751 
L 233.356696 182.050611 
L 234.413264 182.922867 
L 235.469832 180.997684 
L 236.5264 176.85942 
L 237.582968 178.181248 
L 238.639536 182.759312 
L 239.696104 186.049535 
L 240.752672 190.908696 
L 241.80924 194.995539 
L 242.865808 200.316108 
L 243.922376 202.053777 
L 244.978944 203.05515 
L 246.035512 203.188982 
L 247.09208 199.818307 
L 248.148648 199.700281 
L 249.205216 201.146293 
L 250.261784 201.664569 
L 251.318352 204.221356 
L 252.37492 205.956449 
L 253.431489 210.922625 
L 254.488057 219.423925 
L 255.544625 221.610325 
L 256.601193 223.37897 
L 257.657761 229.049003 
L 258.714329 237.766712 
L 259.770897 236.693885 
L 261.884033 204.185953 
L 262.940601 198.109798 
L 266.110305 165.669523 
L 267.166873 180.766015 
L 268.223441 207.173387 
L 269.280009 222.415569 
L 270.336577 228.878611 
L 271.393145 232.116043 
L 272.449713 235.824645 
L 273.506281 241.744141 
L 274.562849 242.955834 
L 275.619418 241.247706 
L 276.675986 241.929208 
L 277.732554 244.83055 
L 278.789122 248.808845 
L 279.84569 247.351661 
L 280.902258 244.492239 
L 281.958826 242.862764 
L 283.015394 243.66558 
L 284.071962 242.552297 
L 285.12853 242.817807 
L 286.185098 240.92033 
L 287.241666 245.569599 
L 288.298234 247.629856 
L 289.354802 246.468575 
L 290.41137 244.839602 
L 291.467938 246.543437 
L 292.524506 247.840138 
L 293.581074 237.555391 
L 294.637642 231.830536 
L 295.69421 228.017048 
L 296.750778 226.505229 
L 297.807347 224.482092 
L 298.863915 220.162131 
L 299.920483 227.964603 
L 300.977051 228.595117 
L 302.033619 229.804007 
L 303.090187 235.451266 
L 304.146755 232.73684 
L 305.203323 232.56268 
L 306.259891 230.112794 
L 307.316459 226.306774 
L 308.373027 225.520005 
L 309.429595 222.253967 
L 310.486163 226.331124 
L 311.542731 232.637563 
L 312.599299 236.043033 
L 313.655867 243.321083 
L 314.712435 245.177288 
L 315.769003 243.392969 
L 316.825571 243.825994 
L 317.882139 237.09032 
L 318.938707 233.124849 
L 319.995276 221.039659 
L 321.051844 212.702705 
L 322.108412 210.684665 
L 323.16498 205.036894 
L 324.221548 201.452401 
L 325.278116 199.483568 
L 327.391252 216.050304 
L 328.44782 222.313926 
L 329.504388 226.144196 
L 330.560956 232.416854 
L 331.617524 235.082206 
L 332.674092 241.405172 
L 333.73066 239.654475 
L 334.787228 236.643814 
L 336.900364 234.275732 
L 337.956932 230.64629 
L 339.0135 221.01198 
L 340.070068 230.898177 
L 341.126636 224.796132 
L 342.183205 213.836756 
L 343.239773 209.756475 
L 344.296341 204.548007 
L 345.352909 207.130202 
L 346.409477 207.450722 
L 347.466045 200.66163 
L 348.522613 216.005997 
L 349.579181 224.572582 
L 350.635749 232.120267 
L 351.692317 237.700452 
L 352.748885 219.860697 
L 353.805453 224.810058 
L 354.862021 220.473006 
L 355.918589 214.0332 
L 356.975157 211.447442 
L 358.031725 201.640442 
L 359.088293 207.732467 
L 360.144861 220.268411 
L 361.201429 222.695635 
L 362.257997 219.51243 
L 363.314565 215.447644 
L 364.371134 217.315148 
L 365.427702 217.950687 
L 366.48427 213.291937 
L 367.540838 207.095546 
L 368.597406 206.703642 
L 369.653974 213.024949 
L 370.710542 220.627892 
L 371.76711 226.083403 
L 372.823678 227.727252 
L 374.936814 236.379788 
L 375.993382 237.591338 
L 377.04995 235.319626 
L 378.106518 228.491175 
L 379.163086 210.557 
L 380.219654 197.635586 
L 381.276222 195.404241 
L 382.33279 175.626667 
L 383.389358 148.325703 
L 384.445926 136.712246 
L 385.502494 159.959595 
L 385.502494 159.959595 
" clip-path="url(#pb38bd85be5)" style="fill: none; stroke: #8c564b; stroke-width: 1.5; stroke-linecap: square"/>
   </g>
   <g id="line2d_25">
    <path d="M 29.439063 224.216778 
L 30.495631 227.596136 
L 31.552199 236.094002 
L 32.608767 238.285498 
L 33.665335 247.009287 
L 34.721903 251.173405 
L 35.778471 253.38057 
L 36.835039 253.391419 
L 37.891607 250.111493 
L 38.948175 240.35466 
L 40.004743 240.873149 
L 41.061311 238.743918 
L 42.117879 231.524757 
L 43.174447 231.087585 
L 44.231015 239.084283 
L 45.287583 240.893702 
L 46.344151 246.996197 
L 47.400719 245.910647 
L 48.457287 233.085415 
L 49.513855 230.86679 
L 50.570423 221.875268 
L 51.626991 192.984554 
L 52.68356 172.579527 
L 53.740128 156.56697 
L 54.796696 133.393898 
L 55.853264 150.105108 
L 56.909832 145.513232 
L 57.9664 136.739153 
L 59.022968 150.483069 
L 60.079536 172.207681 
L 61.136104 164.739432 
L 62.192672 159.007124 
L 63.24924 141.932814 
L 64.305808 133.752243 
L 66.418944 113.209754 
L 67.475512 74.203567 
L 68.53208 74.821343 
L 69.588648 84.425418 
L 70.645216 85.512302 
L 71.701784 100.005778 
L 72.758352 109.382331 
L 73.81492 120.19955 
L 74.871489 134.191304 
L 75.928057 141.997781 
L 76.984625 153.047456 
L 78.041193 162.735832 
L 79.097761 166.052801 
L 80.154329 181.433711 
L 81.210897 182.665304 
L 82.267465 185.684395 
L 83.324033 190.052933 
L 84.380601 188.528151 
L 85.437169 189.949308 
L 86.493737 189.323584 
L 87.550305 181.997329 
L 88.606873 185.368481 
L 89.663441 189.494891 
L 90.720009 189.251731 
L 91.776577 189.776067 
L 92.833145 189.831957 
L 93.889713 191.63289 
L 94.946281 195.146246 
L 96.002849 195.216294 
L 97.059418 192.932486 
L 98.115986 191.218756 
L 99.172554 193.58218 
L 100.229122 193.580143 
L 101.28569 190.258975 
L 102.342258 188.474989 
L 103.398826 189.198645 
L 104.455394 191.981943 
L 105.511962 198.601115 
L 106.56853 199.784621 
L 107.625098 203.618883 
L 108.681666 206.544268 
L 109.738234 210.681256 
L 110.794802 211.804545 
L 111.85137 210.573035 
L 112.907938 201.272819 
L 115.021074 191.453746 
L 116.077642 191.567199 
L 117.13421 186.873421 
L 118.190778 188.362043 
L 119.247347 191.892493 
L 121.360483 214.499122 
L 122.417051 222.158824 
L 123.473619 227.322903 
L 124.530187 234.922937 
L 125.586755 240.308315 
L 126.643323 244.880253 
L 127.699891 247.623529 
L 128.756459 246.836933 
L 129.813027 248.36133 
L 130.869595 248.346486 
L 131.926163 246.014508 
L 132.982731 244.469403 
L 134.039299 242.710852 
L 135.095867 239.410904 
L 136.152435 238.158751 
L 137.209003 233.598803 
L 138.265571 230.819473 
L 139.322139 233.710105 
L 140.378707 235.321048 
L 141.435276 234.048867 
L 142.491844 235.757231 
L 143.548412 235.145673 
L 144.60498 236.280027 
L 145.661548 236.891486 
L 146.718116 240.248563 
L 147.774684 231.206691 
L 148.831252 230.855381 
L 149.88782 226.97232 
L 150.944388 229.200263 
L 152.000956 225.060755 
L 153.057524 220.171876 
L 154.114092 207.679122 
L 155.17066 216.719103 
L 156.227228 216.123738 
L 157.283796 220.271379 
L 158.340364 214.26839 
L 159.396932 217.436337 
L 160.4535 228.104504 
L 161.510068 227.449084 
L 162.566636 226.376218 
L 163.623205 227.223636 
L 164.679773 222.819885 
L 165.736341 223.999794 
L 166.792909 226.684388 
L 167.849477 218.385403 
L 168.906045 231.107781 
L 169.962613 225.63427 
L 171.019181 218.212387 
L 172.075749 218.52415 
L 173.132317 216.383034 
L 174.188885 209.44702 
L 175.245453 209.664523 
L 176.302021 187.671964 
L 177.358589 191.709338 
L 178.415157 202.671045 
L 179.471725 198.947973 
L 180.528293 198.387136 
L 181.584861 202.852002 
L 182.641429 201.008475 
L 183.697997 207.131896 
L 184.754565 207.18111 
L 185.811134 198.380668 
L 186.867702 200.348606 
L 187.92427 199.87207 
L 188.980838 191.497092 
L 190.037406 190.446999 
L 191.093974 191.399083 
L 192.150542 182.804438 
L 193.20711 178.836405 
L 194.263678 185.145917 
L 195.320246 181.658839 
L 196.376814 186.284838 
L 197.433382 187.806378 
L 198.48995 184.297498 
L 199.546518 192.130815 
L 200.603086 199.063592 
L 201.659654 187.727666 
L 202.716222 195.808404 
L 203.77279 199.024939 
L 204.829358 203.154815 
L 205.885926 204.902638 
L 206.942494 201.663825 
L 207.999063 202.345891 
L 209.055631 206.736348 
L 212.225335 191.746216 
L 213.281903 194.064329 
L 214.338471 191.922213 
L 215.395039 193.527147 
L 216.451607 190.499864 
L 217.508175 190.157175 
L 218.564743 191.456708 
L 219.621311 193.073793 
L 220.677879 192.318328 
L 221.734447 193.959995 
L 222.791015 183.119016 
L 224.904151 195.385749 
L 225.960719 197.120655 
L 227.017287 197.255697 
L 228.073855 194.920628 
L 229.130423 196.680503 
L 230.186991 203.076989 
L 231.24356 197.57802 
L 232.300128 190.830877 
L 233.356696 185.624953 
L 234.413264 182.786056 
L 235.469832 183.053444 
L 236.5264 179.987536 
L 237.582968 177.492985 
L 238.639536 181.681811 
L 239.696104 183.494688 
L 240.752672 190.37394 
L 242.865808 196.827227 
L 243.922376 199.273135 
L 244.978944 202.7665 
L 246.035512 201.103242 
L 247.09208 201.896283 
L 248.148648 200.885534 
L 249.205216 202.043694 
L 250.261784 200.439377 
L 251.318352 204.616121 
L 252.37492 203.633554 
L 253.431489 208.62509 
L 254.488057 217.74467 
L 255.544625 220.720925 
L 256.601193 219.863341 
L 257.657761 227.927071 
L 258.714329 233.158476 
L 259.770897 234.910488 
L 260.827465 225.785975 
L 261.884033 207.941713 
L 262.940601 199.687402 
L 263.997169 198.707123 
L 265.053737 190.269042 
L 266.110305 174.012436 
L 267.166873 174.001014 
L 269.280009 216.068495 
L 270.336577 225.453198 
L 271.393145 229.092188 
L 272.449713 228.265121 
L 273.506281 238.433858 
L 274.562849 244.842663 
L 275.619418 243.724589 
L 276.675986 241.926549 
L 277.732554 242.904976 
L 278.789122 243.356351 
L 279.84569 248.122206 
L 280.902258 247.117699 
L 281.958826 243.645552 
L 283.015394 243.986768 
L 284.071962 243.433191 
L 285.12853 241.603178 
L 286.185098 241.348576 
L 287.241666 245.588154 
L 289.354802 247.045601 
L 290.41137 244.443331 
L 292.524506 245.747859 
L 293.581074 242.868152 
L 294.637642 234.842259 
L 295.69421 230.38515 
L 296.750778 227.185875 
L 297.807347 227.958074 
L 298.863915 223.389952 
L 299.920483 225.05755 
L 300.977051 226.98329 
L 302.033619 228.624362 
L 303.090187 233.647225 
L 304.146755 233.246031 
L 305.203323 230.430796 
L 306.259891 233.251507 
L 307.316459 225.549898 
L 308.373027 225.995159 
L 309.429595 227.465659 
L 310.486163 225.295127 
L 311.542731 230.343622 
L 312.599299 236.22079 
L 313.655867 237.527549 
L 314.712435 242.454916 
L 315.769003 242.69455 
L 316.825571 243.535674 
L 317.882139 239.268226 
L 318.938707 236.622724 
L 319.995276 225.01847 
L 321.051844 216.551369 
L 322.108412 213.028343 
L 323.16498 211.640465 
L 324.221548 202.135661 
L 325.278116 205.063105 
L 326.334684 201.700388 
L 327.391252 212.108094 
L 328.44782 221.294101 
L 329.504388 224.91422 
L 330.560956 226.586756 
L 331.617524 233.659203 
L 332.674092 237.965307 
L 333.73066 239.090415 
L 334.787228 238.351026 
L 336.900364 233.567325 
L 337.956932 232.163538 
L 339.0135 226.405136 
L 340.070068 229.918076 
L 341.126636 225.572872 
L 342.183205 216.58916 
L 344.296341 206.636402 
L 345.352909 205.696889 
L 346.409477 219.365454 
L 347.466045 198.769517 
L 348.522613 208.497259 
L 349.579181 221.001101 
L 350.635749 226.606567 
L 351.692317 234.457609 
L 352.748885 229.239561 
L 353.805453 214.906728 
L 354.862021 224.614148 
L 355.918589 219.388388 
L 356.975157 215.676684 
L 358.031725 209.501049 
L 359.088293 201.716173 
L 360.144861 215.272482 
L 361.201429 222.800972 
L 362.257997 218.557175 
L 363.314565 216.872474 
L 364.371134 214.634301 
L 365.427702 215.824891 
L 366.48427 219.75121 
L 368.597406 204.452877 
L 369.653974 211.199039 
L 370.710542 219.122065 
L 372.823678 228.047303 
L 373.880246 228.430693 
L 374.936814 230.604082 
L 375.993382 237.204907 
L 377.04995 237.482213 
L 378.106518 230.081928 
L 379.163086 215.134229 
L 380.219654 203.320906 
L 381.276222 199.390569 
L 382.33279 187.609692 
L 383.389358 164.960216 
L 384.445926 145.766864 
L 385.502494 151.084892 
L 385.502494 151.084892 
" clip-path="url(#pb38bd85be5)" style="fill: none; stroke: #e377c2; stroke-width: 1.5; stroke-linecap: square"/>
   </g>
   <g id="patch_3">
    <path d="M 29.439063 284.991437 
L 29.439063 18.879437 
" style="fill: none; stroke: #000000; stroke-width: 0.8; stroke-linejoin: miter; stroke-linecap: square"/>
   </g>
   <g id="patch_4">
    <path d="M 386.559062 284.991437 
L 386.559062 18.879437 
" style="fill: none; stroke: #000000; stroke-width: 0.8; stroke-linejoin: miter; stroke-linecap: square"/>
   </g>
   <g id="patch_5">
    <path d="M 29.439063 284.991437 
L 386.559063 284.991437 
" style="fill: none; stroke: #000000; stroke-width: 0.8; stroke-linejoin: miter; stroke-linecap: square"/>
   </g>
   <g id="patch_6">
    <path d="M 29.439063 18.879437 
L 386.559063 18.879437 
" style="fill: none; stroke: #000000; stroke-width: 0.8; stroke-linejoin: miter; stroke-linecap: square"/>
   </g>
   <g id="legend_1">
    <g id="patch_7">
     <path d="M 188.849844 127.613812 
L 227.148281 127.613812 
Q 229.148281 127.613812 229.148281 125.613812 
L 229.148281 25.879437 
Q 229.148281 23.879437 227.148281 23.879437 
L 188.849844 23.879437 
Q 186.849844 23.879437 186.849844 25.879437 
L 186.849844 125.613812 
Q 186.849844 127.613812 188.849844 127.613812 
z
" style="fill: #ffffff; opacity: 0.8; stroke: #cccccc; stroke-linejoin: miter"/>
    </g>
    <g id="line2d_26">
     <path d="M 190.849844 31.870062 
L 200.849844 31.870062 
L 210.849844 31.870062 
" style="fill: none; stroke: #1f77b4; stroke-width: 1.5; stroke-linecap: square"/>
    </g>
    <g id="text_18">
     <!-- 1 -->
     <g transform="translate(218.849844 35.370062) scale(0.1 -0.1)">
      <use xlink:href="#IPAexGothic-31"/>
     </g>
    </g>
    <g id="line2d_27">
     <path d="M 190.849844 46.260687 
L 200.849844 46.260687 
L 210.849844 46.260687 
" style="fill: none; stroke: #ff7f0e; stroke-width: 1.5; stroke-linecap: square"/>
    </g>
    <g id="text_19">
     <!-- 2 -->
     <g transform="translate(218.849844 49.760687) scale(0.1 -0.1)">
      <use xlink:href="#IPAexGothic-32"/>
     </g>
    </g>
    <g id="line2d_28">
     <path d="M 190.849844 60.651312 
L 200.849844 60.651312 
L 210.849844 60.651312 
" style="fill: none; stroke: #2ca02c; stroke-width: 1.5; stroke-linecap: square"/>
    </g>
    <g id="text_20">
     <!-- 3 -->
     <g transform="translate(218.849844 64.151312) scale(0.1 -0.1)">
      <use xlink:href="#IPAexGothic-33"/>
     </g>
    </g>
    <g id="line2d_29">
     <path d="M 190.849844 75.041937 
L 200.849844 75.041937 
L 210.849844 75.041937 
" style="fill: none; stroke: #d62728; stroke-width: 1.5; stroke-linecap: square"/>
    </g>
    <g id="text_21">
     <!-- 4 -->
     <g transform="translate(218.849844 78.541937) scale(0.1 -0.1)">
      <defs>
       <path id="IPAexGothic-34" d="M 3813 1159 
L 3059 1159 
L 3059 63 
L 2547 63 
L 2547 1159 
L 197 1159 
L 197 1672 
L 2456 4678 
L 3059 4678 
L 3059 1634 
L 3813 1634 
L 3813 1159 
z
M 2578 4109 
L 2559 4109 
Q 2278 3656 2003 3284 
L 759 1634 
L 2547 1634 
L 2547 3144 
Q 2547 3481 2578 4109 
z
" transform="scale(0.015625)"/>
      </defs>
      <use xlink:href="#IPAexGothic-34"/>
     </g>
    </g>
    <g id="line2d_30">
     <path d="M 190.849844 89.432562 
L 200.849844 89.432562 
L 210.849844 89.432562 
" style="fill: none; stroke: #9467bd; stroke-width: 1.5; stroke-linecap: square"/>
    </g>
    <g id="text_22">
     <!-- 5 -->
     <g transform="translate(218.849844 92.932562) scale(0.1 -0.1)">
      <use xlink:href="#IPAexGothic-35"/>
     </g>
    </g>
    <g id="line2d_31">
     <path d="M 190.849844 103.823187 
L 200.849844 103.823187 
L 210.849844 103.823187 
" style="fill: none; stroke: #8c564b; stroke-width: 1.5; stroke-linecap: square"/>
    </g>
    <g id="text_23">
     <!-- 6 -->
     <g transform="translate(218.849844 107.323187) scale(0.1 -0.1)">
      <defs>
       <path id="IPAexGothic-36" d="M 1056 2328 
Q 1509 2981 2234 2981 
Q 2906 2981 3316 2513 
Q 3675 2106 3675 1522 
Q 3675 884 3272 434 
Q 2853 -31 2178 -31 
Q 1375 -31 922 581 
Q 481 1178 481 2228 
Q 481 3425 1013 4109 
Q 1494 4725 2272 4725 
Q 3191 4725 3609 4025 
L 3150 3775 
Q 2894 4266 2300 4266 
Q 1119 4266 1031 2328 
L 1056 2328 
z
M 2141 2547 
Q 1684 2547 1384 2206 
Q 1116 1900 1116 1541 
Q 1116 1156 1353 844 
Q 1672 428 2159 428 
Q 2669 428 2941 844 
Q 3125 1128 3125 1503 
Q 3125 1944 2881 2228 
Q 2600 2547 2141 2547 
z
" transform="scale(0.015625)"/>
      </defs>
      <use xlink:href="#IPAexGothic-36"/>
     </g>
    </g>
    <g id="line2d_32">
     <path d="M 190.849844 118.213812 
L 200.849844 118.213812 
L 210.849844 118.213812 
" style="fill: none; stroke: #e377c2; stroke-width: 1.5; stroke-linecap: square"/>
    </g>
    <g id="text_24">
     <!-- 7 -->
     <g transform="translate(218.849844 121.713812) scale(0.1 -0.1)">
      <defs>
       <path id="IPAexGothic-37" d="M 3597 4263 
Q 2238 2106 1778 63 
L 1131 63 
Q 1581 1834 2950 4128 
L 428 4128 
L 428 4634 
L 3597 4634 
L 3597 4263 
z
" transform="scale(0.015625)"/>
      </defs>
      <use xlink:href="#IPAexGothic-37"/>
     </g>
    </g>
   </g>
  </g>
  <g id="axes_2">
   <g id="matplotlib.axis_3"/>
   <g id="patch_8">
    <path d="M 29.439063 284.991437 
L 29.439063 18.879437 
" style="fill: none; stroke: #000000; stroke-width: 0.8; stroke-linejoin: miter; stroke-linecap: square"/>
   </g>
   <g id="patch_9">
    <path d="M 386.559062 284.991437 
L 386.559062 18.879437 
" style="fill: none; stroke: #000000; stroke-width: 0.8; stroke-linejoin: miter; stroke-linecap: square"/>
   </g>
   <g id="patch_10">
    <path d="M 29.439063 284.991437 
L 386.559063 284.991437 
" style="fill: none; stroke: #000000; stroke-width: 0.8; stroke-linejoin: miter; stroke-linecap: square"/>
   </g>
   <g id="patch_11">
    <path d="M 29.439063 18.879437 
L 386.559063 18.879437 
" style="fill: none; stroke: #000000; stroke-width: 0.8; stroke-linejoin: miter; stroke-linecap: square"/>
   </g>
  </g>
  <g id="text_25">
   <!-- : 2023/05/04 16:13:57(JST) -->
   <g transform="translate(211.087188 15.423437) scale(0.1 -0.1)">
    <defs>
     <path id="IPAexGothic-66f4" d="M 2956 3994 
L 2956 4588 
L 513 4588 
L 513 4984 
L 5881 4984 
L 5881 4588 
L 3413 4588 
L 3413 3994 
L 5300 3994 
L 5300 1288 
L 4838 1288 
L 4838 1759 
L 3406 1759 
Q 3384 1125 3150 709 
Q 4291 244 5997 31 
L 5694 -428 
Q 4109 -166 2906 384 
Q 2294 -266 744 -488 
L 494 -66 
Q 1903 59 2491 588 
Q 2041 813 1594 1166 
L 1928 1434 
Q 2331 1106 2747 897 
Q 2922 1219 2950 1759 
L 1556 1759 
L 1556 1413 
L 1097 1413 
L 1097 3994 
L 2956 3994 
z
M 2956 3609 
L 1556 3609 
L 1556 3078 
L 2956 3078 
L 2956 3609 
z
M 3413 3609 
L 3413 3078 
L 4838 3078 
L 4838 3609 
L 3413 3609 
z
M 2956 2700 
L 1556 2700 
L 1556 2144 
L 2956 2144 
L 2956 2700 
z
M 3413 2700 
L 3413 2144 
L 4838 2144 
L 4838 2700 
L 3413 2700 
z
" transform="scale(0.015625)"/>
     <path id="IPAexGothic-65b0" d="M 3891 2803 
Q 3881 1759 3794 1166 
Q 3653 197 3097 -563 
L 2741 -250 
Q 3450 700 3450 2631 
L 3450 4647 
Q 3516 4656 3622 4666 
Q 4656 4778 5447 5063 
L 5825 4678 
Q 4897 4419 3891 4294 
L 3891 3219 
L 6119 3219 
L 6119 2803 
L 5275 2803 
L 5275 -447 
L 4834 -447 
L 4834 2803 
L 3891 2803 
z
M 2822 4069 
Q 2678 3572 2519 3181 
L 3250 3181 
L 3250 2784 
L 2059 2784 
L 2059 2216 
L 3184 2216 
L 3184 1831 
L 2059 1831 
L 2059 1544 
Q 2613 1197 3031 847 
L 2781 456 
Q 2472 791 2059 1128 
L 2059 -447 
L 1644 -447 
L 1644 1294 
Q 1272 628 575 -31 
L 269 341 
Q 1041 938 1528 1831 
L 453 1831 
L 453 2216 
L 1644 2216 
L 1644 2784 
L 319 2784 
L 319 3181 
L 1125 3181 
Q 1013 3706 881 4069 
L 453 4069 
L 453 4453 
L 1631 4453 
L 1631 5309 
L 2072 5309 
L 2072 4453 
L 3166 4453 
L 3166 4069 
L 2822 4069 
z
M 2391 4069 
L 1325 4069 
Q 1450 3672 1534 3181 
L 2109 3181 
Q 2294 3659 2391 4069 
z
" transform="scale(0.015625)"/>
     <path id="IPAexGothic-65e5" d="M 5231 4800 
L 5231 -288 
L 4744 -288 
L 4744 128 
L 1647 128 
L 1647 -288 
L 1159 -288 
L 1159 4800 
L 5231 4800 
z
M 1647 4372 
L 1647 2731 
L 4744 2731 
L 4744 4372 
L 1647 4372 
z
M 1647 2297 
L 1647 556 
L 4744 556 
L 4744 2297 
L 1647 2297 
z
" transform="scale(0.015625)"/>
     <path id="IPAexGothic-6642" d="M 2328 4728 
L 2328 563 
L 934 563 
L 934 56 
L 519 56 
L 519 4728 
L 2328 4728 
z
M 934 4331 
L 934 2881 
L 1906 2881 
L 1906 4331 
L 934 4331 
z
M 934 2497 
L 934 953 
L 1906 953 
L 1906 2497 
L 934 2497 
z
M 3938 4372 
L 3938 5313 
L 4378 5313 
L 4378 4372 
L 5772 4372 
L 5772 3981 
L 4378 3981 
L 4378 3194 
L 6072 3194 
L 6072 2803 
L 5203 2803 
L 5203 2047 
L 5959 2047 
L 5959 1650 
L 5216 1650 
L 5216 31 
Q 5216 -447 4691 -447 
Q 4394 -447 3888 -391 
L 3784 78 
Q 4272 0 4591 0 
Q 4775 0 4775 172 
L 4775 1650 
L 2581 1650 
L 2581 2047 
L 4763 2047 
L 4763 2803 
L 2538 2803 
L 2538 3194 
L 3938 3194 
L 3938 3981 
L 2716 3981 
L 2716 4372 
L 3938 4372 
z
M 3669 384 
Q 3331 950 2956 1325 
L 3291 1575 
Q 3719 1147 4025 659 
L 3669 384 
z
" transform="scale(0.015625)"/>
     <path id="IPAexGothic-3a" d="M 1369 2559 
L 672 2559 
L 672 3250 
L 1369 3250 
L 1369 2559 
z
M 1369 63 
L 672 63 
L 672 753 
L 1369 753 
L 1369 63 
z
" transform="scale(0.015625)"/>
     <path id="IPAexGothic-20" transform="scale(0.015625)"/>
     <path id="IPAexGothic-2f" d="M 2719 4709 
L 600 -884 
L 300 -763 
L 2413 4831 
L 2719 4709 
z
" transform="scale(0.015625)"/>
     <path id="IPAexGothic-28" d="M 1928 -1016 
L 1653 -1166 
Q 488 69 488 1875 
Q 488 3678 1653 4909 
L 1928 4763 
Q 1006 3522 1006 1881 
Q 1006 203 1928 -1016 
z
" transform="scale(0.015625)"/>
     <path id="IPAexGothic-54" d="M 3866 4141 
L 2175 4141 
L 2175 63 
L 1606 63 
L 1606 4141 
L -31 4141 
L -31 4634 
L 3866 4634 
L 3866 4141 
z
" transform="scale(0.015625)"/>
     <path id="IPAexGothic-29" d="M 466 4909 
Q 1638 3672 1638 1875 
Q 1638 75 466 -1166 
L 191 -1016 
Q 1119 216 1119 1881 
Q 1119 3509 191 4763 
L 466 4909 
z
" transform="scale(0.015625)"/>
    </defs>
    <use xlink:href="#IPAexGothic-66f4"/>
    <use xlink:href="#IPAexGothic-65b0" x="100"/>
    <use xlink:href="#IPAexGothic-65e5" x="200"/>
    <use xlink:href="#IPAexGothic-6642" x="300"/>
    <use xlink:href="#IPAexGothic-3a" x="400"/>
    <use xlink:href="#IPAexGothic-20" x="431.982422"/>
    <use xlink:href="#IPAexGothic-32" x="458.984375"/>
    <use xlink:href="#IPAexGothic-30" x="521.972656"/>
    <use xlink:href="#IPAexGothic-32" x="584.960938"/>
    <use xlink:href="#IPAexGothic-33" x="647.949219"/>
    <use xlink:href="#IPAexGothic-2f" x="710.9375"/>
    <use xlink:href="#IPAexGothic-30" x="760.9375"/>
    <use xlink:href="#IPAexGothic-35" x="823.925781"/>
    <use xlink:href="#IPAexGothic-2f" x="886.914062"/>
    <use xlink:href="#IPAexGothic-30" x="936.914062"/>
    <use xlink:href="#IPAexGothic-34" x="999.902344"/>
    <use xlink:href="#IPAexGothic-20" x="1062.890625"/>
    <use xlink:href="#IPAexGothic-31" x="1089.892578"/>
    <use xlink:href="#IPAexGothic-36" x="1152.880859"/>
    <use xlink:href="#IPAexGothic-3a" x="1215.869141"/>
    <use xlink:href="#IPAexGothic-31" x="1247.851562"/>
    <use xlink:href="#IPAexGothic-33" x="1310.839844"/>
    <use xlink:href="#IPAexGothic-3a" x="1373.828125"/>
    <use xlink:href="#IPAexGothic-35" x="1405.810547"/>
    <use xlink:href="#IPAexGothic-37" x="1468.798828"/>
    <use xlink:href="#IPAexGothic-28" x="1531.787109"/>
    <use xlink:href="#IPAexGothic-4a" x="1565.087891"/>
    <use xlink:href="#IPAexGothic-53" x="1603.076172"/>
    <use xlink:href="#IPAexGothic-54" x="1661.572266"/>
    <use xlink:href="#IPAexGothic-29" x="1721.484375"/>
   </g>
  </g>
 </g>
 <defs>
  <clipPath id="pb38bd85be5">
   <rect x="29.439063" y="18.879437" width="357.12" height="266.112"/>
  </clipPath>
 </defs>
</svg>
