<?xml version="1.0" encoding="utf-8" standalone="no"?>
<!DOCTYPE svg PUBLIC "-//W3C//DTD SVG 1.1//EN"
  "http://www.w3.org/Graphics/SVG/1.1/DTD/svg11.dtd">
<svg xmlns:xlink="http://www.w3.org/1999/xlink" width="398.2625pt" height="308.582062pt" viewBox="0 0 398.2625 308.582062" xmlns="http://www.w3.org/2000/svg" version="1.1">
 <metadata>
  <rdf:RDF xmlns:dc="http://purl.org/dc/elements/1.1/" xmlns:cc="http://creativecommons.org/ns#" xmlns:rdf="http://www.w3.org/1999/02/22-rdf-syntax-ns#">
   <cc:Work>
    <dc:type rdf:resource="http://purl.org/dc/dcmitype/StillImage"/>
    <dc:date>2023-02-03T07:14:33.345787</dc:date>
    <dc:format>image/svg+xml</dc:format>
    <dc:creator>
     <cc:Agent>
      <dc:title>Matplotlib v3.6.3, https://matplotlib.org/</dc:title>
     </cc:Agent>
    </dc:creator>
   </cc:Work>
  </rdf:RDF>
 </metadata>
 <defs>
  <style type="text/css">*{stroke-linejoin: round; stroke-linecap: butt}</style>
 </defs>
 <g id="figure_1">
  <g id="patch_1">
   <path d="M 0 308.582062 
L 398.2625 308.582062 
L 398.2625 0 
L 0 0 
z
" style="fill: #ffffff"/>
  </g>
  <g id="axes_1">
   <g id="patch_2">
    <path d="M 29.439063 284.991437 
L 386.559062 284.991437 
L 386.559062 18.879437 
L 29.439063 18.879437 
z
" style="fill: #ffffff"/>
   </g>
   <g id="line2d_1">
    <path d="M 29.439063 211.199039 
L 386.559062 211.199039 
" clip-path="url(#p9f6be19a4e)" style="fill: none; stroke: #000000; stroke-linecap: square"/>
   </g>
   <g id="matplotlib.axis_1">
    <g id="xtick_1">
     <g id="line2d_2">
      <defs>
       <path id="m1a4746e0b9" d="M 0 0 
L 0 3.5 
" style="stroke: #000000; stroke-width: 0.8"/>
      </defs>
      <g>
       <use xlink:href="#m1a4746e0b9" x="29.439063" y="284.991437" style="stroke: #000000; stroke-width: 0.8"/>
      </g>
     </g>
     <g id="text_1">
      <!-- Jun -->
      <g transform="translate(21.499219 299.482062) scale(0.1 -0.1)">
       <defs>
        <path id="IPAexGothic-4a" d="M 1819 4634 
L 1819 1234 
Q 1819 -31 763 -31 
Q 303 -31 -125 209 
L 84 644 
Q 378 447 694 447 
Q 1250 447 1250 1203 
L 1250 4634 
L 1819 4634 
z
" transform="scale(0.015625)"/>
        <path id="IPAexGothic-75" d="M 3284 63 
L 2772 63 
L 2772 644 
Q 2300 0 1625 0 
Q 1072 0 763 375 
Q 519 678 519 1241 
L 519 3250 
L 1069 3250 
L 1069 1259 
Q 1069 466 1734 466 
Q 2406 466 2734 1291 
L 2734 3250 
L 3284 3250 
L 3284 63 
z
" transform="scale(0.015625)"/>
        <path id="IPAexGothic-6e" d="M 3328 63 
L 2778 63 
L 2778 2041 
Q 2778 2853 2106 2853 
Q 1428 2853 1113 2041 
L 1113 63 
L 563 63 
L 563 3250 
L 1075 3250 
L 1075 2675 
Q 1525 3316 2222 3316 
Q 3328 3316 3328 2072 
L 3328 63 
z
" transform="scale(0.015625)"/>
       </defs>
       <use xlink:href="#IPAexGothic-4a"/>
       <use xlink:href="#IPAexGothic-75" x="37.988281"/>
       <use xlink:href="#IPAexGothic-6e" x="98.388672"/>
      </g>
     </g>
    </g>
    <g id="xtick_2">
     <g id="line2d_3">
      <g>
       <use xlink:href="#m1a4746e0b9" x="72.639063" y="284.991437" style="stroke: #000000; stroke-width: 0.8"/>
      </g>
     </g>
     <g id="text_2">
      <!-- Jul -->
      <g transform="translate(66.369531 299.482062) scale(0.1 -0.1)">
       <defs>
        <path id="IPAexGothic-6c" d="M 1131 63 
L 581 63 
L 581 4794 
L 1131 4794 
L 1131 63 
z
" transform="scale(0.015625)"/>
       </defs>
       <use xlink:href="#IPAexGothic-4a"/>
       <use xlink:href="#IPAexGothic-75" x="37.988281"/>
       <use xlink:href="#IPAexGothic-6c" x="98.388672"/>
      </g>
     </g>
    </g>
    <g id="xtick_3">
     <g id="line2d_4">
      <g>
       <use xlink:href="#m1a4746e0b9" x="117.279063" y="284.991437" style="stroke: #000000; stroke-width: 0.8"/>
      </g>
     </g>
     <g id="text_3">
      <!-- Aug -->
      <g transform="translate(108.297031 299.42425) scale(0.1 -0.1)">
       <defs>
        <path id="IPAexGothic-41" d="M 4056 63 
L 3444 63 
L 2938 1409 
L 1100 1409 
L 603 63 
L -6 63 
L 1806 4666 
L 2259 4666 
L 4056 63 
z
M 2778 1863 
L 2316 3078 
Q 2125 3588 2028 4000 
L 2009 4000 
Q 1897 3563 1716 3078 
L 1263 1863 
L 2778 1863 
z
" transform="scale(0.015625)"/>
        <path id="IPAexGothic-67" d="M 1331 1150 
Q 1006 1122 1006 900 
Q 1006 613 1763 575 
L 2131 556 
Q 3303 497 3303 -294 
Q 3303 -700 2925 -959 
Q 2519 -1253 1794 -1253 
Q 1138 -1253 738 -1028 
Q 353 -809 353 -428 
Q 353 84 1075 247 
L 1075 269 
Q 506 413 506 778 
Q 506 1116 994 1297 
Q 456 1575 456 2181 
Q 456 2650 769 2963 
Q 1128 3322 1738 3322 
Q 2125 3322 2422 3153 
Q 2650 3453 3259 3463 
L 3259 3013 
Q 2838 3003 2703 2938 
Q 3034 2613 3034 2169 
Q 3034 1728 2734 1425 
Q 2400 1094 1813 1094 
Q 1563 1094 1331 1150 
z
M 1734 2919 
Q 1409 2919 1197 2706 
Q 988 2497 988 2181 
Q 988 1872 1184 1684 
Q 1397 1472 1756 1472 
Q 2094 1472 2297 1678 
Q 2503 1881 2503 2203 
Q 2503 2497 2297 2700 
Q 2081 2919 1734 2919 
z
M 1753 159 
Q 903 159 903 -366 
Q 903 -875 1800 -875 
Q 2378 -875 2638 -606 
Q 2772 -481 2772 -313 
Q 2772 159 1753 159 
z
" transform="scale(0.015625)"/>
       </defs>
       <use xlink:href="#IPAexGothic-41"/>
       <use xlink:href="#IPAexGothic-75" x="63.720703"/>
       <use xlink:href="#IPAexGothic-67" x="124.121094"/>
      </g>
     </g>
    </g>
    <g id="xtick_4">
     <g id="line2d_5">
      <g>
       <use xlink:href="#m1a4746e0b9" x="161.919063" y="284.991437" style="stroke: #000000; stroke-width: 0.8"/>
      </g>
     </g>
     <g id="text_4">
      <!-- Sep -->
      <g transform="translate(153.044063 299.482062) scale(0.1 -0.1)">
       <defs>
        <path id="IPAexGothic-53" d="M 2919 3641 
Q 2563 4259 1853 4259 
Q 1453 4259 1213 4009 
Q 1028 3803 1028 3534 
Q 1028 3238 1266 3047 
Q 1444 2913 1984 2688 
L 2200 2597 
Q 2925 2306 3191 1953 
Q 3422 1644 3422 1259 
Q 3422 644 2969 288 
Q 2559 -31 1931 -31 
Q 881 -31 313 766 
L 753 1100 
Q 1203 459 1938 459 
Q 2288 459 2534 625 
Q 2841 847 2841 1216 
Q 2841 1503 2616 1728 
Q 2375 1959 1728 2206 
L 1541 2278 
Q 453 2694 453 3481 
Q 453 4006 806 4347 
Q 1203 4725 1863 4725 
Q 2841 4725 3359 3956 
L 2919 3641 
z
" transform="scale(0.015625)"/>
        <path id="IPAexGothic-65" d="M 863 1594 
Q 891 1041 1209 722 
Q 1534 397 1997 397 
Q 2606 397 2963 966 
L 3322 728 
Q 2869 -31 1931 -31 
Q 1222 -31 766 422 
Q 306 884 306 1641 
Q 306 2444 788 2925 
Q 1216 3353 1856 3353 
Q 2459 3353 2866 2956 
Q 3322 2494 3322 1722 
L 3322 1594 
L 863 1594 
z
M 2756 1997 
Q 2709 2431 2450 2681 
Q 2194 2938 1844 2938 
Q 1438 2938 1150 2591 
Q 953 2356 894 1997 
L 2756 1997 
z
" transform="scale(0.015625)"/>
        <path id="IPAexGothic-70" d="M 1075 2688 
Q 1525 3341 2206 3341 
Q 2769 3341 3172 2938 
Q 3641 2469 3641 1644 
Q 3641 841 3178 372 
Q 2775 -31 2200 -31 
Q 1569 -31 1106 497 
L 1106 -1216 
L 563 -1216 
L 563 3250 
L 1075 3250 
L 1075 2688 
z
M 1106 1950 
L 1106 1291 
Q 1106 897 1516 600 
Q 1791 403 2106 403 
Q 2469 403 2725 659 
Q 3066 997 3066 1631 
Q 3066 2200 2784 2559 
Q 2503 2900 2100 2900 
Q 1656 2900 1338 2484 
Q 1106 2184 1106 1950 
z
" transform="scale(0.015625)"/>
       </defs>
       <use xlink:href="#IPAexGothic-53"/>
       <use xlink:href="#IPAexGothic-65" x="58.496094"/>
       <use xlink:href="#IPAexGothic-70" x="115.380859"/>
      </g>
     </g>
    </g>
    <g id="xtick_5">
     <g id="line2d_6">
      <g>
       <use xlink:href="#m1a4746e0b9" x="205.119063" y="284.991437" style="stroke: #000000; stroke-width: 0.8"/>
      </g>
     </g>
     <g id="text_5">
      <!-- Oct -->
      <g transform="translate(196.683906 299.482062) scale(0.1 -0.1)">
       <defs>
        <path id="IPAexGothic-4f" d="M 2541 4725 
Q 3456 4725 4044 4138 
Q 4709 3472 4709 2331 
Q 4709 1219 4031 550 
Q 3450 -31 2541 -31 
Q 1638 -31 1056 550 
Q 378 1219 378 2356 
Q 378 3469 1044 4138 
Q 1631 4725 2541 4725 
z
M 2541 4266 
Q 1953 4266 1531 3844 
Q 994 3303 994 2350 
Q 994 1391 1531 863 
Q 1947 447 2541 447 
Q 3131 447 3556 863 
Q 4094 1400 4094 2375 
Q 4094 3297 3550 3844 
Q 3138 4266 2541 4266 
z
" transform="scale(0.015625)"/>
        <path id="IPAexGothic-63" d="M 3269 784 
Q 2834 -31 1900 -31 
Q 1228 -31 788 409 
Q 313 891 313 1663 
Q 313 2428 788 2913 
Q 1222 3347 1881 3347 
Q 2813 3347 3206 2541 
L 2763 2309 
Q 2484 2900 1900 2900 
Q 1516 2900 1234 2619 
Q 881 2266 881 1650 
Q 881 1069 1222 728 
Q 1522 428 1956 428 
Q 2547 428 2847 1016 
L 3269 784 
z
" transform="scale(0.015625)"/>
        <path id="IPAexGothic-74" d="M 2125 241 
Q 1769 -6 1397 -6 
Q 653 -6 653 831 
L 653 2859 
L 219 2859 
L 219 3250 
L 653 3250 
L 653 3966 
L 1178 4228 
L 1178 3250 
L 2063 3250 
L 2063 2859 
L 1178 2859 
L 1178 906 
Q 1178 416 1513 416 
Q 1738 416 1941 588 
L 2125 241 
z
" transform="scale(0.015625)"/>
       </defs>
       <use xlink:href="#IPAexGothic-4f"/>
       <use xlink:href="#IPAexGothic-63" x="79.6875"/>
       <use xlink:href="#IPAexGothic-74" x="134.082031"/>
      </g>
     </g>
    </g>
    <g id="xtick_6">
     <g id="line2d_7">
      <g>
       <use xlink:href="#m1a4746e0b9" x="249.759063" y="284.991437" style="stroke: #000000; stroke-width: 0.8"/>
      </g>
     </g>
     <g id="text_6">
      <!-- Nov -->
      <g transform="translate(240.510625 299.482062) scale(0.1 -0.1)">
       <defs>
        <path id="IPAexGothic-4e" d="M 4244 63 
L 3731 63 
L 1697 3150 
Q 1466 3500 1141 4097 
L 1116 4097 
L 1128 3797 
Q 1159 2803 1159 2469 
L 1159 63 
L 609 63 
L 609 4634 
L 1366 4634 
L 3113 1978 
Q 3453 1447 3713 966 
L 3738 966 
Q 3694 1897 3694 2469 
L 3694 4634 
L 4244 4634 
L 4244 63 
z
" transform="scale(0.015625)"/>
        <path id="IPAexGothic-6f" d="M 1919 3341 
Q 2594 3341 3056 2888 
Q 3531 2413 3531 1638 
Q 3531 888 3066 422 
Q 2609 -31 1919 -31 
Q 1228 -31 781 416 
Q 313 881 313 1656 
Q 313 2413 788 2888 
Q 1241 3341 1919 3341 
z
M 1919 2919 
Q 1519 2919 1241 2631 
Q 888 2278 888 1650 
Q 888 1031 1234 684 
Q 1516 403 1919 403 
Q 2331 403 2609 691 
Q 2956 1038 2956 1672 
Q 2956 2269 2603 2631 
Q 2316 2919 1919 2919 
z
" transform="scale(0.015625)"/>
        <path id="IPAexGothic-76" d="M 3103 3250 
L 1747 6 
L 1375 6 
L 25 3250 
L 628 3250 
L 1338 1388 
L 1522 844 
L 1569 703 
L 1588 703 
Q 1641 884 1822 1388 
L 2516 3250 
L 3103 3250 
z
" transform="scale(0.015625)"/>
       </defs>
       <use xlink:href="#IPAexGothic-4e"/>
       <use xlink:href="#IPAexGothic-6f" x="75.976562"/>
       <use xlink:href="#IPAexGothic-76" x="136.376953"/>
      </g>
     </g>
    </g>
    <g id="xtick_7">
     <g id="line2d_8">
      <g>
       <use xlink:href="#m1a4746e0b9" x="292.959063" y="284.991437" style="stroke: #000000; stroke-width: 0.8"/>
      </g>
     </g>
     <g id="text_7">
      <!-- Dec -->
      <g transform="translate(283.610625 299.482062) scale(0.1 -0.1)">
       <defs>
        <path id="IPAexGothic-44" d="M 609 4634 
L 1984 4634 
Q 3159 4634 3791 4050 
Q 4456 3444 4456 2356 
Q 4456 1047 3516 441 
Q 2925 63 1941 63 
L 609 63 
L 609 4634 
z
M 1172 556 
L 1894 556 
Q 3853 556 3853 2356 
Q 3853 4147 1928 4147 
L 1172 4147 
L 1172 556 
z
" transform="scale(0.015625)"/>
       </defs>
       <use xlink:href="#IPAexGothic-44"/>
       <use xlink:href="#IPAexGothic-65" x="75.683594"/>
       <use xlink:href="#IPAexGothic-63" x="132.568359"/>
      </g>
     </g>
    </g>
    <g id="xtick_8">
     <g id="line2d_9">
      <g>
       <use xlink:href="#m1a4746e0b9" x="337.599063" y="284.991437" style="stroke: #000000; stroke-width: 0.8"/>
      </g>
     </g>
     <g id="text_8">
      <!-- 2023 -->
      <g transform="translate(325.002188 299.482062) scale(0.1 -0.1)">
       <defs>
        <path id="IPAexGothic-32" d="M 3659 63 
L 447 63 
L 447 594 
Q 825 1475 1894 2203 
L 2072 2322 
Q 2619 2697 2791 2906 
Q 2988 3153 2988 3444 
Q 2988 3772 2756 4003 
Q 2500 4259 2084 4259 
Q 1250 4259 991 3328 
L 497 3506 
Q 853 4725 2116 4725 
Q 2806 4725 3216 4316 
Q 3575 3947 3575 3425 
Q 3575 3038 3344 2722 
Q 3131 2416 2366 1938 
L 2231 1856 
Q 1256 1253 978 569 
L 3659 569 
L 3659 63 
z
" transform="scale(0.015625)"/>
        <path id="IPAexGothic-30" d="M 2038 4725 
Q 2881 4725 3334 3944 
Q 3694 3325 3694 2344 
Q 3694 1372 3334 741 
Q 2888 -31 2016 -31 
Q 1147 -31 700 741 
Q 341 1372 341 2350 
Q 341 3713 1000 4334 
Q 1419 4725 2038 4725 
z
M 2016 4266 
Q 1516 4266 1228 3759 
Q 934 3247 934 2344 
Q 934 1456 1222 947 
Q 1513 447 2016 447 
Q 2619 447 2909 1153 
Q 3100 1622 3100 2375 
Q 3100 3256 2806 3759 
Q 2509 4266 2016 4266 
z
" transform="scale(0.015625)"/>
        <path id="IPAexGothic-33" d="M 2381 2419 
Q 3506 2216 3506 1278 
Q 3506 716 3128 356 
Q 2709 -31 1944 -31 
Q 797 -31 288 881 
L 756 1131 
Q 1109 441 1938 441 
Q 2425 441 2694 691 
Q 2950 928 2950 1291 
Q 2950 1719 2566 1978 
Q 2216 2213 1644 2213 
L 1363 2213 
L 1363 2669 
L 1656 2669 
Q 2231 2669 2534 2888 
Q 2859 3119 2859 3509 
Q 2859 3934 2494 4138 
Q 2259 4278 1931 4278 
Q 1238 4278 903 3578 
L 434 3803 
Q 897 4725 1938 4725 
Q 2597 4725 3006 4394 
Q 3416 4069 3416 3534 
Q 3416 3028 3019 2706 
Q 2763 2500 2381 2444 
L 2381 2419 
z
" transform="scale(0.015625)"/>
       </defs>
       <use xlink:href="#IPAexGothic-32"/>
       <use xlink:href="#IPAexGothic-30" x="62.988281"/>
       <use xlink:href="#IPAexGothic-32" x="125.976562"/>
       <use xlink:href="#IPAexGothic-33" x="188.964844"/>
      </g>
     </g>
    </g>
    <g id="xtick_9">
     <g id="line2d_10">
      <g>
       <use xlink:href="#m1a4746e0b9" x="382.239063" y="284.991437" style="stroke: #000000; stroke-width: 0.8"/>
      </g>
     </g>
     <g id="text_9">
      <!-- Feb -->
      <g transform="translate(373.415625 299.482062) scale(0.1 -0.1)">
       <defs>
        <path id="IPAexGothic-46" d="M 3469 4141 
L 1172 4141 
L 1172 2656 
L 3206 2656 
L 3206 2188 
L 1172 2188 
L 1172 63 
L 609 63 
L 609 4634 
L 3469 4634 
L 3469 4141 
z
" transform="scale(0.015625)"/>
        <path id="IPAexGothic-62" d="M 1125 2731 
Q 1550 3341 2219 3341 
Q 2788 3341 3191 2938 
Q 3659 2469 3659 1644 
Q 3659 838 3191 372 
Q 2788 -31 2206 -31 
Q 1559 -31 1088 516 
L 1009 44 
L 581 44 
L 581 4794 
L 1125 4794 
L 1125 2731 
z
M 1125 1997 
L 1125 1253 
Q 1125 888 1528 600 
Q 1803 403 2119 403 
Q 2488 403 2744 659 
Q 3084 1009 3084 1631 
Q 3084 2194 2803 2553 
Q 2525 2900 2125 2900 
Q 1759 2900 1438 2578 
Q 1125 2266 1125 1997 
z
" transform="scale(0.015625)"/>
       </defs>
       <use xlink:href="#IPAexGothic-46"/>
       <use xlink:href="#IPAexGothic-65" x="57.177734"/>
       <use xlink:href="#IPAexGothic-62" x="114.0625"/>
      </g>
     </g>
    </g>
   </g>
   <g id="matplotlib.axis_2">
    <g id="ytick_1">
     <g id="line2d_11">
      <defs>
       <path id="m1791e7586d" d="M 0 0 
L -3.5 0 
" style="stroke: #000000; stroke-width: 0.8"/>
      </defs>
      <g>
       <use xlink:href="#m1791e7586d" x="29.439063" y="269.014637" style="stroke: #000000; stroke-width: 0.8"/>
      </g>
     </g>
     <g id="text_10">
      <!-- 0.5 -->
      <g transform="translate(7.2 272.759949) scale(0.1 -0.1)">
       <defs>
        <path id="IPAexGothic-2e" d="M 1184 63 
L 494 63 
L 494 753 
L 1184 753 
L 1184 63 
z
" transform="scale(0.015625)"/>
        <path id="IPAexGothic-35" d="M 1178 2603 
Q 1634 2963 2172 2963 
Q 2816 2963 3241 2528 
Q 3638 2113 3638 1497 
Q 3638 938 3297 513 
Q 2869 -31 2031 -31 
Q 959 -31 469 784 
L 938 1028 
Q 1309 434 2013 434 
Q 2466 434 2769 716 
Q 3081 1013 3081 1503 
Q 3081 1966 2806 2241 
Q 2519 2528 2056 2528 
Q 1406 2528 1072 2028 
L 591 2091 
L 884 4634 
L 3406 4634 
L 3406 4153 
L 1341 4153 
L 1134 2603 
L 1178 2603 
z
" transform="scale(0.015625)"/>
       </defs>
       <use xlink:href="#IPAexGothic-30"/>
       <use xlink:href="#IPAexGothic-2e" x="62.988281"/>
       <use xlink:href="#IPAexGothic-35" x="89.404297"/>
      </g>
     </g>
    </g>
    <g id="ytick_2">
     <g id="line2d_12">
      <g>
       <use xlink:href="#m1791e7586d" x="29.439063" y="211.199039" style="stroke: #000000; stroke-width: 0.8"/>
      </g>
     </g>
     <g id="text_11">
      <!-- 1.0 -->
      <g transform="translate(7.2 214.944352) scale(0.1 -0.1)">
       <defs>
        <path id="IPAexGothic-31" d="M 2463 63 
L 1900 63 
L 1900 4103 
Q 1372 3922 788 3797 
L 684 4231 
Q 1519 4441 2106 4731 
L 2463 4731 
L 2463 63 
z
" transform="scale(0.015625)"/>
       </defs>
       <use xlink:href="#IPAexGothic-31"/>
       <use xlink:href="#IPAexGothic-2e" x="62.988281"/>
       <use xlink:href="#IPAexGothic-30" x="89.404297"/>
      </g>
     </g>
    </g>
    <g id="ytick_3">
     <g id="line2d_13">
      <g>
       <use xlink:href="#m1791e7586d" x="29.439063" y="153.383442" style="stroke: #000000; stroke-width: 0.8"/>
      </g>
     </g>
     <g id="text_12">
      <!-- 1.5 -->
      <g transform="translate(7.2 157.128754) scale(0.1 -0.1)">
       <use xlink:href="#IPAexGothic-31"/>
       <use xlink:href="#IPAexGothic-2e" x="62.988281"/>
       <use xlink:href="#IPAexGothic-35" x="89.404297"/>
      </g>
     </g>
    </g>
    <g id="ytick_4">
     <g id="line2d_14">
      <g>
       <use xlink:href="#m1791e7586d" x="29.439063" y="95.567844" style="stroke: #000000; stroke-width: 0.8"/>
      </g>
     </g>
     <g id="text_13">
      <!-- 2.0 -->
      <g transform="translate(7.2 99.313157) scale(0.1 -0.1)">
       <use xlink:href="#IPAexGothic-32"/>
       <use xlink:href="#IPAexGothic-2e" x="62.988281"/>
       <use xlink:href="#IPAexGothic-30" x="89.404297"/>
      </g>
     </g>
    </g>
    <g id="ytick_5">
     <g id="line2d_15">
      <g>
       <use xlink:href="#m1791e7586d" x="29.439063" y="37.752247" style="stroke: #000000; stroke-width: 0.8"/>
      </g>
     </g>
     <g id="text_14">
      <!-- 2.5 -->
      <g transform="translate(7.2 41.497559) scale(0.1 -0.1)">
       <use xlink:href="#IPAexGothic-32"/>
       <use xlink:href="#IPAexGothic-2e" x="62.988281"/>
       <use xlink:href="#IPAexGothic-35" x="89.404297"/>
      </g>
     </g>
    </g>
   </g>
   <g id="line2d_16">
    <path d="M 29.439063 227.411867 
L 30.879063 255.471758 
L 32.319063 269.405805 
L 33.759063 242.945807 
L 35.199063 262.441258 
L 38.079063 251.639145 
L 39.519063 227.514621 
L 40.959063 229.940841 
L 42.399063 194.078383 
L 43.839063 246.403784 
L 45.279063 250.411663 
L 46.719063 205.84664 
L 48.159063 249.191321 
L 49.599063 272.895437 
L 51.039063 243.090535 
L 52.479063 247.559579 
L 53.919063 238.429093 
L 55.359063 112.810292 
L 56.799063 184.323192 
L 58.239063 181.498781 
L 59.679063 30.975437 
L 62.559063 168.571026 
L 63.999063 110.868109 
L 65.439063 213.126183 
L 66.879063 156.293505 
L 68.319063 124.518024 
L 69.759063 151.875457 
L 71.199063 236.751655 
L 72.639063 106.655378 
L 74.079063 51.387485 
L 75.519063 102.788184 
L 76.959063 95.926279 
L 78.399063 36.542983 
L 79.839063 79.37836 
L 81.279063 35.439549 
L 82.719063 110.396771 
L 84.159063 116.980214 
L 85.599063 109.726148 
L 87.039063 177.160719 
L 88.479063 110.814502 
L 89.919063 153.702013 
L 91.359063 148.460822 
L 92.799063 164.812112 
L 94.239063 190.526245 
L 95.679063 181.526351 
L 97.119063 197.096587 
L 98.559063 219.976945 
L 99.999063 163.710275 
L 101.439063 173.022011 
L 102.879063 196.817697 
L 104.319063 179.527296 
L 105.759063 191.661352 
L 107.199063 192.887858 
L 108.639063 173.15897 
L 110.079063 188.50237 
L 111.519063 201.809366 
L 112.959063 195.197746 
L 114.399063 183.412435 
L 115.839063 192.046725 
L 117.279063 204.737627 
L 118.719063 199.025674 
L 120.159063 189.016626 
L 121.599063 185.809755 
L 123.039063 182.941981 
L 124.479063 200.02008 
L 125.919063 192.032303 
L 127.359063 181.775482 
L 128.799063 186.871327 
L 130.239063 193.9839 
L 131.679063 204.601463 
L 133.119063 225.669065 
L 134.559063 207.989558 
L 135.999063 218.057369 
L 137.439063 204.232725 
L 138.879063 217.282458 
L 140.319063 202.720535 
L 141.759063 195.141529 
L 143.199063 153.461242 
L 144.639063 171.531238 
L 146.079063 185.828914 
L 147.519063 204.950127 
L 148.959063 187.736367 
L 150.399063 211.671324 
L 151.839063 216.92144 
L 153.279063 231.587854 
L 154.719063 248.509599 
L 156.159063 240.826108 
L 157.599063 241.29957 
L 159.039063 247.072575 
L 160.479063 251.367839 
L 161.919063 251.669425 
L 163.359063 251.785215 
L 164.799063 242.900107 
L 166.239063 251.663262 
L 167.679063 241.186243 
L 169.119063 228.929625 
L 170.559063 240.670472 
L 171.999063 239.689961 
L 173.439063 228.587222 
L 174.879063 234.114512 
L 176.319063 220.053728 
L 177.759063 221.634093 
L 179.199063 247.789493 
L 180.639063 250.578039 
L 182.079063 230.847867 
L 183.519063 240.571341 
L 184.959063 229.667605 
L 186.399063 228.965012 
L 187.839063 226.507 
L 189.279063 266.267581 
L 190.719063 173.994674 
L 192.159063 228.352097 
L 193.599063 212.968149 
L 195.039063 243.863512 
L 196.479063 195.951487 
L 197.919063 187.500784 
L 199.359063 195.32975 
L 200.799063 238.855842 
L 202.239063 224.563828 
L 203.679063 239.674853 
L 205.119063 205.067187 
L 206.559063 219.657973 
L 207.999063 258.893645 
L 209.439063 189.095647 
L 210.879063 231.988543 
L 212.319063 230.452082 
L 213.759063 208.848889 
L 215.199063 214.413367 
L 216.639063 237.774657 
L 218.079063 208.216448 
L 219.519063 269.328924 
L 220.959063 186.857034 
L 222.399063 168.652783 
L 223.839063 211.199039 
L 225.279063 197.903063 
L 226.719063 190.42842 
L 228.159063 209.746404 
L 229.599063 135.123595 
L 231.039063 212.926136 
L 232.479063 239.34414 
L 233.919063 184.631705 
L 235.359063 193.892671 
L 236.799063 220.351516 
L 238.239063 197.002011 
L 239.679063 191.634272 
L 241.119063 213.253557 
L 242.559063 183.049443 
L 243.999063 199.198481 
L 245.439063 190.346771 
L 246.879063 160.309806 
L 248.319063 189.784075 
L 249.759063 198.104074 
L 251.199063 152.110827 
L 252.639063 152.9204 
L 254.079063 232.748365 
L 255.519063 165.024121 
L 256.959063 194.085734 
L 258.399063 199.838398 
L 259.839063 173.564927 
L 261.279063 209.205445 
L 262.719063 206.690562 
L 264.159063 156.249641 
L 265.599063 220.402577 
L 267.039063 215.284532 
L 268.479063 225.924092 
L 269.919063 188.099011 
L 271.359063 185.511636 
L 272.799063 211.199039 
L 274.239063 194.160213 
L 275.679063 184.55213 
L 277.119063 182.799057 
L 279.999063 203.930102 
L 281.439063 168.757197 
L 282.879063 220.491359 
L 284.319063 171.577359 
L 287.199063 192.11637 
L 288.639063 204.402838 
L 290.079063 198.987955 
L 291.519063 181.777237 
L 292.959063 142.696764 
L 294.399063 213.580923 
L 295.839063 220.529523 
L 297.279063 204.080643 
L 298.719063 205.292279 
L 300.159063 181.962456 
L 301.599063 194.793532 
L 303.039063 197.432704 
L 304.479063 173.295964 
L 305.919063 175.045451 
L 307.359063 167.16196 
L 308.799063 187.120934 
L 310.239063 183.834422 
L 311.679063 173.778001 
L 313.119063 181.23856 
L 314.559063 201.020413 
L 315.999063 187.828789 
L 317.439063 213.66936 
L 318.879063 207.768569 
L 320.319063 207.295129 
L 321.759063 192.832229 
L 323.199063 206.958159 
L 324.639063 188.728128 
L 326.079063 193.851266 
L 327.519063 207.103197 
L 328.959063 215.224404 
L 330.399063 196.113595 
L 331.839063 220.91992 
L 333.279063 200.04709 
L 334.719063 223.444191 
L 336.159063 251.024981 
L 337.599063 228.180558 
L 339.039063 208.755181 
L 340.479063 251.311193 
L 341.919063 254.432046 
L 343.359063 215.74342 
L 344.799063 126.299141 
L 346.239063 90.185267 
L 347.679063 169.01121 
L 349.119063 202.233317 
L 350.559063 208.810336 
L 351.999063 167.736099 
L 353.439063 215.685286 
L 354.879063 255.304956 
L 356.319063 257.151057 
L 357.759063 241.910597 
L 359.199063 230.363911 
L 360.639063 201.639485 
L 362.079063 252.591109 
L 363.519063 261.202922 
L 364.959063 248.191392 
L 366.399063 245.888016 
L 367.839063 248.528538 
L 369.279063 233.937612 
L 370.719063 243.873594 
L 372.159063 245.699396 
L 373.599063 238.379427 
L 375.039063 250.421781 
L 376.479063 242.025158 
L 377.919063 235.679743 
L 379.359063 231.977605 
L 380.799063 268.725993 
L 382.239063 251.010186 
L 383.679063 243.44844 
L 385.119063 231.173865 
L 385.119063 231.173865 
" clip-path="url(#p9f6be19a4e)" style="fill: none; stroke: #1f77b4; stroke-width: 1.5; stroke-linecap: square"/>
   </g>
   <g id="line2d_17">
    <path d="M 29.439063 230.929789 
L 30.879063 242.60231 
L 32.319063 262.8168 
L 33.759063 257.425513 
L 35.199063 253.337157 
L 36.639063 259.836211 
L 38.079063 254.434415 
L 39.519063 240.414674 
L 40.959063 228.735232 
L 42.399063 213.41839 
L 43.839063 223.501825 
L 45.279063 248.433331 
L 46.719063 230.677266 
L 48.159063 229.912564 
L 49.599063 262.11981 
L 51.039063 259.625445 
L 52.479063 245.355694 
L 53.919063 243.118728 
L 55.359063 189.281671 
L 56.799063 152.189606 
L 58.239063 182.917915 
L 59.679063 119.473036 
L 61.119063 68.196709 
L 62.559063 137.669929 
L 63.999063 141.957318 
L 65.439063 170.127431 
L 66.879063 187.579679 
L 68.319063 141.084002 
L 69.759063 138.693349 
L 71.199063 201.292679 
L 72.639063 186.000414 
L 74.079063 80.567026 
L 75.519063 78.413733 
L 76.959063 99.383107 
L 78.399063 67.931655 
L 79.839063 58.815077 
L 81.279063 58.306173 
L 82.719063 75.699401 
L 84.159063 113.713912 
L 85.599063 113.383995 
L 87.039063 146.569691 
L 88.479063 147.022086 
L 89.919063 133.443524 
L 91.359063 151.100956 
L 92.799063 156.832948 
L 94.239063 178.224324 
L 95.679063 186.098223 
L 97.119063 189.532009 
L 98.559063 209.091256 
L 99.999063 194.807872 
L 101.439063 168.434555 
L 102.879063 185.419494 
L 104.319063 188.44227 
L 105.759063 185.724694 
L 107.199063 192.276003 
L 108.639063 183.362139 
L 110.079063 181.032368 
L 111.519063 195.324076 
L 112.959063 198.546144 
L 114.399063 189.431392 
L 115.839063 187.79659 
L 117.279063 198.54902 
L 118.719063 201.914295 
L 120.159063 194.115474 
L 121.599063 187.422411 
L 123.039063 184.383085 
L 124.479063 191.750659 
L 125.919063 196.087179 
L 127.359063 186.997904 
L 128.799063 184.346184 
L 130.239063 190.473981 
L 131.679063 199.403219 
L 133.119063 215.633088 
L 134.559063 217.185071 
L 135.999063 213.134848 
L 137.439063 211.351742 
L 138.879063 210.94113 
L 140.319063 210.228598 
L 141.759063 198.987184 
L 143.199063 175.731796 
L 144.639063 162.744798 
L 147.519063 195.737687 
L 148.959063 196.62741 
L 150.399063 200.268399 
L 151.839063 214.327003 
L 153.279063 224.517111 
L 154.719063 240.462163 
L 156.159063 244.757718 
L 157.599063 241.063165 
L 159.039063 244.236496 
L 160.479063 249.249927 
L 161.919063 251.518783 
L 163.359063 251.727342 
L 164.799063 247.466905 
L 166.239063 247.402446 
L 167.679063 246.595581 
L 169.119063 235.262778 
L 170.559063 234.987471 
L 171.999063 240.181603 
L 173.439063 234.304978 
L 174.879063 231.390872 
L 176.319063 227.332189 
L 177.759063 220.846856 
L 179.199063 235.644814 
L 180.639063 249.196285 
L 182.079063 241.279862 
L 183.519063 235.839395 
L 184.959063 235.281663 
L 186.399063 229.316941 
L 187.839063 227.743627 
L 189.279063 248.882551 
L 190.719063 230.621466 
L 192.159063 204.147875 
L 193.599063 220.93913 
L 195.039063 229.635769 
L 196.479063 222.625721 
L 197.919063 191.792225 
L 199.359063 191.471858 
L 200.799063 219.272458 
L 202.239063 231.97864 
L 203.679063 232.42119 
L 205.119063 223.814193 
L 206.559063 212.595296 
L 207.999063 241.501939 
L 209.439063 230.097519 
L 210.879063 212.536835 
L 212.319063 231.223399 
L 213.759063 220.196168 
L 215.199063 211.66473 
L 216.639063 226.773505 
L 218.079063 224.052711 
L 219.519063 244.24423 
L 220.959063 237.116008 
L 222.399063 178.033043 
L 225.279063 204.731901 
L 226.719063 194.218394 
L 228.159063 200.456001 
L 229.599063 177.011185 
L 231.039063 179.059561 
L 232.479063 227.005264 
L 233.919063 215.29372 
L 235.359063 189.34014 
L 236.799063 207.855357 
L 238.239063 209.25497 
L 239.679063 194.345323 
L 241.119063 202.914504 
L 242.559063 199.04078 
L 243.999063 191.364392 
L 245.439063 194.846812 
L 246.879063 176.074523 
L 248.319063 175.764073 
L 249.759063 194.009205 
L 251.199063 176.860376 
L 252.639063 152.516084 
L 254.079063 198.91713 
L 255.519063 203.448625 
L 256.959063 180.273516 
L 258.399063 196.993923 
L 259.839063 187.318791 
L 261.279063 192.562593 
L 262.719063 207.954654 
L 264.159063 183.674736 
L 265.599063 192.091624 
L 267.039063 217.873602 
L 268.479063 220.737602 
L 269.919063 208.513572 
L 271.359063 186.8113 
L 272.799063 198.998945 
L 274.239063 202.972279 
L 275.679063 189.440136 
L 277.119063 183.678277 
L 278.559063 188.335204 
L 279.999063 198.897374 
L 281.439063 187.448754 
L 282.879063 197.179515 
L 284.319063 198.341262 
L 285.759063 176.894581 
L 287.199063 187.16406 
L 288.639063 198.406453 
L 290.079063 201.724689 
L 291.519063 190.654224 
L 292.959063 163.401008 
L 294.399063 182.424595 
L 295.839063 217.110216 
L 297.279063 212.600777 
L 298.719063 204.687964 
L 300.159063 194.139114 
L 301.599063 188.526714 
L 303.039063 196.119779 
L 304.479063 185.880047 
L 305.919063 174.173214 
L 307.359063 171.1536 
L 308.799063 177.474475 
L 310.239063 185.48723 
L 311.679063 178.891638 
L 313.119063 177.554882 
L 314.559063 191.49043 
L 315.999063 194.588989 
L 317.439063 201.412831 
L 318.879063 210.756455 
L 320.319063 207.532084 
L 321.759063 200.270107 
L 323.199063 200.091846 
L 324.639063 198.165608 
L 326.079063 191.313905 
L 327.519063 200.651084 
L 328.959063 211.235099 
L 330.399063 206.046382 
L 331.839063 209.168684 
L 333.279063 210.952529 
L 334.719063 212.341773 
L 336.159063 238.302243 
L 337.599063 240.353858 
L 339.039063 218.904029 
L 340.479063 232.400817 
L 341.919063 252.888083 
L 343.359063 237.150337 
L 344.799063 177.577562 
L 346.239063 108.989297 
L 347.679063 133.576313 
L 349.119063 186.602691 
L 350.559063 205.566408 
L 351.999063 189.803691 
L 353.439063 193.854637 
L 354.879063 237.669294 
L 356.319063 256.234041 
L 357.759063 249.907348 
L 359.199063 236.3212 
L 360.639063 216.936234 
L 362.079063 230.424572 
L 363.519063 257.029702 
L 364.959063 254.991137 
L 366.399063 247.048016 
L 367.839063 247.219224 
L 369.279063 241.544538 
L 370.719063 239.046068 
L 372.159063 244.791574 
L 373.599063 242.11844 
L 375.039063 244.62081 
L 376.479063 246.332876 
L 377.919063 238.909678 
L 379.359063 233.847098 
L 380.799063 252.591834 
L 382.239063 260.456547 
L 383.679063 247.319155 
L 385.119063 237.521782 
L 385.119063 237.521782 
" clip-path="url(#p9f6be19a4e)" style="fill: none; stroke: #ff7f0e; stroke-width: 1.5; stroke-linecap: square"/>
   </g>
   <g id="line2d_18">
    <path d="M 29.439063 229.122786 
L 30.879063 239.928401 
L 32.319063 252.698705 
L 33.759063 256.780278 
L 35.199063 259.139403 
L 36.639063 254.622372 
L 38.079063 257.208287 
L 39.519063 246.388486 
L 40.959063 237.055655 
L 42.399063 218.326475 
L 45.279063 233.387372 
L 46.719063 236.234427 
L 48.159063 237.293425 
L 51.039063 256.313321 
L 52.479063 255.822722 
L 53.919063 243.109331 
L 55.359063 212.36467 
L 58.239063 162.563334 
L 59.679063 143.84129 
L 61.119063 113.406318 
L 62.559063 107.256927 
L 63.999063 129.127564 
L 65.439063 169.610337 
L 66.879063 165.645532 
L 68.319063 169.115602 
L 69.759063 144.753156 
L 71.199063 179.647632 
L 72.639063 175.437505 
L 74.079063 150.710969 
L 75.519063 88.208754 
L 76.959063 84.394062 
L 78.399063 80.114816 
L 79.839063 71.804879 
L 81.279063 51.239386 
L 82.719063 76.931758 
L 84.159063 90.291085 
L 85.599063 112.392863 
L 87.039063 137.201801 
L 88.479063 135.362509 
L 89.919063 149.276885 
L 91.359063 138.58476 
L 92.799063 155.795645 
L 94.239063 168.900399 
L 98.559063 200.539182 
L 99.999063 195.575228 
L 101.439063 187.912342 
L 102.879063 178.52472 
L 104.319063 183.482093 
L 105.759063 189.523726 
L 107.199063 188.153999 
L 108.639063 186.18367 
L 110.079063 185.09643 
L 111.519063 188.315827 
L 112.959063 195.281979 
L 114.399063 193.687884 
L 115.839063 190.308761 
L 117.279063 193.689874 
L 118.719063 198.708102 
L 120.159063 197.755094 
L 121.599063 191.402728 
L 123.039063 185.944654 
L 124.479063 189.7987 
L 125.919063 191.844605 
L 127.359063 191.480812 
L 128.799063 186.955724 
L 130.239063 187.634041 
L 131.679063 195.355837 
L 133.119063 208.84012 
L 135.999063 217.476612 
L 137.439063 210.241718 
L 138.879063 213.36349 
L 140.319063 208.263285 
L 141.759063 205.402114 
L 143.199063 185.324114 
L 144.639063 174.344388 
L 146.079063 170.831497 
L 147.519063 188.120092 
L 148.959063 193.123075 
L 150.399063 201.848623 
L 151.839063 206.082407 
L 153.279063 220.402845 
L 154.719063 233.236603 
L 156.159063 240.583648 
L 157.599063 243.620823 
L 159.039063 243.114997 
L 161.919063 250.064959 
L 163.359063 251.607698 
L 164.799063 248.893225 
L 166.239063 248.891095 
L 167.679063 245.382199 
L 170.559063 237.10204 
L 171.999063 236.582508 
L 173.439063 236.477418 
L 174.879063 234.241533 
L 176.319063 227.752305 
L 177.759063 225.467971 
L 179.199063 230.718701 
L 180.639063 240.92208 
L 182.079063 243.507227 
L 183.519063 241.044337 
L 184.959063 233.826969 
L 186.399063 233.222764 
L 187.839063 228.38915 
L 189.279063 242.740121 
L 190.719063 229.269077 
L 192.159063 229.870881 
L 193.599063 207.161383 
L 195.039063 229.209749 
L 196.479063 219.501156 
L 197.919063 212.031087 
L 199.359063 192.98185 
L 200.799063 209.581314 
L 202.239063 221.065989 
L 203.679063 234.616737 
L 205.119063 224.06468 
L 206.559063 222.447011 
L 207.999063 230.764786 
L 209.439063 226.735849 
L 210.879063 230.732013 
L 212.319063 218.850986 
L 213.759063 224.281475 
L 215.199063 218.302399 
L 216.639063 221.123664 
L 218.079063 220.93512 
L 219.519063 242.141688 
L 220.959063 228.364316 
L 222.399063 218.44859 
L 223.839063 190.029585 
L 225.279063 193.727182 
L 226.719063 200.139008 
L 228.159063 199.610689 
L 229.599063 181.624175 
L 231.039063 190.09163 
L 233.919063 214.510045 
L 235.359063 208.573118 
L 236.799063 200.569432 
L 238.239063 204.342327 
L 239.679063 203.652593 
L 241.119063 200.974213 
L 242.559063 196.618162 
L 243.999063 199.093369 
L 245.439063 191.026031 
L 246.879063 184.214067 
L 248.319063 180.790352 
L 249.759063 183.611312 
L 251.199063 181.298308 
L 252.639063 169.270937 
L 254.079063 184.905831 
L 255.519063 188.492178 
L 256.959063 200.403438 
L 258.399063 187.108997 
L 259.839063 189.611924 
L 261.279063 195.033037 
L 262.719063 197.447481 
L 264.159063 192.747876 
L 265.599063 197.145102 
L 267.039063 200.314175 
L 268.479063 220.626045 
L 271.359063 201.295556 
L 272.799063 195.464272 
L 274.239063 197.405968 
L 275.679063 197.113713 
L 277.119063 187.261183 
L 278.559063 187.08549 
L 279.999063 193.741822 
L 281.439063 189.550213 
L 282.879063 199.469935 
L 284.319063 189.152671 
L 285.759063 193.119185 
L 287.199063 182.150609 
L 288.639063 193.164416 
L 290.079063 198.60058 
L 291.519063 195.400607 
L 292.959063 176.246527 
L 294.399063 182.20913 
L 295.839063 196.443074 
L 297.279063 212.928431 
L 298.719063 210.214796 
L 300.159063 197.539344 
L 301.599063 194.357613 
L 304.479063 188.916137 
L 305.919063 182.357292 
L 307.359063 171.871023 
L 308.799063 176.669151 
L 310.239063 179.625281 
L 311.679063 181.687232 
L 313.119063 179.678119 
L 314.559063 185.826618 
L 315.999063 190.280728 
L 317.439063 201.282161 
L 318.879063 203.568241 
L 320.319063 209.613962 
L 321.759063 202.82065 
L 323.199063 202.539923 
L 324.639063 196.411828 
L 326.079063 196.743275 
L 327.519063 196.795762 
L 328.959063 205.708887 
L 330.399063 206.399686 
L 331.839063 211.222913 
L 333.279063 206.203506 
L 334.719063 215.275699 
L 336.159063 227.04317 
L 337.599063 235.049338 
L 339.039063 230.893623 
L 340.479063 231.014516 
L 341.919063 240.403632 
L 343.359063 242.143466 
L 344.799063 209.55923 
L 346.239063 152.790998 
L 347.679063 131.180415 
L 349.119063 159.879638 
L 350.559063 194.434509 
L 351.999063 194.078898 
L 353.439063 199.039398 
L 354.879063 218.686553 
L 356.319063 244.703586 
L 357.759063 251.750355 
L 359.199063 243.877834 
L 360.639063 225.985777 
L 362.079063 230.404356 
L 364.959063 254.199875 
L 366.399063 252.076606 
L 369.279063 243.017663 
L 370.719063 242.328067 
L 372.159063 241.322359 
L 373.599063 242.707579 
L 375.039063 244.981923 
L 376.479063 243.764543 
L 377.919063 242.927891 
L 379.359063 236.657187 
L 380.799063 247.335431 
L 382.239063 252.068319 
L 383.679063 255.212423 
L 385.119063 242.265414 
L 385.119063 242.265414 
" clip-path="url(#p9f6be19a4e)" style="fill: none; stroke: #2ca02c; stroke-width: 1.5; stroke-linecap: square"/>
   </g>
   <g id="line2d_19">
    <path d="M 29.439063 221.275211 
L 30.879063 236.505406 
L 32.319063 248.478994 
L 33.759063 250.372301 
L 35.199063 258.240554 
L 36.639063 258.641514 
L 38.079063 253.887849 
L 39.519063 250.742613 
L 40.959063 242.558839 
L 42.399063 227.832517 
L 43.839063 226.152528 
L 45.279063 232.537407 
L 46.719063 227.154092 
L 48.159063 239.663468 
L 49.599063 247.949949 
L 51.039063 246.12502 
L 52.479063 254.219959 
L 53.919063 251.824807 
L 55.359063 220.968504 
L 56.799063 205.919399 
L 58.239063 186.135769 
L 59.679063 136.533121 
L 61.119063 133.903952 
L 62.559063 128.780364 
L 63.999063 108.165345 
L 65.439063 154.661857 
L 66.879063 166.381937 
L 68.319063 156.222628 
L 71.199063 174.127491 
L 72.639063 164.056515 
L 74.079063 151.002816 
L 75.519063 139.788926 
L 76.959063 90.161987 
L 78.399063 73.226844 
L 79.839063 79.930908 
L 81.279063 63.162834 
L 82.719063 67.394559 
L 84.159063 87.608872 
L 85.599063 95.307164 
L 87.039063 130.829051 
L 88.479063 130.923693 
L 91.359063 149.07322 
L 92.799063 145.514995 
L 94.239063 165.230701 
L 95.679063 172.15619 
L 97.119063 183.990017 
L 98.559063 198.107108 
L 99.999063 192.195781 
L 101.439063 190.267628 
L 102.879063 190.194295 
L 104.319063 178.776002 
L 105.759063 185.572177 
L 107.199063 190.372599 
L 108.639063 184.54832 
L 110.079063 186.766963 
L 111.519063 189.473261 
L 112.959063 190.069324 
L 114.399063 192.410021 
L 118.719063 195.044354 
L 120.159063 196.351076 
L 121.599063 194.867136 
L 123.039063 189.335364 
L 124.479063 189.603599 
L 125.919063 190.360547 
L 127.359063 189.394825 
L 128.799063 190.342872 
L 130.239063 188.74688 
L 131.679063 192.084855 
L 133.119063 203.69443 
L 134.559063 208.628052 
L 135.999063 214.390906 
L 137.439063 214.306201 
L 138.879063 212.043229 
L 140.319063 210.791529 
L 141.759063 205.110817 
L 143.199063 194.096195 
L 144.639063 181.995215 
L 146.079063 177.300368 
L 147.519063 180.166067 
L 148.959063 188.02426 
L 150.399063 198.022962 
L 153.279063 213.03684 
L 154.719063 228.256977 
L 156.159063 235.194567 
L 157.599063 240.763189 
L 159.039063 244.49752 
L 160.479063 245.259188 
L 163.359063 250.498685 
L 164.799063 249.519384 
L 166.239063 249.59516 
L 167.679063 247.032432 
L 169.119063 241.548346 
L 170.559063 240.987516 
L 173.439063 234.646856 
L 174.879063 235.892398 
L 177.759063 226.256947 
L 179.199063 231.579139 
L 180.639063 236.122417 
L 182.079063 238.507266 
L 183.519063 242.782759 
L 184.959063 238.331566 
L 186.399063 232.634606 
L 187.839063 231.587191 
L 189.279063 239.646891 
L 190.719063 229.193149 
L 192.159063 229.040635 
L 193.599063 225.896331 
L 195.039063 217.632953 
L 196.479063 221.78581 
L 197.919063 212.266073 
L 199.359063 208.065956 
L 200.799063 206.313066 
L 202.239063 213.521109 
L 203.679063 226.061058 
L 205.119063 227.980673 
L 206.559063 222.980288 
L 207.999063 233.074257 
L 209.439063 221.710038 
L 210.879063 228.075685 
L 212.319063 230.662107 
L 213.759063 216.432907 
L 215.199063 221.898783 
L 216.639063 223.537176 
L 218.079063 218.034898 
L 219.519063 235.927619 
L 220.959063 230.806248 
L 222.399063 215.976432 
L 223.839063 216.679967 
L 225.279063 192.041922 
L 226.719063 192.910047 
L 228.159063 202.612348 
L 229.599063 185.877122 
L 231.039063 190.175906 
L 232.479063 204.536808 
L 233.919063 198.448671 
L 235.359063 209.676726 
L 236.799063 211.634562 
L 238.239063 199.686873 
L 239.679063 201.281933 
L 241.119063 206.126362 
L 242.559063 196.71423 
L 243.999063 197.268091 
L 245.439063 196.960725 
L 246.879063 183.923798 
L 248.319063 185.627441 
L 249.759063 185.325715 
L 251.199063 176.313222 
L 252.639063 174.670499 
L 254.079063 188.327129 
L 255.519063 180.177036 
L 258.399063 200.262414 
L 259.839063 183.839538 
L 261.279063 194.796847 
L 262.719063 198.049398 
L 264.159063 188.189868 
L 265.599063 200.271432 
L 267.039063 201.939318 
L 268.479063 207.269481 
L 269.919063 213.289999 
L 271.359063 204.949238 
L 272.799063 203.848238 
L 274.239063 195.139464 
L 275.679063 194.305696 
L 277.119063 193.674278 
L 278.559063 188.888776 
L 279.999063 191.5016 
L 281.439063 187.892686 
L 282.879063 198.041309 
L 284.319063 193.005785 
L 285.759063 187.405469 
L 287.199063 192.869183 
L 288.639063 188.066754 
L 290.079063 194.64471 
L 291.519063 194.587132 
L 292.959063 183.841066 
L 294.399063 186.599767 
L 295.839063 192.921842 
L 297.279063 198.395901 
L 298.719063 211.065593 
L 301.599063 196.858291 
L 303.039063 195.13317 
L 304.479063 187.209652 
L 305.919063 185.572071 
L 307.359063 178.699715 
L 308.799063 175.832866 
L 310.239063 178.493445 
L 311.679063 178.184745 
L 313.119063 181.575194 
L 314.559063 185.331186 
L 315.999063 186.329848 
L 317.439063 196.546057 
L 318.879063 202.936162 
L 320.319063 204.510717 
L 321.759063 205.626636 
L 323.199063 203.868227 
L 324.639063 199.222196 
L 326.079063 195.776348 
L 327.519063 199.414406 
L 328.959063 201.670223 
L 330.399063 203.378204 
L 331.839063 210.206468 
L 333.279063 208.524885 
L 334.719063 210.766072 
L 336.159063 225.546373 
L 339.039063 229.083162 
L 340.479063 236.464788 
L 341.919063 237.497733 
L 343.359063 234.806213 
L 344.799063 221.777563 
L 346.239063 187.059161 
L 347.679063 156.996009 
L 349.119063 152.052377 
L 350.559063 173.746238 
L 351.999063 188.21243 
L 353.439063 199.845473 
L 354.879063 216.297816 
L 357.759063 244.014071 
L 359.199063 246.895303 
L 360.639063 234.888058 
L 362.079063 233.419403 
L 363.519063 239.247932 
L 364.959063 243.609469 
L 366.399063 252.205565 
L 367.839063 251.204953 
L 369.279063 244.342162 
L 370.719063 243.23247 
L 372.159063 243.18381 
L 373.599063 240.595936 
L 375.039063 244.706237 
L 376.479063 244.25254 
L 377.919063 241.813187 
L 379.359063 240.314936 
L 380.799063 246.039879 
L 382.239063 248.270489 
L 383.679063 250.000714 
L 385.119063 249.838473 
L 385.119063 249.838473 
" clip-path="url(#p9f6be19a4e)" style="fill: none; stroke: #d62728; stroke-width: 1.5; stroke-linecap: square"/>
   </g>
   <g id="line2d_20">
    <path d="M 29.439063 222.506149 
L 30.879063 229.225195 
L 32.319063 244.328125 
L 33.759063 247.402355 
L 35.199063 252.954749 
L 36.639063 258.019032 
L 38.079063 257.295259 
L 39.519063 249.2435 
L 40.959063 246.974437 
L 42.399063 234.54074 
L 43.839063 231.861658 
L 45.279063 231.553594 
L 46.719063 227.717781 
L 48.159063 232.012654 
L 49.599063 247.643113 
L 52.479063 246.413994 
L 53.919063 251.305355 
L 55.359063 234.325278 
L 56.799063 214.484016 
L 58.239063 201.387908 
L 59.679063 163.586194 
L 61.119063 129.858474 
L 62.559063 141.397281 
L 63.999063 125.3209 
L 65.439063 134.972888 
L 66.879063 154.989431 
L 68.319063 158.76708 
L 69.759063 155.361922 
L 71.199063 182.873277 
L 72.639063 162.532711 
L 74.079063 145.998895 
L 75.519063 142.271252 
L 76.959063 131.739654 
L 78.399063 80.2958 
L 79.839063 74.469261 
L 81.279063 71.612377 
L 82.719063 73.369884 
L 84.159063 78.170446 
L 85.599063 92.205622 
L 87.039063 114.651386 
L 88.479063 126.98029 
L 89.919063 135.707335 
L 91.359063 141.820322 
L 92.799063 152.338799 
L 94.239063 155.572908 
L 95.679063 168.629853 
L 97.119063 177.501124 
L 98.559063 192.046346 
L 99.999063 191.863517 
L 101.439063 188.562489 
L 102.879063 191.603524 
L 104.319063 188.124556 
L 105.759063 181.447777 
L 107.199063 187.0666 
L 108.639063 187.0915 
L 110.079063 185.34807 
L 111.519063 189.913695 
L 112.959063 190.637736 
L 114.399063 188.763136 
L 117.279063 195.654061 
L 118.719063 195.075047 
L 120.159063 193.860278 
L 121.599063 194.307816 
L 123.039063 192.563919 
L 124.479063 191.542008 
L 127.359063 188.685177 
L 128.799063 188.893792 
L 130.239063 191.078975 
L 131.679063 192.074346 
L 133.119063 199.593102 
L 134.559063 204.565698 
L 135.999063 210.577143 
L 137.439063 212.428944 
L 138.879063 214.907852 
L 140.319063 210.23647 
L 141.759063 207.817891 
L 143.199063 196.188428 
L 144.639063 189.862088 
L 146.079063 182.770205 
L 147.519063 183.291563 
L 148.959063 181.712392 
L 150.399063 193.113415 
L 153.279063 211.463604 
L 156.159063 230.909798 
L 159.039063 242.063784 
L 160.479063 245.919887 
L 161.919063 246.583547 
L 163.359063 248.741635 
L 164.799063 249.036102 
L 166.239063 249.952996 
L 167.679063 247.98217 
L 169.119063 243.701758 
L 170.559063 241.373489 
L 171.999063 240.72956 
L 173.439063 235.993508 
L 174.879063 234.540632 
L 176.319063 232.924776 
L 177.759063 229.099784 
L 179.199063 230.988135 
L 180.639063 235.724345 
L 182.079063 235.091221 
L 183.519063 238.923995 
L 184.959063 240.309621 
L 186.399063 236.532871 
L 187.839063 231.439783 
L 189.279063 239.832571 
L 190.719063 229.288225 
L 192.159063 229.025515 
L 193.599063 226.018762 
L 195.039063 229.776904 
L 196.479063 213.604985 
L 197.919063 215.680869 
L 199.359063 209.062995 
L 200.799063 214.984372 
L 202.239063 210.206824 
L 203.679063 219.314815 
L 205.119063 222.17396 
L 206.559063 226.369517 
L 207.999063 231.430807 
L 209.439063 225.577264 
L 210.879063 223.851206 
L 212.319063 228.555607 
L 213.759063 226.648719 
L 215.199063 216.031922 
L 216.639063 225.28565 
L 218.079063 220.640156 
L 219.519063 231.061495 
L 220.959063 227.73105 
L 222.399063 220.726004 
L 223.839063 215.037011 
L 225.279063 213.157231 
L 226.719063 191.720756 
L 228.159063 196.460668 
L 229.599063 191.350375 
L 231.039063 191.757527 
L 232.479063 201.836996 
L 233.919063 200.792232 
L 235.359063 197.550137 
L 236.799063 211.894043 
L 238.239063 208.846332 
L 239.679063 198.115669 
L 241.119063 203.773183 
L 242.559063 201.828184 
L 243.999063 197.214919 
L 245.439063 195.912493 
L 248.319063 185.115566 
L 249.759063 188.215948 
L 251.199063 179.230873 
L 252.639063 171.901027 
L 254.079063 188.619752 
L 255.519063 183.951829 
L 256.959063 183.070739 
L 258.399063 191.957715 
L 259.839063 195.323676 
L 261.279063 189.316525 
L 262.719063 197.266248 
L 264.159063 190.602066 
L 265.599063 195.331172 
L 267.039063 203.427593 
L 268.479063 207.153921 
L 269.919063 203.660003 
L 271.359063 208.209749 
L 272.799063 206.225655 
L 274.239063 201.968952 
L 275.679063 193.086981 
L 277.119063 192.080368 
L 278.559063 193.671134 
L 279.999063 192.037551 
L 281.439063 187.230909 
L 282.879063 195.127704 
L 284.319063 193.136595 
L 285.759063 190.879234 
L 287.199063 188.360647 
L 288.639063 195.259724 
L 290.079063 190.323195 
L 291.519063 192.16594 
L 292.959063 185.535827 
L 294.399063 190.356327 
L 295.839063 194.157665 
L 297.279063 195.231943 
L 298.719063 199.805793 
L 300.159063 205.75506 
L 301.599063 201.980701 
L 303.039063 196.973377 
L 305.919063 184.857416 
L 307.359063 182.068236 
L 308.799063 180.423619 
L 310.239063 177.468219 
L 311.679063 177.562124 
L 313.119063 178.80059 
L 314.559063 185.690961 
L 315.999063 185.834271 
L 318.879063 198.87215 
L 320.319063 203.82049 
L 321.759063 202.259429 
L 323.199063 205.894119 
L 324.639063 200.979192 
L 326.079063 198.165651 
L 327.519063 198.124359 
L 328.959063 202.74615 
L 330.399063 200.578123 
L 331.839063 207.104849 
L 333.279063 208.241904 
L 334.719063 211.671763 
L 336.159063 220.244674 
L 337.599063 226.078778 
L 339.039063 223.863886 
L 340.479063 233.998962 
L 341.919063 240.383726 
L 343.359063 233.517676 
L 344.799063 219.293385 
L 346.239063 203.251104 
L 347.679063 183.622751 
L 349.119063 167.197618 
L 350.559063 165.252998 
L 351.999063 172.562654 
L 353.439063 194.202864 
L 354.879063 213.618043 
L 356.319063 226.041419 
L 357.759063 232.462632 
L 359.199063 241.448056 
L 360.639063 239.391526 
L 362.079063 238.737845 
L 363.519063 239.787062 
L 364.959063 241.114508 
L 366.399063 244.070253 
L 367.839063 251.48424 
L 369.279063 248.029576 
L 370.719063 244.248661 
L 372.159063 243.731784 
L 373.599063 242.244278 
L 375.039063 242.65733 
L 376.479063 244.176889 
L 377.919063 242.605043 
L 379.359063 239.931252 
L 380.799063 246.935916 
L 382.239063 247.059347 
L 383.679063 247.328921 
L 385.119063 246.558014 
L 385.119063 246.558014 
" clip-path="url(#p9f6be19a4e)" style="fill: none; stroke: #9467bd; stroke-width: 1.5; stroke-linecap: square"/>
   </g>
   <g id="line2d_21">
    <path d="M 29.439063 221.989476 
L 30.879063 228.904971 
L 32.319063 237.483987 
L 33.759063 244.099331 
L 35.199063 250.133055 
L 38.079063 256.994611 
L 39.519063 253.038847 
L 42.399063 239.915086 
L 43.839063 236.632969 
L 45.279063 235.239876 
L 46.719063 227.68395 
L 48.159063 231.670455 
L 49.599063 240.522 
L 51.039063 246.901912 
L 52.479063 247.094508 
L 53.919063 245.135114 
L 55.359063 236.98727 
L 56.799063 227.417148 
L 58.239063 209.558869 
L 61.119063 154.479575 
L 62.559063 136.912814 
L 63.999063 136.626651 
L 65.439063 143.651398 
L 66.879063 138.702995 
L 68.319063 150.24993 
L 69.759063 157.637623 
L 71.199063 172.805614 
L 72.639063 172.308881 
L 74.079063 147.756838 
L 75.519063 139.424444 
L 76.959063 135.249771 
L 78.399063 118.380389 
L 79.839063 80.14313 
L 81.279063 68.347758 
L 82.719063 78.528388 
L 85.599063 83.731536 
L 87.039063 109.142714 
L 88.479063 114.016671 
L 89.919063 131.704446 
L 91.359063 137.894546 
L 92.799063 145.867244 
L 94.239063 159.375849 
L 95.679063 160.199988 
L 97.119063 173.774933 
L 98.559063 185.603024 
L 99.999063 187.691034 
L 102.879063 189.973888 
L 104.319063 189.661866 
L 105.759063 188.720384 
L 107.199063 183.420157 
L 108.639063 184.839306 
L 110.079063 187.32764 
L 111.519063 188.234936 
L 112.959063 190.808875 
L 114.399063 189.459306 
L 115.839063 189.315904 
L 117.279063 194.488321 
L 118.719063 196.222111 
L 120.159063 194.084129 
L 121.599063 192.551171 
L 123.039063 192.477858 
L 124.479063 193.836383 
L 125.919063 191.623847 
L 127.359063 188.740474 
L 128.799063 188.38451 
L 130.239063 189.755489 
L 131.679063 193.432394 
L 133.119063 198.363082 
L 134.559063 201.032618 
L 135.999063 206.925265 
L 137.439063 209.543013 
L 138.879063 213.252545 
L 140.319063 212.963095 
L 141.759063 207.846519 
L 144.639063 192.369156 
L 146.079063 189.197994 
L 148.959063 184.042107 
L 150.399063 187.198671 
L 153.279063 207.540235 
L 154.719063 218.675332 
L 156.159063 224.780796 
L 157.599063 232.725185 
L 160.479063 243.690539 
L 161.919063 246.907814 
L 163.359063 247.474879 
L 164.799063 247.797075 
L 166.239063 249.480254 
L 167.679063 248.556817 
L 169.119063 245.08607 
L 170.559063 243.204053 
L 173.439063 238.815428 
L 174.879063 235.683007 
L 176.319063 232.270423 
L 177.759063 231.130882 
L 179.199063 232.49656 
L 180.639063 234.57189 
L 182.079063 234.929153 
L 183.519063 236.028174 
L 184.959063 237.444895 
L 186.399063 238.514573 
L 187.839063 234.934333 
L 189.279063 238.395766 
L 190.719063 231.266365 
L 192.159063 229.132824 
L 193.599063 226.515892 
L 195.039063 229.239417 
L 196.479063 224.817696 
L 197.919063 209.621523 
L 199.359063 212.522123 
L 202.239063 216.641101 
L 203.679063 215.732855 
L 205.119063 217.061613 
L 206.559063 221.758769 
L 207.999063 232.710465 
L 209.439063 225.409058 
L 210.879063 226.675144 
L 212.319063 224.981941 
L 213.759063 225.516094 
L 215.199063 224.706134 
L 216.639063 219.993368 
L 218.079063 222.621729 
L 219.519063 230.960194 
L 220.959063 224.808205 
L 222.399063 219.699069 
L 223.839063 219.194515 
L 225.279063 212.348296 
L 226.719063 209.65087 
L 228.159063 194.907088 
L 229.599063 187.807324 
L 231.039063 195.211158 
L 232.479063 201.189777 
L 233.919063 199.121299 
L 235.359063 199.667689 
L 236.799063 201.664094 
L 238.239063 209.536309 
L 239.679063 206.137929 
L 241.119063 200.771985 
L 242.559063 200.539284 
L 243.999063 201.393693 
L 246.879063 190.557175 
L 248.319063 190.24811 
L 249.759063 187.367939 
L 251.199063 182.763564 
L 252.639063 175.139954 
L 254.079063 184.260041 
L 256.959063 185.693006 
L 258.399063 186.011723 
L 259.839063 189.053189 
L 261.279063 197.746163 
L 262.719063 192.377572 
L 264.159063 191.188962 
L 265.599063 196.093335 
L 267.039063 198.888857 
L 268.479063 207.49831 
L 271.359063 200.805821 
L 272.799063 208.713277 
L 274.239063 204.293783 
L 275.679063 199.221764 
L 277.119063 191.424833 
L 278.559063 192.344692 
L 279.999063 195.438584 
L 281.439063 188.410429 
L 282.879063 193.421343 
L 284.319063 191.466693 
L 285.759063 191.34645 
L 287.199063 191.086209 
L 288.639063 191.173373 
L 290.079063 195.888562 
L 291.519063 188.934661 
L 292.959063 184.957424 
L 295.839063 195.922878 
L 297.279063 195.865522 
L 298.719063 196.964714 
L 300.159063 196.992366 
L 301.599063 203.993471 
L 303.039063 201.233957 
L 304.479063 193.29733 
L 305.919063 188.48751 
L 307.359063 182.050611 
L 308.799063 182.922867 
L 310.239063 180.997684 
L 311.679063 176.85942 
L 313.119063 178.181248 
L 314.559063 182.759312 
L 315.999063 186.049535 
L 317.439063 190.908696 
L 318.879063 194.995539 
L 320.319063 200.316108 
L 321.759063 202.053777 
L 323.199063 203.05515 
L 324.639063 203.188982 
L 326.079063 199.818307 
L 327.519063 199.700281 
L 328.959063 201.146293 
L 330.399063 201.664569 
L 331.839063 204.221356 
L 333.279063 205.956449 
L 334.719063 210.922625 
L 336.159063 219.423925 
L 337.599063 221.610325 
L 339.039063 223.37897 
L 340.479063 229.049003 
L 341.919063 237.766712 
L 343.359063 236.693885 
L 346.239063 204.185953 
L 347.679063 198.109798 
L 350.559063 175.034151 
L 351.999063 165.669523 
L 353.439063 180.766015 
L 354.879063 207.173387 
L 356.319063 222.415569 
L 357.759063 228.878611 
L 359.199063 232.116043 
L 360.639063 235.824645 
L 362.079063 241.744141 
L 363.519063 242.955834 
L 364.959063 241.247706 
L 366.399063 241.929208 
L 367.839063 244.83055 
L 369.279063 248.808845 
L 370.719063 247.351661 
L 372.159063 244.492239 
L 373.599063 242.862764 
L 375.039063 243.66558 
L 376.479063 242.552297 
L 377.919063 242.817807 
L 379.359063 240.92033 
L 380.799063 245.569599 
L 382.239063 247.629856 
L 383.679063 246.468575 
L 385.119063 244.839602 
L 385.119063 244.839602 
" clip-path="url(#p9f6be19a4e)" style="fill: none; stroke: #8c564b; stroke-width: 1.5; stroke-linecap: square"/>
   </g>
   <g id="line2d_22">
    <path d="M 29.439063 224.216778 
L 30.879063 227.596136 
L 32.319063 236.094002 
L 33.759063 238.285498 
L 35.199063 247.009287 
L 36.639063 251.173405 
L 38.079063 253.38057 
L 39.519063 253.391419 
L 40.959063 250.111493 
L 42.399063 240.35466 
L 43.839063 240.873149 
L 45.279063 238.743918 
L 46.719063 231.524757 
L 48.159063 231.087585 
L 49.599063 239.084283 
L 51.039063 240.893702 
L 52.479063 246.996197 
L 53.919063 245.910647 
L 55.359063 233.085415 
L 56.799063 230.86679 
L 58.239063 221.875268 
L 59.679063 192.984554 
L 61.119063 172.579527 
L 62.559063 156.56697 
L 63.999063 133.393898 
L 65.439063 150.105108 
L 66.879063 145.513232 
L 68.319063 136.739153 
L 69.759063 150.483069 
L 71.199063 172.207681 
L 72.639063 164.739432 
L 74.079063 159.007124 
L 75.519063 141.932814 
L 76.959063 133.752243 
L 79.839063 113.209754 
L 81.279063 74.203567 
L 82.719063 74.821343 
L 84.159063 84.425418 
L 85.599063 85.512302 
L 87.039063 100.005778 
L 88.479063 109.382331 
L 89.919063 120.19955 
L 91.359063 134.191304 
L 92.799063 141.997781 
L 94.239063 153.047456 
L 95.679063 162.735832 
L 97.119063 166.052801 
L 98.559063 181.433711 
L 99.999063 182.665304 
L 101.439063 185.684395 
L 102.879063 190.052933 
L 104.319063 188.528151 
L 105.759063 189.949308 
L 107.199063 189.323584 
L 108.639063 181.997329 
L 110.079063 185.368481 
L 111.519063 189.494891 
L 112.959063 189.251731 
L 114.399063 189.776067 
L 115.839063 189.831957 
L 117.279063 191.63289 
L 118.719063 195.146246 
L 120.159063 195.216294 
L 121.599063 192.932486 
L 123.039063 191.218756 
L 124.479063 193.58218 
L 125.919063 193.580143 
L 127.359063 190.258975 
L 128.799063 188.474989 
L 130.239063 189.198645 
L 131.679063 191.981943 
L 133.119063 198.601115 
L 134.559063 199.784621 
L 135.999063 203.618883 
L 137.439063 206.544268 
L 138.879063 210.681256 
L 140.319063 211.804545 
L 141.759063 210.573035 
L 143.199063 201.272819 
L 146.079063 191.453746 
L 147.519063 191.567199 
L 148.959063 186.873421 
L 150.399063 188.362043 
L 151.839063 191.892493 
L 154.719063 214.499122 
L 156.159063 222.158824 
L 157.599063 227.322903 
L 159.039063 234.922937 
L 160.479063 240.308315 
L 161.919063 244.880253 
L 163.359063 247.623529 
L 164.799063 246.836933 
L 166.239063 248.36133 
L 167.679063 248.346486 
L 169.119063 246.014508 
L 170.559063 244.469403 
L 171.999063 242.710852 
L 173.439063 239.410904 
L 174.879063 238.158751 
L 176.319063 233.598803 
L 177.759063 230.819473 
L 179.199063 233.710105 
L 180.639063 235.321048 
L 182.079063 234.048867 
L 183.519063 235.757231 
L 184.959063 235.145673 
L 186.399063 236.280027 
L 187.839063 236.891486 
L 189.279063 240.248563 
L 190.719063 231.206691 
L 192.159063 230.855381 
L 193.599063 226.97232 
L 195.039063 229.200263 
L 196.479063 225.060755 
L 197.919063 220.171876 
L 199.359063 207.679122 
L 200.799063 216.719103 
L 202.239063 216.123738 
L 203.679063 220.271379 
L 205.119063 214.26839 
L 206.559063 217.436337 
L 207.999063 228.104504 
L 209.439063 227.449084 
L 210.879063 226.376218 
L 212.319063 227.223636 
L 213.759063 222.819885 
L 215.199063 223.999794 
L 216.639063 226.684388 
L 218.079063 218.385403 
L 219.519063 231.107781 
L 220.959063 225.63427 
L 222.399063 218.212387 
L 223.839063 218.52415 
L 225.279063 216.383034 
L 226.719063 209.44702 
L 228.159063 209.664523 
L 229.599063 187.671964 
L 231.039063 191.709338 
L 232.479063 202.671045 
L 233.919063 198.947973 
L 235.359063 198.387136 
L 236.799063 202.852002 
L 238.239063 201.008475 
L 239.679063 207.131896 
L 241.119063 207.18111 
L 242.559063 198.380668 
L 243.999063 200.348606 
L 245.439063 199.87207 
L 246.879063 191.497092 
L 248.319063 190.446999 
L 249.759063 191.399083 
L 251.199063 182.804438 
L 252.639063 178.836405 
L 254.079063 185.145917 
L 255.519063 181.658839 
L 256.959063 186.284838 
L 258.399063 187.806378 
L 259.839063 184.297498 
L 261.279063 192.130815 
L 262.719063 199.063592 
L 264.159063 187.727666 
L 265.599063 195.808404 
L 267.039063 199.024939 
L 268.479063 203.154815 
L 269.919063 204.902638 
L 271.359063 201.663825 
L 272.799063 202.345891 
L 274.239063 206.736348 
L 275.679063 201.650842 
L 277.119063 196.995616 
L 278.559063 191.746216 
L 279.999063 194.064329 
L 281.439063 191.922213 
L 282.879063 193.527147 
L 284.319063 190.499864 
L 285.759063 190.157175 
L 287.199063 191.456708 
L 288.639063 193.073793 
L 290.079063 192.318328 
L 291.519063 193.959995 
L 292.959063 183.119016 
L 295.839063 195.385749 
L 297.279063 197.120655 
L 298.719063 197.255697 
L 300.159063 194.920628 
L 301.599063 196.680503 
L 303.039063 203.076989 
L 304.479063 197.57802 
L 305.919063 190.830877 
L 307.359063 185.624953 
L 308.799063 182.786056 
L 310.239063 183.053444 
L 311.679063 179.987536 
L 313.119063 177.492985 
L 314.559063 181.681811 
L 315.999063 183.494688 
L 317.439063 190.37394 
L 318.879063 193.456085 
L 320.319063 196.827227 
L 321.759063 199.273135 
L 323.199063 202.7665 
L 324.639063 201.103242 
L 326.079063 201.896283 
L 327.519063 200.885534 
L 328.959063 202.043694 
L 330.399063 200.439377 
L 331.839063 204.616121 
L 333.279063 203.633554 
L 334.719063 208.62509 
L 336.159063 217.74467 
L 337.599063 220.720925 
L 339.039063 219.863341 
L 340.479063 227.927071 
L 341.919063 233.158476 
L 343.359063 234.910488 
L 344.799063 225.785975 
L 346.239063 207.941713 
L 347.679063 199.687402 
L 349.119063 198.707123 
L 350.559063 190.269042 
L 351.999063 174.012436 
L 353.439063 174.001014 
L 356.319063 216.068495 
L 357.759063 225.453198 
L 359.199063 229.092188 
L 360.639063 228.265121 
L 362.079063 238.433858 
L 363.519063 244.842663 
L 364.959063 243.724589 
L 366.399063 241.926549 
L 367.839063 242.904976 
L 369.279063 243.356351 
L 370.719063 248.122206 
L 372.159063 247.117699 
L 373.599063 243.645552 
L 375.039063 243.986768 
L 376.479063 243.433191 
L 377.919063 241.603178 
L 379.359063 241.348576 
L 380.799063 245.588154 
L 383.679063 247.045601 
L 385.119063 244.443331 
L 385.119063 244.443331 
" clip-path="url(#p9f6be19a4e)" style="fill: none; stroke: #e377c2; stroke-width: 1.5; stroke-linecap: square"/>
   </g>
   <g id="patch_3">
    <path d="M 29.439063 284.991437 
L 29.439063 18.879437 
" style="fill: none; stroke: #000000; stroke-width: 0.8; stroke-linejoin: miter; stroke-linecap: square"/>
   </g>
   <g id="patch_4">
    <path d="M 386.559062 284.991437 
L 386.559062 18.879437 
" style="fill: none; stroke: #000000; stroke-width: 0.8; stroke-linejoin: miter; stroke-linecap: square"/>
   </g>
   <g id="patch_5">
    <path d="M 29.439063 284.991437 
L 386.559063 284.991437 
" style="fill: none; stroke: #000000; stroke-width: 0.8; stroke-linejoin: miter; stroke-linecap: square"/>
   </g>
   <g id="patch_6">
    <path d="M 29.439063 18.879437 
L 386.559063 18.879437 
" style="fill: none; stroke: #000000; stroke-width: 0.8; stroke-linejoin: miter; stroke-linecap: square"/>
   </g>
   <g id="legend_1">
    <g id="patch_7">
     <path d="M 188.849844 127.613812 
L 227.148281 127.613812 
Q 229.148281 127.613812 229.148281 125.613812 
L 229.148281 25.879437 
Q 229.148281 23.879437 227.148281 23.879437 
L 188.849844 23.879437 
Q 186.849844 23.879437 186.849844 25.879437 
L 186.849844 125.613812 
Q 186.849844 127.613812 188.849844 127.613812 
z
" style="fill: #ffffff; opacity: 0.8; stroke: #cccccc; stroke-linejoin: miter"/>
    </g>
    <g id="line2d_23">
     <path d="M 190.849844 31.870062 
L 200.849844 31.870062 
L 210.849844 31.870062 
" style="fill: none; stroke: #1f77b4; stroke-width: 1.5; stroke-linecap: square"/>
    </g>
    <g id="text_15">
     <!-- 1 -->
     <g transform="translate(218.849844 35.370062) scale(0.1 -0.1)">
      <use xlink:href="#IPAexGothic-31"/>
     </g>
    </g>
    <g id="line2d_24">
     <path d="M 190.849844 46.260687 
L 200.849844 46.260687 
L 210.849844 46.260687 
" style="fill: none; stroke: #ff7f0e; stroke-width: 1.5; stroke-linecap: square"/>
    </g>
    <g id="text_16">
     <!-- 2 -->
     <g transform="translate(218.849844 49.760687) scale(0.1 -0.1)">
      <use xlink:href="#IPAexGothic-32"/>
     </g>
    </g>
    <g id="line2d_25">
     <path d="M 190.849844 60.651312 
L 200.849844 60.651312 
L 210.849844 60.651312 
" style="fill: none; stroke: #2ca02c; stroke-width: 1.5; stroke-linecap: square"/>
    </g>
    <g id="text_17">
     <!-- 3 -->
     <g transform="translate(218.849844 64.151312) scale(0.1 -0.1)">
      <use xlink:href="#IPAexGothic-33"/>
     </g>
    </g>
    <g id="line2d_26">
     <path d="M 190.849844 75.041937 
L 200.849844 75.041937 
L 210.849844 75.041937 
" style="fill: none; stroke: #d62728; stroke-width: 1.5; stroke-linecap: square"/>
    </g>
    <g id="text_18">
     <!-- 4 -->
     <g transform="translate(218.849844 78.541937) scale(0.1 -0.1)">
      <defs>
       <path id="IPAexGothic-34" d="M 3813 1159 
L 3059 1159 
L 3059 63 
L 2547 63 
L 2547 1159 
L 197 1159 
L 197 1672 
L 2456 4678 
L 3059 4678 
L 3059 1634 
L 3813 1634 
L 3813 1159 
z
M 2578 4109 
L 2559 4109 
Q 2278 3656 2003 3284 
L 759 1634 
L 2547 1634 
L 2547 3144 
Q 2547 3481 2578 4109 
z
" transform="scale(0.015625)"/>
      </defs>
      <use xlink:href="#IPAexGothic-34"/>
     </g>
    </g>
    <g id="line2d_27">
     <path d="M 190.849844 89.432562 
L 200.849844 89.432562 
L 210.849844 89.432562 
" style="fill: none; stroke: #9467bd; stroke-width: 1.5; stroke-linecap: square"/>
    </g>
    <g id="text_19">
     <!-- 5 -->
     <g transform="translate(218.849844 92.932562) scale(0.1 -0.1)">
      <use xlink:href="#IPAexGothic-35"/>
     </g>
    </g>
    <g id="line2d_28">
     <path d="M 190.849844 103.823187 
L 200.849844 103.823187 
L 210.849844 103.823187 
" style="fill: none; stroke: #8c564b; stroke-width: 1.5; stroke-linecap: square"/>
    </g>
    <g id="text_20">
     <!-- 6 -->
     <g transform="translate(218.849844 107.323187) scale(0.1 -0.1)">
      <defs>
       <path id="IPAexGothic-36" d="M 1056 2328 
Q 1509 2981 2234 2981 
Q 2906 2981 3316 2513 
Q 3675 2106 3675 1522 
Q 3675 884 3272 434 
Q 2853 -31 2178 -31 
Q 1375 -31 922 581 
Q 481 1178 481 2228 
Q 481 3425 1013 4109 
Q 1494 4725 2272 4725 
Q 3191 4725 3609 4025 
L 3150 3775 
Q 2894 4266 2300 4266 
Q 1119 4266 1031 2328 
L 1056 2328 
z
M 2141 2547 
Q 1684 2547 1384 2206 
Q 1116 1900 1116 1541 
Q 1116 1156 1353 844 
Q 1672 428 2159 428 
Q 2669 428 2941 844 
Q 3125 1128 3125 1503 
Q 3125 1944 2881 2228 
Q 2600 2547 2141 2547 
z
" transform="scale(0.015625)"/>
      </defs>
      <use xlink:href="#IPAexGothic-36"/>
     </g>
    </g>
    <g id="line2d_29">
     <path d="M 190.849844 118.213812 
L 200.849844 118.213812 
L 210.849844 118.213812 
" style="fill: none; stroke: #e377c2; stroke-width: 1.5; stroke-linecap: square"/>
    </g>
    <g id="text_21">
     <!-- 7 -->
     <g transform="translate(218.849844 121.713812) scale(0.1 -0.1)">
      <defs>
       <path id="IPAexGothic-37" d="M 3597 4263 
Q 2238 2106 1778 63 
L 1131 63 
Q 1581 1834 2950 4128 
L 428 4128 
L 428 4634 
L 3597 4634 
L 3597 4263 
z
" transform="scale(0.015625)"/>
      </defs>
      <use xlink:href="#IPAexGothic-37"/>
     </g>
    </g>
   </g>
  </g>
  <g id="axes_2">
   <g id="matplotlib.axis_3"/>
   <g id="patch_8">
    <path d="M 29.439063 284.991437 
L 29.439063 18.879437 
" style="fill: none; stroke: #000000; stroke-width: 0.8; stroke-linejoin: miter; stroke-linecap: square"/>
   </g>
   <g id="patch_9">
    <path d="M 386.559062 284.991437 
L 386.559062 18.879437 
" style="fill: none; stroke: #000000; stroke-width: 0.8; stroke-linejoin: miter; stroke-linecap: square"/>
   </g>
   <g id="patch_10">
    <path d="M 29.439063 284.991437 
L 386.559063 284.991437 
" style="fill: none; stroke: #000000; stroke-width: 0.8; stroke-linejoin: miter; stroke-linecap: square"/>
   </g>
   <g id="patch_11">
    <path d="M 29.439063 18.879437 
L 386.559063 18.879437 
" style="fill: none; stroke: #000000; stroke-width: 0.8; stroke-linejoin: miter; stroke-linecap: square"/>
   </g>
  </g>
  <g id="text_22">
   <!-- : 2023/02/03 16:14:32(JST) -->
   <g transform="translate(211.087188 15.423437) scale(0.1 -0.1)">
    <defs>
     <path id="IPAexGothic-66f4" d="M 2956 3994 
L 2956 4588 
L 513 4588 
L 513 4984 
L 5881 4984 
L 5881 4588 
L 3413 4588 
L 3413 3994 
L 5300 3994 
L 5300 1288 
L 4838 1288 
L 4838 1759 
L 3406 1759 
Q 3384 1125 3150 709 
Q 4291 244 5997 31 
L 5694 -428 
Q 4109 -166 2906 384 
Q 2294 -266 744 -488 
L 494 -66 
Q 1903 59 2491 588 
Q 2041 813 1594 1166 
L 1928 1434 
Q 2331 1106 2747 897 
Q 2922 1219 2950 1759 
L 1556 1759 
L 1556 1413 
L 1097 1413 
L 1097 3994 
L 2956 3994 
z
M 2956 3609 
L 1556 3609 
L 1556 3078 
L 2956 3078 
L 2956 3609 
z
M 3413 3609 
L 3413 3078 
L 4838 3078 
L 4838 3609 
L 3413 3609 
z
M 2956 2700 
L 1556 2700 
L 1556 2144 
L 2956 2144 
L 2956 2700 
z
M 3413 2700 
L 3413 2144 
L 4838 2144 
L 4838 2700 
L 3413 2700 
z
" transform="scale(0.015625)"/>
     <path id="IPAexGothic-65b0" d="M 3891 2803 
Q 3881 1759 3794 1166 
Q 3653 197 3097 -563 
L 2741 -250 
Q 3450 700 3450 2631 
L 3450 4647 
Q 3516 4656 3622 4666 
Q 4656 4778 5447 5063 
L 5825 4678 
Q 4897 4419 3891 4294 
L 3891 3219 
L 6119 3219 
L 6119 2803 
L 5275 2803 
L 5275 -447 
L 4834 -447 
L 4834 2803 
L 3891 2803 
z
M 2822 4069 
Q 2678 3572 2519 3181 
L 3250 3181 
L 3250 2784 
L 2059 2784 
L 2059 2216 
L 3184 2216 
L 3184 1831 
L 2059 1831 
L 2059 1544 
Q 2613 1197 3031 847 
L 2781 456 
Q 2472 791 2059 1128 
L 2059 -447 
L 1644 -447 
L 1644 1294 
Q 1272 628 575 -31 
L 269 341 
Q 1041 938 1528 1831 
L 453 1831 
L 453 2216 
L 1644 2216 
L 1644 2784 
L 319 2784 
L 319 3181 
L 1125 3181 
Q 1013 3706 881 4069 
L 453 4069 
L 453 4453 
L 1631 4453 
L 1631 5309 
L 2072 5309 
L 2072 4453 
L 3166 4453 
L 3166 4069 
L 2822 4069 
z
M 2391 4069 
L 1325 4069 
Q 1450 3672 1534 3181 
L 2109 3181 
Q 2294 3659 2391 4069 
z
" transform="scale(0.015625)"/>
     <path id="IPAexGothic-65e5" d="M 5231 4800 
L 5231 -288 
L 4744 -288 
L 4744 128 
L 1647 128 
L 1647 -288 
L 1159 -288 
L 1159 4800 
L 5231 4800 
z
M 1647 4372 
L 1647 2731 
L 4744 2731 
L 4744 4372 
L 1647 4372 
z
M 1647 2297 
L 1647 556 
L 4744 556 
L 4744 2297 
L 1647 2297 
z
" transform="scale(0.015625)"/>
     <path id="IPAexGothic-6642" d="M 2328 4728 
L 2328 563 
L 934 563 
L 934 56 
L 519 56 
L 519 4728 
L 2328 4728 
z
M 934 4331 
L 934 2881 
L 1906 2881 
L 1906 4331 
L 934 4331 
z
M 934 2497 
L 934 953 
L 1906 953 
L 1906 2497 
L 934 2497 
z
M 3938 4372 
L 3938 5313 
L 4378 5313 
L 4378 4372 
L 5772 4372 
L 5772 3981 
L 4378 3981 
L 4378 3194 
L 6072 3194 
L 6072 2803 
L 5203 2803 
L 5203 2047 
L 5959 2047 
L 5959 1650 
L 5216 1650 
L 5216 31 
Q 5216 -447 4691 -447 
Q 4394 -447 3888 -391 
L 3784 78 
Q 4272 0 4591 0 
Q 4775 0 4775 172 
L 4775 1650 
L 2581 1650 
L 2581 2047 
L 4763 2047 
L 4763 2803 
L 2538 2803 
L 2538 3194 
L 3938 3194 
L 3938 3981 
L 2716 3981 
L 2716 4372 
L 3938 4372 
z
M 3669 384 
Q 3331 950 2956 1325 
L 3291 1575 
Q 3719 1147 4025 659 
L 3669 384 
z
" transform="scale(0.015625)"/>
     <path id="IPAexGothic-3a" d="M 1369 2559 
L 672 2559 
L 672 3250 
L 1369 3250 
L 1369 2559 
z
M 1369 63 
L 672 63 
L 672 753 
L 1369 753 
L 1369 63 
z
" transform="scale(0.015625)"/>
     <path id="IPAexGothic-20" transform="scale(0.015625)"/>
     <path id="IPAexGothic-2f" d="M 2719 4709 
L 600 -884 
L 300 -763 
L 2413 4831 
L 2719 4709 
z
" transform="scale(0.015625)"/>
     <path id="IPAexGothic-28" d="M 1928 -1016 
L 1653 -1166 
Q 488 69 488 1875 
Q 488 3678 1653 4909 
L 1928 4763 
Q 1006 3522 1006 1881 
Q 1006 203 1928 -1016 
z
" transform="scale(0.015625)"/>
     <path id="IPAexGothic-54" d="M 3866 4141 
L 2175 4141 
L 2175 63 
L 1606 63 
L 1606 4141 
L -31 4141 
L -31 4634 
L 3866 4634 
L 3866 4141 
z
" transform="scale(0.015625)"/>
     <path id="IPAexGothic-29" d="M 466 4909 
Q 1638 3672 1638 1875 
Q 1638 75 466 -1166 
L 191 -1016 
Q 1119 216 1119 1881 
Q 1119 3509 191 4763 
L 466 4909 
z
" transform="scale(0.015625)"/>
    </defs>
    <use xlink:href="#IPAexGothic-66f4"/>
    <use xlink:href="#IPAexGothic-65b0" x="100"/>
    <use xlink:href="#IPAexGothic-65e5" x="200"/>
    <use xlink:href="#IPAexGothic-6642" x="300"/>
    <use xlink:href="#IPAexGothic-3a" x="400"/>
    <use xlink:href="#IPAexGothic-20" x="431.982422"/>
    <use xlink:href="#IPAexGothic-32" x="458.984375"/>
    <use xlink:href="#IPAexGothic-30" x="521.972656"/>
    <use xlink:href="#IPAexGothic-32" x="584.960938"/>
    <use xlink:href="#IPAexGothic-33" x="647.949219"/>
    <use xlink:href="#IPAexGothic-2f" x="710.9375"/>
    <use xlink:href="#IPAexGothic-30" x="760.9375"/>
    <use xlink:href="#IPAexGothic-32" x="823.925781"/>
    <use xlink:href="#IPAexGothic-2f" x="886.914062"/>
    <use xlink:href="#IPAexGothic-30" x="936.914062"/>
    <use xlink:href="#IPAexGothic-33" x="999.902344"/>
    <use xlink:href="#IPAexGothic-20" x="1062.890625"/>
    <use xlink:href="#IPAexGothic-31" x="1089.892578"/>
    <use xlink:href="#IPAexGothic-36" x="1152.880859"/>
    <use xlink:href="#IPAexGothic-3a" x="1215.869141"/>
    <use xlink:href="#IPAexGothic-31" x="1247.851562"/>
    <use xlink:href="#IPAexGothic-34" x="1310.839844"/>
    <use xlink:href="#IPAexGothic-3a" x="1373.828125"/>
    <use xlink:href="#IPAexGothic-33" x="1405.810547"/>
    <use xlink:href="#IPAexGothic-32" x="1468.798828"/>
    <use xlink:href="#IPAexGothic-28" x="1531.787109"/>
    <use xlink:href="#IPAexGothic-4a" x="1565.087891"/>
    <use xlink:href="#IPAexGothic-53" x="1603.076172"/>
    <use xlink:href="#IPAexGothic-54" x="1661.572266"/>
    <use xlink:href="#IPAexGothic-29" x="1721.484375"/>
   </g>
  </g>
 </g>
 <defs>
  <clipPath id="p9f6be19a4e">
   <rect x="29.439063" y="18.879437" width="357.12" height="266.112"/>
  </clipPath>
 </defs>
</svg>
