<?xml version="1.0" encoding="utf-8" standalone="no"?>
<!DOCTYPE svg PUBLIC "-//W3C//DTD SVG 1.1//EN"
  "http://www.w3.org/Graphics/SVG/1.1/DTD/svg11.dtd">
<svg xmlns:xlink="http://www.w3.org/1999/xlink" width="393.759062pt" height="308.582062pt" viewBox="0 0 393.759062 308.582062" xmlns="http://www.w3.org/2000/svg" version="1.1">
 <metadata>
  <rdf:RDF xmlns:dc="http://purl.org/dc/elements/1.1/" xmlns:cc="http://creativecommons.org/ns#" xmlns:rdf="http://www.w3.org/1999/02/22-rdf-syntax-ns#">
   <cc:Work>
    <dc:type rdf:resource="http://purl.org/dc/dcmitype/StillImage"/>
    <dc:date>2023-03-24T07:13:27.871208</dc:date>
    <dc:format>image/svg+xml</dc:format>
    <dc:creator>
     <cc:Agent>
      <dc:title>Matplotlib v3.7.1, https://matplotlib.org/</dc:title>
     </cc:Agent>
    </dc:creator>
   </cc:Work>
  </rdf:RDF>
 </metadata>
 <defs>
  <style type="text/css">*{stroke-linejoin: round; stroke-linecap: butt}</style>
 </defs>
 <g id="figure_1">
  <g id="patch_1">
   <path d="M 0 308.582062 
L 393.759062 308.582062 
L 393.759062 0 
L 0 0 
z
" style="fill: #ffffff"/>
  </g>
  <g id="axes_1">
   <g id="patch_2">
    <path d="M 29.439063 284.991437 
L 386.559062 284.991437 
L 386.559062 18.879437 
L 29.439063 18.879437 
z
" style="fill: #ffffff"/>
   </g>
   <g id="line2d_1">
    <path d="M 29.439063 211.199039 
L 386.559062 211.199039 
" clip-path="url(#pf7e5b6d88f)" style="fill: none; stroke: #000000; stroke-linecap: square"/>
   </g>
   <g id="matplotlib.axis_1">
    <g id="xtick_1">
     <g id="line2d_2">
      <defs>
       <path id="m0b5cc2764d" d="M 0 0 
L 0 3.5 
" style="stroke: #000000; stroke-width: 0.8"/>
      </defs>
      <g>
       <use xlink:href="#m0b5cc2764d" x="29.439063" y="284.991437" style="stroke: #000000; stroke-width: 0.8"/>
      </g>
     </g>
     <g id="text_1">
      <!-- Jun -->
      <g transform="translate(21.499219 299.482062) scale(0.1 -0.1)">
       <defs>
        <path id="IPAexGothic-4a" d="M 1819 4634 
L 1819 1234 
Q 1819 -31 763 -31 
Q 303 -31 -125 209 
L 84 644 
Q 378 447 694 447 
Q 1250 447 1250 1203 
L 1250 4634 
L 1819 4634 
z
" transform="scale(0.015625)"/>
        <path id="IPAexGothic-75" d="M 3284 63 
L 2772 63 
L 2772 644 
Q 2300 0 1625 0 
Q 1072 0 763 375 
Q 519 678 519 1241 
L 519 3250 
L 1069 3250 
L 1069 1259 
Q 1069 466 1734 466 
Q 2406 466 2734 1291 
L 2734 3250 
L 3284 3250 
L 3284 63 
z
" transform="scale(0.015625)"/>
        <path id="IPAexGothic-6e" d="M 3328 63 
L 2778 63 
L 2778 2041 
Q 2778 2853 2106 2853 
Q 1428 2853 1113 2041 
L 1113 63 
L 563 63 
L 563 3250 
L 1075 3250 
L 1075 2675 
Q 1525 3316 2222 3316 
Q 3328 3316 3328 2072 
L 3328 63 
z
" transform="scale(0.015625)"/>
       </defs>
       <use xlink:href="#IPAexGothic-4a"/>
       <use xlink:href="#IPAexGothic-75" x="37.988281"/>
       <use xlink:href="#IPAexGothic-6e" x="98.388672"/>
      </g>
     </g>
    </g>
    <g id="xtick_2">
     <g id="line2d_3">
      <g>
       <use xlink:href="#m0b5cc2764d" x="65.51179" y="284.991437" style="stroke: #000000; stroke-width: 0.8"/>
      </g>
     </g>
     <g id="text_2">
      <!-- Jul -->
      <g transform="translate(59.242259 299.482062) scale(0.1 -0.1)">
       <defs>
        <path id="IPAexGothic-6c" d="M 1131 63 
L 581 63 
L 581 4794 
L 1131 4794 
L 1131 63 
z
" transform="scale(0.015625)"/>
       </defs>
       <use xlink:href="#IPAexGothic-4a"/>
       <use xlink:href="#IPAexGothic-75" x="37.988281"/>
       <use xlink:href="#IPAexGothic-6c" x="98.388672"/>
      </g>
     </g>
    </g>
    <g id="xtick_3">
     <g id="line2d_4">
      <g>
       <use xlink:href="#m0b5cc2764d" x="102.786941" y="284.991437" style="stroke: #000000; stroke-width: 0.8"/>
      </g>
     </g>
     <g id="text_3">
      <!-- Aug -->
      <g transform="translate(93.80491 299.42425) scale(0.1 -0.1)">
       <defs>
        <path id="IPAexGothic-41" d="M 4056 63 
L 3444 63 
L 2938 1409 
L 1100 1409 
L 603 63 
L -6 63 
L 1806 4666 
L 2259 4666 
L 4056 63 
z
M 2778 1863 
L 2316 3078 
Q 2125 3588 2028 4000 
L 2009 4000 
Q 1897 3563 1716 3078 
L 1263 1863 
L 2778 1863 
z
" transform="scale(0.015625)"/>
        <path id="IPAexGothic-67" d="M 1331 1150 
Q 1006 1122 1006 900 
Q 1006 613 1763 575 
L 2131 556 
Q 3303 497 3303 -294 
Q 3303 -700 2925 -959 
Q 2519 -1253 1794 -1253 
Q 1138 -1253 738 -1028 
Q 353 -809 353 -428 
Q 353 84 1075 247 
L 1075 269 
Q 506 413 506 778 
Q 506 1116 994 1297 
Q 456 1575 456 2181 
Q 456 2650 769 2963 
Q 1128 3322 1738 3322 
Q 2125 3322 2422 3153 
Q 2650 3453 3259 3463 
L 3259 3013 
Q 2838 3003 2703 2938 
Q 3034 2613 3034 2169 
Q 3034 1728 2734 1425 
Q 2400 1094 1813 1094 
Q 1563 1094 1331 1150 
z
M 1734 2919 
Q 1409 2919 1197 2706 
Q 988 2497 988 2181 
Q 988 1872 1184 1684 
Q 1397 1472 1756 1472 
Q 2094 1472 2297 1678 
Q 2503 1881 2503 2203 
Q 2503 2497 2297 2700 
Q 2081 2919 1734 2919 
z
M 1753 159 
Q 903 159 903 -366 
Q 903 -875 1800 -875 
Q 2378 -875 2638 -606 
Q 2772 -481 2772 -313 
Q 2772 159 1753 159 
z
" transform="scale(0.015625)"/>
       </defs>
       <use xlink:href="#IPAexGothic-41"/>
       <use xlink:href="#IPAexGothic-75" x="63.720703"/>
       <use xlink:href="#IPAexGothic-67" x="124.121094"/>
      </g>
     </g>
    </g>
    <g id="xtick_4">
     <g id="line2d_5">
      <g>
       <use xlink:href="#m0b5cc2764d" x="140.062093" y="284.991437" style="stroke: #000000; stroke-width: 0.8"/>
      </g>
     </g>
     <g id="text_4">
      <!-- Sep -->
      <g transform="translate(131.187093 299.482062) scale(0.1 -0.1)">
       <defs>
        <path id="IPAexGothic-53" d="M 2919 3641 
Q 2563 4259 1853 4259 
Q 1453 4259 1213 4009 
Q 1028 3803 1028 3534 
Q 1028 3238 1266 3047 
Q 1444 2913 1984 2688 
L 2200 2597 
Q 2925 2306 3191 1953 
Q 3422 1644 3422 1259 
Q 3422 644 2969 288 
Q 2559 -31 1931 -31 
Q 881 -31 313 766 
L 753 1100 
Q 1203 459 1938 459 
Q 2288 459 2534 625 
Q 2841 847 2841 1216 
Q 2841 1503 2616 1728 
Q 2375 1959 1728 2206 
L 1541 2278 
Q 453 2694 453 3481 
Q 453 4006 806 4347 
Q 1203 4725 1863 4725 
Q 2841 4725 3359 3956 
L 2919 3641 
z
" transform="scale(0.015625)"/>
        <path id="IPAexGothic-65" d="M 863 1594 
Q 891 1041 1209 722 
Q 1534 397 1997 397 
Q 2606 397 2963 966 
L 3322 728 
Q 2869 -31 1931 -31 
Q 1222 -31 766 422 
Q 306 884 306 1641 
Q 306 2444 788 2925 
Q 1216 3353 1856 3353 
Q 2459 3353 2866 2956 
Q 3322 2494 3322 1722 
L 3322 1594 
L 863 1594 
z
M 2756 1997 
Q 2709 2431 2450 2681 
Q 2194 2938 1844 2938 
Q 1438 2938 1150 2591 
Q 953 2356 894 1997 
L 2756 1997 
z
" transform="scale(0.015625)"/>
        <path id="IPAexGothic-70" d="M 1075 2688 
Q 1525 3341 2206 3341 
Q 2769 3341 3172 2938 
Q 3641 2469 3641 1644 
Q 3641 841 3178 372 
Q 2775 -31 2200 -31 
Q 1569 -31 1106 497 
L 1106 -1216 
L 563 -1216 
L 563 3250 
L 1075 3250 
L 1075 2688 
z
M 1106 1950 
L 1106 1291 
Q 1106 897 1516 600 
Q 1791 403 2106 403 
Q 2469 403 2725 659 
Q 3066 997 3066 1631 
Q 3066 2200 2784 2559 
Q 2503 2900 2100 2900 
Q 1656 2900 1338 2484 
Q 1106 2184 1106 1950 
z
" transform="scale(0.015625)"/>
       </defs>
       <use xlink:href="#IPAexGothic-53"/>
       <use xlink:href="#IPAexGothic-65" x="58.496094"/>
       <use xlink:href="#IPAexGothic-70" x="115.380859"/>
      </g>
     </g>
    </g>
    <g id="xtick_5">
     <g id="line2d_6">
      <g>
       <use xlink:href="#m0b5cc2764d" x="176.13482" y="284.991437" style="stroke: #000000; stroke-width: 0.8"/>
      </g>
     </g>
     <g id="text_5">
      <!-- Oct -->
      <g transform="translate(167.699664 299.482062) scale(0.1 -0.1)">
       <defs>
        <path id="IPAexGothic-4f" d="M 2541 4725 
Q 3456 4725 4044 4138 
Q 4709 3472 4709 2331 
Q 4709 1219 4031 550 
Q 3450 -31 2541 -31 
Q 1638 -31 1056 550 
Q 378 1219 378 2356 
Q 378 3469 1044 4138 
Q 1631 4725 2541 4725 
z
M 2541 4266 
Q 1953 4266 1531 3844 
Q 994 3303 994 2350 
Q 994 1391 1531 863 
Q 1947 447 2541 447 
Q 3131 447 3556 863 
Q 4094 1400 4094 2375 
Q 4094 3297 3550 3844 
Q 3138 4266 2541 4266 
z
" transform="scale(0.015625)"/>
        <path id="IPAexGothic-63" d="M 3269 784 
Q 2834 -31 1900 -31 
Q 1228 -31 788 409 
Q 313 891 313 1663 
Q 313 2428 788 2913 
Q 1222 3347 1881 3347 
Q 2813 3347 3206 2541 
L 2763 2309 
Q 2484 2900 1900 2900 
Q 1516 2900 1234 2619 
Q 881 2266 881 1650 
Q 881 1069 1222 728 
Q 1522 428 1956 428 
Q 2547 428 2847 1016 
L 3269 784 
z
" transform="scale(0.015625)"/>
        <path id="IPAexGothic-74" d="M 2125 241 
Q 1769 -6 1397 -6 
Q 653 -6 653 831 
L 653 2859 
L 219 2859 
L 219 3250 
L 653 3250 
L 653 3966 
L 1178 4228 
L 1178 3250 
L 2063 3250 
L 2063 2859 
L 1178 2859 
L 1178 906 
Q 1178 416 1513 416 
Q 1738 416 1941 588 
L 2125 241 
z
" transform="scale(0.015625)"/>
       </defs>
       <use xlink:href="#IPAexGothic-4f"/>
       <use xlink:href="#IPAexGothic-63" x="79.6875"/>
       <use xlink:href="#IPAexGothic-74" x="134.082031"/>
      </g>
     </g>
    </g>
    <g id="xtick_6">
     <g id="line2d_7">
      <g>
       <use xlink:href="#m0b5cc2764d" x="213.409972" y="284.991437" style="stroke: #000000; stroke-width: 0.8"/>
      </g>
     </g>
     <g id="text_6">
      <!-- Nov -->
      <g transform="translate(204.161534 299.482062) scale(0.1 -0.1)">
       <defs>
        <path id="IPAexGothic-4e" d="M 4244 63 
L 3731 63 
L 1697 3150 
Q 1466 3500 1141 4097 
L 1116 4097 
L 1128 3797 
Q 1159 2803 1159 2469 
L 1159 63 
L 609 63 
L 609 4634 
L 1366 4634 
L 3113 1978 
Q 3453 1447 3713 966 
L 3738 966 
Q 3694 1897 3694 2469 
L 3694 4634 
L 4244 4634 
L 4244 63 
z
" transform="scale(0.015625)"/>
        <path id="IPAexGothic-6f" d="M 1919 3341 
Q 2594 3341 3056 2888 
Q 3531 2413 3531 1638 
Q 3531 888 3066 422 
Q 2609 -31 1919 -31 
Q 1228 -31 781 416 
Q 313 881 313 1656 
Q 313 2413 788 2888 
Q 1241 3341 1919 3341 
z
M 1919 2919 
Q 1519 2919 1241 2631 
Q 888 2278 888 1650 
Q 888 1031 1234 684 
Q 1516 403 1919 403 
Q 2331 403 2609 691 
Q 2956 1038 2956 1672 
Q 2956 2269 2603 2631 
Q 2316 2919 1919 2919 
z
" transform="scale(0.015625)"/>
        <path id="IPAexGothic-76" d="M 3103 3250 
L 1747 6 
L 1375 6 
L 25 3250 
L 628 3250 
L 1338 1388 
L 1522 844 
L 1569 703 
L 1588 703 
Q 1641 884 1822 1388 
L 2516 3250 
L 3103 3250 
z
" transform="scale(0.015625)"/>
       </defs>
       <use xlink:href="#IPAexGothic-4e"/>
       <use xlink:href="#IPAexGothic-6f" x="75.976562"/>
       <use xlink:href="#IPAexGothic-76" x="136.376953"/>
      </g>
     </g>
    </g>
    <g id="xtick_7">
     <g id="line2d_8">
      <g>
       <use xlink:href="#m0b5cc2764d" x="249.482699" y="284.991437" style="stroke: #000000; stroke-width: 0.8"/>
      </g>
     </g>
     <g id="text_7">
      <!-- Dec -->
      <g transform="translate(240.134261 299.482062) scale(0.1 -0.1)">
       <defs>
        <path id="IPAexGothic-44" d="M 609 4634 
L 1984 4634 
Q 3159 4634 3791 4050 
Q 4456 3444 4456 2356 
Q 4456 1047 3516 441 
Q 2925 63 1941 63 
L 609 63 
L 609 4634 
z
M 1172 556 
L 1894 556 
Q 3853 556 3853 2356 
Q 3853 4147 1928 4147 
L 1172 4147 
L 1172 556 
z
" transform="scale(0.015625)"/>
       </defs>
       <use xlink:href="#IPAexGothic-44"/>
       <use xlink:href="#IPAexGothic-65" x="75.683594"/>
       <use xlink:href="#IPAexGothic-63" x="132.568359"/>
      </g>
     </g>
    </g>
    <g id="xtick_8">
     <g id="line2d_9">
      <g>
       <use xlink:href="#m0b5cc2764d" x="286.75785" y="284.991437" style="stroke: #000000; stroke-width: 0.8"/>
      </g>
     </g>
     <g id="text_8">
      <!-- 2023 -->
      <g transform="translate(274.160975 299.482062) scale(0.1 -0.1)">
       <defs>
        <path id="IPAexGothic-32" d="M 3659 63 
L 447 63 
L 447 594 
Q 825 1475 1894 2203 
L 2072 2322 
Q 2619 2697 2791 2906 
Q 2988 3153 2988 3444 
Q 2988 3772 2756 4003 
Q 2500 4259 2084 4259 
Q 1250 4259 991 3328 
L 497 3506 
Q 853 4725 2116 4725 
Q 2806 4725 3216 4316 
Q 3575 3947 3575 3425 
Q 3575 3038 3344 2722 
Q 3131 2416 2366 1938 
L 2231 1856 
Q 1256 1253 978 569 
L 3659 569 
L 3659 63 
z
" transform="scale(0.015625)"/>
        <path id="IPAexGothic-30" d="M 2038 4725 
Q 2881 4725 3334 3944 
Q 3694 3325 3694 2344 
Q 3694 1372 3334 741 
Q 2888 -31 2016 -31 
Q 1147 -31 700 741 
Q 341 1372 341 2350 
Q 341 3713 1000 4334 
Q 1419 4725 2038 4725 
z
M 2016 4266 
Q 1516 4266 1228 3759 
Q 934 3247 934 2344 
Q 934 1456 1222 947 
Q 1513 447 2016 447 
Q 2619 447 2909 1153 
Q 3100 1622 3100 2375 
Q 3100 3256 2806 3759 
Q 2509 4266 2016 4266 
z
" transform="scale(0.015625)"/>
        <path id="IPAexGothic-33" d="M 2381 2419 
Q 3506 2216 3506 1278 
Q 3506 716 3128 356 
Q 2709 -31 1944 -31 
Q 797 -31 288 881 
L 756 1131 
Q 1109 441 1938 441 
Q 2425 441 2694 691 
Q 2950 928 2950 1291 
Q 2950 1719 2566 1978 
Q 2216 2213 1644 2213 
L 1363 2213 
L 1363 2669 
L 1656 2669 
Q 2231 2669 2534 2888 
Q 2859 3119 2859 3509 
Q 2859 3934 2494 4138 
Q 2259 4278 1931 4278 
Q 1238 4278 903 3578 
L 434 3803 
Q 897 4725 1938 4725 
Q 2597 4725 3006 4394 
Q 3416 4069 3416 3534 
Q 3416 3028 3019 2706 
Q 2763 2500 2381 2444 
L 2381 2419 
z
" transform="scale(0.015625)"/>
       </defs>
       <use xlink:href="#IPAexGothic-32"/>
       <use xlink:href="#IPAexGothic-30" x="62.988281"/>
       <use xlink:href="#IPAexGothic-32" x="125.976562"/>
       <use xlink:href="#IPAexGothic-33" x="188.964844"/>
      </g>
     </g>
    </g>
    <g id="xtick_9">
     <g id="line2d_10">
      <g>
       <use xlink:href="#m0b5cc2764d" x="324.033002" y="284.991437" style="stroke: #000000; stroke-width: 0.8"/>
      </g>
     </g>
     <g id="text_9">
      <!-- Feb -->
      <g transform="translate(315.209564 299.482062) scale(0.1 -0.1)">
       <defs>
        <path id="IPAexGothic-46" d="M 3469 4141 
L 1172 4141 
L 1172 2656 
L 3206 2656 
L 3206 2188 
L 1172 2188 
L 1172 63 
L 609 63 
L 609 4634 
L 3469 4634 
L 3469 4141 
z
" transform="scale(0.015625)"/>
        <path id="IPAexGothic-62" d="M 1125 2731 
Q 1550 3341 2219 3341 
Q 2788 3341 3191 2938 
Q 3659 2469 3659 1644 
Q 3659 838 3191 372 
Q 2788 -31 2206 -31 
Q 1559 -31 1088 516 
L 1009 44 
L 581 44 
L 581 4794 
L 1125 4794 
L 1125 2731 
z
M 1125 1997 
L 1125 1253 
Q 1125 888 1528 600 
Q 1803 403 2119 403 
Q 2488 403 2744 659 
Q 3084 1009 3084 1631 
Q 3084 2194 2803 2553 
Q 2525 2900 2125 2900 
Q 1759 2900 1438 2578 
Q 1125 2266 1125 1997 
z
" transform="scale(0.015625)"/>
       </defs>
       <use xlink:href="#IPAexGothic-46"/>
       <use xlink:href="#IPAexGothic-65" x="57.177734"/>
       <use xlink:href="#IPAexGothic-62" x="114.0625"/>
      </g>
     </g>
    </g>
    <g id="xtick_10">
     <g id="line2d_11">
      <g>
       <use xlink:href="#m0b5cc2764d" x="357.700881" y="284.991437" style="stroke: #000000; stroke-width: 0.8"/>
      </g>
     </g>
     <g id="text_10">
      <!-- Mar -->
      <g transform="translate(348.591506 299.482062) scale(0.1 -0.1)">
       <defs>
        <path id="IPAexGothic-4d" d="M 5147 63 
L 4597 63 
L 4597 2534 
Q 4597 3281 4634 4134 
L 4609 4134 
Q 4356 3409 4066 2675 
L 3066 209 
L 2650 209 
L 1641 2725 
Q 1328 3506 1128 4141 
L 1103 4141 
Q 1141 3131 1141 2553 
L 1141 63 
L 609 63 
L 609 4634 
L 1416 4634 
L 2503 1944 
Q 2697 1472 2869 906 
L 2888 906 
Q 3028 1416 3234 1931 
L 4316 4634 
L 5147 4634 
L 5147 63 
z
" transform="scale(0.015625)"/>
        <path id="IPAexGothic-61" d="M 3156 63 
L 2672 63 
Q 2559 303 2531 556 
L 2509 556 
Q 2147 -25 1428 -25 
Q 934 -25 622 288 
Q 347 563 347 959 
Q 347 1947 2050 1997 
L 2478 2009 
L 2478 2175 
Q 2478 2509 2288 2700 
Q 2088 2900 1775 2900 
Q 1238 2900 969 2378 
L 494 2597 
Q 938 3328 1788 3328 
Q 2375 3328 2691 3000 
Q 2984 2706 2984 2169 
L 2984 997 
Q 2984 400 3156 63 
z
M 2491 1625 
L 2141 1619 
Q 903 1591 903 953 
Q 903 728 1050 581 
Q 1231 403 1525 403 
Q 1934 403 2234 703 
Q 2491 969 2491 1344 
L 2491 1625 
z
" transform="scale(0.015625)"/>
        <path id="IPAexGothic-72" d="M 2309 3316 
L 2213 2769 
Q 2106 2791 2022 2791 
Q 1653 2791 1413 2444 
Q 1113 2006 1113 1675 
L 1113 63 
L 563 63 
L 563 3250 
L 1081 3250 
L 1056 2303 
L 1069 2303 
Q 1422 3341 2097 3341 
Q 2206 3341 2309 3316 
z
" transform="scale(0.015625)"/>
       </defs>
       <use xlink:href="#IPAexGothic-4d"/>
       <use xlink:href="#IPAexGothic-61" x="90.185547"/>
       <use xlink:href="#IPAexGothic-72" x="145.166016"/>
      </g>
     </g>
    </g>
   </g>
   <g id="matplotlib.axis_2">
    <g id="ytick_1">
     <g id="line2d_12">
      <defs>
       <path id="m3e5897221f" d="M 0 0 
L -3.5 0 
" style="stroke: #000000; stroke-width: 0.8"/>
      </defs>
      <g>
       <use xlink:href="#m3e5897221f" x="29.439063" y="269.014637" style="stroke: #000000; stroke-width: 0.8"/>
      </g>
     </g>
     <g id="text_11">
      <!-- 0.5 -->
      <g transform="translate(7.2 272.759949) scale(0.1 -0.1)">
       <defs>
        <path id="IPAexGothic-2e" d="M 1184 63 
L 494 63 
L 494 753 
L 1184 753 
L 1184 63 
z
" transform="scale(0.015625)"/>
        <path id="IPAexGothic-35" d="M 1178 2603 
Q 1634 2963 2172 2963 
Q 2816 2963 3241 2528 
Q 3638 2113 3638 1497 
Q 3638 938 3297 513 
Q 2869 -31 2031 -31 
Q 959 -31 469 784 
L 938 1028 
Q 1309 434 2013 434 
Q 2466 434 2769 716 
Q 3081 1013 3081 1503 
Q 3081 1966 2806 2241 
Q 2519 2528 2056 2528 
Q 1406 2528 1072 2028 
L 591 2091 
L 884 4634 
L 3406 4634 
L 3406 4153 
L 1341 4153 
L 1134 2603 
L 1178 2603 
z
" transform="scale(0.015625)"/>
       </defs>
       <use xlink:href="#IPAexGothic-30"/>
       <use xlink:href="#IPAexGothic-2e" x="62.988281"/>
       <use xlink:href="#IPAexGothic-35" x="89.404297"/>
      </g>
     </g>
    </g>
    <g id="ytick_2">
     <g id="line2d_13">
      <g>
       <use xlink:href="#m3e5897221f" x="29.439063" y="211.199039" style="stroke: #000000; stroke-width: 0.8"/>
      </g>
     </g>
     <g id="text_12">
      <!-- 1.0 -->
      <g transform="translate(7.2 214.944352) scale(0.1 -0.1)">
       <defs>
        <path id="IPAexGothic-31" d="M 2463 63 
L 1900 63 
L 1900 4103 
Q 1372 3922 788 3797 
L 684 4231 
Q 1519 4441 2106 4731 
L 2463 4731 
L 2463 63 
z
" transform="scale(0.015625)"/>
       </defs>
       <use xlink:href="#IPAexGothic-31"/>
       <use xlink:href="#IPAexGothic-2e" x="62.988281"/>
       <use xlink:href="#IPAexGothic-30" x="89.404297"/>
      </g>
     </g>
    </g>
    <g id="ytick_3">
     <g id="line2d_14">
      <g>
       <use xlink:href="#m3e5897221f" x="29.439063" y="153.383442" style="stroke: #000000; stroke-width: 0.8"/>
      </g>
     </g>
     <g id="text_13">
      <!-- 1.5 -->
      <g transform="translate(7.2 157.128754) scale(0.1 -0.1)">
       <use xlink:href="#IPAexGothic-31"/>
       <use xlink:href="#IPAexGothic-2e" x="62.988281"/>
       <use xlink:href="#IPAexGothic-35" x="89.404297"/>
      </g>
     </g>
    </g>
    <g id="ytick_4">
     <g id="line2d_15">
      <g>
       <use xlink:href="#m3e5897221f" x="29.439063" y="95.567844" style="stroke: #000000; stroke-width: 0.8"/>
      </g>
     </g>
     <g id="text_14">
      <!-- 2.0 -->
      <g transform="translate(7.2 99.313157) scale(0.1 -0.1)">
       <use xlink:href="#IPAexGothic-32"/>
       <use xlink:href="#IPAexGothic-2e" x="62.988281"/>
       <use xlink:href="#IPAexGothic-30" x="89.404297"/>
      </g>
     </g>
    </g>
    <g id="ytick_5">
     <g id="line2d_16">
      <g>
       <use xlink:href="#m3e5897221f" x="29.439063" y="37.752247" style="stroke: #000000; stroke-width: 0.8"/>
      </g>
     </g>
     <g id="text_15">
      <!-- 2.5 -->
      <g transform="translate(7.2 41.497559) scale(0.1 -0.1)">
       <use xlink:href="#IPAexGothic-32"/>
       <use xlink:href="#IPAexGothic-2e" x="62.988281"/>
       <use xlink:href="#IPAexGothic-35" x="89.404297"/>
      </g>
     </g>
    </g>
   </g>
   <g id="line2d_17">
    <path d="M 29.439063 227.411867 
L 30.641487 255.471758 
L 31.843911 269.405805 
L 33.046335 242.945807 
L 34.248759 262.441258 
L 36.653608 251.639145 
L 37.856032 227.514621 
L 39.058456 229.940841 
L 40.260881 194.078383 
L 41.463305 246.403784 
L 42.665729 250.411663 
L 43.868153 205.84664 
L 45.070578 249.191321 
L 46.273002 272.895437 
L 47.475426 243.090535 
L 48.67785 247.559579 
L 49.880275 238.429093 
L 51.082699 112.810292 
L 52.285123 184.323192 
L 53.487547 181.498781 
L 54.689972 30.975437 
L 57.09482 168.571026 
L 58.297244 110.868109 
L 59.499669 213.126183 
L 60.702093 156.293505 
L 61.904517 124.518024 
L 63.106941 151.875457 
L 64.309366 236.751655 
L 65.51179 106.655378 
L 66.714214 51.387485 
L 67.916638 102.788184 
L 69.119063 95.926279 
L 70.321487 36.542983 
L 71.523911 79.37836 
L 72.726335 35.439549 
L 73.928759 110.396771 
L 75.131184 116.980214 
L 76.333608 109.726148 
L 77.536032 177.160719 
L 78.738456 110.814502 
L 79.940881 153.702013 
L 81.143305 148.460822 
L 82.345729 164.812112 
L 83.548153 190.526245 
L 84.750578 181.526351 
L 85.953002 197.096587 
L 87.155426 219.976945 
L 88.35785 163.710275 
L 89.560275 173.022011 
L 90.762699 196.817697 
L 91.965123 179.527296 
L 93.167547 191.661352 
L 94.369972 192.887858 
L 95.572396 173.15897 
L 96.77482 188.50237 
L 97.977244 201.809366 
L 99.179669 195.197746 
L 100.382093 183.412435 
L 101.584517 192.046725 
L 102.786941 204.737627 
L 103.989366 199.025674 
L 105.19179 189.016626 
L 106.394214 185.809755 
L 107.596638 182.941981 
L 108.799062 200.02008 
L 110.001487 192.032303 
L 111.203911 181.775482 
L 112.406335 186.871327 
L 113.608759 193.9839 
L 114.811184 204.601463 
L 116.013608 225.669065 
L 117.216032 207.989558 
L 118.418456 218.057369 
L 119.620881 204.232725 
L 120.823305 217.282458 
L 122.025729 202.720535 
L 123.228153 195.141529 
L 124.430578 153.461242 
L 125.633002 171.531238 
L 126.835426 185.828914 
L 128.03785 204.950127 
L 129.240275 187.736367 
L 130.442699 211.671324 
L 131.645123 216.92144 
L 132.847547 231.587854 
L 134.049972 248.509599 
L 135.252396 240.826108 
L 136.45482 241.29957 
L 137.657244 247.072575 
L 138.859669 251.367839 
L 140.062093 251.669425 
L 141.264517 251.785215 
L 142.466941 242.900107 
L 143.669366 251.663262 
L 144.87179 241.186243 
L 146.074214 228.929625 
L 147.276638 240.670472 
L 148.479062 239.689961 
L 149.681487 228.587222 
L 150.883911 234.114512 
L 152.086335 220.053728 
L 153.288759 221.634093 
L 154.491184 247.789493 
L 155.693608 250.578039 
L 156.896032 230.847867 
L 158.098456 240.571341 
L 159.300881 229.667605 
L 160.503305 228.965012 
L 161.705729 226.507 
L 162.908153 266.267581 
L 164.110578 173.994674 
L 165.313002 228.352097 
L 166.515426 212.968149 
L 167.71785 243.863512 
L 168.920275 195.951487 
L 170.122699 187.500784 
L 171.325123 195.32975 
L 172.527547 238.855842 
L 173.729972 224.563828 
L 174.932396 239.674853 
L 176.13482 205.067187 
L 177.337244 219.657973 
L 178.539669 258.893645 
L 179.742093 189.095647 
L 180.944517 231.988543 
L 182.146941 230.452082 
L 183.349366 208.848889 
L 184.55179 214.413367 
L 185.754214 237.774657 
L 186.956638 208.216448 
L 188.159062 269.328924 
L 189.361487 186.857034 
L 190.563911 168.652783 
L 191.766335 211.199039 
L 192.968759 197.903063 
L 194.171184 190.42842 
L 195.373608 209.746404 
L 196.576032 135.123595 
L 197.778456 212.926136 
L 198.980881 239.34414 
L 200.183305 184.631705 
L 201.385729 193.892671 
L 202.588153 220.351516 
L 203.790578 197.002011 
L 204.993002 191.634272 
L 206.195426 213.253557 
L 207.39785 183.049443 
L 208.600275 199.198481 
L 209.802699 190.346771 
L 211.005123 160.309806 
L 212.207547 189.784075 
L 213.409972 198.104074 
L 214.612396 152.110827 
L 215.81482 152.9204 
L 217.017244 232.748365 
L 218.219669 165.024121 
L 219.422093 194.085734 
L 220.624517 199.838398 
L 221.826941 173.564927 
L 223.029366 209.205445 
L 224.23179 206.690562 
L 225.434214 156.249641 
L 226.636638 220.402577 
L 227.839062 215.284532 
L 229.041487 225.924092 
L 230.243911 188.099011 
L 231.446335 185.511636 
L 232.648759 211.199039 
L 233.851184 194.160213 
L 235.053608 184.55213 
L 236.256032 182.799057 
L 238.660881 203.930102 
L 239.863305 168.757197 
L 241.065729 220.491359 
L 242.268153 171.577359 
L 244.673002 192.11637 
L 245.875426 204.402838 
L 247.07785 198.987955 
L 248.280275 181.777237 
L 249.482699 142.696764 
L 250.685123 213.580923 
L 251.887547 220.529523 
L 253.089972 204.080643 
L 254.292396 205.292279 
L 255.49482 181.962456 
L 256.697244 194.793532 
L 257.899669 197.432704 
L 259.102093 173.295964 
L 260.304517 175.045451 
L 261.506941 167.16196 
L 262.709366 187.120934 
L 263.91179 183.834422 
L 265.114214 173.778001 
L 266.316638 181.23856 
L 267.519062 201.020413 
L 268.721487 187.828789 
L 269.923911 213.66936 
L 271.126335 207.768569 
L 272.328759 207.295129 
L 273.531184 192.832229 
L 274.733608 206.958159 
L 275.936032 188.728128 
L 277.138456 193.851266 
L 278.340881 207.103197 
L 279.543305 215.224404 
L 280.745729 196.113595 
L 281.948153 220.91992 
L 283.150578 200.04709 
L 284.353002 223.444191 
L 285.555426 251.024981 
L 286.75785 228.180558 
L 287.960275 208.755181 
L 289.162699 251.311193 
L 290.365123 254.432046 
L 291.567547 215.74342 
L 292.769972 126.299141 
L 293.972396 90.185267 
L 295.17482 169.01121 
L 296.377244 202.233317 
L 297.579669 208.810336 
L 298.782093 167.736099 
L 299.984517 215.685286 
L 301.186941 255.304956 
L 302.389366 257.151057 
L 303.59179 241.910597 
L 304.794214 230.363911 
L 305.996638 201.639485 
L 307.199062 252.591109 
L 308.401487 261.202922 
L 309.603911 248.191392 
L 310.806335 245.888016 
L 312.008759 248.528538 
L 313.211184 233.937612 
L 314.413608 243.873594 
L 315.616032 245.699396 
L 316.818456 238.379427 
L 318.020881 250.421781 
L 319.223305 242.025158 
L 320.425729 235.679743 
L 321.628153 231.977605 
L 322.830578 268.725993 
L 324.033002 251.010186 
L 325.235426 243.44844 
L 326.43785 231.173865 
L 327.640275 246.470516 
L 328.842699 240.806074 
L 330.045123 205.729567 
L 331.247547 216.74151 
L 332.449972 221.239134 
L 333.652396 222.049942 
L 334.85482 236.243828 
L 336.057244 216.587974 
L 337.259669 250.056764 
L 338.462093 220.887451 
L 339.664517 228.799652 
L 340.866941 253.712581 
L 342.069366 218.850978 
L 343.27179 215.357996 
L 344.474214 237.280047 
L 345.676638 193.27922 
L 346.879063 224.105076 
L 348.081487 238.379537 
L 349.283911 241.772305 
L 350.486335 251.269511 
L 351.688759 255.03236 
L 354.093608 237.065956 
L 355.296032 226.130001 
L 356.498456 244.38679 
L 357.700881 206.157732 
L 358.903305 233.765533 
L 360.105729 159.336552 
L 361.308153 185.327724 
L 362.510578 214.962751 
L 363.713002 217.21233 
L 364.915426 183.217935 
L 366.11785 224.645526 
L 367.320275 214.214028 
L 368.522699 235.628575 
L 369.725123 247.936648 
L 370.927547 239.212375 
L 372.129972 229.20156 
L 373.332396 240.777423 
L 374.53482 253.457905 
L 375.737244 223.82357 
L 376.939669 230.110703 
L 378.142093 231.751414 
L 379.344517 221.724925 
L 380.546941 218.438731 
L 381.749366 196.729311 
L 382.95179 269.644947 
L 384.154214 186.805833 
L 385.356638 151.469654 
L 385.356638 151.469654 
" clip-path="url(#pf7e5b6d88f)" style="fill: none; stroke: #1f77b4; stroke-width: 1.5; stroke-linecap: square"/>
   </g>
   <g id="line2d_18">
    <path d="M 29.439063 230.929789 
L 30.641487 242.60231 
L 31.843911 262.8168 
L 33.046335 257.425513 
L 34.248759 253.337157 
L 35.451184 259.836211 
L 36.653608 254.434415 
L 37.856032 240.414674 
L 39.058456 228.735232 
L 40.260881 213.41839 
L 41.463305 223.501825 
L 42.665729 248.433331 
L 43.868153 230.677266 
L 45.070578 229.912564 
L 46.273002 262.11981 
L 47.475426 259.625445 
L 48.67785 245.355694 
L 49.880275 243.118728 
L 51.082699 189.281671 
L 52.285123 152.189606 
L 53.487547 182.917915 
L 54.689972 119.473036 
L 55.892396 68.196709 
L 57.09482 137.669929 
L 58.297244 141.957318 
L 59.499669 170.127431 
L 60.702093 187.579679 
L 61.904517 141.084002 
L 63.106941 138.693349 
L 64.309366 201.292679 
L 65.51179 186.000414 
L 66.714214 80.567026 
L 67.916638 78.413733 
L 69.119063 99.383107 
L 70.321487 67.931655 
L 71.523911 58.815077 
L 72.726335 58.306173 
L 73.928759 75.699401 
L 75.131184 113.713912 
L 76.333608 113.383995 
L 77.536032 146.569691 
L 78.738456 147.022086 
L 79.940881 133.443524 
L 81.143305 151.100956 
L 82.345729 156.832948 
L 83.548153 178.224324 
L 84.750578 186.098223 
L 85.953002 189.532009 
L 87.155426 209.091256 
L 88.35785 194.807872 
L 89.560275 168.434555 
L 90.762699 185.419494 
L 91.965123 188.44227 
L 93.167547 185.724694 
L 94.369972 192.276003 
L 95.572396 183.362139 
L 96.77482 181.032368 
L 97.977244 195.324076 
L 99.179669 198.546144 
L 100.382093 189.431392 
L 101.584517 187.79659 
L 102.786941 198.54902 
L 103.989366 201.914295 
L 105.19179 194.115474 
L 106.394214 187.422411 
L 107.596638 184.383085 
L 108.799062 191.750659 
L 110.001487 196.087179 
L 111.203911 186.997904 
L 112.406335 184.346184 
L 113.608759 190.473981 
L 114.811184 199.403219 
L 116.013608 215.633088 
L 117.216032 217.185071 
L 118.418456 213.134848 
L 119.620881 211.351742 
L 120.823305 210.94113 
L 122.025729 210.228598 
L 123.228153 198.987184 
L 124.430578 175.731796 
L 125.633002 162.744798 
L 128.03785 195.737687 
L 129.240275 196.62741 
L 130.442699 200.268399 
L 131.645123 214.327003 
L 132.847547 224.517111 
L 134.049972 240.462163 
L 135.252396 244.757718 
L 136.45482 241.063165 
L 137.657244 244.236496 
L 138.859669 249.249927 
L 140.062093 251.518783 
L 141.264517 251.727342 
L 142.466941 247.466905 
L 143.669366 247.402446 
L 144.87179 246.595581 
L 146.074214 235.262778 
L 147.276638 234.987471 
L 148.479062 240.181603 
L 149.681487 234.304978 
L 150.883911 231.390872 
L 152.086335 227.332189 
L 153.288759 220.846856 
L 155.693608 249.196285 
L 156.896032 241.279862 
L 158.098456 235.839395 
L 159.300881 235.281663 
L 160.503305 229.316941 
L 161.705729 227.743627 
L 162.908153 248.882551 
L 164.110578 230.621466 
L 165.313002 204.147875 
L 166.515426 220.93913 
L 167.71785 229.635769 
L 168.920275 222.625721 
L 170.122699 191.792225 
L 171.325123 191.471858 
L 172.527547 219.272458 
L 173.729972 231.97864 
L 174.932396 232.42119 
L 176.13482 223.814193 
L 177.337244 212.595296 
L 178.539669 241.501939 
L 179.742093 230.097519 
L 180.944517 212.536835 
L 182.146941 231.223399 
L 183.349366 220.196168 
L 184.55179 211.66473 
L 185.754214 226.773505 
L 186.956638 224.052711 
L 188.159062 244.24423 
L 189.361487 237.116008 
L 190.563911 178.033043 
L 192.968759 204.731901 
L 194.171184 194.218394 
L 195.373608 200.456001 
L 196.576032 177.011185 
L 197.778456 179.059561 
L 198.980881 227.005264 
L 200.183305 215.29372 
L 201.385729 189.34014 
L 202.588153 207.855357 
L 203.790578 209.25497 
L 204.993002 194.345323 
L 206.195426 202.914504 
L 207.39785 199.04078 
L 208.600275 191.364392 
L 209.802699 194.846812 
L 211.005123 176.074523 
L 212.207547 175.764073 
L 213.409972 194.009205 
L 214.612396 176.860376 
L 215.81482 152.516084 
L 217.017244 198.91713 
L 218.219669 203.448625 
L 219.422093 180.273516 
L 220.624517 196.993923 
L 221.826941 187.318791 
L 223.029366 192.562593 
L 224.23179 207.954654 
L 225.434214 183.674736 
L 226.636638 192.091624 
L 227.839062 217.873602 
L 229.041487 220.737602 
L 230.243911 208.513572 
L 231.446335 186.8113 
L 232.648759 198.998945 
L 233.851184 202.972279 
L 235.053608 189.440136 
L 236.256032 183.678277 
L 237.458456 188.335204 
L 238.660881 198.897374 
L 239.863305 187.448754 
L 241.065729 197.179515 
L 242.268153 198.341262 
L 243.470578 176.894581 
L 244.673002 187.16406 
L 245.875426 198.406453 
L 247.07785 201.724689 
L 248.280275 190.654224 
L 249.482699 163.401008 
L 250.685123 182.424595 
L 251.887547 217.110216 
L 253.089972 212.600777 
L 254.292396 204.687964 
L 255.49482 194.139114 
L 256.697244 188.526714 
L 257.899669 196.119779 
L 259.102093 185.880047 
L 260.304517 174.173214 
L 261.506941 171.1536 
L 262.709366 177.474475 
L 263.91179 185.48723 
L 265.114214 178.891638 
L 266.316638 177.554882 
L 267.519062 191.49043 
L 268.721487 194.588989 
L 269.923911 201.412831 
L 271.126335 210.756455 
L 272.328759 207.532084 
L 273.531184 200.270107 
L 274.733608 200.091846 
L 275.936032 198.165608 
L 277.138456 191.313905 
L 278.340881 200.651084 
L 279.543305 211.235099 
L 280.745729 206.046382 
L 281.948153 209.168684 
L 283.150578 210.952529 
L 284.353002 212.341773 
L 285.555426 238.302243 
L 286.75785 240.353858 
L 287.960275 218.904029 
L 289.162699 232.400817 
L 290.365123 252.888083 
L 291.567547 237.150337 
L 292.769972 177.577562 
L 293.972396 108.989297 
L 295.17482 133.576313 
L 296.377244 186.602691 
L 297.579669 205.566408 
L 298.782093 189.803691 
L 299.984517 193.854637 
L 301.186941 237.669294 
L 302.389366 256.234041 
L 303.59179 249.907348 
L 304.794214 236.3212 
L 305.996638 216.936234 
L 307.199062 230.424572 
L 308.401487 257.029702 
L 309.603911 254.991137 
L 310.806335 247.048016 
L 312.008759 247.219224 
L 313.211184 241.544538 
L 314.413608 239.046068 
L 315.616032 244.791574 
L 316.818456 242.11844 
L 318.020881 244.62081 
L 319.223305 246.332876 
L 320.425729 238.909678 
L 321.628153 233.847098 
L 322.830578 252.591834 
L 324.033002 260.456547 
L 325.235426 247.319155 
L 326.43785 237.521782 
L 327.640275 239.155159 
L 328.842699 243.68652 
L 330.045123 224.763671 
L 331.247547 211.366742 
L 332.449972 219.013772 
L 333.652396 221.645319 
L 334.85482 229.405031 
L 336.057244 226.898006 
L 337.259669 234.831969 
L 338.462093 236.643788 
L 339.664517 224.92031 
L 340.866941 242.167574 
L 342.069366 237.975354 
L 343.27179 217.118387 
L 344.474214 226.918474 
L 345.676638 217.470651 
L 346.879063 209.70189 
L 348.081487 231.509136 
L 349.283911 240.092508 
L 351.688759 253.174961 
L 352.891184 250.620979 
L 354.093608 241.617658 
L 355.296032 231.755086 
L 356.498456 235.714517 
L 357.700881 227.087281 
L 358.903305 220.856887 
L 360.105729 201.979325 
L 361.308153 172.879669 
L 362.510578 201.014775 
L 363.713002 216.093253 
L 364.915426 201.361197 
L 366.11785 205.689899 
L 367.320275 219.5565 
L 368.522699 225.485354 
L 369.725123 242.005556 
L 370.927547 243.688865 
L 372.129972 234.342313 
L 373.332396 235.172055 
L 374.53482 247.370212 
L 375.737244 239.894402 
L 376.939669 227.016627 
L 378.142093 230.934568 
L 379.344517 226.863796 
L 380.546941 220.094475 
L 381.749366 208.079088 
L 382.95179 240.575619 
L 384.154214 237.346517 
L 385.356638 170.130648 
L 385.356638 170.130648 
" clip-path="url(#pf7e5b6d88f)" style="fill: none; stroke: #ff7f0e; stroke-width: 1.5; stroke-linecap: square"/>
   </g>
   <g id="line2d_19">
    <path d="M 29.439063 229.122786 
L 30.641487 239.928401 
L 31.843911 252.698705 
L 33.046335 256.780278 
L 34.248759 259.139403 
L 35.451184 254.622372 
L 36.653608 257.208287 
L 37.856032 246.388486 
L 39.058456 237.055655 
L 40.260881 218.326475 
L 42.665729 233.387372 
L 43.868153 236.234427 
L 45.070578 237.293425 
L 47.475426 256.313321 
L 48.67785 255.822722 
L 49.880275 243.109331 
L 51.082699 212.36467 
L 53.487547 162.563334 
L 54.689972 143.84129 
L 55.892396 113.406318 
L 57.09482 107.256927 
L 58.297244 129.127564 
L 59.499669 169.610337 
L 60.702093 165.645532 
L 61.904517 169.115602 
L 63.106941 144.753156 
L 64.309366 179.647632 
L 65.51179 175.437505 
L 66.714214 150.710969 
L 67.916638 88.208754 
L 69.119063 84.394062 
L 70.321487 80.114816 
L 71.523911 71.804879 
L 72.726335 51.239386 
L 73.928759 76.931758 
L 75.131184 90.291085 
L 76.333608 112.392863 
L 77.536032 137.201801 
L 78.738456 135.362509 
L 79.940881 149.276885 
L 81.143305 138.58476 
L 82.345729 155.795645 
L 83.548153 168.900399 
L 87.155426 200.539182 
L 88.35785 195.575228 
L 89.560275 187.912342 
L 90.762699 178.52472 
L 91.965123 183.482093 
L 93.167547 189.523726 
L 94.369972 188.153999 
L 95.572396 186.18367 
L 96.77482 185.09643 
L 97.977244 188.315827 
L 99.179669 195.281979 
L 100.382093 193.687884 
L 101.584517 190.308761 
L 102.786941 193.689874 
L 103.989366 198.708102 
L 105.19179 197.755094 
L 106.394214 191.402728 
L 107.596638 185.944654 
L 108.799062 189.7987 
L 110.001487 191.844605 
L 111.203911 191.480812 
L 112.406335 186.955724 
L 113.608759 187.634041 
L 114.811184 195.355837 
L 116.013608 208.84012 
L 118.418456 217.476612 
L 119.620881 210.241718 
L 120.823305 213.36349 
L 122.025729 208.263285 
L 123.228153 205.402114 
L 124.430578 185.324114 
L 125.633002 174.344388 
L 126.835426 170.831497 
L 128.03785 188.120092 
L 129.240275 193.123075 
L 130.442699 201.848623 
L 131.645123 206.082407 
L 132.847547 220.402845 
L 134.049972 233.236603 
L 135.252396 240.583648 
L 136.45482 243.620823 
L 137.657244 243.114997 
L 140.062093 250.064959 
L 141.264517 251.607698 
L 142.466941 248.893225 
L 143.669366 248.891095 
L 144.87179 245.382199 
L 147.276638 237.10204 
L 148.479062 236.582508 
L 149.681487 236.477418 
L 150.883911 234.241533 
L 152.086335 227.752305 
L 153.288759 225.467971 
L 154.491184 230.718701 
L 155.693608 240.92208 
L 156.896032 243.507227 
L 158.098456 241.044337 
L 159.300881 233.826969 
L 160.503305 233.222764 
L 161.705729 228.38915 
L 162.908153 242.740121 
L 164.110578 229.269077 
L 165.313002 229.870881 
L 166.515426 207.161383 
L 167.71785 229.209749 
L 168.920275 219.501156 
L 170.122699 212.031087 
L 171.325123 192.98185 
L 172.527547 209.581314 
L 173.729972 221.065989 
L 174.932396 234.616737 
L 176.13482 224.06468 
L 177.337244 222.447011 
L 178.539669 230.764786 
L 179.742093 226.735849 
L 180.944517 230.732013 
L 182.146941 218.850986 
L 183.349366 224.281475 
L 184.55179 218.302399 
L 185.754214 221.123664 
L 186.956638 220.93512 
L 188.159062 242.141688 
L 189.361487 228.364316 
L 190.563911 218.44859 
L 191.766335 190.029585 
L 192.968759 193.727182 
L 194.171184 200.139008 
L 195.373608 199.610689 
L 196.576032 181.624175 
L 197.778456 190.09163 
L 200.183305 214.510045 
L 201.385729 208.573118 
L 202.588153 200.569432 
L 203.790578 204.342327 
L 204.993002 203.652593 
L 206.195426 200.974213 
L 207.39785 196.618162 
L 208.600275 199.093369 
L 209.802699 191.026031 
L 211.005123 184.214067 
L 212.207547 180.790352 
L 213.409972 183.611312 
L 214.612396 181.298308 
L 215.81482 169.270937 
L 217.017244 184.905831 
L 218.219669 188.492178 
L 219.422093 200.403438 
L 220.624517 187.108997 
L 221.826941 189.611924 
L 223.029366 195.033037 
L 224.23179 197.447481 
L 225.434214 192.747876 
L 226.636638 197.145102 
L 227.839062 200.314175 
L 229.041487 220.626045 
L 231.446335 201.295556 
L 232.648759 195.464272 
L 233.851184 197.405968 
L 235.053608 197.113713 
L 236.256032 187.261183 
L 237.458456 187.08549 
L 238.660881 193.741822 
L 239.863305 189.550213 
L 241.065729 199.469935 
L 242.268153 189.152671 
L 243.470578 193.119185 
L 244.673002 182.150609 
L 245.875426 193.164416 
L 247.07785 198.60058 
L 248.280275 195.400607 
L 249.482699 176.246527 
L 250.685123 182.20913 
L 251.887547 196.443074 
L 253.089972 212.928431 
L 254.292396 210.214796 
L 255.49482 197.539344 
L 256.697244 194.357613 
L 259.102093 188.916137 
L 260.304517 182.357292 
L 261.506941 171.871023 
L 262.709366 176.669151 
L 263.91179 179.625281 
L 265.114214 181.687232 
L 266.316638 179.678119 
L 267.519062 185.826618 
L 268.721487 190.280728 
L 269.923911 201.282161 
L 271.126335 203.568241 
L 272.328759 209.613962 
L 273.531184 202.82065 
L 274.733608 202.539923 
L 275.936032 196.411828 
L 277.138456 196.743275 
L 278.340881 196.795762 
L 279.543305 205.708887 
L 280.745729 206.399686 
L 281.948153 211.222913 
L 283.150578 206.203506 
L 284.353002 215.275699 
L 285.555426 227.04317 
L 286.75785 235.049338 
L 287.960275 230.893623 
L 289.162699 231.014516 
L 290.365123 240.403632 
L 291.567547 242.143466 
L 292.769972 209.55923 
L 293.972396 152.790998 
L 295.17482 131.180415 
L 296.377244 159.879638 
L 297.579669 194.434509 
L 298.782093 194.078898 
L 299.984517 199.039398 
L 301.186941 218.686553 
L 302.389366 244.703586 
L 303.59179 251.750355 
L 304.794214 243.877834 
L 305.996638 225.985777 
L 307.199062 230.404356 
L 309.603911 254.199875 
L 310.806335 252.076606 
L 313.211184 243.017663 
L 314.413608 242.328067 
L 315.616032 241.322359 
L 316.818456 242.707579 
L 318.020881 244.981923 
L 319.223305 243.764543 
L 320.425729 242.927891 
L 321.628153 236.657187 
L 322.830578 247.335431 
L 324.033002 252.068319 
L 325.235426 255.212423 
L 326.43785 242.265414 
L 327.640275 240.610269 
L 328.842699 239.708955 
L 330.045123 232.583033 
L 331.247547 222.156768 
L 332.449972 214.756056 
L 333.652396 220.03548 
L 334.85482 226.75576 
L 336.057244 225.307435 
L 337.259669 235.305016 
L 338.462093 230.400667 
L 339.664517 234.101419 
L 340.866941 235.597281 
L 342.069366 235.016415 
L 343.27179 230.998408 
L 344.474214 224.298607 
L 345.676638 216.77092 
L 346.879063 219.728418 
L 348.081487 220.168553 
L 349.283911 235.06089 
L 350.486335 243.990749 
L 351.688759 249.55491 
L 352.891184 250.837773 
L 354.093608 246.346832 
L 355.296032 236.739674 
L 356.498456 236.167242 
L 357.700881 226.769203 
L 358.903305 229.364982 
L 360.105729 203.387961 
L 361.308153 196.658751 
L 362.510578 188.424055 
L 363.713002 206.663801 
L 364.915426 206.069522 
L 366.11785 209.659357 
L 367.320275 208.600655 
L 368.522699 225.206181 
L 369.725123 233.601789 
L 370.927547 241.084532 
L 372.129972 239.115899 
L 373.332396 236.539116 
L 374.53482 241.724612 
L 375.737244 240.189745 
L 376.939669 236.74839 
L 378.142093 228.620524 
L 379.344517 227.958032 
L 380.546941 224.130838 
L 381.749366 212.813983 
L 382.95179 233.750892 
L 384.154214 225.457117 
L 385.356638 214.850353 
L 385.356638 214.850353 
" clip-path="url(#pf7e5b6d88f)" style="fill: none; stroke: #2ca02c; stroke-width: 1.5; stroke-linecap: square"/>
   </g>
   <g id="line2d_20">
    <path d="M 29.439063 221.275211 
L 30.641487 236.505406 
L 31.843911 248.478994 
L 33.046335 250.372301 
L 34.248759 258.240554 
L 35.451184 258.641514 
L 36.653608 253.887849 
L 37.856032 250.742613 
L 39.058456 242.558839 
L 40.260881 227.832517 
L 41.463305 226.152528 
L 42.665729 232.537407 
L 43.868153 227.154092 
L 45.070578 239.663468 
L 46.273002 247.949949 
L 47.475426 246.12502 
L 48.67785 254.219959 
L 49.880275 251.824807 
L 51.082699 220.968504 
L 52.285123 205.919399 
L 53.487547 186.135769 
L 54.689972 136.533121 
L 55.892396 133.903952 
L 57.09482 128.780364 
L 58.297244 108.165345 
L 59.499669 154.661857 
L 60.702093 166.381937 
L 61.904517 156.222628 
L 64.309366 174.127491 
L 65.51179 164.056515 
L 66.714214 151.002816 
L 67.916638 139.788926 
L 69.119063 90.161987 
L 70.321487 73.226844 
L 71.523911 79.930908 
L 72.726335 63.162834 
L 73.928759 67.394559 
L 75.131184 87.608872 
L 76.333608 95.307164 
L 77.536032 130.829051 
L 78.738456 130.923693 
L 81.143305 149.07322 
L 82.345729 145.514995 
L 83.548153 165.230701 
L 84.750578 172.15619 
L 85.953002 183.990017 
L 87.155426 198.107108 
L 88.35785 192.195781 
L 89.560275 190.267628 
L 90.762699 190.194295 
L 91.965123 178.776002 
L 93.167547 185.572177 
L 94.369972 190.372599 
L 95.572396 184.54832 
L 96.77482 186.766963 
L 97.977244 189.473261 
L 99.179669 190.069324 
L 100.382093 192.410021 
L 103.989366 195.044354 
L 105.19179 196.351076 
L 106.394214 194.867136 
L 107.596638 189.335364 
L 108.799062 189.603599 
L 110.001487 190.360547 
L 111.203911 189.394825 
L 112.406335 190.342872 
L 113.608759 188.74688 
L 114.811184 192.084855 
L 116.013608 203.69443 
L 117.216032 208.628052 
L 118.418456 214.390906 
L 119.620881 214.306201 
L 120.823305 212.043229 
L 122.025729 210.791529 
L 123.228153 205.110817 
L 124.430578 194.096195 
L 125.633002 181.995215 
L 126.835426 177.300368 
L 128.03785 180.166067 
L 129.240275 188.02426 
L 130.442699 198.022962 
L 132.847547 213.03684 
L 134.049972 228.256977 
L 135.252396 235.194567 
L 136.45482 240.763189 
L 137.657244 244.49752 
L 138.859669 245.259188 
L 141.264517 250.498685 
L 142.466941 249.519384 
L 143.669366 249.59516 
L 144.87179 247.032432 
L 146.074214 241.548346 
L 147.276638 240.987516 
L 149.681487 234.646856 
L 150.883911 235.892398 
L 153.288759 226.256947 
L 154.491184 231.579139 
L 155.693608 236.122417 
L 156.896032 238.507266 
L 158.098456 242.782759 
L 159.300881 238.331566 
L 160.503305 232.634606 
L 161.705729 231.587191 
L 162.908153 239.646891 
L 164.110578 229.193149 
L 165.313002 229.040635 
L 166.515426 225.896331 
L 167.71785 217.632953 
L 168.920275 221.78581 
L 170.122699 212.266073 
L 171.325123 208.065956 
L 172.527547 206.313066 
L 173.729972 213.521109 
L 174.932396 226.061058 
L 176.13482 227.980673 
L 177.337244 222.980288 
L 178.539669 233.074257 
L 179.742093 221.710038 
L 180.944517 228.075685 
L 182.146941 230.662107 
L 183.349366 216.432907 
L 184.55179 221.898783 
L 185.754214 223.537176 
L 186.956638 218.034898 
L 188.159062 235.927619 
L 189.361487 230.806248 
L 190.563911 215.976432 
L 191.766335 216.679967 
L 192.968759 192.041922 
L 194.171184 192.910047 
L 195.373608 202.612348 
L 196.576032 185.877122 
L 197.778456 190.175906 
L 198.980881 204.536808 
L 200.183305 198.448671 
L 201.385729 209.676726 
L 202.588153 211.634562 
L 203.790578 199.686873 
L 204.993002 201.281933 
L 206.195426 206.126362 
L 207.39785 196.71423 
L 208.600275 197.268091 
L 209.802699 196.960725 
L 211.005123 183.923798 
L 212.207547 185.627441 
L 213.409972 185.325715 
L 214.612396 176.313222 
L 215.81482 174.670499 
L 217.017244 188.327129 
L 218.219669 180.177036 
L 220.624517 200.262414 
L 221.826941 183.839538 
L 223.029366 194.796847 
L 224.23179 198.049398 
L 225.434214 188.189868 
L 226.636638 200.271432 
L 227.839062 201.939318 
L 229.041487 207.269481 
L 230.243911 213.289999 
L 231.446335 204.949238 
L 232.648759 203.848238 
L 233.851184 195.139464 
L 235.053608 194.305696 
L 236.256032 193.674278 
L 237.458456 188.888776 
L 238.660881 191.5016 
L 239.863305 187.892686 
L 241.065729 198.041309 
L 242.268153 193.005785 
L 243.470578 187.405469 
L 244.673002 192.869183 
L 245.875426 188.066754 
L 247.07785 194.64471 
L 248.280275 194.587132 
L 249.482699 183.841066 
L 250.685123 186.599767 
L 251.887547 192.921842 
L 253.089972 198.395901 
L 254.292396 211.065593 
L 256.697244 196.858291 
L 257.899669 195.13317 
L 259.102093 187.209652 
L 260.304517 185.572071 
L 261.506941 178.699715 
L 262.709366 175.832866 
L 263.91179 178.493445 
L 265.114214 178.184745 
L 266.316638 181.575194 
L 267.519062 185.331186 
L 268.721487 186.329848 
L 269.923911 196.546057 
L 271.126335 202.936162 
L 272.328759 204.510717 
L 273.531184 205.626636 
L 274.733608 203.868227 
L 275.936032 199.222196 
L 277.138456 195.776348 
L 278.340881 199.414406 
L 279.543305 201.670223 
L 280.745729 203.378204 
L 281.948153 210.206468 
L 283.150578 208.524885 
L 284.353002 210.766072 
L 285.555426 225.546373 
L 287.960275 229.083162 
L 289.162699 236.464788 
L 290.365123 237.497733 
L 291.567547 234.806213 
L 292.769972 221.777563 
L 293.972396 187.059161 
L 295.17482 156.996009 
L 296.377244 152.052377 
L 297.579669 173.746238 
L 298.782093 188.21243 
L 299.984517 199.845473 
L 301.186941 216.297816 
L 303.59179 244.014071 
L 304.794214 246.895303 
L 305.996638 234.888058 
L 307.199062 233.419403 
L 308.401487 239.247932 
L 309.603911 243.609469 
L 310.806335 252.205565 
L 312.008759 251.204953 
L 313.211184 244.342162 
L 314.413608 243.23247 
L 315.616032 243.18381 
L 316.818456 240.595936 
L 318.020881 244.706237 
L 319.223305 244.25254 
L 320.425729 241.813187 
L 321.628153 240.314936 
L 322.830578 246.039879 
L 324.033002 248.270489 
L 325.235426 250.000714 
L 326.43785 249.838473 
L 327.640275 243.336882 
L 328.842699 240.659262 
L 330.045123 232.232699 
L 331.247547 228.85032 
L 332.449972 221.92811 
L 333.652396 216.625799 
L 334.85482 224.341012 
L 336.057244 224.305296 
L 337.259669 232.157378 
L 338.462093 231.895875 
L 339.664517 230.002881 
L 340.866941 239.449318 
L 342.069366 231.67145 
L 343.27179 230.453386 
L 344.474214 232.608966 
L 345.676638 217.294661 
L 346.879063 218.652145 
L 348.081487 224.730893 
L 349.283911 226.036156 
L 350.486335 239.412963 
L 351.688759 246.900947 
L 352.891184 248.666268 
L 354.093608 247.606781 
L 355.296032 241.709108 
L 356.498456 238.715508 
L 357.700881 229.449148 
L 358.903305 228.566113 
L 360.105729 215.237231 
L 361.308153 199.101393 
L 362.510578 201.497978 
L 363.713002 196.262164 
L 364.915426 201.188106 
L 366.11785 211.008323 
L 367.320275 210.81501 
L 368.522699 216.028823 
L 369.725123 231.439145 
L 370.927547 235.037249 
L 372.129972 238.256773 
L 373.332396 239.534264 
L 374.53482 241.103387 
L 375.737244 237.564451 
L 376.939669 237.772997 
L 378.142093 235.524322 
L 379.344517 226.940241 
L 380.546941 225.659602 
L 381.749366 217.875523 
L 382.95179 230.879977 
L 384.154214 223.746317 
L 385.356638 210.571632 
L 385.356638 210.571632 
" clip-path="url(#pf7e5b6d88f)" style="fill: none; stroke: #d62728; stroke-width: 1.5; stroke-linecap: square"/>
   </g>
   <g id="line2d_21">
    <path d="M 29.439063 222.506149 
L 30.641487 229.225195 
L 31.843911 244.328125 
L 33.046335 247.402355 
L 35.451184 258.019032 
L 36.653608 257.295259 
L 37.856032 249.2435 
L 39.058456 246.974437 
L 40.260881 234.54074 
L 41.463305 231.861658 
L 42.665729 231.553594 
L 43.868153 227.717781 
L 45.070578 232.012654 
L 46.273002 247.643113 
L 48.67785 246.413994 
L 49.880275 251.305355 
L 51.082699 234.325278 
L 52.285123 214.484016 
L 53.487547 201.387908 
L 54.689972 163.586194 
L 55.892396 129.858474 
L 57.09482 141.397281 
L 58.297244 125.3209 
L 59.499669 134.972888 
L 60.702093 154.989431 
L 61.904517 158.76708 
L 63.106941 155.361922 
L 64.309366 182.873277 
L 65.51179 162.532711 
L 66.714214 145.998895 
L 67.916638 142.271252 
L 69.119063 131.739654 
L 70.321487 80.2958 
L 71.523911 74.469261 
L 72.726335 71.612377 
L 73.928759 73.369884 
L 75.131184 78.170446 
L 76.333608 92.205622 
L 77.536032 114.651386 
L 78.738456 126.98029 
L 79.940881 135.707335 
L 81.143305 141.820322 
L 82.345729 152.338799 
L 83.548153 155.572908 
L 84.750578 168.629853 
L 85.953002 177.501124 
L 87.155426 192.046346 
L 88.35785 191.863517 
L 89.560275 188.562489 
L 90.762699 191.603524 
L 91.965123 188.124556 
L 93.167547 181.447777 
L 94.369972 187.0666 
L 95.572396 187.0915 
L 96.77482 185.34807 
L 97.977244 189.913695 
L 99.179669 190.637736 
L 100.382093 188.763136 
L 102.786941 195.654061 
L 103.989366 195.075047 
L 105.19179 193.860278 
L 106.394214 194.307816 
L 107.596638 192.563919 
L 108.799062 191.542008 
L 111.203911 188.685177 
L 112.406335 188.893792 
L 113.608759 191.078975 
L 114.811184 192.074346 
L 116.013608 199.593102 
L 117.216032 204.565698 
L 118.418456 210.577143 
L 119.620881 212.428944 
L 120.823305 214.907852 
L 122.025729 210.23647 
L 123.228153 207.817891 
L 124.430578 196.188428 
L 125.633002 189.862088 
L 126.835426 182.770205 
L 128.03785 183.291563 
L 129.240275 181.712392 
L 130.442699 193.113415 
L 132.847547 211.463604 
L 135.252396 230.909798 
L 137.657244 242.063784 
L 138.859669 245.919887 
L 140.062093 246.583547 
L 141.264517 248.741635 
L 142.466941 249.036102 
L 143.669366 249.952996 
L 144.87179 247.98217 
L 146.074214 243.701758 
L 147.276638 241.373489 
L 148.479062 240.72956 
L 149.681487 235.993508 
L 152.086335 232.924776 
L 153.288759 229.099784 
L 154.491184 230.988135 
L 155.693608 235.724345 
L 156.896032 235.091221 
L 158.098456 238.923995 
L 159.300881 240.309621 
L 160.503305 236.532871 
L 161.705729 231.439783 
L 162.908153 239.832571 
L 164.110578 229.288225 
L 165.313002 229.025515 
L 166.515426 226.018762 
L 167.71785 229.776904 
L 168.920275 213.604985 
L 170.122699 215.680869 
L 171.325123 209.062995 
L 172.527547 214.984372 
L 173.729972 210.206824 
L 174.932396 219.314815 
L 176.13482 222.17396 
L 177.337244 226.369517 
L 178.539669 231.430807 
L 179.742093 225.577264 
L 180.944517 223.851206 
L 182.146941 228.555607 
L 183.349366 226.648719 
L 184.55179 216.031922 
L 185.754214 225.28565 
L 186.956638 220.640156 
L 188.159062 231.061495 
L 189.361487 227.73105 
L 190.563911 220.726004 
L 191.766335 215.037011 
L 192.968759 213.157231 
L 194.171184 191.720756 
L 195.373608 196.460668 
L 196.576032 191.350375 
L 197.778456 191.757527 
L 198.980881 201.836996 
L 200.183305 200.792232 
L 201.385729 197.550137 
L 202.588153 211.894043 
L 203.790578 208.846332 
L 204.993002 198.115669 
L 206.195426 203.773183 
L 207.39785 201.828184 
L 208.600275 197.214919 
L 209.802699 195.912493 
L 212.207547 185.115566 
L 213.409972 188.215948 
L 214.612396 179.230873 
L 215.81482 171.901027 
L 217.017244 188.619752 
L 218.219669 183.951829 
L 219.422093 183.070739 
L 220.624517 191.957715 
L 221.826941 195.323676 
L 223.029366 189.316525 
L 224.23179 197.266248 
L 225.434214 190.602066 
L 226.636638 195.331172 
L 227.839062 203.427593 
L 229.041487 207.153921 
L 230.243911 203.660003 
L 231.446335 208.209749 
L 232.648759 206.225655 
L 233.851184 201.968952 
L 235.053608 193.086981 
L 236.256032 192.080368 
L 237.458456 193.671134 
L 238.660881 192.037551 
L 239.863305 187.230909 
L 241.065729 195.127704 
L 242.268153 193.136595 
L 243.470578 190.879234 
L 244.673002 188.360647 
L 245.875426 195.259724 
L 247.07785 190.323195 
L 248.280275 192.16594 
L 249.482699 185.535827 
L 250.685123 190.356327 
L 251.887547 194.157665 
L 253.089972 195.231943 
L 254.292396 199.805793 
L 255.49482 205.75506 
L 256.697244 201.980701 
L 257.899669 196.973377 
L 260.304517 184.857416 
L 261.506941 182.068236 
L 262.709366 180.423619 
L 263.91179 177.468219 
L 265.114214 177.562124 
L 266.316638 178.80059 
L 267.519062 185.690961 
L 268.721487 185.834271 
L 271.126335 198.87215 
L 272.328759 203.82049 
L 273.531184 202.259429 
L 274.733608 205.894119 
L 275.936032 200.979192 
L 277.138456 198.165651 
L 278.340881 198.124359 
L 279.543305 202.74615 
L 280.745729 200.578123 
L 281.948153 207.104849 
L 283.150578 208.241904 
L 284.353002 211.671763 
L 285.555426 220.244674 
L 286.75785 226.078778 
L 287.960275 223.863886 
L 289.162699 233.998962 
L 290.365123 240.383726 
L 291.567547 233.517676 
L 292.769972 219.293385 
L 293.972396 203.251104 
L 295.17482 183.622751 
L 296.377244 167.197618 
L 297.579669 165.252998 
L 298.782093 172.562654 
L 299.984517 194.202864 
L 301.186941 213.618043 
L 302.389366 226.041419 
L 303.59179 232.462632 
L 304.794214 241.448056 
L 305.996638 239.391526 
L 307.199062 238.737845 
L 308.401487 239.787062 
L 309.603911 241.114508 
L 310.806335 244.070253 
L 312.008759 251.48424 
L 314.413608 244.248661 
L 315.616032 243.731784 
L 316.818456 242.244278 
L 318.020881 242.65733 
L 319.223305 244.176889 
L 320.425729 242.605043 
L 321.628153 239.931252 
L 322.830578 246.935916 
L 324.033002 247.059347 
L 325.235426 247.328921 
L 326.43785 246.558014 
L 327.640275 249.176368 
L 328.842699 242.836748 
L 330.045123 234.590488 
L 331.247547 229.319501 
L 332.449972 227.373291 
L 333.652396 221.952487 
L 334.85482 220.862935 
L 336.057244 222.835301 
L 337.259669 230.068009 
L 338.462093 230.003639 
L 339.664517 231.284555 
L 340.866941 235.291923 
L 342.069366 235.670859 
L 343.27179 228.611926 
L 344.474214 231.859133 
L 345.676638 225.800643 
L 346.879063 218.691941 
L 348.081487 222.921585 
L 349.283911 228.392567 
L 350.486335 231.680575 
L 351.688759 242.787511 
L 352.891184 246.709389 
L 354.093608 246.472815 
L 355.296032 243.713377 
L 356.498456 242.251513 
L 357.700881 232.996184 
L 358.903305 230.328151 
L 360.105729 217.506195 
L 362.510578 202.444106 
L 363.713002 204.81148 
L 364.915426 193.751729 
L 366.11785 206.275183 
L 367.320275 211.656683 
L 368.522699 216.266542 
L 369.725123 223.305393 
L 370.927547 233.047093 
L 372.129972 233.898707 
L 373.332396 238.766741 
L 374.53482 242.515821 
L 375.737244 237.896497 
L 376.939669 236.121135 
L 378.142093 236.59999 
L 379.344517 232.917594 
L 380.546941 225.295033 
L 381.749366 220.440519 
L 382.95179 231.054901 
L 384.154214 223.345173 
L 385.356638 212.189456 
L 385.356638 212.189456 
" clip-path="url(#pf7e5b6d88f)" style="fill: none; stroke: #9467bd; stroke-width: 1.5; stroke-linecap: square"/>
   </g>
   <g id="line2d_22">
    <path d="M 29.439063 221.989476 
L 30.641487 228.904971 
L 31.843911 237.483987 
L 34.248759 250.133055 
L 36.653608 256.994611 
L 37.856032 253.038847 
L 40.260881 239.915086 
L 41.463305 236.632969 
L 42.665729 235.239876 
L 43.868153 227.68395 
L 45.070578 231.670455 
L 46.273002 240.522 
L 47.475426 246.901912 
L 48.67785 247.094508 
L 49.880275 245.135114 
L 51.082699 236.98727 
L 52.285123 227.417148 
L 53.487547 209.558869 
L 55.892396 154.479575 
L 57.09482 136.912814 
L 58.297244 136.626651 
L 59.499669 143.651398 
L 60.702093 138.702995 
L 61.904517 150.24993 
L 63.106941 157.637623 
L 64.309366 172.805614 
L 65.51179 172.308881 
L 66.714214 147.756838 
L 67.916638 139.424444 
L 69.119063 135.249771 
L 70.321487 118.380389 
L 71.523911 80.14313 
L 72.726335 68.347758 
L 73.928759 78.528388 
L 76.333608 83.731536 
L 77.536032 109.142714 
L 78.738456 114.016671 
L 79.940881 131.704446 
L 81.143305 137.894546 
L 82.345729 145.867244 
L 83.548153 159.375849 
L 84.750578 160.199988 
L 85.953002 173.774933 
L 87.155426 185.603024 
L 88.35785 187.691034 
L 90.762699 189.973888 
L 91.965123 189.661866 
L 93.167547 188.720384 
L 94.369972 183.420157 
L 95.572396 184.839306 
L 96.77482 187.32764 
L 97.977244 188.234936 
L 99.179669 190.808875 
L 100.382093 189.459306 
L 101.584517 189.315904 
L 102.786941 194.488321 
L 103.989366 196.222111 
L 105.19179 194.084129 
L 106.394214 192.551171 
L 107.596638 192.477858 
L 108.799062 193.836383 
L 110.001487 191.623847 
L 111.203911 188.740474 
L 112.406335 188.38451 
L 113.608759 189.755489 
L 114.811184 193.432394 
L 116.013608 198.363082 
L 117.216032 201.032618 
L 118.418456 206.925265 
L 119.620881 209.543013 
L 120.823305 213.252545 
L 122.025729 212.963095 
L 123.228153 207.846519 
L 125.633002 192.369156 
L 126.835426 189.197994 
L 129.240275 184.042107 
L 130.442699 187.198671 
L 134.049972 218.675332 
L 135.252396 224.780796 
L 136.45482 232.725185 
L 138.859669 243.690539 
L 140.062093 246.907814 
L 141.264517 247.474879 
L 142.466941 247.797075 
L 143.669366 249.480254 
L 144.87179 248.556817 
L 146.074214 245.08607 
L 147.276638 243.204053 
L 149.681487 238.815428 
L 152.086335 232.270423 
L 153.288759 231.130882 
L 154.491184 232.49656 
L 155.693608 234.57189 
L 156.896032 234.929153 
L 158.098456 236.028174 
L 159.300881 237.444895 
L 160.503305 238.514573 
L 161.705729 234.934333 
L 162.908153 238.395766 
L 164.110578 231.266365 
L 165.313002 229.132824 
L 166.515426 226.515892 
L 167.71785 229.239417 
L 168.920275 224.817696 
L 170.122699 209.621523 
L 171.325123 212.522123 
L 173.729972 216.641101 
L 174.932396 215.732855 
L 176.13482 217.061613 
L 177.337244 221.758769 
L 178.539669 232.710465 
L 179.742093 225.409058 
L 180.944517 226.675144 
L 182.146941 224.981941 
L 183.349366 225.516094 
L 184.55179 224.706134 
L 185.754214 219.993368 
L 186.956638 222.621729 
L 188.159062 230.960194 
L 189.361487 224.808205 
L 190.563911 219.699069 
L 191.766335 219.194515 
L 192.968759 212.348296 
L 194.171184 209.65087 
L 195.373608 194.907088 
L 196.576032 187.807324 
L 197.778456 195.211158 
L 198.980881 201.189777 
L 200.183305 199.121299 
L 201.385729 199.667689 
L 202.588153 201.664094 
L 203.790578 209.536309 
L 204.993002 206.137929 
L 206.195426 200.771985 
L 207.39785 200.539284 
L 208.600275 201.393693 
L 211.005123 190.557175 
L 212.207547 190.24811 
L 213.409972 187.367939 
L 214.612396 182.763564 
L 215.81482 175.139954 
L 217.017244 184.260041 
L 219.422093 185.693006 
L 220.624517 186.011723 
L 221.826941 189.053189 
L 223.029366 197.746163 
L 224.23179 192.377572 
L 225.434214 191.188962 
L 226.636638 196.093335 
L 227.839062 198.888857 
L 229.041487 207.49831 
L 231.446335 200.805821 
L 232.648759 208.713277 
L 233.851184 204.293783 
L 235.053608 199.221764 
L 236.256032 191.424833 
L 237.458456 192.344692 
L 238.660881 195.438584 
L 239.863305 188.410429 
L 241.065729 193.421343 
L 242.268153 191.466693 
L 243.470578 191.34645 
L 244.673002 191.086209 
L 245.875426 191.173373 
L 247.07785 195.888562 
L 248.280275 188.934661 
L 249.482699 184.957424 
L 251.887547 195.922878 
L 253.089972 195.865522 
L 254.292396 196.964714 
L 255.49482 196.992366 
L 256.697244 203.993471 
L 257.899669 201.233957 
L 259.102093 193.29733 
L 260.304517 188.48751 
L 261.506941 182.050611 
L 262.709366 182.922867 
L 263.91179 180.997684 
L 265.114214 176.85942 
L 266.316638 178.181248 
L 267.519062 182.759312 
L 268.721487 186.049535 
L 269.923911 190.908696 
L 271.126335 194.995539 
L 272.328759 200.316108 
L 273.531184 202.053777 
L 274.733608 203.05515 
L 275.936032 203.188982 
L 277.138456 199.818307 
L 278.340881 199.700281 
L 279.543305 201.146293 
L 280.745729 201.664569 
L 281.948153 204.221356 
L 283.150578 205.956449 
L 284.353002 210.922625 
L 285.555426 219.423925 
L 286.75785 221.610325 
L 287.960275 223.37897 
L 289.162699 229.049003 
L 290.365123 237.766712 
L 291.567547 236.693885 
L 293.972396 204.185953 
L 295.17482 198.109798 
L 297.579669 175.034151 
L 298.782093 165.669523 
L 299.984517 180.766015 
L 301.186941 207.173387 
L 302.389366 222.415569 
L 303.59179 228.878611 
L 304.794214 232.116043 
L 305.996638 235.824645 
L 307.199062 241.744141 
L 308.401487 242.955834 
L 309.603911 241.247706 
L 310.806335 241.929208 
L 312.008759 244.83055 
L 313.211184 248.808845 
L 314.413608 247.351661 
L 315.616032 244.492239 
L 316.818456 242.862764 
L 318.020881 243.66558 
L 319.223305 242.552297 
L 320.425729 242.817807 
L 321.628153 240.92033 
L 322.830578 245.569599 
L 324.033002 247.629856 
L 325.235426 246.468575 
L 326.43785 244.839602 
L 327.640275 246.543437 
L 328.842699 247.840138 
L 330.045123 237.555391 
L 331.247547 231.830536 
L 332.449972 228.017048 
L 333.652396 226.505229 
L 334.85482 224.482092 
L 336.057244 220.162131 
L 337.259669 227.964603 
L 338.462093 228.595117 
L 339.664517 229.804007 
L 340.866941 235.451266 
L 342.069366 232.73684 
L 343.27179 232.56268 
L 344.474214 230.112794 
L 345.676638 226.306774 
L 346.879063 225.520005 
L 348.081487 222.253967 
L 349.283911 226.331124 
L 350.486335 232.637563 
L 351.688759 236.043033 
L 352.891184 243.321083 
L 354.093608 245.177288 
L 355.296032 243.392969 
L 356.498456 243.825994 
L 357.700881 237.09032 
L 358.903305 233.124849 
L 360.105729 221.039659 
L 361.308153 212.702705 
L 362.510578 210.684665 
L 363.713002 205.036894 
L 364.915426 201.452401 
L 366.11785 199.483568 
L 368.522699 216.050304 
L 369.725123 222.313926 
L 370.927547 226.144196 
L 372.129972 232.416854 
L 373.332396 235.082206 
L 374.53482 241.405172 
L 375.737244 239.654475 
L 376.939669 236.643814 
L 379.344517 234.275732 
L 380.546941 230.64629 
L 381.749366 221.01198 
L 382.95179 230.898177 
L 384.154214 224.796132 
L 385.356638 213.836756 
L 385.356638 213.836756 
" clip-path="url(#pf7e5b6d88f)" style="fill: none; stroke: #8c564b; stroke-width: 1.5; stroke-linecap: square"/>
   </g>
   <g id="line2d_23">
    <path d="M 29.439063 224.216778 
L 30.641487 227.596136 
L 31.843911 236.094002 
L 33.046335 238.285498 
L 34.248759 247.009287 
L 35.451184 251.173405 
L 36.653608 253.38057 
L 37.856032 253.391419 
L 39.058456 250.111493 
L 40.260881 240.35466 
L 41.463305 240.873149 
L 42.665729 238.743918 
L 43.868153 231.524757 
L 45.070578 231.087585 
L 46.273002 239.084283 
L 47.475426 240.893702 
L 48.67785 246.996197 
L 49.880275 245.910647 
L 51.082699 233.085415 
L 52.285123 230.86679 
L 53.487547 221.875268 
L 54.689972 192.984554 
L 55.892396 172.579527 
L 57.09482 156.56697 
L 58.297244 133.393898 
L 59.499669 150.105108 
L 60.702093 145.513232 
L 61.904517 136.739153 
L 63.106941 150.483069 
L 64.309366 172.207681 
L 65.51179 164.739432 
L 66.714214 159.007124 
L 67.916638 141.932814 
L 69.119063 133.752243 
L 71.523911 113.209754 
L 72.726335 74.203567 
L 73.928759 74.821343 
L 75.131184 84.425418 
L 76.333608 85.512302 
L 77.536032 100.005778 
L 78.738456 109.382331 
L 79.940881 120.19955 
L 81.143305 134.191304 
L 82.345729 141.997781 
L 83.548153 153.047456 
L 84.750578 162.735832 
L 85.953002 166.052801 
L 87.155426 181.433711 
L 88.35785 182.665304 
L 89.560275 185.684395 
L 90.762699 190.052933 
L 91.965123 188.528151 
L 93.167547 189.949308 
L 94.369972 189.323584 
L 95.572396 181.997329 
L 96.77482 185.368481 
L 97.977244 189.494891 
L 99.179669 189.251731 
L 100.382093 189.776067 
L 101.584517 189.831957 
L 102.786941 191.63289 
L 103.989366 195.146246 
L 105.19179 195.216294 
L 106.394214 192.932486 
L 107.596638 191.218756 
L 108.799062 193.58218 
L 110.001487 193.580143 
L 111.203911 190.258975 
L 112.406335 188.474989 
L 113.608759 189.198645 
L 114.811184 191.981943 
L 116.013608 198.601115 
L 117.216032 199.784621 
L 118.418456 203.618883 
L 119.620881 206.544268 
L 120.823305 210.681256 
L 122.025729 211.804545 
L 123.228153 210.573035 
L 124.430578 201.272819 
L 126.835426 191.453746 
L 128.03785 191.567199 
L 129.240275 186.873421 
L 130.442699 188.362043 
L 131.645123 191.892493 
L 134.049972 214.499122 
L 135.252396 222.158824 
L 136.45482 227.322903 
L 137.657244 234.922937 
L 138.859669 240.308315 
L 140.062093 244.880253 
L 141.264517 247.623529 
L 142.466941 246.836933 
L 143.669366 248.36133 
L 144.87179 248.346486 
L 146.074214 246.014508 
L 147.276638 244.469403 
L 148.479062 242.710852 
L 149.681487 239.410904 
L 150.883911 238.158751 
L 152.086335 233.598803 
L 153.288759 230.819473 
L 154.491184 233.710105 
L 155.693608 235.321048 
L 156.896032 234.048867 
L 158.098456 235.757231 
L 159.300881 235.145673 
L 160.503305 236.280027 
L 161.705729 236.891486 
L 162.908153 240.248563 
L 164.110578 231.206691 
L 165.313002 230.855381 
L 166.515426 226.97232 
L 167.71785 229.200263 
L 168.920275 225.060755 
L 170.122699 220.171876 
L 171.325123 207.679122 
L 172.527547 216.719103 
L 173.729972 216.123738 
L 174.932396 220.271379 
L 176.13482 214.26839 
L 177.337244 217.436337 
L 178.539669 228.104504 
L 179.742093 227.449084 
L 180.944517 226.376218 
L 182.146941 227.223636 
L 183.349366 222.819885 
L 184.55179 223.999794 
L 185.754214 226.684388 
L 186.956638 218.385403 
L 188.159062 231.107781 
L 189.361487 225.63427 
L 190.563911 218.212387 
L 191.766335 218.52415 
L 192.968759 216.383034 
L 194.171184 209.44702 
L 195.373608 209.664523 
L 196.576032 187.671964 
L 197.778456 191.709338 
L 198.980881 202.671045 
L 200.183305 198.947973 
L 201.385729 198.387136 
L 202.588153 202.852002 
L 203.790578 201.008475 
L 204.993002 207.131896 
L 206.195426 207.18111 
L 207.39785 198.380668 
L 208.600275 200.348606 
L 209.802699 199.87207 
L 211.005123 191.497092 
L 212.207547 190.446999 
L 213.409972 191.399083 
L 214.612396 182.804438 
L 215.81482 178.836405 
L 217.017244 185.145917 
L 218.219669 181.658839 
L 219.422093 186.284838 
L 220.624517 187.806378 
L 221.826941 184.297498 
L 223.029366 192.130815 
L 224.23179 199.063592 
L 225.434214 187.727666 
L 226.636638 195.808404 
L 227.839062 199.024939 
L 229.041487 203.154815 
L 230.243911 204.902638 
L 231.446335 201.663825 
L 232.648759 202.345891 
L 233.851184 206.736348 
L 237.458456 191.746216 
L 238.660881 194.064329 
L 239.863305 191.922213 
L 241.065729 193.527147 
L 242.268153 190.499864 
L 243.470578 190.157175 
L 244.673002 191.456708 
L 245.875426 193.073793 
L 247.07785 192.318328 
L 248.280275 193.959995 
L 249.482699 183.119016 
L 251.887547 195.385749 
L 253.089972 197.120655 
L 254.292396 197.255697 
L 255.49482 194.920628 
L 256.697244 196.680503 
L 257.899669 203.076989 
L 259.102093 197.57802 
L 260.304517 190.830877 
L 261.506941 185.624953 
L 262.709366 182.786056 
L 263.91179 183.053444 
L 265.114214 179.987536 
L 266.316638 177.492985 
L 267.519062 181.681811 
L 268.721487 183.494688 
L 269.923911 190.37394 
L 272.328759 196.827227 
L 273.531184 199.273135 
L 274.733608 202.7665 
L 275.936032 201.103242 
L 277.138456 201.896283 
L 278.340881 200.885534 
L 279.543305 202.043694 
L 280.745729 200.439377 
L 281.948153 204.616121 
L 283.150578 203.633554 
L 284.353002 208.62509 
L 285.555426 217.74467 
L 286.75785 220.720925 
L 287.960275 219.863341 
L 289.162699 227.927071 
L 290.365123 233.158476 
L 291.567547 234.910488 
L 292.769972 225.785975 
L 293.972396 207.941713 
L 295.17482 199.687402 
L 296.377244 198.707123 
L 297.579669 190.269042 
L 298.782093 174.012436 
L 299.984517 174.001014 
L 302.389366 216.068495 
L 303.59179 225.453198 
L 304.794214 229.092188 
L 305.996638 228.265121 
L 307.199062 238.433858 
L 308.401487 244.842663 
L 309.603911 243.724589 
L 310.806335 241.926549 
L 312.008759 242.904976 
L 313.211184 243.356351 
L 314.413608 248.122206 
L 315.616032 247.117699 
L 316.818456 243.645552 
L 318.020881 243.986768 
L 319.223305 243.433191 
L 320.425729 241.603178 
L 321.628153 241.348576 
L 322.830578 245.588154 
L 325.235426 247.045601 
L 326.43785 244.443331 
L 328.842699 245.747859 
L 330.045123 242.868152 
L 331.247547 234.842259 
L 332.449972 230.38515 
L 333.652396 227.185875 
L 334.85482 227.958074 
L 336.057244 223.389952 
L 337.259669 225.05755 
L 338.462093 226.98329 
L 339.664517 228.624362 
L 340.866941 233.647225 
L 342.069366 233.246031 
L 343.27179 230.430796 
L 344.474214 233.251507 
L 345.676638 225.549898 
L 346.879063 225.995159 
L 348.081487 227.465659 
L 349.283911 225.295127 
L 350.486335 230.343622 
L 351.688759 236.22079 
L 352.891184 237.527549 
L 354.093608 242.454916 
L 355.296032 242.69455 
L 356.498456 243.535674 
L 357.700881 239.268226 
L 358.903305 236.622724 
L 360.105729 225.01847 
L 361.308153 216.551369 
L 362.510578 213.028343 
L 363.713002 211.640465 
L 364.915426 202.135661 
L 366.11785 205.063105 
L 367.320275 201.700388 
L 368.522699 212.108094 
L 369.725123 221.294101 
L 370.927547 224.91422 
L 372.129972 226.586756 
L 373.332396 233.659203 
L 374.53482 237.965307 
L 375.737244 239.090415 
L 376.939669 238.351026 
L 379.344517 233.567325 
L 380.546941 232.163538 
L 381.749366 226.405136 
L 382.95179 229.918076 
L 384.154214 225.572872 
L 385.356638 216.58916 
L 385.356638 216.58916 
" clip-path="url(#pf7e5b6d88f)" style="fill: none; stroke: #e377c2; stroke-width: 1.5; stroke-linecap: square"/>
   </g>
   <g id="patch_3">
    <path d="M 29.439063 284.991437 
L 29.439063 18.879437 
" style="fill: none; stroke: #000000; stroke-width: 0.8; stroke-linejoin: miter; stroke-linecap: square"/>
   </g>
   <g id="patch_4">
    <path d="M 386.559062 284.991437 
L 386.559062 18.879437 
" style="fill: none; stroke: #000000; stroke-width: 0.8; stroke-linejoin: miter; stroke-linecap: square"/>
   </g>
   <g id="patch_5">
    <path d="M 29.439063 284.991437 
L 386.559063 284.991437 
" style="fill: none; stroke: #000000; stroke-width: 0.8; stroke-linejoin: miter; stroke-linecap: square"/>
   </g>
   <g id="patch_6">
    <path d="M 29.439063 18.879437 
L 386.559063 18.879437 
" style="fill: none; stroke: #000000; stroke-width: 0.8; stroke-linejoin: miter; stroke-linecap: square"/>
   </g>
   <g id="legend_1">
    <g id="patch_7">
     <path d="M 341.260625 127.613812 
L 379.559062 127.613812 
Q 381.559062 127.613812 381.559062 125.613812 
L 381.559062 25.879437 
Q 381.559062 23.879437 379.559062 23.879437 
L 341.260625 23.879437 
Q 339.260625 23.879437 339.260625 25.879437 
L 339.260625 125.613812 
Q 339.260625 127.613812 341.260625 127.613812 
z
" style="fill: #ffffff; opacity: 0.8; stroke: #cccccc; stroke-linejoin: miter"/>
    </g>
    <g id="line2d_24">
     <path d="M 343.260625 31.870062 
L 353.260625 31.870062 
L 363.260625 31.870062 
" style="fill: none; stroke: #1f77b4; stroke-width: 1.5; stroke-linecap: square"/>
    </g>
    <g id="text_16">
     <!-- 1 -->
     <g transform="translate(371.260625 35.370062) scale(0.1 -0.1)">
      <use xlink:href="#IPAexGothic-31"/>
     </g>
    </g>
    <g id="line2d_25">
     <path d="M 343.260625 46.260687 
L 353.260625 46.260687 
L 363.260625 46.260687 
" style="fill: none; stroke: #ff7f0e; stroke-width: 1.5; stroke-linecap: square"/>
    </g>
    <g id="text_17">
     <!-- 2 -->
     <g transform="translate(371.260625 49.760687) scale(0.1 -0.1)">
      <use xlink:href="#IPAexGothic-32"/>
     </g>
    </g>
    <g id="line2d_26">
     <path d="M 343.260625 60.651312 
L 353.260625 60.651312 
L 363.260625 60.651312 
" style="fill: none; stroke: #2ca02c; stroke-width: 1.5; stroke-linecap: square"/>
    </g>
    <g id="text_18">
     <!-- 3 -->
     <g transform="translate(371.260625 64.151312) scale(0.1 -0.1)">
      <use xlink:href="#IPAexGothic-33"/>
     </g>
    </g>
    <g id="line2d_27">
     <path d="M 343.260625 75.041937 
L 353.260625 75.041937 
L 363.260625 75.041937 
" style="fill: none; stroke: #d62728; stroke-width: 1.5; stroke-linecap: square"/>
    </g>
    <g id="text_19">
     <!-- 4 -->
     <g transform="translate(371.260625 78.541937) scale(0.1 -0.1)">
      <defs>
       <path id="IPAexGothic-34" d="M 3813 1159 
L 3059 1159 
L 3059 63 
L 2547 63 
L 2547 1159 
L 197 1159 
L 197 1672 
L 2456 4678 
L 3059 4678 
L 3059 1634 
L 3813 1634 
L 3813 1159 
z
M 2578 4109 
L 2559 4109 
Q 2278 3656 2003 3284 
L 759 1634 
L 2547 1634 
L 2547 3144 
Q 2547 3481 2578 4109 
z
" transform="scale(0.015625)"/>
      </defs>
      <use xlink:href="#IPAexGothic-34"/>
     </g>
    </g>
    <g id="line2d_28">
     <path d="M 343.260625 89.432562 
L 353.260625 89.432562 
L 363.260625 89.432562 
" style="fill: none; stroke: #9467bd; stroke-width: 1.5; stroke-linecap: square"/>
    </g>
    <g id="text_20">
     <!-- 5 -->
     <g transform="translate(371.260625 92.932562) scale(0.1 -0.1)">
      <use xlink:href="#IPAexGothic-35"/>
     </g>
    </g>
    <g id="line2d_29">
     <path d="M 343.260625 103.823187 
L 353.260625 103.823187 
L 363.260625 103.823187 
" style="fill: none; stroke: #8c564b; stroke-width: 1.5; stroke-linecap: square"/>
    </g>
    <g id="text_21">
     <!-- 6 -->
     <g transform="translate(371.260625 107.323187) scale(0.1 -0.1)">
      <defs>
       <path id="IPAexGothic-36" d="M 1056 2328 
Q 1509 2981 2234 2981 
Q 2906 2981 3316 2513 
Q 3675 2106 3675 1522 
Q 3675 884 3272 434 
Q 2853 -31 2178 -31 
Q 1375 -31 922 581 
Q 481 1178 481 2228 
Q 481 3425 1013 4109 
Q 1494 4725 2272 4725 
Q 3191 4725 3609 4025 
L 3150 3775 
Q 2894 4266 2300 4266 
Q 1119 4266 1031 2328 
L 1056 2328 
z
M 2141 2547 
Q 1684 2547 1384 2206 
Q 1116 1900 1116 1541 
Q 1116 1156 1353 844 
Q 1672 428 2159 428 
Q 2669 428 2941 844 
Q 3125 1128 3125 1503 
Q 3125 1944 2881 2228 
Q 2600 2547 2141 2547 
z
" transform="scale(0.015625)"/>
      </defs>
      <use xlink:href="#IPAexGothic-36"/>
     </g>
    </g>
    <g id="line2d_30">
     <path d="M 343.260625 118.213812 
L 353.260625 118.213812 
L 363.260625 118.213812 
" style="fill: none; stroke: #e377c2; stroke-width: 1.5; stroke-linecap: square"/>
    </g>
    <g id="text_22">
     <!-- 7 -->
     <g transform="translate(371.260625 121.713812) scale(0.1 -0.1)">
      <defs>
       <path id="IPAexGothic-37" d="M 3597 4263 
Q 2238 2106 1778 63 
L 1131 63 
Q 1581 1834 2950 4128 
L 428 4128 
L 428 4634 
L 3597 4634 
L 3597 4263 
z
" transform="scale(0.015625)"/>
      </defs>
      <use xlink:href="#IPAexGothic-37"/>
     </g>
    </g>
   </g>
  </g>
  <g id="axes_2">
   <g id="matplotlib.axis_3"/>
   <g id="patch_8">
    <path d="M 29.439063 284.991437 
L 29.439063 18.879437 
" style="fill: none; stroke: #000000; stroke-width: 0.8; stroke-linejoin: miter; stroke-linecap: square"/>
   </g>
   <g id="patch_9">
    <path d="M 386.559062 284.991437 
L 386.559062 18.879437 
" style="fill: none; stroke: #000000; stroke-width: 0.8; stroke-linejoin: miter; stroke-linecap: square"/>
   </g>
   <g id="patch_10">
    <path d="M 29.439063 284.991437 
L 386.559063 284.991437 
" style="fill: none; stroke: #000000; stroke-width: 0.8; stroke-linejoin: miter; stroke-linecap: square"/>
   </g>
   <g id="patch_11">
    <path d="M 29.439063 18.879437 
L 386.559063 18.879437 
" style="fill: none; stroke: #000000; stroke-width: 0.8; stroke-linejoin: miter; stroke-linecap: square"/>
   </g>
  </g>
  <g id="text_23">
   <!-- : 2023/03/24 16:13:26(JST) -->
   <g transform="translate(211.087188 15.423437) scale(0.1 -0.1)">
    <defs>
     <path id="IPAexGothic-66f4" d="M 2956 3994 
L 2956 4588 
L 513 4588 
L 513 4984 
L 5881 4984 
L 5881 4588 
L 3413 4588 
L 3413 3994 
L 5300 3994 
L 5300 1288 
L 4838 1288 
L 4838 1759 
L 3406 1759 
Q 3384 1125 3150 709 
Q 4291 244 5997 31 
L 5694 -428 
Q 4109 -166 2906 384 
Q 2294 -266 744 -488 
L 494 -66 
Q 1903 59 2491 588 
Q 2041 813 1594 1166 
L 1928 1434 
Q 2331 1106 2747 897 
Q 2922 1219 2950 1759 
L 1556 1759 
L 1556 1413 
L 1097 1413 
L 1097 3994 
L 2956 3994 
z
M 2956 3609 
L 1556 3609 
L 1556 3078 
L 2956 3078 
L 2956 3609 
z
M 3413 3609 
L 3413 3078 
L 4838 3078 
L 4838 3609 
L 3413 3609 
z
M 2956 2700 
L 1556 2700 
L 1556 2144 
L 2956 2144 
L 2956 2700 
z
M 3413 2700 
L 3413 2144 
L 4838 2144 
L 4838 2700 
L 3413 2700 
z
" transform="scale(0.015625)"/>
     <path id="IPAexGothic-65b0" d="M 3891 2803 
Q 3881 1759 3794 1166 
Q 3653 197 3097 -563 
L 2741 -250 
Q 3450 700 3450 2631 
L 3450 4647 
Q 3516 4656 3622 4666 
Q 4656 4778 5447 5063 
L 5825 4678 
Q 4897 4419 3891 4294 
L 3891 3219 
L 6119 3219 
L 6119 2803 
L 5275 2803 
L 5275 -447 
L 4834 -447 
L 4834 2803 
L 3891 2803 
z
M 2822 4069 
Q 2678 3572 2519 3181 
L 3250 3181 
L 3250 2784 
L 2059 2784 
L 2059 2216 
L 3184 2216 
L 3184 1831 
L 2059 1831 
L 2059 1544 
Q 2613 1197 3031 847 
L 2781 456 
Q 2472 791 2059 1128 
L 2059 -447 
L 1644 -447 
L 1644 1294 
Q 1272 628 575 -31 
L 269 341 
Q 1041 938 1528 1831 
L 453 1831 
L 453 2216 
L 1644 2216 
L 1644 2784 
L 319 2784 
L 319 3181 
L 1125 3181 
Q 1013 3706 881 4069 
L 453 4069 
L 453 4453 
L 1631 4453 
L 1631 5309 
L 2072 5309 
L 2072 4453 
L 3166 4453 
L 3166 4069 
L 2822 4069 
z
M 2391 4069 
L 1325 4069 
Q 1450 3672 1534 3181 
L 2109 3181 
Q 2294 3659 2391 4069 
z
" transform="scale(0.015625)"/>
     <path id="IPAexGothic-65e5" d="M 5231 4800 
L 5231 -288 
L 4744 -288 
L 4744 128 
L 1647 128 
L 1647 -288 
L 1159 -288 
L 1159 4800 
L 5231 4800 
z
M 1647 4372 
L 1647 2731 
L 4744 2731 
L 4744 4372 
L 1647 4372 
z
M 1647 2297 
L 1647 556 
L 4744 556 
L 4744 2297 
L 1647 2297 
z
" transform="scale(0.015625)"/>
     <path id="IPAexGothic-6642" d="M 2328 4728 
L 2328 563 
L 934 563 
L 934 56 
L 519 56 
L 519 4728 
L 2328 4728 
z
M 934 4331 
L 934 2881 
L 1906 2881 
L 1906 4331 
L 934 4331 
z
M 934 2497 
L 934 953 
L 1906 953 
L 1906 2497 
L 934 2497 
z
M 3938 4372 
L 3938 5313 
L 4378 5313 
L 4378 4372 
L 5772 4372 
L 5772 3981 
L 4378 3981 
L 4378 3194 
L 6072 3194 
L 6072 2803 
L 5203 2803 
L 5203 2047 
L 5959 2047 
L 5959 1650 
L 5216 1650 
L 5216 31 
Q 5216 -447 4691 -447 
Q 4394 -447 3888 -391 
L 3784 78 
Q 4272 0 4591 0 
Q 4775 0 4775 172 
L 4775 1650 
L 2581 1650 
L 2581 2047 
L 4763 2047 
L 4763 2803 
L 2538 2803 
L 2538 3194 
L 3938 3194 
L 3938 3981 
L 2716 3981 
L 2716 4372 
L 3938 4372 
z
M 3669 384 
Q 3331 950 2956 1325 
L 3291 1575 
Q 3719 1147 4025 659 
L 3669 384 
z
" transform="scale(0.015625)"/>
     <path id="IPAexGothic-3a" d="M 1369 2559 
L 672 2559 
L 672 3250 
L 1369 3250 
L 1369 2559 
z
M 1369 63 
L 672 63 
L 672 753 
L 1369 753 
L 1369 63 
z
" transform="scale(0.015625)"/>
     <path id="IPAexGothic-20" transform="scale(0.015625)"/>
     <path id="IPAexGothic-2f" d="M 2719 4709 
L 600 -884 
L 300 -763 
L 2413 4831 
L 2719 4709 
z
" transform="scale(0.015625)"/>
     <path id="IPAexGothic-28" d="M 1928 -1016 
L 1653 -1166 
Q 488 69 488 1875 
Q 488 3678 1653 4909 
L 1928 4763 
Q 1006 3522 1006 1881 
Q 1006 203 1928 -1016 
z
" transform="scale(0.015625)"/>
     <path id="IPAexGothic-54" d="M 3866 4141 
L 2175 4141 
L 2175 63 
L 1606 63 
L 1606 4141 
L -31 4141 
L -31 4634 
L 3866 4634 
L 3866 4141 
z
" transform="scale(0.015625)"/>
     <path id="IPAexGothic-29" d="M 466 4909 
Q 1638 3672 1638 1875 
Q 1638 75 466 -1166 
L 191 -1016 
Q 1119 216 1119 1881 
Q 1119 3509 191 4763 
L 466 4909 
z
" transform="scale(0.015625)"/>
    </defs>
    <use xlink:href="#IPAexGothic-66f4"/>
    <use xlink:href="#IPAexGothic-65b0" x="100"/>
    <use xlink:href="#IPAexGothic-65e5" x="200"/>
    <use xlink:href="#IPAexGothic-6642" x="300"/>
    <use xlink:href="#IPAexGothic-3a" x="400"/>
    <use xlink:href="#IPAexGothic-20" x="431.982422"/>
    <use xlink:href="#IPAexGothic-32" x="458.984375"/>
    <use xlink:href="#IPAexGothic-30" x="521.972656"/>
    <use xlink:href="#IPAexGothic-32" x="584.960938"/>
    <use xlink:href="#IPAexGothic-33" x="647.949219"/>
    <use xlink:href="#IPAexGothic-2f" x="710.9375"/>
    <use xlink:href="#IPAexGothic-30" x="760.9375"/>
    <use xlink:href="#IPAexGothic-33" x="823.925781"/>
    <use xlink:href="#IPAexGothic-2f" x="886.914062"/>
    <use xlink:href="#IPAexGothic-32" x="936.914062"/>
    <use xlink:href="#IPAexGothic-34" x="999.902344"/>
    <use xlink:href="#IPAexGothic-20" x="1062.890625"/>
    <use xlink:href="#IPAexGothic-31" x="1089.892578"/>
    <use xlink:href="#IPAexGothic-36" x="1152.880859"/>
    <use xlink:href="#IPAexGothic-3a" x="1215.869141"/>
    <use xlink:href="#IPAexGothic-31" x="1247.851562"/>
    <use xlink:href="#IPAexGothic-33" x="1310.839844"/>
    <use xlink:href="#IPAexGothic-3a" x="1373.828125"/>
    <use xlink:href="#IPAexGothic-32" x="1405.810547"/>
    <use xlink:href="#IPAexGothic-36" x="1468.798828"/>
    <use xlink:href="#IPAexGothic-28" x="1531.787109"/>
    <use xlink:href="#IPAexGothic-4a" x="1565.087891"/>
    <use xlink:href="#IPAexGothic-53" x="1603.076172"/>
    <use xlink:href="#IPAexGothic-54" x="1661.572266"/>
    <use xlink:href="#IPAexGothic-29" x="1721.484375"/>
   </g>
  </g>
 </g>
 <defs>
  <clipPath id="pf7e5b6d88f">
   <rect x="29.439063" y="18.879437" width="357.12" height="266.112"/>
  </clipPath>
 </defs>
</svg>
