<?xml version="1.0" encoding="utf-8" standalone="no"?>
<!DOCTYPE svg PUBLIC "-//W3C//DTD SVG 1.1//EN"
  "http://www.w3.org/Graphics/SVG/1.1/DTD/svg11.dtd">
<svg xmlns:xlink="http://www.w3.org/1999/xlink" width="403.5575pt" height="320.972687pt" viewBox="0 0 403.5575 320.972687" xmlns="http://www.w3.org/2000/svg" version="1.1">
 <metadata>
  <rdf:RDF xmlns:dc="http://purl.org/dc/elements/1.1/" xmlns:cc="http://creativecommons.org/ns#" xmlns:rdf="http://www.w3.org/1999/02/22-rdf-syntax-ns#">
   <cc:Work>
    <dc:type rdf:resource="http://purl.org/dc/dcmitype/StillImage"/>
    <dc:date>2022-09-14T06:50:59.272444</dc:date>
    <dc:format>image/svg+xml</dc:format>
    <dc:creator>
     <cc:Agent>
      <dc:title>Matplotlib v3.5.3, https://matplotlib.org/</dc:title>
     </cc:Agent>
    </dc:creator>
   </cc:Work>
  </rdf:RDF>
 </metadata>
 <defs>
  <style type="text/css">*{stroke-linejoin: round; stroke-linecap: butt}</style>
 </defs>
 <g id="figure_1">
  <g id="patch_1">
   <path d="M 0 320.972687 
L 403.5575 320.972687 
L 403.5575 0 
L 0 0 
z
" style="fill: #ffffff"/>
  </g>
  <g id="axes_1">
   <g id="patch_2">
    <path d="M 35.7375 284.991437 
L 392.8575 284.991437 
L 392.8575 18.879437 
L 35.7375 18.879437 
z
" style="fill: #ffffff"/>
   </g>
   <g id="line2d_1">
    <path d="M 35.7375 203.485507 
L 392.8575 203.485507 
" clip-path="url(#p48fad6a7bf)" style="fill: none; stroke: #000000; stroke-linecap: square"/>
   </g>
   <g id="matplotlib.axis_1">
    <g id="xtick_1">
     <g id="line2d_2">
      <defs>
       <path id="mf3302a8017" d="M 0 0 
L 0 3.5 
" style="stroke: #000000; stroke-width: 0.8"/>
      </defs>
      <g>
       <use xlink:href="#mf3302a8017" x="35.7375" y="284.991437" style="stroke: #000000; stroke-width: 0.8"/>
      </g>
     </g>
     <g id="text_1">
      <!-- Feb -->
      <g transform="translate(26.914062 299.482062)scale(0.1 -0.1)">
       <defs>
        <path id="IPAexGothic-46" d="M 3469 4141 
L 1172 4141 
L 1172 2656 
L 3206 2656 
L 3206 2188 
L 1172 2188 
L 1172 63 
L 609 63 
L 609 4634 
L 3469 4634 
L 3469 4141 
z
" transform="scale(0.015625)"/>
        <path id="IPAexGothic-65" d="M 863 1594 
Q 891 1041 1209 722 
Q 1534 397 1997 397 
Q 2606 397 2963 966 
L 3322 728 
Q 2869 -31 1931 -31 
Q 1222 -31 766 422 
Q 306 884 306 1641 
Q 306 2444 788 2925 
Q 1216 3353 1856 3353 
Q 2459 3353 2866 2956 
Q 3322 2494 3322 1722 
L 3322 1594 
L 863 1594 
z
M 2756 1997 
Q 2709 2431 2450 2681 
Q 2194 2938 1844 2938 
Q 1438 2938 1150 2591 
Q 953 2356 894 1997 
L 2756 1997 
z
" transform="scale(0.015625)"/>
        <path id="IPAexGothic-62" d="M 1125 2731 
Q 1550 3341 2219 3341 
Q 2788 3341 3191 2938 
Q 3659 2469 3659 1644 
Q 3659 838 3191 372 
Q 2788 -31 2206 -31 
Q 1559 -31 1088 516 
L 1009 44 
L 581 44 
L 581 4794 
L 1125 4794 
L 1125 2731 
z
M 1125 1997 
L 1125 1253 
Q 1125 888 1528 600 
Q 1803 403 2119 403 
Q 2488 403 2744 659 
Q 3084 1009 3084 1631 
Q 3084 2194 2803 2553 
Q 2525 2900 2125 2900 
Q 1759 2900 1438 2578 
Q 1125 2266 1125 1997 
z
" transform="scale(0.015625)"/>
       </defs>
       <use xlink:href="#IPAexGothic-46"/>
       <use xlink:href="#IPAexGothic-65" x="57.177734"/>
       <use xlink:href="#IPAexGothic-62" x="114.0625"/>
      </g>
     </g>
    </g>
    <g id="xtick_2">
     <g id="line2d_3">
      <g>
       <use xlink:href="#mf3302a8017" x="79.982456" y="284.991437" style="stroke: #000000; stroke-width: 0.8"/>
      </g>
     </g>
     <g id="text_2">
      <!-- Mar -->
      <g transform="translate(70.873081 299.482062)scale(0.1 -0.1)">
       <defs>
        <path id="IPAexGothic-4d" d="M 5147 63 
L 4597 63 
L 4597 2534 
Q 4597 3281 4634 4134 
L 4609 4134 
Q 4356 3409 4066 2675 
L 3066 209 
L 2650 209 
L 1641 2725 
Q 1328 3506 1128 4141 
L 1103 4141 
Q 1141 3131 1141 2553 
L 1141 63 
L 609 63 
L 609 4634 
L 1416 4634 
L 2503 1944 
Q 2697 1472 2869 906 
L 2888 906 
Q 3028 1416 3234 1931 
L 4316 4634 
L 5147 4634 
L 5147 63 
z
" transform="scale(0.015625)"/>
        <path id="IPAexGothic-61" d="M 3156 63 
L 2672 63 
Q 2559 303 2531 556 
L 2509 556 
Q 2147 -25 1428 -25 
Q 934 -25 622 288 
Q 347 563 347 959 
Q 347 1947 2050 1997 
L 2478 2009 
L 2478 2175 
Q 2478 2509 2288 2700 
Q 2088 2900 1775 2900 
Q 1238 2900 969 2378 
L 494 2597 
Q 938 3328 1788 3328 
Q 2375 3328 2691 3000 
Q 2984 2706 2984 2169 
L 2984 997 
Q 2984 400 3156 63 
z
M 2491 1625 
L 2141 1619 
Q 903 1591 903 953 
Q 903 728 1050 581 
Q 1231 403 1525 403 
Q 1934 403 2234 703 
Q 2491 969 2491 1344 
L 2491 1625 
z
" transform="scale(0.015625)"/>
        <path id="IPAexGothic-72" d="M 2309 3316 
L 2213 2769 
Q 2106 2791 2022 2791 
Q 1653 2791 1413 2444 
Q 1113 2006 1113 1675 
L 1113 63 
L 563 63 
L 563 3250 
L 1081 3250 
L 1056 2303 
L 1069 2303 
Q 1422 3341 2097 3341 
Q 2206 3341 2309 3316 
z
" transform="scale(0.015625)"/>
       </defs>
       <use xlink:href="#IPAexGothic-4d"/>
       <use xlink:href="#IPAexGothic-61" x="90.185547"/>
       <use xlink:href="#IPAexGothic-72" x="145.166016"/>
      </g>
     </g>
    </g>
    <g id="xtick_3">
     <g id="line2d_4">
      <g>
       <use xlink:href="#mf3302a8017" x="128.967942" y="284.991437" style="stroke: #000000; stroke-width: 0.8"/>
      </g>
     </g>
     <g id="text_3">
      <!-- Apr -->
      <g transform="translate(120.825755 299.482062)scale(0.1 -0.1)">
       <defs>
        <path id="IPAexGothic-41" d="M 4056 63 
L 3444 63 
L 2938 1409 
L 1100 1409 
L 603 63 
L -6 63 
L 1806 4666 
L 2259 4666 
L 4056 63 
z
M 2778 1863 
L 2316 3078 
Q 2125 3588 2028 4000 
L 2009 4000 
Q 1897 3563 1716 3078 
L 1263 1863 
L 2778 1863 
z
" transform="scale(0.015625)"/>
        <path id="IPAexGothic-70" d="M 1075 2688 
Q 1525 3341 2206 3341 
Q 2769 3341 3172 2938 
Q 3641 2469 3641 1644 
Q 3641 841 3178 372 
Q 2775 -31 2200 -31 
Q 1569 -31 1106 497 
L 1106 -1216 
L 563 -1216 
L 563 3250 
L 1075 3250 
L 1075 2688 
z
M 1106 1950 
L 1106 1291 
Q 1106 897 1516 600 
Q 1791 403 2106 403 
Q 2469 403 2725 659 
Q 3066 997 3066 1631 
Q 3066 2200 2784 2559 
Q 2503 2900 2100 2900 
Q 1656 2900 1338 2484 
Q 1106 2184 1106 1950 
z
" transform="scale(0.015625)"/>
       </defs>
       <use xlink:href="#IPAexGothic-41"/>
       <use xlink:href="#IPAexGothic-70" x="63.720703"/>
       <use xlink:href="#IPAexGothic-72" x="125.830078"/>
      </g>
     </g>
    </g>
    <g id="xtick_4">
     <g id="line2d_5">
      <g>
       <use xlink:href="#mf3302a8017" x="176.373252" y="284.991437" style="stroke: #000000; stroke-width: 0.8"/>
      </g>
     </g>
     <g id="text_4">
      <!-- May -->
      <g transform="translate(166.653721 299.482062)scale(0.1 -0.1)">
       <defs>
        <path id="IPAexGothic-79" d="M 3122 3250 
L 1575 -488 
Q 1278 -1203 550 -1203 
L 478 -1203 
L 344 -703 
L 447 -703 
Q 969 -703 1150 -238 
L 1356 275 
L 38 3250 
L 659 3250 
L 1363 1459 
Q 1528 1025 1606 781 
L 1625 781 
Q 1750 1169 1863 1459 
L 2528 3250 
L 3122 3250 
z
" transform="scale(0.015625)"/>
       </defs>
       <use xlink:href="#IPAexGothic-4d"/>
       <use xlink:href="#IPAexGothic-61" x="90.185547"/>
       <use xlink:href="#IPAexGothic-79" x="145.166016"/>
      </g>
     </g>
    </g>
    <g id="xtick_5">
     <g id="line2d_6">
      <g>
       <use xlink:href="#mf3302a8017" x="225.358739" y="284.991437" style="stroke: #000000; stroke-width: 0.8"/>
      </g>
     </g>
     <g id="text_5">
      <!-- Jun -->
      <g transform="translate(217.418895 299.482062)scale(0.1 -0.1)">
       <defs>
        <path id="IPAexGothic-4a" d="M 1819 4634 
L 1819 1234 
Q 1819 -31 763 -31 
Q 303 -31 -125 209 
L 84 644 
Q 378 447 694 447 
Q 1250 447 1250 1203 
L 1250 4634 
L 1819 4634 
z
" transform="scale(0.015625)"/>
        <path id="IPAexGothic-75" d="M 3284 63 
L 2772 63 
L 2772 644 
Q 2300 0 1625 0 
Q 1072 0 763 375 
Q 519 678 519 1241 
L 519 3250 
L 1069 3250 
L 1069 1259 
Q 1069 466 1734 466 
Q 2406 466 2734 1291 
L 2734 3250 
L 3284 3250 
L 3284 63 
z
" transform="scale(0.015625)"/>
        <path id="IPAexGothic-6e" d="M 3328 63 
L 2778 63 
L 2778 2041 
Q 2778 2853 2106 2853 
Q 1428 2853 1113 2041 
L 1113 63 
L 563 63 
L 563 3250 
L 1075 3250 
L 1075 2675 
Q 1525 3316 2222 3316 
Q 3328 3316 3328 2072 
L 3328 63 
z
" transform="scale(0.015625)"/>
       </defs>
       <use xlink:href="#IPAexGothic-4a"/>
       <use xlink:href="#IPAexGothic-75" x="37.988281"/>
       <use xlink:href="#IPAexGothic-6e" x="98.388672"/>
      </g>
     </g>
    </g>
    <g id="xtick_6">
     <g id="line2d_7">
      <g>
       <use xlink:href="#mf3302a8017" x="272.764049" y="284.991437" style="stroke: #000000; stroke-width: 0.8"/>
      </g>
     </g>
     <g id="text_6">
      <!-- Jul -->
      <g transform="translate(266.494517 299.482062)scale(0.1 -0.1)">
       <defs>
        <path id="IPAexGothic-6c" d="M 1131 63 
L 581 63 
L 581 4794 
L 1131 4794 
L 1131 63 
z
" transform="scale(0.015625)"/>
       </defs>
       <use xlink:href="#IPAexGothic-4a"/>
       <use xlink:href="#IPAexGothic-75" x="37.988281"/>
       <use xlink:href="#IPAexGothic-6c" x="98.388672"/>
      </g>
     </g>
    </g>
    <g id="xtick_7">
     <g id="line2d_8">
      <g>
       <use xlink:href="#mf3302a8017" x="321.749535" y="284.991437" style="stroke: #000000; stroke-width: 0.8"/>
      </g>
     </g>
     <g id="text_7">
      <!-- Aug -->
      <g transform="translate(312.767504 299.42425)scale(0.1 -0.1)">
       <defs>
        <path id="IPAexGothic-67" d="M 1331 1150 
Q 1006 1122 1006 900 
Q 1006 613 1763 575 
L 2131 556 
Q 3303 497 3303 -294 
Q 3303 -700 2925 -959 
Q 2519 -1253 1794 -1253 
Q 1138 -1253 738 -1028 
Q 353 -809 353 -428 
Q 353 84 1075 247 
L 1075 269 
Q 506 413 506 778 
Q 506 1116 994 1297 
Q 456 1575 456 2181 
Q 456 2650 769 2963 
Q 1128 3322 1738 3322 
Q 2125 3322 2422 3153 
Q 2650 3453 3259 3463 
L 3259 3013 
Q 2838 3003 2703 2938 
Q 3034 2613 3034 2169 
Q 3034 1728 2734 1425 
Q 2400 1094 1813 1094 
Q 1563 1094 1331 1150 
z
M 1734 2919 
Q 1409 2919 1197 2706 
Q 988 2497 988 2181 
Q 988 1872 1184 1684 
Q 1397 1472 1756 1472 
Q 2094 1472 2297 1678 
Q 2503 1881 2503 2203 
Q 2503 2497 2297 2700 
Q 2081 2919 1734 2919 
z
M 1753 159 
Q 903 159 903 -366 
Q 903 -875 1800 -875 
Q 2378 -875 2638 -606 
Q 2772 -481 2772 -313 
Q 2772 159 1753 159 
z
" transform="scale(0.015625)"/>
       </defs>
       <use xlink:href="#IPAexGothic-41"/>
       <use xlink:href="#IPAexGothic-75" x="63.720703"/>
       <use xlink:href="#IPAexGothic-67" x="124.121094"/>
      </g>
     </g>
    </g>
    <g id="xtick_8">
     <g id="line2d_9">
      <g>
       <use xlink:href="#mf3302a8017" x="370.735022" y="284.991437" style="stroke: #000000; stroke-width: 0.8"/>
      </g>
     </g>
     <g id="text_8">
      <!-- Sep -->
      <g transform="translate(361.860022 299.482062)scale(0.1 -0.1)">
       <defs>
        <path id="IPAexGothic-53" d="M 2919 3641 
Q 2563 4259 1853 4259 
Q 1453 4259 1213 4009 
Q 1028 3803 1028 3534 
Q 1028 3238 1266 3047 
Q 1444 2913 1984 2688 
L 2200 2597 
Q 2925 2306 3191 1953 
Q 3422 1644 3422 1259 
Q 3422 644 2969 288 
Q 2559 -31 1931 -31 
Q 881 -31 313 766 
L 753 1100 
Q 1203 459 1938 459 
Q 2288 459 2534 625 
Q 2841 847 2841 1216 
Q 2841 1503 2616 1728 
Q 2375 1959 1728 2206 
L 1541 2278 
Q 453 2694 453 3481 
Q 453 4006 806 4347 
Q 1203 4725 1863 4725 
Q 2841 4725 3359 3956 
L 2919 3641 
z
" transform="scale(0.015625)"/>
       </defs>
       <use xlink:href="#IPAexGothic-53"/>
       <use xlink:href="#IPAexGothic-65" x="58.496094"/>
       <use xlink:href="#IPAexGothic-70" x="115.380859"/>
      </g>
     </g>
    </g>
    <g id="text_9">
     <!-- 2022 -->
     <g transform="translate(367.66375 311.872687)scale(0.1 -0.1)">
      <defs>
       <path id="IPAexGothic-32" d="M 3659 63 
L 447 63 
L 447 594 
Q 825 1475 1894 2203 
L 2072 2322 
Q 2619 2697 2791 2906 
Q 2988 3153 2988 3444 
Q 2988 3772 2756 4003 
Q 2500 4259 2084 4259 
Q 1250 4259 991 3328 
L 497 3506 
Q 853 4725 2116 4725 
Q 2806 4725 3216 4316 
Q 3575 3947 3575 3425 
Q 3575 3038 3344 2722 
Q 3131 2416 2366 1938 
L 2231 1856 
Q 1256 1253 978 569 
L 3659 569 
L 3659 63 
z
" transform="scale(0.015625)"/>
       <path id="IPAexGothic-30" d="M 2038 4725 
Q 2881 4725 3334 3944 
Q 3694 3325 3694 2344 
Q 3694 1372 3334 741 
Q 2888 -31 2016 -31 
Q 1147 -31 700 741 
Q 341 1372 341 2350 
Q 341 3713 1000 4334 
Q 1419 4725 2038 4725 
z
M 2016 4266 
Q 1516 4266 1228 3759 
Q 934 3247 934 2344 
Q 934 1456 1222 947 
Q 1513 447 2016 447 
Q 2619 447 2909 1153 
Q 3100 1622 3100 2375 
Q 3100 3256 2806 3759 
Q 2509 4266 2016 4266 
z
" transform="scale(0.015625)"/>
      </defs>
      <use xlink:href="#IPAexGothic-32"/>
      <use xlink:href="#IPAexGothic-30" x="62.988281"/>
      <use xlink:href="#IPAexGothic-32" x="125.976562"/>
      <use xlink:href="#IPAexGothic-32" x="188.964844"/>
     </g>
    </g>
   </g>
   <g id="matplotlib.axis_2">
    <g id="ytick_1">
     <g id="line2d_10">
      <defs>
       <path id="mca86dbc81f" d="M 0 0 
L -3.5 0 
" style="stroke: #000000; stroke-width: 0.8"/>
      </defs>
      <g>
       <use xlink:href="#mca86dbc81f" x="35.7375" y="264.522941" style="stroke: #000000; stroke-width: 0.8"/>
      </g>
     </g>
     <g id="text_10">
      <!-- 0.50 -->
      <g transform="translate(7.2 268.268254)scale(0.1 -0.1)">
       <defs>
        <path id="IPAexGothic-2e" d="M 1184 63 
L 494 63 
L 494 753 
L 1184 753 
L 1184 63 
z
" transform="scale(0.015625)"/>
        <path id="IPAexGothic-35" d="M 1178 2603 
Q 1634 2963 2172 2963 
Q 2816 2963 3241 2528 
Q 3638 2113 3638 1497 
Q 3638 938 3297 513 
Q 2869 -31 2031 -31 
Q 959 -31 469 784 
L 938 1028 
Q 1309 434 2013 434 
Q 2466 434 2769 716 
Q 3081 1013 3081 1503 
Q 3081 1966 2806 2241 
Q 2519 2528 2056 2528 
Q 1406 2528 1072 2028 
L 591 2091 
L 884 4634 
L 3406 4634 
L 3406 4153 
L 1341 4153 
L 1134 2603 
L 1178 2603 
z
" transform="scale(0.015625)"/>
       </defs>
       <use xlink:href="#IPAexGothic-30"/>
       <use xlink:href="#IPAexGothic-2e" x="62.988281"/>
       <use xlink:href="#IPAexGothic-35" x="89.404297"/>
       <use xlink:href="#IPAexGothic-30" x="152.392578"/>
      </g>
     </g>
    </g>
    <g id="ytick_2">
     <g id="line2d_11">
      <g>
       <use xlink:href="#mca86dbc81f" x="35.7375" y="234.004224" style="stroke: #000000; stroke-width: 0.8"/>
      </g>
     </g>
     <g id="text_11">
      <!-- 0.75 -->
      <g transform="translate(7.2 237.749537)scale(0.1 -0.1)">
       <defs>
        <path id="IPAexGothic-37" d="M 3597 4263 
Q 2238 2106 1778 63 
L 1131 63 
Q 1581 1834 2950 4128 
L 428 4128 
L 428 4634 
L 3597 4634 
L 3597 4263 
z
" transform="scale(0.015625)"/>
       </defs>
       <use xlink:href="#IPAexGothic-30"/>
       <use xlink:href="#IPAexGothic-2e" x="62.988281"/>
       <use xlink:href="#IPAexGothic-37" x="89.404297"/>
       <use xlink:href="#IPAexGothic-35" x="152.392578"/>
      </g>
     </g>
    </g>
    <g id="ytick_3">
     <g id="line2d_12">
      <g>
       <use xlink:href="#mca86dbc81f" x="35.7375" y="203.485507" style="stroke: #000000; stroke-width: 0.8"/>
      </g>
     </g>
     <g id="text_12">
      <!-- 1.00 -->
      <g transform="translate(7.2 207.230819)scale(0.1 -0.1)">
       <defs>
        <path id="IPAexGothic-31" d="M 2463 63 
L 1900 63 
L 1900 4103 
Q 1372 3922 788 3797 
L 684 4231 
Q 1519 4441 2106 4731 
L 2463 4731 
L 2463 63 
z
" transform="scale(0.015625)"/>
       </defs>
       <use xlink:href="#IPAexGothic-31"/>
       <use xlink:href="#IPAexGothic-2e" x="62.988281"/>
       <use xlink:href="#IPAexGothic-30" x="89.404297"/>
       <use xlink:href="#IPAexGothic-30" x="152.392578"/>
      </g>
     </g>
    </g>
    <g id="ytick_4">
     <g id="line2d_13">
      <g>
       <use xlink:href="#mca86dbc81f" x="35.7375" y="172.96679" style="stroke: #000000; stroke-width: 0.8"/>
      </g>
     </g>
     <g id="text_13">
      <!-- 1.25 -->
      <g transform="translate(7.2 176.712102)scale(0.1 -0.1)">
       <use xlink:href="#IPAexGothic-31"/>
       <use xlink:href="#IPAexGothic-2e" x="62.988281"/>
       <use xlink:href="#IPAexGothic-32" x="89.404297"/>
       <use xlink:href="#IPAexGothic-35" x="152.392578"/>
      </g>
     </g>
    </g>
    <g id="ytick_5">
     <g id="line2d_14">
      <g>
       <use xlink:href="#mca86dbc81f" x="35.7375" y="142.448073" style="stroke: #000000; stroke-width: 0.8"/>
      </g>
     </g>
     <g id="text_14">
      <!-- 1.50 -->
      <g transform="translate(7.2 146.193385)scale(0.1 -0.1)">
       <use xlink:href="#IPAexGothic-31"/>
       <use xlink:href="#IPAexGothic-2e" x="62.988281"/>
       <use xlink:href="#IPAexGothic-35" x="89.404297"/>
       <use xlink:href="#IPAexGothic-30" x="152.392578"/>
      </g>
     </g>
    </g>
    <g id="ytick_6">
     <g id="line2d_15">
      <g>
       <use xlink:href="#mca86dbc81f" x="35.7375" y="111.929355" style="stroke: #000000; stroke-width: 0.8"/>
      </g>
     </g>
     <g id="text_15">
      <!-- 1.75 -->
      <g transform="translate(7.2 115.674668)scale(0.1 -0.1)">
       <use xlink:href="#IPAexGothic-31"/>
       <use xlink:href="#IPAexGothic-2e" x="62.988281"/>
       <use xlink:href="#IPAexGothic-37" x="89.404297"/>
       <use xlink:href="#IPAexGothic-35" x="152.392578"/>
      </g>
     </g>
    </g>
    <g id="ytick_7">
     <g id="line2d_16">
      <g>
       <use xlink:href="#mca86dbc81f" x="35.7375" y="81.410638" style="stroke: #000000; stroke-width: 0.8"/>
      </g>
     </g>
     <g id="text_16">
      <!-- 2.00 -->
      <g transform="translate(7.2 85.155951)scale(0.1 -0.1)">
       <use xlink:href="#IPAexGothic-32"/>
       <use xlink:href="#IPAexGothic-2e" x="62.988281"/>
       <use xlink:href="#IPAexGothic-30" x="89.404297"/>
       <use xlink:href="#IPAexGothic-30" x="152.392578"/>
      </g>
     </g>
    </g>
    <g id="ytick_8">
     <g id="line2d_17">
      <g>
       <use xlink:href="#mca86dbc81f" x="35.7375" y="50.891921" style="stroke: #000000; stroke-width: 0.8"/>
      </g>
     </g>
     <g id="text_17">
      <!-- 2.25 -->
      <g transform="translate(7.2 54.637233)scale(0.1 -0.1)">
       <use xlink:href="#IPAexGothic-32"/>
       <use xlink:href="#IPAexGothic-2e" x="62.988281"/>
       <use xlink:href="#IPAexGothic-32" x="89.404297"/>
       <use xlink:href="#IPAexGothic-35" x="152.392578"/>
      </g>
     </g>
    </g>
    <g id="ytick_9">
     <g id="line2d_18">
      <g>
       <use xlink:href="#mca86dbc81f" x="35.7375" y="20.373204" style="stroke: #000000; stroke-width: 0.8"/>
      </g>
     </g>
     <g id="text_18">
      <!-- 2.50 -->
      <g transform="translate(7.2 24.118516)scale(0.1 -0.1)">
       <use xlink:href="#IPAexGothic-32"/>
       <use xlink:href="#IPAexGothic-2e" x="62.988281"/>
       <use xlink:href="#IPAexGothic-35" x="89.404297"/>
       <use xlink:href="#IPAexGothic-30" x="152.392578"/>
      </g>
     </g>
    </g>
   </g>
   <g id="line2d_19">
    <path d="M 46.798739 246.764939 
L 48.378916 252.025255 
L 49.959093 237.526584 
L 51.53927 216.985322 
L 53.119447 244.687429 
L 54.699624 217.229148 
L 56.279801 200.778852 
L 57.859978 200.790801 
L 59.440155 206.122014 
L 61.020332 171.133519 
L 62.600509 171.22436 
L 64.180686 134.588505 
L 65.760863 74.827759 
L 67.34104 156.078477 
L 68.921217 66.40717 
L 70.501394 51.742833 
L 72.081571 178.575122 
L 73.661748 147.743961 
L 75.241925 167.414814 
L 76.822102 202.924502 
L 67.34104 203.485507 
L 68.921217 203.485507 
L 76.822102 203.485507 
L 78.402279 213.751459 
L 79.982456 235.380804 
L 81.562633 255.089026 
L 83.14281 177.951635 
L 84.722987 234.261188 
L 86.303164 242.665646 
L 87.883341 244.246253 
L 89.463518 233.186855 
L 91.043695 234.01953 
L 92.623872 228.306711 
L 94.204049 242.632728 
L 95.784226 258.241949 
L 97.364403 218.779021 
L 98.94458 196.221145 
L 100.524757 155.170123 
L 102.104934 188.587109 
L 103.685111 166.549005 
L 105.265288 225.090323 
L 106.845465 182.097554 
L 108.425642 222.578799 
L 110.005819 211.702952 
L 111.585996 244.641749 
L 113.166173 215.749503 
L 114.74635 231.390981 
L 116.326527 99.500989 
L 117.906704 173.221782 
L 119.486881 178.369357 
L 121.067058 208.496101 
L 122.647235 191.755816 
L 124.227412 195.19815 
L 125.807588 189.980398 
L 127.387765 257.478647 
L 128.967942 249.283993 
L 130.548119 164.343531 
L 132.128296 192.886679 
L 133.708473 210.058887 
L 135.28865 210.130432 
L 136.868827 202.336034 
L 138.449004 202.338195 
L 140.029181 177.570736 
L 141.609358 217.104907 
L 143.189535 221.435178 
L 144.769712 182.441573 
L 146.349889 180.580175 
L 147.930066 197.957641 
L 149.510243 130.058376 
L 151.09042 117.661469 
L 152.670597 186.786379 
L 154.250774 170.33154 
L 155.830951 199.339318 
L 157.411128 199.36729 
L 158.991305 182.83858 
L 160.571482 187.011442 
L 162.151659 220.053339 
L 163.731836 187.811992 
L 165.312013 190.713443 
L 166.89219 186.027555 
L 168.472367 164.072866 
L 170.052544 219.833001 
L 171.632721 234.615348 
L 173.212898 228.990571 
L 174.793075 254.970143 
L 176.373252 234.259697 
L 177.953429 240.185174 
L 179.533606 257.538029 
L 181.113783 243.305776 
L 182.69396 247.76608 
L 184.274137 228.008753 
L 185.854314 30.975437 
L 187.434491 139.05485 
L 189.014668 134.576213 
L 190.594845 150.865065 
L 192.175022 140.117768 
L 193.755199 157.212876 
L 195.335376 155.348274 
L 196.915553 219.597731 
L 198.49573 208.727196 
L 200.075907 224.869401 
L 201.656084 196.123822 
L 203.236261 194.548969 
L 204.816438 175.537932 
L 206.396615 222.36709 
L 207.976792 207.300044 
L 209.556969 234.687017 
L 211.137146 201.826905 
L 212.717323 213.042625 
L 214.2975 228.693374 
L 215.877677 245.878005 
L 217.457854 224.721044 
L 219.038031 232.065687 
L 220.618208 214.557267 
L 222.198385 220.551233 
L 223.778562 247.065516 
L 225.358739 228.683818 
L 226.938916 232.827425 
L 228.519093 226.698225 
L 230.09927 237.62096 
L 231.679447 232.715103 
L 233.259624 239.022386 
L 234.839801 233.460845 
L 236.419978 258.550637 
L 238.000155 233.831019 
L 239.580332 241.843884 
L 241.160509 241.042411 
L 242.740686 188.051594 
L 244.320863 210.499396 
L 245.90104 272.895437 
L 247.481217 211.843552 
L 249.061394 227.496268 
L 250.641571 203.485507 
L 252.221748 173.595768 
L 253.801925 209.18892 
L 256.962279 108.328625 
L 258.542456 97.578952 
L 260.122633 129.275398 
L 261.70281 158.523115 
L 263.282987 144.469418 
L 264.863164 192.845645 
L 266.443341 189.387053 
L 268.023518 128.957579 
L 269.603695 126.086546 
L 272.764049 131.477171 
L 274.344226 106.927082 
L 275.924403 127.338125 
L 277.50458 100.986262 
L 279.084757 72.4685 
L 280.664934 104.040335 
L 282.245111 109.019272 
L 283.825288 97.065923 
L 285.405465 104.016235 
L 286.985642 96.357928 
L 288.565819 167.550364 
L 290.145996 95.715007 
L 291.726173 142.895225 
L 293.30635 136.948484 
L 294.886527 154.611992 
L 296.466704 181.699085 
L 298.046881 172.213917 
L 299.627058 188.365733 
L 301.207235 213.374488 
L 302.787412 153.393738 
L 304.367588 163.483704 
L 305.947765 188.30806 
L 307.527942 170.060811 
L 309.108119 182.650783 
L 310.688296 184.166255 
L 312.268473 163.35185 
L 313.84865 179.538248 
L 315.428827 193.578036 
L 317.009004 186.601857 
L 318.589181 174.166788 
L 320.169358 183.445376 
L 321.749535 196.817109 
L 323.329712 190.633767 
L 324.909889 180.066955 
L 328.070243 173.342573 
L 329.65042 191.688597 
L 331.230597 182.981875 
L 332.810774 172.448728 
L 334.390951 177.822713 
L 335.971128 185.324791 
L 337.551305 196.525236 
L 339.131482 218.940824 
L 340.711659 199.877308 
L 342.291836 210.925537 
L 343.872013 196.133671 
L 345.45219 209.905716 
L 347.032367 194.537808 
L 348.612544 186.539442 
L 350.192721 142.554572 
L 351.772898 161.74388 
L 353.353075 176.492958 
L 354.933252 196.891256 
L 356.513429 178.726653 
L 358.093606 203.983907 
L 359.673783 209.524372 
L 361.25396 224.930234 
L 362.834137 242.920052 
L 364.414314 234.899823 
L 365.994491 235.258809 
L 367.574668 241.352467 
L 369.154845 245.886082 
L 372.315199 246.421774 
L 373.895376 236.953151 
L 375.475553 246.204642 
L 377.05573 235.14378 
L 378.635907 222.204148 
L 380.216084 234.599267 
L 381.796261 233.724332 
L 383.376438 221.848655 
L 384.956615 227.685931 
L 386.536792 212.837041 
L 388.116969 214.506122 
L 389.697146 242.127862 
L 391.277323 245.073648 
L 391.277323 245.073648 
" clip-path="url(#p48fad6a7bf)" style="fill: none; stroke: #1f77b4; stroke-width: 1.5; stroke-linecap: square"/>
   </g>
   <g id="line2d_20">
    <path d="M 48.378916 249.440523 
L 49.959093 245.101843 
L 51.53927 227.793952 
L 53.119447 231.854536 
L 54.699624 231.959812 
L 56.279801 209.294578 
L 57.859978 200.784827 
L 59.440155 203.485507 
L 61.020332 189.74988 
L 64.180686 153.880914 
L 65.760863 106.738812 
L 67.34104 119.418095 
L 68.921217 115.985145 
L 70.501394 59.175891 
L 72.081571 124.943474 
L 73.661748 163.892844 
L 75.241925 157.867571 
L 76.822102 186.296888 
L 67.34104 203.205326 
L 68.921217 203.485507 
L 76.822102 203.485507 
L 78.402279 208.731189 
L 79.982456 225.146829 
L 81.562633 245.841644 
L 83.14281 223.569263 
L 84.722987 209.471797 
L 86.303164 238.56485 
L 87.883341 243.459753 
L 89.463518 238.892782 
L 91.043695 233.604135 
L 92.623872 231.206347 
L 94.204049 235.754932 
L 95.784226 250.843853 
L 97.364403 240.776221 
L 100.524757 177.107878 
L 102.104934 172.789602 
L 103.685111 177.97885 
L 105.265288 199.164645 
L 106.845465 205.503234 
L 108.425642 204.011918 
L 110.005819 217.277334 
L 111.585996 229.575031 
L 113.166173 231.296146 
L 114.74635 223.870536 
L 116.326527 179.656724 
L 117.906704 139.986754 
L 119.486881 175.817687 
L 121.067058 194.294196 
L 122.647235 200.405536 
L 124.227412 193.488198 
L 125.807588 192.614869 
L 127.387765 229.484784 
L 128.967942 253.497709 
L 130.548119 214.668367 
L 132.128296 179.309787 
L 133.708473 201.770193 
L 135.28865 210.094665 
L 138.449004 202.337115 
L 140.029181 190.521099 
L 141.609358 198.870653 
L 143.189535 219.292097 
L 144.769712 203.485507 
L 146.349889 181.513881 
L 147.930066 189.546148 
L 149.510243 167.615481 
L 151.09042 123.955187 
L 152.670597 155.704666 
L 154.250774 178.789377 
L 155.830951 185.58485 
L 157.411128 199.353305 
L 158.991305 191.357158 
L 160.571482 184.940489 
L 162.151659 204.65592 
L 163.731836 205.005725 
L 165.312013 189.270438 
L 166.89219 188.390507 
L 168.472367 175.451056 
L 170.052544 194.894196 
L 171.632721 227.502336 
L 173.212898 231.84515 
L 174.793075 242.995947 
L 176.373252 245.280016 
L 177.953429 237.272132 
L 179.533606 249.353935 
L 181.113783 250.759634 
L 182.69396 245.567009 
L 184.274137 238.44574 
L 185.854314 156.039761 
L 187.434491 91.163877 
L 189.014668 136.828816 
L 190.594845 142.902122 
L 192.175022 145.571615 
L 193.755199 148.871951 
L 195.335376 156.283142 
L 196.915553 191.261737 
L 198.49573 214.29514 
L 200.075907 217.098185 
L 201.656084 211.397804 
L 203.236261 195.338776 
L 204.816438 185.365328 
L 206.396615 201.136468 
L 207.976792 215.090144 
L 209.556969 221.894019 
L 211.137146 219.522288 
L 212.717323 207.567953 
L 214.2975 221.160869 
L 215.877677 237.704856 
L 217.457854 235.921562 
L 219.038031 228.462786 
L 220.618208 223.686919 
L 222.198385 217.595839 
L 223.778562 234.77118 
L 225.358739 238.35767 
L 226.938916 230.778262 
L 228.519093 229.811856 
L 230.09927 232.319399 
L 231.679447 235.20132 
L 233.259624 235.924204 
L 234.839801 236.284913 
L 236.419978 247.001064 
L 238.000155 247.159099 
L 239.580332 237.928989 
L 241.160509 241.444102 
L 242.740686 217.75517 
L 244.320863 199.775261 
L 245.90104 247.716433 
L 247.481217 248.17246 
L 249.061394 219.959529 
L 250.641571 216.147566 
L 252.221748 189.358101 
L 253.801925 192.577886 
L 255.382102 186.866044 
L 256.962279 136.065648 
L 258.542456 103.018686 
L 260.122633 114.020004 
L 261.70281 144.488829 
L 263.282987 151.638159 
L 264.863164 170.53316 
L 266.443341 191.127471 
L 268.023518 161.93869 
L 269.603695 127.527265 
L 271.183872 127.427011 
L 272.764049 130.122547 
L 274.344226 119.567536 
L 275.924403 117.382607 
L 277.50458 114.573205 
L 279.084757 87.153405 
L 280.664934 88.78005 
L 282.245111 106.543952 
L 283.825288 103.122877 
L 285.405465 100.567915 
L 286.985642 100.219613 
L 288.565819 135.254618 
L 290.145996 134.987898 
L 291.726173 120.658597 
L 293.30635 139.945668 
L 294.886527 145.997301 
L 296.466704 168.739283 
L 298.046881 177.032198 
L 299.627058 180.514477 
L 301.207235 201.498686 
L 302.787412 186.583158 
L 304.367588 158.514886 
L 305.947765 176.411462 
L 307.527942 179.469051 
L 309.108119 176.48865 
L 310.688296 183.410539 
L 312.268473 174.116221 
L 313.84865 171.657699 
L 315.428827 186.735515 
L 317.009004 190.13486 
L 318.589181 180.517525 
L 320.169358 178.87943 
L 321.749535 190.296377 
L 323.329712 193.761695 
L 324.909889 185.449941 
L 326.490066 178.383901 
L 328.070243 175.021231 
L 329.65042 182.810006 
L 331.230597 187.403807 
L 332.810774 177.809135 
L 334.390951 175.159721 
L 335.971128 181.62262 
L 337.551305 191.041536 
L 339.131482 208.267287 
L 340.711659 209.80083 
L 342.291836 205.528471 
L 343.872013 203.753933 
L 345.45219 203.213322 
L 347.032367 202.461349 
L 348.612544 190.597864 
L 350.192721 166.056025 
L 351.772898 152.41486 
L 354.933252 187.06715 
L 356.513429 188.10869 
L 358.093606 191.950774 
L 359.673783 206.786441 
L 361.25396 217.501505 
L 362.834137 234.367681 
L 364.414314 239.00278 
L 365.994491 235.079494 
L 367.574668 238.35885 
L 369.154845 243.650635 
L 370.735022 246.045118 
L 372.315199 246.312881 
L 373.895376 241.821186 
L 375.475553 241.706387 
L 377.05573 240.85456 
L 378.635907 228.890224 
L 380.216084 228.599574 
L 381.796261 234.162847 
L 383.376438 227.966964 
L 384.956615 224.809559 
L 386.536792 220.523555 
L 388.116969 213.674694 
L 389.697146 229.302724 
L 391.277323 243.613991 
L 391.277323 243.613991 
" clip-path="url(#p48fad6a7bf)" style="fill: none; stroke: #ff7f0e; stroke-width: 1.5; stroke-linecap: square"/>
   </g>
   <g id="line2d_21">
    <path d="M 49.959093 245.660072 
L 51.53927 236.648844 
L 53.119447 233.784703 
L 54.699624 227.213101 
L 56.279801 222.544916 
L 57.859978 206.526416 
L 59.440155 202.589876 
L 62.600509 183.835968 
L 64.180686 159.835956 
L 65.760863 130.778217 
L 67.34104 124.60428 
L 68.921217 103.077334 
L 70.501394 96.448787 
L 72.081571 107.070891 
L 73.661748 132.851244 
L 75.241925 165.075464 
L 76.822102 174.477424 
L 67.34104 192.279777 
L 68.921217 203.298791 
L 70.501394 203.485507 
L 76.822102 203.485507 
L 78.402279 207.008165 
L 79.982456 218.391101 
L 81.562633 236.325957 
L 83.14281 227.669035 
L 84.722987 227.26558 
L 86.303164 221.7991 
L 87.883341 240.501441 
L 89.463518 240.169107 
L 91.043695 237.297894 
L 92.623872 231.87119 
L 94.204049 235.180151 
L 95.784226 243.981116 
L 97.364403 241.399629 
L 98.94458 227.959611 
L 100.524757 192.548583 
L 102.104934 181.037384 
L 103.685111 170.737102 
L 105.265288 195.732822 
L 106.845465 193.714042 
L 108.425642 211.488519 
L 110.005819 206.631654 
L 111.585996 227.297426 
L 113.166173 225.171621 
L 114.74635 231.327768 
L 116.326527 192.843579 
L 117.906704 177.542526 
L 119.486881 153.780902 
L 121.067058 187.615615 
L 122.647235 193.453465 
L 124.227412 198.693274 
L 125.807588 192.329133 
L 127.387765 219.196872 
L 128.967942 236.598198 
L 130.548119 231.311316 
L 132.128296 207.837252 
L 133.708473 190.375655 
L 135.28865 204.622139 
L 136.868827 207.564311 
L 138.449004 204.991662 
L 140.029181 194.580199 
L 141.609358 200.037209 
L 143.189535 206.888938 
L 144.769712 208.205448 
L 146.349889 196.28363 
L 147.930066 187.218034 
L 149.510243 172.060995 
L 151.09042 152.46407 
L 152.670597 147.55334 
L 154.250774 160.727349 
L 155.830951 185.986511 
L 157.411128 190.338614 
L 158.991305 194.072445 
L 160.571482 189.923946 
L 162.151659 197.781723 
L 163.731836 199.283535 
L 165.312013 200.418401 
L 166.89219 188.197939 
L 168.472367 180.721394 
L 170.052544 192.003089 
L 173.212898 228.000946 
L 174.793075 240.291938 
L 176.373252 240.180931 
L 177.953429 243.616446 
L 179.533606 244.622379 
L 181.113783 247.388983 
L 182.69396 249.774806 
L 184.274137 240.096848 
L 189.014668 106.633104 
L 190.594845 141.628598 
L 192.175022 141.97868 
L 193.755199 149.538836 
L 195.335376 151.057652 
L 196.915553 180.755463 
L 198.49573 197.355914 
L 200.075907 217.937851 
L 201.656084 210.514454 
L 203.236261 206.037179 
L 204.816438 189.047349 
L 206.396615 198.978286 
L 207.976792 203.225884 
L 209.556969 222.05195 
L 211.137146 215.595424 
L 212.717323 217.40496 
L 214.2975 215.077569 
L 215.877677 230.152027 
L 217.457854 233.574174 
L 219.038031 234.654271 
L 220.618208 224.032801 
L 222.198385 222.652235 
L 223.778562 228.47932 
L 225.358739 232.785793 
L 226.938916 236.551906 
L 228.519093 229.437311 
L 230.09927 232.489049 
L 231.679447 232.451487 
L 233.259624 236.493396 
L 234.839801 235.110494 
L 236.419978 244.426782 
L 238.000155 242.835797 
L 239.580332 245.425956 
L 241.160509 238.979335 
L 242.740686 226.4703 
L 244.320863 215.388897 
L 245.90104 231.459566 
L 247.481217 237.233787 
L 249.061394 241.816679 
L 250.641571 214.731306 
L 252.221748 203.485507 
L 253.801925 196.317961 
L 255.382102 182.576644 
L 256.962279 164.490777 
L 258.542456 124.018835 
L 260.122633 112.139642 
L 261.70281 130.036426 
L 263.282987 144.482359 
L 264.863164 166.62896 
L 266.443341 177.09131 
L 268.023518 172.967725 
L 271.183872 127.938519 
L 272.764049 128.786369 
L 274.344226 122.677908 
L 275.924403 122.191002 
L 279.084757 101.380426 
L 280.664934 92.920777 
L 282.245111 95.728361 
L 283.825288 103.429118 
L 285.405465 103.421062 
L 286.985642 99.173249 
L 288.565819 125.364693 
L 290.145996 122.894854 
L 291.726173 137.660993 
L 293.30635 126.239168 
L 294.886527 144.969174 
L 296.466704 158.787274 
L 301.207235 192.417977 
L 302.787412 187.179908 
L 304.367588 179.274438 
L 305.947765 169.102872 
L 307.527942 174.323932 
L 309.108119 180.537422 
L 310.688296 179.093089 
L 312.268473 177.016254 
L 313.84865 175.945572 
L 315.428827 179.341741 
L 317.009004 186.690977 
L 318.589181 185.008657 
L 320.169358 181.500116 
L 321.749535 185.120434 
L 323.329712 190.408934 
L 324.909889 189.34635 
L 326.490066 182.586025 
L 328.070243 176.722288 
L 329.65042 180.795687 
L 331.230597 182.867319 
L 332.810774 182.588559 
L 334.390951 177.813661 
L 335.971128 178.627416 
L 337.551305 186.772195 
L 339.131482 201.070407 
L 342.291836 210.176953 
L 343.872013 202.475196 
L 345.45219 205.840051 
L 347.032367 200.387265 
L 348.612544 197.367719 
L 350.192721 176.178793 
L 351.772898 164.631405 
L 353.353075 160.844646 
L 354.933252 179.0939 
L 356.513429 184.340999 
L 358.093606 193.618327 
L 359.673783 198.086057 
L 361.25396 213.171466 
L 362.834137 226.742021 
L 364.414314 234.545408 
L 365.994491 237.772363 
L 367.574668 237.220759 
L 370.735022 244.510701 
L 372.315199 246.170869 
L 373.895376 243.308324 
L 375.475553 243.308602 
L 377.05573 239.57356 
L 380.216084 230.83198 
L 381.796261 230.338839 
L 383.376438 230.229793 
L 384.956615 227.873376 
L 386.536792 220.967125 
L 388.116969 218.554873 
L 389.697146 224.100393 
L 391.277323 234.876181 
L 391.277323 234.876181 
" clip-path="url(#p48fad6a7bf)" style="fill: none; stroke: #2ca02c; stroke-width: 1.5; stroke-linecap: square"/>
   </g>
   <g id="line2d_22">
    <path d="M 51.53927 239.293547 
L 53.119447 238.730459 
L 56.279801 221.182293 
L 57.859978 217.490668 
L 61.020332 195.384229 
L 62.600509 188.279304 
L 64.180686 172.865016 
L 65.760863 141.761611 
L 67.34104 137.437023 
L 68.921217 111.411876 
L 70.501394 91.224921 
L 72.081571 120.513227 
L 73.661748 118.037552 
L 75.241925 142.14279 
L 76.822102 175.512435 
L 67.34104 182.319106 
L 68.921217 195.174134 
L 70.501394 203.345497 
L 72.081571 203.485507 
L 76.822102 203.485507 
L 78.402279 206.137147 
L 79.982456 214.844656 
L 81.562633 229.054031 
L 83.14281 224.36112 
L 84.722987 229.360406 
L 86.303164 231.364991 
L 87.883341 227.933819 
L 89.463518 238.728971 
L 91.043695 238.67157 
L 92.623872 235.131195 
L 94.204049 234.685896 
L 95.784226 241.597259 
L 97.364403 238.301688 
L 98.94458 231.854947 
L 100.524757 213.371163 
L 102.104934 191.569087 
L 103.685111 177.544004 
L 105.265288 186.601484 
L 106.845465 192.450586 
L 108.425642 201.611975 
L 110.005819 211.542165 
L 111.585996 217.547087 
L 113.166173 224.529601 
L 114.74635 226.763947 
L 116.326527 208.285078 
L 117.906704 188.188793 
L 119.486881 177.749668 
L 121.067058 169.484944 
L 122.647235 188.662523 
L 124.227412 193.891814 
L 125.807588 196.569006 
L 127.387765 212.915302 
L 128.967942 227.680818 
L 130.548119 222.342086 
L 132.128296 222.899733 
L 133.708473 208.396635 
L 135.28865 195.610662 
L 136.868827 204.05462 
L 138.449004 206.278938 
L 140.029181 198.653895 
L 141.609358 200.615905 
L 143.189535 205.767256 
L 144.769712 201.199485 
L 146.349889 201.836598 
L 147.930066 196.704181 
L 149.510243 174.724675 
L 151.09042 159.966976 
L 152.670597 161.768305 
L 154.250774 153.543531 
L 157.411128 189.459172 
L 158.991305 188.501388 
L 160.571482 192.341668 
L 162.151659 198.179973 
L 163.731836 195.359065 
L 165.312013 197.193477 
L 166.89219 196.966186 
L 168.472367 182.527548 
L 170.052544 191.681838 
L 171.632721 204.236736 
L 173.212898 214.901393 
L 174.793075 235.582011 
L 176.373252 238.82231 
L 177.953429 240.181992 
L 179.533606 247.343495 
L 181.113783 244.295217 
L 182.69396 247.483428 
L 184.274137 244.837149 
L 185.854314 209.11071 
L 187.434491 182.66403 
L 189.014668 146.692016 
L 190.594845 118.643834 
L 192.175022 141.252048 
L 193.755199 145.911833 
L 195.335376 151.009525 
L 196.915553 171.518125 
L 200.075907 204.869346 
L 201.656084 212.855782 
L 203.236261 206.715435 
L 204.816438 199.049399 
L 206.396615 198.270626 
L 207.976792 201.112075 
L 209.556969 211.98849 
L 211.137146 217.328901 
L 212.717323 214.962706 
L 214.2975 220.344768 
L 215.877677 223.745418 
L 217.457854 228.822338 
L 219.038031 233.199349 
L 220.618208 229.999841 
L 222.198385 223.173383 
L 223.778562 229.388607 
L 225.358739 228.530485 
L 226.938916 232.796203 
L 228.519093 234.184613 
L 230.09927 231.551988 
L 231.679447 232.545614 
L 234.839801 235.74475 
L 236.419978 241.645205 
L 238.000155 241.898495 
L 239.580332 242.588926 
L 241.160509 244.351858 
L 242.740686 228.364081 
L 244.320863 222.698453 
L 245.90104 233.952613 
L 247.481217 226.898084 
L 249.061394 234.89403 
L 250.641571 233.542827 
L 252.221748 205.630915 
L 253.801925 204.937045 
L 255.382102 188.117721 
L 256.962279 166.816933 
L 258.542456 149.875228 
L 260.122633 125.346028 
L 261.70281 124.821819 
L 263.282987 133.749087 
L 264.863164 158.016299 
L 266.443341 172.652336 
L 268.023518 166.293887 
L 269.603695 162.397371 
L 272.764049 128.829186 
L 274.344226 123.53549 
L 275.924403 123.853134 
L 277.50458 117.085326 
L 279.084757 102.780145 
L 280.664934 102.048383 
L 282.245111 97.054266 
L 283.825288 96.063484 
L 285.405465 103.576043 
L 286.985642 101.675951 
L 288.565819 118.636813 
L 290.145996 118.331643 
L 293.30635 137.483118 
L 294.886527 133.745899 
L 296.466704 154.948825 
L 298.046881 162.250314 
L 299.627058 174.741755 
L 301.207235 189.815554 
L 302.787412 183.581238 
L 304.367588 181.602237 
L 305.947765 181.58711 
L 307.527942 169.342909 
L 309.108119 176.450061 
L 310.688296 181.45327 
L 312.268473 175.307118 
L 313.84865 177.650807 
L 315.428827 180.563087 
L 317.009004 181.191579 
L 318.589181 183.660574 
L 323.329712 186.519536 
L 324.909889 187.894484 
L 326.490066 186.284874 
L 328.070243 180.329164 
L 329.65042 180.613847 
L 331.230597 181.345357 
L 332.810774 180.331094 
L 334.390951 181.411708 
L 335.971128 179.728342 
L 337.551305 183.322119 
L 339.131482 195.626146 
L 340.711659 200.773198 
L 342.291836 206.905781 
L 343.872013 206.815867 
L 345.45219 204.376425 
L 347.032367 203.109346 
L 348.612544 197.060315 
L 350.192721 185.436037 
L 351.772898 172.693919 
L 353.353075 167.68247 
L 354.933252 170.707281 
L 356.513429 179.002175 
L 358.093606 189.530876 
L 359.673783 197.788401 
L 361.25396 205.403384 
L 362.834137 221.486771 
L 364.414314 228.847832 
L 365.994491 234.724285 
L 367.574668 238.681411 
L 369.154845 239.471668 
L 372.315199 244.992753 
L 373.895376 243.960479 
L 375.475553 244.042166 
L 377.05573 241.33926 
L 378.635907 235.526061 
L 380.216084 234.933979 
L 383.376438 228.283783 
L 384.956615 229.600094 
L 388.116969 219.387998 
L 389.697146 225.008908 
L 391.277323 229.807427 
L 391.277323 229.807427 
" clip-path="url(#p48fad6a7bf)" style="fill: none; stroke: #d62728; stroke-width: 1.5; stroke-linecap: square"/>
   </g>
   <g id="line2d_23">
    <path d="M 53.119447 240.400362 
L 54.699624 234.802099 
L 56.279801 224.677528 
L 57.859978 217.389787 
L 59.440155 215.306986 
L 61.020332 200.079985 
L 62.600509 190.875575 
L 64.180686 178.91026 
L 65.760863 156.942801 
L 67.34104 144.718612 
L 68.921217 124.990602 
L 70.501394 100.621623 
L 72.081571 112.096124 
L 73.661748 126.274115 
L 75.241925 129.014427 
L 76.822102 156.330793 
L 67.34104 181.578017 
L 68.921217 186.827374 
L 70.501394 196.88049 
L 72.081571 203.373512 
L 73.661748 203.485507 
L 76.822102 203.485507 
L 78.402279 205.611467 
L 79.982456 212.660703 
L 81.562633 224.40943 
L 83.14281 220.493188 
L 86.303164 232.182211 
L 87.883341 234.094964 
L 89.463518 229.007797 
L 91.043695 237.806876 
L 92.623872 236.690974 
L 94.204049 236.683916 
L 95.784226 239.978788 
L 97.364403 237.461589 
L 98.94458 231.155811 
L 102.104934 208.802 
L 103.685111 186.901751 
L 105.265288 188.581017 
L 106.845465 185.712154 
L 108.425642 199.110064 
L 110.005819 203.699298 
L 111.585996 219.099734 
L 113.166173 217.18994 
L 114.74635 225.94075 
L 116.326527 208.976764 
L 117.906704 201.986342 
L 119.486881 186.278764 
L 121.067058 184.485527 
L 122.647235 174.217557 
L 124.227412 189.995349 
L 125.807588 193.118664 
L 127.387765 212.045014 
L 128.967942 221.365159 
L 130.548119 217.408095 
L 132.128296 217.027254 
L 133.708473 220.451184 
L 136.868827 196.984478 
L 138.449004 203.713259 
L 140.029181 201.021611 
L 141.609358 202.579571 
L 143.189535 205.088742 
L 144.769712 201.428065 
L 146.349889 197.324719 
L 147.930066 201.070357 
L 149.510243 185.500259 
L 151.09042 164.727896 
L 152.670597 165.716487 
L 154.250774 163.517934 
L 155.830951 163.870382 
L 157.411128 177.42458 
L 158.991305 188.160091 
L 160.571482 188.204687 
L 162.151659 198.412691 
L 163.731836 196.170768 
L 165.312013 194.442924 
L 166.89219 195.03417 
L 168.472367 190.972833 
L 170.052544 190.916666 
L 171.632721 201.645182 
L 173.212898 209.649386 
L 174.793075 224.416809 
L 176.373252 235.31909 
L 177.953429 239.096612 
L 179.533606 243.975686 
L 181.113783 246.552127 
L 182.69396 245.001562 
L 184.274137 243.927488 
L 189.014668 174.128825 
L 190.594845 147.534525 
L 192.175022 123.128885 
L 193.755199 144.560907 
L 195.335376 147.840072 
L 196.915553 167.592735 
L 198.49573 179.804818 
L 200.075907 196.562866 
L 203.236261 209.411471 
L 204.816438 201.047058 
L 206.396615 204.100494 
L 207.976792 200.130046 
L 209.556969 208.696983 
L 211.137146 210.025232 
L 212.717323 216.484912 
L 214.2975 217.856346 
L 215.877677 226.034368 
L 217.457854 223.941296 
L 219.038031 229.479886 
L 220.618208 229.739965 
L 222.198385 228.18071 
L 223.778562 228.472707 
L 225.358739 229.24806 
L 226.938916 229.405513 
L 228.519093 231.607466 
L 230.09927 234.882461 
L 231.679447 231.785771 
L 233.259624 233.878633 
L 234.839801 234.004224 
L 236.419978 240.855365 
L 238.000155 240.137526 
L 239.580332 241.887576 
L 241.160509 242.281904 
L 242.740686 235.331125 
L 244.320863 225.028131 
L 245.90104 235.588241 
L 247.481217 229.904695 
L 249.061394 227.018012 
L 250.641571 229.336656 
L 252.221748 223.831318 
L 253.801925 206.351114 
L 255.382102 197.091109 
L 256.962279 174.940637 
L 258.542456 154.898494 
L 260.122633 145.935926 
L 261.70281 132.4708 
L 263.282987 128.914886 
L 266.443341 164.821225 
L 268.023518 164.769205 
L 269.603695 158.959719 
L 271.183872 156.16435 
L 272.764049 142.785296 
L 274.344226 124.63174 
L 275.924403 124.301808 
L 277.50458 119.474072 
L 279.084757 108.840416 
L 280.664934 103.032755 
L 282.245111 103.460286 
L 283.825288 97.056597 
L 285.405465 97.676551 
L 286.985642 102.150838 
L 288.565819 116.7481 
L 290.145996 114.243049 
L 291.726173 123.495366 
L 293.30635 129.895498 
L 294.886527 141.040979 
L 296.466704 144.470615 
L 298.046881 158.550753 
L 299.627058 167.843638 
L 301.207235 183.40882 
L 302.787412 183.206788 
L 304.367588 179.771721 
L 305.947765 182.969113 
L 307.527942 179.352314 
L 309.108119 172.100109 
L 310.688296 178.026273 
L 312.268473 178.002276 
L 313.84865 176.16304 
L 315.428827 180.983052 
L 317.009004 181.791479 
L 318.589181 179.813194 
L 321.749535 187.148108 
L 323.329712 186.536004 
L 324.909889 185.25233 
L 326.490066 185.72155 
L 328.070243 183.78759 
L 329.65042 182.67566 
L 332.810774 179.60838 
L 334.390951 179.832848 
L 335.971128 182.202964 
L 337.551305 183.254136 
L 339.131482 191.289907 
L 340.711659 196.487729 
L 342.291836 202.873164 
L 343.872013 204.825587 
L 345.45219 207.440371 
L 347.032367 202.469657 
L 348.612544 199.96143 
L 350.192721 187.644062 
L 351.772898 180.988975 
L 353.353075 173.461394 
L 354.933252 174.011768 
L 356.513429 172.345451 
L 358.093606 184.378806 
L 361.25396 203.747246 
L 364.414314 224.31944 
L 367.574668 236.090399 
L 369.154845 240.172669 
L 370.735022 240.86231 
L 372.315199 243.133755 
L 373.895376 243.445419 
L 375.475553 244.414332 
L 377.05573 242.335465 
L 378.635907 237.819064 
L 380.216084 235.341461 
L 381.796261 234.693331 
L 383.376438 229.696207 
L 384.956615 228.164506 
L 386.536792 226.459846 
L 388.116969 222.423999 
L 389.697146 224.384656 
L 391.277323 229.386839 
L 391.277323 229.386839 
" clip-path="url(#p48fad6a7bf)" style="fill: none; stroke: #9467bd; stroke-width: 1.5; stroke-linecap: square"/>
   </g>
   <g id="line2d_24">
    <path d="M 54.699624 236.915144 
L 56.279801 229.856341 
L 57.859978 221.040417 
L 59.440155 215.5885 
L 61.020332 208.938391 
L 64.180686 182.804589 
L 65.760863 165.197508 
L 67.34104 156.799054 
L 68.921217 133.542478 
L 70.501394 114.309696 
L 72.081571 116.020895 
L 73.661748 118.498757 
L 75.241925 133.808053 
L 76.822102 143.873732 
L 67.34104 165.296879 
L 68.921217 185.484897 
L 70.501394 189.75378 
L 72.081571 198.005636 
L 73.661748 203.392185 
L 76.822102 203.485507 
L 78.402279 205.259729 
L 79.982456 211.180853 
L 81.562633 221.189499 
L 83.14281 217.83278 
L 84.722987 222.924212 
L 86.303164 229.336277 
L 87.883341 234.310537 
L 89.463518 233.944235 
L 91.043695 229.861746 
L 92.623872 236.290547 
L 94.204049 237.710037 
L 95.784226 240.705276 
L 97.364403 236.763125 
L 98.94458 231.639244 
L 100.524757 221.392225 
L 102.104934 215.273646 
L 103.685111 202.634097 
L 105.265288 194.150347 
L 106.845465 187.521154 
L 108.425642 192.665762 
L 110.005819 201.301674 
L 111.585996 211.737664 
L 113.166173 218.548546 
L 114.74635 219.697428 
L 116.326527 211.362548 
L 117.906704 203.661534 
L 119.486881 198.331339 
L 121.067058 190.254844 
L 122.647235 185.724112 
L 124.227412 177.935297 
L 125.807588 189.992857 
L 127.387765 207.021969 
L 128.967942 219.32303 
L 130.548119 213.502715 
L 132.128296 213.661118 
L 133.708473 215.895763 
L 135.28865 218.797484 
L 136.868827 207.70086 
L 138.449004 197.892651 
L 140.029181 199.701282 
L 141.609358 203.858939 
L 143.189535 205.944062 
L 144.769712 201.579857 
L 146.349889 198.174244 
L 147.930066 197.430424 
L 149.510243 191.344472 
L 151.09042 175.969845 
L 152.670597 168.633927 
L 154.250774 166.495082 
L 155.830951 170.126402 
L 157.411128 170.413912 
L 158.991305 178.340969 
L 160.571482 187.969313 
L 162.151659 194.11284 
L 163.731836 196.70433 
L 165.312013 195.276798 
L 166.89219 193.076463 
L 168.472367 190.320555 
L 170.052544 196.279199 
L 171.632721 199.440108 
L 173.212898 206.688981 
L 174.793075 218.844767 
L 176.373252 226.12806 
L 177.953429 236.14895 
L 179.533606 242.48537 
L 181.113783 243.864415 
L 182.69396 246.75576 
L 184.274137 242.390389 
L 185.854314 224.459235 
L 187.434491 210.396559 
L 189.014668 188.774788 
L 190.594845 170.478689 
L 192.175022 146.319326 
L 193.755199 129.254707 
L 196.915553 162.515807 
L 200.075907 188.518689 
L 201.656084 196.489795 
L 203.236261 201.772625 
L 204.816438 204.350324 
L 206.396615 204.884143 
L 207.976792 204.639701 
L 209.556969 206.689654 
L 211.137146 207.579049 
L 212.717323 210.533692 
L 214.2975 218.621602 
L 215.877677 223.131988 
L 217.457854 225.816675 
L 219.038031 225.342805 
L 220.618208 227.13996 
L 222.198385 228.266342 
L 223.778562 231.617517 
L 225.358739 228.507924 
L 226.938916 229.854074 
L 228.519093 228.959503 
L 230.09927 232.637539 
L 231.679447 234.52478 
L 233.259624 233.03259 
L 234.839801 233.809133 
L 236.419978 238.645137 
L 238.000155 239.723156 
L 239.580332 240.424315 
L 241.160509 241.747304 
L 242.740686 235.02207 
L 244.320863 231.600131 
L 245.90104 235.297726 
L 247.481217 232.00671 
L 249.061394 229.507438 
L 250.641571 223.437385 
L 252.221748 221.721767 
L 253.801925 221.525586 
L 255.382102 199.676485 
L 256.962279 185.33716 
L 258.542456 164.16733 
L 260.122633 150.872961 
L 261.70281 148.097805 
L 263.282987 134.524404 
L 264.863164 141.388556 
L 266.443341 155.180629 
L 268.023518 159.3341 
L 269.603695 158.887031 
L 271.183872 154.269009 
L 272.764049 152.279484 
L 274.344226 137.245974 
L 275.924403 125.085357 
L 277.50458 120.59118 
L 279.084757 112.294857 
L 282.245111 104.04188 
L 283.825288 102.407123 
L 285.405465 98.231537 
L 286.985642 97.457308 
L 288.565819 114.68193 
L 290.145996 113.381254 
L 291.726173 119.312948 
L 293.30635 125.802409 
L 294.886527 134.25013 
L 296.466704 148.539013 
L 298.046881 149.420695 
L 299.627058 163.935785 
L 301.207235 176.548393 
L 302.787412 178.796948 
L 304.367588 180.094732 
L 305.947765 181.23045 
L 307.527942 180.894658 
L 309.108119 179.907299 
L 310.688296 174.180371 
L 312.268473 175.676138 
L 313.84865 178.259389 
L 315.428827 179.217468 
L 317.009004 181.935054 
L 318.589181 180.547901 
L 320.169358 180.424941 
L 321.749535 185.907913 
L 323.329712 187.735242 
L 324.909889 185.478158 
L 326.490066 183.858895 
L 328.070243 183.730611 
L 329.65042 185.136087 
L 331.230597 182.726741 
L 332.810774 179.684909 
L 334.390951 179.312274 
L 335.971128 180.762885 
L 337.551305 184.695908 
L 339.131482 189.93964 
L 340.711659 192.760842 
L 342.291836 199.014513 
L 343.872013 201.774794 
L 345.45219 205.687512 
L 347.032367 205.381751 
L 348.612544 199.947414 
L 351.772898 183.630887 
L 353.353075 180.249168 
L 354.933252 177.643528 
L 356.513429 174.807967 
L 358.093606 178.139445 
L 361.25396 199.578267 
L 362.834137 211.375017 
L 364.414314 217.847466 
L 365.994491 226.230627 
L 369.154845 237.802896 
L 370.735022 241.208791 
L 372.315199 241.815295 
L 373.895376 242.134437 
L 375.475553 243.911864 
L 377.05573 242.938037 
L 378.635907 239.275657 
L 380.216084 237.290457 
L 383.376438 232.668733 
L 384.956615 229.364052 
L 386.536792 225.762931 
L 388.116969 224.560886 
L 389.697146 226.004756 
L 391.277323 228.169644 
L 391.277323 228.169644 
" clip-path="url(#p48fad6a7bf)" style="fill: none; stroke: #8c564b; stroke-width: 1.5; stroke-linecap: square"/>
   </g>
   <g id="line2d_25">
    <path d="M 56.279801 232.477684 
L 57.859978 226.16085 
L 59.440155 219.029124 
L 61.020332 210.123474 
L 62.600509 204.175587 
L 64.180686 188.322586 
L 65.760863 170.843024 
L 67.34104 163.925463 
L 68.921217 146.134584 
L 70.501394 123.556924 
L 72.081571 124.977138 
L 73.661748 120.877739 
L 75.241925 126.319137 
L 76.822102 145.669655 
L 67.34104 153.907122 
L 70.501394 188.210452 
L 72.081571 191.8062 
L 73.661748 198.803284 
L 75.241925 203.405521 
L 76.822102 203.485507 
L 78.402279 205.007856 
L 79.982456 210.111956 
L 81.562633 218.826981 
L 83.14281 215.891344 
L 84.722987 220.349352 
L 87.883341 231.622996 
L 89.463518 234.150851 
L 91.043695 233.954995 
L 92.623872 229.64113 
L 94.204049 237.225438 
L 95.784226 240.988142 
L 97.364403 237.872896 
L 98.94458 231.861909 
L 100.524757 223.297546 
L 102.104934 217.237348 
L 103.685111 209.355604 
L 105.265288 206.126015 
L 106.845465 192.492593 
L 108.425642 193.179596 
L 110.005819 195.568836 
L 111.585996 208.68699 
L 113.166173 212.319635 
L 114.74635 220.485212 
L 116.326527 207.579301 
L 117.906704 206.563183 
L 119.486881 200.333666 
L 121.067058 199.835777 
L 122.647235 190.470295 
L 124.227412 187.118577 
L 125.807588 179.719424 
L 127.387765 202.696703 
L 128.967942 214.257504 
L 130.548119 212.800812 
L 132.128296 210.766382 
L 133.708473 213.153475 
L 135.28865 215.090119 
L 136.868827 216.587873 
L 138.449004 206.949297 
L 140.029181 195.170031 
L 141.609358 202.348862 
L 143.189535 206.54075 
L 144.769712 202.839094 
L 146.349889 198.777283 
L 147.930066 198.143324 
L 149.510243 189.458213 
L 151.09042 182.686204 
L 152.670597 177.565209 
L 154.250774 168.877575 
L 155.830951 171.664726 
L 157.411128 174.685858 
L 158.991305 172.252988 
L 160.571482 179.612062 
L 162.151659 193.090374 
L 163.731836 193.23068 
L 165.312013 195.865067 
L 166.89219 193.993998 
L 168.472367 189.276209 
L 170.052544 194.994193 
L 171.632721 202.614784 
L 173.212898 204.159583 
L 174.793075 215.217548 
L 176.373252 221.196833 
L 177.953429 228.269747 
L 179.533606 239.573937 
L 181.113783 242.60307 
L 182.69396 244.433553 
L 184.274137 244.316233 
L 185.854314 225.921218 
L 187.434491 215.216848 
L 189.014668 201.766519 
L 193.755199 147.917677 
L 195.335376 133.214037 
L 196.915553 159.35422 
L 198.49573 170.096613 
L 200.075907 183.682749 
L 201.656084 189.631901 
L 203.236261 196.214305 
L 204.816438 198.326376 
L 206.396615 207.105006 
L 207.976792 205.23227 
L 209.556969 209.4751 
L 211.137146 206.006855 
L 212.717323 208.37551 
L 214.2975 213.322819 
L 215.877677 223.023065 
L 217.457854 223.36052 
L 219.038031 226.734334 
L 220.618208 223.868682 
L 222.198385 226.22465 
L 223.778562 231.20525 
L 225.358739 231.203921 
L 226.938916 229.137101 
L 228.519093 229.409483 
L 230.09927 230.247222 
L 233.259624 235.181331 
L 234.839801 233.093891 
L 236.419978 237.836934 
L 238.000155 237.973193 
L 239.580332 240.029375 
L 241.160509 240.51289 
L 242.740686 235.604671 
L 244.320863 231.868232 
L 245.90104 239.05828 
L 247.481217 232.26953 
L 249.061394 231.375291 
L 250.641571 226.16085 
L 252.221748 217.47091 
L 253.801925 220.017598 
L 255.382102 214.411244 
L 256.962279 189.472133 
L 258.542456 175.255129 
L 260.122633 159.590986 
L 261.70281 151.986926 
L 263.282987 147.583949 
L 264.863164 144.211144 
L 266.443341 149.163796 
L 268.023518 151.660351 
L 269.603695 154.947424 
L 271.183872 154.883308 
L 272.764049 151.18473 
L 274.344226 146.427898 
L 275.924403 135.86148 
L 277.50458 121.807832 
L 279.084757 114.321997 
L 282.245111 108.186752 
L 283.825288 103.058508 
L 285.405465 102.63771 
L 286.985642 97.96482 
L 288.565819 109.112638 
L 290.145996 112.071348 
L 291.726173 117.872939 
L 293.30635 121.929841 
L 294.886527 130.197797 
L 296.466704 141.883986 
L 298.046881 152.132757 
L 299.627058 155.597394 
L 301.207235 172.150014 
L 302.787412 173.44178 
L 304.367588 176.701282 
L 305.947765 181.297492 
L 307.527942 179.685308 
L 309.108119 181.146849 
L 310.688296 180.523487 
L 312.268473 172.678864 
L 313.84865 176.23406 
L 315.428827 180.552088 
L 317.009004 180.295933 
L 318.589181 180.850197 
L 320.169358 180.965415 
L 321.749535 182.888656 
L 323.329712 186.593036 
L 324.909889 186.665029 
L 326.490066 184.254037 
L 328.070243 182.402262 
L 329.65042 184.895794 
L 331.230597 184.830346 
L 332.810774 181.301816 
L 334.390951 179.420325 
L 335.971128 180.186736 
L 337.551305 183.127383 
L 339.131482 190.190883 
L 340.711659 191.406024 
L 342.291836 195.522206 
L 343.872013 198.606924 
L 345.45219 202.970449 
L 347.032367 204.154762 
L 348.612544 202.855062 
L 350.192721 193.009788 
L 353.353075 182.632501 
L 354.933252 182.752318 
L 356.513429 177.798748 
L 358.093606 179.369826 
L 359.673783 183.095827 
L 362.834137 206.942724 
L 364.414314 215.076915 
L 365.994491 220.526635 
L 367.574668 228.546758 
L 369.154845 234.230273 
L 370.735022 239.055402 
L 372.315199 241.974017 
L 373.895376 241.137389 
L 375.475553 242.728433 
L 377.05573 242.713368 
L 378.635907 240.252566 
L 380.216084 238.622617 
L 381.796261 236.789617 
L 383.376438 233.293248 
L 384.956615 231.972745 
L 386.536792 227.160408 
L 388.116969 224.227528 
L 389.697146 227.280557 
L 391.277323 228.983281 
L 391.277323 228.983281 
" clip-path="url(#p48fad6a7bf)" style="fill: none; stroke: #e377c2; stroke-width: 1.5; stroke-linecap: square"/>
   </g>
   <g id="patch_3">
    <path d="M 35.7375 284.991437 
L 35.7375 18.879437 
" style="fill: none; stroke: #000000; stroke-width: 0.8; stroke-linejoin: miter; stroke-linecap: square"/>
   </g>
   <g id="patch_4">
    <path d="M 392.8575 284.991437 
L 392.8575 18.879437 
" style="fill: none; stroke: #000000; stroke-width: 0.8; stroke-linejoin: miter; stroke-linecap: square"/>
   </g>
   <g id="patch_5">
    <path d="M 35.7375 284.991437 
L 392.8575 284.991437 
" style="fill: none; stroke: #000000; stroke-width: 0.8; stroke-linejoin: miter; stroke-linecap: square"/>
   </g>
   <g id="patch_6">
    <path d="M 35.7375 18.879437 
L 392.8575 18.879437 
" style="fill: none; stroke: #000000; stroke-width: 0.8; stroke-linejoin: miter; stroke-linecap: square"/>
   </g>
   <g id="legend_1">
    <g id="patch_7">
     <path d="M 347.559063 127.613812 
L 385.8575 127.613812 
Q 387.8575 127.613812 387.8575 125.613812 
L 387.8575 25.879437 
Q 387.8575 23.879437 385.8575 23.879437 
L 347.559063 23.879437 
Q 345.559063 23.879437 345.559063 25.879437 
L 345.559063 125.613812 
Q 345.559063 127.613812 347.559063 127.613812 
z
" style="fill: #ffffff; opacity: 0.8; stroke: #cccccc; stroke-linejoin: miter"/>
    </g>
    <g id="line2d_26">
     <path d="M 349.559063 31.870062 
L 359.559063 31.870062 
L 369.559063 31.870062 
" style="fill: none; stroke: #1f77b4; stroke-width: 1.5; stroke-linecap: square"/>
    </g>
    <g id="text_19">
     <!-- 1 -->
     <g transform="translate(377.559063 35.370062)scale(0.1 -0.1)">
      <use xlink:href="#IPAexGothic-31"/>
     </g>
    </g>
    <g id="line2d_27">
     <path d="M 349.559063 46.260687 
L 359.559063 46.260687 
L 369.559063 46.260687 
" style="fill: none; stroke: #ff7f0e; stroke-width: 1.5; stroke-linecap: square"/>
    </g>
    <g id="text_20">
     <!-- 2 -->
     <g transform="translate(377.559063 49.760687)scale(0.1 -0.1)">
      <use xlink:href="#IPAexGothic-32"/>
     </g>
    </g>
    <g id="line2d_28">
     <path d="M 349.559063 60.651312 
L 359.559063 60.651312 
L 369.559063 60.651312 
" style="fill: none; stroke: #2ca02c; stroke-width: 1.5; stroke-linecap: square"/>
    </g>
    <g id="text_21">
     <!-- 3 -->
     <g transform="translate(377.559063 64.151312)scale(0.1 -0.1)">
      <defs>
       <path id="IPAexGothic-33" d="M 2381 2419 
Q 3506 2216 3506 1278 
Q 3506 716 3128 356 
Q 2709 -31 1944 -31 
Q 797 -31 288 881 
L 756 1131 
Q 1109 441 1938 441 
Q 2425 441 2694 691 
Q 2950 928 2950 1291 
Q 2950 1719 2566 1978 
Q 2216 2213 1644 2213 
L 1363 2213 
L 1363 2669 
L 1656 2669 
Q 2231 2669 2534 2888 
Q 2859 3119 2859 3509 
Q 2859 3934 2494 4138 
Q 2259 4278 1931 4278 
Q 1238 4278 903 3578 
L 434 3803 
Q 897 4725 1938 4725 
Q 2597 4725 3006 4394 
Q 3416 4069 3416 3534 
Q 3416 3028 3019 2706 
Q 2763 2500 2381 2444 
L 2381 2419 
z
" transform="scale(0.015625)"/>
      </defs>
      <use xlink:href="#IPAexGothic-33"/>
     </g>
    </g>
    <g id="line2d_29">
     <path d="M 349.559063 75.041937 
L 359.559063 75.041937 
L 369.559063 75.041937 
" style="fill: none; stroke: #d62728; stroke-width: 1.5; stroke-linecap: square"/>
    </g>
    <g id="text_22">
     <!-- 4 -->
     <g transform="translate(377.559063 78.541937)scale(0.1 -0.1)">
      <defs>
       <path id="IPAexGothic-34" d="M 3813 1159 
L 3059 1159 
L 3059 63 
L 2547 63 
L 2547 1159 
L 197 1159 
L 197 1672 
L 2456 4678 
L 3059 4678 
L 3059 1634 
L 3813 1634 
L 3813 1159 
z
M 2578 4109 
L 2559 4109 
Q 2278 3656 2003 3284 
L 759 1634 
L 2547 1634 
L 2547 3144 
Q 2547 3481 2578 4109 
z
" transform="scale(0.015625)"/>
      </defs>
      <use xlink:href="#IPAexGothic-34"/>
     </g>
    </g>
    <g id="line2d_30">
     <path d="M 349.559063 89.432562 
L 359.559063 89.432562 
L 369.559063 89.432562 
" style="fill: none; stroke: #9467bd; stroke-width: 1.5; stroke-linecap: square"/>
    </g>
    <g id="text_23">
     <!-- 5 -->
     <g transform="translate(377.559063 92.932562)scale(0.1 -0.1)">
      <use xlink:href="#IPAexGothic-35"/>
     </g>
    </g>
    <g id="line2d_31">
     <path d="M 349.559063 103.823187 
L 359.559063 103.823187 
L 369.559063 103.823187 
" style="fill: none; stroke: #8c564b; stroke-width: 1.5; stroke-linecap: square"/>
    </g>
    <g id="text_24">
     <!-- 6 -->
     <g transform="translate(377.559063 107.323187)scale(0.1 -0.1)">
      <defs>
       <path id="IPAexGothic-36" d="M 1056 2328 
Q 1509 2981 2234 2981 
Q 2906 2981 3316 2513 
Q 3675 2106 3675 1522 
Q 3675 884 3272 434 
Q 2853 -31 2178 -31 
Q 1375 -31 922 581 
Q 481 1178 481 2228 
Q 481 3425 1013 4109 
Q 1494 4725 2272 4725 
Q 3191 4725 3609 4025 
L 3150 3775 
Q 2894 4266 2300 4266 
Q 1119 4266 1031 2328 
L 1056 2328 
z
M 2141 2547 
Q 1684 2547 1384 2206 
Q 1116 1900 1116 1541 
Q 1116 1156 1353 844 
Q 1672 428 2159 428 
Q 2669 428 2941 844 
Q 3125 1128 3125 1503 
Q 3125 1944 2881 2228 
Q 2600 2547 2141 2547 
z
" transform="scale(0.015625)"/>
      </defs>
      <use xlink:href="#IPAexGothic-36"/>
     </g>
    </g>
    <g id="line2d_32">
     <path d="M 349.559063 118.213812 
L 359.559063 118.213812 
L 369.559063 118.213812 
" style="fill: none; stroke: #e377c2; stroke-width: 1.5; stroke-linecap: square"/>
    </g>
    <g id="text_25">
     <!-- 7 -->
     <g transform="translate(377.559063 121.713812)scale(0.1 -0.1)">
      <use xlink:href="#IPAexGothic-37"/>
     </g>
    </g>
   </g>
  </g>
  <g id="axes_2">
   <g id="matplotlib.axis_3"/>
   <g id="patch_8">
    <path d="M 35.7375 284.991437 
L 35.7375 18.879437 
" style="fill: none; stroke: #000000; stroke-width: 0.8; stroke-linejoin: miter; stroke-linecap: square"/>
   </g>
   <g id="patch_9">
    <path d="M 392.8575 284.991437 
L 392.8575 18.879437 
" style="fill: none; stroke: #000000; stroke-width: 0.8; stroke-linejoin: miter; stroke-linecap: square"/>
   </g>
   <g id="patch_10">
    <path d="M 35.7375 284.991437 
L 392.8575 284.991437 
" style="fill: none; stroke: #000000; stroke-width: 0.8; stroke-linejoin: miter; stroke-linecap: square"/>
   </g>
   <g id="patch_11">
    <path d="M 35.7375 18.879437 
L 392.8575 18.879437 
" style="fill: none; stroke: #000000; stroke-width: 0.8; stroke-linejoin: miter; stroke-linecap: square"/>
   </g>
  </g>
  <g id="text_26">
   <!-- : 2022/09/14 15:50:55(JST) -->
   <g transform="translate(217.385625 15.423437)scale(0.1 -0.1)">
    <defs>
     <path id="IPAexGothic-66f4" d="M 2956 3994 
L 2956 4588 
L 513 4588 
L 513 4984 
L 5881 4984 
L 5881 4588 
L 3413 4588 
L 3413 3994 
L 5300 3994 
L 5300 1288 
L 4838 1288 
L 4838 1759 
L 3406 1759 
Q 3384 1125 3150 709 
Q 4291 244 5997 31 
L 5694 -428 
Q 4109 -166 2906 384 
Q 2294 -266 744 -488 
L 494 -66 
Q 1903 59 2491 588 
Q 2041 813 1594 1166 
L 1928 1434 
Q 2331 1106 2747 897 
Q 2922 1219 2950 1759 
L 1556 1759 
L 1556 1413 
L 1097 1413 
L 1097 3994 
L 2956 3994 
z
M 2956 3609 
L 1556 3609 
L 1556 3078 
L 2956 3078 
L 2956 3609 
z
M 3413 3609 
L 3413 3078 
L 4838 3078 
L 4838 3609 
L 3413 3609 
z
M 2956 2700 
L 1556 2700 
L 1556 2144 
L 2956 2144 
L 2956 2700 
z
M 3413 2700 
L 3413 2144 
L 4838 2144 
L 4838 2700 
L 3413 2700 
z
" transform="scale(0.015625)"/>
     <path id="IPAexGothic-65b0" d="M 3891 2803 
Q 3881 1759 3794 1166 
Q 3653 197 3097 -563 
L 2741 -250 
Q 3450 700 3450 2631 
L 3450 4647 
Q 3516 4656 3622 4666 
Q 4656 4778 5447 5063 
L 5825 4678 
Q 4897 4419 3891 4294 
L 3891 3219 
L 6119 3219 
L 6119 2803 
L 5275 2803 
L 5275 -447 
L 4834 -447 
L 4834 2803 
L 3891 2803 
z
M 2822 4069 
Q 2678 3572 2519 3181 
L 3250 3181 
L 3250 2784 
L 2059 2784 
L 2059 2216 
L 3184 2216 
L 3184 1831 
L 2059 1831 
L 2059 1544 
Q 2613 1197 3031 847 
L 2781 456 
Q 2472 791 2059 1128 
L 2059 -447 
L 1644 -447 
L 1644 1294 
Q 1272 628 575 -31 
L 269 341 
Q 1041 938 1528 1831 
L 453 1831 
L 453 2216 
L 1644 2216 
L 1644 2784 
L 319 2784 
L 319 3181 
L 1125 3181 
Q 1013 3706 881 4069 
L 453 4069 
L 453 4453 
L 1631 4453 
L 1631 5309 
L 2072 5309 
L 2072 4453 
L 3166 4453 
L 3166 4069 
L 2822 4069 
z
M 2391 4069 
L 1325 4069 
Q 1450 3672 1534 3181 
L 2109 3181 
Q 2294 3659 2391 4069 
z
" transform="scale(0.015625)"/>
     <path id="IPAexGothic-65e5" d="M 5231 4800 
L 5231 -288 
L 4744 -288 
L 4744 128 
L 1647 128 
L 1647 -288 
L 1159 -288 
L 1159 4800 
L 5231 4800 
z
M 1647 4372 
L 1647 2731 
L 4744 2731 
L 4744 4372 
L 1647 4372 
z
M 1647 2297 
L 1647 556 
L 4744 556 
L 4744 2297 
L 1647 2297 
z
" transform="scale(0.015625)"/>
     <path id="IPAexGothic-6642" d="M 2328 4728 
L 2328 563 
L 934 563 
L 934 56 
L 519 56 
L 519 4728 
L 2328 4728 
z
M 934 4331 
L 934 2881 
L 1906 2881 
L 1906 4331 
L 934 4331 
z
M 934 2497 
L 934 953 
L 1906 953 
L 1906 2497 
L 934 2497 
z
M 3938 4372 
L 3938 5313 
L 4378 5313 
L 4378 4372 
L 5772 4372 
L 5772 3981 
L 4378 3981 
L 4378 3194 
L 6072 3194 
L 6072 2803 
L 5203 2803 
L 5203 2047 
L 5959 2047 
L 5959 1650 
L 5216 1650 
L 5216 31 
Q 5216 -447 4691 -447 
Q 4394 -447 3888 -391 
L 3784 78 
Q 4272 0 4591 0 
Q 4775 0 4775 172 
L 4775 1650 
L 2581 1650 
L 2581 2047 
L 4763 2047 
L 4763 2803 
L 2538 2803 
L 2538 3194 
L 3938 3194 
L 3938 3981 
L 2716 3981 
L 2716 4372 
L 3938 4372 
z
M 3669 384 
Q 3331 950 2956 1325 
L 3291 1575 
Q 3719 1147 4025 659 
L 3669 384 
z
" transform="scale(0.015625)"/>
     <path id="IPAexGothic-3a" d="M 1369 2559 
L 672 2559 
L 672 3250 
L 1369 3250 
L 1369 2559 
z
M 1369 63 
L 672 63 
L 672 753 
L 1369 753 
L 1369 63 
z
" transform="scale(0.015625)"/>
     <path id="IPAexGothic-20" transform="scale(0.015625)"/>
     <path id="IPAexGothic-2f" d="M 2719 4709 
L 600 -884 
L 300 -763 
L 2413 4831 
L 2719 4709 
z
" transform="scale(0.015625)"/>
     <path id="IPAexGothic-39" d="M 2984 2356 
Q 2544 1716 1813 1716 
Q 1253 1716 847 2056 
Q 366 2459 366 3163 
Q 366 3813 769 4266 
Q 1181 4725 1869 4725 
Q 2800 4725 3241 3950 
Q 3559 3378 3559 2472 
Q 3559 1250 3041 588 
Q 2553 -31 1769 -31 
Q 859 -31 391 703 
L 853 953 
Q 1156 428 1753 428 
Q 2922 428 3009 2356 
L 2984 2356 
z
M 1888 4278 
Q 1450 4278 1172 3950 
Q 922 3653 922 3200 
Q 922 2741 1159 2478 
Q 1434 2163 1906 2163 
Q 2431 2163 2728 2572 
Q 2925 2847 2925 3169 
Q 2925 3553 2694 3863 
Q 2375 4278 1888 4278 
z
" transform="scale(0.015625)"/>
     <path id="IPAexGothic-28" d="M 1928 -1016 
L 1653 -1166 
Q 488 69 488 1875 
Q 488 3678 1653 4909 
L 1928 4763 
Q 1006 3522 1006 1881 
Q 1006 203 1928 -1016 
z
" transform="scale(0.015625)"/>
     <path id="IPAexGothic-54" d="M 3866 4141 
L 2175 4141 
L 2175 63 
L 1606 63 
L 1606 4141 
L -31 4141 
L -31 4634 
L 3866 4634 
L 3866 4141 
z
" transform="scale(0.015625)"/>
     <path id="IPAexGothic-29" d="M 466 4909 
Q 1638 3672 1638 1875 
Q 1638 75 466 -1166 
L 191 -1016 
Q 1119 216 1119 1881 
Q 1119 3509 191 4763 
L 466 4909 
z
" transform="scale(0.015625)"/>
    </defs>
    <use xlink:href="#IPAexGothic-66f4"/>
    <use xlink:href="#IPAexGothic-65b0" x="100"/>
    <use xlink:href="#IPAexGothic-65e5" x="200"/>
    <use xlink:href="#IPAexGothic-6642" x="300"/>
    <use xlink:href="#IPAexGothic-3a" x="400"/>
    <use xlink:href="#IPAexGothic-20" x="431.982422"/>
    <use xlink:href="#IPAexGothic-32" x="458.984375"/>
    <use xlink:href="#IPAexGothic-30" x="521.972656"/>
    <use xlink:href="#IPAexGothic-32" x="584.960938"/>
    <use xlink:href="#IPAexGothic-32" x="647.949219"/>
    <use xlink:href="#IPAexGothic-2f" x="710.9375"/>
    <use xlink:href="#IPAexGothic-30" x="760.9375"/>
    <use xlink:href="#IPAexGothic-39" x="823.925781"/>
    <use xlink:href="#IPAexGothic-2f" x="886.914062"/>
    <use xlink:href="#IPAexGothic-31" x="936.914062"/>
    <use xlink:href="#IPAexGothic-34" x="999.902344"/>
    <use xlink:href="#IPAexGothic-20" x="1062.890625"/>
    <use xlink:href="#IPAexGothic-31" x="1089.892578"/>
    <use xlink:href="#IPAexGothic-35" x="1152.880859"/>
    <use xlink:href="#IPAexGothic-3a" x="1215.869141"/>
    <use xlink:href="#IPAexGothic-35" x="1247.851562"/>
    <use xlink:href="#IPAexGothic-30" x="1310.839844"/>
    <use xlink:href="#IPAexGothic-3a" x="1373.828125"/>
    <use xlink:href="#IPAexGothic-35" x="1405.810547"/>
    <use xlink:href="#IPAexGothic-35" x="1468.798828"/>
    <use xlink:href="#IPAexGothic-28" x="1531.787109"/>
    <use xlink:href="#IPAexGothic-4a" x="1565.087891"/>
    <use xlink:href="#IPAexGothic-53" x="1603.076172"/>
    <use xlink:href="#IPAexGothic-54" x="1661.572266"/>
    <use xlink:href="#IPAexGothic-29" x="1721.484375"/>
   </g>
  </g>
 </g>
 <defs>
  <clipPath id="p48fad6a7bf">
   <rect x="35.7375" y="18.879437" width="357.12" height="266.112"/>
  </clipPath>
 </defs>
</svg>
