<?xml version="1.0" encoding="utf-8" standalone="no"?>
<!DOCTYPE svg PUBLIC "-//W3C//DTD SVG 1.1//EN"
  "http://www.w3.org/Graphics/SVG/1.1/DTD/svg11.dtd">
<svg xmlns:xlink="http://www.w3.org/1999/xlink" width="403.5575pt" height="320.972687pt" viewBox="0 0 403.5575 320.972687" xmlns="http://www.w3.org/2000/svg" version="1.1">
 <metadata>
  <rdf:RDF xmlns:dc="http://purl.org/dc/elements/1.1/" xmlns:cc="http://creativecommons.org/ns#" xmlns:rdf="http://www.w3.org/1999/02/22-rdf-syntax-ns#">
   <cc:Work>
    <dc:type rdf:resource="http://purl.org/dc/dcmitype/StillImage"/>
    <dc:date>2022-07-17T03:34:17.297415</dc:date>
    <dc:format>image/svg+xml</dc:format>
    <dc:creator>
     <cc:Agent>
      <dc:title>Matplotlib v3.5.2, https://matplotlib.org/</dc:title>
     </cc:Agent>
    </dc:creator>
   </cc:Work>
  </rdf:RDF>
 </metadata>
 <defs>
  <style type="text/css">*{stroke-linejoin: round; stroke-linecap: butt}</style>
 </defs>
 <g id="figure_1">
  <g id="patch_1">
   <path d="M 0 320.972687 
L 403.5575 320.972687 
L 403.5575 0 
L 0 0 
z
" style="fill: #ffffff"/>
  </g>
  <g id="axes_1">
   <g id="patch_2">
    <path d="M 35.7375 284.991437 
L 392.8575 284.991437 
L 392.8575 18.879437 
L 35.7375 18.879437 
z
" style="fill: #ffffff"/>
   </g>
   <g id="line2d_1">
    <path d="M 35.7375 203.485507 
L 392.8575 203.485507 
" clip-path="url(#p8ba345d475)" style="fill: none; stroke: #000000; stroke-linecap: square"/>
   </g>
   <g id="matplotlib.axis_1">
    <g id="xtick_1">
     <g id="line2d_2">
      <defs>
       <path id="m7e2a885602" d="M 0 0 
L 0 3.5 
" style="stroke: #000000; stroke-width: 0.8"/>
      </defs>
      <g>
       <use xlink:href="#m7e2a885602" x="35.7375" y="284.991437" style="stroke: #000000; stroke-width: 0.8"/>
      </g>
     </g>
     <g id="text_1">
      <!-- Feb -->
      <g transform="translate(26.914063 299.482062)scale(0.1 -0.1)">
       <defs>
        <path id="IPAexGothic-46" d="M 3469 4141 
L 1172 4141 
L 1172 2656 
L 3206 2656 
L 3206 2188 
L 1172 2188 
L 1172 63 
L 609 63 
L 609 4634 
L 3469 4634 
L 3469 4141 
z
" transform="scale(0.015625)"/>
        <path id="IPAexGothic-65" d="M 863 1594 
Q 891 1041 1209 722 
Q 1534 397 1997 397 
Q 2606 397 2963 966 
L 3322 728 
Q 2869 -31 1931 -31 
Q 1222 -31 766 422 
Q 306 884 306 1641 
Q 306 2444 788 2925 
Q 1216 3353 1856 3353 
Q 2459 3353 2866 2956 
Q 3322 2494 3322 1722 
L 3322 1594 
L 863 1594 
z
M 2756 1997 
Q 2709 2431 2450 2681 
Q 2194 2938 1844 2938 
Q 1438 2938 1150 2591 
Q 953 2356 894 1997 
L 2756 1997 
z
" transform="scale(0.015625)"/>
        <path id="IPAexGothic-62" d="M 1125 2731 
Q 1550 3341 2219 3341 
Q 2788 3341 3191 2938 
Q 3659 2469 3659 1644 
Q 3659 838 3191 372 
Q 2788 -31 2206 -31 
Q 1559 -31 1088 516 
L 1009 44 
L 581 44 
L 581 4794 
L 1125 4794 
L 1125 2731 
z
M 1125 1997 
L 1125 1253 
Q 1125 888 1528 600 
Q 1803 403 2119 403 
Q 2488 403 2744 659 
Q 3084 1009 3084 1631 
Q 3084 2194 2803 2553 
Q 2525 2900 2125 2900 
Q 1759 2900 1438 2578 
Q 1125 2266 1125 1997 
z
" transform="scale(0.015625)"/>
       </defs>
       <use xlink:href="#IPAexGothic-46"/>
       <use xlink:href="#IPAexGothic-65" x="57.177734"/>
       <use xlink:href="#IPAexGothic-62" x="114.0625"/>
      </g>
     </g>
    </g>
    <g id="xtick_2">
     <g id="line2d_3">
      <g>
       <use xlink:href="#m7e2a885602" x="95.613907" y="284.991437" style="stroke: #000000; stroke-width: 0.8"/>
      </g>
     </g>
     <g id="text_2">
      <!-- Mar -->
      <g transform="translate(86.504532 299.482062)scale(0.1 -0.1)">
       <defs>
        <path id="IPAexGothic-4d" d="M 5147 63 
L 4597 63 
L 4597 2534 
Q 4597 3281 4634 4134 
L 4609 4134 
Q 4356 3409 4066 2675 
L 3066 209 
L 2650 209 
L 1641 2725 
Q 1328 3506 1128 4141 
L 1103 4141 
Q 1141 3131 1141 2553 
L 1141 63 
L 609 63 
L 609 4634 
L 1416 4634 
L 2503 1944 
Q 2697 1472 2869 906 
L 2888 906 
Q 3028 1416 3234 1931 
L 4316 4634 
L 5147 4634 
L 5147 63 
z
" transform="scale(0.015625)"/>
        <path id="IPAexGothic-61" d="M 3156 63 
L 2672 63 
Q 2559 303 2531 556 
L 2509 556 
Q 2147 -25 1428 -25 
Q 934 -25 622 288 
Q 347 563 347 959 
Q 347 1947 2050 1997 
L 2478 2009 
L 2478 2175 
Q 2478 2509 2288 2700 
Q 2088 2900 1775 2900 
Q 1238 2900 969 2378 
L 494 2597 
Q 938 3328 1788 3328 
Q 2375 3328 2691 3000 
Q 2984 2706 2984 2169 
L 2984 997 
Q 2984 400 3156 63 
z
M 2491 1625 
L 2141 1619 
Q 903 1591 903 953 
Q 903 728 1050 581 
Q 1231 403 1525 403 
Q 1934 403 2234 703 
Q 2491 969 2491 1344 
L 2491 1625 
z
" transform="scale(0.015625)"/>
        <path id="IPAexGothic-72" d="M 2309 3316 
L 2213 2769 
Q 2106 2791 2022 2791 
Q 1653 2791 1413 2444 
Q 1113 2006 1113 1675 
L 1113 63 
L 563 63 
L 563 3250 
L 1081 3250 
L 1056 2303 
L 1069 2303 
Q 1422 3341 2097 3341 
Q 2206 3341 2309 3316 
z
" transform="scale(0.015625)"/>
       </defs>
       <use xlink:href="#IPAexGothic-4d"/>
       <use xlink:href="#IPAexGothic-61" x="90.185547"/>
       <use xlink:href="#IPAexGothic-72" x="145.166016"/>
      </g>
     </g>
    </g>
    <g id="xtick_3">
     <g id="line2d_4">
      <g>
       <use xlink:href="#m7e2a885602" x="161.905644" y="284.991437" style="stroke: #000000; stroke-width: 0.8"/>
      </g>
     </g>
     <g id="text_3">
      <!-- Apr -->
      <g transform="translate(153.763456 299.482062)scale(0.1 -0.1)">
       <defs>
        <path id="IPAexGothic-41" d="M 4056 63 
L 3444 63 
L 2938 1409 
L 1100 1409 
L 603 63 
L -6 63 
L 1806 4666 
L 2259 4666 
L 4056 63 
z
M 2778 1863 
L 2316 3078 
Q 2125 3588 2028 4000 
L 2009 4000 
Q 1897 3563 1716 3078 
L 1263 1863 
L 2778 1863 
z
" transform="scale(0.015625)"/>
        <path id="IPAexGothic-70" d="M 1075 2688 
Q 1525 3341 2206 3341 
Q 2769 3341 3172 2938 
Q 3641 2469 3641 1644 
Q 3641 841 3178 372 
Q 2775 -31 2200 -31 
Q 1569 -31 1106 497 
L 1106 -1216 
L 563 -1216 
L 563 3250 
L 1075 3250 
L 1075 2688 
z
M 1106 1950 
L 1106 1291 
Q 1106 897 1516 600 
Q 1791 403 2106 403 
Q 2469 403 2725 659 
Q 3066 997 3066 1631 
Q 3066 2200 2784 2559 
Q 2503 2900 2100 2900 
Q 1656 2900 1338 2484 
Q 1106 2184 1106 1950 
z
" transform="scale(0.015625)"/>
       </defs>
       <use xlink:href="#IPAexGothic-41"/>
       <use xlink:href="#IPAexGothic-70" x="63.720703"/>
       <use xlink:href="#IPAexGothic-72" x="125.830078"/>
      </g>
     </g>
    </g>
    <g id="xtick_4">
     <g id="line2d_5">
      <g>
       <use xlink:href="#m7e2a885602" x="226.058937" y="284.991437" style="stroke: #000000; stroke-width: 0.8"/>
      </g>
     </g>
     <g id="text_4">
      <!-- May -->
      <g transform="translate(216.339406 299.482062)scale(0.1 -0.1)">
       <defs>
        <path id="IPAexGothic-79" d="M 3122 3250 
L 1575 -488 
Q 1278 -1203 550 -1203 
L 478 -1203 
L 344 -703 
L 447 -703 
Q 969 -703 1150 -238 
L 1356 275 
L 38 3250 
L 659 3250 
L 1363 1459 
Q 1528 1025 1606 781 
L 1625 781 
Q 1750 1169 1863 1459 
L 2528 3250 
L 3122 3250 
z
" transform="scale(0.015625)"/>
       </defs>
       <use xlink:href="#IPAexGothic-4d"/>
       <use xlink:href="#IPAexGothic-61" x="90.185547"/>
       <use xlink:href="#IPAexGothic-79" x="145.166016"/>
      </g>
     </g>
    </g>
    <g id="xtick_5">
     <g id="line2d_6">
      <g>
       <use xlink:href="#m7e2a885602" x="292.350674" y="284.991437" style="stroke: #000000; stroke-width: 0.8"/>
      </g>
     </g>
     <g id="text_5">
      <!-- Jun -->
      <g transform="translate(284.41083 299.482062)scale(0.1 -0.1)">
       <defs>
        <path id="IPAexGothic-4a" d="M 1819 4634 
L 1819 1234 
Q 1819 -31 763 -31 
Q 303 -31 -125 209 
L 84 644 
Q 378 447 694 447 
Q 1250 447 1250 1203 
L 1250 4634 
L 1819 4634 
z
" transform="scale(0.015625)"/>
        <path id="IPAexGothic-75" d="M 3284 63 
L 2772 63 
L 2772 644 
Q 2300 0 1625 0 
Q 1072 0 763 375 
Q 519 678 519 1241 
L 519 3250 
L 1069 3250 
L 1069 1259 
Q 1069 466 1734 466 
Q 2406 466 2734 1291 
L 2734 3250 
L 3284 3250 
L 3284 63 
z
" transform="scale(0.015625)"/>
        <path id="IPAexGothic-6e" d="M 3328 63 
L 2778 63 
L 2778 2041 
Q 2778 2853 2106 2853 
Q 1428 2853 1113 2041 
L 1113 63 
L 563 63 
L 563 3250 
L 1075 3250 
L 1075 2675 
Q 1525 3316 2222 3316 
Q 3328 3316 3328 2072 
L 3328 63 
z
" transform="scale(0.015625)"/>
       </defs>
       <use xlink:href="#IPAexGothic-4a"/>
       <use xlink:href="#IPAexGothic-75" x="37.988281"/>
       <use xlink:href="#IPAexGothic-6e" x="98.388672"/>
      </g>
     </g>
    </g>
    <g id="xtick_6">
     <g id="line2d_7">
      <g>
       <use xlink:href="#m7e2a885602" x="356.503967" y="284.991437" style="stroke: #000000; stroke-width: 0.8"/>
      </g>
     </g>
     <g id="text_6">
      <!-- Jul -->
      <g transform="translate(350.234436 299.482062)scale(0.1 -0.1)">
       <defs>
        <path id="IPAexGothic-6c" d="M 1131 63 
L 581 63 
L 581 4794 
L 1131 4794 
L 1131 63 
z
" transform="scale(0.015625)"/>
       </defs>
       <use xlink:href="#IPAexGothic-4a"/>
       <use xlink:href="#IPAexGothic-75" x="37.988281"/>
       <use xlink:href="#IPAexGothic-6c" x="98.388672"/>
      </g>
     </g>
    </g>
    <g id="text_7">
     <!-- 2022 -->
     <g transform="translate(367.66375 311.872687)scale(0.1 -0.1)">
      <defs>
       <path id="IPAexGothic-32" d="M 3659 63 
L 447 63 
L 447 594 
Q 825 1475 1894 2203 
L 2072 2322 
Q 2619 2697 2791 2906 
Q 2988 3153 2988 3444 
Q 2988 3772 2756 4003 
Q 2500 4259 2084 4259 
Q 1250 4259 991 3328 
L 497 3506 
Q 853 4725 2116 4725 
Q 2806 4725 3216 4316 
Q 3575 3947 3575 3425 
Q 3575 3038 3344 2722 
Q 3131 2416 2366 1938 
L 2231 1856 
Q 1256 1253 978 569 
L 3659 569 
L 3659 63 
z
" transform="scale(0.015625)"/>
       <path id="IPAexGothic-30" d="M 2038 4725 
Q 2881 4725 3334 3944 
Q 3694 3325 3694 2344 
Q 3694 1372 3334 741 
Q 2888 -31 2016 -31 
Q 1147 -31 700 741 
Q 341 1372 341 2350 
Q 341 3713 1000 4334 
Q 1419 4725 2038 4725 
z
M 2016 4266 
Q 1516 4266 1228 3759 
Q 934 3247 934 2344 
Q 934 1456 1222 947 
Q 1513 447 2016 447 
Q 2619 447 2909 1153 
Q 3100 1622 3100 2375 
Q 3100 3256 2806 3759 
Q 2509 4266 2016 4266 
z
" transform="scale(0.015625)"/>
      </defs>
      <use xlink:href="#IPAexGothic-32"/>
      <use xlink:href="#IPAexGothic-30" x="62.988281"/>
      <use xlink:href="#IPAexGothic-32" x="125.976562"/>
      <use xlink:href="#IPAexGothic-32" x="188.964844"/>
     </g>
    </g>
   </g>
   <g id="matplotlib.axis_2">
    <g id="ytick_1">
     <g id="line2d_8">
      <defs>
       <path id="m836d4ae5d1" d="M 0 0 
L -3.5 0 
" style="stroke: #000000; stroke-width: 0.8"/>
      </defs>
      <g>
       <use xlink:href="#m836d4ae5d1" x="35.7375" y="264.522941" style="stroke: #000000; stroke-width: 0.8"/>
      </g>
     </g>
     <g id="text_8">
      <!-- 0.50 -->
      <g transform="translate(7.2 268.268254)scale(0.1 -0.1)">
       <defs>
        <path id="IPAexGothic-2e" d="M 1184 63 
L 494 63 
L 494 753 
L 1184 753 
L 1184 63 
z
" transform="scale(0.015625)"/>
        <path id="IPAexGothic-35" d="M 1178 2603 
Q 1634 2963 2172 2963 
Q 2816 2963 3241 2528 
Q 3638 2113 3638 1497 
Q 3638 938 3297 513 
Q 2869 -31 2031 -31 
Q 959 -31 469 784 
L 938 1028 
Q 1309 434 2013 434 
Q 2466 434 2769 716 
Q 3081 1013 3081 1503 
Q 3081 1966 2806 2241 
Q 2519 2528 2056 2528 
Q 1406 2528 1072 2028 
L 591 2091 
L 884 4634 
L 3406 4634 
L 3406 4153 
L 1341 4153 
L 1134 2603 
L 1178 2603 
z
" transform="scale(0.015625)"/>
       </defs>
       <use xlink:href="#IPAexGothic-30"/>
       <use xlink:href="#IPAexGothic-2e" x="62.988281"/>
       <use xlink:href="#IPAexGothic-35" x="89.404297"/>
       <use xlink:href="#IPAexGothic-30" x="152.392578"/>
      </g>
     </g>
    </g>
    <g id="ytick_2">
     <g id="line2d_9">
      <g>
       <use xlink:href="#m836d4ae5d1" x="35.7375" y="234.004224" style="stroke: #000000; stroke-width: 0.8"/>
      </g>
     </g>
     <g id="text_9">
      <!-- 0.75 -->
      <g transform="translate(7.2 237.749537)scale(0.1 -0.1)">
       <defs>
        <path id="IPAexGothic-37" d="M 3597 4263 
Q 2238 2106 1778 63 
L 1131 63 
Q 1581 1834 2950 4128 
L 428 4128 
L 428 4634 
L 3597 4634 
L 3597 4263 
z
" transform="scale(0.015625)"/>
       </defs>
       <use xlink:href="#IPAexGothic-30"/>
       <use xlink:href="#IPAexGothic-2e" x="62.988281"/>
       <use xlink:href="#IPAexGothic-37" x="89.404297"/>
       <use xlink:href="#IPAexGothic-35" x="152.392578"/>
      </g>
     </g>
    </g>
    <g id="ytick_3">
     <g id="line2d_10">
      <g>
       <use xlink:href="#m836d4ae5d1" x="35.7375" y="203.485507" style="stroke: #000000; stroke-width: 0.8"/>
      </g>
     </g>
     <g id="text_10">
      <!-- 1.00 -->
      <g transform="translate(7.2 207.230819)scale(0.1 -0.1)">
       <defs>
        <path id="IPAexGothic-31" d="M 2463 63 
L 1900 63 
L 1900 4103 
Q 1372 3922 788 3797 
L 684 4231 
Q 1519 4441 2106 4731 
L 2463 4731 
L 2463 63 
z
" transform="scale(0.015625)"/>
       </defs>
       <use xlink:href="#IPAexGothic-31"/>
       <use xlink:href="#IPAexGothic-2e" x="62.988281"/>
       <use xlink:href="#IPAexGothic-30" x="89.404297"/>
       <use xlink:href="#IPAexGothic-30" x="152.392578"/>
      </g>
     </g>
    </g>
    <g id="ytick_4">
     <g id="line2d_11">
      <g>
       <use xlink:href="#m836d4ae5d1" x="35.7375" y="172.96679" style="stroke: #000000; stroke-width: 0.8"/>
      </g>
     </g>
     <g id="text_11">
      <!-- 1.25 -->
      <g transform="translate(7.2 176.712102)scale(0.1 -0.1)">
       <use xlink:href="#IPAexGothic-31"/>
       <use xlink:href="#IPAexGothic-2e" x="62.988281"/>
       <use xlink:href="#IPAexGothic-32" x="89.404297"/>
       <use xlink:href="#IPAexGothic-35" x="152.392578"/>
      </g>
     </g>
    </g>
    <g id="ytick_5">
     <g id="line2d_12">
      <g>
       <use xlink:href="#m836d4ae5d1" x="35.7375" y="142.448073" style="stroke: #000000; stroke-width: 0.8"/>
      </g>
     </g>
     <g id="text_12">
      <!-- 1.50 -->
      <g transform="translate(7.2 146.193385)scale(0.1 -0.1)">
       <use xlink:href="#IPAexGothic-31"/>
       <use xlink:href="#IPAexGothic-2e" x="62.988281"/>
       <use xlink:href="#IPAexGothic-35" x="89.404297"/>
       <use xlink:href="#IPAexGothic-30" x="152.392578"/>
      </g>
     </g>
    </g>
    <g id="ytick_6">
     <g id="line2d_13">
      <g>
       <use xlink:href="#m836d4ae5d1" x="35.7375" y="111.929355" style="stroke: #000000; stroke-width: 0.8"/>
      </g>
     </g>
     <g id="text_13">
      <!-- 1.75 -->
      <g transform="translate(7.2 115.674668)scale(0.1 -0.1)">
       <use xlink:href="#IPAexGothic-31"/>
       <use xlink:href="#IPAexGothic-2e" x="62.988281"/>
       <use xlink:href="#IPAexGothic-37" x="89.404297"/>
       <use xlink:href="#IPAexGothic-35" x="152.392578"/>
      </g>
     </g>
    </g>
    <g id="ytick_7">
     <g id="line2d_14">
      <g>
       <use xlink:href="#m836d4ae5d1" x="35.7375" y="81.410638" style="stroke: #000000; stroke-width: 0.8"/>
      </g>
     </g>
     <g id="text_14">
      <!-- 2.00 -->
      <g transform="translate(7.2 85.155951)scale(0.1 -0.1)">
       <use xlink:href="#IPAexGothic-32"/>
       <use xlink:href="#IPAexGothic-2e" x="62.988281"/>
       <use xlink:href="#IPAexGothic-30" x="89.404297"/>
       <use xlink:href="#IPAexGothic-30" x="152.392578"/>
      </g>
     </g>
    </g>
    <g id="ytick_8">
     <g id="line2d_15">
      <g>
       <use xlink:href="#m836d4ae5d1" x="35.7375" y="50.891921" style="stroke: #000000; stroke-width: 0.8"/>
      </g>
     </g>
     <g id="text_15">
      <!-- 2.25 -->
      <g transform="translate(7.2 54.637233)scale(0.1 -0.1)">
       <use xlink:href="#IPAexGothic-32"/>
       <use xlink:href="#IPAexGothic-2e" x="62.988281"/>
       <use xlink:href="#IPAexGothic-32" x="89.404297"/>
       <use xlink:href="#IPAexGothic-35" x="152.392578"/>
      </g>
     </g>
    </g>
    <g id="ytick_9">
     <g id="line2d_16">
      <g>
       <use xlink:href="#m836d4ae5d1" x="35.7375" y="20.373204" style="stroke: #000000; stroke-width: 0.8"/>
      </g>
     </g>
     <g id="text_16">
      <!-- 2.50 -->
      <g transform="translate(7.2 24.118516)scale(0.1 -0.1)">
       <use xlink:href="#IPAexGothic-32"/>
       <use xlink:href="#IPAexGothic-2e" x="62.988281"/>
       <use xlink:href="#IPAexGothic-35" x="89.404297"/>
       <use xlink:href="#IPAexGothic-30" x="152.392578"/>
      </g>
     </g>
    </g>
   </g>
   <g id="line2d_17">
    <path d="M 50.706602 246.764939 
L 52.845045 252.025255 
L 54.983488 237.526584 
L 57.121931 216.985322 
L 59.260374 244.687429 
L 61.398817 217.229148 
L 63.53726 200.778852 
L 65.675704 200.790801 
L 67.814147 206.122014 
L 69.95259 171.133519 
L 72.091033 171.22436 
L 74.229476 134.588505 
L 76.367919 74.827759 
L 78.506362 156.078477 
L 80.644805 66.40717 
L 82.783249 51.742833 
L 84.921692 178.575122 
L 87.060135 147.743961 
L 89.198578 167.414814 
L 91.337021 202.924502 
L 78.506362 203.485507 
L 80.644805 203.485507 
L 91.337021 203.485507 
L 93.475464 213.751459 
L 95.613907 235.380804 
L 97.75235 255.089026 
L 99.890793 177.951635 
L 102.029237 234.261188 
L 104.16768 242.665646 
L 106.306123 244.246253 
L 108.444566 233.186855 
L 110.583009 234.01953 
L 112.721452 228.306711 
L 114.859895 242.632728 
L 116.998338 258.241949 
L 119.136781 218.779021 
L 121.275225 196.221145 
L 123.413668 155.170123 
L 125.552111 188.587109 
L 127.690554 166.549005 
L 129.828997 225.090323 
L 131.96744 182.097554 
L 134.105883 222.578799 
L 136.244326 211.702952 
L 138.382769 244.641749 
L 140.521213 215.749503 
L 142.659656 231.390981 
L 144.798099 99.500989 
L 146.936542 173.221782 
L 149.074985 178.369357 
L 151.213428 208.496101 
L 153.351871 191.755816 
L 155.490314 195.19815 
L 157.628757 189.980398 
L 159.767201 257.478647 
L 161.905644 249.283993 
L 164.044087 164.343531 
L 166.18253 192.886679 
L 168.320973 210.058887 
L 170.459416 210.130432 
L 172.597859 202.336034 
L 174.736302 202.338195 
L 176.874746 177.570736 
L 179.013189 217.104907 
L 181.151632 221.435178 
L 183.290075 182.441573 
L 185.428518 180.580175 
L 187.566961 197.957641 
L 189.705404 130.058376 
L 191.843847 117.661469 
L 193.98229 186.786379 
L 196.120734 170.33154 
L 198.259177 199.339318 
L 200.39762 199.36729 
L 202.536063 182.83858 
L 204.674506 187.011442 
L 206.812949 220.053339 
L 208.951392 187.811992 
L 211.089835 190.713443 
L 213.228278 186.027555 
L 215.366722 164.072866 
L 217.505165 219.833001 
L 219.643608 234.615348 
L 221.782051 228.990571 
L 223.920494 254.970143 
L 226.058937 234.259697 
L 228.19738 240.185174 
L 230.335823 257.538029 
L 232.474266 243.305776 
L 234.61271 247.76608 
L 236.751153 228.008753 
L 238.889596 30.975437 
L 241.028039 139.05485 
L 243.166482 134.576213 
L 245.304925 150.865065 
L 247.443368 140.117768 
L 249.581811 157.212876 
L 251.720254 155.348274 
L 253.858698 219.597731 
L 255.997141 208.727196 
L 258.135584 224.869401 
L 260.274027 196.123822 
L 262.41247 194.548969 
L 264.550913 175.537932 
L 266.689356 222.36709 
L 268.827799 207.300044 
L 270.966243 234.687017 
L 273.104686 201.826905 
L 275.243129 213.042625 
L 277.381572 228.693374 
L 279.520015 245.878005 
L 281.658458 224.721044 
L 283.796901 232.065687 
L 285.935344 214.557267 
L 288.073787 220.551233 
L 290.212231 247.065516 
L 292.350674 228.683818 
L 294.489117 232.827425 
L 296.62756 226.698225 
L 298.766003 237.62096 
L 300.904446 232.715103 
L 303.042889 239.022386 
L 305.181332 233.460845 
L 307.319775 258.550637 
L 309.458219 233.831019 
L 311.596662 241.843884 
L 313.735105 241.042411 
L 315.873548 188.051594 
L 318.011991 210.499396 
L 320.150434 272.895437 
L 322.288877 211.843552 
L 324.42732 227.496268 
L 326.565763 203.485507 
L 328.704207 173.595768 
L 330.84265 209.18892 
L 332.981093 160.261097 
L 335.119536 108.328625 
L 337.257979 97.578952 
L 339.396422 129.275398 
L 341.534865 158.523115 
L 343.673308 144.469418 
L 345.811751 192.845645 
L 347.950195 189.387053 
L 350.088638 128.957579 
L 352.227081 126.086546 
L 356.503967 131.477171 
L 358.64241 106.927082 
L 360.780853 127.338125 
L 362.919296 100.986262 
L 365.05774 72.4685 
L 367.196183 104.040335 
L 369.334626 109.019272 
L 371.473069 97.065923 
L 373.611512 104.016235 
L 375.749955 96.357928 
L 377.888398 167.550364 
L 380.026841 95.715007 
L 382.165284 142.895225 
L 384.303728 136.948484 
L 386.442171 154.611992 
L 388.580614 181.699085 
L 390.719057 172.213917 
L 390.719057 172.213917 
" clip-path="url(#p8ba345d475)" style="fill: none; stroke: #1f77b4; stroke-width: 1.5; stroke-linecap: square"/>
   </g>
   <g id="line2d_18">
    <path d="M 52.845045 249.440523 
L 54.983488 245.101843 
L 57.121931 227.793952 
L 59.260374 231.854536 
L 61.398817 231.959812 
L 63.53726 209.294578 
L 65.675704 200.784827 
L 67.814147 203.485507 
L 69.95259 189.74988 
L 72.091033 171.178946 
L 74.229476 153.880914 
L 76.367919 106.738812 
L 78.506362 119.418095 
L 80.644805 115.985145 
L 82.783249 59.175891 
L 84.921692 124.943474 
L 87.060135 163.892844 
L 89.198578 157.867571 
L 91.337021 186.296888 
L 78.506362 203.205326 
L 80.644805 203.485507 
L 91.337021 203.485507 
L 93.475464 208.731189 
L 95.613907 225.146829 
L 97.75235 245.841644 
L 99.890793 223.569263 
L 102.029237 209.471797 
L 104.16768 238.56485 
L 106.306123 243.459753 
L 108.444566 238.892782 
L 110.583009 233.604135 
L 112.721452 231.206347 
L 114.859895 235.754932 
L 116.998338 250.843853 
L 119.136781 240.776221 
L 121.275225 208.040087 
L 123.413668 177.107878 
L 125.552111 172.789602 
L 127.690554 177.97885 
L 129.828997 199.164645 
L 131.96744 205.503234 
L 134.105883 204.011918 
L 136.244326 217.277334 
L 138.382769 229.575031 
L 140.521213 231.296146 
L 142.659656 223.870536 
L 144.798099 179.656724 
L 146.936542 139.986754 
L 149.074985 175.817687 
L 151.213428 194.294196 
L 153.351871 200.405536 
L 155.490314 193.488198 
L 157.628757 192.614869 
L 159.767201 229.484784 
L 161.905644 253.497709 
L 164.044087 214.668367 
L 166.18253 179.309787 
L 168.320973 201.770193 
L 170.459416 210.094665 
L 174.736302 202.337115 
L 176.874746 190.521099 
L 179.013189 198.870653 
L 181.151632 219.292097 
L 183.290075 203.485507 
L 185.428518 181.513881 
L 187.566961 189.546148 
L 189.705404 167.615481 
L 191.843847 123.955187 
L 193.98229 155.704666 
L 196.120734 178.789377 
L 198.259177 185.58485 
L 200.39762 199.353305 
L 202.536063 191.357158 
L 204.674506 184.940489 
L 206.812949 204.65592 
L 208.951392 205.005725 
L 211.089835 189.270438 
L 213.228278 188.390507 
L 215.366722 175.451056 
L 217.505165 194.894196 
L 219.643608 227.502336 
L 221.782051 231.84515 
L 223.920494 242.995947 
L 226.058937 245.280016 
L 228.19738 237.272132 
L 230.335823 249.353935 
L 232.474266 250.759634 
L 234.61271 245.567009 
L 236.751153 238.44574 
L 238.889596 156.039761 
L 241.028039 91.163877 
L 243.166482 136.828816 
L 245.304925 142.902122 
L 247.443368 145.571615 
L 249.581811 148.871951 
L 251.720254 156.283142 
L 253.858698 191.261737 
L 255.997141 214.29514 
L 258.135584 217.098185 
L 260.274027 211.397804 
L 262.41247 195.338776 
L 264.550913 185.365328 
L 266.689356 201.136468 
L 268.827799 215.090144 
L 270.966243 221.894019 
L 273.104686 219.522288 
L 275.243129 207.567953 
L 277.381572 221.160869 
L 279.520015 237.704856 
L 281.658458 235.921562 
L 283.796901 228.462786 
L 285.935344 223.686919 
L 288.073787 217.595839 
L 290.212231 234.77118 
L 292.350674 238.35767 
L 294.489117 230.778262 
L 296.62756 229.811856 
L 298.766003 232.319399 
L 300.904446 235.20132 
L 303.042889 235.924204 
L 305.181332 236.284913 
L 307.319775 247.001064 
L 309.458219 247.159099 
L 311.596662 237.928989 
L 313.735105 241.444102 
L 315.873548 217.75517 
L 318.011991 199.775261 
L 320.150434 247.716433 
L 322.288877 248.17246 
L 324.42732 219.959529 
L 326.565763 216.147566 
L 328.704207 189.358101 
L 330.84265 192.577886 
L 332.981093 186.866044 
L 335.119536 136.065648 
L 337.257979 103.018686 
L 339.396422 114.020004 
L 341.534865 144.488829 
L 343.673308 151.638159 
L 345.811751 170.53316 
L 347.950195 191.127471 
L 350.088638 161.93869 
L 352.227081 127.527265 
L 354.365524 127.427011 
L 356.503967 130.122547 
L 358.64241 119.567536 
L 360.780853 117.382607 
L 362.919296 114.573205 
L 365.05774 87.153405 
L 367.196183 88.78005 
L 369.334626 106.543952 
L 371.473069 103.122877 
L 373.611512 100.567915 
L 375.749955 100.219613 
L 377.888398 135.254618 
L 380.026841 134.987898 
L 382.165284 120.658597 
L 384.303728 139.945668 
L 386.442171 145.997301 
L 388.580614 168.739283 
L 390.719057 177.032198 
L 390.719057 177.032198 
" clip-path="url(#p8ba345d475)" style="fill: none; stroke: #ff7f0e; stroke-width: 1.5; stroke-linecap: square"/>
   </g>
   <g id="line2d_19">
    <path d="M 54.983488 245.660072 
L 57.121931 236.648844 
L 59.260374 233.784703 
L 61.398817 227.213101 
L 63.53726 222.544916 
L 65.675704 206.526416 
L 67.814147 202.589876 
L 69.95259 193.534683 
L 72.091033 183.835968 
L 74.229476 159.835956 
L 76.367919 130.778217 
L 78.506362 124.60428 
L 80.644805 103.077334 
L 82.783249 96.448787 
L 84.921692 107.070891 
L 87.060135 132.851244 
L 89.198578 165.075464 
L 91.337021 174.477424 
L 78.506362 192.279777 
L 80.644805 203.298791 
L 82.783249 203.485507 
L 91.337021 203.485507 
L 93.475464 207.008165 
L 95.613907 218.391101 
L 97.75235 236.325957 
L 99.890793 227.669035 
L 102.029237 227.26558 
L 104.16768 221.7991 
L 106.306123 240.501441 
L 108.444566 240.169107 
L 110.583009 237.297894 
L 112.721452 231.87119 
L 114.859895 235.180151 
L 116.998338 243.981116 
L 119.136781 241.399629 
L 121.275225 227.959611 
L 123.413668 192.548583 
L 125.552111 181.037384 
L 127.690554 170.737102 
L 129.828997 195.732822 
L 131.96744 193.714042 
L 134.105883 211.488519 
L 136.244326 206.631654 
L 138.382769 227.297426 
L 140.521213 225.171621 
L 142.659656 231.327768 
L 144.798099 192.843579 
L 146.936542 177.542526 
L 149.074985 153.780902 
L 151.213428 187.615615 
L 153.351871 193.453465 
L 155.490314 198.693274 
L 157.628757 192.329133 
L 159.767201 219.196872 
L 161.905644 236.598198 
L 164.044087 231.311316 
L 166.18253 207.837252 
L 168.320973 190.375655 
L 170.459416 204.622139 
L 172.597859 207.564311 
L 174.736302 204.991662 
L 176.874746 194.580199 
L 179.013189 200.037209 
L 181.151632 206.888938 
L 183.290075 208.205448 
L 185.428518 196.28363 
L 187.566961 187.218034 
L 189.705404 172.060995 
L 191.843847 152.46407 
L 193.98229 147.55334 
L 196.120734 160.727349 
L 198.259177 185.986511 
L 200.39762 190.338614 
L 202.536063 194.072445 
L 204.674506 189.923946 
L 206.812949 197.781723 
L 208.951392 199.283535 
L 211.089835 200.418401 
L 213.228278 188.197939 
L 215.366722 180.721394 
L 217.505165 192.003089 
L 221.782051 228.000946 
L 223.920494 240.291938 
L 226.058937 240.180931 
L 228.19738 243.616446 
L 230.335823 244.622379 
L 232.474266 247.388983 
L 234.61271 249.774806 
L 236.751153 240.096848 
L 241.028039 150.557341 
L 243.166482 106.633104 
L 245.304925 141.628598 
L 247.443368 141.97868 
L 249.581811 149.538836 
L 251.720254 151.057652 
L 253.858698 180.755463 
L 255.997141 197.355914 
L 258.135584 217.937851 
L 260.274027 210.514454 
L 262.41247 206.037179 
L 264.550913 189.047349 
L 266.689356 198.978286 
L 268.827799 203.225884 
L 270.966243 222.05195 
L 273.104686 215.595424 
L 275.243129 217.40496 
L 277.381572 215.077569 
L 279.520015 230.152027 
L 281.658458 233.574174 
L 283.796901 234.654271 
L 285.935344 224.032801 
L 288.073787 222.652235 
L 290.212231 228.47932 
L 292.350674 232.785793 
L 294.489117 236.551906 
L 296.62756 229.437311 
L 298.766003 232.489049 
L 300.904446 232.451487 
L 303.042889 236.493396 
L 305.181332 235.110494 
L 307.319775 244.426782 
L 309.458219 242.835797 
L 311.596662 245.425956 
L 313.735105 238.979335 
L 315.873548 226.4703 
L 318.011991 215.388897 
L 320.150434 231.459566 
L 322.288877 237.233787 
L 324.42732 241.816679 
L 326.565763 214.731306 
L 328.704207 203.485507 
L 330.84265 196.317961 
L 332.981093 182.576644 
L 335.119536 164.490777 
L 337.257979 124.018835 
L 339.396422 112.139642 
L 341.534865 130.036426 
L 343.673308 144.482359 
L 345.811751 166.62896 
L 347.950195 177.09131 
L 350.088638 172.967725 
L 354.365524 127.938519 
L 356.503967 128.786369 
L 358.64241 122.677908 
L 360.780853 122.191002 
L 365.05774 101.380426 
L 367.196183 92.920777 
L 369.334626 95.728361 
L 371.473069 103.429118 
L 373.611512 103.421062 
L 375.749955 99.173249 
L 377.888398 125.364693 
L 380.026841 122.894854 
L 382.165284 137.660993 
L 384.303728 126.239168 
L 386.442171 144.969174 
L 388.580614 158.787274 
L 390.719057 169.906155 
L 390.719057 169.906155 
" clip-path="url(#p8ba345d475)" style="fill: none; stroke: #2ca02c; stroke-width: 1.5; stroke-linecap: square"/>
   </g>
   <g id="line2d_20">
    <path d="M 57.121931 239.293547 
L 59.260374 238.730459 
L 63.53726 221.182293 
L 65.675704 217.490668 
L 69.95259 195.384229 
L 72.091033 188.279304 
L 74.229476 172.865016 
L 76.367919 141.761611 
L 78.506362 137.437023 
L 80.644805 111.411876 
L 82.783249 91.224921 
L 84.921692 120.513227 
L 87.060135 118.037552 
L 89.198578 142.14279 
L 91.337021 175.512435 
L 78.506362 182.319106 
L 80.644805 195.174134 
L 82.783249 203.345497 
L 84.921692 203.485507 
L 91.337021 203.485507 
L 93.475464 206.137147 
L 95.613907 214.844656 
L 97.75235 229.054031 
L 99.890793 224.36112 
L 102.029237 229.360406 
L 104.16768 231.364991 
L 106.306123 227.933819 
L 108.444566 238.728971 
L 110.583009 238.67157 
L 112.721452 235.131195 
L 114.859895 234.685896 
L 116.998338 241.597259 
L 119.136781 238.301688 
L 121.275225 231.854947 
L 123.413668 213.371163 
L 125.552111 191.569087 
L 127.690554 177.544004 
L 129.828997 186.601484 
L 131.96744 192.450586 
L 134.105883 201.611975 
L 136.244326 211.542165 
L 138.382769 217.547087 
L 140.521213 224.529601 
L 142.659656 226.763947 
L 144.798099 208.285078 
L 146.936542 188.188793 
L 149.074985 177.749668 
L 151.213428 169.484944 
L 153.351871 188.662523 
L 155.490314 193.891814 
L 157.628757 196.569006 
L 159.767201 212.915302 
L 161.905644 227.680818 
L 164.044087 222.342086 
L 166.18253 222.899733 
L 168.320973 208.396635 
L 170.459416 195.610662 
L 172.597859 204.05462 
L 174.736302 206.278938 
L 176.874746 198.653895 
L 179.013189 200.615905 
L 181.151632 205.767256 
L 183.290075 201.199485 
L 185.428518 201.836598 
L 187.566961 196.704181 
L 189.705404 174.724675 
L 191.843847 159.966976 
L 193.98229 161.768305 
L 196.120734 153.543531 
L 200.39762 189.459172 
L 202.536063 188.501388 
L 204.674506 192.341668 
L 206.812949 198.179973 
L 208.951392 195.359065 
L 211.089835 197.193477 
L 213.228278 196.966186 
L 215.366722 182.527548 
L 217.505165 191.681838 
L 219.643608 204.236736 
L 221.782051 214.901393 
L 223.920494 235.582011 
L 226.058937 238.82231 
L 228.19738 240.181992 
L 230.335823 247.343495 
L 232.474266 244.295217 
L 234.61271 247.483428 
L 236.751153 244.837149 
L 238.889596 209.11071 
L 241.028039 182.66403 
L 243.166482 146.692016 
L 245.304925 118.643834 
L 247.443368 141.252048 
L 249.581811 145.911833 
L 251.720254 151.009525 
L 253.858698 171.518125 
L 258.135584 204.869346 
L 260.274027 212.855782 
L 262.41247 206.715435 
L 264.550913 199.049399 
L 266.689356 198.270626 
L 268.827799 201.112075 
L 270.966243 211.98849 
L 273.104686 217.328901 
L 275.243129 214.962706 
L 277.381572 220.344768 
L 279.520015 223.745418 
L 281.658458 228.822338 
L 283.796901 233.199349 
L 285.935344 229.999841 
L 288.073787 223.173383 
L 290.212231 229.388607 
L 292.350674 228.530485 
L 294.489117 232.796203 
L 296.62756 234.184613 
L 298.766003 231.551988 
L 300.904446 232.545614 
L 305.181332 235.74475 
L 307.319775 241.645205 
L 309.458219 241.898495 
L 311.596662 242.588926 
L 313.735105 244.351858 
L 315.873548 228.364081 
L 318.011991 222.698453 
L 320.150434 233.952613 
L 322.288877 226.898084 
L 324.42732 234.89403 
L 326.565763 233.542827 
L 328.704207 205.630915 
L 330.84265 204.937045 
L 332.981093 188.117721 
L 335.119536 166.816933 
L 337.257979 149.875228 
L 339.396422 125.346028 
L 341.534865 124.821819 
L 343.673308 133.749087 
L 345.811751 158.016299 
L 347.950195 172.652336 
L 350.088638 166.293887 
L 352.227081 162.397371 
L 356.503967 128.829186 
L 358.64241 123.53549 
L 360.780853 123.853134 
L 362.919296 117.085326 
L 365.05774 102.780145 
L 367.196183 102.048383 
L 369.334626 97.054266 
L 371.473069 96.063484 
L 373.611512 103.576043 
L 375.749955 101.675951 
L 377.888398 118.636813 
L 380.026841 118.331643 
L 384.303728 137.483118 
L 386.442171 133.745899 
L 388.580614 154.948825 
L 390.719057 162.250314 
L 390.719057 162.250314 
" clip-path="url(#p8ba345d475)" style="fill: none; stroke: #d62728; stroke-width: 1.5; stroke-linecap: square"/>
   </g>
   <g id="line2d_21">
    <path d="M 59.260374 240.400362 
L 61.398817 234.802099 
L 63.53726 224.677528 
L 65.675704 217.389787 
L 67.814147 215.306986 
L 69.95259 200.079985 
L 72.091033 190.875575 
L 74.229476 178.91026 
L 76.367919 156.942801 
L 78.506362 144.718612 
L 80.644805 124.990602 
L 82.783249 100.621623 
L 84.921692 112.096124 
L 87.060135 126.274115 
L 89.198578 129.014427 
L 91.337021 156.330793 
L 78.506362 181.578017 
L 80.644805 186.827374 
L 82.783249 196.88049 
L 84.921692 203.373512 
L 87.060135 203.485507 
L 91.337021 203.485507 
L 93.475464 205.611467 
L 95.613907 212.660703 
L 97.75235 224.40943 
L 99.890793 220.493188 
L 104.16768 232.182211 
L 106.306123 234.094964 
L 108.444566 229.007797 
L 110.583009 237.806876 
L 112.721452 236.690974 
L 114.859895 236.683916 
L 116.998338 239.978788 
L 119.136781 237.461589 
L 121.275225 231.155811 
L 125.552111 208.802 
L 127.690554 186.901751 
L 129.828997 188.581017 
L 131.96744 185.712154 
L 134.105883 199.110064 
L 136.244326 203.699298 
L 138.382769 219.099734 
L 140.521213 217.18994 
L 142.659656 225.94075 
L 144.798099 208.976764 
L 146.936542 201.986342 
L 149.074985 186.278764 
L 151.213428 184.485527 
L 153.351871 174.217557 
L 155.490314 189.995349 
L 157.628757 193.118664 
L 159.767201 212.045014 
L 161.905644 221.365159 
L 164.044087 217.408095 
L 166.18253 217.027254 
L 168.320973 220.451184 
L 172.597859 196.984478 
L 174.736302 203.713259 
L 176.874746 201.021611 
L 179.013189 202.579571 
L 181.151632 205.088742 
L 183.290075 201.428065 
L 185.428518 197.324719 
L 187.566961 201.070357 
L 189.705404 185.500259 
L 191.843847 164.727896 
L 193.98229 165.716487 
L 196.120734 163.517934 
L 198.259177 163.870382 
L 200.39762 177.42458 
L 202.536063 188.160091 
L 204.674506 188.204687 
L 206.812949 198.412691 
L 208.951392 196.170768 
L 211.089835 194.442924 
L 213.228278 195.03417 
L 215.366722 190.972833 
L 217.505165 190.916666 
L 219.643608 201.645182 
L 221.782051 209.649386 
L 223.920494 224.416809 
L 226.058937 235.31909 
L 228.19738 239.096612 
L 230.335823 243.975686 
L 232.474266 246.552127 
L 234.61271 245.001562 
L 236.751153 243.927488 
L 243.166482 174.128825 
L 245.304925 147.534525 
L 247.443368 123.128885 
L 249.581811 144.560907 
L 251.720254 147.840072 
L 253.858698 167.592735 
L 255.997141 179.804818 
L 258.135584 196.562866 
L 260.274027 203.168841 
L 262.41247 209.411471 
L 264.550913 201.047058 
L 266.689356 204.100494 
L 268.827799 200.130046 
L 270.966243 208.696983 
L 273.104686 210.025232 
L 275.243129 216.484912 
L 277.381572 217.856346 
L 279.520015 226.034368 
L 281.658458 223.941296 
L 283.796901 229.479886 
L 285.935344 229.739965 
L 288.073787 228.18071 
L 290.212231 228.472707 
L 292.350674 229.24806 
L 294.489117 229.405513 
L 296.62756 231.607466 
L 298.766003 234.882461 
L 300.904446 231.785771 
L 303.042889 233.878633 
L 305.181332 234.004224 
L 307.319775 240.855365 
L 309.458219 240.137526 
L 311.596662 241.887576 
L 313.735105 242.281904 
L 315.873548 235.331125 
L 318.011991 225.028131 
L 320.150434 235.588241 
L 322.288877 229.904695 
L 324.42732 227.018012 
L 326.565763 229.336656 
L 328.704207 223.831318 
L 330.84265 206.351114 
L 332.981093 197.091109 
L 335.119536 174.940637 
L 337.257979 154.898494 
L 339.396422 145.935926 
L 341.534865 132.4708 
L 343.673308 128.914886 
L 345.811751 147.370446 
L 347.950195 164.821225 
L 350.088638 164.769205 
L 352.227081 158.959719 
L 354.365524 156.16435 
L 356.503967 142.785296 
L 358.64241 124.63174 
L 360.780853 124.301808 
L 362.919296 119.474072 
L 365.05774 108.840416 
L 367.196183 103.032755 
L 369.334626 103.460286 
L 371.473069 97.056597 
L 373.611512 97.676551 
L 375.749955 102.150838 
L 377.888398 116.7481 
L 380.026841 114.243049 
L 382.165284 123.495366 
L 384.303728 129.895498 
L 386.442171 141.040979 
L 388.580614 144.470615 
L 390.719057 158.550753 
L 390.719057 158.550753 
" clip-path="url(#p8ba345d475)" style="fill: none; stroke: #9467bd; stroke-width: 1.5; stroke-linecap: square"/>
   </g>
   <g id="line2d_22">
    <path d="M 61.398817 236.915144 
L 63.53726 229.856341 
L 65.675704 221.040417 
L 67.814147 215.5885 
L 69.95259 208.938391 
L 74.229476 182.804589 
L 76.367919 165.197508 
L 78.506362 156.799054 
L 80.644805 133.542478 
L 82.783249 114.309696 
L 84.921692 116.020895 
L 87.060135 118.498757 
L 89.198578 133.808053 
L 91.337021 143.873732 
L 78.506362 165.296879 
L 80.644805 185.484897 
L 82.783249 189.75378 
L 84.921692 198.005636 
L 87.060135 203.392185 
L 91.337021 203.485507 
L 93.475464 205.259729 
L 95.613907 211.180853 
L 97.75235 221.189499 
L 99.890793 217.83278 
L 102.029237 222.924212 
L 104.16768 229.336277 
L 106.306123 234.310537 
L 108.444566 233.944235 
L 110.583009 229.861746 
L 112.721452 236.290547 
L 114.859895 237.710037 
L 116.998338 240.705276 
L 119.136781 236.763125 
L 121.275225 231.639244 
L 123.413668 221.392225 
L 125.552111 215.273646 
L 127.690554 202.634097 
L 129.828997 194.150347 
L 131.96744 187.521154 
L 134.105883 192.665762 
L 136.244326 201.301674 
L 138.382769 211.737664 
L 140.521213 218.548546 
L 142.659656 219.697428 
L 144.798099 211.362548 
L 146.936542 203.661534 
L 149.074985 198.331339 
L 151.213428 190.254844 
L 153.351871 185.724112 
L 155.490314 177.935297 
L 157.628757 189.992857 
L 159.767201 207.021969 
L 161.905644 219.32303 
L 164.044087 213.502715 
L 166.18253 213.661118 
L 168.320973 215.895763 
L 170.459416 218.797484 
L 172.597859 207.70086 
L 174.736302 197.892651 
L 176.874746 199.701282 
L 179.013189 203.858939 
L 181.151632 205.944062 
L 183.290075 201.579857 
L 185.428518 198.174244 
L 187.566961 197.430424 
L 189.705404 191.344472 
L 191.843847 175.969845 
L 193.98229 168.633927 
L 196.120734 166.495082 
L 198.259177 170.126402 
L 200.39762 170.413912 
L 202.536063 178.340969 
L 204.674506 187.969313 
L 206.812949 194.11284 
L 208.951392 196.70433 
L 211.089835 195.276798 
L 213.228278 193.076463 
L 215.366722 190.320555 
L 217.505165 196.279199 
L 219.643608 199.440108 
L 221.782051 206.688981 
L 223.920494 218.844767 
L 226.058937 226.12806 
L 228.19738 236.14895 
L 230.335823 242.48537 
L 232.474266 243.864415 
L 234.61271 246.75576 
L 236.751153 242.390389 
L 238.889596 224.459235 
L 241.028039 210.396559 
L 243.166482 188.774788 
L 245.304925 170.478689 
L 247.443368 146.319326 
L 249.581811 129.254707 
L 251.720254 146.405146 
L 253.858698 162.515807 
L 258.135584 188.518689 
L 260.274027 196.489795 
L 262.41247 201.772625 
L 264.550913 204.350324 
L 266.689356 204.884143 
L 268.827799 204.639701 
L 270.966243 206.689654 
L 273.104686 207.579049 
L 275.243129 210.533692 
L 277.381572 218.621602 
L 279.520015 223.131988 
L 281.658458 225.816675 
L 283.796901 225.342805 
L 285.935344 227.13996 
L 288.073787 228.266342 
L 290.212231 231.617517 
L 292.350674 228.507924 
L 294.489117 229.854074 
L 296.62756 228.959503 
L 298.766003 232.637539 
L 300.904446 234.52478 
L 303.042889 233.03259 
L 305.181332 233.809133 
L 307.319775 238.645137 
L 309.458219 239.723156 
L 311.596662 240.424315 
L 313.735105 241.747304 
L 315.873548 235.02207 
L 318.011991 231.600131 
L 320.150434 235.297726 
L 322.288877 232.00671 
L 324.42732 229.507438 
L 326.565763 223.437385 
L 328.704207 221.721767 
L 330.84265 221.525586 
L 332.981093 199.676485 
L 335.119536 185.33716 
L 337.257979 164.16733 
L 339.396422 150.872961 
L 341.534865 148.097805 
L 343.673308 134.524404 
L 345.811751 141.388556 
L 347.950195 155.180629 
L 350.088638 159.3341 
L 352.227081 158.887031 
L 354.365524 154.269009 
L 356.503967 152.279484 
L 358.64241 137.245974 
L 360.780853 125.085357 
L 362.919296 120.59118 
L 365.05774 112.294857 
L 369.334626 104.04188 
L 371.473069 102.407123 
L 373.611512 98.231537 
L 375.749955 97.457308 
L 377.888398 114.68193 
L 380.026841 113.381254 
L 382.165284 119.312948 
L 384.303728 125.802409 
L 386.442171 134.25013 
L 388.580614 148.539013 
L 390.719057 149.420695 
L 390.719057 149.420695 
" clip-path="url(#p8ba345d475)" style="fill: none; stroke: #8c564b; stroke-width: 1.5; stroke-linecap: square"/>
   </g>
   <g id="line2d_23">
    <path d="M 63.53726 232.477684 
L 65.675704 226.16085 
L 67.814147 219.029124 
L 69.95259 210.123474 
L 72.091033 204.175587 
L 74.229476 188.322586 
L 76.367919 170.843024 
L 78.506362 163.925463 
L 80.644805 146.134584 
L 82.783249 123.556924 
L 84.921692 124.977138 
L 87.060135 120.877739 
L 89.198578 126.319137 
L 91.337021 145.669655 
L 78.506362 153.907122 
L 82.783249 188.210452 
L 84.921692 191.8062 
L 87.060135 198.803284 
L 89.198578 203.405521 
L 91.337021 203.485507 
L 93.475464 205.007856 
L 95.613907 210.111956 
L 97.75235 218.826981 
L 99.890793 215.891344 
L 102.029237 220.349352 
L 106.306123 231.622996 
L 108.444566 234.150851 
L 110.583009 233.954995 
L 112.721452 229.64113 
L 114.859895 237.225438 
L 116.998338 240.988142 
L 119.136781 237.872896 
L 121.275225 231.861909 
L 123.413668 223.297546 
L 125.552111 217.237348 
L 127.690554 209.355604 
L 129.828997 206.126015 
L 131.96744 192.492593 
L 134.105883 193.179596 
L 136.244326 195.568836 
L 138.382769 208.68699 
L 140.521213 212.319635 
L 142.659656 220.485212 
L 144.798099 207.579301 
L 146.936542 206.563183 
L 149.074985 200.333666 
L 151.213428 199.835777 
L 153.351871 190.470295 
L 155.490314 187.118577 
L 157.628757 179.719424 
L 159.767201 202.696703 
L 161.905644 214.257504 
L 164.044087 212.800812 
L 166.18253 210.766382 
L 168.320973 213.153475 
L 170.459416 215.090119 
L 172.597859 216.587873 
L 174.736302 206.949297 
L 176.874746 195.170031 
L 179.013189 202.348862 
L 181.151632 206.54075 
L 183.290075 202.839094 
L 185.428518 198.777283 
L 187.566961 198.143324 
L 189.705404 189.458213 
L 191.843847 182.686204 
L 193.98229 177.565209 
L 196.120734 168.877575 
L 198.259177 171.664726 
L 200.39762 174.685858 
L 202.536063 172.252988 
L 204.674506 179.612062 
L 206.812949 193.090374 
L 208.951392 193.23068 
L 211.089835 195.865067 
L 213.228278 193.993998 
L 215.366722 189.276209 
L 217.505165 194.994193 
L 219.643608 202.614784 
L 221.782051 204.159583 
L 223.920494 215.217548 
L 226.058937 221.196833 
L 228.19738 228.269747 
L 230.335823 239.573937 
L 232.474266 242.60307 
L 234.61271 244.433553 
L 236.751153 244.316233 
L 238.889596 225.921218 
L 241.028039 215.216848 
L 243.166482 201.766519 
L 249.581811 147.917677 
L 251.720254 133.214037 
L 253.858698 159.35422 
L 255.997141 170.096613 
L 258.135584 183.682749 
L 260.274027 189.631901 
L 262.41247 196.214305 
L 264.550913 198.326376 
L 266.689356 207.105006 
L 268.827799 205.23227 
L 270.966243 209.4751 
L 273.104686 206.006855 
L 275.243129 208.37551 
L 277.381572 213.322819 
L 279.520015 223.023065 
L 281.658458 223.36052 
L 283.796901 226.734334 
L 285.935344 223.868682 
L 288.073787 226.22465 
L 290.212231 231.20525 
L 292.350674 231.203921 
L 294.489117 229.137101 
L 296.62756 229.409483 
L 298.766003 230.247222 
L 303.042889 235.181331 
L 305.181332 233.093891 
L 307.319775 237.836934 
L 309.458219 237.973193 
L 311.596662 240.029375 
L 313.735105 240.51289 
L 315.873548 235.604671 
L 318.011991 231.868232 
L 320.150434 239.05828 
L 322.288877 232.26953 
L 324.42732 231.375291 
L 326.565763 226.16085 
L 328.704207 217.47091 
L 330.84265 220.017598 
L 332.981093 214.411244 
L 335.119536 189.472133 
L 337.257979 175.255129 
L 339.396422 159.590986 
L 341.534865 151.986926 
L 343.673308 147.583949 
L 345.811751 144.211144 
L 347.950195 149.163796 
L 350.088638 151.660351 
L 352.227081 154.947424 
L 354.365524 154.883308 
L 356.503967 151.18473 
L 358.64241 146.427898 
L 360.780853 135.86148 
L 362.919296 121.807832 
L 365.05774 114.321997 
L 367.196183 111.134744 
L 369.334626 108.186752 
L 371.473069 103.058508 
L 373.611512 102.63771 
L 375.749955 97.96482 
L 377.888398 109.112638 
L 380.026841 112.071348 
L 382.165284 117.872939 
L 384.303728 121.929841 
L 386.442171 130.197797 
L 388.580614 141.883986 
L 390.719057 152.132757 
L 390.719057 152.132757 
" clip-path="url(#p8ba345d475)" style="fill: none; stroke: #e377c2; stroke-width: 1.5; stroke-linecap: square"/>
   </g>
   <g id="patch_3">
    <path d="M 35.7375 284.991437 
L 35.7375 18.879437 
" style="fill: none; stroke: #000000; stroke-width: 0.8; stroke-linejoin: miter; stroke-linecap: square"/>
   </g>
   <g id="patch_4">
    <path d="M 392.8575 284.991437 
L 392.8575 18.879437 
" style="fill: none; stroke: #000000; stroke-width: 0.8; stroke-linejoin: miter; stroke-linecap: square"/>
   </g>
   <g id="patch_5">
    <path d="M 35.7375 284.991437 
L 392.8575 284.991437 
" style="fill: none; stroke: #000000; stroke-width: 0.8; stroke-linejoin: miter; stroke-linecap: square"/>
   </g>
   <g id="patch_6">
    <path d="M 35.7375 18.879437 
L 392.8575 18.879437 
" style="fill: none; stroke: #000000; stroke-width: 0.8; stroke-linejoin: miter; stroke-linecap: square"/>
   </g>
   <g id="legend_1">
    <g id="patch_7">
     <path d="M 195.148281 127.613812 
L 233.446719 127.613812 
Q 235.446719 127.613812 235.446719 125.613812 
L 235.446719 25.879437 
Q 235.446719 23.879437 233.446719 23.879437 
L 195.148281 23.879437 
Q 193.148281 23.879437 193.148281 25.879437 
L 193.148281 125.613812 
Q 193.148281 127.613812 195.148281 127.613812 
z
" style="fill: #ffffff; opacity: 0.8; stroke: #cccccc; stroke-linejoin: miter"/>
    </g>
    <g id="line2d_24">
     <path d="M 197.148281 31.870062 
L 207.148281 31.870062 
L 217.148281 31.870062 
" style="fill: none; stroke: #1f77b4; stroke-width: 1.5; stroke-linecap: square"/>
    </g>
    <g id="text_17">
     <!-- 1 -->
     <g transform="translate(225.148281 35.370062)scale(0.1 -0.1)">
      <use xlink:href="#IPAexGothic-31"/>
     </g>
    </g>
    <g id="line2d_25">
     <path d="M 197.148281 46.260687 
L 207.148281 46.260687 
L 217.148281 46.260687 
" style="fill: none; stroke: #ff7f0e; stroke-width: 1.5; stroke-linecap: square"/>
    </g>
    <g id="text_18">
     <!-- 2 -->
     <g transform="translate(225.148281 49.760687)scale(0.1 -0.1)">
      <use xlink:href="#IPAexGothic-32"/>
     </g>
    </g>
    <g id="line2d_26">
     <path d="M 197.148281 60.651312 
L 207.148281 60.651312 
L 217.148281 60.651312 
" style="fill: none; stroke: #2ca02c; stroke-width: 1.5; stroke-linecap: square"/>
    </g>
    <g id="text_19">
     <!-- 3 -->
     <g transform="translate(225.148281 64.151312)scale(0.1 -0.1)">
      <defs>
       <path id="IPAexGothic-33" d="M 2381 2419 
Q 3506 2216 3506 1278 
Q 3506 716 3128 356 
Q 2709 -31 1944 -31 
Q 797 -31 288 881 
L 756 1131 
Q 1109 441 1938 441 
Q 2425 441 2694 691 
Q 2950 928 2950 1291 
Q 2950 1719 2566 1978 
Q 2216 2213 1644 2213 
L 1363 2213 
L 1363 2669 
L 1656 2669 
Q 2231 2669 2534 2888 
Q 2859 3119 2859 3509 
Q 2859 3934 2494 4138 
Q 2259 4278 1931 4278 
Q 1238 4278 903 3578 
L 434 3803 
Q 897 4725 1938 4725 
Q 2597 4725 3006 4394 
Q 3416 4069 3416 3534 
Q 3416 3028 3019 2706 
Q 2763 2500 2381 2444 
L 2381 2419 
z
" transform="scale(0.015625)"/>
      </defs>
      <use xlink:href="#IPAexGothic-33"/>
     </g>
    </g>
    <g id="line2d_27">
     <path d="M 197.148281 75.041937 
L 207.148281 75.041937 
L 217.148281 75.041937 
" style="fill: none; stroke: #d62728; stroke-width: 1.5; stroke-linecap: square"/>
    </g>
    <g id="text_20">
     <!-- 4 -->
     <g transform="translate(225.148281 78.541937)scale(0.1 -0.1)">
      <defs>
       <path id="IPAexGothic-34" d="M 3813 1159 
L 3059 1159 
L 3059 63 
L 2547 63 
L 2547 1159 
L 197 1159 
L 197 1672 
L 2456 4678 
L 3059 4678 
L 3059 1634 
L 3813 1634 
L 3813 1159 
z
M 2578 4109 
L 2559 4109 
Q 2278 3656 2003 3284 
L 759 1634 
L 2547 1634 
L 2547 3144 
Q 2547 3481 2578 4109 
z
" transform="scale(0.015625)"/>
      </defs>
      <use xlink:href="#IPAexGothic-34"/>
     </g>
    </g>
    <g id="line2d_28">
     <path d="M 197.148281 89.432562 
L 207.148281 89.432562 
L 217.148281 89.432562 
" style="fill: none; stroke: #9467bd; stroke-width: 1.5; stroke-linecap: square"/>
    </g>
    <g id="text_21">
     <!-- 5 -->
     <g transform="translate(225.148281 92.932562)scale(0.1 -0.1)">
      <use xlink:href="#IPAexGothic-35"/>
     </g>
    </g>
    <g id="line2d_29">
     <path d="M 197.148281 103.823187 
L 207.148281 103.823187 
L 217.148281 103.823187 
" style="fill: none; stroke: #8c564b; stroke-width: 1.5; stroke-linecap: square"/>
    </g>
    <g id="text_22">
     <!-- 6 -->
     <g transform="translate(225.148281 107.323187)scale(0.1 -0.1)">
      <defs>
       <path id="IPAexGothic-36" d="M 1056 2328 
Q 1509 2981 2234 2981 
Q 2906 2981 3316 2513 
Q 3675 2106 3675 1522 
Q 3675 884 3272 434 
Q 2853 -31 2178 -31 
Q 1375 -31 922 581 
Q 481 1178 481 2228 
Q 481 3425 1013 4109 
Q 1494 4725 2272 4725 
Q 3191 4725 3609 4025 
L 3150 3775 
Q 2894 4266 2300 4266 
Q 1119 4266 1031 2328 
L 1056 2328 
z
M 2141 2547 
Q 1684 2547 1384 2206 
Q 1116 1900 1116 1541 
Q 1116 1156 1353 844 
Q 1672 428 2159 428 
Q 2669 428 2941 844 
Q 3125 1128 3125 1503 
Q 3125 1944 2881 2228 
Q 2600 2547 2141 2547 
z
" transform="scale(0.015625)"/>
      </defs>
      <use xlink:href="#IPAexGothic-36"/>
     </g>
    </g>
    <g id="line2d_30">
     <path d="M 197.148281 118.213812 
L 207.148281 118.213812 
L 217.148281 118.213812 
" style="fill: none; stroke: #e377c2; stroke-width: 1.5; stroke-linecap: square"/>
    </g>
    <g id="text_23">
     <!-- 7 -->
     <g transform="translate(225.148281 121.713812)scale(0.1 -0.1)">
      <use xlink:href="#IPAexGothic-37"/>
     </g>
    </g>
   </g>
  </g>
  <g id="axes_2">
   <g id="matplotlib.axis_3"/>
   <g id="patch_8">
    <path d="M 35.7375 284.991437 
L 35.7375 18.879437 
" style="fill: none; stroke: #000000; stroke-width: 0.8; stroke-linejoin: miter; stroke-linecap: square"/>
   </g>
   <g id="patch_9">
    <path d="M 392.8575 284.991437 
L 392.8575 18.879437 
" style="fill: none; stroke: #000000; stroke-width: 0.8; stroke-linejoin: miter; stroke-linecap: square"/>
   </g>
   <g id="patch_10">
    <path d="M 35.7375 284.991437 
L 392.8575 284.991437 
" style="fill: none; stroke: #000000; stroke-width: 0.8; stroke-linejoin: miter; stroke-linecap: square"/>
   </g>
   <g id="patch_11">
    <path d="M 35.7375 18.879437 
L 392.8575 18.879437 
" style="fill: none; stroke: #000000; stroke-width: 0.8; stroke-linejoin: miter; stroke-linecap: square"/>
   </g>
  </g>
  <g id="text_24">
   <!-- : 2022/07/17 12:34:15(JST) -->
   <g transform="translate(217.385625 15.423437)scale(0.1 -0.1)">
    <defs>
     <path id="IPAexGothic-66f4" d="M 2956 3994 
L 2956 4588 
L 513 4588 
L 513 4984 
L 5881 4984 
L 5881 4588 
L 3413 4588 
L 3413 3994 
L 5300 3994 
L 5300 1288 
L 4838 1288 
L 4838 1759 
L 3406 1759 
Q 3384 1125 3150 709 
Q 4291 244 5997 31 
L 5694 -428 
Q 4109 -166 2906 384 
Q 2294 -266 744 -488 
L 494 -66 
Q 1903 59 2491 588 
Q 2041 813 1594 1166 
L 1928 1434 
Q 2331 1106 2747 897 
Q 2922 1219 2950 1759 
L 1556 1759 
L 1556 1413 
L 1097 1413 
L 1097 3994 
L 2956 3994 
z
M 2956 3609 
L 1556 3609 
L 1556 3078 
L 2956 3078 
L 2956 3609 
z
M 3413 3609 
L 3413 3078 
L 4838 3078 
L 4838 3609 
L 3413 3609 
z
M 2956 2700 
L 1556 2700 
L 1556 2144 
L 2956 2144 
L 2956 2700 
z
M 3413 2700 
L 3413 2144 
L 4838 2144 
L 4838 2700 
L 3413 2700 
z
" transform="scale(0.015625)"/>
     <path id="IPAexGothic-65b0" d="M 3891 2803 
Q 3881 1759 3794 1166 
Q 3653 197 3097 -563 
L 2741 -250 
Q 3450 700 3450 2631 
L 3450 4647 
Q 3516 4656 3622 4666 
Q 4656 4778 5447 5063 
L 5825 4678 
Q 4897 4419 3891 4294 
L 3891 3219 
L 6119 3219 
L 6119 2803 
L 5275 2803 
L 5275 -447 
L 4834 -447 
L 4834 2803 
L 3891 2803 
z
M 2822 4069 
Q 2678 3572 2519 3181 
L 3250 3181 
L 3250 2784 
L 2059 2784 
L 2059 2216 
L 3184 2216 
L 3184 1831 
L 2059 1831 
L 2059 1544 
Q 2613 1197 3031 847 
L 2781 456 
Q 2472 791 2059 1128 
L 2059 -447 
L 1644 -447 
L 1644 1294 
Q 1272 628 575 -31 
L 269 341 
Q 1041 938 1528 1831 
L 453 1831 
L 453 2216 
L 1644 2216 
L 1644 2784 
L 319 2784 
L 319 3181 
L 1125 3181 
Q 1013 3706 881 4069 
L 453 4069 
L 453 4453 
L 1631 4453 
L 1631 5309 
L 2072 5309 
L 2072 4453 
L 3166 4453 
L 3166 4069 
L 2822 4069 
z
M 2391 4069 
L 1325 4069 
Q 1450 3672 1534 3181 
L 2109 3181 
Q 2294 3659 2391 4069 
z
" transform="scale(0.015625)"/>
     <path id="IPAexGothic-65e5" d="M 5231 4800 
L 5231 -288 
L 4744 -288 
L 4744 128 
L 1647 128 
L 1647 -288 
L 1159 -288 
L 1159 4800 
L 5231 4800 
z
M 1647 4372 
L 1647 2731 
L 4744 2731 
L 4744 4372 
L 1647 4372 
z
M 1647 2297 
L 1647 556 
L 4744 556 
L 4744 2297 
L 1647 2297 
z
" transform="scale(0.015625)"/>
     <path id="IPAexGothic-6642" d="M 2328 4728 
L 2328 563 
L 934 563 
L 934 56 
L 519 56 
L 519 4728 
L 2328 4728 
z
M 934 4331 
L 934 2881 
L 1906 2881 
L 1906 4331 
L 934 4331 
z
M 934 2497 
L 934 953 
L 1906 953 
L 1906 2497 
L 934 2497 
z
M 3938 4372 
L 3938 5313 
L 4378 5313 
L 4378 4372 
L 5772 4372 
L 5772 3981 
L 4378 3981 
L 4378 3194 
L 6072 3194 
L 6072 2803 
L 5203 2803 
L 5203 2047 
L 5959 2047 
L 5959 1650 
L 5216 1650 
L 5216 31 
Q 5216 -447 4691 -447 
Q 4394 -447 3888 -391 
L 3784 78 
Q 4272 0 4591 0 
Q 4775 0 4775 172 
L 4775 1650 
L 2581 1650 
L 2581 2047 
L 4763 2047 
L 4763 2803 
L 2538 2803 
L 2538 3194 
L 3938 3194 
L 3938 3981 
L 2716 3981 
L 2716 4372 
L 3938 4372 
z
M 3669 384 
Q 3331 950 2956 1325 
L 3291 1575 
Q 3719 1147 4025 659 
L 3669 384 
z
" transform="scale(0.015625)"/>
     <path id="IPAexGothic-3a" d="M 1369 2559 
L 672 2559 
L 672 3250 
L 1369 3250 
L 1369 2559 
z
M 1369 63 
L 672 63 
L 672 753 
L 1369 753 
L 1369 63 
z
" transform="scale(0.015625)"/>
     <path id="IPAexGothic-20" transform="scale(0.015625)"/>
     <path id="IPAexGothic-2f" d="M 2719 4709 
L 600 -884 
L 300 -763 
L 2413 4831 
L 2719 4709 
z
" transform="scale(0.015625)"/>
     <path id="IPAexGothic-28" d="M 1928 -1016 
L 1653 -1166 
Q 488 69 488 1875 
Q 488 3678 1653 4909 
L 1928 4763 
Q 1006 3522 1006 1881 
Q 1006 203 1928 -1016 
z
" transform="scale(0.015625)"/>
     <path id="IPAexGothic-53" d="M 2919 3641 
Q 2563 4259 1853 4259 
Q 1453 4259 1213 4009 
Q 1028 3803 1028 3534 
Q 1028 3238 1266 3047 
Q 1444 2913 1984 2688 
L 2200 2597 
Q 2925 2306 3191 1953 
Q 3422 1644 3422 1259 
Q 3422 644 2969 288 
Q 2559 -31 1931 -31 
Q 881 -31 313 766 
L 753 1100 
Q 1203 459 1938 459 
Q 2288 459 2534 625 
Q 2841 847 2841 1216 
Q 2841 1503 2616 1728 
Q 2375 1959 1728 2206 
L 1541 2278 
Q 453 2694 453 3481 
Q 453 4006 806 4347 
Q 1203 4725 1863 4725 
Q 2841 4725 3359 3956 
L 2919 3641 
z
" transform="scale(0.015625)"/>
     <path id="IPAexGothic-54" d="M 3866 4141 
L 2175 4141 
L 2175 63 
L 1606 63 
L 1606 4141 
L -31 4141 
L -31 4634 
L 3866 4634 
L 3866 4141 
z
" transform="scale(0.015625)"/>
     <path id="IPAexGothic-29" d="M 466 4909 
Q 1638 3672 1638 1875 
Q 1638 75 466 -1166 
L 191 -1016 
Q 1119 216 1119 1881 
Q 1119 3509 191 4763 
L 466 4909 
z
" transform="scale(0.015625)"/>
    </defs>
    <use xlink:href="#IPAexGothic-66f4"/>
    <use xlink:href="#IPAexGothic-65b0" x="100"/>
    <use xlink:href="#IPAexGothic-65e5" x="200"/>
    <use xlink:href="#IPAexGothic-6642" x="300"/>
    <use xlink:href="#IPAexGothic-3a" x="400"/>
    <use xlink:href="#IPAexGothic-20" x="431.982422"/>
    <use xlink:href="#IPAexGothic-32" x="458.984375"/>
    <use xlink:href="#IPAexGothic-30" x="521.972656"/>
    <use xlink:href="#IPAexGothic-32" x="584.960938"/>
    <use xlink:href="#IPAexGothic-32" x="647.949219"/>
    <use xlink:href="#IPAexGothic-2f" x="710.9375"/>
    <use xlink:href="#IPAexGothic-30" x="760.9375"/>
    <use xlink:href="#IPAexGothic-37" x="823.925781"/>
    <use xlink:href="#IPAexGothic-2f" x="886.914062"/>
    <use xlink:href="#IPAexGothic-31" x="936.914062"/>
    <use xlink:href="#IPAexGothic-37" x="999.902344"/>
    <use xlink:href="#IPAexGothic-20" x="1062.890625"/>
    <use xlink:href="#IPAexGothic-31" x="1089.892578"/>
    <use xlink:href="#IPAexGothic-32" x="1152.880859"/>
    <use xlink:href="#IPAexGothic-3a" x="1215.869141"/>
    <use xlink:href="#IPAexGothic-33" x="1247.851562"/>
    <use xlink:href="#IPAexGothic-34" x="1310.839844"/>
    <use xlink:href="#IPAexGothic-3a" x="1373.828125"/>
    <use xlink:href="#IPAexGothic-31" x="1405.810547"/>
    <use xlink:href="#IPAexGothic-35" x="1468.798828"/>
    <use xlink:href="#IPAexGothic-28" x="1531.787109"/>
    <use xlink:href="#IPAexGothic-4a" x="1565.087891"/>
    <use xlink:href="#IPAexGothic-53" x="1603.076172"/>
    <use xlink:href="#IPAexGothic-54" x="1661.572266"/>
    <use xlink:href="#IPAexGothic-29" x="1721.484375"/>
   </g>
  </g>
 </g>
 <defs>
  <clipPath id="p8ba345d475">
   <rect x="35.7375" y="18.879437" width="357.12" height="266.112"/>
  </clipPath>
 </defs>
</svg>
