<?xml version="1.0" encoding="utf-8" standalone="no"?>
<!DOCTYPE svg PUBLIC "-//W3C//DTD SVG 1.1//EN"
  "http://www.w3.org/Graphics/SVG/1.1/DTD/svg11.dtd">
<svg xmlns:xlink="http://www.w3.org/1999/xlink" width="393.759063pt" height="308.582062pt" viewBox="0 0 393.759063 308.582062" xmlns="http://www.w3.org/2000/svg" version="1.1">
 <metadata>
  <rdf:RDF xmlns:dc="http://purl.org/dc/elements/1.1/" xmlns:cc="http://creativecommons.org/ns#" xmlns:rdf="http://www.w3.org/1999/02/22-rdf-syntax-ns#">
   <cc:Work>
    <dc:type rdf:resource="http://purl.org/dc/dcmitype/StillImage"/>
    <dc:date>2023-02-24T07:15:07.738583</dc:date>
    <dc:format>image/svg+xml</dc:format>
    <dc:creator>
     <cc:Agent>
      <dc:title>Matplotlib v3.7.0, https://matplotlib.org/</dc:title>
     </cc:Agent>
    </dc:creator>
   </cc:Work>
  </rdf:RDF>
 </metadata>
 <defs>
  <style type="text/css">*{stroke-linejoin: round; stroke-linecap: butt}</style>
 </defs>
 <g id="figure_1">
  <g id="patch_1">
   <path d="M 0 308.582062 
L 393.759063 308.582062 
L 393.759063 0 
L 0 0 
z
" style="fill: #ffffff"/>
  </g>
  <g id="axes_1">
   <g id="patch_2">
    <path d="M 29.439063 284.991437 
L 386.559062 284.991437 
L 386.559062 18.879437 
L 29.439063 18.879437 
z
" style="fill: #ffffff"/>
   </g>
   <g id="line2d_1">
    <path d="M 29.439063 211.199039 
L 386.559062 211.199039 
" clip-path="url(#p1e48b52d0c)" style="fill: none; stroke: #000000; stroke-linecap: square"/>
   </g>
   <g id="matplotlib.axis_1">
    <g id="xtick_1">
     <g id="line2d_2">
      <defs>
       <path id="mbb3312b04a" d="M 0 0 
L 0 3.5 
" style="stroke: #000000; stroke-width: 0.8"/>
      </defs>
      <g>
       <use xlink:href="#mbb3312b04a" x="29.439063" y="284.991437" style="stroke: #000000; stroke-width: 0.8"/>
      </g>
     </g>
     <g id="text_1">
      <!-- Jun -->
      <g transform="translate(21.499219 299.482062) scale(0.1 -0.1)">
       <defs>
        <path id="IPAexGothic-4a" d="M 1819 4634 
L 1819 1234 
Q 1819 -31 763 -31 
Q 303 -31 -125 209 
L 84 644 
Q 378 447 694 447 
Q 1250 447 1250 1203 
L 1250 4634 
L 1819 4634 
z
" transform="scale(0.015625)"/>
        <path id="IPAexGothic-75" d="M 3284 63 
L 2772 63 
L 2772 644 
Q 2300 0 1625 0 
Q 1072 0 763 375 
Q 519 678 519 1241 
L 519 3250 
L 1069 3250 
L 1069 1259 
Q 1069 466 1734 466 
Q 2406 466 2734 1291 
L 2734 3250 
L 3284 3250 
L 3284 63 
z
" transform="scale(0.015625)"/>
        <path id="IPAexGothic-6e" d="M 3328 63 
L 2778 63 
L 2778 2041 
Q 2778 2853 2106 2853 
Q 1428 2853 1113 2041 
L 1113 63 
L 563 63 
L 563 3250 
L 1075 3250 
L 1075 2675 
Q 1525 3316 2222 3316 
Q 3328 3316 3328 2072 
L 3328 63 
z
" transform="scale(0.015625)"/>
       </defs>
       <use xlink:href="#IPAexGothic-4a"/>
       <use xlink:href="#IPAexGothic-75" x="37.988281"/>
       <use xlink:href="#IPAexGothic-6e" x="98.388672"/>
      </g>
     </g>
    </g>
    <g id="xtick_2">
     <g id="line2d_3">
      <g>
       <use xlink:href="#mbb3312b04a" x="69.266572" y="284.991437" style="stroke: #000000; stroke-width: 0.8"/>
      </g>
     </g>
     <g id="text_2">
      <!-- Jul -->
      <g transform="translate(62.997041 299.482062) scale(0.1 -0.1)">
       <defs>
        <path id="IPAexGothic-6c" d="M 1131 63 
L 581 63 
L 581 4794 
L 1131 4794 
L 1131 63 
z
" transform="scale(0.015625)"/>
       </defs>
       <use xlink:href="#IPAexGothic-4a"/>
       <use xlink:href="#IPAexGothic-75" x="37.988281"/>
       <use xlink:href="#IPAexGothic-6c" x="98.388672"/>
      </g>
     </g>
    </g>
    <g id="xtick_3">
     <g id="line2d_4">
      <g>
       <use xlink:href="#mbb3312b04a" x="110.421665" y="284.991437" style="stroke: #000000; stroke-width: 0.8"/>
      </g>
     </g>
     <g id="text_3">
      <!-- Aug -->
      <g transform="translate(101.439633 299.42425) scale(0.1 -0.1)">
       <defs>
        <path id="IPAexGothic-41" d="M 4056 63 
L 3444 63 
L 2938 1409 
L 1100 1409 
L 603 63 
L -6 63 
L 1806 4666 
L 2259 4666 
L 4056 63 
z
M 2778 1863 
L 2316 3078 
Q 2125 3588 2028 4000 
L 2009 4000 
Q 1897 3563 1716 3078 
L 1263 1863 
L 2778 1863 
z
" transform="scale(0.015625)"/>
        <path id="IPAexGothic-67" d="M 1331 1150 
Q 1006 1122 1006 900 
Q 1006 613 1763 575 
L 2131 556 
Q 3303 497 3303 -294 
Q 3303 -700 2925 -959 
Q 2519 -1253 1794 -1253 
Q 1138 -1253 738 -1028 
Q 353 -809 353 -428 
Q 353 84 1075 247 
L 1075 269 
Q 506 413 506 778 
Q 506 1116 994 1297 
Q 456 1575 456 2181 
Q 456 2650 769 2963 
Q 1128 3322 1738 3322 
Q 2125 3322 2422 3153 
Q 2650 3453 3259 3463 
L 3259 3013 
Q 2838 3003 2703 2938 
Q 3034 2613 3034 2169 
Q 3034 1728 2734 1425 
Q 2400 1094 1813 1094 
Q 1563 1094 1331 1150 
z
M 1734 2919 
Q 1409 2919 1197 2706 
Q 988 2497 988 2181 
Q 988 1872 1184 1684 
Q 1397 1472 1756 1472 
Q 2094 1472 2297 1678 
Q 2503 1881 2503 2203 
Q 2503 2497 2297 2700 
Q 2081 2919 1734 2919 
z
M 1753 159 
Q 903 159 903 -366 
Q 903 -875 1800 -875 
Q 2378 -875 2638 -606 
Q 2772 -481 2772 -313 
Q 2772 159 1753 159 
z
" transform="scale(0.015625)"/>
       </defs>
       <use xlink:href="#IPAexGothic-41"/>
       <use xlink:href="#IPAexGothic-75" x="63.720703"/>
       <use xlink:href="#IPAexGothic-67" x="124.121094"/>
      </g>
     </g>
    </g>
    <g id="xtick_4">
     <g id="line2d_5">
      <g>
       <use xlink:href="#mbb3312b04a" x="151.576758" y="284.991437" style="stroke: #000000; stroke-width: 0.8"/>
      </g>
     </g>
     <g id="text_4">
      <!-- Sep -->
      <g transform="translate(142.701758 299.482062) scale(0.1 -0.1)">
       <defs>
        <path id="IPAexGothic-53" d="M 2919 3641 
Q 2563 4259 1853 4259 
Q 1453 4259 1213 4009 
Q 1028 3803 1028 3534 
Q 1028 3238 1266 3047 
Q 1444 2913 1984 2688 
L 2200 2597 
Q 2925 2306 3191 1953 
Q 3422 1644 3422 1259 
Q 3422 644 2969 288 
Q 2559 -31 1931 -31 
Q 881 -31 313 766 
L 753 1100 
Q 1203 459 1938 459 
Q 2288 459 2534 625 
Q 2841 847 2841 1216 
Q 2841 1503 2616 1728 
Q 2375 1959 1728 2206 
L 1541 2278 
Q 453 2694 453 3481 
Q 453 4006 806 4347 
Q 1203 4725 1863 4725 
Q 2841 4725 3359 3956 
L 2919 3641 
z
" transform="scale(0.015625)"/>
        <path id="IPAexGothic-65" d="M 863 1594 
Q 891 1041 1209 722 
Q 1534 397 1997 397 
Q 2606 397 2963 966 
L 3322 728 
Q 2869 -31 1931 -31 
Q 1222 -31 766 422 
Q 306 884 306 1641 
Q 306 2444 788 2925 
Q 1216 3353 1856 3353 
Q 2459 3353 2866 2956 
Q 3322 2494 3322 1722 
L 3322 1594 
L 863 1594 
z
M 2756 1997 
Q 2709 2431 2450 2681 
Q 2194 2938 1844 2938 
Q 1438 2938 1150 2591 
Q 953 2356 894 1997 
L 2756 1997 
z
" transform="scale(0.015625)"/>
        <path id="IPAexGothic-70" d="M 1075 2688 
Q 1525 3341 2206 3341 
Q 2769 3341 3172 2938 
Q 3641 2469 3641 1644 
Q 3641 841 3178 372 
Q 2775 -31 2200 -31 
Q 1569 -31 1106 497 
L 1106 -1216 
L 563 -1216 
L 563 3250 
L 1075 3250 
L 1075 2688 
z
M 1106 1950 
L 1106 1291 
Q 1106 897 1516 600 
Q 1791 403 2106 403 
Q 2469 403 2725 659 
Q 3066 997 3066 1631 
Q 3066 2200 2784 2559 
Q 2503 2900 2100 2900 
Q 1656 2900 1338 2484 
Q 1106 2184 1106 1950 
z
" transform="scale(0.015625)"/>
       </defs>
       <use xlink:href="#IPAexGothic-53"/>
       <use xlink:href="#IPAexGothic-65" x="58.496094"/>
       <use xlink:href="#IPAexGothic-70" x="115.380859"/>
      </g>
     </g>
    </g>
    <g id="xtick_5">
     <g id="line2d_6">
      <g>
       <use xlink:href="#mbb3312b04a" x="191.404267" y="284.991437" style="stroke: #000000; stroke-width: 0.8"/>
      </g>
     </g>
     <g id="text_5">
      <!-- Oct -->
      <g transform="translate(182.969111 299.482062) scale(0.1 -0.1)">
       <defs>
        <path id="IPAexGothic-4f" d="M 2541 4725 
Q 3456 4725 4044 4138 
Q 4709 3472 4709 2331 
Q 4709 1219 4031 550 
Q 3450 -31 2541 -31 
Q 1638 -31 1056 550 
Q 378 1219 378 2356 
Q 378 3469 1044 4138 
Q 1631 4725 2541 4725 
z
M 2541 4266 
Q 1953 4266 1531 3844 
Q 994 3303 994 2350 
Q 994 1391 1531 863 
Q 1947 447 2541 447 
Q 3131 447 3556 863 
Q 4094 1400 4094 2375 
Q 4094 3297 3550 3844 
Q 3138 4266 2541 4266 
z
" transform="scale(0.015625)"/>
        <path id="IPAexGothic-63" d="M 3269 784 
Q 2834 -31 1900 -31 
Q 1228 -31 788 409 
Q 313 891 313 1663 
Q 313 2428 788 2913 
Q 1222 3347 1881 3347 
Q 2813 3347 3206 2541 
L 2763 2309 
Q 2484 2900 1900 2900 
Q 1516 2900 1234 2619 
Q 881 2266 881 1650 
Q 881 1069 1222 728 
Q 1522 428 1956 428 
Q 2547 428 2847 1016 
L 3269 784 
z
" transform="scale(0.015625)"/>
        <path id="IPAexGothic-74" d="M 2125 241 
Q 1769 -6 1397 -6 
Q 653 -6 653 831 
L 653 2859 
L 219 2859 
L 219 3250 
L 653 3250 
L 653 3966 
L 1178 4228 
L 1178 3250 
L 2063 3250 
L 2063 2859 
L 1178 2859 
L 1178 906 
Q 1178 416 1513 416 
Q 1738 416 1941 588 
L 2125 241 
z
" transform="scale(0.015625)"/>
       </defs>
       <use xlink:href="#IPAexGothic-4f"/>
       <use xlink:href="#IPAexGothic-63" x="79.6875"/>
       <use xlink:href="#IPAexGothic-74" x="134.082031"/>
      </g>
     </g>
    </g>
    <g id="xtick_6">
     <g id="line2d_7">
      <g>
       <use xlink:href="#mbb3312b04a" x="232.55936" y="284.991437" style="stroke: #000000; stroke-width: 0.8"/>
      </g>
     </g>
     <g id="text_6">
      <!-- Nov -->
      <g transform="translate(223.310922 299.482062) scale(0.1 -0.1)">
       <defs>
        <path id="IPAexGothic-4e" d="M 4244 63 
L 3731 63 
L 1697 3150 
Q 1466 3500 1141 4097 
L 1116 4097 
L 1128 3797 
Q 1159 2803 1159 2469 
L 1159 63 
L 609 63 
L 609 4634 
L 1366 4634 
L 3113 1978 
Q 3453 1447 3713 966 
L 3738 966 
Q 3694 1897 3694 2469 
L 3694 4634 
L 4244 4634 
L 4244 63 
z
" transform="scale(0.015625)"/>
        <path id="IPAexGothic-6f" d="M 1919 3341 
Q 2594 3341 3056 2888 
Q 3531 2413 3531 1638 
Q 3531 888 3066 422 
Q 2609 -31 1919 -31 
Q 1228 -31 781 416 
Q 313 881 313 1656 
Q 313 2413 788 2888 
Q 1241 3341 1919 3341 
z
M 1919 2919 
Q 1519 2919 1241 2631 
Q 888 2278 888 1650 
Q 888 1031 1234 684 
Q 1516 403 1919 403 
Q 2331 403 2609 691 
Q 2956 1038 2956 1672 
Q 2956 2269 2603 2631 
Q 2316 2919 1919 2919 
z
" transform="scale(0.015625)"/>
        <path id="IPAexGothic-76" d="M 3103 3250 
L 1747 6 
L 1375 6 
L 25 3250 
L 628 3250 
L 1338 1388 
L 1522 844 
L 1569 703 
L 1588 703 
Q 1641 884 1822 1388 
L 2516 3250 
L 3103 3250 
z
" transform="scale(0.015625)"/>
       </defs>
       <use xlink:href="#IPAexGothic-4e"/>
       <use xlink:href="#IPAexGothic-6f" x="75.976562"/>
       <use xlink:href="#IPAexGothic-76" x="136.376953"/>
      </g>
     </g>
    </g>
    <g id="xtick_7">
     <g id="line2d_8">
      <g>
       <use xlink:href="#mbb3312b04a" x="272.386869" y="284.991437" style="stroke: #000000; stroke-width: 0.8"/>
      </g>
     </g>
     <g id="text_7">
      <!-- Dec -->
      <g transform="translate(263.038432 299.482062) scale(0.1 -0.1)">
       <defs>
        <path id="IPAexGothic-44" d="M 609 4634 
L 1984 4634 
Q 3159 4634 3791 4050 
Q 4456 3444 4456 2356 
Q 4456 1047 3516 441 
Q 2925 63 1941 63 
L 609 63 
L 609 4634 
z
M 1172 556 
L 1894 556 
Q 3853 556 3853 2356 
Q 3853 4147 1928 4147 
L 1172 4147 
L 1172 556 
z
" transform="scale(0.015625)"/>
       </defs>
       <use xlink:href="#IPAexGothic-44"/>
       <use xlink:href="#IPAexGothic-65" x="75.683594"/>
       <use xlink:href="#IPAexGothic-63" x="132.568359"/>
      </g>
     </g>
    </g>
    <g id="xtick_8">
     <g id="line2d_9">
      <g>
       <use xlink:href="#mbb3312b04a" x="313.541962" y="284.991437" style="stroke: #000000; stroke-width: 0.8"/>
      </g>
     </g>
     <g id="text_8">
      <!-- 2023 -->
      <g transform="translate(300.945087 299.482062) scale(0.1 -0.1)">
       <defs>
        <path id="IPAexGothic-32" d="M 3659 63 
L 447 63 
L 447 594 
Q 825 1475 1894 2203 
L 2072 2322 
Q 2619 2697 2791 2906 
Q 2988 3153 2988 3444 
Q 2988 3772 2756 4003 
Q 2500 4259 2084 4259 
Q 1250 4259 991 3328 
L 497 3506 
Q 853 4725 2116 4725 
Q 2806 4725 3216 4316 
Q 3575 3947 3575 3425 
Q 3575 3038 3344 2722 
Q 3131 2416 2366 1938 
L 2231 1856 
Q 1256 1253 978 569 
L 3659 569 
L 3659 63 
z
" transform="scale(0.015625)"/>
        <path id="IPAexGothic-30" d="M 2038 4725 
Q 2881 4725 3334 3944 
Q 3694 3325 3694 2344 
Q 3694 1372 3334 741 
Q 2888 -31 2016 -31 
Q 1147 -31 700 741 
Q 341 1372 341 2350 
Q 341 3713 1000 4334 
Q 1419 4725 2038 4725 
z
M 2016 4266 
Q 1516 4266 1228 3759 
Q 934 3247 934 2344 
Q 934 1456 1222 947 
Q 1513 447 2016 447 
Q 2619 447 2909 1153 
Q 3100 1622 3100 2375 
Q 3100 3256 2806 3759 
Q 2509 4266 2016 4266 
z
" transform="scale(0.015625)"/>
        <path id="IPAexGothic-33" d="M 2381 2419 
Q 3506 2216 3506 1278 
Q 3506 716 3128 356 
Q 2709 -31 1944 -31 
Q 797 -31 288 881 
L 756 1131 
Q 1109 441 1938 441 
Q 2425 441 2694 691 
Q 2950 928 2950 1291 
Q 2950 1719 2566 1978 
Q 2216 2213 1644 2213 
L 1363 2213 
L 1363 2669 
L 1656 2669 
Q 2231 2669 2534 2888 
Q 2859 3119 2859 3509 
Q 2859 3934 2494 4138 
Q 2259 4278 1931 4278 
Q 1238 4278 903 3578 
L 434 3803 
Q 897 4725 1938 4725 
Q 2597 4725 3006 4394 
Q 3416 4069 3416 3534 
Q 3416 3028 3019 2706 
Q 2763 2500 2381 2444 
L 2381 2419 
z
" transform="scale(0.015625)"/>
       </defs>
       <use xlink:href="#IPAexGothic-32"/>
       <use xlink:href="#IPAexGothic-30" x="62.988281"/>
       <use xlink:href="#IPAexGothic-32" x="125.976562"/>
       <use xlink:href="#IPAexGothic-33" x="188.964844"/>
      </g>
     </g>
    </g>
    <g id="xtick_9">
     <g id="line2d_10">
      <g>
       <use xlink:href="#mbb3312b04a" x="354.697055" y="284.991437" style="stroke: #000000; stroke-width: 0.8"/>
      </g>
     </g>
     <g id="text_9">
      <!-- Feb -->
      <g transform="translate(345.873618 299.482062) scale(0.1 -0.1)">
       <defs>
        <path id="IPAexGothic-46" d="M 3469 4141 
L 1172 4141 
L 1172 2656 
L 3206 2656 
L 3206 2188 
L 1172 2188 
L 1172 63 
L 609 63 
L 609 4634 
L 3469 4634 
L 3469 4141 
z
" transform="scale(0.015625)"/>
        <path id="IPAexGothic-62" d="M 1125 2731 
Q 1550 3341 2219 3341 
Q 2788 3341 3191 2938 
Q 3659 2469 3659 1644 
Q 3659 838 3191 372 
Q 2788 -31 2206 -31 
Q 1559 -31 1088 516 
L 1009 44 
L 581 44 
L 581 4794 
L 1125 4794 
L 1125 2731 
z
M 1125 1997 
L 1125 1253 
Q 1125 888 1528 600 
Q 1803 403 2119 403 
Q 2488 403 2744 659 
Q 3084 1009 3084 1631 
Q 3084 2194 2803 2553 
Q 2525 2900 2125 2900 
Q 1759 2900 1438 2578 
Q 1125 2266 1125 1997 
z
" transform="scale(0.015625)"/>
       </defs>
       <use xlink:href="#IPAexGothic-46"/>
       <use xlink:href="#IPAexGothic-65" x="57.177734"/>
       <use xlink:href="#IPAexGothic-62" x="114.0625"/>
      </g>
     </g>
    </g>
   </g>
   <g id="matplotlib.axis_2">
    <g id="ytick_1">
     <g id="line2d_11">
      <defs>
       <path id="m50e0742e4e" d="M 0 0 
L -3.5 0 
" style="stroke: #000000; stroke-width: 0.8"/>
      </defs>
      <g>
       <use xlink:href="#m50e0742e4e" x="29.439063" y="269.014637" style="stroke: #000000; stroke-width: 0.8"/>
      </g>
     </g>
     <g id="text_10">
      <!-- 0.5 -->
      <g transform="translate(7.2 272.759949) scale(0.1 -0.1)">
       <defs>
        <path id="IPAexGothic-2e" d="M 1184 63 
L 494 63 
L 494 753 
L 1184 753 
L 1184 63 
z
" transform="scale(0.015625)"/>
        <path id="IPAexGothic-35" d="M 1178 2603 
Q 1634 2963 2172 2963 
Q 2816 2963 3241 2528 
Q 3638 2113 3638 1497 
Q 3638 938 3297 513 
Q 2869 -31 2031 -31 
Q 959 -31 469 784 
L 938 1028 
Q 1309 434 2013 434 
Q 2466 434 2769 716 
Q 3081 1013 3081 1503 
Q 3081 1966 2806 2241 
Q 2519 2528 2056 2528 
Q 1406 2528 1072 2028 
L 591 2091 
L 884 4634 
L 3406 4634 
L 3406 4153 
L 1341 4153 
L 1134 2603 
L 1178 2603 
z
" transform="scale(0.015625)"/>
       </defs>
       <use xlink:href="#IPAexGothic-30"/>
       <use xlink:href="#IPAexGothic-2e" x="62.988281"/>
       <use xlink:href="#IPAexGothic-35" x="89.404297"/>
      </g>
     </g>
    </g>
    <g id="ytick_2">
     <g id="line2d_12">
      <g>
       <use xlink:href="#m50e0742e4e" x="29.439063" y="211.199039" style="stroke: #000000; stroke-width: 0.8"/>
      </g>
     </g>
     <g id="text_11">
      <!-- 1.0 -->
      <g transform="translate(7.2 214.944352) scale(0.1 -0.1)">
       <defs>
        <path id="IPAexGothic-31" d="M 2463 63 
L 1900 63 
L 1900 4103 
Q 1372 3922 788 3797 
L 684 4231 
Q 1519 4441 2106 4731 
L 2463 4731 
L 2463 63 
z
" transform="scale(0.015625)"/>
       </defs>
       <use xlink:href="#IPAexGothic-31"/>
       <use xlink:href="#IPAexGothic-2e" x="62.988281"/>
       <use xlink:href="#IPAexGothic-30" x="89.404297"/>
      </g>
     </g>
    </g>
    <g id="ytick_3">
     <g id="line2d_13">
      <g>
       <use xlink:href="#m50e0742e4e" x="29.439063" y="153.383442" style="stroke: #000000; stroke-width: 0.8"/>
      </g>
     </g>
     <g id="text_12">
      <!-- 1.5 -->
      <g transform="translate(7.2 157.128754) scale(0.1 -0.1)">
       <use xlink:href="#IPAexGothic-31"/>
       <use xlink:href="#IPAexGothic-2e" x="62.988281"/>
       <use xlink:href="#IPAexGothic-35" x="89.404297"/>
      </g>
     </g>
    </g>
    <g id="ytick_4">
     <g id="line2d_14">
      <g>
       <use xlink:href="#m50e0742e4e" x="29.439063" y="95.567844" style="stroke: #000000; stroke-width: 0.8"/>
      </g>
     </g>
     <g id="text_13">
      <!-- 2.0 -->
      <g transform="translate(7.2 99.313157) scale(0.1 -0.1)">
       <use xlink:href="#IPAexGothic-32"/>
       <use xlink:href="#IPAexGothic-2e" x="62.988281"/>
       <use xlink:href="#IPAexGothic-30" x="89.404297"/>
      </g>
     </g>
    </g>
    <g id="ytick_5">
     <g id="line2d_15">
      <g>
       <use xlink:href="#m50e0742e4e" x="29.439063" y="37.752247" style="stroke: #000000; stroke-width: 0.8"/>
      </g>
     </g>
     <g id="text_14">
      <!-- 2.5 -->
      <g transform="translate(7.2 41.497559) scale(0.1 -0.1)">
       <use xlink:href="#IPAexGothic-32"/>
       <use xlink:href="#IPAexGothic-2e" x="62.988281"/>
       <use xlink:href="#IPAexGothic-35" x="89.404297"/>
      </g>
     </g>
    </g>
   </g>
   <g id="line2d_16">
    <path d="M 29.439063 227.411867 
L 30.766646 255.471758 
L 32.09423 269.405805 
L 33.421813 242.945807 
L 34.749397 262.441258 
L 37.404564 251.639145 
L 38.732148 227.514621 
L 40.059732 229.940841 
L 41.387315 194.078383 
L 42.714899 246.403784 
L 44.042483 250.411663 
L 45.370066 205.84664 
L 46.69765 249.191321 
L 48.025234 272.895437 
L 49.352817 243.090535 
L 50.680401 247.559579 
L 52.007984 238.429093 
L 53.335568 112.810292 
L 54.663152 184.323192 
L 55.990735 181.498781 
L 57.318319 30.975437 
L 59.973486 168.571026 
L 61.30107 110.868109 
L 62.628654 213.126183 
L 63.956237 156.293505 
L 65.283821 124.518024 
L 66.611405 151.875457 
L 67.938988 236.751655 
L 69.266572 106.655378 
L 70.594155 51.387485 
L 71.921739 102.788184 
L 73.249323 95.926279 
L 74.576906 36.542983 
L 75.90449 79.37836 
L 77.232074 35.439549 
L 78.559657 110.396771 
L 79.887241 116.980214 
L 81.214825 109.726148 
L 82.542408 177.160719 
L 83.869992 110.814502 
L 85.197576 153.702013 
L 86.525159 148.460822 
L 87.852743 164.812112 
L 89.180326 190.526245 
L 90.50791 181.526351 
L 91.835494 197.096587 
L 93.163077 219.976945 
L 94.490661 163.710275 
L 95.818245 173.022011 
L 97.145828 196.817697 
L 98.473412 179.527296 
L 99.800996 191.661352 
L 101.128579 192.887858 
L 102.456163 173.15897 
L 103.783747 188.50237 
L 105.11133 201.809366 
L 106.438914 195.197746 
L 107.766497 183.412435 
L 109.094081 192.046725 
L 110.421665 204.737627 
L 111.749248 199.025674 
L 113.076832 189.016626 
L 114.404416 185.809755 
L 115.731999 182.941981 
L 117.059583 200.02008 
L 118.387167 192.032303 
L 119.71475 181.775482 
L 121.042334 186.871327 
L 122.369918 193.9839 
L 123.697501 204.601463 
L 125.025085 225.669065 
L 126.352668 207.989558 
L 127.680252 218.057369 
L 129.007836 204.232725 
L 130.335419 217.282458 
L 131.663003 202.720535 
L 132.990587 195.141529 
L 134.31817 153.461242 
L 135.645754 171.531238 
L 136.973338 185.828914 
L 138.300921 204.950127 
L 139.628505 187.736367 
L 140.956089 211.671324 
L 142.283672 216.92144 
L 143.611256 231.587854 
L 144.938839 248.509599 
L 146.266423 240.826108 
L 147.594007 241.29957 
L 148.92159 247.072575 
L 150.249174 251.367839 
L 151.576758 251.669425 
L 152.904341 251.785215 
L 154.231925 242.900107 
L 155.559509 251.663262 
L 156.887092 241.186243 
L 158.214676 228.929625 
L 159.54226 240.670472 
L 160.869843 239.689961 
L 162.197427 228.587222 
L 163.52501 234.114512 
L 164.852594 220.053728 
L 166.180178 221.634093 
L 167.507761 247.789493 
L 168.835345 250.578039 
L 170.162929 230.847867 
L 171.490512 240.571341 
L 172.818096 229.667605 
L 174.14568 228.965012 
L 175.473263 226.507 
L 176.800847 266.267581 
L 178.128431 173.994674 
L 179.456014 228.352097 
L 180.783598 212.968149 
L 182.111181 243.863512 
L 183.438765 195.951487 
L 184.766349 187.500784 
L 186.093932 195.32975 
L 187.421516 238.855842 
L 188.7491 224.563828 
L 190.076683 239.674853 
L 191.404267 205.067187 
L 192.731851 219.657973 
L 194.059434 258.893645 
L 195.387018 189.095647 
L 196.714602 231.988543 
L 198.042185 230.452082 
L 199.369769 208.848889 
L 200.697352 214.413367 
L 202.024936 237.774657 
L 203.35252 208.216448 
L 204.680103 269.328924 
L 206.007687 186.857034 
L 207.335271 168.652783 
L 208.662854 211.199039 
L 209.990438 197.903063 
L 211.318022 190.42842 
L 212.645605 209.746404 
L 213.973189 135.123595 
L 215.300773 212.926136 
L 216.628356 239.34414 
L 217.95594 184.631705 
L 219.283523 193.892671 
L 220.611107 220.351516 
L 221.938691 197.002011 
L 223.266274 191.634272 
L 224.593858 213.253557 
L 225.921442 183.049443 
L 227.249025 199.198481 
L 228.576609 190.346771 
L 229.904193 160.309806 
L 231.231776 189.784075 
L 232.55936 198.104074 
L 233.886944 152.110827 
L 235.214527 152.9204 
L 236.542111 232.748365 
L 237.869694 165.024121 
L 239.197278 194.085734 
L 240.524862 199.838398 
L 241.852445 173.564927 
L 243.180029 209.205445 
L 244.507613 206.690562 
L 245.835196 156.249641 
L 247.16278 220.402577 
L 248.490364 215.284532 
L 249.817947 225.924092 
L 251.145531 188.099011 
L 252.473115 185.511636 
L 253.800698 211.199039 
L 255.128282 194.160213 
L 256.455865 184.55213 
L 257.783449 182.799057 
L 260.438616 203.930102 
L 261.7662 168.757197 
L 263.093784 220.491359 
L 264.421367 171.577359 
L 267.076535 192.11637 
L 268.404118 204.402838 
L 269.731702 198.987955 
L 271.059286 181.777237 
L 272.386869 142.696764 
L 273.714453 213.580923 
L 275.042036 220.529523 
L 276.36962 204.080643 
L 277.697204 205.292279 
L 279.024787 181.962456 
L 280.352371 194.793532 
L 281.679955 197.432704 
L 283.007538 173.295964 
L 284.335122 175.045451 
L 285.662706 167.16196 
L 286.990289 187.120934 
L 288.317873 183.834422 
L 289.645457 173.778001 
L 290.97304 181.23856 
L 292.300624 201.020413 
L 293.628207 187.828789 
L 294.955791 213.66936 
L 296.283375 207.768569 
L 297.610958 207.295129 
L 298.938542 192.832229 
L 300.266126 206.958159 
L 301.593709 188.728128 
L 302.921293 193.851266 
L 304.248877 207.103197 
L 305.57646 215.224404 
L 306.904044 196.113595 
L 308.231628 220.91992 
L 309.559211 200.04709 
L 310.886795 223.444191 
L 312.214378 251.024981 
L 313.541962 228.180558 
L 314.869546 208.755181 
L 316.197129 251.311193 
L 317.524713 254.432046 
L 318.852297 215.74342 
L 320.17988 126.299141 
L 321.507464 90.185267 
L 322.835048 169.01121 
L 324.162631 202.233317 
L 325.490215 208.810336 
L 326.817799 167.736099 
L 328.145382 215.685286 
L 329.472966 255.304956 
L 330.800549 257.151057 
L 332.128133 241.910597 
L 333.455717 230.363911 
L 334.7833 201.639485 
L 336.110884 252.591109 
L 337.438468 261.202922 
L 338.766051 248.191392 
L 340.093635 245.888016 
L 341.421219 248.528538 
L 342.748802 233.937612 
L 344.076386 243.873594 
L 345.40397 245.699396 
L 346.731553 238.379427 
L 348.059137 250.421781 
L 349.38672 242.025158 
L 350.714304 235.679743 
L 352.041888 231.977605 
L 353.369471 268.725993 
L 354.697055 251.010186 
L 356.024639 243.44844 
L 357.352222 231.173865 
L 358.679806 246.470516 
L 360.00739 240.806074 
L 361.334973 205.729567 
L 362.662557 216.74151 
L 363.990141 221.239134 
L 365.317724 222.049942 
L 366.645308 236.243828 
L 367.972891 216.587974 
L 369.300475 250.056764 
L 370.628059 220.887451 
L 371.955642 228.799652 
L 373.283226 253.712581 
L 374.61081 218.850978 
L 375.938393 215.357996 
L 377.265977 237.280047 
L 378.593561 193.27922 
L 379.921144 224.105076 
L 381.248728 238.379537 
L 382.576312 241.772305 
L 383.903895 251.269511 
L 385.231479 255.03236 
L 385.231479 255.03236 
" clip-path="url(#p1e48b52d0c)" style="fill: none; stroke: #1f77b4; stroke-width: 1.5; stroke-linecap: square"/>
   </g>
   <g id="line2d_17">
    <path d="M 29.439063 230.929789 
L 30.766646 242.60231 
L 32.09423 262.8168 
L 33.421813 257.425513 
L 34.749397 253.337157 
L 36.076981 259.836211 
L 37.404564 254.434415 
L 38.732148 240.414674 
L 40.059732 228.735232 
L 41.387315 213.41839 
L 42.714899 223.501825 
L 44.042483 248.433331 
L 45.370066 230.677266 
L 46.69765 229.912564 
L 48.025234 262.11981 
L 49.352817 259.625445 
L 50.680401 245.355694 
L 52.007984 243.118728 
L 53.335568 189.281671 
L 54.663152 152.189606 
L 55.990735 182.917915 
L 57.318319 119.473036 
L 58.645903 68.196709 
L 59.973486 137.669929 
L 61.30107 141.957318 
L 62.628654 170.127431 
L 63.956237 187.579679 
L 65.283821 141.084002 
L 66.611405 138.693349 
L 67.938988 201.292679 
L 69.266572 186.000414 
L 70.594155 80.567026 
L 71.921739 78.413733 
L 73.249323 99.383107 
L 74.576906 67.931655 
L 75.90449 58.815077 
L 77.232074 58.306173 
L 78.559657 75.699401 
L 79.887241 113.713912 
L 81.214825 113.383995 
L 82.542408 146.569691 
L 83.869992 147.022086 
L 85.197576 133.443524 
L 86.525159 151.100956 
L 87.852743 156.832948 
L 89.180326 178.224324 
L 90.50791 186.098223 
L 91.835494 189.532009 
L 93.163077 209.091256 
L 94.490661 194.807872 
L 95.818245 168.434555 
L 97.145828 185.419494 
L 98.473412 188.44227 
L 99.800996 185.724694 
L 101.128579 192.276003 
L 102.456163 183.362139 
L 103.783747 181.032368 
L 105.11133 195.324076 
L 106.438914 198.546144 
L 107.766497 189.431392 
L 109.094081 187.79659 
L 110.421665 198.54902 
L 111.749248 201.914295 
L 113.076832 194.115474 
L 114.404416 187.422411 
L 115.731999 184.383085 
L 117.059583 191.750659 
L 118.387167 196.087179 
L 119.71475 186.997904 
L 121.042334 184.346184 
L 122.369918 190.473981 
L 123.697501 199.403219 
L 125.025085 215.633088 
L 126.352668 217.185071 
L 127.680252 213.134848 
L 129.007836 211.351742 
L 130.335419 210.94113 
L 131.663003 210.228598 
L 132.990587 198.987184 
L 134.31817 175.731796 
L 135.645754 162.744798 
L 138.300921 195.737687 
L 139.628505 196.62741 
L 140.956089 200.268399 
L 142.283672 214.327003 
L 143.611256 224.517111 
L 144.938839 240.462163 
L 146.266423 244.757718 
L 147.594007 241.063165 
L 148.92159 244.236496 
L 150.249174 249.249927 
L 151.576758 251.518783 
L 152.904341 251.727342 
L 154.231925 247.466905 
L 155.559509 247.402446 
L 156.887092 246.595581 
L 158.214676 235.262778 
L 159.54226 234.987471 
L 160.869843 240.181603 
L 162.197427 234.304978 
L 163.52501 231.390872 
L 164.852594 227.332189 
L 166.180178 220.846856 
L 167.507761 235.644814 
L 168.835345 249.196285 
L 170.162929 241.279862 
L 171.490512 235.839395 
L 172.818096 235.281663 
L 174.14568 229.316941 
L 175.473263 227.743627 
L 176.800847 248.882551 
L 178.128431 230.621466 
L 179.456014 204.147875 
L 180.783598 220.93913 
L 182.111181 229.635769 
L 183.438765 222.625721 
L 184.766349 191.792225 
L 186.093932 191.471858 
L 187.421516 219.272458 
L 188.7491 231.97864 
L 190.076683 232.42119 
L 191.404267 223.814193 
L 192.731851 212.595296 
L 194.059434 241.501939 
L 195.387018 230.097519 
L 196.714602 212.536835 
L 198.042185 231.223399 
L 199.369769 220.196168 
L 200.697352 211.66473 
L 202.024936 226.773505 
L 203.35252 224.052711 
L 204.680103 244.24423 
L 206.007687 237.116008 
L 207.335271 178.033043 
L 209.990438 204.731901 
L 211.318022 194.218394 
L 212.645605 200.456001 
L 213.973189 177.011185 
L 215.300773 179.059561 
L 216.628356 227.005264 
L 217.95594 215.29372 
L 219.283523 189.34014 
L 220.611107 207.855357 
L 221.938691 209.25497 
L 223.266274 194.345323 
L 224.593858 202.914504 
L 225.921442 199.04078 
L 227.249025 191.364392 
L 228.576609 194.846812 
L 229.904193 176.074523 
L 231.231776 175.764073 
L 232.55936 194.009205 
L 233.886944 176.860376 
L 235.214527 152.516084 
L 236.542111 198.91713 
L 237.869694 203.448625 
L 239.197278 180.273516 
L 240.524862 196.993923 
L 241.852445 187.318791 
L 243.180029 192.562593 
L 244.507613 207.954654 
L 245.835196 183.674736 
L 247.16278 192.091624 
L 248.490364 217.873602 
L 249.817947 220.737602 
L 251.145531 208.513572 
L 252.473115 186.8113 
L 253.800698 198.998945 
L 255.128282 202.972279 
L 256.455865 189.440136 
L 257.783449 183.678277 
L 259.111033 188.335204 
L 260.438616 198.897374 
L 261.7662 187.448754 
L 263.093784 197.179515 
L 264.421367 198.341262 
L 265.748951 176.894581 
L 267.076535 187.16406 
L 268.404118 198.406453 
L 269.731702 201.724689 
L 271.059286 190.654224 
L 272.386869 163.401008 
L 273.714453 182.424595 
L 275.042036 217.110216 
L 276.36962 212.600777 
L 277.697204 204.687964 
L 279.024787 194.139114 
L 280.352371 188.526714 
L 281.679955 196.119779 
L 283.007538 185.880047 
L 284.335122 174.173214 
L 285.662706 171.1536 
L 286.990289 177.474475 
L 288.317873 185.48723 
L 289.645457 178.891638 
L 290.97304 177.554882 
L 292.300624 191.49043 
L 293.628207 194.588989 
L 294.955791 201.412831 
L 296.283375 210.756455 
L 297.610958 207.532084 
L 298.938542 200.270107 
L 300.266126 200.091846 
L 301.593709 198.165608 
L 302.921293 191.313905 
L 304.248877 200.651084 
L 305.57646 211.235099 
L 306.904044 206.046382 
L 308.231628 209.168684 
L 309.559211 210.952529 
L 310.886795 212.341773 
L 312.214378 238.302243 
L 313.541962 240.353858 
L 314.869546 218.904029 
L 316.197129 232.400817 
L 317.524713 252.888083 
L 318.852297 237.150337 
L 320.17988 177.577562 
L 321.507464 108.989297 
L 322.835048 133.576313 
L 324.162631 186.602691 
L 325.490215 205.566408 
L 326.817799 189.803691 
L 328.145382 193.854637 
L 329.472966 237.669294 
L 330.800549 256.234041 
L 332.128133 249.907348 
L 333.455717 236.3212 
L 334.7833 216.936234 
L 336.110884 230.424572 
L 337.438468 257.029702 
L 338.766051 254.991137 
L 340.093635 247.048016 
L 341.421219 247.219224 
L 342.748802 241.544538 
L 344.076386 239.046068 
L 345.40397 244.791574 
L 346.731553 242.11844 
L 348.059137 244.62081 
L 349.38672 246.332876 
L 350.714304 238.909678 
L 352.041888 233.847098 
L 353.369471 252.591834 
L 354.697055 260.456547 
L 356.024639 247.319155 
L 357.352222 237.521782 
L 358.679806 239.155159 
L 360.00739 243.68652 
L 361.334973 224.763671 
L 362.662557 211.366742 
L 363.990141 219.013772 
L 365.317724 221.645319 
L 366.645308 229.405031 
L 367.972891 226.898006 
L 369.300475 234.831969 
L 370.628059 236.643788 
L 371.955642 224.92031 
L 373.283226 242.167574 
L 374.61081 237.975354 
L 375.938393 217.118387 
L 377.265977 226.918474 
L 378.593561 217.470651 
L 379.921144 209.70189 
L 381.248728 231.509136 
L 382.576312 240.092508 
L 385.231479 253.174961 
L 385.231479 253.174961 
" clip-path="url(#p1e48b52d0c)" style="fill: none; stroke: #ff7f0e; stroke-width: 1.5; stroke-linecap: square"/>
   </g>
   <g id="line2d_18">
    <path d="M 29.439063 229.122786 
L 30.766646 239.928401 
L 32.09423 252.698705 
L 33.421813 256.780278 
L 34.749397 259.139403 
L 36.076981 254.622372 
L 37.404564 257.208287 
L 38.732148 246.388486 
L 40.059732 237.055655 
L 41.387315 218.326475 
L 44.042483 233.387372 
L 45.370066 236.234427 
L 46.69765 237.293425 
L 49.352817 256.313321 
L 50.680401 255.822722 
L 52.007984 243.109331 
L 53.335568 212.36467 
L 55.990735 162.563334 
L 57.318319 143.84129 
L 58.645903 113.406318 
L 59.973486 107.256927 
L 61.30107 129.127564 
L 62.628654 169.610337 
L 63.956237 165.645532 
L 65.283821 169.115602 
L 66.611405 144.753156 
L 67.938988 179.647632 
L 69.266572 175.437505 
L 70.594155 150.710969 
L 71.921739 88.208754 
L 73.249323 84.394062 
L 74.576906 80.114816 
L 75.90449 71.804879 
L 77.232074 51.239386 
L 78.559657 76.931758 
L 79.887241 90.291085 
L 81.214825 112.392863 
L 82.542408 137.201801 
L 83.869992 135.362509 
L 85.197576 149.276885 
L 86.525159 138.58476 
L 87.852743 155.795645 
L 89.180326 168.900399 
L 93.163077 200.539182 
L 94.490661 195.575228 
L 95.818245 187.912342 
L 97.145828 178.52472 
L 98.473412 183.482093 
L 99.800996 189.523726 
L 101.128579 188.153999 
L 102.456163 186.18367 
L 103.783747 185.09643 
L 105.11133 188.315827 
L 106.438914 195.281979 
L 107.766497 193.687884 
L 109.094081 190.308761 
L 110.421665 193.689874 
L 111.749248 198.708102 
L 113.076832 197.755094 
L 114.404416 191.402728 
L 115.731999 185.944654 
L 117.059583 189.7987 
L 118.387167 191.844605 
L 119.71475 191.480812 
L 121.042334 186.955724 
L 122.369918 187.634041 
L 123.697501 195.355837 
L 125.025085 208.84012 
L 127.680252 217.476612 
L 129.007836 210.241718 
L 130.335419 213.36349 
L 131.663003 208.263285 
L 132.990587 205.402114 
L 134.31817 185.324114 
L 135.645754 174.344388 
L 136.973338 170.831497 
L 138.300921 188.120092 
L 139.628505 193.123075 
L 140.956089 201.848623 
L 142.283672 206.082407 
L 143.611256 220.402845 
L 144.938839 233.236603 
L 146.266423 240.583648 
L 147.594007 243.620823 
L 148.92159 243.114997 
L 151.576758 250.064959 
L 152.904341 251.607698 
L 154.231925 248.893225 
L 155.559509 248.891095 
L 156.887092 245.382199 
L 159.54226 237.10204 
L 160.869843 236.582508 
L 162.197427 236.477418 
L 163.52501 234.241533 
L 164.852594 227.752305 
L 166.180178 225.467971 
L 167.507761 230.718701 
L 168.835345 240.92208 
L 170.162929 243.507227 
L 171.490512 241.044337 
L 172.818096 233.826969 
L 174.14568 233.222764 
L 175.473263 228.38915 
L 176.800847 242.740121 
L 178.128431 229.269077 
L 179.456014 229.870881 
L 180.783598 207.161383 
L 182.111181 229.209749 
L 183.438765 219.501156 
L 184.766349 212.031087 
L 186.093932 192.98185 
L 187.421516 209.581314 
L 188.7491 221.065989 
L 190.076683 234.616737 
L 191.404267 224.06468 
L 192.731851 222.447011 
L 194.059434 230.764786 
L 195.387018 226.735849 
L 196.714602 230.732013 
L 198.042185 218.850986 
L 199.369769 224.281475 
L 200.697352 218.302399 
L 202.024936 221.123664 
L 203.35252 220.93512 
L 204.680103 242.141688 
L 206.007687 228.364316 
L 207.335271 218.44859 
L 208.662854 190.029585 
L 209.990438 193.727182 
L 211.318022 200.139008 
L 212.645605 199.610689 
L 213.973189 181.624175 
L 215.300773 190.09163 
L 217.95594 214.510045 
L 219.283523 208.573118 
L 220.611107 200.569432 
L 221.938691 204.342327 
L 223.266274 203.652593 
L 224.593858 200.974213 
L 225.921442 196.618162 
L 227.249025 199.093369 
L 228.576609 191.026031 
L 229.904193 184.214067 
L 231.231776 180.790352 
L 232.55936 183.611312 
L 233.886944 181.298308 
L 235.214527 169.270937 
L 236.542111 184.905831 
L 237.869694 188.492178 
L 239.197278 200.403438 
L 240.524862 187.108997 
L 241.852445 189.611924 
L 243.180029 195.033037 
L 244.507613 197.447481 
L 245.835196 192.747876 
L 247.16278 197.145102 
L 248.490364 200.314175 
L 249.817947 220.626045 
L 252.473115 201.295556 
L 253.800698 195.464272 
L 255.128282 197.405968 
L 256.455865 197.113713 
L 257.783449 187.261183 
L 259.111033 187.08549 
L 260.438616 193.741822 
L 261.7662 189.550213 
L 263.093784 199.469935 
L 264.421367 189.152671 
L 265.748951 193.119185 
L 267.076535 182.150609 
L 268.404118 193.164416 
L 269.731702 198.60058 
L 271.059286 195.400607 
L 272.386869 176.246527 
L 273.714453 182.20913 
L 275.042036 196.443074 
L 276.36962 212.928431 
L 277.697204 210.214796 
L 279.024787 197.539344 
L 280.352371 194.357613 
L 283.007538 188.916137 
L 284.335122 182.357292 
L 285.662706 171.871023 
L 286.990289 176.669151 
L 288.317873 179.625281 
L 289.645457 181.687232 
L 290.97304 179.678119 
L 292.300624 185.826618 
L 293.628207 190.280728 
L 294.955791 201.282161 
L 296.283375 203.568241 
L 297.610958 209.613962 
L 298.938542 202.82065 
L 300.266126 202.539923 
L 301.593709 196.411828 
L 302.921293 196.743275 
L 304.248877 196.795762 
L 305.57646 205.708887 
L 306.904044 206.399686 
L 308.231628 211.222913 
L 309.559211 206.203506 
L 310.886795 215.275699 
L 312.214378 227.04317 
L 313.541962 235.049338 
L 314.869546 230.893623 
L 316.197129 231.014516 
L 317.524713 240.403632 
L 318.852297 242.143466 
L 320.17988 209.55923 
L 321.507464 152.790998 
L 322.835048 131.180415 
L 324.162631 159.879638 
L 325.490215 194.434509 
L 326.817799 194.078898 
L 328.145382 199.039398 
L 329.472966 218.686553 
L 330.800549 244.703586 
L 332.128133 251.750355 
L 333.455717 243.877834 
L 334.7833 225.985777 
L 336.110884 230.404356 
L 338.766051 254.199875 
L 340.093635 252.076606 
L 342.748802 243.017663 
L 344.076386 242.328067 
L 345.40397 241.322359 
L 346.731553 242.707579 
L 348.059137 244.981923 
L 349.38672 243.764543 
L 350.714304 242.927891 
L 352.041888 236.657187 
L 353.369471 247.335431 
L 354.697055 252.068319 
L 356.024639 255.212423 
L 357.352222 242.265414 
L 358.679806 240.610269 
L 360.00739 239.708955 
L 361.334973 232.583033 
L 362.662557 222.156768 
L 363.990141 214.756056 
L 365.317724 220.03548 
L 366.645308 226.75576 
L 367.972891 225.307435 
L 369.300475 235.305016 
L 370.628059 230.400667 
L 371.955642 234.101419 
L 373.283226 235.597281 
L 374.61081 235.016415 
L 375.938393 230.998408 
L 377.265977 224.298607 
L 378.593561 216.77092 
L 379.921144 219.728418 
L 381.248728 220.168553 
L 382.576312 235.06089 
L 383.903895 243.990749 
L 385.231479 249.55491 
L 385.231479 249.55491 
" clip-path="url(#p1e48b52d0c)" style="fill: none; stroke: #2ca02c; stroke-width: 1.5; stroke-linecap: square"/>
   </g>
   <g id="line2d_19">
    <path d="M 29.439063 221.275211 
L 30.766646 236.505406 
L 32.09423 248.478994 
L 33.421813 250.372301 
L 34.749397 258.240554 
L 36.076981 258.641514 
L 37.404564 253.887849 
L 38.732148 250.742613 
L 40.059732 242.558839 
L 41.387315 227.832517 
L 42.714899 226.152528 
L 44.042483 232.537407 
L 45.370066 227.154092 
L 46.69765 239.663468 
L 48.025234 247.949949 
L 49.352817 246.12502 
L 50.680401 254.219959 
L 52.007984 251.824807 
L 53.335568 220.968504 
L 54.663152 205.919399 
L 55.990735 186.135769 
L 57.318319 136.533121 
L 58.645903 133.903952 
L 59.973486 128.780364 
L 61.30107 108.165345 
L 62.628654 154.661857 
L 63.956237 166.381937 
L 65.283821 156.222628 
L 67.938988 174.127491 
L 69.266572 164.056515 
L 70.594155 151.002816 
L 71.921739 139.788926 
L 73.249323 90.161987 
L 74.576906 73.226844 
L 75.90449 79.930908 
L 77.232074 63.162834 
L 78.559657 67.394559 
L 79.887241 87.608872 
L 81.214825 95.307164 
L 82.542408 130.829051 
L 83.869992 130.923693 
L 86.525159 149.07322 
L 87.852743 145.514995 
L 89.180326 165.230701 
L 90.50791 172.15619 
L 91.835494 183.990017 
L 93.163077 198.107108 
L 94.490661 192.195781 
L 95.818245 190.267628 
L 97.145828 190.194295 
L 98.473412 178.776002 
L 99.800996 185.572177 
L 101.128579 190.372599 
L 102.456163 184.54832 
L 103.783747 186.766963 
L 105.11133 189.473261 
L 106.438914 190.069324 
L 107.766497 192.410021 
L 111.749248 195.044354 
L 113.076832 196.351076 
L 114.404416 194.867136 
L 115.731999 189.335364 
L 117.059583 189.603599 
L 118.387167 190.360547 
L 119.71475 189.394825 
L 121.042334 190.342872 
L 122.369918 188.74688 
L 123.697501 192.084855 
L 125.025085 203.69443 
L 126.352668 208.628052 
L 127.680252 214.390906 
L 129.007836 214.306201 
L 130.335419 212.043229 
L 131.663003 210.791529 
L 132.990587 205.110817 
L 134.31817 194.096195 
L 135.645754 181.995215 
L 136.973338 177.300368 
L 138.300921 180.166067 
L 139.628505 188.02426 
L 140.956089 198.022962 
L 143.611256 213.03684 
L 144.938839 228.256977 
L 146.266423 235.194567 
L 147.594007 240.763189 
L 148.92159 244.49752 
L 150.249174 245.259188 
L 152.904341 250.498685 
L 154.231925 249.519384 
L 155.559509 249.59516 
L 156.887092 247.032432 
L 158.214676 241.548346 
L 159.54226 240.987516 
L 162.197427 234.646856 
L 163.52501 235.892398 
L 166.180178 226.256947 
L 167.507761 231.579139 
L 168.835345 236.122417 
L 170.162929 238.507266 
L 171.490512 242.782759 
L 172.818096 238.331566 
L 174.14568 232.634606 
L 175.473263 231.587191 
L 176.800847 239.646891 
L 178.128431 229.193149 
L 179.456014 229.040635 
L 180.783598 225.896331 
L 182.111181 217.632953 
L 183.438765 221.78581 
L 184.766349 212.266073 
L 186.093932 208.065956 
L 187.421516 206.313066 
L 188.7491 213.521109 
L 190.076683 226.061058 
L 191.404267 227.980673 
L 192.731851 222.980288 
L 194.059434 233.074257 
L 195.387018 221.710038 
L 196.714602 228.075685 
L 198.042185 230.662107 
L 199.369769 216.432907 
L 200.697352 221.898783 
L 202.024936 223.537176 
L 203.35252 218.034898 
L 204.680103 235.927619 
L 206.007687 230.806248 
L 207.335271 215.976432 
L 208.662854 216.679967 
L 209.990438 192.041922 
L 211.318022 192.910047 
L 212.645605 202.612348 
L 213.973189 185.877122 
L 215.300773 190.175906 
L 216.628356 204.536808 
L 217.95594 198.448671 
L 219.283523 209.676726 
L 220.611107 211.634562 
L 221.938691 199.686873 
L 223.266274 201.281933 
L 224.593858 206.126362 
L 225.921442 196.71423 
L 227.249025 197.268091 
L 228.576609 196.960725 
L 229.904193 183.923798 
L 231.231776 185.627441 
L 232.55936 185.325715 
L 233.886944 176.313222 
L 235.214527 174.670499 
L 236.542111 188.327129 
L 237.869694 180.177036 
L 240.524862 200.262414 
L 241.852445 183.839538 
L 243.180029 194.796847 
L 244.507613 198.049398 
L 245.835196 188.189868 
L 247.16278 200.271432 
L 248.490364 201.939318 
L 249.817947 207.269481 
L 251.145531 213.289999 
L 252.473115 204.949238 
L 253.800698 203.848238 
L 255.128282 195.139464 
L 256.455865 194.305696 
L 257.783449 193.674278 
L 259.111033 188.888776 
L 260.438616 191.5016 
L 261.7662 187.892686 
L 263.093784 198.041309 
L 264.421367 193.005785 
L 265.748951 187.405469 
L 267.076535 192.869183 
L 268.404118 188.066754 
L 269.731702 194.64471 
L 271.059286 194.587132 
L 272.386869 183.841066 
L 273.714453 186.599767 
L 275.042036 192.921842 
L 276.36962 198.395901 
L 277.697204 211.065593 
L 280.352371 196.858291 
L 281.679955 195.13317 
L 283.007538 187.209652 
L 284.335122 185.572071 
L 285.662706 178.699715 
L 286.990289 175.832866 
L 288.317873 178.493445 
L 289.645457 178.184745 
L 290.97304 181.575194 
L 292.300624 185.331186 
L 293.628207 186.329848 
L 294.955791 196.546057 
L 296.283375 202.936162 
L 297.610958 204.510717 
L 298.938542 205.626636 
L 300.266126 203.868227 
L 301.593709 199.222196 
L 302.921293 195.776348 
L 304.248877 199.414406 
L 305.57646 201.670223 
L 306.904044 203.378204 
L 308.231628 210.206468 
L 309.559211 208.524885 
L 310.886795 210.766072 
L 312.214378 225.546373 
L 314.869546 229.083162 
L 316.197129 236.464788 
L 317.524713 237.497733 
L 318.852297 234.806213 
L 320.17988 221.777563 
L 321.507464 187.059161 
L 322.835048 156.996009 
L 324.162631 152.052377 
L 325.490215 173.746238 
L 326.817799 188.21243 
L 328.145382 199.845473 
L 329.472966 216.297816 
L 332.128133 244.014071 
L 333.455717 246.895303 
L 334.7833 234.888058 
L 336.110884 233.419403 
L 337.438468 239.247932 
L 338.766051 243.609469 
L 340.093635 252.205565 
L 341.421219 251.204953 
L 342.748802 244.342162 
L 344.076386 243.23247 
L 345.40397 243.18381 
L 346.731553 240.595936 
L 348.059137 244.706237 
L 349.38672 244.25254 
L 350.714304 241.813187 
L 352.041888 240.314936 
L 353.369471 246.039879 
L 354.697055 248.270489 
L 356.024639 250.000714 
L 357.352222 249.838473 
L 358.679806 243.336882 
L 360.00739 240.659262 
L 361.334973 232.232699 
L 362.662557 228.85032 
L 363.990141 221.92811 
L 365.317724 216.625799 
L 366.645308 224.341012 
L 367.972891 224.305296 
L 369.300475 232.157378 
L 370.628059 231.895875 
L 371.955642 230.002881 
L 373.283226 239.449318 
L 374.61081 231.67145 
L 375.938393 230.453386 
L 377.265977 232.608966 
L 378.593561 217.294661 
L 379.921144 218.652145 
L 381.248728 224.730893 
L 382.576312 226.036156 
L 383.903895 239.412963 
L 385.231479 246.900947 
L 385.231479 246.900947 
" clip-path="url(#p1e48b52d0c)" style="fill: none; stroke: #d62728; stroke-width: 1.5; stroke-linecap: square"/>
   </g>
   <g id="line2d_20">
    <path d="M 29.439063 222.506149 
L 30.766646 229.225195 
L 32.09423 244.328125 
L 33.421813 247.402355 
L 34.749397 252.954749 
L 36.076981 258.019032 
L 37.404564 257.295259 
L 38.732148 249.2435 
L 40.059732 246.974437 
L 41.387315 234.54074 
L 42.714899 231.861658 
L 44.042483 231.553594 
L 45.370066 227.717781 
L 46.69765 232.012654 
L 48.025234 247.643113 
L 50.680401 246.413994 
L 52.007984 251.305355 
L 53.335568 234.325278 
L 54.663152 214.484016 
L 55.990735 201.387908 
L 57.318319 163.586194 
L 58.645903 129.858474 
L 59.973486 141.397281 
L 61.30107 125.3209 
L 62.628654 134.972888 
L 63.956237 154.989431 
L 65.283821 158.76708 
L 66.611405 155.361922 
L 67.938988 182.873277 
L 69.266572 162.532711 
L 70.594155 145.998895 
L 71.921739 142.271252 
L 73.249323 131.739654 
L 74.576906 80.2958 
L 75.90449 74.469261 
L 77.232074 71.612377 
L 78.559657 73.369884 
L 79.887241 78.170446 
L 81.214825 92.205622 
L 82.542408 114.651386 
L 83.869992 126.98029 
L 85.197576 135.707335 
L 86.525159 141.820322 
L 87.852743 152.338799 
L 89.180326 155.572908 
L 90.50791 168.629853 
L 91.835494 177.501124 
L 93.163077 192.046346 
L 94.490661 191.863517 
L 95.818245 188.562489 
L 97.145828 191.603524 
L 98.473412 188.124556 
L 99.800996 181.447777 
L 101.128579 187.0666 
L 102.456163 187.0915 
L 103.783747 185.34807 
L 105.11133 189.913695 
L 106.438914 190.637736 
L 107.766497 188.763136 
L 110.421665 195.654061 
L 111.749248 195.075047 
L 113.076832 193.860278 
L 114.404416 194.307816 
L 115.731999 192.563919 
L 117.059583 191.542008 
L 119.71475 188.685177 
L 121.042334 188.893792 
L 122.369918 191.078975 
L 123.697501 192.074346 
L 125.025085 199.593102 
L 126.352668 204.565698 
L 127.680252 210.577143 
L 129.007836 212.428944 
L 130.335419 214.907852 
L 131.663003 210.23647 
L 132.990587 207.817891 
L 134.31817 196.188428 
L 135.645754 189.862088 
L 136.973338 182.770205 
L 138.300921 183.291563 
L 139.628505 181.712392 
L 140.956089 193.113415 
L 143.611256 211.463604 
L 146.266423 230.909798 
L 148.92159 242.063784 
L 150.249174 245.919887 
L 151.576758 246.583547 
L 152.904341 248.741635 
L 154.231925 249.036102 
L 155.559509 249.952996 
L 156.887092 247.98217 
L 158.214676 243.701758 
L 159.54226 241.373489 
L 160.869843 240.72956 
L 162.197427 235.993508 
L 164.852594 232.924776 
L 166.180178 229.099784 
L 167.507761 230.988135 
L 168.835345 235.724345 
L 170.162929 235.091221 
L 171.490512 238.923995 
L 172.818096 240.309621 
L 174.14568 236.532871 
L 175.473263 231.439783 
L 176.800847 239.832571 
L 178.128431 229.288225 
L 179.456014 229.025515 
L 180.783598 226.018762 
L 182.111181 229.776904 
L 183.438765 213.604985 
L 184.766349 215.680869 
L 186.093932 209.062995 
L 187.421516 214.984372 
L 188.7491 210.206824 
L 190.076683 219.314815 
L 191.404267 222.17396 
L 192.731851 226.369517 
L 194.059434 231.430807 
L 195.387018 225.577264 
L 196.714602 223.851206 
L 198.042185 228.555607 
L 199.369769 226.648719 
L 200.697352 216.031922 
L 202.024936 225.28565 
L 203.35252 220.640156 
L 204.680103 231.061495 
L 206.007687 227.73105 
L 207.335271 220.726004 
L 208.662854 215.037011 
L 209.990438 213.157231 
L 211.318022 191.720756 
L 212.645605 196.460668 
L 213.973189 191.350375 
L 215.300773 191.757527 
L 216.628356 201.836996 
L 217.95594 200.792232 
L 219.283523 197.550137 
L 220.611107 211.894043 
L 221.938691 208.846332 
L 223.266274 198.115669 
L 224.593858 203.773183 
L 225.921442 201.828184 
L 227.249025 197.214919 
L 228.576609 195.912493 
L 231.231776 185.115566 
L 232.55936 188.215948 
L 233.886944 179.230873 
L 235.214527 171.901027 
L 236.542111 188.619752 
L 237.869694 183.951829 
L 239.197278 183.070739 
L 240.524862 191.957715 
L 241.852445 195.323676 
L 243.180029 189.316525 
L 244.507613 197.266248 
L 245.835196 190.602066 
L 247.16278 195.331172 
L 248.490364 203.427593 
L 249.817947 207.153921 
L 251.145531 203.660003 
L 252.473115 208.209749 
L 253.800698 206.225655 
L 255.128282 201.968952 
L 256.455865 193.086981 
L 257.783449 192.080368 
L 259.111033 193.671134 
L 260.438616 192.037551 
L 261.7662 187.230909 
L 263.093784 195.127704 
L 264.421367 193.136595 
L 265.748951 190.879234 
L 267.076535 188.360647 
L 268.404118 195.259724 
L 269.731702 190.323195 
L 271.059286 192.16594 
L 272.386869 185.535827 
L 273.714453 190.356327 
L 275.042036 194.157665 
L 276.36962 195.231943 
L 277.697204 199.805793 
L 279.024787 205.75506 
L 280.352371 201.980701 
L 281.679955 196.973377 
L 284.335122 184.857416 
L 285.662706 182.068236 
L 286.990289 180.423619 
L 288.317873 177.468219 
L 289.645457 177.562124 
L 290.97304 178.80059 
L 292.300624 185.690961 
L 293.628207 185.834271 
L 296.283375 198.87215 
L 297.610958 203.82049 
L 298.938542 202.259429 
L 300.266126 205.894119 
L 301.593709 200.979192 
L 302.921293 198.165651 
L 304.248877 198.124359 
L 305.57646 202.74615 
L 306.904044 200.578123 
L 308.231628 207.104849 
L 309.559211 208.241904 
L 310.886795 211.671763 
L 312.214378 220.244674 
L 313.541962 226.078778 
L 314.869546 223.863886 
L 316.197129 233.998962 
L 317.524713 240.383726 
L 318.852297 233.517676 
L 320.17988 219.293385 
L 321.507464 203.251104 
L 322.835048 183.622751 
L 324.162631 167.197618 
L 325.490215 165.252998 
L 326.817799 172.562654 
L 328.145382 194.202864 
L 329.472966 213.618043 
L 330.800549 226.041419 
L 332.128133 232.462632 
L 333.455717 241.448056 
L 334.7833 239.391526 
L 336.110884 238.737845 
L 337.438468 239.787062 
L 338.766051 241.114508 
L 340.093635 244.070253 
L 341.421219 251.48424 
L 342.748802 248.029576 
L 344.076386 244.248661 
L 345.40397 243.731784 
L 346.731553 242.244278 
L 348.059137 242.65733 
L 349.38672 244.176889 
L 350.714304 242.605043 
L 352.041888 239.931252 
L 353.369471 246.935916 
L 354.697055 247.059347 
L 356.024639 247.328921 
L 357.352222 246.558014 
L 358.679806 249.176368 
L 360.00739 242.836748 
L 361.334973 234.590488 
L 362.662557 229.319501 
L 363.990141 227.373291 
L 365.317724 221.952487 
L 366.645308 220.862935 
L 367.972891 222.835301 
L 369.300475 230.068009 
L 370.628059 230.003639 
L 371.955642 231.284555 
L 373.283226 235.291923 
L 374.61081 235.670859 
L 375.938393 228.611926 
L 377.265977 231.859133 
L 378.593561 225.800643 
L 379.921144 218.691941 
L 381.248728 222.921585 
L 382.576312 228.392567 
L 383.903895 231.680575 
L 385.231479 242.787511 
L 385.231479 242.787511 
" clip-path="url(#p1e48b52d0c)" style="fill: none; stroke: #9467bd; stroke-width: 1.5; stroke-linecap: square"/>
   </g>
   <g id="line2d_21">
    <path d="M 29.439063 221.989476 
L 30.766646 228.904971 
L 32.09423 237.483987 
L 33.421813 244.099331 
L 34.749397 250.133055 
L 37.404564 256.994611 
L 38.732148 253.038847 
L 41.387315 239.915086 
L 42.714899 236.632969 
L 44.042483 235.239876 
L 45.370066 227.68395 
L 46.69765 231.670455 
L 48.025234 240.522 
L 49.352817 246.901912 
L 50.680401 247.094508 
L 52.007984 245.135114 
L 53.335568 236.98727 
L 54.663152 227.417148 
L 55.990735 209.558869 
L 58.645903 154.479575 
L 59.973486 136.912814 
L 61.30107 136.626651 
L 62.628654 143.651398 
L 63.956237 138.702995 
L 65.283821 150.24993 
L 66.611405 157.637623 
L 67.938988 172.805614 
L 69.266572 172.308881 
L 70.594155 147.756838 
L 71.921739 139.424444 
L 73.249323 135.249771 
L 74.576906 118.380389 
L 75.90449 80.14313 
L 77.232074 68.347758 
L 78.559657 78.528388 
L 81.214825 83.731536 
L 82.542408 109.142714 
L 83.869992 114.016671 
L 85.197576 131.704446 
L 86.525159 137.894546 
L 87.852743 145.867244 
L 89.180326 159.375849 
L 90.50791 160.199988 
L 91.835494 173.774933 
L 93.163077 185.603024 
L 94.490661 187.691034 
L 97.145828 189.973888 
L 98.473412 189.661866 
L 99.800996 188.720384 
L 101.128579 183.420157 
L 102.456163 184.839306 
L 103.783747 187.32764 
L 105.11133 188.234936 
L 106.438914 190.808875 
L 107.766497 189.459306 
L 109.094081 189.315904 
L 110.421665 194.488321 
L 111.749248 196.222111 
L 113.076832 194.084129 
L 114.404416 192.551171 
L 115.731999 192.477858 
L 117.059583 193.836383 
L 118.387167 191.623847 
L 119.71475 188.740474 
L 121.042334 188.38451 
L 122.369918 189.755489 
L 123.697501 193.432394 
L 125.025085 198.363082 
L 126.352668 201.032618 
L 127.680252 206.925265 
L 129.007836 209.543013 
L 130.335419 213.252545 
L 131.663003 212.963095 
L 132.990587 207.846519 
L 135.645754 192.369156 
L 136.973338 189.197994 
L 139.628505 184.042107 
L 140.956089 187.198671 
L 144.938839 218.675332 
L 146.266423 224.780796 
L 147.594007 232.725185 
L 150.249174 243.690539 
L 151.576758 246.907814 
L 152.904341 247.474879 
L 154.231925 247.797075 
L 155.559509 249.480254 
L 156.887092 248.556817 
L 158.214676 245.08607 
L 159.54226 243.204053 
L 162.197427 238.815428 
L 164.852594 232.270423 
L 166.180178 231.130882 
L 167.507761 232.49656 
L 168.835345 234.57189 
L 170.162929 234.929153 
L 171.490512 236.028174 
L 172.818096 237.444895 
L 174.14568 238.514573 
L 175.473263 234.934333 
L 176.800847 238.395766 
L 178.128431 231.266365 
L 179.456014 229.132824 
L 180.783598 226.515892 
L 182.111181 229.239417 
L 183.438765 224.817696 
L 184.766349 209.621523 
L 186.093932 212.522123 
L 188.7491 216.641101 
L 190.076683 215.732855 
L 191.404267 217.061613 
L 192.731851 221.758769 
L 194.059434 232.710465 
L 195.387018 225.409058 
L 196.714602 226.675144 
L 198.042185 224.981941 
L 199.369769 225.516094 
L 200.697352 224.706134 
L 202.024936 219.993368 
L 203.35252 222.621729 
L 204.680103 230.960194 
L 206.007687 224.808205 
L 207.335271 219.699069 
L 208.662854 219.194515 
L 209.990438 212.348296 
L 211.318022 209.65087 
L 212.645605 194.907088 
L 213.973189 187.807324 
L 215.300773 195.211158 
L 216.628356 201.189777 
L 217.95594 199.121299 
L 219.283523 199.667689 
L 220.611107 201.664094 
L 221.938691 209.536309 
L 223.266274 206.137929 
L 224.593858 200.771985 
L 225.921442 200.539284 
L 227.249025 201.393693 
L 229.904193 190.557175 
L 231.231776 190.24811 
L 232.55936 187.367939 
L 233.886944 182.763564 
L 235.214527 175.139954 
L 236.542111 184.260041 
L 239.197278 185.693006 
L 240.524862 186.011723 
L 241.852445 189.053189 
L 243.180029 197.746163 
L 244.507613 192.377572 
L 245.835196 191.188962 
L 247.16278 196.093335 
L 248.490364 198.888857 
L 249.817947 207.49831 
L 252.473115 200.805821 
L 253.800698 208.713277 
L 255.128282 204.293783 
L 256.455865 199.221764 
L 257.783449 191.424833 
L 259.111033 192.344692 
L 260.438616 195.438584 
L 261.7662 188.410429 
L 263.093784 193.421343 
L 264.421367 191.466693 
L 265.748951 191.34645 
L 267.076535 191.086209 
L 268.404118 191.173373 
L 269.731702 195.888562 
L 271.059286 188.934661 
L 272.386869 184.957424 
L 275.042036 195.922878 
L 276.36962 195.865522 
L 277.697204 196.964714 
L 279.024787 196.992366 
L 280.352371 203.993471 
L 281.679955 201.233957 
L 283.007538 193.29733 
L 284.335122 188.48751 
L 285.662706 182.050611 
L 286.990289 182.922867 
L 288.317873 180.997684 
L 289.645457 176.85942 
L 290.97304 178.181248 
L 292.300624 182.759312 
L 293.628207 186.049535 
L 294.955791 190.908696 
L 296.283375 194.995539 
L 297.610958 200.316108 
L 298.938542 202.053777 
L 300.266126 203.05515 
L 301.593709 203.188982 
L 302.921293 199.818307 
L 304.248877 199.700281 
L 305.57646 201.146293 
L 306.904044 201.664569 
L 308.231628 204.221356 
L 309.559211 205.956449 
L 310.886795 210.922625 
L 312.214378 219.423925 
L 313.541962 221.610325 
L 314.869546 223.37897 
L 316.197129 229.049003 
L 317.524713 237.766712 
L 318.852297 236.693885 
L 321.507464 204.185953 
L 322.835048 198.109798 
L 325.490215 175.034151 
L 326.817799 165.669523 
L 328.145382 180.766015 
L 329.472966 207.173387 
L 330.800549 222.415569 
L 332.128133 228.878611 
L 333.455717 232.116043 
L 334.7833 235.824645 
L 336.110884 241.744141 
L 337.438468 242.955834 
L 338.766051 241.247706 
L 340.093635 241.929208 
L 341.421219 244.83055 
L 342.748802 248.808845 
L 344.076386 247.351661 
L 345.40397 244.492239 
L 346.731553 242.862764 
L 348.059137 243.66558 
L 349.38672 242.552297 
L 350.714304 242.817807 
L 352.041888 240.92033 
L 353.369471 245.569599 
L 354.697055 247.629856 
L 356.024639 246.468575 
L 357.352222 244.839602 
L 358.679806 246.543437 
L 360.00739 247.840138 
L 361.334973 237.555391 
L 362.662557 231.830536 
L 363.990141 228.017048 
L 365.317724 226.505229 
L 366.645308 224.482092 
L 367.972891 220.162131 
L 369.300475 227.964603 
L 370.628059 228.595117 
L 371.955642 229.804007 
L 373.283226 235.451266 
L 374.61081 232.73684 
L 375.938393 232.56268 
L 377.265977 230.112794 
L 378.593561 226.306774 
L 379.921144 225.520005 
L 381.248728 222.253967 
L 382.576312 226.331124 
L 383.903895 232.637563 
L 385.231479 236.043033 
L 385.231479 236.043033 
" clip-path="url(#p1e48b52d0c)" style="fill: none; stroke: #8c564b; stroke-width: 1.5; stroke-linecap: square"/>
   </g>
   <g id="line2d_22">
    <path d="M 29.439063 224.216778 
L 30.766646 227.596136 
L 32.09423 236.094002 
L 33.421813 238.285498 
L 34.749397 247.009287 
L 36.076981 251.173405 
L 37.404564 253.38057 
L 38.732148 253.391419 
L 40.059732 250.111493 
L 41.387315 240.35466 
L 42.714899 240.873149 
L 44.042483 238.743918 
L 45.370066 231.524757 
L 46.69765 231.087585 
L 48.025234 239.084283 
L 49.352817 240.893702 
L 50.680401 246.996197 
L 52.007984 245.910647 
L 53.335568 233.085415 
L 54.663152 230.86679 
L 55.990735 221.875268 
L 57.318319 192.984554 
L 58.645903 172.579527 
L 59.973486 156.56697 
L 61.30107 133.393898 
L 62.628654 150.105108 
L 63.956237 145.513232 
L 65.283821 136.739153 
L 66.611405 150.483069 
L 67.938988 172.207681 
L 69.266572 164.739432 
L 70.594155 159.007124 
L 71.921739 141.932814 
L 73.249323 133.752243 
L 75.90449 113.209754 
L 77.232074 74.203567 
L 78.559657 74.821343 
L 79.887241 84.425418 
L 81.214825 85.512302 
L 82.542408 100.005778 
L 83.869992 109.382331 
L 85.197576 120.19955 
L 86.525159 134.191304 
L 87.852743 141.997781 
L 89.180326 153.047456 
L 90.50791 162.735832 
L 91.835494 166.052801 
L 93.163077 181.433711 
L 94.490661 182.665304 
L 95.818245 185.684395 
L 97.145828 190.052933 
L 98.473412 188.528151 
L 99.800996 189.949308 
L 101.128579 189.323584 
L 102.456163 181.997329 
L 103.783747 185.368481 
L 105.11133 189.494891 
L 106.438914 189.251731 
L 107.766497 189.776067 
L 109.094081 189.831957 
L 110.421665 191.63289 
L 111.749248 195.146246 
L 113.076832 195.216294 
L 114.404416 192.932486 
L 115.731999 191.218756 
L 117.059583 193.58218 
L 118.387167 193.580143 
L 119.71475 190.258975 
L 121.042334 188.474989 
L 122.369918 189.198645 
L 123.697501 191.981943 
L 125.025085 198.601115 
L 126.352668 199.784621 
L 127.680252 203.618883 
L 129.007836 206.544268 
L 130.335419 210.681256 
L 131.663003 211.804545 
L 132.990587 210.573035 
L 134.31817 201.272819 
L 136.973338 191.453746 
L 138.300921 191.567199 
L 139.628505 186.873421 
L 140.956089 188.362043 
L 142.283672 191.892493 
L 144.938839 214.499122 
L 146.266423 222.158824 
L 147.594007 227.322903 
L 148.92159 234.922937 
L 150.249174 240.308315 
L 151.576758 244.880253 
L 152.904341 247.623529 
L 154.231925 246.836933 
L 155.559509 248.36133 
L 156.887092 248.346486 
L 158.214676 246.014508 
L 159.54226 244.469403 
L 160.869843 242.710852 
L 162.197427 239.410904 
L 163.52501 238.158751 
L 164.852594 233.598803 
L 166.180178 230.819473 
L 167.507761 233.710105 
L 168.835345 235.321048 
L 170.162929 234.048867 
L 171.490512 235.757231 
L 172.818096 235.145673 
L 174.14568 236.280027 
L 175.473263 236.891486 
L 176.800847 240.248563 
L 178.128431 231.206691 
L 179.456014 230.855381 
L 180.783598 226.97232 
L 182.111181 229.200263 
L 183.438765 225.060755 
L 184.766349 220.171876 
L 186.093932 207.679122 
L 187.421516 216.719103 
L 188.7491 216.123738 
L 190.076683 220.271379 
L 191.404267 214.26839 
L 192.731851 217.436337 
L 194.059434 228.104504 
L 195.387018 227.449084 
L 196.714602 226.376218 
L 198.042185 227.223636 
L 199.369769 222.819885 
L 200.697352 223.999794 
L 202.024936 226.684388 
L 203.35252 218.385403 
L 204.680103 231.107781 
L 206.007687 225.63427 
L 207.335271 218.212387 
L 208.662854 218.52415 
L 209.990438 216.383034 
L 211.318022 209.44702 
L 212.645605 209.664523 
L 213.973189 187.671964 
L 215.300773 191.709338 
L 216.628356 202.671045 
L 217.95594 198.947973 
L 219.283523 198.387136 
L 220.611107 202.852002 
L 221.938691 201.008475 
L 223.266274 207.131896 
L 224.593858 207.18111 
L 225.921442 198.380668 
L 227.249025 200.348606 
L 228.576609 199.87207 
L 229.904193 191.497092 
L 231.231776 190.446999 
L 232.55936 191.399083 
L 233.886944 182.804438 
L 235.214527 178.836405 
L 236.542111 185.145917 
L 237.869694 181.658839 
L 239.197278 186.284838 
L 240.524862 187.806378 
L 241.852445 184.297498 
L 243.180029 192.130815 
L 244.507613 199.063592 
L 245.835196 187.727666 
L 247.16278 195.808404 
L 248.490364 199.024939 
L 249.817947 203.154815 
L 251.145531 204.902638 
L 252.473115 201.663825 
L 253.800698 202.345891 
L 255.128282 206.736348 
L 259.111033 191.746216 
L 260.438616 194.064329 
L 261.7662 191.922213 
L 263.093784 193.527147 
L 264.421367 190.499864 
L 265.748951 190.157175 
L 267.076535 191.456708 
L 268.404118 193.073793 
L 269.731702 192.318328 
L 271.059286 193.959995 
L 272.386869 183.119016 
L 275.042036 195.385749 
L 276.36962 197.120655 
L 277.697204 197.255697 
L 279.024787 194.920628 
L 280.352371 196.680503 
L 281.679955 203.076989 
L 283.007538 197.57802 
L 284.335122 190.830877 
L 285.662706 185.624953 
L 286.990289 182.786056 
L 288.317873 183.053444 
L 289.645457 179.987536 
L 290.97304 177.492985 
L 292.300624 181.681811 
L 293.628207 183.494688 
L 294.955791 190.37394 
L 296.283375 193.456085 
L 297.610958 196.827227 
L 298.938542 199.273135 
L 300.266126 202.7665 
L 301.593709 201.103242 
L 302.921293 201.896283 
L 304.248877 200.885534 
L 305.57646 202.043694 
L 306.904044 200.439377 
L 308.231628 204.616121 
L 309.559211 203.633554 
L 310.886795 208.62509 
L 312.214378 217.74467 
L 313.541962 220.720925 
L 314.869546 219.863341 
L 316.197129 227.927071 
L 317.524713 233.158476 
L 318.852297 234.910488 
L 320.17988 225.785975 
L 321.507464 207.941713 
L 322.835048 199.687402 
L 324.162631 198.707123 
L 325.490215 190.269042 
L 326.817799 174.012436 
L 328.145382 174.001014 
L 330.800549 216.068495 
L 332.128133 225.453198 
L 333.455717 229.092188 
L 334.7833 228.265121 
L 336.110884 238.433858 
L 337.438468 244.842663 
L 338.766051 243.724589 
L 340.093635 241.926549 
L 341.421219 242.904976 
L 342.748802 243.356351 
L 344.076386 248.122206 
L 345.40397 247.117699 
L 346.731553 243.645552 
L 348.059137 243.986768 
L 349.38672 243.433191 
L 350.714304 241.603178 
L 352.041888 241.348576 
L 353.369471 245.588154 
L 356.024639 247.045601 
L 357.352222 244.443331 
L 360.00739 245.747859 
L 361.334973 242.868152 
L 362.662557 234.842259 
L 363.990141 230.38515 
L 365.317724 227.185875 
L 366.645308 227.958074 
L 367.972891 223.389952 
L 369.300475 225.05755 
L 370.628059 226.98329 
L 371.955642 228.624362 
L 373.283226 233.647225 
L 374.61081 233.246031 
L 375.938393 230.430796 
L 377.265977 233.251507 
L 378.593561 225.549898 
L 379.921144 225.995159 
L 381.248728 227.465659 
L 382.576312 225.295127 
L 383.903895 230.343622 
L 385.231479 236.22079 
L 385.231479 236.22079 
" clip-path="url(#p1e48b52d0c)" style="fill: none; stroke: #e377c2; stroke-width: 1.5; stroke-linecap: square"/>
   </g>
   <g id="patch_3">
    <path d="M 29.439063 284.991437 
L 29.439063 18.879437 
" style="fill: none; stroke: #000000; stroke-width: 0.8; stroke-linejoin: miter; stroke-linecap: square"/>
   </g>
   <g id="patch_4">
    <path d="M 386.559062 284.991437 
L 386.559062 18.879437 
" style="fill: none; stroke: #000000; stroke-width: 0.8; stroke-linejoin: miter; stroke-linecap: square"/>
   </g>
   <g id="patch_5">
    <path d="M 29.439063 284.991437 
L 386.559063 284.991437 
" style="fill: none; stroke: #000000; stroke-width: 0.8; stroke-linejoin: miter; stroke-linecap: square"/>
   </g>
   <g id="patch_6">
    <path d="M 29.439063 18.879437 
L 386.559063 18.879437 
" style="fill: none; stroke: #000000; stroke-width: 0.8; stroke-linejoin: miter; stroke-linecap: square"/>
   </g>
   <g id="legend_1">
    <g id="patch_7">
     <path d="M 341.260625 127.613812 
L 379.559062 127.613812 
Q 381.559062 127.613812 381.559062 125.613812 
L 381.559062 25.879437 
Q 381.559062 23.879437 379.559062 23.879437 
L 341.260625 23.879437 
Q 339.260625 23.879437 339.260625 25.879437 
L 339.260625 125.613812 
Q 339.260625 127.613812 341.260625 127.613812 
z
" style="fill: #ffffff; opacity: 0.8; stroke: #cccccc; stroke-linejoin: miter"/>
    </g>
    <g id="line2d_23">
     <path d="M 343.260625 31.870062 
L 353.260625 31.870062 
L 363.260625 31.870062 
" style="fill: none; stroke: #1f77b4; stroke-width: 1.5; stroke-linecap: square"/>
    </g>
    <g id="text_15">
     <!-- 1 -->
     <g transform="translate(371.260625 35.370062) scale(0.1 -0.1)">
      <use xlink:href="#IPAexGothic-31"/>
     </g>
    </g>
    <g id="line2d_24">
     <path d="M 343.260625 46.260687 
L 353.260625 46.260687 
L 363.260625 46.260687 
" style="fill: none; stroke: #ff7f0e; stroke-width: 1.5; stroke-linecap: square"/>
    </g>
    <g id="text_16">
     <!-- 2 -->
     <g transform="translate(371.260625 49.760687) scale(0.1 -0.1)">
      <use xlink:href="#IPAexGothic-32"/>
     </g>
    </g>
    <g id="line2d_25">
     <path d="M 343.260625 60.651312 
L 353.260625 60.651312 
L 363.260625 60.651312 
" style="fill: none; stroke: #2ca02c; stroke-width: 1.5; stroke-linecap: square"/>
    </g>
    <g id="text_17">
     <!-- 3 -->
     <g transform="translate(371.260625 64.151312) scale(0.1 -0.1)">
      <use xlink:href="#IPAexGothic-33"/>
     </g>
    </g>
    <g id="line2d_26">
     <path d="M 343.260625 75.041937 
L 353.260625 75.041937 
L 363.260625 75.041937 
" style="fill: none; stroke: #d62728; stroke-width: 1.5; stroke-linecap: square"/>
    </g>
    <g id="text_18">
     <!-- 4 -->
     <g transform="translate(371.260625 78.541937) scale(0.1 -0.1)">
      <defs>
       <path id="IPAexGothic-34" d="M 3813 1159 
L 3059 1159 
L 3059 63 
L 2547 63 
L 2547 1159 
L 197 1159 
L 197 1672 
L 2456 4678 
L 3059 4678 
L 3059 1634 
L 3813 1634 
L 3813 1159 
z
M 2578 4109 
L 2559 4109 
Q 2278 3656 2003 3284 
L 759 1634 
L 2547 1634 
L 2547 3144 
Q 2547 3481 2578 4109 
z
" transform="scale(0.015625)"/>
      </defs>
      <use xlink:href="#IPAexGothic-34"/>
     </g>
    </g>
    <g id="line2d_27">
     <path d="M 343.260625 89.432562 
L 353.260625 89.432562 
L 363.260625 89.432562 
" style="fill: none; stroke: #9467bd; stroke-width: 1.5; stroke-linecap: square"/>
    </g>
    <g id="text_19">
     <!-- 5 -->
     <g transform="translate(371.260625 92.932562) scale(0.1 -0.1)">
      <use xlink:href="#IPAexGothic-35"/>
     </g>
    </g>
    <g id="line2d_28">
     <path d="M 343.260625 103.823187 
L 353.260625 103.823187 
L 363.260625 103.823187 
" style="fill: none; stroke: #8c564b; stroke-width: 1.5; stroke-linecap: square"/>
    </g>
    <g id="text_20">
     <!-- 6 -->
     <g transform="translate(371.260625 107.323187) scale(0.1 -0.1)">
      <defs>
       <path id="IPAexGothic-36" d="M 1056 2328 
Q 1509 2981 2234 2981 
Q 2906 2981 3316 2513 
Q 3675 2106 3675 1522 
Q 3675 884 3272 434 
Q 2853 -31 2178 -31 
Q 1375 -31 922 581 
Q 481 1178 481 2228 
Q 481 3425 1013 4109 
Q 1494 4725 2272 4725 
Q 3191 4725 3609 4025 
L 3150 3775 
Q 2894 4266 2300 4266 
Q 1119 4266 1031 2328 
L 1056 2328 
z
M 2141 2547 
Q 1684 2547 1384 2206 
Q 1116 1900 1116 1541 
Q 1116 1156 1353 844 
Q 1672 428 2159 428 
Q 2669 428 2941 844 
Q 3125 1128 3125 1503 
Q 3125 1944 2881 2228 
Q 2600 2547 2141 2547 
z
" transform="scale(0.015625)"/>
      </defs>
      <use xlink:href="#IPAexGothic-36"/>
     </g>
    </g>
    <g id="line2d_29">
     <path d="M 343.260625 118.213812 
L 353.260625 118.213812 
L 363.260625 118.213812 
" style="fill: none; stroke: #e377c2; stroke-width: 1.5; stroke-linecap: square"/>
    </g>
    <g id="text_21">
     <!-- 7 -->
     <g transform="translate(371.260625 121.713812) scale(0.1 -0.1)">
      <defs>
       <path id="IPAexGothic-37" d="M 3597 4263 
Q 2238 2106 1778 63 
L 1131 63 
Q 1581 1834 2950 4128 
L 428 4128 
L 428 4634 
L 3597 4634 
L 3597 4263 
z
" transform="scale(0.015625)"/>
      </defs>
      <use xlink:href="#IPAexGothic-37"/>
     </g>
    </g>
   </g>
  </g>
  <g id="axes_2">
   <g id="matplotlib.axis_3"/>
   <g id="patch_8">
    <path d="M 29.439063 284.991437 
L 29.439063 18.879437 
" style="fill: none; stroke: #000000; stroke-width: 0.8; stroke-linejoin: miter; stroke-linecap: square"/>
   </g>
   <g id="patch_9">
    <path d="M 386.559062 284.991437 
L 386.559062 18.879437 
" style="fill: none; stroke: #000000; stroke-width: 0.8; stroke-linejoin: miter; stroke-linecap: square"/>
   </g>
   <g id="patch_10">
    <path d="M 29.439063 284.991437 
L 386.559063 284.991437 
" style="fill: none; stroke: #000000; stroke-width: 0.8; stroke-linejoin: miter; stroke-linecap: square"/>
   </g>
   <g id="patch_11">
    <path d="M 29.439063 18.879437 
L 386.559063 18.879437 
" style="fill: none; stroke: #000000; stroke-width: 0.8; stroke-linejoin: miter; stroke-linecap: square"/>
   </g>
  </g>
  <g id="text_22">
   <!-- : 2023/02/24 16:15:06(JST) -->
   <g transform="translate(211.087188 15.423437) scale(0.1 -0.1)">
    <defs>
     <path id="IPAexGothic-66f4" d="M 2956 3994 
L 2956 4588 
L 513 4588 
L 513 4984 
L 5881 4984 
L 5881 4588 
L 3413 4588 
L 3413 3994 
L 5300 3994 
L 5300 1288 
L 4838 1288 
L 4838 1759 
L 3406 1759 
Q 3384 1125 3150 709 
Q 4291 244 5997 31 
L 5694 -428 
Q 4109 -166 2906 384 
Q 2294 -266 744 -488 
L 494 -66 
Q 1903 59 2491 588 
Q 2041 813 1594 1166 
L 1928 1434 
Q 2331 1106 2747 897 
Q 2922 1219 2950 1759 
L 1556 1759 
L 1556 1413 
L 1097 1413 
L 1097 3994 
L 2956 3994 
z
M 2956 3609 
L 1556 3609 
L 1556 3078 
L 2956 3078 
L 2956 3609 
z
M 3413 3609 
L 3413 3078 
L 4838 3078 
L 4838 3609 
L 3413 3609 
z
M 2956 2700 
L 1556 2700 
L 1556 2144 
L 2956 2144 
L 2956 2700 
z
M 3413 2700 
L 3413 2144 
L 4838 2144 
L 4838 2700 
L 3413 2700 
z
" transform="scale(0.015625)"/>
     <path id="IPAexGothic-65b0" d="M 3891 2803 
Q 3881 1759 3794 1166 
Q 3653 197 3097 -563 
L 2741 -250 
Q 3450 700 3450 2631 
L 3450 4647 
Q 3516 4656 3622 4666 
Q 4656 4778 5447 5063 
L 5825 4678 
Q 4897 4419 3891 4294 
L 3891 3219 
L 6119 3219 
L 6119 2803 
L 5275 2803 
L 5275 -447 
L 4834 -447 
L 4834 2803 
L 3891 2803 
z
M 2822 4069 
Q 2678 3572 2519 3181 
L 3250 3181 
L 3250 2784 
L 2059 2784 
L 2059 2216 
L 3184 2216 
L 3184 1831 
L 2059 1831 
L 2059 1544 
Q 2613 1197 3031 847 
L 2781 456 
Q 2472 791 2059 1128 
L 2059 -447 
L 1644 -447 
L 1644 1294 
Q 1272 628 575 -31 
L 269 341 
Q 1041 938 1528 1831 
L 453 1831 
L 453 2216 
L 1644 2216 
L 1644 2784 
L 319 2784 
L 319 3181 
L 1125 3181 
Q 1013 3706 881 4069 
L 453 4069 
L 453 4453 
L 1631 4453 
L 1631 5309 
L 2072 5309 
L 2072 4453 
L 3166 4453 
L 3166 4069 
L 2822 4069 
z
M 2391 4069 
L 1325 4069 
Q 1450 3672 1534 3181 
L 2109 3181 
Q 2294 3659 2391 4069 
z
" transform="scale(0.015625)"/>
     <path id="IPAexGothic-65e5" d="M 5231 4800 
L 5231 -288 
L 4744 -288 
L 4744 128 
L 1647 128 
L 1647 -288 
L 1159 -288 
L 1159 4800 
L 5231 4800 
z
M 1647 4372 
L 1647 2731 
L 4744 2731 
L 4744 4372 
L 1647 4372 
z
M 1647 2297 
L 1647 556 
L 4744 556 
L 4744 2297 
L 1647 2297 
z
" transform="scale(0.015625)"/>
     <path id="IPAexGothic-6642" d="M 2328 4728 
L 2328 563 
L 934 563 
L 934 56 
L 519 56 
L 519 4728 
L 2328 4728 
z
M 934 4331 
L 934 2881 
L 1906 2881 
L 1906 4331 
L 934 4331 
z
M 934 2497 
L 934 953 
L 1906 953 
L 1906 2497 
L 934 2497 
z
M 3938 4372 
L 3938 5313 
L 4378 5313 
L 4378 4372 
L 5772 4372 
L 5772 3981 
L 4378 3981 
L 4378 3194 
L 6072 3194 
L 6072 2803 
L 5203 2803 
L 5203 2047 
L 5959 2047 
L 5959 1650 
L 5216 1650 
L 5216 31 
Q 5216 -447 4691 -447 
Q 4394 -447 3888 -391 
L 3784 78 
Q 4272 0 4591 0 
Q 4775 0 4775 172 
L 4775 1650 
L 2581 1650 
L 2581 2047 
L 4763 2047 
L 4763 2803 
L 2538 2803 
L 2538 3194 
L 3938 3194 
L 3938 3981 
L 2716 3981 
L 2716 4372 
L 3938 4372 
z
M 3669 384 
Q 3331 950 2956 1325 
L 3291 1575 
Q 3719 1147 4025 659 
L 3669 384 
z
" transform="scale(0.015625)"/>
     <path id="IPAexGothic-3a" d="M 1369 2559 
L 672 2559 
L 672 3250 
L 1369 3250 
L 1369 2559 
z
M 1369 63 
L 672 63 
L 672 753 
L 1369 753 
L 1369 63 
z
" transform="scale(0.015625)"/>
     <path id="IPAexGothic-20" transform="scale(0.015625)"/>
     <path id="IPAexGothic-2f" d="M 2719 4709 
L 600 -884 
L 300 -763 
L 2413 4831 
L 2719 4709 
z
" transform="scale(0.015625)"/>
     <path id="IPAexGothic-28" d="M 1928 -1016 
L 1653 -1166 
Q 488 69 488 1875 
Q 488 3678 1653 4909 
L 1928 4763 
Q 1006 3522 1006 1881 
Q 1006 203 1928 -1016 
z
" transform="scale(0.015625)"/>
     <path id="IPAexGothic-54" d="M 3866 4141 
L 2175 4141 
L 2175 63 
L 1606 63 
L 1606 4141 
L -31 4141 
L -31 4634 
L 3866 4634 
L 3866 4141 
z
" transform="scale(0.015625)"/>
     <path id="IPAexGothic-29" d="M 466 4909 
Q 1638 3672 1638 1875 
Q 1638 75 466 -1166 
L 191 -1016 
Q 1119 216 1119 1881 
Q 1119 3509 191 4763 
L 466 4909 
z
" transform="scale(0.015625)"/>
    </defs>
    <use xlink:href="#IPAexGothic-66f4"/>
    <use xlink:href="#IPAexGothic-65b0" x="100"/>
    <use xlink:href="#IPAexGothic-65e5" x="200"/>
    <use xlink:href="#IPAexGothic-6642" x="300"/>
    <use xlink:href="#IPAexGothic-3a" x="400"/>
    <use xlink:href="#IPAexGothic-20" x="431.982422"/>
    <use xlink:href="#IPAexGothic-32" x="458.984375"/>
    <use xlink:href="#IPAexGothic-30" x="521.972656"/>
    <use xlink:href="#IPAexGothic-32" x="584.960938"/>
    <use xlink:href="#IPAexGothic-33" x="647.949219"/>
    <use xlink:href="#IPAexGothic-2f" x="710.9375"/>
    <use xlink:href="#IPAexGothic-30" x="760.9375"/>
    <use xlink:href="#IPAexGothic-32" x="823.925781"/>
    <use xlink:href="#IPAexGothic-2f" x="886.914062"/>
    <use xlink:href="#IPAexGothic-32" x="936.914062"/>
    <use xlink:href="#IPAexGothic-34" x="999.902344"/>
    <use xlink:href="#IPAexGothic-20" x="1062.890625"/>
    <use xlink:href="#IPAexGothic-31" x="1089.892578"/>
    <use xlink:href="#IPAexGothic-36" x="1152.880859"/>
    <use xlink:href="#IPAexGothic-3a" x="1215.869141"/>
    <use xlink:href="#IPAexGothic-31" x="1247.851562"/>
    <use xlink:href="#IPAexGothic-35" x="1310.839844"/>
    <use xlink:href="#IPAexGothic-3a" x="1373.828125"/>
    <use xlink:href="#IPAexGothic-30" x="1405.810547"/>
    <use xlink:href="#IPAexGothic-36" x="1468.798828"/>
    <use xlink:href="#IPAexGothic-28" x="1531.787109"/>
    <use xlink:href="#IPAexGothic-4a" x="1565.087891"/>
    <use xlink:href="#IPAexGothic-53" x="1603.076172"/>
    <use xlink:href="#IPAexGothic-54" x="1661.572266"/>
    <use xlink:href="#IPAexGothic-29" x="1721.484375"/>
   </g>
  </g>
 </g>
 <defs>
  <clipPath id="p1e48b52d0c">
   <rect x="29.439063" y="18.879437" width="357.12" height="266.112"/>
  </clipPath>
 </defs>
</svg>
