<?xml version="1.0" encoding="utf-8" standalone="no"?>
<!DOCTYPE svg PUBLIC "-//W3C//DTD SVG 1.1//EN"
  "http://www.w3.org/Graphics/SVG/1.1/DTD/svg11.dtd">
<svg xmlns:xlink="http://www.w3.org/1999/xlink" width="398.211337pt" height="308.582062pt" viewBox="0 0 398.211337 308.582062" xmlns="http://www.w3.org/2000/svg" version="1.1">
 <metadata>
  <rdf:RDF xmlns:dc="http://purl.org/dc/elements/1.1/" xmlns:cc="http://creativecommons.org/ns#" xmlns:rdf="http://www.w3.org/1999/02/22-rdf-syntax-ns#">
   <cc:Work>
    <dc:type rdf:resource="http://purl.org/dc/dcmitype/StillImage"/>
    <dc:date>2023-05-05T07:13:06.442112</dc:date>
    <dc:format>image/svg+xml</dc:format>
    <dc:creator>
     <cc:Agent>
      <dc:title>Matplotlib v3.7.1, https://matplotlib.org/</dc:title>
     </cc:Agent>
    </dc:creator>
   </cc:Work>
  </rdf:RDF>
 </metadata>
 <defs>
  <style type="text/css">*{stroke-linejoin: round; stroke-linecap: butt}</style>
 </defs>
 <g id="figure_1">
  <g id="patch_1">
   <path d="M 0 308.582062 
L 398.211337 308.582062 
L 398.211337 0 
L 0 0 
z
" style="fill: #ffffff"/>
  </g>
  <g id="axes_1">
   <g id="patch_2">
    <path d="M 29.439063 284.991437 
L 386.559062 284.991437 
L 386.559062 18.879437 
L 29.439063 18.879437 
z
" style="fill: #ffffff"/>
   </g>
   <g id="line2d_1">
    <path d="M 29.439063 211.199039 
L 386.559062 211.199039 
" clip-path="url(#p61a2a57211)" style="fill: none; stroke: #000000; stroke-linecap: square"/>
   </g>
   <g id="matplotlib.axis_1">
    <g id="xtick_1">
     <g id="line2d_2">
      <defs>
       <path id="ma4184d7012" d="M 0 0 
L 0 3.5 
" style="stroke: #000000; stroke-width: 0.8"/>
      </defs>
      <g>
       <use xlink:href="#ma4184d7012" x="29.439063" y="284.991437" style="stroke: #000000; stroke-width: 0.8"/>
      </g>
     </g>
     <g id="text_1">
      <!-- Jun -->
      <g transform="translate(21.499219 299.482062) scale(0.1 -0.1)">
       <defs>
        <path id="IPAexGothic-4a" d="M 1819 4634 
L 1819 1234 
Q 1819 -31 763 -31 
Q 303 -31 -125 209 
L 84 644 
Q 378 447 694 447 
Q 1250 447 1250 1203 
L 1250 4634 
L 1819 4634 
z
" transform="scale(0.015625)"/>
        <path id="IPAexGothic-75" d="M 3284 63 
L 2772 63 
L 2772 644 
Q 2300 0 1625 0 
Q 1072 0 763 375 
Q 519 678 519 1241 
L 519 3250 
L 1069 3250 
L 1069 1259 
Q 1069 466 1734 466 
Q 2406 466 2734 1291 
L 2734 3250 
L 3284 3250 
L 3284 63 
z
" transform="scale(0.015625)"/>
        <path id="IPAexGothic-6e" d="M 3328 63 
L 2778 63 
L 2778 2041 
Q 2778 2853 2106 2853 
Q 1428 2853 1113 2041 
L 1113 63 
L 563 63 
L 563 3250 
L 1075 3250 
L 1075 2675 
Q 1525 3316 2222 3316 
Q 3328 3316 3328 2072 
L 3328 63 
z
" transform="scale(0.015625)"/>
       </defs>
       <use xlink:href="#IPAexGothic-4a"/>
       <use xlink:href="#IPAexGothic-75" x="37.988281"/>
       <use xlink:href="#IPAexGothic-6e" x="98.388672"/>
      </g>
     </g>
    </g>
    <g id="xtick_2">
     <g id="line2d_3">
      <g>
       <use xlink:href="#ma4184d7012" x="61.042602" y="284.991437" style="stroke: #000000; stroke-width: 0.8"/>
      </g>
     </g>
     <g id="text_2">
      <!-- Jul -->
      <g transform="translate(54.773071 299.482062) scale(0.1 -0.1)">
       <defs>
        <path id="IPAexGothic-6c" d="M 1131 63 
L 581 63 
L 581 4794 
L 1131 4794 
L 1131 63 
z
" transform="scale(0.015625)"/>
       </defs>
       <use xlink:href="#IPAexGothic-4a"/>
       <use xlink:href="#IPAexGothic-75" x="37.988281"/>
       <use xlink:href="#IPAexGothic-6c" x="98.388672"/>
      </g>
     </g>
    </g>
    <g id="xtick_3">
     <g id="line2d_4">
      <g>
       <use xlink:href="#ma4184d7012" x="93.699593" y="284.991437" style="stroke: #000000; stroke-width: 0.8"/>
      </g>
     </g>
     <g id="text_3">
      <!-- Aug -->
      <g transform="translate(84.717562 299.42425) scale(0.1 -0.1)">
       <defs>
        <path id="IPAexGothic-41" d="M 4056 63 
L 3444 63 
L 2938 1409 
L 1100 1409 
L 603 63 
L -6 63 
L 1806 4666 
L 2259 4666 
L 4056 63 
z
M 2778 1863 
L 2316 3078 
Q 2125 3588 2028 4000 
L 2009 4000 
Q 1897 3563 1716 3078 
L 1263 1863 
L 2778 1863 
z
" transform="scale(0.015625)"/>
        <path id="IPAexGothic-67" d="M 1331 1150 
Q 1006 1122 1006 900 
Q 1006 613 1763 575 
L 2131 556 
Q 3303 497 3303 -294 
Q 3303 -700 2925 -959 
Q 2519 -1253 1794 -1253 
Q 1138 -1253 738 -1028 
Q 353 -809 353 -428 
Q 353 84 1075 247 
L 1075 269 
Q 506 413 506 778 
Q 506 1116 994 1297 
Q 456 1575 456 2181 
Q 456 2650 769 2963 
Q 1128 3322 1738 3322 
Q 2125 3322 2422 3153 
Q 2650 3453 3259 3463 
L 3259 3013 
Q 2838 3003 2703 2938 
Q 3034 2613 3034 2169 
Q 3034 1728 2734 1425 
Q 2400 1094 1813 1094 
Q 1563 1094 1331 1150 
z
M 1734 2919 
Q 1409 2919 1197 2706 
Q 988 2497 988 2181 
Q 988 1872 1184 1684 
Q 1397 1472 1756 1472 
Q 2094 1472 2297 1678 
Q 2503 1881 2503 2203 
Q 2503 2497 2297 2700 
Q 2081 2919 1734 2919 
z
M 1753 159 
Q 903 159 903 -366 
Q 903 -875 1800 -875 
Q 2378 -875 2638 -606 
Q 2772 -481 2772 -313 
Q 2772 159 1753 159 
z
" transform="scale(0.015625)"/>
       </defs>
       <use xlink:href="#IPAexGothic-41"/>
       <use xlink:href="#IPAexGothic-75" x="63.720703"/>
       <use xlink:href="#IPAexGothic-67" x="124.121094"/>
      </g>
     </g>
    </g>
    <g id="xtick_4">
     <g id="line2d_5">
      <g>
       <use xlink:href="#ma4184d7012" x="126.356585" y="284.991437" style="stroke: #000000; stroke-width: 0.8"/>
      </g>
     </g>
     <g id="text_4">
      <!-- Sep -->
      <g transform="translate(117.481585 299.482062) scale(0.1 -0.1)">
       <defs>
        <path id="IPAexGothic-53" d="M 2919 3641 
Q 2563 4259 1853 4259 
Q 1453 4259 1213 4009 
Q 1028 3803 1028 3534 
Q 1028 3238 1266 3047 
Q 1444 2913 1984 2688 
L 2200 2597 
Q 2925 2306 3191 1953 
Q 3422 1644 3422 1259 
Q 3422 644 2969 288 
Q 2559 -31 1931 -31 
Q 881 -31 313 766 
L 753 1100 
Q 1203 459 1938 459 
Q 2288 459 2534 625 
Q 2841 847 2841 1216 
Q 2841 1503 2616 1728 
Q 2375 1959 1728 2206 
L 1541 2278 
Q 453 2694 453 3481 
Q 453 4006 806 4347 
Q 1203 4725 1863 4725 
Q 2841 4725 3359 3956 
L 2919 3641 
z
" transform="scale(0.015625)"/>
        <path id="IPAexGothic-65" d="M 863 1594 
Q 891 1041 1209 722 
Q 1534 397 1997 397 
Q 2606 397 2963 966 
L 3322 728 
Q 2869 -31 1931 -31 
Q 1222 -31 766 422 
Q 306 884 306 1641 
Q 306 2444 788 2925 
Q 1216 3353 1856 3353 
Q 2459 3353 2866 2956 
Q 3322 2494 3322 1722 
L 3322 1594 
L 863 1594 
z
M 2756 1997 
Q 2709 2431 2450 2681 
Q 2194 2938 1844 2938 
Q 1438 2938 1150 2591 
Q 953 2356 894 1997 
L 2756 1997 
z
" transform="scale(0.015625)"/>
        <path id="IPAexGothic-70" d="M 1075 2688 
Q 1525 3341 2206 3341 
Q 2769 3341 3172 2938 
Q 3641 2469 3641 1644 
Q 3641 841 3178 372 
Q 2775 -31 2200 -31 
Q 1569 -31 1106 497 
L 1106 -1216 
L 563 -1216 
L 563 3250 
L 1075 3250 
L 1075 2688 
z
M 1106 1950 
L 1106 1291 
Q 1106 897 1516 600 
Q 1791 403 2106 403 
Q 2469 403 2725 659 
Q 3066 997 3066 1631 
Q 3066 2200 2784 2559 
Q 2503 2900 2100 2900 
Q 1656 2900 1338 2484 
Q 1106 2184 1106 1950 
z
" transform="scale(0.015625)"/>
       </defs>
       <use xlink:href="#IPAexGothic-53"/>
       <use xlink:href="#IPAexGothic-65" x="58.496094"/>
       <use xlink:href="#IPAexGothic-70" x="115.380859"/>
      </g>
     </g>
    </g>
    <g id="xtick_5">
     <g id="line2d_6">
      <g>
       <use xlink:href="#ma4184d7012" x="157.960124" y="284.991437" style="stroke: #000000; stroke-width: 0.8"/>
      </g>
     </g>
     <g id="text_5">
      <!-- Oct -->
      <g transform="translate(149.524968 299.482062) scale(0.1 -0.1)">
       <defs>
        <path id="IPAexGothic-4f" d="M 2541 4725 
Q 3456 4725 4044 4138 
Q 4709 3472 4709 2331 
Q 4709 1219 4031 550 
Q 3450 -31 2541 -31 
Q 1638 -31 1056 550 
Q 378 1219 378 2356 
Q 378 3469 1044 4138 
Q 1631 4725 2541 4725 
z
M 2541 4266 
Q 1953 4266 1531 3844 
Q 994 3303 994 2350 
Q 994 1391 1531 863 
Q 1947 447 2541 447 
Q 3131 447 3556 863 
Q 4094 1400 4094 2375 
Q 4094 3297 3550 3844 
Q 3138 4266 2541 4266 
z
" transform="scale(0.015625)"/>
        <path id="IPAexGothic-63" d="M 3269 784 
Q 2834 -31 1900 -31 
Q 1228 -31 788 409 
Q 313 891 313 1663 
Q 313 2428 788 2913 
Q 1222 3347 1881 3347 
Q 2813 3347 3206 2541 
L 2763 2309 
Q 2484 2900 1900 2900 
Q 1516 2900 1234 2619 
Q 881 2266 881 1650 
Q 881 1069 1222 728 
Q 1522 428 1956 428 
Q 2547 428 2847 1016 
L 3269 784 
z
" transform="scale(0.015625)"/>
        <path id="IPAexGothic-74" d="M 2125 241 
Q 1769 -6 1397 -6 
Q 653 -6 653 831 
L 653 2859 
L 219 2859 
L 219 3250 
L 653 3250 
L 653 3966 
L 1178 4228 
L 1178 3250 
L 2063 3250 
L 2063 2859 
L 1178 2859 
L 1178 906 
Q 1178 416 1513 416 
Q 1738 416 1941 588 
L 2125 241 
z
" transform="scale(0.015625)"/>
       </defs>
       <use xlink:href="#IPAexGothic-4f"/>
       <use xlink:href="#IPAexGothic-63" x="79.6875"/>
       <use xlink:href="#IPAexGothic-74" x="134.082031"/>
      </g>
     </g>
    </g>
    <g id="xtick_6">
     <g id="line2d_7">
      <g>
       <use xlink:href="#ma4184d7012" x="190.617116" y="284.991437" style="stroke: #000000; stroke-width: 0.8"/>
      </g>
     </g>
     <g id="text_6">
      <!-- Nov -->
      <g transform="translate(181.368678 299.482062) scale(0.1 -0.1)">
       <defs>
        <path id="IPAexGothic-4e" d="M 4244 63 
L 3731 63 
L 1697 3150 
Q 1466 3500 1141 4097 
L 1116 4097 
L 1128 3797 
Q 1159 2803 1159 2469 
L 1159 63 
L 609 63 
L 609 4634 
L 1366 4634 
L 3113 1978 
Q 3453 1447 3713 966 
L 3738 966 
Q 3694 1897 3694 2469 
L 3694 4634 
L 4244 4634 
L 4244 63 
z
" transform="scale(0.015625)"/>
        <path id="IPAexGothic-6f" d="M 1919 3341 
Q 2594 3341 3056 2888 
Q 3531 2413 3531 1638 
Q 3531 888 3066 422 
Q 2609 -31 1919 -31 
Q 1228 -31 781 416 
Q 313 881 313 1656 
Q 313 2413 788 2888 
Q 1241 3341 1919 3341 
z
M 1919 2919 
Q 1519 2919 1241 2631 
Q 888 2278 888 1650 
Q 888 1031 1234 684 
Q 1516 403 1919 403 
Q 2331 403 2609 691 
Q 2956 1038 2956 1672 
Q 2956 2269 2603 2631 
Q 2316 2919 1919 2919 
z
" transform="scale(0.015625)"/>
        <path id="IPAexGothic-76" d="M 3103 3250 
L 1747 6 
L 1375 6 
L 25 3250 
L 628 3250 
L 1338 1388 
L 1522 844 
L 1569 703 
L 1588 703 
Q 1641 884 1822 1388 
L 2516 3250 
L 3103 3250 
z
" transform="scale(0.015625)"/>
       </defs>
       <use xlink:href="#IPAexGothic-4e"/>
       <use xlink:href="#IPAexGothic-6f" x="75.976562"/>
       <use xlink:href="#IPAexGothic-76" x="136.376953"/>
      </g>
     </g>
    </g>
    <g id="xtick_7">
     <g id="line2d_8">
      <g>
       <use xlink:href="#ma4184d7012" x="222.220655" y="284.991437" style="stroke: #000000; stroke-width: 0.8"/>
      </g>
     </g>
     <g id="text_7">
      <!-- Dec -->
      <g transform="translate(212.872218 299.482062) scale(0.1 -0.1)">
       <defs>
        <path id="IPAexGothic-44" d="M 609 4634 
L 1984 4634 
Q 3159 4634 3791 4050 
Q 4456 3444 4456 2356 
Q 4456 1047 3516 441 
Q 2925 63 1941 63 
L 609 63 
L 609 4634 
z
M 1172 556 
L 1894 556 
Q 3853 556 3853 2356 
Q 3853 4147 1928 4147 
L 1172 4147 
L 1172 556 
z
" transform="scale(0.015625)"/>
       </defs>
       <use xlink:href="#IPAexGothic-44"/>
       <use xlink:href="#IPAexGothic-65" x="75.683594"/>
       <use xlink:href="#IPAexGothic-63" x="132.568359"/>
      </g>
     </g>
    </g>
    <g id="xtick_8">
     <g id="line2d_9">
      <g>
       <use xlink:href="#ma4184d7012" x="254.877647" y="284.991437" style="stroke: #000000; stroke-width: 0.8"/>
      </g>
     </g>
     <g id="text_8">
      <!-- 2023 -->
      <g transform="translate(242.280772 299.482062) scale(0.1 -0.1)">
       <defs>
        <path id="IPAexGothic-32" d="M 3659 63 
L 447 63 
L 447 594 
Q 825 1475 1894 2203 
L 2072 2322 
Q 2619 2697 2791 2906 
Q 2988 3153 2988 3444 
Q 2988 3772 2756 4003 
Q 2500 4259 2084 4259 
Q 1250 4259 991 3328 
L 497 3506 
Q 853 4725 2116 4725 
Q 2806 4725 3216 4316 
Q 3575 3947 3575 3425 
Q 3575 3038 3344 2722 
Q 3131 2416 2366 1938 
L 2231 1856 
Q 1256 1253 978 569 
L 3659 569 
L 3659 63 
z
" transform="scale(0.015625)"/>
        <path id="IPAexGothic-30" d="M 2038 4725 
Q 2881 4725 3334 3944 
Q 3694 3325 3694 2344 
Q 3694 1372 3334 741 
Q 2888 -31 2016 -31 
Q 1147 -31 700 741 
Q 341 1372 341 2350 
Q 341 3713 1000 4334 
Q 1419 4725 2038 4725 
z
M 2016 4266 
Q 1516 4266 1228 3759 
Q 934 3247 934 2344 
Q 934 1456 1222 947 
Q 1513 447 2016 447 
Q 2619 447 2909 1153 
Q 3100 1622 3100 2375 
Q 3100 3256 2806 3759 
Q 2509 4266 2016 4266 
z
" transform="scale(0.015625)"/>
        <path id="IPAexGothic-33" d="M 2381 2419 
Q 3506 2216 3506 1278 
Q 3506 716 3128 356 
Q 2709 -31 1944 -31 
Q 797 -31 288 881 
L 756 1131 
Q 1109 441 1938 441 
Q 2425 441 2694 691 
Q 2950 928 2950 1291 
Q 2950 1719 2566 1978 
Q 2216 2213 1644 2213 
L 1363 2213 
L 1363 2669 
L 1656 2669 
Q 2231 2669 2534 2888 
Q 2859 3119 2859 3509 
Q 2859 3934 2494 4138 
Q 2259 4278 1931 4278 
Q 1238 4278 903 3578 
L 434 3803 
Q 897 4725 1938 4725 
Q 2597 4725 3006 4394 
Q 3416 4069 3416 3534 
Q 3416 3028 3019 2706 
Q 2763 2500 2381 2444 
L 2381 2419 
z
" transform="scale(0.015625)"/>
       </defs>
       <use xlink:href="#IPAexGothic-32"/>
       <use xlink:href="#IPAexGothic-30" x="62.988281"/>
       <use xlink:href="#IPAexGothic-32" x="125.976562"/>
       <use xlink:href="#IPAexGothic-33" x="188.964844"/>
      </g>
     </g>
    </g>
    <g id="xtick_9">
     <g id="line2d_10">
      <g>
       <use xlink:href="#ma4184d7012" x="287.534638" y="284.991437" style="stroke: #000000; stroke-width: 0.8"/>
      </g>
     </g>
     <g id="text_9">
      <!-- Feb -->
      <g transform="translate(278.7112 299.482062) scale(0.1 -0.1)">
       <defs>
        <path id="IPAexGothic-46" d="M 3469 4141 
L 1172 4141 
L 1172 2656 
L 3206 2656 
L 3206 2188 
L 1172 2188 
L 1172 63 
L 609 63 
L 609 4634 
L 3469 4634 
L 3469 4141 
z
" transform="scale(0.015625)"/>
        <path id="IPAexGothic-62" d="M 1125 2731 
Q 1550 3341 2219 3341 
Q 2788 3341 3191 2938 
Q 3659 2469 3659 1644 
Q 3659 838 3191 372 
Q 2788 -31 2206 -31 
Q 1559 -31 1088 516 
L 1009 44 
L 581 44 
L 581 4794 
L 1125 4794 
L 1125 2731 
z
M 1125 1997 
L 1125 1253 
Q 1125 888 1528 600 
Q 1803 403 2119 403 
Q 2488 403 2744 659 
Q 3084 1009 3084 1631 
Q 3084 2194 2803 2553 
Q 2525 2900 2125 2900 
Q 1759 2900 1438 2578 
Q 1125 2266 1125 1997 
z
" transform="scale(0.015625)"/>
       </defs>
       <use xlink:href="#IPAexGothic-46"/>
       <use xlink:href="#IPAexGothic-65" x="57.177734"/>
       <use xlink:href="#IPAexGothic-62" x="114.0625"/>
      </g>
     </g>
    </g>
    <g id="xtick_10">
     <g id="line2d_11">
      <g>
       <use xlink:href="#ma4184d7012" x="317.031275" y="284.991437" style="stroke: #000000; stroke-width: 0.8"/>
      </g>
     </g>
     <g id="text_10">
      <!-- Mar -->
      <g transform="translate(307.9219 299.482062) scale(0.1 -0.1)">
       <defs>
        <path id="IPAexGothic-4d" d="M 5147 63 
L 4597 63 
L 4597 2534 
Q 4597 3281 4634 4134 
L 4609 4134 
Q 4356 3409 4066 2675 
L 3066 209 
L 2650 209 
L 1641 2725 
Q 1328 3506 1128 4141 
L 1103 4141 
Q 1141 3131 1141 2553 
L 1141 63 
L 609 63 
L 609 4634 
L 1416 4634 
L 2503 1944 
Q 2697 1472 2869 906 
L 2888 906 
Q 3028 1416 3234 1931 
L 4316 4634 
L 5147 4634 
L 5147 63 
z
" transform="scale(0.015625)"/>
        <path id="IPAexGothic-61" d="M 3156 63 
L 2672 63 
Q 2559 303 2531 556 
L 2509 556 
Q 2147 -25 1428 -25 
Q 934 -25 622 288 
Q 347 563 347 959 
Q 347 1947 2050 1997 
L 2478 2009 
L 2478 2175 
Q 2478 2509 2288 2700 
Q 2088 2900 1775 2900 
Q 1238 2900 969 2378 
L 494 2597 
Q 938 3328 1788 3328 
Q 2375 3328 2691 3000 
Q 2984 2706 2984 2169 
L 2984 997 
Q 2984 400 3156 63 
z
M 2491 1625 
L 2141 1619 
Q 903 1591 903 953 
Q 903 728 1050 581 
Q 1231 403 1525 403 
Q 1934 403 2234 703 
Q 2491 969 2491 1344 
L 2491 1625 
z
" transform="scale(0.015625)"/>
        <path id="IPAexGothic-72" d="M 2309 3316 
L 2213 2769 
Q 2106 2791 2022 2791 
Q 1653 2791 1413 2444 
Q 1113 2006 1113 1675 
L 1113 63 
L 563 63 
L 563 3250 
L 1081 3250 
L 1056 2303 
L 1069 2303 
Q 1422 3341 2097 3341 
Q 2206 3341 2309 3316 
z
" transform="scale(0.015625)"/>
       </defs>
       <use xlink:href="#IPAexGothic-4d"/>
       <use xlink:href="#IPAexGothic-61" x="90.185547"/>
       <use xlink:href="#IPAexGothic-72" x="145.166016"/>
      </g>
     </g>
    </g>
    <g id="xtick_11">
     <g id="line2d_12">
      <g>
       <use xlink:href="#ma4184d7012" x="349.688266" y="284.991437" style="stroke: #000000; stroke-width: 0.8"/>
      </g>
     </g>
     <g id="text_11">
      <!-- Apr -->
      <g transform="translate(341.546079 299.482062) scale(0.1 -0.1)">
       <use xlink:href="#IPAexGothic-41"/>
       <use xlink:href="#IPAexGothic-70" x="63.720703"/>
       <use xlink:href="#IPAexGothic-72" x="125.830078"/>
      </g>
     </g>
    </g>
    <g id="xtick_12">
     <g id="line2d_13">
      <g>
       <use xlink:href="#ma4184d7012" x="381.291806" y="284.991437" style="stroke: #000000; stroke-width: 0.8"/>
      </g>
     </g>
     <g id="text_12">
      <!-- May -->
      <g transform="translate(371.572275 299.482062) scale(0.1 -0.1)">
       <defs>
        <path id="IPAexGothic-79" d="M 3122 3250 
L 1575 -488 
Q 1278 -1203 550 -1203 
L 478 -1203 
L 344 -703 
L 447 -703 
Q 969 -703 1150 -238 
L 1356 275 
L 38 3250 
L 659 3250 
L 1363 1459 
Q 1528 1025 1606 781 
L 1625 781 
Q 1750 1169 1863 1459 
L 2528 3250 
L 3122 3250 
z
" transform="scale(0.015625)"/>
       </defs>
       <use xlink:href="#IPAexGothic-4d"/>
       <use xlink:href="#IPAexGothic-61" x="90.185547"/>
       <use xlink:href="#IPAexGothic-79" x="145.166016"/>
      </g>
     </g>
    </g>
   </g>
   <g id="matplotlib.axis_2">
    <g id="ytick_1">
     <g id="line2d_14">
      <defs>
       <path id="m52d99d871b" d="M 0 0 
L -3.5 0 
" style="stroke: #000000; stroke-width: 0.8"/>
      </defs>
      <g>
       <use xlink:href="#m52d99d871b" x="29.439063" y="269.014637" style="stroke: #000000; stroke-width: 0.8"/>
      </g>
     </g>
     <g id="text_13">
      <!-- 0.5 -->
      <g transform="translate(7.2 272.759949) scale(0.1 -0.1)">
       <defs>
        <path id="IPAexGothic-2e" d="M 1184 63 
L 494 63 
L 494 753 
L 1184 753 
L 1184 63 
z
" transform="scale(0.015625)"/>
        <path id="IPAexGothic-35" d="M 1178 2603 
Q 1634 2963 2172 2963 
Q 2816 2963 3241 2528 
Q 3638 2113 3638 1497 
Q 3638 938 3297 513 
Q 2869 -31 2031 -31 
Q 959 -31 469 784 
L 938 1028 
Q 1309 434 2013 434 
Q 2466 434 2769 716 
Q 3081 1013 3081 1503 
Q 3081 1966 2806 2241 
Q 2519 2528 2056 2528 
Q 1406 2528 1072 2028 
L 591 2091 
L 884 4634 
L 3406 4634 
L 3406 4153 
L 1341 4153 
L 1134 2603 
L 1178 2603 
z
" transform="scale(0.015625)"/>
       </defs>
       <use xlink:href="#IPAexGothic-30"/>
       <use xlink:href="#IPAexGothic-2e" x="62.988281"/>
       <use xlink:href="#IPAexGothic-35" x="89.404297"/>
      </g>
     </g>
    </g>
    <g id="ytick_2">
     <g id="line2d_15">
      <g>
       <use xlink:href="#m52d99d871b" x="29.439063" y="211.199039" style="stroke: #000000; stroke-width: 0.8"/>
      </g>
     </g>
     <g id="text_14">
      <!-- 1.0 -->
      <g transform="translate(7.2 214.944352) scale(0.1 -0.1)">
       <defs>
        <path id="IPAexGothic-31" d="M 2463 63 
L 1900 63 
L 1900 4103 
Q 1372 3922 788 3797 
L 684 4231 
Q 1519 4441 2106 4731 
L 2463 4731 
L 2463 63 
z
" transform="scale(0.015625)"/>
       </defs>
       <use xlink:href="#IPAexGothic-31"/>
       <use xlink:href="#IPAexGothic-2e" x="62.988281"/>
       <use xlink:href="#IPAexGothic-30" x="89.404297"/>
      </g>
     </g>
    </g>
    <g id="ytick_3">
     <g id="line2d_16">
      <g>
       <use xlink:href="#m52d99d871b" x="29.439063" y="153.383442" style="stroke: #000000; stroke-width: 0.8"/>
      </g>
     </g>
     <g id="text_15">
      <!-- 1.5 -->
      <g transform="translate(7.2 157.128754) scale(0.1 -0.1)">
       <use xlink:href="#IPAexGothic-31"/>
       <use xlink:href="#IPAexGothic-2e" x="62.988281"/>
       <use xlink:href="#IPAexGothic-35" x="89.404297"/>
      </g>
     </g>
    </g>
    <g id="ytick_4">
     <g id="line2d_17">
      <g>
       <use xlink:href="#m52d99d871b" x="29.439063" y="95.567844" style="stroke: #000000; stroke-width: 0.8"/>
      </g>
     </g>
     <g id="text_16">
      <!-- 2.0 -->
      <g transform="translate(7.2 99.313157) scale(0.1 -0.1)">
       <use xlink:href="#IPAexGothic-32"/>
       <use xlink:href="#IPAexGothic-2e" x="62.988281"/>
       <use xlink:href="#IPAexGothic-30" x="89.404297"/>
      </g>
     </g>
    </g>
    <g id="ytick_5">
     <g id="line2d_18">
      <g>
       <use xlink:href="#m52d99d871b" x="29.439063" y="37.752247" style="stroke: #000000; stroke-width: 0.8"/>
      </g>
     </g>
     <g id="text_17">
      <!-- 2.5 -->
      <g transform="translate(7.2 41.497559) scale(0.1 -0.1)">
       <use xlink:href="#IPAexGothic-32"/>
       <use xlink:href="#IPAexGothic-2e" x="62.988281"/>
       <use xlink:href="#IPAexGothic-35" x="89.404297"/>
      </g>
     </g>
    </g>
   </g>
   <g id="line2d_19">
    <path d="M 29.439063 227.411867 
L 30.492514 255.471758 
L 31.545965 269.405805 
L 32.599416 242.945807 
L 33.652868 262.441258 
L 35.75977 251.639145 
L 36.813222 227.514621 
L 37.866673 229.940841 
L 38.920124 194.078383 
L 39.973576 246.403784 
L 41.027027 250.411663 
L 42.080478 205.84664 
L 43.13393 249.191321 
L 44.187381 272.895437 
L 45.240832 243.090535 
L 46.294284 247.559579 
L 47.347735 238.429093 
L 48.401186 112.810292 
L 49.454638 184.323192 
L 50.508089 181.498781 
L 51.56154 30.975437 
L 53.668443 168.571026 
L 54.721894 110.868109 
L 55.775346 213.126183 
L 56.828797 156.293505 
L 57.882248 124.518024 
L 58.9357 151.875457 
L 59.989151 236.751655 
L 61.042602 106.655378 
L 62.096054 51.387485 
L 63.149505 102.788184 
L 64.202956 95.926279 
L 65.256408 36.542983 
L 66.309859 79.37836 
L 67.36331 35.439549 
L 68.416762 110.396771 
L 69.470213 116.980214 
L 70.523664 109.726148 
L 71.577116 177.160719 
L 72.630567 110.814502 
L 73.684018 153.702013 
L 74.73747 148.460822 
L 75.790921 164.812112 
L 76.844372 190.526245 
L 77.897824 181.526351 
L 78.951275 197.096587 
L 80.004726 219.976945 
L 81.058178 163.710275 
L 82.111629 173.022011 
L 83.16508 196.817697 
L 84.218532 179.527296 
L 85.271983 191.661352 
L 86.325434 192.887858 
L 87.378886 173.15897 
L 88.432337 188.50237 
L 89.485788 201.809366 
L 90.539239 195.197746 
L 91.592691 183.412435 
L 92.646142 192.046725 
L 93.699593 204.737627 
L 94.753045 199.025674 
L 95.806496 189.016626 
L 97.913399 182.941981 
L 98.96685 200.02008 
L 100.020301 192.032303 
L 101.073753 181.775482 
L 102.127204 186.871327 
L 103.180655 193.9839 
L 104.234107 204.601463 
L 105.287558 225.669065 
L 106.341009 207.989558 
L 107.394461 218.057369 
L 108.447912 204.232725 
L 109.501363 217.282458 
L 110.554815 202.720535 
L 111.608266 195.141529 
L 112.661717 153.461242 
L 113.715169 171.531238 
L 114.76862 185.828914 
L 115.822071 204.950127 
L 116.875523 187.736367 
L 117.928974 211.671324 
L 118.982425 216.92144 
L 120.035877 231.587854 
L 121.089328 248.509599 
L 122.142779 240.826108 
L 123.196231 241.29957 
L 124.249682 247.072575 
L 125.303133 251.367839 
L 126.356585 251.669425 
L 127.410036 251.785215 
L 128.463487 242.900107 
L 129.516939 251.663262 
L 130.57039 241.186243 
L 131.623841 228.929625 
L 132.677293 240.670472 
L 133.730744 239.689961 
L 134.784195 228.587222 
L 135.837647 234.114512 
L 136.891098 220.053728 
L 137.944549 221.634093 
L 138.998001 247.789493 
L 140.051452 250.578039 
L 141.104903 230.847867 
L 142.158355 240.571341 
L 143.211806 229.667605 
L 144.265257 228.965012 
L 145.318709 226.507 
L 146.37216 266.267581 
L 147.425611 173.994674 
L 148.479063 228.352097 
L 149.532514 212.968149 
L 150.585965 243.863512 
L 151.639416 195.951487 
L 152.692868 187.500784 
L 153.746319 195.32975 
L 154.79977 238.855842 
L 155.853222 224.563828 
L 156.906673 239.674853 
L 157.960124 205.067187 
L 159.013576 219.657973 
L 160.067027 258.893645 
L 161.120478 189.095647 
L 162.17393 231.988543 
L 163.227381 230.452082 
L 164.280832 208.848889 
L 165.334284 214.413367 
L 166.387735 237.774657 
L 167.441186 208.216448 
L 168.494638 269.328924 
L 169.548089 186.857034 
L 170.60154 168.652783 
L 171.654992 211.199039 
L 172.708443 197.903063 
L 173.761894 190.42842 
L 174.815346 209.746404 
L 175.868797 135.123595 
L 176.922248 212.926136 
L 177.9757 239.34414 
L 179.029151 184.631705 
L 180.082602 193.892671 
L 181.136054 220.351516 
L 182.189505 197.002011 
L 183.242956 191.634272 
L 184.296408 213.253557 
L 185.349859 183.049443 
L 186.40331 199.198481 
L 187.456762 190.346771 
L 188.510213 160.309806 
L 189.563664 189.784075 
L 190.617116 198.104074 
L 191.670567 152.110827 
L 192.724018 152.9204 
L 193.77747 232.748365 
L 194.830921 165.024121 
L 195.884372 194.085734 
L 196.937824 199.838398 
L 197.991275 173.564927 
L 199.044726 209.205445 
L 200.098178 206.690562 
L 201.151629 156.249641 
L 202.20508 220.402577 
L 203.258532 215.284532 
L 204.311983 225.924092 
L 205.365434 188.099011 
L 206.418886 185.511636 
L 207.472337 211.199039 
L 208.525788 194.160213 
L 209.579239 184.55213 
L 210.632691 182.799057 
L 212.739593 203.930102 
L 213.793045 168.757197 
L 214.846496 220.491359 
L 215.899947 171.577359 
L 218.00685 192.11637 
L 219.060301 204.402838 
L 220.113753 198.987955 
L 221.167204 181.777237 
L 222.220655 142.696764 
L 223.274107 213.580923 
L 224.327558 220.529523 
L 225.381009 204.080643 
L 226.434461 205.292279 
L 227.487912 181.962456 
L 228.541363 194.793532 
L 229.594815 197.432704 
L 230.648266 173.295964 
L 231.701717 175.045451 
L 232.755169 167.16196 
L 233.80862 187.120934 
L 234.862071 183.834422 
L 235.915523 173.778001 
L 236.968974 181.23856 
L 238.022425 201.020413 
L 239.075877 187.828789 
L 240.129328 213.66936 
L 241.182779 207.768569 
L 242.236231 207.295129 
L 243.289682 192.832229 
L 244.343133 206.958159 
L 245.396585 188.728128 
L 246.450036 193.851266 
L 247.503487 207.103197 
L 248.556939 215.224404 
L 249.61039 196.113595 
L 250.663841 220.91992 
L 251.717293 200.04709 
L 252.770744 223.444191 
L 253.824195 251.024981 
L 254.877647 228.180558 
L 255.931098 208.755181 
L 256.984549 251.311193 
L 258.038001 254.432046 
L 259.091452 215.74342 
L 260.144903 126.299141 
L 261.198355 90.185267 
L 262.251806 169.01121 
L 263.305257 202.233317 
L 264.358709 208.810336 
L 265.41216 167.736099 
L 266.465611 215.685286 
L 267.519063 255.304956 
L 268.572514 257.151057 
L 269.625965 241.910597 
L 270.679416 230.363911 
L 271.732868 201.639485 
L 272.786319 252.591109 
L 273.83977 261.202922 
L 274.893222 248.191392 
L 275.946673 245.888016 
L 277.000124 248.528538 
L 278.053576 233.937612 
L 279.107027 243.873594 
L 280.160478 245.699396 
L 281.21393 238.379427 
L 282.267381 250.421781 
L 283.320832 242.025158 
L 284.374284 235.679743 
L 285.427735 231.977605 
L 286.481186 268.725993 
L 287.534638 251.010186 
L 288.588089 243.44844 
L 289.64154 231.173865 
L 290.694992 246.470516 
L 291.748443 240.806074 
L 292.801894 205.729567 
L 293.855346 216.74151 
L 294.908797 221.239134 
L 295.962248 222.049942 
L 297.0157 236.243828 
L 298.069151 216.587974 
L 299.122602 250.056764 
L 300.176054 220.887451 
L 301.229505 228.799652 
L 302.282956 253.712581 
L 303.336408 218.850978 
L 304.389859 215.357996 
L 305.44331 237.280047 
L 306.496762 193.27922 
L 307.550213 224.105076 
L 308.603664 238.379537 
L 309.657116 241.772305 
L 310.710567 251.269511 
L 311.764018 255.03236 
L 313.870921 237.065956 
L 314.924372 226.130001 
L 315.977824 244.38679 
L 317.031275 206.157732 
L 318.084726 233.765533 
L 319.138178 159.336552 
L 320.191629 185.327724 
L 321.24508 214.962751 
L 322.298532 217.21233 
L 323.351983 183.217935 
L 324.405434 224.645526 
L 325.458886 214.214028 
L 326.512337 235.628575 
L 327.565788 247.936648 
L 328.619239 239.212375 
L 329.672691 229.20156 
L 331.779593 253.457905 
L 332.833045 223.82357 
L 333.886496 230.110703 
L 334.939947 231.751414 
L 335.993399 221.724925 
L 337.04685 218.438731 
L 338.100301 196.729311 
L 339.153753 269.644947 
L 340.207204 186.805833 
L 341.260655 151.469654 
L 342.314107 196.794784 
L 343.367558 186.090119 
L 344.421009 212.367022 
L 345.474461 270.557568 
L 346.527912 131.696335 
L 347.581363 246.286327 
L 348.634815 246.583352 
L 349.688266 237.988485 
L 350.741717 247.318928 
L 351.795169 158.670839 
L 352.84862 179.975338 
L 353.902071 223.430761 
L 354.955523 212.644411 
L 356.008974 225.046752 
L 357.062425 197.113467 
L 358.115877 202.169595 
L 359.169328 251.481393 
L 360.222779 236.781261 
L 361.276231 190.034499 
L 363.383133 209.627986 
L 364.436585 206.447701 
L 365.490036 229.946022 
L 366.543487 202.966425 
L 367.596939 187.325942 
L 368.65039 234.850923 
L 369.703841 249.425785 
L 370.757293 239.100404 
L 371.810744 239.052377 
L 372.864195 232.547715 
L 373.917647 220.893946 
L 374.971098 241.999931 
L 376.024549 236.824654 
L 377.078001 191.724138 
L 378.131452 86.998199 
L 380.238355 209.431011 
L 381.291806 130.116068 
L 382.345257 83.165494 
L 383.398709 129.624869 
L 384.45216 217.170417 
L 385.505611 254.494953 
L 385.505611 254.494953 
" clip-path="url(#p61a2a57211)" style="fill: none; stroke: #1f77b4; stroke-width: 1.5; stroke-linecap: square"/>
   </g>
   <g id="line2d_20">
    <path d="M 29.439063 230.929789 
L 30.492514 242.60231 
L 31.545965 262.8168 
L 32.599416 257.425513 
L 33.652868 253.337157 
L 34.706319 259.836211 
L 35.75977 254.434415 
L 36.813222 240.414674 
L 37.866673 228.735232 
L 38.920124 213.41839 
L 39.973576 223.501825 
L 41.027027 248.433331 
L 42.080478 230.677266 
L 43.13393 229.912564 
L 44.187381 262.11981 
L 45.240832 259.625445 
L 46.294284 245.355694 
L 47.347735 243.118728 
L 48.401186 189.281671 
L 49.454638 152.189606 
L 50.508089 182.917915 
L 51.56154 119.473036 
L 52.614992 68.196709 
L 53.668443 137.669929 
L 54.721894 141.957318 
L 55.775346 170.127431 
L 56.828797 187.579679 
L 57.882248 141.084002 
L 58.9357 138.693349 
L 59.989151 201.292679 
L 61.042602 186.000414 
L 62.096054 80.567026 
L 63.149505 78.413733 
L 64.202956 99.383107 
L 65.256408 67.931655 
L 66.309859 58.815077 
L 67.36331 58.306173 
L 68.416762 75.699401 
L 69.470213 113.713912 
L 70.523664 113.383995 
L 71.577116 146.569691 
L 72.630567 147.022086 
L 73.684018 133.443524 
L 74.73747 151.100956 
L 75.790921 156.832948 
L 76.844372 178.224324 
L 77.897824 186.098223 
L 78.951275 189.532009 
L 80.004726 209.091256 
L 81.058178 194.807872 
L 82.111629 168.434555 
L 83.16508 185.419494 
L 84.218532 188.44227 
L 85.271983 185.724694 
L 86.325434 192.276003 
L 87.378886 183.362139 
L 88.432337 181.032368 
L 89.485788 195.324076 
L 90.539239 198.546144 
L 91.592691 189.431392 
L 92.646142 187.79659 
L 93.699593 198.54902 
L 94.753045 201.914295 
L 95.806496 194.115474 
L 96.859947 187.422411 
L 97.913399 184.383085 
L 98.96685 191.750659 
L 100.020301 196.087179 
L 101.073753 186.997904 
L 102.127204 184.346184 
L 103.180655 190.473981 
L 104.234107 199.403219 
L 105.287558 215.633088 
L 106.341009 217.185071 
L 107.394461 213.134848 
L 108.447912 211.351742 
L 109.501363 210.94113 
L 110.554815 210.228598 
L 111.608266 198.987184 
L 112.661717 175.731796 
L 113.715169 162.744798 
L 115.822071 195.737687 
L 116.875523 196.62741 
L 117.928974 200.268399 
L 118.982425 214.327003 
L 120.035877 224.517111 
L 121.089328 240.462163 
L 122.142779 244.757718 
L 123.196231 241.063165 
L 124.249682 244.236496 
L 125.303133 249.249927 
L 126.356585 251.518783 
L 127.410036 251.727342 
L 128.463487 247.466905 
L 129.516939 247.402446 
L 130.57039 246.595581 
L 131.623841 235.262778 
L 132.677293 234.987471 
L 133.730744 240.181603 
L 134.784195 234.304978 
L 135.837647 231.390872 
L 136.891098 227.332189 
L 137.944549 220.846856 
L 140.051452 249.196285 
L 141.104903 241.279862 
L 142.158355 235.839395 
L 143.211806 235.281663 
L 144.265257 229.316941 
L 145.318709 227.743627 
L 146.37216 248.882551 
L 147.425611 230.621466 
L 148.479063 204.147875 
L 149.532514 220.93913 
L 150.585965 229.635769 
L 151.639416 222.625721 
L 152.692868 191.792225 
L 153.746319 191.471858 
L 154.79977 219.272458 
L 155.853222 231.97864 
L 156.906673 232.42119 
L 157.960124 223.814193 
L 159.013576 212.595296 
L 160.067027 241.501939 
L 161.120478 230.097519 
L 162.17393 212.536835 
L 163.227381 231.223399 
L 164.280832 220.196168 
L 165.334284 211.66473 
L 166.387735 226.773505 
L 167.441186 224.052711 
L 168.494638 244.24423 
L 169.548089 237.116008 
L 170.60154 178.033043 
L 172.708443 204.731901 
L 173.761894 194.218394 
L 174.815346 200.456001 
L 175.868797 177.011185 
L 176.922248 179.059561 
L 177.9757 227.005264 
L 179.029151 215.29372 
L 180.082602 189.34014 
L 181.136054 207.855357 
L 182.189505 209.25497 
L 183.242956 194.345323 
L 184.296408 202.914504 
L 185.349859 199.04078 
L 186.40331 191.364392 
L 187.456762 194.846812 
L 188.510213 176.074523 
L 189.563664 175.764073 
L 190.617116 194.009205 
L 191.670567 176.860376 
L 192.724018 152.516084 
L 193.77747 198.91713 
L 194.830921 203.448625 
L 195.884372 180.273516 
L 196.937824 196.993923 
L 197.991275 187.318791 
L 199.044726 192.562593 
L 200.098178 207.954654 
L 201.151629 183.674736 
L 202.20508 192.091624 
L 203.258532 217.873602 
L 204.311983 220.737602 
L 205.365434 208.513572 
L 206.418886 186.8113 
L 207.472337 198.998945 
L 208.525788 202.972279 
L 209.579239 189.440136 
L 210.632691 183.678277 
L 211.686142 188.335204 
L 212.739593 198.897374 
L 213.793045 187.448754 
L 214.846496 197.179515 
L 215.899947 198.341262 
L 216.953399 176.894581 
L 219.060301 198.406453 
L 220.113753 201.724689 
L 221.167204 190.654224 
L 222.220655 163.401008 
L 223.274107 182.424595 
L 224.327558 217.110216 
L 225.381009 212.600777 
L 226.434461 204.687964 
L 227.487912 194.139114 
L 228.541363 188.526714 
L 229.594815 196.119779 
L 230.648266 185.880047 
L 231.701717 174.173214 
L 232.755169 171.1536 
L 233.80862 177.474475 
L 234.862071 185.48723 
L 235.915523 178.891638 
L 236.968974 177.554882 
L 238.022425 191.49043 
L 239.075877 194.588989 
L 240.129328 201.412831 
L 241.182779 210.756455 
L 242.236231 207.532084 
L 243.289682 200.270107 
L 244.343133 200.091846 
L 245.396585 198.165608 
L 246.450036 191.313905 
L 247.503487 200.651084 
L 248.556939 211.235099 
L 249.61039 206.046382 
L 250.663841 209.168684 
L 251.717293 210.952529 
L 252.770744 212.341773 
L 253.824195 238.302243 
L 254.877647 240.353858 
L 255.931098 218.904029 
L 256.984549 232.400817 
L 258.038001 252.888083 
L 259.091452 237.150337 
L 260.144903 177.577562 
L 261.198355 108.989297 
L 262.251806 133.576313 
L 263.305257 186.602691 
L 264.358709 205.566408 
L 265.41216 189.803691 
L 266.465611 193.854637 
L 267.519063 237.669294 
L 268.572514 256.234041 
L 269.625965 249.907348 
L 270.679416 236.3212 
L 271.732868 216.936234 
L 272.786319 230.424572 
L 273.83977 257.029702 
L 274.893222 254.991137 
L 275.946673 247.048016 
L 277.000124 247.219224 
L 278.053576 241.544538 
L 279.107027 239.046068 
L 280.160478 244.791574 
L 281.21393 242.11844 
L 282.267381 244.62081 
L 283.320832 246.332876 
L 284.374284 238.909678 
L 285.427735 233.847098 
L 286.481186 252.591834 
L 287.534638 260.456547 
L 288.588089 247.319155 
L 289.64154 237.521782 
L 290.694992 239.155159 
L 291.748443 243.68652 
L 292.801894 224.763671 
L 293.855346 211.366742 
L 294.908797 219.013772 
L 295.962248 221.645319 
L 297.0157 229.405031 
L 298.069151 226.898006 
L 299.122602 234.831969 
L 300.176054 236.643788 
L 301.229505 224.92031 
L 302.282956 242.167574 
L 303.336408 237.975354 
L 304.389859 217.118387 
L 305.44331 226.918474 
L 306.496762 217.470651 
L 307.550213 209.70189 
L 308.603664 231.509136 
L 309.657116 240.092508 
L 311.764018 253.174961 
L 312.81747 250.620979 
L 314.924372 231.755086 
L 315.977824 235.714517 
L 317.031275 227.087281 
L 318.084726 220.856887 
L 319.138178 201.979325 
L 320.191629 172.879669 
L 321.24508 201.014775 
L 322.298532 216.093253 
L 323.351983 201.361197 
L 324.405434 205.689899 
L 325.458886 219.5565 
L 326.512337 225.485354 
L 327.565788 242.005556 
L 328.619239 243.688865 
L 329.672691 234.342313 
L 330.726142 235.172055 
L 331.779593 247.370212 
L 332.833045 239.894402 
L 333.886496 227.016627 
L 334.939947 230.934568 
L 335.993399 226.863796 
L 337.04685 220.094475 
L 338.100301 208.079088 
L 339.153753 240.575619 
L 340.207204 237.346517 
L 341.260655 170.130648 
L 342.314107 175.823307 
L 343.367558 191.548291 
L 344.421009 199.90677 
L 345.474461 246.573458 
L 346.527912 222.041376 
L 347.581363 201.463386 
L 348.634815 246.434977 
L 349.688266 242.395209 
L 350.741717 242.783083 
L 351.795169 211.199039 
L 352.84862 169.683708 
L 353.902071 203.603942 
L 354.955523 218.171346 
L 356.008974 219.023784 
L 357.062425 211.92582 
L 358.115877 199.666658 
L 359.169328 229.912564 
L 360.222779 244.458602 
L 361.276231 215.842327 
L 362.329682 194.909964 
L 363.383133 204.722485 
L 364.436585 208.048487 
L 365.490036 218.834091 
L 366.543487 217.28368 
L 367.596939 195.378597 
L 368.65039 213.553984 
L 369.703841 242.452465 
L 370.757293 244.424657 
L 371.810744 239.076394 
L 372.864195 235.858164 
L 373.917647 226.890552 
L 374.971098 232.032516 
L 376.024549 239.450599 
L 377.078001 216.556472 
L 378.131452 146.82254 
L 379.184903 120.54721 
L 380.238355 182.504922 
L 381.291806 174.862836 
L 382.345257 107.895755 
L 383.398709 107.622584 
L 384.45216 179.774108 
L 385.505611 237.766921 
L 385.505611 237.766921 
" clip-path="url(#p61a2a57211)" style="fill: none; stroke: #ff7f0e; stroke-width: 1.5; stroke-linecap: square"/>
   </g>
   <g id="line2d_21">
    <path d="M 29.439063 229.122786 
L 30.492514 239.928401 
L 31.545965 252.698705 
L 32.599416 256.780278 
L 33.652868 259.139403 
L 34.706319 254.622372 
L 35.75977 257.208287 
L 36.813222 246.388486 
L 37.866673 237.055655 
L 38.920124 218.326475 
L 41.027027 233.387372 
L 42.080478 236.234427 
L 43.13393 237.293425 
L 45.240832 256.313321 
L 46.294284 255.822722 
L 47.347735 243.109331 
L 48.401186 212.36467 
L 50.508089 162.563334 
L 51.56154 143.84129 
L 52.614992 113.406318 
L 53.668443 107.256927 
L 54.721894 129.127564 
L 55.775346 169.610337 
L 56.828797 165.645532 
L 57.882248 169.115602 
L 58.9357 144.753156 
L 59.989151 179.647632 
L 61.042602 175.437505 
L 62.096054 150.710969 
L 63.149505 88.208754 
L 64.202956 84.394062 
L 65.256408 80.114816 
L 66.309859 71.804879 
L 67.36331 51.239386 
L 68.416762 76.931758 
L 69.470213 90.291085 
L 70.523664 112.392863 
L 71.577116 137.201801 
L 72.630567 135.362509 
L 73.684018 149.276885 
L 74.73747 138.58476 
L 75.790921 155.795645 
L 76.844372 168.900399 
L 80.004726 200.539182 
L 81.058178 195.575228 
L 82.111629 187.912342 
L 83.16508 178.52472 
L 84.218532 183.482093 
L 85.271983 189.523726 
L 86.325434 188.153999 
L 87.378886 186.18367 
L 88.432337 185.09643 
L 89.485788 188.315827 
L 90.539239 195.281979 
L 91.592691 193.687884 
L 92.646142 190.308761 
L 93.699593 193.689874 
L 94.753045 198.708102 
L 95.806496 197.755094 
L 96.859947 191.402728 
L 97.913399 185.944654 
L 98.96685 189.7987 
L 100.020301 191.844605 
L 101.073753 191.480812 
L 102.127204 186.955724 
L 103.180655 187.634041 
L 104.234107 195.355837 
L 105.287558 208.84012 
L 107.394461 217.476612 
L 108.447912 210.241718 
L 109.501363 213.36349 
L 110.554815 208.263285 
L 111.608266 205.402114 
L 112.661717 185.324114 
L 113.715169 174.344388 
L 114.76862 170.831497 
L 115.822071 188.120092 
L 116.875523 193.123075 
L 117.928974 201.848623 
L 118.982425 206.082407 
L 121.089328 233.236603 
L 122.142779 240.583648 
L 123.196231 243.620823 
L 124.249682 243.114997 
L 126.356585 250.064959 
L 127.410036 251.607698 
L 128.463487 248.893225 
L 129.516939 248.891095 
L 130.57039 245.382199 
L 132.677293 237.10204 
L 133.730744 236.582508 
L 134.784195 236.477418 
L 135.837647 234.241533 
L 136.891098 227.752305 
L 137.944549 225.467971 
L 138.998001 230.718701 
L 140.051452 240.92208 
L 141.104903 243.507227 
L 142.158355 241.044337 
L 143.211806 233.826969 
L 144.265257 233.222764 
L 145.318709 228.38915 
L 146.37216 242.740121 
L 147.425611 229.269077 
L 148.479063 229.870881 
L 149.532514 207.161383 
L 150.585965 229.209749 
L 151.639416 219.501156 
L 152.692868 212.031087 
L 153.746319 192.98185 
L 154.79977 209.581314 
L 155.853222 221.065989 
L 156.906673 234.616737 
L 157.960124 224.06468 
L 159.013576 222.447011 
L 160.067027 230.764786 
L 161.120478 226.735849 
L 162.17393 230.732013 
L 163.227381 218.850986 
L 164.280832 224.281475 
L 165.334284 218.302399 
L 166.387735 221.123664 
L 167.441186 220.93512 
L 168.494638 242.141688 
L 169.548089 228.364316 
L 170.60154 218.44859 
L 171.654992 190.029585 
L 172.708443 193.727182 
L 173.761894 200.139008 
L 174.815346 199.610689 
L 175.868797 181.624175 
L 176.922248 190.09163 
L 179.029151 214.510045 
L 180.082602 208.573118 
L 181.136054 200.569432 
L 182.189505 204.342327 
L 183.242956 203.652593 
L 184.296408 200.974213 
L 185.349859 196.618162 
L 186.40331 199.093369 
L 187.456762 191.026031 
L 188.510213 184.214067 
L 189.563664 180.790352 
L 190.617116 183.611312 
L 191.670567 181.298308 
L 192.724018 169.270937 
L 193.77747 184.905831 
L 194.830921 188.492178 
L 195.884372 200.403438 
L 196.937824 187.108997 
L 197.991275 189.611924 
L 199.044726 195.033037 
L 200.098178 197.447481 
L 201.151629 192.747876 
L 202.20508 197.145102 
L 203.258532 200.314175 
L 204.311983 220.626045 
L 206.418886 201.295556 
L 207.472337 195.464272 
L 208.525788 197.405968 
L 209.579239 197.113713 
L 210.632691 187.261183 
L 211.686142 187.08549 
L 212.739593 193.741822 
L 213.793045 189.550213 
L 214.846496 199.469935 
L 215.899947 189.152671 
L 216.953399 193.119185 
L 218.00685 182.150609 
L 219.060301 193.164416 
L 220.113753 198.60058 
L 221.167204 195.400607 
L 222.220655 176.246527 
L 223.274107 182.20913 
L 224.327558 196.443074 
L 225.381009 212.928431 
L 226.434461 210.214796 
L 227.487912 197.539344 
L 228.541363 194.357613 
L 230.648266 188.916137 
L 231.701717 182.357292 
L 232.755169 171.871023 
L 233.80862 176.669151 
L 234.862071 179.625281 
L 235.915523 181.687232 
L 236.968974 179.678119 
L 238.022425 185.826618 
L 239.075877 190.280728 
L 240.129328 201.282161 
L 241.182779 203.568241 
L 242.236231 209.613962 
L 243.289682 202.82065 
L 244.343133 202.539923 
L 245.396585 196.411828 
L 246.450036 196.743275 
L 247.503487 196.795762 
L 248.556939 205.708887 
L 249.61039 206.399686 
L 250.663841 211.222913 
L 251.717293 206.203506 
L 252.770744 215.275699 
L 253.824195 227.04317 
L 254.877647 235.049338 
L 255.931098 230.893623 
L 256.984549 231.014516 
L 258.038001 240.403632 
L 259.091452 242.143466 
L 260.144903 209.55923 
L 261.198355 152.790998 
L 262.251806 131.180415 
L 263.305257 159.879638 
L 264.358709 194.434509 
L 265.41216 194.078898 
L 266.465611 199.039398 
L 267.519063 218.686553 
L 268.572514 244.703586 
L 269.625965 251.750355 
L 270.679416 243.877834 
L 271.732868 225.985777 
L 272.786319 230.404356 
L 274.893222 254.199875 
L 275.946673 252.076606 
L 278.053576 243.017663 
L 279.107027 242.328067 
L 280.160478 241.322359 
L 281.21393 242.707579 
L 282.267381 244.981923 
L 283.320832 243.764543 
L 284.374284 242.927891 
L 285.427735 236.657187 
L 286.481186 247.335431 
L 287.534638 252.068319 
L 288.588089 255.212423 
L 289.64154 242.265414 
L 290.694992 240.610269 
L 291.748443 239.708955 
L 292.801894 232.583033 
L 293.855346 222.156768 
L 294.908797 214.756056 
L 295.962248 220.03548 
L 297.0157 226.75576 
L 298.069151 225.307435 
L 299.122602 235.305016 
L 300.176054 230.400667 
L 301.229505 234.101419 
L 302.282956 235.597281 
L 303.336408 235.016415 
L 304.389859 230.998408 
L 305.44331 224.298607 
L 306.496762 216.77092 
L 307.550213 219.728418 
L 308.603664 220.168553 
L 309.657116 235.06089 
L 310.710567 243.990749 
L 311.764018 249.55491 
L 312.81747 250.837773 
L 313.870921 246.346832 
L 314.924372 236.739674 
L 315.977824 236.167242 
L 317.031275 226.769203 
L 318.084726 229.364982 
L 319.138178 203.387961 
L 320.191629 196.658751 
L 321.24508 188.424055 
L 322.298532 206.663801 
L 323.351983 206.069522 
L 324.405434 209.659357 
L 325.458886 208.600655 
L 326.512337 225.206181 
L 327.565788 233.601789 
L 328.619239 241.084532 
L 329.672691 239.115899 
L 330.726142 236.539116 
L 331.779593 241.724612 
L 332.833045 240.189745 
L 333.886496 236.74839 
L 334.939947 228.620524 
L 335.993399 227.958032 
L 337.04685 224.130838 
L 338.100301 212.813983 
L 339.153753 233.750892 
L 340.207204 225.457117 
L 341.260655 214.850353 
L 342.314107 179.576668 
L 343.367558 179.326206 
L 344.421009 198.877806 
L 345.474461 230.048416 
L 346.527912 218.911035 
L 347.581363 230.841344 
L 348.634815 218.786929 
L 349.688266 243.712699 
L 350.741717 244.069427 
L 351.795169 220.923793 
L 352.84862 201.608566 
L 353.902071 190.148872 
L 354.955523 206.694286 
L 356.008974 220.51326 
L 357.062425 212.165852 
L 358.115877 208.761677 
L 360.222779 232.258454 
L 361.276231 229.284271 
L 362.329682 210.676295 
L 363.383133 200.010647 
L 364.436585 205.300287 
L 365.490036 215.848678 
L 366.543487 213.78464 
L 367.596939 208.090792 
L 368.65039 210.129375 
L 369.703841 227.056885 
L 370.757293 241.349589 
L 371.810744 242.671461 
L 373.917647 231.121045 
L 374.971098 232.204561 
L 376.024549 233.657594 
L 377.078001 225.789041 
L 378.131452 183.957116 
L 379.184903 147.686905 
L 380.238355 155.882217 
L 381.291806 166.810498 
L 382.345257 148.962223 
L 383.398709 115.392571 
L 384.45216 152.815384 
L 385.505611 210.746294 
L 385.505611 210.746294 
" clip-path="url(#p61a2a57211)" style="fill: none; stroke: #2ca02c; stroke-width: 1.5; stroke-linecap: square"/>
   </g>
   <g id="line2d_22">
    <path d="M 29.439063 221.275211 
L 30.492514 236.505406 
L 31.545965 248.478994 
L 32.599416 250.372301 
L 33.652868 258.240554 
L 34.706319 258.641514 
L 35.75977 253.887849 
L 36.813222 250.742613 
L 37.866673 242.558839 
L 38.920124 227.832517 
L 39.973576 226.152528 
L 41.027027 232.537407 
L 42.080478 227.154092 
L 43.13393 239.663468 
L 44.187381 247.949949 
L 45.240832 246.12502 
L 46.294284 254.219959 
L 47.347735 251.824807 
L 48.401186 220.968504 
L 49.454638 205.919399 
L 50.508089 186.135769 
L 51.56154 136.533121 
L 52.614992 133.903952 
L 53.668443 128.780364 
L 54.721894 108.165345 
L 55.775346 154.661857 
L 56.828797 166.381937 
L 57.882248 156.222628 
L 59.989151 174.127491 
L 61.042602 164.056515 
L 62.096054 151.002816 
L 63.149505 139.788926 
L 64.202956 90.161987 
L 65.256408 73.226844 
L 66.309859 79.930908 
L 67.36331 63.162834 
L 68.416762 67.394559 
L 69.470213 87.608872 
L 70.523664 95.307164 
L 71.577116 130.829051 
L 72.630567 130.923693 
L 74.73747 149.07322 
L 75.790921 145.514995 
L 76.844372 165.230701 
L 77.897824 172.15619 
L 78.951275 183.990017 
L 80.004726 198.107108 
L 81.058178 192.195781 
L 82.111629 190.267628 
L 83.16508 190.194295 
L 84.218532 178.776002 
L 85.271983 185.572177 
L 86.325434 190.372599 
L 87.378886 184.54832 
L 88.432337 186.766963 
L 89.485788 189.473261 
L 90.539239 190.069324 
L 91.592691 192.410021 
L 94.753045 195.044354 
L 95.806496 196.351076 
L 96.859947 194.867136 
L 97.913399 189.335364 
L 98.96685 189.603599 
L 100.020301 190.360547 
L 101.073753 189.394825 
L 102.127204 190.342872 
L 103.180655 188.74688 
L 104.234107 192.084855 
L 105.287558 203.69443 
L 106.341009 208.628052 
L 107.394461 214.390906 
L 108.447912 214.306201 
L 109.501363 212.043229 
L 110.554815 210.791529 
L 111.608266 205.110817 
L 113.715169 181.995215 
L 114.76862 177.300368 
L 115.822071 180.166067 
L 116.875523 188.02426 
L 117.928974 198.022962 
L 120.035877 213.03684 
L 121.089328 228.256977 
L 122.142779 235.194567 
L 123.196231 240.763189 
L 124.249682 244.49752 
L 125.303133 245.259188 
L 127.410036 250.498685 
L 128.463487 249.519384 
L 129.516939 249.59516 
L 130.57039 247.032432 
L 131.623841 241.548346 
L 132.677293 240.987516 
L 134.784195 234.646856 
L 135.837647 235.892398 
L 137.944549 226.256947 
L 138.998001 231.579139 
L 140.051452 236.122417 
L 141.104903 238.507266 
L 142.158355 242.782759 
L 143.211806 238.331566 
L 144.265257 232.634606 
L 145.318709 231.587191 
L 146.37216 239.646891 
L 147.425611 229.193149 
L 148.479063 229.040635 
L 149.532514 225.896331 
L 150.585965 217.632953 
L 151.639416 221.78581 
L 152.692868 212.266073 
L 153.746319 208.065956 
L 154.79977 206.313066 
L 155.853222 213.521109 
L 156.906673 226.061058 
L 157.960124 227.980673 
L 159.013576 222.980288 
L 160.067027 233.074257 
L 161.120478 221.710038 
L 162.17393 228.075685 
L 163.227381 230.662107 
L 164.280832 216.432907 
L 165.334284 221.898783 
L 166.387735 223.537176 
L 167.441186 218.034898 
L 168.494638 235.927619 
L 169.548089 230.806248 
L 170.60154 215.976432 
L 171.654992 216.679967 
L 172.708443 192.041922 
L 173.761894 192.910047 
L 174.815346 202.612348 
L 175.868797 185.877122 
L 176.922248 190.175906 
L 177.9757 204.536808 
L 179.029151 198.448671 
L 180.082602 209.676726 
L 181.136054 211.634562 
L 182.189505 199.686873 
L 183.242956 201.281933 
L 184.296408 206.126362 
L 185.349859 196.71423 
L 186.40331 197.268091 
L 187.456762 196.960725 
L 188.510213 183.923798 
L 189.563664 185.627441 
L 190.617116 185.325715 
L 191.670567 176.313222 
L 192.724018 174.670499 
L 193.77747 188.327129 
L 194.830921 180.177036 
L 196.937824 200.262414 
L 197.991275 183.839538 
L 199.044726 194.796847 
L 200.098178 198.049398 
L 201.151629 188.189868 
L 202.20508 200.271432 
L 203.258532 201.939318 
L 204.311983 207.269481 
L 205.365434 213.289999 
L 206.418886 204.949238 
L 207.472337 203.848238 
L 208.525788 195.139464 
L 209.579239 194.305696 
L 210.632691 193.674278 
L 211.686142 188.888776 
L 212.739593 191.5016 
L 213.793045 187.892686 
L 214.846496 198.041309 
L 215.899947 193.005785 
L 216.953399 187.405469 
L 218.00685 192.869183 
L 219.060301 188.066754 
L 220.113753 194.64471 
L 221.167204 194.587132 
L 222.220655 183.841066 
L 223.274107 186.599767 
L 224.327558 192.921842 
L 225.381009 198.395901 
L 226.434461 211.065593 
L 228.541363 196.858291 
L 229.594815 195.13317 
L 230.648266 187.209652 
L 231.701717 185.572071 
L 232.755169 178.699715 
L 233.80862 175.832866 
L 234.862071 178.493445 
L 235.915523 178.184745 
L 238.022425 185.331186 
L 239.075877 186.329848 
L 240.129328 196.546057 
L 241.182779 202.936162 
L 242.236231 204.510717 
L 243.289682 205.626636 
L 244.343133 203.868227 
L 245.396585 199.222196 
L 246.450036 195.776348 
L 247.503487 199.414406 
L 248.556939 201.670223 
L 249.61039 203.378204 
L 250.663841 210.206468 
L 251.717293 208.524885 
L 252.770744 210.766072 
L 253.824195 225.546373 
L 255.931098 229.083162 
L 256.984549 236.464788 
L 258.038001 237.497733 
L 259.091452 234.806213 
L 260.144903 221.777563 
L 261.198355 187.059161 
L 262.251806 156.996009 
L 263.305257 152.052377 
L 264.358709 173.746238 
L 265.41216 188.21243 
L 266.465611 199.845473 
L 267.519063 216.297816 
L 269.625965 244.014071 
L 270.679416 246.895303 
L 271.732868 234.888058 
L 272.786319 233.419403 
L 273.83977 239.247932 
L 274.893222 243.609469 
L 275.946673 252.205565 
L 277.000124 251.204953 
L 278.053576 244.342162 
L 279.107027 243.23247 
L 280.160478 243.18381 
L 281.21393 240.595936 
L 282.267381 244.706237 
L 283.320832 244.25254 
L 284.374284 241.813187 
L 285.427735 240.314936 
L 286.481186 246.039879 
L 287.534638 248.270489 
L 288.588089 250.000714 
L 289.64154 249.838473 
L 290.694992 243.336882 
L 291.748443 240.659262 
L 292.801894 232.232699 
L 293.855346 228.85032 
L 294.908797 221.92811 
L 295.962248 216.625799 
L 297.0157 224.341012 
L 298.069151 224.305296 
L 299.122602 232.157378 
L 300.176054 231.895875 
L 301.229505 230.002881 
L 302.282956 239.449318 
L 303.336408 231.67145 
L 304.389859 230.453386 
L 305.44331 232.608966 
L 306.496762 217.294661 
L 307.550213 218.652145 
L 308.603664 224.730893 
L 309.657116 226.036156 
L 310.710567 239.412963 
L 311.764018 246.900947 
L 312.81747 248.666268 
L 313.870921 247.606781 
L 314.924372 241.709108 
L 315.977824 238.715508 
L 317.031275 229.449148 
L 318.084726 228.566113 
L 319.138178 215.237231 
L 320.191629 199.101393 
L 321.24508 201.497978 
L 322.298532 196.262164 
L 323.351983 201.188106 
L 324.405434 211.008323 
L 325.458886 210.81501 
L 326.512337 216.028823 
L 327.565788 231.439145 
L 329.672691 238.256773 
L 330.726142 239.534264 
L 331.779593 241.103387 
L 332.833045 237.564451 
L 333.886496 237.772997 
L 334.939947 235.524322 
L 335.993399 226.940241 
L 337.04685 225.659602 
L 338.100301 217.875523 
L 339.153753 230.879977 
L 340.207204 223.746317 
L 341.260655 210.571632 
L 342.314107 210.586262 
L 343.367558 181.23276 
L 344.421009 188.387747 
L 345.474461 222.631901 
L 346.527912 211.503893 
L 347.581363 226.523011 
L 348.634815 235.045011 
L 349.688266 223.94509 
L 350.741717 244.629308 
L 352.84862 211.905399 
L 353.902071 207.461883 
L 354.955523 196.157487 
L 356.008974 211.571442 
L 357.062425 215.092211 
L 358.115877 209.744566 
L 359.169328 221.301717 
L 360.222779 224.484392 
L 361.276231 223.115774 
L 362.329682 222.587786 
L 363.383133 210.4151 
L 364.436585 201.651481 
L 365.490036 211.994848 
L 366.543487 212.759506 
L 367.596939 207.682134 
L 368.65039 215.434441 
L 369.703841 221.513588 
L 370.757293 230.214528 
L 371.810744 240.780985 
L 372.864195 240.247292 
L 373.917647 233.18147 
L 374.971098 233.965038 
L 376.024549 233.381355 
L 377.078001 224.586892 
L 379.184903 176.007142 
L 380.238355 165.648143 
L 381.291806 149.775738 
L 382.345257 149.07257 
L 383.398709 144.313341 
L 384.45216 147.398753 
L 385.505611 187.104218 
L 385.505611 187.104218 
" clip-path="url(#p61a2a57211)" style="fill: none; stroke: #d62728; stroke-width: 1.5; stroke-linecap: square"/>
   </g>
   <g id="line2d_23">
    <path d="M 29.439063 222.506149 
L 30.492514 229.225195 
L 31.545965 244.328125 
L 32.599416 247.402355 
L 34.706319 258.019032 
L 35.75977 257.295259 
L 36.813222 249.2435 
L 37.866673 246.974437 
L 38.920124 234.54074 
L 39.973576 231.861658 
L 41.027027 231.553594 
L 42.080478 227.717781 
L 43.13393 232.012654 
L 44.187381 247.643113 
L 46.294284 246.413994 
L 47.347735 251.305355 
L 48.401186 234.325278 
L 49.454638 214.484016 
L 50.508089 201.387908 
L 51.56154 163.586194 
L 52.614992 129.858474 
L 53.668443 141.397281 
L 54.721894 125.3209 
L 55.775346 134.972888 
L 56.828797 154.989431 
L 57.882248 158.76708 
L 58.9357 155.361922 
L 59.989151 182.873277 
L 61.042602 162.532711 
L 62.096054 145.998895 
L 63.149505 142.271252 
L 64.202956 131.739654 
L 65.256408 80.2958 
L 66.309859 74.469261 
L 67.36331 71.612377 
L 68.416762 73.369884 
L 69.470213 78.170446 
L 70.523664 92.205622 
L 71.577116 114.651386 
L 72.630567 126.98029 
L 73.684018 135.707335 
L 74.73747 141.820322 
L 75.790921 152.338799 
L 76.844372 155.572908 
L 77.897824 168.629853 
L 78.951275 177.501124 
L 80.004726 192.046346 
L 81.058178 191.863517 
L 82.111629 188.562489 
L 83.16508 191.603524 
L 84.218532 188.124556 
L 85.271983 181.447777 
L 86.325434 187.0666 
L 87.378886 187.0915 
L 88.432337 185.34807 
L 89.485788 189.913695 
L 90.539239 190.637736 
L 91.592691 188.763136 
L 93.699593 195.654061 
L 94.753045 195.075047 
L 95.806496 193.860278 
L 96.859947 194.307816 
L 97.913399 192.563919 
L 98.96685 191.542008 
L 101.073753 188.685177 
L 102.127204 188.893792 
L 103.180655 191.078975 
L 104.234107 192.074346 
L 105.287558 199.593102 
L 106.341009 204.565698 
L 107.394461 210.577143 
L 108.447912 212.428944 
L 109.501363 214.907852 
L 110.554815 210.23647 
L 111.608266 207.817891 
L 112.661717 196.188428 
L 113.715169 189.862088 
L 114.76862 182.770205 
L 115.822071 183.291563 
L 116.875523 181.712392 
L 117.928974 193.113415 
L 120.035877 211.463604 
L 122.142779 230.909798 
L 124.249682 242.063784 
L 125.303133 245.919887 
L 126.356585 246.583547 
L 127.410036 248.741635 
L 128.463487 249.036102 
L 129.516939 249.952996 
L 130.57039 247.98217 
L 131.623841 243.701758 
L 132.677293 241.373489 
L 133.730744 240.72956 
L 134.784195 235.993508 
L 136.891098 232.924776 
L 137.944549 229.099784 
L 138.998001 230.988135 
L 140.051452 235.724345 
L 141.104903 235.091221 
L 142.158355 238.923995 
L 143.211806 240.309621 
L 144.265257 236.532871 
L 145.318709 231.439783 
L 146.37216 239.832571 
L 147.425611 229.288225 
L 148.479063 229.025515 
L 149.532514 226.018762 
L 150.585965 229.776904 
L 151.639416 213.604985 
L 152.692868 215.680869 
L 153.746319 209.062995 
L 154.79977 214.984372 
L 155.853222 210.206824 
L 156.906673 219.314815 
L 157.960124 222.17396 
L 159.013576 226.369517 
L 160.067027 231.430807 
L 161.120478 225.577264 
L 162.17393 223.851206 
L 163.227381 228.555607 
L 164.280832 226.648719 
L 165.334284 216.031922 
L 166.387735 225.28565 
L 167.441186 220.640156 
L 168.494638 231.061495 
L 169.548089 227.73105 
L 170.60154 220.726004 
L 171.654992 215.037011 
L 172.708443 213.157231 
L 173.761894 191.720756 
L 174.815346 196.460668 
L 175.868797 191.350375 
L 176.922248 191.757527 
L 177.9757 201.836996 
L 179.029151 200.792232 
L 180.082602 197.550137 
L 181.136054 211.894043 
L 182.189505 208.846332 
L 183.242956 198.115669 
L 184.296408 203.773183 
L 185.349859 201.828184 
L 186.40331 197.214919 
L 187.456762 195.912493 
L 189.563664 185.115566 
L 190.617116 188.215948 
L 191.670567 179.230873 
L 192.724018 171.901027 
L 193.77747 188.619752 
L 194.830921 183.951829 
L 195.884372 183.070739 
L 196.937824 191.957715 
L 197.991275 195.323676 
L 199.044726 189.316525 
L 200.098178 197.266248 
L 201.151629 190.602066 
L 202.20508 195.331172 
L 203.258532 203.427593 
L 204.311983 207.153921 
L 205.365434 203.660003 
L 206.418886 208.209749 
L 207.472337 206.225655 
L 208.525788 201.968952 
L 209.579239 193.086981 
L 210.632691 192.080368 
L 211.686142 193.671134 
L 212.739593 192.037551 
L 213.793045 187.230909 
L 214.846496 195.127704 
L 215.899947 193.136595 
L 218.00685 188.360647 
L 219.060301 195.259724 
L 220.113753 190.323195 
L 221.167204 192.16594 
L 222.220655 185.535827 
L 223.274107 190.356327 
L 224.327558 194.157665 
L 225.381009 195.231943 
L 226.434461 199.805793 
L 227.487912 205.75506 
L 228.541363 201.980701 
L 229.594815 196.973377 
L 231.701717 184.857416 
L 232.755169 182.068236 
L 233.80862 180.423619 
L 234.862071 177.468219 
L 235.915523 177.562124 
L 236.968974 178.80059 
L 238.022425 185.690961 
L 239.075877 185.834271 
L 241.182779 198.87215 
L 242.236231 203.82049 
L 243.289682 202.259429 
L 244.343133 205.894119 
L 245.396585 200.979192 
L 246.450036 198.165651 
L 247.503487 198.124359 
L 248.556939 202.74615 
L 249.61039 200.578123 
L 250.663841 207.104849 
L 251.717293 208.241904 
L 252.770744 211.671763 
L 253.824195 220.244674 
L 254.877647 226.078778 
L 255.931098 223.863886 
L 256.984549 233.998962 
L 258.038001 240.383726 
L 259.091452 233.517676 
L 260.144903 219.293385 
L 261.198355 203.251104 
L 262.251806 183.622751 
L 263.305257 167.197618 
L 264.358709 165.252998 
L 265.41216 172.562654 
L 267.519063 213.618043 
L 268.572514 226.041419 
L 269.625965 232.462632 
L 270.679416 241.448056 
L 271.732868 239.391526 
L 272.786319 238.737845 
L 273.83977 239.787062 
L 274.893222 241.114508 
L 275.946673 244.070253 
L 277.000124 251.48424 
L 279.107027 244.248661 
L 280.160478 243.731784 
L 281.21393 242.244278 
L 282.267381 242.65733 
L 283.320832 244.176889 
L 284.374284 242.605043 
L 285.427735 239.931252 
L 286.481186 246.935916 
L 287.534638 247.059347 
L 288.588089 247.328921 
L 289.64154 246.558014 
L 290.694992 249.176368 
L 291.748443 242.836748 
L 292.801894 234.590488 
L 293.855346 229.319501 
L 294.908797 227.373291 
L 295.962248 221.952487 
L 297.0157 220.862935 
L 298.069151 222.835301 
L 299.122602 230.068009 
L 300.176054 230.003639 
L 301.229505 231.284555 
L 302.282956 235.291923 
L 303.336408 235.670859 
L 304.389859 228.611926 
L 305.44331 231.859133 
L 306.496762 225.800643 
L 307.550213 218.691941 
L 308.603664 222.921585 
L 309.657116 228.392567 
L 310.710567 231.680575 
L 311.764018 242.787511 
L 312.81747 246.709389 
L 313.870921 246.472815 
L 314.924372 243.713377 
L 315.977824 242.251513 
L 317.031275 232.996184 
L 318.084726 230.328151 
L 319.138178 217.506195 
L 321.24508 202.444106 
L 322.298532 204.81148 
L 323.351983 193.751729 
L 324.405434 206.275183 
L 325.458886 211.656683 
L 326.512337 216.266542 
L 327.565788 223.305393 
L 328.619239 233.047093 
L 329.672691 233.898707 
L 330.726142 238.766741 
L 331.779593 242.515821 
L 332.833045 237.896497 
L 333.886496 236.121135 
L 334.939947 236.59999 
L 335.993399 232.917594 
L 337.04685 225.295033 
L 338.100301 220.440519 
L 339.153753 231.054901 
L 340.207204 223.345173 
L 341.260655 212.189456 
L 342.314107 207.93829 
L 343.367558 206.054431 
L 344.421009 188.0728 
L 345.474461 211.199039 
L 346.527912 208.701605 
L 348.634815 230.900906 
L 349.688266 235.641406 
L 350.741717 229.113732 
L 351.795169 231.97843 
L 352.84862 219.871379 
L 354.955523 208.516872 
L 356.008974 202.5267 
L 357.062425 208.814891 
L 358.115877 212.61957 
L 359.169328 219.624428 
L 360.222779 224.597112 
L 361.276231 218.369966 
L 362.329682 218.790986 
L 363.383133 220.115873 
L 364.436585 209.632221 
L 365.490036 207.904703 
L 366.543487 210.24341 
L 367.596939 208.073872 
L 368.65039 213.692434 
L 369.703841 223.256838 
L 370.757293 225.292592 
L 372.864195 239.19396 
L 373.917647 236.682498 
L 374.971098 235.015614 
L 376.024549 234.544139 
L 377.078001 226.231095 
L 378.131452 205.578078 
L 379.184903 192.403863 
L 380.238355 183.378 
L 381.291806 159.096445 
L 382.345257 138.098858 
L 383.398709 145.342862 
L 385.505611 177.210476 
L 385.505611 177.210476 
" clip-path="url(#p61a2a57211)" style="fill: none; stroke: #9467bd; stroke-width: 1.5; stroke-linecap: square"/>
   </g>
   <g id="line2d_24">
    <path d="M 29.439063 221.989476 
L 30.492514 228.904971 
L 31.545965 237.483987 
L 33.652868 250.133055 
L 35.75977 256.994611 
L 36.813222 253.038847 
L 38.920124 239.915086 
L 39.973576 236.632969 
L 41.027027 235.239876 
L 42.080478 227.68395 
L 43.13393 231.670455 
L 44.187381 240.522 
L 45.240832 246.901912 
L 46.294284 247.094508 
L 47.347735 245.135114 
L 48.401186 236.98727 
L 49.454638 227.417148 
L 50.508089 209.558869 
L 52.614992 154.479575 
L 53.668443 136.912814 
L 54.721894 136.626651 
L 55.775346 143.651398 
L 56.828797 138.702995 
L 57.882248 150.24993 
L 58.9357 157.637623 
L 59.989151 172.805614 
L 61.042602 172.308881 
L 62.096054 147.756838 
L 63.149505 139.424444 
L 64.202956 135.249771 
L 65.256408 118.380389 
L 66.309859 80.14313 
L 67.36331 68.347758 
L 68.416762 78.528388 
L 70.523664 83.731536 
L 71.577116 109.142714 
L 72.630567 114.016671 
L 73.684018 131.704446 
L 74.73747 137.894546 
L 75.790921 145.867244 
L 76.844372 159.375849 
L 77.897824 160.199988 
L 78.951275 173.774933 
L 80.004726 185.603024 
L 81.058178 187.691034 
L 83.16508 189.973888 
L 84.218532 189.661866 
L 85.271983 188.720384 
L 86.325434 183.420157 
L 87.378886 184.839306 
L 88.432337 187.32764 
L 89.485788 188.234936 
L 90.539239 190.808875 
L 91.592691 189.459306 
L 92.646142 189.315904 
L 93.699593 194.488321 
L 94.753045 196.222111 
L 95.806496 194.084129 
L 96.859947 192.551171 
L 97.913399 192.477858 
L 98.96685 193.836383 
L 100.020301 191.623847 
L 101.073753 188.740474 
L 102.127204 188.38451 
L 103.180655 189.755489 
L 104.234107 193.432394 
L 105.287558 198.363082 
L 106.341009 201.032618 
L 107.394461 206.925265 
L 108.447912 209.543013 
L 109.501363 213.252545 
L 110.554815 212.963095 
L 111.608266 207.846519 
L 113.715169 192.369156 
L 114.76862 189.197994 
L 116.875523 184.042107 
L 117.928974 187.198671 
L 121.089328 218.675332 
L 122.142779 224.780796 
L 123.196231 232.725185 
L 125.303133 243.690539 
L 126.356585 246.907814 
L 127.410036 247.474879 
L 128.463487 247.797075 
L 129.516939 249.480254 
L 130.57039 248.556817 
L 131.623841 245.08607 
L 133.730744 241.095177 
L 134.784195 238.815428 
L 136.891098 232.270423 
L 137.944549 231.130882 
L 138.998001 232.49656 
L 140.051452 234.57189 
L 141.104903 234.929153 
L 142.158355 236.028174 
L 143.211806 237.444895 
L 144.265257 238.514573 
L 145.318709 234.934333 
L 146.37216 238.395766 
L 147.425611 231.266365 
L 148.479063 229.132824 
L 149.532514 226.515892 
L 150.585965 229.239417 
L 151.639416 224.817696 
L 152.692868 209.621523 
L 153.746319 212.522123 
L 155.853222 216.641101 
L 156.906673 215.732855 
L 157.960124 217.061613 
L 159.013576 221.758769 
L 160.067027 232.710465 
L 161.120478 225.409058 
L 162.17393 226.675144 
L 163.227381 224.981941 
L 164.280832 225.516094 
L 165.334284 224.706134 
L 166.387735 219.993368 
L 167.441186 222.621729 
L 168.494638 230.960194 
L 169.548089 224.808205 
L 170.60154 219.699069 
L 171.654992 219.194515 
L 172.708443 212.348296 
L 173.761894 209.65087 
L 174.815346 194.907088 
L 175.868797 187.807324 
L 176.922248 195.211158 
L 177.9757 201.189777 
L 179.029151 199.121299 
L 180.082602 199.667689 
L 181.136054 201.664094 
L 182.189505 209.536309 
L 183.242956 206.137929 
L 184.296408 200.771985 
L 185.349859 200.539284 
L 186.40331 201.393693 
L 188.510213 190.557175 
L 189.563664 190.24811 
L 190.617116 187.367939 
L 191.670567 182.763564 
L 192.724018 175.139954 
L 193.77747 184.260041 
L 195.884372 185.693006 
L 196.937824 186.011723 
L 197.991275 189.053189 
L 199.044726 197.746163 
L 200.098178 192.377572 
L 201.151629 191.188962 
L 202.20508 196.093335 
L 203.258532 198.888857 
L 204.311983 207.49831 
L 206.418886 200.805821 
L 207.472337 208.713277 
L 208.525788 204.293783 
L 209.579239 199.221764 
L 210.632691 191.424833 
L 211.686142 192.344692 
L 212.739593 195.438584 
L 213.793045 188.410429 
L 214.846496 193.421343 
L 215.899947 191.466693 
L 216.953399 191.34645 
L 218.00685 191.086209 
L 219.060301 191.173373 
L 220.113753 195.888562 
L 221.167204 188.934661 
L 222.220655 184.957424 
L 224.327558 195.922878 
L 225.381009 195.865522 
L 226.434461 196.964714 
L 227.487912 196.992366 
L 228.541363 203.993471 
L 229.594815 201.233957 
L 230.648266 193.29733 
L 231.701717 188.48751 
L 232.755169 182.050611 
L 233.80862 182.922867 
L 234.862071 180.997684 
L 235.915523 176.85942 
L 236.968974 178.181248 
L 238.022425 182.759312 
L 239.075877 186.049535 
L 240.129328 190.908696 
L 241.182779 194.995539 
L 242.236231 200.316108 
L 243.289682 202.053777 
L 244.343133 203.05515 
L 245.396585 203.188982 
L 246.450036 199.818307 
L 247.503487 199.700281 
L 248.556939 201.146293 
L 249.61039 201.664569 
L 250.663841 204.221356 
L 251.717293 205.956449 
L 252.770744 210.922625 
L 253.824195 219.423925 
L 254.877647 221.610325 
L 255.931098 223.37897 
L 256.984549 229.049003 
L 258.038001 237.766712 
L 259.091452 236.693885 
L 261.198355 204.185953 
L 262.251806 198.109798 
L 265.41216 165.669523 
L 266.465611 180.766015 
L 267.519063 207.173387 
L 268.572514 222.415569 
L 269.625965 228.878611 
L 270.679416 232.116043 
L 271.732868 235.824645 
L 272.786319 241.744141 
L 273.83977 242.955834 
L 274.893222 241.247706 
L 275.946673 241.929208 
L 277.000124 244.83055 
L 278.053576 248.808845 
L 279.107027 247.351661 
L 280.160478 244.492239 
L 281.21393 242.862764 
L 282.267381 243.66558 
L 283.320832 242.552297 
L 284.374284 242.817807 
L 285.427735 240.92033 
L 286.481186 245.569599 
L 287.534638 247.629856 
L 288.588089 246.468575 
L 289.64154 244.839602 
L 290.694992 246.543437 
L 291.748443 247.840138 
L 292.801894 237.555391 
L 293.855346 231.830536 
L 294.908797 228.017048 
L 295.962248 226.505229 
L 297.0157 224.482092 
L 298.069151 220.162131 
L 299.122602 227.964603 
L 300.176054 228.595117 
L 301.229505 229.804007 
L 302.282956 235.451266 
L 303.336408 232.73684 
L 304.389859 232.56268 
L 305.44331 230.112794 
L 306.496762 226.306774 
L 307.550213 225.520005 
L 308.603664 222.253967 
L 309.657116 226.331124 
L 310.710567 232.637563 
L 311.764018 236.043033 
L 312.81747 243.321083 
L 313.870921 245.177288 
L 314.924372 243.392969 
L 315.977824 243.825994 
L 317.031275 237.09032 
L 318.084726 233.124849 
L 319.138178 221.039659 
L 320.191629 212.702705 
L 321.24508 210.684665 
L 322.298532 205.036894 
L 323.351983 201.452401 
L 324.405434 199.483568 
L 326.512337 216.050304 
L 327.565788 222.313926 
L 328.619239 226.144196 
L 329.672691 232.416854 
L 330.726142 235.082206 
L 331.779593 241.405172 
L 332.833045 239.654475 
L 333.886496 236.643814 
L 335.993399 234.275732 
L 337.04685 230.64629 
L 338.100301 221.01198 
L 339.153753 230.898177 
L 340.207204 224.796132 
L 341.260655 213.836756 
L 342.314107 209.756475 
L 343.367558 204.548007 
L 344.421009 207.130202 
L 345.474461 207.450722 
L 346.527912 200.66163 
L 347.581363 216.005997 
L 348.634815 224.572582 
L 349.688266 232.120267 
L 350.741717 237.700452 
L 351.795169 219.860697 
L 352.84862 224.810058 
L 353.902071 220.473006 
L 354.955523 214.0332 
L 356.008974 211.447442 
L 357.062425 201.640442 
L 358.115877 207.732467 
L 359.169328 220.268411 
L 360.222779 222.695635 
L 361.276231 219.51243 
L 362.329682 215.447644 
L 363.383133 217.315148 
L 364.436585 217.950687 
L 365.490036 213.291937 
L 366.543487 207.095546 
L 367.596939 206.703642 
L 368.65039 213.024949 
L 369.703841 220.627892 
L 370.757293 226.083403 
L 371.810744 227.727252 
L 373.917647 236.379788 
L 374.971098 237.591338 
L 376.024549 235.319626 
L 377.078001 228.491175 
L 378.131452 210.557 
L 379.184903 197.635586 
L 380.238355 195.404241 
L 381.291806 175.626667 
L 382.345257 148.325703 
L 383.398709 136.712246 
L 385.505611 183.137439 
L 385.505611 183.137439 
" clip-path="url(#p61a2a57211)" style="fill: none; stroke: #8c564b; stroke-width: 1.5; stroke-linecap: square"/>
   </g>
   <g id="line2d_25">
    <path d="M 29.439063 224.216778 
L 30.492514 227.596136 
L 31.545965 236.094002 
L 32.599416 238.285498 
L 33.652868 247.009287 
L 34.706319 251.173405 
L 35.75977 253.38057 
L 36.813222 253.391419 
L 37.866673 250.111493 
L 38.920124 240.35466 
L 39.973576 240.873149 
L 41.027027 238.743918 
L 42.080478 231.524757 
L 43.13393 231.087585 
L 44.187381 239.084283 
L 45.240832 240.893702 
L 46.294284 246.996197 
L 47.347735 245.910647 
L 48.401186 233.085415 
L 49.454638 230.86679 
L 50.508089 221.875268 
L 51.56154 192.984554 
L 52.614992 172.579527 
L 53.668443 156.56697 
L 54.721894 133.393898 
L 55.775346 150.105108 
L 56.828797 145.513232 
L 57.882248 136.739153 
L 58.9357 150.483069 
L 59.989151 172.207681 
L 61.042602 164.739432 
L 62.096054 159.007124 
L 63.149505 141.932814 
L 64.202956 133.752243 
L 66.309859 113.209754 
L 67.36331 74.203567 
L 68.416762 74.821343 
L 69.470213 84.425418 
L 70.523664 85.512302 
L 71.577116 100.005778 
L 72.630567 109.382331 
L 73.684018 120.19955 
L 74.73747 134.191304 
L 75.790921 141.997781 
L 76.844372 153.047456 
L 77.897824 162.735832 
L 78.951275 166.052801 
L 80.004726 181.433711 
L 81.058178 182.665304 
L 82.111629 185.684395 
L 83.16508 190.052933 
L 84.218532 188.528151 
L 85.271983 189.949308 
L 86.325434 189.323584 
L 87.378886 181.997329 
L 88.432337 185.368481 
L 89.485788 189.494891 
L 90.539239 189.251731 
L 91.592691 189.776067 
L 92.646142 189.831957 
L 93.699593 191.63289 
L 94.753045 195.146246 
L 95.806496 195.216294 
L 96.859947 192.932486 
L 97.913399 191.218756 
L 98.96685 193.58218 
L 100.020301 193.580143 
L 101.073753 190.258975 
L 102.127204 188.474989 
L 103.180655 189.198645 
L 104.234107 191.981943 
L 105.287558 198.601115 
L 106.341009 199.784621 
L 107.394461 203.618883 
L 108.447912 206.544268 
L 109.501363 210.681256 
L 110.554815 211.804545 
L 111.608266 210.573035 
L 112.661717 201.272819 
L 114.76862 191.453746 
L 115.822071 191.567199 
L 116.875523 186.873421 
L 117.928974 188.362043 
L 118.982425 191.892493 
L 121.089328 214.499122 
L 122.142779 222.158824 
L 123.196231 227.322903 
L 124.249682 234.922937 
L 125.303133 240.308315 
L 126.356585 244.880253 
L 127.410036 247.623529 
L 128.463487 246.836933 
L 129.516939 248.36133 
L 130.57039 248.346486 
L 131.623841 246.014508 
L 132.677293 244.469403 
L 133.730744 242.710852 
L 134.784195 239.410904 
L 135.837647 238.158751 
L 136.891098 233.598803 
L 137.944549 230.819473 
L 138.998001 233.710105 
L 140.051452 235.321048 
L 141.104903 234.048867 
L 142.158355 235.757231 
L 143.211806 235.145673 
L 144.265257 236.280027 
L 145.318709 236.891486 
L 146.37216 240.248563 
L 147.425611 231.206691 
L 148.479063 230.855381 
L 149.532514 226.97232 
L 150.585965 229.200263 
L 151.639416 225.060755 
L 152.692868 220.171876 
L 153.746319 207.679122 
L 154.79977 216.719103 
L 155.853222 216.123738 
L 156.906673 220.271379 
L 157.960124 214.26839 
L 159.013576 217.436337 
L 160.067027 228.104504 
L 161.120478 227.449084 
L 162.17393 226.376218 
L 163.227381 227.223636 
L 164.280832 222.819885 
L 165.334284 223.999794 
L 166.387735 226.684388 
L 167.441186 218.385403 
L 168.494638 231.107781 
L 169.548089 225.63427 
L 170.60154 218.212387 
L 171.654992 218.52415 
L 172.708443 216.383034 
L 173.761894 209.44702 
L 174.815346 209.664523 
L 175.868797 187.671964 
L 176.922248 191.709338 
L 177.9757 202.671045 
L 179.029151 198.947973 
L 180.082602 198.387136 
L 181.136054 202.852002 
L 182.189505 201.008475 
L 183.242956 207.131896 
L 184.296408 207.18111 
L 185.349859 198.380668 
L 186.40331 200.348606 
L 187.456762 199.87207 
L 188.510213 191.497092 
L 189.563664 190.446999 
L 190.617116 191.399083 
L 191.670567 182.804438 
L 192.724018 178.836405 
L 193.77747 185.145917 
L 194.830921 181.658839 
L 195.884372 186.284838 
L 196.937824 187.806378 
L 197.991275 184.297498 
L 199.044726 192.130815 
L 200.098178 199.063592 
L 201.151629 187.727666 
L 202.20508 195.808404 
L 203.258532 199.024939 
L 204.311983 203.154815 
L 205.365434 204.902638 
L 206.418886 201.663825 
L 207.472337 202.345891 
L 208.525788 206.736348 
L 211.686142 191.746216 
L 212.739593 194.064329 
L 213.793045 191.922213 
L 214.846496 193.527147 
L 215.899947 190.499864 
L 216.953399 190.157175 
L 218.00685 191.456708 
L 219.060301 193.073793 
L 220.113753 192.318328 
L 221.167204 193.959995 
L 222.220655 183.119016 
L 224.327558 195.385749 
L 225.381009 197.120655 
L 226.434461 197.255697 
L 227.487912 194.920628 
L 228.541363 196.680503 
L 229.594815 203.076989 
L 230.648266 197.57802 
L 231.701717 190.830877 
L 232.755169 185.624953 
L 233.80862 182.786056 
L 234.862071 183.053444 
L 235.915523 179.987536 
L 236.968974 177.492985 
L 238.022425 181.681811 
L 239.075877 183.494688 
L 240.129328 190.37394 
L 242.236231 196.827227 
L 243.289682 199.273135 
L 244.343133 202.7665 
L 245.396585 201.103242 
L 246.450036 201.896283 
L 247.503487 200.885534 
L 248.556939 202.043694 
L 249.61039 200.439377 
L 250.663841 204.616121 
L 251.717293 203.633554 
L 252.770744 208.62509 
L 253.824195 217.74467 
L 254.877647 220.720925 
L 255.931098 219.863341 
L 256.984549 227.927071 
L 258.038001 233.158476 
L 259.091452 234.910488 
L 260.144903 225.785975 
L 261.198355 207.941713 
L 262.251806 199.687402 
L 263.305257 198.707123 
L 264.358709 190.269042 
L 265.41216 174.012436 
L 266.465611 174.001014 
L 268.572514 216.068495 
L 269.625965 225.453198 
L 270.679416 229.092188 
L 271.732868 228.265121 
L 272.786319 238.433858 
L 273.83977 244.842663 
L 274.893222 243.724589 
L 275.946673 241.926549 
L 277.000124 242.904976 
L 278.053576 243.356351 
L 279.107027 248.122206 
L 280.160478 247.117699 
L 281.21393 243.645552 
L 282.267381 243.986768 
L 283.320832 243.433191 
L 284.374284 241.603178 
L 285.427735 241.348576 
L 286.481186 245.588154 
L 288.588089 247.045601 
L 289.64154 244.443331 
L 291.748443 245.747859 
L 292.801894 242.868152 
L 293.855346 234.842259 
L 294.908797 230.38515 
L 295.962248 227.185875 
L 297.0157 227.958074 
L 298.069151 223.389952 
L 299.122602 225.05755 
L 300.176054 226.98329 
L 301.229505 228.624362 
L 302.282956 233.647225 
L 303.336408 233.246031 
L 304.389859 230.430796 
L 305.44331 233.251507 
L 306.496762 225.549898 
L 307.550213 225.995159 
L 308.603664 227.465659 
L 309.657116 225.295127 
L 310.710567 230.343622 
L 311.764018 236.22079 
L 312.81747 237.527549 
L 313.870921 242.454916 
L 314.924372 242.69455 
L 315.977824 243.535674 
L 317.031275 239.268226 
L 318.084726 236.622724 
L 319.138178 225.01847 
L 320.191629 216.551369 
L 321.24508 213.028343 
L 322.298532 211.640465 
L 323.351983 202.135661 
L 324.405434 205.063105 
L 325.458886 201.700388 
L 326.512337 212.108094 
L 327.565788 221.294101 
L 328.619239 224.91422 
L 329.672691 226.586756 
L 330.726142 233.659203 
L 331.779593 237.965307 
L 332.833045 239.090415 
L 333.886496 238.351026 
L 335.993399 233.567325 
L 337.04685 232.163538 
L 338.100301 226.405136 
L 339.153753 229.918076 
L 340.207204 225.572872 
L 341.260655 216.58916 
L 343.367558 206.636402 
L 344.421009 205.696889 
L 345.474461 219.365454 
L 346.527912 198.769517 
L 347.581363 208.497259 
L 348.634815 221.001101 
L 349.688266 226.606567 
L 350.741717 234.457609 
L 351.795169 229.239561 
L 352.84862 214.906728 
L 353.902071 224.614148 
L 354.955523 219.388388 
L 356.008974 215.676684 
L 357.062425 209.501049 
L 358.115877 201.716173 
L 359.169328 215.272482 
L 360.222779 222.800972 
L 361.276231 218.557175 
L 362.329682 216.872474 
L 363.383133 214.634301 
L 364.436585 215.824891 
L 365.490036 219.75121 
L 367.596939 204.452877 
L 368.65039 211.199039 
L 369.703841 219.122065 
L 371.810744 228.047303 
L 372.864195 228.430693 
L 373.917647 230.604082 
L 374.971098 237.204907 
L 376.024549 237.482213 
L 377.078001 230.081928 
L 378.131452 215.134229 
L 379.184903 203.320906 
L 380.238355 199.390569 
L 381.291806 187.609692 
L 382.345257 164.960216 
L 383.398709 145.766864 
L 384.45216 151.084892 
L 385.505611 178.742688 
L 385.505611 178.742688 
" clip-path="url(#p61a2a57211)" style="fill: none; stroke: #e377c2; stroke-width: 1.5; stroke-linecap: square"/>
   </g>
   <g id="patch_3">
    <path d="M 29.439063 284.991437 
L 29.439063 18.879437 
" style="fill: none; stroke: #000000; stroke-width: 0.8; stroke-linejoin: miter; stroke-linecap: square"/>
   </g>
   <g id="patch_4">
    <path d="M 386.559062 284.991437 
L 386.559062 18.879437 
" style="fill: none; stroke: #000000; stroke-width: 0.8; stroke-linejoin: miter; stroke-linecap: square"/>
   </g>
   <g id="patch_5">
    <path d="M 29.439063 284.991437 
L 386.559063 284.991437 
" style="fill: none; stroke: #000000; stroke-width: 0.8; stroke-linejoin: miter; stroke-linecap: square"/>
   </g>
   <g id="patch_6">
    <path d="M 29.439063 18.879437 
L 386.559063 18.879437 
" style="fill: none; stroke: #000000; stroke-width: 0.8; stroke-linejoin: miter; stroke-linecap: square"/>
   </g>
   <g id="legend_1">
    <g id="patch_7">
     <path d="M 188.849844 127.613812 
L 227.148281 127.613812 
Q 229.148281 127.613812 229.148281 125.613812 
L 229.148281 25.879437 
Q 229.148281 23.879437 227.148281 23.879437 
L 188.849844 23.879437 
Q 186.849844 23.879437 186.849844 25.879437 
L 186.849844 125.613812 
Q 186.849844 127.613812 188.849844 127.613812 
z
" style="fill: #ffffff; opacity: 0.8; stroke: #cccccc; stroke-linejoin: miter"/>
    </g>
    <g id="line2d_26">
     <path d="M 190.849844 31.870062 
L 200.849844 31.870062 
L 210.849844 31.870062 
" style="fill: none; stroke: #1f77b4; stroke-width: 1.5; stroke-linecap: square"/>
    </g>
    <g id="text_18">
     <!-- 1 -->
     <g transform="translate(218.849844 35.370062) scale(0.1 -0.1)">
      <use xlink:href="#IPAexGothic-31"/>
     </g>
    </g>
    <g id="line2d_27">
     <path d="M 190.849844 46.260687 
L 200.849844 46.260687 
L 210.849844 46.260687 
" style="fill: none; stroke: #ff7f0e; stroke-width: 1.5; stroke-linecap: square"/>
    </g>
    <g id="text_19">
     <!-- 2 -->
     <g transform="translate(218.849844 49.760687) scale(0.1 -0.1)">
      <use xlink:href="#IPAexGothic-32"/>
     </g>
    </g>
    <g id="line2d_28">
     <path d="M 190.849844 60.651312 
L 200.849844 60.651312 
L 210.849844 60.651312 
" style="fill: none; stroke: #2ca02c; stroke-width: 1.5; stroke-linecap: square"/>
    </g>
    <g id="text_20">
     <!-- 3 -->
     <g transform="translate(218.849844 64.151312) scale(0.1 -0.1)">
      <use xlink:href="#IPAexGothic-33"/>
     </g>
    </g>
    <g id="line2d_29">
     <path d="M 190.849844 75.041937 
L 200.849844 75.041937 
L 210.849844 75.041937 
" style="fill: none; stroke: #d62728; stroke-width: 1.5; stroke-linecap: square"/>
    </g>
    <g id="text_21">
     <!-- 4 -->
     <g transform="translate(218.849844 78.541937) scale(0.1 -0.1)">
      <defs>
       <path id="IPAexGothic-34" d="M 3813 1159 
L 3059 1159 
L 3059 63 
L 2547 63 
L 2547 1159 
L 197 1159 
L 197 1672 
L 2456 4678 
L 3059 4678 
L 3059 1634 
L 3813 1634 
L 3813 1159 
z
M 2578 4109 
L 2559 4109 
Q 2278 3656 2003 3284 
L 759 1634 
L 2547 1634 
L 2547 3144 
Q 2547 3481 2578 4109 
z
" transform="scale(0.015625)"/>
      </defs>
      <use xlink:href="#IPAexGothic-34"/>
     </g>
    </g>
    <g id="line2d_30">
     <path d="M 190.849844 89.432562 
L 200.849844 89.432562 
L 210.849844 89.432562 
" style="fill: none; stroke: #9467bd; stroke-width: 1.5; stroke-linecap: square"/>
    </g>
    <g id="text_22">
     <!-- 5 -->
     <g transform="translate(218.849844 92.932562) scale(0.1 -0.1)">
      <use xlink:href="#IPAexGothic-35"/>
     </g>
    </g>
    <g id="line2d_31">
     <path d="M 190.849844 103.823187 
L 200.849844 103.823187 
L 210.849844 103.823187 
" style="fill: none; stroke: #8c564b; stroke-width: 1.5; stroke-linecap: square"/>
    </g>
    <g id="text_23">
     <!-- 6 -->
     <g transform="translate(218.849844 107.323187) scale(0.1 -0.1)">
      <defs>
       <path id="IPAexGothic-36" d="M 1056 2328 
Q 1509 2981 2234 2981 
Q 2906 2981 3316 2513 
Q 3675 2106 3675 1522 
Q 3675 884 3272 434 
Q 2853 -31 2178 -31 
Q 1375 -31 922 581 
Q 481 1178 481 2228 
Q 481 3425 1013 4109 
Q 1494 4725 2272 4725 
Q 3191 4725 3609 4025 
L 3150 3775 
Q 2894 4266 2300 4266 
Q 1119 4266 1031 2328 
L 1056 2328 
z
M 2141 2547 
Q 1684 2547 1384 2206 
Q 1116 1900 1116 1541 
Q 1116 1156 1353 844 
Q 1672 428 2159 428 
Q 2669 428 2941 844 
Q 3125 1128 3125 1503 
Q 3125 1944 2881 2228 
Q 2600 2547 2141 2547 
z
" transform="scale(0.015625)"/>
      </defs>
      <use xlink:href="#IPAexGothic-36"/>
     </g>
    </g>
    <g id="line2d_32">
     <path d="M 190.849844 118.213812 
L 200.849844 118.213812 
L 210.849844 118.213812 
" style="fill: none; stroke: #e377c2; stroke-width: 1.5; stroke-linecap: square"/>
    </g>
    <g id="text_24">
     <!-- 7 -->
     <g transform="translate(218.849844 121.713812) scale(0.1 -0.1)">
      <defs>
       <path id="IPAexGothic-37" d="M 3597 4263 
Q 2238 2106 1778 63 
L 1131 63 
Q 1581 1834 2950 4128 
L 428 4128 
L 428 4634 
L 3597 4634 
L 3597 4263 
z
" transform="scale(0.015625)"/>
      </defs>
      <use xlink:href="#IPAexGothic-37"/>
     </g>
    </g>
   </g>
  </g>
  <g id="axes_2">
   <g id="matplotlib.axis_3"/>
   <g id="patch_8">
    <path d="M 29.439063 284.991437 
L 29.439063 18.879437 
" style="fill: none; stroke: #000000; stroke-width: 0.8; stroke-linejoin: miter; stroke-linecap: square"/>
   </g>
   <g id="patch_9">
    <path d="M 386.559062 284.991437 
L 386.559062 18.879437 
" style="fill: none; stroke: #000000; stroke-width: 0.8; stroke-linejoin: miter; stroke-linecap: square"/>
   </g>
   <g id="patch_10">
    <path d="M 29.439063 284.991437 
L 386.559063 284.991437 
" style="fill: none; stroke: #000000; stroke-width: 0.8; stroke-linejoin: miter; stroke-linecap: square"/>
   </g>
   <g id="patch_11">
    <path d="M 29.439063 18.879437 
L 386.559063 18.879437 
" style="fill: none; stroke: #000000; stroke-width: 0.8; stroke-linejoin: miter; stroke-linecap: square"/>
   </g>
  </g>
  <g id="text_25">
   <!-- : 2023/05/05 16:13:05(JST) -->
   <g transform="translate(211.087188 15.423437) scale(0.1 -0.1)">
    <defs>
     <path id="IPAexGothic-66f4" d="M 2956 3994 
L 2956 4588 
L 513 4588 
L 513 4984 
L 5881 4984 
L 5881 4588 
L 3413 4588 
L 3413 3994 
L 5300 3994 
L 5300 1288 
L 4838 1288 
L 4838 1759 
L 3406 1759 
Q 3384 1125 3150 709 
Q 4291 244 5997 31 
L 5694 -428 
Q 4109 -166 2906 384 
Q 2294 -266 744 -488 
L 494 -66 
Q 1903 59 2491 588 
Q 2041 813 1594 1166 
L 1928 1434 
Q 2331 1106 2747 897 
Q 2922 1219 2950 1759 
L 1556 1759 
L 1556 1413 
L 1097 1413 
L 1097 3994 
L 2956 3994 
z
M 2956 3609 
L 1556 3609 
L 1556 3078 
L 2956 3078 
L 2956 3609 
z
M 3413 3609 
L 3413 3078 
L 4838 3078 
L 4838 3609 
L 3413 3609 
z
M 2956 2700 
L 1556 2700 
L 1556 2144 
L 2956 2144 
L 2956 2700 
z
M 3413 2700 
L 3413 2144 
L 4838 2144 
L 4838 2700 
L 3413 2700 
z
" transform="scale(0.015625)"/>
     <path id="IPAexGothic-65b0" d="M 3891 2803 
Q 3881 1759 3794 1166 
Q 3653 197 3097 -563 
L 2741 -250 
Q 3450 700 3450 2631 
L 3450 4647 
Q 3516 4656 3622 4666 
Q 4656 4778 5447 5063 
L 5825 4678 
Q 4897 4419 3891 4294 
L 3891 3219 
L 6119 3219 
L 6119 2803 
L 5275 2803 
L 5275 -447 
L 4834 -447 
L 4834 2803 
L 3891 2803 
z
M 2822 4069 
Q 2678 3572 2519 3181 
L 3250 3181 
L 3250 2784 
L 2059 2784 
L 2059 2216 
L 3184 2216 
L 3184 1831 
L 2059 1831 
L 2059 1544 
Q 2613 1197 3031 847 
L 2781 456 
Q 2472 791 2059 1128 
L 2059 -447 
L 1644 -447 
L 1644 1294 
Q 1272 628 575 -31 
L 269 341 
Q 1041 938 1528 1831 
L 453 1831 
L 453 2216 
L 1644 2216 
L 1644 2784 
L 319 2784 
L 319 3181 
L 1125 3181 
Q 1013 3706 881 4069 
L 453 4069 
L 453 4453 
L 1631 4453 
L 1631 5309 
L 2072 5309 
L 2072 4453 
L 3166 4453 
L 3166 4069 
L 2822 4069 
z
M 2391 4069 
L 1325 4069 
Q 1450 3672 1534 3181 
L 2109 3181 
Q 2294 3659 2391 4069 
z
" transform="scale(0.015625)"/>
     <path id="IPAexGothic-65e5" d="M 5231 4800 
L 5231 -288 
L 4744 -288 
L 4744 128 
L 1647 128 
L 1647 -288 
L 1159 -288 
L 1159 4800 
L 5231 4800 
z
M 1647 4372 
L 1647 2731 
L 4744 2731 
L 4744 4372 
L 1647 4372 
z
M 1647 2297 
L 1647 556 
L 4744 556 
L 4744 2297 
L 1647 2297 
z
" transform="scale(0.015625)"/>
     <path id="IPAexGothic-6642" d="M 2328 4728 
L 2328 563 
L 934 563 
L 934 56 
L 519 56 
L 519 4728 
L 2328 4728 
z
M 934 4331 
L 934 2881 
L 1906 2881 
L 1906 4331 
L 934 4331 
z
M 934 2497 
L 934 953 
L 1906 953 
L 1906 2497 
L 934 2497 
z
M 3938 4372 
L 3938 5313 
L 4378 5313 
L 4378 4372 
L 5772 4372 
L 5772 3981 
L 4378 3981 
L 4378 3194 
L 6072 3194 
L 6072 2803 
L 5203 2803 
L 5203 2047 
L 5959 2047 
L 5959 1650 
L 5216 1650 
L 5216 31 
Q 5216 -447 4691 -447 
Q 4394 -447 3888 -391 
L 3784 78 
Q 4272 0 4591 0 
Q 4775 0 4775 172 
L 4775 1650 
L 2581 1650 
L 2581 2047 
L 4763 2047 
L 4763 2803 
L 2538 2803 
L 2538 3194 
L 3938 3194 
L 3938 3981 
L 2716 3981 
L 2716 4372 
L 3938 4372 
z
M 3669 384 
Q 3331 950 2956 1325 
L 3291 1575 
Q 3719 1147 4025 659 
L 3669 384 
z
" transform="scale(0.015625)"/>
     <path id="IPAexGothic-3a" d="M 1369 2559 
L 672 2559 
L 672 3250 
L 1369 3250 
L 1369 2559 
z
M 1369 63 
L 672 63 
L 672 753 
L 1369 753 
L 1369 63 
z
" transform="scale(0.015625)"/>
     <path id="IPAexGothic-20" transform="scale(0.015625)"/>
     <path id="IPAexGothic-2f" d="M 2719 4709 
L 600 -884 
L 300 -763 
L 2413 4831 
L 2719 4709 
z
" transform="scale(0.015625)"/>
     <path id="IPAexGothic-28" d="M 1928 -1016 
L 1653 -1166 
Q 488 69 488 1875 
Q 488 3678 1653 4909 
L 1928 4763 
Q 1006 3522 1006 1881 
Q 1006 203 1928 -1016 
z
" transform="scale(0.015625)"/>
     <path id="IPAexGothic-54" d="M 3866 4141 
L 2175 4141 
L 2175 63 
L 1606 63 
L 1606 4141 
L -31 4141 
L -31 4634 
L 3866 4634 
L 3866 4141 
z
" transform="scale(0.015625)"/>
     <path id="IPAexGothic-29" d="M 466 4909 
Q 1638 3672 1638 1875 
Q 1638 75 466 -1166 
L 191 -1016 
Q 1119 216 1119 1881 
Q 1119 3509 191 4763 
L 466 4909 
z
" transform="scale(0.015625)"/>
    </defs>
    <use xlink:href="#IPAexGothic-66f4"/>
    <use xlink:href="#IPAexGothic-65b0" x="100"/>
    <use xlink:href="#IPAexGothic-65e5" x="200"/>
    <use xlink:href="#IPAexGothic-6642" x="300"/>
    <use xlink:href="#IPAexGothic-3a" x="400"/>
    <use xlink:href="#IPAexGothic-20" x="431.982422"/>
    <use xlink:href="#IPAexGothic-32" x="458.984375"/>
    <use xlink:href="#IPAexGothic-30" x="521.972656"/>
    <use xlink:href="#IPAexGothic-32" x="584.960938"/>
    <use xlink:href="#IPAexGothic-33" x="647.949219"/>
    <use xlink:href="#IPAexGothic-2f" x="710.9375"/>
    <use xlink:href="#IPAexGothic-30" x="760.9375"/>
    <use xlink:href="#IPAexGothic-35" x="823.925781"/>
    <use xlink:href="#IPAexGothic-2f" x="886.914062"/>
    <use xlink:href="#IPAexGothic-30" x="936.914062"/>
    <use xlink:href="#IPAexGothic-35" x="999.902344"/>
    <use xlink:href="#IPAexGothic-20" x="1062.890625"/>
    <use xlink:href="#IPAexGothic-31" x="1089.892578"/>
    <use xlink:href="#IPAexGothic-36" x="1152.880859"/>
    <use xlink:href="#IPAexGothic-3a" x="1215.869141"/>
    <use xlink:href="#IPAexGothic-31" x="1247.851562"/>
    <use xlink:href="#IPAexGothic-33" x="1310.839844"/>
    <use xlink:href="#IPAexGothic-3a" x="1373.828125"/>
    <use xlink:href="#IPAexGothic-30" x="1405.810547"/>
    <use xlink:href="#IPAexGothic-35" x="1468.798828"/>
    <use xlink:href="#IPAexGothic-28" x="1531.787109"/>
    <use xlink:href="#IPAexGothic-4a" x="1565.087891"/>
    <use xlink:href="#IPAexGothic-53" x="1603.076172"/>
    <use xlink:href="#IPAexGothic-54" x="1661.572266"/>
    <use xlink:href="#IPAexGothic-29" x="1721.484375"/>
   </g>
  </g>
 </g>
 <defs>
  <clipPath id="p61a2a57211">
   <rect x="29.439063" y="18.879437" width="357.12" height="266.112"/>
  </clipPath>
 </defs>
</svg>
