<?xml version="1.0" encoding="utf-8" standalone="no"?>
<!DOCTYPE svg PUBLIC "-//W3C//DTD SVG 1.1//EN"
  "http://www.w3.org/Graphics/SVG/1.1/DTD/svg11.dtd">
<svg xmlns:xlink="http://www.w3.org/1999/xlink" width="408.9325pt" height="320.972687pt" viewBox="0 0 408.9325 320.972687" xmlns="http://www.w3.org/2000/svg" version="1.1">
 <metadata>
  <rdf:RDF xmlns:dc="http://purl.org/dc/elements/1.1/" xmlns:cc="http://creativecommons.org/ns#" xmlns:rdf="http://www.w3.org/1999/02/22-rdf-syntax-ns#">
   <cc:Work>
    <dc:type rdf:resource="http://purl.org/dc/dcmitype/StillImage"/>
    <dc:date>2022-08-31T04:24:16.179934</dc:date>
    <dc:format>image/svg+xml</dc:format>
    <dc:creator>
     <cc:Agent>
      <dc:title>Matplotlib v3.5.3, https://matplotlib.org/</dc:title>
     </cc:Agent>
    </dc:creator>
   </cc:Work>
  </rdf:RDF>
 </metadata>
 <defs>
  <style type="text/css">*{stroke-linejoin: round; stroke-linecap: butt}</style>
 </defs>
 <g id="figure_1">
  <g id="patch_1">
   <path d="M 0 320.972687 
L 408.9325 320.972687 
L 408.9325 0 
L 0 0 
z
" style="fill: #ffffff"/>
  </g>
  <g id="axes_1">
   <g id="patch_2">
    <path d="M 35.7375 284.991437 
L 392.8575 284.991437 
L 392.8575 18.879437 
L 35.7375 18.879437 
z
" style="fill: #ffffff"/>
   </g>
   <g id="line2d_1">
    <path d="M 35.7375 203.485507 
L 392.8575 203.485507 
" clip-path="url(#p9e6b8bd8a0)" style="fill: none; stroke: #000000; stroke-linecap: square"/>
   </g>
   <g id="matplotlib.axis_1">
    <g id="xtick_1">
     <g id="line2d_2">
      <defs>
       <path id="m982d5eea0e" d="M 0 0 
L 0 3.5 
" style="stroke: #000000; stroke-width: 0.8"/>
      </defs>
      <g>
       <use xlink:href="#m982d5eea0e" x="35.7375" y="284.991437" style="stroke: #000000; stroke-width: 0.8"/>
      </g>
     </g>
     <g id="text_1">
      <!-- Feb -->
      <g transform="translate(26.914062 299.482062)scale(0.1 -0.1)">
       <defs>
        <path id="IPAexGothic-46" d="M 3469 4141 
L 1172 4141 
L 1172 2656 
L 3206 2656 
L 3206 2188 
L 1172 2188 
L 1172 63 
L 609 63 
L 609 4634 
L 3469 4634 
L 3469 4141 
z
" transform="scale(0.015625)"/>
        <path id="IPAexGothic-65" d="M 863 1594 
Q 891 1041 1209 722 
Q 1534 397 1997 397 
Q 2606 397 2963 966 
L 3322 728 
Q 2869 -31 1931 -31 
Q 1222 -31 766 422 
Q 306 884 306 1641 
Q 306 2444 788 2925 
Q 1216 3353 1856 3353 
Q 2459 3353 2866 2956 
Q 3322 2494 3322 1722 
L 3322 1594 
L 863 1594 
z
M 2756 1997 
Q 2709 2431 2450 2681 
Q 2194 2938 1844 2938 
Q 1438 2938 1150 2591 
Q 953 2356 894 1997 
L 2756 1997 
z
" transform="scale(0.015625)"/>
        <path id="IPAexGothic-62" d="M 1125 2731 
Q 1550 3341 2219 3341 
Q 2788 3341 3191 2938 
Q 3659 2469 3659 1644 
Q 3659 838 3191 372 
Q 2788 -31 2206 -31 
Q 1559 -31 1088 516 
L 1009 44 
L 581 44 
L 581 4794 
L 1125 4794 
L 1125 2731 
z
M 1125 1997 
L 1125 1253 
Q 1125 888 1528 600 
Q 1803 403 2119 403 
Q 2488 403 2744 659 
Q 3084 1009 3084 1631 
Q 3084 2194 2803 2553 
Q 2525 2900 2125 2900 
Q 1759 2900 1438 2578 
Q 1125 2266 1125 1997 
z
" transform="scale(0.015625)"/>
       </defs>
       <use xlink:href="#IPAexGothic-46"/>
       <use xlink:href="#IPAexGothic-65" x="57.177734"/>
       <use xlink:href="#IPAexGothic-62" x="114.0625"/>
      </g>
     </g>
    </g>
    <g id="xtick_2">
     <g id="line2d_3">
      <g>
       <use xlink:href="#m982d5eea0e" x="82.904292" y="284.991437" style="stroke: #000000; stroke-width: 0.8"/>
      </g>
     </g>
     <g id="text_2">
      <!-- Mar -->
      <g transform="translate(73.794917 299.482062)scale(0.1 -0.1)">
       <defs>
        <path id="IPAexGothic-4d" d="M 5147 63 
L 4597 63 
L 4597 2534 
Q 4597 3281 4634 4134 
L 4609 4134 
Q 4356 3409 4066 2675 
L 3066 209 
L 2650 209 
L 1641 2725 
Q 1328 3506 1128 4141 
L 1103 4141 
Q 1141 3131 1141 2553 
L 1141 63 
L 609 63 
L 609 4634 
L 1416 4634 
L 2503 1944 
Q 2697 1472 2869 906 
L 2888 906 
Q 3028 1416 3234 1931 
L 4316 4634 
L 5147 4634 
L 5147 63 
z
" transform="scale(0.015625)"/>
        <path id="IPAexGothic-61" d="M 3156 63 
L 2672 63 
Q 2559 303 2531 556 
L 2509 556 
Q 2147 -25 1428 -25 
Q 934 -25 622 288 
Q 347 563 347 959 
Q 347 1947 2050 1997 
L 2478 2009 
L 2478 2175 
Q 2478 2509 2288 2700 
Q 2088 2900 1775 2900 
Q 1238 2900 969 2378 
L 494 2597 
Q 938 3328 1788 3328 
Q 2375 3328 2691 3000 
Q 2984 2706 2984 2169 
L 2984 997 
Q 2984 400 3156 63 
z
M 2491 1625 
L 2141 1619 
Q 903 1591 903 953 
Q 903 728 1050 581 
Q 1231 403 1525 403 
Q 1934 403 2234 703 
Q 2491 969 2491 1344 
L 2491 1625 
z
" transform="scale(0.015625)"/>
        <path id="IPAexGothic-72" d="M 2309 3316 
L 2213 2769 
Q 2106 2791 2022 2791 
Q 1653 2791 1413 2444 
Q 1113 2006 1113 1675 
L 1113 63 
L 563 63 
L 563 3250 
L 1081 3250 
L 1056 2303 
L 1069 2303 
Q 1422 3341 2097 3341 
Q 2206 3341 2309 3316 
z
" transform="scale(0.015625)"/>
       </defs>
       <use xlink:href="#IPAexGothic-4d"/>
       <use xlink:href="#IPAexGothic-61" x="90.185547"/>
       <use xlink:href="#IPAexGothic-72" x="145.166016"/>
      </g>
     </g>
    </g>
    <g id="xtick_3">
     <g id="line2d_4">
      <g>
       <use xlink:href="#m982d5eea0e" x="135.12467" y="284.991437" style="stroke: #000000; stroke-width: 0.8"/>
      </g>
     </g>
     <g id="text_3">
      <!-- Apr -->
      <g transform="translate(126.982482 299.482062)scale(0.1 -0.1)">
       <defs>
        <path id="IPAexGothic-41" d="M 4056 63 
L 3444 63 
L 2938 1409 
L 1100 1409 
L 603 63 
L -6 63 
L 1806 4666 
L 2259 4666 
L 4056 63 
z
M 2778 1863 
L 2316 3078 
Q 2125 3588 2028 4000 
L 2009 4000 
Q 1897 3563 1716 3078 
L 1263 1863 
L 2778 1863 
z
" transform="scale(0.015625)"/>
        <path id="IPAexGothic-70" d="M 1075 2688 
Q 1525 3341 2206 3341 
Q 2769 3341 3172 2938 
Q 3641 2469 3641 1644 
Q 3641 841 3178 372 
Q 2775 -31 2200 -31 
Q 1569 -31 1106 497 
L 1106 -1216 
L 563 -1216 
L 563 3250 
L 1075 3250 
L 1075 2688 
z
M 1106 1950 
L 1106 1291 
Q 1106 897 1516 600 
Q 1791 403 2106 403 
Q 2469 403 2725 659 
Q 3066 997 3066 1631 
Q 3066 2200 2784 2559 
Q 2503 2900 2100 2900 
Q 1656 2900 1338 2484 
Q 1106 2184 1106 1950 
z
" transform="scale(0.015625)"/>
       </defs>
       <use xlink:href="#IPAexGothic-41"/>
       <use xlink:href="#IPAexGothic-70" x="63.720703"/>
       <use xlink:href="#IPAexGothic-72" x="125.830078"/>
      </g>
     </g>
    </g>
    <g id="xtick_4">
     <g id="line2d_5">
      <g>
       <use xlink:href="#m982d5eea0e" x="185.660519" y="284.991437" style="stroke: #000000; stroke-width: 0.8"/>
      </g>
     </g>
     <g id="text_4">
      <!-- May -->
      <g transform="translate(175.940988 299.482062)scale(0.1 -0.1)">
       <defs>
        <path id="IPAexGothic-79" d="M 3122 3250 
L 1575 -488 
Q 1278 -1203 550 -1203 
L 478 -1203 
L 344 -703 
L 447 -703 
Q 969 -703 1150 -238 
L 1356 275 
L 38 3250 
L 659 3250 
L 1363 1459 
Q 1528 1025 1606 781 
L 1625 781 
Q 1750 1169 1863 1459 
L 2528 3250 
L 3122 3250 
z
" transform="scale(0.015625)"/>
       </defs>
       <use xlink:href="#IPAexGothic-4d"/>
       <use xlink:href="#IPAexGothic-61" x="90.185547"/>
       <use xlink:href="#IPAexGothic-79" x="145.166016"/>
      </g>
     </g>
    </g>
    <g id="xtick_5">
     <g id="line2d_6">
      <g>
       <use xlink:href="#m982d5eea0e" x="237.880896" y="284.991437" style="stroke: #000000; stroke-width: 0.8"/>
      </g>
     </g>
     <g id="text_5">
      <!-- Jun -->
      <g transform="translate(229.941052 299.482062)scale(0.1 -0.1)">
       <defs>
        <path id="IPAexGothic-4a" d="M 1819 4634 
L 1819 1234 
Q 1819 -31 763 -31 
Q 303 -31 -125 209 
L 84 644 
Q 378 447 694 447 
Q 1250 447 1250 1203 
L 1250 4634 
L 1819 4634 
z
" transform="scale(0.015625)"/>
        <path id="IPAexGothic-75" d="M 3284 63 
L 2772 63 
L 2772 644 
Q 2300 0 1625 0 
Q 1072 0 763 375 
Q 519 678 519 1241 
L 519 3250 
L 1069 3250 
L 1069 1259 
Q 1069 466 1734 466 
Q 2406 466 2734 1291 
L 2734 3250 
L 3284 3250 
L 3284 63 
z
" transform="scale(0.015625)"/>
        <path id="IPAexGothic-6e" d="M 3328 63 
L 2778 63 
L 2778 2041 
Q 2778 2853 2106 2853 
Q 1428 2853 1113 2041 
L 1113 63 
L 563 63 
L 563 3250 
L 1075 3250 
L 1075 2675 
Q 1525 3316 2222 3316 
Q 3328 3316 3328 2072 
L 3328 63 
z
" transform="scale(0.015625)"/>
       </defs>
       <use xlink:href="#IPAexGothic-4a"/>
       <use xlink:href="#IPAexGothic-75" x="37.988281"/>
       <use xlink:href="#IPAexGothic-6e" x="98.388672"/>
      </g>
     </g>
    </g>
    <g id="xtick_6">
     <g id="line2d_7">
      <g>
       <use xlink:href="#m982d5eea0e" x="288.416745" y="284.991437" style="stroke: #000000; stroke-width: 0.8"/>
      </g>
     </g>
     <g id="text_6">
      <!-- Jul -->
      <g transform="translate(282.147214 299.482062)scale(0.1 -0.1)">
       <defs>
        <path id="IPAexGothic-6c" d="M 1131 63 
L 581 63 
L 581 4794 
L 1131 4794 
L 1131 63 
z
" transform="scale(0.015625)"/>
       </defs>
       <use xlink:href="#IPAexGothic-4a"/>
       <use xlink:href="#IPAexGothic-75" x="37.988281"/>
       <use xlink:href="#IPAexGothic-6c" x="98.388672"/>
      </g>
     </g>
    </g>
    <g id="xtick_7">
     <g id="line2d_8">
      <g>
       <use xlink:href="#m982d5eea0e" x="340.637123" y="284.991437" style="stroke: #000000; stroke-width: 0.8"/>
      </g>
     </g>
     <g id="text_7">
      <!-- Aug -->
      <g transform="translate(331.655091 299.42425)scale(0.1 -0.1)">
       <defs>
        <path id="IPAexGothic-67" d="M 1331 1150 
Q 1006 1122 1006 900 
Q 1006 613 1763 575 
L 2131 556 
Q 3303 497 3303 -294 
Q 3303 -700 2925 -959 
Q 2519 -1253 1794 -1253 
Q 1138 -1253 738 -1028 
Q 353 -809 353 -428 
Q 353 84 1075 247 
L 1075 269 
Q 506 413 506 778 
Q 506 1116 994 1297 
Q 456 1575 456 2181 
Q 456 2650 769 2963 
Q 1128 3322 1738 3322 
Q 2125 3322 2422 3153 
Q 2650 3453 3259 3463 
L 3259 3013 
Q 2838 3003 2703 2938 
Q 3034 2613 3034 2169 
Q 3034 1728 2734 1425 
Q 2400 1094 1813 1094 
Q 1563 1094 1331 1150 
z
M 1734 2919 
Q 1409 2919 1197 2706 
Q 988 2497 988 2181 
Q 988 1872 1184 1684 
Q 1397 1472 1756 1472 
Q 2094 1472 2297 1678 
Q 2503 1881 2503 2203 
Q 2503 2497 2297 2700 
Q 2081 2919 1734 2919 
z
M 1753 159 
Q 903 159 903 -366 
Q 903 -875 1800 -875 
Q 2378 -875 2638 -606 
Q 2772 -481 2772 -313 
Q 2772 159 1753 159 
z
" transform="scale(0.015625)"/>
       </defs>
       <use xlink:href="#IPAexGothic-41"/>
       <use xlink:href="#IPAexGothic-75" x="63.720703"/>
       <use xlink:href="#IPAexGothic-67" x="124.121094"/>
      </g>
     </g>
    </g>
    <g id="xtick_8">
     <g id="line2d_9">
      <g>
       <use xlink:href="#m982d5eea0e" x="392.8575" y="284.991437" style="stroke: #000000; stroke-width: 0.8"/>
      </g>
     </g>
     <g id="text_8">
      <!-- Sep -->
      <g transform="translate(383.9825 299.482062)scale(0.1 -0.1)">
       <defs>
        <path id="IPAexGothic-53" d="M 2919 3641 
Q 2563 4259 1853 4259 
Q 1453 4259 1213 4009 
Q 1028 3803 1028 3534 
Q 1028 3238 1266 3047 
Q 1444 2913 1984 2688 
L 2200 2597 
Q 2925 2306 3191 1953 
Q 3422 1644 3422 1259 
Q 3422 644 2969 288 
Q 2559 -31 1931 -31 
Q 881 -31 313 766 
L 753 1100 
Q 1203 459 1938 459 
Q 2288 459 2534 625 
Q 2841 847 2841 1216 
Q 2841 1503 2616 1728 
Q 2375 1959 1728 2206 
L 1541 2278 
Q 453 2694 453 3481 
Q 453 4006 806 4347 
Q 1203 4725 1863 4725 
Q 2841 4725 3359 3956 
L 2919 3641 
z
" transform="scale(0.015625)"/>
       </defs>
       <use xlink:href="#IPAexGothic-53"/>
       <use xlink:href="#IPAexGothic-65" x="58.496094"/>
       <use xlink:href="#IPAexGothic-70" x="115.380859"/>
      </g>
     </g>
    </g>
    <g id="text_9">
     <!-- 2022 -->
     <g transform="translate(367.66375 311.872687)scale(0.1 -0.1)">
      <defs>
       <path id="IPAexGothic-32" d="M 3659 63 
L 447 63 
L 447 594 
Q 825 1475 1894 2203 
L 2072 2322 
Q 2619 2697 2791 2906 
Q 2988 3153 2988 3444 
Q 2988 3772 2756 4003 
Q 2500 4259 2084 4259 
Q 1250 4259 991 3328 
L 497 3506 
Q 853 4725 2116 4725 
Q 2806 4725 3216 4316 
Q 3575 3947 3575 3425 
Q 3575 3038 3344 2722 
Q 3131 2416 2366 1938 
L 2231 1856 
Q 1256 1253 978 569 
L 3659 569 
L 3659 63 
z
" transform="scale(0.015625)"/>
       <path id="IPAexGothic-30" d="M 2038 4725 
Q 2881 4725 3334 3944 
Q 3694 3325 3694 2344 
Q 3694 1372 3334 741 
Q 2888 -31 2016 -31 
Q 1147 -31 700 741 
Q 341 1372 341 2350 
Q 341 3713 1000 4334 
Q 1419 4725 2038 4725 
z
M 2016 4266 
Q 1516 4266 1228 3759 
Q 934 3247 934 2344 
Q 934 1456 1222 947 
Q 1513 447 2016 447 
Q 2619 447 2909 1153 
Q 3100 1622 3100 2375 
Q 3100 3256 2806 3759 
Q 2509 4266 2016 4266 
z
" transform="scale(0.015625)"/>
      </defs>
      <use xlink:href="#IPAexGothic-32"/>
      <use xlink:href="#IPAexGothic-30" x="62.988281"/>
      <use xlink:href="#IPAexGothic-32" x="125.976562"/>
      <use xlink:href="#IPAexGothic-32" x="188.964844"/>
     </g>
    </g>
   </g>
   <g id="matplotlib.axis_2">
    <g id="ytick_1">
     <g id="line2d_10">
      <defs>
       <path id="m3dc5555930" d="M 0 0 
L -3.5 0 
" style="stroke: #000000; stroke-width: 0.8"/>
      </defs>
      <g>
       <use xlink:href="#m3dc5555930" x="35.7375" y="264.522941" style="stroke: #000000; stroke-width: 0.8"/>
      </g>
     </g>
     <g id="text_10">
      <!-- 0.50 -->
      <g transform="translate(7.2 268.268254)scale(0.1 -0.1)">
       <defs>
        <path id="IPAexGothic-2e" d="M 1184 63 
L 494 63 
L 494 753 
L 1184 753 
L 1184 63 
z
" transform="scale(0.015625)"/>
        <path id="IPAexGothic-35" d="M 1178 2603 
Q 1634 2963 2172 2963 
Q 2816 2963 3241 2528 
Q 3638 2113 3638 1497 
Q 3638 938 3297 513 
Q 2869 -31 2031 -31 
Q 959 -31 469 784 
L 938 1028 
Q 1309 434 2013 434 
Q 2466 434 2769 716 
Q 3081 1013 3081 1503 
Q 3081 1966 2806 2241 
Q 2519 2528 2056 2528 
Q 1406 2528 1072 2028 
L 591 2091 
L 884 4634 
L 3406 4634 
L 3406 4153 
L 1341 4153 
L 1134 2603 
L 1178 2603 
z
" transform="scale(0.015625)"/>
       </defs>
       <use xlink:href="#IPAexGothic-30"/>
       <use xlink:href="#IPAexGothic-2e" x="62.988281"/>
       <use xlink:href="#IPAexGothic-35" x="89.404297"/>
       <use xlink:href="#IPAexGothic-30" x="152.392578"/>
      </g>
     </g>
    </g>
    <g id="ytick_2">
     <g id="line2d_11">
      <g>
       <use xlink:href="#m3dc5555930" x="35.7375" y="234.004224" style="stroke: #000000; stroke-width: 0.8"/>
      </g>
     </g>
     <g id="text_11">
      <!-- 0.75 -->
      <g transform="translate(7.2 237.749537)scale(0.1 -0.1)">
       <defs>
        <path id="IPAexGothic-37" d="M 3597 4263 
Q 2238 2106 1778 63 
L 1131 63 
Q 1581 1834 2950 4128 
L 428 4128 
L 428 4634 
L 3597 4634 
L 3597 4263 
z
" transform="scale(0.015625)"/>
       </defs>
       <use xlink:href="#IPAexGothic-30"/>
       <use xlink:href="#IPAexGothic-2e" x="62.988281"/>
       <use xlink:href="#IPAexGothic-37" x="89.404297"/>
       <use xlink:href="#IPAexGothic-35" x="152.392578"/>
      </g>
     </g>
    </g>
    <g id="ytick_3">
     <g id="line2d_12">
      <g>
       <use xlink:href="#m3dc5555930" x="35.7375" y="203.485507" style="stroke: #000000; stroke-width: 0.8"/>
      </g>
     </g>
     <g id="text_12">
      <!-- 1.00 -->
      <g transform="translate(7.2 207.230819)scale(0.1 -0.1)">
       <defs>
        <path id="IPAexGothic-31" d="M 2463 63 
L 1900 63 
L 1900 4103 
Q 1372 3922 788 3797 
L 684 4231 
Q 1519 4441 2106 4731 
L 2463 4731 
L 2463 63 
z
" transform="scale(0.015625)"/>
       </defs>
       <use xlink:href="#IPAexGothic-31"/>
       <use xlink:href="#IPAexGothic-2e" x="62.988281"/>
       <use xlink:href="#IPAexGothic-30" x="89.404297"/>
       <use xlink:href="#IPAexGothic-30" x="152.392578"/>
      </g>
     </g>
    </g>
    <g id="ytick_4">
     <g id="line2d_13">
      <g>
       <use xlink:href="#m3dc5555930" x="35.7375" y="172.96679" style="stroke: #000000; stroke-width: 0.8"/>
      </g>
     </g>
     <g id="text_13">
      <!-- 1.25 -->
      <g transform="translate(7.2 176.712102)scale(0.1 -0.1)">
       <use xlink:href="#IPAexGothic-31"/>
       <use xlink:href="#IPAexGothic-2e" x="62.988281"/>
       <use xlink:href="#IPAexGothic-32" x="89.404297"/>
       <use xlink:href="#IPAexGothic-35" x="152.392578"/>
      </g>
     </g>
    </g>
    <g id="ytick_5">
     <g id="line2d_14">
      <g>
       <use xlink:href="#m3dc5555930" x="35.7375" y="142.448073" style="stroke: #000000; stroke-width: 0.8"/>
      </g>
     </g>
     <g id="text_14">
      <!-- 1.50 -->
      <g transform="translate(7.2 146.193385)scale(0.1 -0.1)">
       <use xlink:href="#IPAexGothic-31"/>
       <use xlink:href="#IPAexGothic-2e" x="62.988281"/>
       <use xlink:href="#IPAexGothic-35" x="89.404297"/>
       <use xlink:href="#IPAexGothic-30" x="152.392578"/>
      </g>
     </g>
    </g>
    <g id="ytick_6">
     <g id="line2d_15">
      <g>
       <use xlink:href="#m3dc5555930" x="35.7375" y="111.929355" style="stroke: #000000; stroke-width: 0.8"/>
      </g>
     </g>
     <g id="text_15">
      <!-- 1.75 -->
      <g transform="translate(7.2 115.674668)scale(0.1 -0.1)">
       <use xlink:href="#IPAexGothic-31"/>
       <use xlink:href="#IPAexGothic-2e" x="62.988281"/>
       <use xlink:href="#IPAexGothic-37" x="89.404297"/>
       <use xlink:href="#IPAexGothic-35" x="152.392578"/>
      </g>
     </g>
    </g>
    <g id="ytick_7">
     <g id="line2d_16">
      <g>
       <use xlink:href="#m3dc5555930" x="35.7375" y="81.410638" style="stroke: #000000; stroke-width: 0.8"/>
      </g>
     </g>
     <g id="text_16">
      <!-- 2.00 -->
      <g transform="translate(7.2 85.155951)scale(0.1 -0.1)">
       <use xlink:href="#IPAexGothic-32"/>
       <use xlink:href="#IPAexGothic-2e" x="62.988281"/>
       <use xlink:href="#IPAexGothic-30" x="89.404297"/>
       <use xlink:href="#IPAexGothic-30" x="152.392578"/>
      </g>
     </g>
    </g>
    <g id="ytick_8">
     <g id="line2d_17">
      <g>
       <use xlink:href="#m3dc5555930" x="35.7375" y="50.891921" style="stroke: #000000; stroke-width: 0.8"/>
      </g>
     </g>
     <g id="text_17">
      <!-- 2.25 -->
      <g transform="translate(7.2 54.637233)scale(0.1 -0.1)">
       <use xlink:href="#IPAexGothic-32"/>
       <use xlink:href="#IPAexGothic-2e" x="62.988281"/>
       <use xlink:href="#IPAexGothic-32" x="89.404297"/>
       <use xlink:href="#IPAexGothic-35" x="152.392578"/>
      </g>
     </g>
    </g>
    <g id="ytick_9">
     <g id="line2d_18">
      <g>
       <use xlink:href="#m3dc5555930" x="35.7375" y="20.373204" style="stroke: #000000; stroke-width: 0.8"/>
      </g>
     </g>
     <g id="text_18">
      <!-- 2.50 -->
      <g transform="translate(7.2 24.118516)scale(0.1 -0.1)">
       <use xlink:href="#IPAexGothic-32"/>
       <use xlink:href="#IPAexGothic-2e" x="62.988281"/>
       <use xlink:href="#IPAexGothic-35" x="89.404297"/>
       <use xlink:href="#IPAexGothic-30" x="152.392578"/>
      </g>
     </g>
    </g>
   </g>
   <g id="line2d_19">
    <path d="M 47.529198 246.764939 
L 49.213726 252.025255 
L 50.898255 237.526584 
L 52.582783 216.985322 
L 54.267311 244.687429 
L 55.95184 217.229148 
L 57.636368 200.778852 
L 59.320896 200.790801 
L 61.005425 206.122014 
L 62.689953 171.133519 
L 64.374481 171.22436 
L 66.059009 134.588505 
L 67.743538 74.827759 
L 69.428066 156.078477 
L 71.112594 66.40717 
L 72.797123 51.742833 
L 74.481651 178.575122 
L 76.166179 147.743961 
L 77.850708 167.414814 
L 79.535236 202.924502 
L 69.428066 203.485507 
L 71.112594 203.485507 
L 79.535236 203.485507 
L 81.219764 213.751459 
L 82.904292 235.380804 
L 84.588821 255.089026 
L 86.273349 177.951635 
L 87.957877 234.261188 
L 89.642406 242.665646 
L 91.326934 244.246253 
L 93.011462 233.186855 
L 94.695991 234.01953 
L 96.380519 228.306711 
L 98.065047 242.632728 
L 99.749575 258.241949 
L 101.434104 218.779021 
L 103.118632 196.221145 
L 104.80316 155.170123 
L 106.487689 188.587109 
L 108.172217 166.549005 
L 109.856745 225.090323 
L 111.541274 182.097554 
L 113.225802 222.578799 
L 114.91033 211.702952 
L 116.594858 244.641749 
L 118.279387 215.749503 
L 119.963915 231.390981 
L 121.648443 99.500989 
L 123.332972 173.221782 
L 125.0175 178.369357 
L 126.702028 208.496101 
L 128.386557 191.755816 
L 130.071085 195.19815 
L 131.755613 189.980398 
L 133.440142 257.478647 
L 135.12467 249.283993 
L 136.809198 164.343531 
L 138.493726 192.886679 
L 140.178255 210.058887 
L 141.862783 210.130432 
L 143.547311 202.336034 
L 145.23184 202.338195 
L 146.916368 177.570736 
L 148.600896 217.104907 
L 150.285425 221.435178 
L 151.969953 182.441573 
L 153.654481 180.580175 
L 155.339009 197.957641 
L 157.023538 130.058376 
L 158.708066 117.661469 
L 160.392594 186.786379 
L 162.077123 170.33154 
L 163.761651 199.339318 
L 165.446179 199.36729 
L 167.130708 182.83858 
L 168.815236 187.011442 
L 170.499764 220.053339 
L 172.184292 187.811992 
L 173.868821 190.713443 
L 175.553349 186.027555 
L 177.237877 164.072866 
L 178.922406 219.833001 
L 180.606934 234.615348 
L 182.291462 228.990571 
L 183.975991 254.970143 
L 185.660519 234.259697 
L 187.345047 240.185174 
L 189.029575 257.538029 
L 190.714104 243.305776 
L 192.398632 247.76608 
L 194.08316 228.008753 
L 195.767689 30.975437 
L 197.452217 139.05485 
L 199.136745 134.576213 
L 200.821274 150.865065 
L 202.505802 140.117768 
L 204.19033 157.212876 
L 205.874858 155.348274 
L 207.559387 219.597731 
L 209.243915 208.727196 
L 210.928443 224.869401 
L 212.612972 196.123822 
L 214.2975 194.548969 
L 215.982028 175.537932 
L 217.666557 222.36709 
L 219.351085 207.300044 
L 221.035613 234.687017 
L 222.720142 201.826905 
L 224.40467 213.042625 
L 226.089198 228.693374 
L 227.773726 245.878005 
L 229.458255 224.721044 
L 231.142783 232.065687 
L 232.827311 214.557267 
L 234.51184 220.551233 
L 236.196368 247.065516 
L 237.880896 228.683818 
L 239.565425 232.827425 
L 241.249953 226.698225 
L 242.934481 237.62096 
L 244.619009 232.715103 
L 246.303538 239.022386 
L 247.988066 233.460845 
L 249.672594 258.550637 
L 251.357123 233.831019 
L 253.041651 241.843884 
L 254.726179 241.042411 
L 256.410708 188.051594 
L 258.095236 210.499396 
L 259.779764 272.895437 
L 261.464292 211.843552 
L 263.148821 227.496268 
L 264.833349 203.485507 
L 266.517877 173.595768 
L 268.202406 209.18892 
L 271.571462 108.328625 
L 273.255991 97.578952 
L 274.940519 129.275398 
L 276.625047 158.523115 
L 278.309575 144.469418 
L 279.994104 192.845645 
L 281.678632 189.387053 
L 283.36316 128.957579 
L 285.047689 126.086546 
L 288.416745 131.477171 
L 290.101274 106.927082 
L 291.785802 127.338125 
L 293.47033 100.986262 
L 295.154858 72.4685 
L 296.839387 104.040335 
L 298.523915 109.019272 
L 300.208443 97.065923 
L 301.892972 104.016235 
L 303.5775 96.357928 
L 305.262028 167.550364 
L 306.946557 95.715007 
L 308.631085 142.895225 
L 310.315613 136.948484 
L 312.000142 154.611992 
L 313.68467 181.699085 
L 315.369198 172.213917 
L 317.053726 188.365733 
L 318.738255 213.374488 
L 320.422783 153.393738 
L 322.107311 163.483704 
L 323.79184 188.30806 
L 325.476368 170.060811 
L 327.160896 182.650783 
L 328.845425 184.166255 
L 330.529953 163.35185 
L 332.214481 179.538248 
L 333.899009 193.578036 
L 335.583538 186.601857 
L 337.268066 174.166788 
L 338.952594 183.445376 
L 340.637123 196.817109 
L 342.321651 190.633767 
L 344.006179 180.066955 
L 347.375236 173.342573 
L 349.059764 191.688597 
L 350.744292 182.981875 
L 352.428821 172.448728 
L 354.113349 177.822713 
L 355.797877 185.324791 
L 357.482406 196.525236 
L 359.166934 218.940824 
L 360.851462 199.877308 
L 362.535991 210.925537 
L 364.220519 196.133671 
L 365.905047 209.905716 
L 367.589575 194.537808 
L 369.274104 186.539442 
L 370.958632 142.554572 
L 372.64316 161.74388 
L 374.327689 176.492958 
L 376.012217 196.891256 
L 377.696745 178.726653 
L 379.381274 203.983907 
L 381.065802 209.524372 
L 382.75033 224.930234 
L 384.434858 242.920052 
L 386.119387 234.899823 
L 387.803915 235.258809 
L 389.488443 241.352467 
L 391.172972 245.886082 
L 391.172972 245.886082 
" clip-path="url(#p9e6b8bd8a0)" style="fill: none; stroke: #1f77b4; stroke-width: 1.5; stroke-linecap: square"/>
   </g>
   <g id="line2d_20">
    <path d="M 49.213726 249.440523 
L 50.898255 245.101843 
L 52.582783 227.793952 
L 54.267311 231.854536 
L 55.95184 231.959812 
L 57.636368 209.294578 
L 59.320896 200.784827 
L 61.005425 203.485507 
L 62.689953 189.74988 
L 64.374481 171.178946 
L 66.059009 153.880914 
L 67.743538 106.738812 
L 69.428066 119.418095 
L 71.112594 115.985145 
L 72.797123 59.175891 
L 74.481651 124.943474 
L 76.166179 163.892844 
L 77.850708 157.867571 
L 79.535236 186.296888 
L 69.428066 203.205326 
L 71.112594 203.485507 
L 79.535236 203.485507 
L 81.219764 208.731189 
L 82.904292 225.146829 
L 84.588821 245.841644 
L 86.273349 223.569263 
L 87.957877 209.471797 
L 89.642406 238.56485 
L 91.326934 243.459753 
L 93.011462 238.892782 
L 94.695991 233.604135 
L 96.380519 231.206347 
L 98.065047 235.754932 
L 99.749575 250.843853 
L 101.434104 240.776221 
L 104.80316 177.107878 
L 106.487689 172.789602 
L 108.172217 177.97885 
L 109.856745 199.164645 
L 111.541274 205.503234 
L 113.225802 204.011918 
L 114.91033 217.277334 
L 116.594858 229.575031 
L 118.279387 231.296146 
L 119.963915 223.870536 
L 121.648443 179.656724 
L 123.332972 139.986754 
L 125.0175 175.817687 
L 126.702028 194.294196 
L 128.386557 200.405536 
L 130.071085 193.488198 
L 131.755613 192.614869 
L 133.440142 229.484784 
L 135.12467 253.497709 
L 136.809198 214.668367 
L 138.493726 179.309787 
L 140.178255 201.770193 
L 141.862783 210.094665 
L 145.23184 202.337115 
L 146.916368 190.521099 
L 148.600896 198.870653 
L 150.285425 219.292097 
L 151.969953 203.485507 
L 153.654481 181.513881 
L 155.339009 189.546148 
L 157.023538 167.615481 
L 158.708066 123.955187 
L 160.392594 155.704666 
L 162.077123 178.789377 
L 163.761651 185.58485 
L 165.446179 199.353305 
L 167.130708 191.357158 
L 168.815236 184.940489 
L 170.499764 204.65592 
L 172.184292 205.005725 
L 173.868821 189.270438 
L 175.553349 188.390507 
L 177.237877 175.451056 
L 178.922406 194.894196 
L 180.606934 227.502336 
L 182.291462 231.84515 
L 183.975991 242.995947 
L 185.660519 245.280016 
L 187.345047 237.272132 
L 189.029575 249.353935 
L 190.714104 250.759634 
L 192.398632 245.567009 
L 194.08316 238.44574 
L 195.767689 156.039761 
L 197.452217 91.163877 
L 199.136745 136.828816 
L 200.821274 142.902122 
L 202.505802 145.571615 
L 204.19033 148.871951 
L 205.874858 156.283142 
L 207.559387 191.261737 
L 209.243915 214.29514 
L 210.928443 217.098185 
L 212.612972 211.397804 
L 214.2975 195.338776 
L 215.982028 185.365328 
L 217.666557 201.136468 
L 219.351085 215.090144 
L 221.035613 221.894019 
L 222.720142 219.522288 
L 224.40467 207.567953 
L 226.089198 221.160869 
L 227.773726 237.704856 
L 229.458255 235.921562 
L 231.142783 228.462786 
L 232.827311 223.686919 
L 234.51184 217.595839 
L 236.196368 234.77118 
L 237.880896 238.35767 
L 239.565425 230.778262 
L 241.249953 229.811856 
L 242.934481 232.319399 
L 244.619009 235.20132 
L 246.303538 235.924204 
L 247.988066 236.284913 
L 249.672594 247.001064 
L 251.357123 247.159099 
L 253.041651 237.928989 
L 254.726179 241.444102 
L 256.410708 217.75517 
L 258.095236 199.775261 
L 259.779764 247.716433 
L 261.464292 248.17246 
L 263.148821 219.959529 
L 264.833349 216.147566 
L 266.517877 189.358101 
L 268.202406 192.577886 
L 269.886934 186.866044 
L 271.571462 136.065648 
L 273.255991 103.018686 
L 274.940519 114.020004 
L 276.625047 144.488829 
L 278.309575 151.638159 
L 279.994104 170.53316 
L 281.678632 191.127471 
L 283.36316 161.93869 
L 285.047689 127.527265 
L 286.732217 127.427011 
L 288.416745 130.122547 
L 290.101274 119.567536 
L 291.785802 117.382607 
L 293.47033 114.573205 
L 295.154858 87.153405 
L 296.839387 88.78005 
L 298.523915 106.543952 
L 300.208443 103.122877 
L 301.892972 100.567915 
L 303.5775 100.219613 
L 305.262028 135.254618 
L 306.946557 134.987898 
L 308.631085 120.658597 
L 310.315613 139.945668 
L 312.000142 145.997301 
L 313.68467 168.739283 
L 315.369198 177.032198 
L 317.053726 180.514477 
L 318.738255 201.498686 
L 320.422783 186.583158 
L 322.107311 158.514886 
L 323.79184 176.411462 
L 325.476368 179.469051 
L 327.160896 176.48865 
L 328.845425 183.410539 
L 330.529953 174.116221 
L 332.214481 171.657699 
L 333.899009 186.735515 
L 335.583538 190.13486 
L 337.268066 180.517525 
L 338.952594 178.87943 
L 340.637123 190.296377 
L 342.321651 193.761695 
L 344.006179 185.449941 
L 345.690708 178.383901 
L 347.375236 175.021231 
L 349.059764 182.810006 
L 350.744292 187.403807 
L 352.428821 177.809135 
L 354.113349 175.159721 
L 355.797877 181.62262 
L 357.482406 191.041536 
L 359.166934 208.267287 
L 360.851462 209.80083 
L 362.535991 205.528471 
L 364.220519 203.753933 
L 365.905047 203.213322 
L 367.589575 202.461349 
L 369.274104 190.597864 
L 370.958632 166.056025 
L 372.64316 152.41486 
L 376.012217 187.06715 
L 377.696745 188.10869 
L 379.381274 191.950774 
L 381.065802 206.786441 
L 382.75033 217.501505 
L 384.434858 234.367681 
L 386.119387 239.00278 
L 387.803915 235.079494 
L 389.488443 238.35885 
L 391.172972 243.650635 
L 391.172972 243.650635 
" clip-path="url(#p9e6b8bd8a0)" style="fill: none; stroke: #ff7f0e; stroke-width: 1.5; stroke-linecap: square"/>
   </g>
   <g id="line2d_21">
    <path d="M 50.898255 245.660072 
L 52.582783 236.648844 
L 54.267311 233.784703 
L 55.95184 227.213101 
L 57.636368 222.544916 
L 59.320896 206.526416 
L 61.005425 202.589876 
L 62.689953 193.534683 
L 64.374481 183.835968 
L 66.059009 159.835956 
L 67.743538 130.778217 
L 69.428066 124.60428 
L 71.112594 103.077334 
L 72.797123 96.448787 
L 74.481651 107.070891 
L 76.166179 132.851244 
L 77.850708 165.075464 
L 79.535236 174.477424 
L 69.428066 192.279777 
L 71.112594 203.298791 
L 72.797123 203.485507 
L 79.535236 203.485507 
L 81.219764 207.008165 
L 82.904292 218.391101 
L 84.588821 236.325957 
L 86.273349 227.669035 
L 87.957877 227.26558 
L 89.642406 221.7991 
L 91.326934 240.501441 
L 93.011462 240.169107 
L 94.695991 237.297894 
L 96.380519 231.87119 
L 98.065047 235.180151 
L 99.749575 243.981116 
L 101.434104 241.399629 
L 103.118632 227.959611 
L 104.80316 192.548583 
L 106.487689 181.037384 
L 108.172217 170.737102 
L 109.856745 195.732822 
L 111.541274 193.714042 
L 113.225802 211.488519 
L 114.91033 206.631654 
L 116.594858 227.297426 
L 118.279387 225.171621 
L 119.963915 231.327768 
L 121.648443 192.843579 
L 123.332972 177.542526 
L 125.0175 153.780902 
L 126.702028 187.615615 
L 128.386557 193.453465 
L 130.071085 198.693274 
L 131.755613 192.329133 
L 133.440142 219.196872 
L 135.12467 236.598198 
L 136.809198 231.311316 
L 138.493726 207.837252 
L 140.178255 190.375655 
L 141.862783 204.622139 
L 143.547311 207.564311 
L 145.23184 204.991662 
L 146.916368 194.580199 
L 148.600896 200.037209 
L 150.285425 206.888938 
L 151.969953 208.205448 
L 153.654481 196.28363 
L 155.339009 187.218034 
L 157.023538 172.060995 
L 158.708066 152.46407 
L 160.392594 147.55334 
L 162.077123 160.727349 
L 163.761651 185.986511 
L 165.446179 190.338614 
L 167.130708 194.072445 
L 168.815236 189.923946 
L 170.499764 197.781723 
L 172.184292 199.283535 
L 173.868821 200.418401 
L 175.553349 188.197939 
L 177.237877 180.721394 
L 178.922406 192.003089 
L 182.291462 228.000946 
L 183.975991 240.291938 
L 185.660519 240.180931 
L 187.345047 243.616446 
L 189.029575 244.622379 
L 190.714104 247.388983 
L 192.398632 249.774806 
L 194.08316 240.096848 
L 199.136745 106.633104 
L 200.821274 141.628598 
L 202.505802 141.97868 
L 204.19033 149.538836 
L 205.874858 151.057652 
L 207.559387 180.755463 
L 209.243915 197.355914 
L 210.928443 217.937851 
L 212.612972 210.514454 
L 214.2975 206.037179 
L 215.982028 189.047349 
L 217.666557 198.978286 
L 219.351085 203.225884 
L 221.035613 222.05195 
L 222.720142 215.595424 
L 224.40467 217.40496 
L 226.089198 215.077569 
L 227.773726 230.152027 
L 229.458255 233.574174 
L 231.142783 234.654271 
L 232.827311 224.032801 
L 234.51184 222.652235 
L 236.196368 228.47932 
L 237.880896 232.785793 
L 239.565425 236.551906 
L 241.249953 229.437311 
L 242.934481 232.489049 
L 244.619009 232.451487 
L 246.303538 236.493396 
L 247.988066 235.110494 
L 249.672594 244.426782 
L 251.357123 242.835797 
L 253.041651 245.425956 
L 254.726179 238.979335 
L 256.410708 226.4703 
L 258.095236 215.388897 
L 259.779764 231.459566 
L 261.464292 237.233787 
L 263.148821 241.816679 
L 264.833349 214.731306 
L 266.517877 203.485507 
L 268.202406 196.317961 
L 269.886934 182.576644 
L 271.571462 164.490777 
L 273.255991 124.018835 
L 274.940519 112.139642 
L 276.625047 130.036426 
L 278.309575 144.482359 
L 279.994104 166.62896 
L 281.678632 177.09131 
L 283.36316 172.967725 
L 286.732217 127.938519 
L 288.416745 128.786369 
L 290.101274 122.677908 
L 291.785802 122.191002 
L 295.154858 101.380426 
L 296.839387 92.920777 
L 298.523915 95.728361 
L 300.208443 103.429118 
L 301.892972 103.421062 
L 303.5775 99.173249 
L 305.262028 125.364693 
L 306.946557 122.894854 
L 308.631085 137.660993 
L 310.315613 126.239168 
L 312.000142 144.969174 
L 313.68467 158.787274 
L 318.738255 192.417977 
L 320.422783 187.179908 
L 322.107311 179.274438 
L 323.79184 169.102872 
L 325.476368 174.323932 
L 327.160896 180.537422 
L 328.845425 179.093089 
L 330.529953 177.016254 
L 332.214481 175.945572 
L 333.899009 179.341741 
L 335.583538 186.690977 
L 337.268066 185.008657 
L 338.952594 181.500116 
L 340.637123 185.120434 
L 342.321651 190.408934 
L 344.006179 189.34635 
L 345.690708 182.586025 
L 347.375236 176.722288 
L 349.059764 180.795687 
L 350.744292 182.867319 
L 352.428821 182.588559 
L 354.113349 177.813661 
L 355.797877 178.627416 
L 357.482406 186.772195 
L 359.166934 201.070407 
L 362.535991 210.176953 
L 364.220519 202.475196 
L 365.905047 205.840051 
L 367.589575 200.387265 
L 369.274104 197.367719 
L 370.958632 176.178793 
L 372.64316 164.631405 
L 374.327689 160.844646 
L 376.012217 179.0939 
L 377.696745 184.340999 
L 379.381274 193.618327 
L 381.065802 198.086057 
L 382.75033 213.171466 
L 384.434858 226.742021 
L 386.119387 234.545408 
L 387.803915 237.772363 
L 389.488443 237.220759 
L 391.172972 240.943797 
L 391.172972 240.943797 
" clip-path="url(#p9e6b8bd8a0)" style="fill: none; stroke: #2ca02c; stroke-width: 1.5; stroke-linecap: square"/>
   </g>
   <g id="line2d_22">
    <path d="M 52.582783 239.293547 
L 54.267311 238.730459 
L 57.636368 221.182293 
L 59.320896 217.490668 
L 62.689953 195.384229 
L 64.374481 188.279304 
L 66.059009 172.865016 
L 67.743538 141.761611 
L 69.428066 137.437023 
L 71.112594 111.411876 
L 72.797123 91.224921 
L 74.481651 120.513227 
L 76.166179 118.037552 
L 77.850708 142.14279 
L 79.535236 175.512435 
L 69.428066 182.319106 
L 71.112594 195.174134 
L 72.797123 203.345497 
L 74.481651 203.485507 
L 79.535236 203.485507 
L 81.219764 206.137147 
L 82.904292 214.844656 
L 84.588821 229.054031 
L 86.273349 224.36112 
L 87.957877 229.360406 
L 89.642406 231.364991 
L 91.326934 227.933819 
L 93.011462 238.728971 
L 94.695991 238.67157 
L 96.380519 235.131195 
L 98.065047 234.685896 
L 99.749575 241.597259 
L 101.434104 238.301688 
L 103.118632 231.854947 
L 104.80316 213.371163 
L 106.487689 191.569087 
L 108.172217 177.544004 
L 109.856745 186.601484 
L 111.541274 192.450586 
L 113.225802 201.611975 
L 114.91033 211.542165 
L 116.594858 217.547087 
L 118.279387 224.529601 
L 119.963915 226.763947 
L 121.648443 208.285078 
L 123.332972 188.188793 
L 125.0175 177.749668 
L 126.702028 169.484944 
L 128.386557 188.662523 
L 130.071085 193.891814 
L 131.755613 196.569006 
L 133.440142 212.915302 
L 135.12467 227.680818 
L 136.809198 222.342086 
L 138.493726 222.899733 
L 140.178255 208.396635 
L 141.862783 195.610662 
L 143.547311 204.05462 
L 145.23184 206.278938 
L 146.916368 198.653895 
L 148.600896 200.615905 
L 150.285425 205.767256 
L 151.969953 201.199485 
L 153.654481 201.836598 
L 155.339009 196.704181 
L 157.023538 174.724675 
L 158.708066 159.966976 
L 160.392594 161.768305 
L 162.077123 153.543531 
L 165.446179 189.459172 
L 167.130708 188.501388 
L 168.815236 192.341668 
L 170.499764 198.179973 
L 172.184292 195.359065 
L 173.868821 197.193477 
L 175.553349 196.966186 
L 177.237877 182.527548 
L 178.922406 191.681838 
L 180.606934 204.236736 
L 182.291462 214.901393 
L 183.975991 235.582011 
L 185.660519 238.82231 
L 187.345047 240.181992 
L 189.029575 247.343495 
L 190.714104 244.295217 
L 192.398632 247.483428 
L 194.08316 244.837149 
L 195.767689 209.11071 
L 197.452217 182.66403 
L 199.136745 146.692016 
L 200.821274 118.643834 
L 202.505802 141.252048 
L 204.19033 145.911833 
L 205.874858 151.009525 
L 207.559387 171.518125 
L 210.928443 204.869346 
L 212.612972 212.855782 
L 214.2975 206.715435 
L 215.982028 199.049399 
L 217.666557 198.270626 
L 219.351085 201.112075 
L 221.035613 211.98849 
L 222.720142 217.328901 
L 224.40467 214.962706 
L 226.089198 220.344768 
L 227.773726 223.745418 
L 229.458255 228.822338 
L 231.142783 233.199349 
L 232.827311 229.999841 
L 234.51184 223.173383 
L 236.196368 229.388607 
L 237.880896 228.530485 
L 239.565425 232.796203 
L 241.249953 234.184613 
L 242.934481 231.551988 
L 244.619009 232.545614 
L 247.988066 235.74475 
L 249.672594 241.645205 
L 251.357123 241.898495 
L 253.041651 242.588926 
L 254.726179 244.351858 
L 256.410708 228.364081 
L 258.095236 222.698453 
L 259.779764 233.952613 
L 261.464292 226.898084 
L 263.148821 234.89403 
L 264.833349 233.542827 
L 266.517877 205.630915 
L 268.202406 204.937045 
L 269.886934 188.117721 
L 271.571462 166.816933 
L 273.255991 149.875228 
L 274.940519 125.346028 
L 276.625047 124.821819 
L 278.309575 133.749087 
L 279.994104 158.016299 
L 281.678632 172.652336 
L 283.36316 166.293887 
L 285.047689 162.397371 
L 288.416745 128.829186 
L 290.101274 123.53549 
L 291.785802 123.853134 
L 293.47033 117.085326 
L 295.154858 102.780145 
L 296.839387 102.048383 
L 298.523915 97.054266 
L 300.208443 96.063484 
L 301.892972 103.576043 
L 303.5775 101.675951 
L 305.262028 118.636813 
L 306.946557 118.331643 
L 310.315613 137.483118 
L 312.000142 133.745899 
L 313.68467 154.948825 
L 315.369198 162.250314 
L 317.053726 174.741755 
L 318.738255 189.815554 
L 320.422783 183.581238 
L 322.107311 181.602237 
L 323.79184 181.58711 
L 325.476368 169.342909 
L 327.160896 176.450061 
L 328.845425 181.45327 
L 330.529953 175.307118 
L 332.214481 177.650807 
L 333.899009 180.563087 
L 335.583538 181.191579 
L 337.268066 183.660574 
L 342.321651 186.519536 
L 344.006179 187.894484 
L 345.690708 186.284874 
L 347.375236 180.329164 
L 349.059764 180.613847 
L 350.744292 181.345357 
L 352.428821 180.331094 
L 354.113349 181.411708 
L 355.797877 179.728342 
L 357.482406 183.322119 
L 359.166934 195.626146 
L 360.851462 200.773198 
L 362.535991 206.905781 
L 364.220519 206.815867 
L 365.905047 204.376425 
L 367.589575 203.109346 
L 369.274104 197.060315 
L 370.958632 185.436037 
L 372.64316 172.693919 
L 374.327689 167.68247 
L 376.012217 170.707281 
L 377.696745 179.002175 
L 379.381274 189.530876 
L 381.065802 197.788401 
L 382.75033 205.403384 
L 384.434858 221.486771 
L 386.119387 228.847832 
L 387.803915 234.724285 
L 389.488443 238.681411 
L 391.172972 239.471668 
L 391.172972 239.471668 
" clip-path="url(#p9e6b8bd8a0)" style="fill: none; stroke: #d62728; stroke-width: 1.5; stroke-linecap: square"/>
   </g>
   <g id="line2d_23">
    <path d="M 54.267311 240.400362 
L 55.95184 234.802099 
L 57.636368 224.677528 
L 59.320896 217.389787 
L 61.005425 215.306986 
L 62.689953 200.079985 
L 64.374481 190.875575 
L 66.059009 178.91026 
L 67.743538 156.942801 
L 69.428066 144.718612 
L 71.112594 124.990602 
L 72.797123 100.621623 
L 74.481651 112.096124 
L 76.166179 126.274115 
L 77.850708 129.014427 
L 79.535236 156.330793 
L 69.428066 181.578017 
L 71.112594 186.827374 
L 72.797123 196.88049 
L 74.481651 203.373512 
L 76.166179 203.485507 
L 79.535236 203.485507 
L 81.219764 205.611467 
L 82.904292 212.660703 
L 84.588821 224.40943 
L 86.273349 220.493188 
L 89.642406 232.182211 
L 91.326934 234.094964 
L 93.011462 229.007797 
L 94.695991 237.806876 
L 96.380519 236.690974 
L 98.065047 236.683916 
L 99.749575 239.978788 
L 101.434104 237.461589 
L 103.118632 231.155811 
L 106.487689 208.802 
L 108.172217 186.901751 
L 109.856745 188.581017 
L 111.541274 185.712154 
L 113.225802 199.110064 
L 114.91033 203.699298 
L 116.594858 219.099734 
L 118.279387 217.18994 
L 119.963915 225.94075 
L 121.648443 208.976764 
L 123.332972 201.986342 
L 125.0175 186.278764 
L 126.702028 184.485527 
L 128.386557 174.217557 
L 130.071085 189.995349 
L 131.755613 193.118664 
L 133.440142 212.045014 
L 135.12467 221.365159 
L 136.809198 217.408095 
L 138.493726 217.027254 
L 140.178255 220.451184 
L 143.547311 196.984478 
L 145.23184 203.713259 
L 146.916368 201.021611 
L 148.600896 202.579571 
L 150.285425 205.088742 
L 151.969953 201.428065 
L 153.654481 197.324719 
L 155.339009 201.070357 
L 157.023538 185.500259 
L 158.708066 164.727896 
L 160.392594 165.716487 
L 162.077123 163.517934 
L 163.761651 163.870382 
L 165.446179 177.42458 
L 167.130708 188.160091 
L 168.815236 188.204687 
L 170.499764 198.412691 
L 172.184292 196.170768 
L 173.868821 194.442924 
L 175.553349 195.03417 
L 177.237877 190.972833 
L 178.922406 190.916666 
L 180.606934 201.645182 
L 182.291462 209.649386 
L 183.975991 224.416809 
L 185.660519 235.31909 
L 187.345047 239.096612 
L 189.029575 243.975686 
L 190.714104 246.552127 
L 192.398632 245.001562 
L 194.08316 243.927488 
L 199.136745 174.128825 
L 200.821274 147.534525 
L 202.505802 123.128885 
L 204.19033 144.560907 
L 205.874858 147.840072 
L 207.559387 167.592735 
L 209.243915 179.804818 
L 210.928443 196.562866 
L 214.2975 209.411471 
L 215.982028 201.047058 
L 217.666557 204.100494 
L 219.351085 200.130046 
L 221.035613 208.696983 
L 222.720142 210.025232 
L 224.40467 216.484912 
L 226.089198 217.856346 
L 227.773726 226.034368 
L 229.458255 223.941296 
L 231.142783 229.479886 
L 232.827311 229.739965 
L 234.51184 228.18071 
L 236.196368 228.472707 
L 237.880896 229.24806 
L 239.565425 229.405513 
L 241.249953 231.607466 
L 242.934481 234.882461 
L 244.619009 231.785771 
L 246.303538 233.878633 
L 247.988066 234.004224 
L 249.672594 240.855365 
L 251.357123 240.137526 
L 253.041651 241.887576 
L 254.726179 242.281904 
L 256.410708 235.331125 
L 258.095236 225.028131 
L 259.779764 235.588241 
L 261.464292 229.904695 
L 263.148821 227.018012 
L 264.833349 229.336656 
L 266.517877 223.831318 
L 268.202406 206.351114 
L 269.886934 197.091109 
L 271.571462 174.940637 
L 273.255991 154.898494 
L 274.940519 145.935926 
L 276.625047 132.4708 
L 278.309575 128.914886 
L 281.678632 164.821225 
L 283.36316 164.769205 
L 285.047689 158.959719 
L 286.732217 156.16435 
L 288.416745 142.785296 
L 290.101274 124.63174 
L 291.785802 124.301808 
L 293.47033 119.474072 
L 295.154858 108.840416 
L 296.839387 103.032755 
L 298.523915 103.460286 
L 300.208443 97.056597 
L 301.892972 97.676551 
L 303.5775 102.150838 
L 305.262028 116.7481 
L 306.946557 114.243049 
L 308.631085 123.495366 
L 310.315613 129.895498 
L 312.000142 141.040979 
L 313.68467 144.470615 
L 315.369198 158.550753 
L 317.053726 167.843638 
L 318.738255 183.40882 
L 320.422783 183.206788 
L 322.107311 179.771721 
L 323.79184 182.969113 
L 325.476368 179.352314 
L 327.160896 172.100109 
L 328.845425 178.026273 
L 330.529953 178.002276 
L 332.214481 176.16304 
L 333.899009 180.983052 
L 335.583538 181.791479 
L 337.268066 179.813194 
L 340.637123 187.148108 
L 342.321651 186.536004 
L 344.006179 185.25233 
L 345.690708 185.72155 
L 347.375236 183.78759 
L 349.059764 182.67566 
L 352.428821 179.60838 
L 354.113349 179.832848 
L 355.797877 182.202964 
L 357.482406 183.254136 
L 359.166934 191.289907 
L 360.851462 196.487729 
L 362.535991 202.873164 
L 364.220519 204.825587 
L 365.905047 207.440371 
L 367.589575 202.469657 
L 369.274104 199.96143 
L 370.958632 187.644062 
L 372.64316 180.988975 
L 374.327689 173.461394 
L 376.012217 174.011768 
L 377.696745 172.345451 
L 379.381274 184.378806 
L 382.75033 203.747246 
L 386.119387 224.31944 
L 389.488443 236.090399 
L 391.172972 240.172669 
L 391.172972 240.172669 
" clip-path="url(#p9e6b8bd8a0)" style="fill: none; stroke: #9467bd; stroke-width: 1.5; stroke-linecap: square"/>
   </g>
   <g id="line2d_24">
    <path d="M 55.95184 236.915144 
L 57.636368 229.856341 
L 59.320896 221.040417 
L 61.005425 215.5885 
L 62.689953 208.938391 
L 66.059009 182.804589 
L 67.743538 165.197508 
L 69.428066 156.799054 
L 71.112594 133.542478 
L 72.797123 114.309696 
L 74.481651 116.020895 
L 76.166179 118.498757 
L 77.850708 133.808053 
L 79.535236 143.873732 
L 69.428066 165.296879 
L 71.112594 185.484897 
L 72.797123 189.75378 
L 74.481651 198.005636 
L 76.166179 203.392185 
L 79.535236 203.485507 
L 81.219764 205.259729 
L 82.904292 211.180853 
L 84.588821 221.189499 
L 86.273349 217.83278 
L 87.957877 222.924212 
L 89.642406 229.336277 
L 91.326934 234.310537 
L 93.011462 233.944235 
L 94.695991 229.861746 
L 96.380519 236.290547 
L 98.065047 237.710037 
L 99.749575 240.705276 
L 101.434104 236.763125 
L 103.118632 231.639244 
L 104.80316 221.392225 
L 106.487689 215.273646 
L 108.172217 202.634097 
L 109.856745 194.150347 
L 111.541274 187.521154 
L 113.225802 192.665762 
L 114.91033 201.301674 
L 116.594858 211.737664 
L 118.279387 218.548546 
L 119.963915 219.697428 
L 121.648443 211.362548 
L 123.332972 203.661534 
L 125.0175 198.331339 
L 126.702028 190.254844 
L 128.386557 185.724112 
L 130.071085 177.935297 
L 131.755613 189.992857 
L 133.440142 207.021969 
L 135.12467 219.32303 
L 136.809198 213.502715 
L 138.493726 213.661118 
L 140.178255 215.895763 
L 141.862783 218.797484 
L 143.547311 207.70086 
L 145.23184 197.892651 
L 146.916368 199.701282 
L 148.600896 203.858939 
L 150.285425 205.944062 
L 151.969953 201.579857 
L 153.654481 198.174244 
L 155.339009 197.430424 
L 157.023538 191.344472 
L 158.708066 175.969845 
L 160.392594 168.633927 
L 162.077123 166.495082 
L 163.761651 170.126402 
L 165.446179 170.413912 
L 167.130708 178.340969 
L 168.815236 187.969313 
L 170.499764 194.11284 
L 172.184292 196.70433 
L 173.868821 195.276798 
L 175.553349 193.076463 
L 177.237877 190.320555 
L 178.922406 196.279199 
L 180.606934 199.440108 
L 182.291462 206.688981 
L 183.975991 218.844767 
L 185.660519 226.12806 
L 187.345047 236.14895 
L 189.029575 242.48537 
L 190.714104 243.864415 
L 192.398632 246.75576 
L 194.08316 242.390389 
L 195.767689 224.459235 
L 197.452217 210.396559 
L 199.136745 188.774788 
L 200.821274 170.478689 
L 202.505802 146.319326 
L 204.19033 129.254707 
L 207.559387 162.515807 
L 210.928443 188.518689 
L 212.612972 196.489795 
L 214.2975 201.772625 
L 215.982028 204.350324 
L 217.666557 204.884143 
L 219.351085 204.639701 
L 221.035613 206.689654 
L 222.720142 207.579049 
L 224.40467 210.533692 
L 226.089198 218.621602 
L 227.773726 223.131988 
L 229.458255 225.816675 
L 231.142783 225.342805 
L 232.827311 227.13996 
L 234.51184 228.266342 
L 236.196368 231.617517 
L 237.880896 228.507924 
L 239.565425 229.854074 
L 241.249953 228.959503 
L 242.934481 232.637539 
L 244.619009 234.52478 
L 246.303538 233.03259 
L 247.988066 233.809133 
L 249.672594 238.645137 
L 251.357123 239.723156 
L 253.041651 240.424315 
L 254.726179 241.747304 
L 256.410708 235.02207 
L 258.095236 231.600131 
L 259.779764 235.297726 
L 261.464292 232.00671 
L 263.148821 229.507438 
L 264.833349 223.437385 
L 266.517877 221.721767 
L 268.202406 221.525586 
L 269.886934 199.676485 
L 271.571462 185.33716 
L 273.255991 164.16733 
L 274.940519 150.872961 
L 276.625047 148.097805 
L 278.309575 134.524404 
L 279.994104 141.388556 
L 281.678632 155.180629 
L 283.36316 159.3341 
L 285.047689 158.887031 
L 286.732217 154.269009 
L 288.416745 152.279484 
L 290.101274 137.245974 
L 291.785802 125.085357 
L 293.47033 120.59118 
L 295.154858 112.294857 
L 298.523915 104.04188 
L 300.208443 102.407123 
L 301.892972 98.231537 
L 303.5775 97.457308 
L 305.262028 114.68193 
L 306.946557 113.381254 
L 308.631085 119.312948 
L 310.315613 125.802409 
L 312.000142 134.25013 
L 313.68467 148.539013 
L 315.369198 149.420695 
L 317.053726 163.935785 
L 318.738255 176.548393 
L 320.422783 178.796948 
L 322.107311 180.094732 
L 323.79184 181.23045 
L 325.476368 180.894658 
L 327.160896 179.907299 
L 328.845425 174.180371 
L 330.529953 175.676138 
L 332.214481 178.259389 
L 333.899009 179.217468 
L 335.583538 181.935054 
L 337.268066 180.547901 
L 338.952594 180.424941 
L 340.637123 185.907913 
L 342.321651 187.735242 
L 344.006179 185.478158 
L 345.690708 183.858895 
L 347.375236 183.730611 
L 349.059764 185.136087 
L 350.744292 182.726741 
L 352.428821 179.684909 
L 354.113349 179.312274 
L 355.797877 180.762885 
L 357.482406 184.695908 
L 359.166934 189.93964 
L 360.851462 192.760842 
L 362.535991 199.014513 
L 364.220519 201.774794 
L 365.905047 205.687512 
L 367.589575 205.381751 
L 369.274104 199.947414 
L 372.64316 183.630887 
L 374.327689 180.249168 
L 376.012217 177.643528 
L 377.696745 174.807967 
L 379.381274 178.139445 
L 382.75033 199.578267 
L 384.434858 211.375017 
L 386.119387 217.847466 
L 387.803915 226.230627 
L 391.172972 237.802896 
L 391.172972 237.802896 
" clip-path="url(#p9e6b8bd8a0)" style="fill: none; stroke: #8c564b; stroke-width: 1.5; stroke-linecap: square"/>
   </g>
   <g id="line2d_25">
    <path d="M 57.636368 232.477684 
L 59.320896 226.16085 
L 61.005425 219.029124 
L 62.689953 210.123474 
L 64.374481 204.175587 
L 66.059009 188.322586 
L 67.743538 170.843024 
L 69.428066 163.925463 
L 71.112594 146.134584 
L 72.797123 123.556924 
L 74.481651 124.977138 
L 76.166179 120.877739 
L 77.850708 126.319137 
L 79.535236 145.669655 
L 69.428066 153.907122 
L 72.797123 188.210452 
L 74.481651 191.8062 
L 76.166179 198.803284 
L 77.850708 203.405521 
L 79.535236 203.485507 
L 81.219764 205.007856 
L 82.904292 210.111956 
L 84.588821 218.826981 
L 86.273349 215.891344 
L 87.957877 220.349352 
L 91.326934 231.622996 
L 93.011462 234.150851 
L 94.695991 233.954995 
L 96.380519 229.64113 
L 98.065047 237.225438 
L 99.749575 240.988142 
L 101.434104 237.872896 
L 103.118632 231.861909 
L 104.80316 223.297546 
L 106.487689 217.237348 
L 108.172217 209.355604 
L 109.856745 206.126015 
L 111.541274 192.492593 
L 113.225802 193.179596 
L 114.91033 195.568836 
L 116.594858 208.68699 
L 118.279387 212.319635 
L 119.963915 220.485212 
L 121.648443 207.579301 
L 123.332972 206.563183 
L 125.0175 200.333666 
L 126.702028 199.835777 
L 128.386557 190.470295 
L 130.071085 187.118577 
L 131.755613 179.719424 
L 133.440142 202.696703 
L 135.12467 214.257504 
L 136.809198 212.800812 
L 138.493726 210.766382 
L 140.178255 213.153475 
L 141.862783 215.090119 
L 143.547311 216.587873 
L 145.23184 206.949297 
L 146.916368 195.170031 
L 148.600896 202.348862 
L 150.285425 206.54075 
L 151.969953 202.839094 
L 153.654481 198.777283 
L 155.339009 198.143324 
L 157.023538 189.458213 
L 158.708066 182.686204 
L 160.392594 177.565209 
L 162.077123 168.877575 
L 163.761651 171.664726 
L 165.446179 174.685858 
L 167.130708 172.252988 
L 168.815236 179.612062 
L 170.499764 193.090374 
L 172.184292 193.23068 
L 173.868821 195.865067 
L 175.553349 193.993998 
L 177.237877 189.276209 
L 178.922406 194.994193 
L 180.606934 202.614784 
L 182.291462 204.159583 
L 183.975991 215.217548 
L 185.660519 221.196833 
L 187.345047 228.269747 
L 189.029575 239.573937 
L 190.714104 242.60307 
L 192.398632 244.433553 
L 194.08316 244.316233 
L 195.767689 225.921218 
L 197.452217 215.216848 
L 199.136745 201.766519 
L 204.19033 147.917677 
L 205.874858 133.214037 
L 207.559387 159.35422 
L 209.243915 170.096613 
L 210.928443 183.682749 
L 212.612972 189.631901 
L 214.2975 196.214305 
L 215.982028 198.326376 
L 217.666557 207.105006 
L 219.351085 205.23227 
L 221.035613 209.4751 
L 222.720142 206.006855 
L 224.40467 208.37551 
L 226.089198 213.322819 
L 227.773726 223.023065 
L 229.458255 223.36052 
L 231.142783 226.734334 
L 232.827311 223.868682 
L 234.51184 226.22465 
L 236.196368 231.20525 
L 237.880896 231.203921 
L 239.565425 229.137101 
L 241.249953 229.409483 
L 242.934481 230.247222 
L 246.303538 235.181331 
L 247.988066 233.093891 
L 249.672594 237.836934 
L 251.357123 237.973193 
L 253.041651 240.029375 
L 254.726179 240.51289 
L 256.410708 235.604671 
L 258.095236 231.868232 
L 259.779764 239.05828 
L 261.464292 232.26953 
L 263.148821 231.375291 
L 264.833349 226.16085 
L 266.517877 217.47091 
L 268.202406 220.017598 
L 269.886934 214.411244 
L 271.571462 189.472133 
L 273.255991 175.255129 
L 274.940519 159.590986 
L 276.625047 151.986926 
L 278.309575 147.583949 
L 279.994104 144.211144 
L 281.678632 149.163796 
L 283.36316 151.660351 
L 285.047689 154.947424 
L 286.732217 154.883308 
L 288.416745 151.18473 
L 290.101274 146.427898 
L 291.785802 135.86148 
L 293.47033 121.807832 
L 295.154858 114.321997 
L 296.839387 111.134744 
L 298.523915 108.186752 
L 300.208443 103.058508 
L 301.892972 102.63771 
L 303.5775 97.96482 
L 305.262028 109.112638 
L 306.946557 112.071348 
L 308.631085 117.872939 
L 310.315613 121.929841 
L 312.000142 130.197797 
L 313.68467 141.883986 
L 315.369198 152.132757 
L 317.053726 155.597394 
L 318.738255 172.150014 
L 320.422783 173.44178 
L 322.107311 176.701282 
L 323.79184 181.297492 
L 325.476368 179.685308 
L 327.160896 181.146849 
L 328.845425 180.523487 
L 330.529953 172.678864 
L 332.214481 176.23406 
L 333.899009 180.552088 
L 335.583538 180.295933 
L 337.268066 180.850197 
L 338.952594 180.965415 
L 340.637123 182.888656 
L 342.321651 186.593036 
L 344.006179 186.665029 
L 345.690708 184.254037 
L 347.375236 182.402262 
L 349.059764 184.895794 
L 350.744292 184.830346 
L 352.428821 181.301816 
L 354.113349 179.420325 
L 355.797877 180.186736 
L 357.482406 183.127383 
L 359.166934 190.190883 
L 360.851462 191.406024 
L 362.535991 195.522206 
L 364.220519 198.606924 
L 365.905047 202.970449 
L 367.589575 204.154762 
L 369.274104 202.855062 
L 370.958632 193.009788 
L 374.327689 182.632501 
L 376.012217 182.752318 
L 377.696745 177.798748 
L 379.381274 179.369826 
L 381.065802 183.095827 
L 384.434858 206.942724 
L 386.119387 215.076915 
L 387.803915 220.526635 
L 389.488443 228.546758 
L 391.172972 234.230273 
L 391.172972 234.230273 
" clip-path="url(#p9e6b8bd8a0)" style="fill: none; stroke: #e377c2; stroke-width: 1.5; stroke-linecap: square"/>
   </g>
   <g id="patch_3">
    <path d="M 35.7375 284.991437 
L 35.7375 18.879437 
" style="fill: none; stroke: #000000; stroke-width: 0.8; stroke-linejoin: miter; stroke-linecap: square"/>
   </g>
   <g id="patch_4">
    <path d="M 392.8575 284.991437 
L 392.8575 18.879437 
" style="fill: none; stroke: #000000; stroke-width: 0.8; stroke-linejoin: miter; stroke-linecap: square"/>
   </g>
   <g id="patch_5">
    <path d="M 35.7375 284.991437 
L 392.8575 284.991437 
" style="fill: none; stroke: #000000; stroke-width: 0.8; stroke-linejoin: miter; stroke-linecap: square"/>
   </g>
   <g id="patch_6">
    <path d="M 35.7375 18.879437 
L 392.8575 18.879437 
" style="fill: none; stroke: #000000; stroke-width: 0.8; stroke-linejoin: miter; stroke-linecap: square"/>
   </g>
   <g id="legend_1">
    <g id="patch_7">
     <path d="M 347.559063 127.613812 
L 385.8575 127.613812 
Q 387.8575 127.613812 387.8575 125.613812 
L 387.8575 25.879437 
Q 387.8575 23.879437 385.8575 23.879437 
L 347.559063 23.879437 
Q 345.559063 23.879437 345.559063 25.879437 
L 345.559063 125.613812 
Q 345.559063 127.613812 347.559063 127.613812 
z
" style="fill: #ffffff; opacity: 0.8; stroke: #cccccc; stroke-linejoin: miter"/>
    </g>
    <g id="line2d_26">
     <path d="M 349.559063 31.870062 
L 359.559063 31.870062 
L 369.559063 31.870062 
" style="fill: none; stroke: #1f77b4; stroke-width: 1.5; stroke-linecap: square"/>
    </g>
    <g id="text_19">
     <!-- 1 -->
     <g transform="translate(377.559063 35.370062)scale(0.1 -0.1)">
      <use xlink:href="#IPAexGothic-31"/>
     </g>
    </g>
    <g id="line2d_27">
     <path d="M 349.559063 46.260687 
L 359.559063 46.260687 
L 369.559063 46.260687 
" style="fill: none; stroke: #ff7f0e; stroke-width: 1.5; stroke-linecap: square"/>
    </g>
    <g id="text_20">
     <!-- 2 -->
     <g transform="translate(377.559063 49.760687)scale(0.1 -0.1)">
      <use xlink:href="#IPAexGothic-32"/>
     </g>
    </g>
    <g id="line2d_28">
     <path d="M 349.559063 60.651312 
L 359.559063 60.651312 
L 369.559063 60.651312 
" style="fill: none; stroke: #2ca02c; stroke-width: 1.5; stroke-linecap: square"/>
    </g>
    <g id="text_21">
     <!-- 3 -->
     <g transform="translate(377.559063 64.151312)scale(0.1 -0.1)">
      <defs>
       <path id="IPAexGothic-33" d="M 2381 2419 
Q 3506 2216 3506 1278 
Q 3506 716 3128 356 
Q 2709 -31 1944 -31 
Q 797 -31 288 881 
L 756 1131 
Q 1109 441 1938 441 
Q 2425 441 2694 691 
Q 2950 928 2950 1291 
Q 2950 1719 2566 1978 
Q 2216 2213 1644 2213 
L 1363 2213 
L 1363 2669 
L 1656 2669 
Q 2231 2669 2534 2888 
Q 2859 3119 2859 3509 
Q 2859 3934 2494 4138 
Q 2259 4278 1931 4278 
Q 1238 4278 903 3578 
L 434 3803 
Q 897 4725 1938 4725 
Q 2597 4725 3006 4394 
Q 3416 4069 3416 3534 
Q 3416 3028 3019 2706 
Q 2763 2500 2381 2444 
L 2381 2419 
z
" transform="scale(0.015625)"/>
      </defs>
      <use xlink:href="#IPAexGothic-33"/>
     </g>
    </g>
    <g id="line2d_29">
     <path d="M 349.559063 75.041937 
L 359.559063 75.041937 
L 369.559063 75.041937 
" style="fill: none; stroke: #d62728; stroke-width: 1.5; stroke-linecap: square"/>
    </g>
    <g id="text_22">
     <!-- 4 -->
     <g transform="translate(377.559063 78.541937)scale(0.1 -0.1)">
      <defs>
       <path id="IPAexGothic-34" d="M 3813 1159 
L 3059 1159 
L 3059 63 
L 2547 63 
L 2547 1159 
L 197 1159 
L 197 1672 
L 2456 4678 
L 3059 4678 
L 3059 1634 
L 3813 1634 
L 3813 1159 
z
M 2578 4109 
L 2559 4109 
Q 2278 3656 2003 3284 
L 759 1634 
L 2547 1634 
L 2547 3144 
Q 2547 3481 2578 4109 
z
" transform="scale(0.015625)"/>
      </defs>
      <use xlink:href="#IPAexGothic-34"/>
     </g>
    </g>
    <g id="line2d_30">
     <path d="M 349.559063 89.432562 
L 359.559063 89.432562 
L 369.559063 89.432562 
" style="fill: none; stroke: #9467bd; stroke-width: 1.5; stroke-linecap: square"/>
    </g>
    <g id="text_23">
     <!-- 5 -->
     <g transform="translate(377.559063 92.932562)scale(0.1 -0.1)">
      <use xlink:href="#IPAexGothic-35"/>
     </g>
    </g>
    <g id="line2d_31">
     <path d="M 349.559063 103.823187 
L 359.559063 103.823187 
L 369.559063 103.823187 
" style="fill: none; stroke: #8c564b; stroke-width: 1.5; stroke-linecap: square"/>
    </g>
    <g id="text_24">
     <!-- 6 -->
     <g transform="translate(377.559063 107.323187)scale(0.1 -0.1)">
      <defs>
       <path id="IPAexGothic-36" d="M 1056 2328 
Q 1509 2981 2234 2981 
Q 2906 2981 3316 2513 
Q 3675 2106 3675 1522 
Q 3675 884 3272 434 
Q 2853 -31 2178 -31 
Q 1375 -31 922 581 
Q 481 1178 481 2228 
Q 481 3425 1013 4109 
Q 1494 4725 2272 4725 
Q 3191 4725 3609 4025 
L 3150 3775 
Q 2894 4266 2300 4266 
Q 1119 4266 1031 2328 
L 1056 2328 
z
M 2141 2547 
Q 1684 2547 1384 2206 
Q 1116 1900 1116 1541 
Q 1116 1156 1353 844 
Q 1672 428 2159 428 
Q 2669 428 2941 844 
Q 3125 1128 3125 1503 
Q 3125 1944 2881 2228 
Q 2600 2547 2141 2547 
z
" transform="scale(0.015625)"/>
      </defs>
      <use xlink:href="#IPAexGothic-36"/>
     </g>
    </g>
    <g id="line2d_32">
     <path d="M 349.559063 118.213812 
L 359.559063 118.213812 
L 369.559063 118.213812 
" style="fill: none; stroke: #e377c2; stroke-width: 1.5; stroke-linecap: square"/>
    </g>
    <g id="text_25">
     <!-- 7 -->
     <g transform="translate(377.559063 121.713812)scale(0.1 -0.1)">
      <use xlink:href="#IPAexGothic-37"/>
     </g>
    </g>
   </g>
  </g>
  <g id="axes_2">
   <g id="matplotlib.axis_3"/>
   <g id="patch_8">
    <path d="M 35.7375 284.991437 
L 35.7375 18.879437 
" style="fill: none; stroke: #000000; stroke-width: 0.8; stroke-linejoin: miter; stroke-linecap: square"/>
   </g>
   <g id="patch_9">
    <path d="M 392.8575 284.991437 
L 392.8575 18.879437 
" style="fill: none; stroke: #000000; stroke-width: 0.8; stroke-linejoin: miter; stroke-linecap: square"/>
   </g>
   <g id="patch_10">
    <path d="M 35.7375 284.991437 
L 392.8575 284.991437 
" style="fill: none; stroke: #000000; stroke-width: 0.8; stroke-linejoin: miter; stroke-linecap: square"/>
   </g>
   <g id="patch_11">
    <path d="M 35.7375 18.879437 
L 392.8575 18.879437 
" style="fill: none; stroke: #000000; stroke-width: 0.8; stroke-linejoin: miter; stroke-linecap: square"/>
   </g>
  </g>
  <g id="text_26">
   <!-- : 2022/08/31 13:24:13(JST) -->
   <g transform="translate(217.385625 15.423437)scale(0.1 -0.1)">
    <defs>
     <path id="IPAexGothic-66f4" d="M 2956 3994 
L 2956 4588 
L 513 4588 
L 513 4984 
L 5881 4984 
L 5881 4588 
L 3413 4588 
L 3413 3994 
L 5300 3994 
L 5300 1288 
L 4838 1288 
L 4838 1759 
L 3406 1759 
Q 3384 1125 3150 709 
Q 4291 244 5997 31 
L 5694 -428 
Q 4109 -166 2906 384 
Q 2294 -266 744 -488 
L 494 -66 
Q 1903 59 2491 588 
Q 2041 813 1594 1166 
L 1928 1434 
Q 2331 1106 2747 897 
Q 2922 1219 2950 1759 
L 1556 1759 
L 1556 1413 
L 1097 1413 
L 1097 3994 
L 2956 3994 
z
M 2956 3609 
L 1556 3609 
L 1556 3078 
L 2956 3078 
L 2956 3609 
z
M 3413 3609 
L 3413 3078 
L 4838 3078 
L 4838 3609 
L 3413 3609 
z
M 2956 2700 
L 1556 2700 
L 1556 2144 
L 2956 2144 
L 2956 2700 
z
M 3413 2700 
L 3413 2144 
L 4838 2144 
L 4838 2700 
L 3413 2700 
z
" transform="scale(0.015625)"/>
     <path id="IPAexGothic-65b0" d="M 3891 2803 
Q 3881 1759 3794 1166 
Q 3653 197 3097 -563 
L 2741 -250 
Q 3450 700 3450 2631 
L 3450 4647 
Q 3516 4656 3622 4666 
Q 4656 4778 5447 5063 
L 5825 4678 
Q 4897 4419 3891 4294 
L 3891 3219 
L 6119 3219 
L 6119 2803 
L 5275 2803 
L 5275 -447 
L 4834 -447 
L 4834 2803 
L 3891 2803 
z
M 2822 4069 
Q 2678 3572 2519 3181 
L 3250 3181 
L 3250 2784 
L 2059 2784 
L 2059 2216 
L 3184 2216 
L 3184 1831 
L 2059 1831 
L 2059 1544 
Q 2613 1197 3031 847 
L 2781 456 
Q 2472 791 2059 1128 
L 2059 -447 
L 1644 -447 
L 1644 1294 
Q 1272 628 575 -31 
L 269 341 
Q 1041 938 1528 1831 
L 453 1831 
L 453 2216 
L 1644 2216 
L 1644 2784 
L 319 2784 
L 319 3181 
L 1125 3181 
Q 1013 3706 881 4069 
L 453 4069 
L 453 4453 
L 1631 4453 
L 1631 5309 
L 2072 5309 
L 2072 4453 
L 3166 4453 
L 3166 4069 
L 2822 4069 
z
M 2391 4069 
L 1325 4069 
Q 1450 3672 1534 3181 
L 2109 3181 
Q 2294 3659 2391 4069 
z
" transform="scale(0.015625)"/>
     <path id="IPAexGothic-65e5" d="M 5231 4800 
L 5231 -288 
L 4744 -288 
L 4744 128 
L 1647 128 
L 1647 -288 
L 1159 -288 
L 1159 4800 
L 5231 4800 
z
M 1647 4372 
L 1647 2731 
L 4744 2731 
L 4744 4372 
L 1647 4372 
z
M 1647 2297 
L 1647 556 
L 4744 556 
L 4744 2297 
L 1647 2297 
z
" transform="scale(0.015625)"/>
     <path id="IPAexGothic-6642" d="M 2328 4728 
L 2328 563 
L 934 563 
L 934 56 
L 519 56 
L 519 4728 
L 2328 4728 
z
M 934 4331 
L 934 2881 
L 1906 2881 
L 1906 4331 
L 934 4331 
z
M 934 2497 
L 934 953 
L 1906 953 
L 1906 2497 
L 934 2497 
z
M 3938 4372 
L 3938 5313 
L 4378 5313 
L 4378 4372 
L 5772 4372 
L 5772 3981 
L 4378 3981 
L 4378 3194 
L 6072 3194 
L 6072 2803 
L 5203 2803 
L 5203 2047 
L 5959 2047 
L 5959 1650 
L 5216 1650 
L 5216 31 
Q 5216 -447 4691 -447 
Q 4394 -447 3888 -391 
L 3784 78 
Q 4272 0 4591 0 
Q 4775 0 4775 172 
L 4775 1650 
L 2581 1650 
L 2581 2047 
L 4763 2047 
L 4763 2803 
L 2538 2803 
L 2538 3194 
L 3938 3194 
L 3938 3981 
L 2716 3981 
L 2716 4372 
L 3938 4372 
z
M 3669 384 
Q 3331 950 2956 1325 
L 3291 1575 
Q 3719 1147 4025 659 
L 3669 384 
z
" transform="scale(0.015625)"/>
     <path id="IPAexGothic-3a" d="M 1369 2559 
L 672 2559 
L 672 3250 
L 1369 3250 
L 1369 2559 
z
M 1369 63 
L 672 63 
L 672 753 
L 1369 753 
L 1369 63 
z
" transform="scale(0.015625)"/>
     <path id="IPAexGothic-20" transform="scale(0.015625)"/>
     <path id="IPAexGothic-2f" d="M 2719 4709 
L 600 -884 
L 300 -763 
L 2413 4831 
L 2719 4709 
z
" transform="scale(0.015625)"/>
     <path id="IPAexGothic-38" d="M 2541 2425 
Q 3700 2031 3700 1197 
Q 3700 541 3100 197 
Q 2663 -56 2016 -56 
Q 1366 -56 928 197 
Q 347 531 347 1178 
Q 347 1988 1409 2381 
L 1409 2400 
Q 481 2734 481 3509 
Q 481 4100 981 4456 
Q 1406 4756 2019 4756 
Q 2703 4756 3131 4403 
Q 3553 4069 3553 3566 
Q 3553 2706 2541 2444 
L 2541 2425 
z
M 2022 2625 
Q 2997 2856 2997 3528 
Q 2997 3916 2675 4150 
Q 2413 4347 2016 4347 
Q 1606 4347 1331 4128 
Q 1050 3897 1050 3522 
Q 1050 3150 1350 2925 
Q 1494 2809 1722 2722 
Q 1984 2616 2022 2625 
z
M 1978 2209 
Q 922 1931 922 1216 
Q 922 775 1313 556 
Q 1606 391 2009 391 
Q 2575 391 2881 697 
Q 3106 922 3106 1250 
Q 3106 1594 2794 1850 
Q 2609 1994 2350 2100 
Q 2047 2222 1978 2209 
z
" transform="scale(0.015625)"/>
     <path id="IPAexGothic-28" d="M 1928 -1016 
L 1653 -1166 
Q 488 69 488 1875 
Q 488 3678 1653 4909 
L 1928 4763 
Q 1006 3522 1006 1881 
Q 1006 203 1928 -1016 
z
" transform="scale(0.015625)"/>
     <path id="IPAexGothic-54" d="M 3866 4141 
L 2175 4141 
L 2175 63 
L 1606 63 
L 1606 4141 
L -31 4141 
L -31 4634 
L 3866 4634 
L 3866 4141 
z
" transform="scale(0.015625)"/>
     <path id="IPAexGothic-29" d="M 466 4909 
Q 1638 3672 1638 1875 
Q 1638 75 466 -1166 
L 191 -1016 
Q 1119 216 1119 1881 
Q 1119 3509 191 4763 
L 466 4909 
z
" transform="scale(0.015625)"/>
    </defs>
    <use xlink:href="#IPAexGothic-66f4"/>
    <use xlink:href="#IPAexGothic-65b0" x="100"/>
    <use xlink:href="#IPAexGothic-65e5" x="200"/>
    <use xlink:href="#IPAexGothic-6642" x="300"/>
    <use xlink:href="#IPAexGothic-3a" x="400"/>
    <use xlink:href="#IPAexGothic-20" x="431.982422"/>
    <use xlink:href="#IPAexGothic-32" x="458.984375"/>
    <use xlink:href="#IPAexGothic-30" x="521.972656"/>
    <use xlink:href="#IPAexGothic-32" x="584.960938"/>
    <use xlink:href="#IPAexGothic-32" x="647.949219"/>
    <use xlink:href="#IPAexGothic-2f" x="710.9375"/>
    <use xlink:href="#IPAexGothic-30" x="760.9375"/>
    <use xlink:href="#IPAexGothic-38" x="823.925781"/>
    <use xlink:href="#IPAexGothic-2f" x="886.914062"/>
    <use xlink:href="#IPAexGothic-33" x="936.914062"/>
    <use xlink:href="#IPAexGothic-31" x="999.902344"/>
    <use xlink:href="#IPAexGothic-20" x="1062.890625"/>
    <use xlink:href="#IPAexGothic-31" x="1089.892578"/>
    <use xlink:href="#IPAexGothic-33" x="1152.880859"/>
    <use xlink:href="#IPAexGothic-3a" x="1215.869141"/>
    <use xlink:href="#IPAexGothic-32" x="1247.851562"/>
    <use xlink:href="#IPAexGothic-34" x="1310.839844"/>
    <use xlink:href="#IPAexGothic-3a" x="1373.828125"/>
    <use xlink:href="#IPAexGothic-31" x="1405.810547"/>
    <use xlink:href="#IPAexGothic-33" x="1468.798828"/>
    <use xlink:href="#IPAexGothic-28" x="1531.787109"/>
    <use xlink:href="#IPAexGothic-4a" x="1565.087891"/>
    <use xlink:href="#IPAexGothic-53" x="1603.076172"/>
    <use xlink:href="#IPAexGothic-54" x="1661.572266"/>
    <use xlink:href="#IPAexGothic-29" x="1721.484375"/>
   </g>
  </g>
 </g>
 <defs>
  <clipPath id="p9e6b8bd8a0">
   <rect x="35.7375" y="18.879437" width="357.12" height="266.112"/>
  </clipPath>
 </defs>
</svg>
