<?xml version="1.0" encoding="utf-8" standalone="no"?>
<!DOCTYPE svg PUBLIC "-//W3C//DTD SVG 1.1//EN"
  "http://www.w3.org/Graphics/SVG/1.1/DTD/svg11.dtd">
<svg xmlns:xlink="http://www.w3.org/1999/xlink" width="393.759063pt" height="308.582062pt" viewBox="0 0 393.759063 308.582062" xmlns="http://www.w3.org/2000/svg" version="1.1">
 <metadata>
  <rdf:RDF xmlns:dc="http://purl.org/dc/elements/1.1/" xmlns:cc="http://creativecommons.org/ns#" xmlns:rdf="http://www.w3.org/1999/02/22-rdf-syntax-ns#">
   <cc:Work>
    <dc:type rdf:resource="http://purl.org/dc/dcmitype/StillImage"/>
    <dc:date>2023-04-24T07:14:12.330784</dc:date>
    <dc:format>image/svg+xml</dc:format>
    <dc:creator>
     <cc:Agent>
      <dc:title>Matplotlib v3.7.1, https://matplotlib.org/</dc:title>
     </cc:Agent>
    </dc:creator>
   </cc:Work>
  </rdf:RDF>
 </metadata>
 <defs>
  <style type="text/css">*{stroke-linejoin: round; stroke-linecap: butt}</style>
 </defs>
 <g id="figure_1">
  <g id="patch_1">
   <path d="M 0 308.582062 
L 393.759063 308.582062 
L 393.759063 0 
L 0 0 
z
" style="fill: #ffffff"/>
  </g>
  <g id="axes_1">
   <g id="patch_2">
    <path d="M 29.439063 284.991437 
L 386.559062 284.991437 
L 386.559062 18.879437 
L 29.439063 18.879437 
z
" style="fill: #ffffff"/>
   </g>
   <g id="line2d_1">
    <path d="M 29.439063 211.199039 
L 386.559062 211.199039 
" clip-path="url(#pf773de83c5)" style="fill: none; stroke: #000000; stroke-linecap: square"/>
   </g>
   <g id="matplotlib.axis_1">
    <g id="xtick_1">
     <g id="line2d_2">
      <defs>
       <path id="m830a9175f6" d="M 0 0 
L 0 3.5 
" style="stroke: #000000; stroke-width: 0.8"/>
      </defs>
      <g>
       <use xlink:href="#m830a9175f6" x="29.439063" y="284.991437" style="stroke: #000000; stroke-width: 0.8"/>
      </g>
     </g>
     <g id="text_1">
      <!-- Jun -->
      <g transform="translate(21.499219 299.482062) scale(0.1 -0.1)">
       <defs>
        <path id="IPAexGothic-4a" d="M 1819 4634 
L 1819 1234 
Q 1819 -31 763 -31 
Q 303 -31 -125 209 
L 84 644 
Q 378 447 694 447 
Q 1250 447 1250 1203 
L 1250 4634 
L 1819 4634 
z
" transform="scale(0.015625)"/>
        <path id="IPAexGothic-75" d="M 3284 63 
L 2772 63 
L 2772 644 
Q 2300 0 1625 0 
Q 1072 0 763 375 
Q 519 678 519 1241 
L 519 3250 
L 1069 3250 
L 1069 1259 
Q 1069 466 1734 466 
Q 2406 466 2734 1291 
L 2734 3250 
L 3284 3250 
L 3284 63 
z
" transform="scale(0.015625)"/>
        <path id="IPAexGothic-6e" d="M 3328 63 
L 2778 63 
L 2778 2041 
Q 2778 2853 2106 2853 
Q 1428 2853 1113 2041 
L 1113 63 
L 563 63 
L 563 3250 
L 1075 3250 
L 1075 2675 
Q 1525 3316 2222 3316 
Q 3328 3316 3328 2072 
L 3328 63 
z
" transform="scale(0.015625)"/>
       </defs>
       <use xlink:href="#IPAexGothic-4a"/>
       <use xlink:href="#IPAexGothic-75" x="37.988281"/>
       <use xlink:href="#IPAexGothic-6e" x="98.388672"/>
      </g>
     </g>
    </g>
    <g id="xtick_2">
     <g id="line2d_3">
      <g>
       <use xlink:href="#m830a9175f6" x="62.102477" y="284.991437" style="stroke: #000000; stroke-width: 0.8"/>
      </g>
     </g>
     <g id="text_2">
      <!-- Jul -->
      <g transform="translate(55.832946 299.482062) scale(0.1 -0.1)">
       <defs>
        <path id="IPAexGothic-6c" d="M 1131 63 
L 581 63 
L 581 4794 
L 1131 4794 
L 1131 63 
z
" transform="scale(0.015625)"/>
       </defs>
       <use xlink:href="#IPAexGothic-4a"/>
       <use xlink:href="#IPAexGothic-75" x="37.988281"/>
       <use xlink:href="#IPAexGothic-6c" x="98.388672"/>
      </g>
     </g>
    </g>
    <g id="xtick_3">
     <g id="line2d_4">
      <g>
       <use xlink:href="#m830a9175f6" x="95.854672" y="284.991437" style="stroke: #000000; stroke-width: 0.8"/>
      </g>
     </g>
     <g id="text_3">
      <!-- Aug -->
      <g transform="translate(86.872641 299.42425) scale(0.1 -0.1)">
       <defs>
        <path id="IPAexGothic-41" d="M 4056 63 
L 3444 63 
L 2938 1409 
L 1100 1409 
L 603 63 
L -6 63 
L 1806 4666 
L 2259 4666 
L 4056 63 
z
M 2778 1863 
L 2316 3078 
Q 2125 3588 2028 4000 
L 2009 4000 
Q 1897 3563 1716 3078 
L 1263 1863 
L 2778 1863 
z
" transform="scale(0.015625)"/>
        <path id="IPAexGothic-67" d="M 1331 1150 
Q 1006 1122 1006 900 
Q 1006 613 1763 575 
L 2131 556 
Q 3303 497 3303 -294 
Q 3303 -700 2925 -959 
Q 2519 -1253 1794 -1253 
Q 1138 -1253 738 -1028 
Q 353 -809 353 -428 
Q 353 84 1075 247 
L 1075 269 
Q 506 413 506 778 
Q 506 1116 994 1297 
Q 456 1575 456 2181 
Q 456 2650 769 2963 
Q 1128 3322 1738 3322 
Q 2125 3322 2422 3153 
Q 2650 3453 3259 3463 
L 3259 3013 
Q 2838 3003 2703 2938 
Q 3034 2613 3034 2169 
Q 3034 1728 2734 1425 
Q 2400 1094 1813 1094 
Q 1563 1094 1331 1150 
z
M 1734 2919 
Q 1409 2919 1197 2706 
Q 988 2497 988 2181 
Q 988 1872 1184 1684 
Q 1397 1472 1756 1472 
Q 2094 1472 2297 1678 
Q 2503 1881 2503 2203 
Q 2503 2497 2297 2700 
Q 2081 2919 1734 2919 
z
M 1753 159 
Q 903 159 903 -366 
Q 903 -875 1800 -875 
Q 2378 -875 2638 -606 
Q 2772 -481 2772 -313 
Q 2772 159 1753 159 
z
" transform="scale(0.015625)"/>
       </defs>
       <use xlink:href="#IPAexGothic-41"/>
       <use xlink:href="#IPAexGothic-75" x="63.720703"/>
       <use xlink:href="#IPAexGothic-67" x="124.121094"/>
      </g>
     </g>
    </g>
    <g id="xtick_4">
     <g id="line2d_5">
      <g>
       <use xlink:href="#m830a9175f6" x="129.606867" y="284.991437" style="stroke: #000000; stroke-width: 0.8"/>
      </g>
     </g>
     <g id="text_4">
      <!-- Sep -->
      <g transform="translate(120.731867 299.482062) scale(0.1 -0.1)">
       <defs>
        <path id="IPAexGothic-53" d="M 2919 3641 
Q 2563 4259 1853 4259 
Q 1453 4259 1213 4009 
Q 1028 3803 1028 3534 
Q 1028 3238 1266 3047 
Q 1444 2913 1984 2688 
L 2200 2597 
Q 2925 2306 3191 1953 
Q 3422 1644 3422 1259 
Q 3422 644 2969 288 
Q 2559 -31 1931 -31 
Q 881 -31 313 766 
L 753 1100 
Q 1203 459 1938 459 
Q 2288 459 2534 625 
Q 2841 847 2841 1216 
Q 2841 1503 2616 1728 
Q 2375 1959 1728 2206 
L 1541 2278 
Q 453 2694 453 3481 
Q 453 4006 806 4347 
Q 1203 4725 1863 4725 
Q 2841 4725 3359 3956 
L 2919 3641 
z
" transform="scale(0.015625)"/>
        <path id="IPAexGothic-65" d="M 863 1594 
Q 891 1041 1209 722 
Q 1534 397 1997 397 
Q 2606 397 2963 966 
L 3322 728 
Q 2869 -31 1931 -31 
Q 1222 -31 766 422 
Q 306 884 306 1641 
Q 306 2444 788 2925 
Q 1216 3353 1856 3353 
Q 2459 3353 2866 2956 
Q 3322 2494 3322 1722 
L 3322 1594 
L 863 1594 
z
M 2756 1997 
Q 2709 2431 2450 2681 
Q 2194 2938 1844 2938 
Q 1438 2938 1150 2591 
Q 953 2356 894 1997 
L 2756 1997 
z
" transform="scale(0.015625)"/>
        <path id="IPAexGothic-70" d="M 1075 2688 
Q 1525 3341 2206 3341 
Q 2769 3341 3172 2938 
Q 3641 2469 3641 1644 
Q 3641 841 3178 372 
Q 2775 -31 2200 -31 
Q 1569 -31 1106 497 
L 1106 -1216 
L 563 -1216 
L 563 3250 
L 1075 3250 
L 1075 2688 
z
M 1106 1950 
L 1106 1291 
Q 1106 897 1516 600 
Q 1791 403 2106 403 
Q 2469 403 2725 659 
Q 3066 997 3066 1631 
Q 3066 2200 2784 2559 
Q 2503 2900 2100 2900 
Q 1656 2900 1338 2484 
Q 1106 2184 1106 1950 
z
" transform="scale(0.015625)"/>
       </defs>
       <use xlink:href="#IPAexGothic-53"/>
       <use xlink:href="#IPAexGothic-65" x="58.496094"/>
       <use xlink:href="#IPAexGothic-70" x="115.380859"/>
      </g>
     </g>
    </g>
    <g id="xtick_5">
     <g id="line2d_6">
      <g>
       <use xlink:href="#m830a9175f6" x="162.270282" y="284.991437" style="stroke: #000000; stroke-width: 0.8"/>
      </g>
     </g>
     <g id="text_5">
      <!-- Oct -->
      <g transform="translate(153.835126 299.482062) scale(0.1 -0.1)">
       <defs>
        <path id="IPAexGothic-4f" d="M 2541 4725 
Q 3456 4725 4044 4138 
Q 4709 3472 4709 2331 
Q 4709 1219 4031 550 
Q 3450 -31 2541 -31 
Q 1638 -31 1056 550 
Q 378 1219 378 2356 
Q 378 3469 1044 4138 
Q 1631 4725 2541 4725 
z
M 2541 4266 
Q 1953 4266 1531 3844 
Q 994 3303 994 2350 
Q 994 1391 1531 863 
Q 1947 447 2541 447 
Q 3131 447 3556 863 
Q 4094 1400 4094 2375 
Q 4094 3297 3550 3844 
Q 3138 4266 2541 4266 
z
" transform="scale(0.015625)"/>
        <path id="IPAexGothic-63" d="M 3269 784 
Q 2834 -31 1900 -31 
Q 1228 -31 788 409 
Q 313 891 313 1663 
Q 313 2428 788 2913 
Q 1222 3347 1881 3347 
Q 2813 3347 3206 2541 
L 2763 2309 
Q 2484 2900 1900 2900 
Q 1516 2900 1234 2619 
Q 881 2266 881 1650 
Q 881 1069 1222 728 
Q 1522 428 1956 428 
Q 2547 428 2847 1016 
L 3269 784 
z
" transform="scale(0.015625)"/>
        <path id="IPAexGothic-74" d="M 2125 241 
Q 1769 -6 1397 -6 
Q 653 -6 653 831 
L 653 2859 
L 219 2859 
L 219 3250 
L 653 3250 
L 653 3966 
L 1178 4228 
L 1178 3250 
L 2063 3250 
L 2063 2859 
L 1178 2859 
L 1178 906 
Q 1178 416 1513 416 
Q 1738 416 1941 588 
L 2125 241 
z
" transform="scale(0.015625)"/>
       </defs>
       <use xlink:href="#IPAexGothic-4f"/>
       <use xlink:href="#IPAexGothic-63" x="79.6875"/>
       <use xlink:href="#IPAexGothic-74" x="134.082031"/>
      </g>
     </g>
    </g>
    <g id="xtick_6">
     <g id="line2d_7">
      <g>
       <use xlink:href="#m830a9175f6" x="196.022477" y="284.991437" style="stroke: #000000; stroke-width: 0.8"/>
      </g>
     </g>
     <g id="text_6">
      <!-- Nov -->
      <g transform="translate(186.77404 299.482062) scale(0.1 -0.1)">
       <defs>
        <path id="IPAexGothic-4e" d="M 4244 63 
L 3731 63 
L 1697 3150 
Q 1466 3500 1141 4097 
L 1116 4097 
L 1128 3797 
Q 1159 2803 1159 2469 
L 1159 63 
L 609 63 
L 609 4634 
L 1366 4634 
L 3113 1978 
Q 3453 1447 3713 966 
L 3738 966 
Q 3694 1897 3694 2469 
L 3694 4634 
L 4244 4634 
L 4244 63 
z
" transform="scale(0.015625)"/>
        <path id="IPAexGothic-6f" d="M 1919 3341 
Q 2594 3341 3056 2888 
Q 3531 2413 3531 1638 
Q 3531 888 3066 422 
Q 2609 -31 1919 -31 
Q 1228 -31 781 416 
Q 313 881 313 1656 
Q 313 2413 788 2888 
Q 1241 3341 1919 3341 
z
M 1919 2919 
Q 1519 2919 1241 2631 
Q 888 2278 888 1650 
Q 888 1031 1234 684 
Q 1516 403 1919 403 
Q 2331 403 2609 691 
Q 2956 1038 2956 1672 
Q 2956 2269 2603 2631 
Q 2316 2919 1919 2919 
z
" transform="scale(0.015625)"/>
        <path id="IPAexGothic-76" d="M 3103 3250 
L 1747 6 
L 1375 6 
L 25 3250 
L 628 3250 
L 1338 1388 
L 1522 844 
L 1569 703 
L 1588 703 
Q 1641 884 1822 1388 
L 2516 3250 
L 3103 3250 
z
" transform="scale(0.015625)"/>
       </defs>
       <use xlink:href="#IPAexGothic-4e"/>
       <use xlink:href="#IPAexGothic-6f" x="75.976562"/>
       <use xlink:href="#IPAexGothic-76" x="136.376953"/>
      </g>
     </g>
    </g>
    <g id="xtick_7">
     <g id="line2d_8">
      <g>
       <use xlink:href="#m830a9175f6" x="228.685892" y="284.991437" style="stroke: #000000; stroke-width: 0.8"/>
      </g>
     </g>
     <g id="text_7">
      <!-- Dec -->
      <g transform="translate(219.337454 299.482062) scale(0.1 -0.1)">
       <defs>
        <path id="IPAexGothic-44" d="M 609 4634 
L 1984 4634 
Q 3159 4634 3791 4050 
Q 4456 3444 4456 2356 
Q 4456 1047 3516 441 
Q 2925 63 1941 63 
L 609 63 
L 609 4634 
z
M 1172 556 
L 1894 556 
Q 3853 556 3853 2356 
Q 3853 4147 1928 4147 
L 1172 4147 
L 1172 556 
z
" transform="scale(0.015625)"/>
       </defs>
       <use xlink:href="#IPAexGothic-44"/>
       <use xlink:href="#IPAexGothic-65" x="75.683594"/>
       <use xlink:href="#IPAexGothic-63" x="132.568359"/>
      </g>
     </g>
    </g>
    <g id="xtick_8">
     <g id="line2d_9">
      <g>
       <use xlink:href="#m830a9175f6" x="262.438087" y="284.991437" style="stroke: #000000; stroke-width: 0.8"/>
      </g>
     </g>
     <g id="text_8">
      <!-- 2023 -->
      <g transform="translate(249.841212 299.482062) scale(0.1 -0.1)">
       <defs>
        <path id="IPAexGothic-32" d="M 3659 63 
L 447 63 
L 447 594 
Q 825 1475 1894 2203 
L 2072 2322 
Q 2619 2697 2791 2906 
Q 2988 3153 2988 3444 
Q 2988 3772 2756 4003 
Q 2500 4259 2084 4259 
Q 1250 4259 991 3328 
L 497 3506 
Q 853 4725 2116 4725 
Q 2806 4725 3216 4316 
Q 3575 3947 3575 3425 
Q 3575 3038 3344 2722 
Q 3131 2416 2366 1938 
L 2231 1856 
Q 1256 1253 978 569 
L 3659 569 
L 3659 63 
z
" transform="scale(0.015625)"/>
        <path id="IPAexGothic-30" d="M 2038 4725 
Q 2881 4725 3334 3944 
Q 3694 3325 3694 2344 
Q 3694 1372 3334 741 
Q 2888 -31 2016 -31 
Q 1147 -31 700 741 
Q 341 1372 341 2350 
Q 341 3713 1000 4334 
Q 1419 4725 2038 4725 
z
M 2016 4266 
Q 1516 4266 1228 3759 
Q 934 3247 934 2344 
Q 934 1456 1222 947 
Q 1513 447 2016 447 
Q 2619 447 2909 1153 
Q 3100 1622 3100 2375 
Q 3100 3256 2806 3759 
Q 2509 4266 2016 4266 
z
" transform="scale(0.015625)"/>
        <path id="IPAexGothic-33" d="M 2381 2419 
Q 3506 2216 3506 1278 
Q 3506 716 3128 356 
Q 2709 -31 1944 -31 
Q 797 -31 288 881 
L 756 1131 
Q 1109 441 1938 441 
Q 2425 441 2694 691 
Q 2950 928 2950 1291 
Q 2950 1719 2566 1978 
Q 2216 2213 1644 2213 
L 1363 2213 
L 1363 2669 
L 1656 2669 
Q 2231 2669 2534 2888 
Q 2859 3119 2859 3509 
Q 2859 3934 2494 4138 
Q 2259 4278 1931 4278 
Q 1238 4278 903 3578 
L 434 3803 
Q 897 4725 1938 4725 
Q 2597 4725 3006 4394 
Q 3416 4069 3416 3534 
Q 3416 3028 3019 2706 
Q 2763 2500 2381 2444 
L 2381 2419 
z
" transform="scale(0.015625)"/>
       </defs>
       <use xlink:href="#IPAexGothic-32"/>
       <use xlink:href="#IPAexGothic-30" x="62.988281"/>
       <use xlink:href="#IPAexGothic-32" x="125.976562"/>
       <use xlink:href="#IPAexGothic-33" x="188.964844"/>
      </g>
     </g>
    </g>
    <g id="xtick_9">
     <g id="line2d_10">
      <g>
       <use xlink:href="#m830a9175f6" x="296.190282" y="284.991437" style="stroke: #000000; stroke-width: 0.8"/>
      </g>
     </g>
     <g id="text_9">
      <!-- Feb -->
      <g transform="translate(287.366845 299.482062) scale(0.1 -0.1)">
       <defs>
        <path id="IPAexGothic-46" d="M 3469 4141 
L 1172 4141 
L 1172 2656 
L 3206 2656 
L 3206 2188 
L 1172 2188 
L 1172 63 
L 609 63 
L 609 4634 
L 3469 4634 
L 3469 4141 
z
" transform="scale(0.015625)"/>
        <path id="IPAexGothic-62" d="M 1125 2731 
Q 1550 3341 2219 3341 
Q 2788 3341 3191 2938 
Q 3659 2469 3659 1644 
Q 3659 838 3191 372 
Q 2788 -31 2206 -31 
Q 1559 -31 1088 516 
L 1009 44 
L 581 44 
L 581 4794 
L 1125 4794 
L 1125 2731 
z
M 1125 1997 
L 1125 1253 
Q 1125 888 1528 600 
Q 1803 403 2119 403 
Q 2488 403 2744 659 
Q 3084 1009 3084 1631 
Q 3084 2194 2803 2553 
Q 2525 2900 2125 2900 
Q 1759 2900 1438 2578 
Q 1125 2266 1125 1997 
z
" transform="scale(0.015625)"/>
       </defs>
       <use xlink:href="#IPAexGothic-46"/>
       <use xlink:href="#IPAexGothic-65" x="57.177734"/>
       <use xlink:href="#IPAexGothic-62" x="114.0625"/>
      </g>
     </g>
    </g>
    <g id="xtick_10">
     <g id="line2d_11">
      <g>
       <use xlink:href="#m830a9175f6" x="326.676136" y="284.991437" style="stroke: #000000; stroke-width: 0.8"/>
      </g>
     </g>
     <g id="text_10">
      <!-- Mar -->
      <g transform="translate(317.566761 299.482062) scale(0.1 -0.1)">
       <defs>
        <path id="IPAexGothic-4d" d="M 5147 63 
L 4597 63 
L 4597 2534 
Q 4597 3281 4634 4134 
L 4609 4134 
Q 4356 3409 4066 2675 
L 3066 209 
L 2650 209 
L 1641 2725 
Q 1328 3506 1128 4141 
L 1103 4141 
Q 1141 3131 1141 2553 
L 1141 63 
L 609 63 
L 609 4634 
L 1416 4634 
L 2503 1944 
Q 2697 1472 2869 906 
L 2888 906 
Q 3028 1416 3234 1931 
L 4316 4634 
L 5147 4634 
L 5147 63 
z
" transform="scale(0.015625)"/>
        <path id="IPAexGothic-61" d="M 3156 63 
L 2672 63 
Q 2559 303 2531 556 
L 2509 556 
Q 2147 -25 1428 -25 
Q 934 -25 622 288 
Q 347 563 347 959 
Q 347 1947 2050 1997 
L 2478 2009 
L 2478 2175 
Q 2478 2509 2288 2700 
Q 2088 2900 1775 2900 
Q 1238 2900 969 2378 
L 494 2597 
Q 938 3328 1788 3328 
Q 2375 3328 2691 3000 
Q 2984 2706 2984 2169 
L 2984 997 
Q 2984 400 3156 63 
z
M 2491 1625 
L 2141 1619 
Q 903 1591 903 953 
Q 903 728 1050 581 
Q 1231 403 1525 403 
Q 1934 403 2234 703 
Q 2491 969 2491 1344 
L 2491 1625 
z
" transform="scale(0.015625)"/>
        <path id="IPAexGothic-72" d="M 2309 3316 
L 2213 2769 
Q 2106 2791 2022 2791 
Q 1653 2791 1413 2444 
Q 1113 2006 1113 1675 
L 1113 63 
L 563 63 
L 563 3250 
L 1081 3250 
L 1056 2303 
L 1069 2303 
Q 1422 3341 2097 3341 
Q 2206 3341 2309 3316 
z
" transform="scale(0.015625)"/>
       </defs>
       <use xlink:href="#IPAexGothic-4d"/>
       <use xlink:href="#IPAexGothic-61" x="90.185547"/>
       <use xlink:href="#IPAexGothic-72" x="145.166016"/>
      </g>
     </g>
    </g>
    <g id="xtick_11">
     <g id="line2d_12">
      <g>
       <use xlink:href="#m830a9175f6" x="360.428331" y="284.991437" style="stroke: #000000; stroke-width: 0.8"/>
      </g>
     </g>
     <g id="text_11">
      <!-- Apr -->
      <g transform="translate(352.286143 299.482062) scale(0.1 -0.1)">
       <use xlink:href="#IPAexGothic-41"/>
       <use xlink:href="#IPAexGothic-70" x="63.720703"/>
       <use xlink:href="#IPAexGothic-72" x="125.830078"/>
      </g>
     </g>
    </g>
   </g>
   <g id="matplotlib.axis_2">
    <g id="ytick_1">
     <g id="line2d_13">
      <defs>
       <path id="m54cd341230" d="M 0 0 
L -3.5 0 
" style="stroke: #000000; stroke-width: 0.8"/>
      </defs>
      <g>
       <use xlink:href="#m54cd341230" x="29.439063" y="269.014637" style="stroke: #000000; stroke-width: 0.8"/>
      </g>
     </g>
     <g id="text_12">
      <!-- 0.5 -->
      <g transform="translate(7.2 272.759949) scale(0.1 -0.1)">
       <defs>
        <path id="IPAexGothic-2e" d="M 1184 63 
L 494 63 
L 494 753 
L 1184 753 
L 1184 63 
z
" transform="scale(0.015625)"/>
        <path id="IPAexGothic-35" d="M 1178 2603 
Q 1634 2963 2172 2963 
Q 2816 2963 3241 2528 
Q 3638 2113 3638 1497 
Q 3638 938 3297 513 
Q 2869 -31 2031 -31 
Q 959 -31 469 784 
L 938 1028 
Q 1309 434 2013 434 
Q 2466 434 2769 716 
Q 3081 1013 3081 1503 
Q 3081 1966 2806 2241 
Q 2519 2528 2056 2528 
Q 1406 2528 1072 2028 
L 591 2091 
L 884 4634 
L 3406 4634 
L 3406 4153 
L 1341 4153 
L 1134 2603 
L 1178 2603 
z
" transform="scale(0.015625)"/>
       </defs>
       <use xlink:href="#IPAexGothic-30"/>
       <use xlink:href="#IPAexGothic-2e" x="62.988281"/>
       <use xlink:href="#IPAexGothic-35" x="89.404297"/>
      </g>
     </g>
    </g>
    <g id="ytick_2">
     <g id="line2d_14">
      <g>
       <use xlink:href="#m54cd341230" x="29.439063" y="211.199039" style="stroke: #000000; stroke-width: 0.8"/>
      </g>
     </g>
     <g id="text_13">
      <!-- 1.0 -->
      <g transform="translate(7.2 214.944352) scale(0.1 -0.1)">
       <defs>
        <path id="IPAexGothic-31" d="M 2463 63 
L 1900 63 
L 1900 4103 
Q 1372 3922 788 3797 
L 684 4231 
Q 1519 4441 2106 4731 
L 2463 4731 
L 2463 63 
z
" transform="scale(0.015625)"/>
       </defs>
       <use xlink:href="#IPAexGothic-31"/>
       <use xlink:href="#IPAexGothic-2e" x="62.988281"/>
       <use xlink:href="#IPAexGothic-30" x="89.404297"/>
      </g>
     </g>
    </g>
    <g id="ytick_3">
     <g id="line2d_15">
      <g>
       <use xlink:href="#m54cd341230" x="29.439063" y="153.383442" style="stroke: #000000; stroke-width: 0.8"/>
      </g>
     </g>
     <g id="text_14">
      <!-- 1.5 -->
      <g transform="translate(7.2 157.128754) scale(0.1 -0.1)">
       <use xlink:href="#IPAexGothic-31"/>
       <use xlink:href="#IPAexGothic-2e" x="62.988281"/>
       <use xlink:href="#IPAexGothic-35" x="89.404297"/>
      </g>
     </g>
    </g>
    <g id="ytick_4">
     <g id="line2d_16">
      <g>
       <use xlink:href="#m54cd341230" x="29.439063" y="95.567844" style="stroke: #000000; stroke-width: 0.8"/>
      </g>
     </g>
     <g id="text_15">
      <!-- 2.0 -->
      <g transform="translate(7.2 99.313157) scale(0.1 -0.1)">
       <use xlink:href="#IPAexGothic-32"/>
       <use xlink:href="#IPAexGothic-2e" x="62.988281"/>
       <use xlink:href="#IPAexGothic-30" x="89.404297"/>
      </g>
     </g>
    </g>
    <g id="ytick_5">
     <g id="line2d_17">
      <g>
       <use xlink:href="#m54cd341230" x="29.439063" y="37.752247" style="stroke: #000000; stroke-width: 0.8"/>
      </g>
     </g>
     <g id="text_16">
      <!-- 2.5 -->
      <g transform="translate(7.2 41.497559) scale(0.1 -0.1)">
       <use xlink:href="#IPAexGothic-32"/>
       <use xlink:href="#IPAexGothic-2e" x="62.988281"/>
       <use xlink:href="#IPAexGothic-35" x="89.404297"/>
      </g>
     </g>
    </g>
   </g>
   <g id="line2d_18">
    <path d="M 29.439063 227.411867 
L 30.527843 255.471758 
L 31.616623 269.405805 
L 32.705404 242.945807 
L 33.794184 262.441258 
L 35.971745 251.639145 
L 37.060526 227.514621 
L 38.149306 229.940841 
L 39.238087 194.078383 
L 40.326867 246.403784 
L 41.415648 250.411663 
L 42.504428 205.84664 
L 43.593209 249.191321 
L 44.681989 272.895437 
L 45.77077 243.090535 
L 46.85955 247.559579 
L 47.948331 238.429093 
L 49.037111 112.810292 
L 50.125892 184.323192 
L 51.214672 181.498781 
L 52.303453 30.975437 
L 54.481014 168.571026 
L 55.569794 110.868109 
L 56.658575 213.126183 
L 57.747355 156.293505 
L 58.836136 124.518024 
L 59.924916 151.875457 
L 61.013697 236.751655 
L 62.102477 106.655378 
L 63.191258 51.387485 
L 64.280038 102.788184 
L 65.368819 95.926279 
L 66.457599 36.542983 
L 67.54638 79.37836 
L 68.63516 35.439549 
L 69.723941 110.396771 
L 70.812721 116.980214 
L 71.901502 109.726148 
L 72.990282 177.160719 
L 74.079063 110.814502 
L 75.167843 153.702013 
L 76.256623 148.460822 
L 77.345404 164.812112 
L 78.434184 190.526245 
L 79.522965 181.526351 
L 80.611745 197.096587 
L 81.700526 219.976945 
L 82.789306 163.710275 
L 83.878087 173.022011 
L 84.966867 196.817697 
L 86.055648 179.527296 
L 87.144428 191.661352 
L 88.233209 192.887858 
L 89.321989 173.15897 
L 90.41077 188.50237 
L 91.49955 201.809366 
L 92.588331 195.197746 
L 93.677111 183.412435 
L 94.765892 192.046725 
L 95.854672 204.737627 
L 96.943453 199.025674 
L 98.032233 189.016626 
L 100.209794 182.941981 
L 101.298575 200.02008 
L 102.387355 192.032303 
L 103.476136 181.775482 
L 104.564916 186.871327 
L 105.653697 193.9839 
L 106.742477 204.601463 
L 107.831258 225.669065 
L 108.920038 207.989558 
L 110.008819 218.057369 
L 111.097599 204.232725 
L 112.18638 217.282458 
L 113.27516 202.720535 
L 114.363941 195.141529 
L 115.452721 153.461242 
L 116.541502 171.531238 
L 117.630282 185.828914 
L 118.719063 204.950127 
L 119.807843 187.736367 
L 120.896623 211.671324 
L 121.985404 216.92144 
L 123.074184 231.587854 
L 124.162965 248.509599 
L 125.251745 240.826108 
L 126.340526 241.29957 
L 127.429306 247.072575 
L 128.518087 251.367839 
L 129.606867 251.669425 
L 130.695648 251.785215 
L 131.784428 242.900107 
L 132.873209 251.663262 
L 133.961989 241.186243 
L 135.05077 228.929625 
L 136.13955 240.670472 
L 137.228331 239.689961 
L 138.317111 228.587222 
L 139.405892 234.114512 
L 140.494672 220.053728 
L 141.583453 221.634093 
L 142.672233 247.789493 
L 143.761014 250.578039 
L 144.849794 230.847867 
L 145.938575 240.571341 
L 147.027355 229.667605 
L 148.116136 228.965012 
L 149.204916 226.507 
L 150.293697 266.267581 
L 151.382477 173.994674 
L 152.471258 228.352097 
L 153.560038 212.968149 
L 154.648819 243.863512 
L 155.737599 195.951487 
L 156.82638 187.500784 
L 157.91516 195.32975 
L 159.003941 238.855842 
L 160.092721 224.563828 
L 161.181502 239.674853 
L 162.270282 205.067187 
L 163.359063 219.657973 
L 164.447843 258.893645 
L 165.536623 189.095647 
L 166.625404 231.988543 
L 167.714184 230.452082 
L 168.802965 208.848889 
L 169.891745 214.413367 
L 170.980526 237.774657 
L 172.069306 208.216448 
L 173.158087 269.328924 
L 174.246867 186.857034 
L 175.335648 168.652783 
L 176.424428 211.199039 
L 177.513209 197.903063 
L 178.601989 190.42842 
L 179.69077 209.746404 
L 180.77955 135.123595 
L 181.868331 212.926136 
L 182.957111 239.34414 
L 184.045892 184.631705 
L 185.134672 193.892671 
L 186.223453 220.351516 
L 187.312233 197.002011 
L 188.401014 191.634272 
L 189.489794 213.253557 
L 190.578575 183.049443 
L 191.667355 199.198481 
L 192.756136 190.346771 
L 193.844916 160.309806 
L 194.933697 189.784075 
L 196.022477 198.104074 
L 197.111258 152.110827 
L 198.200038 152.9204 
L 199.288819 232.748365 
L 200.377599 165.024121 
L 201.46638 194.085734 
L 202.55516 199.838398 
L 203.643941 173.564927 
L 204.732721 209.205445 
L 205.821502 206.690562 
L 206.910282 156.249641 
L 207.999063 220.402577 
L 209.087843 215.284532 
L 210.176623 225.924092 
L 211.265404 188.099011 
L 212.354184 185.511636 
L 213.442965 211.199039 
L 214.531745 194.160213 
L 215.620526 184.55213 
L 216.709306 182.799057 
L 218.886867 203.930102 
L 219.975648 168.757197 
L 221.064428 220.491359 
L 222.153209 171.577359 
L 224.33077 192.11637 
L 225.41955 204.402838 
L 226.508331 198.987955 
L 227.597111 181.777237 
L 228.685892 142.696764 
L 229.774672 213.580923 
L 230.863453 220.529523 
L 231.952233 204.080643 
L 233.041014 205.292279 
L 234.129794 181.962456 
L 235.218575 194.793532 
L 236.307355 197.432704 
L 237.396136 173.295964 
L 238.484916 175.045451 
L 239.573697 167.16196 
L 240.662477 187.120934 
L 241.751258 183.834422 
L 242.840038 173.778001 
L 243.928819 181.23856 
L 245.017599 201.020413 
L 246.10638 187.828789 
L 247.19516 213.66936 
L 248.283941 207.768569 
L 249.372721 207.295129 
L 250.461502 192.832229 
L 251.550282 206.958159 
L 252.639063 188.728128 
L 253.727843 193.851266 
L 254.816623 207.103197 
L 255.905404 215.224404 
L 256.994184 196.113595 
L 258.082965 220.91992 
L 259.171745 200.04709 
L 260.260526 223.444191 
L 261.349306 251.024981 
L 262.438087 228.180558 
L 263.526867 208.755181 
L 264.615648 251.311193 
L 265.704428 254.432046 
L 266.793209 215.74342 
L 267.881989 126.299141 
L 268.97077 90.185267 
L 270.05955 169.01121 
L 271.148331 202.233317 
L 272.237111 208.810336 
L 273.325892 167.736099 
L 274.414672 215.685286 
L 275.503453 255.304956 
L 276.592233 257.151057 
L 277.681014 241.910597 
L 278.769794 230.363911 
L 279.858575 201.639485 
L 280.947355 252.591109 
L 282.036136 261.202922 
L 283.124916 248.191392 
L 284.213697 245.888016 
L 285.302477 248.528538 
L 286.391258 233.937612 
L 287.480038 243.873594 
L 288.568819 245.699396 
L 289.657599 238.379427 
L 290.74638 250.421781 
L 291.83516 242.025158 
L 292.923941 235.679743 
L 294.012721 231.977605 
L 295.101502 268.725993 
L 296.190282 251.010186 
L 297.279063 243.44844 
L 298.367843 231.173865 
L 299.456623 246.470516 
L 300.545404 240.806074 
L 301.634184 205.729567 
L 302.722965 216.74151 
L 303.811745 221.239134 
L 304.900526 222.049942 
L 305.989306 236.243828 
L 307.078087 216.587974 
L 308.166867 250.056764 
L 309.255648 220.887451 
L 310.344428 228.799652 
L 311.433209 253.712581 
L 312.521989 218.850978 
L 313.61077 215.357996 
L 314.69955 237.280047 
L 315.788331 193.27922 
L 316.877111 224.105076 
L 317.965892 238.379537 
L 319.054672 241.772305 
L 320.143453 251.269511 
L 321.232233 255.03236 
L 323.409794 237.065956 
L 324.498575 226.130001 
L 325.587355 244.38679 
L 326.676136 206.157732 
L 327.764916 233.765533 
L 328.853697 159.336552 
L 329.942477 185.327724 
L 331.031258 214.962751 
L 332.120038 217.21233 
L 333.208819 183.217935 
L 334.297599 224.645526 
L 335.38638 214.214028 
L 336.47516 235.628575 
L 337.563941 247.936648 
L 338.652721 239.212375 
L 339.741502 229.20156 
L 341.919063 253.457905 
L 343.007843 223.82357 
L 344.096623 230.110703 
L 345.185404 231.751414 
L 346.274184 221.724925 
L 347.362965 218.438731 
L 348.451745 196.729311 
L 349.540526 269.644947 
L 350.629306 186.805833 
L 351.718087 151.469654 
L 352.806867 196.794784 
L 353.895648 186.090119 
L 354.984428 212.367022 
L 356.073209 270.557568 
L 357.161989 131.696335 
L 358.25077 246.286327 
L 359.33955 246.583352 
L 360.428331 237.988485 
L 361.517111 247.318928 
L 362.605892 158.670839 
L 363.694672 179.975338 
L 364.783453 223.430761 
L 365.872233 212.644411 
L 366.961014 225.046752 
L 368.049794 197.113467 
L 369.138575 202.169595 
L 370.227355 251.481393 
L 371.316136 236.781261 
L 372.404916 190.034499 
L 374.582477 209.627986 
L 375.671258 206.447701 
L 376.760038 229.946022 
L 377.848819 202.966425 
L 378.937599 187.325942 
L 380.02638 234.850923 
L 381.11516 249.425785 
L 382.203941 237.707895 
L 383.292721 238.97414 
L 384.381502 232.48244 
L 385.470282 220.86156 
L 385.470282 220.86156 
" clip-path="url(#pf773de83c5)" style="fill: none; stroke: #1f77b4; stroke-width: 1.5; stroke-linecap: square"/>
   </g>
   <g id="line2d_19">
    <path d="M 29.439063 230.929789 
L 30.527843 242.60231 
L 31.616623 262.8168 
L 32.705404 257.425513 
L 33.794184 253.337157 
L 34.882965 259.836211 
L 35.971745 254.434415 
L 37.060526 240.414674 
L 38.149306 228.735232 
L 39.238087 213.41839 
L 40.326867 223.501825 
L 41.415648 248.433331 
L 42.504428 230.677266 
L 43.593209 229.912564 
L 44.681989 262.11981 
L 45.77077 259.625445 
L 46.85955 245.355694 
L 47.948331 243.118728 
L 49.037111 189.281671 
L 50.125892 152.189606 
L 51.214672 182.917915 
L 52.303453 119.473036 
L 53.392233 68.196709 
L 54.481014 137.669929 
L 55.569794 141.957318 
L 56.658575 170.127431 
L 57.747355 187.579679 
L 58.836136 141.084002 
L 59.924916 138.693349 
L 61.013697 201.292679 
L 62.102477 186.000414 
L 63.191258 80.567026 
L 64.280038 78.413733 
L 65.368819 99.383107 
L 66.457599 67.931655 
L 67.54638 58.815077 
L 68.63516 58.306173 
L 69.723941 75.699401 
L 70.812721 113.713912 
L 71.901502 113.383995 
L 72.990282 146.569691 
L 74.079063 147.022086 
L 75.167843 133.443524 
L 76.256623 151.100956 
L 77.345404 156.832948 
L 78.434184 178.224324 
L 79.522965 186.098223 
L 80.611745 189.532009 
L 81.700526 209.091256 
L 82.789306 194.807872 
L 83.878087 168.434555 
L 84.966867 185.419494 
L 86.055648 188.44227 
L 87.144428 185.724694 
L 88.233209 192.276003 
L 89.321989 183.362139 
L 90.41077 181.032368 
L 91.49955 195.324076 
L 92.588331 198.546144 
L 93.677111 189.431392 
L 94.765892 187.79659 
L 95.854672 198.54902 
L 96.943453 201.914295 
L 98.032233 194.115474 
L 99.121014 187.422411 
L 100.209794 184.383085 
L 101.298575 191.750659 
L 102.387355 196.087179 
L 103.476136 186.997904 
L 104.564916 184.346184 
L 105.653697 190.473981 
L 106.742477 199.403219 
L 107.831258 215.633088 
L 108.920038 217.185071 
L 110.008819 213.134848 
L 111.097599 211.351742 
L 112.18638 210.94113 
L 113.27516 210.228598 
L 114.363941 198.987184 
L 115.452721 175.731796 
L 116.541502 162.744798 
L 118.719063 195.737687 
L 119.807843 196.62741 
L 120.896623 200.268399 
L 121.985404 214.327003 
L 123.074184 224.517111 
L 124.162965 240.462163 
L 125.251745 244.757718 
L 126.340526 241.063165 
L 127.429306 244.236496 
L 128.518087 249.249927 
L 129.606867 251.518783 
L 130.695648 251.727342 
L 131.784428 247.466905 
L 132.873209 247.402446 
L 133.961989 246.595581 
L 135.05077 235.262778 
L 136.13955 234.987471 
L 137.228331 240.181603 
L 138.317111 234.304978 
L 139.405892 231.390872 
L 140.494672 227.332189 
L 141.583453 220.846856 
L 143.761014 249.196285 
L 144.849794 241.279862 
L 145.938575 235.839395 
L 147.027355 235.281663 
L 148.116136 229.316941 
L 149.204916 227.743627 
L 150.293697 248.882551 
L 151.382477 230.621466 
L 152.471258 204.147875 
L 153.560038 220.93913 
L 154.648819 229.635769 
L 155.737599 222.625721 
L 156.82638 191.792225 
L 157.91516 191.471858 
L 159.003941 219.272458 
L 160.092721 231.97864 
L 161.181502 232.42119 
L 162.270282 223.814193 
L 163.359063 212.595296 
L 164.447843 241.501939 
L 165.536623 230.097519 
L 166.625404 212.536835 
L 167.714184 231.223399 
L 168.802965 220.196168 
L 169.891745 211.66473 
L 170.980526 226.773505 
L 172.069306 224.052711 
L 173.158087 244.24423 
L 174.246867 237.116008 
L 175.335648 178.033043 
L 177.513209 204.731901 
L 178.601989 194.218394 
L 179.69077 200.456001 
L 180.77955 177.011185 
L 181.868331 179.059561 
L 182.957111 227.005264 
L 184.045892 215.29372 
L 185.134672 189.34014 
L 186.223453 207.855357 
L 187.312233 209.25497 
L 188.401014 194.345323 
L 189.489794 202.914504 
L 190.578575 199.04078 
L 191.667355 191.364392 
L 192.756136 194.846812 
L 193.844916 176.074523 
L 194.933697 175.764073 
L 196.022477 194.009205 
L 197.111258 176.860376 
L 198.200038 152.516084 
L 199.288819 198.91713 
L 200.377599 203.448625 
L 201.46638 180.273516 
L 202.55516 196.993923 
L 203.643941 187.318791 
L 204.732721 192.562593 
L 205.821502 207.954654 
L 206.910282 183.674736 
L 207.999063 192.091624 
L 209.087843 217.873602 
L 210.176623 220.737602 
L 211.265404 208.513572 
L 212.354184 186.8113 
L 213.442965 198.998945 
L 214.531745 202.972279 
L 215.620526 189.440136 
L 216.709306 183.678277 
L 217.798087 188.335204 
L 218.886867 198.897374 
L 219.975648 187.448754 
L 221.064428 197.179515 
L 222.153209 198.341262 
L 223.241989 176.894581 
L 225.41955 198.406453 
L 226.508331 201.724689 
L 227.597111 190.654224 
L 228.685892 163.401008 
L 229.774672 182.424595 
L 230.863453 217.110216 
L 231.952233 212.600777 
L 233.041014 204.687964 
L 234.129794 194.139114 
L 235.218575 188.526714 
L 236.307355 196.119779 
L 237.396136 185.880047 
L 238.484916 174.173214 
L 239.573697 171.1536 
L 240.662477 177.474475 
L 241.751258 185.48723 
L 242.840038 178.891638 
L 243.928819 177.554882 
L 245.017599 191.49043 
L 246.10638 194.588989 
L 247.19516 201.412831 
L 248.283941 210.756455 
L 249.372721 207.532084 
L 250.461502 200.270107 
L 251.550282 200.091846 
L 252.639063 198.165608 
L 253.727843 191.313905 
L 254.816623 200.651084 
L 255.905404 211.235099 
L 256.994184 206.046382 
L 258.082965 209.168684 
L 259.171745 210.952529 
L 260.260526 212.341773 
L 261.349306 238.302243 
L 262.438087 240.353858 
L 263.526867 218.904029 
L 264.615648 232.400817 
L 265.704428 252.888083 
L 266.793209 237.150337 
L 267.881989 177.577562 
L 268.97077 108.989297 
L 270.05955 133.576313 
L 271.148331 186.602691 
L 272.237111 205.566408 
L 273.325892 189.803691 
L 274.414672 193.854637 
L 275.503453 237.669294 
L 276.592233 256.234041 
L 277.681014 249.907348 
L 278.769794 236.3212 
L 279.858575 216.936234 
L 280.947355 230.424572 
L 282.036136 257.029702 
L 283.124916 254.991137 
L 284.213697 247.048016 
L 285.302477 247.219224 
L 286.391258 241.544538 
L 287.480038 239.046068 
L 288.568819 244.791574 
L 289.657599 242.11844 
L 290.74638 244.62081 
L 291.83516 246.332876 
L 292.923941 238.909678 
L 294.012721 233.847098 
L 295.101502 252.591834 
L 296.190282 260.456547 
L 297.279063 247.319155 
L 298.367843 237.521782 
L 299.456623 239.155159 
L 300.545404 243.68652 
L 301.634184 224.763671 
L 302.722965 211.366742 
L 303.811745 219.013772 
L 304.900526 221.645319 
L 305.989306 229.405031 
L 307.078087 226.898006 
L 308.166867 234.831969 
L 309.255648 236.643788 
L 310.344428 224.92031 
L 311.433209 242.167574 
L 312.521989 237.975354 
L 313.61077 217.118387 
L 314.69955 226.918474 
L 315.788331 217.470651 
L 316.877111 209.70189 
L 317.965892 231.509136 
L 319.054672 240.092508 
L 321.232233 253.174961 
L 322.321014 250.620979 
L 324.498575 231.755086 
L 325.587355 235.714517 
L 326.676136 227.087281 
L 327.764916 220.856887 
L 328.853697 201.979325 
L 329.942477 172.879669 
L 331.031258 201.014775 
L 332.120038 216.093253 
L 333.208819 201.361197 
L 334.297599 205.689899 
L 335.38638 219.5565 
L 336.47516 225.485354 
L 337.563941 242.005556 
L 338.652721 243.688865 
L 339.741502 234.342313 
L 340.830282 235.172055 
L 341.919063 247.370212 
L 343.007843 239.894402 
L 344.096623 227.016627 
L 345.185404 230.934568 
L 346.274184 226.863796 
L 347.362965 220.094475 
L 348.451745 208.079088 
L 349.540526 240.575619 
L 350.629306 237.346517 
L 351.718087 170.130648 
L 352.806867 175.823307 
L 353.895648 191.548291 
L 354.984428 199.90677 
L 356.073209 246.573458 
L 357.161989 222.041376 
L 358.25077 201.463386 
L 359.33955 246.434977 
L 360.428331 242.395209 
L 361.517111 242.783083 
L 362.605892 211.199039 
L 363.694672 169.683708 
L 364.783453 203.603942 
L 365.872233 218.171346 
L 366.961014 219.023784 
L 368.049794 211.92582 
L 369.138575 199.666658 
L 370.227355 229.912564 
L 371.316136 244.458602 
L 372.404916 215.842327 
L 373.493697 194.909964 
L 374.582477 204.722485 
L 375.671258 208.048487 
L 376.760038 218.834091 
L 377.848819 217.28368 
L 378.937599 195.378597 
L 380.02638 213.553984 
L 381.11516 242.452465 
L 382.203941 243.773232 
L 383.292721 238.343282 
L 384.381502 235.786131 
L 385.470282 226.840682 
L 385.470282 226.840682 
" clip-path="url(#pf773de83c5)" style="fill: none; stroke: #ff7f0e; stroke-width: 1.5; stroke-linecap: square"/>
   </g>
   <g id="line2d_20">
    <path d="M 29.439063 229.122786 
L 30.527843 239.928401 
L 31.616623 252.698705 
L 32.705404 256.780278 
L 33.794184 259.139403 
L 34.882965 254.622372 
L 35.971745 257.208287 
L 37.060526 246.388486 
L 38.149306 237.055655 
L 39.238087 218.326475 
L 41.415648 233.387372 
L 42.504428 236.234427 
L 43.593209 237.293425 
L 45.77077 256.313321 
L 46.85955 255.822722 
L 47.948331 243.109331 
L 49.037111 212.36467 
L 51.214672 162.563334 
L 52.303453 143.84129 
L 53.392233 113.406318 
L 54.481014 107.256927 
L 55.569794 129.127564 
L 56.658575 169.610337 
L 57.747355 165.645532 
L 58.836136 169.115602 
L 59.924916 144.753156 
L 61.013697 179.647632 
L 62.102477 175.437505 
L 63.191258 150.710969 
L 64.280038 88.208754 
L 65.368819 84.394062 
L 66.457599 80.114816 
L 67.54638 71.804879 
L 68.63516 51.239386 
L 69.723941 76.931758 
L 70.812721 90.291085 
L 71.901502 112.392863 
L 72.990282 137.201801 
L 74.079063 135.362509 
L 75.167843 149.276885 
L 76.256623 138.58476 
L 77.345404 155.795645 
L 78.434184 168.900399 
L 81.700526 200.539182 
L 82.789306 195.575228 
L 83.878087 187.912342 
L 84.966867 178.52472 
L 86.055648 183.482093 
L 87.144428 189.523726 
L 88.233209 188.153999 
L 89.321989 186.18367 
L 90.41077 185.09643 
L 91.49955 188.315827 
L 92.588331 195.281979 
L 93.677111 193.687884 
L 94.765892 190.308761 
L 95.854672 193.689874 
L 96.943453 198.708102 
L 98.032233 197.755094 
L 99.121014 191.402728 
L 100.209794 185.944654 
L 101.298575 189.7987 
L 102.387355 191.844605 
L 103.476136 191.480812 
L 104.564916 186.955724 
L 105.653697 187.634041 
L 106.742477 195.355837 
L 107.831258 208.84012 
L 110.008819 217.476612 
L 111.097599 210.241718 
L 112.18638 213.36349 
L 113.27516 208.263285 
L 114.363941 205.402114 
L 115.452721 185.324114 
L 116.541502 174.344388 
L 117.630282 170.831497 
L 118.719063 188.120092 
L 119.807843 193.123075 
L 120.896623 201.848623 
L 121.985404 206.082407 
L 123.074184 220.402845 
L 124.162965 233.236603 
L 125.251745 240.583648 
L 126.340526 243.620823 
L 127.429306 243.114997 
L 129.606867 250.064959 
L 130.695648 251.607698 
L 131.784428 248.893225 
L 132.873209 248.891095 
L 133.961989 245.382199 
L 136.13955 237.10204 
L 137.228331 236.582508 
L 138.317111 236.477418 
L 139.405892 234.241533 
L 140.494672 227.752305 
L 141.583453 225.467971 
L 142.672233 230.718701 
L 143.761014 240.92208 
L 144.849794 243.507227 
L 145.938575 241.044337 
L 147.027355 233.826969 
L 148.116136 233.222764 
L 149.204916 228.38915 
L 150.293697 242.740121 
L 151.382477 229.269077 
L 152.471258 229.870881 
L 153.560038 207.161383 
L 154.648819 229.209749 
L 155.737599 219.501156 
L 156.82638 212.031087 
L 157.91516 192.98185 
L 159.003941 209.581314 
L 160.092721 221.065989 
L 161.181502 234.616737 
L 162.270282 224.06468 
L 163.359063 222.447011 
L 164.447843 230.764786 
L 165.536623 226.735849 
L 166.625404 230.732013 
L 167.714184 218.850986 
L 168.802965 224.281475 
L 169.891745 218.302399 
L 170.980526 221.123664 
L 172.069306 220.93512 
L 173.158087 242.141688 
L 174.246867 228.364316 
L 175.335648 218.44859 
L 176.424428 190.029585 
L 177.513209 193.727182 
L 178.601989 200.139008 
L 179.69077 199.610689 
L 180.77955 181.624175 
L 181.868331 190.09163 
L 184.045892 214.510045 
L 185.134672 208.573118 
L 186.223453 200.569432 
L 187.312233 204.342327 
L 188.401014 203.652593 
L 189.489794 200.974213 
L 190.578575 196.618162 
L 191.667355 199.093369 
L 192.756136 191.026031 
L 193.844916 184.214067 
L 194.933697 180.790352 
L 196.022477 183.611312 
L 197.111258 181.298308 
L 198.200038 169.270937 
L 199.288819 184.905831 
L 200.377599 188.492178 
L 201.46638 200.403438 
L 202.55516 187.108997 
L 203.643941 189.611924 
L 204.732721 195.033037 
L 205.821502 197.447481 
L 206.910282 192.747876 
L 207.999063 197.145102 
L 209.087843 200.314175 
L 210.176623 220.626045 
L 212.354184 201.295556 
L 213.442965 195.464272 
L 214.531745 197.405968 
L 215.620526 197.113713 
L 216.709306 187.261183 
L 217.798087 187.08549 
L 218.886867 193.741822 
L 219.975648 189.550213 
L 221.064428 199.469935 
L 222.153209 189.152671 
L 223.241989 193.119185 
L 224.33077 182.150609 
L 225.41955 193.164416 
L 226.508331 198.60058 
L 227.597111 195.400607 
L 228.685892 176.246527 
L 229.774672 182.20913 
L 230.863453 196.443074 
L 231.952233 212.928431 
L 233.041014 210.214796 
L 234.129794 197.539344 
L 235.218575 194.357613 
L 237.396136 188.916137 
L 238.484916 182.357292 
L 239.573697 171.871023 
L 240.662477 176.669151 
L 241.751258 179.625281 
L 242.840038 181.687232 
L 243.928819 179.678119 
L 245.017599 185.826618 
L 246.10638 190.280728 
L 247.19516 201.282161 
L 248.283941 203.568241 
L 249.372721 209.613962 
L 250.461502 202.82065 
L 251.550282 202.539923 
L 252.639063 196.411828 
L 253.727843 196.743275 
L 254.816623 196.795762 
L 255.905404 205.708887 
L 256.994184 206.399686 
L 258.082965 211.222913 
L 259.171745 206.203506 
L 260.260526 215.275699 
L 261.349306 227.04317 
L 262.438087 235.049338 
L 263.526867 230.893623 
L 264.615648 231.014516 
L 265.704428 240.403632 
L 266.793209 242.143466 
L 267.881989 209.55923 
L 268.97077 152.790998 
L 270.05955 131.180415 
L 271.148331 159.879638 
L 272.237111 194.434509 
L 273.325892 194.078898 
L 274.414672 199.039398 
L 275.503453 218.686553 
L 276.592233 244.703586 
L 277.681014 251.750355 
L 278.769794 243.877834 
L 279.858575 225.985777 
L 280.947355 230.404356 
L 283.124916 254.199875 
L 284.213697 252.076606 
L 286.391258 243.017663 
L 287.480038 242.328067 
L 288.568819 241.322359 
L 289.657599 242.707579 
L 290.74638 244.981923 
L 291.83516 243.764543 
L 292.923941 242.927891 
L 294.012721 236.657187 
L 295.101502 247.335431 
L 296.190282 252.068319 
L 297.279063 255.212423 
L 298.367843 242.265414 
L 299.456623 240.610269 
L 300.545404 239.708955 
L 301.634184 232.583033 
L 302.722965 222.156768 
L 303.811745 214.756056 
L 304.900526 220.03548 
L 305.989306 226.75576 
L 307.078087 225.307435 
L 308.166867 235.305016 
L 309.255648 230.400667 
L 310.344428 234.101419 
L 311.433209 235.597281 
L 312.521989 235.016415 
L 313.61077 230.998408 
L 314.69955 224.298607 
L 315.788331 216.77092 
L 316.877111 219.728418 
L 317.965892 220.168553 
L 319.054672 235.06089 
L 320.143453 243.990749 
L 321.232233 249.55491 
L 322.321014 250.837773 
L 323.409794 246.346832 
L 324.498575 236.739674 
L 325.587355 236.167242 
L 326.676136 226.769203 
L 327.764916 229.364982 
L 328.853697 203.387961 
L 329.942477 196.658751 
L 331.031258 188.424055 
L 332.120038 206.663801 
L 333.208819 206.069522 
L 334.297599 209.659357 
L 335.38638 208.600655 
L 336.47516 225.206181 
L 337.563941 233.601789 
L 338.652721 241.084532 
L 339.741502 239.115899 
L 340.830282 236.539116 
L 341.919063 241.724612 
L 343.007843 240.189745 
L 344.096623 236.74839 
L 345.185404 228.620524 
L 346.274184 227.958032 
L 347.362965 224.130838 
L 348.451745 212.813983 
L 349.540526 233.750892 
L 350.629306 225.457117 
L 351.718087 214.850353 
L 352.806867 179.576668 
L 353.895648 179.326206 
L 354.984428 198.877806 
L 356.073209 230.048416 
L 357.161989 218.911035 
L 358.25077 230.841344 
L 359.33955 218.786929 
L 360.428331 243.712699 
L 361.517111 244.069427 
L 362.605892 220.923793 
L 363.694672 201.608566 
L 364.783453 190.148872 
L 365.872233 206.694286 
L 366.961014 220.51326 
L 368.049794 212.165852 
L 369.138575 208.761677 
L 371.316136 232.258454 
L 372.404916 229.284271 
L 373.493697 210.676295 
L 374.582477 200.010647 
L 375.671258 205.300287 
L 376.760038 215.848678 
L 377.848819 213.78464 
L 378.937599 208.090792 
L 380.02638 210.129375 
L 381.11516 227.056885 
L 382.203941 240.899692 
L 383.292721 242.203393 
L 385.470282 231.060772 
L 385.470282 231.060772 
" clip-path="url(#pf773de83c5)" style="fill: none; stroke: #2ca02c; stroke-width: 1.5; stroke-linecap: square"/>
   </g>
   <g id="line2d_21">
    <path d="M 29.439063 221.275211 
L 30.527843 236.505406 
L 31.616623 248.478994 
L 32.705404 250.372301 
L 33.794184 258.240554 
L 34.882965 258.641514 
L 35.971745 253.887849 
L 37.060526 250.742613 
L 38.149306 242.558839 
L 39.238087 227.832517 
L 40.326867 226.152528 
L 41.415648 232.537407 
L 42.504428 227.154092 
L 43.593209 239.663468 
L 44.681989 247.949949 
L 45.77077 246.12502 
L 46.85955 254.219959 
L 47.948331 251.824807 
L 49.037111 220.968504 
L 50.125892 205.919399 
L 51.214672 186.135769 
L 52.303453 136.533121 
L 53.392233 133.903952 
L 54.481014 128.780364 
L 55.569794 108.165345 
L 56.658575 154.661857 
L 57.747355 166.381937 
L 58.836136 156.222628 
L 61.013697 174.127491 
L 62.102477 164.056515 
L 63.191258 151.002816 
L 64.280038 139.788926 
L 65.368819 90.161987 
L 66.457599 73.226844 
L 67.54638 79.930908 
L 68.63516 63.162834 
L 69.723941 67.394559 
L 70.812721 87.608872 
L 71.901502 95.307164 
L 72.990282 130.829051 
L 74.079063 130.923693 
L 76.256623 149.07322 
L 77.345404 145.514995 
L 78.434184 165.230701 
L 79.522965 172.15619 
L 80.611745 183.990017 
L 81.700526 198.107108 
L 82.789306 192.195781 
L 83.878087 190.267628 
L 84.966867 190.194295 
L 86.055648 178.776002 
L 87.144428 185.572177 
L 88.233209 190.372599 
L 89.321989 184.54832 
L 90.41077 186.766963 
L 91.49955 189.473261 
L 92.588331 190.069324 
L 93.677111 192.410021 
L 96.943453 195.044354 
L 98.032233 196.351076 
L 99.121014 194.867136 
L 100.209794 189.335364 
L 101.298575 189.603599 
L 102.387355 190.360547 
L 103.476136 189.394825 
L 104.564916 190.342872 
L 105.653697 188.74688 
L 106.742477 192.084855 
L 107.831258 203.69443 
L 108.920038 208.628052 
L 110.008819 214.390906 
L 111.097599 214.306201 
L 112.18638 212.043229 
L 113.27516 210.791529 
L 114.363941 205.110817 
L 116.541502 181.995215 
L 117.630282 177.300368 
L 118.719063 180.166067 
L 119.807843 188.02426 
L 120.896623 198.022962 
L 123.074184 213.03684 
L 124.162965 228.256977 
L 125.251745 235.194567 
L 126.340526 240.763189 
L 127.429306 244.49752 
L 128.518087 245.259188 
L 130.695648 250.498685 
L 131.784428 249.519384 
L 132.873209 249.59516 
L 133.961989 247.032432 
L 135.05077 241.548346 
L 136.13955 240.987516 
L 138.317111 234.646856 
L 139.405892 235.892398 
L 141.583453 226.256947 
L 142.672233 231.579139 
L 143.761014 236.122417 
L 144.849794 238.507266 
L 145.938575 242.782759 
L 147.027355 238.331566 
L 148.116136 232.634606 
L 149.204916 231.587191 
L 150.293697 239.646891 
L 151.382477 229.193149 
L 152.471258 229.040635 
L 153.560038 225.896331 
L 154.648819 217.632953 
L 155.737599 221.78581 
L 156.82638 212.266073 
L 157.91516 208.065956 
L 159.003941 206.313066 
L 160.092721 213.521109 
L 161.181502 226.061058 
L 162.270282 227.980673 
L 163.359063 222.980288 
L 164.447843 233.074257 
L 165.536623 221.710038 
L 166.625404 228.075685 
L 167.714184 230.662107 
L 168.802965 216.432907 
L 169.891745 221.898783 
L 170.980526 223.537176 
L 172.069306 218.034898 
L 173.158087 235.927619 
L 174.246867 230.806248 
L 175.335648 215.976432 
L 176.424428 216.679967 
L 177.513209 192.041922 
L 178.601989 192.910047 
L 179.69077 202.612348 
L 180.77955 185.877122 
L 181.868331 190.175906 
L 182.957111 204.536808 
L 184.045892 198.448671 
L 185.134672 209.676726 
L 186.223453 211.634562 
L 187.312233 199.686873 
L 188.401014 201.281933 
L 189.489794 206.126362 
L 190.578575 196.71423 
L 191.667355 197.268091 
L 192.756136 196.960725 
L 193.844916 183.923798 
L 194.933697 185.627441 
L 196.022477 185.325715 
L 197.111258 176.313222 
L 198.200038 174.670499 
L 199.288819 188.327129 
L 200.377599 180.177036 
L 202.55516 200.262414 
L 203.643941 183.839538 
L 204.732721 194.796847 
L 205.821502 198.049398 
L 206.910282 188.189868 
L 207.999063 200.271432 
L 209.087843 201.939318 
L 210.176623 207.269481 
L 211.265404 213.289999 
L 212.354184 204.949238 
L 213.442965 203.848238 
L 214.531745 195.139464 
L 215.620526 194.305696 
L 216.709306 193.674278 
L 217.798087 188.888776 
L 218.886867 191.5016 
L 219.975648 187.892686 
L 221.064428 198.041309 
L 222.153209 193.005785 
L 223.241989 187.405469 
L 224.33077 192.869183 
L 225.41955 188.066754 
L 226.508331 194.64471 
L 227.597111 194.587132 
L 228.685892 183.841066 
L 229.774672 186.599767 
L 230.863453 192.921842 
L 231.952233 198.395901 
L 233.041014 211.065593 
L 235.218575 196.858291 
L 236.307355 195.13317 
L 237.396136 187.209652 
L 238.484916 185.572071 
L 239.573697 178.699715 
L 240.662477 175.832866 
L 241.751258 178.493445 
L 242.840038 178.184745 
L 243.928819 181.575194 
L 245.017599 185.331186 
L 246.10638 186.329848 
L 247.19516 196.546057 
L 248.283941 202.936162 
L 249.372721 204.510717 
L 250.461502 205.626636 
L 251.550282 203.868227 
L 252.639063 199.222196 
L 253.727843 195.776348 
L 254.816623 199.414406 
L 255.905404 201.670223 
L 256.994184 203.378204 
L 258.082965 210.206468 
L 259.171745 208.524885 
L 260.260526 210.766072 
L 261.349306 225.546373 
L 263.526867 229.083162 
L 264.615648 236.464788 
L 265.704428 237.497733 
L 266.793209 234.806213 
L 267.881989 221.777563 
L 268.97077 187.059161 
L 270.05955 156.996009 
L 271.148331 152.052377 
L 272.237111 173.746238 
L 273.325892 188.21243 
L 274.414672 199.845473 
L 275.503453 216.297816 
L 277.681014 244.014071 
L 278.769794 246.895303 
L 279.858575 234.888058 
L 280.947355 233.419403 
L 282.036136 239.247932 
L 283.124916 243.609469 
L 284.213697 252.205565 
L 285.302477 251.204953 
L 286.391258 244.342162 
L 287.480038 243.23247 
L 288.568819 243.18381 
L 289.657599 240.595936 
L 290.74638 244.706237 
L 291.83516 244.25254 
L 292.923941 241.813187 
L 294.012721 240.314936 
L 295.101502 246.039879 
L 296.190282 248.270489 
L 297.279063 250.000714 
L 298.367843 249.838473 
L 299.456623 243.336882 
L 300.545404 240.659262 
L 301.634184 232.232699 
L 302.722965 228.85032 
L 303.811745 221.92811 
L 304.900526 216.625799 
L 305.989306 224.341012 
L 307.078087 224.305296 
L 308.166867 232.157378 
L 309.255648 231.895875 
L 310.344428 230.002881 
L 311.433209 239.449318 
L 312.521989 231.67145 
L 313.61077 230.453386 
L 314.69955 232.608966 
L 315.788331 217.294661 
L 316.877111 218.652145 
L 317.965892 224.730893 
L 319.054672 226.036156 
L 320.143453 239.412963 
L 321.232233 246.900947 
L 322.321014 248.666268 
L 323.409794 247.606781 
L 324.498575 241.709108 
L 325.587355 238.715508 
L 326.676136 229.449148 
L 327.764916 228.566113 
L 328.853697 215.237231 
L 329.942477 199.101393 
L 331.031258 201.497978 
L 332.120038 196.262164 
L 333.208819 201.188106 
L 334.297599 211.008323 
L 335.38638 210.81501 
L 336.47516 216.028823 
L 337.563941 231.439145 
L 339.741502 238.256773 
L 340.830282 239.534264 
L 341.919063 241.103387 
L 343.007843 237.564451 
L 344.096623 237.772997 
L 345.185404 235.524322 
L 346.274184 226.940241 
L 347.362965 225.659602 
L 348.451745 217.875523 
L 349.540526 230.879977 
L 350.629306 223.746317 
L 351.718087 210.571632 
L 352.806867 210.586262 
L 353.895648 181.23276 
L 354.984428 188.387747 
L 356.073209 222.631901 
L 357.161989 211.503893 
L 358.25077 226.523011 
L 359.33955 235.045011 
L 360.428331 223.94509 
L 361.517111 244.629308 
L 363.694672 211.905399 
L 364.783453 207.461883 
L 365.872233 196.157487 
L 366.961014 211.571442 
L 368.049794 215.092211 
L 369.138575 209.744566 
L 370.227355 221.301717 
L 371.316136 224.484392 
L 372.404916 223.115774 
L 373.493697 222.587786 
L 374.582477 210.4151 
L 375.671258 201.651481 
L 376.760038 211.994848 
L 377.848819 212.759506 
L 378.937599 207.682134 
L 380.02638 215.434441 
L 381.11516 221.513588 
L 382.203941 229.833401 
L 383.292721 240.422297 
L 384.381502 239.871335 
L 385.470282 232.767645 
L 385.470282 232.767645 
" clip-path="url(#pf773de83c5)" style="fill: none; stroke: #d62728; stroke-width: 1.5; stroke-linecap: square"/>
   </g>
   <g id="line2d_22">
    <path d="M 29.439063 222.506149 
L 30.527843 229.225195 
L 31.616623 244.328125 
L 32.705404 247.402355 
L 34.882965 258.019032 
L 35.971745 257.295259 
L 37.060526 249.2435 
L 38.149306 246.974437 
L 39.238087 234.54074 
L 40.326867 231.861658 
L 41.415648 231.553594 
L 42.504428 227.717781 
L 43.593209 232.012654 
L 44.681989 247.643113 
L 46.85955 246.413994 
L 47.948331 251.305355 
L 49.037111 234.325278 
L 50.125892 214.484016 
L 51.214672 201.387908 
L 52.303453 163.586194 
L 53.392233 129.858474 
L 54.481014 141.397281 
L 55.569794 125.3209 
L 56.658575 134.972888 
L 57.747355 154.989431 
L 58.836136 158.76708 
L 59.924916 155.361922 
L 61.013697 182.873277 
L 62.102477 162.532711 
L 63.191258 145.998895 
L 64.280038 142.271252 
L 65.368819 131.739654 
L 66.457599 80.2958 
L 67.54638 74.469261 
L 68.63516 71.612377 
L 69.723941 73.369884 
L 70.812721 78.170446 
L 71.901502 92.205622 
L 72.990282 114.651386 
L 74.079063 126.98029 
L 75.167843 135.707335 
L 76.256623 141.820322 
L 77.345404 152.338799 
L 78.434184 155.572908 
L 79.522965 168.629853 
L 80.611745 177.501124 
L 81.700526 192.046346 
L 82.789306 191.863517 
L 83.878087 188.562489 
L 84.966867 191.603524 
L 86.055648 188.124556 
L 87.144428 181.447777 
L 88.233209 187.0666 
L 89.321989 187.0915 
L 90.41077 185.34807 
L 91.49955 189.913695 
L 92.588331 190.637736 
L 93.677111 188.763136 
L 95.854672 195.654061 
L 96.943453 195.075047 
L 98.032233 193.860278 
L 99.121014 194.307816 
L 100.209794 192.563919 
L 101.298575 191.542008 
L 103.476136 188.685177 
L 104.564916 188.893792 
L 105.653697 191.078975 
L 106.742477 192.074346 
L 107.831258 199.593102 
L 108.920038 204.565698 
L 110.008819 210.577143 
L 111.097599 212.428944 
L 112.18638 214.907852 
L 113.27516 210.23647 
L 114.363941 207.817891 
L 115.452721 196.188428 
L 116.541502 189.862088 
L 117.630282 182.770205 
L 118.719063 183.291563 
L 119.807843 181.712392 
L 120.896623 193.113415 
L 123.074184 211.463604 
L 125.251745 230.909798 
L 127.429306 242.063784 
L 128.518087 245.919887 
L 129.606867 246.583547 
L 130.695648 248.741635 
L 131.784428 249.036102 
L 132.873209 249.952996 
L 133.961989 247.98217 
L 135.05077 243.701758 
L 136.13955 241.373489 
L 137.228331 240.72956 
L 138.317111 235.993508 
L 140.494672 232.924776 
L 141.583453 229.099784 
L 142.672233 230.988135 
L 143.761014 235.724345 
L 144.849794 235.091221 
L 145.938575 238.923995 
L 147.027355 240.309621 
L 148.116136 236.532871 
L 149.204916 231.439783 
L 150.293697 239.832571 
L 151.382477 229.288225 
L 152.471258 229.025515 
L 153.560038 226.018762 
L 154.648819 229.776904 
L 155.737599 213.604985 
L 156.82638 215.680869 
L 157.91516 209.062995 
L 159.003941 214.984372 
L 160.092721 210.206824 
L 161.181502 219.314815 
L 162.270282 222.17396 
L 163.359063 226.369517 
L 164.447843 231.430807 
L 165.536623 225.577264 
L 166.625404 223.851206 
L 167.714184 228.555607 
L 168.802965 226.648719 
L 169.891745 216.031922 
L 170.980526 225.28565 
L 172.069306 220.640156 
L 173.158087 231.061495 
L 174.246867 227.73105 
L 175.335648 220.726004 
L 176.424428 215.037011 
L 177.513209 213.157231 
L 178.601989 191.720756 
L 179.69077 196.460668 
L 180.77955 191.350375 
L 181.868331 191.757527 
L 182.957111 201.836996 
L 184.045892 200.792232 
L 185.134672 197.550137 
L 186.223453 211.894043 
L 187.312233 208.846332 
L 188.401014 198.115669 
L 189.489794 203.773183 
L 190.578575 201.828184 
L 191.667355 197.214919 
L 192.756136 195.912493 
L 194.933697 185.115566 
L 196.022477 188.215948 
L 197.111258 179.230873 
L 198.200038 171.901027 
L 199.288819 188.619752 
L 200.377599 183.951829 
L 201.46638 183.070739 
L 202.55516 191.957715 
L 203.643941 195.323676 
L 204.732721 189.316525 
L 205.821502 197.266248 
L 206.910282 190.602066 
L 207.999063 195.331172 
L 209.087843 203.427593 
L 210.176623 207.153921 
L 211.265404 203.660003 
L 212.354184 208.209749 
L 213.442965 206.225655 
L 214.531745 201.968952 
L 215.620526 193.086981 
L 216.709306 192.080368 
L 217.798087 193.671134 
L 218.886867 192.037551 
L 219.975648 187.230909 
L 221.064428 195.127704 
L 222.153209 193.136595 
L 223.241989 190.879234 
L 224.33077 188.360647 
L 225.41955 195.259724 
L 226.508331 190.323195 
L 227.597111 192.16594 
L 228.685892 185.535827 
L 229.774672 190.356327 
L 230.863453 194.157665 
L 231.952233 195.231943 
L 233.041014 199.805793 
L 234.129794 205.75506 
L 235.218575 201.980701 
L 236.307355 196.973377 
L 238.484916 184.857416 
L 239.573697 182.068236 
L 240.662477 180.423619 
L 241.751258 177.468219 
L 242.840038 177.562124 
L 243.928819 178.80059 
L 245.017599 185.690961 
L 246.10638 185.834271 
L 248.283941 198.87215 
L 249.372721 203.82049 
L 250.461502 202.259429 
L 251.550282 205.894119 
L 252.639063 200.979192 
L 253.727843 198.165651 
L 254.816623 198.124359 
L 255.905404 202.74615 
L 256.994184 200.578123 
L 258.082965 207.104849 
L 259.171745 208.241904 
L 260.260526 211.671763 
L 261.349306 220.244674 
L 262.438087 226.078778 
L 263.526867 223.863886 
L 264.615648 233.998962 
L 265.704428 240.383726 
L 266.793209 233.517676 
L 267.881989 219.293385 
L 268.97077 203.251104 
L 270.05955 183.622751 
L 271.148331 167.197618 
L 272.237111 165.252998 
L 273.325892 172.562654 
L 274.414672 194.202864 
L 275.503453 213.618043 
L 276.592233 226.041419 
L 277.681014 232.462632 
L 278.769794 241.448056 
L 279.858575 239.391526 
L 280.947355 238.737845 
L 282.036136 239.787062 
L 283.124916 241.114508 
L 284.213697 244.070253 
L 285.302477 251.48424 
L 287.480038 244.248661 
L 288.568819 243.731784 
L 289.657599 242.244278 
L 290.74638 242.65733 
L 291.83516 244.176889 
L 292.923941 242.605043 
L 294.012721 239.931252 
L 295.101502 246.935916 
L 296.190282 247.059347 
L 297.279063 247.328921 
L 298.367843 246.558014 
L 299.456623 249.176368 
L 300.545404 242.836748 
L 301.634184 234.590488 
L 302.722965 229.319501 
L 303.811745 227.373291 
L 304.900526 221.952487 
L 305.989306 220.862935 
L 307.078087 222.835301 
L 308.166867 230.068009 
L 309.255648 230.003639 
L 310.344428 231.284555 
L 311.433209 235.291923 
L 312.521989 235.670859 
L 313.61077 228.611926 
L 314.69955 231.859133 
L 315.788331 225.800643 
L 316.877111 218.691941 
L 317.965892 222.921585 
L 319.054672 228.392567 
L 320.143453 231.680575 
L 321.232233 242.787511 
L 322.321014 246.709389 
L 323.409794 246.472815 
L 324.498575 243.713377 
L 325.587355 242.251513 
L 326.676136 232.996184 
L 327.764916 230.328151 
L 328.853697 217.506195 
L 331.031258 202.444106 
L 332.120038 204.81148 
L 333.208819 193.751729 
L 334.297599 206.275183 
L 335.38638 211.656683 
L 336.47516 216.266542 
L 337.563941 223.305393 
L 338.652721 233.047093 
L 339.741502 233.898707 
L 340.830282 238.766741 
L 341.919063 242.515821 
L 343.007843 237.896497 
L 344.096623 236.121135 
L 345.185404 236.59999 
L 346.274184 232.917594 
L 347.362965 225.295033 
L 348.451745 220.440519 
L 349.540526 231.054901 
L 350.629306 223.345173 
L 351.718087 212.189456 
L 352.806867 207.93829 
L 353.895648 206.054431 
L 354.984428 188.0728 
L 356.073209 211.199039 
L 357.161989 208.701605 
L 359.33955 230.900906 
L 360.428331 235.641406 
L 361.517111 229.113732 
L 362.605892 231.97843 
L 363.694672 219.871379 
L 365.872233 208.516872 
L 366.961014 202.5267 
L 368.049794 208.814891 
L 369.138575 212.61957 
L 370.227355 219.624428 
L 371.316136 224.597112 
L 372.404916 218.369966 
L 373.493697 218.790986 
L 374.582477 220.115873 
L 375.671258 209.632221 
L 376.760038 207.904703 
L 377.848819 210.24341 
L 378.937599 208.073872 
L 380.02638 213.692434 
L 381.11516 223.256838 
L 382.203941 224.972284 
L 384.381502 238.889668 
L 385.470282 236.363955 
L 385.470282 236.363955 
" clip-path="url(#pf773de83c5)" style="fill: none; stroke: #9467bd; stroke-width: 1.5; stroke-linecap: square"/>
   </g>
   <g id="line2d_23">
    <path d="M 29.439063 221.989476 
L 30.527843 228.904971 
L 31.616623 237.483987 
L 33.794184 250.133055 
L 35.971745 256.994611 
L 37.060526 253.038847 
L 39.238087 239.915086 
L 40.326867 236.632969 
L 41.415648 235.239876 
L 42.504428 227.68395 
L 43.593209 231.670455 
L 44.681989 240.522 
L 45.77077 246.901912 
L 46.85955 247.094508 
L 47.948331 245.135114 
L 49.037111 236.98727 
L 50.125892 227.417148 
L 51.214672 209.558869 
L 53.392233 154.479575 
L 54.481014 136.912814 
L 55.569794 136.626651 
L 56.658575 143.651398 
L 57.747355 138.702995 
L 58.836136 150.24993 
L 59.924916 157.637623 
L 61.013697 172.805614 
L 62.102477 172.308881 
L 63.191258 147.756838 
L 64.280038 139.424444 
L 65.368819 135.249771 
L 66.457599 118.380389 
L 67.54638 80.14313 
L 68.63516 68.347758 
L 69.723941 78.528388 
L 71.901502 83.731536 
L 72.990282 109.142714 
L 74.079063 114.016671 
L 75.167843 131.704446 
L 76.256623 137.894546 
L 77.345404 145.867244 
L 78.434184 159.375849 
L 79.522965 160.199988 
L 80.611745 173.774933 
L 81.700526 185.603024 
L 82.789306 187.691034 
L 84.966867 189.973888 
L 86.055648 189.661866 
L 87.144428 188.720384 
L 88.233209 183.420157 
L 89.321989 184.839306 
L 90.41077 187.32764 
L 91.49955 188.234936 
L 92.588331 190.808875 
L 93.677111 189.459306 
L 94.765892 189.315904 
L 95.854672 194.488321 
L 96.943453 196.222111 
L 98.032233 194.084129 
L 99.121014 192.551171 
L 100.209794 192.477858 
L 101.298575 193.836383 
L 102.387355 191.623847 
L 103.476136 188.740474 
L 104.564916 188.38451 
L 105.653697 189.755489 
L 106.742477 193.432394 
L 107.831258 198.363082 
L 108.920038 201.032618 
L 110.008819 206.925265 
L 111.097599 209.543013 
L 112.18638 213.252545 
L 113.27516 212.963095 
L 114.363941 207.846519 
L 116.541502 192.369156 
L 117.630282 189.197994 
L 119.807843 184.042107 
L 120.896623 187.198671 
L 124.162965 218.675332 
L 125.251745 224.780796 
L 126.340526 232.725185 
L 128.518087 243.690539 
L 129.606867 246.907814 
L 130.695648 247.474879 
L 131.784428 247.797075 
L 132.873209 249.480254 
L 133.961989 248.556817 
L 135.05077 245.08607 
L 136.13955 243.204053 
L 138.317111 238.815428 
L 140.494672 232.270423 
L 141.583453 231.130882 
L 142.672233 232.49656 
L 143.761014 234.57189 
L 144.849794 234.929153 
L 145.938575 236.028174 
L 147.027355 237.444895 
L 148.116136 238.514573 
L 149.204916 234.934333 
L 150.293697 238.395766 
L 151.382477 231.266365 
L 152.471258 229.132824 
L 153.560038 226.515892 
L 154.648819 229.239417 
L 155.737599 224.817696 
L 156.82638 209.621523 
L 157.91516 212.522123 
L 160.092721 216.641101 
L 161.181502 215.732855 
L 162.270282 217.061613 
L 163.359063 221.758769 
L 164.447843 232.710465 
L 165.536623 225.409058 
L 166.625404 226.675144 
L 167.714184 224.981941 
L 168.802965 225.516094 
L 169.891745 224.706134 
L 170.980526 219.993368 
L 172.069306 222.621729 
L 173.158087 230.960194 
L 174.246867 224.808205 
L 175.335648 219.699069 
L 176.424428 219.194515 
L 177.513209 212.348296 
L 178.601989 209.65087 
L 179.69077 194.907088 
L 180.77955 187.807324 
L 181.868331 195.211158 
L 182.957111 201.189777 
L 184.045892 199.121299 
L 185.134672 199.667689 
L 186.223453 201.664094 
L 187.312233 209.536309 
L 188.401014 206.137929 
L 189.489794 200.771985 
L 190.578575 200.539284 
L 191.667355 201.393693 
L 193.844916 190.557175 
L 194.933697 190.24811 
L 196.022477 187.367939 
L 197.111258 182.763564 
L 198.200038 175.139954 
L 199.288819 184.260041 
L 201.46638 185.693006 
L 202.55516 186.011723 
L 203.643941 189.053189 
L 204.732721 197.746163 
L 205.821502 192.377572 
L 206.910282 191.188962 
L 207.999063 196.093335 
L 209.087843 198.888857 
L 210.176623 207.49831 
L 212.354184 200.805821 
L 213.442965 208.713277 
L 214.531745 204.293783 
L 215.620526 199.221764 
L 216.709306 191.424833 
L 217.798087 192.344692 
L 218.886867 195.438584 
L 219.975648 188.410429 
L 221.064428 193.421343 
L 222.153209 191.466693 
L 223.241989 191.34645 
L 224.33077 191.086209 
L 225.41955 191.173373 
L 226.508331 195.888562 
L 227.597111 188.934661 
L 228.685892 184.957424 
L 230.863453 195.922878 
L 231.952233 195.865522 
L 233.041014 196.964714 
L 234.129794 196.992366 
L 235.218575 203.993471 
L 236.307355 201.233957 
L 237.396136 193.29733 
L 238.484916 188.48751 
L 239.573697 182.050611 
L 240.662477 182.922867 
L 241.751258 180.997684 
L 242.840038 176.85942 
L 243.928819 178.181248 
L 245.017599 182.759312 
L 246.10638 186.049535 
L 247.19516 190.908696 
L 248.283941 194.995539 
L 249.372721 200.316108 
L 250.461502 202.053777 
L 251.550282 203.05515 
L 252.639063 203.188982 
L 253.727843 199.818307 
L 254.816623 199.700281 
L 255.905404 201.146293 
L 256.994184 201.664569 
L 258.082965 204.221356 
L 259.171745 205.956449 
L 260.260526 210.922625 
L 261.349306 219.423925 
L 262.438087 221.610325 
L 263.526867 223.37897 
L 264.615648 229.049003 
L 265.704428 237.766712 
L 266.793209 236.693885 
L 268.97077 204.185953 
L 270.05955 198.109798 
L 272.237111 175.034151 
L 273.325892 165.669523 
L 274.414672 180.766015 
L 275.503453 207.173387 
L 276.592233 222.415569 
L 277.681014 228.878611 
L 278.769794 232.116043 
L 279.858575 235.824645 
L 280.947355 241.744141 
L 282.036136 242.955834 
L 283.124916 241.247706 
L 284.213697 241.929208 
L 285.302477 244.83055 
L 286.391258 248.808845 
L 287.480038 247.351661 
L 288.568819 244.492239 
L 289.657599 242.862764 
L 290.74638 243.66558 
L 291.83516 242.552297 
L 292.923941 242.817807 
L 294.012721 240.92033 
L 295.101502 245.569599 
L 296.190282 247.629856 
L 297.279063 246.468575 
L 298.367843 244.839602 
L 299.456623 246.543437 
L 300.545404 247.840138 
L 301.634184 237.555391 
L 302.722965 231.830536 
L 303.811745 228.017048 
L 304.900526 226.505229 
L 305.989306 224.482092 
L 307.078087 220.162131 
L 308.166867 227.964603 
L 309.255648 228.595117 
L 310.344428 229.804007 
L 311.433209 235.451266 
L 312.521989 232.73684 
L 313.61077 232.56268 
L 314.69955 230.112794 
L 315.788331 226.306774 
L 316.877111 225.520005 
L 317.965892 222.253967 
L 319.054672 226.331124 
L 320.143453 232.637563 
L 321.232233 236.043033 
L 322.321014 243.321083 
L 323.409794 245.177288 
L 324.498575 243.392969 
L 325.587355 243.825994 
L 326.676136 237.09032 
L 327.764916 233.124849 
L 328.853697 221.039659 
L 329.942477 212.702705 
L 331.031258 210.684665 
L 332.120038 205.036894 
L 333.208819 201.452401 
L 334.297599 199.483568 
L 336.47516 216.050304 
L 337.563941 222.313926 
L 338.652721 226.144196 
L 339.741502 232.416854 
L 340.830282 235.082206 
L 341.919063 241.405172 
L 343.007843 239.654475 
L 344.096623 236.643814 
L 346.274184 234.275732 
L 347.362965 230.64629 
L 348.451745 221.01198 
L 349.540526 230.898177 
L 350.629306 224.796132 
L 351.718087 213.836756 
L 352.806867 209.756475 
L 353.895648 204.548007 
L 354.984428 207.130202 
L 356.073209 207.450722 
L 357.161989 200.66163 
L 358.25077 216.005997 
L 359.33955 224.572582 
L 360.428331 232.120267 
L 361.517111 237.700452 
L 362.605892 219.860697 
L 363.694672 224.810058 
L 364.783453 220.473006 
L 365.872233 214.0332 
L 366.961014 211.447442 
L 368.049794 201.640442 
L 369.138575 207.732467 
L 370.227355 220.268411 
L 371.316136 222.695635 
L 372.404916 219.51243 
L 373.493697 215.447644 
L 374.582477 217.315148 
L 375.671258 217.950687 
L 376.760038 213.291937 
L 377.848819 207.095546 
L 378.937599 206.703642 
L 380.02638 213.024949 
L 381.11516 220.627892 
L 382.203941 225.818628 
L 383.292721 227.452042 
L 385.470282 236.113523 
L 385.470282 236.113523 
" clip-path="url(#pf773de83c5)" style="fill: none; stroke: #8c564b; stroke-width: 1.5; stroke-linecap: square"/>
   </g>
   <g id="line2d_24">
    <path d="M 29.439063 224.216778 
L 30.527843 227.596136 
L 31.616623 236.094002 
L 32.705404 238.285498 
L 33.794184 247.009287 
L 34.882965 251.173405 
L 35.971745 253.38057 
L 37.060526 253.391419 
L 38.149306 250.111493 
L 39.238087 240.35466 
L 40.326867 240.873149 
L 41.415648 238.743918 
L 42.504428 231.524757 
L 43.593209 231.087585 
L 44.681989 239.084283 
L 45.77077 240.893702 
L 46.85955 246.996197 
L 47.948331 245.910647 
L 49.037111 233.085415 
L 50.125892 230.86679 
L 51.214672 221.875268 
L 52.303453 192.984554 
L 53.392233 172.579527 
L 54.481014 156.56697 
L 55.569794 133.393898 
L 56.658575 150.105108 
L 57.747355 145.513232 
L 58.836136 136.739153 
L 59.924916 150.483069 
L 61.013697 172.207681 
L 62.102477 164.739432 
L 63.191258 159.007124 
L 64.280038 141.932814 
L 65.368819 133.752243 
L 67.54638 113.209754 
L 68.63516 74.203567 
L 69.723941 74.821343 
L 70.812721 84.425418 
L 71.901502 85.512302 
L 72.990282 100.005778 
L 74.079063 109.382331 
L 75.167843 120.19955 
L 76.256623 134.191304 
L 77.345404 141.997781 
L 78.434184 153.047456 
L 79.522965 162.735832 
L 80.611745 166.052801 
L 81.700526 181.433711 
L 82.789306 182.665304 
L 83.878087 185.684395 
L 84.966867 190.052933 
L 86.055648 188.528151 
L 87.144428 189.949308 
L 88.233209 189.323584 
L 89.321989 181.997329 
L 90.41077 185.368481 
L 91.49955 189.494891 
L 92.588331 189.251731 
L 93.677111 189.776067 
L 94.765892 189.831957 
L 95.854672 191.63289 
L 96.943453 195.146246 
L 98.032233 195.216294 
L 99.121014 192.932486 
L 100.209794 191.218756 
L 101.298575 193.58218 
L 102.387355 193.580143 
L 103.476136 190.258975 
L 104.564916 188.474989 
L 105.653697 189.198645 
L 106.742477 191.981943 
L 107.831258 198.601115 
L 108.920038 199.784621 
L 110.008819 203.618883 
L 111.097599 206.544268 
L 112.18638 210.681256 
L 113.27516 211.804545 
L 114.363941 210.573035 
L 115.452721 201.272819 
L 117.630282 191.453746 
L 118.719063 191.567199 
L 119.807843 186.873421 
L 120.896623 188.362043 
L 121.985404 191.892493 
L 124.162965 214.499122 
L 125.251745 222.158824 
L 126.340526 227.322903 
L 127.429306 234.922937 
L 128.518087 240.308315 
L 129.606867 244.880253 
L 130.695648 247.623529 
L 131.784428 246.836933 
L 132.873209 248.36133 
L 133.961989 248.346486 
L 135.05077 246.014508 
L 136.13955 244.469403 
L 137.228331 242.710852 
L 138.317111 239.410904 
L 139.405892 238.158751 
L 140.494672 233.598803 
L 141.583453 230.819473 
L 142.672233 233.710105 
L 143.761014 235.321048 
L 144.849794 234.048867 
L 145.938575 235.757231 
L 147.027355 235.145673 
L 148.116136 236.280027 
L 149.204916 236.891486 
L 150.293697 240.248563 
L 151.382477 231.206691 
L 152.471258 230.855381 
L 153.560038 226.97232 
L 154.648819 229.200263 
L 155.737599 225.060755 
L 156.82638 220.171876 
L 157.91516 207.679122 
L 159.003941 216.719103 
L 160.092721 216.123738 
L 161.181502 220.271379 
L 162.270282 214.26839 
L 163.359063 217.436337 
L 164.447843 228.104504 
L 165.536623 227.449084 
L 166.625404 226.376218 
L 167.714184 227.223636 
L 168.802965 222.819885 
L 169.891745 223.999794 
L 170.980526 226.684388 
L 172.069306 218.385403 
L 173.158087 231.107781 
L 174.246867 225.63427 
L 175.335648 218.212387 
L 176.424428 218.52415 
L 177.513209 216.383034 
L 178.601989 209.44702 
L 179.69077 209.664523 
L 180.77955 187.671964 
L 181.868331 191.709338 
L 182.957111 202.671045 
L 184.045892 198.947973 
L 185.134672 198.387136 
L 186.223453 202.852002 
L 187.312233 201.008475 
L 188.401014 207.131896 
L 189.489794 207.18111 
L 190.578575 198.380668 
L 191.667355 200.348606 
L 192.756136 199.87207 
L 193.844916 191.497092 
L 194.933697 190.446999 
L 196.022477 191.399083 
L 197.111258 182.804438 
L 198.200038 178.836405 
L 199.288819 185.145917 
L 200.377599 181.658839 
L 201.46638 186.284838 
L 202.55516 187.806378 
L 203.643941 184.297498 
L 204.732721 192.130815 
L 205.821502 199.063592 
L 206.910282 187.727666 
L 207.999063 195.808404 
L 209.087843 199.024939 
L 210.176623 203.154815 
L 211.265404 204.902638 
L 212.354184 201.663825 
L 213.442965 202.345891 
L 214.531745 206.736348 
L 217.798087 191.746216 
L 218.886867 194.064329 
L 219.975648 191.922213 
L 221.064428 193.527147 
L 222.153209 190.499864 
L 223.241989 190.157175 
L 224.33077 191.456708 
L 225.41955 193.073793 
L 226.508331 192.318328 
L 227.597111 193.959995 
L 228.685892 183.119016 
L 230.863453 195.385749 
L 231.952233 197.120655 
L 233.041014 197.255697 
L 234.129794 194.920628 
L 235.218575 196.680503 
L 236.307355 203.076989 
L 237.396136 197.57802 
L 238.484916 190.830877 
L 239.573697 185.624953 
L 240.662477 182.786056 
L 241.751258 183.053444 
L 242.840038 179.987536 
L 243.928819 177.492985 
L 245.017599 181.681811 
L 246.10638 183.494688 
L 247.19516 190.37394 
L 249.372721 196.827227 
L 250.461502 199.273135 
L 251.550282 202.7665 
L 252.639063 201.103242 
L 253.727843 201.896283 
L 254.816623 200.885534 
L 255.905404 202.043694 
L 256.994184 200.439377 
L 258.082965 204.616121 
L 259.171745 203.633554 
L 260.260526 208.62509 
L 261.349306 217.74467 
L 262.438087 220.720925 
L 263.526867 219.863341 
L 264.615648 227.927071 
L 265.704428 233.158476 
L 266.793209 234.910488 
L 267.881989 225.785975 
L 268.97077 207.941713 
L 270.05955 199.687402 
L 271.148331 198.707123 
L 272.237111 190.269042 
L 273.325892 174.012436 
L 274.414672 174.001014 
L 276.592233 216.068495 
L 277.681014 225.453198 
L 278.769794 229.092188 
L 279.858575 228.265121 
L 280.947355 238.433858 
L 282.036136 244.842663 
L 283.124916 243.724589 
L 284.213697 241.926549 
L 285.302477 242.904976 
L 286.391258 243.356351 
L 287.480038 248.122206 
L 288.568819 247.117699 
L 289.657599 243.645552 
L 290.74638 243.986768 
L 291.83516 243.433191 
L 292.923941 241.603178 
L 294.012721 241.348576 
L 295.101502 245.588154 
L 297.279063 247.045601 
L 298.367843 244.443331 
L 300.545404 245.747859 
L 301.634184 242.868152 
L 302.722965 234.842259 
L 303.811745 230.38515 
L 304.900526 227.185875 
L 305.989306 227.958074 
L 307.078087 223.389952 
L 308.166867 225.05755 
L 309.255648 226.98329 
L 310.344428 228.624362 
L 311.433209 233.647225 
L 312.521989 233.246031 
L 313.61077 230.430796 
L 314.69955 233.251507 
L 315.788331 225.549898 
L 316.877111 225.995159 
L 317.965892 227.465659 
L 319.054672 225.295127 
L 320.143453 230.343622 
L 321.232233 236.22079 
L 322.321014 237.527549 
L 323.409794 242.454916 
L 324.498575 242.69455 
L 325.587355 243.535674 
L 326.676136 239.268226 
L 327.764916 236.622724 
L 328.853697 225.01847 
L 329.942477 216.551369 
L 331.031258 213.028343 
L 332.120038 211.640465 
L 333.208819 202.135661 
L 334.297599 205.063105 
L 335.38638 201.700388 
L 336.47516 212.108094 
L 337.563941 221.294101 
L 338.652721 224.91422 
L 339.741502 226.586756 
L 340.830282 233.659203 
L 341.919063 237.965307 
L 343.007843 239.090415 
L 344.096623 238.351026 
L 346.274184 233.567325 
L 347.362965 232.163538 
L 348.451745 226.405136 
L 349.540526 229.918076 
L 350.629306 225.572872 
L 351.718087 216.58916 
L 353.895648 206.636402 
L 354.984428 205.696889 
L 356.073209 219.365454 
L 357.161989 198.769517 
L 358.25077 208.497259 
L 359.33955 221.001101 
L 360.428331 226.606567 
L 361.517111 234.457609 
L 362.605892 229.239561 
L 363.694672 214.906728 
L 364.783453 224.614148 
L 365.872233 219.388388 
L 366.961014 215.676684 
L 368.049794 209.501049 
L 369.138575 201.716173 
L 370.227355 215.272482 
L 371.316136 222.800972 
L 372.404916 218.557175 
L 373.493697 216.872474 
L 374.582477 214.634301 
L 375.671258 215.824891 
L 376.760038 219.75121 
L 378.937599 204.452877 
L 380.02638 211.199039 
L 381.11516 219.122065 
L 383.292721 227.812218 
L 384.381502 228.186767 
L 385.470282 230.361332 
L 385.470282 230.361332 
" clip-path="url(#pf773de83c5)" style="fill: none; stroke: #e377c2; stroke-width: 1.5; stroke-linecap: square"/>
   </g>
   <g id="patch_3">
    <path d="M 29.439063 284.991437 
L 29.439063 18.879437 
" style="fill: none; stroke: #000000; stroke-width: 0.8; stroke-linejoin: miter; stroke-linecap: square"/>
   </g>
   <g id="patch_4">
    <path d="M 386.559062 284.991437 
L 386.559062 18.879437 
" style="fill: none; stroke: #000000; stroke-width: 0.8; stroke-linejoin: miter; stroke-linecap: square"/>
   </g>
   <g id="patch_5">
    <path d="M 29.439063 284.991437 
L 386.559063 284.991437 
" style="fill: none; stroke: #000000; stroke-width: 0.8; stroke-linejoin: miter; stroke-linecap: square"/>
   </g>
   <g id="patch_6">
    <path d="M 29.439063 18.879437 
L 386.559063 18.879437 
" style="fill: none; stroke: #000000; stroke-width: 0.8; stroke-linejoin: miter; stroke-linecap: square"/>
   </g>
   <g id="legend_1">
    <g id="patch_7">
     <path d="M 341.260625 127.613812 
L 379.559062 127.613812 
Q 381.559062 127.613812 381.559062 125.613812 
L 381.559062 25.879437 
Q 381.559062 23.879437 379.559062 23.879437 
L 341.260625 23.879437 
Q 339.260625 23.879437 339.260625 25.879437 
L 339.260625 125.613812 
Q 339.260625 127.613812 341.260625 127.613812 
z
" style="fill: #ffffff; opacity: 0.8; stroke: #cccccc; stroke-linejoin: miter"/>
    </g>
    <g id="line2d_25">
     <path d="M 343.260625 31.870062 
L 353.260625 31.870062 
L 363.260625 31.870062 
" style="fill: none; stroke: #1f77b4; stroke-width: 1.5; stroke-linecap: square"/>
    </g>
    <g id="text_17">
     <!-- 1 -->
     <g transform="translate(371.260625 35.370062) scale(0.1 -0.1)">
      <use xlink:href="#IPAexGothic-31"/>
     </g>
    </g>
    <g id="line2d_26">
     <path d="M 343.260625 46.260687 
L 353.260625 46.260687 
L 363.260625 46.260687 
" style="fill: none; stroke: #ff7f0e; stroke-width: 1.5; stroke-linecap: square"/>
    </g>
    <g id="text_18">
     <!-- 2 -->
     <g transform="translate(371.260625 49.760687) scale(0.1 -0.1)">
      <use xlink:href="#IPAexGothic-32"/>
     </g>
    </g>
    <g id="line2d_27">
     <path d="M 343.260625 60.651312 
L 353.260625 60.651312 
L 363.260625 60.651312 
" style="fill: none; stroke: #2ca02c; stroke-width: 1.5; stroke-linecap: square"/>
    </g>
    <g id="text_19">
     <!-- 3 -->
     <g transform="translate(371.260625 64.151312) scale(0.1 -0.1)">
      <use xlink:href="#IPAexGothic-33"/>
     </g>
    </g>
    <g id="line2d_28">
     <path d="M 343.260625 75.041937 
L 353.260625 75.041937 
L 363.260625 75.041937 
" style="fill: none; stroke: #d62728; stroke-width: 1.5; stroke-linecap: square"/>
    </g>
    <g id="text_20">
     <!-- 4 -->
     <g transform="translate(371.260625 78.541937) scale(0.1 -0.1)">
      <defs>
       <path id="IPAexGothic-34" d="M 3813 1159 
L 3059 1159 
L 3059 63 
L 2547 63 
L 2547 1159 
L 197 1159 
L 197 1672 
L 2456 4678 
L 3059 4678 
L 3059 1634 
L 3813 1634 
L 3813 1159 
z
M 2578 4109 
L 2559 4109 
Q 2278 3656 2003 3284 
L 759 1634 
L 2547 1634 
L 2547 3144 
Q 2547 3481 2578 4109 
z
" transform="scale(0.015625)"/>
      </defs>
      <use xlink:href="#IPAexGothic-34"/>
     </g>
    </g>
    <g id="line2d_29">
     <path d="M 343.260625 89.432562 
L 353.260625 89.432562 
L 363.260625 89.432562 
" style="fill: none; stroke: #9467bd; stroke-width: 1.5; stroke-linecap: square"/>
    </g>
    <g id="text_21">
     <!-- 5 -->
     <g transform="translate(371.260625 92.932562) scale(0.1 -0.1)">
      <use xlink:href="#IPAexGothic-35"/>
     </g>
    </g>
    <g id="line2d_30">
     <path d="M 343.260625 103.823187 
L 353.260625 103.823187 
L 363.260625 103.823187 
" style="fill: none; stroke: #8c564b; stroke-width: 1.5; stroke-linecap: square"/>
    </g>
    <g id="text_22">
     <!-- 6 -->
     <g transform="translate(371.260625 107.323187) scale(0.1 -0.1)">
      <defs>
       <path id="IPAexGothic-36" d="M 1056 2328 
Q 1509 2981 2234 2981 
Q 2906 2981 3316 2513 
Q 3675 2106 3675 1522 
Q 3675 884 3272 434 
Q 2853 -31 2178 -31 
Q 1375 -31 922 581 
Q 481 1178 481 2228 
Q 481 3425 1013 4109 
Q 1494 4725 2272 4725 
Q 3191 4725 3609 4025 
L 3150 3775 
Q 2894 4266 2300 4266 
Q 1119 4266 1031 2328 
L 1056 2328 
z
M 2141 2547 
Q 1684 2547 1384 2206 
Q 1116 1900 1116 1541 
Q 1116 1156 1353 844 
Q 1672 428 2159 428 
Q 2669 428 2941 844 
Q 3125 1128 3125 1503 
Q 3125 1944 2881 2228 
Q 2600 2547 2141 2547 
z
" transform="scale(0.015625)"/>
      </defs>
      <use xlink:href="#IPAexGothic-36"/>
     </g>
    </g>
    <g id="line2d_31">
     <path d="M 343.260625 118.213812 
L 353.260625 118.213812 
L 363.260625 118.213812 
" style="fill: none; stroke: #e377c2; stroke-width: 1.5; stroke-linecap: square"/>
    </g>
    <g id="text_23">
     <!-- 7 -->
     <g transform="translate(371.260625 121.713812) scale(0.1 -0.1)">
      <defs>
       <path id="IPAexGothic-37" d="M 3597 4263 
Q 2238 2106 1778 63 
L 1131 63 
Q 1581 1834 2950 4128 
L 428 4128 
L 428 4634 
L 3597 4634 
L 3597 4263 
z
" transform="scale(0.015625)"/>
      </defs>
      <use xlink:href="#IPAexGothic-37"/>
     </g>
    </g>
   </g>
  </g>
  <g id="axes_2">
   <g id="matplotlib.axis_3"/>
   <g id="patch_8">
    <path d="M 29.439063 284.991437 
L 29.439063 18.879437 
" style="fill: none; stroke: #000000; stroke-width: 0.8; stroke-linejoin: miter; stroke-linecap: square"/>
   </g>
   <g id="patch_9">
    <path d="M 386.559062 284.991437 
L 386.559062 18.879437 
" style="fill: none; stroke: #000000; stroke-width: 0.8; stroke-linejoin: miter; stroke-linecap: square"/>
   </g>
   <g id="patch_10">
    <path d="M 29.439063 284.991437 
L 386.559063 284.991437 
" style="fill: none; stroke: #000000; stroke-width: 0.8; stroke-linejoin: miter; stroke-linecap: square"/>
   </g>
   <g id="patch_11">
    <path d="M 29.439063 18.879437 
L 386.559063 18.879437 
" style="fill: none; stroke: #000000; stroke-width: 0.8; stroke-linejoin: miter; stroke-linecap: square"/>
   </g>
  </g>
  <g id="text_24">
   <!-- : 2023/04/24 16:14:11(JST) -->
   <g transform="translate(211.087188 15.423437) scale(0.1 -0.1)">
    <defs>
     <path id="IPAexGothic-66f4" d="M 2956 3994 
L 2956 4588 
L 513 4588 
L 513 4984 
L 5881 4984 
L 5881 4588 
L 3413 4588 
L 3413 3994 
L 5300 3994 
L 5300 1288 
L 4838 1288 
L 4838 1759 
L 3406 1759 
Q 3384 1125 3150 709 
Q 4291 244 5997 31 
L 5694 -428 
Q 4109 -166 2906 384 
Q 2294 -266 744 -488 
L 494 -66 
Q 1903 59 2491 588 
Q 2041 813 1594 1166 
L 1928 1434 
Q 2331 1106 2747 897 
Q 2922 1219 2950 1759 
L 1556 1759 
L 1556 1413 
L 1097 1413 
L 1097 3994 
L 2956 3994 
z
M 2956 3609 
L 1556 3609 
L 1556 3078 
L 2956 3078 
L 2956 3609 
z
M 3413 3609 
L 3413 3078 
L 4838 3078 
L 4838 3609 
L 3413 3609 
z
M 2956 2700 
L 1556 2700 
L 1556 2144 
L 2956 2144 
L 2956 2700 
z
M 3413 2700 
L 3413 2144 
L 4838 2144 
L 4838 2700 
L 3413 2700 
z
" transform="scale(0.015625)"/>
     <path id="IPAexGothic-65b0" d="M 3891 2803 
Q 3881 1759 3794 1166 
Q 3653 197 3097 -563 
L 2741 -250 
Q 3450 700 3450 2631 
L 3450 4647 
Q 3516 4656 3622 4666 
Q 4656 4778 5447 5063 
L 5825 4678 
Q 4897 4419 3891 4294 
L 3891 3219 
L 6119 3219 
L 6119 2803 
L 5275 2803 
L 5275 -447 
L 4834 -447 
L 4834 2803 
L 3891 2803 
z
M 2822 4069 
Q 2678 3572 2519 3181 
L 3250 3181 
L 3250 2784 
L 2059 2784 
L 2059 2216 
L 3184 2216 
L 3184 1831 
L 2059 1831 
L 2059 1544 
Q 2613 1197 3031 847 
L 2781 456 
Q 2472 791 2059 1128 
L 2059 -447 
L 1644 -447 
L 1644 1294 
Q 1272 628 575 -31 
L 269 341 
Q 1041 938 1528 1831 
L 453 1831 
L 453 2216 
L 1644 2216 
L 1644 2784 
L 319 2784 
L 319 3181 
L 1125 3181 
Q 1013 3706 881 4069 
L 453 4069 
L 453 4453 
L 1631 4453 
L 1631 5309 
L 2072 5309 
L 2072 4453 
L 3166 4453 
L 3166 4069 
L 2822 4069 
z
M 2391 4069 
L 1325 4069 
Q 1450 3672 1534 3181 
L 2109 3181 
Q 2294 3659 2391 4069 
z
" transform="scale(0.015625)"/>
     <path id="IPAexGothic-65e5" d="M 5231 4800 
L 5231 -288 
L 4744 -288 
L 4744 128 
L 1647 128 
L 1647 -288 
L 1159 -288 
L 1159 4800 
L 5231 4800 
z
M 1647 4372 
L 1647 2731 
L 4744 2731 
L 4744 4372 
L 1647 4372 
z
M 1647 2297 
L 1647 556 
L 4744 556 
L 4744 2297 
L 1647 2297 
z
" transform="scale(0.015625)"/>
     <path id="IPAexGothic-6642" d="M 2328 4728 
L 2328 563 
L 934 563 
L 934 56 
L 519 56 
L 519 4728 
L 2328 4728 
z
M 934 4331 
L 934 2881 
L 1906 2881 
L 1906 4331 
L 934 4331 
z
M 934 2497 
L 934 953 
L 1906 953 
L 1906 2497 
L 934 2497 
z
M 3938 4372 
L 3938 5313 
L 4378 5313 
L 4378 4372 
L 5772 4372 
L 5772 3981 
L 4378 3981 
L 4378 3194 
L 6072 3194 
L 6072 2803 
L 5203 2803 
L 5203 2047 
L 5959 2047 
L 5959 1650 
L 5216 1650 
L 5216 31 
Q 5216 -447 4691 -447 
Q 4394 -447 3888 -391 
L 3784 78 
Q 4272 0 4591 0 
Q 4775 0 4775 172 
L 4775 1650 
L 2581 1650 
L 2581 2047 
L 4763 2047 
L 4763 2803 
L 2538 2803 
L 2538 3194 
L 3938 3194 
L 3938 3981 
L 2716 3981 
L 2716 4372 
L 3938 4372 
z
M 3669 384 
Q 3331 950 2956 1325 
L 3291 1575 
Q 3719 1147 4025 659 
L 3669 384 
z
" transform="scale(0.015625)"/>
     <path id="IPAexGothic-3a" d="M 1369 2559 
L 672 2559 
L 672 3250 
L 1369 3250 
L 1369 2559 
z
M 1369 63 
L 672 63 
L 672 753 
L 1369 753 
L 1369 63 
z
" transform="scale(0.015625)"/>
     <path id="IPAexGothic-20" transform="scale(0.015625)"/>
     <path id="IPAexGothic-2f" d="M 2719 4709 
L 600 -884 
L 300 -763 
L 2413 4831 
L 2719 4709 
z
" transform="scale(0.015625)"/>
     <path id="IPAexGothic-28" d="M 1928 -1016 
L 1653 -1166 
Q 488 69 488 1875 
Q 488 3678 1653 4909 
L 1928 4763 
Q 1006 3522 1006 1881 
Q 1006 203 1928 -1016 
z
" transform="scale(0.015625)"/>
     <path id="IPAexGothic-54" d="M 3866 4141 
L 2175 4141 
L 2175 63 
L 1606 63 
L 1606 4141 
L -31 4141 
L -31 4634 
L 3866 4634 
L 3866 4141 
z
" transform="scale(0.015625)"/>
     <path id="IPAexGothic-29" d="M 466 4909 
Q 1638 3672 1638 1875 
Q 1638 75 466 -1166 
L 191 -1016 
Q 1119 216 1119 1881 
Q 1119 3509 191 4763 
L 466 4909 
z
" transform="scale(0.015625)"/>
    </defs>
    <use xlink:href="#IPAexGothic-66f4"/>
    <use xlink:href="#IPAexGothic-65b0" x="100"/>
    <use xlink:href="#IPAexGothic-65e5" x="200"/>
    <use xlink:href="#IPAexGothic-6642" x="300"/>
    <use xlink:href="#IPAexGothic-3a" x="400"/>
    <use xlink:href="#IPAexGothic-20" x="431.982422"/>
    <use xlink:href="#IPAexGothic-32" x="458.984375"/>
    <use xlink:href="#IPAexGothic-30" x="521.972656"/>
    <use xlink:href="#IPAexGothic-32" x="584.960938"/>
    <use xlink:href="#IPAexGothic-33" x="647.949219"/>
    <use xlink:href="#IPAexGothic-2f" x="710.9375"/>
    <use xlink:href="#IPAexGothic-30" x="760.9375"/>
    <use xlink:href="#IPAexGothic-34" x="823.925781"/>
    <use xlink:href="#IPAexGothic-2f" x="886.914062"/>
    <use xlink:href="#IPAexGothic-32" x="936.914062"/>
    <use xlink:href="#IPAexGothic-34" x="999.902344"/>
    <use xlink:href="#IPAexGothic-20" x="1062.890625"/>
    <use xlink:href="#IPAexGothic-31" x="1089.892578"/>
    <use xlink:href="#IPAexGothic-36" x="1152.880859"/>
    <use xlink:href="#IPAexGothic-3a" x="1215.869141"/>
    <use xlink:href="#IPAexGothic-31" x="1247.851562"/>
    <use xlink:href="#IPAexGothic-34" x="1310.839844"/>
    <use xlink:href="#IPAexGothic-3a" x="1373.828125"/>
    <use xlink:href="#IPAexGothic-31" x="1405.810547"/>
    <use xlink:href="#IPAexGothic-31" x="1468.798828"/>
    <use xlink:href="#IPAexGothic-28" x="1531.787109"/>
    <use xlink:href="#IPAexGothic-4a" x="1565.087891"/>
    <use xlink:href="#IPAexGothic-53" x="1603.076172"/>
    <use xlink:href="#IPAexGothic-54" x="1661.572266"/>
    <use xlink:href="#IPAexGothic-29" x="1721.484375"/>
   </g>
  </g>
 </g>
 <defs>
  <clipPath id="pf773de83c5">
   <rect x="29.439063" y="18.879437" width="357.12" height="266.112"/>
  </clipPath>
 </defs>
</svg>
