<?xml version="1.0" encoding="utf-8" standalone="no"?>
<!DOCTYPE svg PUBLIC "-//W3C//DTD SVG 1.1//EN"
  "http://www.w3.org/Graphics/SVG/1.1/DTD/svg11.dtd">
<svg xmlns:xlink="http://www.w3.org/1999/xlink" width="393.759062pt" height="308.582062pt" viewBox="0 0 393.759062 308.582062" xmlns="http://www.w3.org/2000/svg" version="1.1">
 <metadata>
  <rdf:RDF xmlns:dc="http://purl.org/dc/elements/1.1/" xmlns:cc="http://creativecommons.org/ns#" xmlns:rdf="http://www.w3.org/1999/02/22-rdf-syntax-ns#">
   <cc:Work>
    <dc:type rdf:resource="http://purl.org/dc/dcmitype/StillImage"/>
    <dc:date>2023-04-12T07:13:22.810873</dc:date>
    <dc:format>image/svg+xml</dc:format>
    <dc:creator>
     <cc:Agent>
      <dc:title>Matplotlib v3.7.1, https://matplotlib.org/</dc:title>
     </cc:Agent>
    </dc:creator>
   </cc:Work>
  </rdf:RDF>
 </metadata>
 <defs>
  <style type="text/css">*{stroke-linejoin: round; stroke-linecap: butt}</style>
 </defs>
 <g id="figure_1">
  <g id="patch_1">
   <path d="M 0 308.582062 
L 393.759062 308.582062 
L 393.759062 0 
L 0 0 
z
" style="fill: #ffffff"/>
  </g>
  <g id="axes_1">
   <g id="patch_2">
    <path d="M 29.439063 284.991437 
L 386.559062 284.991437 
L 386.559062 18.879437 
L 29.439063 18.879437 
z
" style="fill: #ffffff"/>
   </g>
   <g id="line2d_1">
    <path d="M 29.439063 211.199039 
L 386.559062 211.199039 
" clip-path="url(#pa473c53593)" style="fill: none; stroke: #000000; stroke-linecap: square"/>
   </g>
   <g id="matplotlib.axis_1">
    <g id="xtick_1">
     <g id="line2d_2">
      <defs>
       <path id="m2d370830a3" d="M 0 0 
L 0 3.5 
" style="stroke: #000000; stroke-width: 0.8"/>
      </defs>
      <g>
       <use xlink:href="#m2d370830a3" x="29.439063" y="284.991437" style="stroke: #000000; stroke-width: 0.8"/>
      </g>
     </g>
     <g id="text_1">
      <!-- Jun -->
      <g transform="translate(21.499219 299.482062) scale(0.1 -0.1)">
       <defs>
        <path id="IPAexGothic-4a" d="M 1819 4634 
L 1819 1234 
Q 1819 -31 763 -31 
Q 303 -31 -125 209 
L 84 644 
Q 378 447 694 447 
Q 1250 447 1250 1203 
L 1250 4634 
L 1819 4634 
z
" transform="scale(0.015625)"/>
        <path id="IPAexGothic-75" d="M 3284 63 
L 2772 63 
L 2772 644 
Q 2300 0 1625 0 
Q 1072 0 763 375 
Q 519 678 519 1241 
L 519 3250 
L 1069 3250 
L 1069 1259 
Q 1069 466 1734 466 
Q 2406 466 2734 1291 
L 2734 3250 
L 3284 3250 
L 3284 63 
z
" transform="scale(0.015625)"/>
        <path id="IPAexGothic-6e" d="M 3328 63 
L 2778 63 
L 2778 2041 
Q 2778 2853 2106 2853 
Q 1428 2853 1113 2041 
L 1113 63 
L 563 63 
L 563 3250 
L 1075 3250 
L 1075 2675 
Q 1525 3316 2222 3316 
Q 3328 3316 3328 2072 
L 3328 63 
z
" transform="scale(0.015625)"/>
       </defs>
       <use xlink:href="#IPAexGothic-4a"/>
       <use xlink:href="#IPAexGothic-75" x="37.988281"/>
       <use xlink:href="#IPAexGothic-6e" x="98.388672"/>
      </g>
     </g>
    </g>
    <g id="xtick_2">
     <g id="line2d_3">
      <g>
       <use xlink:href="#m2d370830a3" x="63.34286" y="284.991437" style="stroke: #000000; stroke-width: 0.8"/>
      </g>
     </g>
     <g id="text_2">
      <!-- Jul -->
      <g transform="translate(57.073329 299.482062) scale(0.1 -0.1)">
       <defs>
        <path id="IPAexGothic-6c" d="M 1131 63 
L 581 63 
L 581 4794 
L 1131 4794 
L 1131 63 
z
" transform="scale(0.015625)"/>
       </defs>
       <use xlink:href="#IPAexGothic-4a"/>
       <use xlink:href="#IPAexGothic-75" x="37.988281"/>
       <use xlink:href="#IPAexGothic-6c" x="98.388672"/>
      </g>
     </g>
    </g>
    <g id="xtick_3">
     <g id="line2d_4">
      <g>
       <use xlink:href="#m2d370830a3" x="98.376784" y="284.991437" style="stroke: #000000; stroke-width: 0.8"/>
      </g>
     </g>
     <g id="text_3">
      <!-- Aug -->
      <g transform="translate(89.394753 299.42425) scale(0.1 -0.1)">
       <defs>
        <path id="IPAexGothic-41" d="M 4056 63 
L 3444 63 
L 2938 1409 
L 1100 1409 
L 603 63 
L -6 63 
L 1806 4666 
L 2259 4666 
L 4056 63 
z
M 2778 1863 
L 2316 3078 
Q 2125 3588 2028 4000 
L 2009 4000 
Q 1897 3563 1716 3078 
L 1263 1863 
L 2778 1863 
z
" transform="scale(0.015625)"/>
        <path id="IPAexGothic-67" d="M 1331 1150 
Q 1006 1122 1006 900 
Q 1006 613 1763 575 
L 2131 556 
Q 3303 497 3303 -294 
Q 3303 -700 2925 -959 
Q 2519 -1253 1794 -1253 
Q 1138 -1253 738 -1028 
Q 353 -809 353 -428 
Q 353 84 1075 247 
L 1075 269 
Q 506 413 506 778 
Q 506 1116 994 1297 
Q 456 1575 456 2181 
Q 456 2650 769 2963 
Q 1128 3322 1738 3322 
Q 2125 3322 2422 3153 
Q 2650 3453 3259 3463 
L 3259 3013 
Q 2838 3003 2703 2938 
Q 3034 2613 3034 2169 
Q 3034 1728 2734 1425 
Q 2400 1094 1813 1094 
Q 1563 1094 1331 1150 
z
M 1734 2919 
Q 1409 2919 1197 2706 
Q 988 2497 988 2181 
Q 988 1872 1184 1684 
Q 1397 1472 1756 1472 
Q 2094 1472 2297 1678 
Q 2503 1881 2503 2203 
Q 2503 2497 2297 2700 
Q 2081 2919 1734 2919 
z
M 1753 159 
Q 903 159 903 -366 
Q 903 -875 1800 -875 
Q 2378 -875 2638 -606 
Q 2772 -481 2772 -313 
Q 2772 159 1753 159 
z
" transform="scale(0.015625)"/>
       </defs>
       <use xlink:href="#IPAexGothic-41"/>
       <use xlink:href="#IPAexGothic-75" x="63.720703"/>
       <use xlink:href="#IPAexGothic-67" x="124.121094"/>
      </g>
     </g>
    </g>
    <g id="xtick_4">
     <g id="line2d_5">
      <g>
       <use xlink:href="#m2d370830a3" x="133.410708" y="284.991437" style="stroke: #000000; stroke-width: 0.8"/>
      </g>
     </g>
     <g id="text_4">
      <!-- Sep -->
      <g transform="translate(124.535708 299.482062) scale(0.1 -0.1)">
       <defs>
        <path id="IPAexGothic-53" d="M 2919 3641 
Q 2563 4259 1853 4259 
Q 1453 4259 1213 4009 
Q 1028 3803 1028 3534 
Q 1028 3238 1266 3047 
Q 1444 2913 1984 2688 
L 2200 2597 
Q 2925 2306 3191 1953 
Q 3422 1644 3422 1259 
Q 3422 644 2969 288 
Q 2559 -31 1931 -31 
Q 881 -31 313 766 
L 753 1100 
Q 1203 459 1938 459 
Q 2288 459 2534 625 
Q 2841 847 2841 1216 
Q 2841 1503 2616 1728 
Q 2375 1959 1728 2206 
L 1541 2278 
Q 453 2694 453 3481 
Q 453 4006 806 4347 
Q 1203 4725 1863 4725 
Q 2841 4725 3359 3956 
L 2919 3641 
z
" transform="scale(0.015625)"/>
        <path id="IPAexGothic-65" d="M 863 1594 
Q 891 1041 1209 722 
Q 1534 397 1997 397 
Q 2606 397 2963 966 
L 3322 728 
Q 2869 -31 1931 -31 
Q 1222 -31 766 422 
Q 306 884 306 1641 
Q 306 2444 788 2925 
Q 1216 3353 1856 3353 
Q 2459 3353 2866 2956 
Q 3322 2494 3322 1722 
L 3322 1594 
L 863 1594 
z
M 2756 1997 
Q 2709 2431 2450 2681 
Q 2194 2938 1844 2938 
Q 1438 2938 1150 2591 
Q 953 2356 894 1997 
L 2756 1997 
z
" transform="scale(0.015625)"/>
        <path id="IPAexGothic-70" d="M 1075 2688 
Q 1525 3341 2206 3341 
Q 2769 3341 3172 2938 
Q 3641 2469 3641 1644 
Q 3641 841 3178 372 
Q 2775 -31 2200 -31 
Q 1569 -31 1106 497 
L 1106 -1216 
L 563 -1216 
L 563 3250 
L 1075 3250 
L 1075 2688 
z
M 1106 1950 
L 1106 1291 
Q 1106 897 1516 600 
Q 1791 403 2106 403 
Q 2469 403 2725 659 
Q 3066 997 3066 1631 
Q 3066 2200 2784 2559 
Q 2503 2900 2100 2900 
Q 1656 2900 1338 2484 
Q 1106 2184 1106 1950 
z
" transform="scale(0.015625)"/>
       </defs>
       <use xlink:href="#IPAexGothic-53"/>
       <use xlink:href="#IPAexGothic-65" x="58.496094"/>
       <use xlink:href="#IPAexGothic-70" x="115.380859"/>
      </g>
     </g>
    </g>
    <g id="xtick_5">
     <g id="line2d_6">
      <g>
       <use xlink:href="#m2d370830a3" x="167.314506" y="284.991437" style="stroke: #000000; stroke-width: 0.8"/>
      </g>
     </g>
     <g id="text_5">
      <!-- Oct -->
      <g transform="translate(158.879349 299.482062) scale(0.1 -0.1)">
       <defs>
        <path id="IPAexGothic-4f" d="M 2541 4725 
Q 3456 4725 4044 4138 
Q 4709 3472 4709 2331 
Q 4709 1219 4031 550 
Q 3450 -31 2541 -31 
Q 1638 -31 1056 550 
Q 378 1219 378 2356 
Q 378 3469 1044 4138 
Q 1631 4725 2541 4725 
z
M 2541 4266 
Q 1953 4266 1531 3844 
Q 994 3303 994 2350 
Q 994 1391 1531 863 
Q 1947 447 2541 447 
Q 3131 447 3556 863 
Q 4094 1400 4094 2375 
Q 4094 3297 3550 3844 
Q 3138 4266 2541 4266 
z
" transform="scale(0.015625)"/>
        <path id="IPAexGothic-63" d="M 3269 784 
Q 2834 -31 1900 -31 
Q 1228 -31 788 409 
Q 313 891 313 1663 
Q 313 2428 788 2913 
Q 1222 3347 1881 3347 
Q 2813 3347 3206 2541 
L 2763 2309 
Q 2484 2900 1900 2900 
Q 1516 2900 1234 2619 
Q 881 2266 881 1650 
Q 881 1069 1222 728 
Q 1522 428 1956 428 
Q 2547 428 2847 1016 
L 3269 784 
z
" transform="scale(0.015625)"/>
        <path id="IPAexGothic-74" d="M 2125 241 
Q 1769 -6 1397 -6 
Q 653 -6 653 831 
L 653 2859 
L 219 2859 
L 219 3250 
L 653 3250 
L 653 3966 
L 1178 4228 
L 1178 3250 
L 2063 3250 
L 2063 2859 
L 1178 2859 
L 1178 906 
Q 1178 416 1513 416 
Q 1738 416 1941 588 
L 2125 241 
z
" transform="scale(0.015625)"/>
       </defs>
       <use xlink:href="#IPAexGothic-4f"/>
       <use xlink:href="#IPAexGothic-63" x="79.6875"/>
       <use xlink:href="#IPAexGothic-74" x="134.082031"/>
      </g>
     </g>
    </g>
    <g id="xtick_6">
     <g id="line2d_7">
      <g>
       <use xlink:href="#m2d370830a3" x="202.34843" y="284.991437" style="stroke: #000000; stroke-width: 0.8"/>
      </g>
     </g>
     <g id="text_6">
      <!-- Nov -->
      <g transform="translate(193.099992 299.482062) scale(0.1 -0.1)">
       <defs>
        <path id="IPAexGothic-4e" d="M 4244 63 
L 3731 63 
L 1697 3150 
Q 1466 3500 1141 4097 
L 1116 4097 
L 1128 3797 
Q 1159 2803 1159 2469 
L 1159 63 
L 609 63 
L 609 4634 
L 1366 4634 
L 3113 1978 
Q 3453 1447 3713 966 
L 3738 966 
Q 3694 1897 3694 2469 
L 3694 4634 
L 4244 4634 
L 4244 63 
z
" transform="scale(0.015625)"/>
        <path id="IPAexGothic-6f" d="M 1919 3341 
Q 2594 3341 3056 2888 
Q 3531 2413 3531 1638 
Q 3531 888 3066 422 
Q 2609 -31 1919 -31 
Q 1228 -31 781 416 
Q 313 881 313 1656 
Q 313 2413 788 2888 
Q 1241 3341 1919 3341 
z
M 1919 2919 
Q 1519 2919 1241 2631 
Q 888 2278 888 1650 
Q 888 1031 1234 684 
Q 1516 403 1919 403 
Q 2331 403 2609 691 
Q 2956 1038 2956 1672 
Q 2956 2269 2603 2631 
Q 2316 2919 1919 2919 
z
" transform="scale(0.015625)"/>
        <path id="IPAexGothic-76" d="M 3103 3250 
L 1747 6 
L 1375 6 
L 25 3250 
L 628 3250 
L 1338 1388 
L 1522 844 
L 1569 703 
L 1588 703 
Q 1641 884 1822 1388 
L 2516 3250 
L 3103 3250 
z
" transform="scale(0.015625)"/>
       </defs>
       <use xlink:href="#IPAexGothic-4e"/>
       <use xlink:href="#IPAexGothic-6f" x="75.976562"/>
       <use xlink:href="#IPAexGothic-76" x="136.376953"/>
      </g>
     </g>
    </g>
    <g id="xtick_7">
     <g id="line2d_8">
      <g>
       <use xlink:href="#m2d370830a3" x="236.252227" y="284.991437" style="stroke: #000000; stroke-width: 0.8"/>
      </g>
     </g>
     <g id="text_7">
      <!-- Dec -->
      <g transform="translate(226.90379 299.482062) scale(0.1 -0.1)">
       <defs>
        <path id="IPAexGothic-44" d="M 609 4634 
L 1984 4634 
Q 3159 4634 3791 4050 
Q 4456 3444 4456 2356 
Q 4456 1047 3516 441 
Q 2925 63 1941 63 
L 609 63 
L 609 4634 
z
M 1172 556 
L 1894 556 
Q 3853 556 3853 2356 
Q 3853 4147 1928 4147 
L 1172 4147 
L 1172 556 
z
" transform="scale(0.015625)"/>
       </defs>
       <use xlink:href="#IPAexGothic-44"/>
       <use xlink:href="#IPAexGothic-65" x="75.683594"/>
       <use xlink:href="#IPAexGothic-63" x="132.568359"/>
      </g>
     </g>
    </g>
    <g id="xtick_8">
     <g id="line2d_9">
      <g>
       <use xlink:href="#m2d370830a3" x="271.286151" y="284.991437" style="stroke: #000000; stroke-width: 0.8"/>
      </g>
     </g>
     <g id="text_8">
      <!-- 2023 -->
      <g transform="translate(258.689276 299.482062) scale(0.1 -0.1)">
       <defs>
        <path id="IPAexGothic-32" d="M 3659 63 
L 447 63 
L 447 594 
Q 825 1475 1894 2203 
L 2072 2322 
Q 2619 2697 2791 2906 
Q 2988 3153 2988 3444 
Q 2988 3772 2756 4003 
Q 2500 4259 2084 4259 
Q 1250 4259 991 3328 
L 497 3506 
Q 853 4725 2116 4725 
Q 2806 4725 3216 4316 
Q 3575 3947 3575 3425 
Q 3575 3038 3344 2722 
Q 3131 2416 2366 1938 
L 2231 1856 
Q 1256 1253 978 569 
L 3659 569 
L 3659 63 
z
" transform="scale(0.015625)"/>
        <path id="IPAexGothic-30" d="M 2038 4725 
Q 2881 4725 3334 3944 
Q 3694 3325 3694 2344 
Q 3694 1372 3334 741 
Q 2888 -31 2016 -31 
Q 1147 -31 700 741 
Q 341 1372 341 2350 
Q 341 3713 1000 4334 
Q 1419 4725 2038 4725 
z
M 2016 4266 
Q 1516 4266 1228 3759 
Q 934 3247 934 2344 
Q 934 1456 1222 947 
Q 1513 447 2016 447 
Q 2619 447 2909 1153 
Q 3100 1622 3100 2375 
Q 3100 3256 2806 3759 
Q 2509 4266 2016 4266 
z
" transform="scale(0.015625)"/>
        <path id="IPAexGothic-33" d="M 2381 2419 
Q 3506 2216 3506 1278 
Q 3506 716 3128 356 
Q 2709 -31 1944 -31 
Q 797 -31 288 881 
L 756 1131 
Q 1109 441 1938 441 
Q 2425 441 2694 691 
Q 2950 928 2950 1291 
Q 2950 1719 2566 1978 
Q 2216 2213 1644 2213 
L 1363 2213 
L 1363 2669 
L 1656 2669 
Q 2231 2669 2534 2888 
Q 2859 3119 2859 3509 
Q 2859 3934 2494 4138 
Q 2259 4278 1931 4278 
Q 1238 4278 903 3578 
L 434 3803 
Q 897 4725 1938 4725 
Q 2597 4725 3006 4394 
Q 3416 4069 3416 3534 
Q 3416 3028 3019 2706 
Q 2763 2500 2381 2444 
L 2381 2419 
z
" transform="scale(0.015625)"/>
       </defs>
       <use xlink:href="#IPAexGothic-32"/>
       <use xlink:href="#IPAexGothic-30" x="62.988281"/>
       <use xlink:href="#IPAexGothic-32" x="125.976562"/>
       <use xlink:href="#IPAexGothic-33" x="188.964844"/>
      </g>
     </g>
    </g>
    <g id="xtick_9">
     <g id="line2d_10">
      <g>
       <use xlink:href="#m2d370830a3" x="306.320075" y="284.991437" style="stroke: #000000; stroke-width: 0.8"/>
      </g>
     </g>
     <g id="text_9">
      <!-- Feb -->
      <g transform="translate(297.496638 299.482062) scale(0.1 -0.1)">
       <defs>
        <path id="IPAexGothic-46" d="M 3469 4141 
L 1172 4141 
L 1172 2656 
L 3206 2656 
L 3206 2188 
L 1172 2188 
L 1172 63 
L 609 63 
L 609 4634 
L 3469 4634 
L 3469 4141 
z
" transform="scale(0.015625)"/>
        <path id="IPAexGothic-62" d="M 1125 2731 
Q 1550 3341 2219 3341 
Q 2788 3341 3191 2938 
Q 3659 2469 3659 1644 
Q 3659 838 3191 372 
Q 2788 -31 2206 -31 
Q 1559 -31 1088 516 
L 1009 44 
L 581 44 
L 581 4794 
L 1125 4794 
L 1125 2731 
z
M 1125 1997 
L 1125 1253 
Q 1125 888 1528 600 
Q 1803 403 2119 403 
Q 2488 403 2744 659 
Q 3084 1009 3084 1631 
Q 3084 2194 2803 2553 
Q 2525 2900 2125 2900 
Q 1759 2900 1438 2578 
Q 1125 2266 1125 1997 
z
" transform="scale(0.015625)"/>
       </defs>
       <use xlink:href="#IPAexGothic-46"/>
       <use xlink:href="#IPAexGothic-65" x="57.177734"/>
       <use xlink:href="#IPAexGothic-62" x="114.0625"/>
      </g>
     </g>
    </g>
    <g id="xtick_10">
     <g id="line2d_11">
      <g>
       <use xlink:href="#m2d370830a3" x="337.963619" y="284.991437" style="stroke: #000000; stroke-width: 0.8"/>
      </g>
     </g>
     <g id="text_10">
      <!-- Mar -->
      <g transform="translate(328.854244 299.482062) scale(0.1 -0.1)">
       <defs>
        <path id="IPAexGothic-4d" d="M 5147 63 
L 4597 63 
L 4597 2534 
Q 4597 3281 4634 4134 
L 4609 4134 
Q 4356 3409 4066 2675 
L 3066 209 
L 2650 209 
L 1641 2725 
Q 1328 3506 1128 4141 
L 1103 4141 
Q 1141 3131 1141 2553 
L 1141 63 
L 609 63 
L 609 4634 
L 1416 4634 
L 2503 1944 
Q 2697 1472 2869 906 
L 2888 906 
Q 3028 1416 3234 1931 
L 4316 4634 
L 5147 4634 
L 5147 63 
z
" transform="scale(0.015625)"/>
        <path id="IPAexGothic-61" d="M 3156 63 
L 2672 63 
Q 2559 303 2531 556 
L 2509 556 
Q 2147 -25 1428 -25 
Q 934 -25 622 288 
Q 347 563 347 959 
Q 347 1947 2050 1997 
L 2478 2009 
L 2478 2175 
Q 2478 2509 2288 2700 
Q 2088 2900 1775 2900 
Q 1238 2900 969 2378 
L 494 2597 
Q 938 3328 1788 3328 
Q 2375 3328 2691 3000 
Q 2984 2706 2984 2169 
L 2984 997 
Q 2984 400 3156 63 
z
M 2491 1625 
L 2141 1619 
Q 903 1591 903 953 
Q 903 728 1050 581 
Q 1231 403 1525 403 
Q 1934 403 2234 703 
Q 2491 969 2491 1344 
L 2491 1625 
z
" transform="scale(0.015625)"/>
        <path id="IPAexGothic-72" d="M 2309 3316 
L 2213 2769 
Q 2106 2791 2022 2791 
Q 1653 2791 1413 2444 
Q 1113 2006 1113 1675 
L 1113 63 
L 563 63 
L 563 3250 
L 1081 3250 
L 1056 2303 
L 1069 2303 
Q 1422 3341 2097 3341 
Q 2206 3341 2309 3316 
z
" transform="scale(0.015625)"/>
       </defs>
       <use xlink:href="#IPAexGothic-4d"/>
       <use xlink:href="#IPAexGothic-61" x="90.185547"/>
       <use xlink:href="#IPAexGothic-72" x="145.166016"/>
      </g>
     </g>
    </g>
    <g id="xtick_11">
     <g id="line2d_12">
      <g>
       <use xlink:href="#m2d370830a3" x="372.997544" y="284.991437" style="stroke: #000000; stroke-width: 0.8"/>
      </g>
     </g>
     <g id="text_11">
      <!-- Apr -->
      <g transform="translate(364.855356 299.482062) scale(0.1 -0.1)">
       <use xlink:href="#IPAexGothic-41"/>
       <use xlink:href="#IPAexGothic-70" x="63.720703"/>
       <use xlink:href="#IPAexGothic-72" x="125.830078"/>
      </g>
     </g>
    </g>
   </g>
   <g id="matplotlib.axis_2">
    <g id="ytick_1">
     <g id="line2d_13">
      <defs>
       <path id="m1f1090f5d4" d="M 0 0 
L -3.5 0 
" style="stroke: #000000; stroke-width: 0.8"/>
      </defs>
      <g>
       <use xlink:href="#m1f1090f5d4" x="29.439063" y="269.014637" style="stroke: #000000; stroke-width: 0.8"/>
      </g>
     </g>
     <g id="text_12">
      <!-- 0.5 -->
      <g transform="translate(7.2 272.759949) scale(0.1 -0.1)">
       <defs>
        <path id="IPAexGothic-2e" d="M 1184 63 
L 494 63 
L 494 753 
L 1184 753 
L 1184 63 
z
" transform="scale(0.015625)"/>
        <path id="IPAexGothic-35" d="M 1178 2603 
Q 1634 2963 2172 2963 
Q 2816 2963 3241 2528 
Q 3638 2113 3638 1497 
Q 3638 938 3297 513 
Q 2869 -31 2031 -31 
Q 959 -31 469 784 
L 938 1028 
Q 1309 434 2013 434 
Q 2466 434 2769 716 
Q 3081 1013 3081 1503 
Q 3081 1966 2806 2241 
Q 2519 2528 2056 2528 
Q 1406 2528 1072 2028 
L 591 2091 
L 884 4634 
L 3406 4634 
L 3406 4153 
L 1341 4153 
L 1134 2603 
L 1178 2603 
z
" transform="scale(0.015625)"/>
       </defs>
       <use xlink:href="#IPAexGothic-30"/>
       <use xlink:href="#IPAexGothic-2e" x="62.988281"/>
       <use xlink:href="#IPAexGothic-35" x="89.404297"/>
      </g>
     </g>
    </g>
    <g id="ytick_2">
     <g id="line2d_14">
      <g>
       <use xlink:href="#m1f1090f5d4" x="29.439063" y="211.199039" style="stroke: #000000; stroke-width: 0.8"/>
      </g>
     </g>
     <g id="text_13">
      <!-- 1.0 -->
      <g transform="translate(7.2 214.944352) scale(0.1 -0.1)">
       <defs>
        <path id="IPAexGothic-31" d="M 2463 63 
L 1900 63 
L 1900 4103 
Q 1372 3922 788 3797 
L 684 4231 
Q 1519 4441 2106 4731 
L 2463 4731 
L 2463 63 
z
" transform="scale(0.015625)"/>
       </defs>
       <use xlink:href="#IPAexGothic-31"/>
       <use xlink:href="#IPAexGothic-2e" x="62.988281"/>
       <use xlink:href="#IPAexGothic-30" x="89.404297"/>
      </g>
     </g>
    </g>
    <g id="ytick_3">
     <g id="line2d_15">
      <g>
       <use xlink:href="#m1f1090f5d4" x="29.439063" y="153.383442" style="stroke: #000000; stroke-width: 0.8"/>
      </g>
     </g>
     <g id="text_14">
      <!-- 1.5 -->
      <g transform="translate(7.2 157.128754) scale(0.1 -0.1)">
       <use xlink:href="#IPAexGothic-31"/>
       <use xlink:href="#IPAexGothic-2e" x="62.988281"/>
       <use xlink:href="#IPAexGothic-35" x="89.404297"/>
      </g>
     </g>
    </g>
    <g id="ytick_4">
     <g id="line2d_16">
      <g>
       <use xlink:href="#m1f1090f5d4" x="29.439063" y="95.567844" style="stroke: #000000; stroke-width: 0.8"/>
      </g>
     </g>
     <g id="text_15">
      <!-- 2.0 -->
      <g transform="translate(7.2 99.313157) scale(0.1 -0.1)">
       <use xlink:href="#IPAexGothic-32"/>
       <use xlink:href="#IPAexGothic-2e" x="62.988281"/>
       <use xlink:href="#IPAexGothic-30" x="89.404297"/>
      </g>
     </g>
    </g>
    <g id="ytick_5">
     <g id="line2d_17">
      <g>
       <use xlink:href="#m1f1090f5d4" x="29.439063" y="37.752247" style="stroke: #000000; stroke-width: 0.8"/>
      </g>
     </g>
     <g id="text_16">
      <!-- 2.5 -->
      <g transform="translate(7.2 41.497559) scale(0.1 -0.1)">
       <use xlink:href="#IPAexGothic-32"/>
       <use xlink:href="#IPAexGothic-2e" x="62.988281"/>
       <use xlink:href="#IPAexGothic-35" x="89.404297"/>
      </g>
     </g>
    </g>
   </g>
   <g id="line2d_18">
    <path d="M 29.439063 227.411867 
L 30.569189 255.471758 
L 31.699316 269.405805 
L 32.829442 242.945807 
L 33.959569 262.441258 
L 36.219822 251.639145 
L 37.349949 227.514621 
L 38.480075 229.940841 
L 39.610202 194.078383 
L 40.740328 246.403784 
L 41.870455 250.411663 
L 43.000581 205.84664 
L 44.130708 249.191321 
L 45.260835 272.895437 
L 46.390961 243.090535 
L 47.521088 247.559579 
L 48.651214 238.429093 
L 49.781341 112.810292 
L 50.911468 184.323192 
L 52.041594 181.498781 
L 53.171721 30.975437 
L 55.431974 168.571026 
L 56.5621 110.868109 
L 57.692227 213.126183 
L 58.822354 156.293505 
L 59.95248 124.518024 
L 61.082607 151.875457 
L 62.212733 236.751655 
L 63.34286 106.655378 
L 64.472987 51.387485 
L 65.603113 102.788184 
L 66.73324 95.926279 
L 67.863366 36.542983 
L 68.993493 79.37836 
L 70.123619 35.439549 
L 71.253746 110.396771 
L 72.383873 116.980214 
L 73.513999 109.726148 
L 74.644126 177.160719 
L 75.774252 110.814502 
L 76.904379 153.702013 
L 78.034506 148.460822 
L 79.164632 164.812112 
L 80.294759 190.526245 
L 81.424885 181.526351 
L 82.555012 197.096587 
L 83.685138 219.976945 
L 84.815265 163.710275 
L 85.945392 173.022011 
L 87.075518 196.817697 
L 88.205645 179.527296 
L 89.335771 191.661352 
L 90.465898 192.887858 
L 91.596025 173.15897 
L 92.726151 188.50237 
L 93.856278 201.809366 
L 94.986404 195.197746 
L 96.116531 183.412435 
L 97.246657 192.046725 
L 98.376784 204.737627 
L 99.506911 199.025674 
L 100.637037 189.016626 
L 101.767164 185.809755 
L 102.89729 182.941981 
L 104.027417 200.02008 
L 105.157544 192.032303 
L 106.28767 181.775482 
L 107.417797 186.871327 
L 108.547923 193.9839 
L 109.67805 204.601463 
L 110.808176 225.669065 
L 111.938303 207.989558 
L 113.06843 218.057369 
L 114.198556 204.232725 
L 115.328683 217.282458 
L 116.458809 202.720535 
L 117.588936 195.141529 
L 118.719063 153.461242 
L 119.849189 171.531238 
L 120.979316 185.828914 
L 122.109442 204.950127 
L 123.239569 187.736367 
L 124.369695 211.671324 
L 125.499822 216.92144 
L 126.629949 231.587854 
L 127.760075 248.509599 
L 128.890202 240.826108 
L 130.020328 241.29957 
L 131.150455 247.072575 
L 132.280581 251.367839 
L 133.410708 251.669425 
L 134.540835 251.785215 
L 135.670961 242.900107 
L 136.801088 251.663262 
L 137.931214 241.186243 
L 139.061341 228.929625 
L 140.191468 240.670472 
L 141.321594 239.689961 
L 142.451721 228.587222 
L 143.581847 234.114512 
L 144.711974 220.053728 
L 145.8421 221.634093 
L 146.972227 247.789493 
L 148.102354 250.578039 
L 149.23248 230.847867 
L 150.362607 240.571341 
L 151.492733 229.667605 
L 152.62286 228.965012 
L 153.752987 226.507 
L 154.883113 266.267581 
L 156.01324 173.994674 
L 157.143366 228.352097 
L 158.273493 212.968149 
L 159.403619 243.863512 
L 160.533746 195.951487 
L 161.663873 187.500784 
L 162.793999 195.32975 
L 163.924126 238.855842 
L 165.054252 224.563828 
L 166.184379 239.674853 
L 167.314506 205.067187 
L 168.444632 219.657973 
L 169.574759 258.893645 
L 170.704885 189.095647 
L 171.835012 231.988543 
L 172.965138 230.452082 
L 174.095265 208.848889 
L 175.225392 214.413367 
L 176.355518 237.774657 
L 177.485645 208.216448 
L 178.615771 269.328924 
L 179.745898 186.857034 
L 180.876025 168.652783 
L 182.006151 211.199039 
L 183.136278 197.903063 
L 184.266404 190.42842 
L 185.396531 209.746404 
L 186.526657 135.123595 
L 187.656784 212.926136 
L 188.786911 239.34414 
L 189.917037 184.631705 
L 191.047164 193.892671 
L 192.17729 220.351516 
L 193.307417 197.002011 
L 194.437544 191.634272 
L 195.56767 213.253557 
L 196.697797 183.049443 
L 197.827923 199.198481 
L 198.95805 190.346771 
L 200.088176 160.309806 
L 201.218303 189.784075 
L 202.34843 198.104074 
L 203.478556 152.110827 
L 204.608683 152.9204 
L 205.738809 232.748365 
L 206.868936 165.024121 
L 207.999062 194.085734 
L 209.129189 199.838398 
L 210.259316 173.564927 
L 211.389442 209.205445 
L 212.519569 206.690562 
L 213.649695 156.249641 
L 214.779822 220.402577 
L 215.909949 215.284532 
L 217.040075 225.924092 
L 218.170202 188.099011 
L 219.300328 185.511636 
L 220.430455 211.199039 
L 221.560581 194.160213 
L 222.690708 184.55213 
L 223.820835 182.799057 
L 226.081088 203.930102 
L 227.211214 168.757197 
L 228.341341 220.491359 
L 229.471468 171.577359 
L 231.731721 192.11637 
L 232.861847 204.402838 
L 233.991974 198.987955 
L 235.1221 181.777237 
L 236.252227 142.696764 
L 237.382354 213.580923 
L 238.51248 220.529523 
L 239.642607 204.080643 
L 240.772733 205.292279 
L 241.90286 181.962456 
L 243.032987 194.793532 
L 244.163113 197.432704 
L 245.29324 173.295964 
L 246.423366 175.045451 
L 247.553493 167.16196 
L 248.683619 187.120934 
L 249.813746 183.834422 
L 250.943873 173.778001 
L 252.073999 181.23856 
L 253.204126 201.020413 
L 254.334252 187.828789 
L 255.464379 213.66936 
L 256.594506 207.768569 
L 257.724632 207.295129 
L 258.854759 192.832229 
L 259.984885 206.958159 
L 261.115012 188.728128 
L 262.245138 193.851266 
L 263.375265 207.103197 
L 264.505392 215.224404 
L 265.635518 196.113595 
L 266.765645 220.91992 
L 267.895771 200.04709 
L 269.025898 223.444191 
L 270.156025 251.024981 
L 271.286151 228.180558 
L 272.416278 208.755181 
L 273.546404 251.311193 
L 274.676531 254.432046 
L 275.806657 215.74342 
L 276.936784 126.299141 
L 278.066911 90.185267 
L 279.197037 169.01121 
L 280.327164 202.233317 
L 281.45729 208.810336 
L 282.587417 167.736099 
L 283.717544 215.685286 
L 284.84767 255.304956 
L 285.977797 257.151057 
L 287.107923 241.910597 
L 288.23805 230.363911 
L 289.368176 201.639485 
L 290.498303 252.591109 
L 291.62843 261.202922 
L 292.758556 248.191392 
L 293.888683 245.888016 
L 295.018809 248.528538 
L 296.148936 233.937612 
L 297.279063 243.873594 
L 298.409189 245.699396 
L 299.539316 238.379427 
L 300.669442 250.421781 
L 301.799569 242.025158 
L 302.929695 235.679743 
L 304.059822 231.977605 
L 305.189949 268.725993 
L 306.320075 251.010186 
L 307.450202 243.44844 
L 308.580328 231.173865 
L 309.710455 246.470516 
L 310.840581 240.806074 
L 311.970708 205.729567 
L 313.100835 216.74151 
L 314.230961 221.239134 
L 315.361088 222.049942 
L 316.491214 236.243828 
L 317.621341 216.587974 
L 318.751468 250.056764 
L 319.881594 220.887451 
L 321.011721 228.799652 
L 322.141847 253.712581 
L 323.271974 218.850978 
L 324.4021 215.357996 
L 325.532227 237.280047 
L 326.662354 193.27922 
L 327.79248 224.105076 
L 328.922607 238.379537 
L 330.052733 241.772305 
L 331.18286 251.269511 
L 332.312987 255.03236 
L 334.57324 237.065956 
L 335.703366 226.130001 
L 336.833493 244.38679 
L 337.963619 206.157732 
L 339.093746 233.765533 
L 340.223873 159.336552 
L 341.353999 185.327724 
L 342.484126 214.962751 
L 343.614252 217.21233 
L 344.744379 183.217935 
L 345.874506 224.645526 
L 347.004632 214.214028 
L 348.134759 235.628575 
L 349.264885 247.936648 
L 350.395012 239.212375 
L 351.525138 229.20156 
L 353.785392 253.457905 
L 354.915518 223.82357 
L 356.045645 230.110703 
L 357.175771 231.751414 
L 358.305898 221.724925 
L 359.436025 218.438731 
L 360.566151 196.729311 
L 361.696278 269.644947 
L 362.826404 186.805833 
L 363.956531 151.469654 
L 365.086657 196.794784 
L 366.216784 186.090119 
L 367.346911 212.367022 
L 368.477037 270.557568 
L 369.607164 131.696335 
L 370.73729 246.286327 
L 371.867417 246.583352 
L 372.997544 237.988485 
L 374.12767 247.318928 
L 375.257797 158.670839 
L 376.387923 179.975338 
L 377.51805 223.430761 
L 378.648176 212.644411 
L 379.778303 225.046752 
L 380.90843 197.113467 
L 382.038556 202.169595 
L 383.168683 251.481393 
L 384.298809 236.781261 
L 385.428936 190.034499 
L 385.428936 190.034499 
" clip-path="url(#pa473c53593)" style="fill: none; stroke: #1f77b4; stroke-width: 1.5; stroke-linecap: square"/>
   </g>
   <g id="line2d_19">
    <path d="M 29.439063 230.929789 
L 30.569189 242.60231 
L 31.699316 262.8168 
L 32.829442 257.425513 
L 33.959569 253.337157 
L 35.089695 259.836211 
L 36.219822 254.434415 
L 37.349949 240.414674 
L 38.480075 228.735232 
L 39.610202 213.41839 
L 40.740328 223.501825 
L 41.870455 248.433331 
L 43.000581 230.677266 
L 44.130708 229.912564 
L 45.260835 262.11981 
L 46.390961 259.625445 
L 47.521088 245.355694 
L 48.651214 243.118728 
L 49.781341 189.281671 
L 50.911468 152.189606 
L 52.041594 182.917915 
L 53.171721 119.473036 
L 54.301847 68.196709 
L 55.431974 137.669929 
L 56.5621 141.957318 
L 57.692227 170.127431 
L 58.822354 187.579679 
L 59.95248 141.084002 
L 61.082607 138.693349 
L 62.212733 201.292679 
L 63.34286 186.000414 
L 64.472987 80.567026 
L 65.603113 78.413733 
L 66.73324 99.383107 
L 67.863366 67.931655 
L 68.993493 58.815077 
L 70.123619 58.306173 
L 71.253746 75.699401 
L 72.383873 113.713912 
L 73.513999 113.383995 
L 74.644126 146.569691 
L 75.774252 147.022086 
L 76.904379 133.443524 
L 78.034506 151.100956 
L 79.164632 156.832948 
L 80.294759 178.224324 
L 81.424885 186.098223 
L 82.555012 189.532009 
L 83.685138 209.091256 
L 84.815265 194.807872 
L 85.945392 168.434555 
L 87.075518 185.419494 
L 88.205645 188.44227 
L 89.335771 185.724694 
L 90.465898 192.276003 
L 91.596025 183.362139 
L 92.726151 181.032368 
L 93.856278 195.324076 
L 94.986404 198.546144 
L 96.116531 189.431392 
L 97.246657 187.79659 
L 98.376784 198.54902 
L 99.506911 201.914295 
L 100.637037 194.115474 
L 101.767164 187.422411 
L 102.89729 184.383085 
L 104.027417 191.750659 
L 105.157544 196.087179 
L 106.28767 186.997904 
L 107.417797 184.346184 
L 108.547923 190.473981 
L 109.67805 199.403219 
L 110.808176 215.633088 
L 111.938303 217.185071 
L 113.06843 213.134848 
L 114.198556 211.351742 
L 115.328683 210.94113 
L 116.458809 210.228598 
L 117.588936 198.987184 
L 118.719063 175.731796 
L 119.849189 162.744798 
L 122.109442 195.737687 
L 123.239569 196.62741 
L 124.369695 200.268399 
L 125.499822 214.327003 
L 126.629949 224.517111 
L 127.760075 240.462163 
L 128.890202 244.757718 
L 130.020328 241.063165 
L 131.150455 244.236496 
L 132.280581 249.249927 
L 133.410708 251.518783 
L 134.540835 251.727342 
L 135.670961 247.466905 
L 136.801088 247.402446 
L 137.931214 246.595581 
L 139.061341 235.262778 
L 140.191468 234.987471 
L 141.321594 240.181603 
L 142.451721 234.304978 
L 143.581847 231.390872 
L 144.711974 227.332189 
L 145.8421 220.846856 
L 148.102354 249.196285 
L 149.23248 241.279862 
L 150.362607 235.839395 
L 151.492733 235.281663 
L 152.62286 229.316941 
L 153.752987 227.743627 
L 154.883113 248.882551 
L 156.01324 230.621466 
L 157.143366 204.147875 
L 158.273493 220.93913 
L 159.403619 229.635769 
L 160.533746 222.625721 
L 161.663873 191.792225 
L 162.793999 191.471858 
L 163.924126 219.272458 
L 165.054252 231.97864 
L 166.184379 232.42119 
L 167.314506 223.814193 
L 168.444632 212.595296 
L 169.574759 241.501939 
L 170.704885 230.097519 
L 171.835012 212.536835 
L 172.965138 231.223399 
L 174.095265 220.196168 
L 175.225392 211.66473 
L 176.355518 226.773505 
L 177.485645 224.052711 
L 178.615771 244.24423 
L 179.745898 237.116008 
L 180.876025 178.033043 
L 183.136278 204.731901 
L 184.266404 194.218394 
L 185.396531 200.456001 
L 186.526657 177.011185 
L 187.656784 179.059561 
L 188.786911 227.005264 
L 189.917037 215.29372 
L 191.047164 189.34014 
L 192.17729 207.855357 
L 193.307417 209.25497 
L 194.437544 194.345323 
L 195.56767 202.914504 
L 196.697797 199.04078 
L 197.827923 191.364392 
L 198.95805 194.846812 
L 200.088176 176.074523 
L 201.218303 175.764073 
L 202.34843 194.009205 
L 203.478556 176.860376 
L 204.608683 152.516084 
L 205.738809 198.91713 
L 206.868936 203.448625 
L 207.999062 180.273516 
L 209.129189 196.993923 
L 210.259316 187.318791 
L 211.389442 192.562593 
L 212.519569 207.954654 
L 213.649695 183.674736 
L 214.779822 192.091624 
L 215.909949 217.873602 
L 217.040075 220.737602 
L 218.170202 208.513572 
L 219.300328 186.8113 
L 220.430455 198.998945 
L 221.560581 202.972279 
L 222.690708 189.440136 
L 223.820835 183.678277 
L 224.950961 188.335204 
L 226.081088 198.897374 
L 227.211214 187.448754 
L 228.341341 197.179515 
L 229.471468 198.341262 
L 230.601594 176.894581 
L 232.861847 198.406453 
L 233.991974 201.724689 
L 235.1221 190.654224 
L 236.252227 163.401008 
L 237.382354 182.424595 
L 238.51248 217.110216 
L 239.642607 212.600777 
L 240.772733 204.687964 
L 241.90286 194.139114 
L 243.032987 188.526714 
L 244.163113 196.119779 
L 245.29324 185.880047 
L 246.423366 174.173214 
L 247.553493 171.1536 
L 248.683619 177.474475 
L 249.813746 185.48723 
L 250.943873 178.891638 
L 252.073999 177.554882 
L 253.204126 191.49043 
L 254.334252 194.588989 
L 255.464379 201.412831 
L 256.594506 210.756455 
L 257.724632 207.532084 
L 258.854759 200.270107 
L 259.984885 200.091846 
L 261.115012 198.165608 
L 262.245138 191.313905 
L 263.375265 200.651084 
L 264.505392 211.235099 
L 265.635518 206.046382 
L 266.765645 209.168684 
L 267.895771 210.952529 
L 269.025898 212.341773 
L 270.156025 238.302243 
L 271.286151 240.353858 
L 272.416278 218.904029 
L 273.546404 232.400817 
L 274.676531 252.888083 
L 275.806657 237.150337 
L 276.936784 177.577562 
L 278.066911 108.989297 
L 279.197037 133.576313 
L 280.327164 186.602691 
L 281.45729 205.566408 
L 282.587417 189.803691 
L 283.717544 193.854637 
L 284.84767 237.669294 
L 285.977797 256.234041 
L 287.107923 249.907348 
L 288.23805 236.3212 
L 289.368176 216.936234 
L 290.498303 230.424572 
L 291.62843 257.029702 
L 292.758556 254.991137 
L 293.888683 247.048016 
L 295.018809 247.219224 
L 296.148936 241.544538 
L 297.279063 239.046068 
L 298.409189 244.791574 
L 299.539316 242.11844 
L 300.669442 244.62081 
L 301.799569 246.332876 
L 302.929695 238.909678 
L 304.059822 233.847098 
L 305.189949 252.591834 
L 306.320075 260.456547 
L 307.450202 247.319155 
L 308.580328 237.521782 
L 309.710455 239.155159 
L 310.840581 243.68652 
L 311.970708 224.763671 
L 313.100835 211.366742 
L 314.230961 219.013772 
L 315.361088 221.645319 
L 316.491214 229.405031 
L 317.621341 226.898006 
L 318.751468 234.831969 
L 319.881594 236.643788 
L 321.011721 224.92031 
L 322.141847 242.167574 
L 323.271974 237.975354 
L 324.4021 217.118387 
L 325.532227 226.918474 
L 326.662354 217.470651 
L 327.79248 209.70189 
L 328.922607 231.509136 
L 330.052733 240.092508 
L 332.312987 253.174961 
L 333.443113 250.620979 
L 335.703366 231.755086 
L 336.833493 235.714517 
L 337.963619 227.087281 
L 339.093746 220.856887 
L 340.223873 201.979325 
L 341.353999 172.879669 
L 342.484126 201.014775 
L 343.614252 216.093253 
L 344.744379 201.361197 
L 345.874506 205.689899 
L 347.004632 219.5565 
L 348.134759 225.485354 
L 349.264885 242.005556 
L 350.395012 243.688865 
L 351.525138 234.342313 
L 352.655265 235.172055 
L 353.785392 247.370212 
L 354.915518 239.894402 
L 356.045645 227.016627 
L 357.175771 230.934568 
L 358.305898 226.863796 
L 359.436025 220.094475 
L 360.566151 208.079088 
L 361.696278 240.575619 
L 362.826404 237.346517 
L 363.956531 170.130648 
L 365.086657 175.823307 
L 366.216784 191.548291 
L 367.346911 199.90677 
L 368.477037 246.573458 
L 369.607164 222.041376 
L 370.73729 201.463386 
L 371.867417 246.434977 
L 372.997544 242.395209 
L 374.12767 242.783083 
L 375.257797 211.199039 
L 376.387923 169.683708 
L 377.51805 203.603942 
L 378.648176 218.171346 
L 379.778303 219.023784 
L 380.90843 211.92582 
L 382.038556 199.666658 
L 383.168683 229.912564 
L 384.298809 244.458602 
L 385.428936 215.842327 
L 385.428936 215.842327 
" clip-path="url(#pa473c53593)" style="fill: none; stroke: #ff7f0e; stroke-width: 1.5; stroke-linecap: square"/>
   </g>
   <g id="line2d_20">
    <path d="M 29.439063 229.122786 
L 30.569189 239.928401 
L 31.699316 252.698705 
L 32.829442 256.780278 
L 33.959569 259.139403 
L 35.089695 254.622372 
L 36.219822 257.208287 
L 37.349949 246.388486 
L 38.480075 237.055655 
L 39.610202 218.326475 
L 41.870455 233.387372 
L 43.000581 236.234427 
L 44.130708 237.293425 
L 46.390961 256.313321 
L 47.521088 255.822722 
L 48.651214 243.109331 
L 49.781341 212.36467 
L 52.041594 162.563334 
L 53.171721 143.84129 
L 54.301847 113.406318 
L 55.431974 107.256927 
L 56.5621 129.127564 
L 57.692227 169.610337 
L 58.822354 165.645532 
L 59.95248 169.115602 
L 61.082607 144.753156 
L 62.212733 179.647632 
L 63.34286 175.437505 
L 64.472987 150.710969 
L 65.603113 88.208754 
L 66.73324 84.394062 
L 67.863366 80.114816 
L 68.993493 71.804879 
L 70.123619 51.239386 
L 71.253746 76.931758 
L 72.383873 90.291085 
L 73.513999 112.392863 
L 74.644126 137.201801 
L 75.774252 135.362509 
L 76.904379 149.276885 
L 78.034506 138.58476 
L 79.164632 155.795645 
L 80.294759 168.900399 
L 83.685138 200.539182 
L 84.815265 195.575228 
L 85.945392 187.912342 
L 87.075518 178.52472 
L 88.205645 183.482093 
L 89.335771 189.523726 
L 90.465898 188.153999 
L 91.596025 186.18367 
L 92.726151 185.09643 
L 93.856278 188.315827 
L 94.986404 195.281979 
L 96.116531 193.687884 
L 97.246657 190.308761 
L 98.376784 193.689874 
L 99.506911 198.708102 
L 100.637037 197.755094 
L 101.767164 191.402728 
L 102.89729 185.944654 
L 104.027417 189.7987 
L 105.157544 191.844605 
L 106.28767 191.480812 
L 107.417797 186.955724 
L 108.547923 187.634041 
L 109.67805 195.355837 
L 110.808176 208.84012 
L 113.06843 217.476612 
L 114.198556 210.241718 
L 115.328683 213.36349 
L 116.458809 208.263285 
L 117.588936 205.402114 
L 118.719063 185.324114 
L 119.849189 174.344388 
L 120.979316 170.831497 
L 122.109442 188.120092 
L 123.239569 193.123075 
L 124.369695 201.848623 
L 125.499822 206.082407 
L 126.629949 220.402845 
L 127.760075 233.236603 
L 128.890202 240.583648 
L 130.020328 243.620823 
L 131.150455 243.114997 
L 133.410708 250.064959 
L 134.540835 251.607698 
L 135.670961 248.893225 
L 136.801088 248.891095 
L 137.931214 245.382199 
L 140.191468 237.10204 
L 141.321594 236.582508 
L 142.451721 236.477418 
L 143.581847 234.241533 
L 144.711974 227.752305 
L 145.8421 225.467971 
L 146.972227 230.718701 
L 148.102354 240.92208 
L 149.23248 243.507227 
L 150.362607 241.044337 
L 151.492733 233.826969 
L 152.62286 233.222764 
L 153.752987 228.38915 
L 154.883113 242.740121 
L 156.01324 229.269077 
L 157.143366 229.870881 
L 158.273493 207.161383 
L 159.403619 229.209749 
L 160.533746 219.501156 
L 161.663873 212.031087 
L 162.793999 192.98185 
L 163.924126 209.581314 
L 165.054252 221.065989 
L 166.184379 234.616737 
L 167.314506 224.06468 
L 168.444632 222.447011 
L 169.574759 230.764786 
L 170.704885 226.735849 
L 171.835012 230.732013 
L 172.965138 218.850986 
L 174.095265 224.281475 
L 175.225392 218.302399 
L 176.355518 221.123664 
L 177.485645 220.93512 
L 178.615771 242.141688 
L 179.745898 228.364316 
L 180.876025 218.44859 
L 182.006151 190.029585 
L 183.136278 193.727182 
L 184.266404 200.139008 
L 185.396531 199.610689 
L 186.526657 181.624175 
L 187.656784 190.09163 
L 189.917037 214.510045 
L 191.047164 208.573118 
L 192.17729 200.569432 
L 193.307417 204.342327 
L 194.437544 203.652593 
L 195.56767 200.974213 
L 196.697797 196.618162 
L 197.827923 199.093369 
L 198.95805 191.026031 
L 200.088176 184.214067 
L 201.218303 180.790352 
L 202.34843 183.611312 
L 203.478556 181.298308 
L 204.608683 169.270937 
L 205.738809 184.905831 
L 206.868936 188.492178 
L 207.999062 200.403438 
L 209.129189 187.108997 
L 210.259316 189.611924 
L 211.389442 195.033037 
L 212.519569 197.447481 
L 213.649695 192.747876 
L 214.779822 197.145102 
L 215.909949 200.314175 
L 217.040075 220.626045 
L 219.300328 201.295556 
L 220.430455 195.464272 
L 221.560581 197.405968 
L 222.690708 197.113713 
L 223.820835 187.261183 
L 224.950961 187.08549 
L 226.081088 193.741822 
L 227.211214 189.550213 
L 228.341341 199.469935 
L 229.471468 189.152671 
L 230.601594 193.119185 
L 231.731721 182.150609 
L 232.861847 193.164416 
L 233.991974 198.60058 
L 235.1221 195.400607 
L 236.252227 176.246527 
L 237.382354 182.20913 
L 238.51248 196.443074 
L 239.642607 212.928431 
L 240.772733 210.214796 
L 241.90286 197.539344 
L 243.032987 194.357613 
L 245.29324 188.916137 
L 246.423366 182.357292 
L 247.553493 171.871023 
L 248.683619 176.669151 
L 249.813746 179.625281 
L 250.943873 181.687232 
L 252.073999 179.678119 
L 253.204126 185.826618 
L 254.334252 190.280728 
L 255.464379 201.282161 
L 256.594506 203.568241 
L 257.724632 209.613962 
L 258.854759 202.82065 
L 259.984885 202.539923 
L 261.115012 196.411828 
L 262.245138 196.743275 
L 263.375265 196.795762 
L 264.505392 205.708887 
L 265.635518 206.399686 
L 266.765645 211.222913 
L 267.895771 206.203506 
L 269.025898 215.275699 
L 270.156025 227.04317 
L 271.286151 235.049338 
L 272.416278 230.893623 
L 273.546404 231.014516 
L 274.676531 240.403632 
L 275.806657 242.143466 
L 276.936784 209.55923 
L 278.066911 152.790998 
L 279.197037 131.180415 
L 280.327164 159.879638 
L 281.45729 194.434509 
L 282.587417 194.078898 
L 283.717544 199.039398 
L 284.84767 218.686553 
L 285.977797 244.703586 
L 287.107923 251.750355 
L 288.23805 243.877834 
L 289.368176 225.985777 
L 290.498303 230.404356 
L 292.758556 254.199875 
L 293.888683 252.076606 
L 296.148936 243.017663 
L 297.279063 242.328067 
L 298.409189 241.322359 
L 299.539316 242.707579 
L 300.669442 244.981923 
L 301.799569 243.764543 
L 302.929695 242.927891 
L 304.059822 236.657187 
L 305.189949 247.335431 
L 306.320075 252.068319 
L 307.450202 255.212423 
L 308.580328 242.265414 
L 309.710455 240.610269 
L 310.840581 239.708955 
L 311.970708 232.583033 
L 313.100835 222.156768 
L 314.230961 214.756056 
L 315.361088 220.03548 
L 316.491214 226.75576 
L 317.621341 225.307435 
L 318.751468 235.305016 
L 319.881594 230.400667 
L 321.011721 234.101419 
L 322.141847 235.597281 
L 323.271974 235.016415 
L 324.4021 230.998408 
L 325.532227 224.298607 
L 326.662354 216.77092 
L 327.79248 219.728418 
L 328.922607 220.168553 
L 330.052733 235.06089 
L 331.18286 243.990749 
L 332.312987 249.55491 
L 333.443113 250.837773 
L 334.57324 246.346832 
L 335.703366 236.739674 
L 336.833493 236.167242 
L 337.963619 226.769203 
L 339.093746 229.364982 
L 340.223873 203.387961 
L 341.353999 196.658751 
L 342.484126 188.424055 
L 343.614252 206.663801 
L 344.744379 206.069522 
L 345.874506 209.659357 
L 347.004632 208.600655 
L 348.134759 225.206181 
L 349.264885 233.601789 
L 350.395012 241.084532 
L 351.525138 239.115899 
L 352.655265 236.539116 
L 353.785392 241.724612 
L 354.915518 240.189745 
L 356.045645 236.74839 
L 357.175771 228.620524 
L 358.305898 227.958032 
L 359.436025 224.130838 
L 360.566151 212.813983 
L 361.696278 233.750892 
L 362.826404 225.457117 
L 363.956531 214.850353 
L 365.086657 179.576668 
L 366.216784 179.326206 
L 367.346911 198.877806 
L 368.477037 230.048416 
L 369.607164 218.911035 
L 370.73729 230.841344 
L 371.867417 218.786929 
L 372.997544 243.712699 
L 374.12767 244.069427 
L 375.257797 220.923793 
L 376.387923 201.608566 
L 377.51805 190.148872 
L 378.648176 206.694286 
L 379.778303 220.51326 
L 380.90843 212.165852 
L 382.038556 208.761677 
L 384.298809 232.258454 
L 385.428936 229.284271 
L 385.428936 229.284271 
" clip-path="url(#pa473c53593)" style="fill: none; stroke: #2ca02c; stroke-width: 1.5; stroke-linecap: square"/>
   </g>
   <g id="line2d_21">
    <path d="M 29.439063 221.275211 
L 30.569189 236.505406 
L 31.699316 248.478994 
L 32.829442 250.372301 
L 33.959569 258.240554 
L 35.089695 258.641514 
L 36.219822 253.887849 
L 37.349949 250.742613 
L 38.480075 242.558839 
L 39.610202 227.832517 
L 40.740328 226.152528 
L 41.870455 232.537407 
L 43.000581 227.154092 
L 44.130708 239.663468 
L 45.260835 247.949949 
L 46.390961 246.12502 
L 47.521088 254.219959 
L 48.651214 251.824807 
L 49.781341 220.968504 
L 50.911468 205.919399 
L 52.041594 186.135769 
L 53.171721 136.533121 
L 54.301847 133.903952 
L 55.431974 128.780364 
L 56.5621 108.165345 
L 57.692227 154.661857 
L 58.822354 166.381937 
L 59.95248 156.222628 
L 62.212733 174.127491 
L 63.34286 164.056515 
L 64.472987 151.002816 
L 65.603113 139.788926 
L 66.73324 90.161987 
L 67.863366 73.226844 
L 68.993493 79.930908 
L 70.123619 63.162834 
L 71.253746 67.394559 
L 72.383873 87.608872 
L 73.513999 95.307164 
L 74.644126 130.829051 
L 75.774252 130.923693 
L 78.034506 149.07322 
L 79.164632 145.514995 
L 80.294759 165.230701 
L 81.424885 172.15619 
L 82.555012 183.990017 
L 83.685138 198.107108 
L 84.815265 192.195781 
L 85.945392 190.267628 
L 87.075518 190.194295 
L 88.205645 178.776002 
L 89.335771 185.572177 
L 90.465898 190.372599 
L 91.596025 184.54832 
L 92.726151 186.766963 
L 93.856278 189.473261 
L 94.986404 190.069324 
L 96.116531 192.410021 
L 99.506911 195.044354 
L 100.637037 196.351076 
L 101.767164 194.867136 
L 102.89729 189.335364 
L 104.027417 189.603599 
L 105.157544 190.360547 
L 106.28767 189.394825 
L 107.417797 190.342872 
L 108.547923 188.74688 
L 109.67805 192.084855 
L 110.808176 203.69443 
L 111.938303 208.628052 
L 113.06843 214.390906 
L 114.198556 214.306201 
L 115.328683 212.043229 
L 116.458809 210.791529 
L 117.588936 205.110817 
L 119.849189 181.995215 
L 120.979316 177.300368 
L 122.109442 180.166067 
L 123.239569 188.02426 
L 124.369695 198.022962 
L 126.629949 213.03684 
L 127.760075 228.256977 
L 128.890202 235.194567 
L 130.020328 240.763189 
L 131.150455 244.49752 
L 132.280581 245.259188 
L 134.540835 250.498685 
L 135.670961 249.519384 
L 136.801088 249.59516 
L 137.931214 247.032432 
L 139.061341 241.548346 
L 140.191468 240.987516 
L 142.451721 234.646856 
L 143.581847 235.892398 
L 145.8421 226.256947 
L 146.972227 231.579139 
L 148.102354 236.122417 
L 149.23248 238.507266 
L 150.362607 242.782759 
L 151.492733 238.331566 
L 152.62286 232.634606 
L 153.752987 231.587191 
L 154.883113 239.646891 
L 156.01324 229.193149 
L 157.143366 229.040635 
L 158.273493 225.896331 
L 159.403619 217.632953 
L 160.533746 221.78581 
L 161.663873 212.266073 
L 162.793999 208.065956 
L 163.924126 206.313066 
L 165.054252 213.521109 
L 166.184379 226.061058 
L 167.314506 227.980673 
L 168.444632 222.980288 
L 169.574759 233.074257 
L 170.704885 221.710038 
L 171.835012 228.075685 
L 172.965138 230.662107 
L 174.095265 216.432907 
L 175.225392 221.898783 
L 176.355518 223.537176 
L 177.485645 218.034898 
L 178.615771 235.927619 
L 179.745898 230.806248 
L 180.876025 215.976432 
L 182.006151 216.679967 
L 183.136278 192.041922 
L 184.266404 192.910047 
L 185.396531 202.612348 
L 186.526657 185.877122 
L 187.656784 190.175906 
L 188.786911 204.536808 
L 189.917037 198.448671 
L 191.047164 209.676726 
L 192.17729 211.634562 
L 193.307417 199.686873 
L 194.437544 201.281933 
L 195.56767 206.126362 
L 196.697797 196.71423 
L 197.827923 197.268091 
L 198.95805 196.960725 
L 200.088176 183.923798 
L 201.218303 185.627441 
L 202.34843 185.325715 
L 203.478556 176.313222 
L 204.608683 174.670499 
L 205.738809 188.327129 
L 206.868936 180.177036 
L 209.129189 200.262414 
L 210.259316 183.839538 
L 211.389442 194.796847 
L 212.519569 198.049398 
L 213.649695 188.189868 
L 214.779822 200.271432 
L 215.909949 201.939318 
L 217.040075 207.269481 
L 218.170202 213.289999 
L 219.300328 204.949238 
L 220.430455 203.848238 
L 221.560581 195.139464 
L 222.690708 194.305696 
L 223.820835 193.674278 
L 224.950961 188.888776 
L 226.081088 191.5016 
L 227.211214 187.892686 
L 228.341341 198.041309 
L 229.471468 193.005785 
L 230.601594 187.405469 
L 231.731721 192.869183 
L 232.861847 188.066754 
L 233.991974 194.64471 
L 235.1221 194.587132 
L 236.252227 183.841066 
L 237.382354 186.599767 
L 238.51248 192.921842 
L 239.642607 198.395901 
L 240.772733 211.065593 
L 243.032987 196.858291 
L 244.163113 195.13317 
L 245.29324 187.209652 
L 246.423366 185.572071 
L 247.553493 178.699715 
L 248.683619 175.832866 
L 249.813746 178.493445 
L 250.943873 178.184745 
L 252.073999 181.575194 
L 253.204126 185.331186 
L 254.334252 186.329848 
L 255.464379 196.546057 
L 256.594506 202.936162 
L 257.724632 204.510717 
L 258.854759 205.626636 
L 259.984885 203.868227 
L 261.115012 199.222196 
L 262.245138 195.776348 
L 263.375265 199.414406 
L 264.505392 201.670223 
L 265.635518 203.378204 
L 266.765645 210.206468 
L 267.895771 208.524885 
L 269.025898 210.766072 
L 270.156025 225.546373 
L 272.416278 229.083162 
L 273.546404 236.464788 
L 274.676531 237.497733 
L 275.806657 234.806213 
L 276.936784 221.777563 
L 278.066911 187.059161 
L 279.197037 156.996009 
L 280.327164 152.052377 
L 281.45729 173.746238 
L 282.587417 188.21243 
L 283.717544 199.845473 
L 284.84767 216.297816 
L 287.107923 244.014071 
L 288.23805 246.895303 
L 289.368176 234.888058 
L 290.498303 233.419403 
L 291.62843 239.247932 
L 292.758556 243.609469 
L 293.888683 252.205565 
L 295.018809 251.204953 
L 296.148936 244.342162 
L 297.279063 243.23247 
L 298.409189 243.18381 
L 299.539316 240.595936 
L 300.669442 244.706237 
L 301.799569 244.25254 
L 302.929695 241.813187 
L 304.059822 240.314936 
L 305.189949 246.039879 
L 306.320075 248.270489 
L 307.450202 250.000714 
L 308.580328 249.838473 
L 309.710455 243.336882 
L 310.840581 240.659262 
L 311.970708 232.232699 
L 313.100835 228.85032 
L 314.230961 221.92811 
L 315.361088 216.625799 
L 316.491214 224.341012 
L 317.621341 224.305296 
L 318.751468 232.157378 
L 319.881594 231.895875 
L 321.011721 230.002881 
L 322.141847 239.449318 
L 323.271974 231.67145 
L 324.4021 230.453386 
L 325.532227 232.608966 
L 326.662354 217.294661 
L 327.79248 218.652145 
L 328.922607 224.730893 
L 330.052733 226.036156 
L 331.18286 239.412963 
L 332.312987 246.900947 
L 333.443113 248.666268 
L 334.57324 247.606781 
L 335.703366 241.709108 
L 336.833493 238.715508 
L 337.963619 229.449148 
L 339.093746 228.566113 
L 340.223873 215.237231 
L 341.353999 199.101393 
L 342.484126 201.497978 
L 343.614252 196.262164 
L 344.744379 201.188106 
L 345.874506 211.008323 
L 347.004632 210.81501 
L 348.134759 216.028823 
L 349.264885 231.439145 
L 350.395012 235.037249 
L 351.525138 238.256773 
L 352.655265 239.534264 
L 353.785392 241.103387 
L 354.915518 237.564451 
L 356.045645 237.772997 
L 357.175771 235.524322 
L 358.305898 226.940241 
L 359.436025 225.659602 
L 360.566151 217.875523 
L 361.696278 230.879977 
L 362.826404 223.746317 
L 363.956531 210.571632 
L 365.086657 210.586262 
L 366.216784 181.23276 
L 367.346911 188.387747 
L 368.477037 222.631901 
L 369.607164 211.503893 
L 370.73729 226.523011 
L 371.867417 235.045011 
L 372.997544 223.94509 
L 374.12767 244.629308 
L 376.387923 211.905399 
L 377.51805 207.461883 
L 378.648176 196.157487 
L 379.778303 211.571442 
L 380.90843 215.092211 
L 382.038556 209.744566 
L 383.168683 221.301717 
L 384.298809 224.484392 
L 385.428936 223.115774 
L 385.428936 223.115774 
" clip-path="url(#pa473c53593)" style="fill: none; stroke: #d62728; stroke-width: 1.5; stroke-linecap: square"/>
   </g>
   <g id="line2d_22">
    <path d="M 29.439063 222.506149 
L 30.569189 229.225195 
L 31.699316 244.328125 
L 32.829442 247.402355 
L 35.089695 258.019032 
L 36.219822 257.295259 
L 37.349949 249.2435 
L 38.480075 246.974437 
L 39.610202 234.54074 
L 40.740328 231.861658 
L 41.870455 231.553594 
L 43.000581 227.717781 
L 44.130708 232.012654 
L 45.260835 247.643113 
L 47.521088 246.413994 
L 48.651214 251.305355 
L 49.781341 234.325278 
L 50.911468 214.484016 
L 52.041594 201.387908 
L 53.171721 163.586194 
L 54.301847 129.858474 
L 55.431974 141.397281 
L 56.5621 125.3209 
L 57.692227 134.972888 
L 58.822354 154.989431 
L 59.95248 158.76708 
L 61.082607 155.361922 
L 62.212733 182.873277 
L 63.34286 162.532711 
L 64.472987 145.998895 
L 65.603113 142.271252 
L 66.73324 131.739654 
L 67.863366 80.2958 
L 68.993493 74.469261 
L 70.123619 71.612377 
L 71.253746 73.369884 
L 72.383873 78.170446 
L 73.513999 92.205622 
L 74.644126 114.651386 
L 75.774252 126.98029 
L 76.904379 135.707335 
L 78.034506 141.820322 
L 79.164632 152.338799 
L 80.294759 155.572908 
L 81.424885 168.629853 
L 82.555012 177.501124 
L 83.685138 192.046346 
L 84.815265 191.863517 
L 85.945392 188.562489 
L 87.075518 191.603524 
L 88.205645 188.124556 
L 89.335771 181.447777 
L 90.465898 187.0666 
L 91.596025 187.0915 
L 92.726151 185.34807 
L 93.856278 189.913695 
L 94.986404 190.637736 
L 96.116531 188.763136 
L 98.376784 195.654061 
L 99.506911 195.075047 
L 100.637037 193.860278 
L 101.767164 194.307816 
L 102.89729 192.563919 
L 104.027417 191.542008 
L 106.28767 188.685177 
L 107.417797 188.893792 
L 108.547923 191.078975 
L 109.67805 192.074346 
L 110.808176 199.593102 
L 111.938303 204.565698 
L 113.06843 210.577143 
L 114.198556 212.428944 
L 115.328683 214.907852 
L 116.458809 210.23647 
L 117.588936 207.817891 
L 118.719063 196.188428 
L 119.849189 189.862088 
L 120.979316 182.770205 
L 122.109442 183.291563 
L 123.239569 181.712392 
L 124.369695 193.113415 
L 126.629949 211.463604 
L 128.890202 230.909798 
L 131.150455 242.063784 
L 132.280581 245.919887 
L 133.410708 246.583547 
L 134.540835 248.741635 
L 135.670961 249.036102 
L 136.801088 249.952996 
L 137.931214 247.98217 
L 139.061341 243.701758 
L 140.191468 241.373489 
L 141.321594 240.72956 
L 142.451721 235.993508 
L 144.711974 232.924776 
L 145.8421 229.099784 
L 146.972227 230.988135 
L 148.102354 235.724345 
L 149.23248 235.091221 
L 150.362607 238.923995 
L 151.492733 240.309621 
L 152.62286 236.532871 
L 153.752987 231.439783 
L 154.883113 239.832571 
L 156.01324 229.288225 
L 157.143366 229.025515 
L 158.273493 226.018762 
L 159.403619 229.776904 
L 160.533746 213.604985 
L 161.663873 215.680869 
L 162.793999 209.062995 
L 163.924126 214.984372 
L 165.054252 210.206824 
L 166.184379 219.314815 
L 167.314506 222.17396 
L 168.444632 226.369517 
L 169.574759 231.430807 
L 170.704885 225.577264 
L 171.835012 223.851206 
L 172.965138 228.555607 
L 174.095265 226.648719 
L 175.225392 216.031922 
L 176.355518 225.28565 
L 177.485645 220.640156 
L 178.615771 231.061495 
L 179.745898 227.73105 
L 180.876025 220.726004 
L 182.006151 215.037011 
L 183.136278 213.157231 
L 184.266404 191.720756 
L 185.396531 196.460668 
L 186.526657 191.350375 
L 187.656784 191.757527 
L 188.786911 201.836996 
L 189.917037 200.792232 
L 191.047164 197.550137 
L 192.17729 211.894043 
L 193.307417 208.846332 
L 194.437544 198.115669 
L 195.56767 203.773183 
L 196.697797 201.828184 
L 197.827923 197.214919 
L 198.95805 195.912493 
L 201.218303 185.115566 
L 202.34843 188.215948 
L 203.478556 179.230873 
L 204.608683 171.901027 
L 205.738809 188.619752 
L 206.868936 183.951829 
L 207.999062 183.070739 
L 209.129189 191.957715 
L 210.259316 195.323676 
L 211.389442 189.316525 
L 212.519569 197.266248 
L 213.649695 190.602066 
L 214.779822 195.331172 
L 215.909949 203.427593 
L 217.040075 207.153921 
L 218.170202 203.660003 
L 219.300328 208.209749 
L 220.430455 206.225655 
L 221.560581 201.968952 
L 222.690708 193.086981 
L 223.820835 192.080368 
L 224.950961 193.671134 
L 226.081088 192.037551 
L 227.211214 187.230909 
L 228.341341 195.127704 
L 229.471468 193.136595 
L 230.601594 190.879234 
L 231.731721 188.360647 
L 232.861847 195.259724 
L 233.991974 190.323195 
L 235.1221 192.16594 
L 236.252227 185.535827 
L 237.382354 190.356327 
L 238.51248 194.157665 
L 239.642607 195.231943 
L 240.772733 199.805793 
L 241.90286 205.75506 
L 243.032987 201.980701 
L 244.163113 196.973377 
L 246.423366 184.857416 
L 247.553493 182.068236 
L 248.683619 180.423619 
L 249.813746 177.468219 
L 250.943873 177.562124 
L 252.073999 178.80059 
L 253.204126 185.690961 
L 254.334252 185.834271 
L 256.594506 198.87215 
L 257.724632 203.82049 
L 258.854759 202.259429 
L 259.984885 205.894119 
L 261.115012 200.979192 
L 262.245138 198.165651 
L 263.375265 198.124359 
L 264.505392 202.74615 
L 265.635518 200.578123 
L 266.765645 207.104849 
L 267.895771 208.241904 
L 269.025898 211.671763 
L 270.156025 220.244674 
L 271.286151 226.078778 
L 272.416278 223.863886 
L 273.546404 233.998962 
L 274.676531 240.383726 
L 275.806657 233.517676 
L 276.936784 219.293385 
L 278.066911 203.251104 
L 279.197037 183.622751 
L 280.327164 167.197618 
L 281.45729 165.252998 
L 282.587417 172.562654 
L 283.717544 194.202864 
L 284.84767 213.618043 
L 285.977797 226.041419 
L 287.107923 232.462632 
L 288.23805 241.448056 
L 289.368176 239.391526 
L 290.498303 238.737845 
L 291.62843 239.787062 
L 292.758556 241.114508 
L 293.888683 244.070253 
L 295.018809 251.48424 
L 297.279063 244.248661 
L 298.409189 243.731784 
L 299.539316 242.244278 
L 300.669442 242.65733 
L 301.799569 244.176889 
L 302.929695 242.605043 
L 304.059822 239.931252 
L 305.189949 246.935916 
L 306.320075 247.059347 
L 307.450202 247.328921 
L 308.580328 246.558014 
L 309.710455 249.176368 
L 310.840581 242.836748 
L 311.970708 234.590488 
L 313.100835 229.319501 
L 314.230961 227.373291 
L 315.361088 221.952487 
L 316.491214 220.862935 
L 317.621341 222.835301 
L 318.751468 230.068009 
L 319.881594 230.003639 
L 321.011721 231.284555 
L 322.141847 235.291923 
L 323.271974 235.670859 
L 324.4021 228.611926 
L 325.532227 231.859133 
L 326.662354 225.800643 
L 327.79248 218.691941 
L 328.922607 222.921585 
L 330.052733 228.392567 
L 331.18286 231.680575 
L 332.312987 242.787511 
L 333.443113 246.709389 
L 334.57324 246.472815 
L 335.703366 243.713377 
L 336.833493 242.251513 
L 337.963619 232.996184 
L 339.093746 230.328151 
L 340.223873 217.506195 
L 342.484126 202.444106 
L 343.614252 204.81148 
L 344.744379 193.751729 
L 345.874506 206.275183 
L 347.004632 211.656683 
L 348.134759 216.266542 
L 349.264885 223.305393 
L 350.395012 233.047093 
L 351.525138 233.898707 
L 352.655265 238.766741 
L 353.785392 242.515821 
L 354.915518 237.896497 
L 356.045645 236.121135 
L 357.175771 236.59999 
L 358.305898 232.917594 
L 359.436025 225.295033 
L 360.566151 220.440519 
L 361.696278 231.054901 
L 362.826404 223.345173 
L 363.956531 212.189456 
L 365.086657 207.93829 
L 366.216784 206.054431 
L 367.346911 188.0728 
L 368.477037 211.199039 
L 369.607164 208.701605 
L 371.867417 230.900906 
L 372.997544 235.641406 
L 374.12767 229.113732 
L 375.257797 231.97843 
L 376.387923 219.871379 
L 378.648176 208.516872 
L 379.778303 202.5267 
L 380.90843 208.814891 
L 382.038556 212.61957 
L 383.168683 219.624428 
L 384.298809 224.597112 
L 385.428936 218.369966 
L 385.428936 218.369966 
" clip-path="url(#pa473c53593)" style="fill: none; stroke: #9467bd; stroke-width: 1.5; stroke-linecap: square"/>
   </g>
   <g id="line2d_23">
    <path d="M 29.439063 221.989476 
L 30.569189 228.904971 
L 31.699316 237.483987 
L 33.959569 250.133055 
L 36.219822 256.994611 
L 37.349949 253.038847 
L 39.610202 239.915086 
L 40.740328 236.632969 
L 41.870455 235.239876 
L 43.000581 227.68395 
L 44.130708 231.670455 
L 45.260835 240.522 
L 46.390961 246.901912 
L 47.521088 247.094508 
L 48.651214 245.135114 
L 49.781341 236.98727 
L 50.911468 227.417148 
L 52.041594 209.558869 
L 54.301847 154.479575 
L 55.431974 136.912814 
L 56.5621 136.626651 
L 57.692227 143.651398 
L 58.822354 138.702995 
L 59.95248 150.24993 
L 61.082607 157.637623 
L 62.212733 172.805614 
L 63.34286 172.308881 
L 64.472987 147.756838 
L 65.603113 139.424444 
L 66.73324 135.249771 
L 67.863366 118.380389 
L 68.993493 80.14313 
L 70.123619 68.347758 
L 71.253746 78.528388 
L 73.513999 83.731536 
L 74.644126 109.142714 
L 75.774252 114.016671 
L 76.904379 131.704446 
L 78.034506 137.894546 
L 79.164632 145.867244 
L 80.294759 159.375849 
L 81.424885 160.199988 
L 82.555012 173.774933 
L 83.685138 185.603024 
L 84.815265 187.691034 
L 87.075518 189.973888 
L 88.205645 189.661866 
L 89.335771 188.720384 
L 90.465898 183.420157 
L 91.596025 184.839306 
L 92.726151 187.32764 
L 93.856278 188.234936 
L 94.986404 190.808875 
L 96.116531 189.459306 
L 97.246657 189.315904 
L 98.376784 194.488321 
L 99.506911 196.222111 
L 100.637037 194.084129 
L 101.767164 192.551171 
L 102.89729 192.477858 
L 104.027417 193.836383 
L 105.157544 191.623847 
L 106.28767 188.740474 
L 107.417797 188.38451 
L 108.547923 189.755489 
L 109.67805 193.432394 
L 110.808176 198.363082 
L 111.938303 201.032618 
L 113.06843 206.925265 
L 114.198556 209.543013 
L 115.328683 213.252545 
L 116.458809 212.963095 
L 117.588936 207.846519 
L 119.849189 192.369156 
L 120.979316 189.197994 
L 123.239569 184.042107 
L 124.369695 187.198671 
L 127.760075 218.675332 
L 128.890202 224.780796 
L 130.020328 232.725185 
L 132.280581 243.690539 
L 133.410708 246.907814 
L 134.540835 247.474879 
L 135.670961 247.797075 
L 136.801088 249.480254 
L 137.931214 248.556817 
L 139.061341 245.08607 
L 140.191468 243.204053 
L 142.451721 238.815428 
L 144.711974 232.270423 
L 145.8421 231.130882 
L 146.972227 232.49656 
L 148.102354 234.57189 
L 149.23248 234.929153 
L 150.362607 236.028174 
L 151.492733 237.444895 
L 152.62286 238.514573 
L 153.752987 234.934333 
L 154.883113 238.395766 
L 156.01324 231.266365 
L 157.143366 229.132824 
L 158.273493 226.515892 
L 159.403619 229.239417 
L 160.533746 224.817696 
L 161.663873 209.621523 
L 162.793999 212.522123 
L 165.054252 216.641101 
L 166.184379 215.732855 
L 167.314506 217.061613 
L 168.444632 221.758769 
L 169.574759 232.710465 
L 170.704885 225.409058 
L 171.835012 226.675144 
L 172.965138 224.981941 
L 174.095265 225.516094 
L 175.225392 224.706134 
L 176.355518 219.993368 
L 177.485645 222.621729 
L 178.615771 230.960194 
L 179.745898 224.808205 
L 180.876025 219.699069 
L 182.006151 219.194515 
L 183.136278 212.348296 
L 184.266404 209.65087 
L 185.396531 194.907088 
L 186.526657 187.807324 
L 187.656784 195.211158 
L 188.786911 201.189777 
L 189.917037 199.121299 
L 191.047164 199.667689 
L 192.17729 201.664094 
L 193.307417 209.536309 
L 194.437544 206.137929 
L 195.56767 200.771985 
L 196.697797 200.539284 
L 197.827923 201.393693 
L 200.088176 190.557175 
L 201.218303 190.24811 
L 202.34843 187.367939 
L 203.478556 182.763564 
L 204.608683 175.139954 
L 205.738809 184.260041 
L 207.999062 185.693006 
L 209.129189 186.011723 
L 210.259316 189.053189 
L 211.389442 197.746163 
L 212.519569 192.377572 
L 213.649695 191.188962 
L 214.779822 196.093335 
L 215.909949 198.888857 
L 217.040075 207.49831 
L 219.300328 200.805821 
L 220.430455 208.713277 
L 221.560581 204.293783 
L 222.690708 199.221764 
L 223.820835 191.424833 
L 224.950961 192.344692 
L 226.081088 195.438584 
L 227.211214 188.410429 
L 228.341341 193.421343 
L 229.471468 191.466693 
L 230.601594 191.34645 
L 231.731721 191.086209 
L 232.861847 191.173373 
L 233.991974 195.888562 
L 235.1221 188.934661 
L 236.252227 184.957424 
L 238.51248 195.922878 
L 239.642607 195.865522 
L 240.772733 196.964714 
L 241.90286 196.992366 
L 243.032987 203.993471 
L 244.163113 201.233957 
L 245.29324 193.29733 
L 246.423366 188.48751 
L 247.553493 182.050611 
L 248.683619 182.922867 
L 249.813746 180.997684 
L 250.943873 176.85942 
L 252.073999 178.181248 
L 253.204126 182.759312 
L 254.334252 186.049535 
L 255.464379 190.908696 
L 256.594506 194.995539 
L 257.724632 200.316108 
L 258.854759 202.053777 
L 259.984885 203.05515 
L 261.115012 203.188982 
L 262.245138 199.818307 
L 263.375265 199.700281 
L 264.505392 201.146293 
L 265.635518 201.664569 
L 266.765645 204.221356 
L 267.895771 205.956449 
L 269.025898 210.922625 
L 270.156025 219.423925 
L 271.286151 221.610325 
L 272.416278 223.37897 
L 273.546404 229.049003 
L 274.676531 237.766712 
L 275.806657 236.693885 
L 278.066911 204.185953 
L 279.197037 198.109798 
L 281.45729 175.034151 
L 282.587417 165.669523 
L 283.717544 180.766015 
L 284.84767 207.173387 
L 285.977797 222.415569 
L 287.107923 228.878611 
L 288.23805 232.116043 
L 289.368176 235.824645 
L 290.498303 241.744141 
L 291.62843 242.955834 
L 292.758556 241.247706 
L 293.888683 241.929208 
L 295.018809 244.83055 
L 296.148936 248.808845 
L 297.279063 247.351661 
L 298.409189 244.492239 
L 299.539316 242.862764 
L 300.669442 243.66558 
L 301.799569 242.552297 
L 302.929695 242.817807 
L 304.059822 240.92033 
L 305.189949 245.569599 
L 306.320075 247.629856 
L 307.450202 246.468575 
L 308.580328 244.839602 
L 309.710455 246.543437 
L 310.840581 247.840138 
L 311.970708 237.555391 
L 313.100835 231.830536 
L 314.230961 228.017048 
L 315.361088 226.505229 
L 316.491214 224.482092 
L 317.621341 220.162131 
L 318.751468 227.964603 
L 319.881594 228.595117 
L 321.011721 229.804007 
L 322.141847 235.451266 
L 323.271974 232.73684 
L 324.4021 232.56268 
L 325.532227 230.112794 
L 326.662354 226.306774 
L 327.79248 225.520005 
L 328.922607 222.253967 
L 330.052733 226.331124 
L 331.18286 232.637563 
L 332.312987 236.043033 
L 333.443113 243.321083 
L 334.57324 245.177288 
L 335.703366 243.392969 
L 336.833493 243.825994 
L 337.963619 237.09032 
L 339.093746 233.124849 
L 340.223873 221.039659 
L 341.353999 212.702705 
L 342.484126 210.684665 
L 343.614252 205.036894 
L 344.744379 201.452401 
L 345.874506 199.483568 
L 348.134759 216.050304 
L 349.264885 222.313926 
L 350.395012 226.144196 
L 351.525138 232.416854 
L 352.655265 235.082206 
L 353.785392 241.405172 
L 354.915518 239.654475 
L 356.045645 236.643814 
L 358.305898 234.275732 
L 359.436025 230.64629 
L 360.566151 221.01198 
L 361.696278 230.898177 
L 362.826404 224.796132 
L 363.956531 213.836756 
L 365.086657 209.756475 
L 366.216784 204.548007 
L 367.346911 207.130202 
L 368.477037 207.450722 
L 369.607164 200.66163 
L 370.73729 216.005997 
L 371.867417 224.572582 
L 372.997544 232.120267 
L 374.12767 237.700452 
L 375.257797 219.860697 
L 376.387923 224.810058 
L 377.51805 220.473006 
L 378.648176 214.0332 
L 379.778303 211.447442 
L 380.90843 201.640442 
L 382.038556 207.732467 
L 383.168683 220.268411 
L 384.298809 222.695635 
L 385.428936 219.51243 
L 385.428936 219.51243 
" clip-path="url(#pa473c53593)" style="fill: none; stroke: #8c564b; stroke-width: 1.5; stroke-linecap: square"/>
   </g>
   <g id="line2d_24">
    <path d="M 29.439063 224.216778 
L 30.569189 227.596136 
L 31.699316 236.094002 
L 32.829442 238.285498 
L 33.959569 247.009287 
L 35.089695 251.173405 
L 36.219822 253.38057 
L 37.349949 253.391419 
L 38.480075 250.111493 
L 39.610202 240.35466 
L 40.740328 240.873149 
L 41.870455 238.743918 
L 43.000581 231.524757 
L 44.130708 231.087585 
L 45.260835 239.084283 
L 46.390961 240.893702 
L 47.521088 246.996197 
L 48.651214 245.910647 
L 49.781341 233.085415 
L 50.911468 230.86679 
L 52.041594 221.875268 
L 53.171721 192.984554 
L 54.301847 172.579527 
L 55.431974 156.56697 
L 56.5621 133.393898 
L 57.692227 150.105108 
L 58.822354 145.513232 
L 59.95248 136.739153 
L 61.082607 150.483069 
L 62.212733 172.207681 
L 63.34286 164.739432 
L 64.472987 159.007124 
L 65.603113 141.932814 
L 66.73324 133.752243 
L 68.993493 113.209754 
L 70.123619 74.203567 
L 71.253746 74.821343 
L 72.383873 84.425418 
L 73.513999 85.512302 
L 74.644126 100.005778 
L 75.774252 109.382331 
L 76.904379 120.19955 
L 78.034506 134.191304 
L 79.164632 141.997781 
L 80.294759 153.047456 
L 81.424885 162.735832 
L 82.555012 166.052801 
L 83.685138 181.433711 
L 84.815265 182.665304 
L 85.945392 185.684395 
L 87.075518 190.052933 
L 88.205645 188.528151 
L 89.335771 189.949308 
L 90.465898 189.323584 
L 91.596025 181.997329 
L 92.726151 185.368481 
L 93.856278 189.494891 
L 94.986404 189.251731 
L 96.116531 189.776067 
L 97.246657 189.831957 
L 98.376784 191.63289 
L 99.506911 195.146246 
L 100.637037 195.216294 
L 101.767164 192.932486 
L 102.89729 191.218756 
L 104.027417 193.58218 
L 105.157544 193.580143 
L 106.28767 190.258975 
L 107.417797 188.474989 
L 108.547923 189.198645 
L 109.67805 191.981943 
L 110.808176 198.601115 
L 111.938303 199.784621 
L 113.06843 203.618883 
L 114.198556 206.544268 
L 115.328683 210.681256 
L 116.458809 211.804545 
L 117.588936 210.573035 
L 118.719063 201.272819 
L 120.979316 191.453746 
L 122.109442 191.567199 
L 123.239569 186.873421 
L 124.369695 188.362043 
L 125.499822 191.892493 
L 127.760075 214.499122 
L 128.890202 222.158824 
L 130.020328 227.322903 
L 131.150455 234.922937 
L 132.280581 240.308315 
L 133.410708 244.880253 
L 134.540835 247.623529 
L 135.670961 246.836933 
L 136.801088 248.36133 
L 137.931214 248.346486 
L 139.061341 246.014508 
L 140.191468 244.469403 
L 141.321594 242.710852 
L 142.451721 239.410904 
L 143.581847 238.158751 
L 144.711974 233.598803 
L 145.8421 230.819473 
L 146.972227 233.710105 
L 148.102354 235.321048 
L 149.23248 234.048867 
L 150.362607 235.757231 
L 151.492733 235.145673 
L 152.62286 236.280027 
L 153.752987 236.891486 
L 154.883113 240.248563 
L 156.01324 231.206691 
L 157.143366 230.855381 
L 158.273493 226.97232 
L 159.403619 229.200263 
L 160.533746 225.060755 
L 161.663873 220.171876 
L 162.793999 207.679122 
L 163.924126 216.719103 
L 165.054252 216.123738 
L 166.184379 220.271379 
L 167.314506 214.26839 
L 168.444632 217.436337 
L 169.574759 228.104504 
L 170.704885 227.449084 
L 171.835012 226.376218 
L 172.965138 227.223636 
L 174.095265 222.819885 
L 175.225392 223.999794 
L 176.355518 226.684388 
L 177.485645 218.385403 
L 178.615771 231.107781 
L 179.745898 225.63427 
L 180.876025 218.212387 
L 182.006151 218.52415 
L 183.136278 216.383034 
L 184.266404 209.44702 
L 185.396531 209.664523 
L 186.526657 187.671964 
L 187.656784 191.709338 
L 188.786911 202.671045 
L 189.917037 198.947973 
L 191.047164 198.387136 
L 192.17729 202.852002 
L 193.307417 201.008475 
L 194.437544 207.131896 
L 195.56767 207.18111 
L 196.697797 198.380668 
L 197.827923 200.348606 
L 198.95805 199.87207 
L 200.088176 191.497092 
L 201.218303 190.446999 
L 202.34843 191.399083 
L 203.478556 182.804438 
L 204.608683 178.836405 
L 205.738809 185.145917 
L 206.868936 181.658839 
L 207.999062 186.284838 
L 209.129189 187.806378 
L 210.259316 184.297498 
L 211.389442 192.130815 
L 212.519569 199.063592 
L 213.649695 187.727666 
L 214.779822 195.808404 
L 215.909949 199.024939 
L 217.040075 203.154815 
L 218.170202 204.902638 
L 219.300328 201.663825 
L 220.430455 202.345891 
L 221.560581 206.736348 
L 224.950961 191.746216 
L 226.081088 194.064329 
L 227.211214 191.922213 
L 228.341341 193.527147 
L 229.471468 190.499864 
L 230.601594 190.157175 
L 231.731721 191.456708 
L 232.861847 193.073793 
L 233.991974 192.318328 
L 235.1221 193.959995 
L 236.252227 183.119016 
L 238.51248 195.385749 
L 239.642607 197.120655 
L 240.772733 197.255697 
L 241.90286 194.920628 
L 243.032987 196.680503 
L 244.163113 203.076989 
L 245.29324 197.57802 
L 246.423366 190.830877 
L 247.553493 185.624953 
L 248.683619 182.786056 
L 249.813746 183.053444 
L 250.943873 179.987536 
L 252.073999 177.492985 
L 253.204126 181.681811 
L 254.334252 183.494688 
L 255.464379 190.37394 
L 257.724632 196.827227 
L 258.854759 199.273135 
L 259.984885 202.7665 
L 261.115012 201.103242 
L 262.245138 201.896283 
L 263.375265 200.885534 
L 264.505392 202.043694 
L 265.635518 200.439377 
L 266.765645 204.616121 
L 267.895771 203.633554 
L 269.025898 208.62509 
L 270.156025 217.74467 
L 271.286151 220.720925 
L 272.416278 219.863341 
L 273.546404 227.927071 
L 274.676531 233.158476 
L 275.806657 234.910488 
L 276.936784 225.785975 
L 278.066911 207.941713 
L 279.197037 199.687402 
L 280.327164 198.707123 
L 281.45729 190.269042 
L 282.587417 174.012436 
L 283.717544 174.001014 
L 285.977797 216.068495 
L 287.107923 225.453198 
L 288.23805 229.092188 
L 289.368176 228.265121 
L 290.498303 238.433858 
L 291.62843 244.842663 
L 292.758556 243.724589 
L 293.888683 241.926549 
L 295.018809 242.904976 
L 296.148936 243.356351 
L 297.279063 248.122206 
L 298.409189 247.117699 
L 299.539316 243.645552 
L 300.669442 243.986768 
L 301.799569 243.433191 
L 302.929695 241.603178 
L 304.059822 241.348576 
L 305.189949 245.588154 
L 307.450202 247.045601 
L 308.580328 244.443331 
L 310.840581 245.747859 
L 311.970708 242.868152 
L 313.100835 234.842259 
L 314.230961 230.38515 
L 315.361088 227.185875 
L 316.491214 227.958074 
L 317.621341 223.389952 
L 318.751468 225.05755 
L 319.881594 226.98329 
L 321.011721 228.624362 
L 322.141847 233.647225 
L 323.271974 233.246031 
L 324.4021 230.430796 
L 325.532227 233.251507 
L 326.662354 225.549898 
L 327.79248 225.995159 
L 328.922607 227.465659 
L 330.052733 225.295127 
L 331.18286 230.343622 
L 332.312987 236.22079 
L 333.443113 237.527549 
L 334.57324 242.454916 
L 335.703366 242.69455 
L 336.833493 243.535674 
L 337.963619 239.268226 
L 339.093746 236.622724 
L 340.223873 225.01847 
L 341.353999 216.551369 
L 342.484126 213.028343 
L 343.614252 211.640465 
L 344.744379 202.135661 
L 345.874506 205.063105 
L 347.004632 201.700388 
L 348.134759 212.108094 
L 349.264885 221.294101 
L 350.395012 224.91422 
L 351.525138 226.586756 
L 352.655265 233.659203 
L 353.785392 237.965307 
L 354.915518 239.090415 
L 356.045645 238.351026 
L 358.305898 233.567325 
L 359.436025 232.163538 
L 360.566151 226.405136 
L 361.696278 229.918076 
L 362.826404 225.572872 
L 363.956531 216.58916 
L 366.216784 206.636402 
L 367.346911 205.696889 
L 368.477037 219.365454 
L 369.607164 198.769517 
L 370.73729 208.497259 
L 371.867417 221.001101 
L 372.997544 226.606567 
L 374.12767 234.457609 
L 375.257797 229.239561 
L 376.387923 214.906728 
L 377.51805 224.614148 
L 378.648176 219.388388 
L 379.778303 215.676684 
L 380.90843 209.501049 
L 382.038556 201.716173 
L 383.168683 215.272482 
L 384.298809 222.800972 
L 385.428936 218.557175 
L 385.428936 218.557175 
" clip-path="url(#pa473c53593)" style="fill: none; stroke: #e377c2; stroke-width: 1.5; stroke-linecap: square"/>
   </g>
   <g id="patch_3">
    <path d="M 29.439063 284.991437 
L 29.439063 18.879437 
" style="fill: none; stroke: #000000; stroke-width: 0.8; stroke-linejoin: miter; stroke-linecap: square"/>
   </g>
   <g id="patch_4">
    <path d="M 386.559062 284.991437 
L 386.559062 18.879437 
" style="fill: none; stroke: #000000; stroke-width: 0.8; stroke-linejoin: miter; stroke-linecap: square"/>
   </g>
   <g id="patch_5">
    <path d="M 29.439063 284.991437 
L 386.559063 284.991437 
" style="fill: none; stroke: #000000; stroke-width: 0.8; stroke-linejoin: miter; stroke-linecap: square"/>
   </g>
   <g id="patch_6">
    <path d="M 29.439063 18.879437 
L 386.559063 18.879437 
" style="fill: none; stroke: #000000; stroke-width: 0.8; stroke-linejoin: miter; stroke-linecap: square"/>
   </g>
   <g id="legend_1">
    <g id="patch_7">
     <path d="M 341.260625 127.613812 
L 379.559062 127.613812 
Q 381.559062 127.613812 381.559062 125.613812 
L 381.559062 25.879437 
Q 381.559062 23.879437 379.559062 23.879437 
L 341.260625 23.879437 
Q 339.260625 23.879437 339.260625 25.879437 
L 339.260625 125.613812 
Q 339.260625 127.613812 341.260625 127.613812 
z
" style="fill: #ffffff; opacity: 0.8; stroke: #cccccc; stroke-linejoin: miter"/>
    </g>
    <g id="line2d_25">
     <path d="M 343.260625 31.870062 
L 353.260625 31.870062 
L 363.260625 31.870062 
" style="fill: none; stroke: #1f77b4; stroke-width: 1.5; stroke-linecap: square"/>
    </g>
    <g id="text_17">
     <!-- 1 -->
     <g transform="translate(371.260625 35.370062) scale(0.1 -0.1)">
      <use xlink:href="#IPAexGothic-31"/>
     </g>
    </g>
    <g id="line2d_26">
     <path d="M 343.260625 46.260687 
L 353.260625 46.260687 
L 363.260625 46.260687 
" style="fill: none; stroke: #ff7f0e; stroke-width: 1.5; stroke-linecap: square"/>
    </g>
    <g id="text_18">
     <!-- 2 -->
     <g transform="translate(371.260625 49.760687) scale(0.1 -0.1)">
      <use xlink:href="#IPAexGothic-32"/>
     </g>
    </g>
    <g id="line2d_27">
     <path d="M 343.260625 60.651312 
L 353.260625 60.651312 
L 363.260625 60.651312 
" style="fill: none; stroke: #2ca02c; stroke-width: 1.5; stroke-linecap: square"/>
    </g>
    <g id="text_19">
     <!-- 3 -->
     <g transform="translate(371.260625 64.151312) scale(0.1 -0.1)">
      <use xlink:href="#IPAexGothic-33"/>
     </g>
    </g>
    <g id="line2d_28">
     <path d="M 343.260625 75.041937 
L 353.260625 75.041937 
L 363.260625 75.041937 
" style="fill: none; stroke: #d62728; stroke-width: 1.5; stroke-linecap: square"/>
    </g>
    <g id="text_20">
     <!-- 4 -->
     <g transform="translate(371.260625 78.541937) scale(0.1 -0.1)">
      <defs>
       <path id="IPAexGothic-34" d="M 3813 1159 
L 3059 1159 
L 3059 63 
L 2547 63 
L 2547 1159 
L 197 1159 
L 197 1672 
L 2456 4678 
L 3059 4678 
L 3059 1634 
L 3813 1634 
L 3813 1159 
z
M 2578 4109 
L 2559 4109 
Q 2278 3656 2003 3284 
L 759 1634 
L 2547 1634 
L 2547 3144 
Q 2547 3481 2578 4109 
z
" transform="scale(0.015625)"/>
      </defs>
      <use xlink:href="#IPAexGothic-34"/>
     </g>
    </g>
    <g id="line2d_29">
     <path d="M 343.260625 89.432562 
L 353.260625 89.432562 
L 363.260625 89.432562 
" style="fill: none; stroke: #9467bd; stroke-width: 1.5; stroke-linecap: square"/>
    </g>
    <g id="text_21">
     <!-- 5 -->
     <g transform="translate(371.260625 92.932562) scale(0.1 -0.1)">
      <use xlink:href="#IPAexGothic-35"/>
     </g>
    </g>
    <g id="line2d_30">
     <path d="M 343.260625 103.823187 
L 353.260625 103.823187 
L 363.260625 103.823187 
" style="fill: none; stroke: #8c564b; stroke-width: 1.5; stroke-linecap: square"/>
    </g>
    <g id="text_22">
     <!-- 6 -->
     <g transform="translate(371.260625 107.323187) scale(0.1 -0.1)">
      <defs>
       <path id="IPAexGothic-36" d="M 1056 2328 
Q 1509 2981 2234 2981 
Q 2906 2981 3316 2513 
Q 3675 2106 3675 1522 
Q 3675 884 3272 434 
Q 2853 -31 2178 -31 
Q 1375 -31 922 581 
Q 481 1178 481 2228 
Q 481 3425 1013 4109 
Q 1494 4725 2272 4725 
Q 3191 4725 3609 4025 
L 3150 3775 
Q 2894 4266 2300 4266 
Q 1119 4266 1031 2328 
L 1056 2328 
z
M 2141 2547 
Q 1684 2547 1384 2206 
Q 1116 1900 1116 1541 
Q 1116 1156 1353 844 
Q 1672 428 2159 428 
Q 2669 428 2941 844 
Q 3125 1128 3125 1503 
Q 3125 1944 2881 2228 
Q 2600 2547 2141 2547 
z
" transform="scale(0.015625)"/>
      </defs>
      <use xlink:href="#IPAexGothic-36"/>
     </g>
    </g>
    <g id="line2d_31">
     <path d="M 343.260625 118.213812 
L 353.260625 118.213812 
L 363.260625 118.213812 
" style="fill: none; stroke: #e377c2; stroke-width: 1.5; stroke-linecap: square"/>
    </g>
    <g id="text_23">
     <!-- 7 -->
     <g transform="translate(371.260625 121.713812) scale(0.1 -0.1)">
      <defs>
       <path id="IPAexGothic-37" d="M 3597 4263 
Q 2238 2106 1778 63 
L 1131 63 
Q 1581 1834 2950 4128 
L 428 4128 
L 428 4634 
L 3597 4634 
L 3597 4263 
z
" transform="scale(0.015625)"/>
      </defs>
      <use xlink:href="#IPAexGothic-37"/>
     </g>
    </g>
   </g>
  </g>
  <g id="axes_2">
   <g id="matplotlib.axis_3"/>
   <g id="patch_8">
    <path d="M 29.439063 284.991437 
L 29.439063 18.879437 
" style="fill: none; stroke: #000000; stroke-width: 0.8; stroke-linejoin: miter; stroke-linecap: square"/>
   </g>
   <g id="patch_9">
    <path d="M 386.559062 284.991437 
L 386.559062 18.879437 
" style="fill: none; stroke: #000000; stroke-width: 0.8; stroke-linejoin: miter; stroke-linecap: square"/>
   </g>
   <g id="patch_10">
    <path d="M 29.439063 284.991437 
L 386.559063 284.991437 
" style="fill: none; stroke: #000000; stroke-width: 0.8; stroke-linejoin: miter; stroke-linecap: square"/>
   </g>
   <g id="patch_11">
    <path d="M 29.439063 18.879437 
L 386.559063 18.879437 
" style="fill: none; stroke: #000000; stroke-width: 0.8; stroke-linejoin: miter; stroke-linecap: square"/>
   </g>
  </g>
  <g id="text_24">
   <!-- : 2023/04/12 16:13:21(JST) -->
   <g transform="translate(211.087188 15.423437) scale(0.1 -0.1)">
    <defs>
     <path id="IPAexGothic-66f4" d="M 2956 3994 
L 2956 4588 
L 513 4588 
L 513 4984 
L 5881 4984 
L 5881 4588 
L 3413 4588 
L 3413 3994 
L 5300 3994 
L 5300 1288 
L 4838 1288 
L 4838 1759 
L 3406 1759 
Q 3384 1125 3150 709 
Q 4291 244 5997 31 
L 5694 -428 
Q 4109 -166 2906 384 
Q 2294 -266 744 -488 
L 494 -66 
Q 1903 59 2491 588 
Q 2041 813 1594 1166 
L 1928 1434 
Q 2331 1106 2747 897 
Q 2922 1219 2950 1759 
L 1556 1759 
L 1556 1413 
L 1097 1413 
L 1097 3994 
L 2956 3994 
z
M 2956 3609 
L 1556 3609 
L 1556 3078 
L 2956 3078 
L 2956 3609 
z
M 3413 3609 
L 3413 3078 
L 4838 3078 
L 4838 3609 
L 3413 3609 
z
M 2956 2700 
L 1556 2700 
L 1556 2144 
L 2956 2144 
L 2956 2700 
z
M 3413 2700 
L 3413 2144 
L 4838 2144 
L 4838 2700 
L 3413 2700 
z
" transform="scale(0.015625)"/>
     <path id="IPAexGothic-65b0" d="M 3891 2803 
Q 3881 1759 3794 1166 
Q 3653 197 3097 -563 
L 2741 -250 
Q 3450 700 3450 2631 
L 3450 4647 
Q 3516 4656 3622 4666 
Q 4656 4778 5447 5063 
L 5825 4678 
Q 4897 4419 3891 4294 
L 3891 3219 
L 6119 3219 
L 6119 2803 
L 5275 2803 
L 5275 -447 
L 4834 -447 
L 4834 2803 
L 3891 2803 
z
M 2822 4069 
Q 2678 3572 2519 3181 
L 3250 3181 
L 3250 2784 
L 2059 2784 
L 2059 2216 
L 3184 2216 
L 3184 1831 
L 2059 1831 
L 2059 1544 
Q 2613 1197 3031 847 
L 2781 456 
Q 2472 791 2059 1128 
L 2059 -447 
L 1644 -447 
L 1644 1294 
Q 1272 628 575 -31 
L 269 341 
Q 1041 938 1528 1831 
L 453 1831 
L 453 2216 
L 1644 2216 
L 1644 2784 
L 319 2784 
L 319 3181 
L 1125 3181 
Q 1013 3706 881 4069 
L 453 4069 
L 453 4453 
L 1631 4453 
L 1631 5309 
L 2072 5309 
L 2072 4453 
L 3166 4453 
L 3166 4069 
L 2822 4069 
z
M 2391 4069 
L 1325 4069 
Q 1450 3672 1534 3181 
L 2109 3181 
Q 2294 3659 2391 4069 
z
" transform="scale(0.015625)"/>
     <path id="IPAexGothic-65e5" d="M 5231 4800 
L 5231 -288 
L 4744 -288 
L 4744 128 
L 1647 128 
L 1647 -288 
L 1159 -288 
L 1159 4800 
L 5231 4800 
z
M 1647 4372 
L 1647 2731 
L 4744 2731 
L 4744 4372 
L 1647 4372 
z
M 1647 2297 
L 1647 556 
L 4744 556 
L 4744 2297 
L 1647 2297 
z
" transform="scale(0.015625)"/>
     <path id="IPAexGothic-6642" d="M 2328 4728 
L 2328 563 
L 934 563 
L 934 56 
L 519 56 
L 519 4728 
L 2328 4728 
z
M 934 4331 
L 934 2881 
L 1906 2881 
L 1906 4331 
L 934 4331 
z
M 934 2497 
L 934 953 
L 1906 953 
L 1906 2497 
L 934 2497 
z
M 3938 4372 
L 3938 5313 
L 4378 5313 
L 4378 4372 
L 5772 4372 
L 5772 3981 
L 4378 3981 
L 4378 3194 
L 6072 3194 
L 6072 2803 
L 5203 2803 
L 5203 2047 
L 5959 2047 
L 5959 1650 
L 5216 1650 
L 5216 31 
Q 5216 -447 4691 -447 
Q 4394 -447 3888 -391 
L 3784 78 
Q 4272 0 4591 0 
Q 4775 0 4775 172 
L 4775 1650 
L 2581 1650 
L 2581 2047 
L 4763 2047 
L 4763 2803 
L 2538 2803 
L 2538 3194 
L 3938 3194 
L 3938 3981 
L 2716 3981 
L 2716 4372 
L 3938 4372 
z
M 3669 384 
Q 3331 950 2956 1325 
L 3291 1575 
Q 3719 1147 4025 659 
L 3669 384 
z
" transform="scale(0.015625)"/>
     <path id="IPAexGothic-3a" d="M 1369 2559 
L 672 2559 
L 672 3250 
L 1369 3250 
L 1369 2559 
z
M 1369 63 
L 672 63 
L 672 753 
L 1369 753 
L 1369 63 
z
" transform="scale(0.015625)"/>
     <path id="IPAexGothic-20" transform="scale(0.015625)"/>
     <path id="IPAexGothic-2f" d="M 2719 4709 
L 600 -884 
L 300 -763 
L 2413 4831 
L 2719 4709 
z
" transform="scale(0.015625)"/>
     <path id="IPAexGothic-28" d="M 1928 -1016 
L 1653 -1166 
Q 488 69 488 1875 
Q 488 3678 1653 4909 
L 1928 4763 
Q 1006 3522 1006 1881 
Q 1006 203 1928 -1016 
z
" transform="scale(0.015625)"/>
     <path id="IPAexGothic-54" d="M 3866 4141 
L 2175 4141 
L 2175 63 
L 1606 63 
L 1606 4141 
L -31 4141 
L -31 4634 
L 3866 4634 
L 3866 4141 
z
" transform="scale(0.015625)"/>
     <path id="IPAexGothic-29" d="M 466 4909 
Q 1638 3672 1638 1875 
Q 1638 75 466 -1166 
L 191 -1016 
Q 1119 216 1119 1881 
Q 1119 3509 191 4763 
L 466 4909 
z
" transform="scale(0.015625)"/>
    </defs>
    <use xlink:href="#IPAexGothic-66f4"/>
    <use xlink:href="#IPAexGothic-65b0" x="100"/>
    <use xlink:href="#IPAexGothic-65e5" x="200"/>
    <use xlink:href="#IPAexGothic-6642" x="300"/>
    <use xlink:href="#IPAexGothic-3a" x="400"/>
    <use xlink:href="#IPAexGothic-20" x="431.982422"/>
    <use xlink:href="#IPAexGothic-32" x="458.984375"/>
    <use xlink:href="#IPAexGothic-30" x="521.972656"/>
    <use xlink:href="#IPAexGothic-32" x="584.960938"/>
    <use xlink:href="#IPAexGothic-33" x="647.949219"/>
    <use xlink:href="#IPAexGothic-2f" x="710.9375"/>
    <use xlink:href="#IPAexGothic-30" x="760.9375"/>
    <use xlink:href="#IPAexGothic-34" x="823.925781"/>
    <use xlink:href="#IPAexGothic-2f" x="886.914062"/>
    <use xlink:href="#IPAexGothic-31" x="936.914062"/>
    <use xlink:href="#IPAexGothic-32" x="999.902344"/>
    <use xlink:href="#IPAexGothic-20" x="1062.890625"/>
    <use xlink:href="#IPAexGothic-31" x="1089.892578"/>
    <use xlink:href="#IPAexGothic-36" x="1152.880859"/>
    <use xlink:href="#IPAexGothic-3a" x="1215.869141"/>
    <use xlink:href="#IPAexGothic-31" x="1247.851562"/>
    <use xlink:href="#IPAexGothic-33" x="1310.839844"/>
    <use xlink:href="#IPAexGothic-3a" x="1373.828125"/>
    <use xlink:href="#IPAexGothic-32" x="1405.810547"/>
    <use xlink:href="#IPAexGothic-31" x="1468.798828"/>
    <use xlink:href="#IPAexGothic-28" x="1531.787109"/>
    <use xlink:href="#IPAexGothic-4a" x="1565.087891"/>
    <use xlink:href="#IPAexGothic-53" x="1603.076172"/>
    <use xlink:href="#IPAexGothic-54" x="1661.572266"/>
    <use xlink:href="#IPAexGothic-29" x="1721.484375"/>
   </g>
  </g>
 </g>
 <defs>
  <clipPath id="pa473c53593">
   <rect x="29.439063" y="18.879437" width="357.12" height="266.112"/>
  </clipPath>
 </defs>
</svg>
