<?xml version="1.0" encoding="utf-8" standalone="no"?>
<!DOCTYPE svg PUBLIC "-//W3C//DTD SVG 1.1//EN"
  "http://www.w3.org/Graphics/SVG/1.1/DTD/svg11.dtd">
<svg xmlns:xlink="http://www.w3.org/1999/xlink" width="403.5575pt" height="320.972687pt" viewBox="0 0 403.5575 320.972687" xmlns="http://www.w3.org/2000/svg" version="1.1">
 <metadata>
  <rdf:RDF xmlns:dc="http://purl.org/dc/elements/1.1/" xmlns:cc="http://creativecommons.org/ns#" xmlns:rdf="http://www.w3.org/1999/02/22-rdf-syntax-ns#">
   <cc:Work>
    <dc:type rdf:resource="http://purl.org/dc/dcmitype/StillImage"/>
    <dc:date>2022-07-27T03:42:28.189903</dc:date>
    <dc:format>image/svg+xml</dc:format>
    <dc:creator>
     <cc:Agent>
      <dc:title>Matplotlib v3.5.2, https://matplotlib.org/</dc:title>
     </cc:Agent>
    </dc:creator>
   </cc:Work>
  </rdf:RDF>
 </metadata>
 <defs>
  <style type="text/css">*{stroke-linejoin: round; stroke-linecap: butt}</style>
 </defs>
 <g id="figure_1">
  <g id="patch_1">
   <path d="M 0 320.972687 
L 403.5575 320.972687 
L 403.5575 0 
L 0 0 
z
" style="fill: #ffffff"/>
  </g>
  <g id="axes_1">
   <g id="patch_2">
    <path d="M 35.7375 284.991437 
L 392.8575 284.991437 
L 392.8575 18.879437 
L 35.7375 18.879437 
z
" style="fill: #ffffff"/>
   </g>
   <g id="line2d_1">
    <path d="M 35.7375 203.485507 
L 392.8575 203.485507 
" clip-path="url(#p75356adacf)" style="fill: none; stroke: #000000; stroke-linecap: square"/>
   </g>
   <g id="matplotlib.axis_1">
    <g id="xtick_1">
     <g id="line2d_2">
      <defs>
       <path id="m81256b76f0" d="M 0 0 
L 0 3.5 
" style="stroke: #000000; stroke-width: 0.8"/>
      </defs>
      <g>
       <use xlink:href="#m81256b76f0" x="35.7375" y="284.991437" style="stroke: #000000; stroke-width: 0.8"/>
      </g>
     </g>
     <g id="text_1">
      <!-- Feb -->
      <g transform="translate(26.914063 299.482062)scale(0.1 -0.1)">
       <defs>
        <path id="IPAexGothic-46" d="M 3469 4141 
L 1172 4141 
L 1172 2656 
L 3206 2656 
L 3206 2188 
L 1172 2188 
L 1172 63 
L 609 63 
L 609 4634 
L 3469 4634 
L 3469 4141 
z
" transform="scale(0.015625)"/>
        <path id="IPAexGothic-65" d="M 863 1594 
Q 891 1041 1209 722 
Q 1534 397 1997 397 
Q 2606 397 2963 966 
L 3322 728 
Q 2869 -31 1931 -31 
Q 1222 -31 766 422 
Q 306 884 306 1641 
Q 306 2444 788 2925 
Q 1216 3353 1856 3353 
Q 2459 3353 2866 2956 
Q 3322 2494 3322 1722 
L 3322 1594 
L 863 1594 
z
M 2756 1997 
Q 2709 2431 2450 2681 
Q 2194 2938 1844 2938 
Q 1438 2938 1150 2591 
Q 953 2356 894 1997 
L 2756 1997 
z
" transform="scale(0.015625)"/>
        <path id="IPAexGothic-62" d="M 1125 2731 
Q 1550 3341 2219 3341 
Q 2788 3341 3191 2938 
Q 3659 2469 3659 1644 
Q 3659 838 3191 372 
Q 2788 -31 2206 -31 
Q 1559 -31 1088 516 
L 1009 44 
L 581 44 
L 581 4794 
L 1125 4794 
L 1125 2731 
z
M 1125 1997 
L 1125 1253 
Q 1125 888 1528 600 
Q 1803 403 2119 403 
Q 2488 403 2744 659 
Q 3084 1009 3084 1631 
Q 3084 2194 2803 2553 
Q 2525 2900 2125 2900 
Q 1759 2900 1438 2578 
Q 1125 2266 1125 1997 
z
" transform="scale(0.015625)"/>
       </defs>
       <use xlink:href="#IPAexGothic-46"/>
       <use xlink:href="#IPAexGothic-65" x="57.177734"/>
       <use xlink:href="#IPAexGothic-62" x="114.0625"/>
      </g>
     </g>
    </g>
    <g id="xtick_2">
     <g id="line2d_3">
      <g>
       <use xlink:href="#m81256b76f0" x="92.231059" y="284.991437" style="stroke: #000000; stroke-width: 0.8"/>
      </g>
     </g>
     <g id="text_2">
      <!-- Mar -->
      <g transform="translate(83.121684 299.482062)scale(0.1 -0.1)">
       <defs>
        <path id="IPAexGothic-4d" d="M 5147 63 
L 4597 63 
L 4597 2534 
Q 4597 3281 4634 4134 
L 4609 4134 
Q 4356 3409 4066 2675 
L 3066 209 
L 2650 209 
L 1641 2725 
Q 1328 3506 1128 4141 
L 1103 4141 
Q 1141 3131 1141 2553 
L 1141 63 
L 609 63 
L 609 4634 
L 1416 4634 
L 2503 1944 
Q 2697 1472 2869 906 
L 2888 906 
Q 3028 1416 3234 1931 
L 4316 4634 
L 5147 4634 
L 5147 63 
z
" transform="scale(0.015625)"/>
        <path id="IPAexGothic-61" d="M 3156 63 
L 2672 63 
Q 2559 303 2531 556 
L 2509 556 
Q 2147 -25 1428 -25 
Q 934 -25 622 288 
Q 347 563 347 959 
Q 347 1947 2050 1997 
L 2478 2009 
L 2478 2175 
Q 2478 2509 2288 2700 
Q 2088 2900 1775 2900 
Q 1238 2900 969 2378 
L 494 2597 
Q 938 3328 1788 3328 
Q 2375 3328 2691 3000 
Q 2984 2706 2984 2169 
L 2984 997 
Q 2984 400 3156 63 
z
M 2491 1625 
L 2141 1619 
Q 903 1591 903 953 
Q 903 728 1050 581 
Q 1231 403 1525 403 
Q 1934 403 2234 703 
Q 2491 969 2491 1344 
L 2491 1625 
z
" transform="scale(0.015625)"/>
        <path id="IPAexGothic-72" d="M 2309 3316 
L 2213 2769 
Q 2106 2791 2022 2791 
Q 1653 2791 1413 2444 
Q 1113 2006 1113 1675 
L 1113 63 
L 563 63 
L 563 3250 
L 1081 3250 
L 1056 2303 
L 1069 2303 
Q 1422 3341 2097 3341 
Q 2206 3341 2309 3316 
z
" transform="scale(0.015625)"/>
       </defs>
       <use xlink:href="#IPAexGothic-4d"/>
       <use xlink:href="#IPAexGothic-61" x="90.185547"/>
       <use xlink:href="#IPAexGothic-72" x="145.166016"/>
      </g>
     </g>
    </g>
    <g id="xtick_3">
     <g id="line2d_4">
      <g>
       <use xlink:href="#m81256b76f0" x="154.7775" y="284.991437" style="stroke: #000000; stroke-width: 0.8"/>
      </g>
     </g>
     <g id="text_3">
      <!-- Apr -->
      <g transform="translate(146.635313 299.482062)scale(0.1 -0.1)">
       <defs>
        <path id="IPAexGothic-41" d="M 4056 63 
L 3444 63 
L 2938 1409 
L 1100 1409 
L 603 63 
L -6 63 
L 1806 4666 
L 2259 4666 
L 4056 63 
z
M 2778 1863 
L 2316 3078 
Q 2125 3588 2028 4000 
L 2009 4000 
Q 1897 3563 1716 3078 
L 1263 1863 
L 2778 1863 
z
" transform="scale(0.015625)"/>
        <path id="IPAexGothic-70" d="M 1075 2688 
Q 1525 3341 2206 3341 
Q 2769 3341 3172 2938 
Q 3641 2469 3641 1644 
Q 3641 841 3178 372 
Q 2775 -31 2200 -31 
Q 1569 -31 1106 497 
L 1106 -1216 
L 563 -1216 
L 563 3250 
L 1075 3250 
L 1075 2688 
z
M 1106 1950 
L 1106 1291 
Q 1106 897 1516 600 
Q 1791 403 2106 403 
Q 2469 403 2725 659 
Q 3066 997 3066 1631 
Q 3066 2200 2784 2559 
Q 2503 2900 2100 2900 
Q 1656 2900 1338 2484 
Q 1106 2184 1106 1950 
z
" transform="scale(0.015625)"/>
       </defs>
       <use xlink:href="#IPAexGothic-41"/>
       <use xlink:href="#IPAexGothic-70" x="63.720703"/>
       <use xlink:href="#IPAexGothic-72" x="125.830078"/>
      </g>
     </g>
    </g>
    <g id="xtick_4">
     <g id="line2d_5">
      <g>
       <use xlink:href="#m81256b76f0" x="215.306314" y="284.991437" style="stroke: #000000; stroke-width: 0.8"/>
      </g>
     </g>
     <g id="text_4">
      <!-- May -->
      <g transform="translate(205.586782 299.482062)scale(0.1 -0.1)">
       <defs>
        <path id="IPAexGothic-79" d="M 3122 3250 
L 1575 -488 
Q 1278 -1203 550 -1203 
L 478 -1203 
L 344 -703 
L 447 -703 
Q 969 -703 1150 -238 
L 1356 275 
L 38 3250 
L 659 3250 
L 1363 1459 
Q 1528 1025 1606 781 
L 1625 781 
Q 1750 1169 1863 1459 
L 2528 3250 
L 3122 3250 
z
" transform="scale(0.015625)"/>
       </defs>
       <use xlink:href="#IPAexGothic-4d"/>
       <use xlink:href="#IPAexGothic-61" x="90.185547"/>
       <use xlink:href="#IPAexGothic-79" x="145.166016"/>
      </g>
     </g>
    </g>
    <g id="xtick_5">
     <g id="line2d_6">
      <g>
       <use xlink:href="#m81256b76f0" x="277.852754" y="284.991437" style="stroke: #000000; stroke-width: 0.8"/>
      </g>
     </g>
     <g id="text_5">
      <!-- Jun -->
      <g transform="translate(269.91291 299.482062)scale(0.1 -0.1)">
       <defs>
        <path id="IPAexGothic-4a" d="M 1819 4634 
L 1819 1234 
Q 1819 -31 763 -31 
Q 303 -31 -125 209 
L 84 644 
Q 378 447 694 447 
Q 1250 447 1250 1203 
L 1250 4634 
L 1819 4634 
z
" transform="scale(0.015625)"/>
        <path id="IPAexGothic-75" d="M 3284 63 
L 2772 63 
L 2772 644 
Q 2300 0 1625 0 
Q 1072 0 763 375 
Q 519 678 519 1241 
L 519 3250 
L 1069 3250 
L 1069 1259 
Q 1069 466 1734 466 
Q 2406 466 2734 1291 
L 2734 3250 
L 3284 3250 
L 3284 63 
z
" transform="scale(0.015625)"/>
        <path id="IPAexGothic-6e" d="M 3328 63 
L 2778 63 
L 2778 2041 
Q 2778 2853 2106 2853 
Q 1428 2853 1113 2041 
L 1113 63 
L 563 63 
L 563 3250 
L 1075 3250 
L 1075 2675 
Q 1525 3316 2222 3316 
Q 3328 3316 3328 2072 
L 3328 63 
z
" transform="scale(0.015625)"/>
       </defs>
       <use xlink:href="#IPAexGothic-4a"/>
       <use xlink:href="#IPAexGothic-75" x="37.988281"/>
       <use xlink:href="#IPAexGothic-6e" x="98.388672"/>
      </g>
     </g>
    </g>
    <g id="xtick_6">
     <g id="line2d_7">
      <g>
       <use xlink:href="#m81256b76f0" x="338.381568" y="284.991437" style="stroke: #000000; stroke-width: 0.8"/>
      </g>
     </g>
     <g id="text_6">
      <!-- Jul -->
      <g transform="translate(332.112037 299.482062)scale(0.1 -0.1)">
       <defs>
        <path id="IPAexGothic-6c" d="M 1131 63 
L 581 63 
L 581 4794 
L 1131 4794 
L 1131 63 
z
" transform="scale(0.015625)"/>
       </defs>
       <use xlink:href="#IPAexGothic-4a"/>
       <use xlink:href="#IPAexGothic-75" x="37.988281"/>
       <use xlink:href="#IPAexGothic-6c" x="98.388672"/>
      </g>
     </g>
    </g>
    <g id="text_7">
     <!-- 2022 -->
     <g transform="translate(367.66375 311.872687)scale(0.1 -0.1)">
      <defs>
       <path id="IPAexGothic-32" d="M 3659 63 
L 447 63 
L 447 594 
Q 825 1475 1894 2203 
L 2072 2322 
Q 2619 2697 2791 2906 
Q 2988 3153 2988 3444 
Q 2988 3772 2756 4003 
Q 2500 4259 2084 4259 
Q 1250 4259 991 3328 
L 497 3506 
Q 853 4725 2116 4725 
Q 2806 4725 3216 4316 
Q 3575 3947 3575 3425 
Q 3575 3038 3344 2722 
Q 3131 2416 2366 1938 
L 2231 1856 
Q 1256 1253 978 569 
L 3659 569 
L 3659 63 
z
" transform="scale(0.015625)"/>
       <path id="IPAexGothic-30" d="M 2038 4725 
Q 2881 4725 3334 3944 
Q 3694 3325 3694 2344 
Q 3694 1372 3334 741 
Q 2888 -31 2016 -31 
Q 1147 -31 700 741 
Q 341 1372 341 2350 
Q 341 3713 1000 4334 
Q 1419 4725 2038 4725 
z
M 2016 4266 
Q 1516 4266 1228 3759 
Q 934 3247 934 2344 
Q 934 1456 1222 947 
Q 1513 447 2016 447 
Q 2619 447 2909 1153 
Q 3100 1622 3100 2375 
Q 3100 3256 2806 3759 
Q 2509 4266 2016 4266 
z
" transform="scale(0.015625)"/>
      </defs>
      <use xlink:href="#IPAexGothic-32"/>
      <use xlink:href="#IPAexGothic-30" x="62.988281"/>
      <use xlink:href="#IPAexGothic-32" x="125.976562"/>
      <use xlink:href="#IPAexGothic-32" x="188.964844"/>
     </g>
    </g>
   </g>
   <g id="matplotlib.axis_2">
    <g id="ytick_1">
     <g id="line2d_8">
      <defs>
       <path id="mba4ddbd758" d="M 0 0 
L -3.5 0 
" style="stroke: #000000; stroke-width: 0.8"/>
      </defs>
      <g>
       <use xlink:href="#mba4ddbd758" x="35.7375" y="264.522941" style="stroke: #000000; stroke-width: 0.8"/>
      </g>
     </g>
     <g id="text_8">
      <!-- 0.50 -->
      <g transform="translate(7.2 268.268254)scale(0.1 -0.1)">
       <defs>
        <path id="IPAexGothic-2e" d="M 1184 63 
L 494 63 
L 494 753 
L 1184 753 
L 1184 63 
z
" transform="scale(0.015625)"/>
        <path id="IPAexGothic-35" d="M 1178 2603 
Q 1634 2963 2172 2963 
Q 2816 2963 3241 2528 
Q 3638 2113 3638 1497 
Q 3638 938 3297 513 
Q 2869 -31 2031 -31 
Q 959 -31 469 784 
L 938 1028 
Q 1309 434 2013 434 
Q 2466 434 2769 716 
Q 3081 1013 3081 1503 
Q 3081 1966 2806 2241 
Q 2519 2528 2056 2528 
Q 1406 2528 1072 2028 
L 591 2091 
L 884 4634 
L 3406 4634 
L 3406 4153 
L 1341 4153 
L 1134 2603 
L 1178 2603 
z
" transform="scale(0.015625)"/>
       </defs>
       <use xlink:href="#IPAexGothic-30"/>
       <use xlink:href="#IPAexGothic-2e" x="62.988281"/>
       <use xlink:href="#IPAexGothic-35" x="89.404297"/>
       <use xlink:href="#IPAexGothic-30" x="152.392578"/>
      </g>
     </g>
    </g>
    <g id="ytick_2">
     <g id="line2d_9">
      <g>
       <use xlink:href="#mba4ddbd758" x="35.7375" y="234.004224" style="stroke: #000000; stroke-width: 0.8"/>
      </g>
     </g>
     <g id="text_9">
      <!-- 0.75 -->
      <g transform="translate(7.2 237.749537)scale(0.1 -0.1)">
       <defs>
        <path id="IPAexGothic-37" d="M 3597 4263 
Q 2238 2106 1778 63 
L 1131 63 
Q 1581 1834 2950 4128 
L 428 4128 
L 428 4634 
L 3597 4634 
L 3597 4263 
z
" transform="scale(0.015625)"/>
       </defs>
       <use xlink:href="#IPAexGothic-30"/>
       <use xlink:href="#IPAexGothic-2e" x="62.988281"/>
       <use xlink:href="#IPAexGothic-37" x="89.404297"/>
       <use xlink:href="#IPAexGothic-35" x="152.392578"/>
      </g>
     </g>
    </g>
    <g id="ytick_3">
     <g id="line2d_10">
      <g>
       <use xlink:href="#mba4ddbd758" x="35.7375" y="203.485507" style="stroke: #000000; stroke-width: 0.8"/>
      </g>
     </g>
     <g id="text_10">
      <!-- 1.00 -->
      <g transform="translate(7.2 207.230819)scale(0.1 -0.1)">
       <defs>
        <path id="IPAexGothic-31" d="M 2463 63 
L 1900 63 
L 1900 4103 
Q 1372 3922 788 3797 
L 684 4231 
Q 1519 4441 2106 4731 
L 2463 4731 
L 2463 63 
z
" transform="scale(0.015625)"/>
       </defs>
       <use xlink:href="#IPAexGothic-31"/>
       <use xlink:href="#IPAexGothic-2e" x="62.988281"/>
       <use xlink:href="#IPAexGothic-30" x="89.404297"/>
       <use xlink:href="#IPAexGothic-30" x="152.392578"/>
      </g>
     </g>
    </g>
    <g id="ytick_4">
     <g id="line2d_11">
      <g>
       <use xlink:href="#mba4ddbd758" x="35.7375" y="172.96679" style="stroke: #000000; stroke-width: 0.8"/>
      </g>
     </g>
     <g id="text_11">
      <!-- 1.25 -->
      <g transform="translate(7.2 176.712102)scale(0.1 -0.1)">
       <use xlink:href="#IPAexGothic-31"/>
       <use xlink:href="#IPAexGothic-2e" x="62.988281"/>
       <use xlink:href="#IPAexGothic-32" x="89.404297"/>
       <use xlink:href="#IPAexGothic-35" x="152.392578"/>
      </g>
     </g>
    </g>
    <g id="ytick_5">
     <g id="line2d_12">
      <g>
       <use xlink:href="#mba4ddbd758" x="35.7375" y="142.448073" style="stroke: #000000; stroke-width: 0.8"/>
      </g>
     </g>
     <g id="text_12">
      <!-- 1.50 -->
      <g transform="translate(7.2 146.193385)scale(0.1 -0.1)">
       <use xlink:href="#IPAexGothic-31"/>
       <use xlink:href="#IPAexGothic-2e" x="62.988281"/>
       <use xlink:href="#IPAexGothic-35" x="89.404297"/>
       <use xlink:href="#IPAexGothic-30" x="152.392578"/>
      </g>
     </g>
    </g>
    <g id="ytick_6">
     <g id="line2d_13">
      <g>
       <use xlink:href="#mba4ddbd758" x="35.7375" y="111.929355" style="stroke: #000000; stroke-width: 0.8"/>
      </g>
     </g>
     <g id="text_13">
      <!-- 1.75 -->
      <g transform="translate(7.2 115.674668)scale(0.1 -0.1)">
       <use xlink:href="#IPAexGothic-31"/>
       <use xlink:href="#IPAexGothic-2e" x="62.988281"/>
       <use xlink:href="#IPAexGothic-37" x="89.404297"/>
       <use xlink:href="#IPAexGothic-35" x="152.392578"/>
      </g>
     </g>
    </g>
    <g id="ytick_7">
     <g id="line2d_14">
      <g>
       <use xlink:href="#mba4ddbd758" x="35.7375" y="81.410638" style="stroke: #000000; stroke-width: 0.8"/>
      </g>
     </g>
     <g id="text_14">
      <!-- 2.00 -->
      <g transform="translate(7.2 85.155951)scale(0.1 -0.1)">
       <use xlink:href="#IPAexGothic-32"/>
       <use xlink:href="#IPAexGothic-2e" x="62.988281"/>
       <use xlink:href="#IPAexGothic-30" x="89.404297"/>
       <use xlink:href="#IPAexGothic-30" x="152.392578"/>
      </g>
     </g>
    </g>
    <g id="ytick_8">
     <g id="line2d_15">
      <g>
       <use xlink:href="#mba4ddbd758" x="35.7375" y="50.891921" style="stroke: #000000; stroke-width: 0.8"/>
      </g>
     </g>
     <g id="text_15">
      <!-- 2.25 -->
      <g transform="translate(7.2 54.637233)scale(0.1 -0.1)">
       <use xlink:href="#IPAexGothic-32"/>
       <use xlink:href="#IPAexGothic-2e" x="62.988281"/>
       <use xlink:href="#IPAexGothic-32" x="89.404297"/>
       <use xlink:href="#IPAexGothic-35" x="152.392578"/>
      </g>
     </g>
    </g>
    <g id="ytick_9">
     <g id="line2d_16">
      <g>
       <use xlink:href="#mba4ddbd758" x="35.7375" y="20.373204" style="stroke: #000000; stroke-width: 0.8"/>
      </g>
     </g>
     <g id="text_16">
      <!-- 2.50 -->
      <g transform="translate(7.2 24.118516)scale(0.1 -0.1)">
       <use xlink:href="#IPAexGothic-32"/>
       <use xlink:href="#IPAexGothic-2e" x="62.988281"/>
       <use xlink:href="#IPAexGothic-35" x="89.404297"/>
       <use xlink:href="#IPAexGothic-30" x="152.392578"/>
      </g>
     </g>
    </g>
   </g>
   <g id="line2d_17">
    <path d="M 49.86089 246.764939 
L 51.878517 252.025255 
L 53.896144 237.526584 
L 55.913771 216.985322 
L 57.931398 244.687429 
L 59.949025 217.229148 
L 61.966653 200.778852 
L 63.98428 200.790801 
L 66.001907 206.122014 
L 68.019534 171.133519 
L 70.037161 171.22436 
L 72.054788 134.588505 
L 74.072415 74.827759 
L 76.090042 156.078477 
L 78.107669 66.40717 
L 80.125297 51.742833 
L 82.142924 178.575122 
L 84.160551 147.743961 
L 86.178178 167.414814 
L 88.195805 202.924502 
L 76.090042 203.485507 
L 78.107669 203.485507 
L 88.195805 203.485507 
L 90.213432 213.751459 
L 92.231059 235.380804 
L 94.248686 255.089026 
L 96.266314 177.951635 
L 98.283941 234.261188 
L 100.301568 242.665646 
L 102.319195 244.246253 
L 104.336822 233.186855 
L 106.354449 234.01953 
L 108.372076 228.306711 
L 110.389703 242.632728 
L 112.407331 258.241949 
L 114.424958 218.779021 
L 116.442585 196.221145 
L 118.460212 155.170123 
L 120.477839 188.587109 
L 122.495466 166.549005 
L 124.513093 225.090323 
L 126.53072 182.097554 
L 128.548347 222.578799 
L 130.565975 211.702952 
L 132.583602 244.641749 
L 134.601229 215.749503 
L 136.618856 231.390981 
L 138.636483 99.500989 
L 140.65411 173.221782 
L 142.671737 178.369357 
L 144.689364 208.496101 
L 146.706992 191.755816 
L 148.724619 195.19815 
L 150.742246 189.980398 
L 152.759873 257.478647 
L 154.7775 249.283993 
L 156.795127 164.343531 
L 158.812754 192.886679 
L 160.830381 210.058887 
L 162.848008 210.130432 
L 164.865636 202.336034 
L 166.883263 202.338195 
L 168.90089 177.570736 
L 170.918517 217.104907 
L 172.936144 221.435178 
L 174.953771 182.441573 
L 176.971398 180.580175 
L 178.989025 197.957641 
L 181.006653 130.058376 
L 183.02428 117.661469 
L 185.041907 186.786379 
L 187.059534 170.33154 
L 189.077161 199.339318 
L 191.094788 199.36729 
L 193.112415 182.83858 
L 195.130042 187.011442 
L 197.147669 220.053339 
L 199.165297 187.811992 
L 201.182924 190.713443 
L 203.200551 186.027555 
L 205.218178 164.072866 
L 207.235805 219.833001 
L 209.253432 234.615348 
L 211.271059 228.990571 
L 213.288686 254.970143 
L 215.306314 234.259697 
L 217.323941 240.185174 
L 219.341568 257.538029 
L 221.359195 243.305776 
L 223.376822 247.76608 
L 225.394449 228.008753 
L 227.412076 30.975437 
L 229.429703 139.05485 
L 231.447331 134.576213 
L 233.464958 150.865065 
L 235.482585 140.117768 
L 237.500212 157.212876 
L 239.517839 155.348274 
L 241.535466 219.597731 
L 243.553093 208.727196 
L 245.57072 224.869401 
L 247.588347 196.123822 
L 249.605975 194.548969 
L 251.623602 175.537932 
L 253.641229 222.36709 
L 255.658856 207.300044 
L 257.676483 234.687017 
L 259.69411 201.826905 
L 261.711737 213.042625 
L 263.729364 228.693374 
L 265.746992 245.878005 
L 267.764619 224.721044 
L 269.782246 232.065687 
L 271.799873 214.557267 
L 273.8175 220.551233 
L 275.835127 247.065516 
L 277.852754 228.683818 
L 279.870381 232.827425 
L 281.888008 226.698225 
L 283.905636 237.62096 
L 285.923263 232.715103 
L 287.94089 239.022386 
L 289.958517 233.460845 
L 291.976144 258.550637 
L 293.993771 233.831019 
L 296.011398 241.843884 
L 298.029025 241.042411 
L 300.046653 188.051594 
L 302.06428 210.499396 
L 304.081907 272.895437 
L 306.099534 211.843552 
L 308.117161 227.496268 
L 310.134788 203.485507 
L 312.152415 173.595768 
L 314.170042 209.18892 
L 316.187669 160.261097 
L 318.205297 108.328625 
L 320.222924 97.578952 
L 322.240551 129.275398 
L 324.258178 158.523115 
L 326.275805 144.469418 
L 328.293432 192.845645 
L 330.311059 189.387053 
L 332.328686 128.957579 
L 334.346314 126.086546 
L 338.381568 131.477171 
L 340.399195 106.927082 
L 342.416822 127.338125 
L 344.434449 100.986262 
L 346.452076 72.4685 
L 348.469703 104.040335 
L 350.487331 109.019272 
L 352.504958 97.065923 
L 354.522585 104.016235 
L 356.540212 96.357928 
L 358.557839 167.550364 
L 360.575466 95.715007 
L 362.593093 142.895225 
L 364.61072 136.948484 
L 366.628347 154.611992 
L 368.645975 181.699085 
L 370.663602 172.213917 
L 372.681229 188.365733 
L 374.698856 213.374488 
L 376.716483 153.393738 
L 378.73411 163.483704 
L 380.751737 188.30806 
L 382.769364 170.060811 
L 384.786992 182.650783 
L 386.804619 184.166255 
L 388.822246 163.35185 
L 390.839873 179.538248 
L 390.839873 179.538248 
" clip-path="url(#p75356adacf)" style="fill: none; stroke: #1f77b4; stroke-width: 1.5; stroke-linecap: square"/>
   </g>
   <g id="line2d_18">
    <path d="M 51.878517 249.440523 
L 53.896144 245.101843 
L 55.913771 227.793952 
L 57.931398 231.854536 
L 59.949025 231.959812 
L 61.966653 209.294578 
L 63.98428 200.784827 
L 66.001907 203.485507 
L 68.019534 189.74988 
L 70.037161 171.178946 
L 72.054788 153.880914 
L 74.072415 106.738812 
L 76.090042 119.418095 
L 78.107669 115.985145 
L 80.125297 59.175891 
L 82.142924 124.943474 
L 84.160551 163.892844 
L 86.178178 157.867571 
L 88.195805 186.296888 
L 76.090042 203.205326 
L 78.107669 203.485507 
L 88.195805 203.485507 
L 90.213432 208.731189 
L 92.231059 225.146829 
L 94.248686 245.841644 
L 96.266314 223.569263 
L 98.283941 209.471797 
L 100.301568 238.56485 
L 102.319195 243.459753 
L 104.336822 238.892782 
L 106.354449 233.604135 
L 108.372076 231.206347 
L 110.389703 235.754932 
L 112.407331 250.843853 
L 114.424958 240.776221 
L 118.460212 177.107878 
L 120.477839 172.789602 
L 122.495466 177.97885 
L 124.513093 199.164645 
L 126.53072 205.503234 
L 128.548347 204.011918 
L 130.565975 217.277334 
L 132.583602 229.575031 
L 134.601229 231.296146 
L 136.618856 223.870536 
L 138.636483 179.656724 
L 140.65411 139.986754 
L 142.671737 175.817687 
L 144.689364 194.294196 
L 146.706992 200.405536 
L 148.724619 193.488198 
L 150.742246 192.614869 
L 152.759873 229.484784 
L 154.7775 253.497709 
L 156.795127 214.668367 
L 158.812754 179.309787 
L 160.830381 201.770193 
L 162.848008 210.094665 
L 166.883263 202.337115 
L 168.90089 190.521099 
L 170.918517 198.870653 
L 172.936144 219.292097 
L 174.953771 203.485507 
L 176.971398 181.513881 
L 178.989025 189.546148 
L 181.006653 167.615481 
L 183.02428 123.955187 
L 185.041907 155.704666 
L 187.059534 178.789377 
L 189.077161 185.58485 
L 191.094788 199.353305 
L 193.112415 191.357158 
L 195.130042 184.940489 
L 197.147669 204.65592 
L 199.165297 205.005725 
L 201.182924 189.270438 
L 203.200551 188.390507 
L 205.218178 175.451056 
L 207.235805 194.894196 
L 209.253432 227.502336 
L 211.271059 231.84515 
L 213.288686 242.995947 
L 215.306314 245.280016 
L 217.323941 237.272132 
L 219.341568 249.353935 
L 221.359195 250.759634 
L 223.376822 245.567009 
L 225.394449 238.44574 
L 227.412076 156.039761 
L 229.429703 91.163877 
L 231.447331 136.828816 
L 233.464958 142.902122 
L 235.482585 145.571615 
L 237.500212 148.871951 
L 239.517839 156.283142 
L 241.535466 191.261737 
L 243.553093 214.29514 
L 245.57072 217.098185 
L 247.588347 211.397804 
L 249.605975 195.338776 
L 251.623602 185.365328 
L 253.641229 201.136468 
L 255.658856 215.090144 
L 257.676483 221.894019 
L 259.69411 219.522288 
L 261.711737 207.567953 
L 263.729364 221.160869 
L 265.746992 237.704856 
L 267.764619 235.921562 
L 269.782246 228.462786 
L 271.799873 223.686919 
L 273.8175 217.595839 
L 275.835127 234.77118 
L 277.852754 238.35767 
L 279.870381 230.778262 
L 281.888008 229.811856 
L 283.905636 232.319399 
L 285.923263 235.20132 
L 287.94089 235.924204 
L 289.958517 236.284913 
L 291.976144 247.001064 
L 293.993771 247.159099 
L 296.011398 237.928989 
L 298.029025 241.444102 
L 300.046653 217.75517 
L 302.06428 199.775261 
L 304.081907 247.716433 
L 306.099534 248.17246 
L 308.117161 219.959529 
L 310.134788 216.147566 
L 312.152415 189.358101 
L 314.170042 192.577886 
L 316.187669 186.866044 
L 318.205297 136.065648 
L 320.222924 103.018686 
L 322.240551 114.020004 
L 324.258178 144.488829 
L 326.275805 151.638159 
L 328.293432 170.53316 
L 330.311059 191.127471 
L 332.328686 161.93869 
L 334.346314 127.527265 
L 336.363941 127.427011 
L 338.381568 130.122547 
L 340.399195 119.567536 
L 342.416822 117.382607 
L 344.434449 114.573205 
L 346.452076 87.153405 
L 348.469703 88.78005 
L 350.487331 106.543952 
L 352.504958 103.122877 
L 354.522585 100.567915 
L 356.540212 100.219613 
L 358.557839 135.254618 
L 360.575466 134.987898 
L 362.593093 120.658597 
L 364.61072 139.945668 
L 366.628347 145.997301 
L 368.645975 168.739283 
L 370.663602 177.032198 
L 372.681229 180.514477 
L 374.698856 201.498686 
L 376.716483 186.583158 
L 378.73411 158.514886 
L 380.751737 176.411462 
L 382.769364 179.469051 
L 384.786992 176.48865 
L 386.804619 183.410539 
L 388.822246 174.116221 
L 390.839873 171.657699 
L 390.839873 171.657699 
" clip-path="url(#p75356adacf)" style="fill: none; stroke: #ff7f0e; stroke-width: 1.5; stroke-linecap: square"/>
   </g>
   <g id="line2d_19">
    <path d="M 53.896144 245.660072 
L 55.913771 236.648844 
L 57.931398 233.784703 
L 59.949025 227.213101 
L 61.966653 222.544916 
L 63.98428 206.526416 
L 66.001907 202.589876 
L 68.019534 193.534683 
L 70.037161 183.835968 
L 72.054788 159.835956 
L 74.072415 130.778217 
L 76.090042 124.60428 
L 78.107669 103.077334 
L 80.125297 96.448787 
L 82.142924 107.070891 
L 84.160551 132.851244 
L 86.178178 165.075464 
L 88.195805 174.477424 
L 76.090042 192.279777 
L 78.107669 203.298791 
L 80.125297 203.485507 
L 88.195805 203.485507 
L 90.213432 207.008165 
L 92.231059 218.391101 
L 94.248686 236.325957 
L 96.266314 227.669035 
L 98.283941 227.26558 
L 100.301568 221.7991 
L 102.319195 240.501441 
L 104.336822 240.169107 
L 106.354449 237.297894 
L 108.372076 231.87119 
L 110.389703 235.180151 
L 112.407331 243.981116 
L 114.424958 241.399629 
L 116.442585 227.959611 
L 118.460212 192.548583 
L 120.477839 181.037384 
L 122.495466 170.737102 
L 124.513093 195.732822 
L 126.53072 193.714042 
L 128.548347 211.488519 
L 130.565975 206.631654 
L 132.583602 227.297426 
L 134.601229 225.171621 
L 136.618856 231.327768 
L 138.636483 192.843579 
L 140.65411 177.542526 
L 142.671737 153.780902 
L 144.689364 187.615615 
L 146.706992 193.453465 
L 148.724619 198.693274 
L 150.742246 192.329133 
L 152.759873 219.196872 
L 154.7775 236.598198 
L 156.795127 231.311316 
L 158.812754 207.837252 
L 160.830381 190.375655 
L 162.848008 204.622139 
L 164.865636 207.564311 
L 166.883263 204.991662 
L 168.90089 194.580199 
L 170.918517 200.037209 
L 172.936144 206.888938 
L 174.953771 208.205448 
L 176.971398 196.28363 
L 178.989025 187.218034 
L 181.006653 172.060995 
L 183.02428 152.46407 
L 185.041907 147.55334 
L 187.059534 160.727349 
L 189.077161 185.986511 
L 191.094788 190.338614 
L 193.112415 194.072445 
L 195.130042 189.923946 
L 197.147669 197.781723 
L 199.165297 199.283535 
L 201.182924 200.418401 
L 203.200551 188.197939 
L 205.218178 180.721394 
L 207.235805 192.003089 
L 211.271059 228.000946 
L 213.288686 240.291938 
L 215.306314 240.180931 
L 217.323941 243.616446 
L 219.341568 244.622379 
L 221.359195 247.388983 
L 223.376822 249.774806 
L 225.394449 240.096848 
L 231.447331 106.633104 
L 233.464958 141.628598 
L 235.482585 141.97868 
L 237.500212 149.538836 
L 239.517839 151.057652 
L 241.535466 180.755463 
L 243.553093 197.355914 
L 245.57072 217.937851 
L 247.588347 210.514454 
L 249.605975 206.037179 
L 251.623602 189.047349 
L 253.641229 198.978286 
L 255.658856 203.225884 
L 257.676483 222.05195 
L 259.69411 215.595424 
L 261.711737 217.40496 
L 263.729364 215.077569 
L 265.746992 230.152027 
L 267.764619 233.574174 
L 269.782246 234.654271 
L 271.799873 224.032801 
L 273.8175 222.652235 
L 275.835127 228.47932 
L 277.852754 232.785793 
L 279.870381 236.551906 
L 281.888008 229.437311 
L 283.905636 232.489049 
L 285.923263 232.451487 
L 287.94089 236.493396 
L 289.958517 235.110494 
L 291.976144 244.426782 
L 293.993771 242.835797 
L 296.011398 245.425956 
L 298.029025 238.979335 
L 300.046653 226.4703 
L 302.06428 215.388897 
L 304.081907 231.459566 
L 306.099534 237.233787 
L 308.117161 241.816679 
L 310.134788 214.731306 
L 312.152415 203.485507 
L 314.170042 196.317961 
L 316.187669 182.576644 
L 318.205297 164.490777 
L 320.222924 124.018835 
L 322.240551 112.139642 
L 324.258178 130.036426 
L 326.275805 144.482359 
L 328.293432 166.62896 
L 330.311059 177.09131 
L 332.328686 172.967725 
L 336.363941 127.938519 
L 338.381568 128.786369 
L 340.399195 122.677908 
L 342.416822 122.191002 
L 346.452076 101.380426 
L 348.469703 92.920777 
L 350.487331 95.728361 
L 352.504958 103.429118 
L 354.522585 103.421062 
L 356.540212 99.173249 
L 358.557839 125.364693 
L 360.575466 122.894854 
L 362.593093 137.660993 
L 364.61072 126.239168 
L 366.628347 144.969174 
L 368.645975 158.787274 
L 374.698856 192.417977 
L 376.716483 187.179908 
L 378.73411 179.274438 
L 380.751737 169.102872 
L 382.769364 174.323932 
L 384.786992 180.537422 
L 386.804619 179.093089 
L 388.822246 177.016254 
L 390.839873 175.945572 
L 390.839873 175.945572 
" clip-path="url(#p75356adacf)" style="fill: none; stroke: #2ca02c; stroke-width: 1.5; stroke-linecap: square"/>
   </g>
   <g id="line2d_20">
    <path d="M 55.913771 239.293547 
L 57.931398 238.730459 
L 61.966653 221.182293 
L 63.98428 217.490668 
L 68.019534 195.384229 
L 70.037161 188.279304 
L 72.054788 172.865016 
L 74.072415 141.761611 
L 76.090042 137.437023 
L 78.107669 111.411876 
L 80.125297 91.224921 
L 82.142924 120.513227 
L 84.160551 118.037552 
L 86.178178 142.14279 
L 88.195805 175.512435 
L 76.090042 182.319106 
L 78.107669 195.174134 
L 80.125297 203.345497 
L 82.142924 203.485507 
L 88.195805 203.485507 
L 90.213432 206.137147 
L 92.231059 214.844656 
L 94.248686 229.054031 
L 96.266314 224.36112 
L 98.283941 229.360406 
L 100.301568 231.364991 
L 102.319195 227.933819 
L 104.336822 238.728971 
L 106.354449 238.67157 
L 108.372076 235.131195 
L 110.389703 234.685896 
L 112.407331 241.597259 
L 114.424958 238.301688 
L 116.442585 231.854947 
L 118.460212 213.371163 
L 120.477839 191.569087 
L 122.495466 177.544004 
L 124.513093 186.601484 
L 126.53072 192.450586 
L 128.548347 201.611975 
L 130.565975 211.542165 
L 132.583602 217.547087 
L 134.601229 224.529601 
L 136.618856 226.763947 
L 138.636483 208.285078 
L 140.65411 188.188793 
L 142.671737 177.749668 
L 144.689364 169.484944 
L 146.706992 188.662523 
L 148.724619 193.891814 
L 150.742246 196.569006 
L 152.759873 212.915302 
L 154.7775 227.680818 
L 156.795127 222.342086 
L 158.812754 222.899733 
L 160.830381 208.396635 
L 162.848008 195.610662 
L 164.865636 204.05462 
L 166.883263 206.278938 
L 168.90089 198.653895 
L 170.918517 200.615905 
L 172.936144 205.767256 
L 174.953771 201.199485 
L 176.971398 201.836598 
L 178.989025 196.704181 
L 181.006653 174.724675 
L 183.02428 159.966976 
L 185.041907 161.768305 
L 187.059534 153.543531 
L 191.094788 189.459172 
L 193.112415 188.501388 
L 195.130042 192.341668 
L 197.147669 198.179973 
L 199.165297 195.359065 
L 201.182924 197.193477 
L 203.200551 196.966186 
L 205.218178 182.527548 
L 207.235805 191.681838 
L 209.253432 204.236736 
L 211.271059 214.901393 
L 213.288686 235.582011 
L 215.306314 238.82231 
L 217.323941 240.181992 
L 219.341568 247.343495 
L 221.359195 244.295217 
L 223.376822 247.483428 
L 225.394449 244.837149 
L 227.412076 209.11071 
L 229.429703 182.66403 
L 231.447331 146.692016 
L 233.464958 118.643834 
L 235.482585 141.252048 
L 237.500212 145.911833 
L 239.517839 151.009525 
L 241.535466 171.518125 
L 245.57072 204.869346 
L 247.588347 212.855782 
L 249.605975 206.715435 
L 251.623602 199.049399 
L 253.641229 198.270626 
L 255.658856 201.112075 
L 257.676483 211.98849 
L 259.69411 217.328901 
L 261.711737 214.962706 
L 263.729364 220.344768 
L 265.746992 223.745418 
L 267.764619 228.822338 
L 269.782246 233.199349 
L 271.799873 229.999841 
L 273.8175 223.173383 
L 275.835127 229.388607 
L 277.852754 228.530485 
L 279.870381 232.796203 
L 281.888008 234.184613 
L 283.905636 231.551988 
L 285.923263 232.545614 
L 289.958517 235.74475 
L 291.976144 241.645205 
L 293.993771 241.898495 
L 296.011398 242.588926 
L 298.029025 244.351858 
L 300.046653 228.364081 
L 302.06428 222.698453 
L 304.081907 233.952613 
L 306.099534 226.898084 
L 308.117161 234.89403 
L 310.134788 233.542827 
L 312.152415 205.630915 
L 314.170042 204.937045 
L 316.187669 188.117721 
L 318.205297 166.816933 
L 320.222924 149.875228 
L 322.240551 125.346028 
L 324.258178 124.821819 
L 326.275805 133.749087 
L 328.293432 158.016299 
L 330.311059 172.652336 
L 332.328686 166.293887 
L 334.346314 162.397371 
L 338.381568 128.829186 
L 340.399195 123.53549 
L 342.416822 123.853134 
L 344.434449 117.085326 
L 346.452076 102.780145 
L 348.469703 102.048383 
L 350.487331 97.054266 
L 352.504958 96.063484 
L 354.522585 103.576043 
L 356.540212 101.675951 
L 358.557839 118.636813 
L 360.575466 118.331643 
L 364.61072 137.483118 
L 366.628347 133.745899 
L 368.645975 154.948825 
L 370.663602 162.250314 
L 372.681229 174.741755 
L 374.698856 189.815554 
L 376.716483 183.581238 
L 378.73411 181.602237 
L 380.751737 181.58711 
L 382.769364 169.342909 
L 384.786992 176.450061 
L 386.804619 181.45327 
L 388.822246 175.307118 
L 390.839873 177.650807 
L 390.839873 177.650807 
" clip-path="url(#p75356adacf)" style="fill: none; stroke: #d62728; stroke-width: 1.5; stroke-linecap: square"/>
   </g>
   <g id="line2d_21">
    <path d="M 57.931398 240.400362 
L 59.949025 234.802099 
L 61.966653 224.677528 
L 63.98428 217.389787 
L 66.001907 215.306986 
L 68.019534 200.079985 
L 70.037161 190.875575 
L 72.054788 178.91026 
L 74.072415 156.942801 
L 76.090042 144.718612 
L 78.107669 124.990602 
L 80.125297 100.621623 
L 82.142924 112.096124 
L 84.160551 126.274115 
L 86.178178 129.014427 
L 88.195805 156.330793 
L 76.090042 181.578017 
L 78.107669 186.827374 
L 80.125297 196.88049 
L 82.142924 203.373512 
L 84.160551 203.485507 
L 88.195805 203.485507 
L 90.213432 205.611467 
L 92.231059 212.660703 
L 94.248686 224.40943 
L 96.266314 220.493188 
L 100.301568 232.182211 
L 102.319195 234.094964 
L 104.336822 229.007797 
L 106.354449 237.806876 
L 108.372076 236.690974 
L 110.389703 236.683916 
L 112.407331 239.978788 
L 114.424958 237.461589 
L 116.442585 231.155811 
L 120.477839 208.802 
L 122.495466 186.901751 
L 124.513093 188.581017 
L 126.53072 185.712154 
L 128.548347 199.110064 
L 130.565975 203.699298 
L 132.583602 219.099734 
L 134.601229 217.18994 
L 136.618856 225.94075 
L 138.636483 208.976764 
L 140.65411 201.986342 
L 142.671737 186.278764 
L 144.689364 184.485527 
L 146.706992 174.217557 
L 148.724619 189.995349 
L 150.742246 193.118664 
L 152.759873 212.045014 
L 154.7775 221.365159 
L 156.795127 217.408095 
L 158.812754 217.027254 
L 160.830381 220.451184 
L 164.865636 196.984478 
L 166.883263 203.713259 
L 168.90089 201.021611 
L 170.918517 202.579571 
L 172.936144 205.088742 
L 174.953771 201.428065 
L 176.971398 197.324719 
L 178.989025 201.070357 
L 181.006653 185.500259 
L 183.02428 164.727896 
L 185.041907 165.716487 
L 187.059534 163.517934 
L 189.077161 163.870382 
L 191.094788 177.42458 
L 193.112415 188.160091 
L 195.130042 188.204687 
L 197.147669 198.412691 
L 199.165297 196.170768 
L 201.182924 194.442924 
L 203.200551 195.03417 
L 205.218178 190.972833 
L 207.235805 190.916666 
L 209.253432 201.645182 
L 211.271059 209.649386 
L 213.288686 224.416809 
L 215.306314 235.31909 
L 217.323941 239.096612 
L 219.341568 243.975686 
L 221.359195 246.552127 
L 223.376822 245.001562 
L 225.394449 243.927488 
L 231.447331 174.128825 
L 233.464958 147.534525 
L 235.482585 123.128885 
L 237.500212 144.560907 
L 239.517839 147.840072 
L 241.535466 167.592735 
L 243.553093 179.804818 
L 245.57072 196.562866 
L 249.605975 209.411471 
L 251.623602 201.047058 
L 253.641229 204.100494 
L 255.658856 200.130046 
L 257.676483 208.696983 
L 259.69411 210.025232 
L 261.711737 216.484912 
L 263.729364 217.856346 
L 265.746992 226.034368 
L 267.764619 223.941296 
L 269.782246 229.479886 
L 271.799873 229.739965 
L 273.8175 228.18071 
L 275.835127 228.472707 
L 277.852754 229.24806 
L 279.870381 229.405513 
L 281.888008 231.607466 
L 283.905636 234.882461 
L 285.923263 231.785771 
L 287.94089 233.878633 
L 289.958517 234.004224 
L 291.976144 240.855365 
L 293.993771 240.137526 
L 296.011398 241.887576 
L 298.029025 242.281904 
L 300.046653 235.331125 
L 302.06428 225.028131 
L 304.081907 235.588241 
L 306.099534 229.904695 
L 308.117161 227.018012 
L 310.134788 229.336656 
L 312.152415 223.831318 
L 314.170042 206.351114 
L 316.187669 197.091109 
L 318.205297 174.940637 
L 320.222924 154.898494 
L 322.240551 145.935926 
L 324.258178 132.4708 
L 326.275805 128.914886 
L 330.311059 164.821225 
L 332.328686 164.769205 
L 334.346314 158.959719 
L 336.363941 156.16435 
L 338.381568 142.785296 
L 340.399195 124.63174 
L 342.416822 124.301808 
L 344.434449 119.474072 
L 346.452076 108.840416 
L 348.469703 103.032755 
L 350.487331 103.460286 
L 352.504958 97.056597 
L 354.522585 97.676551 
L 356.540212 102.150838 
L 358.557839 116.7481 
L 360.575466 114.243049 
L 362.593093 123.495366 
L 364.61072 129.895498 
L 366.628347 141.040979 
L 368.645975 144.470615 
L 370.663602 158.550753 
L 372.681229 167.843638 
L 374.698856 183.40882 
L 376.716483 183.206788 
L 378.73411 179.771721 
L 380.751737 182.969113 
L 382.769364 179.352314 
L 384.786992 172.100109 
L 386.804619 178.026273 
L 388.822246 178.002276 
L 390.839873 176.16304 
L 390.839873 176.16304 
" clip-path="url(#p75356adacf)" style="fill: none; stroke: #9467bd; stroke-width: 1.5; stroke-linecap: square"/>
   </g>
   <g id="line2d_22">
    <path d="M 59.949025 236.915144 
L 61.966653 229.856341 
L 63.98428 221.040417 
L 66.001907 215.5885 
L 68.019534 208.938391 
L 72.054788 182.804589 
L 74.072415 165.197508 
L 76.090042 156.799054 
L 78.107669 133.542478 
L 80.125297 114.309696 
L 82.142924 116.020895 
L 84.160551 118.498757 
L 86.178178 133.808053 
L 88.195805 143.873732 
L 76.090042 165.296879 
L 78.107669 185.484897 
L 80.125297 189.75378 
L 82.142924 198.005636 
L 84.160551 203.392185 
L 88.195805 203.485507 
L 90.213432 205.259729 
L 92.231059 211.180853 
L 94.248686 221.189499 
L 96.266314 217.83278 
L 98.283941 222.924212 
L 100.301568 229.336277 
L 102.319195 234.310537 
L 104.336822 233.944235 
L 106.354449 229.861746 
L 108.372076 236.290547 
L 110.389703 237.710037 
L 112.407331 240.705276 
L 114.424958 236.763125 
L 116.442585 231.639244 
L 118.460212 221.392225 
L 120.477839 215.273646 
L 122.495466 202.634097 
L 124.513093 194.150347 
L 126.53072 187.521154 
L 128.548347 192.665762 
L 130.565975 201.301674 
L 132.583602 211.737664 
L 134.601229 218.548546 
L 136.618856 219.697428 
L 138.636483 211.362548 
L 140.65411 203.661534 
L 142.671737 198.331339 
L 144.689364 190.254844 
L 146.706992 185.724112 
L 148.724619 177.935297 
L 150.742246 189.992857 
L 152.759873 207.021969 
L 154.7775 219.32303 
L 156.795127 213.502715 
L 158.812754 213.661118 
L 160.830381 215.895763 
L 162.848008 218.797484 
L 164.865636 207.70086 
L 166.883263 197.892651 
L 168.90089 199.701282 
L 170.918517 203.858939 
L 172.936144 205.944062 
L 174.953771 201.579857 
L 176.971398 198.174244 
L 178.989025 197.430424 
L 181.006653 191.344472 
L 183.02428 175.969845 
L 185.041907 168.633927 
L 187.059534 166.495082 
L 189.077161 170.126402 
L 191.094788 170.413912 
L 193.112415 178.340969 
L 195.130042 187.969313 
L 197.147669 194.11284 
L 199.165297 196.70433 
L 201.182924 195.276798 
L 203.200551 193.076463 
L 205.218178 190.320555 
L 207.235805 196.279199 
L 209.253432 199.440108 
L 211.271059 206.688981 
L 213.288686 218.844767 
L 215.306314 226.12806 
L 217.323941 236.14895 
L 219.341568 242.48537 
L 221.359195 243.864415 
L 223.376822 246.75576 
L 225.394449 242.390389 
L 227.412076 224.459235 
L 229.429703 210.396559 
L 231.447331 188.774788 
L 233.464958 170.478689 
L 235.482585 146.319326 
L 237.500212 129.254707 
L 239.517839 146.405146 
L 241.535466 162.515807 
L 245.57072 188.518689 
L 247.588347 196.489795 
L 249.605975 201.772625 
L 251.623602 204.350324 
L 253.641229 204.884143 
L 255.658856 204.639701 
L 257.676483 206.689654 
L 259.69411 207.579049 
L 261.711737 210.533692 
L 263.729364 218.621602 
L 265.746992 223.131988 
L 267.764619 225.816675 
L 269.782246 225.342805 
L 271.799873 227.13996 
L 273.8175 228.266342 
L 275.835127 231.617517 
L 277.852754 228.507924 
L 279.870381 229.854074 
L 281.888008 228.959503 
L 283.905636 232.637539 
L 285.923263 234.52478 
L 287.94089 233.03259 
L 289.958517 233.809133 
L 291.976144 238.645137 
L 293.993771 239.723156 
L 296.011398 240.424315 
L 298.029025 241.747304 
L 300.046653 235.02207 
L 302.06428 231.600131 
L 304.081907 235.297726 
L 306.099534 232.00671 
L 308.117161 229.507438 
L 310.134788 223.437385 
L 312.152415 221.721767 
L 314.170042 221.525586 
L 316.187669 199.676485 
L 318.205297 185.33716 
L 320.222924 164.16733 
L 322.240551 150.872961 
L 324.258178 148.097805 
L 326.275805 134.524404 
L 328.293432 141.388556 
L 330.311059 155.180629 
L 332.328686 159.3341 
L 334.346314 158.887031 
L 336.363941 154.269009 
L 338.381568 152.279484 
L 340.399195 137.245974 
L 342.416822 125.085357 
L 344.434449 120.59118 
L 346.452076 112.294857 
L 350.487331 104.04188 
L 352.504958 102.407123 
L 354.522585 98.231537 
L 356.540212 97.457308 
L 358.557839 114.68193 
L 360.575466 113.381254 
L 362.593093 119.312948 
L 364.61072 125.802409 
L 366.628347 134.25013 
L 368.645975 148.539013 
L 370.663602 149.420695 
L 372.681229 163.935785 
L 374.698856 176.548393 
L 376.716483 178.796948 
L 378.73411 180.094732 
L 380.751737 181.23045 
L 382.769364 180.894658 
L 384.786992 179.907299 
L 386.804619 174.180371 
L 388.822246 175.676138 
L 390.839873 178.259389 
L 390.839873 178.259389 
" clip-path="url(#p75356adacf)" style="fill: none; stroke: #8c564b; stroke-width: 1.5; stroke-linecap: square"/>
   </g>
   <g id="line2d_23">
    <path d="M 61.966653 232.477684 
L 63.98428 226.16085 
L 66.001907 219.029124 
L 68.019534 210.123474 
L 70.037161 204.175587 
L 72.054788 188.322586 
L 74.072415 170.843024 
L 76.090042 163.925463 
L 78.107669 146.134584 
L 80.125297 123.556924 
L 82.142924 124.977138 
L 84.160551 120.877739 
L 86.178178 126.319137 
L 88.195805 145.669655 
L 76.090042 153.907122 
L 80.125297 188.210452 
L 82.142924 191.8062 
L 84.160551 198.803284 
L 86.178178 203.405521 
L 88.195805 203.485507 
L 90.213432 205.007856 
L 92.231059 210.111956 
L 94.248686 218.826981 
L 96.266314 215.891344 
L 98.283941 220.349352 
L 102.319195 231.622996 
L 104.336822 234.150851 
L 106.354449 233.954995 
L 108.372076 229.64113 
L 110.389703 237.225438 
L 112.407331 240.988142 
L 114.424958 237.872896 
L 116.442585 231.861909 
L 118.460212 223.297546 
L 120.477839 217.237348 
L 122.495466 209.355604 
L 124.513093 206.126015 
L 126.53072 192.492593 
L 128.548347 193.179596 
L 130.565975 195.568836 
L 132.583602 208.68699 
L 134.601229 212.319635 
L 136.618856 220.485212 
L 138.636483 207.579301 
L 140.65411 206.563183 
L 142.671737 200.333666 
L 144.689364 199.835777 
L 146.706992 190.470295 
L 148.724619 187.118577 
L 150.742246 179.719424 
L 152.759873 202.696703 
L 154.7775 214.257504 
L 156.795127 212.800812 
L 158.812754 210.766382 
L 160.830381 213.153475 
L 162.848008 215.090119 
L 164.865636 216.587873 
L 166.883263 206.949297 
L 168.90089 195.170031 
L 170.918517 202.348862 
L 172.936144 206.54075 
L 174.953771 202.839094 
L 176.971398 198.777283 
L 178.989025 198.143324 
L 181.006653 189.458213 
L 183.02428 182.686204 
L 185.041907 177.565209 
L 187.059534 168.877575 
L 189.077161 171.664726 
L 191.094788 174.685858 
L 193.112415 172.252988 
L 195.130042 179.612062 
L 197.147669 193.090374 
L 199.165297 193.23068 
L 201.182924 195.865067 
L 203.200551 193.993998 
L 205.218178 189.276209 
L 207.235805 194.994193 
L 209.253432 202.614784 
L 211.271059 204.159583 
L 213.288686 215.217548 
L 215.306314 221.196833 
L 217.323941 228.269747 
L 219.341568 239.573937 
L 221.359195 242.60307 
L 223.376822 244.433553 
L 225.394449 244.316233 
L 227.412076 225.921218 
L 229.429703 215.216848 
L 231.447331 201.766519 
L 237.500212 147.917677 
L 239.517839 133.214037 
L 241.535466 159.35422 
L 243.553093 170.096613 
L 245.57072 183.682749 
L 247.588347 189.631901 
L 249.605975 196.214305 
L 251.623602 198.326376 
L 253.641229 207.105006 
L 255.658856 205.23227 
L 257.676483 209.4751 
L 259.69411 206.006855 
L 261.711737 208.37551 
L 263.729364 213.322819 
L 265.746992 223.023065 
L 267.764619 223.36052 
L 269.782246 226.734334 
L 271.799873 223.868682 
L 273.8175 226.22465 
L 275.835127 231.20525 
L 277.852754 231.203921 
L 279.870381 229.137101 
L 281.888008 229.409483 
L 283.905636 230.247222 
L 287.94089 235.181331 
L 289.958517 233.093891 
L 291.976144 237.836934 
L 293.993771 237.973193 
L 296.011398 240.029375 
L 298.029025 240.51289 
L 300.046653 235.604671 
L 302.06428 231.868232 
L 304.081907 239.05828 
L 306.099534 232.26953 
L 308.117161 231.375291 
L 310.134788 226.16085 
L 312.152415 217.47091 
L 314.170042 220.017598 
L 316.187669 214.411244 
L 318.205297 189.472133 
L 320.222924 175.255129 
L 322.240551 159.590986 
L 324.258178 151.986926 
L 326.275805 147.583949 
L 328.293432 144.211144 
L 330.311059 149.163796 
L 332.328686 151.660351 
L 334.346314 154.947424 
L 336.363941 154.883308 
L 338.381568 151.18473 
L 340.399195 146.427898 
L 342.416822 135.86148 
L 344.434449 121.807832 
L 346.452076 114.321997 
L 348.469703 111.134744 
L 350.487331 108.186752 
L 352.504958 103.058508 
L 354.522585 102.63771 
L 356.540212 97.96482 
L 358.557839 109.112638 
L 360.575466 112.071348 
L 362.593093 117.872939 
L 364.61072 121.929841 
L 366.628347 130.197797 
L 368.645975 141.883986 
L 370.663602 152.132757 
L 372.681229 155.597394 
L 374.698856 172.150014 
L 376.716483 173.44178 
L 378.73411 176.701282 
L 380.751737 181.297492 
L 382.769364 179.685308 
L 384.786992 181.146849 
L 386.804619 180.523487 
L 388.822246 172.678864 
L 390.839873 176.23406 
L 390.839873 176.23406 
" clip-path="url(#p75356adacf)" style="fill: none; stroke: #e377c2; stroke-width: 1.5; stroke-linecap: square"/>
   </g>
   <g id="patch_3">
    <path d="M 35.7375 284.991437 
L 35.7375 18.879437 
" style="fill: none; stroke: #000000; stroke-width: 0.8; stroke-linejoin: miter; stroke-linecap: square"/>
   </g>
   <g id="patch_4">
    <path d="M 392.8575 284.991437 
L 392.8575 18.879437 
" style="fill: none; stroke: #000000; stroke-width: 0.8; stroke-linejoin: miter; stroke-linecap: square"/>
   </g>
   <g id="patch_5">
    <path d="M 35.7375 284.991437 
L 392.8575 284.991437 
" style="fill: none; stroke: #000000; stroke-width: 0.8; stroke-linejoin: miter; stroke-linecap: square"/>
   </g>
   <g id="patch_6">
    <path d="M 35.7375 18.879437 
L 392.8575 18.879437 
" style="fill: none; stroke: #000000; stroke-width: 0.8; stroke-linejoin: miter; stroke-linecap: square"/>
   </g>
   <g id="legend_1">
    <g id="patch_7">
     <path d="M 195.148281 127.613812 
L 233.446719 127.613812 
Q 235.446719 127.613812 235.446719 125.613812 
L 235.446719 25.879437 
Q 235.446719 23.879437 233.446719 23.879437 
L 195.148281 23.879437 
Q 193.148281 23.879437 193.148281 25.879437 
L 193.148281 125.613812 
Q 193.148281 127.613812 195.148281 127.613812 
z
" style="fill: #ffffff; opacity: 0.8; stroke: #cccccc; stroke-linejoin: miter"/>
    </g>
    <g id="line2d_24">
     <path d="M 197.148281 31.870062 
L 207.148281 31.870062 
L 217.148281 31.870062 
" style="fill: none; stroke: #1f77b4; stroke-width: 1.5; stroke-linecap: square"/>
    </g>
    <g id="text_17">
     <!-- 1 -->
     <g transform="translate(225.148281 35.370062)scale(0.1 -0.1)">
      <use xlink:href="#IPAexGothic-31"/>
     </g>
    </g>
    <g id="line2d_25">
     <path d="M 197.148281 46.260687 
L 207.148281 46.260687 
L 217.148281 46.260687 
" style="fill: none; stroke: #ff7f0e; stroke-width: 1.5; stroke-linecap: square"/>
    </g>
    <g id="text_18">
     <!-- 2 -->
     <g transform="translate(225.148281 49.760687)scale(0.1 -0.1)">
      <use xlink:href="#IPAexGothic-32"/>
     </g>
    </g>
    <g id="line2d_26">
     <path d="M 197.148281 60.651312 
L 207.148281 60.651312 
L 217.148281 60.651312 
" style="fill: none; stroke: #2ca02c; stroke-width: 1.5; stroke-linecap: square"/>
    </g>
    <g id="text_19">
     <!-- 3 -->
     <g transform="translate(225.148281 64.151312)scale(0.1 -0.1)">
      <defs>
       <path id="IPAexGothic-33" d="M 2381 2419 
Q 3506 2216 3506 1278 
Q 3506 716 3128 356 
Q 2709 -31 1944 -31 
Q 797 -31 288 881 
L 756 1131 
Q 1109 441 1938 441 
Q 2425 441 2694 691 
Q 2950 928 2950 1291 
Q 2950 1719 2566 1978 
Q 2216 2213 1644 2213 
L 1363 2213 
L 1363 2669 
L 1656 2669 
Q 2231 2669 2534 2888 
Q 2859 3119 2859 3509 
Q 2859 3934 2494 4138 
Q 2259 4278 1931 4278 
Q 1238 4278 903 3578 
L 434 3803 
Q 897 4725 1938 4725 
Q 2597 4725 3006 4394 
Q 3416 4069 3416 3534 
Q 3416 3028 3019 2706 
Q 2763 2500 2381 2444 
L 2381 2419 
z
" transform="scale(0.015625)"/>
      </defs>
      <use xlink:href="#IPAexGothic-33"/>
     </g>
    </g>
    <g id="line2d_27">
     <path d="M 197.148281 75.041937 
L 207.148281 75.041937 
L 217.148281 75.041937 
" style="fill: none; stroke: #d62728; stroke-width: 1.5; stroke-linecap: square"/>
    </g>
    <g id="text_20">
     <!-- 4 -->
     <g transform="translate(225.148281 78.541937)scale(0.1 -0.1)">
      <defs>
       <path id="IPAexGothic-34" d="M 3813 1159 
L 3059 1159 
L 3059 63 
L 2547 63 
L 2547 1159 
L 197 1159 
L 197 1672 
L 2456 4678 
L 3059 4678 
L 3059 1634 
L 3813 1634 
L 3813 1159 
z
M 2578 4109 
L 2559 4109 
Q 2278 3656 2003 3284 
L 759 1634 
L 2547 1634 
L 2547 3144 
Q 2547 3481 2578 4109 
z
" transform="scale(0.015625)"/>
      </defs>
      <use xlink:href="#IPAexGothic-34"/>
     </g>
    </g>
    <g id="line2d_28">
     <path d="M 197.148281 89.432562 
L 207.148281 89.432562 
L 217.148281 89.432562 
" style="fill: none; stroke: #9467bd; stroke-width: 1.5; stroke-linecap: square"/>
    </g>
    <g id="text_21">
     <!-- 5 -->
     <g transform="translate(225.148281 92.932562)scale(0.1 -0.1)">
      <use xlink:href="#IPAexGothic-35"/>
     </g>
    </g>
    <g id="line2d_29">
     <path d="M 197.148281 103.823187 
L 207.148281 103.823187 
L 217.148281 103.823187 
" style="fill: none; stroke: #8c564b; stroke-width: 1.5; stroke-linecap: square"/>
    </g>
    <g id="text_22">
     <!-- 6 -->
     <g transform="translate(225.148281 107.323187)scale(0.1 -0.1)">
      <defs>
       <path id="IPAexGothic-36" d="M 1056 2328 
Q 1509 2981 2234 2981 
Q 2906 2981 3316 2513 
Q 3675 2106 3675 1522 
Q 3675 884 3272 434 
Q 2853 -31 2178 -31 
Q 1375 -31 922 581 
Q 481 1178 481 2228 
Q 481 3425 1013 4109 
Q 1494 4725 2272 4725 
Q 3191 4725 3609 4025 
L 3150 3775 
Q 2894 4266 2300 4266 
Q 1119 4266 1031 2328 
L 1056 2328 
z
M 2141 2547 
Q 1684 2547 1384 2206 
Q 1116 1900 1116 1541 
Q 1116 1156 1353 844 
Q 1672 428 2159 428 
Q 2669 428 2941 844 
Q 3125 1128 3125 1503 
Q 3125 1944 2881 2228 
Q 2600 2547 2141 2547 
z
" transform="scale(0.015625)"/>
      </defs>
      <use xlink:href="#IPAexGothic-36"/>
     </g>
    </g>
    <g id="line2d_30">
     <path d="M 197.148281 118.213812 
L 207.148281 118.213812 
L 217.148281 118.213812 
" style="fill: none; stroke: #e377c2; stroke-width: 1.5; stroke-linecap: square"/>
    </g>
    <g id="text_23">
     <!-- 7 -->
     <g transform="translate(225.148281 121.713812)scale(0.1 -0.1)">
      <use xlink:href="#IPAexGothic-37"/>
     </g>
    </g>
   </g>
  </g>
  <g id="axes_2">
   <g id="matplotlib.axis_3"/>
   <g id="patch_8">
    <path d="M 35.7375 284.991437 
L 35.7375 18.879437 
" style="fill: none; stroke: #000000; stroke-width: 0.8; stroke-linejoin: miter; stroke-linecap: square"/>
   </g>
   <g id="patch_9">
    <path d="M 392.8575 284.991437 
L 392.8575 18.879437 
" style="fill: none; stroke: #000000; stroke-width: 0.8; stroke-linejoin: miter; stroke-linecap: square"/>
   </g>
   <g id="patch_10">
    <path d="M 35.7375 284.991437 
L 392.8575 284.991437 
" style="fill: none; stroke: #000000; stroke-width: 0.8; stroke-linejoin: miter; stroke-linecap: square"/>
   </g>
   <g id="patch_11">
    <path d="M 35.7375 18.879437 
L 392.8575 18.879437 
" style="fill: none; stroke: #000000; stroke-width: 0.8; stroke-linejoin: miter; stroke-linecap: square"/>
   </g>
  </g>
  <g id="text_24">
   <!-- : 2022/07/27 12:42:26(JST) -->
   <g transform="translate(217.385625 15.423437)scale(0.1 -0.1)">
    <defs>
     <path id="IPAexGothic-66f4" d="M 2956 3994 
L 2956 4588 
L 513 4588 
L 513 4984 
L 5881 4984 
L 5881 4588 
L 3413 4588 
L 3413 3994 
L 5300 3994 
L 5300 1288 
L 4838 1288 
L 4838 1759 
L 3406 1759 
Q 3384 1125 3150 709 
Q 4291 244 5997 31 
L 5694 -428 
Q 4109 -166 2906 384 
Q 2294 -266 744 -488 
L 494 -66 
Q 1903 59 2491 588 
Q 2041 813 1594 1166 
L 1928 1434 
Q 2331 1106 2747 897 
Q 2922 1219 2950 1759 
L 1556 1759 
L 1556 1413 
L 1097 1413 
L 1097 3994 
L 2956 3994 
z
M 2956 3609 
L 1556 3609 
L 1556 3078 
L 2956 3078 
L 2956 3609 
z
M 3413 3609 
L 3413 3078 
L 4838 3078 
L 4838 3609 
L 3413 3609 
z
M 2956 2700 
L 1556 2700 
L 1556 2144 
L 2956 2144 
L 2956 2700 
z
M 3413 2700 
L 3413 2144 
L 4838 2144 
L 4838 2700 
L 3413 2700 
z
" transform="scale(0.015625)"/>
     <path id="IPAexGothic-65b0" d="M 3891 2803 
Q 3881 1759 3794 1166 
Q 3653 197 3097 -563 
L 2741 -250 
Q 3450 700 3450 2631 
L 3450 4647 
Q 3516 4656 3622 4666 
Q 4656 4778 5447 5063 
L 5825 4678 
Q 4897 4419 3891 4294 
L 3891 3219 
L 6119 3219 
L 6119 2803 
L 5275 2803 
L 5275 -447 
L 4834 -447 
L 4834 2803 
L 3891 2803 
z
M 2822 4069 
Q 2678 3572 2519 3181 
L 3250 3181 
L 3250 2784 
L 2059 2784 
L 2059 2216 
L 3184 2216 
L 3184 1831 
L 2059 1831 
L 2059 1544 
Q 2613 1197 3031 847 
L 2781 456 
Q 2472 791 2059 1128 
L 2059 -447 
L 1644 -447 
L 1644 1294 
Q 1272 628 575 -31 
L 269 341 
Q 1041 938 1528 1831 
L 453 1831 
L 453 2216 
L 1644 2216 
L 1644 2784 
L 319 2784 
L 319 3181 
L 1125 3181 
Q 1013 3706 881 4069 
L 453 4069 
L 453 4453 
L 1631 4453 
L 1631 5309 
L 2072 5309 
L 2072 4453 
L 3166 4453 
L 3166 4069 
L 2822 4069 
z
M 2391 4069 
L 1325 4069 
Q 1450 3672 1534 3181 
L 2109 3181 
Q 2294 3659 2391 4069 
z
" transform="scale(0.015625)"/>
     <path id="IPAexGothic-65e5" d="M 5231 4800 
L 5231 -288 
L 4744 -288 
L 4744 128 
L 1647 128 
L 1647 -288 
L 1159 -288 
L 1159 4800 
L 5231 4800 
z
M 1647 4372 
L 1647 2731 
L 4744 2731 
L 4744 4372 
L 1647 4372 
z
M 1647 2297 
L 1647 556 
L 4744 556 
L 4744 2297 
L 1647 2297 
z
" transform="scale(0.015625)"/>
     <path id="IPAexGothic-6642" d="M 2328 4728 
L 2328 563 
L 934 563 
L 934 56 
L 519 56 
L 519 4728 
L 2328 4728 
z
M 934 4331 
L 934 2881 
L 1906 2881 
L 1906 4331 
L 934 4331 
z
M 934 2497 
L 934 953 
L 1906 953 
L 1906 2497 
L 934 2497 
z
M 3938 4372 
L 3938 5313 
L 4378 5313 
L 4378 4372 
L 5772 4372 
L 5772 3981 
L 4378 3981 
L 4378 3194 
L 6072 3194 
L 6072 2803 
L 5203 2803 
L 5203 2047 
L 5959 2047 
L 5959 1650 
L 5216 1650 
L 5216 31 
Q 5216 -447 4691 -447 
Q 4394 -447 3888 -391 
L 3784 78 
Q 4272 0 4591 0 
Q 4775 0 4775 172 
L 4775 1650 
L 2581 1650 
L 2581 2047 
L 4763 2047 
L 4763 2803 
L 2538 2803 
L 2538 3194 
L 3938 3194 
L 3938 3981 
L 2716 3981 
L 2716 4372 
L 3938 4372 
z
M 3669 384 
Q 3331 950 2956 1325 
L 3291 1575 
Q 3719 1147 4025 659 
L 3669 384 
z
" transform="scale(0.015625)"/>
     <path id="IPAexGothic-3a" d="M 1369 2559 
L 672 2559 
L 672 3250 
L 1369 3250 
L 1369 2559 
z
M 1369 63 
L 672 63 
L 672 753 
L 1369 753 
L 1369 63 
z
" transform="scale(0.015625)"/>
     <path id="IPAexGothic-20" transform="scale(0.015625)"/>
     <path id="IPAexGothic-2f" d="M 2719 4709 
L 600 -884 
L 300 -763 
L 2413 4831 
L 2719 4709 
z
" transform="scale(0.015625)"/>
     <path id="IPAexGothic-28" d="M 1928 -1016 
L 1653 -1166 
Q 488 69 488 1875 
Q 488 3678 1653 4909 
L 1928 4763 
Q 1006 3522 1006 1881 
Q 1006 203 1928 -1016 
z
" transform="scale(0.015625)"/>
     <path id="IPAexGothic-53" d="M 2919 3641 
Q 2563 4259 1853 4259 
Q 1453 4259 1213 4009 
Q 1028 3803 1028 3534 
Q 1028 3238 1266 3047 
Q 1444 2913 1984 2688 
L 2200 2597 
Q 2925 2306 3191 1953 
Q 3422 1644 3422 1259 
Q 3422 644 2969 288 
Q 2559 -31 1931 -31 
Q 881 -31 313 766 
L 753 1100 
Q 1203 459 1938 459 
Q 2288 459 2534 625 
Q 2841 847 2841 1216 
Q 2841 1503 2616 1728 
Q 2375 1959 1728 2206 
L 1541 2278 
Q 453 2694 453 3481 
Q 453 4006 806 4347 
Q 1203 4725 1863 4725 
Q 2841 4725 3359 3956 
L 2919 3641 
z
" transform="scale(0.015625)"/>
     <path id="IPAexGothic-54" d="M 3866 4141 
L 2175 4141 
L 2175 63 
L 1606 63 
L 1606 4141 
L -31 4141 
L -31 4634 
L 3866 4634 
L 3866 4141 
z
" transform="scale(0.015625)"/>
     <path id="IPAexGothic-29" d="M 466 4909 
Q 1638 3672 1638 1875 
Q 1638 75 466 -1166 
L 191 -1016 
Q 1119 216 1119 1881 
Q 1119 3509 191 4763 
L 466 4909 
z
" transform="scale(0.015625)"/>
    </defs>
    <use xlink:href="#IPAexGothic-66f4"/>
    <use xlink:href="#IPAexGothic-65b0" x="100"/>
    <use xlink:href="#IPAexGothic-65e5" x="200"/>
    <use xlink:href="#IPAexGothic-6642" x="300"/>
    <use xlink:href="#IPAexGothic-3a" x="400"/>
    <use xlink:href="#IPAexGothic-20" x="431.982422"/>
    <use xlink:href="#IPAexGothic-32" x="458.984375"/>
    <use xlink:href="#IPAexGothic-30" x="521.972656"/>
    <use xlink:href="#IPAexGothic-32" x="584.960938"/>
    <use xlink:href="#IPAexGothic-32" x="647.949219"/>
    <use xlink:href="#IPAexGothic-2f" x="710.9375"/>
    <use xlink:href="#IPAexGothic-30" x="760.9375"/>
    <use xlink:href="#IPAexGothic-37" x="823.925781"/>
    <use xlink:href="#IPAexGothic-2f" x="886.914062"/>
    <use xlink:href="#IPAexGothic-32" x="936.914062"/>
    <use xlink:href="#IPAexGothic-37" x="999.902344"/>
    <use xlink:href="#IPAexGothic-20" x="1062.890625"/>
    <use xlink:href="#IPAexGothic-31" x="1089.892578"/>
    <use xlink:href="#IPAexGothic-32" x="1152.880859"/>
    <use xlink:href="#IPAexGothic-3a" x="1215.869141"/>
    <use xlink:href="#IPAexGothic-34" x="1247.851562"/>
    <use xlink:href="#IPAexGothic-32" x="1310.839844"/>
    <use xlink:href="#IPAexGothic-3a" x="1373.828125"/>
    <use xlink:href="#IPAexGothic-32" x="1405.810547"/>
    <use xlink:href="#IPAexGothic-36" x="1468.798828"/>
    <use xlink:href="#IPAexGothic-28" x="1531.787109"/>
    <use xlink:href="#IPAexGothic-4a" x="1565.087891"/>
    <use xlink:href="#IPAexGothic-53" x="1603.076172"/>
    <use xlink:href="#IPAexGothic-54" x="1661.572266"/>
    <use xlink:href="#IPAexGothic-29" x="1721.484375"/>
   </g>
  </g>
 </g>
 <defs>
  <clipPath id="p75356adacf">
   <rect x="35.7375" y="18.879437" width="357.12" height="266.112"/>
  </clipPath>
 </defs>
</svg>
