<?xml version="1.0" encoding="utf-8" standalone="no"?>
<!DOCTYPE svg PUBLIC "-//W3C//DTD SVG 1.1//EN"
  "http://www.w3.org/Graphics/SVG/1.1/DTD/svg11.dtd">
<svg xmlns:xlink="http://www.w3.org/1999/xlink" width="435.9075pt" height="361.76925pt" viewBox="0 0 435.9075 361.76925" xmlns="http://www.w3.org/2000/svg" version="1.1">
 <metadata>
  <rdf:RDF xmlns:dc="http://purl.org/dc/elements/1.1/" xmlns:cc="http://creativecommons.org/ns#" xmlns:rdf="http://www.w3.org/1999/02/22-rdf-syntax-ns#">
   <cc:Work>
    <dc:type rdf:resource="http://purl.org/dc/dcmitype/StillImage"/>
    <dc:date>2022-12-23T07:13:58.772358</dc:date>
    <dc:format>image/svg+xml</dc:format>
    <dc:creator>
     <cc:Agent>
      <dc:title>Matplotlib v3.6.2, https://matplotlib.org/</dc:title>
     </cc:Agent>
    </dc:creator>
   </cc:Work>
  </rdf:RDF>
 </metadata>
 <defs>
  <style type="text/css">*{stroke-linejoin: round; stroke-linecap: butt}</style>
 </defs>
 <g id="figure_1">
  <g id="patch_1">
   <path d="M 0 361.76925 
L 435.9075 361.76925 
L 435.9075 0 
L 0 0 
z
" style="fill: #ffffff"/>
  </g>
  <g id="axes_1">
   <g id="patch_2">
    <path d="M 39.39375 325.788 
L 396.51375 325.788 
L 396.51375 59.676 
L 39.39375 59.676 
z
" style="fill: #ffffff"/>
   </g>
   <g id="patch_3">
    <path d="M 39.39375 325.788 
L 41.127342 325.788 
L 41.127342 317.137077 
L 39.39375 317.137077 
z
" clip-path="url(#p5cf1c40fca)" style="fill: #3182bd; stroke: #000000; stroke-width: 0.5; stroke-linejoin: miter"/>
   </g>
   <g id="patch_4">
    <path d="M 41.127342 325.788 
L 42.860934 325.788 
L 42.860934 319.379909 
L 41.127342 319.379909 
z
" clip-path="url(#p5cf1c40fca)" style="fill: #3182bd; stroke: #000000; stroke-width: 0.5; stroke-linejoin: miter"/>
   </g>
   <g id="patch_5">
    <path d="M 42.860934 325.788 
L 44.594527 325.788 
L 44.594527 320.501325 
L 42.860934 320.501325 
z
" clip-path="url(#p5cf1c40fca)" style="fill: #3182bd; stroke: #000000; stroke-width: 0.5; stroke-linejoin: miter"/>
   </g>
   <g id="patch_6">
    <path d="M 44.594527 325.788 
L 46.328119 325.788 
L 46.328119 319.219707 
L 44.594527 319.219707 
z
" clip-path="url(#p5cf1c40fca)" style="fill: #9ecae1; stroke: #000000; stroke-width: 0.5; stroke-linejoin: miter"/>
   </g>
   <g id="patch_7">
    <path d="M 46.328119 325.788 
L 48.061711 325.788 
L 48.061711 319.860516 
L 46.328119 319.860516 
z
" clip-path="url(#p5cf1c40fca)" style="fill: #9ecae1; stroke: #000000; stroke-width: 0.5; stroke-linejoin: miter"/>
   </g>
   <g id="patch_8">
    <path d="M 48.061711 325.788 
L 49.795303 325.788 
L 49.795303 322.583954 
L 48.061711 322.583954 
z
" clip-path="url(#p5cf1c40fca)" style="fill: #3182bd; stroke: #000000; stroke-width: 0.5; stroke-linejoin: miter"/>
   </g>
   <g id="patch_9">
    <path d="M 49.795303 325.788 
L 51.528896 325.788 
L 51.528896 319.059504 
L 49.795303 319.059504 
z
" clip-path="url(#p5cf1c40fca)" style="fill: #3182bd; stroke: #000000; stroke-width: 0.5; stroke-linejoin: miter"/>
   </g>
   <g id="patch_10">
    <path d="M 51.528896 325.788 
L 53.262488 325.788 
L 53.262488 318.418695 
L 51.528896 318.418695 
z
" clip-path="url(#p5cf1c40fca)" style="fill: #3182bd; stroke: #000000; stroke-width: 0.5; stroke-linejoin: miter"/>
   </g>
   <g id="patch_11">
    <path d="M 53.262488 325.788 
L 54.99608 325.788 
L 54.99608 320.821729 
L 53.262488 320.821729 
z
" clip-path="url(#p5cf1c40fca)" style="fill: #3182bd; stroke: #000000; stroke-width: 0.5; stroke-linejoin: miter"/>
   </g>
   <g id="patch_12">
    <path d="M 54.99608 325.788 
L 56.729672 325.788 
L 56.729672 319.379909 
L 54.99608 319.379909 
z
" clip-path="url(#p5cf1c40fca)" style="fill: #3182bd; stroke: #000000; stroke-width: 0.5; stroke-linejoin: miter"/>
   </g>
   <g id="patch_13">
    <path d="M 56.729672 325.788 
L 58.463265 325.788 
L 58.463265 322.103348 
L 56.729672 322.103348 
z
" clip-path="url(#p5cf1c40fca)" style="fill: #9ecae1; stroke: #000000; stroke-width: 0.5; stroke-linejoin: miter"/>
   </g>
   <g id="patch_14">
    <path d="M 58.463265 325.788 
L 60.196857 325.788 
L 60.196857 322.904359 
L 58.463265 322.904359 
z
" clip-path="url(#p5cf1c40fca)" style="fill: #9ecae1; stroke: #000000; stroke-width: 0.5; stroke-linejoin: miter"/>
   </g>
   <g id="patch_15">
    <path d="M 60.196857 325.788 
L 61.930449 325.788 
L 61.930449 322.26355 
L 60.196857 322.26355 
z
" clip-path="url(#p5cf1c40fca)" style="fill: #3182bd; stroke: #000000; stroke-width: 0.5; stroke-linejoin: miter"/>
   </g>
   <g id="patch_16">
    <path d="M 61.930449 325.788 
L 63.664041 325.788 
L 63.664041 321.782943 
L 61.930449 321.782943 
z
" clip-path="url(#p5cf1c40fca)" style="fill: #3182bd; stroke: #000000; stroke-width: 0.5; stroke-linejoin: miter"/>
   </g>
   <g id="patch_17">
    <path d="M 63.664041 325.788 
L 65.397633 325.788 
L 65.397633 323.064561 
L 63.664041 323.064561 
z
" clip-path="url(#p5cf1c40fca)" style="fill: #3182bd; stroke: #000000; stroke-width: 0.5; stroke-linejoin: miter"/>
   </g>
   <g id="patch_18">
    <path d="M 65.397633 325.788 
L 67.131226 325.788 
L 67.131226 322.583954 
L 65.397633 322.583954 
z
" clip-path="url(#p5cf1c40fca)" style="fill: #3182bd; stroke: #000000; stroke-width: 0.5; stroke-linejoin: miter"/>
   </g>
   <g id="patch_19">
    <path d="M 67.131226 325.788 
L 68.864818 325.788 
L 68.864818 321.302336 
L 67.131226 321.302336 
z
" clip-path="url(#p5cf1c40fca)" style="fill: #3182bd; stroke: #000000; stroke-width: 0.5; stroke-linejoin: miter"/>
   </g>
   <g id="patch_20">
    <path d="M 68.864818 325.788 
L 70.59841 325.788 
L 70.59841 323.384966 
L 68.864818 323.384966 
z
" clip-path="url(#p5cf1c40fca)" style="fill: #9ecae1; stroke: #000000; stroke-width: 0.5; stroke-linejoin: miter"/>
   </g>
   <g id="patch_21">
    <path d="M 70.59841 325.788 
L 72.332002 325.788 
L 72.332002 319.860516 
L 70.59841 319.860516 
z
" clip-path="url(#p5cf1c40fca)" style="fill: #9ecae1; stroke: #000000; stroke-width: 0.5; stroke-linejoin: miter"/>
   </g>
   <g id="patch_22">
    <path d="M 72.332002 325.788 
L 74.065595 325.788 
L 74.065595 321.142134 
L 72.332002 321.142134 
z
" clip-path="url(#p5cf1c40fca)" style="fill: #3182bd; stroke: #000000; stroke-width: 0.5; stroke-linejoin: miter"/>
   </g>
   <g id="patch_23">
    <path d="M 74.065595 325.788 
L 75.799187 325.788 
L 75.799187 320.501325 
L 74.065595 320.501325 
z
" clip-path="url(#p5cf1c40fca)" style="fill: #3182bd; stroke: #000000; stroke-width: 0.5; stroke-linejoin: miter"/>
   </g>
   <g id="patch_24">
    <path d="M 75.799187 325.788 
L 77.532779 325.788 
L 77.532779 317.137077 
L 75.799187 317.137077 
z
" clip-path="url(#p5cf1c40fca)" style="fill: #3182bd; stroke: #000000; stroke-width: 0.5; stroke-linejoin: miter"/>
   </g>
   <g id="patch_25">
    <path d="M 77.532779 325.788 
L 79.266371 325.788 
L 79.266371 317.617684 
L 77.532779 317.617684 
z
" clip-path="url(#p5cf1c40fca)" style="fill: #3182bd; stroke: #000000; stroke-width: 0.5; stroke-linejoin: miter"/>
   </g>
   <g id="patch_26">
    <path d="M 79.266371 325.788 
L 80.999964 325.788 
L 80.999964 318.7391 
L 79.266371 318.7391 
z
" clip-path="url(#p5cf1c40fca)" style="fill: #3182bd; stroke: #000000; stroke-width: 0.5; stroke-linejoin: miter"/>
   </g>
   <g id="patch_27">
    <path d="M 80.999964 325.788 
L 82.733556 325.788 
L 82.733556 317.777886 
L 80.999964 317.777886 
z
" clip-path="url(#p5cf1c40fca)" style="fill: #9ecae1; stroke: #000000; stroke-width: 0.5; stroke-linejoin: miter"/>
   </g>
   <g id="patch_28">
    <path d="M 82.733556 325.788 
L 84.467148 325.788 
L 84.467148 320.020718 
L 82.733556 320.020718 
z
" clip-path="url(#p5cf1c40fca)" style="fill: #9ecae1; stroke: #000000; stroke-width: 0.5; stroke-linejoin: miter"/>
   </g>
   <g id="patch_29">
    <path d="M 84.467148 325.788 
L 86.20074 325.788 
L 86.20074 317.297279 
L 84.467148 317.297279 
z
" clip-path="url(#p5cf1c40fca)" style="fill: #3182bd; stroke: #000000; stroke-width: 0.5; stroke-linejoin: miter"/>
   </g>
   <g id="patch_30">
    <path d="M 86.20074 325.788 
L 87.934333 325.788 
L 87.934333 314.413638 
L 86.20074 314.413638 
z
" clip-path="url(#p5cf1c40fca)" style="fill: #3182bd; stroke: #000000; stroke-width: 0.5; stroke-linejoin: miter"/>
   </g>
   <g id="patch_31">
    <path d="M 87.934333 325.788 
L 89.667925 325.788 
L 89.667925 312.170807 
L 87.934333 312.170807 
z
" clip-path="url(#p5cf1c40fca)" style="fill: #3182bd; stroke: #000000; stroke-width: 0.5; stroke-linejoin: miter"/>
   </g>
   <g id="patch_32">
    <path d="M 89.667925 325.788 
L 91.401517 325.788 
L 91.401517 320.661527 
L 89.667925 320.661527 
z
" clip-path="url(#p5cf1c40fca)" style="fill: #3182bd; stroke: #000000; stroke-width: 0.5; stroke-linejoin: miter"/>
   </g>
   <g id="patch_33">
    <path d="M 91.401517 325.788 
L 93.135109 325.788 
L 93.135109 310.568784 
L 91.401517 310.568784 
z
" clip-path="url(#p5cf1c40fca)" style="fill: #3182bd; stroke: #000000; stroke-width: 0.5; stroke-linejoin: miter"/>
   </g>
   <g id="patch_34">
    <path d="M 93.135109 325.788 
L 94.868701 325.788 
L 94.868701 304.961704 
L 93.135109 304.961704 
z
" clip-path="url(#p5cf1c40fca)" style="fill: #9ecae1; stroke: #000000; stroke-width: 0.5; stroke-linejoin: miter"/>
   </g>
   <g id="patch_35">
    <path d="M 94.868701 325.788 
L 96.602294 325.788 
L 96.602294 308.646357 
L 94.868701 308.646357 
z
" clip-path="url(#p5cf1c40fca)" style="fill: #9ecae1; stroke: #000000; stroke-width: 0.5; stroke-linejoin: miter"/>
   </g>
   <g id="patch_36">
    <path d="M 96.602294 325.788 
L 98.335886 325.788 
L 98.335886 303.680086 
L 96.602294 303.680086 
z
" clip-path="url(#p5cf1c40fca)" style="fill: #3182bd; stroke: #000000; stroke-width: 0.5; stroke-linejoin: miter"/>
   </g>
   <g id="patch_37">
    <path d="M 98.335886 325.788 
L 100.069478 325.788 
L 100.069478 293.106736 
L 98.335886 293.106736 
z
" clip-path="url(#p5cf1c40fca)" style="fill: #3182bd; stroke: #000000; stroke-width: 0.5; stroke-linejoin: miter"/>
   </g>
   <g id="patch_38">
    <path d="M 100.069478 325.788 
L 101.80307 325.788 
L 101.80307 291.344511 
L 100.069478 291.344511 
z
" clip-path="url(#p5cf1c40fca)" style="fill: #3182bd; stroke: #000000; stroke-width: 0.5; stroke-linejoin: miter"/>
   </g>
   <g id="patch_39">
    <path d="M 101.80307 325.788 
L 103.536663 325.788 
L 103.536663 290.703702 
L 101.80307 290.703702 
z
" clip-path="url(#p5cf1c40fca)" style="fill: #3182bd; stroke: #000000; stroke-width: 0.5; stroke-linejoin: miter"/>
   </g>
   <g id="patch_40">
    <path d="M 103.536663 325.788 
L 105.270255 325.788 
L 105.270255 286.858847 
L 103.536663 286.858847 
z
" clip-path="url(#p5cf1c40fca)" style="fill: #3182bd; stroke: #000000; stroke-width: 0.5; stroke-linejoin: miter"/>
   </g>
   <g id="patch_41">
    <path d="M 105.270255 325.788 
L 107.003847 325.788 
L 107.003847 279.489542 
L 105.270255 279.489542 
z
" clip-path="url(#p5cf1c40fca)" style="fill: #9ecae1; stroke: #000000; stroke-width: 0.5; stroke-linejoin: miter"/>
   </g>
   <g id="patch_42">
    <path d="M 107.003847 325.788 
L 108.737439 325.788 
L 108.737439 278.207924 
L 107.003847 278.207924 
z
" clip-path="url(#p5cf1c40fca)" style="fill: #9ecae1; stroke: #000000; stroke-width: 0.5; stroke-linejoin: miter"/>
   </g>
   <g id="patch_43">
    <path d="M 108.737439 325.788 
L 110.471032 325.788 
L 110.471032 290.062893 
L 108.737439 290.062893 
z
" clip-path="url(#p5cf1c40fca)" style="fill: #3182bd; stroke: #000000; stroke-width: 0.5; stroke-linejoin: miter"/>
   </g>
   <g id="patch_44">
    <path d="M 110.471032 325.788 
L 112.204624 325.788 
L 112.204624 257.061224 
L 110.471032 257.061224 
z
" clip-path="url(#p5cf1c40fca)" style="fill: #3182bd; stroke: #000000; stroke-width: 0.5; stroke-linejoin: miter"/>
   </g>
   <g id="patch_45">
    <path d="M 112.204624 325.788 
L 113.938216 325.788 
L 113.938216 265.551944 
L 112.204624 265.551944 
z
" clip-path="url(#p5cf1c40fca)" style="fill: #3182bd; stroke: #000000; stroke-width: 0.5; stroke-linejoin: miter"/>
   </g>
   <g id="patch_46">
    <path d="M 113.938216 325.788 
L 115.671808 325.788 
L 115.671808 260.585674 
L 113.938216 260.585674 
z
" clip-path="url(#p5cf1c40fca)" style="fill: #3182bd; stroke: #000000; stroke-width: 0.5; stroke-linejoin: miter"/>
   </g>
   <g id="patch_47">
    <path d="M 115.671808 325.788 
L 117.4054 325.788 
L 117.4054 261.546887 
L 115.671808 261.546887 
z
" clip-path="url(#p5cf1c40fca)" style="fill: #3182bd; stroke: #000000; stroke-width: 0.5; stroke-linejoin: miter"/>
   </g>
   <g id="patch_48">
    <path d="M 117.4054 325.788 
L 119.138993 325.788 
L 119.138993 266.513158 
L 117.4054 266.513158 
z
" clip-path="url(#p5cf1c40fca)" style="fill: #9ecae1; stroke: #000000; stroke-width: 0.5; stroke-linejoin: miter"/>
   </g>
   <g id="patch_49">
    <path d="M 119.138993 325.788 
L 120.872585 325.788 
L 120.872585 259.464258 
L 119.138993 259.464258 
z
" clip-path="url(#p5cf1c40fca)" style="fill: #9ecae1; stroke: #000000; stroke-width: 0.5; stroke-linejoin: miter"/>
   </g>
   <g id="patch_50">
    <path d="M 120.872585 325.788 
L 122.606177 325.788 
L 122.606177 280.290554 
L 120.872585 280.290554 
z
" clip-path="url(#p5cf1c40fca)" style="fill: #3182bd; stroke: #000000; stroke-width: 0.5; stroke-linejoin: miter"/>
   </g>
   <g id="patch_51">
    <path d="M 122.606177 325.788 
L 124.339769 325.788 
L 124.339769 263.789719 
L 122.606177 263.789719 
z
" clip-path="url(#p5cf1c40fca)" style="fill: #3182bd; stroke: #000000; stroke-width: 0.5; stroke-linejoin: miter"/>
   </g>
   <g id="patch_52">
    <path d="M 124.339769 325.788 
L 126.073362 325.788 
L 126.073362 235.433917 
L 124.339769 235.433917 
z
" clip-path="url(#p5cf1c40fca)" style="fill: #3182bd; stroke: #000000; stroke-width: 0.5; stroke-linejoin: miter"/>
   </g>
   <g id="patch_53">
    <path d="M 126.073362 325.788 
L 127.806954 325.788 
L 127.806954 233.992096 
L 126.073362 233.992096 
z
" clip-path="url(#p5cf1c40fca)" style="fill: #3182bd; stroke: #000000; stroke-width: 0.5; stroke-linejoin: miter"/>
   </g>
   <g id="patch_54">
    <path d="M 127.806954 325.788 
L 129.540546 325.788 
L 129.540546 250.172526 
L 127.806954 250.172526 
z
" clip-path="url(#p5cf1c40fca)" style="fill: #3182bd; stroke: #000000; stroke-width: 0.5; stroke-linejoin: miter"/>
   </g>
   <g id="patch_55">
    <path d="M 129.540546 325.788 
L 131.274138 325.788 
L 131.274138 242.162412 
L 129.540546 242.162412 
z
" clip-path="url(#p5cf1c40fca)" style="fill: #9ecae1; stroke: #000000; stroke-width: 0.5; stroke-linejoin: miter"/>
   </g>
   <g id="patch_56">
    <path d="M 131.274138 325.788 
L 133.007731 325.788 
L 133.007731 243.123626 
L 131.274138 243.123626 
z
" clip-path="url(#p5cf1c40fca)" style="fill: #9ecae1; stroke: #000000; stroke-width: 0.5; stroke-linejoin: miter"/>
   </g>
   <g id="patch_57">
    <path d="M 133.007731 325.788 
L 134.741323 325.788 
L 134.741323 264.430528 
L 133.007731 264.430528 
z
" clip-path="url(#p5cf1c40fca)" style="fill: #3182bd; stroke: #000000; stroke-width: 0.5; stroke-linejoin: miter"/>
   </g>
   <g id="patch_58">
    <path d="M 134.741323 325.788 
L 136.474915 325.788 
L 136.474915 231.749264 
L 134.741323 231.749264 
z
" clip-path="url(#p5cf1c40fca)" style="fill: #3182bd; stroke: #000000; stroke-width: 0.5; stroke-linejoin: miter"/>
   </g>
   <g id="patch_59">
    <path d="M 136.474915 325.788 
L 138.208507 325.788 
L 138.208507 214.287216 
L 136.474915 214.287216 
z
" clip-path="url(#p5cf1c40fca)" style="fill: #3182bd; stroke: #000000; stroke-width: 0.5; stroke-linejoin: miter"/>
   </g>
   <g id="patch_60">
    <path d="M 138.208507 325.788 
L 139.9421 325.788 
L 139.9421 224.540162 
L 138.208507 224.540162 
z
" clip-path="url(#p5cf1c40fca)" style="fill: #3182bd; stroke: #000000; stroke-width: 0.5; stroke-linejoin: miter"/>
   </g>
   <g id="patch_61">
    <path d="M 139.9421 325.788 
L 141.675692 325.788 
L 141.675692 234.152298 
L 139.9421 234.152298 
z
" clip-path="url(#p5cf1c40fca)" style="fill: #3182bd; stroke: #000000; stroke-width: 0.5; stroke-linejoin: miter"/>
   </g>
   <g id="patch_62">
    <path d="M 141.675692 325.788 
L 143.409284 325.788 
L 143.409284 214.607621 
L 141.675692 214.607621 
z
" clip-path="url(#p5cf1c40fca)" style="fill: #9ecae1; stroke: #000000; stroke-width: 0.5; stroke-linejoin: miter"/>
   </g>
   <g id="patch_63">
    <path d="M 143.409284 325.788 
L 145.142876 325.788 
L 145.142876 222.777937 
L 143.409284 222.777937 
z
" clip-path="url(#p5cf1c40fca)" style="fill: #9ecae1; stroke: #000000; stroke-width: 0.5; stroke-linejoin: miter"/>
   </g>
   <g id="patch_64">
    <path d="M 145.142876 325.788 
L 146.876468 325.788 
L 146.876468 257.061224 
L 145.142876 257.061224 
z
" clip-path="url(#p5cf1c40fca)" style="fill: #3182bd; stroke: #000000; stroke-width: 0.5; stroke-linejoin: miter"/>
   </g>
   <g id="patch_65">
    <path d="M 146.876468 325.788 
L 148.610061 325.788 
L 148.610061 217.971869 
L 146.876468 217.971869 
z
" clip-path="url(#p5cf1c40fca)" style="fill: #3182bd; stroke: #000000; stroke-width: 0.5; stroke-linejoin: miter"/>
   </g>
   <g id="patch_66">
    <path d="M 148.610061 325.788 
L 150.343653 325.788 
L 150.343653 189.455863 
L 148.610061 189.455863 
z
" clip-path="url(#p5cf1c40fca)" style="fill: #3182bd; stroke: #000000; stroke-width: 0.5; stroke-linejoin: miter"/>
   </g>
   <g id="patch_67">
    <path d="M 150.343653 325.788 
L 152.077245 325.788 
L 152.077245 195.383348 
L 150.343653 195.383348 
z
" clip-path="url(#p5cf1c40fca)" style="fill: #3182bd; stroke: #000000; stroke-width: 0.5; stroke-linejoin: miter"/>
   </g>
   <g id="patch_68">
    <path d="M 152.077245 325.788 
L 153.810837 325.788 
L 153.810837 200.670023 
L 152.077245 200.670023 
z
" clip-path="url(#p5cf1c40fca)" style="fill: #3182bd; stroke: #000000; stroke-width: 0.5; stroke-linejoin: miter"/>
   </g>
   <g id="patch_69">
    <path d="M 153.810837 325.788 
L 155.54443 325.788 
L 155.54443 200.029214 
L 153.810837 200.029214 
z
" clip-path="url(#p5cf1c40fca)" style="fill: #9ecae1; stroke: #000000; stroke-width: 0.5; stroke-linejoin: miter"/>
   </g>
   <g id="patch_70">
    <path d="M 155.54443 325.788 
L 157.278022 325.788 
L 157.278022 197.946584 
L 155.54443 197.946584 
z
" clip-path="url(#p5cf1c40fca)" style="fill: #9ecae1; stroke: #000000; stroke-width: 0.5; stroke-linejoin: miter"/>
   </g>
   <g id="patch_71">
    <path d="M 157.278022 325.788 
L 159.011614 325.788 
L 159.011614 218.933082 
L 157.278022 218.933082 
z
" clip-path="url(#p5cf1c40fca)" style="fill: #3182bd; stroke: #000000; stroke-width: 0.5; stroke-linejoin: miter"/>
   </g>
   <g id="patch_72">
    <path d="M 159.011614 325.788 
L 160.745206 325.788 
L 160.745206 184.489593 
L 159.011614 184.489593 
z
" clip-path="url(#p5cf1c40fca)" style="fill: #3182bd; stroke: #000000; stroke-width: 0.5; stroke-linejoin: miter"/>
   </g>
   <g id="patch_73">
    <path d="M 160.745206 325.788 
L 162.478799 325.788 
L 162.478799 164.304106 
L 160.745206 164.304106 
z
" clip-path="url(#p5cf1c40fca)" style="fill: #3182bd; stroke: #000000; stroke-width: 0.5; stroke-linejoin: miter"/>
   </g>
   <g id="patch_74">
    <path d="M 162.478799 325.788 
L 164.212391 325.788 
L 164.212391 185.130402 
L 162.478799 185.130402 
z
" clip-path="url(#p5cf1c40fca)" style="fill: #3182bd; stroke: #000000; stroke-width: 0.5; stroke-linejoin: miter"/>
   </g>
   <g id="patch_75">
    <path d="M 164.212391 325.788 
L 165.945983 325.788 
L 165.945983 225.180971 
L 164.212391 225.180971 
z
" clip-path="url(#p5cf1c40fca)" style="fill: #3182bd; stroke: #000000; stroke-width: 0.5; stroke-linejoin: miter"/>
   </g>
   <g id="patch_76">
    <path d="M 165.945983 325.788 
L 167.679575 325.788 
L 167.679575 195.062943 
L 165.945983 195.062943 
z
" clip-path="url(#p5cf1c40fca)" style="fill: #9ecae1; stroke: #000000; stroke-width: 0.5; stroke-linejoin: miter"/>
   </g>
   <g id="patch_77">
    <path d="M 167.679575 325.788 
L 169.413167 325.788 
L 169.413167 209.000541 
L 167.679575 209.000541 
z
" clip-path="url(#p5cf1c40fca)" style="fill: #9ecae1; stroke: #000000; stroke-width: 0.5; stroke-linejoin: miter"/>
   </g>
   <g id="patch_78">
    <path d="M 169.413167 325.788 
L 171.14676 325.788 
L 171.14676 208.359732 
L 169.413167 208.359732 
z
" clip-path="url(#p5cf1c40fca)" style="fill: #3182bd; stroke: #000000; stroke-width: 0.5; stroke-linejoin: miter"/>
   </g>
   <g id="patch_79">
    <path d="M 171.14676 325.788 
L 172.880352 325.788 
L 172.880352 194.261932 
L 171.14676 194.261932 
z
" clip-path="url(#p5cf1c40fca)" style="fill: #3182bd; stroke: #000000; stroke-width: 0.5; stroke-linejoin: miter"/>
   </g>
   <g id="patch_80">
    <path d="M 172.880352 325.788 
L 174.613944 325.788 
L 174.613944 151.487924 
L 172.880352 151.487924 
z
" clip-path="url(#p5cf1c40fca)" style="fill: #3182bd; stroke: #000000; stroke-width: 0.5; stroke-linejoin: miter"/>
   </g>
   <g id="patch_81">
    <path d="M 174.613944 325.788 
L 176.347536 325.788 
L 176.347536 161.100061 
L 174.613944 161.100061 
z
" clip-path="url(#p5cf1c40fca)" style="fill: #3182bd; stroke: #000000; stroke-width: 0.5; stroke-linejoin: miter"/>
   </g>
   <g id="patch_82">
    <path d="M 176.347536 325.788 
L 178.081129 325.788 
L 178.081129 146.201249 
L 176.347536 146.201249 
z
" clip-path="url(#p5cf1c40fca)" style="fill: #3182bd; stroke: #000000; stroke-width: 0.5; stroke-linejoin: miter"/>
   </g>
   <g id="patch_83">
    <path d="M 178.081129 325.788 
L 179.814721 325.788 
L 179.814721 133.385067 
L 178.081129 133.385067 
z
" clip-path="url(#p5cf1c40fca)" style="fill: #9ecae1; stroke: #000000; stroke-width: 0.5; stroke-linejoin: miter"/>
   </g>
   <g id="patch_84">
    <path d="M 179.814721 325.788 
L 181.548313 325.788 
L 181.548313 165.425522 
L 179.814721 165.425522 
z
" clip-path="url(#p5cf1c40fca)" style="fill: #9ecae1; stroke: #000000; stroke-width: 0.5; stroke-linejoin: miter"/>
   </g>
   <g id="patch_85">
    <path d="M 181.548313 325.788 
L 183.281905 325.788 
L 183.281905 196.504764 
L 181.548313 196.504764 
z
" clip-path="url(#p5cf1c40fca)" style="fill: #3182bd; stroke: #000000; stroke-width: 0.5; stroke-linejoin: miter"/>
   </g>
   <g id="patch_86">
    <path d="M 183.281905 325.788 
L 185.015498 325.788 
L 185.015498 151.648126 
L 183.281905 151.648126 
z
" clip-path="url(#p5cf1c40fca)" style="fill: #3182bd; stroke: #000000; stroke-width: 0.5; stroke-linejoin: miter"/>
   </g>
   <g id="patch_87">
    <path d="M 185.015498 325.788 
L 186.74909 325.788 
L 186.74909 152.449138 
L 185.015498 152.449138 
z
" clip-path="url(#p5cf1c40fca)" style="fill: #3182bd; stroke: #000000; stroke-width: 0.5; stroke-linejoin: miter"/>
   </g>
   <g id="patch_88">
    <path d="M 186.74909 325.788 
L 188.482682 325.788 
L 188.482682 172.955029 
L 186.74909 172.955029 
z
" clip-path="url(#p5cf1c40fca)" style="fill: #3182bd; stroke: #000000; stroke-width: 0.5; stroke-linejoin: miter"/>
   </g>
   <g id="patch_89">
    <path d="M 188.482682 325.788 
L 190.216274 325.788 
L 190.216274 190.417077 
L 188.482682 190.417077 
z
" clip-path="url(#p5cf1c40fca)" style="fill: #3182bd; stroke: #000000; stroke-width: 0.5; stroke-linejoin: miter"/>
   </g>
   <g id="patch_90">
    <path d="M 190.216274 325.788 
L 191.949867 325.788 
L 191.949867 217.170857 
L 190.216274 217.170857 
z
" clip-path="url(#p5cf1c40fca)" style="fill: #9ecae1; stroke: #000000; stroke-width: 0.5; stroke-linejoin: miter"/>
   </g>
   <g id="patch_91">
    <path d="M 191.949867 325.788 
L 193.683459 325.788 
L 193.683459 224.860566 
L 191.949867 224.860566 
z
" clip-path="url(#p5cf1c40fca)" style="fill: #9ecae1; stroke: #000000; stroke-width: 0.5; stroke-linejoin: miter"/>
   </g>
   <g id="patch_92">
    <path d="M 193.683459 325.788 
L 195.417051 325.788 
L 195.417051 253.536774 
L 193.683459 253.536774 
z
" clip-path="url(#p5cf1c40fca)" style="fill: #3182bd; stroke: #000000; stroke-width: 0.5; stroke-linejoin: miter"/>
   </g>
   <g id="patch_93">
    <path d="M 195.417051 325.788 
L 197.150643 325.788 
L 197.150643 217.331059 
L 195.417051 217.331059 
z
" clip-path="url(#p5cf1c40fca)" style="fill: #3182bd; stroke: #000000; stroke-width: 0.5; stroke-linejoin: miter"/>
   </g>
   <g id="patch_94">
    <path d="M 197.150643 325.788 
L 198.884235 325.788 
L 198.884235 222.137128 
L 197.150643 222.137128 
z
" clip-path="url(#p5cf1c40fca)" style="fill: #3182bd; stroke: #000000; stroke-width: 0.5; stroke-linejoin: miter"/>
   </g>
   <g id="patch_95">
    <path d="M 198.884235 325.788 
L 200.617828 325.788 
L 200.617828 237.516546 
L 198.884235 237.516546 
z
" clip-path="url(#p5cf1c40fca)" style="fill: #3182bd; stroke: #000000; stroke-width: 0.5; stroke-linejoin: miter"/>
   </g>
   <g id="patch_96">
    <path d="M 200.617828 325.788 
L 202.35142 325.788 
L 202.35142 249.852121 
L 200.617828 249.852121 
z
" clip-path="url(#p5cf1c40fca)" style="fill: #3182bd; stroke: #000000; stroke-width: 0.5; stroke-linejoin: miter"/>
   </g>
   <g id="patch_97">
    <path d="M 202.35142 325.788 
L 204.085012 325.788 
L 204.085012 258.022437 
L 202.35142 258.022437 
z
" clip-path="url(#p5cf1c40fca)" style="fill: #9ecae1; stroke: #000000; stroke-width: 0.5; stroke-linejoin: miter"/>
   </g>
   <g id="patch_98">
    <path d="M 204.085012 325.788 
L 205.818604 325.788 
L 205.818604 275.80489 
L 204.085012 275.80489 
z
" clip-path="url(#p5cf1c40fca)" style="fill: #9ecae1; stroke: #000000; stroke-width: 0.5; stroke-linejoin: miter"/>
   </g>
   <g id="patch_99">
    <path d="M 205.818604 325.788 
L 207.552197 325.788 
L 207.552197 286.538442 
L 205.818604 286.538442 
z
" clip-path="url(#p5cf1c40fca)" style="fill: #3182bd; stroke: #000000; stroke-width: 0.5; stroke-linejoin: miter"/>
   </g>
   <g id="patch_100">
    <path d="M 207.552197 325.788 
L 209.285789 325.788 
L 209.285789 234.793107 
L 207.552197 234.793107 
z
" clip-path="url(#p5cf1c40fca)" style="fill: #3182bd; stroke: #000000; stroke-width: 0.5; stroke-linejoin: miter"/>
   </g>
   <g id="patch_101">
    <path d="M 209.285789 325.788 
L 211.019381 325.788 
L 211.019381 251.614346 
L 209.285789 251.614346 
z
" clip-path="url(#p5cf1c40fca)" style="fill: #3182bd; stroke: #000000; stroke-width: 0.5; stroke-linejoin: miter"/>
   </g>
   <g id="patch_102">
    <path d="M 211.019381 325.788 
L 212.752973 325.788 
L 212.752973 264.270326 
L 211.019381 264.270326 
z
" clip-path="url(#p5cf1c40fca)" style="fill: #3182bd; stroke: #000000; stroke-width: 0.5; stroke-linejoin: miter"/>
   </g>
   <g id="patch_103">
    <path d="M 212.752973 325.788 
L 214.486566 325.788 
L 214.486566 264.590731 
L 212.752973 264.590731 
z
" clip-path="url(#p5cf1c40fca)" style="fill: #3182bd; stroke: #000000; stroke-width: 0.5; stroke-linejoin: miter"/>
   </g>
   <g id="patch_104">
    <path d="M 214.486566 325.788 
L 216.220158 325.788 
L 216.220158 277.24671 
L 214.486566 277.24671 
z
" clip-path="url(#p5cf1c40fca)" style="fill: #9ecae1; stroke: #000000; stroke-width: 0.5; stroke-linejoin: miter"/>
   </g>
   <g id="patch_105">
    <path d="M 216.220158 325.788 
L 217.95375 325.788 
L 217.95375 282.533386 
L 216.220158 282.533386 
z
" clip-path="url(#p5cf1c40fca)" style="fill: #9ecae1; stroke: #000000; stroke-width: 0.5; stroke-linejoin: miter"/>
   </g>
   <g id="patch_106">
    <path d="M 217.95375 325.788 
L 219.687342 325.788 
L 219.687342 294.388354 
L 217.95375 294.388354 
z
" clip-path="url(#p5cf1c40fca)" style="fill: #3182bd; stroke: #000000; stroke-width: 0.5; stroke-linejoin: miter"/>
   </g>
   <g id="patch_107">
    <path d="M 219.687342 325.788 
L 221.420934 325.788 
L 221.420934 264.911135 
L 219.687342 264.911135 
z
" clip-path="url(#p5cf1c40fca)" style="fill: #3182bd; stroke: #000000; stroke-width: 0.5; stroke-linejoin: miter"/>
   </g>
   <g id="patch_108">
    <path d="M 221.420934 325.788 
L 223.154527 325.788 
L 223.154527 282.052779 
L 221.420934 282.052779 
z
" clip-path="url(#p5cf1c40fca)" style="fill: #3182bd; stroke: #000000; stroke-width: 0.5; stroke-linejoin: miter"/>
   </g>
   <g id="patch_109">
    <path d="M 223.154527 325.788 
L 224.888119 325.788 
L 224.888119 277.086508 
L 223.154527 277.086508 
z
" clip-path="url(#p5cf1c40fca)" style="fill: #3182bd; stroke: #000000; stroke-width: 0.5; stroke-linejoin: miter"/>
   </g>
   <g id="patch_110">
    <path d="M 224.888119 325.788 
L 226.621711 325.788 
L 226.621711 283.815004 
L 224.888119 283.815004 
z
" clip-path="url(#p5cf1c40fca)" style="fill: #3182bd; stroke: #000000; stroke-width: 0.5; stroke-linejoin: miter"/>
   </g>
   <g id="patch_111">
    <path d="M 226.621711 325.788 
L 228.355303 325.788 
L 228.355303 288.140465 
L 226.621711 288.140465 
z
" clip-path="url(#p5cf1c40fca)" style="fill: #9ecae1; stroke: #000000; stroke-width: 0.5; stroke-linejoin: miter"/>
   </g>
   <g id="patch_112">
    <path d="M 228.355303 325.788 
L 230.088896 325.788 
L 230.088896 292.626129 
L 228.355303 292.626129 
z
" clip-path="url(#p5cf1c40fca)" style="fill: #9ecae1; stroke: #000000; stroke-width: 0.5; stroke-linejoin: miter"/>
   </g>
   <g id="patch_113">
    <path d="M 230.088896 325.788 
L 231.822488 325.788 
L 231.822488 302.718872 
L 230.088896 302.718872 
z
" clip-path="url(#p5cf1c40fca)" style="fill: #3182bd; stroke: #000000; stroke-width: 0.5; stroke-linejoin: miter"/>
   </g>
   <g id="patch_114">
    <path d="M 231.822488 325.788 
L 233.55608 325.788 
L 233.55608 299.995434 
L 231.822488 299.995434 
z
" clip-path="url(#p5cf1c40fca)" style="fill: #3182bd; stroke: #000000; stroke-width: 0.5; stroke-linejoin: miter"/>
   </g>
   <g id="patch_115">
    <path d="M 233.55608 325.788 
L 235.289672 325.788 
L 235.289672 267.474372 
L 233.55608 267.474372 
z
" clip-path="url(#p5cf1c40fca)" style="fill: #3182bd; stroke: #000000; stroke-width: 0.5; stroke-linejoin: miter"/>
   </g>
   <g id="patch_116">
    <path d="M 235.289672 325.788 
L 237.023265 325.788 
L 237.023265 285.577229 
L 235.289672 285.577229 
z
" clip-path="url(#p5cf1c40fca)" style="fill: #3182bd; stroke: #000000; stroke-width: 0.5; stroke-linejoin: miter"/>
   </g>
   <g id="patch_117">
    <path d="M 237.023265 325.788 
L 238.756857 325.788 
L 238.756857 284.616015 
L 237.023265 284.616015 
z
" clip-path="url(#p5cf1c40fca)" style="fill: #3182bd; stroke: #000000; stroke-width: 0.5; stroke-linejoin: miter"/>
   </g>
   <g id="patch_118">
    <path d="M 238.756857 325.788 
L 240.490449 325.788 
L 240.490449 304.801502 
L 238.756857 304.801502 
z
" clip-path="url(#p5cf1c40fca)" style="fill: #9ecae1; stroke: #000000; stroke-width: 0.5; stroke-linejoin: miter"/>
   </g>
   <g id="patch_119">
    <path d="M 240.490449 325.788 
L 242.224041 325.788 
L 242.224041 286.538442 
L 240.490449 286.538442 
z
" clip-path="url(#p5cf1c40fca)" style="fill: #9ecae1; stroke: #000000; stroke-width: 0.5; stroke-linejoin: miter"/>
   </g>
   <g id="patch_120">
    <path d="M 242.224041 325.788 
L 243.957633 325.788 
L 243.957633 293.266938 
L 242.224041 293.266938 
z
" clip-path="url(#p5cf1c40fca)" style="fill: #3182bd; stroke: #000000; stroke-width: 0.5; stroke-linejoin: miter"/>
   </g>
   <g id="patch_121">
    <path d="M 243.957633 325.788 
L 245.691226 325.788 
L 245.691226 293.266938 
L 243.957633 293.266938 
z
" clip-path="url(#p5cf1c40fca)" style="fill: #3182bd; stroke: #000000; stroke-width: 0.5; stroke-linejoin: miter"/>
   </g>
   <g id="patch_122">
    <path d="M 245.691226 325.788 
L 247.424818 325.788 
L 247.424818 281.572172 
L 245.691226 281.572172 
z
" clip-path="url(#p5cf1c40fca)" style="fill: #3182bd; stroke: #000000; stroke-width: 0.5; stroke-linejoin: miter"/>
   </g>
   <g id="patch_123">
    <path d="M 247.424818 325.788 
L 249.15841 325.788 
L 249.15841 291.664915 
L 247.424818 291.664915 
z
" clip-path="url(#p5cf1c40fca)" style="fill: #3182bd; stroke: #000000; stroke-width: 0.5; stroke-linejoin: miter"/>
   </g>
   <g id="patch_124">
    <path d="M 249.15841 325.788 
L 250.892002 325.788 
L 250.892002 298.073006 
L 249.15841 298.073006 
z
" clip-path="url(#p5cf1c40fca)" style="fill: #3182bd; stroke: #000000; stroke-width: 0.5; stroke-linejoin: miter"/>
   </g>
   <g id="patch_125">
    <path d="M 250.892002 325.788 
L 252.625595 325.788 
L 252.625595 302.398468 
L 250.892002 302.398468 
z
" clip-path="url(#p5cf1c40fca)" style="fill: #9ecae1; stroke: #000000; stroke-width: 0.5; stroke-linejoin: miter"/>
   </g>
   <g id="patch_126">
    <path d="M 252.625595 325.788 
L 254.359187 325.788 
L 254.359187 290.062893 
L 252.625595 290.062893 
z
" clip-path="url(#p5cf1c40fca)" style="fill: #9ecae1; stroke: #000000; stroke-width: 0.5; stroke-linejoin: miter"/>
   </g>
   <g id="patch_127">
    <path d="M 254.359187 325.788 
L 256.092779 325.788 
L 256.092779 316.496268 
L 254.359187 316.496268 
z
" clip-path="url(#p5cf1c40fca)" style="fill: #3182bd; stroke: #000000; stroke-width: 0.5; stroke-linejoin: miter"/>
   </g>
   <g id="patch_128">
    <path d="M 256.092779 325.788 
L 257.826371 325.788 
L 257.826371 285.897633 
L 256.092779 285.897633 
z
" clip-path="url(#p5cf1c40fca)" style="fill: #3182bd; stroke: #000000; stroke-width: 0.5; stroke-linejoin: miter"/>
   </g>
   <g id="patch_129">
    <path d="M 257.826371 325.788 
L 259.559964 325.788 
L 259.559964 289.90269 
L 257.826371 289.90269 
z
" clip-path="url(#p5cf1c40fca)" style="fill: #3182bd; stroke: #000000; stroke-width: 0.5; stroke-linejoin: miter"/>
   </g>
   <g id="patch_130">
    <path d="M 259.559964 325.788 
L 261.293556 325.788 
L 261.293556 299.03422 
L 259.559964 299.03422 
z
" clip-path="url(#p5cf1c40fca)" style="fill: #3182bd; stroke: #000000; stroke-width: 0.5; stroke-linejoin: miter"/>
   </g>
   <g id="patch_131">
    <path d="M 261.293556 325.788 
L 263.027148 325.788 
L 263.027148 297.271995 
L 261.293556 297.271995 
z
" clip-path="url(#p5cf1c40fca)" style="fill: #3182bd; stroke: #000000; stroke-width: 0.5; stroke-linejoin: miter"/>
   </g>
   <g id="patch_132">
    <path d="M 263.027148 325.788 
L 264.76074 325.788 
L 264.76074 303.519884 
L 263.027148 303.519884 
z
" clip-path="url(#p5cf1c40fca)" style="fill: #9ecae1; stroke: #000000; stroke-width: 0.5; stroke-linejoin: miter"/>
   </g>
   <g id="patch_133">
    <path d="M 264.76074 325.788 
L 266.494333 325.788 
L 266.494333 300.155636 
L 264.76074 300.155636 
z
" clip-path="url(#p5cf1c40fca)" style="fill: #9ecae1; stroke: #000000; stroke-width: 0.5; stroke-linejoin: miter"/>
   </g>
   <g id="patch_134">
    <path d="M 266.494333 325.788 
L 268.227925 325.788 
L 268.227925 315.535054 
L 266.494333 315.535054 
z
" clip-path="url(#p5cf1c40fca)" style="fill: #3182bd; stroke: #000000; stroke-width: 0.5; stroke-linejoin: miter"/>
   </g>
   <g id="patch_135">
    <path d="M 268.227925 325.788 
L 269.961517 325.788 
L 269.961517 310.568784 
L 268.227925 310.568784 
z
" clip-path="url(#p5cf1c40fca)" style="fill: #3182bd; stroke: #000000; stroke-width: 0.5; stroke-linejoin: miter"/>
   </g>
   <g id="patch_136">
    <path d="M 269.961517 325.788 
L 271.695109 325.788 
L 271.695109 283.494599 
L 269.961517 283.494599 
z
" clip-path="url(#p5cf1c40fca)" style="fill: #3182bd; stroke: #000000; stroke-width: 0.5; stroke-linejoin: miter"/>
   </g>
   <g id="patch_137">
    <path d="M 271.695109 325.788 
L 273.428701 325.788 
L 273.428701 287.980263 
L 271.695109 287.980263 
z
" clip-path="url(#p5cf1c40fca)" style="fill: #3182bd; stroke: #000000; stroke-width: 0.5; stroke-linejoin: miter"/>
   </g>
   <g id="patch_138">
    <path d="M 273.428701 325.788 
L 275.162294 325.788 
L 275.162294 297.271995 
L 273.428701 297.271995 
z
" clip-path="url(#p5cf1c40fca)" style="fill: #3182bd; stroke: #000000; stroke-width: 0.5; stroke-linejoin: miter"/>
   </g>
   <g id="patch_139">
    <path d="M 275.162294 325.788 
L 276.895886 325.788 
L 276.895886 299.514827 
L 275.162294 299.514827 
z
" clip-path="url(#p5cf1c40fca)" style="fill: #9ecae1; stroke: #000000; stroke-width: 0.5; stroke-linejoin: miter"/>
   </g>
   <g id="patch_140">
    <path d="M 276.895886 325.788 
L 278.629478 325.788 
L 278.629478 293.907747 
L 276.895886 293.907747 
z
" clip-path="url(#p5cf1c40fca)" style="fill: #9ecae1; stroke: #000000; stroke-width: 0.5; stroke-linejoin: miter"/>
   </g>
   <g id="patch_141">
    <path d="M 278.629478 325.788 
L 280.36307 325.788 
L 280.36307 315.054448 
L 278.629478 315.054448 
z
" clip-path="url(#p5cf1c40fca)" style="fill: #3182bd; stroke: #000000; stroke-width: 0.5; stroke-linejoin: miter"/>
   </g>
   <g id="patch_142">
    <path d="M 280.36307 325.788 
L 282.096663 325.788 
L 282.096663 290.062893 
L 280.36307 290.062893 
z
" clip-path="url(#p5cf1c40fca)" style="fill: #3182bd; stroke: #000000; stroke-width: 0.5; stroke-linejoin: miter"/>
   </g>
   <g id="patch_143">
    <path d="M 282.096663 325.788 
L 283.830255 325.788 
L 283.830255 284.135408 
L 282.096663 284.135408 
z
" clip-path="url(#p5cf1c40fca)" style="fill: #3182bd; stroke: #000000; stroke-width: 0.5; stroke-linejoin: miter"/>
   </g>
   <g id="patch_144">
    <path d="M 283.830255 325.788 
L 285.563847 325.788 
L 285.563847 299.514827 
L 283.830255 299.514827 
z
" clip-path="url(#p5cf1c40fca)" style="fill: #3182bd; stroke: #000000; stroke-width: 0.5; stroke-linejoin: miter"/>
   </g>
   <g id="patch_145">
    <path d="M 285.563847 325.788 
L 287.297439 325.788 
L 287.297439 288.781274 
L 285.563847 288.781274 
z
" clip-path="url(#p5cf1c40fca)" style="fill: #3182bd; stroke: #000000; stroke-width: 0.5; stroke-linejoin: miter"/>
   </g>
   <g id="patch_146">
    <path d="M 287.297439 325.788 
L 289.031032 325.788 
L 289.031032 293.587343 
L 287.297439 293.587343 
z
" clip-path="url(#p5cf1c40fca)" style="fill: #9ecae1; stroke: #000000; stroke-width: 0.5; stroke-linejoin: miter"/>
   </g>
   <g id="patch_147">
    <path d="M 289.031032 325.788 
L 290.764624 325.788 
L 290.764624 297.432197 
L 289.031032 297.432197 
z
" clip-path="url(#p5cf1c40fca)" style="fill: #9ecae1; stroke: #000000; stroke-width: 0.5; stroke-linejoin: miter"/>
   </g>
   <g id="patch_148">
    <path d="M 290.764624 325.788 
L 292.498216 325.788 
L 292.498216 310.088177 
L 290.764624 310.088177 
z
" clip-path="url(#p5cf1c40fca)" style="fill: #3182bd; stroke: #000000; stroke-width: 0.5; stroke-linejoin: miter"/>
   </g>
   <g id="patch_149">
    <path d="M 292.498216 325.788 
L 294.231808 325.788 
L 294.231808 283.174195 
L 292.498216 283.174195 
z
" clip-path="url(#p5cf1c40fca)" style="fill: #3182bd; stroke: #000000; stroke-width: 0.5; stroke-linejoin: miter"/>
   </g>
   <g id="patch_150">
    <path d="M 294.231808 325.788 
L 295.9654 325.788 
L 295.9654 284.93642 
L 294.231808 284.93642 
z
" clip-path="url(#p5cf1c40fca)" style="fill: #3182bd; stroke: #000000; stroke-width: 0.5; stroke-linejoin: miter"/>
   </g>
   <g id="patch_151">
    <path d="M 295.9654 325.788 
L 297.698993 325.788 
L 297.698993 289.582286 
L 295.9654 289.582286 
z
" clip-path="url(#p5cf1c40fca)" style="fill: #3182bd; stroke: #000000; stroke-width: 0.5; stroke-linejoin: miter"/>
   </g>
   <g id="patch_152">
    <path d="M 297.698993 325.788 
L 299.432585 325.788 
L 299.432585 284.135408 
L 297.698993 284.135408 
z
" clip-path="url(#p5cf1c40fca)" style="fill: #3182bd; stroke: #000000; stroke-width: 0.5; stroke-linejoin: miter"/>
   </g>
   <g id="patch_153">
    <path d="M 299.432585 325.788 
L 301.166177 325.788 
L 301.166177 285.577229 
L 299.432585 285.577229 
z
" clip-path="url(#p5cf1c40fca)" style="fill: #9ecae1; stroke: #000000; stroke-width: 0.5; stroke-linejoin: miter"/>
   </g>
   <g id="patch_154">
    <path d="M 301.166177 325.788 
L 302.899769 325.788 
L 302.899769 278.848733 
L 301.166177 278.848733 
z
" clip-path="url(#p5cf1c40fca)" style="fill: #9ecae1; stroke: #000000; stroke-width: 0.5; stroke-linejoin: miter"/>
   </g>
   <g id="patch_155">
    <path d="M 302.899769 325.788 
L 304.633362 325.788 
L 304.633362 300.956647 
L 302.899769 300.956647 
z
" clip-path="url(#p5cf1c40fca)" style="fill: #3182bd; stroke: #000000; stroke-width: 0.5; stroke-linejoin: miter"/>
   </g>
   <g id="patch_156">
    <path d="M 304.633362 325.788 
L 306.366954 325.788 
L 306.366954 277.24671 
L 304.633362 277.24671 
z
" clip-path="url(#p5cf1c40fca)" style="fill: #3182bd; stroke: #000000; stroke-width: 0.5; stroke-linejoin: miter"/>
   </g>
   <g id="patch_157">
    <path d="M 306.366954 325.788 
L 308.100546 325.788 
L 308.100546 260.906078 
L 306.366954 260.906078 
z
" clip-path="url(#p5cf1c40fca)" style="fill: #3182bd; stroke: #000000; stroke-width: 0.5; stroke-linejoin: miter"/>
   </g>
   <g id="patch_158">
    <path d="M 308.100546 325.788 
L 309.834138 325.788 
L 309.834138 263.789719 
L 308.100546 263.789719 
z
" clip-path="url(#p5cf1c40fca)" style="fill: #3182bd; stroke: #000000; stroke-width: 0.5; stroke-linejoin: miter"/>
   </g>
   <g id="patch_159">
    <path d="M 309.834138 325.788 
L 311.567731 325.788 
L 311.567731 297.432197 
L 309.834138 297.432197 
z
" clip-path="url(#p5cf1c40fca)" style="fill: #3182bd; stroke: #000000; stroke-width: 0.5; stroke-linejoin: miter"/>
   </g>
   <g id="patch_160">
    <path d="M 311.567731 325.788 
L 313.301323 325.788 
L 313.301323 263.629517 
L 311.567731 263.629517 
z
" clip-path="url(#p5cf1c40fca)" style="fill: #9ecae1; stroke: #000000; stroke-width: 0.5; stroke-linejoin: miter"/>
   </g>
   <g id="patch_161">
    <path d="M 313.301323 325.788 
L 315.034915 325.788 
L 315.034915 269.396799 
L 313.301323 269.396799 
z
" clip-path="url(#p5cf1c40fca)" style="fill: #9ecae1; stroke: #000000; stroke-width: 0.5; stroke-linejoin: miter"/>
   </g>
   <g id="patch_162">
    <path d="M 315.034915 325.788 
L 316.768507 325.788 
L 316.768507 294.388354 
L 315.034915 294.388354 
z
" clip-path="url(#p5cf1c40fca)" style="fill: #3182bd; stroke: #000000; stroke-width: 0.5; stroke-linejoin: miter"/>
   </g>
   <g id="patch_163">
    <path d="M 316.768507 325.788 
L 318.5021 325.788 
L 318.5021 256.740819 
L 316.768507 256.740819 
z
" clip-path="url(#p5cf1c40fca)" style="fill: #3182bd; stroke: #000000; stroke-width: 0.5; stroke-linejoin: miter"/>
   </g>
   <g id="patch_164">
    <path d="M 318.5021 325.788 
L 320.235692 325.788 
L 320.235692 259.62446 
L 318.5021 259.62446 
z
" clip-path="url(#p5cf1c40fca)" style="fill: #3182bd; stroke: #000000; stroke-width: 0.5; stroke-linejoin: miter"/>
   </g>
   <g id="patch_165">
    <path d="M 320.235692 325.788 
L 321.969284 325.788 
L 321.969284 260.906078 
L 320.235692 260.906078 
z
" clip-path="url(#p5cf1c40fca)" style="fill: #3182bd; stroke: #000000; stroke-width: 0.5; stroke-linejoin: miter"/>
   </g>
   <g id="patch_166">
    <path d="M 321.969284 325.788 
L 323.702876 325.788 
L 323.702876 266.833563 
L 321.969284 266.833563 
z
" clip-path="url(#p5cf1c40fca)" style="fill: #3182bd; stroke: #000000; stroke-width: 0.5; stroke-linejoin: miter"/>
   </g>
   <g id="patch_167">
    <path d="M 323.702876 325.788 
L 325.436468 325.788 
L 325.436468 270.358013 
L 323.702876 270.358013 
z
" clip-path="url(#p5cf1c40fca)" style="fill: #9ecae1; stroke: #000000; stroke-width: 0.5; stroke-linejoin: miter"/>
   </g>
   <g id="patch_168">
    <path d="M 325.436468 325.788 
L 327.170061 325.788 
L 327.170061 272.28044 
L 325.436468 272.28044 
z
" clip-path="url(#p5cf1c40fca)" style="fill: #9ecae1; stroke: #000000; stroke-width: 0.5; stroke-linejoin: miter"/>
   </g>
   <g id="patch_169">
    <path d="M 327.170061 325.788 
L 328.903653 325.788 
L 328.903653 305.121906 
L 327.170061 305.121906 
z
" clip-path="url(#p5cf1c40fca)" style="fill: #3182bd; stroke: #000000; stroke-width: 0.5; stroke-linejoin: miter"/>
   </g>
   <g id="patch_170">
    <path d="M 328.903653 325.788 
L 330.637245 325.788 
L 330.637245 242.322614 
L 328.903653 242.322614 
z
" clip-path="url(#p5cf1c40fca)" style="fill: #3182bd; stroke: #000000; stroke-width: 0.5; stroke-linejoin: miter"/>
   </g>
   <g id="patch_171">
    <path d="M 330.637245 325.788 
L 332.370837 325.788 
L 332.370837 243.123626 
L 330.637245 243.123626 
z
" clip-path="url(#p5cf1c40fca)" style="fill: #3182bd; stroke: #000000; stroke-width: 0.5; stroke-linejoin: miter"/>
   </g>
   <g id="patch_172">
    <path d="M 332.370837 325.788 
L 334.10443 325.788 
L 334.10443 260.906078 
L 332.370837 260.906078 
z
" clip-path="url(#p5cf1c40fca)" style="fill: #3182bd; stroke: #000000; stroke-width: 0.5; stroke-linejoin: miter"/>
   </g>
   <g id="patch_173">
    <path d="M 334.10443 325.788 
L 335.838022 325.788 
L 335.838022 255.138796 
L 334.10443 255.138796 
z
" clip-path="url(#p5cf1c40fca)" style="fill: #3182bd; stroke: #000000; stroke-width: 0.5; stroke-linejoin: miter"/>
   </g>
   <g id="patch_174">
    <path d="M 335.838022 325.788 
L 337.571614 325.788 
L 337.571614 252.094953 
L 335.838022 252.094953 
z
" clip-path="url(#p5cf1c40fca)" style="fill: #9ecae1; stroke: #000000; stroke-width: 0.5; stroke-linejoin: miter"/>
   </g>
   <g id="patch_175">
    <path d="M 337.571614 325.788 
L 339.305206 325.788 
L 339.305206 252.094953 
L 337.571614 252.094953 
z
" clip-path="url(#p5cf1c40fca)" style="fill: #9ecae1; stroke: #000000; stroke-width: 0.5; stroke-linejoin: miter"/>
   </g>
   <g id="patch_176">
    <path d="M 339.305206 325.788 
L 341.038799 325.788 
L 341.038799 291.664915 
L 339.305206 291.664915 
z
" clip-path="url(#p5cf1c40fca)" style="fill: #3182bd; stroke: #000000; stroke-width: 0.5; stroke-linejoin: miter"/>
   </g>
   <g id="patch_177">
    <path d="M 341.038799 325.788 
L 342.772391 325.788 
L 342.772391 236.39513 
L 341.038799 236.39513 
z
" clip-path="url(#p5cf1c40fca)" style="fill: #3182bd; stroke: #000000; stroke-width: 0.5; stroke-linejoin: miter"/>
   </g>
   <g id="patch_178">
    <path d="M 342.772391 325.788 
L 344.505983 325.788 
L 344.505983 211.563777 
L 342.772391 211.563777 
z
" clip-path="url(#p5cf1c40fca)" style="fill: #3182bd; stroke: #000000; stroke-width: 0.5; stroke-linejoin: miter"/>
   </g>
   <g id="patch_179">
    <path d="M 344.505983 325.788 
L 346.239575 325.788 
L 346.239575 269.557001 
L 344.505983 269.557001 
z
" clip-path="url(#p5cf1c40fca)" style="fill: #3182bd; stroke: #000000; stroke-width: 0.5; stroke-linejoin: miter"/>
   </g>
   <g id="patch_180">
    <path d="M 346.239575 325.788 
L 347.973167 325.788 
L 347.973167 224.059555 
L 346.239575 224.059555 
z
" clip-path="url(#p5cf1c40fca)" style="fill: #3182bd; stroke: #000000; stroke-width: 0.5; stroke-linejoin: miter"/>
   </g>
   <g id="patch_181">
    <path d="M 347.973167 325.788 
L 349.70676 325.788 
L 349.70676 227.103398 
L 347.973167 227.103398 
z
" clip-path="url(#p5cf1c40fca)" style="fill: #9ecae1; stroke: #000000; stroke-width: 0.5; stroke-linejoin: miter"/>
   </g>
   <g id="patch_182">
    <path d="M 349.70676 325.788 
L 351.440352 325.788 
L 351.440352 234.472703 
L 349.70676 234.472703 
z
" clip-path="url(#p5cf1c40fca)" style="fill: #9ecae1; stroke: #000000; stroke-width: 0.5; stroke-linejoin: miter"/>
   </g>
   <g id="patch_183">
    <path d="M 351.440352 325.788 
L 353.173944 325.788 
L 353.173944 284.93642 
L 351.440352 284.93642 
z
" clip-path="url(#p5cf1c40fca)" style="fill: #3182bd; stroke: #000000; stroke-width: 0.5; stroke-linejoin: miter"/>
   </g>
   <g id="patch_184">
    <path d="M 353.173944 325.788 
L 354.907536 325.788 
L 354.907536 224.37996 
L 353.173944 224.37996 
z
" clip-path="url(#p5cf1c40fca)" style="fill: #3182bd; stroke: #000000; stroke-width: 0.5; stroke-linejoin: miter"/>
   </g>
   <g id="patch_185">
    <path d="M 354.907536 325.788 
L 356.641129 325.788 
L 356.641129 183.528379 
L 354.907536 183.528379 
z
" clip-path="url(#p5cf1c40fca)" style="fill: #3182bd; stroke: #000000; stroke-width: 0.5; stroke-linejoin: miter"/>
   </g>
   <g id="patch_186">
    <path d="M 356.641129 325.788 
L 358.374721 325.788 
L 358.374721 207.879125 
L 356.641129 207.879125 
z
" clip-path="url(#p5cf1c40fca)" style="fill: #3182bd; stroke: #000000; stroke-width: 0.5; stroke-linejoin: miter"/>
   </g>
   <g id="patch_187">
    <path d="M 358.374721 325.788 
L 360.108313 325.788 
L 360.108313 226.943196 
L 358.374721 226.943196 
z
" clip-path="url(#p5cf1c40fca)" style="fill: #3182bd; stroke: #000000; stroke-width: 0.5; stroke-linejoin: miter"/>
   </g>
   <g id="patch_188">
    <path d="M 360.108313 325.788 
L 361.841905 325.788 
L 361.841905 238.637962 
L 360.108313 238.637962 
z
" clip-path="url(#p5cf1c40fca)" style="fill: #9ecae1; stroke: #000000; stroke-width: 0.5; stroke-linejoin: miter"/>
   </g>
   <g id="patch_189">
    <path d="M 361.841905 325.788 
L 363.575498 325.788 
L 363.575498 226.302387 
L 361.841905 226.302387 
z
" clip-path="url(#p5cf1c40fca)" style="fill: #9ecae1; stroke: #000000; stroke-width: 0.5; stroke-linejoin: miter"/>
   </g>
   <g id="patch_190">
    <path d="M 363.575498 325.788 
L 365.30909 325.788 
L 365.30909 278.047722 
L 363.575498 278.047722 
z
" clip-path="url(#p5cf1c40fca)" style="fill: #3182bd; stroke: #000000; stroke-width: 0.5; stroke-linejoin: miter"/>
   </g>
   <g id="patch_191">
    <path d="M 365.30909 325.788 
L 367.042682 325.788 
L 367.042682 192.339504 
L 365.30909 192.339504 
z
" clip-path="url(#p5cf1c40fca)" style="fill: #3182bd; stroke: #000000; stroke-width: 0.5; stroke-linejoin: miter"/>
   </g>
   <g id="patch_192">
    <path d="M 367.042682 325.788 
L 368.776274 325.788 
L 368.776274 163.983702 
L 367.042682 163.983702 
z
" clip-path="url(#p5cf1c40fca)" style="fill: #3182bd; stroke: #000000; stroke-width: 0.5; stroke-linejoin: miter"/>
   </g>
   <g id="patch_193">
    <path d="M 368.776274 325.788 
L 370.509867 325.788 
L 370.509867 190.897684 
L 368.776274 190.897684 
z
" clip-path="url(#p5cf1c40fca)" style="fill: #3182bd; stroke: #000000; stroke-width: 0.5; stroke-linejoin: miter"/>
   </g>
   <g id="patch_194">
    <path d="M 370.509867 325.788 
L 372.243459 325.788 
L 372.243459 182.406963 
L 370.509867 182.406963 
z
" clip-path="url(#p5cf1c40fca)" style="fill: #3182bd; stroke: #000000; stroke-width: 0.5; stroke-linejoin: miter"/>
   </g>
   <g id="patch_195">
    <path d="M 372.243459 325.788 
L 373.977051 325.788 
L 373.977051 193.46092 
L 372.243459 193.46092 
z
" clip-path="url(#p5cf1c40fca)" style="fill: #9ecae1; stroke: #000000; stroke-width: 0.5; stroke-linejoin: miter"/>
   </g>
   <g id="patch_196">
    <path d="M 373.977051 325.788 
L 375.710643 325.788 
L 375.710643 169.430579 
L 373.977051 169.430579 
z
" clip-path="url(#p5cf1c40fca)" style="fill: #9ecae1; stroke: #000000; stroke-width: 0.5; stroke-linejoin: miter"/>
   </g>
   <g id="patch_197">
    <path d="M 375.710643 325.788 
L 377.444235 325.788 
L 377.444235 242.963424 
L 375.710643 242.963424 
z
" clip-path="url(#p5cf1c40fca)" style="fill: #3182bd; stroke: #000000; stroke-width: 0.5; stroke-linejoin: miter"/>
   </g>
   <g id="patch_198">
    <path d="M 377.444235 325.788 
L 379.177828 325.788 
L 379.177828 151.327722 
L 377.444235 151.327722 
z
" clip-path="url(#p5cf1c40fca)" style="fill: #3182bd; stroke: #000000; stroke-width: 0.5; stroke-linejoin: miter"/>
   </g>
   <g id="patch_199">
    <path d="M 379.177828 325.788 
L 380.91142 325.788 
L 380.91142 107.111894 
L 379.177828 107.111894 
z
" clip-path="url(#p5cf1c40fca)" style="fill: #3182bd; stroke: #000000; stroke-width: 0.5; stroke-linejoin: miter"/>
   </g>
   <g id="patch_200">
    <path d="M 380.91142 325.788 
L 382.645012 325.788 
L 382.645012 141.715585 
L 380.91142 141.715585 
z
" clip-path="url(#p5cf1c40fca)" style="fill: #3182bd; stroke: #000000; stroke-width: 0.5; stroke-linejoin: miter"/>
   </g>
   <g id="patch_201">
    <path d="M 382.645012 325.788 
L 384.378604 325.788 
L 384.378604 163.823499 
L 382.645012 163.823499 
z
" clip-path="url(#p5cf1c40fca)" style="fill: #3182bd; stroke: #000000; stroke-width: 0.5; stroke-linejoin: miter"/>
   </g>
   <g id="patch_202">
    <path d="M 384.378604 325.788 
L 386.112197 325.788 
L 386.112197 151.808329 
L 384.378604 151.808329 
z
" clip-path="url(#p5cf1c40fca)" style="fill: #9ecae1; stroke: #000000; stroke-width: 0.5; stroke-linejoin: miter"/>
   </g>
   <g id="patch_203">
    <path d="M 386.112197 325.788 
L 387.845789 325.788 
L 387.845789 174.39685 
L 386.112197 174.39685 
z
" clip-path="url(#p5cf1c40fca)" style="fill: #9ecae1; stroke: #000000; stroke-width: 0.5; stroke-linejoin: miter"/>
   </g>
   <g id="patch_204">
    <path d="M 387.845789 325.788 
L 389.579381 325.788 
L 389.579381 236.234928 
L 387.845789 236.234928 
z
" clip-path="url(#p5cf1c40fca)" style="fill: #3182bd; stroke: #000000; stroke-width: 0.5; stroke-linejoin: miter"/>
   </g>
   <g id="patch_205">
    <path d="M 389.579381 325.788 
L 391.312973 325.788 
L 391.312973 143.317608 
L 389.579381 143.317608 
z
" clip-path="url(#p5cf1c40fca)" style="fill: #3182bd; stroke: #000000; stroke-width: 0.5; stroke-linejoin: miter"/>
   </g>
   <g id="patch_206">
    <path d="M 391.312973 325.788 
L 393.046566 325.788 
L 393.046566 72.348 
L 391.312973 72.348 
z
" clip-path="url(#p5cf1c40fca)" style="fill: #3182bd; stroke: #000000; stroke-width: 0.5; stroke-linejoin: miter"/>
   </g>
   <g id="patch_207">
    <path d="M 393.046566 325.788 
L 394.780158 325.788 
L 394.780158 132.90446 
L 393.046566 132.90446 
z
" clip-path="url(#p5cf1c40fca)" style="fill: #3182bd; stroke: #000000; stroke-width: 0.5; stroke-linejoin: miter"/>
   </g>
   <g id="patch_208">
    <path d="M 394.780158 325.788 
L 396.51375 325.788 
L 396.51375 120.088278 
L 394.780158 120.088278 
z
" clip-path="url(#p5cf1c40fca)" style="fill: #3182bd; stroke: #000000; stroke-width: 0.5; stroke-linejoin: miter"/>
   </g>
   <g id="matplotlib.axis_1">
    <g id="xtick_1">
     <g id="line2d_1">
      <defs>
       <path id="md8f0ca2a44" d="M 0 0 
L 0 3.5 
" style="stroke: #000000; stroke-width: 0.8"/>
      </defs>
      <g>
       <use xlink:href="#md8f0ca2a44" x="39.39375" y="325.788" style="stroke: #000000; stroke-width: 0.8"/>
      </g>
     </g>
     <g id="text_1">
      <!-- Jun -->
      <g transform="translate(31.453906 340.278625) scale(0.1 -0.1)">
       <defs>
        <path id="IPAexGothic-4a" d="M 1819 4634 
L 1819 1234 
Q 1819 -31 763 -31 
Q 303 -31 -125 209 
L 84 644 
Q 378 447 694 447 
Q 1250 447 1250 1203 
L 1250 4634 
L 1819 4634 
z
" transform="scale(0.015625)"/>
        <path id="IPAexGothic-75" d="M 3284 63 
L 2772 63 
L 2772 644 
Q 2300 0 1625 0 
Q 1072 0 763 375 
Q 519 678 519 1241 
L 519 3250 
L 1069 3250 
L 1069 1259 
Q 1069 466 1734 466 
Q 2406 466 2734 1291 
L 2734 3250 
L 3284 3250 
L 3284 63 
z
" transform="scale(0.015625)"/>
        <path id="IPAexGothic-6e" d="M 3328 63 
L 2778 63 
L 2778 2041 
Q 2778 2853 2106 2853 
Q 1428 2853 1113 2041 
L 1113 63 
L 563 63 
L 563 3250 
L 1075 3250 
L 1075 2675 
Q 1525 3316 2222 3316 
Q 3328 3316 3328 2072 
L 3328 63 
z
" transform="scale(0.015625)"/>
       </defs>
       <use xlink:href="#IPAexGothic-4a"/>
       <use xlink:href="#IPAexGothic-75" x="37.988281"/>
       <use xlink:href="#IPAexGothic-6e" x="98.388672"/>
      </g>
     </g>
    </g>
    <g id="xtick_2">
     <g id="line2d_2">
      <g>
       <use xlink:href="#md8f0ca2a44" x="91.401517" y="325.788" style="stroke: #000000; stroke-width: 0.8"/>
      </g>
     </g>
     <g id="text_2">
      <!-- Jul -->
      <g transform="translate(85.131986 340.278625) scale(0.1 -0.1)">
       <defs>
        <path id="IPAexGothic-6c" d="M 1131 63 
L 581 63 
L 581 4794 
L 1131 4794 
L 1131 63 
z
" transform="scale(0.015625)"/>
       </defs>
       <use xlink:href="#IPAexGothic-4a"/>
       <use xlink:href="#IPAexGothic-75" x="37.988281"/>
       <use xlink:href="#IPAexGothic-6c" x="98.388672"/>
      </g>
     </g>
    </g>
    <g id="xtick_3">
     <g id="line2d_3">
      <g>
       <use xlink:href="#md8f0ca2a44" x="145.142876" y="325.788" style="stroke: #000000; stroke-width: 0.8"/>
      </g>
     </g>
     <g id="text_3">
      <!-- Aug -->
      <g transform="translate(136.160845 340.220812) scale(0.1 -0.1)">
       <defs>
        <path id="IPAexGothic-41" d="M 4056 63 
L 3444 63 
L 2938 1409 
L 1100 1409 
L 603 63 
L -6 63 
L 1806 4666 
L 2259 4666 
L 4056 63 
z
M 2778 1863 
L 2316 3078 
Q 2125 3588 2028 4000 
L 2009 4000 
Q 1897 3563 1716 3078 
L 1263 1863 
L 2778 1863 
z
" transform="scale(0.015625)"/>
        <path id="IPAexGothic-67" d="M 1331 1150 
Q 1006 1122 1006 900 
Q 1006 613 1763 575 
L 2131 556 
Q 3303 497 3303 -294 
Q 3303 -700 2925 -959 
Q 2519 -1253 1794 -1253 
Q 1138 -1253 738 -1028 
Q 353 -809 353 -428 
Q 353 84 1075 247 
L 1075 269 
Q 506 413 506 778 
Q 506 1116 994 1297 
Q 456 1575 456 2181 
Q 456 2650 769 2963 
Q 1128 3322 1738 3322 
Q 2125 3322 2422 3153 
Q 2650 3453 3259 3463 
L 3259 3013 
Q 2838 3003 2703 2938 
Q 3034 2613 3034 2169 
Q 3034 1728 2734 1425 
Q 2400 1094 1813 1094 
Q 1563 1094 1331 1150 
z
M 1734 2919 
Q 1409 2919 1197 2706 
Q 988 2497 988 2181 
Q 988 1872 1184 1684 
Q 1397 1472 1756 1472 
Q 2094 1472 2297 1678 
Q 2503 1881 2503 2203 
Q 2503 2497 2297 2700 
Q 2081 2919 1734 2919 
z
M 1753 159 
Q 903 159 903 -366 
Q 903 -875 1800 -875 
Q 2378 -875 2638 -606 
Q 2772 -481 2772 -313 
Q 2772 159 1753 159 
z
" transform="scale(0.015625)"/>
       </defs>
       <use xlink:href="#IPAexGothic-41"/>
       <use xlink:href="#IPAexGothic-75" x="63.720703"/>
       <use xlink:href="#IPAexGothic-67" x="124.121094"/>
      </g>
     </g>
    </g>
    <g id="xtick_4">
     <g id="line2d_4">
      <g>
       <use xlink:href="#md8f0ca2a44" x="198.884235" y="325.788" style="stroke: #000000; stroke-width: 0.8"/>
      </g>
     </g>
     <g id="text_4">
      <!-- Sep -->
      <g transform="translate(190.009235 340.278625) scale(0.1 -0.1)">
       <defs>
        <path id="IPAexGothic-53" d="M 2919 3641 
Q 2563 4259 1853 4259 
Q 1453 4259 1213 4009 
Q 1028 3803 1028 3534 
Q 1028 3238 1266 3047 
Q 1444 2913 1984 2688 
L 2200 2597 
Q 2925 2306 3191 1953 
Q 3422 1644 3422 1259 
Q 3422 644 2969 288 
Q 2559 -31 1931 -31 
Q 881 -31 313 766 
L 753 1100 
Q 1203 459 1938 459 
Q 2288 459 2534 625 
Q 2841 847 2841 1216 
Q 2841 1503 2616 1728 
Q 2375 1959 1728 2206 
L 1541 2278 
Q 453 2694 453 3481 
Q 453 4006 806 4347 
Q 1203 4725 1863 4725 
Q 2841 4725 3359 3956 
L 2919 3641 
z
" transform="scale(0.015625)"/>
        <path id="IPAexGothic-65" d="M 863 1594 
Q 891 1041 1209 722 
Q 1534 397 1997 397 
Q 2606 397 2963 966 
L 3322 728 
Q 2869 -31 1931 -31 
Q 1222 -31 766 422 
Q 306 884 306 1641 
Q 306 2444 788 2925 
Q 1216 3353 1856 3353 
Q 2459 3353 2866 2956 
Q 3322 2494 3322 1722 
L 3322 1594 
L 863 1594 
z
M 2756 1997 
Q 2709 2431 2450 2681 
Q 2194 2938 1844 2938 
Q 1438 2938 1150 2591 
Q 953 2356 894 1997 
L 2756 1997 
z
" transform="scale(0.015625)"/>
        <path id="IPAexGothic-70" d="M 1075 2688 
Q 1525 3341 2206 3341 
Q 2769 3341 3172 2938 
Q 3641 2469 3641 1644 
Q 3641 841 3178 372 
Q 2775 -31 2200 -31 
Q 1569 -31 1106 497 
L 1106 -1216 
L 563 -1216 
L 563 3250 
L 1075 3250 
L 1075 2688 
z
M 1106 1950 
L 1106 1291 
Q 1106 897 1516 600 
Q 1791 403 2106 403 
Q 2469 403 2725 659 
Q 3066 997 3066 1631 
Q 3066 2200 2784 2559 
Q 2503 2900 2100 2900 
Q 1656 2900 1338 2484 
Q 1106 2184 1106 1950 
z
" transform="scale(0.015625)"/>
       </defs>
       <use xlink:href="#IPAexGothic-53"/>
       <use xlink:href="#IPAexGothic-65" x="58.496094"/>
       <use xlink:href="#IPAexGothic-70" x="115.380859"/>
      </g>
     </g>
    </g>
    <g id="xtick_5">
     <g id="line2d_5">
      <g>
       <use xlink:href="#md8f0ca2a44" x="250.892002" y="325.788" style="stroke: #000000; stroke-width: 0.8"/>
      </g>
     </g>
     <g id="text_5">
      <!-- Oct -->
      <g transform="translate(242.456846 340.278625) scale(0.1 -0.1)">
       <defs>
        <path id="IPAexGothic-4f" d="M 2541 4725 
Q 3456 4725 4044 4138 
Q 4709 3472 4709 2331 
Q 4709 1219 4031 550 
Q 3450 -31 2541 -31 
Q 1638 -31 1056 550 
Q 378 1219 378 2356 
Q 378 3469 1044 4138 
Q 1631 4725 2541 4725 
z
M 2541 4266 
Q 1953 4266 1531 3844 
Q 994 3303 994 2350 
Q 994 1391 1531 863 
Q 1947 447 2541 447 
Q 3131 447 3556 863 
Q 4094 1400 4094 2375 
Q 4094 3297 3550 3844 
Q 3138 4266 2541 4266 
z
" transform="scale(0.015625)"/>
        <path id="IPAexGothic-63" d="M 3269 784 
Q 2834 -31 1900 -31 
Q 1228 -31 788 409 
Q 313 891 313 1663 
Q 313 2428 788 2913 
Q 1222 3347 1881 3347 
Q 2813 3347 3206 2541 
L 2763 2309 
Q 2484 2900 1900 2900 
Q 1516 2900 1234 2619 
Q 881 2266 881 1650 
Q 881 1069 1222 728 
Q 1522 428 1956 428 
Q 2547 428 2847 1016 
L 3269 784 
z
" transform="scale(0.015625)"/>
        <path id="IPAexGothic-74" d="M 2125 241 
Q 1769 -6 1397 -6 
Q 653 -6 653 831 
L 653 2859 
L 219 2859 
L 219 3250 
L 653 3250 
L 653 3966 
L 1178 4228 
L 1178 3250 
L 2063 3250 
L 2063 2859 
L 1178 2859 
L 1178 906 
Q 1178 416 1513 416 
Q 1738 416 1941 588 
L 2125 241 
z
" transform="scale(0.015625)"/>
       </defs>
       <use xlink:href="#IPAexGothic-4f"/>
       <use xlink:href="#IPAexGothic-63" x="79.6875"/>
       <use xlink:href="#IPAexGothic-74" x="134.082031"/>
      </g>
     </g>
    </g>
    <g id="xtick_6">
     <g id="line2d_6">
      <g>
       <use xlink:href="#md8f0ca2a44" x="304.633362" y="325.788" style="stroke: #000000; stroke-width: 0.8"/>
      </g>
     </g>
     <g id="text_6">
      <!-- Nov -->
      <g transform="translate(295.384924 340.278625) scale(0.1 -0.1)">
       <defs>
        <path id="IPAexGothic-4e" d="M 4244 63 
L 3731 63 
L 1697 3150 
Q 1466 3500 1141 4097 
L 1116 4097 
L 1128 3797 
Q 1159 2803 1159 2469 
L 1159 63 
L 609 63 
L 609 4634 
L 1366 4634 
L 3113 1978 
Q 3453 1447 3713 966 
L 3738 966 
Q 3694 1897 3694 2469 
L 3694 4634 
L 4244 4634 
L 4244 63 
z
" transform="scale(0.015625)"/>
        <path id="IPAexGothic-6f" d="M 1919 3341 
Q 2594 3341 3056 2888 
Q 3531 2413 3531 1638 
Q 3531 888 3066 422 
Q 2609 -31 1919 -31 
Q 1228 -31 781 416 
Q 313 881 313 1656 
Q 313 2413 788 2888 
Q 1241 3341 1919 3341 
z
M 1919 2919 
Q 1519 2919 1241 2631 
Q 888 2278 888 1650 
Q 888 1031 1234 684 
Q 1516 403 1919 403 
Q 2331 403 2609 691 
Q 2956 1038 2956 1672 
Q 2956 2269 2603 2631 
Q 2316 2919 1919 2919 
z
" transform="scale(0.015625)"/>
        <path id="IPAexGothic-76" d="M 3103 3250 
L 1747 6 
L 1375 6 
L 25 3250 
L 628 3250 
L 1338 1388 
L 1522 844 
L 1569 703 
L 1588 703 
Q 1641 884 1822 1388 
L 2516 3250 
L 3103 3250 
z
" transform="scale(0.015625)"/>
       </defs>
       <use xlink:href="#IPAexGothic-4e"/>
       <use xlink:href="#IPAexGothic-6f" x="75.976562"/>
       <use xlink:href="#IPAexGothic-76" x="136.376953"/>
      </g>
     </g>
    </g>
    <g id="xtick_7">
     <g id="line2d_7">
      <g>
       <use xlink:href="#md8f0ca2a44" x="356.641129" y="325.788" style="stroke: #000000; stroke-width: 0.8"/>
      </g>
     </g>
     <g id="text_7">
      <!-- Dec -->
      <g transform="translate(347.292691 340.278625) scale(0.1 -0.1)">
       <defs>
        <path id="IPAexGothic-44" d="M 609 4634 
L 1984 4634 
Q 3159 4634 3791 4050 
Q 4456 3444 4456 2356 
Q 4456 1047 3516 441 
Q 2925 63 1941 63 
L 609 63 
L 609 4634 
z
M 1172 556 
L 1894 556 
Q 3853 556 3853 2356 
Q 3853 4147 1928 4147 
L 1172 4147 
L 1172 556 
z
" transform="scale(0.015625)"/>
       </defs>
       <use xlink:href="#IPAexGothic-44"/>
       <use xlink:href="#IPAexGothic-65" x="75.683594"/>
       <use xlink:href="#IPAexGothic-63" x="132.568359"/>
      </g>
     </g>
    </g>
    <g id="text_8">
     <!-- 2022 -->
     <g transform="translate(371.32 352.66925) scale(0.1 -0.1)">
      <defs>
       <path id="IPAexGothic-32" d="M 3659 63 
L 447 63 
L 447 594 
Q 825 1475 1894 2203 
L 2072 2322 
Q 2619 2697 2791 2906 
Q 2988 3153 2988 3444 
Q 2988 3772 2756 4003 
Q 2500 4259 2084 4259 
Q 1250 4259 991 3328 
L 497 3506 
Q 853 4725 2116 4725 
Q 2806 4725 3216 4316 
Q 3575 3947 3575 3425 
Q 3575 3038 3344 2722 
Q 3131 2416 2366 1938 
L 2231 1856 
Q 1256 1253 978 569 
L 3659 569 
L 3659 63 
z
" transform="scale(0.015625)"/>
       <path id="IPAexGothic-30" d="M 2038 4725 
Q 2881 4725 3334 3944 
Q 3694 3325 3694 2344 
Q 3694 1372 3334 741 
Q 2888 -31 2016 -31 
Q 1147 -31 700 741 
Q 341 1372 341 2350 
Q 341 3713 1000 4334 
Q 1419 4725 2038 4725 
z
M 2016 4266 
Q 1516 4266 1228 3759 
Q 934 3247 934 2344 
Q 934 1456 1222 947 
Q 1513 447 2016 447 
Q 2619 447 2909 1153 
Q 3100 1622 3100 2375 
Q 3100 3256 2806 3759 
Q 2509 4266 2016 4266 
z
" transform="scale(0.015625)"/>
      </defs>
      <use xlink:href="#IPAexGothic-32"/>
      <use xlink:href="#IPAexGothic-30" x="62.988281"/>
      <use xlink:href="#IPAexGothic-32" x="125.976562"/>
      <use xlink:href="#IPAexGothic-32" x="188.964844"/>
     </g>
    </g>
   </g>
   <g id="matplotlib.axis_2">
    <g id="ytick_1">
     <g id="line2d_8">
      <defs>
       <path id="m07a50a5c8e" d="M 0 0 
L -3.5 0 
" style="stroke: #000000; stroke-width: 0.8"/>
      </defs>
      <g>
       <use xlink:href="#m07a50a5c8e" x="39.39375" y="325.788" style="stroke: #000000; stroke-width: 0.8"/>
      </g>
     </g>
     <g id="text_9">
      <!-- 0 -->
      <g transform="translate(26.095313 329.533312) scale(0.1 -0.1)">
       <use xlink:href="#IPAexGothic-30"/>
      </g>
     </g>
    </g>
    <g id="ytick_2">
     <g id="line2d_9">
      <g>
       <use xlink:href="#m07a50a5c8e" x="39.39375" y="293.747545" style="stroke: #000000; stroke-width: 0.8"/>
      </g>
     </g>
     <g id="text_10">
      <!-- 200 -->
      <g transform="translate(13.498438 297.492857) scale(0.1 -0.1)">
       <use xlink:href="#IPAexGothic-32"/>
       <use xlink:href="#IPAexGothic-30" x="62.988281"/>
       <use xlink:href="#IPAexGothic-30" x="125.976562"/>
      </g>
     </g>
    </g>
    <g id="ytick_3">
     <g id="line2d_10">
      <g>
       <use xlink:href="#m07a50a5c8e" x="39.39375" y="261.70709" style="stroke: #000000; stroke-width: 0.8"/>
      </g>
     </g>
     <g id="text_11">
      <!-- 400 -->
      <g transform="translate(13.498438 265.452402) scale(0.1 -0.1)">
       <defs>
        <path id="IPAexGothic-34" d="M 3813 1159 
L 3059 1159 
L 3059 63 
L 2547 63 
L 2547 1159 
L 197 1159 
L 197 1672 
L 2456 4678 
L 3059 4678 
L 3059 1634 
L 3813 1634 
L 3813 1159 
z
M 2578 4109 
L 2559 4109 
Q 2278 3656 2003 3284 
L 759 1634 
L 2547 1634 
L 2547 3144 
Q 2547 3481 2578 4109 
z
" transform="scale(0.015625)"/>
       </defs>
       <use xlink:href="#IPAexGothic-34"/>
       <use xlink:href="#IPAexGothic-30" x="62.988281"/>
       <use xlink:href="#IPAexGothic-30" x="125.976562"/>
      </g>
     </g>
    </g>
    <g id="ytick_4">
     <g id="line2d_11">
      <g>
       <use xlink:href="#m07a50a5c8e" x="39.39375" y="229.666635" style="stroke: #000000; stroke-width: 0.8"/>
      </g>
     </g>
     <g id="text_12">
      <!-- 600 -->
      <g transform="translate(13.498438 233.411947) scale(0.1 -0.1)">
       <defs>
        <path id="IPAexGothic-36" d="M 1056 2328 
Q 1509 2981 2234 2981 
Q 2906 2981 3316 2513 
Q 3675 2106 3675 1522 
Q 3675 884 3272 434 
Q 2853 -31 2178 -31 
Q 1375 -31 922 581 
Q 481 1178 481 2228 
Q 481 3425 1013 4109 
Q 1494 4725 2272 4725 
Q 3191 4725 3609 4025 
L 3150 3775 
Q 2894 4266 2300 4266 
Q 1119 4266 1031 2328 
L 1056 2328 
z
M 2141 2547 
Q 1684 2547 1384 2206 
Q 1116 1900 1116 1541 
Q 1116 1156 1353 844 
Q 1672 428 2159 428 
Q 2669 428 2941 844 
Q 3125 1128 3125 1503 
Q 3125 1944 2881 2228 
Q 2600 2547 2141 2547 
z
" transform="scale(0.015625)"/>
       </defs>
       <use xlink:href="#IPAexGothic-36"/>
       <use xlink:href="#IPAexGothic-30" x="62.988281"/>
       <use xlink:href="#IPAexGothic-30" x="125.976562"/>
      </g>
     </g>
    </g>
    <g id="ytick_5">
     <g id="line2d_12">
      <g>
       <use xlink:href="#m07a50a5c8e" x="39.39375" y="197.62618" style="stroke: #000000; stroke-width: 0.8"/>
      </g>
     </g>
     <g id="text_13">
      <!-- 800 -->
      <g transform="translate(13.498438 201.371492) scale(0.1 -0.1)">
       <defs>
        <path id="IPAexGothic-38" d="M 2541 2425 
Q 3700 2031 3700 1197 
Q 3700 541 3100 197 
Q 2663 -56 2016 -56 
Q 1366 -56 928 197 
Q 347 531 347 1178 
Q 347 1988 1409 2381 
L 1409 2400 
Q 481 2734 481 3509 
Q 481 4100 981 4456 
Q 1406 4756 2019 4756 
Q 2703 4756 3131 4403 
Q 3553 4069 3553 3566 
Q 3553 2706 2541 2444 
L 2541 2425 
z
M 2022 2625 
Q 2997 2856 2997 3528 
Q 2997 3916 2675 4150 
Q 2413 4347 2016 4347 
Q 1606 4347 1331 4128 
Q 1050 3897 1050 3522 
Q 1050 3150 1350 2925 
Q 1494 2809 1722 2722 
Q 1984 2616 2022 2625 
z
M 1978 2209 
Q 922 1931 922 1216 
Q 922 775 1313 556 
Q 1606 391 2009 391 
Q 2575 391 2881 697 
Q 3106 922 3106 1250 
Q 3106 1594 2794 1850 
Q 2609 1994 2350 2100 
Q 2047 2222 1978 2209 
z
" transform="scale(0.015625)"/>
       </defs>
       <use xlink:href="#IPAexGothic-38"/>
       <use xlink:href="#IPAexGothic-30" x="62.988281"/>
       <use xlink:href="#IPAexGothic-30" x="125.976562"/>
      </g>
     </g>
    </g>
    <g id="ytick_6">
     <g id="line2d_13">
      <g>
       <use xlink:href="#m07a50a5c8e" x="39.39375" y="165.585724" style="stroke: #000000; stroke-width: 0.8"/>
      </g>
     </g>
     <g id="text_14">
      <!-- 1000 -->
      <g transform="translate(7.2 169.331037) scale(0.1 -0.1)">
       <defs>
        <path id="IPAexGothic-31" d="M 2463 63 
L 1900 63 
L 1900 4103 
Q 1372 3922 788 3797 
L 684 4231 
Q 1519 4441 2106 4731 
L 2463 4731 
L 2463 63 
z
" transform="scale(0.015625)"/>
       </defs>
       <use xlink:href="#IPAexGothic-31"/>
       <use xlink:href="#IPAexGothic-30" x="62.988281"/>
       <use xlink:href="#IPAexGothic-30" x="125.976562"/>
       <use xlink:href="#IPAexGothic-30" x="188.964844"/>
      </g>
     </g>
    </g>
    <g id="ytick_7">
     <g id="line2d_14">
      <g>
       <use xlink:href="#m07a50a5c8e" x="39.39375" y="133.545269" style="stroke: #000000; stroke-width: 0.8"/>
      </g>
     </g>
     <g id="text_15">
      <!-- 1200 -->
      <g transform="translate(7.2 137.290582) scale(0.1 -0.1)">
       <use xlink:href="#IPAexGothic-31"/>
       <use xlink:href="#IPAexGothic-32" x="62.988281"/>
       <use xlink:href="#IPAexGothic-30" x="125.976562"/>
       <use xlink:href="#IPAexGothic-30" x="188.964844"/>
      </g>
     </g>
    </g>
    <g id="ytick_8">
     <g id="line2d_15">
      <g>
       <use xlink:href="#m07a50a5c8e" x="39.39375" y="101.504814" style="stroke: #000000; stroke-width: 0.8"/>
      </g>
     </g>
     <g id="text_16">
      <!-- 1400 -->
      <g transform="translate(7.2 105.250127) scale(0.1 -0.1)">
       <use xlink:href="#IPAexGothic-31"/>
       <use xlink:href="#IPAexGothic-34" x="62.988281"/>
       <use xlink:href="#IPAexGothic-30" x="125.976562"/>
       <use xlink:href="#IPAexGothic-30" x="188.964844"/>
      </g>
     </g>
    </g>
    <g id="ytick_9">
     <g id="line2d_16">
      <g>
       <use xlink:href="#m07a50a5c8e" x="39.39375" y="69.464359" style="stroke: #000000; stroke-width: 0.8"/>
      </g>
     </g>
     <g id="text_17">
      <!-- 1600 -->
      <g transform="translate(7.2 73.209672) scale(0.1 -0.1)">
       <use xlink:href="#IPAexGothic-31"/>
       <use xlink:href="#IPAexGothic-36" x="62.988281"/>
       <use xlink:href="#IPAexGothic-30" x="125.976562"/>
       <use xlink:href="#IPAexGothic-30" x="188.964844"/>
      </g>
     </g>
    </g>
   </g>
   <g id="patch_209">
    <path d="M 39.39375 325.788 
L 39.39375 59.676 
" style="fill: none; stroke: #000000; stroke-width: 0.8; stroke-linejoin: miter; stroke-linecap: square"/>
   </g>
   <g id="patch_210">
    <path d="M 396.51375 325.788 
L 396.51375 59.676 
" style="fill: none; stroke: #000000; stroke-width: 0.8; stroke-linejoin: miter; stroke-linecap: square"/>
   </g>
   <g id="patch_211">
    <path d="M 39.39375 325.788 
L 396.51375 325.788 
" style="fill: none; stroke: #000000; stroke-width: 0.8; stroke-linejoin: miter; stroke-linecap: square"/>
   </g>
   <g id="patch_212">
    <path d="M 39.39375 59.676 
L 396.51375 59.676 
" style="fill: none; stroke: #000000; stroke-width: 0.8; stroke-linejoin: miter; stroke-linecap: square"/>
   </g>
   <g id="text_18">
    <!--   -->
    <g transform="translate(39.39375 16.18875) scale(0.12 -0.12)">
     <defs>
      <path id="IPAexGothic-9ce5" d="M 2516 4659 
Q 2681 5003 2756 5338 
L 3288 5222 
Q 3138 4869 3000 4659 
L 5138 4659 
L 5138 2872 
L 1547 2872 
L 1547 2522 
L 6078 2522 
L 6078 2163 
L 1547 2163 
L 1547 1806 
L 5809 1806 
Q 5741 413 5625 6 
Q 5488 -447 4869 -447 
Q 4519 -447 4134 -403 
L 4031 91 
Q 4484 6 4825 6 
Q 5141 6 5188 275 
Q 5284 700 5322 1453 
L 1094 1453 
L 1094 4659 
L 2516 4659 
z
M 1547 4313 
L 1547 3950 
L 4691 3950 
L 4691 4313 
L 1547 4313 
z
M 1547 3609 
L 1547 3225 
L 4691 3225 
L 4691 3609 
L 1547 3609 
z
M 313 -19 
Q 716 488 928 1259 
L 1381 1106 
Q 1150 269 741 -319 
L 313 -19 
z
M 1944 -213 
Q 1916 447 1772 1088 
L 2213 1166 
Q 2378 634 2463 -97 
L 1944 -213 
z
M 3225 -25 
Q 3034 675 2769 1147 
L 3166 1275 
Q 3497 759 3684 147 
L 3225 -25 
z
M 4434 275 
Q 4203 766 3819 1216 
L 4184 1409 
Q 4534 1041 4831 531 
L 4434 275 
z
" transform="scale(0.015625)"/>
      <path id="IPAexGothic-53d6" d="M 2825 4544 
L 2825 -447 
L 2384 -447 
L 2384 891 
L 2250 853 
Q 1509 650 484 431 
L 331 884 
Q 594 925 919 981 
L 919 4544 
L 406 4544 
L 406 4953 
L 3300 4953 
L 3300 4544 
L 2825 4544 
z
M 2384 4544 
L 1341 4544 
L 1341 3700 
L 2384 3700 
L 2384 4544 
z
M 2384 3316 
L 1341 3316 
L 1341 2472 
L 2384 2472 
L 2384 3316 
z
M 2384 2088 
L 1341 2088 
L 1341 1056 
L 1525 1091 
Q 2231 1231 2384 1269 
L 2384 2088 
z
M 4838 1281 
L 4863 1244 
Q 5359 578 6116 59 
L 5822 -378 
Q 5178 116 4606 872 
Q 4050 13 3250 -506 
L 2956 -128 
Q 3788 359 4338 1269 
Q 3644 2359 3422 3963 
L 3063 3963 
L 3063 4391 
L 5522 4391 
L 5753 4188 
Q 5372 2341 4838 1281 
z
M 4569 1697 
Q 5019 2684 5222 3963 
L 3850 3963 
Q 4069 2634 4569 1697 
z
" transform="scale(0.015625)"/>
      <path id="IPAexGothic-770c" d="M 5178 5050 
L 5178 2213 
L 1875 2213 
L 1875 5050 
L 5178 5050 
z
M 2316 4672 
L 2316 4219 
L 4738 4219 
L 4738 4672 
L 2316 4672 
z
M 2316 3866 
L 2316 3406 
L 4738 3406 
L 4738 3866 
L 2316 3866 
z
M 2316 3053 
L 2316 2578 
L 4738 2578 
L 4738 3053 
L 2316 3053 
z
M 1094 1806 
L 5975 1806 
L 5975 1422 
L 3472 1422 
L 3472 -447 
L 3003 -447 
L 3003 1422 
L 1094 1422 
L 1094 1122 
L 641 1122 
L 641 4700 
L 1094 4700 
L 1094 1806 
z
M 5581 -197 
Q 4900 463 4047 972 
L 4416 1247 
Q 5244 784 5984 166 
L 5581 -197 
z
M 488 19 
Q 1400 463 1997 1166 
L 2419 916 
Q 1763 159 828 -347 
L 488 19 
z
" transform="scale(0.015625)"/>
      <path id="IPAexGothic-20" transform="scale(0.015625)"/>
      <path id="IPAexGothic-30b3" d="M 1134 4213 
L 5166 4213 
L 5166 153 
L 4653 153 
L 4653 594 
L 1063 594 
L 1063 1088 
L 4653 1088 
L 4653 3725 
L 1134 3725 
L 1134 4213 
z
" transform="scale(0.015625)"/>
      <path id="IPAexGothic-30ed" d="M 1147 4269 
L 5250 4269 
L 5250 172 
L 4725 172 
L 4725 569 
L 1672 569 
L 1672 172 
L 1147 172 
L 1147 4269 
z
M 1672 3781 
L 1672 1063 
L 4725 1063 
L 4725 3781 
L 1672 3781 
z
" transform="scale(0.015625)"/>
      <path id="IPAexGothic-30ca" d="M 3103 4959 
L 3634 4959 
L 3634 3488 
L 5706 3488 
L 5706 2994 
L 3634 2994 
Q 3597 1753 3256 1113 
Q 2825 306 1906 -188 
L 1522 228 
Q 2416 641 2809 1419 
Q 3075 1950 3103 2994 
L 691 2994 
L 691 3488 
L 3103 3488 
L 3103 4959 
z
" transform="scale(0.015625)"/>
      <path id="IPAexGothic-30a6" d="M 2866 4981 
L 3391 4981 
L 3391 3963 
L 4991 3963 
L 5297 3713 
Q 5134 1969 4381 1044 
Q 3719 216 2500 -219 
L 2131 225 
Q 3409 597 4056 1466 
Q 4591 2197 4734 3488 
L 1588 3488 
L 1588 2053 
L 1075 2053 
L 1075 3963 
L 2866 3963 
L 2866 4981 
z
" transform="scale(0.015625)"/>
      <path id="IPAexGothic-30a4" d="M 3131 -231 
L 3131 2875 
Q 2091 2088 1106 1656 
L 781 2059 
Q 3016 3000 4469 4916 
L 4916 4641 
Q 4384 3938 3675 3316 
L 3675 -231 
L 3131 -231 
z
" transform="scale(0.015625)"/>
      <path id="IPAexGothic-30eb" d="M 353 331 
Q 1313 994 1544 2022 
Q 1684 2650 1684 4397 
L 2203 4397 
L 2203 4153 
L 2203 4116 
Q 2203 2259 1934 1491 
Q 1619 588 744 -38 
L 353 331 
z
M 3125 4666 
L 3650 4666 
L 3650 769 
Q 4875 1488 5672 2734 
L 6000 2278 
Q 5075 966 3516 63 
L 3125 359 
L 3125 4666 
z
" transform="scale(0.015625)"/>
      <path id="IPAexGothic-30b9" d="M 4359 4481 
L 4716 4147 
Q 4328 3072 3647 2150 
Q 4659 1434 5659 453 
L 5234 19 
Q 4256 1088 3353 1778 
Q 2372 597 1044 -31 
L 653 403 
Q 3128 1453 4097 4000 
L 1241 3963 
L 1228 4453 
L 4359 4481 
z
" transform="scale(0.015625)"/>
      <path id="IPAexGothic-967d" d="M 5000 1581 
Q 4644 241 3566 -494 
L 3206 -197 
Q 4256 428 4572 1581 
L 4091 1581 
Q 3678 500 2675 -128 
L 2325 166 
Q 3288 716 3663 1581 
L 3181 1581 
Q 2775 969 2209 556 
L 1875 859 
Q 2753 1416 3125 2341 
L 2234 2341 
L 2234 2713 
L 6075 2713 
L 6075 2341 
L 3572 2341 
Q 3491 2116 3394 1941 
L 5863 1941 
Q 5806 406 5641 -75 
Q 5513 -453 5000 -453 
Q 4738 -453 4419 -422 
L 4322 38 
Q 4669 -25 4922 -25 
Q 5194 -25 5263 225 
Q 5353 575 5409 1466 
Q 5409 1550 5416 1581 
L 5000 1581 
z
M 1594 3200 
Q 2197 2591 2197 1741 
Q 2197 1450 2134 1294 
Q 2019 1019 1606 1019 
Q 1378 1019 1134 1050 
L 1056 1506 
Q 1288 1441 1531 1441 
Q 1775 1441 1775 1831 
Q 1775 2656 1128 3175 
L 1153 3228 
Q 1500 3831 1678 4609 
L 897 4609 
L 897 -447 
L 481 -447 
L 481 5013 
L 1984 5013 
L 2203 4822 
Q 1950 3922 1594 3200 
z
M 5428 5031 
L 5428 3066 
L 2778 3066 
L 2778 5031 
L 5428 5031 
z
M 3194 4666 
L 3194 4238 
L 5013 4238 
L 5013 4666 
L 3194 4666 
z
M 3194 3891 
L 3194 3425 
L 5013 3425 
L 5013 3891 
L 3194 3891 
z
" transform="scale(0.015625)"/>
      <path id="IPAexGothic-6027" d="M 3106 3788 
L 3900 3788 
L 3900 5216 
L 4353 5216 
L 4353 3788 
L 5884 3788 
L 5884 3372 
L 4353 3372 
L 4353 2069 
L 5756 2069 
L 5756 1653 
L 4353 1653 
L 4353 153 
L 6081 153 
L 6081 -269 
L 2231 -269 
L 2231 153 
L 3900 153 
L 3900 1653 
L 2606 1653 
L 2606 2069 
L 3900 2069 
L 3900 3372 
L 2984 3372 
Q 2806 2803 2544 2325 
L 2147 2613 
Q 2638 3428 2875 4875 
L 3313 4778 
Q 3234 4309 3106 3788 
z
M 269 2188 
Q 459 2891 525 3950 
L 934 3884 
Q 884 2694 672 1931 
L 269 2188 
z
M 1997 3047 
Q 1872 3591 1650 4078 
L 1984 4256 
Q 2216 3844 2394 3291 
L 1997 3047 
z
M 1159 5313 
L 1613 5313 
L 1613 -447 
L 1159 -447 
L 1159 5313 
z
" transform="scale(0.015625)"/>
      <path id="IPAexGothic-8005" d="M 4328 4153 
Q 4694 4550 5038 5025 
L 5453 4794 
Q 4963 4138 4128 3372 
L 6041 3372 
L 6041 2963 
L 3656 2963 
Q 3319 2703 2778 2338 
L 5088 2338 
L 5088 -447 
L 4634 -447 
L 4634 -159 
L 2213 -159 
L 2213 -447 
L 1759 -447 
L 1759 1709 
Q 1141 1359 478 1075 
L 231 1472 
Q 1663 2022 2938 2913 
L 344 2913 
L 344 3322 
L 2703 3322 
L 2703 4109 
L 1125 4109 
L 1125 4500 
L 2741 4500 
L 2741 5313 
L 3194 5313 
L 3194 4500 
L 4328 4500 
L 4328 4153 
z
M 4281 4109 
L 3156 4109 
L 3156 3322 
L 3463 3322 
Q 3956 3747 4281 4109 
z
M 2213 1953 
L 2213 1306 
L 4634 1306 
L 4634 1953 
L 2213 1953 
z
M 2213 934 
L 2213 231 
L 4634 231 
L 4634 934 
L 2213 934 
z
" transform="scale(0.015625)"/>
      <path id="IPAexGothic-6570" d="M 2847 1553 
Q 2741 1006 2425 534 
Q 2625 441 3091 203 
L 2809 -188 
Q 2541 0 2144 209 
Q 1569 -291 703 -500 
L 422 -125 
Q 1263 19 1747 406 
Q 1222 650 734 816 
Q 975 1172 1147 1503 
L 1172 1553 
L 359 1553 
L 359 1925 
L 1344 1925 
Q 1406 2066 1569 2475 
L 1691 2450 
L 1691 3372 
Q 1250 2738 550 2303 
L 275 2663 
Q 1019 3013 1528 3641 
L 378 3641 
L 378 4006 
L 1691 4006 
L 1691 5313 
L 2113 5313 
L 2113 4006 
L 3297 4006 
L 3297 3641 
L 2113 3641 
L 2113 3513 
Q 2659 3291 3175 2963 
L 2956 2584 
Q 2553 2922 2113 3159 
L 2113 2372 
L 1966 2372 
Q 1928 2288 1872 2141 
Q 1806 1975 1784 1925 
L 3378 1925 
L 3378 1553 
L 2847 1553 
z
M 2419 1553 
L 1613 1553 
Q 1478 1269 1313 997 
Q 1559 909 2047 703 
Q 2313 1047 2419 1553 
z
M 4363 1163 
Q 3953 1781 3738 2638 
Q 3575 2281 3428 2016 
L 3103 2406 
Q 3675 3444 3916 5291 
L 4363 5200 
Q 4284 4666 4197 4197 
L 6009 4197 
L 6009 3775 
L 5503 3775 
Q 5397 2275 4869 1191 
Q 5419 503 6144 75 
L 5822 -378 
Q 5188 106 4631 788 
Q 4113 34 3341 -463 
L 3031 -78 
Q 3888 406 4363 1163 
z
M 4588 1594 
Q 4938 2388 5059 3775 
L 4100 3775 
Q 4041 3519 3972 3288 
Q 3981 3250 3991 3194 
Q 4175 2256 4588 1594 
z
M 1003 4116 
Q 878 4544 638 4934 
L 1053 5094 
Q 1247 4788 1438 4269 
L 1003 4116 
z
M 2316 4269 
Q 2550 4688 2688 5131 
L 3128 4997 
Q 2966 4588 2675 4128 
L 2316 4269 
z
" transform="scale(0.015625)"/>
      <path id="IPAexGothic-306e" d="M 3119 469 
Q 5275 766 5275 2425 
Q 5275 3453 4413 3925 
Q 4041 4116 3547 4159 
Q 3394 2525 2850 1400 
Q 2322 306 1722 306 
Q 1384 306 1084 666 
Q 609 1244 609 2003 
Q 609 3025 1397 3794 
Q 2184 4563 3431 4563 
Q 4306 4563 4928 4122 
Q 5813 3506 5813 2425 
Q 5813 438 3431 6 
L 3119 469 
z
M 3053 4147 
Q 2378 4044 1891 3641 
Q 1097 2981 1097 1991 
Q 1097 1366 1434 978 
Q 1581 813 1719 813 
Q 2022 813 2416 1625 
Q 2909 2638 3053 4147 
z
" transform="scale(0.015625)"/>
      <path id="IPAexGothic-63a8" d="M 3244 4063 
L 4244 4063 
Q 4481 4578 4653 5228 
L 5125 5100 
Q 4913 4484 4691 4063 
L 5906 4063 
L 5906 3666 
L 4647 3666 
L 4647 2822 
L 5747 2822 
L 5747 2438 
L 4647 2438 
L 4647 1594 
L 5747 1594 
L 5747 1216 
L 4647 1216 
L 4647 319 
L 6047 319 
L 6047 -91 
L 3244 -91 
L 3244 -481 
L 2816 -481 
L 2816 3188 
L 2791 3128 
Q 2581 2744 2366 2463 
L 2084 2797 
Q 2813 3728 3166 5284 
L 3616 5144 
Q 3431 4500 3244 4063 
z
M 3244 319 
L 4231 319 
L 4231 1216 
L 3244 1216 
L 3244 319 
z
M 3244 1594 
L 4231 1594 
L 4231 2438 
L 3244 2438 
L 3244 1594 
z
M 3244 2822 
L 4231 2822 
L 4231 3666 
L 3244 3666 
L 3244 2822 
z
M 1184 4084 
L 1184 5313 
L 1613 5313 
L 1613 4084 
L 2328 4084 
L 2328 3669 
L 1613 3669 
L 1613 2241 
Q 1997 2341 2334 2453 
L 2359 2069 
Q 1809 1884 1631 1831 
L 1613 1825 
L 1613 44 
Q 1613 -197 1522 -294 
Q 1413 -403 1081 -403 
Q 738 -403 519 -366 
L 441 97 
Q 741 38 978 38 
Q 1184 38 1184 219 
L 1184 1703 
L 1147 1697 
Q 734 1581 409 1509 
L 275 1941 
Q 722 2022 1138 2119 
Q 1147 2122 1166 2125 
Q 1178 2128 1184 2131 
L 1184 3669 
L 372 3669 
L 372 4084 
L 1184 4084 
z
" transform="scale(0.015625)"/>
      <path id="IPAexGothic-79fb" d="M 4691 2419 
L 5844 2419 
L 6069 2188 
Q 5503 1156 4763 513 
Q 4081 -75 2975 -469 
L 2681 -97 
Q 3684 194 4384 728 
Q 4097 1056 3731 1356 
Q 3381 1053 2919 819 
L 2669 1150 
Q 3853 1772 4500 2878 
L 4909 2772 
Q 4772 2528 4691 2419 
z
M 4409 2034 
Q 4219 1803 4000 1588 
Q 4375 1341 4703 1009 
Q 5219 1488 5497 2034 
L 4409 2034 
z
M 1350 2328 
Q 1009 1334 513 659 
L 263 1081 
Q 966 2022 1266 3128 
L 366 3128 
L 366 3531 
L 1350 3531 
L 1350 4400 
Q 919 4322 575 4266 
L 366 4644 
Q 1506 4809 2378 5144 
L 2700 4747 
Q 2238 4600 1784 4491 
L 1784 3531 
L 2616 3531 
L 2616 3128 
L 1784 3128 
L 1784 2688 
Q 2306 2266 2719 1803 
L 2444 1356 
Q 2106 1838 1784 2181 
L 1784 -450 
L 1350 -450 
L 1350 2328 
z
M 4275 4800 
L 5491 4800 
L 5709 4609 
Q 4763 2809 2875 2047 
L 2606 2388 
Q 3534 2722 4134 3244 
Q 3869 3519 3450 3794 
Q 3184 3569 2859 3359 
L 2591 3666 
Q 3578 4259 4056 5288 
L 4481 5191 
Q 4406 5034 4275 4800 
z
M 4019 4416 
Q 3856 4194 3700 4038 
Q 4128 3759 4372 3553 
L 4416 3513 
Q 4884 3991 5119 4416 
L 4019 4416 
z
" transform="scale(0.015625)"/>
     </defs>
     <use xlink:href="#IPAexGothic-9ce5"/>
     <use xlink:href="#IPAexGothic-53d6" x="100"/>
     <use xlink:href="#IPAexGothic-770c" x="200"/>
     <use xlink:href="#IPAexGothic-20" x="300"/>
     <use xlink:href="#IPAexGothic-30b3" x="327.001953"/>
     <use xlink:href="#IPAexGothic-30ed" x="427.001953"/>
     <use xlink:href="#IPAexGothic-30ca" x="527.001953"/>
     <use xlink:href="#IPAexGothic-30a6" x="627.001953"/>
     <use xlink:href="#IPAexGothic-30a4" x="727.001953"/>
     <use xlink:href="#IPAexGothic-30eb" x="827.001953"/>
     <use xlink:href="#IPAexGothic-30b9" x="927.001953"/>
     <use xlink:href="#IPAexGothic-967d" x="1027.001953"/>
     <use xlink:href="#IPAexGothic-6027" x="1127.001953"/>
     <use xlink:href="#IPAexGothic-8005" x="1227.001953"/>
     <use xlink:href="#IPAexGothic-6570" x="1327.001953"/>
     <use xlink:href="#IPAexGothic-306e" x="1427.001953"/>
     <use xlink:href="#IPAexGothic-63a8" x="1527.001953"/>
     <use xlink:href="#IPAexGothic-79fb" x="1627.001953"/>
    </g>
    <!-- ___:15822022/12/21 -->
    <g transform="translate(39.39375 29.676) scale(0.12 -0.12)">
     <defs>
      <path id="IPAexGothic-5f" d="M 3200 -750 
L 0 -750 
L 0 -431 
L 3200 -431 
L 3200 -750 
z
" transform="scale(0.015625)"/>
      <path id="IPAexGothic-6700" d="M 5106 5050 
L 5106 3275 
L 1284 3275 
L 1284 5050 
L 5106 5050 
z
M 1741 4697 
L 1741 4331 
L 4656 4331 
L 4656 4697 
L 1741 4697 
z
M 1741 4000 
L 1741 3622 
L 4656 3622 
L 4656 4000 
L 1741 4000 
z
M 2925 2528 
L 2925 -450 
L 2503 -450 
L 2503 228 
Q 1869 94 525 -78 
L 409 356 
Q 491 363 609 372 
Q 725 381 756 381 
L 994 403 
L 994 2528 
L 384 2528 
L 384 2900 
L 6016 2900 
L 6016 2528 
L 2925 2528 
z
M 2503 2528 
L 1400 2528 
L 1400 2088 
L 2503 2088 
L 2503 2528 
z
M 2503 1763 
L 1400 1763 
L 1400 1309 
L 2503 1309 
L 2503 1763 
z
M 2503 984 
L 1400 984 
L 1400 434 
L 1759 472 
Q 2159 500 2503 550 
L 2503 984 
z
M 4844 588 
Q 5350 225 6047 -9 
L 5753 -419 
Q 5066 -128 4556 288 
Q 4000 -241 3281 -534 
L 3006 -163 
Q 3734 84 4263 563 
Q 3722 1141 3463 1803 
L 3084 1803 
L 3084 2169 
L 5425 2169 
L 5656 1963 
Q 5328 1178 4881 638 
L 4844 588 
z
M 4538 850 
Q 4884 1275 5119 1803 
L 3872 1803 
Q 4113 1275 4538 850 
z
" transform="scale(0.015625)"/>
      <path id="IPAexGothic-9ad8" d="M 4481 1588 
L 4481 366 
L 2319 366 
L 2319 0 
L 1891 0 
L 1891 1588 
L 4481 1588 
z
M 4053 1247 
L 2319 1247 
L 2319 706 
L 4053 706 
L 4053 1247 
z
M 3419 4641 
L 5916 4641 
L 5916 4263 
L 481 4263 
L 481 4641 
L 2938 4641 
L 2938 5313 
L 3419 5313 
L 3419 4641 
z
M 4884 3878 
L 4884 2694 
L 1513 2694 
L 1513 3878 
L 4884 3878 
z
M 1959 3531 
L 1959 3041 
L 4438 3041 
L 4438 3531 
L 1959 3531 
z
M 5684 2309 
L 5684 103 
Q 5684 -378 5091 -378 
Q 4697 -378 4316 -353 
L 4253 109 
Q 4706 44 5006 44 
Q 5231 44 5231 250 
L 5231 1944 
L 1166 1944 
L 1166 -447 
L 713 -447 
L 713 2309 
L 5684 2309 
z
" transform="scale(0.015625)"/>
      <path id="IPAexGothic-611f" d="M 3575 4525 
Q 3519 4872 3478 5313 
L 3928 5313 
Q 3959 4891 4009 4538 
L 4869 4538 
Q 4697 4850 4453 5106 
L 4803 5294 
Q 5081 5025 5266 4703 
L 4956 4538 
L 5931 4538 
L 5931 4166 
L 4075 4166 
Q 4216 3400 4528 2872 
Q 4794 3322 5003 3934 
L 5394 3750 
Q 5153 3072 4784 2491 
Q 4809 2450 4828 2425 
Q 5203 1944 5394 1944 
Q 5534 1944 5609 2766 
L 6013 2481 
Q 5841 1400 5534 1400 
Q 5166 1400 4516 2119 
Q 4141 1647 3672 1294 
L 3350 1613 
Q 3850 1941 4253 2463 
Q 3859 3078 3641 4153 
L 1297 4153 
L 1297 3494 
Q 1297 2631 1169 2100 
Q 1056 1622 747 1209 
L 409 1547 
Q 744 1978 813 2631 
Q 844 2972 844 3403 
L 844 4525 
L 3575 4525 
z
M 3372 3097 
L 3372 1884 
L 2034 1884 
L 2034 1597 
L 1638 1597 
L 1638 3097 
L 3372 3097 
z
M 2034 2772 
L 2034 2209 
L 2975 2209 
L 2975 2772 
L 2034 2772 
z
M 1509 3775 
L 3525 3775 
L 3525 3428 
L 1509 3428 
L 1509 3775 
z
M 409 -25 
Q 909 466 1159 1131 
L 1581 991 
Q 1297 188 794 -347 
L 409 -25 
z
M 2009 1281 
L 2478 1281 
L 2478 359 
Q 2478 156 2606 106 
Q 2741 63 3334 63 
Q 4156 63 4278 172 
Q 4369 266 4378 738 
L 4822 603 
Q 4813 -38 4622 -200 
Q 4434 -359 3303 -359 
Q 2431 -359 2241 -269 
Q 2009 -163 2009 147 
L 2009 1281 
z
M 5734 -147 
Q 5250 569 4684 1056 
L 5044 1306 
Q 5650 813 6138 159 
L 5734 -147 
z
M 3444 481 
Q 3131 913 2713 1294 
L 3059 1563 
Q 3513 1188 3822 781 
L 3444 481 
z
" transform="scale(0.015625)"/>
      <path id="IPAexGothic-67d3" d="M 3403 1394 
L 3403 -450 
L 2950 -450 
L 2950 1356 
Q 2222 322 631 -294 
L 306 94 
Q 1756 575 2603 1509 
L 397 1509 
L 397 1913 
L 2950 1913 
L 2950 2506 
L 3403 2506 
L 3403 1913 
L 5994 1913 
L 5994 1509 
L 3794 1509 
Q 4572 731 6066 228 
L 5778 -188 
Q 4178 453 3403 1394 
z
M 3750 4538 
L 4766 4538 
L 4766 3034 
Q 4766 2903 4809 2866 
Q 4853 2822 5053 2822 
Q 5338 2822 5366 2938 
Q 5409 3072 5419 3425 
L 5425 3500 
L 5859 3359 
Q 5831 2759 5744 2616 
Q 5628 2413 5003 2413 
Q 4588 2413 4459 2503 
Q 4344 2588 4344 2809 
L 4344 4159 
L 3719 4159 
Q 3719 4116 3713 4078 
Q 3644 2925 2469 2259 
L 2150 2597 
Q 2947 2981 3169 3578 
Q 3259 3819 3291 4141 
L 2350 4141 
L 2350 4519 
L 3316 4519 
L 3316 5313 
L 3750 5313 
L 3750 4538 
z
M 1728 4197 
Q 1347 4541 934 4794 
L 1197 5094 
Q 1478 4934 2016 4525 
L 1728 4197 
z
M 613 2438 
Q 1478 2959 2122 3659 
L 2347 3328 
Q 1788 2709 894 2081 
L 613 2438 
z
M 1356 3347 
Q 1066 3625 531 3953 
L 784 4263 
Q 1138 4078 1638 3678 
L 1356 3347 
z
" transform="scale(0.015625)"/>
      <path id="IPAexGothic-3a" d="M 1369 2559 
L 672 2559 
L 672 3250 
L 1369 3250 
L 1369 2559 
z
M 1369 63 
L 672 63 
L 672 753 
L 1369 753 
L 1369 63 
z
" transform="scale(0.015625)"/>
      <path id="IPAexGothic-35" d="M 1178 2603 
Q 1634 2963 2172 2963 
Q 2816 2963 3241 2528 
Q 3638 2113 3638 1497 
Q 3638 938 3297 513 
Q 2869 -31 2031 -31 
Q 959 -31 469 784 
L 938 1028 
Q 1309 434 2013 434 
Q 2466 434 2769 716 
Q 3081 1013 3081 1503 
Q 3081 1966 2806 2241 
Q 2519 2528 2056 2528 
Q 1406 2528 1072 2028 
L 591 2091 
L 884 4634 
L 3406 4634 
L 3406 4153 
L 1341 4153 
L 1134 2603 
L 1178 2603 
z
" transform="scale(0.015625)"/>
      <path id="IPAexGothic-4eba" d="M 3434 5081 
L 3434 4659 
Q 3434 3131 4050 2069 
Q 4669 994 6022 275 
L 5644 -197 
Q 4359 588 3641 1863 
Q 3394 2300 3225 3009 
Q 2822 766 819 -325 
L 441 97 
Q 1856 759 2438 1972 
Q 2919 2959 2919 4634 
L 2919 5081 
L 3434 5081 
z
" transform="scale(0.015625)"/>
      <path id="IPAexGothic-ff08" d="M 5419 -434 
Q 4197 769 4197 2438 
Q 4197 4097 5419 5300 
L 5919 5300 
Q 4678 4078 4678 2425 
Q 4678 788 5919 -434 
L 5419 -434 
z
" transform="scale(0.015625)"/>
      <path id="IPAexGothic-2f" d="M 2719 4709 
L 600 -884 
L 300 -763 
L 2413 4831 
L 2719 4709 
z
" transform="scale(0.015625)"/>
      <path id="IPAexGothic-ff09" d="M 481 -434 
Q 1722 788 1722 2431 
Q 1722 4066 481 5300 
L 981 5300 
Q 2203 4097 2203 2431 
Q 2203 769 981 -434 
L 481 -434 
z
" transform="scale(0.015625)"/>
     </defs>
     <use xlink:href="#IPAexGothic-5f"/>
     <use xlink:href="#IPAexGothic-5f" x="50"/>
     <use xlink:href="#IPAexGothic-5f" x="100"/>
     <use xlink:href="#IPAexGothic-6700" x="150"/>
     <use xlink:href="#IPAexGothic-9ad8" x="250"/>
     <use xlink:href="#IPAexGothic-611f" x="350"/>
     <use xlink:href="#IPAexGothic-67d3" x="450"/>
     <use xlink:href="#IPAexGothic-8005" x="550"/>
     <use xlink:href="#IPAexGothic-6570" x="650"/>
     <use xlink:href="#IPAexGothic-3a" x="750"/>
     <use xlink:href="#IPAexGothic-31" x="781.982422"/>
     <use xlink:href="#IPAexGothic-35" x="844.970703"/>
     <use xlink:href="#IPAexGothic-38" x="907.958984"/>
     <use xlink:href="#IPAexGothic-32" x="970.947266"/>
     <use xlink:href="#IPAexGothic-4eba" x="1033.935547"/>
     <use xlink:href="#IPAexGothic-ff08" x="1133.935547"/>
     <use xlink:href="#IPAexGothic-32" x="1233.935547"/>
     <use xlink:href="#IPAexGothic-30" x="1296.923828"/>
     <use xlink:href="#IPAexGothic-32" x="1359.912109"/>
     <use xlink:href="#IPAexGothic-32" x="1422.900391"/>
     <use xlink:href="#IPAexGothic-2f" x="1485.888672"/>
     <use xlink:href="#IPAexGothic-31" x="1535.888672"/>
     <use xlink:href="#IPAexGothic-32" x="1598.876953"/>
     <use xlink:href="#IPAexGothic-2f" x="1661.865234"/>
     <use xlink:href="#IPAexGothic-32" x="1711.865234"/>
     <use xlink:href="#IPAexGothic-31" x="1774.853516"/>
     <use xlink:href="#IPAexGothic-ff09" x="1837.841797"/>
    </g>
   </g>
   <g id="legend_1">
    <g id="patch_213">
     <path d="M 46.39375 82.066625 
L 118.39375 82.066625 
Q 120.39375 82.066625 120.39375 80.066625 
L 120.39375 66.676 
Q 120.39375 64.676 118.39375 64.676 
L 46.39375 64.676 
Q 44.39375 64.676 44.39375 66.676 
L 44.39375 80.066625 
Q 44.39375 82.066625 46.39375 82.066625 
z
" style="fill: #ffffff; opacity: 0.8; stroke: #cccccc; stroke-linejoin: miter"/>
    </g>
    <g id="patch_214">
     <path d="M 48.39375 76.166625 
L 68.39375 76.166625 
L 68.39375 69.166625 
L 48.39375 69.166625 
z
" style="fill: #3182bd; stroke: #000000; stroke-width: 0.5; stroke-linejoin: miter"/>
    </g>
    <g id="text_19">
     <!--  -->
     <g transform="translate(76.39375 76.166625) scale(0.1 -0.1)">
      <use xlink:href="#IPAexGothic-967d"/>
      <use xlink:href="#IPAexGothic-6027" x="100"/>
      <use xlink:href="#IPAexGothic-8005" x="200"/>
      <use xlink:href="#IPAexGothic-6570" x="300"/>
     </g>
    </g>
   </g>
  </g>
  <g id="axes_2">
   <g id="matplotlib.axis_3">
    <g id="ytick_10">
     <g id="line2d_17">
      <defs>
       <path id="m7a780ab365" d="M 0 0 
L 3.5 0 
" style="stroke: #000000; stroke-width: 0.8"/>
      </defs>
      <g>
       <use xlink:href="#m7a780ab365" x="396.51375" y="120.088278" style="stroke: #000000; stroke-width: 0.8"/>
      </g>
     </g>
     <g id="text_20">
      <!-- 1284 -->
      <g transform="translate(403.51375 123.833591) scale(0.1 -0.1)">
       <use xlink:href="#IPAexGothic-31"/>
       <use xlink:href="#IPAexGothic-32" x="62.988281"/>
       <use xlink:href="#IPAexGothic-38" x="125.976562"/>
       <use xlink:href="#IPAexGothic-34" x="188.964844"/>
      </g>
     </g>
    </g>
   </g>
   <g id="patch_215">
    <path d="M 39.39375 325.788 
L 39.39375 59.676 
" style="fill: none; stroke: #000000; stroke-width: 0.8; stroke-linejoin: miter; stroke-linecap: square"/>
   </g>
   <g id="patch_216">
    <path d="M 396.51375 325.788 
L 396.51375 59.676 
" style="fill: none; stroke: #000000; stroke-width: 0.8; stroke-linejoin: miter; stroke-linecap: square"/>
   </g>
   <g id="patch_217">
    <path d="M 39.39375 325.788 
L 396.51375 325.788 
" style="fill: none; stroke: #000000; stroke-width: 0.8; stroke-linejoin: miter; stroke-linecap: square"/>
   </g>
   <g id="patch_218">
    <path d="M 39.39375 59.676 
L 396.51375 59.676 
" style="fill: none; stroke: #000000; stroke-width: 0.8; stroke-linejoin: miter; stroke-linecap: square"/>
   </g>
  </g>
  <g id="text_21">
   <!-- : 2022/12/23 16:13:58(JST) -->
   <g transform="translate(221.041875 56.22) scale(0.1 -0.1)">
    <defs>
     <path id="IPAexGothic-66f4" d="M 2956 3994 
L 2956 4588 
L 513 4588 
L 513 4984 
L 5881 4984 
L 5881 4588 
L 3413 4588 
L 3413 3994 
L 5300 3994 
L 5300 1288 
L 4838 1288 
L 4838 1759 
L 3406 1759 
Q 3384 1125 3150 709 
Q 4291 244 5997 31 
L 5694 -428 
Q 4109 -166 2906 384 
Q 2294 -266 744 -488 
L 494 -66 
Q 1903 59 2491 588 
Q 2041 813 1594 1166 
L 1928 1434 
Q 2331 1106 2747 897 
Q 2922 1219 2950 1759 
L 1556 1759 
L 1556 1413 
L 1097 1413 
L 1097 3994 
L 2956 3994 
z
M 2956 3609 
L 1556 3609 
L 1556 3078 
L 2956 3078 
L 2956 3609 
z
M 3413 3609 
L 3413 3078 
L 4838 3078 
L 4838 3609 
L 3413 3609 
z
M 2956 2700 
L 1556 2700 
L 1556 2144 
L 2956 2144 
L 2956 2700 
z
M 3413 2700 
L 3413 2144 
L 4838 2144 
L 4838 2700 
L 3413 2700 
z
" transform="scale(0.015625)"/>
     <path id="IPAexGothic-65b0" d="M 3891 2803 
Q 3881 1759 3794 1166 
Q 3653 197 3097 -563 
L 2741 -250 
Q 3450 700 3450 2631 
L 3450 4647 
Q 3516 4656 3622 4666 
Q 4656 4778 5447 5063 
L 5825 4678 
Q 4897 4419 3891 4294 
L 3891 3219 
L 6119 3219 
L 6119 2803 
L 5275 2803 
L 5275 -447 
L 4834 -447 
L 4834 2803 
L 3891 2803 
z
M 2822 4069 
Q 2678 3572 2519 3181 
L 3250 3181 
L 3250 2784 
L 2059 2784 
L 2059 2216 
L 3184 2216 
L 3184 1831 
L 2059 1831 
L 2059 1544 
Q 2613 1197 3031 847 
L 2781 456 
Q 2472 791 2059 1128 
L 2059 -447 
L 1644 -447 
L 1644 1294 
Q 1272 628 575 -31 
L 269 341 
Q 1041 938 1528 1831 
L 453 1831 
L 453 2216 
L 1644 2216 
L 1644 2784 
L 319 2784 
L 319 3181 
L 1125 3181 
Q 1013 3706 881 4069 
L 453 4069 
L 453 4453 
L 1631 4453 
L 1631 5309 
L 2072 5309 
L 2072 4453 
L 3166 4453 
L 3166 4069 
L 2822 4069 
z
M 2391 4069 
L 1325 4069 
Q 1450 3672 1534 3181 
L 2109 3181 
Q 2294 3659 2391 4069 
z
" transform="scale(0.015625)"/>
     <path id="IPAexGothic-65e5" d="M 5231 4800 
L 5231 -288 
L 4744 -288 
L 4744 128 
L 1647 128 
L 1647 -288 
L 1159 -288 
L 1159 4800 
L 5231 4800 
z
M 1647 4372 
L 1647 2731 
L 4744 2731 
L 4744 4372 
L 1647 4372 
z
M 1647 2297 
L 1647 556 
L 4744 556 
L 4744 2297 
L 1647 2297 
z
" transform="scale(0.015625)"/>
     <path id="IPAexGothic-6642" d="M 2328 4728 
L 2328 563 
L 934 563 
L 934 56 
L 519 56 
L 519 4728 
L 2328 4728 
z
M 934 4331 
L 934 2881 
L 1906 2881 
L 1906 4331 
L 934 4331 
z
M 934 2497 
L 934 953 
L 1906 953 
L 1906 2497 
L 934 2497 
z
M 3938 4372 
L 3938 5313 
L 4378 5313 
L 4378 4372 
L 5772 4372 
L 5772 3981 
L 4378 3981 
L 4378 3194 
L 6072 3194 
L 6072 2803 
L 5203 2803 
L 5203 2047 
L 5959 2047 
L 5959 1650 
L 5216 1650 
L 5216 31 
Q 5216 -447 4691 -447 
Q 4394 -447 3888 -391 
L 3784 78 
Q 4272 0 4591 0 
Q 4775 0 4775 172 
L 4775 1650 
L 2581 1650 
L 2581 2047 
L 4763 2047 
L 4763 2803 
L 2538 2803 
L 2538 3194 
L 3938 3194 
L 3938 3981 
L 2716 3981 
L 2716 4372 
L 3938 4372 
z
M 3669 384 
Q 3331 950 2956 1325 
L 3291 1575 
Q 3719 1147 4025 659 
L 3669 384 
z
" transform="scale(0.015625)"/>
     <path id="IPAexGothic-33" d="M 2381 2419 
Q 3506 2216 3506 1278 
Q 3506 716 3128 356 
Q 2709 -31 1944 -31 
Q 797 -31 288 881 
L 756 1131 
Q 1109 441 1938 441 
Q 2425 441 2694 691 
Q 2950 928 2950 1291 
Q 2950 1719 2566 1978 
Q 2216 2213 1644 2213 
L 1363 2213 
L 1363 2669 
L 1656 2669 
Q 2231 2669 2534 2888 
Q 2859 3119 2859 3509 
Q 2859 3934 2494 4138 
Q 2259 4278 1931 4278 
Q 1238 4278 903 3578 
L 434 3803 
Q 897 4725 1938 4725 
Q 2597 4725 3006 4394 
Q 3416 4069 3416 3534 
Q 3416 3028 3019 2706 
Q 2763 2500 2381 2444 
L 2381 2419 
z
" transform="scale(0.015625)"/>
     <path id="IPAexGothic-28" d="M 1928 -1016 
L 1653 -1166 
Q 488 69 488 1875 
Q 488 3678 1653 4909 
L 1928 4763 
Q 1006 3522 1006 1881 
Q 1006 203 1928 -1016 
z
" transform="scale(0.015625)"/>
     <path id="IPAexGothic-54" d="M 3866 4141 
L 2175 4141 
L 2175 63 
L 1606 63 
L 1606 4141 
L -31 4141 
L -31 4634 
L 3866 4634 
L 3866 4141 
z
" transform="scale(0.015625)"/>
     <path id="IPAexGothic-29" d="M 466 4909 
Q 1638 3672 1638 1875 
Q 1638 75 466 -1166 
L 191 -1016 
Q 1119 216 1119 1881 
Q 1119 3509 191 4763 
L 466 4909 
z
" transform="scale(0.015625)"/>
    </defs>
    <use xlink:href="#IPAexGothic-66f4"/>
    <use xlink:href="#IPAexGothic-65b0" x="100"/>
    <use xlink:href="#IPAexGothic-65e5" x="200"/>
    <use xlink:href="#IPAexGothic-6642" x="300"/>
    <use xlink:href="#IPAexGothic-3a" x="400"/>
    <use xlink:href="#IPAexGothic-20" x="431.982422"/>
    <use xlink:href="#IPAexGothic-32" x="458.984375"/>
    <use xlink:href="#IPAexGothic-30" x="521.972656"/>
    <use xlink:href="#IPAexGothic-32" x="584.960938"/>
    <use xlink:href="#IPAexGothic-32" x="647.949219"/>
    <use xlink:href="#IPAexGothic-2f" x="710.9375"/>
    <use xlink:href="#IPAexGothic-31" x="760.9375"/>
    <use xlink:href="#IPAexGothic-32" x="823.925781"/>
    <use xlink:href="#IPAexGothic-2f" x="886.914062"/>
    <use xlink:href="#IPAexGothic-32" x="936.914062"/>
    <use xlink:href="#IPAexGothic-33" x="999.902344"/>
    <use xlink:href="#IPAexGothic-20" x="1062.890625"/>
    <use xlink:href="#IPAexGothic-31" x="1089.892578"/>
    <use xlink:href="#IPAexGothic-36" x="1152.880859"/>
    <use xlink:href="#IPAexGothic-3a" x="1215.869141"/>
    <use xlink:href="#IPAexGothic-31" x="1247.851562"/>
    <use xlink:href="#IPAexGothic-33" x="1310.839844"/>
    <use xlink:href="#IPAexGothic-3a" x="1373.828125"/>
    <use xlink:href="#IPAexGothic-35" x="1405.810547"/>
    <use xlink:href="#IPAexGothic-38" x="1468.798828"/>
    <use xlink:href="#IPAexGothic-28" x="1531.787109"/>
    <use xlink:href="#IPAexGothic-4a" x="1565.087891"/>
    <use xlink:href="#IPAexGothic-53" x="1603.076172"/>
    <use xlink:href="#IPAexGothic-54" x="1661.572266"/>
    <use xlink:href="#IPAexGothic-29" x="1721.484375"/>
   </g>
  </g>
 </g>
 <defs>
  <clipPath id="p5cf1c40fca">
   <rect x="39.39375" y="59.676" width="357.12" height="266.112"/>
  </clipPath>
 </defs>
</svg>
