<?xml version="1.0" encoding="utf-8" standalone="no"?>
<!DOCTYPE svg PUBLIC "-//W3C//DTD SVG 1.1//EN"
  "http://www.w3.org/Graphics/SVG/1.1/DTD/svg11.dtd">
<svg xmlns:xlink="http://www.w3.org/1999/xlink" width="393.759062pt" height="308.582062pt" viewBox="0 0 393.759062 308.582062" xmlns="http://www.w3.org/2000/svg" version="1.1">
 <metadata>
  <rdf:RDF xmlns:dc="http://purl.org/dc/elements/1.1/" xmlns:cc="http://creativecommons.org/ns#" xmlns:rdf="http://www.w3.org/1999/02/22-rdf-syntax-ns#">
   <cc:Work>
    <dc:type rdf:resource="http://purl.org/dc/dcmitype/StillImage"/>
    <dc:date>2023-02-20T07:15:36.232012</dc:date>
    <dc:format>image/svg+xml</dc:format>
    <dc:creator>
     <cc:Agent>
      <dc:title>Matplotlib v3.7.0, https://matplotlib.org/</dc:title>
     </cc:Agent>
    </dc:creator>
   </cc:Work>
  </rdf:RDF>
 </metadata>
 <defs>
  <style type="text/css">*{stroke-linejoin: round; stroke-linecap: butt}</style>
 </defs>
 <g id="figure_1">
  <g id="patch_1">
   <path d="M 0 308.582062 
L 393.759062 308.582062 
L 393.759062 0 
L 0 0 
z
" style="fill: #ffffff"/>
  </g>
  <g id="axes_1">
   <g id="patch_2">
    <path d="M 29.439063 284.991437 
L 386.559062 284.991437 
L 386.559062 18.879437 
L 29.439063 18.879437 
z
" style="fill: #ffffff"/>
   </g>
   <g id="line2d_1">
    <path d="M 29.439063 211.199039 
L 386.559062 211.199039 
" clip-path="url(#pb497a29362)" style="fill: none; stroke: #000000; stroke-linecap: square"/>
   </g>
   <g id="matplotlib.axis_1">
    <g id="xtick_1">
     <g id="line2d_2">
      <defs>
       <path id="me303d2a9f6" d="M 0 0 
L 0 3.5 
" style="stroke: #000000; stroke-width: 0.8"/>
      </defs>
      <g>
       <use xlink:href="#me303d2a9f6" x="29.439062" y="284.991437" style="stroke: #000000; stroke-width: 0.8"/>
      </g>
     </g>
     <g id="text_1">
      <!-- Jun -->
      <g transform="translate(21.499219 299.482062) scale(0.1 -0.1)">
       <defs>
        <path id="IPAexGothic-4a" d="M 1819 4634 
L 1819 1234 
Q 1819 -31 763 -31 
Q 303 -31 -125 209 
L 84 644 
Q 378 447 694 447 
Q 1250 447 1250 1203 
L 1250 4634 
L 1819 4634 
z
" transform="scale(0.015625)"/>
        <path id="IPAexGothic-75" d="M 3284 63 
L 2772 63 
L 2772 644 
Q 2300 0 1625 0 
Q 1072 0 763 375 
Q 519 678 519 1241 
L 519 3250 
L 1069 3250 
L 1069 1259 
Q 1069 466 1734 466 
Q 2406 466 2734 1291 
L 2734 3250 
L 3284 3250 
L 3284 63 
z
" transform="scale(0.015625)"/>
        <path id="IPAexGothic-6e" d="M 3328 63 
L 2778 63 
L 2778 2041 
Q 2778 2853 2106 2853 
Q 1428 2853 1113 2041 
L 1113 63 
L 563 63 
L 563 3250 
L 1075 3250 
L 1075 2675 
Q 1525 3316 2222 3316 
Q 3328 3316 3328 2072 
L 3328 63 
z
" transform="scale(0.015625)"/>
       </defs>
       <use xlink:href="#IPAexGothic-4a"/>
       <use xlink:href="#IPAexGothic-75" x="37.988281"/>
       <use xlink:href="#IPAexGothic-6e" x="98.388672"/>
      </g>
     </g>
    </g>
    <g id="xtick_2">
     <g id="line2d_3">
      <g>
       <use xlink:href="#me303d2a9f6" x="69.867742" y="284.991437" style="stroke: #000000; stroke-width: 0.8"/>
      </g>
     </g>
     <g id="text_2">
      <!-- Jul -->
      <g transform="translate(63.59821 299.482062) scale(0.1 -0.1)">
       <defs>
        <path id="IPAexGothic-6c" d="M 1131 63 
L 581 63 
L 581 4794 
L 1131 4794 
L 1131 63 
z
" transform="scale(0.015625)"/>
       </defs>
       <use xlink:href="#IPAexGothic-4a"/>
       <use xlink:href="#IPAexGothic-75" x="37.988281"/>
       <use xlink:href="#IPAexGothic-6c" x="98.388672"/>
      </g>
     </g>
    </g>
    <g id="xtick_3">
     <g id="line2d_4">
      <g>
       <use xlink:href="#me303d2a9f6" x="111.644044" y="284.991437" style="stroke: #000000; stroke-width: 0.8"/>
      </g>
     </g>
     <g id="text_3">
      <!-- Aug -->
      <g transform="translate(102.662012 299.42425) scale(0.1 -0.1)">
       <defs>
        <path id="IPAexGothic-41" d="M 4056 63 
L 3444 63 
L 2938 1409 
L 1100 1409 
L 603 63 
L -6 63 
L 1806 4666 
L 2259 4666 
L 4056 63 
z
M 2778 1863 
L 2316 3078 
Q 2125 3588 2028 4000 
L 2009 4000 
Q 1897 3563 1716 3078 
L 1263 1863 
L 2778 1863 
z
" transform="scale(0.015625)"/>
        <path id="IPAexGothic-67" d="M 1331 1150 
Q 1006 1122 1006 900 
Q 1006 613 1763 575 
L 2131 556 
Q 3303 497 3303 -294 
Q 3303 -700 2925 -959 
Q 2519 -1253 1794 -1253 
Q 1138 -1253 738 -1028 
Q 353 -809 353 -428 
Q 353 84 1075 247 
L 1075 269 
Q 506 413 506 778 
Q 506 1116 994 1297 
Q 456 1575 456 2181 
Q 456 2650 769 2963 
Q 1128 3322 1738 3322 
Q 2125 3322 2422 3153 
Q 2650 3453 3259 3463 
L 3259 3013 
Q 2838 3003 2703 2938 
Q 3034 2613 3034 2169 
Q 3034 1728 2734 1425 
Q 2400 1094 1813 1094 
Q 1563 1094 1331 1150 
z
M 1734 2919 
Q 1409 2919 1197 2706 
Q 988 2497 988 2181 
Q 988 1872 1184 1684 
Q 1397 1472 1756 1472 
Q 2094 1472 2297 1678 
Q 2503 1881 2503 2203 
Q 2503 2497 2297 2700 
Q 2081 2919 1734 2919 
z
M 1753 159 
Q 903 159 903 -366 
Q 903 -875 1800 -875 
Q 2378 -875 2638 -606 
Q 2772 -481 2772 -313 
Q 2772 159 1753 159 
z
" transform="scale(0.015625)"/>
       </defs>
       <use xlink:href="#IPAexGothic-41"/>
       <use xlink:href="#IPAexGothic-75" x="63.720703"/>
       <use xlink:href="#IPAexGothic-67" x="124.121094"/>
      </g>
     </g>
    </g>
    <g id="xtick_4">
     <g id="line2d_5">
      <g>
       <use xlink:href="#me303d2a9f6" x="153.420346" y="284.991437" style="stroke: #000000; stroke-width: 0.8"/>
      </g>
     </g>
     <g id="text_4">
      <!-- Sep -->
      <g transform="translate(144.545346 299.482062) scale(0.1 -0.1)">
       <defs>
        <path id="IPAexGothic-53" d="M 2919 3641 
Q 2563 4259 1853 4259 
Q 1453 4259 1213 4009 
Q 1028 3803 1028 3534 
Q 1028 3238 1266 3047 
Q 1444 2913 1984 2688 
L 2200 2597 
Q 2925 2306 3191 1953 
Q 3422 1644 3422 1259 
Q 3422 644 2969 288 
Q 2559 -31 1931 -31 
Q 881 -31 313 766 
L 753 1100 
Q 1203 459 1938 459 
Q 2288 459 2534 625 
Q 2841 847 2841 1216 
Q 2841 1503 2616 1728 
Q 2375 1959 1728 2206 
L 1541 2278 
Q 453 2694 453 3481 
Q 453 4006 806 4347 
Q 1203 4725 1863 4725 
Q 2841 4725 3359 3956 
L 2919 3641 
z
" transform="scale(0.015625)"/>
        <path id="IPAexGothic-65" d="M 863 1594 
Q 891 1041 1209 722 
Q 1534 397 1997 397 
Q 2606 397 2963 966 
L 3322 728 
Q 2869 -31 1931 -31 
Q 1222 -31 766 422 
Q 306 884 306 1641 
Q 306 2444 788 2925 
Q 1216 3353 1856 3353 
Q 2459 3353 2866 2956 
Q 3322 2494 3322 1722 
L 3322 1594 
L 863 1594 
z
M 2756 1997 
Q 2709 2431 2450 2681 
Q 2194 2938 1844 2938 
Q 1438 2938 1150 2591 
Q 953 2356 894 1997 
L 2756 1997 
z
" transform="scale(0.015625)"/>
        <path id="IPAexGothic-70" d="M 1075 2688 
Q 1525 3341 2206 3341 
Q 2769 3341 3172 2938 
Q 3641 2469 3641 1644 
Q 3641 841 3178 372 
Q 2775 -31 2200 -31 
Q 1569 -31 1106 497 
L 1106 -1216 
L 563 -1216 
L 563 3250 
L 1075 3250 
L 1075 2688 
z
M 1106 1950 
L 1106 1291 
Q 1106 897 1516 600 
Q 1791 403 2106 403 
Q 2469 403 2725 659 
Q 3066 997 3066 1631 
Q 3066 2200 2784 2559 
Q 2503 2900 2100 2900 
Q 1656 2900 1338 2484 
Q 1106 2184 1106 1950 
z
" transform="scale(0.015625)"/>
       </defs>
       <use xlink:href="#IPAexGothic-53"/>
       <use xlink:href="#IPAexGothic-65" x="58.496094"/>
       <use xlink:href="#IPAexGothic-70" x="115.380859"/>
      </g>
     </g>
    </g>
    <g id="xtick_5">
     <g id="line2d_6">
      <g>
       <use xlink:href="#me303d2a9f6" x="193.849025" y="284.991437" style="stroke: #000000; stroke-width: 0.8"/>
      </g>
     </g>
     <g id="text_5">
      <!-- Oct -->
      <g transform="translate(185.413869 299.482062) scale(0.1 -0.1)">
       <defs>
        <path id="IPAexGothic-4f" d="M 2541 4725 
Q 3456 4725 4044 4138 
Q 4709 3472 4709 2331 
Q 4709 1219 4031 550 
Q 3450 -31 2541 -31 
Q 1638 -31 1056 550 
Q 378 1219 378 2356 
Q 378 3469 1044 4138 
Q 1631 4725 2541 4725 
z
M 2541 4266 
Q 1953 4266 1531 3844 
Q 994 3303 994 2350 
Q 994 1391 1531 863 
Q 1947 447 2541 447 
Q 3131 447 3556 863 
Q 4094 1400 4094 2375 
Q 4094 3297 3550 3844 
Q 3138 4266 2541 4266 
z
" transform="scale(0.015625)"/>
        <path id="IPAexGothic-63" d="M 3269 784 
Q 2834 -31 1900 -31 
Q 1228 -31 788 409 
Q 313 891 313 1663 
Q 313 2428 788 2913 
Q 1222 3347 1881 3347 
Q 2813 3347 3206 2541 
L 2763 2309 
Q 2484 2900 1900 2900 
Q 1516 2900 1234 2619 
Q 881 2266 881 1650 
Q 881 1069 1222 728 
Q 1522 428 1956 428 
Q 2547 428 2847 1016 
L 3269 784 
z
" transform="scale(0.015625)"/>
        <path id="IPAexGothic-74" d="M 2125 241 
Q 1769 -6 1397 -6 
Q 653 -6 653 831 
L 653 2859 
L 219 2859 
L 219 3250 
L 653 3250 
L 653 3966 
L 1178 4228 
L 1178 3250 
L 2063 3250 
L 2063 2859 
L 1178 2859 
L 1178 906 
Q 1178 416 1513 416 
Q 1738 416 1941 588 
L 2125 241 
z
" transform="scale(0.015625)"/>
       </defs>
       <use xlink:href="#IPAexGothic-4f"/>
       <use xlink:href="#IPAexGothic-63" x="79.6875"/>
       <use xlink:href="#IPAexGothic-74" x="134.082031"/>
      </g>
     </g>
    </g>
    <g id="xtick_6">
     <g id="line2d_7">
      <g>
       <use xlink:href="#me303d2a9f6" x="235.625327" y="284.991437" style="stroke: #000000; stroke-width: 0.8"/>
      </g>
     </g>
     <g id="text_6">
      <!-- Nov -->
      <g transform="translate(226.376889 299.482062) scale(0.1 -0.1)">
       <defs>
        <path id="IPAexGothic-4e" d="M 4244 63 
L 3731 63 
L 1697 3150 
Q 1466 3500 1141 4097 
L 1116 4097 
L 1128 3797 
Q 1159 2803 1159 2469 
L 1159 63 
L 609 63 
L 609 4634 
L 1366 4634 
L 3113 1978 
Q 3453 1447 3713 966 
L 3738 966 
Q 3694 1897 3694 2469 
L 3694 4634 
L 4244 4634 
L 4244 63 
z
" transform="scale(0.015625)"/>
        <path id="IPAexGothic-6f" d="M 1919 3341 
Q 2594 3341 3056 2888 
Q 3531 2413 3531 1638 
Q 3531 888 3066 422 
Q 2609 -31 1919 -31 
Q 1228 -31 781 416 
Q 313 881 313 1656 
Q 313 2413 788 2888 
Q 1241 3341 1919 3341 
z
M 1919 2919 
Q 1519 2919 1241 2631 
Q 888 2278 888 1650 
Q 888 1031 1234 684 
Q 1516 403 1919 403 
Q 2331 403 2609 691 
Q 2956 1038 2956 1672 
Q 2956 2269 2603 2631 
Q 2316 2919 1919 2919 
z
" transform="scale(0.015625)"/>
        <path id="IPAexGothic-76" d="M 3103 3250 
L 1747 6 
L 1375 6 
L 25 3250 
L 628 3250 
L 1338 1388 
L 1522 844 
L 1569 703 
L 1588 703 
Q 1641 884 1822 1388 
L 2516 3250 
L 3103 3250 
z
" transform="scale(0.015625)"/>
       </defs>
       <use xlink:href="#IPAexGothic-4e"/>
       <use xlink:href="#IPAexGothic-6f" x="75.976562"/>
       <use xlink:href="#IPAexGothic-76" x="136.376953"/>
      </g>
     </g>
    </g>
    <g id="xtick_7">
     <g id="line2d_8">
      <g>
       <use xlink:href="#me303d2a9f6" x="276.054006" y="284.991437" style="stroke: #000000; stroke-width: 0.8"/>
      </g>
     </g>
     <g id="text_7">
      <!-- Dec -->
      <g transform="translate(266.705568 299.482062) scale(0.1 -0.1)">
       <defs>
        <path id="IPAexGothic-44" d="M 609 4634 
L 1984 4634 
Q 3159 4634 3791 4050 
Q 4456 3444 4456 2356 
Q 4456 1047 3516 441 
Q 2925 63 1941 63 
L 609 63 
L 609 4634 
z
M 1172 556 
L 1894 556 
Q 3853 556 3853 2356 
Q 3853 4147 1928 4147 
L 1172 4147 
L 1172 556 
z
" transform="scale(0.015625)"/>
       </defs>
       <use xlink:href="#IPAexGothic-44"/>
       <use xlink:href="#IPAexGothic-65" x="75.683594"/>
       <use xlink:href="#IPAexGothic-63" x="132.568359"/>
      </g>
     </g>
    </g>
    <g id="xtick_8">
     <g id="line2d_9">
      <g>
       <use xlink:href="#me303d2a9f6" x="317.830308" y="284.991437" style="stroke: #000000; stroke-width: 0.8"/>
      </g>
     </g>
     <g id="text_8">
      <!-- 2023 -->
      <g transform="translate(305.233433 299.482062) scale(0.1 -0.1)">
       <defs>
        <path id="IPAexGothic-32" d="M 3659 63 
L 447 63 
L 447 594 
Q 825 1475 1894 2203 
L 2072 2322 
Q 2619 2697 2791 2906 
Q 2988 3153 2988 3444 
Q 2988 3772 2756 4003 
Q 2500 4259 2084 4259 
Q 1250 4259 991 3328 
L 497 3506 
Q 853 4725 2116 4725 
Q 2806 4725 3216 4316 
Q 3575 3947 3575 3425 
Q 3575 3038 3344 2722 
Q 3131 2416 2366 1938 
L 2231 1856 
Q 1256 1253 978 569 
L 3659 569 
L 3659 63 
z
" transform="scale(0.015625)"/>
        <path id="IPAexGothic-30" d="M 2038 4725 
Q 2881 4725 3334 3944 
Q 3694 3325 3694 2344 
Q 3694 1372 3334 741 
Q 2888 -31 2016 -31 
Q 1147 -31 700 741 
Q 341 1372 341 2350 
Q 341 3713 1000 4334 
Q 1419 4725 2038 4725 
z
M 2016 4266 
Q 1516 4266 1228 3759 
Q 934 3247 934 2344 
Q 934 1456 1222 947 
Q 1513 447 2016 447 
Q 2619 447 2909 1153 
Q 3100 1622 3100 2375 
Q 3100 3256 2806 3759 
Q 2509 4266 2016 4266 
z
" transform="scale(0.015625)"/>
        <path id="IPAexGothic-33" d="M 2381 2419 
Q 3506 2216 3506 1278 
Q 3506 716 3128 356 
Q 2709 -31 1944 -31 
Q 797 -31 288 881 
L 756 1131 
Q 1109 441 1938 441 
Q 2425 441 2694 691 
Q 2950 928 2950 1291 
Q 2950 1719 2566 1978 
Q 2216 2213 1644 2213 
L 1363 2213 
L 1363 2669 
L 1656 2669 
Q 2231 2669 2534 2888 
Q 2859 3119 2859 3509 
Q 2859 3934 2494 4138 
Q 2259 4278 1931 4278 
Q 1238 4278 903 3578 
L 434 3803 
Q 897 4725 1938 4725 
Q 2597 4725 3006 4394 
Q 3416 4069 3416 3534 
Q 3416 3028 3019 2706 
Q 2763 2500 2381 2444 
L 2381 2419 
z
" transform="scale(0.015625)"/>
       </defs>
       <use xlink:href="#IPAexGothic-32"/>
       <use xlink:href="#IPAexGothic-30" x="62.988281"/>
       <use xlink:href="#IPAexGothic-32" x="125.976562"/>
       <use xlink:href="#IPAexGothic-33" x="188.964844"/>
      </g>
     </g>
    </g>
    <g id="xtick_9">
     <g id="line2d_10">
      <g>
       <use xlink:href="#me303d2a9f6" x="359.60661" y="284.991437" style="stroke: #000000; stroke-width: 0.8"/>
      </g>
     </g>
     <g id="text_9">
      <!-- Feb -->
      <g transform="translate(350.783172 299.482062) scale(0.1 -0.1)">
       <defs>
        <path id="IPAexGothic-46" d="M 3469 4141 
L 1172 4141 
L 1172 2656 
L 3206 2656 
L 3206 2188 
L 1172 2188 
L 1172 63 
L 609 63 
L 609 4634 
L 3469 4634 
L 3469 4141 
z
" transform="scale(0.015625)"/>
        <path id="IPAexGothic-62" d="M 1125 2731 
Q 1550 3341 2219 3341 
Q 2788 3341 3191 2938 
Q 3659 2469 3659 1644 
Q 3659 838 3191 372 
Q 2788 -31 2206 -31 
Q 1559 -31 1088 516 
L 1009 44 
L 581 44 
L 581 4794 
L 1125 4794 
L 1125 2731 
z
M 1125 1997 
L 1125 1253 
Q 1125 888 1528 600 
Q 1803 403 2119 403 
Q 2488 403 2744 659 
Q 3084 1009 3084 1631 
Q 3084 2194 2803 2553 
Q 2525 2900 2125 2900 
Q 1759 2900 1438 2578 
Q 1125 2266 1125 1997 
z
" transform="scale(0.015625)"/>
       </defs>
       <use xlink:href="#IPAexGothic-46"/>
       <use xlink:href="#IPAexGothic-65" x="57.177734"/>
       <use xlink:href="#IPAexGothic-62" x="114.0625"/>
      </g>
     </g>
    </g>
   </g>
   <g id="matplotlib.axis_2">
    <g id="ytick_1">
     <g id="line2d_11">
      <defs>
       <path id="m51f310b73c" d="M 0 0 
L -3.5 0 
" style="stroke: #000000; stroke-width: 0.8"/>
      </defs>
      <g>
       <use xlink:href="#m51f310b73c" x="29.439063" y="269.014637" style="stroke: #000000; stroke-width: 0.8"/>
      </g>
     </g>
     <g id="text_10">
      <!-- 0.5 -->
      <g transform="translate(7.2 272.759949) scale(0.1 -0.1)">
       <defs>
        <path id="IPAexGothic-2e" d="M 1184 63 
L 494 63 
L 494 753 
L 1184 753 
L 1184 63 
z
" transform="scale(0.015625)"/>
        <path id="IPAexGothic-35" d="M 1178 2603 
Q 1634 2963 2172 2963 
Q 2816 2963 3241 2528 
Q 3638 2113 3638 1497 
Q 3638 938 3297 513 
Q 2869 -31 2031 -31 
Q 959 -31 469 784 
L 938 1028 
Q 1309 434 2013 434 
Q 2466 434 2769 716 
Q 3081 1013 3081 1503 
Q 3081 1966 2806 2241 
Q 2519 2528 2056 2528 
Q 1406 2528 1072 2028 
L 591 2091 
L 884 4634 
L 3406 4634 
L 3406 4153 
L 1341 4153 
L 1134 2603 
L 1178 2603 
z
" transform="scale(0.015625)"/>
       </defs>
       <use xlink:href="#IPAexGothic-30"/>
       <use xlink:href="#IPAexGothic-2e" x="62.988281"/>
       <use xlink:href="#IPAexGothic-35" x="89.404297"/>
      </g>
     </g>
    </g>
    <g id="ytick_2">
     <g id="line2d_12">
      <g>
       <use xlink:href="#m51f310b73c" x="29.439063" y="211.199039" style="stroke: #000000; stroke-width: 0.8"/>
      </g>
     </g>
     <g id="text_11">
      <!-- 1.0 -->
      <g transform="translate(7.2 214.944352) scale(0.1 -0.1)">
       <defs>
        <path id="IPAexGothic-31" d="M 2463 63 
L 1900 63 
L 1900 4103 
Q 1372 3922 788 3797 
L 684 4231 
Q 1519 4441 2106 4731 
L 2463 4731 
L 2463 63 
z
" transform="scale(0.015625)"/>
       </defs>
       <use xlink:href="#IPAexGothic-31"/>
       <use xlink:href="#IPAexGothic-2e" x="62.988281"/>
       <use xlink:href="#IPAexGothic-30" x="89.404297"/>
      </g>
     </g>
    </g>
    <g id="ytick_3">
     <g id="line2d_13">
      <g>
       <use xlink:href="#m51f310b73c" x="29.439063" y="153.383442" style="stroke: #000000; stroke-width: 0.8"/>
      </g>
     </g>
     <g id="text_12">
      <!-- 1.5 -->
      <g transform="translate(7.2 157.128754) scale(0.1 -0.1)">
       <use xlink:href="#IPAexGothic-31"/>
       <use xlink:href="#IPAexGothic-2e" x="62.988281"/>
       <use xlink:href="#IPAexGothic-35" x="89.404297"/>
      </g>
     </g>
    </g>
    <g id="ytick_4">
     <g id="line2d_14">
      <g>
       <use xlink:href="#m51f310b73c" x="29.439063" y="95.567844" style="stroke: #000000; stroke-width: 0.8"/>
      </g>
     </g>
     <g id="text_13">
      <!-- 2.0 -->
      <g transform="translate(7.2 99.313157) scale(0.1 -0.1)">
       <use xlink:href="#IPAexGothic-32"/>
       <use xlink:href="#IPAexGothic-2e" x="62.988281"/>
       <use xlink:href="#IPAexGothic-30" x="89.404297"/>
      </g>
     </g>
    </g>
    <g id="ytick_5">
     <g id="line2d_15">
      <g>
       <use xlink:href="#m51f310b73c" x="29.439063" y="37.752247" style="stroke: #000000; stroke-width: 0.8"/>
      </g>
     </g>
     <g id="text_14">
      <!-- 2.5 -->
      <g transform="translate(7.2 41.497559) scale(0.1 -0.1)">
       <use xlink:href="#IPAexGothic-32"/>
       <use xlink:href="#IPAexGothic-2e" x="62.988281"/>
       <use xlink:href="#IPAexGothic-35" x="89.404297"/>
      </g>
     </g>
    </g>
   </g>
   <g id="line2d_16">
    <path d="M 29.439062 227.411867 
L 30.786685 255.471758 
L 32.134308 269.405805 
L 33.48193 242.945807 
L 34.829553 262.441258 
L 37.524798 251.639145 
L 38.872421 227.514621 
L 40.220044 229.940841 
L 41.567666 194.078383 
L 42.915289 246.403784 
L 44.262912 250.411663 
L 45.610534 205.84664 
L 46.958157 249.191321 
L 48.305779 272.895437 
L 49.653402 243.090535 
L 51.001025 247.559579 
L 52.348647 238.429093 
L 53.69627 112.810292 
L 55.043893 184.323192 
L 56.391515 181.498781 
L 57.739138 30.975437 
L 60.434383 168.571026 
L 61.782006 110.868109 
L 63.129629 213.126183 
L 64.477251 156.293505 
L 65.824874 124.518024 
L 67.172496 151.875457 
L 68.520119 236.751655 
L 69.867742 106.655378 
L 71.215364 51.387485 
L 72.562987 102.788184 
L 73.91061 95.926279 
L 75.258232 36.542983 
L 76.605855 79.37836 
L 77.953478 35.439549 
L 79.3011 110.396771 
L 80.648723 116.980214 
L 81.996346 109.726148 
L 83.343968 177.160719 
L 84.691591 110.814502 
L 86.039213 153.702013 
L 87.386836 148.460822 
L 88.734459 164.812112 
L 90.082081 190.526245 
L 91.429704 181.526351 
L 92.777327 197.096587 
L 94.124949 219.976945 
L 95.472572 163.710275 
L 96.820195 173.022011 
L 98.167817 196.817697 
L 99.51544 179.527296 
L 100.863062 191.661352 
L 102.210685 192.887858 
L 103.558308 173.15897 
L 104.90593 188.50237 
L 106.253553 201.809366 
L 107.601176 195.197746 
L 108.948798 183.412435 
L 110.296421 192.046725 
L 111.644044 204.737627 
L 112.991666 199.025674 
L 114.339289 189.016626 
L 115.686912 185.809755 
L 117.034534 182.941981 
L 118.382157 200.02008 
L 119.729779 192.032303 
L 121.077402 181.775482 
L 122.425025 186.871327 
L 123.772647 193.9839 
L 125.12027 204.601463 
L 126.467893 225.669065 
L 127.815515 207.989558 
L 129.163138 218.057369 
L 130.510761 204.232725 
L 131.858383 217.282458 
L 133.206006 202.720535 
L 134.553629 195.141529 
L 135.901251 153.461242 
L 137.248874 171.531238 
L 138.596496 185.828914 
L 139.944119 204.950127 
L 141.291742 187.736367 
L 142.639364 211.671324 
L 143.986987 216.92144 
L 145.33461 231.587854 
L 146.682232 248.509599 
L 148.029855 240.826108 
L 149.377478 241.29957 
L 150.7251 247.072575 
L 152.072723 251.367839 
L 153.420346 251.669425 
L 154.767968 251.785215 
L 156.115591 242.900107 
L 157.463213 251.663262 
L 158.810836 241.186243 
L 160.158459 228.929625 
L 161.506081 240.670472 
L 162.853704 239.689961 
L 164.201327 228.587222 
L 165.548949 234.114512 
L 166.896572 220.053728 
L 168.244195 221.634093 
L 169.591817 247.789493 
L 170.93944 250.578039 
L 172.287062 230.847867 
L 173.634685 240.571341 
L 174.982308 229.667605 
L 176.32993 228.965012 
L 177.677553 226.507 
L 179.025176 266.267581 
L 180.372798 173.994674 
L 181.720421 228.352097 
L 183.068044 212.968149 
L 184.415666 243.863512 
L 185.763289 195.951487 
L 187.110912 187.500784 
L 188.458534 195.32975 
L 189.806157 238.855842 
L 191.153779 224.563828 
L 192.501402 239.674853 
L 193.849025 205.067187 
L 195.196647 219.657973 
L 196.54427 258.893645 
L 197.891893 189.095647 
L 199.239515 231.988543 
L 200.587138 230.452082 
L 201.934761 208.848889 
L 203.282383 214.413367 
L 204.630006 237.774657 
L 205.977629 208.216448 
L 207.325251 269.328924 
L 208.672874 186.857034 
L 210.020496 168.652783 
L 211.368119 211.199039 
L 212.715742 197.903063 
L 214.063364 190.42842 
L 215.410987 209.746404 
L 216.75861 135.123595 
L 218.106232 212.926136 
L 219.453855 239.34414 
L 220.801478 184.631705 
L 222.1491 193.892671 
L 223.496723 220.351516 
L 224.844346 197.002011 
L 226.191968 191.634272 
L 227.539591 213.253557 
L 228.887213 183.049443 
L 230.234836 199.198481 
L 231.582459 190.346771 
L 232.930081 160.309806 
L 234.277704 189.784075 
L 235.625327 198.104074 
L 236.972949 152.110827 
L 238.320572 152.9204 
L 239.668195 232.748365 
L 241.015817 165.024121 
L 242.36344 194.085734 
L 243.711062 199.838398 
L 245.058685 173.564927 
L 246.406308 209.205445 
L 247.75393 206.690562 
L 249.101553 156.249641 
L 250.449176 220.402577 
L 251.796798 215.284532 
L 253.144421 225.924092 
L 254.492044 188.099011 
L 255.839666 185.511636 
L 257.187289 211.199039 
L 258.534912 194.160213 
L 259.882534 184.55213 
L 261.230157 182.799057 
L 263.925402 203.930102 
L 265.273025 168.757197 
L 266.620647 220.491359 
L 267.96827 171.577359 
L 270.663515 192.11637 
L 272.011138 204.402838 
L 273.358761 198.987955 
L 274.706383 181.777237 
L 276.054006 142.696764 
L 277.401629 213.580923 
L 278.749251 220.529523 
L 280.096874 204.080643 
L 281.444496 205.292279 
L 282.792119 181.962456 
L 284.139742 194.793532 
L 285.487364 197.432704 
L 286.834987 173.295964 
L 288.18261 175.045451 
L 289.530232 167.16196 
L 290.877855 187.120934 
L 292.225478 183.834422 
L 293.5731 173.778001 
L 294.920723 181.23856 
L 296.268346 201.020413 
L 297.615968 187.828789 
L 298.963591 213.66936 
L 300.311213 207.768569 
L 301.658836 207.295129 
L 303.006459 192.832229 
L 304.354081 206.958159 
L 305.701704 188.728128 
L 307.049327 193.851266 
L 308.396949 207.103197 
L 309.744572 215.224404 
L 311.092195 196.113595 
L 312.439817 220.91992 
L 313.78744 200.04709 
L 315.135062 223.444191 
L 316.482685 251.024981 
L 317.830308 228.180558 
L 319.17793 208.755181 
L 320.525553 251.311193 
L 321.873176 254.432046 
L 323.220798 215.74342 
L 324.568421 126.299141 
L 325.916044 90.185267 
L 327.263666 169.01121 
L 328.611289 202.233317 
L 329.958912 208.810336 
L 331.306534 167.736099 
L 332.654157 215.685286 
L 334.001779 255.304956 
L 335.349402 257.151057 
L 336.697025 241.910597 
L 338.044647 230.363911 
L 339.39227 201.639485 
L 340.739893 252.591109 
L 342.087515 261.202922 
L 343.435138 248.191392 
L 344.782761 245.888016 
L 346.130383 248.528538 
L 347.478006 233.937612 
L 348.825629 243.873594 
L 350.173251 245.699396 
L 351.520874 238.379427 
L 352.868496 250.421781 
L 354.216119 242.025158 
L 355.563742 235.679743 
L 356.911364 231.977605 
L 358.258987 268.725993 
L 359.60661 251.010186 
L 360.954232 243.44844 
L 362.301855 231.173865 
L 363.649478 246.470516 
L 364.9971 240.806074 
L 366.344723 205.729567 
L 367.692346 216.74151 
L 369.039968 221.239134 
L 370.387591 222.049942 
L 371.735213 236.243828 
L 373.082836 216.587974 
L 374.430459 250.056764 
L 375.778081 220.887451 
L 377.125704 228.799652 
L 378.473327 253.712581 
L 379.820949 218.850978 
L 381.168572 215.357996 
L 382.516195 237.280047 
L 383.863817 193.27922 
L 385.21144 224.105076 
L 385.21144 224.105076 
" clip-path="url(#pb497a29362)" style="fill: none; stroke: #1f77b4; stroke-width: 1.5; stroke-linecap: square"/>
   </g>
   <g id="line2d_17">
    <path d="M 29.439062 230.929789 
L 30.786685 242.60231 
L 32.134308 262.8168 
L 33.48193 257.425513 
L 34.829553 253.337157 
L 36.177176 259.836211 
L 37.524798 254.434415 
L 38.872421 240.414674 
L 40.220044 228.735232 
L 41.567666 213.41839 
L 42.915289 223.501825 
L 44.262912 248.433331 
L 45.610534 230.677266 
L 46.958157 229.912564 
L 48.305779 262.11981 
L 49.653402 259.625445 
L 51.001025 245.355694 
L 52.348647 243.118728 
L 53.69627 189.281671 
L 55.043893 152.189606 
L 56.391515 182.917915 
L 57.739138 119.473036 
L 59.086761 68.196709 
L 60.434383 137.669929 
L 61.782006 141.957318 
L 63.129629 170.127431 
L 64.477251 187.579679 
L 65.824874 141.084002 
L 67.172496 138.693349 
L 68.520119 201.292679 
L 69.867742 186.000414 
L 71.215364 80.567026 
L 72.562987 78.413733 
L 73.91061 99.383107 
L 75.258232 67.931655 
L 76.605855 58.815077 
L 77.953478 58.306173 
L 79.3011 75.699401 
L 80.648723 113.713912 
L 81.996346 113.383995 
L 83.343968 146.569691 
L 84.691591 147.022086 
L 86.039213 133.443524 
L 87.386836 151.100956 
L 88.734459 156.832948 
L 90.082081 178.224324 
L 91.429704 186.098223 
L 92.777327 189.532009 
L 94.124949 209.091256 
L 95.472572 194.807872 
L 96.820195 168.434555 
L 98.167817 185.419494 
L 99.51544 188.44227 
L 100.863062 185.724694 
L 102.210685 192.276003 
L 103.558308 183.362139 
L 104.90593 181.032368 
L 106.253553 195.324076 
L 107.601176 198.546144 
L 108.948798 189.431392 
L 110.296421 187.79659 
L 111.644044 198.54902 
L 112.991666 201.914295 
L 114.339289 194.115474 
L 115.686912 187.422411 
L 117.034534 184.383085 
L 118.382157 191.750659 
L 119.729779 196.087179 
L 121.077402 186.997904 
L 122.425025 184.346184 
L 123.772647 190.473981 
L 125.12027 199.403219 
L 126.467893 215.633088 
L 127.815515 217.185071 
L 129.163138 213.134848 
L 130.510761 211.351742 
L 131.858383 210.94113 
L 133.206006 210.228598 
L 134.553629 198.987184 
L 135.901251 175.731796 
L 137.248874 162.744798 
L 139.944119 195.737687 
L 141.291742 196.62741 
L 142.639364 200.268399 
L 143.986987 214.327003 
L 145.33461 224.517111 
L 146.682232 240.462163 
L 148.029855 244.757718 
L 149.377478 241.063165 
L 150.7251 244.236496 
L 152.072723 249.249927 
L 153.420346 251.518783 
L 154.767968 251.727342 
L 156.115591 247.466905 
L 157.463213 247.402446 
L 158.810836 246.595581 
L 160.158459 235.262778 
L 161.506081 234.987471 
L 162.853704 240.181603 
L 164.201327 234.304978 
L 165.548949 231.390872 
L 166.896572 227.332189 
L 168.244195 220.846856 
L 169.591817 235.644814 
L 170.93944 249.196285 
L 172.287062 241.279862 
L 173.634685 235.839395 
L 174.982308 235.281663 
L 176.32993 229.316941 
L 177.677553 227.743627 
L 179.025176 248.882551 
L 180.372798 230.621466 
L 181.720421 204.147875 
L 183.068044 220.93913 
L 184.415666 229.635769 
L 185.763289 222.625721 
L 187.110912 191.792225 
L 188.458534 191.471858 
L 189.806157 219.272458 
L 191.153779 231.97864 
L 192.501402 232.42119 
L 193.849025 223.814193 
L 195.196647 212.595296 
L 196.54427 241.501939 
L 197.891893 230.097519 
L 199.239515 212.536835 
L 200.587138 231.223399 
L 201.934761 220.196168 
L 203.282383 211.66473 
L 204.630006 226.773505 
L 205.977629 224.052711 
L 207.325251 244.24423 
L 208.672874 237.116008 
L 210.020496 178.033043 
L 212.715742 204.731901 
L 214.063364 194.218394 
L 215.410987 200.456001 
L 216.75861 177.011185 
L 218.106232 179.059561 
L 219.453855 227.005264 
L 220.801478 215.29372 
L 222.1491 189.34014 
L 223.496723 207.855357 
L 224.844346 209.25497 
L 226.191968 194.345323 
L 227.539591 202.914504 
L 228.887213 199.04078 
L 230.234836 191.364392 
L 231.582459 194.846812 
L 232.930081 176.074523 
L 234.277704 175.764073 
L 235.625327 194.009205 
L 236.972949 176.860376 
L 238.320572 152.516084 
L 239.668195 198.91713 
L 241.015817 203.448625 
L 242.36344 180.273516 
L 243.711062 196.993923 
L 245.058685 187.318791 
L 246.406308 192.562593 
L 247.75393 207.954654 
L 249.101553 183.674736 
L 250.449176 192.091624 
L 251.796798 217.873602 
L 253.144421 220.737602 
L 254.492044 208.513572 
L 255.839666 186.8113 
L 257.187289 198.998945 
L 258.534912 202.972279 
L 259.882534 189.440136 
L 261.230157 183.678277 
L 262.577779 188.335204 
L 263.925402 198.897374 
L 265.273025 187.448754 
L 266.620647 197.179515 
L 267.96827 198.341262 
L 269.315893 176.894581 
L 270.663515 187.16406 
L 272.011138 198.406453 
L 273.358761 201.724689 
L 274.706383 190.654224 
L 276.054006 163.401008 
L 277.401629 182.424595 
L 278.749251 217.110216 
L 280.096874 212.600777 
L 281.444496 204.687964 
L 282.792119 194.139114 
L 284.139742 188.526714 
L 285.487364 196.119779 
L 286.834987 185.880047 
L 288.18261 174.173214 
L 289.530232 171.1536 
L 290.877855 177.474475 
L 292.225478 185.48723 
L 293.5731 178.891638 
L 294.920723 177.554882 
L 296.268346 191.49043 
L 297.615968 194.588989 
L 298.963591 201.412831 
L 300.311213 210.756455 
L 301.658836 207.532084 
L 303.006459 200.270107 
L 304.354081 200.091846 
L 305.701704 198.165608 
L 307.049327 191.313905 
L 308.396949 200.651084 
L 309.744572 211.235099 
L 311.092195 206.046382 
L 312.439817 209.168684 
L 313.78744 210.952529 
L 315.135062 212.341773 
L 316.482685 238.302243 
L 317.830308 240.353858 
L 319.17793 218.904029 
L 320.525553 232.400817 
L 321.873176 252.888083 
L 323.220798 237.150337 
L 324.568421 177.577562 
L 325.916044 108.989297 
L 327.263666 133.576313 
L 328.611289 186.602691 
L 329.958912 205.566408 
L 331.306534 189.803691 
L 332.654157 193.854637 
L 334.001779 237.669294 
L 335.349402 256.234041 
L 336.697025 249.907348 
L 338.044647 236.3212 
L 339.39227 216.936234 
L 340.739893 230.424572 
L 342.087515 257.029702 
L 343.435138 254.991137 
L 344.782761 247.048016 
L 346.130383 247.219224 
L 347.478006 241.544538 
L 348.825629 239.046068 
L 350.173251 244.791574 
L 351.520874 242.11844 
L 352.868496 244.62081 
L 354.216119 246.332876 
L 355.563742 238.909678 
L 356.911364 233.847098 
L 358.258987 252.591834 
L 359.60661 260.456547 
L 360.954232 247.319155 
L 362.301855 237.521782 
L 363.649478 239.155159 
L 364.9971 243.68652 
L 366.344723 224.763671 
L 367.692346 211.366742 
L 369.039968 219.013772 
L 370.387591 221.645319 
L 371.735213 229.405031 
L 373.082836 226.898006 
L 374.430459 234.831969 
L 375.778081 236.643788 
L 377.125704 224.92031 
L 378.473327 242.167574 
L 379.820949 237.975354 
L 381.168572 217.118387 
L 382.516195 226.918474 
L 383.863817 217.470651 
L 385.21144 209.70189 
L 385.21144 209.70189 
" clip-path="url(#pb497a29362)" style="fill: none; stroke: #ff7f0e; stroke-width: 1.5; stroke-linecap: square"/>
   </g>
   <g id="line2d_18">
    <path d="M 29.439062 229.122786 
L 30.786685 239.928401 
L 32.134308 252.698705 
L 33.48193 256.780278 
L 34.829553 259.139403 
L 36.177176 254.622372 
L 37.524798 257.208287 
L 38.872421 246.388486 
L 40.220044 237.055655 
L 41.567666 218.326475 
L 44.262912 233.387372 
L 45.610534 236.234427 
L 46.958157 237.293425 
L 49.653402 256.313321 
L 51.001025 255.822722 
L 52.348647 243.109331 
L 53.69627 212.36467 
L 56.391515 162.563334 
L 57.739138 143.84129 
L 59.086761 113.406318 
L 60.434383 107.256927 
L 61.782006 129.127564 
L 63.129629 169.610337 
L 64.477251 165.645532 
L 65.824874 169.115602 
L 67.172496 144.753156 
L 68.520119 179.647632 
L 69.867742 175.437505 
L 71.215364 150.710969 
L 72.562987 88.208754 
L 73.91061 84.394062 
L 75.258232 80.114816 
L 76.605855 71.804879 
L 77.953478 51.239386 
L 79.3011 76.931758 
L 80.648723 90.291085 
L 81.996346 112.392863 
L 83.343968 137.201801 
L 84.691591 135.362509 
L 86.039213 149.276885 
L 87.386836 138.58476 
L 88.734459 155.795645 
L 90.082081 168.900399 
L 94.124949 200.539182 
L 95.472572 195.575228 
L 96.820195 187.912342 
L 98.167817 178.52472 
L 99.51544 183.482093 
L 100.863062 189.523726 
L 102.210685 188.153999 
L 103.558308 186.18367 
L 104.90593 185.09643 
L 106.253553 188.315827 
L 107.601176 195.281979 
L 108.948798 193.687884 
L 110.296421 190.308761 
L 111.644044 193.689874 
L 112.991666 198.708102 
L 114.339289 197.755094 
L 115.686912 191.402728 
L 117.034534 185.944654 
L 118.382157 189.7987 
L 119.729779 191.844605 
L 121.077402 191.480812 
L 122.425025 186.955724 
L 123.772647 187.634041 
L 125.12027 195.355837 
L 126.467893 208.84012 
L 129.163138 217.476612 
L 130.510761 210.241718 
L 131.858383 213.36349 
L 133.206006 208.263285 
L 134.553629 205.402114 
L 135.901251 185.324114 
L 137.248874 174.344388 
L 138.596496 170.831497 
L 139.944119 188.120092 
L 141.291742 193.123075 
L 142.639364 201.848623 
L 143.986987 206.082407 
L 145.33461 220.402845 
L 146.682232 233.236603 
L 148.029855 240.583648 
L 149.377478 243.620823 
L 150.7251 243.114997 
L 153.420346 250.064959 
L 154.767968 251.607698 
L 156.115591 248.893225 
L 157.463213 248.891095 
L 158.810836 245.382199 
L 161.506081 237.10204 
L 162.853704 236.582508 
L 164.201327 236.477418 
L 165.548949 234.241533 
L 166.896572 227.752305 
L 168.244195 225.467971 
L 169.591817 230.718701 
L 170.93944 240.92208 
L 172.287062 243.507227 
L 173.634685 241.044337 
L 174.982308 233.826969 
L 176.32993 233.222764 
L 177.677553 228.38915 
L 179.025176 242.740121 
L 180.372798 229.269077 
L 181.720421 229.870881 
L 183.068044 207.161383 
L 184.415666 229.209749 
L 185.763289 219.501156 
L 187.110912 212.031087 
L 188.458534 192.98185 
L 189.806157 209.581314 
L 191.153779 221.065989 
L 192.501402 234.616737 
L 193.849025 224.06468 
L 195.196647 222.447011 
L 196.54427 230.764786 
L 197.891893 226.735849 
L 199.239515 230.732013 
L 200.587138 218.850986 
L 201.934761 224.281475 
L 203.282383 218.302399 
L 204.630006 221.123664 
L 205.977629 220.93512 
L 207.325251 242.141688 
L 208.672874 228.364316 
L 210.020496 218.44859 
L 211.368119 190.029585 
L 212.715742 193.727182 
L 214.063364 200.139008 
L 215.410987 199.610689 
L 216.75861 181.624175 
L 218.106232 190.09163 
L 220.801478 214.510045 
L 222.1491 208.573118 
L 223.496723 200.569432 
L 224.844346 204.342327 
L 226.191968 203.652593 
L 227.539591 200.974213 
L 228.887213 196.618162 
L 230.234836 199.093369 
L 231.582459 191.026031 
L 232.930081 184.214067 
L 234.277704 180.790352 
L 235.625327 183.611312 
L 236.972949 181.298308 
L 238.320572 169.270937 
L 239.668195 184.905831 
L 241.015817 188.492178 
L 242.36344 200.403438 
L 243.711062 187.108997 
L 245.058685 189.611924 
L 246.406308 195.033037 
L 247.75393 197.447481 
L 249.101553 192.747876 
L 250.449176 197.145102 
L 251.796798 200.314175 
L 253.144421 220.626045 
L 255.839666 201.295556 
L 257.187289 195.464272 
L 258.534912 197.405968 
L 259.882534 197.113713 
L 261.230157 187.261183 
L 262.577779 187.08549 
L 263.925402 193.741822 
L 265.273025 189.550213 
L 266.620647 199.469935 
L 267.96827 189.152671 
L 269.315893 193.119185 
L 270.663515 182.150609 
L 272.011138 193.164416 
L 273.358761 198.60058 
L 274.706383 195.400607 
L 276.054006 176.246527 
L 277.401629 182.20913 
L 278.749251 196.443074 
L 280.096874 212.928431 
L 281.444496 210.214796 
L 282.792119 197.539344 
L 284.139742 194.357613 
L 286.834987 188.916137 
L 288.18261 182.357292 
L 289.530232 171.871023 
L 290.877855 176.669151 
L 292.225478 179.625281 
L 293.5731 181.687232 
L 294.920723 179.678119 
L 296.268346 185.826618 
L 297.615968 190.280728 
L 298.963591 201.282161 
L 300.311213 203.568241 
L 301.658836 209.613962 
L 303.006459 202.82065 
L 304.354081 202.539923 
L 305.701704 196.411828 
L 307.049327 196.743275 
L 308.396949 196.795762 
L 309.744572 205.708887 
L 311.092195 206.399686 
L 312.439817 211.222913 
L 313.78744 206.203506 
L 315.135062 215.275699 
L 316.482685 227.04317 
L 317.830308 235.049338 
L 319.17793 230.893623 
L 320.525553 231.014516 
L 321.873176 240.403632 
L 323.220798 242.143466 
L 324.568421 209.55923 
L 325.916044 152.790998 
L 327.263666 131.180415 
L 328.611289 159.879638 
L 329.958912 194.434509 
L 331.306534 194.078898 
L 332.654157 199.039398 
L 334.001779 218.686553 
L 335.349402 244.703586 
L 336.697025 251.750355 
L 338.044647 243.877834 
L 339.39227 225.985777 
L 340.739893 230.404356 
L 343.435138 254.199875 
L 344.782761 252.076606 
L 347.478006 243.017663 
L 348.825629 242.328067 
L 350.173251 241.322359 
L 351.520874 242.707579 
L 352.868496 244.981923 
L 354.216119 243.764543 
L 355.563742 242.927891 
L 356.911364 236.657187 
L 358.258987 247.335431 
L 359.60661 252.068319 
L 360.954232 255.212423 
L 362.301855 242.265414 
L 363.649478 240.610269 
L 364.9971 239.708955 
L 366.344723 232.583033 
L 367.692346 222.156768 
L 369.039968 214.756056 
L 370.387591 220.03548 
L 371.735213 226.75576 
L 373.082836 225.307435 
L 374.430459 235.305016 
L 375.778081 230.400667 
L 377.125704 234.101419 
L 378.473327 235.597281 
L 379.820949 235.016415 
L 381.168572 230.998408 
L 382.516195 224.298607 
L 383.863817 216.77092 
L 385.21144 219.728418 
L 385.21144 219.728418 
" clip-path="url(#pb497a29362)" style="fill: none; stroke: #2ca02c; stroke-width: 1.5; stroke-linecap: square"/>
   </g>
   <g id="line2d_19">
    <path d="M 29.439062 221.275211 
L 30.786685 236.505406 
L 32.134308 248.478994 
L 33.48193 250.372301 
L 34.829553 258.240554 
L 36.177176 258.641514 
L 37.524798 253.887849 
L 38.872421 250.742613 
L 40.220044 242.558839 
L 41.567666 227.832517 
L 42.915289 226.152528 
L 44.262912 232.537407 
L 45.610534 227.154092 
L 46.958157 239.663468 
L 48.305779 247.949949 
L 49.653402 246.12502 
L 51.001025 254.219959 
L 52.348647 251.824807 
L 53.69627 220.968504 
L 55.043893 205.919399 
L 56.391515 186.135769 
L 57.739138 136.533121 
L 59.086761 133.903952 
L 60.434383 128.780364 
L 61.782006 108.165345 
L 63.129629 154.661857 
L 64.477251 166.381937 
L 65.824874 156.222628 
L 68.520119 174.127491 
L 69.867742 164.056515 
L 71.215364 151.002816 
L 72.562987 139.788926 
L 73.91061 90.161987 
L 75.258232 73.226844 
L 76.605855 79.930908 
L 77.953478 63.162834 
L 79.3011 67.394559 
L 80.648723 87.608872 
L 81.996346 95.307164 
L 83.343968 130.829051 
L 84.691591 130.923693 
L 87.386836 149.07322 
L 88.734459 145.514995 
L 90.082081 165.230701 
L 91.429704 172.15619 
L 92.777327 183.990017 
L 94.124949 198.107108 
L 95.472572 192.195781 
L 96.820195 190.267628 
L 98.167817 190.194295 
L 99.51544 178.776002 
L 100.863062 185.572177 
L 102.210685 190.372599 
L 103.558308 184.54832 
L 104.90593 186.766963 
L 106.253553 189.473261 
L 107.601176 190.069324 
L 108.948798 192.410021 
L 112.991666 195.044354 
L 114.339289 196.351076 
L 115.686912 194.867136 
L 117.034534 189.335364 
L 118.382157 189.603599 
L 119.729779 190.360547 
L 121.077402 189.394825 
L 122.425025 190.342872 
L 123.772647 188.74688 
L 125.12027 192.084855 
L 126.467893 203.69443 
L 127.815515 208.628052 
L 129.163138 214.390906 
L 130.510761 214.306201 
L 131.858383 212.043229 
L 133.206006 210.791529 
L 134.553629 205.110817 
L 135.901251 194.096195 
L 137.248874 181.995215 
L 138.596496 177.300368 
L 139.944119 180.166067 
L 141.291742 188.02426 
L 142.639364 198.022962 
L 145.33461 213.03684 
L 146.682232 228.256977 
L 148.029855 235.194567 
L 149.377478 240.763189 
L 150.7251 244.49752 
L 152.072723 245.259188 
L 154.767968 250.498685 
L 156.115591 249.519384 
L 157.463213 249.59516 
L 158.810836 247.032432 
L 160.158459 241.548346 
L 161.506081 240.987516 
L 164.201327 234.646856 
L 165.548949 235.892398 
L 168.244195 226.256947 
L 169.591817 231.579139 
L 170.93944 236.122417 
L 172.287062 238.507266 
L 173.634685 242.782759 
L 174.982308 238.331566 
L 176.32993 232.634606 
L 177.677553 231.587191 
L 179.025176 239.646891 
L 180.372798 229.193149 
L 181.720421 229.040635 
L 183.068044 225.896331 
L 184.415666 217.632953 
L 185.763289 221.78581 
L 187.110912 212.266073 
L 188.458534 208.065956 
L 189.806157 206.313066 
L 191.153779 213.521109 
L 192.501402 226.061058 
L 193.849025 227.980673 
L 195.196647 222.980288 
L 196.54427 233.074257 
L 197.891893 221.710038 
L 199.239515 228.075685 
L 200.587138 230.662107 
L 201.934761 216.432907 
L 203.282383 221.898783 
L 204.630006 223.537176 
L 205.977629 218.034898 
L 207.325251 235.927619 
L 208.672874 230.806248 
L 210.020496 215.976432 
L 211.368119 216.679967 
L 212.715742 192.041922 
L 214.063364 192.910047 
L 215.410987 202.612348 
L 216.75861 185.877122 
L 218.106232 190.175906 
L 219.453855 204.536808 
L 220.801478 198.448671 
L 222.1491 209.676726 
L 223.496723 211.634562 
L 224.844346 199.686873 
L 226.191968 201.281933 
L 227.539591 206.126362 
L 228.887213 196.71423 
L 230.234836 197.268091 
L 231.582459 196.960725 
L 232.930081 183.923798 
L 234.277704 185.627441 
L 235.625327 185.325715 
L 236.972949 176.313222 
L 238.320572 174.670499 
L 239.668195 188.327129 
L 241.015817 180.177036 
L 243.711062 200.262414 
L 245.058685 183.839538 
L 246.406308 194.796847 
L 247.75393 198.049398 
L 249.101553 188.189868 
L 250.449176 200.271432 
L 251.796798 201.939318 
L 253.144421 207.269481 
L 254.492044 213.289999 
L 255.839666 204.949238 
L 257.187289 203.848238 
L 258.534912 195.139464 
L 259.882534 194.305696 
L 261.230157 193.674278 
L 262.577779 188.888776 
L 263.925402 191.5016 
L 265.273025 187.892686 
L 266.620647 198.041309 
L 267.96827 193.005785 
L 269.315893 187.405469 
L 270.663515 192.869183 
L 272.011138 188.066754 
L 273.358761 194.64471 
L 274.706383 194.587132 
L 276.054006 183.841066 
L 277.401629 186.599767 
L 278.749251 192.921842 
L 280.096874 198.395901 
L 281.444496 211.065593 
L 284.139742 196.858291 
L 285.487364 195.13317 
L 286.834987 187.209652 
L 288.18261 185.572071 
L 289.530232 178.699715 
L 290.877855 175.832866 
L 292.225478 178.493445 
L 293.5731 178.184745 
L 294.920723 181.575194 
L 296.268346 185.331186 
L 297.615968 186.329848 
L 298.963591 196.546057 
L 300.311213 202.936162 
L 301.658836 204.510717 
L 303.006459 205.626636 
L 304.354081 203.868227 
L 305.701704 199.222196 
L 307.049327 195.776348 
L 308.396949 199.414406 
L 309.744572 201.670223 
L 311.092195 203.378204 
L 312.439817 210.206468 
L 313.78744 208.524885 
L 315.135062 210.766072 
L 316.482685 225.546373 
L 319.17793 229.083162 
L 320.525553 236.464788 
L 321.873176 237.497733 
L 323.220798 234.806213 
L 324.568421 221.777563 
L 325.916044 187.059161 
L 327.263666 156.996009 
L 328.611289 152.052377 
L 329.958912 173.746238 
L 331.306534 188.21243 
L 332.654157 199.845473 
L 334.001779 216.297816 
L 336.697025 244.014071 
L 338.044647 246.895303 
L 339.39227 234.888058 
L 340.739893 233.419403 
L 342.087515 239.247932 
L 343.435138 243.609469 
L 344.782761 252.205565 
L 346.130383 251.204953 
L 347.478006 244.342162 
L 348.825629 243.23247 
L 350.173251 243.18381 
L 351.520874 240.595936 
L 352.868496 244.706237 
L 354.216119 244.25254 
L 355.563742 241.813187 
L 356.911364 240.314936 
L 358.258987 246.039879 
L 359.60661 248.270489 
L 360.954232 250.000714 
L 362.301855 249.838473 
L 363.649478 243.336882 
L 364.9971 240.659262 
L 366.344723 232.232699 
L 367.692346 228.85032 
L 369.039968 221.92811 
L 370.387591 216.625799 
L 371.735213 224.341012 
L 373.082836 224.305296 
L 374.430459 232.157378 
L 375.778081 231.895875 
L 377.125704 230.002881 
L 378.473327 239.449318 
L 379.820949 231.67145 
L 381.168572 230.453386 
L 382.516195 232.608966 
L 383.863817 217.294661 
L 385.21144 218.652145 
L 385.21144 218.652145 
" clip-path="url(#pb497a29362)" style="fill: none; stroke: #d62728; stroke-width: 1.5; stroke-linecap: square"/>
   </g>
   <g id="line2d_20">
    <path d="M 29.439062 222.506149 
L 30.786685 229.225195 
L 32.134308 244.328125 
L 33.48193 247.402355 
L 34.829553 252.954749 
L 36.177176 258.019032 
L 37.524798 257.295259 
L 38.872421 249.2435 
L 40.220044 246.974437 
L 41.567666 234.54074 
L 42.915289 231.861658 
L 44.262912 231.553594 
L 45.610534 227.717781 
L 46.958157 232.012654 
L 48.305779 247.643113 
L 51.001025 246.413994 
L 52.348647 251.305355 
L 53.69627 234.325278 
L 55.043893 214.484016 
L 56.391515 201.387908 
L 57.739138 163.586194 
L 59.086761 129.858474 
L 60.434383 141.397281 
L 61.782006 125.3209 
L 63.129629 134.972888 
L 64.477251 154.989431 
L 65.824874 158.76708 
L 67.172496 155.361922 
L 68.520119 182.873277 
L 69.867742 162.532711 
L 71.215364 145.998895 
L 72.562987 142.271252 
L 73.91061 131.739654 
L 75.258232 80.2958 
L 76.605855 74.469261 
L 77.953478 71.612377 
L 79.3011 73.369884 
L 80.648723 78.170446 
L 81.996346 92.205622 
L 83.343968 114.651386 
L 84.691591 126.98029 
L 86.039213 135.707335 
L 87.386836 141.820322 
L 88.734459 152.338799 
L 90.082081 155.572908 
L 91.429704 168.629853 
L 92.777327 177.501124 
L 94.124949 192.046346 
L 95.472572 191.863517 
L 96.820195 188.562489 
L 98.167817 191.603524 
L 99.51544 188.124556 
L 100.863062 181.447777 
L 102.210685 187.0666 
L 103.558308 187.0915 
L 104.90593 185.34807 
L 106.253553 189.913695 
L 107.601176 190.637736 
L 108.948798 188.763136 
L 111.644044 195.654061 
L 112.991666 195.075047 
L 114.339289 193.860278 
L 115.686912 194.307816 
L 117.034534 192.563919 
L 118.382157 191.542008 
L 121.077402 188.685177 
L 122.425025 188.893792 
L 123.772647 191.078975 
L 125.12027 192.074346 
L 126.467893 199.593102 
L 127.815515 204.565698 
L 129.163138 210.577143 
L 130.510761 212.428944 
L 131.858383 214.907852 
L 133.206006 210.23647 
L 134.553629 207.817891 
L 135.901251 196.188428 
L 137.248874 189.862088 
L 138.596496 182.770205 
L 139.944119 183.291563 
L 141.291742 181.712392 
L 142.639364 193.113415 
L 145.33461 211.463604 
L 148.029855 230.909798 
L 150.7251 242.063784 
L 152.072723 245.919887 
L 153.420346 246.583547 
L 154.767968 248.741635 
L 156.115591 249.036102 
L 157.463213 249.952996 
L 158.810836 247.98217 
L 160.158459 243.701758 
L 161.506081 241.373489 
L 162.853704 240.72956 
L 164.201327 235.993508 
L 166.896572 232.924776 
L 168.244195 229.099784 
L 169.591817 230.988135 
L 170.93944 235.724345 
L 172.287062 235.091221 
L 173.634685 238.923995 
L 174.982308 240.309621 
L 176.32993 236.532871 
L 177.677553 231.439783 
L 179.025176 239.832571 
L 180.372798 229.288225 
L 181.720421 229.025515 
L 183.068044 226.018762 
L 184.415666 229.776904 
L 185.763289 213.604985 
L 187.110912 215.680869 
L 188.458534 209.062995 
L 189.806157 214.984372 
L 191.153779 210.206824 
L 192.501402 219.314815 
L 193.849025 222.17396 
L 195.196647 226.369517 
L 196.54427 231.430807 
L 197.891893 225.577264 
L 199.239515 223.851206 
L 200.587138 228.555607 
L 201.934761 226.648719 
L 203.282383 216.031922 
L 204.630006 225.28565 
L 205.977629 220.640156 
L 207.325251 231.061495 
L 208.672874 227.73105 
L 210.020496 220.726004 
L 211.368119 215.037011 
L 212.715742 213.157231 
L 214.063364 191.720756 
L 215.410987 196.460668 
L 216.75861 191.350375 
L 218.106232 191.757527 
L 219.453855 201.836996 
L 220.801478 200.792232 
L 222.1491 197.550137 
L 223.496723 211.894043 
L 224.844346 208.846332 
L 226.191968 198.115669 
L 227.539591 203.773183 
L 228.887213 201.828184 
L 230.234836 197.214919 
L 231.582459 195.912493 
L 234.277704 185.115566 
L 235.625327 188.215948 
L 236.972949 179.230873 
L 238.320572 171.901027 
L 239.668195 188.619752 
L 241.015817 183.951829 
L 242.36344 183.070739 
L 243.711062 191.957715 
L 245.058685 195.323676 
L 246.406308 189.316525 
L 247.75393 197.266248 
L 249.101553 190.602066 
L 250.449176 195.331172 
L 251.796798 203.427593 
L 253.144421 207.153921 
L 254.492044 203.660003 
L 255.839666 208.209749 
L 257.187289 206.225655 
L 258.534912 201.968952 
L 259.882534 193.086981 
L 261.230157 192.080368 
L 262.577779 193.671134 
L 263.925402 192.037551 
L 265.273025 187.230909 
L 266.620647 195.127704 
L 267.96827 193.136595 
L 269.315893 190.879234 
L 270.663515 188.360647 
L 272.011138 195.259724 
L 273.358761 190.323195 
L 274.706383 192.16594 
L 276.054006 185.535827 
L 277.401629 190.356327 
L 278.749251 194.157665 
L 280.096874 195.231943 
L 281.444496 199.805793 
L 282.792119 205.75506 
L 284.139742 201.980701 
L 285.487364 196.973377 
L 288.18261 184.857416 
L 289.530232 182.068236 
L 290.877855 180.423619 
L 292.225478 177.468219 
L 293.5731 177.562124 
L 294.920723 178.80059 
L 296.268346 185.690961 
L 297.615968 185.834271 
L 300.311213 198.87215 
L 301.658836 203.82049 
L 303.006459 202.259429 
L 304.354081 205.894119 
L 305.701704 200.979192 
L 307.049327 198.165651 
L 308.396949 198.124359 
L 309.744572 202.74615 
L 311.092195 200.578123 
L 312.439817 207.104849 
L 313.78744 208.241904 
L 315.135062 211.671763 
L 316.482685 220.244674 
L 317.830308 226.078778 
L 319.17793 223.863886 
L 320.525553 233.998962 
L 321.873176 240.383726 
L 323.220798 233.517676 
L 324.568421 219.293385 
L 325.916044 203.251104 
L 327.263666 183.622751 
L 328.611289 167.197618 
L 329.958912 165.252998 
L 331.306534 172.562654 
L 332.654157 194.202864 
L 334.001779 213.618043 
L 335.349402 226.041419 
L 336.697025 232.462632 
L 338.044647 241.448056 
L 339.39227 239.391526 
L 340.739893 238.737845 
L 342.087515 239.787062 
L 343.435138 241.114508 
L 344.782761 244.070253 
L 346.130383 251.48424 
L 347.478006 248.029576 
L 348.825629 244.248661 
L 350.173251 243.731784 
L 351.520874 242.244278 
L 352.868496 242.65733 
L 354.216119 244.176889 
L 355.563742 242.605043 
L 356.911364 239.931252 
L 358.258987 246.935916 
L 359.60661 247.059347 
L 360.954232 247.328921 
L 362.301855 246.558014 
L 363.649478 249.176368 
L 364.9971 242.836748 
L 366.344723 234.590488 
L 367.692346 229.319501 
L 369.039968 227.373291 
L 370.387591 221.952487 
L 371.735213 220.862935 
L 373.082836 222.835301 
L 374.430459 230.068009 
L 375.778081 230.003639 
L 377.125704 231.284555 
L 378.473327 235.291923 
L 379.820949 235.670859 
L 381.168572 228.611926 
L 382.516195 231.859133 
L 383.863817 225.800643 
L 385.21144 218.691941 
L 385.21144 218.691941 
" clip-path="url(#pb497a29362)" style="fill: none; stroke: #9467bd; stroke-width: 1.5; stroke-linecap: square"/>
   </g>
   <g id="line2d_21">
    <path d="M 29.439062 221.989476 
L 30.786685 228.904971 
L 32.134308 237.483987 
L 33.48193 244.099331 
L 34.829553 250.133055 
L 37.524798 256.994611 
L 38.872421 253.038847 
L 41.567666 239.915086 
L 42.915289 236.632969 
L 44.262912 235.239876 
L 45.610534 227.68395 
L 46.958157 231.670455 
L 48.305779 240.522 
L 49.653402 246.901912 
L 51.001025 247.094508 
L 52.348647 245.135114 
L 53.69627 236.98727 
L 55.043893 227.417148 
L 56.391515 209.558869 
L 59.086761 154.479575 
L 60.434383 136.912814 
L 61.782006 136.626651 
L 63.129629 143.651398 
L 64.477251 138.702995 
L 65.824874 150.24993 
L 67.172496 157.637623 
L 68.520119 172.805614 
L 69.867742 172.308881 
L 71.215364 147.756838 
L 72.562987 139.424444 
L 73.91061 135.249771 
L 75.258232 118.380389 
L 76.605855 80.14313 
L 77.953478 68.347758 
L 79.3011 78.528388 
L 81.996346 83.731536 
L 83.343968 109.142714 
L 84.691591 114.016671 
L 86.039213 131.704446 
L 87.386836 137.894546 
L 88.734459 145.867244 
L 90.082081 159.375849 
L 91.429704 160.199988 
L 92.777327 173.774933 
L 94.124949 185.603024 
L 95.472572 187.691034 
L 98.167817 189.973888 
L 99.51544 189.661866 
L 100.863062 188.720384 
L 102.210685 183.420157 
L 103.558308 184.839306 
L 104.90593 187.32764 
L 106.253553 188.234936 
L 107.601176 190.808875 
L 108.948798 189.459306 
L 110.296421 189.315904 
L 111.644044 194.488321 
L 112.991666 196.222111 
L 114.339289 194.084129 
L 115.686912 192.551171 
L 117.034534 192.477858 
L 118.382157 193.836383 
L 119.729779 191.623847 
L 121.077402 188.740474 
L 122.425025 188.38451 
L 123.772647 189.755489 
L 125.12027 193.432394 
L 126.467893 198.363082 
L 127.815515 201.032618 
L 129.163138 206.925265 
L 130.510761 209.543013 
L 131.858383 213.252545 
L 133.206006 212.963095 
L 134.553629 207.846519 
L 137.248874 192.369156 
L 138.596496 189.197994 
L 141.291742 184.042107 
L 142.639364 187.198671 
L 146.682232 218.675332 
L 148.029855 224.780796 
L 149.377478 232.725185 
L 152.072723 243.690539 
L 153.420346 246.907814 
L 154.767968 247.474879 
L 156.115591 247.797075 
L 157.463213 249.480254 
L 158.810836 248.556817 
L 160.158459 245.08607 
L 161.506081 243.204053 
L 164.201327 238.815428 
L 166.896572 232.270423 
L 168.244195 231.130882 
L 169.591817 232.49656 
L 170.93944 234.57189 
L 172.287062 234.929153 
L 173.634685 236.028174 
L 174.982308 237.444895 
L 176.32993 238.514573 
L 177.677553 234.934333 
L 179.025176 238.395766 
L 180.372798 231.266365 
L 181.720421 229.132824 
L 183.068044 226.515892 
L 184.415666 229.239417 
L 185.763289 224.817696 
L 187.110912 209.621523 
L 188.458534 212.522123 
L 191.153779 216.641101 
L 192.501402 215.732855 
L 193.849025 217.061613 
L 195.196647 221.758769 
L 196.54427 232.710465 
L 197.891893 225.409058 
L 199.239515 226.675144 
L 200.587138 224.981941 
L 201.934761 225.516094 
L 203.282383 224.706134 
L 204.630006 219.993368 
L 205.977629 222.621729 
L 207.325251 230.960194 
L 208.672874 224.808205 
L 210.020496 219.699069 
L 211.368119 219.194515 
L 212.715742 212.348296 
L 214.063364 209.65087 
L 215.410987 194.907088 
L 216.75861 187.807324 
L 218.106232 195.211158 
L 219.453855 201.189777 
L 220.801478 199.121299 
L 222.1491 199.667689 
L 223.496723 201.664094 
L 224.844346 209.536309 
L 226.191968 206.137929 
L 227.539591 200.771985 
L 228.887213 200.539284 
L 230.234836 201.393693 
L 232.930081 190.557175 
L 234.277704 190.24811 
L 235.625327 187.367939 
L 236.972949 182.763564 
L 238.320572 175.139954 
L 239.668195 184.260041 
L 242.36344 185.693006 
L 243.711062 186.011723 
L 245.058685 189.053189 
L 246.406308 197.746163 
L 247.75393 192.377572 
L 249.101553 191.188962 
L 250.449176 196.093335 
L 251.796798 198.888857 
L 253.144421 207.49831 
L 255.839666 200.805821 
L 257.187289 208.713277 
L 258.534912 204.293783 
L 259.882534 199.221764 
L 261.230157 191.424833 
L 262.577779 192.344692 
L 263.925402 195.438584 
L 265.273025 188.410429 
L 266.620647 193.421343 
L 267.96827 191.466693 
L 269.315893 191.34645 
L 270.663515 191.086209 
L 272.011138 191.173373 
L 273.358761 195.888562 
L 274.706383 188.934661 
L 276.054006 184.957424 
L 278.749251 195.922878 
L 280.096874 195.865522 
L 281.444496 196.964714 
L 282.792119 196.992366 
L 284.139742 203.993471 
L 285.487364 201.233957 
L 286.834987 193.29733 
L 288.18261 188.48751 
L 289.530232 182.050611 
L 290.877855 182.922867 
L 292.225478 180.997684 
L 293.5731 176.85942 
L 294.920723 178.181248 
L 296.268346 182.759312 
L 297.615968 186.049535 
L 298.963591 190.908696 
L 300.311213 194.995539 
L 301.658836 200.316108 
L 303.006459 202.053777 
L 304.354081 203.05515 
L 305.701704 203.188982 
L 307.049327 199.818307 
L 308.396949 199.700281 
L 309.744572 201.146293 
L 311.092195 201.664569 
L 312.439817 204.221356 
L 313.78744 205.956449 
L 315.135062 210.922625 
L 316.482685 219.423925 
L 317.830308 221.610325 
L 319.17793 223.37897 
L 320.525553 229.049003 
L 321.873176 237.766712 
L 323.220798 236.693885 
L 325.916044 204.185953 
L 327.263666 198.109798 
L 329.958912 175.034151 
L 331.306534 165.669523 
L 332.654157 180.766015 
L 334.001779 207.173387 
L 335.349402 222.415569 
L 336.697025 228.878611 
L 338.044647 232.116043 
L 339.39227 235.824645 
L 340.739893 241.744141 
L 342.087515 242.955834 
L 343.435138 241.247706 
L 344.782761 241.929208 
L 346.130383 244.83055 
L 347.478006 248.808845 
L 348.825629 247.351661 
L 350.173251 244.492239 
L 351.520874 242.862764 
L 352.868496 243.66558 
L 354.216119 242.552297 
L 355.563742 242.817807 
L 356.911364 240.92033 
L 358.258987 245.569599 
L 359.60661 247.629856 
L 360.954232 246.468575 
L 362.301855 244.839602 
L 363.649478 246.543437 
L 364.9971 247.840138 
L 366.344723 237.555391 
L 367.692346 231.830536 
L 369.039968 228.017048 
L 370.387591 226.505229 
L 371.735213 224.482092 
L 373.082836 220.162131 
L 374.430459 227.964603 
L 375.778081 228.595117 
L 377.125704 229.804007 
L 378.473327 235.451266 
L 379.820949 232.73684 
L 381.168572 232.56268 
L 382.516195 230.112794 
L 383.863817 226.306774 
L 385.21144 225.520005 
L 385.21144 225.520005 
" clip-path="url(#pb497a29362)" style="fill: none; stroke: #8c564b; stroke-width: 1.5; stroke-linecap: square"/>
   </g>
   <g id="line2d_22">
    <path d="M 29.439062 224.216778 
L 30.786685 227.596136 
L 32.134308 236.094002 
L 33.48193 238.285498 
L 34.829553 247.009287 
L 36.177176 251.173405 
L 37.524798 253.38057 
L 38.872421 253.391419 
L 40.220044 250.111493 
L 41.567666 240.35466 
L 42.915289 240.873149 
L 44.262912 238.743918 
L 45.610534 231.524757 
L 46.958157 231.087585 
L 48.305779 239.084283 
L 49.653402 240.893702 
L 51.001025 246.996197 
L 52.348647 245.910647 
L 53.69627 233.085415 
L 55.043893 230.86679 
L 56.391515 221.875268 
L 57.739138 192.984554 
L 59.086761 172.579527 
L 60.434383 156.56697 
L 61.782006 133.393898 
L 63.129629 150.105108 
L 64.477251 145.513232 
L 65.824874 136.739153 
L 67.172496 150.483069 
L 68.520119 172.207681 
L 69.867742 164.739432 
L 71.215364 159.007124 
L 72.562987 141.932814 
L 73.91061 133.752243 
L 76.605855 113.209754 
L 77.953478 74.203567 
L 79.3011 74.821343 
L 80.648723 84.425418 
L 81.996346 85.512302 
L 83.343968 100.005778 
L 84.691591 109.382331 
L 86.039213 120.19955 
L 87.386836 134.191304 
L 88.734459 141.997781 
L 90.082081 153.047456 
L 91.429704 162.735832 
L 92.777327 166.052801 
L 94.124949 181.433711 
L 95.472572 182.665304 
L 96.820195 185.684395 
L 98.167817 190.052933 
L 99.51544 188.528151 
L 100.863062 189.949308 
L 102.210685 189.323584 
L 103.558308 181.997329 
L 104.90593 185.368481 
L 106.253553 189.494891 
L 107.601176 189.251731 
L 108.948798 189.776067 
L 110.296421 189.831957 
L 111.644044 191.63289 
L 112.991666 195.146246 
L 114.339289 195.216294 
L 115.686912 192.932486 
L 117.034534 191.218756 
L 118.382157 193.58218 
L 119.729779 193.580143 
L 121.077402 190.258975 
L 122.425025 188.474989 
L 123.772647 189.198645 
L 125.12027 191.981943 
L 126.467893 198.601115 
L 127.815515 199.784621 
L 129.163138 203.618883 
L 130.510761 206.544268 
L 131.858383 210.681256 
L 133.206006 211.804545 
L 134.553629 210.573035 
L 135.901251 201.272819 
L 138.596496 191.453746 
L 139.944119 191.567199 
L 141.291742 186.873421 
L 142.639364 188.362043 
L 143.986987 191.892493 
L 146.682232 214.499122 
L 148.029855 222.158824 
L 149.377478 227.322903 
L 150.7251 234.922937 
L 152.072723 240.308315 
L 153.420346 244.880253 
L 154.767968 247.623529 
L 156.115591 246.836933 
L 157.463213 248.36133 
L 158.810836 248.346486 
L 160.158459 246.014508 
L 161.506081 244.469403 
L 162.853704 242.710852 
L 164.201327 239.410904 
L 165.548949 238.158751 
L 166.896572 233.598803 
L 168.244195 230.819473 
L 169.591817 233.710105 
L 170.93944 235.321048 
L 172.287062 234.048867 
L 173.634685 235.757231 
L 174.982308 235.145673 
L 176.32993 236.280027 
L 177.677553 236.891486 
L 179.025176 240.248563 
L 180.372798 231.206691 
L 181.720421 230.855381 
L 183.068044 226.97232 
L 184.415666 229.200263 
L 185.763289 225.060755 
L 187.110912 220.171876 
L 188.458534 207.679122 
L 189.806157 216.719103 
L 191.153779 216.123738 
L 192.501402 220.271379 
L 193.849025 214.26839 
L 195.196647 217.436337 
L 196.54427 228.104504 
L 197.891893 227.449084 
L 199.239515 226.376218 
L 200.587138 227.223636 
L 201.934761 222.819885 
L 203.282383 223.999794 
L 204.630006 226.684388 
L 205.977629 218.385403 
L 207.325251 231.107781 
L 208.672874 225.63427 
L 210.020496 218.212387 
L 211.368119 218.52415 
L 212.715742 216.383034 
L 214.063364 209.44702 
L 215.410987 209.664523 
L 216.75861 187.671964 
L 218.106232 191.709338 
L 219.453855 202.671045 
L 220.801478 198.947973 
L 222.1491 198.387136 
L 223.496723 202.852002 
L 224.844346 201.008475 
L 226.191968 207.131896 
L 227.539591 207.18111 
L 228.887213 198.380668 
L 230.234836 200.348606 
L 231.582459 199.87207 
L 232.930081 191.497092 
L 234.277704 190.446999 
L 235.625327 191.399083 
L 236.972949 182.804438 
L 238.320572 178.836405 
L 239.668195 185.145917 
L 241.015817 181.658839 
L 242.36344 186.284838 
L 243.711062 187.806378 
L 245.058685 184.297498 
L 246.406308 192.130815 
L 247.75393 199.063592 
L 249.101553 187.727666 
L 250.449176 195.808404 
L 251.796798 199.024939 
L 253.144421 203.154815 
L 254.492044 204.902638 
L 255.839666 201.663825 
L 257.187289 202.345891 
L 258.534912 206.736348 
L 262.577779 191.746216 
L 263.925402 194.064329 
L 265.273025 191.922213 
L 266.620647 193.527147 
L 267.96827 190.499864 
L 269.315893 190.157175 
L 270.663515 191.456708 
L 272.011138 193.073793 
L 273.358761 192.318328 
L 274.706383 193.959995 
L 276.054006 183.119016 
L 278.749251 195.385749 
L 280.096874 197.120655 
L 281.444496 197.255697 
L 282.792119 194.920628 
L 284.139742 196.680503 
L 285.487364 203.076989 
L 286.834987 197.57802 
L 288.18261 190.830877 
L 289.530232 185.624953 
L 290.877855 182.786056 
L 292.225478 183.053444 
L 293.5731 179.987536 
L 294.920723 177.492985 
L 296.268346 181.681811 
L 297.615968 183.494688 
L 298.963591 190.37394 
L 300.311213 193.456085 
L 301.658836 196.827227 
L 303.006459 199.273135 
L 304.354081 202.7665 
L 305.701704 201.103242 
L 307.049327 201.896283 
L 308.396949 200.885534 
L 309.744572 202.043694 
L 311.092195 200.439377 
L 312.439817 204.616121 
L 313.78744 203.633554 
L 315.135062 208.62509 
L 316.482685 217.74467 
L 317.830308 220.720925 
L 319.17793 219.863341 
L 320.525553 227.927071 
L 321.873176 233.158476 
L 323.220798 234.910488 
L 324.568421 225.785975 
L 325.916044 207.941713 
L 327.263666 199.687402 
L 328.611289 198.707123 
L 329.958912 190.269042 
L 331.306534 174.012436 
L 332.654157 174.001014 
L 335.349402 216.068495 
L 336.697025 225.453198 
L 338.044647 229.092188 
L 339.39227 228.265121 
L 340.739893 238.433858 
L 342.087515 244.842663 
L 343.435138 243.724589 
L 344.782761 241.926549 
L 346.130383 242.904976 
L 347.478006 243.356351 
L 348.825629 248.122206 
L 350.173251 247.117699 
L 351.520874 243.645552 
L 352.868496 243.986768 
L 354.216119 243.433191 
L 355.563742 241.603178 
L 356.911364 241.348576 
L 358.258987 245.588154 
L 360.954232 247.045601 
L 362.301855 244.443331 
L 364.9971 245.747859 
L 366.344723 242.868152 
L 367.692346 234.842259 
L 369.039968 230.38515 
L 370.387591 227.185875 
L 371.735213 227.958074 
L 373.082836 223.389952 
L 374.430459 225.05755 
L 375.778081 226.98329 
L 377.125704 228.624362 
L 378.473327 233.647225 
L 379.820949 233.246031 
L 381.168572 230.430796 
L 382.516195 233.251507 
L 383.863817 225.549898 
L 385.21144 225.995159 
L 385.21144 225.995159 
" clip-path="url(#pb497a29362)" style="fill: none; stroke: #e377c2; stroke-width: 1.5; stroke-linecap: square"/>
   </g>
   <g id="patch_3">
    <path d="M 29.439063 284.991437 
L 29.439063 18.879437 
" style="fill: none; stroke: #000000; stroke-width: 0.8; stroke-linejoin: miter; stroke-linecap: square"/>
   </g>
   <g id="patch_4">
    <path d="M 386.559062 284.991437 
L 386.559062 18.879437 
" style="fill: none; stroke: #000000; stroke-width: 0.8; stroke-linejoin: miter; stroke-linecap: square"/>
   </g>
   <g id="patch_5">
    <path d="M 29.439062 284.991437 
L 386.559062 284.991437 
" style="fill: none; stroke: #000000; stroke-width: 0.8; stroke-linejoin: miter; stroke-linecap: square"/>
   </g>
   <g id="patch_6">
    <path d="M 29.439062 18.879437 
L 386.559062 18.879437 
" style="fill: none; stroke: #000000; stroke-width: 0.8; stroke-linejoin: miter; stroke-linecap: square"/>
   </g>
   <g id="legend_1">
    <g id="patch_7">
     <path d="M 341.260625 127.613812 
L 379.559062 127.613812 
Q 381.559062 127.613812 381.559062 125.613812 
L 381.559062 25.879437 
Q 381.559062 23.879437 379.559062 23.879437 
L 341.260625 23.879437 
Q 339.260625 23.879437 339.260625 25.879437 
L 339.260625 125.613812 
Q 339.260625 127.613812 341.260625 127.613812 
z
" style="fill: #ffffff; opacity: 0.8; stroke: #cccccc; stroke-linejoin: miter"/>
    </g>
    <g id="line2d_23">
     <path d="M 343.260625 31.870062 
L 353.260625 31.870062 
L 363.260625 31.870062 
" style="fill: none; stroke: #1f77b4; stroke-width: 1.5; stroke-linecap: square"/>
    </g>
    <g id="text_15">
     <!-- 1 -->
     <g transform="translate(371.260625 35.370062) scale(0.1 -0.1)">
      <use xlink:href="#IPAexGothic-31"/>
     </g>
    </g>
    <g id="line2d_24">
     <path d="M 343.260625 46.260687 
L 353.260625 46.260687 
L 363.260625 46.260687 
" style="fill: none; stroke: #ff7f0e; stroke-width: 1.5; stroke-linecap: square"/>
    </g>
    <g id="text_16">
     <!-- 2 -->
     <g transform="translate(371.260625 49.760687) scale(0.1 -0.1)">
      <use xlink:href="#IPAexGothic-32"/>
     </g>
    </g>
    <g id="line2d_25">
     <path d="M 343.260625 60.651312 
L 353.260625 60.651312 
L 363.260625 60.651312 
" style="fill: none; stroke: #2ca02c; stroke-width: 1.5; stroke-linecap: square"/>
    </g>
    <g id="text_17">
     <!-- 3 -->
     <g transform="translate(371.260625 64.151312) scale(0.1 -0.1)">
      <use xlink:href="#IPAexGothic-33"/>
     </g>
    </g>
    <g id="line2d_26">
     <path d="M 343.260625 75.041937 
L 353.260625 75.041937 
L 363.260625 75.041937 
" style="fill: none; stroke: #d62728; stroke-width: 1.5; stroke-linecap: square"/>
    </g>
    <g id="text_18">
     <!-- 4 -->
     <g transform="translate(371.260625 78.541937) scale(0.1 -0.1)">
      <defs>
       <path id="IPAexGothic-34" d="M 3813 1159 
L 3059 1159 
L 3059 63 
L 2547 63 
L 2547 1159 
L 197 1159 
L 197 1672 
L 2456 4678 
L 3059 4678 
L 3059 1634 
L 3813 1634 
L 3813 1159 
z
M 2578 4109 
L 2559 4109 
Q 2278 3656 2003 3284 
L 759 1634 
L 2547 1634 
L 2547 3144 
Q 2547 3481 2578 4109 
z
" transform="scale(0.015625)"/>
      </defs>
      <use xlink:href="#IPAexGothic-34"/>
     </g>
    </g>
    <g id="line2d_27">
     <path d="M 343.260625 89.432562 
L 353.260625 89.432562 
L 363.260625 89.432562 
" style="fill: none; stroke: #9467bd; stroke-width: 1.5; stroke-linecap: square"/>
    </g>
    <g id="text_19">
     <!-- 5 -->
     <g transform="translate(371.260625 92.932562) scale(0.1 -0.1)">
      <use xlink:href="#IPAexGothic-35"/>
     </g>
    </g>
    <g id="line2d_28">
     <path d="M 343.260625 103.823187 
L 353.260625 103.823187 
L 363.260625 103.823187 
" style="fill: none; stroke: #8c564b; stroke-width: 1.5; stroke-linecap: square"/>
    </g>
    <g id="text_20">
     <!-- 6 -->
     <g transform="translate(371.260625 107.323187) scale(0.1 -0.1)">
      <defs>
       <path id="IPAexGothic-36" d="M 1056 2328 
Q 1509 2981 2234 2981 
Q 2906 2981 3316 2513 
Q 3675 2106 3675 1522 
Q 3675 884 3272 434 
Q 2853 -31 2178 -31 
Q 1375 -31 922 581 
Q 481 1178 481 2228 
Q 481 3425 1013 4109 
Q 1494 4725 2272 4725 
Q 3191 4725 3609 4025 
L 3150 3775 
Q 2894 4266 2300 4266 
Q 1119 4266 1031 2328 
L 1056 2328 
z
M 2141 2547 
Q 1684 2547 1384 2206 
Q 1116 1900 1116 1541 
Q 1116 1156 1353 844 
Q 1672 428 2159 428 
Q 2669 428 2941 844 
Q 3125 1128 3125 1503 
Q 3125 1944 2881 2228 
Q 2600 2547 2141 2547 
z
" transform="scale(0.015625)"/>
      </defs>
      <use xlink:href="#IPAexGothic-36"/>
     </g>
    </g>
    <g id="line2d_29">
     <path d="M 343.260625 118.213812 
L 353.260625 118.213812 
L 363.260625 118.213812 
" style="fill: none; stroke: #e377c2; stroke-width: 1.5; stroke-linecap: square"/>
    </g>
    <g id="text_21">
     <!-- 7 -->
     <g transform="translate(371.260625 121.713812) scale(0.1 -0.1)">
      <defs>
       <path id="IPAexGothic-37" d="M 3597 4263 
Q 2238 2106 1778 63 
L 1131 63 
Q 1581 1834 2950 4128 
L 428 4128 
L 428 4634 
L 3597 4634 
L 3597 4263 
z
" transform="scale(0.015625)"/>
      </defs>
      <use xlink:href="#IPAexGothic-37"/>
     </g>
    </g>
   </g>
  </g>
  <g id="axes_2">
   <g id="matplotlib.axis_3"/>
   <g id="patch_8">
    <path d="M 29.439063 284.991437 
L 29.439063 18.879437 
" style="fill: none; stroke: #000000; stroke-width: 0.8; stroke-linejoin: miter; stroke-linecap: square"/>
   </g>
   <g id="patch_9">
    <path d="M 386.559062 284.991437 
L 386.559062 18.879437 
" style="fill: none; stroke: #000000; stroke-width: 0.8; stroke-linejoin: miter; stroke-linecap: square"/>
   </g>
   <g id="patch_10">
    <path d="M 29.439062 284.991437 
L 386.559062 284.991437 
" style="fill: none; stroke: #000000; stroke-width: 0.8; stroke-linejoin: miter; stroke-linecap: square"/>
   </g>
   <g id="patch_11">
    <path d="M 29.439062 18.879437 
L 386.559062 18.879437 
" style="fill: none; stroke: #000000; stroke-width: 0.8; stroke-linejoin: miter; stroke-linecap: square"/>
   </g>
  </g>
  <g id="text_22">
   <!-- : 2023/02/20 16:15:35(JST) -->
   <g transform="translate(211.087188 15.423437) scale(0.1 -0.1)">
    <defs>
     <path id="IPAexGothic-66f4" d="M 2956 3994 
L 2956 4588 
L 513 4588 
L 513 4984 
L 5881 4984 
L 5881 4588 
L 3413 4588 
L 3413 3994 
L 5300 3994 
L 5300 1288 
L 4838 1288 
L 4838 1759 
L 3406 1759 
Q 3384 1125 3150 709 
Q 4291 244 5997 31 
L 5694 -428 
Q 4109 -166 2906 384 
Q 2294 -266 744 -488 
L 494 -66 
Q 1903 59 2491 588 
Q 2041 813 1594 1166 
L 1928 1434 
Q 2331 1106 2747 897 
Q 2922 1219 2950 1759 
L 1556 1759 
L 1556 1413 
L 1097 1413 
L 1097 3994 
L 2956 3994 
z
M 2956 3609 
L 1556 3609 
L 1556 3078 
L 2956 3078 
L 2956 3609 
z
M 3413 3609 
L 3413 3078 
L 4838 3078 
L 4838 3609 
L 3413 3609 
z
M 2956 2700 
L 1556 2700 
L 1556 2144 
L 2956 2144 
L 2956 2700 
z
M 3413 2700 
L 3413 2144 
L 4838 2144 
L 4838 2700 
L 3413 2700 
z
" transform="scale(0.015625)"/>
     <path id="IPAexGothic-65b0" d="M 3891 2803 
Q 3881 1759 3794 1166 
Q 3653 197 3097 -563 
L 2741 -250 
Q 3450 700 3450 2631 
L 3450 4647 
Q 3516 4656 3622 4666 
Q 4656 4778 5447 5063 
L 5825 4678 
Q 4897 4419 3891 4294 
L 3891 3219 
L 6119 3219 
L 6119 2803 
L 5275 2803 
L 5275 -447 
L 4834 -447 
L 4834 2803 
L 3891 2803 
z
M 2822 4069 
Q 2678 3572 2519 3181 
L 3250 3181 
L 3250 2784 
L 2059 2784 
L 2059 2216 
L 3184 2216 
L 3184 1831 
L 2059 1831 
L 2059 1544 
Q 2613 1197 3031 847 
L 2781 456 
Q 2472 791 2059 1128 
L 2059 -447 
L 1644 -447 
L 1644 1294 
Q 1272 628 575 -31 
L 269 341 
Q 1041 938 1528 1831 
L 453 1831 
L 453 2216 
L 1644 2216 
L 1644 2784 
L 319 2784 
L 319 3181 
L 1125 3181 
Q 1013 3706 881 4069 
L 453 4069 
L 453 4453 
L 1631 4453 
L 1631 5309 
L 2072 5309 
L 2072 4453 
L 3166 4453 
L 3166 4069 
L 2822 4069 
z
M 2391 4069 
L 1325 4069 
Q 1450 3672 1534 3181 
L 2109 3181 
Q 2294 3659 2391 4069 
z
" transform="scale(0.015625)"/>
     <path id="IPAexGothic-65e5" d="M 5231 4800 
L 5231 -288 
L 4744 -288 
L 4744 128 
L 1647 128 
L 1647 -288 
L 1159 -288 
L 1159 4800 
L 5231 4800 
z
M 1647 4372 
L 1647 2731 
L 4744 2731 
L 4744 4372 
L 1647 4372 
z
M 1647 2297 
L 1647 556 
L 4744 556 
L 4744 2297 
L 1647 2297 
z
" transform="scale(0.015625)"/>
     <path id="IPAexGothic-6642" d="M 2328 4728 
L 2328 563 
L 934 563 
L 934 56 
L 519 56 
L 519 4728 
L 2328 4728 
z
M 934 4331 
L 934 2881 
L 1906 2881 
L 1906 4331 
L 934 4331 
z
M 934 2497 
L 934 953 
L 1906 953 
L 1906 2497 
L 934 2497 
z
M 3938 4372 
L 3938 5313 
L 4378 5313 
L 4378 4372 
L 5772 4372 
L 5772 3981 
L 4378 3981 
L 4378 3194 
L 6072 3194 
L 6072 2803 
L 5203 2803 
L 5203 2047 
L 5959 2047 
L 5959 1650 
L 5216 1650 
L 5216 31 
Q 5216 -447 4691 -447 
Q 4394 -447 3888 -391 
L 3784 78 
Q 4272 0 4591 0 
Q 4775 0 4775 172 
L 4775 1650 
L 2581 1650 
L 2581 2047 
L 4763 2047 
L 4763 2803 
L 2538 2803 
L 2538 3194 
L 3938 3194 
L 3938 3981 
L 2716 3981 
L 2716 4372 
L 3938 4372 
z
M 3669 384 
Q 3331 950 2956 1325 
L 3291 1575 
Q 3719 1147 4025 659 
L 3669 384 
z
" transform="scale(0.015625)"/>
     <path id="IPAexGothic-3a" d="M 1369 2559 
L 672 2559 
L 672 3250 
L 1369 3250 
L 1369 2559 
z
M 1369 63 
L 672 63 
L 672 753 
L 1369 753 
L 1369 63 
z
" transform="scale(0.015625)"/>
     <path id="IPAexGothic-20" transform="scale(0.015625)"/>
     <path id="IPAexGothic-2f" d="M 2719 4709 
L 600 -884 
L 300 -763 
L 2413 4831 
L 2719 4709 
z
" transform="scale(0.015625)"/>
     <path id="IPAexGothic-28" d="M 1928 -1016 
L 1653 -1166 
Q 488 69 488 1875 
Q 488 3678 1653 4909 
L 1928 4763 
Q 1006 3522 1006 1881 
Q 1006 203 1928 -1016 
z
" transform="scale(0.015625)"/>
     <path id="IPAexGothic-54" d="M 3866 4141 
L 2175 4141 
L 2175 63 
L 1606 63 
L 1606 4141 
L -31 4141 
L -31 4634 
L 3866 4634 
L 3866 4141 
z
" transform="scale(0.015625)"/>
     <path id="IPAexGothic-29" d="M 466 4909 
Q 1638 3672 1638 1875 
Q 1638 75 466 -1166 
L 191 -1016 
Q 1119 216 1119 1881 
Q 1119 3509 191 4763 
L 466 4909 
z
" transform="scale(0.015625)"/>
    </defs>
    <use xlink:href="#IPAexGothic-66f4"/>
    <use xlink:href="#IPAexGothic-65b0" x="100"/>
    <use xlink:href="#IPAexGothic-65e5" x="200"/>
    <use xlink:href="#IPAexGothic-6642" x="300"/>
    <use xlink:href="#IPAexGothic-3a" x="400"/>
    <use xlink:href="#IPAexGothic-20" x="431.982422"/>
    <use xlink:href="#IPAexGothic-32" x="458.984375"/>
    <use xlink:href="#IPAexGothic-30" x="521.972656"/>
    <use xlink:href="#IPAexGothic-32" x="584.960938"/>
    <use xlink:href="#IPAexGothic-33" x="647.949219"/>
    <use xlink:href="#IPAexGothic-2f" x="710.9375"/>
    <use xlink:href="#IPAexGothic-30" x="760.9375"/>
    <use xlink:href="#IPAexGothic-32" x="823.925781"/>
    <use xlink:href="#IPAexGothic-2f" x="886.914062"/>
    <use xlink:href="#IPAexGothic-32" x="936.914062"/>
    <use xlink:href="#IPAexGothic-30" x="999.902344"/>
    <use xlink:href="#IPAexGothic-20" x="1062.890625"/>
    <use xlink:href="#IPAexGothic-31" x="1089.892578"/>
    <use xlink:href="#IPAexGothic-36" x="1152.880859"/>
    <use xlink:href="#IPAexGothic-3a" x="1215.869141"/>
    <use xlink:href="#IPAexGothic-31" x="1247.851562"/>
    <use xlink:href="#IPAexGothic-35" x="1310.839844"/>
    <use xlink:href="#IPAexGothic-3a" x="1373.828125"/>
    <use xlink:href="#IPAexGothic-33" x="1405.810547"/>
    <use xlink:href="#IPAexGothic-35" x="1468.798828"/>
    <use xlink:href="#IPAexGothic-28" x="1531.787109"/>
    <use xlink:href="#IPAexGothic-4a" x="1565.087891"/>
    <use xlink:href="#IPAexGothic-53" x="1603.076172"/>
    <use xlink:href="#IPAexGothic-54" x="1661.572266"/>
    <use xlink:href="#IPAexGothic-29" x="1721.484375"/>
   </g>
  </g>
 </g>
 <defs>
  <clipPath id="pb497a29362">
   <rect x="29.439063" y="18.879437" width="357.12" height="266.112"/>
  </clipPath>
 </defs>
</svg>
