<?xml version="1.0" encoding="utf-8" standalone="no"?>
<!DOCTYPE svg PUBLIC "-//W3C//DTD SVG 1.1//EN"
  "http://www.w3.org/Graphics/SVG/1.1/DTD/svg11.dtd">
<svg xmlns:xlink="http://www.w3.org/1999/xlink" width="397.259063pt" height="320.972687pt" viewBox="0 0 397.259063 320.972687" xmlns="http://www.w3.org/2000/svg" version="1.1">
 <metadata>
  <rdf:RDF xmlns:dc="http://purl.org/dc/elements/1.1/" xmlns:cc="http://creativecommons.org/ns#" xmlns:rdf="http://www.w3.org/1999/02/22-rdf-syntax-ns#">
   <cc:Work>
    <dc:type rdf:resource="http://purl.org/dc/dcmitype/StillImage"/>
    <dc:date>2022-12-24T07:13:11.180421</dc:date>
    <dc:format>image/svg+xml</dc:format>
    <dc:creator>
     <cc:Agent>
      <dc:title>Matplotlib v3.6.2, https://matplotlib.org/</dc:title>
     </cc:Agent>
    </dc:creator>
   </cc:Work>
  </rdf:RDF>
 </metadata>
 <defs>
  <style type="text/css">*{stroke-linejoin: round; stroke-linecap: butt}</style>
 </defs>
 <g id="figure_1">
  <g id="patch_1">
   <path d="M 0 320.972687 
L 397.259063 320.972687 
L 397.259063 0 
L 0 0 
z
" style="fill: #ffffff"/>
  </g>
  <g id="axes_1">
   <g id="patch_2">
    <path d="M 29.439063 284.991437 
L 386.559062 284.991437 
L 386.559062 18.879437 
L 29.439063 18.879437 
z
" style="fill: #ffffff"/>
   </g>
   <g id="line2d_1">
    <path d="M 29.439063 211.199039 
L 386.559062 211.199039 
" clip-path="url(#pca20590b43)" style="fill: none; stroke: #000000; stroke-linecap: square"/>
   </g>
   <g id="matplotlib.axis_1">
    <g id="xtick_1">
     <g id="line2d_2">
      <defs>
       <path id="m4004611e42" d="M 0 0 
L 0 3.5 
" style="stroke: #000000; stroke-width: 0.8"/>
      </defs>
      <g>
       <use xlink:href="#m4004611e42" x="29.439063" y="284.991437" style="stroke: #000000; stroke-width: 0.8"/>
      </g>
     </g>
     <g id="text_1">
      <!-- Jun -->
      <g transform="translate(21.499219 299.482062) scale(0.1 -0.1)">
       <defs>
        <path id="IPAexGothic-4a" d="M 1819 4634 
L 1819 1234 
Q 1819 -31 763 -31 
Q 303 -31 -125 209 
L 84 644 
Q 378 447 694 447 
Q 1250 447 1250 1203 
L 1250 4634 
L 1819 4634 
z
" transform="scale(0.015625)"/>
        <path id="IPAexGothic-75" d="M 3284 63 
L 2772 63 
L 2772 644 
Q 2300 0 1625 0 
Q 1072 0 763 375 
Q 519 678 519 1241 
L 519 3250 
L 1069 3250 
L 1069 1259 
Q 1069 466 1734 466 
Q 2406 466 2734 1291 
L 2734 3250 
L 3284 3250 
L 3284 63 
z
" transform="scale(0.015625)"/>
        <path id="IPAexGothic-6e" d="M 3328 63 
L 2778 63 
L 2778 2041 
Q 2778 2853 2106 2853 
Q 1428 2853 1113 2041 
L 1113 63 
L 563 63 
L 563 3250 
L 1075 3250 
L 1075 2675 
Q 1525 3316 2222 3316 
Q 3328 3316 3328 2072 
L 3328 63 
z
" transform="scale(0.015625)"/>
       </defs>
       <use xlink:href="#IPAexGothic-4a"/>
       <use xlink:href="#IPAexGothic-75" x="37.988281"/>
       <use xlink:href="#IPAexGothic-6e" x="98.388672"/>
      </g>
     </g>
    </g>
    <g id="xtick_2">
     <g id="line2d_3">
      <g>
       <use xlink:href="#m4004611e42" x="81.195584" y="284.991437" style="stroke: #000000; stroke-width: 0.8"/>
      </g>
     </g>
     <g id="text_2">
      <!-- Jul -->
      <g transform="translate(74.926053 299.482062) scale(0.1 -0.1)">
       <defs>
        <path id="IPAexGothic-6c" d="M 1131 63 
L 581 63 
L 581 4794 
L 1131 4794 
L 1131 63 
z
" transform="scale(0.015625)"/>
       </defs>
       <use xlink:href="#IPAexGothic-4a"/>
       <use xlink:href="#IPAexGothic-75" x="37.988281"/>
       <use xlink:href="#IPAexGothic-6c" x="98.388672"/>
      </g>
     </g>
    </g>
    <g id="xtick_3">
     <g id="line2d_4">
      <g>
       <use xlink:href="#m4004611e42" x="134.677323" y="284.991437" style="stroke: #000000; stroke-width: 0.8"/>
      </g>
     </g>
     <g id="text_3">
      <!-- Aug -->
      <g transform="translate(125.695292 299.42425) scale(0.1 -0.1)">
       <defs>
        <path id="IPAexGothic-41" d="M 4056 63 
L 3444 63 
L 2938 1409 
L 1100 1409 
L 603 63 
L -6 63 
L 1806 4666 
L 2259 4666 
L 4056 63 
z
M 2778 1863 
L 2316 3078 
Q 2125 3588 2028 4000 
L 2009 4000 
Q 1897 3563 1716 3078 
L 1263 1863 
L 2778 1863 
z
" transform="scale(0.015625)"/>
        <path id="IPAexGothic-67" d="M 1331 1150 
Q 1006 1122 1006 900 
Q 1006 613 1763 575 
L 2131 556 
Q 3303 497 3303 -294 
Q 3303 -700 2925 -959 
Q 2519 -1253 1794 -1253 
Q 1138 -1253 738 -1028 
Q 353 -809 353 -428 
Q 353 84 1075 247 
L 1075 269 
Q 506 413 506 778 
Q 506 1116 994 1297 
Q 456 1575 456 2181 
Q 456 2650 769 2963 
Q 1128 3322 1738 3322 
Q 2125 3322 2422 3153 
Q 2650 3453 3259 3463 
L 3259 3013 
Q 2838 3003 2703 2938 
Q 3034 2613 3034 2169 
Q 3034 1728 2734 1425 
Q 2400 1094 1813 1094 
Q 1563 1094 1331 1150 
z
M 1734 2919 
Q 1409 2919 1197 2706 
Q 988 2497 988 2181 
Q 988 1872 1184 1684 
Q 1397 1472 1756 1472 
Q 2094 1472 2297 1678 
Q 2503 1881 2503 2203 
Q 2503 2497 2297 2700 
Q 2081 2919 1734 2919 
z
M 1753 159 
Q 903 159 903 -366 
Q 903 -875 1800 -875 
Q 2378 -875 2638 -606 
Q 2772 -481 2772 -313 
Q 2772 159 1753 159 
z
" transform="scale(0.015625)"/>
       </defs>
       <use xlink:href="#IPAexGothic-41"/>
       <use xlink:href="#IPAexGothic-75" x="63.720703"/>
       <use xlink:href="#IPAexGothic-67" x="124.121094"/>
      </g>
     </g>
    </g>
    <g id="xtick_4">
     <g id="line2d_5">
      <g>
       <use xlink:href="#m4004611e42" x="188.159063" y="284.991437" style="stroke: #000000; stroke-width: 0.8"/>
      </g>
     </g>
     <g id="text_4">
      <!-- Sep -->
      <g transform="translate(179.284063 299.482062) scale(0.1 -0.1)">
       <defs>
        <path id="IPAexGothic-53" d="M 2919 3641 
Q 2563 4259 1853 4259 
Q 1453 4259 1213 4009 
Q 1028 3803 1028 3534 
Q 1028 3238 1266 3047 
Q 1444 2913 1984 2688 
L 2200 2597 
Q 2925 2306 3191 1953 
Q 3422 1644 3422 1259 
Q 3422 644 2969 288 
Q 2559 -31 1931 -31 
Q 881 -31 313 766 
L 753 1100 
Q 1203 459 1938 459 
Q 2288 459 2534 625 
Q 2841 847 2841 1216 
Q 2841 1503 2616 1728 
Q 2375 1959 1728 2206 
L 1541 2278 
Q 453 2694 453 3481 
Q 453 4006 806 4347 
Q 1203 4725 1863 4725 
Q 2841 4725 3359 3956 
L 2919 3641 
z
" transform="scale(0.015625)"/>
        <path id="IPAexGothic-65" d="M 863 1594 
Q 891 1041 1209 722 
Q 1534 397 1997 397 
Q 2606 397 2963 966 
L 3322 728 
Q 2869 -31 1931 -31 
Q 1222 -31 766 422 
Q 306 884 306 1641 
Q 306 2444 788 2925 
Q 1216 3353 1856 3353 
Q 2459 3353 2866 2956 
Q 3322 2494 3322 1722 
L 3322 1594 
L 863 1594 
z
M 2756 1997 
Q 2709 2431 2450 2681 
Q 2194 2938 1844 2938 
Q 1438 2938 1150 2591 
Q 953 2356 894 1997 
L 2756 1997 
z
" transform="scale(0.015625)"/>
        <path id="IPAexGothic-70" d="M 1075 2688 
Q 1525 3341 2206 3341 
Q 2769 3341 3172 2938 
Q 3641 2469 3641 1644 
Q 3641 841 3178 372 
Q 2775 -31 2200 -31 
Q 1569 -31 1106 497 
L 1106 -1216 
L 563 -1216 
L 563 3250 
L 1075 3250 
L 1075 2688 
z
M 1106 1950 
L 1106 1291 
Q 1106 897 1516 600 
Q 1791 403 2106 403 
Q 2469 403 2725 659 
Q 3066 997 3066 1631 
Q 3066 2200 2784 2559 
Q 2503 2900 2100 2900 
Q 1656 2900 1338 2484 
Q 1106 2184 1106 1950 
z
" transform="scale(0.015625)"/>
       </defs>
       <use xlink:href="#IPAexGothic-53"/>
       <use xlink:href="#IPAexGothic-65" x="58.496094"/>
       <use xlink:href="#IPAexGothic-70" x="115.380859"/>
      </g>
     </g>
    </g>
    <g id="xtick_5">
     <g id="line2d_6">
      <g>
       <use xlink:href="#m4004611e42" x="239.915584" y="284.991437" style="stroke: #000000; stroke-width: 0.8"/>
      </g>
     </g>
     <g id="text_5">
      <!-- Oct -->
      <g transform="translate(231.480428 299.482062) scale(0.1 -0.1)">
       <defs>
        <path id="IPAexGothic-4f" d="M 2541 4725 
Q 3456 4725 4044 4138 
Q 4709 3472 4709 2331 
Q 4709 1219 4031 550 
Q 3450 -31 2541 -31 
Q 1638 -31 1056 550 
Q 378 1219 378 2356 
Q 378 3469 1044 4138 
Q 1631 4725 2541 4725 
z
M 2541 4266 
Q 1953 4266 1531 3844 
Q 994 3303 994 2350 
Q 994 1391 1531 863 
Q 1947 447 2541 447 
Q 3131 447 3556 863 
Q 4094 1400 4094 2375 
Q 4094 3297 3550 3844 
Q 3138 4266 2541 4266 
z
" transform="scale(0.015625)"/>
        <path id="IPAexGothic-63" d="M 3269 784 
Q 2834 -31 1900 -31 
Q 1228 -31 788 409 
Q 313 891 313 1663 
Q 313 2428 788 2913 
Q 1222 3347 1881 3347 
Q 2813 3347 3206 2541 
L 2763 2309 
Q 2484 2900 1900 2900 
Q 1516 2900 1234 2619 
Q 881 2266 881 1650 
Q 881 1069 1222 728 
Q 1522 428 1956 428 
Q 2547 428 2847 1016 
L 3269 784 
z
" transform="scale(0.015625)"/>
        <path id="IPAexGothic-74" d="M 2125 241 
Q 1769 -6 1397 -6 
Q 653 -6 653 831 
L 653 2859 
L 219 2859 
L 219 3250 
L 653 3250 
L 653 3966 
L 1178 4228 
L 1178 3250 
L 2063 3250 
L 2063 2859 
L 1178 2859 
L 1178 906 
Q 1178 416 1513 416 
Q 1738 416 1941 588 
L 2125 241 
z
" transform="scale(0.015625)"/>
       </defs>
       <use xlink:href="#IPAexGothic-4f"/>
       <use xlink:href="#IPAexGothic-63" x="79.6875"/>
       <use xlink:href="#IPAexGothic-74" x="134.082031"/>
      </g>
     </g>
    </g>
    <g id="xtick_6">
     <g id="line2d_7">
      <g>
       <use xlink:href="#m4004611e42" x="293.397323" y="284.991437" style="stroke: #000000; stroke-width: 0.8"/>
      </g>
     </g>
     <g id="text_6">
      <!-- Nov -->
      <g transform="translate(284.148886 299.482062) scale(0.1 -0.1)">
       <defs>
        <path id="IPAexGothic-4e" d="M 4244 63 
L 3731 63 
L 1697 3150 
Q 1466 3500 1141 4097 
L 1116 4097 
L 1128 3797 
Q 1159 2803 1159 2469 
L 1159 63 
L 609 63 
L 609 4634 
L 1366 4634 
L 3113 1978 
Q 3453 1447 3713 966 
L 3738 966 
Q 3694 1897 3694 2469 
L 3694 4634 
L 4244 4634 
L 4244 63 
z
" transform="scale(0.015625)"/>
        <path id="IPAexGothic-6f" d="M 1919 3341 
Q 2594 3341 3056 2888 
Q 3531 2413 3531 1638 
Q 3531 888 3066 422 
Q 2609 -31 1919 -31 
Q 1228 -31 781 416 
Q 313 881 313 1656 
Q 313 2413 788 2888 
Q 1241 3341 1919 3341 
z
M 1919 2919 
Q 1519 2919 1241 2631 
Q 888 2278 888 1650 
Q 888 1031 1234 684 
Q 1516 403 1919 403 
Q 2331 403 2609 691 
Q 2956 1038 2956 1672 
Q 2956 2269 2603 2631 
Q 2316 2919 1919 2919 
z
" transform="scale(0.015625)"/>
        <path id="IPAexGothic-76" d="M 3103 3250 
L 1747 6 
L 1375 6 
L 25 3250 
L 628 3250 
L 1338 1388 
L 1522 844 
L 1569 703 
L 1588 703 
Q 1641 884 1822 1388 
L 2516 3250 
L 3103 3250 
z
" transform="scale(0.015625)"/>
       </defs>
       <use xlink:href="#IPAexGothic-4e"/>
       <use xlink:href="#IPAexGothic-6f" x="75.976562"/>
       <use xlink:href="#IPAexGothic-76" x="136.376953"/>
      </g>
     </g>
    </g>
    <g id="xtick_7">
     <g id="line2d_8">
      <g>
       <use xlink:href="#m4004611e42" x="345.153845" y="284.991437" style="stroke: #000000; stroke-width: 0.8"/>
      </g>
     </g>
     <g id="text_7">
      <!-- Dec -->
      <g transform="translate(335.805408 299.482062) scale(0.1 -0.1)">
       <defs>
        <path id="IPAexGothic-44" d="M 609 4634 
L 1984 4634 
Q 3159 4634 3791 4050 
Q 4456 3444 4456 2356 
Q 4456 1047 3516 441 
Q 2925 63 1941 63 
L 609 63 
L 609 4634 
z
M 1172 556 
L 1894 556 
Q 3853 556 3853 2356 
Q 3853 4147 1928 4147 
L 1172 4147 
L 1172 556 
z
" transform="scale(0.015625)"/>
       </defs>
       <use xlink:href="#IPAexGothic-44"/>
       <use xlink:href="#IPAexGothic-65" x="75.683594"/>
       <use xlink:href="#IPAexGothic-63" x="132.568359"/>
      </g>
     </g>
    </g>
    <g id="text_8">
     <!-- 2022 -->
     <g transform="translate(361.365312 311.872687) scale(0.1 -0.1)">
      <defs>
       <path id="IPAexGothic-32" d="M 3659 63 
L 447 63 
L 447 594 
Q 825 1475 1894 2203 
L 2072 2322 
Q 2619 2697 2791 2906 
Q 2988 3153 2988 3444 
Q 2988 3772 2756 4003 
Q 2500 4259 2084 4259 
Q 1250 4259 991 3328 
L 497 3506 
Q 853 4725 2116 4725 
Q 2806 4725 3216 4316 
Q 3575 3947 3575 3425 
Q 3575 3038 3344 2722 
Q 3131 2416 2366 1938 
L 2231 1856 
Q 1256 1253 978 569 
L 3659 569 
L 3659 63 
z
" transform="scale(0.015625)"/>
       <path id="IPAexGothic-30" d="M 2038 4725 
Q 2881 4725 3334 3944 
Q 3694 3325 3694 2344 
Q 3694 1372 3334 741 
Q 2888 -31 2016 -31 
Q 1147 -31 700 741 
Q 341 1372 341 2350 
Q 341 3713 1000 4334 
Q 1419 4725 2038 4725 
z
M 2016 4266 
Q 1516 4266 1228 3759 
Q 934 3247 934 2344 
Q 934 1456 1222 947 
Q 1513 447 2016 447 
Q 2619 447 2909 1153 
Q 3100 1622 3100 2375 
Q 3100 3256 2806 3759 
Q 2509 4266 2016 4266 
z
" transform="scale(0.015625)"/>
      </defs>
      <use xlink:href="#IPAexGothic-32"/>
      <use xlink:href="#IPAexGothic-30" x="62.988281"/>
      <use xlink:href="#IPAexGothic-32" x="125.976562"/>
      <use xlink:href="#IPAexGothic-32" x="188.964844"/>
     </g>
    </g>
   </g>
   <g id="matplotlib.axis_2">
    <g id="ytick_1">
     <g id="line2d_9">
      <defs>
       <path id="m9a6ce18c0c" d="M 0 0 
L -3.5 0 
" style="stroke: #000000; stroke-width: 0.8"/>
      </defs>
      <g>
       <use xlink:href="#m9a6ce18c0c" x="29.439063" y="269.014637" style="stroke: #000000; stroke-width: 0.8"/>
      </g>
     </g>
     <g id="text_9">
      <!-- 0.5 -->
      <g transform="translate(7.2 272.759949) scale(0.1 -0.1)">
       <defs>
        <path id="IPAexGothic-2e" d="M 1184 63 
L 494 63 
L 494 753 
L 1184 753 
L 1184 63 
z
" transform="scale(0.015625)"/>
        <path id="IPAexGothic-35" d="M 1178 2603 
Q 1634 2963 2172 2963 
Q 2816 2963 3241 2528 
Q 3638 2113 3638 1497 
Q 3638 938 3297 513 
Q 2869 -31 2031 -31 
Q 959 -31 469 784 
L 938 1028 
Q 1309 434 2013 434 
Q 2466 434 2769 716 
Q 3081 1013 3081 1503 
Q 3081 1966 2806 2241 
Q 2519 2528 2056 2528 
Q 1406 2528 1072 2028 
L 591 2091 
L 884 4634 
L 3406 4634 
L 3406 4153 
L 1341 4153 
L 1134 2603 
L 1178 2603 
z
" transform="scale(0.015625)"/>
       </defs>
       <use xlink:href="#IPAexGothic-30"/>
       <use xlink:href="#IPAexGothic-2e" x="62.988281"/>
       <use xlink:href="#IPAexGothic-35" x="89.404297"/>
      </g>
     </g>
    </g>
    <g id="ytick_2">
     <g id="line2d_10">
      <g>
       <use xlink:href="#m9a6ce18c0c" x="29.439063" y="211.199039" style="stroke: #000000; stroke-width: 0.8"/>
      </g>
     </g>
     <g id="text_10">
      <!-- 1.0 -->
      <g transform="translate(7.2 214.944352) scale(0.1 -0.1)">
       <defs>
        <path id="IPAexGothic-31" d="M 2463 63 
L 1900 63 
L 1900 4103 
Q 1372 3922 788 3797 
L 684 4231 
Q 1519 4441 2106 4731 
L 2463 4731 
L 2463 63 
z
" transform="scale(0.015625)"/>
       </defs>
       <use xlink:href="#IPAexGothic-31"/>
       <use xlink:href="#IPAexGothic-2e" x="62.988281"/>
       <use xlink:href="#IPAexGothic-30" x="89.404297"/>
      </g>
     </g>
    </g>
    <g id="ytick_3">
     <g id="line2d_11">
      <g>
       <use xlink:href="#m9a6ce18c0c" x="29.439063" y="153.383442" style="stroke: #000000; stroke-width: 0.8"/>
      </g>
     </g>
     <g id="text_11">
      <!-- 1.5 -->
      <g transform="translate(7.2 157.128754) scale(0.1 -0.1)">
       <use xlink:href="#IPAexGothic-31"/>
       <use xlink:href="#IPAexGothic-2e" x="62.988281"/>
       <use xlink:href="#IPAexGothic-35" x="89.404297"/>
      </g>
     </g>
    </g>
    <g id="ytick_4">
     <g id="line2d_12">
      <g>
       <use xlink:href="#m9a6ce18c0c" x="29.439063" y="95.567844" style="stroke: #000000; stroke-width: 0.8"/>
      </g>
     </g>
     <g id="text_12">
      <!-- 2.0 -->
      <g transform="translate(7.2 99.313157) scale(0.1 -0.1)">
       <use xlink:href="#IPAexGothic-32"/>
       <use xlink:href="#IPAexGothic-2e" x="62.988281"/>
       <use xlink:href="#IPAexGothic-30" x="89.404297"/>
      </g>
     </g>
    </g>
    <g id="ytick_5">
     <g id="line2d_13">
      <g>
       <use xlink:href="#m9a6ce18c0c" x="29.439063" y="37.752247" style="stroke: #000000; stroke-width: 0.8"/>
      </g>
     </g>
     <g id="text_13">
      <!-- 2.5 -->
      <g transform="translate(7.2 41.497559) scale(0.1 -0.1)">
       <use xlink:href="#IPAexGothic-32"/>
       <use xlink:href="#IPAexGothic-2e" x="62.988281"/>
       <use xlink:href="#IPAexGothic-35" x="89.404297"/>
      </g>
     </g>
    </g>
   </g>
   <g id="line2d_14">
    <path d="M 29.439063 227.411867 
L 31.16428 255.471758 
L 32.889497 269.405805 
L 34.614715 242.945807 
L 36.339932 262.441258 
L 39.790367 251.639145 
L 41.515584 227.514621 
L 43.240802 229.940841 
L 44.966019 194.078383 
L 46.691236 246.403784 
L 48.416454 250.411663 
L 50.141671 205.84664 
L 51.866889 249.191321 
L 53.592106 272.895437 
L 55.317323 243.090535 
L 57.042541 247.559579 
L 58.767758 238.429093 
L 60.492976 112.810292 
L 62.218193 184.323192 
L 63.94341 181.498781 
L 65.668628 30.975437 
L 69.119063 168.571026 
L 70.84428 110.868109 
L 72.569497 213.126183 
L 74.294715 156.293505 
L 76.019932 124.518024 
L 77.745149 151.875457 
L 79.470367 236.751655 
L 81.195584 106.655378 
L 82.920802 51.387485 
L 84.646019 102.788184 
L 86.371236 95.926279 
L 88.096454 36.542983 
L 89.821671 79.37836 
L 91.546889 35.439549 
L 93.272106 110.396771 
L 94.997323 116.980214 
L 96.722541 109.726148 
L 98.447758 177.160719 
L 100.172976 110.814502 
L 101.898193 153.702013 
L 103.62341 148.460822 
L 105.348628 164.812112 
L 107.073845 190.526245 
L 108.799063 181.526351 
L 110.52428 197.096587 
L 112.249497 219.976945 
L 113.974715 163.710275 
L 115.699932 173.022011 
L 117.425149 196.817697 
L 119.150367 179.527296 
L 120.875584 191.661352 
L 122.600802 192.887858 
L 124.326019 173.15897 
L 126.051236 188.50237 
L 127.776454 201.809366 
L 129.501671 195.197746 
L 131.226889 183.412435 
L 132.952106 192.046725 
L 134.677323 204.737627 
L 136.402541 199.025674 
L 138.127758 189.016626 
L 139.852976 185.809755 
L 141.578193 182.941981 
L 143.30341 200.02008 
L 145.028628 192.032303 
L 146.753845 181.775482 
L 148.479063 186.871327 
L 150.20428 193.9839 
L 151.929497 204.601463 
L 153.654715 225.669065 
L 155.379932 207.989558 
L 157.105149 218.057369 
L 158.830367 204.232725 
L 160.555584 217.282458 
L 162.280802 202.720535 
L 164.006019 195.141529 
L 165.731236 153.461242 
L 167.456454 171.531238 
L 169.181671 185.828914 
L 170.906889 204.950127 
L 172.632106 187.736367 
L 174.357323 211.671324 
L 176.082541 216.92144 
L 177.807758 231.587854 
L 179.532976 248.509599 
L 181.258193 240.826108 
L 182.98341 241.29957 
L 184.708628 247.072575 
L 186.433845 251.367839 
L 188.159063 251.669425 
L 189.88428 251.785215 
L 191.609497 242.900107 
L 193.334715 251.663262 
L 195.059932 241.186243 
L 196.785149 228.929625 
L 198.510367 240.670472 
L 200.235584 239.689961 
L 201.960802 228.587222 
L 203.686019 234.114512 
L 205.411236 220.053728 
L 207.136454 221.634093 
L 208.861671 247.789493 
L 210.586889 250.578039 
L 212.312106 230.847867 
L 214.037323 240.571341 
L 215.762541 229.667605 
L 217.487758 228.965012 
L 219.212976 226.507 
L 220.938193 266.267581 
L 222.66341 173.994674 
L 224.388628 228.352097 
L 226.113845 212.968149 
L 227.839063 243.863512 
L 229.56428 195.951487 
L 231.289497 187.500784 
L 233.014715 195.32975 
L 234.739932 238.855842 
L 236.465149 224.563828 
L 238.190367 239.674853 
L 239.915584 205.067187 
L 241.640802 219.657973 
L 243.366019 258.893645 
L 245.091236 189.095647 
L 246.816454 231.988543 
L 248.541671 230.452082 
L 250.266889 208.848889 
L 251.992106 214.413367 
L 253.717323 237.774657 
L 255.442541 208.216448 
L 257.167758 269.328924 
L 258.892976 186.857034 
L 260.618193 168.652783 
L 262.34341 211.199039 
L 264.068628 197.903063 
L 265.793845 190.42842 
L 267.519063 209.746404 
L 269.24428 135.123595 
L 270.969497 212.926136 
L 272.694715 239.34414 
L 274.419932 184.631705 
L 276.145149 193.892671 
L 277.870367 220.351516 
L 279.595584 197.002011 
L 281.320802 191.634272 
L 283.046019 213.253557 
L 284.771236 183.049443 
L 286.496454 199.198481 
L 288.221671 190.346771 
L 289.946889 160.309806 
L 291.672106 189.784075 
L 293.397323 198.104074 
L 295.122541 152.110827 
L 296.847758 152.9204 
L 298.572976 232.748365 
L 300.298193 165.024121 
L 302.02341 194.085734 
L 303.748628 199.838398 
L 305.473845 173.564927 
L 307.199063 209.205445 
L 308.92428 206.690562 
L 310.649497 156.249641 
L 312.374715 220.402577 
L 314.099932 215.284532 
L 315.825149 225.924092 
L 317.550367 188.099011 
L 319.275584 185.511636 
L 321.000802 211.199039 
L 322.726019 194.160213 
L 324.451236 184.55213 
L 326.176454 182.799057 
L 329.626889 203.930102 
L 331.352106 168.757197 
L 333.077323 220.491359 
L 334.802541 171.577359 
L 338.252976 192.11637 
L 339.978193 204.402838 
L 341.70341 198.987955 
L 343.428628 181.777237 
L 345.153845 142.696764 
L 346.879063 213.580923 
L 348.60428 220.529523 
L 350.329497 204.080643 
L 352.054715 205.292279 
L 353.779932 181.962456 
L 355.505149 194.793532 
L 357.230367 197.432704 
L 358.955584 173.295964 
L 360.680802 175.045451 
L 362.406019 167.16196 
L 364.131236 187.120934 
L 365.856454 183.834422 
L 367.581671 173.778001 
L 369.306889 181.23856 
L 371.032106 201.020413 
L 372.757323 187.828789 
L 374.482541 213.66936 
L 376.207758 207.768569 
L 377.932976 207.130207 
L 379.658193 192.837596 
L 381.38341 206.879641 
L 383.108628 188.649166 
L 384.833845 193.860668 
L 384.833845 193.860668 
" clip-path="url(#pca20590b43)" style="fill: none; stroke: #1f77b4; stroke-width: 1.5; stroke-linecap: square"/>
   </g>
   <g id="line2d_15">
    <path d="M 29.439063 230.929789 
L 31.16428 242.60231 
L 32.889497 262.8168 
L 34.614715 257.425513 
L 36.339932 253.337157 
L 38.065149 259.836211 
L 39.790367 254.434415 
L 41.515584 240.414674 
L 43.240802 228.735232 
L 44.966019 213.41839 
L 46.691236 223.501825 
L 48.416454 248.433331 
L 50.141671 230.677266 
L 51.866889 229.912564 
L 53.592106 262.11981 
L 55.317323 259.625445 
L 57.042541 245.355694 
L 58.767758 243.118728 
L 60.492976 189.281671 
L 62.218193 152.189606 
L 63.94341 182.917915 
L 65.668628 119.473036 
L 67.393845 68.196709 
L 69.119063 137.669929 
L 70.84428 141.957318 
L 72.569497 170.127431 
L 74.294715 187.579679 
L 76.019932 141.084002 
L 77.745149 138.693349 
L 79.470367 201.292679 
L 81.195584 186.000414 
L 82.920802 80.567026 
L 84.646019 78.413733 
L 86.371236 99.383107 
L 88.096454 67.931655 
L 89.821671 58.815077 
L 91.546889 58.306173 
L 93.272106 75.699401 
L 94.997323 113.713912 
L 96.722541 113.383995 
L 98.447758 146.569691 
L 100.172976 147.022086 
L 101.898193 133.443524 
L 103.62341 151.100956 
L 105.348628 156.832948 
L 107.073845 178.224324 
L 108.799063 186.098223 
L 110.52428 189.532009 
L 112.249497 209.091256 
L 113.974715 194.807872 
L 115.699932 168.434555 
L 117.425149 185.419494 
L 119.150367 188.44227 
L 120.875584 185.724694 
L 122.600802 192.276003 
L 124.326019 183.362139 
L 126.051236 181.032368 
L 127.776454 195.324076 
L 129.501671 198.546144 
L 131.226889 189.431392 
L 132.952106 187.79659 
L 134.677323 198.54902 
L 136.402541 201.914295 
L 138.127758 194.115474 
L 139.852976 187.422411 
L 141.578193 184.383085 
L 143.30341 191.750659 
L 145.028628 196.087179 
L 146.753845 186.997904 
L 148.479063 184.346184 
L 150.20428 190.473981 
L 151.929497 199.403219 
L 153.654715 215.633088 
L 155.379932 217.185071 
L 157.105149 213.134848 
L 158.830367 211.351742 
L 160.555584 210.94113 
L 162.280802 210.228598 
L 164.006019 198.987184 
L 165.731236 175.731796 
L 167.456454 162.744798 
L 170.906889 195.737687 
L 172.632106 196.62741 
L 174.357323 200.268399 
L 176.082541 214.327003 
L 177.807758 224.517111 
L 179.532976 240.462163 
L 181.258193 244.757718 
L 182.98341 241.063165 
L 184.708628 244.236496 
L 186.433845 249.249927 
L 188.159063 251.518783 
L 189.88428 251.727342 
L 191.609497 247.466905 
L 193.334715 247.402446 
L 195.059932 246.595581 
L 196.785149 235.262778 
L 198.510367 234.987471 
L 200.235584 240.181603 
L 201.960802 234.304978 
L 203.686019 231.390872 
L 205.411236 227.332189 
L 207.136454 220.846856 
L 208.861671 235.644814 
L 210.586889 249.196285 
L 212.312106 241.279862 
L 214.037323 235.839395 
L 215.762541 235.281663 
L 217.487758 229.316941 
L 219.212976 227.743627 
L 220.938193 248.882551 
L 222.66341 230.621466 
L 224.388628 204.147875 
L 226.113845 220.93913 
L 227.839063 229.635769 
L 229.56428 222.625721 
L 231.289497 191.792225 
L 233.014715 191.471858 
L 234.739932 219.272458 
L 236.465149 231.97864 
L 238.190367 232.42119 
L 239.915584 223.814193 
L 241.640802 212.595296 
L 243.366019 241.501939 
L 245.091236 230.097519 
L 246.816454 212.536835 
L 248.541671 231.223399 
L 250.266889 220.196168 
L 251.992106 211.66473 
L 253.717323 226.773505 
L 255.442541 224.052711 
L 257.167758 244.24423 
L 258.892976 237.116008 
L 260.618193 178.033043 
L 264.068628 204.731901 
L 265.793845 194.218394 
L 267.519063 200.456001 
L 269.24428 177.011185 
L 270.969497 179.059561 
L 272.694715 227.005264 
L 274.419932 215.29372 
L 276.145149 189.34014 
L 277.870367 207.855357 
L 279.595584 209.25497 
L 281.320802 194.345323 
L 283.046019 202.914504 
L 284.771236 199.04078 
L 286.496454 191.364392 
L 288.221671 194.846812 
L 289.946889 176.074523 
L 291.672106 175.764073 
L 293.397323 194.009205 
L 295.122541 176.860376 
L 296.847758 152.516084 
L 298.572976 198.91713 
L 300.298193 203.448625 
L 302.02341 180.273516 
L 303.748628 196.993923 
L 305.473845 187.318791 
L 307.199063 192.562593 
L 308.92428 207.954654 
L 310.649497 183.674736 
L 312.374715 192.091624 
L 314.099932 217.873602 
L 315.825149 220.737602 
L 317.550367 208.513572 
L 319.275584 186.8113 
L 321.000802 198.998945 
L 322.726019 202.972279 
L 324.451236 189.440136 
L 326.176454 183.678277 
L 327.901671 188.335204 
L 329.626889 198.897374 
L 331.352106 187.448754 
L 333.077323 197.179515 
L 334.802541 198.341262 
L 336.527758 176.894581 
L 338.252976 187.16406 
L 339.978193 198.406453 
L 341.70341 201.724689 
L 343.428628 190.654224 
L 345.153845 163.401008 
L 346.879063 182.424595 
L 348.60428 217.110216 
L 350.329497 212.600777 
L 352.054715 204.687964 
L 353.779932 194.139114 
L 355.505149 188.526714 
L 357.230367 196.119779 
L 358.955584 185.880047 
L 360.680802 174.173214 
L 362.406019 171.1536 
L 364.131236 177.474475 
L 365.856454 185.48723 
L 367.581671 178.891638 
L 369.306889 177.554882 
L 371.032106 191.49043 
L 372.757323 194.588989 
L 374.482541 201.412831 
L 376.207758 210.756455 
L 377.932976 207.449815 
L 379.658193 200.185367 
L 381.38341 200.052884 
L 383.108628 198.086686 
L 384.833845 191.27996 
L 384.833845 191.27996 
" clip-path="url(#pca20590b43)" style="fill: none; stroke: #ff7f0e; stroke-width: 1.5; stroke-linecap: square"/>
   </g>
   <g id="line2d_16">
    <path d="M 29.439063 229.122786 
L 31.16428 239.928401 
L 32.889497 252.698705 
L 34.614715 256.780278 
L 36.339932 259.139403 
L 38.065149 254.622372 
L 39.790367 257.208287 
L 41.515584 246.388486 
L 43.240802 237.055655 
L 44.966019 218.326475 
L 48.416454 233.387372 
L 50.141671 236.234427 
L 51.866889 237.293425 
L 55.317323 256.313321 
L 57.042541 255.822722 
L 58.767758 243.109331 
L 60.492976 212.36467 
L 63.94341 162.563334 
L 65.668628 143.84129 
L 67.393845 113.406318 
L 69.119063 107.256927 
L 70.84428 129.127564 
L 72.569497 169.610337 
L 74.294715 165.645532 
L 76.019932 169.115602 
L 77.745149 144.753156 
L 79.470367 179.647632 
L 81.195584 175.437505 
L 82.920802 150.710969 
L 84.646019 88.208754 
L 86.371236 84.394062 
L 88.096454 80.114816 
L 89.821671 71.804879 
L 91.546889 51.239386 
L 93.272106 76.931758 
L 94.997323 90.291085 
L 96.722541 112.392863 
L 98.447758 137.201801 
L 100.172976 135.362509 
L 101.898193 149.276885 
L 103.62341 138.58476 
L 105.348628 155.795645 
L 107.073845 168.900399 
L 112.249497 200.539182 
L 113.974715 195.575228 
L 115.699932 187.912342 
L 117.425149 178.52472 
L 119.150367 183.482093 
L 120.875584 189.523726 
L 122.600802 188.153999 
L 124.326019 186.18367 
L 126.051236 185.09643 
L 127.776454 188.315827 
L 129.501671 195.281979 
L 131.226889 193.687884 
L 132.952106 190.308761 
L 134.677323 193.689874 
L 136.402541 198.708102 
L 138.127758 197.755094 
L 139.852976 191.402728 
L 141.578193 185.944654 
L 143.30341 189.7987 
L 145.028628 191.844605 
L 146.753845 191.480812 
L 148.479063 186.955724 
L 150.20428 187.634041 
L 151.929497 195.355837 
L 153.654715 208.84012 
L 157.105149 217.476612 
L 158.830367 210.241718 
L 160.555584 213.36349 
L 162.280802 208.263285 
L 164.006019 205.402114 
L 165.731236 185.324114 
L 167.456454 174.344388 
L 169.181671 170.831497 
L 170.906889 188.120092 
L 172.632106 193.123075 
L 174.357323 201.848623 
L 176.082541 206.082407 
L 177.807758 220.402845 
L 179.532976 233.236603 
L 181.258193 240.583648 
L 182.98341 243.620823 
L 184.708628 243.114997 
L 188.159063 250.064959 
L 189.88428 251.607698 
L 191.609497 248.893225 
L 193.334715 248.891095 
L 195.059932 245.382199 
L 196.785149 241.092938 
L 198.510367 237.10204 
L 200.235584 236.582508 
L 201.960802 236.477418 
L 203.686019 234.241533 
L 205.411236 227.752305 
L 207.136454 225.467971 
L 208.861671 230.718701 
L 210.586889 240.92208 
L 212.312106 243.507227 
L 214.037323 241.044337 
L 215.762541 233.826969 
L 217.487758 233.222764 
L 219.212976 228.38915 
L 220.938193 242.740121 
L 222.66341 229.269077 
L 224.388628 229.870881 
L 226.113845 207.161383 
L 227.839063 229.209749 
L 229.56428 219.501156 
L 231.289497 212.031087 
L 233.014715 192.98185 
L 234.739932 209.581314 
L 236.465149 221.065989 
L 238.190367 234.616737 
L 239.915584 224.06468 
L 241.640802 222.447011 
L 243.366019 230.764786 
L 245.091236 226.735849 
L 246.816454 230.732013 
L 248.541671 218.850986 
L 250.266889 224.281475 
L 251.992106 218.302399 
L 253.717323 221.123664 
L 255.442541 220.93512 
L 257.167758 242.141688 
L 258.892976 228.364316 
L 260.618193 218.44859 
L 262.34341 190.029585 
L 264.068628 193.727182 
L 265.793845 200.139008 
L 267.519063 199.610689 
L 269.24428 181.624175 
L 270.969497 190.09163 
L 272.694715 202.749265 
L 274.419932 214.510045 
L 276.145149 208.573118 
L 277.870367 200.569432 
L 279.595584 204.342327 
L 281.320802 203.652593 
L 283.046019 200.974213 
L 284.771236 196.618162 
L 286.496454 199.093369 
L 288.221671 191.026031 
L 289.946889 184.214067 
L 291.672106 180.790352 
L 293.397323 183.611312 
L 295.122541 181.298308 
L 296.847758 169.270937 
L 298.572976 184.905831 
L 300.298193 188.492178 
L 302.02341 200.403438 
L 303.748628 187.108997 
L 305.473845 189.611924 
L 307.199063 195.033037 
L 308.92428 197.447481 
L 310.649497 192.747876 
L 312.374715 197.145102 
L 314.099932 200.314175 
L 315.825149 220.626045 
L 319.275584 201.295556 
L 321.000802 195.464272 
L 322.726019 197.405968 
L 324.451236 197.113713 
L 326.176454 187.261183 
L 327.901671 187.08549 
L 329.626889 193.741822 
L 331.352106 189.550213 
L 333.077323 199.469935 
L 334.802541 189.152671 
L 336.527758 193.119185 
L 338.252976 182.150609 
L 339.978193 193.164416 
L 341.70341 198.60058 
L 343.428628 195.400607 
L 345.153845 176.246527 
L 346.879063 182.20913 
L 348.60428 196.443074 
L 350.329497 212.928431 
L 352.054715 210.214796 
L 353.779932 197.539344 
L 355.505149 194.357613 
L 358.955584 188.916137 
L 360.680802 182.357292 
L 362.406019 171.871023 
L 364.131236 176.669151 
L 365.856454 179.625281 
L 367.581671 181.687232 
L 369.306889 179.678119 
L 371.032106 185.826618 
L 372.757323 190.280728 
L 374.482541 201.282161 
L 376.207758 203.568241 
L 377.932976 209.560079 
L 379.658193 202.765301 
L 381.38341 202.457305 
L 383.108628 196.360244 
L 384.833845 196.693152 
L 384.833845 196.693152 
" clip-path="url(#pca20590b43)" style="fill: none; stroke: #2ca02c; stroke-width: 1.5; stroke-linecap: square"/>
   </g>
   <g id="line2d_17">
    <path d="M 29.439063 221.275211 
L 31.16428 236.505406 
L 32.889497 248.478994 
L 34.614715 250.372301 
L 36.339932 258.240554 
L 38.065149 258.641514 
L 39.790367 253.887849 
L 41.515584 250.742613 
L 43.240802 242.558839 
L 44.966019 227.832517 
L 46.691236 226.152528 
L 48.416454 232.537407 
L 50.141671 227.154092 
L 51.866889 239.663468 
L 53.592106 247.949949 
L 55.317323 246.12502 
L 57.042541 254.219959 
L 58.767758 251.824807 
L 60.492976 220.968504 
L 62.218193 205.919399 
L 63.94341 186.135769 
L 65.668628 136.533121 
L 67.393845 133.903952 
L 69.119063 128.780364 
L 70.84428 108.165345 
L 72.569497 154.661857 
L 74.294715 166.381937 
L 76.019932 156.222628 
L 79.470367 174.127491 
L 81.195584 164.056515 
L 82.920802 151.002816 
L 84.646019 139.788926 
L 86.371236 90.161987 
L 88.096454 73.226844 
L 89.821671 79.930908 
L 91.546889 63.162834 
L 93.272106 67.394559 
L 94.997323 87.608872 
L 96.722541 95.307164 
L 98.447758 130.829051 
L 100.172976 130.923693 
L 103.62341 149.07322 
L 105.348628 145.514995 
L 107.073845 165.230701 
L 108.799063 172.15619 
L 110.52428 183.990017 
L 112.249497 198.107108 
L 113.974715 192.195781 
L 115.699932 190.267628 
L 117.425149 190.194295 
L 119.150367 178.776002 
L 120.875584 185.572177 
L 122.600802 190.372599 
L 124.326019 184.54832 
L 126.051236 186.766963 
L 127.776454 189.473261 
L 129.501671 190.069324 
L 131.226889 192.410021 
L 136.402541 195.044354 
L 138.127758 196.351076 
L 139.852976 194.867136 
L 141.578193 189.335364 
L 143.30341 189.603599 
L 145.028628 190.360547 
L 146.753845 189.394825 
L 148.479063 190.342872 
L 150.20428 188.74688 
L 151.929497 192.084855 
L 153.654715 203.69443 
L 155.379932 208.628052 
L 157.105149 214.390906 
L 158.830367 214.306201 
L 160.555584 212.043229 
L 162.280802 210.791529 
L 164.006019 205.110817 
L 165.731236 194.096195 
L 167.456454 181.995215 
L 169.181671 177.300368 
L 170.906889 180.166067 
L 172.632106 188.02426 
L 174.357323 198.022962 
L 176.082541 205.800327 
L 177.807758 213.03684 
L 179.532976 228.256977 
L 181.258193 235.194567 
L 182.98341 240.763189 
L 184.708628 244.49752 
L 186.433845 245.259188 
L 189.88428 250.498685 
L 191.609497 249.519384 
L 193.334715 249.59516 
L 195.059932 247.032432 
L 196.785149 241.548346 
L 198.510367 240.987516 
L 201.960802 234.646856 
L 203.686019 235.892398 
L 205.411236 230.881904 
L 207.136454 226.256947 
L 208.861671 231.579139 
L 210.586889 236.122417 
L 212.312106 238.507266 
L 214.037323 242.782759 
L 215.762541 238.331566 
L 217.487758 232.634606 
L 219.212976 231.587191 
L 220.938193 239.646891 
L 222.66341 229.193149 
L 224.388628 229.040635 
L 226.113845 225.896331 
L 227.839063 217.632953 
L 229.56428 221.78581 
L 231.289497 212.266073 
L 233.014715 208.065956 
L 234.739932 206.313066 
L 236.465149 213.521109 
L 238.190367 226.061058 
L 239.915584 227.980673 
L 241.640802 222.980288 
L 243.366019 233.074257 
L 245.091236 221.710038 
L 246.816454 228.075685 
L 248.541671 230.662107 
L 250.266889 216.432907 
L 251.992106 221.898783 
L 253.717323 223.537176 
L 255.442541 218.034898 
L 257.167758 235.927619 
L 258.892976 230.806248 
L 260.618193 215.976432 
L 262.34341 216.679967 
L 264.068628 192.041922 
L 265.793845 192.910047 
L 267.519063 202.612348 
L 269.24428 185.877122 
L 270.969497 190.175906 
L 272.694715 204.536808 
L 274.419932 198.448671 
L 276.145149 209.676726 
L 277.870367 211.634562 
L 279.595584 199.686873 
L 281.320802 201.281933 
L 283.046019 206.126362 
L 284.771236 196.71423 
L 286.496454 197.268091 
L 288.221671 196.960725 
L 289.946889 183.923798 
L 291.672106 185.627441 
L 293.397323 185.325715 
L 295.122541 176.313222 
L 296.847758 174.670499 
L 298.572976 188.327129 
L 300.298193 180.177036 
L 303.748628 200.262414 
L 305.473845 183.839538 
L 307.199063 194.796847 
L 308.92428 198.049398 
L 310.649497 188.189868 
L 312.374715 200.271432 
L 314.099932 201.939318 
L 315.825149 207.269481 
L 317.550367 213.289999 
L 319.275584 204.949238 
L 321.000802 203.848238 
L 322.726019 195.139464 
L 324.451236 194.305696 
L 326.176454 193.674278 
L 327.901671 188.888776 
L 329.626889 191.5016 
L 331.352106 187.892686 
L 333.077323 198.041309 
L 334.802541 193.005785 
L 336.527758 187.405469 
L 338.252976 192.869183 
L 339.978193 188.066754 
L 341.70341 194.64471 
L 343.428628 194.587132 
L 345.153845 183.841066 
L 346.879063 186.599767 
L 348.60428 192.921842 
L 350.329497 198.395901 
L 352.054715 211.065593 
L 353.779932 203.715513 
L 355.505149 196.858291 
L 357.230367 195.13317 
L 358.955584 187.209652 
L 360.680802 185.572071 
L 362.406019 178.699715 
L 364.131236 175.832866 
L 365.856454 178.493445 
L 367.581671 178.184745 
L 369.306889 181.575194 
L 371.032106 185.331186 
L 372.757323 186.329848 
L 374.482541 196.546057 
L 376.207758 202.936162 
L 377.932976 204.468548 
L 379.658193 205.586066 
L 381.38341 203.806931 
L 383.108628 199.140338 
L 384.833845 195.73979 
L 384.833845 195.73979 
" clip-path="url(#pca20590b43)" style="fill: none; stroke: #d62728; stroke-width: 1.5; stroke-linecap: square"/>
   </g>
   <g id="line2d_18">
    <path d="M 29.439063 222.506149 
L 31.16428 229.225195 
L 32.889497 244.328125 
L 34.614715 247.402355 
L 36.339932 252.954749 
L 38.065149 258.019032 
L 39.790367 257.295259 
L 41.515584 249.2435 
L 43.240802 246.974437 
L 44.966019 234.54074 
L 46.691236 231.861658 
L 48.416454 231.553594 
L 50.141671 227.717781 
L 51.866889 232.012654 
L 53.592106 247.643113 
L 57.042541 246.413994 
L 58.767758 251.305355 
L 60.492976 234.325278 
L 62.218193 214.484016 
L 63.94341 201.387908 
L 65.668628 163.586194 
L 67.393845 129.858474 
L 69.119063 141.397281 
L 70.84428 125.3209 
L 72.569497 134.972888 
L 74.294715 154.989431 
L 76.019932 158.76708 
L 77.745149 155.361922 
L 79.470367 182.873277 
L 81.195584 162.532711 
L 82.920802 145.998895 
L 84.646019 142.271252 
L 86.371236 131.739654 
L 88.096454 80.2958 
L 89.821671 74.469261 
L 91.546889 71.612377 
L 93.272106 73.369884 
L 94.997323 78.170446 
L 96.722541 92.205622 
L 98.447758 114.651386 
L 100.172976 126.98029 
L 101.898193 135.707335 
L 103.62341 141.820322 
L 105.348628 152.338799 
L 107.073845 155.572908 
L 108.799063 168.629853 
L 110.52428 177.501124 
L 112.249497 192.046346 
L 113.974715 191.863517 
L 115.699932 188.562489 
L 117.425149 191.603524 
L 119.150367 188.124556 
L 120.875584 181.447777 
L 122.600802 187.0666 
L 124.326019 187.0915 
L 126.051236 185.34807 
L 127.776454 189.913695 
L 129.501671 190.637736 
L 131.226889 188.763136 
L 132.952106 192.33744 
L 134.677323 195.654061 
L 136.402541 195.075047 
L 138.127758 193.860278 
L 139.852976 194.307816 
L 141.578193 192.563919 
L 143.30341 191.542008 
L 146.753845 188.685177 
L 148.479063 188.893792 
L 150.20428 191.078975 
L 151.929497 192.074346 
L 153.654715 199.593102 
L 155.379932 204.565698 
L 157.105149 210.577143 
L 158.830367 212.428944 
L 160.555584 214.907852 
L 162.280802 210.23647 
L 164.006019 207.817891 
L 165.731236 196.188428 
L 167.456454 189.862088 
L 169.181671 182.770205 
L 170.906889 183.291563 
L 172.632106 181.712392 
L 174.357323 193.113415 
L 177.807758 211.463604 
L 181.258193 230.909798 
L 184.708628 242.063784 
L 186.433845 245.919887 
L 188.159063 246.583547 
L 189.88428 248.741635 
L 191.609497 249.036102 
L 193.334715 249.952996 
L 195.059932 247.98217 
L 196.785149 243.701758 
L 198.510367 241.373489 
L 200.235584 240.72956 
L 201.960802 235.993508 
L 203.686019 234.540632 
L 205.411236 232.924776 
L 207.136454 229.099784 
L 208.861671 230.988135 
L 210.586889 235.724345 
L 212.312106 235.091221 
L 214.037323 238.923995 
L 215.762541 240.309621 
L 217.487758 236.532871 
L 219.212976 231.439783 
L 220.938193 239.832571 
L 222.66341 229.288225 
L 224.388628 229.025515 
L 226.113845 226.018762 
L 227.839063 229.776904 
L 229.56428 213.604985 
L 231.289497 215.680869 
L 233.014715 209.062995 
L 234.739932 214.984372 
L 236.465149 210.206824 
L 238.190367 219.314815 
L 239.915584 222.17396 
L 241.640802 226.369517 
L 243.366019 231.430807 
L 245.091236 225.577264 
L 246.816454 223.851206 
L 248.541671 228.555607 
L 250.266889 226.648719 
L 251.992106 216.031922 
L 253.717323 225.28565 
L 255.442541 220.640156 
L 257.167758 231.061495 
L 258.892976 227.73105 
L 260.618193 220.726004 
L 262.34341 215.037011 
L 264.068628 213.157231 
L 265.793845 191.720756 
L 267.519063 196.460668 
L 269.24428 191.350375 
L 270.969497 191.757527 
L 272.694715 201.836996 
L 274.419932 200.792232 
L 276.145149 197.550137 
L 277.870367 211.894043 
L 279.595584 208.846332 
L 281.320802 198.115669 
L 283.046019 203.773183 
L 284.771236 201.828184 
L 286.496454 197.214919 
L 288.221671 195.912493 
L 291.672106 185.115566 
L 293.397323 188.215948 
L 295.122541 179.230873 
L 296.847758 171.901027 
L 298.572976 188.619752 
L 300.298193 183.951829 
L 302.02341 183.070739 
L 303.748628 191.957715 
L 305.473845 195.323676 
L 307.199063 189.316525 
L 308.92428 197.266248 
L 310.649497 190.602066 
L 312.374715 195.331172 
L 314.099932 203.427593 
L 315.825149 207.153921 
L 317.550367 203.660003 
L 319.275584 208.209749 
L 321.000802 206.225655 
L 322.726019 201.968952 
L 324.451236 193.086981 
L 326.176454 192.080368 
L 327.901671 193.671134 
L 329.626889 192.037551 
L 331.352106 187.230909 
L 333.077323 195.127704 
L 334.802541 193.136595 
L 336.527758 190.879234 
L 338.252976 188.360647 
L 339.978193 195.259724 
L 341.70341 190.323195 
L 343.428628 192.16594 
L 345.153845 185.535827 
L 346.879063 190.356327 
L 348.60428 194.157665 
L 350.329497 195.231943 
L 352.054715 199.805793 
L 353.779932 205.75506 
L 355.505149 201.980701 
L 357.230367 196.973377 
L 360.680802 184.857416 
L 362.406019 182.068236 
L 364.131236 180.423619 
L 365.856454 177.468219 
L 367.581671 177.562124 
L 369.306889 178.80059 
L 371.032106 185.690961 
L 372.757323 185.834271 
L 376.207758 198.87215 
L 377.932976 203.786566 
L 379.658193 202.226072 
L 381.38341 205.845892 
L 383.108628 200.914612 
L 384.833845 198.101447 
L 384.833845 198.101447 
" clip-path="url(#pca20590b43)" style="fill: none; stroke: #9467bd; stroke-width: 1.5; stroke-linecap: square"/>
   </g>
   <g id="line2d_19">
    <path d="M 29.439063 221.989476 
L 31.16428 228.904971 
L 32.889497 237.483987 
L 34.614715 244.099331 
L 36.339932 250.133055 
L 39.790367 256.994611 
L 41.515584 253.038847 
L 44.966019 239.915086 
L 46.691236 236.632969 
L 48.416454 235.239876 
L 50.141671 227.68395 
L 51.866889 231.670455 
L 53.592106 240.522 
L 55.317323 246.901912 
L 57.042541 247.094508 
L 58.767758 245.135114 
L 60.492976 236.98727 
L 62.218193 227.417148 
L 63.94341 209.558869 
L 67.393845 154.479575 
L 69.119063 136.912814 
L 70.84428 136.626651 
L 72.569497 143.651398 
L 74.294715 138.702995 
L 76.019932 150.24993 
L 77.745149 157.637623 
L 79.470367 172.805614 
L 81.195584 172.308881 
L 82.920802 147.756838 
L 84.646019 139.424444 
L 86.371236 135.249771 
L 88.096454 118.380389 
L 89.821671 80.14313 
L 91.546889 68.347758 
L 93.272106 78.528388 
L 96.722541 83.731536 
L 98.447758 109.142714 
L 100.172976 114.016671 
L 101.898193 131.704446 
L 103.62341 137.894546 
L 105.348628 145.867244 
L 107.073845 159.375849 
L 108.799063 160.199988 
L 110.52428 173.774933 
L 112.249497 185.603024 
L 113.974715 187.691034 
L 117.425149 189.973888 
L 119.150367 189.661866 
L 120.875584 188.720384 
L 122.600802 183.420157 
L 124.326019 184.839306 
L 126.051236 187.32764 
L 127.776454 188.234936 
L 129.501671 190.808875 
L 131.226889 189.459306 
L 132.952106 189.315904 
L 134.677323 194.488321 
L 136.402541 196.222111 
L 138.127758 194.084129 
L 139.852976 192.551171 
L 141.578193 192.477858 
L 143.30341 193.836383 
L 145.028628 191.623847 
L 146.753845 188.740474 
L 148.479063 188.38451 
L 150.20428 189.755489 
L 151.929497 193.432394 
L 153.654715 198.363082 
L 155.379932 201.032618 
L 157.105149 206.925265 
L 158.830367 209.543013 
L 160.555584 213.252545 
L 162.280802 212.963095 
L 164.006019 207.846519 
L 167.456454 192.369156 
L 169.181671 189.197994 
L 170.906889 186.729077 
L 172.632106 184.042107 
L 174.357323 187.198671 
L 177.807758 207.540235 
L 179.532976 218.675332 
L 181.258193 224.780796 
L 182.98341 232.725185 
L 186.433845 243.690539 
L 188.159063 246.907814 
L 189.88428 247.474879 
L 191.609497 247.797075 
L 193.334715 249.480254 
L 195.059932 248.556817 
L 196.785149 245.08607 
L 198.510367 243.204053 
L 201.960802 238.815428 
L 203.686019 235.683007 
L 205.411236 232.270423 
L 207.136454 231.130882 
L 208.861671 232.49656 
L 210.586889 234.57189 
L 212.312106 234.929153 
L 214.037323 236.028174 
L 215.762541 237.444895 
L 217.487758 238.514573 
L 219.212976 234.934333 
L 220.938193 238.395766 
L 222.66341 231.266365 
L 224.388628 229.132824 
L 226.113845 226.515892 
L 227.839063 229.239417 
L 229.56428 224.817696 
L 231.289497 209.621523 
L 233.014715 212.522123 
L 236.465149 216.641101 
L 238.190367 215.732855 
L 239.915584 217.061613 
L 241.640802 221.758769 
L 243.366019 232.710465 
L 245.091236 225.409058 
L 246.816454 226.675144 
L 248.541671 224.981941 
L 250.266889 225.516094 
L 251.992106 224.706134 
L 253.717323 219.993368 
L 255.442541 222.621729 
L 257.167758 230.960194 
L 258.892976 224.808205 
L 260.618193 219.699069 
L 262.34341 219.194515 
L 264.068628 212.348296 
L 265.793845 209.65087 
L 267.519063 194.907088 
L 269.24428 187.807324 
L 270.969497 195.211158 
L 272.694715 201.189777 
L 274.419932 199.121299 
L 276.145149 199.667689 
L 277.870367 201.664094 
L 279.595584 209.536309 
L 281.320802 206.137929 
L 283.046019 200.771985 
L 284.771236 200.539284 
L 286.496454 201.393693 
L 289.946889 190.557175 
L 291.672106 190.24811 
L 293.397323 187.367939 
L 295.122541 182.763564 
L 296.847758 175.139954 
L 298.572976 184.260041 
L 302.02341 185.693006 
L 303.748628 186.011723 
L 305.473845 189.053189 
L 307.199063 197.746163 
L 308.92428 192.377572 
L 310.649497 191.188962 
L 312.374715 196.093335 
L 314.099932 198.888857 
L 315.825149 207.49831 
L 319.275584 200.805821 
L 321.000802 208.713277 
L 322.726019 204.293783 
L 324.451236 199.221764 
L 326.176454 191.424833 
L 327.901671 192.344692 
L 329.626889 195.438584 
L 331.352106 188.410429 
L 333.077323 193.421343 
L 334.802541 191.466693 
L 336.527758 191.34645 
L 338.252976 191.086209 
L 339.978193 191.173373 
L 341.70341 195.888562 
L 343.428628 188.934661 
L 345.153845 184.957424 
L 346.879063 190.651256 
L 348.60428 195.922878 
L 350.329497 195.865522 
L 352.054715 196.964714 
L 353.779932 196.992366 
L 355.505149 203.993471 
L 357.230367 201.233957 
L 358.955584 193.29733 
L 360.680802 188.48751 
L 362.406019 182.050611 
L 364.131236 182.922867 
L 365.856454 180.997684 
L 367.581671 176.85942 
L 369.306889 178.181248 
L 371.032106 182.759312 
L 372.757323 186.049535 
L 374.482541 190.908696 
L 376.207758 194.995539 
L 377.932976 200.287033 
L 379.658193 202.025934 
L 381.38341 203.014019 
L 383.108628 203.136112 
L 384.833845 199.765493 
L 384.833845 199.765493 
" clip-path="url(#pca20590b43)" style="fill: none; stroke: #8c564b; stroke-width: 1.5; stroke-linecap: square"/>
   </g>
   <g id="line2d_20">
    <path d="M 29.439063 224.216778 
L 31.16428 227.596136 
L 32.889497 236.094002 
L 34.614715 238.285498 
L 36.339932 247.009287 
L 38.065149 251.173405 
L 39.790367 253.38057 
L 41.515584 253.391419 
L 43.240802 250.111493 
L 44.966019 240.35466 
L 46.691236 240.873149 
L 48.416454 238.743918 
L 50.141671 231.524757 
L 51.866889 231.087585 
L 53.592106 239.084283 
L 55.317323 240.893702 
L 57.042541 246.996197 
L 58.767758 245.910647 
L 60.492976 233.085415 
L 62.218193 230.86679 
L 63.94341 221.875268 
L 65.668628 192.984554 
L 67.393845 172.579527 
L 69.119063 156.56697 
L 70.84428 133.393898 
L 72.569497 150.105108 
L 74.294715 145.513232 
L 76.019932 136.739153 
L 77.745149 150.483069 
L 79.470367 172.207681 
L 81.195584 164.739432 
L 82.920802 159.007124 
L 84.646019 141.932814 
L 86.371236 133.752243 
L 89.821671 113.209754 
L 91.546889 74.203567 
L 93.272106 74.821343 
L 94.997323 84.425418 
L 96.722541 85.512302 
L 98.447758 100.005778 
L 100.172976 109.382331 
L 101.898193 120.19955 
L 103.62341 134.191304 
L 105.348628 141.997781 
L 107.073845 153.047456 
L 108.799063 162.735832 
L 110.52428 166.052801 
L 112.249497 181.433711 
L 113.974715 182.665304 
L 115.699932 185.684395 
L 117.425149 190.052933 
L 119.150367 188.528151 
L 120.875584 189.949308 
L 122.600802 189.323584 
L 124.326019 181.997329 
L 126.051236 185.368481 
L 127.776454 189.494891 
L 129.501671 189.251731 
L 131.226889 189.776067 
L 132.952106 189.831957 
L 134.677323 191.63289 
L 136.402541 195.146246 
L 138.127758 195.216294 
L 139.852976 192.932486 
L 141.578193 191.218756 
L 143.30341 193.58218 
L 145.028628 193.580143 
L 146.753845 190.258975 
L 148.479063 188.474989 
L 150.20428 189.198645 
L 151.929497 191.981943 
L 153.654715 198.601115 
L 155.379932 199.784621 
L 157.105149 203.618883 
L 158.830367 206.544268 
L 160.555584 210.681256 
L 162.280802 211.804545 
L 164.006019 210.573035 
L 165.731236 201.272819 
L 169.181671 191.453746 
L 170.906889 191.567199 
L 172.632106 186.873421 
L 174.357323 188.362043 
L 176.082541 191.892493 
L 179.532976 214.499122 
L 181.258193 222.158824 
L 182.98341 227.322903 
L 184.708628 234.922937 
L 186.433845 240.308315 
L 188.159063 244.880253 
L 189.88428 247.623529 
L 191.609497 246.836933 
L 193.334715 248.36133 
L 195.059932 248.346486 
L 196.785149 246.014508 
L 198.510367 244.469403 
L 200.235584 242.710852 
L 201.960802 239.410904 
L 203.686019 238.158751 
L 205.411236 233.598803 
L 207.136454 230.819473 
L 208.861671 233.710105 
L 210.586889 235.321048 
L 212.312106 234.048867 
L 214.037323 235.757231 
L 215.762541 235.145673 
L 217.487758 236.280027 
L 219.212976 236.891486 
L 220.938193 240.248563 
L 222.66341 231.206691 
L 224.388628 230.855381 
L 226.113845 226.97232 
L 227.839063 229.200263 
L 229.56428 225.060755 
L 231.289497 220.171876 
L 233.014715 207.679122 
L 234.739932 216.719103 
L 236.465149 216.123738 
L 238.190367 220.271379 
L 239.915584 214.26839 
L 241.640802 217.436337 
L 243.366019 228.104504 
L 245.091236 227.449084 
L 246.816454 226.376218 
L 248.541671 227.223636 
L 250.266889 222.819885 
L 251.992106 223.999794 
L 253.717323 226.684388 
L 255.442541 218.385403 
L 257.167758 231.107781 
L 258.892976 225.63427 
L 260.618193 218.212387 
L 262.34341 218.52415 
L 264.068628 216.383034 
L 265.793845 209.44702 
L 267.519063 209.664523 
L 269.24428 187.671964 
L 270.969497 191.709338 
L 272.694715 202.671045 
L 274.419932 198.947973 
L 276.145149 198.387136 
L 277.870367 202.852002 
L 279.595584 201.008475 
L 281.320802 207.131896 
L 283.046019 207.18111 
L 284.771236 198.380668 
L 286.496454 200.348606 
L 288.221671 199.87207 
L 289.946889 191.497092 
L 291.672106 190.446999 
L 293.397323 191.399083 
L 295.122541 182.804438 
L 296.847758 178.836405 
L 298.572976 185.145917 
L 300.298193 181.658839 
L 302.02341 186.284838 
L 303.748628 187.806378 
L 305.473845 184.297498 
L 307.199063 192.130815 
L 308.92428 199.063592 
L 310.649497 187.727666 
L 312.374715 195.808404 
L 314.099932 199.024939 
L 315.825149 203.154815 
L 317.550367 204.902638 
L 319.275584 201.663825 
L 321.000802 202.345891 
L 322.726019 206.736348 
L 324.451236 201.650842 
L 326.176454 196.995616 
L 327.901671 191.746216 
L 329.626889 194.064329 
L 331.352106 191.922213 
L 333.077323 193.527147 
L 334.802541 190.499864 
L 336.527758 190.157175 
L 338.252976 191.456708 
L 339.978193 193.073793 
L 341.70341 192.318328 
L 343.428628 193.959995 
L 345.153845 183.119016 
L 348.60428 195.385749 
L 350.329497 197.120655 
L 352.054715 197.255697 
L 353.779932 194.920628 
L 355.505149 196.680503 
L 357.230367 203.076989 
L 358.955584 197.57802 
L 360.680802 190.830877 
L 362.406019 185.624953 
L 364.131236 182.786056 
L 365.856454 183.053444 
L 367.581671 179.987536 
L 369.306889 177.492985 
L 371.032106 181.681811 
L 372.757323 183.494688 
L 374.482541 190.37394 
L 376.207758 193.456085 
L 377.932976 196.801619 
L 379.658193 199.248738 
L 381.38341 202.731164 
L 383.108628 201.057162 
L 384.833845 201.851756 
L 384.833845 201.851756 
" clip-path="url(#pca20590b43)" style="fill: none; stroke: #e377c2; stroke-width: 1.5; stroke-linecap: square"/>
   </g>
   <g id="patch_3">
    <path d="M 29.439063 284.991437 
L 29.439063 18.879437 
" style="fill: none; stroke: #000000; stroke-width: 0.8; stroke-linejoin: miter; stroke-linecap: square"/>
   </g>
   <g id="patch_4">
    <path d="M 386.559062 284.991437 
L 386.559062 18.879437 
" style="fill: none; stroke: #000000; stroke-width: 0.8; stroke-linejoin: miter; stroke-linecap: square"/>
   </g>
   <g id="patch_5">
    <path d="M 29.439063 284.991437 
L 386.559063 284.991437 
" style="fill: none; stroke: #000000; stroke-width: 0.8; stroke-linejoin: miter; stroke-linecap: square"/>
   </g>
   <g id="patch_6">
    <path d="M 29.439063 18.879437 
L 386.559063 18.879437 
" style="fill: none; stroke: #000000; stroke-width: 0.8; stroke-linejoin: miter; stroke-linecap: square"/>
   </g>
   <g id="legend_1">
    <g id="patch_7">
     <path d="M 341.260625 127.613812 
L 379.559062 127.613812 
Q 381.559062 127.613812 381.559062 125.613812 
L 381.559062 25.879437 
Q 381.559062 23.879437 379.559062 23.879437 
L 341.260625 23.879437 
Q 339.260625 23.879437 339.260625 25.879437 
L 339.260625 125.613812 
Q 339.260625 127.613812 341.260625 127.613812 
z
" style="fill: #ffffff; opacity: 0.8; stroke: #cccccc; stroke-linejoin: miter"/>
    </g>
    <g id="line2d_21">
     <path d="M 343.260625 31.870062 
L 353.260625 31.870062 
L 363.260625 31.870062 
" style="fill: none; stroke: #1f77b4; stroke-width: 1.5; stroke-linecap: square"/>
    </g>
    <g id="text_14">
     <!-- 1 -->
     <g transform="translate(371.260625 35.370062) scale(0.1 -0.1)">
      <use xlink:href="#IPAexGothic-31"/>
     </g>
    </g>
    <g id="line2d_22">
     <path d="M 343.260625 46.260687 
L 353.260625 46.260687 
L 363.260625 46.260687 
" style="fill: none; stroke: #ff7f0e; stroke-width: 1.5; stroke-linecap: square"/>
    </g>
    <g id="text_15">
     <!-- 2 -->
     <g transform="translate(371.260625 49.760687) scale(0.1 -0.1)">
      <use xlink:href="#IPAexGothic-32"/>
     </g>
    </g>
    <g id="line2d_23">
     <path d="M 343.260625 60.651312 
L 353.260625 60.651312 
L 363.260625 60.651312 
" style="fill: none; stroke: #2ca02c; stroke-width: 1.5; stroke-linecap: square"/>
    </g>
    <g id="text_16">
     <!-- 3 -->
     <g transform="translate(371.260625 64.151312) scale(0.1 -0.1)">
      <defs>
       <path id="IPAexGothic-33" d="M 2381 2419 
Q 3506 2216 3506 1278 
Q 3506 716 3128 356 
Q 2709 -31 1944 -31 
Q 797 -31 288 881 
L 756 1131 
Q 1109 441 1938 441 
Q 2425 441 2694 691 
Q 2950 928 2950 1291 
Q 2950 1719 2566 1978 
Q 2216 2213 1644 2213 
L 1363 2213 
L 1363 2669 
L 1656 2669 
Q 2231 2669 2534 2888 
Q 2859 3119 2859 3509 
Q 2859 3934 2494 4138 
Q 2259 4278 1931 4278 
Q 1238 4278 903 3578 
L 434 3803 
Q 897 4725 1938 4725 
Q 2597 4725 3006 4394 
Q 3416 4069 3416 3534 
Q 3416 3028 3019 2706 
Q 2763 2500 2381 2444 
L 2381 2419 
z
" transform="scale(0.015625)"/>
      </defs>
      <use xlink:href="#IPAexGothic-33"/>
     </g>
    </g>
    <g id="line2d_24">
     <path d="M 343.260625 75.041937 
L 353.260625 75.041937 
L 363.260625 75.041937 
" style="fill: none; stroke: #d62728; stroke-width: 1.5; stroke-linecap: square"/>
    </g>
    <g id="text_17">
     <!-- 4 -->
     <g transform="translate(371.260625 78.541937) scale(0.1 -0.1)">
      <defs>
       <path id="IPAexGothic-34" d="M 3813 1159 
L 3059 1159 
L 3059 63 
L 2547 63 
L 2547 1159 
L 197 1159 
L 197 1672 
L 2456 4678 
L 3059 4678 
L 3059 1634 
L 3813 1634 
L 3813 1159 
z
M 2578 4109 
L 2559 4109 
Q 2278 3656 2003 3284 
L 759 1634 
L 2547 1634 
L 2547 3144 
Q 2547 3481 2578 4109 
z
" transform="scale(0.015625)"/>
      </defs>
      <use xlink:href="#IPAexGothic-34"/>
     </g>
    </g>
    <g id="line2d_25">
     <path d="M 343.260625 89.432562 
L 353.260625 89.432562 
L 363.260625 89.432562 
" style="fill: none; stroke: #9467bd; stroke-width: 1.5; stroke-linecap: square"/>
    </g>
    <g id="text_18">
     <!-- 5 -->
     <g transform="translate(371.260625 92.932562) scale(0.1 -0.1)">
      <use xlink:href="#IPAexGothic-35"/>
     </g>
    </g>
    <g id="line2d_26">
     <path d="M 343.260625 103.823187 
L 353.260625 103.823187 
L 363.260625 103.823187 
" style="fill: none; stroke: #8c564b; stroke-width: 1.5; stroke-linecap: square"/>
    </g>
    <g id="text_19">
     <!-- 6 -->
     <g transform="translate(371.260625 107.323187) scale(0.1 -0.1)">
      <defs>
       <path id="IPAexGothic-36" d="M 1056 2328 
Q 1509 2981 2234 2981 
Q 2906 2981 3316 2513 
Q 3675 2106 3675 1522 
Q 3675 884 3272 434 
Q 2853 -31 2178 -31 
Q 1375 -31 922 581 
Q 481 1178 481 2228 
Q 481 3425 1013 4109 
Q 1494 4725 2272 4725 
Q 3191 4725 3609 4025 
L 3150 3775 
Q 2894 4266 2300 4266 
Q 1119 4266 1031 2328 
L 1056 2328 
z
M 2141 2547 
Q 1684 2547 1384 2206 
Q 1116 1900 1116 1541 
Q 1116 1156 1353 844 
Q 1672 428 2159 428 
Q 2669 428 2941 844 
Q 3125 1128 3125 1503 
Q 3125 1944 2881 2228 
Q 2600 2547 2141 2547 
z
" transform="scale(0.015625)"/>
      </defs>
      <use xlink:href="#IPAexGothic-36"/>
     </g>
    </g>
    <g id="line2d_27">
     <path d="M 343.260625 118.213812 
L 353.260625 118.213812 
L 363.260625 118.213812 
" style="fill: none; stroke: #e377c2; stroke-width: 1.5; stroke-linecap: square"/>
    </g>
    <g id="text_20">
     <!-- 7 -->
     <g transform="translate(371.260625 121.713812) scale(0.1 -0.1)">
      <defs>
       <path id="IPAexGothic-37" d="M 3597 4263 
Q 2238 2106 1778 63 
L 1131 63 
Q 1581 1834 2950 4128 
L 428 4128 
L 428 4634 
L 3597 4634 
L 3597 4263 
z
" transform="scale(0.015625)"/>
      </defs>
      <use xlink:href="#IPAexGothic-37"/>
     </g>
    </g>
   </g>
  </g>
  <g id="axes_2">
   <g id="matplotlib.axis_3"/>
   <g id="patch_8">
    <path d="M 29.439063 284.991437 
L 29.439063 18.879437 
" style="fill: none; stroke: #000000; stroke-width: 0.8; stroke-linejoin: miter; stroke-linecap: square"/>
   </g>
   <g id="patch_9">
    <path d="M 386.559062 284.991437 
L 386.559062 18.879437 
" style="fill: none; stroke: #000000; stroke-width: 0.8; stroke-linejoin: miter; stroke-linecap: square"/>
   </g>
   <g id="patch_10">
    <path d="M 29.439063 284.991437 
L 386.559063 284.991437 
" style="fill: none; stroke: #000000; stroke-width: 0.8; stroke-linejoin: miter; stroke-linecap: square"/>
   </g>
   <g id="patch_11">
    <path d="M 29.439063 18.879437 
L 386.559063 18.879437 
" style="fill: none; stroke: #000000; stroke-width: 0.8; stroke-linejoin: miter; stroke-linecap: square"/>
   </g>
  </g>
  <g id="text_21">
   <!-- : 2022/12/24 16:13:10(JST) -->
   <g transform="translate(211.087188 15.423437) scale(0.1 -0.1)">
    <defs>
     <path id="IPAexGothic-66f4" d="M 2956 3994 
L 2956 4588 
L 513 4588 
L 513 4984 
L 5881 4984 
L 5881 4588 
L 3413 4588 
L 3413 3994 
L 5300 3994 
L 5300 1288 
L 4838 1288 
L 4838 1759 
L 3406 1759 
Q 3384 1125 3150 709 
Q 4291 244 5997 31 
L 5694 -428 
Q 4109 -166 2906 384 
Q 2294 -266 744 -488 
L 494 -66 
Q 1903 59 2491 588 
Q 2041 813 1594 1166 
L 1928 1434 
Q 2331 1106 2747 897 
Q 2922 1219 2950 1759 
L 1556 1759 
L 1556 1413 
L 1097 1413 
L 1097 3994 
L 2956 3994 
z
M 2956 3609 
L 1556 3609 
L 1556 3078 
L 2956 3078 
L 2956 3609 
z
M 3413 3609 
L 3413 3078 
L 4838 3078 
L 4838 3609 
L 3413 3609 
z
M 2956 2700 
L 1556 2700 
L 1556 2144 
L 2956 2144 
L 2956 2700 
z
M 3413 2700 
L 3413 2144 
L 4838 2144 
L 4838 2700 
L 3413 2700 
z
" transform="scale(0.015625)"/>
     <path id="IPAexGothic-65b0" d="M 3891 2803 
Q 3881 1759 3794 1166 
Q 3653 197 3097 -563 
L 2741 -250 
Q 3450 700 3450 2631 
L 3450 4647 
Q 3516 4656 3622 4666 
Q 4656 4778 5447 5063 
L 5825 4678 
Q 4897 4419 3891 4294 
L 3891 3219 
L 6119 3219 
L 6119 2803 
L 5275 2803 
L 5275 -447 
L 4834 -447 
L 4834 2803 
L 3891 2803 
z
M 2822 4069 
Q 2678 3572 2519 3181 
L 3250 3181 
L 3250 2784 
L 2059 2784 
L 2059 2216 
L 3184 2216 
L 3184 1831 
L 2059 1831 
L 2059 1544 
Q 2613 1197 3031 847 
L 2781 456 
Q 2472 791 2059 1128 
L 2059 -447 
L 1644 -447 
L 1644 1294 
Q 1272 628 575 -31 
L 269 341 
Q 1041 938 1528 1831 
L 453 1831 
L 453 2216 
L 1644 2216 
L 1644 2784 
L 319 2784 
L 319 3181 
L 1125 3181 
Q 1013 3706 881 4069 
L 453 4069 
L 453 4453 
L 1631 4453 
L 1631 5309 
L 2072 5309 
L 2072 4453 
L 3166 4453 
L 3166 4069 
L 2822 4069 
z
M 2391 4069 
L 1325 4069 
Q 1450 3672 1534 3181 
L 2109 3181 
Q 2294 3659 2391 4069 
z
" transform="scale(0.015625)"/>
     <path id="IPAexGothic-65e5" d="M 5231 4800 
L 5231 -288 
L 4744 -288 
L 4744 128 
L 1647 128 
L 1647 -288 
L 1159 -288 
L 1159 4800 
L 5231 4800 
z
M 1647 4372 
L 1647 2731 
L 4744 2731 
L 4744 4372 
L 1647 4372 
z
M 1647 2297 
L 1647 556 
L 4744 556 
L 4744 2297 
L 1647 2297 
z
" transform="scale(0.015625)"/>
     <path id="IPAexGothic-6642" d="M 2328 4728 
L 2328 563 
L 934 563 
L 934 56 
L 519 56 
L 519 4728 
L 2328 4728 
z
M 934 4331 
L 934 2881 
L 1906 2881 
L 1906 4331 
L 934 4331 
z
M 934 2497 
L 934 953 
L 1906 953 
L 1906 2497 
L 934 2497 
z
M 3938 4372 
L 3938 5313 
L 4378 5313 
L 4378 4372 
L 5772 4372 
L 5772 3981 
L 4378 3981 
L 4378 3194 
L 6072 3194 
L 6072 2803 
L 5203 2803 
L 5203 2047 
L 5959 2047 
L 5959 1650 
L 5216 1650 
L 5216 31 
Q 5216 -447 4691 -447 
Q 4394 -447 3888 -391 
L 3784 78 
Q 4272 0 4591 0 
Q 4775 0 4775 172 
L 4775 1650 
L 2581 1650 
L 2581 2047 
L 4763 2047 
L 4763 2803 
L 2538 2803 
L 2538 3194 
L 3938 3194 
L 3938 3981 
L 2716 3981 
L 2716 4372 
L 3938 4372 
z
M 3669 384 
Q 3331 950 2956 1325 
L 3291 1575 
Q 3719 1147 4025 659 
L 3669 384 
z
" transform="scale(0.015625)"/>
     <path id="IPAexGothic-3a" d="M 1369 2559 
L 672 2559 
L 672 3250 
L 1369 3250 
L 1369 2559 
z
M 1369 63 
L 672 63 
L 672 753 
L 1369 753 
L 1369 63 
z
" transform="scale(0.015625)"/>
     <path id="IPAexGothic-20" transform="scale(0.015625)"/>
     <path id="IPAexGothic-2f" d="M 2719 4709 
L 600 -884 
L 300 -763 
L 2413 4831 
L 2719 4709 
z
" transform="scale(0.015625)"/>
     <path id="IPAexGothic-28" d="M 1928 -1016 
L 1653 -1166 
Q 488 69 488 1875 
Q 488 3678 1653 4909 
L 1928 4763 
Q 1006 3522 1006 1881 
Q 1006 203 1928 -1016 
z
" transform="scale(0.015625)"/>
     <path id="IPAexGothic-54" d="M 3866 4141 
L 2175 4141 
L 2175 63 
L 1606 63 
L 1606 4141 
L -31 4141 
L -31 4634 
L 3866 4634 
L 3866 4141 
z
" transform="scale(0.015625)"/>
     <path id="IPAexGothic-29" d="M 466 4909 
Q 1638 3672 1638 1875 
Q 1638 75 466 -1166 
L 191 -1016 
Q 1119 216 1119 1881 
Q 1119 3509 191 4763 
L 466 4909 
z
" transform="scale(0.015625)"/>
    </defs>
    <use xlink:href="#IPAexGothic-66f4"/>
    <use xlink:href="#IPAexGothic-65b0" x="100"/>
    <use xlink:href="#IPAexGothic-65e5" x="200"/>
    <use xlink:href="#IPAexGothic-6642" x="300"/>
    <use xlink:href="#IPAexGothic-3a" x="400"/>
    <use xlink:href="#IPAexGothic-20" x="431.982422"/>
    <use xlink:href="#IPAexGothic-32" x="458.984375"/>
    <use xlink:href="#IPAexGothic-30" x="521.972656"/>
    <use xlink:href="#IPAexGothic-32" x="584.960938"/>
    <use xlink:href="#IPAexGothic-32" x="647.949219"/>
    <use xlink:href="#IPAexGothic-2f" x="710.9375"/>
    <use xlink:href="#IPAexGothic-31" x="760.9375"/>
    <use xlink:href="#IPAexGothic-32" x="823.925781"/>
    <use xlink:href="#IPAexGothic-2f" x="886.914062"/>
    <use xlink:href="#IPAexGothic-32" x="936.914062"/>
    <use xlink:href="#IPAexGothic-34" x="999.902344"/>
    <use xlink:href="#IPAexGothic-20" x="1062.890625"/>
    <use xlink:href="#IPAexGothic-31" x="1089.892578"/>
    <use xlink:href="#IPAexGothic-36" x="1152.880859"/>
    <use xlink:href="#IPAexGothic-3a" x="1215.869141"/>
    <use xlink:href="#IPAexGothic-31" x="1247.851562"/>
    <use xlink:href="#IPAexGothic-33" x="1310.839844"/>
    <use xlink:href="#IPAexGothic-3a" x="1373.828125"/>
    <use xlink:href="#IPAexGothic-31" x="1405.810547"/>
    <use xlink:href="#IPAexGothic-30" x="1468.798828"/>
    <use xlink:href="#IPAexGothic-28" x="1531.787109"/>
    <use xlink:href="#IPAexGothic-4a" x="1565.087891"/>
    <use xlink:href="#IPAexGothic-53" x="1603.076172"/>
    <use xlink:href="#IPAexGothic-54" x="1661.572266"/>
    <use xlink:href="#IPAexGothic-29" x="1721.484375"/>
   </g>
  </g>
 </g>
 <defs>
  <clipPath id="pca20590b43">
   <rect x="29.439063" y="18.879437" width="357.12" height="266.112"/>
  </clipPath>
 </defs>
</svg>
