<?xml version="1.0" encoding="utf-8" standalone="no"?>
<!DOCTYPE svg PUBLIC "-//W3C//DTD SVG 1.1//EN"
  "http://www.w3.org/Graphics/SVG/1.1/DTD/svg11.dtd">
<svg xmlns:xlink="http://www.w3.org/1999/xlink" width="403.5575pt" height="320.972687pt" viewBox="0 0 403.5575 320.972687" xmlns="http://www.w3.org/2000/svg" version="1.1">
 <metadata>
  <rdf:RDF xmlns:dc="http://purl.org/dc/elements/1.1/" xmlns:cc="http://creativecommons.org/ns#" xmlns:rdf="http://www.w3.org/1999/02/22-rdf-syntax-ns#">
   <cc:Work>
    <dc:type rdf:resource="http://purl.org/dc/dcmitype/StillImage"/>
    <dc:date>2022-06-27T03:16:01.475462</dc:date>
    <dc:format>image/svg+xml</dc:format>
    <dc:creator>
     <cc:Agent>
      <dc:title>Matplotlib v3.5.2, https://matplotlib.org/</dc:title>
     </cc:Agent>
    </dc:creator>
   </cc:Work>
  </rdf:RDF>
 </metadata>
 <defs>
  <style type="text/css">*{stroke-linejoin: round; stroke-linecap: butt}</style>
 </defs>
 <g id="figure_1">
  <g id="patch_1">
   <path d="M 0 320.972687 
L 403.5575 320.972687 
L 403.5575 0 
L 0 0 
z
" style="fill: #ffffff"/>
  </g>
  <g id="axes_1">
   <g id="patch_2">
    <path d="M 35.7375 284.991437 
L 392.8575 284.991437 
L 392.8575 18.879437 
L 35.7375 18.879437 
z
" style="fill: #ffffff"/>
   </g>
   <g id="line2d_1">
    <path d="M 35.7375 203.485507 
L 392.8575 203.485507 
" clip-path="url(#pc6a9f57e2b)" style="fill: none; stroke: #000000; stroke-linecap: square"/>
   </g>
   <g id="matplotlib.axis_1">
    <g id="xtick_1">
     <g id="line2d_2">
      <defs>
       <path id="m01b36a6b6d" d="M 0 0 
L 0 3.5 
" style="stroke: #000000; stroke-width: 0.8"/>
      </defs>
      <g>
       <use xlink:href="#m01b36a6b6d" x="35.7375" y="284.991437" style="stroke: #000000; stroke-width: 0.8"/>
      </g>
     </g>
     <g id="text_1">
      <!-- Feb -->
      <g transform="translate(26.914063 299.482062)scale(0.1 -0.1)">
       <defs>
        <path id="IPAexGothic-46" d="M 3469 4141 
L 1172 4141 
L 1172 2656 
L 3206 2656 
L 3206 2188 
L 1172 2188 
L 1172 63 
L 609 63 
L 609 4634 
L 3469 4634 
L 3469 4141 
z
" transform="scale(0.015625)"/>
        <path id="IPAexGothic-65" d="M 863 1594 
Q 891 1041 1209 722 
Q 1534 397 1997 397 
Q 2606 397 2963 966 
L 3322 728 
Q 2869 -31 1931 -31 
Q 1222 -31 766 422 
Q 306 884 306 1641 
Q 306 2444 788 2925 
Q 1216 3353 1856 3353 
Q 2459 3353 2866 2956 
Q 3322 2494 3322 1722 
L 3322 1594 
L 863 1594 
z
M 2756 1997 
Q 2709 2431 2450 2681 
Q 2194 2938 1844 2938 
Q 1438 2938 1150 2591 
Q 953 2356 894 1997 
L 2756 1997 
z
" transform="scale(0.015625)"/>
        <path id="IPAexGothic-62" d="M 1125 2731 
Q 1550 3341 2219 3341 
Q 2788 3341 3191 2938 
Q 3659 2469 3659 1644 
Q 3659 838 3191 372 
Q 2788 -31 2206 -31 
Q 1559 -31 1088 516 
L 1009 44 
L 581 44 
L 581 4794 
L 1125 4794 
L 1125 2731 
z
M 1125 1997 
L 1125 1253 
Q 1125 888 1528 600 
Q 1803 403 2119 403 
Q 2488 403 2744 659 
Q 3084 1009 3084 1631 
Q 3084 2194 2803 2553 
Q 2525 2900 2125 2900 
Q 1759 2900 1438 2578 
Q 1125 2266 1125 1997 
z
" transform="scale(0.015625)"/>
       </defs>
       <use xlink:href="#IPAexGothic-46"/>
       <use xlink:href="#IPAexGothic-65" x="57.177734"/>
       <use xlink:href="#IPAexGothic-62" x="114.0625"/>
      </g>
     </g>
    </g>
    <g id="xtick_2">
     <g id="line2d_3">
      <g>
       <use xlink:href="#m01b36a6b6d" x="69.748929" y="284.991437" style="stroke: #000000; stroke-width: 0.8"/>
      </g>
     </g>
     <g id="text_2">
      <!-- 15 -->
      <g transform="translate(63.450491 299.482062)scale(0.1 -0.1)">
       <defs>
        <path id="IPAexGothic-31" d="M 2463 63 
L 1900 63 
L 1900 4103 
Q 1372 3922 788 3797 
L 684 4231 
Q 1519 4441 2106 4731 
L 2463 4731 
L 2463 63 
z
" transform="scale(0.015625)"/>
        <path id="IPAexGothic-35" d="M 1178 2603 
Q 1634 2963 2172 2963 
Q 2816 2963 3241 2528 
Q 3638 2113 3638 1497 
Q 3638 938 3297 513 
Q 2869 -31 2031 -31 
Q 959 -31 469 784 
L 938 1028 
Q 1309 434 2013 434 
Q 2466 434 2769 716 
Q 3081 1013 3081 1503 
Q 3081 1966 2806 2241 
Q 2519 2528 2056 2528 
Q 1406 2528 1072 2028 
L 591 2091 
L 884 4634 
L 3406 4634 
L 3406 4153 
L 1341 4153 
L 1134 2603 
L 1178 2603 
z
" transform="scale(0.015625)"/>
       </defs>
       <use xlink:href="#IPAexGothic-31"/>
       <use xlink:href="#IPAexGothic-35" x="62.988281"/>
      </g>
     </g>
    </g>
    <g id="xtick_3">
     <g id="line2d_4">
      <g>
       <use xlink:href="#m01b36a6b6d" x="103.760357" y="284.991437" style="stroke: #000000; stroke-width: 0.8"/>
      </g>
     </g>
     <g id="text_3">
      <!-- Mar -->
      <g transform="translate(94.650982 299.482062)scale(0.1 -0.1)">
       <defs>
        <path id="IPAexGothic-4d" d="M 5147 63 
L 4597 63 
L 4597 2534 
Q 4597 3281 4634 4134 
L 4609 4134 
Q 4356 3409 4066 2675 
L 3066 209 
L 2650 209 
L 1641 2725 
Q 1328 3506 1128 4141 
L 1103 4141 
Q 1141 3131 1141 2553 
L 1141 63 
L 609 63 
L 609 4634 
L 1416 4634 
L 2503 1944 
Q 2697 1472 2869 906 
L 2888 906 
Q 3028 1416 3234 1931 
L 4316 4634 
L 5147 4634 
L 5147 63 
z
" transform="scale(0.015625)"/>
        <path id="IPAexGothic-61" d="M 3156 63 
L 2672 63 
Q 2559 303 2531 556 
L 2509 556 
Q 2147 -25 1428 -25 
Q 934 -25 622 288 
Q 347 563 347 959 
Q 347 1947 2050 1997 
L 2478 2009 
L 2478 2175 
Q 2478 2509 2288 2700 
Q 2088 2900 1775 2900 
Q 1238 2900 969 2378 
L 494 2597 
Q 938 3328 1788 3328 
Q 2375 3328 2691 3000 
Q 2984 2706 2984 2169 
L 2984 997 
Q 2984 400 3156 63 
z
M 2491 1625 
L 2141 1619 
Q 903 1591 903 953 
Q 903 728 1050 581 
Q 1231 403 1525 403 
Q 1934 403 2234 703 
Q 2491 969 2491 1344 
L 2491 1625 
z
" transform="scale(0.015625)"/>
        <path id="IPAexGothic-72" d="M 2309 3316 
L 2213 2769 
Q 2106 2791 2022 2791 
Q 1653 2791 1413 2444 
Q 1113 2006 1113 1675 
L 1113 63 
L 563 63 
L 563 3250 
L 1081 3250 
L 1056 2303 
L 1069 2303 
Q 1422 3341 2097 3341 
Q 2206 3341 2309 3316 
z
" transform="scale(0.015625)"/>
       </defs>
       <use xlink:href="#IPAexGothic-4d"/>
       <use xlink:href="#IPAexGothic-61" x="90.185547"/>
       <use xlink:href="#IPAexGothic-72" x="145.166016"/>
      </g>
     </g>
    </g>
    <g id="xtick_4">
     <g id="line2d_5">
      <g>
       <use xlink:href="#m01b36a6b6d" x="137.771786" y="284.991437" style="stroke: #000000; stroke-width: 0.8"/>
      </g>
     </g>
     <g id="text_4">
      <!-- 15 -->
      <g transform="translate(131.473348 299.482062)scale(0.1 -0.1)">
       <use xlink:href="#IPAexGothic-31"/>
       <use xlink:href="#IPAexGothic-35" x="62.988281"/>
      </g>
     </g>
    </g>
    <g id="xtick_5">
     <g id="line2d_6">
      <g>
       <use xlink:href="#m01b36a6b6d" x="179.071378" y="284.991437" style="stroke: #000000; stroke-width: 0.8"/>
      </g>
     </g>
     <g id="text_5">
      <!-- Apr -->
      <g transform="translate(170.92919 299.482062)scale(0.1 -0.1)">
       <defs>
        <path id="IPAexGothic-41" d="M 4056 63 
L 3444 63 
L 2938 1409 
L 1100 1409 
L 603 63 
L -6 63 
L 1806 4666 
L 2259 4666 
L 4056 63 
z
M 2778 1863 
L 2316 3078 
Q 2125 3588 2028 4000 
L 2009 4000 
Q 1897 3563 1716 3078 
L 1263 1863 
L 2778 1863 
z
" transform="scale(0.015625)"/>
        <path id="IPAexGothic-70" d="M 1075 2688 
Q 1525 3341 2206 3341 
Q 2769 3341 3172 2938 
Q 3641 2469 3641 1644 
Q 3641 841 3178 372 
Q 2775 -31 2200 -31 
Q 1569 -31 1106 497 
L 1106 -1216 
L 563 -1216 
L 563 3250 
L 1075 3250 
L 1075 2688 
z
M 1106 1950 
L 1106 1291 
Q 1106 897 1516 600 
Q 1791 403 2106 403 
Q 2469 403 2725 659 
Q 3066 997 3066 1631 
Q 3066 2200 2784 2559 
Q 2503 2900 2100 2900 
Q 1656 2900 1338 2484 
Q 1106 2184 1106 1950 
z
" transform="scale(0.015625)"/>
       </defs>
       <use xlink:href="#IPAexGothic-41"/>
       <use xlink:href="#IPAexGothic-70" x="63.720703"/>
       <use xlink:href="#IPAexGothic-72" x="125.830078"/>
      </g>
     </g>
    </g>
    <g id="xtick_6">
     <g id="line2d_7">
      <g>
       <use xlink:href="#m01b36a6b6d" x="213.082806" y="284.991437" style="stroke: #000000; stroke-width: 0.8"/>
      </g>
     </g>
     <g id="text_6">
      <!-- 15 -->
      <g transform="translate(206.784369 299.482062)scale(0.1 -0.1)">
       <use xlink:href="#IPAexGothic-31"/>
       <use xlink:href="#IPAexGothic-35" x="62.988281"/>
      </g>
     </g>
    </g>
    <g id="xtick_7">
     <g id="line2d_8">
      <g>
       <use xlink:href="#m01b36a6b6d" x="251.95301" y="284.991437" style="stroke: #000000; stroke-width: 0.8"/>
      </g>
     </g>
     <g id="text_7">
      <!-- May -->
      <g transform="translate(242.233479 299.482062)scale(0.1 -0.1)">
       <defs>
        <path id="IPAexGothic-79" d="M 3122 3250 
L 1575 -488 
Q 1278 -1203 550 -1203 
L 478 -1203 
L 344 -703 
L 447 -703 
Q 969 -703 1150 -238 
L 1356 275 
L 38 3250 
L 659 3250 
L 1363 1459 
Q 1528 1025 1606 781 
L 1625 781 
Q 1750 1169 1863 1459 
L 2528 3250 
L 3122 3250 
z
" transform="scale(0.015625)"/>
       </defs>
       <use xlink:href="#IPAexGothic-4d"/>
       <use xlink:href="#IPAexGothic-61" x="90.185547"/>
       <use xlink:href="#IPAexGothic-79" x="145.166016"/>
      </g>
     </g>
    </g>
    <g id="xtick_8">
     <g id="line2d_9">
      <g>
       <use xlink:href="#m01b36a6b6d" x="285.964439" y="284.991437" style="stroke: #000000; stroke-width: 0.8"/>
      </g>
     </g>
     <g id="text_8">
      <!-- 15 -->
      <g transform="translate(279.666001 299.482062)scale(0.1 -0.1)">
       <use xlink:href="#IPAexGothic-31"/>
       <use xlink:href="#IPAexGothic-35" x="62.988281"/>
      </g>
     </g>
    </g>
    <g id="xtick_9">
     <g id="line2d_10">
      <g>
       <use xlink:href="#m01b36a6b6d" x="327.264031" y="284.991437" style="stroke: #000000; stroke-width: 0.8"/>
      </g>
     </g>
     <g id="text_9">
      <!-- Jun -->
      <g transform="translate(319.324187 299.482062)scale(0.1 -0.1)">
       <defs>
        <path id="IPAexGothic-4a" d="M 1819 4634 
L 1819 1234 
Q 1819 -31 763 -31 
Q 303 -31 -125 209 
L 84 644 
Q 378 447 694 447 
Q 1250 447 1250 1203 
L 1250 4634 
L 1819 4634 
z
" transform="scale(0.015625)"/>
        <path id="IPAexGothic-75" d="M 3284 63 
L 2772 63 
L 2772 644 
Q 2300 0 1625 0 
Q 1072 0 763 375 
Q 519 678 519 1241 
L 519 3250 
L 1069 3250 
L 1069 1259 
Q 1069 466 1734 466 
Q 2406 466 2734 1291 
L 2734 3250 
L 3284 3250 
L 3284 63 
z
" transform="scale(0.015625)"/>
        <path id="IPAexGothic-6e" d="M 3328 63 
L 2778 63 
L 2778 2041 
Q 2778 2853 2106 2853 
Q 1428 2853 1113 2041 
L 1113 63 
L 563 63 
L 563 3250 
L 1075 3250 
L 1075 2675 
Q 1525 3316 2222 3316 
Q 3328 3316 3328 2072 
L 3328 63 
z
" transform="scale(0.015625)"/>
       </defs>
       <use xlink:href="#IPAexGothic-4a"/>
       <use xlink:href="#IPAexGothic-75" x="37.988281"/>
       <use xlink:href="#IPAexGothic-6e" x="98.388672"/>
      </g>
     </g>
    </g>
    <g id="xtick_10">
     <g id="line2d_11">
      <g>
       <use xlink:href="#m01b36a6b6d" x="361.275459" y="284.991437" style="stroke: #000000; stroke-width: 0.8"/>
      </g>
     </g>
     <g id="text_10">
      <!-- 15 -->
      <g transform="translate(354.977022 299.482062)scale(0.1 -0.1)">
       <use xlink:href="#IPAexGothic-31"/>
       <use xlink:href="#IPAexGothic-35" x="62.988281"/>
      </g>
     </g>
    </g>
    <g id="text_11">
     <!-- 2022-Jun -->
     <g transform="translate(348.204375 311.872687)scale(0.1 -0.1)">
      <defs>
       <path id="IPAexGothic-32" d="M 3659 63 
L 447 63 
L 447 594 
Q 825 1475 1894 2203 
L 2072 2322 
Q 2619 2697 2791 2906 
Q 2988 3153 2988 3444 
Q 2988 3772 2756 4003 
Q 2500 4259 2084 4259 
Q 1250 4259 991 3328 
L 497 3506 
Q 853 4725 2116 4725 
Q 2806 4725 3216 4316 
Q 3575 3947 3575 3425 
Q 3575 3038 3344 2722 
Q 3131 2416 2366 1938 
L 2231 1856 
Q 1256 1253 978 569 
L 3659 569 
L 3659 63 
z
" transform="scale(0.015625)"/>
       <path id="IPAexGothic-30" d="M 2038 4725 
Q 2881 4725 3334 3944 
Q 3694 3325 3694 2344 
Q 3694 1372 3334 741 
Q 2888 -31 2016 -31 
Q 1147 -31 700 741 
Q 341 1372 341 2350 
Q 341 3713 1000 4334 
Q 1419 4725 2038 4725 
z
M 2016 4266 
Q 1516 4266 1228 3759 
Q 934 3247 934 2344 
Q 934 1456 1222 947 
Q 1513 447 2016 447 
Q 2619 447 2909 1153 
Q 3100 1622 3100 2375 
Q 3100 3256 2806 3759 
Q 2509 4266 2016 4266 
z
" transform="scale(0.015625)"/>
       <path id="IPAexGothic-2d" d="M 1969 1703 
L 319 1703 
L 319 2203 
L 1969 2203 
L 1969 1703 
z
" transform="scale(0.015625)"/>
      </defs>
      <use xlink:href="#IPAexGothic-32"/>
      <use xlink:href="#IPAexGothic-30" x="62.988281"/>
      <use xlink:href="#IPAexGothic-32" x="125.976562"/>
      <use xlink:href="#IPAexGothic-32" x="188.964844"/>
      <use xlink:href="#IPAexGothic-2d" x="251.953125"/>
      <use xlink:href="#IPAexGothic-4a" x="287.744141"/>
      <use xlink:href="#IPAexGothic-75" x="325.732422"/>
      <use xlink:href="#IPAexGothic-6e" x="386.132812"/>
     </g>
    </g>
   </g>
   <g id="matplotlib.axis_2">
    <g id="ytick_1">
     <g id="line2d_12">
      <defs>
       <path id="mf8bfbca191" d="M 0 0 
L -3.5 0 
" style="stroke: #000000; stroke-width: 0.8"/>
      </defs>
      <g>
       <use xlink:href="#mf8bfbca191" x="35.7375" y="264.522941" style="stroke: #000000; stroke-width: 0.8"/>
      </g>
     </g>
     <g id="text_12">
      <!-- 0.50 -->
      <g transform="translate(7.2 268.268254)scale(0.1 -0.1)">
       <defs>
        <path id="IPAexGothic-2e" d="M 1184 63 
L 494 63 
L 494 753 
L 1184 753 
L 1184 63 
z
" transform="scale(0.015625)"/>
       </defs>
       <use xlink:href="#IPAexGothic-30"/>
       <use xlink:href="#IPAexGothic-2e" x="62.988281"/>
       <use xlink:href="#IPAexGothic-35" x="89.404297"/>
       <use xlink:href="#IPAexGothic-30" x="152.392578"/>
      </g>
     </g>
    </g>
    <g id="ytick_2">
     <g id="line2d_13">
      <g>
       <use xlink:href="#mf8bfbca191" x="35.7375" y="234.004224" style="stroke: #000000; stroke-width: 0.8"/>
      </g>
     </g>
     <g id="text_13">
      <!-- 0.75 -->
      <g transform="translate(7.2 237.749537)scale(0.1 -0.1)">
       <defs>
        <path id="IPAexGothic-37" d="M 3597 4263 
Q 2238 2106 1778 63 
L 1131 63 
Q 1581 1834 2950 4128 
L 428 4128 
L 428 4634 
L 3597 4634 
L 3597 4263 
z
" transform="scale(0.015625)"/>
       </defs>
       <use xlink:href="#IPAexGothic-30"/>
       <use xlink:href="#IPAexGothic-2e" x="62.988281"/>
       <use xlink:href="#IPAexGothic-37" x="89.404297"/>
       <use xlink:href="#IPAexGothic-35" x="152.392578"/>
      </g>
     </g>
    </g>
    <g id="ytick_3">
     <g id="line2d_14">
      <g>
       <use xlink:href="#mf8bfbca191" x="35.7375" y="203.485507" style="stroke: #000000; stroke-width: 0.8"/>
      </g>
     </g>
     <g id="text_14">
      <!-- 1.00 -->
      <g transform="translate(7.2 207.230819)scale(0.1 -0.1)">
       <use xlink:href="#IPAexGothic-31"/>
       <use xlink:href="#IPAexGothic-2e" x="62.988281"/>
       <use xlink:href="#IPAexGothic-30" x="89.404297"/>
       <use xlink:href="#IPAexGothic-30" x="152.392578"/>
      </g>
     </g>
    </g>
    <g id="ytick_4">
     <g id="line2d_15">
      <g>
       <use xlink:href="#mf8bfbca191" x="35.7375" y="172.96679" style="stroke: #000000; stroke-width: 0.8"/>
      </g>
     </g>
     <g id="text_15">
      <!-- 1.25 -->
      <g transform="translate(7.2 176.712102)scale(0.1 -0.1)">
       <use xlink:href="#IPAexGothic-31"/>
       <use xlink:href="#IPAexGothic-2e" x="62.988281"/>
       <use xlink:href="#IPAexGothic-32" x="89.404297"/>
       <use xlink:href="#IPAexGothic-35" x="152.392578"/>
      </g>
     </g>
    </g>
    <g id="ytick_5">
     <g id="line2d_16">
      <g>
       <use xlink:href="#mf8bfbca191" x="35.7375" y="142.448073" style="stroke: #000000; stroke-width: 0.8"/>
      </g>
     </g>
     <g id="text_16">
      <!-- 1.50 -->
      <g transform="translate(7.2 146.193385)scale(0.1 -0.1)">
       <use xlink:href="#IPAexGothic-31"/>
       <use xlink:href="#IPAexGothic-2e" x="62.988281"/>
       <use xlink:href="#IPAexGothic-35" x="89.404297"/>
       <use xlink:href="#IPAexGothic-30" x="152.392578"/>
      </g>
     </g>
    </g>
    <g id="ytick_6">
     <g id="line2d_17">
      <g>
       <use xlink:href="#mf8bfbca191" x="35.7375" y="111.929355" style="stroke: #000000; stroke-width: 0.8"/>
      </g>
     </g>
     <g id="text_17">
      <!-- 1.75 -->
      <g transform="translate(7.2 115.674668)scale(0.1 -0.1)">
       <use xlink:href="#IPAexGothic-31"/>
       <use xlink:href="#IPAexGothic-2e" x="62.988281"/>
       <use xlink:href="#IPAexGothic-37" x="89.404297"/>
       <use xlink:href="#IPAexGothic-35" x="152.392578"/>
      </g>
     </g>
    </g>
    <g id="ytick_7">
     <g id="line2d_18">
      <g>
       <use xlink:href="#mf8bfbca191" x="35.7375" y="81.410638" style="stroke: #000000; stroke-width: 0.8"/>
      </g>
     </g>
     <g id="text_18">
      <!-- 2.00 -->
      <g transform="translate(7.2 85.155951)scale(0.1 -0.1)">
       <use xlink:href="#IPAexGothic-32"/>
       <use xlink:href="#IPAexGothic-2e" x="62.988281"/>
       <use xlink:href="#IPAexGothic-30" x="89.404297"/>
       <use xlink:href="#IPAexGothic-30" x="152.392578"/>
      </g>
     </g>
    </g>
    <g id="ytick_8">
     <g id="line2d_19">
      <g>
       <use xlink:href="#mf8bfbca191" x="35.7375" y="50.891921" style="stroke: #000000; stroke-width: 0.8"/>
      </g>
     </g>
     <g id="text_19">
      <!-- 2.25 -->
      <g transform="translate(7.2 54.637233)scale(0.1 -0.1)">
       <use xlink:href="#IPAexGothic-32"/>
       <use xlink:href="#IPAexGothic-2e" x="62.988281"/>
       <use xlink:href="#IPAexGothic-32" x="89.404297"/>
       <use xlink:href="#IPAexGothic-35" x="152.392578"/>
      </g>
     </g>
    </g>
    <g id="ytick_9">
     <g id="line2d_20">
      <g>
       <use xlink:href="#mf8bfbca191" x="35.7375" y="20.373204" style="stroke: #000000; stroke-width: 0.8"/>
      </g>
     </g>
     <g id="text_20">
      <!-- 2.50 -->
      <g transform="translate(7.2 24.118516)scale(0.1 -0.1)">
       <use xlink:href="#IPAexGothic-32"/>
       <use xlink:href="#IPAexGothic-2e" x="62.988281"/>
       <use xlink:href="#IPAexGothic-35" x="89.404297"/>
       <use xlink:href="#IPAexGothic-30" x="152.392578"/>
      </g>
     </g>
    </g>
   </g>
   <g id="line2d_21">
    <path d="M 52.743214 246.764939 
L 55.172602 252.025255 
L 57.60199 237.526584 
L 60.031378 216.985322 
L 62.460765 244.687429 
L 64.890153 217.229148 
L 67.319541 200.778852 
L 69.748929 200.790801 
L 72.178316 206.122014 
L 74.607704 171.133519 
L 77.037092 171.22436 
L 79.46648 134.588505 
L 81.895867 74.827759 
L 84.325255 156.078477 
L 86.754643 66.40717 
L 89.184031 51.742833 
L 91.613418 178.575122 
L 94.042806 147.743961 
L 96.472194 167.414814 
L 98.901582 202.924502 
L 84.325255 203.485507 
L 86.754643 203.485507 
L 98.901582 203.485507 
L 101.330969 213.751459 
L 103.760357 235.380804 
L 106.189745 255.089026 
L 108.619133 177.951635 
L 111.04852 234.261188 
L 113.477908 242.665646 
L 115.907296 244.246253 
L 118.336684 233.186855 
L 120.766071 234.01953 
L 123.195459 228.306711 
L 125.624847 242.632728 
L 128.054235 258.241949 
L 130.483622 218.779021 
L 132.91301 196.221145 
L 135.342398 155.170123 
L 137.771786 188.587109 
L 140.201173 166.549005 
L 142.630561 225.090323 
L 145.059949 182.097554 
L 147.489337 222.578799 
L 149.918724 211.702952 
L 152.348112 244.641749 
L 154.7775 215.749503 
L 157.206888 231.390981 
L 159.636276 99.500989 
L 162.065663 173.221782 
L 164.495051 178.369357 
L 166.924439 208.496101 
L 169.353827 191.755816 
L 171.783214 195.19815 
L 174.212602 189.980398 
L 176.64199 257.478647 
L 179.071378 249.283993 
L 181.500765 164.343531 
L 183.930153 192.886679 
L 186.359541 210.058887 
L 188.788929 210.130432 
L 191.218316 202.336034 
L 193.647704 202.338195 
L 196.077092 177.570736 
L 198.50648 217.104907 
L 200.935867 221.435178 
L 203.365255 182.441573 
L 205.794643 180.580175 
L 208.224031 197.957641 
L 210.653418 130.058376 
L 213.082806 117.661469 
L 215.512194 186.786379 
L 217.941582 170.33154 
L 220.370969 199.339318 
L 222.800357 199.36729 
L 225.229745 182.83858 
L 227.659133 187.011442 
L 230.08852 220.053339 
L 232.517908 187.811992 
L 234.947296 190.713443 
L 237.376684 186.027555 
L 239.806071 164.072866 
L 242.235459 219.833001 
L 244.664847 234.615348 
L 247.094235 228.990571 
L 249.523622 254.970143 
L 251.95301 234.259697 
L 254.382398 240.185174 
L 256.811786 257.538029 
L 259.241173 243.305776 
L 261.670561 247.76608 
L 264.099949 228.008753 
L 266.529337 30.975437 
L 268.958724 139.05485 
L 271.388112 134.576213 
L 273.8175 150.865065 
L 276.246888 140.117768 
L 278.676276 157.212876 
L 281.105663 155.348274 
L 283.535051 219.597731 
L 285.964439 208.727196 
L 288.393827 224.869401 
L 290.823214 196.123822 
L 293.252602 194.548969 
L 295.68199 175.537932 
L 298.111378 222.36709 
L 300.540765 207.300044 
L 302.970153 234.687017 
L 305.399541 201.826905 
L 307.828929 213.042625 
L 310.258316 228.693374 
L 312.687704 245.878005 
L 315.117092 224.721044 
L 317.54648 232.065687 
L 319.975867 214.557267 
L 322.405255 220.551233 
L 324.834643 247.065516 
L 327.264031 228.683818 
L 329.693418 232.827425 
L 332.122806 226.698225 
L 334.552194 237.62096 
L 336.981582 232.715103 
L 339.410969 239.022386 
L 341.840357 233.460845 
L 344.269745 258.550637 
L 346.699133 233.831019 
L 349.12852 241.843884 
L 351.557908 241.042411 
L 353.987296 188.051594 
L 356.416684 210.499396 
L 358.846071 272.895437 
L 361.275459 211.843552 
L 363.704847 227.496268 
L 366.134235 203.485507 
L 368.563622 173.595768 
L 370.99301 209.18892 
L 373.422398 160.261097 
L 375.851786 108.328625 
L 378.281173 97.578952 
L 380.710561 129.275398 
L 383.139949 158.523115 
L 385.569337 144.469418 
L 387.998724 192.845645 
L 390.428112 189.387053 
L 390.428112 189.387053 
" clip-path="url(#pc6a9f57e2b)" style="fill: none; stroke: #1f77b4; stroke-width: 1.5; stroke-linecap: square"/>
   </g>
   <g id="line2d_22">
    <path d="M 55.172602 249.440523 
L 57.60199 245.101843 
L 60.031378 227.793952 
L 62.460765 231.854536 
L 64.890153 231.959812 
L 67.319541 209.294578 
L 69.748929 200.784827 
L 72.178316 203.485507 
L 74.607704 189.74988 
L 77.037092 171.178946 
L 79.46648 153.880914 
L 81.895867 106.738812 
L 84.325255 119.418095 
L 86.754643 115.985145 
L 89.184031 59.175891 
L 91.613418 124.943474 
L 94.042806 163.892844 
L 96.472194 157.867571 
L 98.901582 186.296888 
L 84.325255 203.205326 
L 86.754643 203.485507 
L 98.901582 203.485507 
L 101.330969 208.731189 
L 103.760357 225.146829 
L 106.189745 245.841644 
L 108.619133 223.569263 
L 111.04852 209.471797 
L 113.477908 238.56485 
L 115.907296 243.459753 
L 118.336684 238.892782 
L 120.766071 233.604135 
L 123.195459 231.206347 
L 125.624847 235.754932 
L 128.054235 250.843853 
L 130.483622 240.776221 
L 132.91301 208.040087 
L 135.342398 177.107878 
L 137.771786 172.789602 
L 140.201173 177.97885 
L 142.630561 199.164645 
L 145.059949 205.503234 
L 147.489337 204.011918 
L 149.918724 217.277334 
L 152.348112 229.575031 
L 154.7775 231.296146 
L 157.206888 223.870536 
L 159.636276 179.656724 
L 162.065663 139.986754 
L 164.495051 175.817687 
L 166.924439 194.294196 
L 169.353827 200.405536 
L 171.783214 193.488198 
L 174.212602 192.614869 
L 176.64199 229.484784 
L 179.071378 253.497709 
L 181.500765 214.668367 
L 183.930153 179.309787 
L 186.359541 201.770193 
L 188.788929 210.094665 
L 193.647704 202.337115 
L 196.077092 190.521099 
L 198.50648 198.870653 
L 200.935867 219.292097 
L 203.365255 203.485507 
L 205.794643 181.513881 
L 208.224031 189.546148 
L 210.653418 167.615481 
L 213.082806 123.955187 
L 215.512194 155.704666 
L 217.941582 178.789377 
L 220.370969 185.58485 
L 222.800357 199.353305 
L 225.229745 191.357158 
L 227.659133 184.940489 
L 230.08852 204.65592 
L 232.517908 205.005725 
L 234.947296 189.270438 
L 237.376684 188.390507 
L 239.806071 175.451056 
L 242.235459 194.894196 
L 244.664847 227.502336 
L 247.094235 231.84515 
L 249.523622 242.995947 
L 251.95301 245.280016 
L 254.382398 237.272132 
L 256.811786 249.353935 
L 259.241173 250.759634 
L 261.670561 245.567009 
L 264.099949 238.44574 
L 266.529337 156.039761 
L 268.958724 91.163877 
L 271.388112 136.828816 
L 273.8175 142.902122 
L 276.246888 145.571615 
L 278.676276 148.871951 
L 281.105663 156.283142 
L 283.535051 191.261737 
L 285.964439 214.29514 
L 288.393827 217.098185 
L 290.823214 211.397804 
L 293.252602 195.338776 
L 295.68199 185.365328 
L 298.111378 201.136468 
L 300.540765 215.090144 
L 302.970153 221.894019 
L 305.399541 219.522288 
L 307.828929 207.567953 
L 310.258316 221.160869 
L 312.687704 237.704856 
L 315.117092 235.921562 
L 317.54648 228.462786 
L 319.975867 223.686919 
L 322.405255 217.595839 
L 324.834643 234.77118 
L 327.264031 238.35767 
L 329.693418 230.778262 
L 332.122806 229.811856 
L 334.552194 232.319399 
L 336.981582 235.20132 
L 339.410969 235.924204 
L 341.840357 236.284913 
L 344.269745 247.001064 
L 346.699133 247.159099 
L 349.12852 237.928989 
L 351.557908 241.444102 
L 353.987296 217.75517 
L 356.416684 199.775261 
L 358.846071 247.716433 
L 361.275459 248.17246 
L 363.704847 219.959529 
L 366.134235 216.147566 
L 368.563622 189.358101 
L 370.99301 192.577886 
L 373.422398 186.866044 
L 375.851786 136.065648 
L 378.281173 103.018686 
L 380.710561 114.020004 
L 383.139949 144.488829 
L 385.569337 151.638159 
L 387.998724 170.53316 
L 390.428112 191.127471 
L 390.428112 191.127471 
" clip-path="url(#pc6a9f57e2b)" style="fill: none; stroke: #ff7f0e; stroke-width: 1.5; stroke-linecap: square"/>
   </g>
   <g id="line2d_23">
    <path d="M 57.60199 245.660072 
L 60.031378 236.648844 
L 62.460765 233.784703 
L 64.890153 227.213101 
L 67.319541 222.544916 
L 69.748929 206.526416 
L 72.178316 202.589876 
L 74.607704 193.534683 
L 77.037092 183.835968 
L 79.46648 159.835956 
L 81.895867 130.778217 
L 84.325255 124.60428 
L 86.754643 103.077334 
L 89.184031 96.448787 
L 91.613418 107.070891 
L 94.042806 132.851244 
L 96.472194 165.075464 
L 98.901582 174.477424 
L 84.325255 192.279777 
L 86.754643 203.298791 
L 89.184031 203.485507 
L 98.901582 203.485507 
L 101.330969 207.008165 
L 103.760357 218.391101 
L 106.189745 236.325957 
L 108.619133 227.669035 
L 111.04852 227.26558 
L 113.477908 221.7991 
L 115.907296 240.501441 
L 118.336684 240.169107 
L 120.766071 237.297894 
L 123.195459 231.87119 
L 125.624847 235.180151 
L 128.054235 243.981116 
L 130.483622 241.399629 
L 132.91301 227.959611 
L 135.342398 192.548583 
L 137.771786 181.037384 
L 140.201173 170.737102 
L 142.630561 195.732822 
L 145.059949 193.714042 
L 147.489337 211.488519 
L 149.918724 206.631654 
L 152.348112 227.297426 
L 154.7775 225.171621 
L 157.206888 231.327768 
L 159.636276 192.843579 
L 162.065663 177.542526 
L 164.495051 153.780902 
L 166.924439 187.615615 
L 169.353827 193.453465 
L 171.783214 198.693274 
L 174.212602 192.329133 
L 176.64199 219.196872 
L 179.071378 236.598198 
L 181.500765 231.311316 
L 183.930153 207.837252 
L 186.359541 190.375655 
L 188.788929 204.622139 
L 191.218316 207.564311 
L 193.647704 204.991662 
L 196.077092 194.580199 
L 198.50648 200.037209 
L 200.935867 206.888938 
L 203.365255 208.205448 
L 205.794643 196.28363 
L 208.224031 187.218034 
L 210.653418 172.060995 
L 213.082806 152.46407 
L 215.512194 147.55334 
L 217.941582 160.727349 
L 220.370969 185.986511 
L 222.800357 190.338614 
L 225.229745 194.072445 
L 227.659133 189.923946 
L 230.08852 197.781723 
L 232.517908 199.283535 
L 234.947296 200.418401 
L 237.376684 188.197939 
L 239.806071 180.721394 
L 242.235459 192.003089 
L 247.094235 228.000946 
L 249.523622 240.291938 
L 251.95301 240.180931 
L 254.382398 243.616446 
L 256.811786 244.622379 
L 259.241173 247.388983 
L 261.670561 249.774806 
L 264.099949 240.096848 
L 268.958724 150.557341 
L 271.388112 106.633104 
L 273.8175 141.628598 
L 276.246888 141.97868 
L 278.676276 149.538836 
L 281.105663 151.057652 
L 283.535051 180.755463 
L 285.964439 197.355914 
L 288.393827 217.937851 
L 290.823214 210.514454 
L 293.252602 206.037179 
L 295.68199 189.047349 
L 298.111378 198.978286 
L 300.540765 203.225884 
L 302.970153 222.05195 
L 305.399541 215.595424 
L 307.828929 217.40496 
L 310.258316 215.077569 
L 312.687704 230.152027 
L 315.117092 233.574174 
L 317.54648 234.654271 
L 319.975867 224.032801 
L 322.405255 222.652235 
L 324.834643 228.47932 
L 327.264031 232.785793 
L 329.693418 236.551906 
L 332.122806 229.437311 
L 334.552194 232.489049 
L 336.981582 232.451487 
L 339.410969 236.493396 
L 341.840357 235.110494 
L 344.269745 244.426782 
L 346.699133 242.835797 
L 349.12852 245.425956 
L 351.557908 238.979335 
L 353.987296 226.4703 
L 356.416684 215.388897 
L 358.846071 231.459566 
L 361.275459 237.233787 
L 363.704847 241.816679 
L 366.134235 214.731306 
L 368.563622 203.485507 
L 370.99301 196.317961 
L 373.422398 182.576644 
L 375.851786 164.490777 
L 378.281173 124.018835 
L 380.710561 112.139642 
L 383.139949 130.036426 
L 385.569337 144.482359 
L 387.998724 166.62896 
L 390.428112 177.09131 
L 390.428112 177.09131 
" clip-path="url(#pc6a9f57e2b)" style="fill: none; stroke: #2ca02c; stroke-width: 1.5; stroke-linecap: square"/>
   </g>
   <g id="line2d_24">
    <path d="M 60.031378 239.293547 
L 62.460765 238.730459 
L 67.319541 221.182293 
L 69.748929 217.490668 
L 74.607704 195.384229 
L 77.037092 188.279304 
L 79.46648 172.865016 
L 81.895867 141.761611 
L 84.325255 137.437023 
L 86.754643 111.411876 
L 89.184031 91.224921 
L 91.613418 120.513227 
L 94.042806 118.037552 
L 96.472194 142.14279 
L 98.901582 175.512435 
L 84.325255 182.319106 
L 86.754643 195.174134 
L 89.184031 203.345497 
L 91.613418 203.485507 
L 98.901582 203.485507 
L 101.330969 206.137147 
L 103.760357 214.844656 
L 106.189745 229.054031 
L 108.619133 224.36112 
L 111.04852 229.360406 
L 113.477908 231.364991 
L 115.907296 227.933819 
L 118.336684 238.728971 
L 120.766071 238.67157 
L 123.195459 235.131195 
L 125.624847 234.685896 
L 128.054235 241.597259 
L 130.483622 238.301688 
L 132.91301 231.854947 
L 135.342398 213.371163 
L 137.771786 191.569087 
L 140.201173 177.544004 
L 142.630561 186.601484 
L 145.059949 192.450586 
L 147.489337 201.611975 
L 149.918724 211.542165 
L 152.348112 217.547087 
L 154.7775 224.529601 
L 157.206888 226.763947 
L 159.636276 208.285078 
L 162.065663 188.188793 
L 164.495051 177.749668 
L 166.924439 169.484944 
L 169.353827 188.662523 
L 171.783214 193.891814 
L 174.212602 196.569006 
L 176.64199 212.915302 
L 179.071378 227.680818 
L 181.500765 222.342086 
L 183.930153 222.899733 
L 186.359541 208.396635 
L 188.788929 195.610662 
L 191.218316 204.05462 
L 193.647704 206.278938 
L 196.077092 198.653895 
L 198.50648 200.615905 
L 200.935867 205.767256 
L 203.365255 201.199485 
L 205.794643 201.836598 
L 208.224031 196.704181 
L 210.653418 174.724675 
L 213.082806 159.966976 
L 215.512194 161.768305 
L 217.941582 153.543531 
L 222.800357 189.459172 
L 225.229745 188.501388 
L 227.659133 192.341668 
L 230.08852 198.179973 
L 232.517908 195.359065 
L 234.947296 197.193477 
L 237.376684 196.966186 
L 239.806071 182.527548 
L 242.235459 191.681838 
L 244.664847 204.236736 
L 247.094235 214.901393 
L 249.523622 235.582011 
L 251.95301 238.82231 
L 254.382398 240.181992 
L 256.811786 247.343495 
L 259.241173 244.295217 
L 261.670561 247.483428 
L 264.099949 244.837149 
L 266.529337 209.11071 
L 268.958724 182.66403 
L 271.388112 146.692016 
L 273.8175 118.643834 
L 276.246888 141.252048 
L 278.676276 145.911833 
L 281.105663 151.009525 
L 283.535051 171.518125 
L 288.393827 204.869346 
L 290.823214 212.855782 
L 293.252602 206.715435 
L 295.68199 199.049399 
L 298.111378 198.270626 
L 300.540765 201.112075 
L 302.970153 211.98849 
L 305.399541 217.328901 
L 307.828929 214.962706 
L 310.258316 220.344768 
L 312.687704 223.745418 
L 315.117092 228.822338 
L 317.54648 233.199349 
L 319.975867 229.999841 
L 322.405255 223.173383 
L 324.834643 229.388607 
L 327.264031 228.530485 
L 329.693418 232.796203 
L 332.122806 234.184613 
L 334.552194 231.551988 
L 336.981582 232.545614 
L 341.840357 235.74475 
L 344.269745 241.645205 
L 346.699133 241.898495 
L 349.12852 242.588926 
L 351.557908 244.351858 
L 353.987296 228.364081 
L 356.416684 222.698453 
L 358.846071 233.952613 
L 361.275459 226.898084 
L 363.704847 234.89403 
L 366.134235 233.542827 
L 368.563622 205.630915 
L 370.99301 204.937045 
L 373.422398 188.117721 
L 375.851786 166.816933 
L 378.281173 149.875228 
L 380.710561 125.346028 
L 383.139949 124.821819 
L 385.569337 133.749087 
L 387.998724 158.016299 
L 390.428112 172.652336 
L 390.428112 172.652336 
" clip-path="url(#pc6a9f57e2b)" style="fill: none; stroke: #d62728; stroke-width: 1.5; stroke-linecap: square"/>
   </g>
   <g id="line2d_25">
    <path d="M 62.460765 240.400362 
L 64.890153 234.802099 
L 67.319541 224.677528 
L 69.748929 217.389787 
L 72.178316 215.306986 
L 74.607704 200.079985 
L 77.037092 190.875575 
L 79.46648 178.91026 
L 81.895867 156.942801 
L 84.325255 144.718612 
L 86.754643 124.990602 
L 89.184031 100.621623 
L 91.613418 112.096124 
L 94.042806 126.274115 
L 96.472194 129.014427 
L 98.901582 156.330793 
L 84.325255 181.578017 
L 86.754643 186.827374 
L 89.184031 196.88049 
L 91.613418 203.373512 
L 94.042806 203.485507 
L 98.901582 203.485507 
L 101.330969 205.611467 
L 103.760357 212.660703 
L 106.189745 224.40943 
L 108.619133 220.493188 
L 113.477908 232.182211 
L 115.907296 234.094964 
L 118.336684 229.007797 
L 120.766071 237.806876 
L 123.195459 236.690974 
L 125.624847 236.683916 
L 128.054235 239.978788 
L 130.483622 237.461589 
L 132.91301 231.155811 
L 137.771786 208.802 
L 140.201173 186.901751 
L 142.630561 188.581017 
L 145.059949 185.712154 
L 147.489337 199.110064 
L 149.918724 203.699298 
L 152.348112 219.099734 
L 154.7775 217.18994 
L 157.206888 225.94075 
L 159.636276 208.976764 
L 162.065663 201.986342 
L 164.495051 186.278764 
L 166.924439 184.485527 
L 169.353827 174.217557 
L 171.783214 189.995349 
L 174.212602 193.118664 
L 176.64199 212.045014 
L 179.071378 221.365159 
L 181.500765 217.408095 
L 183.930153 217.027254 
L 186.359541 220.451184 
L 191.218316 196.984478 
L 193.647704 203.713259 
L 196.077092 201.021611 
L 198.50648 202.579571 
L 200.935867 205.088742 
L 203.365255 201.428065 
L 205.794643 197.324719 
L 208.224031 201.070357 
L 210.653418 185.500259 
L 213.082806 164.727896 
L 215.512194 165.716487 
L 217.941582 163.517934 
L 220.370969 163.870382 
L 222.800357 177.42458 
L 225.229745 188.160091 
L 227.659133 188.204687 
L 230.08852 198.412691 
L 232.517908 196.170768 
L 234.947296 194.442924 
L 237.376684 195.03417 
L 239.806071 190.972833 
L 242.235459 190.916666 
L 244.664847 201.645182 
L 247.094235 209.649386 
L 249.523622 224.416809 
L 251.95301 235.31909 
L 254.382398 239.096612 
L 256.811786 243.975686 
L 259.241173 246.552127 
L 261.670561 245.001562 
L 264.099949 243.927488 
L 271.388112 174.128825 
L 273.8175 147.534525 
L 276.246888 123.128885 
L 278.676276 144.560907 
L 281.105663 147.840072 
L 283.535051 167.592735 
L 285.964439 179.804818 
L 288.393827 196.562866 
L 290.823214 203.168841 
L 293.252602 209.411471 
L 295.68199 201.047058 
L 298.111378 204.100494 
L 300.540765 200.130046 
L 302.970153 208.696983 
L 305.399541 210.025232 
L 307.828929 216.484912 
L 310.258316 217.856346 
L 312.687704 226.034368 
L 315.117092 223.941296 
L 317.54648 229.479886 
L 319.975867 229.739965 
L 322.405255 228.18071 
L 324.834643 228.472707 
L 327.264031 229.24806 
L 329.693418 229.405513 
L 332.122806 231.607466 
L 334.552194 234.882461 
L 336.981582 231.785771 
L 339.410969 233.878633 
L 341.840357 234.004224 
L 344.269745 240.855365 
L 346.699133 240.137526 
L 349.12852 241.887576 
L 351.557908 242.281904 
L 353.987296 235.331125 
L 356.416684 225.028131 
L 358.846071 235.588241 
L 361.275459 229.904695 
L 363.704847 227.018012 
L 366.134235 229.336656 
L 368.563622 223.831318 
L 370.99301 206.351114 
L 373.422398 197.091109 
L 375.851786 174.940637 
L 378.281173 154.898494 
L 380.710561 145.935926 
L 383.139949 132.4708 
L 385.569337 128.914886 
L 387.998724 147.370446 
L 390.428112 164.821225 
L 390.428112 164.821225 
" clip-path="url(#pc6a9f57e2b)" style="fill: none; stroke: #9467bd; stroke-width: 1.5; stroke-linecap: square"/>
   </g>
   <g id="line2d_26">
    <path d="M 64.890153 236.915144 
L 67.319541 229.856341 
L 69.748929 221.040417 
L 72.178316 215.5885 
L 74.607704 208.938391 
L 79.46648 182.804589 
L 81.895867 165.197508 
L 84.325255 156.799054 
L 86.754643 133.542478 
L 89.184031 114.309696 
L 91.613418 116.020895 
L 94.042806 118.498757 
L 96.472194 133.808053 
L 98.901582 143.873732 
L 84.325255 165.296879 
L 86.754643 185.484897 
L 89.184031 189.75378 
L 91.613418 198.005636 
L 94.042806 203.392185 
L 98.901582 203.485507 
L 101.330969 205.259729 
L 103.760357 211.180853 
L 106.189745 221.189499 
L 108.619133 217.83278 
L 111.04852 222.924212 
L 113.477908 229.336277 
L 115.907296 234.310537 
L 118.336684 233.944235 
L 120.766071 229.861746 
L 123.195459 236.290547 
L 125.624847 237.710037 
L 128.054235 240.705276 
L 130.483622 236.763125 
L 132.91301 231.639244 
L 135.342398 221.392225 
L 137.771786 215.273646 
L 140.201173 202.634097 
L 142.630561 194.150347 
L 145.059949 187.521154 
L 147.489337 192.665762 
L 149.918724 201.301674 
L 152.348112 211.737664 
L 154.7775 218.548546 
L 157.206888 219.697428 
L 159.636276 211.362548 
L 162.065663 203.661534 
L 164.495051 198.331339 
L 166.924439 190.254844 
L 169.353827 185.724112 
L 171.783214 177.935297 
L 174.212602 189.992857 
L 176.64199 207.021969 
L 179.071378 219.32303 
L 181.500765 213.502715 
L 183.930153 213.661118 
L 186.359541 215.895763 
L 188.788929 218.797484 
L 191.218316 207.70086 
L 193.647704 197.892651 
L 196.077092 199.701282 
L 198.50648 203.858939 
L 200.935867 205.944062 
L 203.365255 201.579857 
L 205.794643 198.174244 
L 208.224031 197.430424 
L 210.653418 191.344472 
L 213.082806 175.969845 
L 215.512194 168.633927 
L 217.941582 166.495082 
L 220.370969 170.126402 
L 222.800357 170.413912 
L 225.229745 178.340969 
L 227.659133 187.969313 
L 230.08852 194.11284 
L 232.517908 196.70433 
L 234.947296 195.276798 
L 237.376684 193.076463 
L 239.806071 190.320555 
L 242.235459 196.279199 
L 244.664847 199.440108 
L 247.094235 206.688981 
L 249.523622 218.844767 
L 251.95301 226.12806 
L 254.382398 236.14895 
L 256.811786 242.48537 
L 259.241173 243.864415 
L 261.670561 246.75576 
L 264.099949 242.390389 
L 266.529337 224.459235 
L 268.958724 210.396559 
L 271.388112 188.774788 
L 273.8175 170.478689 
L 276.246888 146.319326 
L 278.676276 129.254707 
L 281.105663 146.405146 
L 283.535051 162.515807 
L 288.393827 188.518689 
L 290.823214 196.489795 
L 293.252602 201.772625 
L 295.68199 204.350324 
L 298.111378 204.884143 
L 300.540765 204.639701 
L 302.970153 206.689654 
L 305.399541 207.579049 
L 307.828929 210.533692 
L 310.258316 218.621602 
L 312.687704 223.131988 
L 315.117092 225.816675 
L 317.54648 225.342805 
L 319.975867 227.13996 
L 322.405255 228.266342 
L 324.834643 231.617517 
L 327.264031 228.507924 
L 329.693418 229.854074 
L 332.122806 228.959503 
L 334.552194 232.637539 
L 336.981582 234.52478 
L 339.410969 233.03259 
L 341.840357 233.809133 
L 344.269745 238.645137 
L 346.699133 239.723156 
L 349.12852 240.424315 
L 351.557908 241.747304 
L 353.987296 235.02207 
L 356.416684 231.600131 
L 358.846071 235.297726 
L 361.275459 232.00671 
L 363.704847 229.507438 
L 366.134235 223.437385 
L 368.563622 221.721767 
L 370.99301 221.525586 
L 373.422398 199.676485 
L 375.851786 185.33716 
L 378.281173 164.16733 
L 380.710561 150.872961 
L 383.139949 148.097805 
L 385.569337 134.524404 
L 387.998724 141.388556 
L 390.428112 155.180629 
L 390.428112 155.180629 
" clip-path="url(#pc6a9f57e2b)" style="fill: none; stroke: #8c564b; stroke-width: 1.5; stroke-linecap: square"/>
   </g>
   <g id="line2d_27">
    <path d="M 67.319541 232.477684 
L 69.748929 226.16085 
L 72.178316 219.029124 
L 74.607704 210.123474 
L 77.037092 204.175587 
L 79.46648 188.322586 
L 81.895867 170.843024 
L 84.325255 163.925463 
L 86.754643 146.134584 
L 89.184031 123.556924 
L 91.613418 124.977138 
L 94.042806 120.877739 
L 96.472194 126.319137 
L 98.901582 145.669655 
L 84.325255 153.907122 
L 89.184031 188.210452 
L 91.613418 191.8062 
L 94.042806 198.803284 
L 96.472194 203.405521 
L 98.901582 203.485507 
L 101.330969 205.007856 
L 103.760357 210.111956 
L 106.189745 218.826981 
L 108.619133 215.891344 
L 111.04852 220.349352 
L 115.907296 231.622996 
L 118.336684 234.150851 
L 120.766071 233.954995 
L 123.195459 229.64113 
L 125.624847 237.225438 
L 128.054235 240.988142 
L 130.483622 237.872896 
L 132.91301 231.861909 
L 135.342398 223.297546 
L 137.771786 217.237348 
L 140.201173 209.355604 
L 142.630561 206.126015 
L 145.059949 192.492593 
L 147.489337 193.179596 
L 149.918724 195.568836 
L 152.348112 208.68699 
L 154.7775 212.319635 
L 157.206888 220.485212 
L 159.636276 207.579301 
L 162.065663 206.563183 
L 164.495051 200.333666 
L 166.924439 199.835777 
L 169.353827 190.470295 
L 171.783214 187.118577 
L 174.212602 179.719424 
L 176.64199 202.696703 
L 179.071378 214.257504 
L 181.500765 212.800812 
L 183.930153 210.766382 
L 186.359541 213.153475 
L 188.788929 215.090119 
L 191.218316 216.587873 
L 193.647704 206.949297 
L 196.077092 195.170031 
L 198.50648 202.348862 
L 200.935867 206.54075 
L 203.365255 202.839094 
L 205.794643 198.777283 
L 208.224031 198.143324 
L 210.653418 189.458213 
L 213.082806 182.686204 
L 215.512194 177.565209 
L 217.941582 168.877575 
L 220.370969 171.664726 
L 222.800357 174.685858 
L 225.229745 172.252988 
L 227.659133 179.612062 
L 230.08852 193.090374 
L 232.517908 193.23068 
L 234.947296 195.865067 
L 237.376684 193.993998 
L 239.806071 189.276209 
L 242.235459 194.994193 
L 244.664847 202.614784 
L 247.094235 204.159583 
L 249.523622 215.217548 
L 251.95301 221.196833 
L 254.382398 228.269747 
L 256.811786 239.573937 
L 259.241173 242.60307 
L 261.670561 244.433553 
L 264.099949 244.316233 
L 266.529337 225.921218 
L 268.958724 215.216848 
L 271.388112 201.766519 
L 278.676276 147.917677 
L 281.105663 133.214037 
L 283.535051 159.35422 
L 285.964439 170.096613 
L 288.393827 183.682749 
L 290.823214 189.631901 
L 293.252602 196.214305 
L 295.68199 198.326376 
L 298.111378 207.105006 
L 300.540765 205.23227 
L 302.970153 209.4751 
L 305.399541 206.006855 
L 307.828929 208.37551 
L 310.258316 213.322819 
L 312.687704 223.023065 
L 315.117092 223.36052 
L 317.54648 226.734334 
L 319.975867 223.868682 
L 322.405255 226.22465 
L 324.834643 231.20525 
L 327.264031 231.203921 
L 329.693418 229.137101 
L 332.122806 229.409483 
L 334.552194 230.247222 
L 339.410969 235.181331 
L 341.840357 233.093891 
L 344.269745 237.836934 
L 346.699133 237.973193 
L 349.12852 240.029375 
L 351.557908 240.51289 
L 353.987296 235.604671 
L 356.416684 231.868232 
L 358.846071 239.05828 
L 361.275459 232.26953 
L 363.704847 231.375291 
L 366.134235 226.16085 
L 368.563622 217.47091 
L 370.99301 220.017598 
L 373.422398 214.411244 
L 375.851786 189.472133 
L 378.281173 175.255129 
L 380.710561 159.590986 
L 383.139949 151.986926 
L 385.569337 147.583949 
L 387.998724 144.211144 
L 390.428112 149.163796 
L 390.428112 149.163796 
" clip-path="url(#pc6a9f57e2b)" style="fill: none; stroke: #e377c2; stroke-width: 1.5; stroke-linecap: square"/>
   </g>
   <g id="patch_3">
    <path d="M 35.7375 284.991437 
L 35.7375 18.879437 
" style="fill: none; stroke: #000000; stroke-width: 0.8; stroke-linejoin: miter; stroke-linecap: square"/>
   </g>
   <g id="patch_4">
    <path d="M 392.8575 284.991437 
L 392.8575 18.879437 
" style="fill: none; stroke: #000000; stroke-width: 0.8; stroke-linejoin: miter; stroke-linecap: square"/>
   </g>
   <g id="patch_5">
    <path d="M 35.7375 284.991437 
L 392.8575 284.991437 
" style="fill: none; stroke: #000000; stroke-width: 0.8; stroke-linejoin: miter; stroke-linecap: square"/>
   </g>
   <g id="patch_6">
    <path d="M 35.7375 18.879437 
L 392.8575 18.879437 
" style="fill: none; stroke: #000000; stroke-width: 0.8; stroke-linejoin: miter; stroke-linecap: square"/>
   </g>
   <g id="legend_1">
    <g id="patch_7">
     <path d="M 42.7375 127.613812 
L 81.035938 127.613812 
Q 83.035938 127.613812 83.035938 125.613812 
L 83.035938 25.879437 
Q 83.035938 23.879437 81.035938 23.879437 
L 42.7375 23.879437 
Q 40.7375 23.879437 40.7375 25.879437 
L 40.7375 125.613812 
Q 40.7375 127.613812 42.7375 127.613812 
z
" style="fill: #ffffff; opacity: 0.8; stroke: #cccccc; stroke-linejoin: miter"/>
    </g>
    <g id="line2d_28">
     <path d="M 44.7375 31.870062 
L 54.7375 31.870062 
L 64.7375 31.870062 
" style="fill: none; stroke: #1f77b4; stroke-width: 1.5; stroke-linecap: square"/>
    </g>
    <g id="text_21">
     <!-- 1 -->
     <g transform="translate(72.7375 35.370062)scale(0.1 -0.1)">
      <use xlink:href="#IPAexGothic-31"/>
     </g>
    </g>
    <g id="line2d_29">
     <path d="M 44.7375 46.260687 
L 54.7375 46.260687 
L 64.7375 46.260687 
" style="fill: none; stroke: #ff7f0e; stroke-width: 1.5; stroke-linecap: square"/>
    </g>
    <g id="text_22">
     <!-- 2 -->
     <g transform="translate(72.7375 49.760687)scale(0.1 -0.1)">
      <use xlink:href="#IPAexGothic-32"/>
     </g>
    </g>
    <g id="line2d_30">
     <path d="M 44.7375 60.651312 
L 54.7375 60.651312 
L 64.7375 60.651312 
" style="fill: none; stroke: #2ca02c; stroke-width: 1.5; stroke-linecap: square"/>
    </g>
    <g id="text_23">
     <!-- 3 -->
     <g transform="translate(72.7375 64.151312)scale(0.1 -0.1)">
      <defs>
       <path id="IPAexGothic-33" d="M 2381 2419 
Q 3506 2216 3506 1278 
Q 3506 716 3128 356 
Q 2709 -31 1944 -31 
Q 797 -31 288 881 
L 756 1131 
Q 1109 441 1938 441 
Q 2425 441 2694 691 
Q 2950 928 2950 1291 
Q 2950 1719 2566 1978 
Q 2216 2213 1644 2213 
L 1363 2213 
L 1363 2669 
L 1656 2669 
Q 2231 2669 2534 2888 
Q 2859 3119 2859 3509 
Q 2859 3934 2494 4138 
Q 2259 4278 1931 4278 
Q 1238 4278 903 3578 
L 434 3803 
Q 897 4725 1938 4725 
Q 2597 4725 3006 4394 
Q 3416 4069 3416 3534 
Q 3416 3028 3019 2706 
Q 2763 2500 2381 2444 
L 2381 2419 
z
" transform="scale(0.015625)"/>
      </defs>
      <use xlink:href="#IPAexGothic-33"/>
     </g>
    </g>
    <g id="line2d_31">
     <path d="M 44.7375 75.041937 
L 54.7375 75.041937 
L 64.7375 75.041937 
" style="fill: none; stroke: #d62728; stroke-width: 1.5; stroke-linecap: square"/>
    </g>
    <g id="text_24">
     <!-- 4 -->
     <g transform="translate(72.7375 78.541937)scale(0.1 -0.1)">
      <defs>
       <path id="IPAexGothic-34" d="M 3813 1159 
L 3059 1159 
L 3059 63 
L 2547 63 
L 2547 1159 
L 197 1159 
L 197 1672 
L 2456 4678 
L 3059 4678 
L 3059 1634 
L 3813 1634 
L 3813 1159 
z
M 2578 4109 
L 2559 4109 
Q 2278 3656 2003 3284 
L 759 1634 
L 2547 1634 
L 2547 3144 
Q 2547 3481 2578 4109 
z
" transform="scale(0.015625)"/>
      </defs>
      <use xlink:href="#IPAexGothic-34"/>
     </g>
    </g>
    <g id="line2d_32">
     <path d="M 44.7375 89.432562 
L 54.7375 89.432562 
L 64.7375 89.432562 
" style="fill: none; stroke: #9467bd; stroke-width: 1.5; stroke-linecap: square"/>
    </g>
    <g id="text_25">
     <!-- 5 -->
     <g transform="translate(72.7375 92.932562)scale(0.1 -0.1)">
      <use xlink:href="#IPAexGothic-35"/>
     </g>
    </g>
    <g id="line2d_33">
     <path d="M 44.7375 103.823187 
L 54.7375 103.823187 
L 64.7375 103.823187 
" style="fill: none; stroke: #8c564b; stroke-width: 1.5; stroke-linecap: square"/>
    </g>
    <g id="text_26">
     <!-- 6 -->
     <g transform="translate(72.7375 107.323187)scale(0.1 -0.1)">
      <defs>
       <path id="IPAexGothic-36" d="M 1056 2328 
Q 1509 2981 2234 2981 
Q 2906 2981 3316 2513 
Q 3675 2106 3675 1522 
Q 3675 884 3272 434 
Q 2853 -31 2178 -31 
Q 1375 -31 922 581 
Q 481 1178 481 2228 
Q 481 3425 1013 4109 
Q 1494 4725 2272 4725 
Q 3191 4725 3609 4025 
L 3150 3775 
Q 2894 4266 2300 4266 
Q 1119 4266 1031 2328 
L 1056 2328 
z
M 2141 2547 
Q 1684 2547 1384 2206 
Q 1116 1900 1116 1541 
Q 1116 1156 1353 844 
Q 1672 428 2159 428 
Q 2669 428 2941 844 
Q 3125 1128 3125 1503 
Q 3125 1944 2881 2228 
Q 2600 2547 2141 2547 
z
" transform="scale(0.015625)"/>
      </defs>
      <use xlink:href="#IPAexGothic-36"/>
     </g>
    </g>
    <g id="line2d_34">
     <path d="M 44.7375 118.213812 
L 54.7375 118.213812 
L 64.7375 118.213812 
" style="fill: none; stroke: #e377c2; stroke-width: 1.5; stroke-linecap: square"/>
    </g>
    <g id="text_27">
     <!-- 7 -->
     <g transform="translate(72.7375 121.713812)scale(0.1 -0.1)">
      <use xlink:href="#IPAexGothic-37"/>
     </g>
    </g>
   </g>
  </g>
  <g id="axes_2">
   <g id="matplotlib.axis_3"/>
   <g id="patch_8">
    <path d="M 35.7375 284.991437 
L 35.7375 18.879437 
" style="fill: none; stroke: #000000; stroke-width: 0.8; stroke-linejoin: miter; stroke-linecap: square"/>
   </g>
   <g id="patch_9">
    <path d="M 392.8575 284.991437 
L 392.8575 18.879437 
" style="fill: none; stroke: #000000; stroke-width: 0.8; stroke-linejoin: miter; stroke-linecap: square"/>
   </g>
   <g id="patch_10">
    <path d="M 35.7375 284.991437 
L 392.8575 284.991437 
" style="fill: none; stroke: #000000; stroke-width: 0.8; stroke-linejoin: miter; stroke-linecap: square"/>
   </g>
   <g id="patch_11">
    <path d="M 35.7375 18.879437 
L 392.8575 18.879437 
" style="fill: none; stroke: #000000; stroke-width: 0.8; stroke-linejoin: miter; stroke-linecap: square"/>
   </g>
  </g>
  <g id="text_28">
   <!-- 更新日時: 2022/06/27 12:15:59(JST) -->
   <g transform="translate(217.385625 15.423437)scale(0.1 -0.1)">
    <defs>
     <path id="IPAexGothic-66f4" d="M 2956 3994 
L 2956 4588 
L 513 4588 
L 513 4984 
L 5881 4984 
L 5881 4588 
L 3413 4588 
L 3413 3994 
L 5300 3994 
L 5300 1288 
L 4838 1288 
L 4838 1759 
L 3406 1759 
Q 3384 1125 3150 709 
Q 4291 244 5997 31 
L 5694 -428 
Q 4109 -166 2906 384 
Q 2294 -266 744 -488 
L 494 -66 
Q 1903 59 2491 588 
Q 2041 813 1594 1166 
L 1928 1434 
Q 2331 1106 2747 897 
Q 2922 1219 2950 1759 
L 1556 1759 
L 1556 1413 
L 1097 1413 
L 1097 3994 
L 2956 3994 
z
M 2956 3609 
L 1556 3609 
L 1556 3078 
L 2956 3078 
L 2956 3609 
z
M 3413 3609 
L 3413 3078 
L 4838 3078 
L 4838 3609 
L 3413 3609 
z
M 2956 2700 
L 1556 2700 
L 1556 2144 
L 2956 2144 
L 2956 2700 
z
M 3413 2700 
L 3413 2144 
L 4838 2144 
L 4838 2700 
L 3413 2700 
z
" transform="scale(0.015625)"/>
     <path id="IPAexGothic-65b0" d="M 3891 2803 
Q 3881 1759 3794 1166 
Q 3653 197 3097 -563 
L 2741 -250 
Q 3450 700 3450 2631 
L 3450 4647 
Q 3516 4656 3622 4666 
Q 4656 4778 5447 5063 
L 5825 4678 
Q 4897 4419 3891 4294 
L 3891 3219 
L 6119 3219 
L 6119 2803 
L 5275 2803 
L 5275 -447 
L 4834 -447 
L 4834 2803 
L 3891 2803 
z
M 2822 4069 
Q 2678 3572 2519 3181 
L 3250 3181 
L 3250 2784 
L 2059 2784 
L 2059 2216 
L 3184 2216 
L 3184 1831 
L 2059 1831 
L 2059 1544 
Q 2613 1197 3031 847 
L 2781 456 
Q 2472 791 2059 1128 
L 2059 -447 
L 1644 -447 
L 1644 1294 
Q 1272 628 575 -31 
L 269 341 
Q 1041 938 1528 1831 
L 453 1831 
L 453 2216 
L 1644 2216 
L 1644 2784 
L 319 2784 
L 319 3181 
L 1125 3181 
Q 1013 3706 881 4069 
L 453 4069 
L 453 4453 
L 1631 4453 
L 1631 5309 
L 2072 5309 
L 2072 4453 
L 3166 4453 
L 3166 4069 
L 2822 4069 
z
M 2391 4069 
L 1325 4069 
Q 1450 3672 1534 3181 
L 2109 3181 
Q 2294 3659 2391 4069 
z
" transform="scale(0.015625)"/>
     <path id="IPAexGothic-65e5" d="M 5231 4800 
L 5231 -288 
L 4744 -288 
L 4744 128 
L 1647 128 
L 1647 -288 
L 1159 -288 
L 1159 4800 
L 5231 4800 
z
M 1647 4372 
L 1647 2731 
L 4744 2731 
L 4744 4372 
L 1647 4372 
z
M 1647 2297 
L 1647 556 
L 4744 556 
L 4744 2297 
L 1647 2297 
z
" transform="scale(0.015625)"/>
     <path id="IPAexGothic-6642" d="M 2328 4728 
L 2328 563 
L 934 563 
L 934 56 
L 519 56 
L 519 4728 
L 2328 4728 
z
M 934 4331 
L 934 2881 
L 1906 2881 
L 1906 4331 
L 934 4331 
z
M 934 2497 
L 934 953 
L 1906 953 
L 1906 2497 
L 934 2497 
z
M 3938 4372 
L 3938 5313 
L 4378 5313 
L 4378 4372 
L 5772 4372 
L 5772 3981 
L 4378 3981 
L 4378 3194 
L 6072 3194 
L 6072 2803 
L 5203 2803 
L 5203 2047 
L 5959 2047 
L 5959 1650 
L 5216 1650 
L 5216 31 
Q 5216 -447 4691 -447 
Q 4394 -447 3888 -391 
L 3784 78 
Q 4272 0 4591 0 
Q 4775 0 4775 172 
L 4775 1650 
L 2581 1650 
L 2581 2047 
L 4763 2047 
L 4763 2803 
L 2538 2803 
L 2538 3194 
L 3938 3194 
L 3938 3981 
L 2716 3981 
L 2716 4372 
L 3938 4372 
z
M 3669 384 
Q 3331 950 2956 1325 
L 3291 1575 
Q 3719 1147 4025 659 
L 3669 384 
z
" transform="scale(0.015625)"/>
     <path id="IPAexGothic-3a" d="M 1369 2559 
L 672 2559 
L 672 3250 
L 1369 3250 
L 1369 2559 
z
M 1369 63 
L 672 63 
L 672 753 
L 1369 753 
L 1369 63 
z
" transform="scale(0.015625)"/>
     <path id="IPAexGothic-20" transform="scale(0.015625)"/>
     <path id="IPAexGothic-2f" d="M 2719 4709 
L 600 -884 
L 300 -763 
L 2413 4831 
L 2719 4709 
z
" transform="scale(0.015625)"/>
     <path id="IPAexGothic-39" d="M 2984 2356 
Q 2544 1716 1813 1716 
Q 1253 1716 847 2056 
Q 366 2459 366 3163 
Q 366 3813 769 4266 
Q 1181 4725 1869 4725 
Q 2800 4725 3241 3950 
Q 3559 3378 3559 2472 
Q 3559 1250 3041 588 
Q 2553 -31 1769 -31 
Q 859 -31 391 703 
L 853 953 
Q 1156 428 1753 428 
Q 2922 428 3009 2356 
L 2984 2356 
z
M 1888 4278 
Q 1450 4278 1172 3950 
Q 922 3653 922 3200 
Q 922 2741 1159 2478 
Q 1434 2163 1906 2163 
Q 2431 2163 2728 2572 
Q 2925 2847 2925 3169 
Q 2925 3553 2694 3863 
Q 2375 4278 1888 4278 
z
" transform="scale(0.015625)"/>
     <path id="IPAexGothic-28" d="M 1928 -1016 
L 1653 -1166 
Q 488 69 488 1875 
Q 488 3678 1653 4909 
L 1928 4763 
Q 1006 3522 1006 1881 
Q 1006 203 1928 -1016 
z
" transform="scale(0.015625)"/>
     <path id="IPAexGothic-53" d="M 2919 3641 
Q 2563 4259 1853 4259 
Q 1453 4259 1213 4009 
Q 1028 3803 1028 3534 
Q 1028 3238 1266 3047 
Q 1444 2913 1984 2688 
L 2200 2597 
Q 2925 2306 3191 1953 
Q 3422 1644 3422 1259 
Q 3422 644 2969 288 
Q 2559 -31 1931 -31 
Q 881 -31 313 766 
L 753 1100 
Q 1203 459 1938 459 
Q 2288 459 2534 625 
Q 2841 847 2841 1216 
Q 2841 1503 2616 1728 
Q 2375 1959 1728 2206 
L 1541 2278 
Q 453 2694 453 3481 
Q 453 4006 806 4347 
Q 1203 4725 1863 4725 
Q 2841 4725 3359 3956 
L 2919 3641 
z
" transform="scale(0.015625)"/>
     <path id="IPAexGothic-54" d="M 3866 4141 
L 2175 4141 
L 2175 63 
L 1606 63 
L 1606 4141 
L -31 4141 
L -31 4634 
L 3866 4634 
L 3866 4141 
z
" transform="scale(0.015625)"/>
     <path id="IPAexGothic-29" d="M 466 4909 
Q 1638 3672 1638 1875 
Q 1638 75 466 -1166 
L 191 -1016 
Q 1119 216 1119 1881 
Q 1119 3509 191 4763 
L 466 4909 
z
" transform="scale(0.015625)"/>
    </defs>
    <use xlink:href="#IPAexGothic-66f4"/>
    <use xlink:href="#IPAexGothic-65b0" x="100"/>
    <use xlink:href="#IPAexGothic-65e5" x="200"/>
    <use xlink:href="#IPAexGothic-6642" x="300"/>
    <use xlink:href="#IPAexGothic-3a" x="400"/>
    <use xlink:href="#IPAexGothic-20" x="431.982422"/>
    <use xlink:href="#IPAexGothic-32" x="458.984375"/>
    <use xlink:href="#IPAexGothic-30" x="521.972656"/>
    <use xlink:href="#IPAexGothic-32" x="584.960938"/>
    <use xlink:href="#IPAexGothic-32" x="647.949219"/>
    <use xlink:href="#IPAexGothic-2f" x="710.9375"/>
    <use xlink:href="#IPAexGothic-30" x="760.9375"/>
    <use xlink:href="#IPAexGothic-36" x="823.925781"/>
    <use xlink:href="#IPAexGothic-2f" x="886.914062"/>
    <use xlink:href="#IPAexGothic-32" x="936.914062"/>
    <use xlink:href="#IPAexGothic-37" x="999.902344"/>
    <use xlink:href="#IPAexGothic-20" x="1062.890625"/>
    <use xlink:href="#IPAexGothic-31" x="1089.892578"/>
    <use xlink:href="#IPAexGothic-32" x="1152.880859"/>
    <use xlink:href="#IPAexGothic-3a" x="1215.869141"/>
    <use xlink:href="#IPAexGothic-31" x="1247.851562"/>
    <use xlink:href="#IPAexGothic-35" x="1310.839844"/>
    <use xlink:href="#IPAexGothic-3a" x="1373.828125"/>
    <use xlink:href="#IPAexGothic-35" x="1405.810547"/>
    <use xlink:href="#IPAexGothic-39" x="1468.798828"/>
    <use xlink:href="#IPAexGothic-28" x="1531.787109"/>
    <use xlink:href="#IPAexGothic-4a" x="1565.087891"/>
    <use xlink:href="#IPAexGothic-53" x="1603.076172"/>
    <use xlink:href="#IPAexGothic-54" x="1661.572266"/>
    <use xlink:href="#IPAexGothic-29" x="1721.484375"/>
   </g>
  </g>
 </g>
 <defs>
  <clipPath id="pc6a9f57e2b">
   <rect x="35.7375" y="18.879437" width="357.12" height="266.112"/>
  </clipPath>
 </defs>
</svg>
