<?xml version="1.0" encoding="utf-8" standalone="no"?>
<!DOCTYPE svg PUBLIC "-//W3C//DTD SVG 1.1//EN"
  "http://www.w3.org/Graphics/SVG/1.1/DTD/svg11.dtd">
<svg xmlns:xlink="http://www.w3.org/1999/xlink" width="397.259063pt" height="308.582062pt" viewBox="0 0 397.259063 308.582062" xmlns="http://www.w3.org/2000/svg" version="1.1">
 <metadata>
  <rdf:RDF xmlns:dc="http://purl.org/dc/elements/1.1/" xmlns:cc="http://creativecommons.org/ns#" xmlns:rdf="http://www.w3.org/1999/02/22-rdf-syntax-ns#">
   <cc:Work>
    <dc:type rdf:resource="http://purl.org/dc/dcmitype/StillImage"/>
    <dc:date>2023-01-23T07:14:37.541683</dc:date>
    <dc:format>image/svg+xml</dc:format>
    <dc:creator>
     <cc:Agent>
      <dc:title>Matplotlib v3.6.3, https://matplotlib.org/</dc:title>
     </cc:Agent>
    </dc:creator>
   </cc:Work>
  </rdf:RDF>
 </metadata>
 <defs>
  <style type="text/css">*{stroke-linejoin: round; stroke-linecap: butt}</style>
 </defs>
 <g id="figure_1">
  <g id="patch_1">
   <path d="M 0 308.582062 
L 397.259063 308.582062 
L 397.259063 0 
L 0 0 
z
" style="fill: #ffffff"/>
  </g>
  <g id="axes_1">
   <g id="patch_2">
    <path d="M 29.439063 284.991437 
L 386.559062 284.991437 
L 386.559062 18.879437 
L 29.439063 18.879437 
z
" style="fill: #ffffff"/>
   </g>
   <g id="line2d_1">
    <path d="M 29.439063 211.199039 
L 386.559062 211.199039 
" clip-path="url(#pf1d6ecbbc1)" style="fill: none; stroke: #000000; stroke-linecap: square"/>
   </g>
   <g id="matplotlib.axis_1">
    <g id="xtick_1">
     <g id="line2d_2">
      <defs>
       <path id="m32b5d87684" d="M 0 0 
L 0 3.5 
" style="stroke: #000000; stroke-width: 0.8"/>
      </defs>
      <g>
       <use xlink:href="#m32b5d87684" x="29.439063" y="284.991437" style="stroke: #000000; stroke-width: 0.8"/>
      </g>
     </g>
     <g id="text_1">
      <!-- Jun -->
      <g transform="translate(21.499219 299.482062) scale(0.1 -0.1)">
       <defs>
        <path id="IPAexGothic-4a" d="M 1819 4634 
L 1819 1234 
Q 1819 -31 763 -31 
Q 303 -31 -125 209 
L 84 644 
Q 378 447 694 447 
Q 1250 447 1250 1203 
L 1250 4634 
L 1819 4634 
z
" transform="scale(0.015625)"/>
        <path id="IPAexGothic-75" d="M 3284 63 
L 2772 63 
L 2772 644 
Q 2300 0 1625 0 
Q 1072 0 763 375 
Q 519 678 519 1241 
L 519 3250 
L 1069 3250 
L 1069 1259 
Q 1069 466 1734 466 
Q 2406 466 2734 1291 
L 2734 3250 
L 3284 3250 
L 3284 63 
z
" transform="scale(0.015625)"/>
        <path id="IPAexGothic-6e" d="M 3328 63 
L 2778 63 
L 2778 2041 
Q 2778 2853 2106 2853 
Q 1428 2853 1113 2041 
L 1113 63 
L 563 63 
L 563 3250 
L 1075 3250 
L 1075 2675 
Q 1525 3316 2222 3316 
Q 3328 3316 3328 2072 
L 3328 63 
z
" transform="scale(0.015625)"/>
       </defs>
       <use xlink:href="#IPAexGothic-4a"/>
       <use xlink:href="#IPAexGothic-75" x="37.988281"/>
       <use xlink:href="#IPAexGothic-6e" x="98.388672"/>
      </g>
     </g>
    </g>
    <g id="xtick_2">
     <g id="line2d_3">
      <g>
       <use xlink:href="#m32b5d87684" x="74.644126" y="284.991437" style="stroke: #000000; stroke-width: 0.8"/>
      </g>
     </g>
     <g id="text_2">
      <!-- Jul -->
      <g transform="translate(68.374595 299.482062) scale(0.1 -0.1)">
       <defs>
        <path id="IPAexGothic-6c" d="M 1131 63 
L 581 63 
L 581 4794 
L 1131 4794 
L 1131 63 
z
" transform="scale(0.015625)"/>
       </defs>
       <use xlink:href="#IPAexGothic-4a"/>
       <use xlink:href="#IPAexGothic-75" x="37.988281"/>
       <use xlink:href="#IPAexGothic-6c" x="98.388672"/>
      </g>
     </g>
    </g>
    <g id="xtick_3">
     <g id="line2d_4">
      <g>
       <use xlink:href="#m32b5d87684" x="121.356025" y="284.991437" style="stroke: #000000; stroke-width: 0.8"/>
      </g>
     </g>
     <g id="text_3">
      <!-- Aug -->
      <g transform="translate(112.373993 299.42425) scale(0.1 -0.1)">
       <defs>
        <path id="IPAexGothic-41" d="M 4056 63 
L 3444 63 
L 2938 1409 
L 1100 1409 
L 603 63 
L -6 63 
L 1806 4666 
L 2259 4666 
L 4056 63 
z
M 2778 1863 
L 2316 3078 
Q 2125 3588 2028 4000 
L 2009 4000 
Q 1897 3563 1716 3078 
L 1263 1863 
L 2778 1863 
z
" transform="scale(0.015625)"/>
        <path id="IPAexGothic-67" d="M 1331 1150 
Q 1006 1122 1006 900 
Q 1006 613 1763 575 
L 2131 556 
Q 3303 497 3303 -294 
Q 3303 -700 2925 -959 
Q 2519 -1253 1794 -1253 
Q 1138 -1253 738 -1028 
Q 353 -809 353 -428 
Q 353 84 1075 247 
L 1075 269 
Q 506 413 506 778 
Q 506 1116 994 1297 
Q 456 1575 456 2181 
Q 456 2650 769 2963 
Q 1128 3322 1738 3322 
Q 2125 3322 2422 3153 
Q 2650 3453 3259 3463 
L 3259 3013 
Q 2838 3003 2703 2938 
Q 3034 2613 3034 2169 
Q 3034 1728 2734 1425 
Q 2400 1094 1813 1094 
Q 1563 1094 1331 1150 
z
M 1734 2919 
Q 1409 2919 1197 2706 
Q 988 2497 988 2181 
Q 988 1872 1184 1684 
Q 1397 1472 1756 1472 
Q 2094 1472 2297 1678 
Q 2503 1881 2503 2203 
Q 2503 2497 2297 2700 
Q 2081 2919 1734 2919 
z
M 1753 159 
Q 903 159 903 -366 
Q 903 -875 1800 -875 
Q 2378 -875 2638 -606 
Q 2772 -481 2772 -313 
Q 2772 159 1753 159 
z
" transform="scale(0.015625)"/>
       </defs>
       <use xlink:href="#IPAexGothic-41"/>
       <use xlink:href="#IPAexGothic-75" x="63.720703"/>
       <use xlink:href="#IPAexGothic-67" x="124.121094"/>
      </g>
     </g>
    </g>
    <g id="xtick_4">
     <g id="line2d_5">
      <g>
       <use xlink:href="#m32b5d87684" x="168.067923" y="284.991437" style="stroke: #000000; stroke-width: 0.8"/>
      </g>
     </g>
     <g id="text_4">
      <!-- Sep -->
      <g transform="translate(159.192923 299.482062) scale(0.1 -0.1)">
       <defs>
        <path id="IPAexGothic-53" d="M 2919 3641 
Q 2563 4259 1853 4259 
Q 1453 4259 1213 4009 
Q 1028 3803 1028 3534 
Q 1028 3238 1266 3047 
Q 1444 2913 1984 2688 
L 2200 2597 
Q 2925 2306 3191 1953 
Q 3422 1644 3422 1259 
Q 3422 644 2969 288 
Q 2559 -31 1931 -31 
Q 881 -31 313 766 
L 753 1100 
Q 1203 459 1938 459 
Q 2288 459 2534 625 
Q 2841 847 2841 1216 
Q 2841 1503 2616 1728 
Q 2375 1959 1728 2206 
L 1541 2278 
Q 453 2694 453 3481 
Q 453 4006 806 4347 
Q 1203 4725 1863 4725 
Q 2841 4725 3359 3956 
L 2919 3641 
z
" transform="scale(0.015625)"/>
        <path id="IPAexGothic-65" d="M 863 1594 
Q 891 1041 1209 722 
Q 1534 397 1997 397 
Q 2606 397 2963 966 
L 3322 728 
Q 2869 -31 1931 -31 
Q 1222 -31 766 422 
Q 306 884 306 1641 
Q 306 2444 788 2925 
Q 1216 3353 1856 3353 
Q 2459 3353 2866 2956 
Q 3322 2494 3322 1722 
L 3322 1594 
L 863 1594 
z
M 2756 1997 
Q 2709 2431 2450 2681 
Q 2194 2938 1844 2938 
Q 1438 2938 1150 2591 
Q 953 2356 894 1997 
L 2756 1997 
z
" transform="scale(0.015625)"/>
        <path id="IPAexGothic-70" d="M 1075 2688 
Q 1525 3341 2206 3341 
Q 2769 3341 3172 2938 
Q 3641 2469 3641 1644 
Q 3641 841 3178 372 
Q 2775 -31 2200 -31 
Q 1569 -31 1106 497 
L 1106 -1216 
L 563 -1216 
L 563 3250 
L 1075 3250 
L 1075 2688 
z
M 1106 1950 
L 1106 1291 
Q 1106 897 1516 600 
Q 1791 403 2106 403 
Q 2469 403 2725 659 
Q 3066 997 3066 1631 
Q 3066 2200 2784 2559 
Q 2503 2900 2100 2900 
Q 1656 2900 1338 2484 
Q 1106 2184 1106 1950 
z
" transform="scale(0.015625)"/>
       </defs>
       <use xlink:href="#IPAexGothic-53"/>
       <use xlink:href="#IPAexGothic-65" x="58.496094"/>
       <use xlink:href="#IPAexGothic-70" x="115.380859"/>
      </g>
     </g>
    </g>
    <g id="xtick_5">
     <g id="line2d_6">
      <g>
       <use xlink:href="#m32b5d87684" x="213.272987" y="284.991437" style="stroke: #000000; stroke-width: 0.8"/>
      </g>
     </g>
     <g id="text_5">
      <!-- Oct -->
      <g transform="translate(204.83783 299.482062) scale(0.1 -0.1)">
       <defs>
        <path id="IPAexGothic-4f" d="M 2541 4725 
Q 3456 4725 4044 4138 
Q 4709 3472 4709 2331 
Q 4709 1219 4031 550 
Q 3450 -31 2541 -31 
Q 1638 -31 1056 550 
Q 378 1219 378 2356 
Q 378 3469 1044 4138 
Q 1631 4725 2541 4725 
z
M 2541 4266 
Q 1953 4266 1531 3844 
Q 994 3303 994 2350 
Q 994 1391 1531 863 
Q 1947 447 2541 447 
Q 3131 447 3556 863 
Q 4094 1400 4094 2375 
Q 4094 3297 3550 3844 
Q 3138 4266 2541 4266 
z
" transform="scale(0.015625)"/>
        <path id="IPAexGothic-63" d="M 3269 784 
Q 2834 -31 1900 -31 
Q 1228 -31 788 409 
Q 313 891 313 1663 
Q 313 2428 788 2913 
Q 1222 3347 1881 3347 
Q 2813 3347 3206 2541 
L 2763 2309 
Q 2484 2900 1900 2900 
Q 1516 2900 1234 2619 
Q 881 2266 881 1650 
Q 881 1069 1222 728 
Q 1522 428 1956 428 
Q 2547 428 2847 1016 
L 3269 784 
z
" transform="scale(0.015625)"/>
        <path id="IPAexGothic-74" d="M 2125 241 
Q 1769 -6 1397 -6 
Q 653 -6 653 831 
L 653 2859 
L 219 2859 
L 219 3250 
L 653 3250 
L 653 3966 
L 1178 4228 
L 1178 3250 
L 2063 3250 
L 2063 2859 
L 1178 2859 
L 1178 906 
Q 1178 416 1513 416 
Q 1738 416 1941 588 
L 2125 241 
z
" transform="scale(0.015625)"/>
       </defs>
       <use xlink:href="#IPAexGothic-4f"/>
       <use xlink:href="#IPAexGothic-63" x="79.6875"/>
       <use xlink:href="#IPAexGothic-74" x="134.082031"/>
      </g>
     </g>
    </g>
    <g id="xtick_6">
     <g id="line2d_7">
      <g>
       <use xlink:href="#m32b5d87684" x="259.984885" y="284.991437" style="stroke: #000000; stroke-width: 0.8"/>
      </g>
     </g>
     <g id="text_6">
      <!-- Nov -->
      <g transform="translate(250.736448 299.482062) scale(0.1 -0.1)">
       <defs>
        <path id="IPAexGothic-4e" d="M 4244 63 
L 3731 63 
L 1697 3150 
Q 1466 3500 1141 4097 
L 1116 4097 
L 1128 3797 
Q 1159 2803 1159 2469 
L 1159 63 
L 609 63 
L 609 4634 
L 1366 4634 
L 3113 1978 
Q 3453 1447 3713 966 
L 3738 966 
Q 3694 1897 3694 2469 
L 3694 4634 
L 4244 4634 
L 4244 63 
z
" transform="scale(0.015625)"/>
        <path id="IPAexGothic-6f" d="M 1919 3341 
Q 2594 3341 3056 2888 
Q 3531 2413 3531 1638 
Q 3531 888 3066 422 
Q 2609 -31 1919 -31 
Q 1228 -31 781 416 
Q 313 881 313 1656 
Q 313 2413 788 2888 
Q 1241 3341 1919 3341 
z
M 1919 2919 
Q 1519 2919 1241 2631 
Q 888 2278 888 1650 
Q 888 1031 1234 684 
Q 1516 403 1919 403 
Q 2331 403 2609 691 
Q 2956 1038 2956 1672 
Q 2956 2269 2603 2631 
Q 2316 2919 1919 2919 
z
" transform="scale(0.015625)"/>
        <path id="IPAexGothic-76" d="M 3103 3250 
L 1747 6 
L 1375 6 
L 25 3250 
L 628 3250 
L 1338 1388 
L 1522 844 
L 1569 703 
L 1588 703 
Q 1641 884 1822 1388 
L 2516 3250 
L 3103 3250 
z
" transform="scale(0.015625)"/>
       </defs>
       <use xlink:href="#IPAexGothic-4e"/>
       <use xlink:href="#IPAexGothic-6f" x="75.976562"/>
       <use xlink:href="#IPAexGothic-76" x="136.376953"/>
      </g>
     </g>
    </g>
    <g id="xtick_7">
     <g id="line2d_8">
      <g>
       <use xlink:href="#m32b5d87684" x="305.189949" y="284.991437" style="stroke: #000000; stroke-width: 0.8"/>
      </g>
     </g>
     <g id="text_7">
      <!-- Dec -->
      <g transform="translate(295.841511 299.482062) scale(0.1 -0.1)">
       <defs>
        <path id="IPAexGothic-44" d="M 609 4634 
L 1984 4634 
Q 3159 4634 3791 4050 
Q 4456 3444 4456 2356 
Q 4456 1047 3516 441 
Q 2925 63 1941 63 
L 609 63 
L 609 4634 
z
M 1172 556 
L 1894 556 
Q 3853 556 3853 2356 
Q 3853 4147 1928 4147 
L 1172 4147 
L 1172 556 
z
" transform="scale(0.015625)"/>
       </defs>
       <use xlink:href="#IPAexGothic-44"/>
       <use xlink:href="#IPAexGothic-65" x="75.683594"/>
       <use xlink:href="#IPAexGothic-63" x="132.568359"/>
      </g>
     </g>
    </g>
    <g id="xtick_8">
     <g id="line2d_9">
      <g>
       <use xlink:href="#m32b5d87684" x="351.901847" y="284.991437" style="stroke: #000000; stroke-width: 0.8"/>
      </g>
     </g>
     <g id="text_8">
      <!-- 2023 -->
      <g transform="translate(339.304972 299.482062) scale(0.1 -0.1)">
       <defs>
        <path id="IPAexGothic-32" d="M 3659 63 
L 447 63 
L 447 594 
Q 825 1475 1894 2203 
L 2072 2322 
Q 2619 2697 2791 2906 
Q 2988 3153 2988 3444 
Q 2988 3772 2756 4003 
Q 2500 4259 2084 4259 
Q 1250 4259 991 3328 
L 497 3506 
Q 853 4725 2116 4725 
Q 2806 4725 3216 4316 
Q 3575 3947 3575 3425 
Q 3575 3038 3344 2722 
Q 3131 2416 2366 1938 
L 2231 1856 
Q 1256 1253 978 569 
L 3659 569 
L 3659 63 
z
" transform="scale(0.015625)"/>
        <path id="IPAexGothic-30" d="M 2038 4725 
Q 2881 4725 3334 3944 
Q 3694 3325 3694 2344 
Q 3694 1372 3334 741 
Q 2888 -31 2016 -31 
Q 1147 -31 700 741 
Q 341 1372 341 2350 
Q 341 3713 1000 4334 
Q 1419 4725 2038 4725 
z
M 2016 4266 
Q 1516 4266 1228 3759 
Q 934 3247 934 2344 
Q 934 1456 1222 947 
Q 1513 447 2016 447 
Q 2619 447 2909 1153 
Q 3100 1622 3100 2375 
Q 3100 3256 2806 3759 
Q 2509 4266 2016 4266 
z
" transform="scale(0.015625)"/>
        <path id="IPAexGothic-33" d="M 2381 2419 
Q 3506 2216 3506 1278 
Q 3506 716 3128 356 
Q 2709 -31 1944 -31 
Q 797 -31 288 881 
L 756 1131 
Q 1109 441 1938 441 
Q 2425 441 2694 691 
Q 2950 928 2950 1291 
Q 2950 1719 2566 1978 
Q 2216 2213 1644 2213 
L 1363 2213 
L 1363 2669 
L 1656 2669 
Q 2231 2669 2534 2888 
Q 2859 3119 2859 3509 
Q 2859 3934 2494 4138 
Q 2259 4278 1931 4278 
Q 1238 4278 903 3578 
L 434 3803 
Q 897 4725 1938 4725 
Q 2597 4725 3006 4394 
Q 3416 4069 3416 3534 
Q 3416 3028 3019 2706 
Q 2763 2500 2381 2444 
L 2381 2419 
z
" transform="scale(0.015625)"/>
       </defs>
       <use xlink:href="#IPAexGothic-32"/>
       <use xlink:href="#IPAexGothic-30" x="62.988281"/>
       <use xlink:href="#IPAexGothic-32" x="125.976562"/>
       <use xlink:href="#IPAexGothic-33" x="188.964844"/>
      </g>
     </g>
    </g>
   </g>
   <g id="matplotlib.axis_2">
    <g id="ytick_1">
     <g id="line2d_10">
      <defs>
       <path id="m36254277c2" d="M 0 0 
L -3.5 0 
" style="stroke: #000000; stroke-width: 0.8"/>
      </defs>
      <g>
       <use xlink:href="#m36254277c2" x="29.439063" y="269.014637" style="stroke: #000000; stroke-width: 0.8"/>
      </g>
     </g>
     <g id="text_9">
      <!-- 0.5 -->
      <g transform="translate(7.2 272.759949) scale(0.1 -0.1)">
       <defs>
        <path id="IPAexGothic-2e" d="M 1184 63 
L 494 63 
L 494 753 
L 1184 753 
L 1184 63 
z
" transform="scale(0.015625)"/>
        <path id="IPAexGothic-35" d="M 1178 2603 
Q 1634 2963 2172 2963 
Q 2816 2963 3241 2528 
Q 3638 2113 3638 1497 
Q 3638 938 3297 513 
Q 2869 -31 2031 -31 
Q 959 -31 469 784 
L 938 1028 
Q 1309 434 2013 434 
Q 2466 434 2769 716 
Q 3081 1013 3081 1503 
Q 3081 1966 2806 2241 
Q 2519 2528 2056 2528 
Q 1406 2528 1072 2028 
L 591 2091 
L 884 4634 
L 3406 4634 
L 3406 4153 
L 1341 4153 
L 1134 2603 
L 1178 2603 
z
" transform="scale(0.015625)"/>
       </defs>
       <use xlink:href="#IPAexGothic-30"/>
       <use xlink:href="#IPAexGothic-2e" x="62.988281"/>
       <use xlink:href="#IPAexGothic-35" x="89.404297"/>
      </g>
     </g>
    </g>
    <g id="ytick_2">
     <g id="line2d_11">
      <g>
       <use xlink:href="#m36254277c2" x="29.439063" y="211.199039" style="stroke: #000000; stroke-width: 0.8"/>
      </g>
     </g>
     <g id="text_10">
      <!-- 1.0 -->
      <g transform="translate(7.2 214.944352) scale(0.1 -0.1)">
       <defs>
        <path id="IPAexGothic-31" d="M 2463 63 
L 1900 63 
L 1900 4103 
Q 1372 3922 788 3797 
L 684 4231 
Q 1519 4441 2106 4731 
L 2463 4731 
L 2463 63 
z
" transform="scale(0.015625)"/>
       </defs>
       <use xlink:href="#IPAexGothic-31"/>
       <use xlink:href="#IPAexGothic-2e" x="62.988281"/>
       <use xlink:href="#IPAexGothic-30" x="89.404297"/>
      </g>
     </g>
    </g>
    <g id="ytick_3">
     <g id="line2d_12">
      <g>
       <use xlink:href="#m36254277c2" x="29.439063" y="153.383442" style="stroke: #000000; stroke-width: 0.8"/>
      </g>
     </g>
     <g id="text_11">
      <!-- 1.5 -->
      <g transform="translate(7.2 157.128754) scale(0.1 -0.1)">
       <use xlink:href="#IPAexGothic-31"/>
       <use xlink:href="#IPAexGothic-2e" x="62.988281"/>
       <use xlink:href="#IPAexGothic-35" x="89.404297"/>
      </g>
     </g>
    </g>
    <g id="ytick_4">
     <g id="line2d_13">
      <g>
       <use xlink:href="#m36254277c2" x="29.439063" y="95.567844" style="stroke: #000000; stroke-width: 0.8"/>
      </g>
     </g>
     <g id="text_12">
      <!-- 2.0 -->
      <g transform="translate(7.2 99.313157) scale(0.1 -0.1)">
       <use xlink:href="#IPAexGothic-32"/>
       <use xlink:href="#IPAexGothic-2e" x="62.988281"/>
       <use xlink:href="#IPAexGothic-30" x="89.404297"/>
      </g>
     </g>
    </g>
    <g id="ytick_5">
     <g id="line2d_14">
      <g>
       <use xlink:href="#m36254277c2" x="29.439063" y="37.752247" style="stroke: #000000; stroke-width: 0.8"/>
      </g>
     </g>
     <g id="text_13">
      <!-- 2.5 -->
      <g transform="translate(7.2 41.497559) scale(0.1 -0.1)">
       <use xlink:href="#IPAexGothic-32"/>
       <use xlink:href="#IPAexGothic-2e" x="62.988281"/>
       <use xlink:href="#IPAexGothic-35" x="89.404297"/>
      </g>
     </g>
    </g>
   </g>
   <g id="line2d_15">
    <path d="M 29.439063 227.411867 
L 30.945898 255.471758 
L 32.452733 269.405805 
L 33.959569 242.945807 
L 35.466404 262.441258 
L 38.480075 251.639145 
L 39.986911 227.514621 
L 41.493746 229.940841 
L 43.000581 194.078383 
L 44.507417 246.403784 
L 46.014252 250.411663 
L 47.521088 205.84664 
L 49.027923 249.191321 
L 50.534759 272.895437 
L 52.041594 243.090535 
L 53.54843 247.559579 
L 55.055265 238.429093 
L 56.5621 112.810292 
L 58.068936 184.323192 
L 59.575771 181.498781 
L 61.082607 30.975437 
L 64.096278 168.571026 
L 65.603113 110.868109 
L 67.109949 213.126183 
L 68.616784 156.293505 
L 70.123619 124.518024 
L 71.630455 151.875457 
L 73.13729 236.751655 
L 74.644126 106.655378 
L 76.150961 51.387485 
L 77.657797 102.788184 
L 79.164632 95.926279 
L 80.671468 36.542983 
L 82.178303 79.37836 
L 83.685138 35.439549 
L 85.191974 110.396771 
L 86.698809 116.980214 
L 88.205645 109.726148 
L 89.71248 177.160719 
L 91.219316 110.814502 
L 92.726151 153.702013 
L 94.232987 148.460822 
L 95.739822 164.812112 
L 97.246657 190.526245 
L 98.753493 181.526351 
L 100.260328 197.096587 
L 101.767164 219.976945 
L 103.273999 163.710275 
L 104.780835 173.022011 
L 106.28767 196.817697 
L 107.794506 179.527296 
L 109.301341 191.661352 
L 110.808176 192.887858 
L 112.315012 173.15897 
L 113.821847 188.50237 
L 115.328683 201.809366 
L 116.835518 195.197746 
L 118.342354 183.412435 
L 119.849189 192.046725 
L 121.356025 204.737627 
L 122.86286 199.025674 
L 124.369695 189.016626 
L 125.876531 185.809755 
L 127.383366 182.941981 
L 128.890202 200.02008 
L 130.397037 192.032303 
L 131.903873 181.775482 
L 133.410708 186.871327 
L 134.917544 193.9839 
L 136.424379 204.601463 
L 137.931214 225.669065 
L 139.43805 207.989558 
L 140.944885 218.057369 
L 142.451721 204.232725 
L 143.958556 217.282458 
L 145.465392 202.720535 
L 146.972227 195.141529 
L 148.479063 153.461242 
L 149.985898 171.531238 
L 151.492733 185.828914 
L 152.999569 204.950127 
L 154.506404 187.736367 
L 156.01324 211.671324 
L 157.520075 216.92144 
L 159.026911 231.587854 
L 160.533746 248.509599 
L 162.040581 240.826108 
L 163.547417 241.29957 
L 165.054252 247.072575 
L 166.561088 251.367839 
L 168.067923 251.669425 
L 169.574759 251.785215 
L 171.081594 242.900107 
L 172.58843 251.663262 
L 174.095265 241.186243 
L 175.6021 228.929625 
L 177.108936 240.670472 
L 178.615771 239.689961 
L 180.122607 228.587222 
L 181.629442 234.114512 
L 183.136278 220.053728 
L 184.643113 221.634093 
L 186.149949 247.789493 
L 187.656784 250.578039 
L 189.163619 230.847867 
L 190.670455 240.571341 
L 192.17729 229.667605 
L 193.684126 228.965012 
L 195.190961 226.507 
L 196.697797 266.267581 
L 198.204632 173.994674 
L 199.711468 228.352097 
L 201.218303 212.968149 
L 202.725138 243.863512 
L 204.231974 195.951487 
L 205.738809 187.500784 
L 207.245645 195.32975 
L 208.75248 238.855842 
L 210.259316 224.563828 
L 211.766151 239.674853 
L 213.272987 205.067187 
L 214.779822 219.657973 
L 216.286657 258.893645 
L 217.793493 189.095647 
L 219.300328 231.988543 
L 220.807164 230.452082 
L 222.313999 208.848889 
L 223.820835 214.413367 
L 225.32767 237.774657 
L 226.834506 208.216448 
L 228.341341 269.328924 
L 229.848176 186.857034 
L 231.355012 168.652783 
L 232.861847 211.199039 
L 234.368683 197.903063 
L 235.875518 190.42842 
L 237.382354 209.746404 
L 238.889189 135.123595 
L 240.396025 212.926136 
L 241.90286 239.34414 
L 243.409695 184.631705 
L 244.916531 193.892671 
L 246.423366 220.351516 
L 247.930202 197.002011 
L 249.437037 191.634272 
L 250.943873 213.253557 
L 252.450708 183.049443 
L 253.957544 199.198481 
L 255.464379 190.346771 
L 256.971214 160.309806 
L 258.47805 189.784075 
L 259.984885 198.104074 
L 261.491721 152.110827 
L 262.998556 152.9204 
L 264.505392 232.748365 
L 266.012227 165.024121 
L 267.519063 194.085734 
L 269.025898 199.838398 
L 270.532733 173.564927 
L 272.039569 209.205445 
L 273.546404 206.690562 
L 275.05324 156.249641 
L 276.560075 220.402577 
L 278.066911 215.284532 
L 279.573746 225.924092 
L 281.080581 188.099011 
L 282.587417 185.511636 
L 284.094252 211.199039 
L 285.601088 194.160213 
L 287.107923 184.55213 
L 288.614759 182.799057 
L 291.62843 203.930102 
L 293.135265 168.757197 
L 294.6421 220.491359 
L 296.148936 171.577359 
L 299.162607 192.11637 
L 300.669442 204.402838 
L 302.176278 198.987955 
L 303.683113 181.777237 
L 305.189949 142.696764 
L 306.696784 213.580923 
L 308.203619 220.529523 
L 309.710455 204.080643 
L 311.21729 205.292279 
L 312.724126 181.962456 
L 314.230961 194.793532 
L 315.737797 197.432704 
L 317.244632 173.295964 
L 318.751468 175.045451 
L 320.258303 167.16196 
L 321.765138 187.120934 
L 323.271974 183.834422 
L 324.778809 173.778001 
L 326.285645 181.23856 
L 327.79248 201.020413 
L 329.299316 187.828789 
L 330.806151 213.66936 
L 332.312987 207.768569 
L 333.819822 207.295129 
L 335.326657 192.832229 
L 336.833493 206.958159 
L 338.340328 188.728128 
L 339.847164 193.851266 
L 341.353999 207.103197 
L 342.860835 215.224404 
L 344.36767 196.113595 
L 345.874506 220.91992 
L 347.381341 200.04709 
L 348.888176 223.444191 
L 350.395012 251.024981 
L 351.901847 228.180558 
L 353.408683 208.755181 
L 354.915518 251.311193 
L 356.422354 254.432046 
L 357.929189 215.74342 
L 359.436025 126.299141 
L 360.94286 90.185267 
L 362.449695 169.01121 
L 363.956531 202.233317 
L 365.463366 208.810336 
L 366.970202 167.736099 
L 368.477037 215.685286 
L 369.983873 255.304956 
L 371.490708 257.151057 
L 372.997544 241.910597 
L 374.504379 230.363911 
L 376.011214 201.639485 
L 377.51805 252.591109 
L 379.024885 261.202922 
L 380.531721 248.191392 
L 382.038556 245.888016 
L 383.545392 248.528538 
L 385.052227 233.937612 
L 385.052227 233.937612 
" clip-path="url(#pf1d6ecbbc1)" style="fill: none; stroke: #1f77b4; stroke-width: 1.5; stroke-linecap: square"/>
   </g>
   <g id="line2d_16">
    <path d="M 29.439063 230.929789 
L 30.945898 242.60231 
L 32.452733 262.8168 
L 33.959569 257.425513 
L 35.466404 253.337157 
L 36.97324 259.836211 
L 38.480075 254.434415 
L 39.986911 240.414674 
L 41.493746 228.735232 
L 43.000581 213.41839 
L 44.507417 223.501825 
L 46.014252 248.433331 
L 47.521088 230.677266 
L 49.027923 229.912564 
L 50.534759 262.11981 
L 52.041594 259.625445 
L 53.54843 245.355694 
L 55.055265 243.118728 
L 56.5621 189.281671 
L 58.068936 152.189606 
L 59.575771 182.917915 
L 61.082607 119.473036 
L 62.589442 68.196709 
L 64.096278 137.669929 
L 65.603113 141.957318 
L 67.109949 170.127431 
L 68.616784 187.579679 
L 70.123619 141.084002 
L 71.630455 138.693349 
L 73.13729 201.292679 
L 74.644126 186.000414 
L 76.150961 80.567026 
L 77.657797 78.413733 
L 79.164632 99.383107 
L 80.671468 67.931655 
L 82.178303 58.815077 
L 83.685138 58.306173 
L 85.191974 75.699401 
L 86.698809 113.713912 
L 88.205645 113.383995 
L 89.71248 146.569691 
L 91.219316 147.022086 
L 92.726151 133.443524 
L 94.232987 151.100956 
L 95.739822 156.832948 
L 97.246657 178.224324 
L 98.753493 186.098223 
L 100.260328 189.532009 
L 101.767164 209.091256 
L 103.273999 194.807872 
L 104.780835 168.434555 
L 106.28767 185.419494 
L 107.794506 188.44227 
L 109.301341 185.724694 
L 110.808176 192.276003 
L 112.315012 183.362139 
L 113.821847 181.032368 
L 115.328683 195.324076 
L 116.835518 198.546144 
L 118.342354 189.431392 
L 119.849189 187.79659 
L 121.356025 198.54902 
L 122.86286 201.914295 
L 124.369695 194.115474 
L 125.876531 187.422411 
L 127.383366 184.383085 
L 128.890202 191.750659 
L 130.397037 196.087179 
L 131.903873 186.997904 
L 133.410708 184.346184 
L 134.917544 190.473981 
L 136.424379 199.403219 
L 137.931214 215.633088 
L 139.43805 217.185071 
L 140.944885 213.134848 
L 142.451721 211.351742 
L 143.958556 210.94113 
L 145.465392 210.228598 
L 146.972227 198.987184 
L 148.479063 175.731796 
L 149.985898 162.744798 
L 152.999569 195.737687 
L 154.506404 196.62741 
L 156.01324 200.268399 
L 157.520075 214.327003 
L 159.026911 224.517111 
L 160.533746 240.462163 
L 162.040581 244.757718 
L 163.547417 241.063165 
L 165.054252 244.236496 
L 166.561088 249.249927 
L 168.067923 251.518783 
L 169.574759 251.727342 
L 171.081594 247.466905 
L 172.58843 247.402446 
L 174.095265 246.595581 
L 175.6021 235.262778 
L 177.108936 234.987471 
L 178.615771 240.181603 
L 180.122607 234.304978 
L 181.629442 231.390872 
L 183.136278 227.332189 
L 184.643113 220.846856 
L 186.149949 235.644814 
L 187.656784 249.196285 
L 189.163619 241.279862 
L 190.670455 235.839395 
L 192.17729 235.281663 
L 193.684126 229.316941 
L 195.190961 227.743627 
L 196.697797 248.882551 
L 198.204632 230.621466 
L 199.711468 204.147875 
L 201.218303 220.93913 
L 202.725138 229.635769 
L 204.231974 222.625721 
L 205.738809 191.792225 
L 207.245645 191.471858 
L 208.75248 219.272458 
L 210.259316 231.97864 
L 211.766151 232.42119 
L 213.272987 223.814193 
L 214.779822 212.595296 
L 216.286657 241.501939 
L 217.793493 230.097519 
L 219.300328 212.536835 
L 220.807164 231.223399 
L 222.313999 220.196168 
L 223.820835 211.66473 
L 225.32767 226.773505 
L 226.834506 224.052711 
L 228.341341 244.24423 
L 229.848176 237.116008 
L 231.355012 178.033043 
L 234.368683 204.731901 
L 235.875518 194.218394 
L 237.382354 200.456001 
L 238.889189 177.011185 
L 240.396025 179.059561 
L 241.90286 227.005264 
L 243.409695 215.29372 
L 244.916531 189.34014 
L 246.423366 207.855357 
L 247.930202 209.25497 
L 249.437037 194.345323 
L 250.943873 202.914504 
L 252.450708 199.04078 
L 253.957544 191.364392 
L 255.464379 194.846812 
L 256.971214 176.074523 
L 258.47805 175.764073 
L 259.984885 194.009205 
L 261.491721 176.860376 
L 262.998556 152.516084 
L 264.505392 198.91713 
L 266.012227 203.448625 
L 267.519063 180.273516 
L 269.025898 196.993923 
L 270.532733 187.318791 
L 272.039569 192.562593 
L 273.546404 207.954654 
L 275.05324 183.674736 
L 276.560075 192.091624 
L 278.066911 217.873602 
L 279.573746 220.737602 
L 281.080581 208.513572 
L 282.587417 186.8113 
L 284.094252 198.998945 
L 285.601088 202.972279 
L 287.107923 189.440136 
L 288.614759 183.678277 
L 290.121594 188.335204 
L 291.62843 198.897374 
L 293.135265 187.448754 
L 294.6421 197.179515 
L 296.148936 198.341262 
L 297.655771 176.894581 
L 299.162607 187.16406 
L 300.669442 198.406453 
L 302.176278 201.724689 
L 303.683113 190.654224 
L 305.189949 163.401008 
L 306.696784 182.424595 
L 308.203619 217.110216 
L 309.710455 212.600777 
L 311.21729 204.687964 
L 312.724126 194.139114 
L 314.230961 188.526714 
L 315.737797 196.119779 
L 317.244632 185.880047 
L 318.751468 174.173214 
L 320.258303 171.1536 
L 321.765138 177.474475 
L 323.271974 185.48723 
L 324.778809 178.891638 
L 326.285645 177.554882 
L 327.79248 191.49043 
L 329.299316 194.588989 
L 330.806151 201.412831 
L 332.312987 210.756455 
L 333.819822 207.532084 
L 335.326657 200.270107 
L 336.833493 200.091846 
L 338.340328 198.165608 
L 339.847164 191.313905 
L 341.353999 200.651084 
L 342.860835 211.235099 
L 344.36767 206.046382 
L 345.874506 209.168684 
L 347.381341 210.952529 
L 348.888176 212.341773 
L 350.395012 238.302243 
L 351.901847 240.353858 
L 353.408683 218.904029 
L 354.915518 232.400817 
L 356.422354 252.888083 
L 357.929189 237.150337 
L 359.436025 177.577562 
L 360.94286 108.989297 
L 362.449695 133.576313 
L 363.956531 186.602691 
L 365.463366 205.566408 
L 366.970202 189.803691 
L 368.477037 193.854637 
L 369.983873 237.669294 
L 371.490708 256.234041 
L 372.997544 249.907348 
L 374.504379 236.3212 
L 376.011214 216.936234 
L 377.51805 230.424572 
L 379.024885 257.029702 
L 380.531721 254.991137 
L 382.038556 247.048016 
L 383.545392 247.219224 
L 385.052227 241.544538 
L 385.052227 241.544538 
" clip-path="url(#pf1d6ecbbc1)" style="fill: none; stroke: #ff7f0e; stroke-width: 1.5; stroke-linecap: square"/>
   </g>
   <g id="line2d_17">
    <path d="M 29.439063 229.122786 
L 30.945898 239.928401 
L 32.452733 252.698705 
L 33.959569 256.780278 
L 35.466404 259.139403 
L 36.97324 254.622372 
L 38.480075 257.208287 
L 39.986911 246.388486 
L 41.493746 237.055655 
L 43.000581 218.326475 
L 46.014252 233.387372 
L 47.521088 236.234427 
L 49.027923 237.293425 
L 52.041594 256.313321 
L 53.54843 255.822722 
L 55.055265 243.109331 
L 56.5621 212.36467 
L 59.575771 162.563334 
L 61.082607 143.84129 
L 62.589442 113.406318 
L 64.096278 107.256927 
L 65.603113 129.127564 
L 67.109949 169.610337 
L 68.616784 165.645532 
L 70.123619 169.115602 
L 71.630455 144.753156 
L 73.13729 179.647632 
L 74.644126 175.437505 
L 76.150961 150.710969 
L 77.657797 88.208754 
L 79.164632 84.394062 
L 80.671468 80.114816 
L 82.178303 71.804879 
L 83.685138 51.239386 
L 85.191974 76.931758 
L 86.698809 90.291085 
L 88.205645 112.392863 
L 89.71248 137.201801 
L 91.219316 135.362509 
L 92.726151 149.276885 
L 94.232987 138.58476 
L 95.739822 155.795645 
L 97.246657 168.900399 
L 101.767164 200.539182 
L 103.273999 195.575228 
L 104.780835 187.912342 
L 106.28767 178.52472 
L 107.794506 183.482093 
L 109.301341 189.523726 
L 110.808176 188.153999 
L 112.315012 186.18367 
L 113.821847 185.09643 
L 115.328683 188.315827 
L 116.835518 195.281979 
L 118.342354 193.687884 
L 119.849189 190.308761 
L 121.356025 193.689874 
L 122.86286 198.708102 
L 124.369695 197.755094 
L 125.876531 191.402728 
L 127.383366 185.944654 
L 128.890202 189.7987 
L 130.397037 191.844605 
L 131.903873 191.480812 
L 133.410708 186.955724 
L 134.917544 187.634041 
L 136.424379 195.355837 
L 137.931214 208.84012 
L 140.944885 217.476612 
L 142.451721 210.241718 
L 143.958556 213.36349 
L 145.465392 208.263285 
L 146.972227 205.402114 
L 148.479063 185.324114 
L 149.985898 174.344388 
L 151.492733 170.831497 
L 152.999569 188.120092 
L 154.506404 193.123075 
L 156.01324 201.848623 
L 157.520075 206.082407 
L 159.026911 220.402845 
L 160.533746 233.236603 
L 162.040581 240.583648 
L 163.547417 243.620823 
L 165.054252 243.114997 
L 168.067923 250.064959 
L 169.574759 251.607698 
L 171.081594 248.893225 
L 172.58843 248.891095 
L 174.095265 245.382199 
L 177.108936 237.10204 
L 178.615771 236.582508 
L 180.122607 236.477418 
L 181.629442 234.241533 
L 183.136278 227.752305 
L 184.643113 225.467971 
L 186.149949 230.718701 
L 187.656784 240.92208 
L 189.163619 243.507227 
L 190.670455 241.044337 
L 192.17729 233.826969 
L 193.684126 233.222764 
L 195.190961 228.38915 
L 196.697797 242.740121 
L 198.204632 229.269077 
L 199.711468 229.870881 
L 201.218303 207.161383 
L 202.725138 229.209749 
L 204.231974 219.501156 
L 205.738809 212.031087 
L 207.245645 192.98185 
L 208.75248 209.581314 
L 210.259316 221.065989 
L 211.766151 234.616737 
L 213.272987 224.06468 
L 214.779822 222.447011 
L 216.286657 230.764786 
L 217.793493 226.735849 
L 219.300328 230.732013 
L 220.807164 218.850986 
L 222.313999 224.281475 
L 223.820835 218.302399 
L 225.32767 221.123664 
L 226.834506 220.93512 
L 228.341341 242.141688 
L 229.848176 228.364316 
L 231.355012 218.44859 
L 232.861847 190.029585 
L 234.368683 193.727182 
L 235.875518 200.139008 
L 237.382354 199.610689 
L 238.889189 181.624175 
L 240.396025 190.09163 
L 243.409695 214.510045 
L 244.916531 208.573118 
L 246.423366 200.569432 
L 247.930202 204.342327 
L 249.437037 203.652593 
L 250.943873 200.974213 
L 252.450708 196.618162 
L 253.957544 199.093369 
L 255.464379 191.026031 
L 256.971214 184.214067 
L 258.47805 180.790352 
L 259.984885 183.611312 
L 261.491721 181.298308 
L 262.998556 169.270937 
L 264.505392 184.905831 
L 266.012227 188.492178 
L 267.519063 200.403438 
L 269.025898 187.108997 
L 270.532733 189.611924 
L 272.039569 195.033037 
L 273.546404 197.447481 
L 275.05324 192.747876 
L 276.560075 197.145102 
L 278.066911 200.314175 
L 279.573746 220.626045 
L 282.587417 201.295556 
L 284.094252 195.464272 
L 285.601088 197.405968 
L 287.107923 197.113713 
L 288.614759 187.261183 
L 290.121594 187.08549 
L 291.62843 193.741822 
L 293.135265 189.550213 
L 294.6421 199.469935 
L 296.148936 189.152671 
L 297.655771 193.119185 
L 299.162607 182.150609 
L 300.669442 193.164416 
L 302.176278 198.60058 
L 303.683113 195.400607 
L 305.189949 176.246527 
L 306.696784 182.20913 
L 308.203619 196.443074 
L 309.710455 212.928431 
L 311.21729 210.214796 
L 312.724126 197.539344 
L 314.230961 194.357613 
L 317.244632 188.916137 
L 318.751468 182.357292 
L 320.258303 171.871023 
L 321.765138 176.669151 
L 323.271974 179.625281 
L 324.778809 181.687232 
L 326.285645 179.678119 
L 327.79248 185.826618 
L 329.299316 190.280728 
L 330.806151 201.282161 
L 332.312987 203.568241 
L 333.819822 209.613962 
L 335.326657 202.82065 
L 336.833493 202.539923 
L 338.340328 196.411828 
L 339.847164 196.743275 
L 341.353999 196.795762 
L 342.860835 205.708887 
L 344.36767 206.399686 
L 345.874506 211.222913 
L 347.381341 206.203506 
L 348.888176 215.275699 
L 350.395012 227.04317 
L 351.901847 235.049338 
L 353.408683 230.893623 
L 354.915518 231.014516 
L 356.422354 240.403632 
L 357.929189 242.143466 
L 359.436025 209.55923 
L 360.94286 152.790998 
L 362.449695 131.180415 
L 363.956531 159.879638 
L 365.463366 194.434509 
L 366.970202 194.078898 
L 368.477037 199.039398 
L 369.983873 218.686553 
L 371.490708 244.703586 
L 372.997544 251.750355 
L 374.504379 243.877834 
L 376.011214 225.985777 
L 377.51805 230.404356 
L 380.531721 254.199875 
L 382.038556 252.076606 
L 385.052227 243.017663 
L 385.052227 243.017663 
" clip-path="url(#pf1d6ecbbc1)" style="fill: none; stroke: #2ca02c; stroke-width: 1.5; stroke-linecap: square"/>
   </g>
   <g id="line2d_18">
    <path d="M 29.439063 221.275211 
L 30.945898 236.505406 
L 32.452733 248.478994 
L 33.959569 250.372301 
L 35.466404 258.240554 
L 36.97324 258.641514 
L 38.480075 253.887849 
L 39.986911 250.742613 
L 41.493746 242.558839 
L 43.000581 227.832517 
L 44.507417 226.152528 
L 46.014252 232.537407 
L 47.521088 227.154092 
L 49.027923 239.663468 
L 50.534759 247.949949 
L 52.041594 246.12502 
L 53.54843 254.219959 
L 55.055265 251.824807 
L 56.5621 220.968504 
L 58.068936 205.919399 
L 59.575771 186.135769 
L 61.082607 136.533121 
L 62.589442 133.903952 
L 64.096278 128.780364 
L 65.603113 108.165345 
L 67.109949 154.661857 
L 68.616784 166.381937 
L 70.123619 156.222628 
L 73.13729 174.127491 
L 74.644126 164.056515 
L 76.150961 151.002816 
L 77.657797 139.788926 
L 79.164632 90.161987 
L 80.671468 73.226844 
L 82.178303 79.930908 
L 83.685138 63.162834 
L 85.191974 67.394559 
L 86.698809 87.608872 
L 88.205645 95.307164 
L 89.71248 130.829051 
L 91.219316 130.923693 
L 94.232987 149.07322 
L 95.739822 145.514995 
L 97.246657 165.230701 
L 98.753493 172.15619 
L 100.260328 183.990017 
L 101.767164 198.107108 
L 103.273999 192.195781 
L 104.780835 190.267628 
L 106.28767 190.194295 
L 107.794506 178.776002 
L 109.301341 185.572177 
L 110.808176 190.372599 
L 112.315012 184.54832 
L 113.821847 186.766963 
L 115.328683 189.473261 
L 116.835518 190.069324 
L 118.342354 192.410021 
L 122.86286 195.044354 
L 124.369695 196.351076 
L 125.876531 194.867136 
L 127.383366 189.335364 
L 128.890202 189.603599 
L 130.397037 190.360547 
L 131.903873 189.394825 
L 133.410708 190.342872 
L 134.917544 188.74688 
L 136.424379 192.084855 
L 137.931214 203.69443 
L 139.43805 208.628052 
L 140.944885 214.390906 
L 142.451721 214.306201 
L 143.958556 212.043229 
L 145.465392 210.791529 
L 146.972227 205.110817 
L 148.479063 194.096195 
L 149.985898 181.995215 
L 151.492733 177.300368 
L 152.999569 180.166067 
L 154.506404 188.02426 
L 156.01324 198.022962 
L 159.026911 213.03684 
L 160.533746 228.256977 
L 162.040581 235.194567 
L 163.547417 240.763189 
L 165.054252 244.49752 
L 166.561088 245.259188 
L 169.574759 250.498685 
L 171.081594 249.519384 
L 172.58843 249.59516 
L 174.095265 247.032432 
L 175.6021 241.548346 
L 177.108936 240.987516 
L 180.122607 234.646856 
L 181.629442 235.892398 
L 184.643113 226.256947 
L 186.149949 231.579139 
L 187.656784 236.122417 
L 189.163619 238.507266 
L 190.670455 242.782759 
L 192.17729 238.331566 
L 193.684126 232.634606 
L 195.190961 231.587191 
L 196.697797 239.646891 
L 198.204632 229.193149 
L 199.711468 229.040635 
L 201.218303 225.896331 
L 202.725138 217.632953 
L 204.231974 221.78581 
L 205.738809 212.266073 
L 207.245645 208.065956 
L 208.75248 206.313066 
L 210.259316 213.521109 
L 211.766151 226.061058 
L 213.272987 227.980673 
L 214.779822 222.980288 
L 216.286657 233.074257 
L 217.793493 221.710038 
L 219.300328 228.075685 
L 220.807164 230.662107 
L 222.313999 216.432907 
L 223.820835 221.898783 
L 225.32767 223.537176 
L 226.834506 218.034898 
L 228.341341 235.927619 
L 229.848176 230.806248 
L 231.355012 215.976432 
L 232.861847 216.679967 
L 234.368683 192.041922 
L 235.875518 192.910047 
L 237.382354 202.612348 
L 238.889189 185.877122 
L 240.396025 190.175906 
L 241.90286 204.536808 
L 243.409695 198.448671 
L 244.916531 209.676726 
L 246.423366 211.634562 
L 247.930202 199.686873 
L 249.437037 201.281933 
L 250.943873 206.126362 
L 252.450708 196.71423 
L 253.957544 197.268091 
L 255.464379 196.960725 
L 256.971214 183.923798 
L 258.47805 185.627441 
L 259.984885 185.325715 
L 261.491721 176.313222 
L 262.998556 174.670499 
L 264.505392 188.327129 
L 266.012227 180.177036 
L 269.025898 200.262414 
L 270.532733 183.839538 
L 272.039569 194.796847 
L 273.546404 198.049398 
L 275.05324 188.189868 
L 276.560075 200.271432 
L 278.066911 201.939318 
L 279.573746 207.269481 
L 281.080581 213.289999 
L 282.587417 204.949238 
L 284.094252 203.848238 
L 285.601088 195.139464 
L 287.107923 194.305696 
L 288.614759 193.674278 
L 290.121594 188.888776 
L 291.62843 191.5016 
L 293.135265 187.892686 
L 294.6421 198.041309 
L 296.148936 193.005785 
L 297.655771 187.405469 
L 299.162607 192.869183 
L 300.669442 188.066754 
L 302.176278 194.64471 
L 303.683113 194.587132 
L 305.189949 183.841066 
L 306.696784 186.599767 
L 308.203619 192.921842 
L 309.710455 198.395901 
L 311.21729 211.065593 
L 314.230961 196.858291 
L 315.737797 195.13317 
L 317.244632 187.209652 
L 318.751468 185.572071 
L 320.258303 178.699715 
L 321.765138 175.832866 
L 323.271974 178.493445 
L 324.778809 178.184745 
L 326.285645 181.575194 
L 327.79248 185.331186 
L 329.299316 186.329848 
L 330.806151 196.546057 
L 332.312987 202.936162 
L 333.819822 204.510717 
L 335.326657 205.626636 
L 336.833493 203.868227 
L 338.340328 199.222196 
L 339.847164 195.776348 
L 341.353999 199.414406 
L 342.860835 201.670223 
L 344.36767 203.378204 
L 345.874506 210.206468 
L 347.381341 208.524885 
L 348.888176 210.766072 
L 350.395012 225.546373 
L 353.408683 229.083162 
L 354.915518 236.464788 
L 356.422354 237.497733 
L 357.929189 234.806213 
L 359.436025 221.777563 
L 360.94286 187.059161 
L 362.449695 156.996009 
L 363.956531 152.052377 
L 365.463366 173.746238 
L 366.970202 188.21243 
L 368.477037 199.845473 
L 369.983873 216.297816 
L 372.997544 244.014071 
L 374.504379 246.895303 
L 376.011214 234.888058 
L 377.51805 233.419403 
L 379.024885 239.247932 
L 380.531721 243.609469 
L 382.038556 252.205565 
L 383.545392 251.204953 
L 385.052227 244.342162 
L 385.052227 244.342162 
" clip-path="url(#pf1d6ecbbc1)" style="fill: none; stroke: #d62728; stroke-width: 1.5; stroke-linecap: square"/>
   </g>
   <g id="line2d_19">
    <path d="M 29.439063 222.506149 
L 30.945898 229.225195 
L 32.452733 244.328125 
L 33.959569 247.402355 
L 35.466404 252.954749 
L 36.97324 258.019032 
L 38.480075 257.295259 
L 39.986911 249.2435 
L 41.493746 246.974437 
L 43.000581 234.54074 
L 44.507417 231.861658 
L 46.014252 231.553594 
L 47.521088 227.717781 
L 49.027923 232.012654 
L 50.534759 247.643113 
L 53.54843 246.413994 
L 55.055265 251.305355 
L 56.5621 234.325278 
L 58.068936 214.484016 
L 59.575771 201.387908 
L 61.082607 163.586194 
L 62.589442 129.858474 
L 64.096278 141.397281 
L 65.603113 125.3209 
L 67.109949 134.972888 
L 68.616784 154.989431 
L 70.123619 158.76708 
L 71.630455 155.361922 
L 73.13729 182.873277 
L 74.644126 162.532711 
L 76.150961 145.998895 
L 77.657797 142.271252 
L 79.164632 131.739654 
L 80.671468 80.2958 
L 82.178303 74.469261 
L 83.685138 71.612377 
L 85.191974 73.369884 
L 86.698809 78.170446 
L 88.205645 92.205622 
L 89.71248 114.651386 
L 91.219316 126.98029 
L 92.726151 135.707335 
L 94.232987 141.820322 
L 95.739822 152.338799 
L 97.246657 155.572908 
L 98.753493 168.629853 
L 100.260328 177.501124 
L 101.767164 192.046346 
L 103.273999 191.863517 
L 104.780835 188.562489 
L 106.28767 191.603524 
L 107.794506 188.124556 
L 109.301341 181.447777 
L 110.808176 187.0666 
L 112.315012 187.0915 
L 113.821847 185.34807 
L 115.328683 189.913695 
L 116.835518 190.637736 
L 118.342354 188.763136 
L 121.356025 195.654061 
L 122.86286 195.075047 
L 124.369695 193.860278 
L 125.876531 194.307816 
L 127.383366 192.563919 
L 128.890202 191.542008 
L 131.903873 188.685177 
L 133.410708 188.893792 
L 134.917544 191.078975 
L 136.424379 192.074346 
L 137.931214 199.593102 
L 139.43805 204.565698 
L 140.944885 210.577143 
L 142.451721 212.428944 
L 143.958556 214.907852 
L 145.465392 210.23647 
L 146.972227 207.817891 
L 148.479063 196.188428 
L 149.985898 189.862088 
L 151.492733 182.770205 
L 152.999569 183.291563 
L 154.506404 181.712392 
L 156.01324 193.113415 
L 159.026911 211.463604 
L 162.040581 230.909798 
L 165.054252 242.063784 
L 166.561088 245.919887 
L 168.067923 246.583547 
L 169.574759 248.741635 
L 171.081594 249.036102 
L 172.58843 249.952996 
L 174.095265 247.98217 
L 175.6021 243.701758 
L 177.108936 241.373489 
L 178.615771 240.72956 
L 180.122607 235.993508 
L 181.629442 234.540632 
L 183.136278 232.924776 
L 184.643113 229.099784 
L 186.149949 230.988135 
L 187.656784 235.724345 
L 189.163619 235.091221 
L 190.670455 238.923995 
L 192.17729 240.309621 
L 193.684126 236.532871 
L 195.190961 231.439783 
L 196.697797 239.832571 
L 198.204632 229.288225 
L 199.711468 229.025515 
L 201.218303 226.018762 
L 202.725138 229.776904 
L 204.231974 213.604985 
L 205.738809 215.680869 
L 207.245645 209.062995 
L 208.75248 214.984372 
L 210.259316 210.206824 
L 211.766151 219.314815 
L 213.272987 222.17396 
L 214.779822 226.369517 
L 216.286657 231.430807 
L 217.793493 225.577264 
L 219.300328 223.851206 
L 220.807164 228.555607 
L 222.313999 226.648719 
L 223.820835 216.031922 
L 225.32767 225.28565 
L 226.834506 220.640156 
L 228.341341 231.061495 
L 229.848176 227.73105 
L 231.355012 220.726004 
L 232.861847 215.037011 
L 234.368683 213.157231 
L 235.875518 191.720756 
L 237.382354 196.460668 
L 238.889189 191.350375 
L 240.396025 191.757527 
L 241.90286 201.836996 
L 243.409695 200.792232 
L 244.916531 197.550137 
L 246.423366 211.894043 
L 247.930202 208.846332 
L 249.437037 198.115669 
L 250.943873 203.773183 
L 252.450708 201.828184 
L 253.957544 197.214919 
L 255.464379 195.912493 
L 258.47805 185.115566 
L 259.984885 188.215948 
L 261.491721 179.230873 
L 262.998556 171.901027 
L 264.505392 188.619752 
L 266.012227 183.951829 
L 267.519063 183.070739 
L 269.025898 191.957715 
L 270.532733 195.323676 
L 272.039569 189.316525 
L 273.546404 197.266248 
L 275.05324 190.602066 
L 276.560075 195.331172 
L 278.066911 203.427593 
L 279.573746 207.153921 
L 281.080581 203.660003 
L 282.587417 208.209749 
L 284.094252 206.225655 
L 285.601088 201.968952 
L 287.107923 193.086981 
L 288.614759 192.080368 
L 290.121594 193.671134 
L 291.62843 192.037551 
L 293.135265 187.230909 
L 294.6421 195.127704 
L 296.148936 193.136595 
L 297.655771 190.879234 
L 299.162607 188.360647 
L 300.669442 195.259724 
L 302.176278 190.323195 
L 303.683113 192.16594 
L 305.189949 185.535827 
L 306.696784 190.356327 
L 308.203619 194.157665 
L 309.710455 195.231943 
L 311.21729 199.805793 
L 312.724126 205.75506 
L 314.230961 201.980701 
L 315.737797 196.973377 
L 318.751468 184.857416 
L 320.258303 182.068236 
L 321.765138 180.423619 
L 323.271974 177.468219 
L 324.778809 177.562124 
L 326.285645 178.80059 
L 327.79248 185.690961 
L 329.299316 185.834271 
L 332.312987 198.87215 
L 333.819822 203.82049 
L 335.326657 202.259429 
L 336.833493 205.894119 
L 338.340328 200.979192 
L 339.847164 198.165651 
L 341.353999 198.124359 
L 342.860835 202.74615 
L 344.36767 200.578123 
L 345.874506 207.104849 
L 347.381341 208.241904 
L 348.888176 211.671763 
L 350.395012 220.244674 
L 351.901847 226.078778 
L 353.408683 223.863886 
L 354.915518 233.998962 
L 356.422354 240.383726 
L 357.929189 233.517676 
L 359.436025 219.293385 
L 360.94286 203.251104 
L 362.449695 183.622751 
L 363.956531 167.197618 
L 365.463366 165.252998 
L 366.970202 172.562654 
L 368.477037 194.202864 
L 369.983873 213.618043 
L 371.490708 226.041419 
L 372.997544 232.462632 
L 374.504379 241.448056 
L 376.011214 239.391526 
L 377.51805 238.737845 
L 379.024885 239.787062 
L 380.531721 241.114508 
L 382.038556 244.070253 
L 383.545392 251.48424 
L 385.052227 248.029576 
L 385.052227 248.029576 
" clip-path="url(#pf1d6ecbbc1)" style="fill: none; stroke: #9467bd; stroke-width: 1.5; stroke-linecap: square"/>
   </g>
   <g id="line2d_20">
    <path d="M 29.439063 221.989476 
L 30.945898 228.904971 
L 32.452733 237.483987 
L 33.959569 244.099331 
L 35.466404 250.133055 
L 38.480075 256.994611 
L 39.986911 253.038847 
L 43.000581 239.915086 
L 44.507417 236.632969 
L 46.014252 235.239876 
L 47.521088 227.68395 
L 49.027923 231.670455 
L 50.534759 240.522 
L 52.041594 246.901912 
L 53.54843 247.094508 
L 55.055265 245.135114 
L 56.5621 236.98727 
L 58.068936 227.417148 
L 59.575771 209.558869 
L 62.589442 154.479575 
L 64.096278 136.912814 
L 65.603113 136.626651 
L 67.109949 143.651398 
L 68.616784 138.702995 
L 70.123619 150.24993 
L 71.630455 157.637623 
L 73.13729 172.805614 
L 74.644126 172.308881 
L 76.150961 147.756838 
L 77.657797 139.424444 
L 79.164632 135.249771 
L 80.671468 118.380389 
L 82.178303 80.14313 
L 83.685138 68.347758 
L 85.191974 78.528388 
L 88.205645 83.731536 
L 89.71248 109.142714 
L 91.219316 114.016671 
L 92.726151 131.704446 
L 94.232987 137.894546 
L 95.739822 145.867244 
L 97.246657 159.375849 
L 98.753493 160.199988 
L 100.260328 173.774933 
L 101.767164 185.603024 
L 103.273999 187.691034 
L 106.28767 189.973888 
L 107.794506 189.661866 
L 109.301341 188.720384 
L 110.808176 183.420157 
L 112.315012 184.839306 
L 113.821847 187.32764 
L 115.328683 188.234936 
L 116.835518 190.808875 
L 118.342354 189.459306 
L 119.849189 189.315904 
L 121.356025 194.488321 
L 122.86286 196.222111 
L 124.369695 194.084129 
L 125.876531 192.551171 
L 127.383366 192.477858 
L 128.890202 193.836383 
L 130.397037 191.623847 
L 131.903873 188.740474 
L 133.410708 188.38451 
L 134.917544 189.755489 
L 136.424379 193.432394 
L 137.931214 198.363082 
L 139.43805 201.032618 
L 140.944885 206.925265 
L 142.451721 209.543013 
L 143.958556 213.252545 
L 145.465392 212.963095 
L 146.972227 207.846519 
L 149.985898 192.369156 
L 151.492733 189.197994 
L 152.999569 186.729077 
L 154.506404 184.042107 
L 156.01324 187.198671 
L 159.026911 207.540235 
L 160.533746 218.675332 
L 162.040581 224.780796 
L 163.547417 232.725185 
L 166.561088 243.690539 
L 168.067923 246.907814 
L 169.574759 247.474879 
L 171.081594 247.797075 
L 172.58843 249.480254 
L 174.095265 248.556817 
L 175.6021 245.08607 
L 177.108936 243.204053 
L 180.122607 238.815428 
L 181.629442 235.683007 
L 183.136278 232.270423 
L 184.643113 231.130882 
L 186.149949 232.49656 
L 187.656784 234.57189 
L 189.163619 234.929153 
L 190.670455 236.028174 
L 192.17729 237.444895 
L 193.684126 238.514573 
L 195.190961 234.934333 
L 196.697797 238.395766 
L 198.204632 231.266365 
L 199.711468 229.132824 
L 201.218303 226.515892 
L 202.725138 229.239417 
L 204.231974 224.817696 
L 205.738809 209.621523 
L 207.245645 212.522123 
L 210.259316 216.641101 
L 211.766151 215.732855 
L 213.272987 217.061613 
L 214.779822 221.758769 
L 216.286657 232.710465 
L 217.793493 225.409058 
L 219.300328 226.675144 
L 220.807164 224.981941 
L 222.313999 225.516094 
L 223.820835 224.706134 
L 225.32767 219.993368 
L 226.834506 222.621729 
L 228.341341 230.960194 
L 229.848176 224.808205 
L 231.355012 219.699069 
L 232.861847 219.194515 
L 234.368683 212.348296 
L 235.875518 209.65087 
L 237.382354 194.907088 
L 238.889189 187.807324 
L 240.396025 195.211158 
L 241.90286 201.189777 
L 243.409695 199.121299 
L 244.916531 199.667689 
L 246.423366 201.664094 
L 247.930202 209.536309 
L 249.437037 206.137929 
L 250.943873 200.771985 
L 252.450708 200.539284 
L 253.957544 201.393693 
L 256.971214 190.557175 
L 258.47805 190.24811 
L 259.984885 187.367939 
L 261.491721 182.763564 
L 262.998556 175.139954 
L 264.505392 184.260041 
L 267.519063 185.693006 
L 269.025898 186.011723 
L 270.532733 189.053189 
L 272.039569 197.746163 
L 273.546404 192.377572 
L 275.05324 191.188962 
L 276.560075 196.093335 
L 278.066911 198.888857 
L 279.573746 207.49831 
L 282.587417 200.805821 
L 284.094252 208.713277 
L 285.601088 204.293783 
L 287.107923 199.221764 
L 288.614759 191.424833 
L 290.121594 192.344692 
L 291.62843 195.438584 
L 293.135265 188.410429 
L 294.6421 193.421343 
L 296.148936 191.466693 
L 297.655771 191.34645 
L 299.162607 191.086209 
L 300.669442 191.173373 
L 302.176278 195.888562 
L 303.683113 188.934661 
L 305.189949 184.957424 
L 308.203619 195.922878 
L 309.710455 195.865522 
L 311.21729 196.964714 
L 312.724126 196.992366 
L 314.230961 203.993471 
L 315.737797 201.233957 
L 317.244632 193.29733 
L 318.751468 188.48751 
L 320.258303 182.050611 
L 321.765138 182.922867 
L 323.271974 180.997684 
L 324.778809 176.85942 
L 326.285645 178.181248 
L 327.79248 182.759312 
L 329.299316 186.049535 
L 330.806151 190.908696 
L 332.312987 194.995539 
L 333.819822 200.316108 
L 335.326657 202.053777 
L 336.833493 203.05515 
L 338.340328 203.188982 
L 339.847164 199.818307 
L 341.353999 199.700281 
L 342.860835 201.146293 
L 344.36767 201.664569 
L 345.874506 204.221356 
L 347.381341 205.956449 
L 348.888176 210.922625 
L 350.395012 219.423925 
L 351.901847 221.610325 
L 353.408683 223.37897 
L 354.915518 229.049003 
L 356.422354 237.766712 
L 357.929189 236.693885 
L 360.94286 204.185953 
L 362.449695 198.109798 
L 365.463366 175.034151 
L 366.970202 165.669523 
L 368.477037 180.766015 
L 369.983873 207.173387 
L 371.490708 222.415569 
L 372.997544 228.878611 
L 374.504379 232.116043 
L 376.011214 235.824645 
L 377.51805 241.744141 
L 379.024885 242.955834 
L 380.531721 241.247706 
L 382.038556 241.929208 
L 383.545392 244.83055 
L 385.052227 248.808845 
L 385.052227 248.808845 
" clip-path="url(#pf1d6ecbbc1)" style="fill: none; stroke: #8c564b; stroke-width: 1.5; stroke-linecap: square"/>
   </g>
   <g id="line2d_21">
    <path d="M 29.439063 224.216778 
L 30.945898 227.596136 
L 32.452733 236.094002 
L 33.959569 238.285498 
L 35.466404 247.009287 
L 36.97324 251.173405 
L 38.480075 253.38057 
L 39.986911 253.391419 
L 41.493746 250.111493 
L 43.000581 240.35466 
L 44.507417 240.873149 
L 46.014252 238.743918 
L 47.521088 231.524757 
L 49.027923 231.087585 
L 50.534759 239.084283 
L 52.041594 240.893702 
L 53.54843 246.996197 
L 55.055265 245.910647 
L 56.5621 233.085415 
L 58.068936 230.86679 
L 59.575771 221.875268 
L 61.082607 192.984554 
L 62.589442 172.579527 
L 64.096278 156.56697 
L 65.603113 133.393898 
L 67.109949 150.105108 
L 68.616784 145.513232 
L 70.123619 136.739153 
L 71.630455 150.483069 
L 73.13729 172.207681 
L 74.644126 164.739432 
L 76.150961 159.007124 
L 77.657797 141.932814 
L 79.164632 133.752243 
L 82.178303 113.209754 
L 83.685138 74.203567 
L 85.191974 74.821343 
L 86.698809 84.425418 
L 88.205645 85.512302 
L 89.71248 100.005778 
L 91.219316 109.382331 
L 92.726151 120.19955 
L 94.232987 134.191304 
L 95.739822 141.997781 
L 97.246657 153.047456 
L 98.753493 162.735832 
L 100.260328 166.052801 
L 101.767164 181.433711 
L 103.273999 182.665304 
L 104.780835 185.684395 
L 106.28767 190.052933 
L 107.794506 188.528151 
L 109.301341 189.949308 
L 110.808176 189.323584 
L 112.315012 181.997329 
L 113.821847 185.368481 
L 115.328683 189.494891 
L 116.835518 189.251731 
L 118.342354 189.776067 
L 119.849189 189.831957 
L 121.356025 191.63289 
L 122.86286 195.146246 
L 124.369695 195.216294 
L 125.876531 192.932486 
L 127.383366 191.218756 
L 128.890202 193.58218 
L 130.397037 193.580143 
L 131.903873 190.258975 
L 133.410708 188.474989 
L 134.917544 189.198645 
L 136.424379 191.981943 
L 137.931214 198.601115 
L 139.43805 199.784621 
L 140.944885 203.618883 
L 142.451721 206.544268 
L 143.958556 210.681256 
L 145.465392 211.804545 
L 146.972227 210.573035 
L 148.479063 201.272819 
L 151.492733 191.453746 
L 152.999569 191.567199 
L 154.506404 186.873421 
L 156.01324 188.362043 
L 157.520075 191.892493 
L 160.533746 214.499122 
L 162.040581 222.158824 
L 163.547417 227.322903 
L 165.054252 234.922937 
L 166.561088 240.308315 
L 168.067923 244.880253 
L 169.574759 247.623529 
L 171.081594 246.836933 
L 172.58843 248.36133 
L 174.095265 248.346486 
L 175.6021 246.014508 
L 177.108936 244.469403 
L 178.615771 242.710852 
L 180.122607 239.410904 
L 181.629442 238.158751 
L 183.136278 233.598803 
L 184.643113 230.819473 
L 186.149949 233.710105 
L 187.656784 235.321048 
L 189.163619 234.048867 
L 190.670455 235.757231 
L 192.17729 235.145673 
L 193.684126 236.280027 
L 195.190961 236.891486 
L 196.697797 240.248563 
L 198.204632 231.206691 
L 199.711468 230.855381 
L 201.218303 226.97232 
L 202.725138 229.200263 
L 204.231974 225.060755 
L 205.738809 220.171876 
L 207.245645 207.679122 
L 208.75248 216.719103 
L 210.259316 216.123738 
L 211.766151 220.271379 
L 213.272987 214.26839 
L 214.779822 217.436337 
L 216.286657 228.104504 
L 217.793493 227.449084 
L 219.300328 226.376218 
L 220.807164 227.223636 
L 222.313999 222.819885 
L 223.820835 223.999794 
L 225.32767 226.684388 
L 226.834506 218.385403 
L 228.341341 231.107781 
L 229.848176 225.63427 
L 231.355012 218.212387 
L 232.861847 218.52415 
L 234.368683 216.383034 
L 235.875518 209.44702 
L 237.382354 209.664523 
L 238.889189 187.671964 
L 240.396025 191.709338 
L 241.90286 202.671045 
L 243.409695 198.947973 
L 244.916531 198.387136 
L 246.423366 202.852002 
L 247.930202 201.008475 
L 249.437037 207.131896 
L 250.943873 207.18111 
L 252.450708 198.380668 
L 253.957544 200.348606 
L 255.464379 199.87207 
L 256.971214 191.497092 
L 258.47805 190.446999 
L 259.984885 191.399083 
L 261.491721 182.804438 
L 262.998556 178.836405 
L 264.505392 185.145917 
L 266.012227 181.658839 
L 267.519063 186.284838 
L 269.025898 187.806378 
L 270.532733 184.297498 
L 272.039569 192.130815 
L 273.546404 199.063592 
L 275.05324 187.727666 
L 276.560075 195.808404 
L 278.066911 199.024939 
L 279.573746 203.154815 
L 281.080581 204.902638 
L 282.587417 201.663825 
L 284.094252 202.345891 
L 285.601088 206.736348 
L 287.107923 201.650842 
L 288.614759 196.995616 
L 290.121594 191.746216 
L 291.62843 194.064329 
L 293.135265 191.922213 
L 294.6421 193.527147 
L 296.148936 190.499864 
L 297.655771 190.157175 
L 299.162607 191.456708 
L 300.669442 193.073793 
L 302.176278 192.318328 
L 303.683113 193.959995 
L 305.189949 183.119016 
L 308.203619 195.385749 
L 309.710455 197.120655 
L 311.21729 197.255697 
L 312.724126 194.920628 
L 314.230961 196.680503 
L 315.737797 203.076989 
L 317.244632 197.57802 
L 318.751468 190.830877 
L 320.258303 185.624953 
L 321.765138 182.786056 
L 323.271974 183.053444 
L 324.778809 179.987536 
L 326.285645 177.492985 
L 327.79248 181.681811 
L 329.299316 183.494688 
L 330.806151 190.37394 
L 332.312987 193.456085 
L 333.819822 196.827227 
L 335.326657 199.273135 
L 336.833493 202.7665 
L 338.340328 201.103242 
L 339.847164 201.896283 
L 341.353999 200.885534 
L 342.860835 202.043694 
L 344.36767 200.439377 
L 345.874506 204.616121 
L 347.381341 203.633554 
L 348.888176 208.62509 
L 350.395012 217.74467 
L 351.901847 220.720925 
L 353.408683 219.863341 
L 354.915518 227.927071 
L 356.422354 233.158476 
L 357.929189 234.910488 
L 359.436025 225.785975 
L 360.94286 207.941713 
L 362.449695 199.687402 
L 363.956531 198.707123 
L 365.463366 190.269042 
L 366.970202 174.012436 
L 368.477037 174.001014 
L 371.490708 216.068495 
L 372.997544 225.453198 
L 374.504379 229.092188 
L 376.011214 228.265121 
L 377.51805 238.433858 
L 379.024885 244.842663 
L 380.531721 243.724589 
L 382.038556 241.926549 
L 383.545392 242.904976 
L 385.052227 243.356351 
L 385.052227 243.356351 
" clip-path="url(#pf1d6ecbbc1)" style="fill: none; stroke: #e377c2; stroke-width: 1.5; stroke-linecap: square"/>
   </g>
   <g id="patch_3">
    <path d="M 29.439063 284.991437 
L 29.439063 18.879437 
" style="fill: none; stroke: #000000; stroke-width: 0.8; stroke-linejoin: miter; stroke-linecap: square"/>
   </g>
   <g id="patch_4">
    <path d="M 386.559062 284.991437 
L 386.559062 18.879437 
" style="fill: none; stroke: #000000; stroke-width: 0.8; stroke-linejoin: miter; stroke-linecap: square"/>
   </g>
   <g id="patch_5">
    <path d="M 29.439063 284.991437 
L 386.559063 284.991437 
" style="fill: none; stroke: #000000; stroke-width: 0.8; stroke-linejoin: miter; stroke-linecap: square"/>
   </g>
   <g id="patch_6">
    <path d="M 29.439063 18.879437 
L 386.559063 18.879437 
" style="fill: none; stroke: #000000; stroke-width: 0.8; stroke-linejoin: miter; stroke-linecap: square"/>
   </g>
   <g id="legend_1">
    <g id="patch_7">
     <path d="M 188.849844 127.613812 
L 227.148281 127.613812 
Q 229.148281 127.613812 229.148281 125.613812 
L 229.148281 25.879437 
Q 229.148281 23.879437 227.148281 23.879437 
L 188.849844 23.879437 
Q 186.849844 23.879437 186.849844 25.879437 
L 186.849844 125.613812 
Q 186.849844 127.613812 188.849844 127.613812 
z
" style="fill: #ffffff; opacity: 0.8; stroke: #cccccc; stroke-linejoin: miter"/>
    </g>
    <g id="line2d_22">
     <path d="M 190.849844 31.870062 
L 200.849844 31.870062 
L 210.849844 31.870062 
" style="fill: none; stroke: #1f77b4; stroke-width: 1.5; stroke-linecap: square"/>
    </g>
    <g id="text_14">
     <!-- 1 -->
     <g transform="translate(218.849844 35.370062) scale(0.1 -0.1)">
      <use xlink:href="#IPAexGothic-31"/>
     </g>
    </g>
    <g id="line2d_23">
     <path d="M 190.849844 46.260687 
L 200.849844 46.260687 
L 210.849844 46.260687 
" style="fill: none; stroke: #ff7f0e; stroke-width: 1.5; stroke-linecap: square"/>
    </g>
    <g id="text_15">
     <!-- 2 -->
     <g transform="translate(218.849844 49.760687) scale(0.1 -0.1)">
      <use xlink:href="#IPAexGothic-32"/>
     </g>
    </g>
    <g id="line2d_24">
     <path d="M 190.849844 60.651312 
L 200.849844 60.651312 
L 210.849844 60.651312 
" style="fill: none; stroke: #2ca02c; stroke-width: 1.5; stroke-linecap: square"/>
    </g>
    <g id="text_16">
     <!-- 3 -->
     <g transform="translate(218.849844 64.151312) scale(0.1 -0.1)">
      <use xlink:href="#IPAexGothic-33"/>
     </g>
    </g>
    <g id="line2d_25">
     <path d="M 190.849844 75.041937 
L 200.849844 75.041937 
L 210.849844 75.041937 
" style="fill: none; stroke: #d62728; stroke-width: 1.5; stroke-linecap: square"/>
    </g>
    <g id="text_17">
     <!-- 4 -->
     <g transform="translate(218.849844 78.541937) scale(0.1 -0.1)">
      <defs>
       <path id="IPAexGothic-34" d="M 3813 1159 
L 3059 1159 
L 3059 63 
L 2547 63 
L 2547 1159 
L 197 1159 
L 197 1672 
L 2456 4678 
L 3059 4678 
L 3059 1634 
L 3813 1634 
L 3813 1159 
z
M 2578 4109 
L 2559 4109 
Q 2278 3656 2003 3284 
L 759 1634 
L 2547 1634 
L 2547 3144 
Q 2547 3481 2578 4109 
z
" transform="scale(0.015625)"/>
      </defs>
      <use xlink:href="#IPAexGothic-34"/>
     </g>
    </g>
    <g id="line2d_26">
     <path d="M 190.849844 89.432562 
L 200.849844 89.432562 
L 210.849844 89.432562 
" style="fill: none; stroke: #9467bd; stroke-width: 1.5; stroke-linecap: square"/>
    </g>
    <g id="text_18">
     <!-- 5 -->
     <g transform="translate(218.849844 92.932562) scale(0.1 -0.1)">
      <use xlink:href="#IPAexGothic-35"/>
     </g>
    </g>
    <g id="line2d_27">
     <path d="M 190.849844 103.823187 
L 200.849844 103.823187 
L 210.849844 103.823187 
" style="fill: none; stroke: #8c564b; stroke-width: 1.5; stroke-linecap: square"/>
    </g>
    <g id="text_19">
     <!-- 6 -->
     <g transform="translate(218.849844 107.323187) scale(0.1 -0.1)">
      <defs>
       <path id="IPAexGothic-36" d="M 1056 2328 
Q 1509 2981 2234 2981 
Q 2906 2981 3316 2513 
Q 3675 2106 3675 1522 
Q 3675 884 3272 434 
Q 2853 -31 2178 -31 
Q 1375 -31 922 581 
Q 481 1178 481 2228 
Q 481 3425 1013 4109 
Q 1494 4725 2272 4725 
Q 3191 4725 3609 4025 
L 3150 3775 
Q 2894 4266 2300 4266 
Q 1119 4266 1031 2328 
L 1056 2328 
z
M 2141 2547 
Q 1684 2547 1384 2206 
Q 1116 1900 1116 1541 
Q 1116 1156 1353 844 
Q 1672 428 2159 428 
Q 2669 428 2941 844 
Q 3125 1128 3125 1503 
Q 3125 1944 2881 2228 
Q 2600 2547 2141 2547 
z
" transform="scale(0.015625)"/>
      </defs>
      <use xlink:href="#IPAexGothic-36"/>
     </g>
    </g>
    <g id="line2d_28">
     <path d="M 190.849844 118.213812 
L 200.849844 118.213812 
L 210.849844 118.213812 
" style="fill: none; stroke: #e377c2; stroke-width: 1.5; stroke-linecap: square"/>
    </g>
    <g id="text_20">
     <!-- 7 -->
     <g transform="translate(218.849844 121.713812) scale(0.1 -0.1)">
      <defs>
       <path id="IPAexGothic-37" d="M 3597 4263 
Q 2238 2106 1778 63 
L 1131 63 
Q 1581 1834 2950 4128 
L 428 4128 
L 428 4634 
L 3597 4634 
L 3597 4263 
z
" transform="scale(0.015625)"/>
      </defs>
      <use xlink:href="#IPAexGothic-37"/>
     </g>
    </g>
   </g>
  </g>
  <g id="axes_2">
   <g id="matplotlib.axis_3"/>
   <g id="patch_8">
    <path d="M 29.439063 284.991437 
L 29.439063 18.879437 
" style="fill: none; stroke: #000000; stroke-width: 0.8; stroke-linejoin: miter; stroke-linecap: square"/>
   </g>
   <g id="patch_9">
    <path d="M 386.559062 284.991437 
L 386.559062 18.879437 
" style="fill: none; stroke: #000000; stroke-width: 0.8; stroke-linejoin: miter; stroke-linecap: square"/>
   </g>
   <g id="patch_10">
    <path d="M 29.439063 284.991437 
L 386.559063 284.991437 
" style="fill: none; stroke: #000000; stroke-width: 0.8; stroke-linejoin: miter; stroke-linecap: square"/>
   </g>
   <g id="patch_11">
    <path d="M 29.439063 18.879437 
L 386.559063 18.879437 
" style="fill: none; stroke: #000000; stroke-width: 0.8; stroke-linejoin: miter; stroke-linecap: square"/>
   </g>
  </g>
  <g id="text_21">
   <!-- : 2023/01/23 16:14:36(JST) -->
   <g transform="translate(211.087188 15.423437) scale(0.1 -0.1)">
    <defs>
     <path id="IPAexGothic-66f4" d="M 2956 3994 
L 2956 4588 
L 513 4588 
L 513 4984 
L 5881 4984 
L 5881 4588 
L 3413 4588 
L 3413 3994 
L 5300 3994 
L 5300 1288 
L 4838 1288 
L 4838 1759 
L 3406 1759 
Q 3384 1125 3150 709 
Q 4291 244 5997 31 
L 5694 -428 
Q 4109 -166 2906 384 
Q 2294 -266 744 -488 
L 494 -66 
Q 1903 59 2491 588 
Q 2041 813 1594 1166 
L 1928 1434 
Q 2331 1106 2747 897 
Q 2922 1219 2950 1759 
L 1556 1759 
L 1556 1413 
L 1097 1413 
L 1097 3994 
L 2956 3994 
z
M 2956 3609 
L 1556 3609 
L 1556 3078 
L 2956 3078 
L 2956 3609 
z
M 3413 3609 
L 3413 3078 
L 4838 3078 
L 4838 3609 
L 3413 3609 
z
M 2956 2700 
L 1556 2700 
L 1556 2144 
L 2956 2144 
L 2956 2700 
z
M 3413 2700 
L 3413 2144 
L 4838 2144 
L 4838 2700 
L 3413 2700 
z
" transform="scale(0.015625)"/>
     <path id="IPAexGothic-65b0" d="M 3891 2803 
Q 3881 1759 3794 1166 
Q 3653 197 3097 -563 
L 2741 -250 
Q 3450 700 3450 2631 
L 3450 4647 
Q 3516 4656 3622 4666 
Q 4656 4778 5447 5063 
L 5825 4678 
Q 4897 4419 3891 4294 
L 3891 3219 
L 6119 3219 
L 6119 2803 
L 5275 2803 
L 5275 -447 
L 4834 -447 
L 4834 2803 
L 3891 2803 
z
M 2822 4069 
Q 2678 3572 2519 3181 
L 3250 3181 
L 3250 2784 
L 2059 2784 
L 2059 2216 
L 3184 2216 
L 3184 1831 
L 2059 1831 
L 2059 1544 
Q 2613 1197 3031 847 
L 2781 456 
Q 2472 791 2059 1128 
L 2059 -447 
L 1644 -447 
L 1644 1294 
Q 1272 628 575 -31 
L 269 341 
Q 1041 938 1528 1831 
L 453 1831 
L 453 2216 
L 1644 2216 
L 1644 2784 
L 319 2784 
L 319 3181 
L 1125 3181 
Q 1013 3706 881 4069 
L 453 4069 
L 453 4453 
L 1631 4453 
L 1631 5309 
L 2072 5309 
L 2072 4453 
L 3166 4453 
L 3166 4069 
L 2822 4069 
z
M 2391 4069 
L 1325 4069 
Q 1450 3672 1534 3181 
L 2109 3181 
Q 2294 3659 2391 4069 
z
" transform="scale(0.015625)"/>
     <path id="IPAexGothic-65e5" d="M 5231 4800 
L 5231 -288 
L 4744 -288 
L 4744 128 
L 1647 128 
L 1647 -288 
L 1159 -288 
L 1159 4800 
L 5231 4800 
z
M 1647 4372 
L 1647 2731 
L 4744 2731 
L 4744 4372 
L 1647 4372 
z
M 1647 2297 
L 1647 556 
L 4744 556 
L 4744 2297 
L 1647 2297 
z
" transform="scale(0.015625)"/>
     <path id="IPAexGothic-6642" d="M 2328 4728 
L 2328 563 
L 934 563 
L 934 56 
L 519 56 
L 519 4728 
L 2328 4728 
z
M 934 4331 
L 934 2881 
L 1906 2881 
L 1906 4331 
L 934 4331 
z
M 934 2497 
L 934 953 
L 1906 953 
L 1906 2497 
L 934 2497 
z
M 3938 4372 
L 3938 5313 
L 4378 5313 
L 4378 4372 
L 5772 4372 
L 5772 3981 
L 4378 3981 
L 4378 3194 
L 6072 3194 
L 6072 2803 
L 5203 2803 
L 5203 2047 
L 5959 2047 
L 5959 1650 
L 5216 1650 
L 5216 31 
Q 5216 -447 4691 -447 
Q 4394 -447 3888 -391 
L 3784 78 
Q 4272 0 4591 0 
Q 4775 0 4775 172 
L 4775 1650 
L 2581 1650 
L 2581 2047 
L 4763 2047 
L 4763 2803 
L 2538 2803 
L 2538 3194 
L 3938 3194 
L 3938 3981 
L 2716 3981 
L 2716 4372 
L 3938 4372 
z
M 3669 384 
Q 3331 950 2956 1325 
L 3291 1575 
Q 3719 1147 4025 659 
L 3669 384 
z
" transform="scale(0.015625)"/>
     <path id="IPAexGothic-3a" d="M 1369 2559 
L 672 2559 
L 672 3250 
L 1369 3250 
L 1369 2559 
z
M 1369 63 
L 672 63 
L 672 753 
L 1369 753 
L 1369 63 
z
" transform="scale(0.015625)"/>
     <path id="IPAexGothic-20" transform="scale(0.015625)"/>
     <path id="IPAexGothic-2f" d="M 2719 4709 
L 600 -884 
L 300 -763 
L 2413 4831 
L 2719 4709 
z
" transform="scale(0.015625)"/>
     <path id="IPAexGothic-28" d="M 1928 -1016 
L 1653 -1166 
Q 488 69 488 1875 
Q 488 3678 1653 4909 
L 1928 4763 
Q 1006 3522 1006 1881 
Q 1006 203 1928 -1016 
z
" transform="scale(0.015625)"/>
     <path id="IPAexGothic-54" d="M 3866 4141 
L 2175 4141 
L 2175 63 
L 1606 63 
L 1606 4141 
L -31 4141 
L -31 4634 
L 3866 4634 
L 3866 4141 
z
" transform="scale(0.015625)"/>
     <path id="IPAexGothic-29" d="M 466 4909 
Q 1638 3672 1638 1875 
Q 1638 75 466 -1166 
L 191 -1016 
Q 1119 216 1119 1881 
Q 1119 3509 191 4763 
L 466 4909 
z
" transform="scale(0.015625)"/>
    </defs>
    <use xlink:href="#IPAexGothic-66f4"/>
    <use xlink:href="#IPAexGothic-65b0" x="100"/>
    <use xlink:href="#IPAexGothic-65e5" x="200"/>
    <use xlink:href="#IPAexGothic-6642" x="300"/>
    <use xlink:href="#IPAexGothic-3a" x="400"/>
    <use xlink:href="#IPAexGothic-20" x="431.982422"/>
    <use xlink:href="#IPAexGothic-32" x="458.984375"/>
    <use xlink:href="#IPAexGothic-30" x="521.972656"/>
    <use xlink:href="#IPAexGothic-32" x="584.960938"/>
    <use xlink:href="#IPAexGothic-33" x="647.949219"/>
    <use xlink:href="#IPAexGothic-2f" x="710.9375"/>
    <use xlink:href="#IPAexGothic-30" x="760.9375"/>
    <use xlink:href="#IPAexGothic-31" x="823.925781"/>
    <use xlink:href="#IPAexGothic-2f" x="886.914062"/>
    <use xlink:href="#IPAexGothic-32" x="936.914062"/>
    <use xlink:href="#IPAexGothic-33" x="999.902344"/>
    <use xlink:href="#IPAexGothic-20" x="1062.890625"/>
    <use xlink:href="#IPAexGothic-31" x="1089.892578"/>
    <use xlink:href="#IPAexGothic-36" x="1152.880859"/>
    <use xlink:href="#IPAexGothic-3a" x="1215.869141"/>
    <use xlink:href="#IPAexGothic-31" x="1247.851562"/>
    <use xlink:href="#IPAexGothic-34" x="1310.839844"/>
    <use xlink:href="#IPAexGothic-3a" x="1373.828125"/>
    <use xlink:href="#IPAexGothic-33" x="1405.810547"/>
    <use xlink:href="#IPAexGothic-36" x="1468.798828"/>
    <use xlink:href="#IPAexGothic-28" x="1531.787109"/>
    <use xlink:href="#IPAexGothic-4a" x="1565.087891"/>
    <use xlink:href="#IPAexGothic-53" x="1603.076172"/>
    <use xlink:href="#IPAexGothic-54" x="1661.572266"/>
    <use xlink:href="#IPAexGothic-29" x="1721.484375"/>
   </g>
  </g>
 </g>
 <defs>
  <clipPath id="pf1d6ecbbc1">
   <rect x="29.439063" y="18.879437" width="357.12" height="266.112"/>
  </clipPath>
 </defs>
</svg>
