<?xml version="1.0" encoding="utf-8" standalone="no"?>
<!DOCTYPE svg PUBLIC "-//W3C//DTD SVG 1.1//EN"
  "http://www.w3.org/Graphics/SVG/1.1/DTD/svg11.dtd">
<svg xmlns:xlink="http://www.w3.org/1999/xlink" width="397.259063pt" height="320.972687pt" viewBox="0 0 397.259063 320.972687" xmlns="http://www.w3.org/2000/svg" version="1.1">
 <metadata>
  <rdf:RDF xmlns:dc="http://purl.org/dc/elements/1.1/" xmlns:cc="http://creativecommons.org/ns#" xmlns:rdf="http://www.w3.org/1999/02/22-rdf-syntax-ns#">
   <cc:Work>
    <dc:type rdf:resource="http://purl.org/dc/dcmitype/StillImage"/>
    <dc:date>2022-12-28T07:13:59.915596</dc:date>
    <dc:format>image/svg+xml</dc:format>
    <dc:creator>
     <cc:Agent>
      <dc:title>Matplotlib v3.6.2, https://matplotlib.org/</dc:title>
     </cc:Agent>
    </dc:creator>
   </cc:Work>
  </rdf:RDF>
 </metadata>
 <defs>
  <style type="text/css">*{stroke-linejoin: round; stroke-linecap: butt}</style>
 </defs>
 <g id="figure_1">
  <g id="patch_1">
   <path d="M 0 320.972687 
L 397.259063 320.972687 
L 397.259063 0 
L 0 0 
z
" style="fill: #ffffff"/>
  </g>
  <g id="axes_1">
   <g id="patch_2">
    <path d="M 29.439063 284.991437 
L 386.559062 284.991437 
L 386.559062 18.879437 
L 29.439063 18.879437 
z
" style="fill: #ffffff"/>
   </g>
   <g id="line2d_1">
    <path d="M 29.439063 211.199039 
L 386.559062 211.199039 
" clip-path="url(#p5fd1e12c47)" style="fill: none; stroke: #000000; stroke-linecap: square"/>
   </g>
   <g id="matplotlib.axis_1">
    <g id="xtick_1">
     <g id="line2d_2">
      <defs>
       <path id="m982f03b7db" d="M 0 0 
L 0 3.5 
" style="stroke: #000000; stroke-width: 0.8"/>
      </defs>
      <g>
       <use xlink:href="#m982f03b7db" x="29.439063" y="284.991437" style="stroke: #000000; stroke-width: 0.8"/>
      </g>
     </g>
     <g id="text_1">
      <!-- Jun -->
      <g transform="translate(21.499219 299.482062) scale(0.1 -0.1)">
       <defs>
        <path id="IPAexGothic-4a" d="M 1819 4634 
L 1819 1234 
Q 1819 -31 763 -31 
Q 303 -31 -125 209 
L 84 644 
Q 378 447 694 447 
Q 1250 447 1250 1203 
L 1250 4634 
L 1819 4634 
z
" transform="scale(0.015625)"/>
        <path id="IPAexGothic-75" d="M 3284 63 
L 2772 63 
L 2772 644 
Q 2300 0 1625 0 
Q 1072 0 763 375 
Q 519 678 519 1241 
L 519 3250 
L 1069 3250 
L 1069 1259 
Q 1069 466 1734 466 
Q 2406 466 2734 1291 
L 2734 3250 
L 3284 3250 
L 3284 63 
z
" transform="scale(0.015625)"/>
        <path id="IPAexGothic-6e" d="M 3328 63 
L 2778 63 
L 2778 2041 
Q 2778 2853 2106 2853 
Q 1428 2853 1113 2041 
L 1113 63 
L 563 63 
L 563 3250 
L 1075 3250 
L 1075 2675 
Q 1525 3316 2222 3316 
Q 3328 3316 3328 2072 
L 3328 63 
z
" transform="scale(0.015625)"/>
       </defs>
       <use xlink:href="#IPAexGothic-4a"/>
       <use xlink:href="#IPAexGothic-75" x="37.988281"/>
       <use xlink:href="#IPAexGothic-6e" x="98.388672"/>
      </g>
     </g>
    </g>
    <g id="xtick_2">
     <g id="line2d_3">
      <g>
       <use xlink:href="#m982f03b7db" x="80.214418" y="284.991437" style="stroke: #000000; stroke-width: 0.8"/>
      </g>
     </g>
     <g id="text_2">
      <!-- Jul -->
      <g transform="translate(73.944887 299.482062) scale(0.1 -0.1)">
       <defs>
        <path id="IPAexGothic-6c" d="M 1131 63 
L 581 63 
L 581 4794 
L 1131 4794 
L 1131 63 
z
" transform="scale(0.015625)"/>
       </defs>
       <use xlink:href="#IPAexGothic-4a"/>
       <use xlink:href="#IPAexGothic-75" x="37.988281"/>
       <use xlink:href="#IPAexGothic-6c" x="98.388672"/>
      </g>
     </g>
    </g>
    <g id="xtick_3">
     <g id="line2d_4">
      <g>
       <use xlink:href="#m982f03b7db" x="132.682285" y="284.991437" style="stroke: #000000; stroke-width: 0.8"/>
      </g>
     </g>
     <g id="text_3">
      <!-- Aug -->
      <g transform="translate(123.700254 299.42425) scale(0.1 -0.1)">
       <defs>
        <path id="IPAexGothic-41" d="M 4056 63 
L 3444 63 
L 2938 1409 
L 1100 1409 
L 603 63 
L -6 63 
L 1806 4666 
L 2259 4666 
L 4056 63 
z
M 2778 1863 
L 2316 3078 
Q 2125 3588 2028 4000 
L 2009 4000 
Q 1897 3563 1716 3078 
L 1263 1863 
L 2778 1863 
z
" transform="scale(0.015625)"/>
        <path id="IPAexGothic-67" d="M 1331 1150 
Q 1006 1122 1006 900 
Q 1006 613 1763 575 
L 2131 556 
Q 3303 497 3303 -294 
Q 3303 -700 2925 -959 
Q 2519 -1253 1794 -1253 
Q 1138 -1253 738 -1028 
Q 353 -809 353 -428 
Q 353 84 1075 247 
L 1075 269 
Q 506 413 506 778 
Q 506 1116 994 1297 
Q 456 1575 456 2181 
Q 456 2650 769 2963 
Q 1128 3322 1738 3322 
Q 2125 3322 2422 3153 
Q 2650 3453 3259 3463 
L 3259 3013 
Q 2838 3003 2703 2938 
Q 3034 2613 3034 2169 
Q 3034 1728 2734 1425 
Q 2400 1094 1813 1094 
Q 1563 1094 1331 1150 
z
M 1734 2919 
Q 1409 2919 1197 2706 
Q 988 2497 988 2181 
Q 988 1872 1184 1684 
Q 1397 1472 1756 1472 
Q 2094 1472 2297 1678 
Q 2503 1881 2503 2203 
Q 2503 2497 2297 2700 
Q 2081 2919 1734 2919 
z
M 1753 159 
Q 903 159 903 -366 
Q 903 -875 1800 -875 
Q 2378 -875 2638 -606 
Q 2772 -481 2772 -313 
Q 2772 159 1753 159 
z
" transform="scale(0.015625)"/>
       </defs>
       <use xlink:href="#IPAexGothic-41"/>
       <use xlink:href="#IPAexGothic-75" x="63.720703"/>
       <use xlink:href="#IPAexGothic-67" x="124.121094"/>
      </g>
     </g>
    </g>
    <g id="xtick_4">
     <g id="line2d_5">
      <g>
       <use xlink:href="#m982f03b7db" x="185.150153" y="284.991437" style="stroke: #000000; stroke-width: 0.8"/>
      </g>
     </g>
     <g id="text_4">
      <!-- Sep -->
      <g transform="translate(176.275153 299.482062) scale(0.1 -0.1)">
       <defs>
        <path id="IPAexGothic-53" d="M 2919 3641 
Q 2563 4259 1853 4259 
Q 1453 4259 1213 4009 
Q 1028 3803 1028 3534 
Q 1028 3238 1266 3047 
Q 1444 2913 1984 2688 
L 2200 2597 
Q 2925 2306 3191 1953 
Q 3422 1644 3422 1259 
Q 3422 644 2969 288 
Q 2559 -31 1931 -31 
Q 881 -31 313 766 
L 753 1100 
Q 1203 459 1938 459 
Q 2288 459 2534 625 
Q 2841 847 2841 1216 
Q 2841 1503 2616 1728 
Q 2375 1959 1728 2206 
L 1541 2278 
Q 453 2694 453 3481 
Q 453 4006 806 4347 
Q 1203 4725 1863 4725 
Q 2841 4725 3359 3956 
L 2919 3641 
z
" transform="scale(0.015625)"/>
        <path id="IPAexGothic-65" d="M 863 1594 
Q 891 1041 1209 722 
Q 1534 397 1997 397 
Q 2606 397 2963 966 
L 3322 728 
Q 2869 -31 1931 -31 
Q 1222 -31 766 422 
Q 306 884 306 1641 
Q 306 2444 788 2925 
Q 1216 3353 1856 3353 
Q 2459 3353 2866 2956 
Q 3322 2494 3322 1722 
L 3322 1594 
L 863 1594 
z
M 2756 1997 
Q 2709 2431 2450 2681 
Q 2194 2938 1844 2938 
Q 1438 2938 1150 2591 
Q 953 2356 894 1997 
L 2756 1997 
z
" transform="scale(0.015625)"/>
        <path id="IPAexGothic-70" d="M 1075 2688 
Q 1525 3341 2206 3341 
Q 2769 3341 3172 2938 
Q 3641 2469 3641 1644 
Q 3641 841 3178 372 
Q 2775 -31 2200 -31 
Q 1569 -31 1106 497 
L 1106 -1216 
L 563 -1216 
L 563 3250 
L 1075 3250 
L 1075 2688 
z
M 1106 1950 
L 1106 1291 
Q 1106 897 1516 600 
Q 1791 403 2106 403 
Q 2469 403 2725 659 
Q 3066 997 3066 1631 
Q 3066 2200 2784 2559 
Q 2503 2900 2100 2900 
Q 1656 2900 1338 2484 
Q 1106 2184 1106 1950 
z
" transform="scale(0.015625)"/>
       </defs>
       <use xlink:href="#IPAexGothic-53"/>
       <use xlink:href="#IPAexGothic-65" x="58.496094"/>
       <use xlink:href="#IPAexGothic-70" x="115.380859"/>
      </g>
     </g>
    </g>
    <g id="xtick_5">
     <g id="line2d_6">
      <g>
       <use xlink:href="#m982f03b7db" x="235.925508" y="284.991437" style="stroke: #000000; stroke-width: 0.8"/>
      </g>
     </g>
     <g id="text_5">
      <!-- Oct -->
      <g transform="translate(227.490352 299.482062) scale(0.1 -0.1)">
       <defs>
        <path id="IPAexGothic-4f" d="M 2541 4725 
Q 3456 4725 4044 4138 
Q 4709 3472 4709 2331 
Q 4709 1219 4031 550 
Q 3450 -31 2541 -31 
Q 1638 -31 1056 550 
Q 378 1219 378 2356 
Q 378 3469 1044 4138 
Q 1631 4725 2541 4725 
z
M 2541 4266 
Q 1953 4266 1531 3844 
Q 994 3303 994 2350 
Q 994 1391 1531 863 
Q 1947 447 2541 447 
Q 3131 447 3556 863 
Q 4094 1400 4094 2375 
Q 4094 3297 3550 3844 
Q 3138 4266 2541 4266 
z
" transform="scale(0.015625)"/>
        <path id="IPAexGothic-63" d="M 3269 784 
Q 2834 -31 1900 -31 
Q 1228 -31 788 409 
Q 313 891 313 1663 
Q 313 2428 788 2913 
Q 1222 3347 1881 3347 
Q 2813 3347 3206 2541 
L 2763 2309 
Q 2484 2900 1900 2900 
Q 1516 2900 1234 2619 
Q 881 2266 881 1650 
Q 881 1069 1222 728 
Q 1522 428 1956 428 
Q 2547 428 2847 1016 
L 3269 784 
z
" transform="scale(0.015625)"/>
        <path id="IPAexGothic-74" d="M 2125 241 
Q 1769 -6 1397 -6 
Q 653 -6 653 831 
L 653 2859 
L 219 2859 
L 219 3250 
L 653 3250 
L 653 3966 
L 1178 4228 
L 1178 3250 
L 2063 3250 
L 2063 2859 
L 1178 2859 
L 1178 906 
Q 1178 416 1513 416 
Q 1738 416 1941 588 
L 2125 241 
z
" transform="scale(0.015625)"/>
       </defs>
       <use xlink:href="#IPAexGothic-4f"/>
       <use xlink:href="#IPAexGothic-63" x="79.6875"/>
       <use xlink:href="#IPAexGothic-74" x="134.082031"/>
      </g>
     </g>
    </g>
    <g id="xtick_6">
     <g id="line2d_7">
      <g>
       <use xlink:href="#m982f03b7db" x="288.393375" y="284.991437" style="stroke: #000000; stroke-width: 0.8"/>
      </g>
     </g>
     <g id="text_6">
      <!-- Nov -->
      <g transform="translate(279.144938 299.482062) scale(0.1 -0.1)">
       <defs>
        <path id="IPAexGothic-4e" d="M 4244 63 
L 3731 63 
L 1697 3150 
Q 1466 3500 1141 4097 
L 1116 4097 
L 1128 3797 
Q 1159 2803 1159 2469 
L 1159 63 
L 609 63 
L 609 4634 
L 1366 4634 
L 3113 1978 
Q 3453 1447 3713 966 
L 3738 966 
Q 3694 1897 3694 2469 
L 3694 4634 
L 4244 4634 
L 4244 63 
z
" transform="scale(0.015625)"/>
        <path id="IPAexGothic-6f" d="M 1919 3341 
Q 2594 3341 3056 2888 
Q 3531 2413 3531 1638 
Q 3531 888 3066 422 
Q 2609 -31 1919 -31 
Q 1228 -31 781 416 
Q 313 881 313 1656 
Q 313 2413 788 2888 
Q 1241 3341 1919 3341 
z
M 1919 2919 
Q 1519 2919 1241 2631 
Q 888 2278 888 1650 
Q 888 1031 1234 684 
Q 1516 403 1919 403 
Q 2331 403 2609 691 
Q 2956 1038 2956 1672 
Q 2956 2269 2603 2631 
Q 2316 2919 1919 2919 
z
" transform="scale(0.015625)"/>
        <path id="IPAexGothic-76" d="M 3103 3250 
L 1747 6 
L 1375 6 
L 25 3250 
L 628 3250 
L 1338 1388 
L 1522 844 
L 1569 703 
L 1588 703 
Q 1641 884 1822 1388 
L 2516 3250 
L 3103 3250 
z
" transform="scale(0.015625)"/>
       </defs>
       <use xlink:href="#IPAexGothic-4e"/>
       <use xlink:href="#IPAexGothic-6f" x="75.976562"/>
       <use xlink:href="#IPAexGothic-76" x="136.376953"/>
      </g>
     </g>
    </g>
    <g id="xtick_7">
     <g id="line2d_8">
      <g>
       <use xlink:href="#m982f03b7db" x="339.168731" y="284.991437" style="stroke: #000000; stroke-width: 0.8"/>
      </g>
     </g>
     <g id="text_7">
      <!-- Dec -->
      <g transform="translate(329.820293 299.482062) scale(0.1 -0.1)">
       <defs>
        <path id="IPAexGothic-44" d="M 609 4634 
L 1984 4634 
Q 3159 4634 3791 4050 
Q 4456 3444 4456 2356 
Q 4456 1047 3516 441 
Q 2925 63 1941 63 
L 609 63 
L 609 4634 
z
M 1172 556 
L 1894 556 
Q 3853 556 3853 2356 
Q 3853 4147 1928 4147 
L 1172 4147 
L 1172 556 
z
" transform="scale(0.015625)"/>
       </defs>
       <use xlink:href="#IPAexGothic-44"/>
       <use xlink:href="#IPAexGothic-65" x="75.683594"/>
       <use xlink:href="#IPAexGothic-63" x="132.568359"/>
      </g>
     </g>
    </g>
    <g id="text_8">
     <!-- 2022 -->
     <g transform="translate(361.365312 311.872687) scale(0.1 -0.1)">
      <defs>
       <path id="IPAexGothic-32" d="M 3659 63 
L 447 63 
L 447 594 
Q 825 1475 1894 2203 
L 2072 2322 
Q 2619 2697 2791 2906 
Q 2988 3153 2988 3444 
Q 2988 3772 2756 4003 
Q 2500 4259 2084 4259 
Q 1250 4259 991 3328 
L 497 3506 
Q 853 4725 2116 4725 
Q 2806 4725 3216 4316 
Q 3575 3947 3575 3425 
Q 3575 3038 3344 2722 
Q 3131 2416 2366 1938 
L 2231 1856 
Q 1256 1253 978 569 
L 3659 569 
L 3659 63 
z
" transform="scale(0.015625)"/>
       <path id="IPAexGothic-30" d="M 2038 4725 
Q 2881 4725 3334 3944 
Q 3694 3325 3694 2344 
Q 3694 1372 3334 741 
Q 2888 -31 2016 -31 
Q 1147 -31 700 741 
Q 341 1372 341 2350 
Q 341 3713 1000 4334 
Q 1419 4725 2038 4725 
z
M 2016 4266 
Q 1516 4266 1228 3759 
Q 934 3247 934 2344 
Q 934 1456 1222 947 
Q 1513 447 2016 447 
Q 2619 447 2909 1153 
Q 3100 1622 3100 2375 
Q 3100 3256 2806 3759 
Q 2509 4266 2016 4266 
z
" transform="scale(0.015625)"/>
      </defs>
      <use xlink:href="#IPAexGothic-32"/>
      <use xlink:href="#IPAexGothic-30" x="62.988281"/>
      <use xlink:href="#IPAexGothic-32" x="125.976562"/>
      <use xlink:href="#IPAexGothic-32" x="188.964844"/>
     </g>
    </g>
   </g>
   <g id="matplotlib.axis_2">
    <g id="ytick_1">
     <g id="line2d_9">
      <defs>
       <path id="m76ffb50eef" d="M 0 0 
L -3.5 0 
" style="stroke: #000000; stroke-width: 0.8"/>
      </defs>
      <g>
       <use xlink:href="#m76ffb50eef" x="29.439063" y="269.014637" style="stroke: #000000; stroke-width: 0.8"/>
      </g>
     </g>
     <g id="text_9">
      <!-- 0.5 -->
      <g transform="translate(7.2 272.759949) scale(0.1 -0.1)">
       <defs>
        <path id="IPAexGothic-2e" d="M 1184 63 
L 494 63 
L 494 753 
L 1184 753 
L 1184 63 
z
" transform="scale(0.015625)"/>
        <path id="IPAexGothic-35" d="M 1178 2603 
Q 1634 2963 2172 2963 
Q 2816 2963 3241 2528 
Q 3638 2113 3638 1497 
Q 3638 938 3297 513 
Q 2869 -31 2031 -31 
Q 959 -31 469 784 
L 938 1028 
Q 1309 434 2013 434 
Q 2466 434 2769 716 
Q 3081 1013 3081 1503 
Q 3081 1966 2806 2241 
Q 2519 2528 2056 2528 
Q 1406 2528 1072 2028 
L 591 2091 
L 884 4634 
L 3406 4634 
L 3406 4153 
L 1341 4153 
L 1134 2603 
L 1178 2603 
z
" transform="scale(0.015625)"/>
       </defs>
       <use xlink:href="#IPAexGothic-30"/>
       <use xlink:href="#IPAexGothic-2e" x="62.988281"/>
       <use xlink:href="#IPAexGothic-35" x="89.404297"/>
      </g>
     </g>
    </g>
    <g id="ytick_2">
     <g id="line2d_10">
      <g>
       <use xlink:href="#m76ffb50eef" x="29.439063" y="211.199039" style="stroke: #000000; stroke-width: 0.8"/>
      </g>
     </g>
     <g id="text_10">
      <!-- 1.0 -->
      <g transform="translate(7.2 214.944352) scale(0.1 -0.1)">
       <defs>
        <path id="IPAexGothic-31" d="M 2463 63 
L 1900 63 
L 1900 4103 
Q 1372 3922 788 3797 
L 684 4231 
Q 1519 4441 2106 4731 
L 2463 4731 
L 2463 63 
z
" transform="scale(0.015625)"/>
       </defs>
       <use xlink:href="#IPAexGothic-31"/>
       <use xlink:href="#IPAexGothic-2e" x="62.988281"/>
       <use xlink:href="#IPAexGothic-30" x="89.404297"/>
      </g>
     </g>
    </g>
    <g id="ytick_3">
     <g id="line2d_11">
      <g>
       <use xlink:href="#m76ffb50eef" x="29.439063" y="153.383442" style="stroke: #000000; stroke-width: 0.8"/>
      </g>
     </g>
     <g id="text_11">
      <!-- 1.5 -->
      <g transform="translate(7.2 157.128754) scale(0.1 -0.1)">
       <use xlink:href="#IPAexGothic-31"/>
       <use xlink:href="#IPAexGothic-2e" x="62.988281"/>
       <use xlink:href="#IPAexGothic-35" x="89.404297"/>
      </g>
     </g>
    </g>
    <g id="ytick_4">
     <g id="line2d_12">
      <g>
       <use xlink:href="#m76ffb50eef" x="29.439063" y="95.567844" style="stroke: #000000; stroke-width: 0.8"/>
      </g>
     </g>
     <g id="text_12">
      <!-- 2.0 -->
      <g transform="translate(7.2 99.313157) scale(0.1 -0.1)">
       <use xlink:href="#IPAexGothic-32"/>
       <use xlink:href="#IPAexGothic-2e" x="62.988281"/>
       <use xlink:href="#IPAexGothic-30" x="89.404297"/>
      </g>
     </g>
    </g>
    <g id="ytick_5">
     <g id="line2d_13">
      <g>
       <use xlink:href="#m76ffb50eef" x="29.439063" y="37.752247" style="stroke: #000000; stroke-width: 0.8"/>
      </g>
     </g>
     <g id="text_13">
      <!-- 2.5 -->
      <g transform="translate(7.2 41.497559) scale(0.1 -0.1)">
       <use xlink:href="#IPAexGothic-32"/>
       <use xlink:href="#IPAexGothic-2e" x="62.988281"/>
       <use xlink:href="#IPAexGothic-35" x="89.404297"/>
      </g>
     </g>
    </g>
   </g>
   <g id="line2d_14">
    <path d="M 29.439063 227.411867 
L 31.131574 255.471758 
L 32.824086 269.405805 
L 34.516598 242.945807 
L 36.20911 262.441258 
L 39.594134 251.639145 
L 41.286645 227.514621 
L 42.979157 229.940841 
L 44.671669 194.078383 
L 46.364181 246.403784 
L 48.056693 250.411663 
L 49.749205 205.84664 
L 51.441717 249.191321 
L 53.134228 272.895437 
L 54.82674 243.090535 
L 56.519252 247.559579 
L 58.211764 238.429093 
L 59.904276 112.810292 
L 61.596788 184.323192 
L 63.289299 181.498781 
L 64.981811 30.975437 
L 68.366835 168.571026 
L 70.059347 110.868109 
L 71.751859 213.126183 
L 73.444371 156.293505 
L 75.136882 124.518024 
L 76.829394 151.875457 
L 78.521906 236.751655 
L 80.214418 106.655378 
L 81.90693 51.387485 
L 83.599442 102.788184 
L 85.291953 95.926279 
L 86.984465 36.542983 
L 88.676977 79.37836 
L 90.369489 35.439549 
L 92.062001 110.396771 
L 93.754513 116.980214 
L 95.447025 109.726148 
L 97.139536 177.160719 
L 98.832048 110.814502 
L 100.52456 153.702013 
L 102.217072 148.460822 
L 103.909584 164.812112 
L 105.602096 190.526245 
L 107.294608 181.526351 
L 108.987119 197.096587 
L 110.679631 219.976945 
L 112.372143 163.710275 
L 114.064655 173.022011 
L 115.757167 196.817697 
L 117.449679 179.527296 
L 119.14219 191.661352 
L 120.834702 192.887858 
L 122.527214 173.15897 
L 124.219726 188.50237 
L 125.912238 201.809366 
L 127.60475 195.197746 
L 129.297262 183.412435 
L 130.989773 192.046725 
L 132.682285 204.737627 
L 134.374797 199.025674 
L 136.067309 189.016626 
L 137.759821 185.809755 
L 139.452333 182.941981 
L 141.144844 200.02008 
L 142.837356 192.032303 
L 144.529868 181.775482 
L 146.22238 186.871327 
L 147.914892 193.9839 
L 149.607404 204.601463 
L 151.299916 225.669065 
L 152.992427 207.989558 
L 154.684939 218.057369 
L 156.377451 204.232725 
L 158.069963 217.282458 
L 159.762475 202.720535 
L 161.454987 195.141529 
L 163.147499 153.461242 
L 164.84001 171.531238 
L 166.532522 185.828914 
L 168.225034 204.950127 
L 169.917546 187.736367 
L 171.610058 211.671324 
L 173.30257 216.92144 
L 174.995081 231.587854 
L 176.687593 248.509599 
L 178.380105 240.826108 
L 180.072617 241.29957 
L 181.765129 247.072575 
L 183.457641 251.367839 
L 185.150153 251.669425 
L 186.842664 251.785215 
L 188.535176 242.900107 
L 190.227688 251.663262 
L 191.9202 241.186243 
L 193.612712 228.929625 
L 195.305224 240.670472 
L 196.997735 239.689961 
L 198.690247 228.587222 
L 200.382759 234.114512 
L 202.075271 220.053728 
L 203.767783 221.634093 
L 205.460295 247.789493 
L 207.152807 250.578039 
L 208.845318 230.847867 
L 210.53783 240.571341 
L 212.230342 229.667605 
L 213.922854 228.965012 
L 215.615366 226.507 
L 217.307878 266.267581 
L 219.00039 173.994674 
L 220.692901 228.352097 
L 222.385413 212.968149 
L 224.077925 243.863512 
L 225.770437 195.951487 
L 227.462949 187.500784 
L 229.155461 195.32975 
L 230.847972 238.855842 
L 232.540484 224.563828 
L 234.232996 239.674853 
L 235.925508 205.067187 
L 237.61802 219.657973 
L 239.310532 258.893645 
L 241.003044 189.095647 
L 242.695555 231.988543 
L 244.388067 230.452082 
L 246.080579 208.848889 
L 247.773091 214.413367 
L 249.465603 237.774657 
L 251.158115 208.216448 
L 252.850626 269.328924 
L 254.543138 186.857034 
L 256.23565 168.652783 
L 257.928162 211.199039 
L 259.620674 197.903063 
L 261.313186 190.42842 
L 263.005698 209.746404 
L 264.698209 135.123595 
L 266.390721 212.926136 
L 268.083233 239.34414 
L 269.775745 184.631705 
L 271.468257 193.892671 
L 273.160769 220.351516 
L 274.853281 197.002011 
L 276.545792 191.634272 
L 278.238304 213.253557 
L 279.930816 183.049443 
L 281.623328 199.198481 
L 283.31584 190.346771 
L 285.008352 160.309806 
L 286.700863 189.784075 
L 288.393375 198.104074 
L 290.085887 152.110827 
L 291.778399 152.9204 
L 293.470911 232.748365 
L 295.163423 165.024121 
L 296.855935 194.085734 
L 298.548446 199.838398 
L 300.240958 173.564927 
L 301.93347 209.205445 
L 303.625982 206.690562 
L 305.318494 156.249641 
L 307.011006 220.402577 
L 308.703517 215.284532 
L 310.396029 225.924092 
L 312.088541 188.099011 
L 313.781053 185.511636 
L 315.473565 211.199039 
L 317.166077 194.160213 
L 318.858589 184.55213 
L 320.5511 182.799057 
L 323.936124 203.930102 
L 325.628636 168.757197 
L 327.321148 220.491359 
L 329.01366 171.577359 
L 332.398683 192.11637 
L 334.091195 204.402838 
L 335.783707 198.987955 
L 337.476219 181.777237 
L 339.168731 142.696764 
L 340.861243 213.580923 
L 342.553754 220.529523 
L 344.246266 204.080643 
L 345.938778 205.292279 
L 347.63129 181.962456 
L 349.323802 194.793532 
L 351.016314 197.432704 
L 352.708826 173.295964 
L 354.401337 175.045451 
L 356.093849 167.16196 
L 357.786361 187.120934 
L 359.478873 183.834422 
L 361.171385 173.778001 
L 362.863897 181.23856 
L 364.556408 201.020413 
L 366.24892 187.828789 
L 367.941432 213.66936 
L 369.633944 207.768569 
L 371.326456 207.295129 
L 373.018968 192.832229 
L 374.71148 206.958159 
L 376.403991 188.728128 
L 378.096503 193.851266 
L 379.789015 207.103197 
L 381.481527 215.224404 
L 383.174039 196.113595 
L 384.866551 220.91992 
L 384.866551 220.91992 
" clip-path="url(#p5fd1e12c47)" style="fill: none; stroke: #1f77b4; stroke-width: 1.5; stroke-linecap: square"/>
   </g>
   <g id="line2d_15">
    <path d="M 29.439063 230.929789 
L 31.131574 242.60231 
L 32.824086 262.8168 
L 34.516598 257.425513 
L 36.20911 253.337157 
L 37.901622 259.836211 
L 39.594134 254.434415 
L 41.286645 240.414674 
L 42.979157 228.735232 
L 44.671669 213.41839 
L 46.364181 223.501825 
L 48.056693 248.433331 
L 49.749205 230.677266 
L 51.441717 229.912564 
L 53.134228 262.11981 
L 54.82674 259.625445 
L 56.519252 245.355694 
L 58.211764 243.118728 
L 59.904276 189.281671 
L 61.596788 152.189606 
L 63.289299 182.917915 
L 64.981811 119.473036 
L 66.674323 68.196709 
L 68.366835 137.669929 
L 70.059347 141.957318 
L 71.751859 170.127431 
L 73.444371 187.579679 
L 75.136882 141.084002 
L 76.829394 138.693349 
L 78.521906 201.292679 
L 80.214418 186.000414 
L 81.90693 80.567026 
L 83.599442 78.413733 
L 85.291953 99.383107 
L 86.984465 67.931655 
L 88.676977 58.815077 
L 90.369489 58.306173 
L 92.062001 75.699401 
L 93.754513 113.713912 
L 95.447025 113.383995 
L 97.139536 146.569691 
L 98.832048 147.022086 
L 100.52456 133.443524 
L 102.217072 151.100956 
L 103.909584 156.832948 
L 105.602096 178.224324 
L 107.294608 186.098223 
L 108.987119 189.532009 
L 110.679631 209.091256 
L 112.372143 194.807872 
L 114.064655 168.434555 
L 115.757167 185.419494 
L 117.449679 188.44227 
L 119.14219 185.724694 
L 120.834702 192.276003 
L 122.527214 183.362139 
L 124.219726 181.032368 
L 125.912238 195.324076 
L 127.60475 198.546144 
L 129.297262 189.431392 
L 130.989773 187.79659 
L 132.682285 198.54902 
L 134.374797 201.914295 
L 136.067309 194.115474 
L 137.759821 187.422411 
L 139.452333 184.383085 
L 141.144844 191.750659 
L 142.837356 196.087179 
L 144.529868 186.997904 
L 146.22238 184.346184 
L 147.914892 190.473981 
L 149.607404 199.403219 
L 151.299916 215.633088 
L 152.992427 217.185071 
L 154.684939 213.134848 
L 156.377451 211.351742 
L 158.069963 210.94113 
L 159.762475 210.228598 
L 161.454987 198.987184 
L 163.147499 175.731796 
L 164.84001 162.744798 
L 168.225034 195.737687 
L 169.917546 196.62741 
L 171.610058 200.268399 
L 173.30257 214.327003 
L 174.995081 224.517111 
L 176.687593 240.462163 
L 178.380105 244.757718 
L 180.072617 241.063165 
L 181.765129 244.236496 
L 183.457641 249.249927 
L 185.150153 251.518783 
L 186.842664 251.727342 
L 188.535176 247.466905 
L 190.227688 247.402446 
L 191.9202 246.595581 
L 193.612712 235.262778 
L 195.305224 234.987471 
L 196.997735 240.181603 
L 198.690247 234.304978 
L 200.382759 231.390872 
L 202.075271 227.332189 
L 203.767783 220.846856 
L 205.460295 235.644814 
L 207.152807 249.196285 
L 208.845318 241.279862 
L 210.53783 235.839395 
L 212.230342 235.281663 
L 213.922854 229.316941 
L 215.615366 227.743627 
L 217.307878 248.882551 
L 219.00039 230.621466 
L 220.692901 204.147875 
L 222.385413 220.93913 
L 224.077925 229.635769 
L 225.770437 222.625721 
L 227.462949 191.792225 
L 229.155461 191.471858 
L 230.847972 219.272458 
L 232.540484 231.97864 
L 234.232996 232.42119 
L 235.925508 223.814193 
L 237.61802 212.595296 
L 239.310532 241.501939 
L 241.003044 230.097519 
L 242.695555 212.536835 
L 244.388067 231.223399 
L 246.080579 220.196168 
L 247.773091 211.66473 
L 249.465603 226.773505 
L 251.158115 224.052711 
L 252.850626 244.24423 
L 254.543138 237.116008 
L 256.23565 178.033043 
L 259.620674 204.731901 
L 261.313186 194.218394 
L 263.005698 200.456001 
L 264.698209 177.011185 
L 266.390721 179.059561 
L 268.083233 227.005264 
L 269.775745 215.29372 
L 271.468257 189.34014 
L 273.160769 207.855357 
L 274.853281 209.25497 
L 276.545792 194.345323 
L 278.238304 202.914504 
L 279.930816 199.04078 
L 281.623328 191.364392 
L 283.31584 194.846812 
L 285.008352 176.074523 
L 286.700863 175.764073 
L 288.393375 194.009205 
L 290.085887 176.860376 
L 291.778399 152.516084 
L 293.470911 198.91713 
L 295.163423 203.448625 
L 296.855935 180.273516 
L 298.548446 196.993923 
L 300.240958 187.318791 
L 301.93347 192.562593 
L 303.625982 207.954654 
L 305.318494 183.674736 
L 307.011006 192.091624 
L 308.703517 217.873602 
L 310.396029 220.737602 
L 312.088541 208.513572 
L 313.781053 186.8113 
L 315.473565 198.998945 
L 317.166077 202.972279 
L 318.858589 189.440136 
L 320.5511 183.678277 
L 322.243612 188.335204 
L 323.936124 198.897374 
L 325.628636 187.448754 
L 327.321148 197.179515 
L 329.01366 198.341262 
L 330.706172 176.894581 
L 332.398683 187.16406 
L 334.091195 198.406453 
L 335.783707 201.724689 
L 337.476219 190.654224 
L 339.168731 163.401008 
L 340.861243 182.424595 
L 342.553754 217.110216 
L 344.246266 212.600777 
L 345.938778 204.687964 
L 347.63129 194.139114 
L 349.323802 188.526714 
L 351.016314 196.119779 
L 352.708826 185.880047 
L 354.401337 174.173214 
L 356.093849 171.1536 
L 357.786361 177.474475 
L 359.478873 185.48723 
L 361.171385 178.891638 
L 362.863897 177.554882 
L 364.556408 191.49043 
L 366.24892 194.588989 
L 367.941432 201.412831 
L 369.633944 210.756455 
L 371.326456 207.532084 
L 373.018968 200.270107 
L 374.71148 200.091846 
L 376.403991 198.165608 
L 378.096503 191.313905 
L 379.789015 200.651084 
L 381.481527 211.235099 
L 383.174039 206.046382 
L 384.866551 209.168684 
L 384.866551 209.168684 
" clip-path="url(#p5fd1e12c47)" style="fill: none; stroke: #ff7f0e; stroke-width: 1.5; stroke-linecap: square"/>
   </g>
   <g id="line2d_16">
    <path d="M 29.439063 229.122786 
L 31.131574 239.928401 
L 32.824086 252.698705 
L 34.516598 256.780278 
L 36.20911 259.139403 
L 37.901622 254.622372 
L 39.594134 257.208287 
L 41.286645 246.388486 
L 42.979157 237.055655 
L 44.671669 218.326475 
L 48.056693 233.387372 
L 49.749205 236.234427 
L 51.441717 237.293425 
L 54.82674 256.313321 
L 56.519252 255.822722 
L 58.211764 243.109331 
L 59.904276 212.36467 
L 63.289299 162.563334 
L 64.981811 143.84129 
L 66.674323 113.406318 
L 68.366835 107.256927 
L 70.059347 129.127564 
L 71.751859 169.610337 
L 73.444371 165.645532 
L 75.136882 169.115602 
L 76.829394 144.753156 
L 78.521906 179.647632 
L 80.214418 175.437505 
L 81.90693 150.710969 
L 83.599442 88.208754 
L 85.291953 84.394062 
L 86.984465 80.114816 
L 88.676977 71.804879 
L 90.369489 51.239386 
L 92.062001 76.931758 
L 93.754513 90.291085 
L 95.447025 112.392863 
L 97.139536 137.201801 
L 98.832048 135.362509 
L 100.52456 149.276885 
L 102.217072 138.58476 
L 103.909584 155.795645 
L 105.602096 168.900399 
L 110.679631 200.539182 
L 112.372143 195.575228 
L 114.064655 187.912342 
L 115.757167 178.52472 
L 117.449679 183.482093 
L 119.14219 189.523726 
L 120.834702 188.153999 
L 122.527214 186.18367 
L 124.219726 185.09643 
L 125.912238 188.315827 
L 127.60475 195.281979 
L 129.297262 193.687884 
L 130.989773 190.308761 
L 132.682285 193.689874 
L 134.374797 198.708102 
L 136.067309 197.755094 
L 137.759821 191.402728 
L 139.452333 185.944654 
L 141.144844 189.7987 
L 142.837356 191.844605 
L 144.529868 191.480812 
L 146.22238 186.955724 
L 147.914892 187.634041 
L 149.607404 195.355837 
L 151.299916 208.84012 
L 154.684939 217.476612 
L 156.377451 210.241718 
L 158.069963 213.36349 
L 159.762475 208.263285 
L 161.454987 205.402114 
L 163.147499 185.324114 
L 164.84001 174.344388 
L 166.532522 170.831497 
L 168.225034 188.120092 
L 169.917546 193.123075 
L 171.610058 201.848623 
L 173.30257 206.082407 
L 174.995081 220.402845 
L 176.687593 233.236603 
L 178.380105 240.583648 
L 180.072617 243.620823 
L 181.765129 243.114997 
L 185.150153 250.064959 
L 186.842664 251.607698 
L 188.535176 248.893225 
L 190.227688 248.891095 
L 191.9202 245.382199 
L 195.305224 237.10204 
L 196.997735 236.582508 
L 198.690247 236.477418 
L 200.382759 234.241533 
L 202.075271 227.752305 
L 203.767783 225.467971 
L 205.460295 230.718701 
L 207.152807 240.92208 
L 208.845318 243.507227 
L 210.53783 241.044337 
L 212.230342 233.826969 
L 213.922854 233.222764 
L 215.615366 228.38915 
L 217.307878 242.740121 
L 219.00039 229.269077 
L 220.692901 229.870881 
L 222.385413 207.161383 
L 224.077925 229.209749 
L 225.770437 219.501156 
L 227.462949 212.031087 
L 229.155461 192.98185 
L 230.847972 209.581314 
L 232.540484 221.065989 
L 234.232996 234.616737 
L 235.925508 224.06468 
L 237.61802 222.447011 
L 239.310532 230.764786 
L 241.003044 226.735849 
L 242.695555 230.732013 
L 244.388067 218.850986 
L 246.080579 224.281475 
L 247.773091 218.302399 
L 249.465603 221.123664 
L 251.158115 220.93512 
L 252.850626 242.141688 
L 254.543138 228.364316 
L 256.23565 218.44859 
L 257.928162 190.029585 
L 259.620674 193.727182 
L 261.313186 200.139008 
L 263.005698 199.610689 
L 264.698209 181.624175 
L 266.390721 190.09163 
L 268.083233 202.749265 
L 269.775745 214.510045 
L 271.468257 208.573118 
L 273.160769 200.569432 
L 274.853281 204.342327 
L 276.545792 203.652593 
L 278.238304 200.974213 
L 279.930816 196.618162 
L 281.623328 199.093369 
L 283.31584 191.026031 
L 285.008352 184.214067 
L 286.700863 180.790352 
L 288.393375 183.611312 
L 290.085887 181.298308 
L 291.778399 169.270937 
L 293.470911 184.905831 
L 295.163423 188.492178 
L 296.855935 200.403438 
L 298.548446 187.108997 
L 300.240958 189.611924 
L 301.93347 195.033037 
L 303.625982 197.447481 
L 305.318494 192.747876 
L 307.011006 197.145102 
L 308.703517 200.314175 
L 310.396029 220.626045 
L 313.781053 201.295556 
L 315.473565 195.464272 
L 317.166077 197.405968 
L 318.858589 197.113713 
L 320.5511 187.261183 
L 322.243612 187.08549 
L 323.936124 193.741822 
L 325.628636 189.550213 
L 327.321148 199.469935 
L 329.01366 189.152671 
L 330.706172 193.119185 
L 332.398683 182.150609 
L 334.091195 193.164416 
L 335.783707 198.60058 
L 337.476219 195.400607 
L 339.168731 176.246527 
L 340.861243 182.20913 
L 342.553754 196.443074 
L 344.246266 212.928431 
L 345.938778 210.214796 
L 347.63129 197.539344 
L 349.323802 194.357613 
L 352.708826 188.916137 
L 354.401337 182.357292 
L 356.093849 171.871023 
L 357.786361 176.669151 
L 359.478873 179.625281 
L 361.171385 181.687232 
L 362.863897 179.678119 
L 364.556408 185.826618 
L 366.24892 190.280728 
L 367.941432 201.282161 
L 369.633944 203.568241 
L 371.326456 209.613962 
L 373.018968 202.82065 
L 374.71148 202.539923 
L 376.403991 196.411828 
L 378.096503 196.743275 
L 379.789015 196.795762 
L 381.481527 205.708887 
L 383.174039 206.399686 
L 384.866551 211.222913 
L 384.866551 211.222913 
" clip-path="url(#p5fd1e12c47)" style="fill: none; stroke: #2ca02c; stroke-width: 1.5; stroke-linecap: square"/>
   </g>
   <g id="line2d_17">
    <path d="M 29.439063 221.275211 
L 31.131574 236.505406 
L 32.824086 248.478994 
L 34.516598 250.372301 
L 36.20911 258.240554 
L 37.901622 258.641514 
L 39.594134 253.887849 
L 41.286645 250.742613 
L 42.979157 242.558839 
L 44.671669 227.832517 
L 46.364181 226.152528 
L 48.056693 232.537407 
L 49.749205 227.154092 
L 51.441717 239.663468 
L 53.134228 247.949949 
L 54.82674 246.12502 
L 56.519252 254.219959 
L 58.211764 251.824807 
L 59.904276 220.968504 
L 61.596788 205.919399 
L 63.289299 186.135769 
L 64.981811 136.533121 
L 66.674323 133.903952 
L 68.366835 128.780364 
L 70.059347 108.165345 
L 71.751859 154.661857 
L 73.444371 166.381937 
L 75.136882 156.222628 
L 78.521906 174.127491 
L 80.214418 164.056515 
L 81.90693 151.002816 
L 83.599442 139.788926 
L 85.291953 90.161987 
L 86.984465 73.226844 
L 88.676977 79.930908 
L 90.369489 63.162834 
L 92.062001 67.394559 
L 93.754513 87.608872 
L 95.447025 95.307164 
L 97.139536 130.829051 
L 98.832048 130.923693 
L 102.217072 149.07322 
L 103.909584 145.514995 
L 105.602096 165.230701 
L 107.294608 172.15619 
L 108.987119 183.990017 
L 110.679631 198.107108 
L 112.372143 192.195781 
L 114.064655 190.267628 
L 115.757167 190.194295 
L 117.449679 178.776002 
L 119.14219 185.572177 
L 120.834702 190.372599 
L 122.527214 184.54832 
L 124.219726 186.766963 
L 125.912238 189.473261 
L 127.60475 190.069324 
L 129.297262 192.410021 
L 134.374797 195.044354 
L 136.067309 196.351076 
L 137.759821 194.867136 
L 139.452333 189.335364 
L 141.144844 189.603599 
L 142.837356 190.360547 
L 144.529868 189.394825 
L 146.22238 190.342872 
L 147.914892 188.74688 
L 149.607404 192.084855 
L 151.299916 203.69443 
L 152.992427 208.628052 
L 154.684939 214.390906 
L 156.377451 214.306201 
L 158.069963 212.043229 
L 159.762475 210.791529 
L 161.454987 205.110817 
L 163.147499 194.096195 
L 164.84001 181.995215 
L 166.532522 177.300368 
L 168.225034 180.166067 
L 169.917546 188.02426 
L 171.610058 198.022962 
L 173.30257 205.800327 
L 174.995081 213.03684 
L 176.687593 228.256977 
L 178.380105 235.194567 
L 180.072617 240.763189 
L 181.765129 244.49752 
L 183.457641 245.259188 
L 186.842664 250.498685 
L 188.535176 249.519384 
L 190.227688 249.59516 
L 191.9202 247.032432 
L 193.612712 241.548346 
L 195.305224 240.987516 
L 198.690247 234.646856 
L 200.382759 235.892398 
L 202.075271 230.881904 
L 203.767783 226.256947 
L 205.460295 231.579139 
L 207.152807 236.122417 
L 208.845318 238.507266 
L 210.53783 242.782759 
L 212.230342 238.331566 
L 213.922854 232.634606 
L 215.615366 231.587191 
L 217.307878 239.646891 
L 219.00039 229.193149 
L 220.692901 229.040635 
L 222.385413 225.896331 
L 224.077925 217.632953 
L 225.770437 221.78581 
L 227.462949 212.266073 
L 229.155461 208.065956 
L 230.847972 206.313066 
L 232.540484 213.521109 
L 234.232996 226.061058 
L 235.925508 227.980673 
L 237.61802 222.980288 
L 239.310532 233.074257 
L 241.003044 221.710038 
L 242.695555 228.075685 
L 244.388067 230.662107 
L 246.080579 216.432907 
L 247.773091 221.898783 
L 249.465603 223.537176 
L 251.158115 218.034898 
L 252.850626 235.927619 
L 254.543138 230.806248 
L 256.23565 215.976432 
L 257.928162 216.679967 
L 259.620674 192.041922 
L 261.313186 192.910047 
L 263.005698 202.612348 
L 264.698209 185.877122 
L 266.390721 190.175906 
L 268.083233 204.536808 
L 269.775745 198.448671 
L 271.468257 209.676726 
L 273.160769 211.634562 
L 274.853281 199.686873 
L 276.545792 201.281933 
L 278.238304 206.126362 
L 279.930816 196.71423 
L 281.623328 197.268091 
L 283.31584 196.960725 
L 285.008352 183.923798 
L 286.700863 185.627441 
L 288.393375 185.325715 
L 290.085887 176.313222 
L 291.778399 174.670499 
L 293.470911 188.327129 
L 295.163423 180.177036 
L 298.548446 200.262414 
L 300.240958 183.839538 
L 301.93347 194.796847 
L 303.625982 198.049398 
L 305.318494 188.189868 
L 307.011006 200.271432 
L 308.703517 201.939318 
L 310.396029 207.269481 
L 312.088541 213.289999 
L 313.781053 204.949238 
L 315.473565 203.848238 
L 317.166077 195.139464 
L 318.858589 194.305696 
L 320.5511 193.674278 
L 322.243612 188.888776 
L 323.936124 191.5016 
L 325.628636 187.892686 
L 327.321148 198.041309 
L 329.01366 193.005785 
L 330.706172 187.405469 
L 332.398683 192.869183 
L 334.091195 188.066754 
L 335.783707 194.64471 
L 337.476219 194.587132 
L 339.168731 183.841066 
L 340.861243 186.599767 
L 342.553754 192.921842 
L 344.246266 198.395901 
L 345.938778 211.065593 
L 349.323802 196.858291 
L 351.016314 195.13317 
L 352.708826 187.209652 
L 354.401337 185.572071 
L 356.093849 178.699715 
L 357.786361 175.832866 
L 359.478873 178.493445 
L 361.171385 178.184745 
L 362.863897 181.575194 
L 364.556408 185.331186 
L 366.24892 186.329848 
L 367.941432 196.546057 
L 369.633944 202.936162 
L 371.326456 204.510717 
L 373.018968 205.626636 
L 374.71148 203.868227 
L 376.403991 199.222196 
L 378.096503 195.776348 
L 379.789015 199.414406 
L 381.481527 201.670223 
L 383.174039 203.378204 
L 384.866551 210.206468 
L 384.866551 210.206468 
" clip-path="url(#p5fd1e12c47)" style="fill: none; stroke: #d62728; stroke-width: 1.5; stroke-linecap: square"/>
   </g>
   <g id="line2d_18">
    <path d="M 29.439063 222.506149 
L 31.131574 229.225195 
L 32.824086 244.328125 
L 34.516598 247.402355 
L 36.20911 252.954749 
L 37.901622 258.019032 
L 39.594134 257.295259 
L 41.286645 249.2435 
L 42.979157 246.974437 
L 44.671669 234.54074 
L 46.364181 231.861658 
L 48.056693 231.553594 
L 49.749205 227.717781 
L 51.441717 232.012654 
L 53.134228 247.643113 
L 56.519252 246.413994 
L 58.211764 251.305355 
L 59.904276 234.325278 
L 61.596788 214.484016 
L 63.289299 201.387908 
L 64.981811 163.586194 
L 66.674323 129.858474 
L 68.366835 141.397281 
L 70.059347 125.3209 
L 71.751859 134.972888 
L 73.444371 154.989431 
L 75.136882 158.76708 
L 76.829394 155.361922 
L 78.521906 182.873277 
L 80.214418 162.532711 
L 81.90693 145.998895 
L 83.599442 142.271252 
L 85.291953 131.739654 
L 86.984465 80.2958 
L 88.676977 74.469261 
L 90.369489 71.612377 
L 92.062001 73.369884 
L 93.754513 78.170446 
L 95.447025 92.205622 
L 97.139536 114.651386 
L 98.832048 126.98029 
L 100.52456 135.707335 
L 102.217072 141.820322 
L 103.909584 152.338799 
L 105.602096 155.572908 
L 107.294608 168.629853 
L 108.987119 177.501124 
L 110.679631 192.046346 
L 112.372143 191.863517 
L 114.064655 188.562489 
L 115.757167 191.603524 
L 117.449679 188.124556 
L 119.14219 181.447777 
L 120.834702 187.0666 
L 122.527214 187.0915 
L 124.219726 185.34807 
L 125.912238 189.913695 
L 127.60475 190.637736 
L 129.297262 188.763136 
L 132.682285 195.654061 
L 134.374797 195.075047 
L 136.067309 193.860278 
L 137.759821 194.307816 
L 139.452333 192.563919 
L 141.144844 191.542008 
L 144.529868 188.685177 
L 146.22238 188.893792 
L 147.914892 191.078975 
L 149.607404 192.074346 
L 151.299916 199.593102 
L 152.992427 204.565698 
L 154.684939 210.577143 
L 156.377451 212.428944 
L 158.069963 214.907852 
L 159.762475 210.23647 
L 161.454987 207.817891 
L 163.147499 196.188428 
L 164.84001 189.862088 
L 166.532522 182.770205 
L 168.225034 183.291563 
L 169.917546 181.712392 
L 171.610058 193.113415 
L 174.995081 211.463604 
L 178.380105 230.909798 
L 181.765129 242.063784 
L 183.457641 245.919887 
L 185.150153 246.583547 
L 186.842664 248.741635 
L 188.535176 249.036102 
L 190.227688 249.952996 
L 191.9202 247.98217 
L 193.612712 243.701758 
L 195.305224 241.373489 
L 196.997735 240.72956 
L 198.690247 235.993508 
L 200.382759 234.540632 
L 202.075271 232.924776 
L 203.767783 229.099784 
L 205.460295 230.988135 
L 207.152807 235.724345 
L 208.845318 235.091221 
L 210.53783 238.923995 
L 212.230342 240.309621 
L 213.922854 236.532871 
L 215.615366 231.439783 
L 217.307878 239.832571 
L 219.00039 229.288225 
L 220.692901 229.025515 
L 222.385413 226.018762 
L 224.077925 229.776904 
L 225.770437 213.604985 
L 227.462949 215.680869 
L 229.155461 209.062995 
L 230.847972 214.984372 
L 232.540484 210.206824 
L 234.232996 219.314815 
L 235.925508 222.17396 
L 237.61802 226.369517 
L 239.310532 231.430807 
L 241.003044 225.577264 
L 242.695555 223.851206 
L 244.388067 228.555607 
L 246.080579 226.648719 
L 247.773091 216.031922 
L 249.465603 225.28565 
L 251.158115 220.640156 
L 252.850626 231.061495 
L 254.543138 227.73105 
L 256.23565 220.726004 
L 257.928162 215.037011 
L 259.620674 213.157231 
L 261.313186 191.720756 
L 263.005698 196.460668 
L 264.698209 191.350375 
L 266.390721 191.757527 
L 268.083233 201.836996 
L 269.775745 200.792232 
L 271.468257 197.550137 
L 273.160769 211.894043 
L 274.853281 208.846332 
L 276.545792 198.115669 
L 278.238304 203.773183 
L 279.930816 201.828184 
L 281.623328 197.214919 
L 283.31584 195.912493 
L 286.700863 185.115566 
L 288.393375 188.215948 
L 290.085887 179.230873 
L 291.778399 171.901027 
L 293.470911 188.619752 
L 295.163423 183.951829 
L 296.855935 183.070739 
L 298.548446 191.957715 
L 300.240958 195.323676 
L 301.93347 189.316525 
L 303.625982 197.266248 
L 305.318494 190.602066 
L 307.011006 195.331172 
L 308.703517 203.427593 
L 310.396029 207.153921 
L 312.088541 203.660003 
L 313.781053 208.209749 
L 315.473565 206.225655 
L 317.166077 201.968952 
L 318.858589 193.086981 
L 320.5511 192.080368 
L 322.243612 193.671134 
L 323.936124 192.037551 
L 325.628636 187.230909 
L 327.321148 195.127704 
L 329.01366 193.136595 
L 330.706172 190.879234 
L 332.398683 188.360647 
L 334.091195 195.259724 
L 335.783707 190.323195 
L 337.476219 192.16594 
L 339.168731 185.535827 
L 340.861243 190.356327 
L 342.553754 194.157665 
L 344.246266 195.231943 
L 345.938778 199.805793 
L 347.63129 205.75506 
L 349.323802 201.980701 
L 351.016314 196.973377 
L 354.401337 184.857416 
L 356.093849 182.068236 
L 357.786361 180.423619 
L 359.478873 177.468219 
L 361.171385 177.562124 
L 362.863897 178.80059 
L 364.556408 185.690961 
L 366.24892 185.834271 
L 369.633944 198.87215 
L 371.326456 203.82049 
L 373.018968 202.259429 
L 374.71148 205.894119 
L 376.403991 200.979192 
L 378.096503 198.165651 
L 379.789015 198.124359 
L 381.481527 202.74615 
L 383.174039 200.578123 
L 384.866551 207.104849 
L 384.866551 207.104849 
" clip-path="url(#p5fd1e12c47)" style="fill: none; stroke: #9467bd; stroke-width: 1.5; stroke-linecap: square"/>
   </g>
   <g id="line2d_19">
    <path d="M 29.439063 221.989476 
L 31.131574 228.904971 
L 32.824086 237.483987 
L 34.516598 244.099331 
L 36.20911 250.133055 
L 39.594134 256.994611 
L 41.286645 253.038847 
L 44.671669 239.915086 
L 46.364181 236.632969 
L 48.056693 235.239876 
L 49.749205 227.68395 
L 51.441717 231.670455 
L 53.134228 240.522 
L 54.82674 246.901912 
L 56.519252 247.094508 
L 58.211764 245.135114 
L 59.904276 236.98727 
L 61.596788 227.417148 
L 63.289299 209.558869 
L 66.674323 154.479575 
L 68.366835 136.912814 
L 70.059347 136.626651 
L 71.751859 143.651398 
L 73.444371 138.702995 
L 75.136882 150.24993 
L 76.829394 157.637623 
L 78.521906 172.805614 
L 80.214418 172.308881 
L 81.90693 147.756838 
L 83.599442 139.424444 
L 85.291953 135.249771 
L 86.984465 118.380389 
L 88.676977 80.14313 
L 90.369489 68.347758 
L 92.062001 78.528388 
L 95.447025 83.731536 
L 97.139536 109.142714 
L 98.832048 114.016671 
L 100.52456 131.704446 
L 102.217072 137.894546 
L 103.909584 145.867244 
L 105.602096 159.375849 
L 107.294608 160.199988 
L 108.987119 173.774933 
L 110.679631 185.603024 
L 112.372143 187.691034 
L 115.757167 189.973888 
L 117.449679 189.661866 
L 119.14219 188.720384 
L 120.834702 183.420157 
L 122.527214 184.839306 
L 124.219726 187.32764 
L 125.912238 188.234936 
L 127.60475 190.808875 
L 129.297262 189.459306 
L 130.989773 189.315904 
L 132.682285 194.488321 
L 134.374797 196.222111 
L 136.067309 194.084129 
L 137.759821 192.551171 
L 139.452333 192.477858 
L 141.144844 193.836383 
L 142.837356 191.623847 
L 144.529868 188.740474 
L 146.22238 188.38451 
L 147.914892 189.755489 
L 149.607404 193.432394 
L 151.299916 198.363082 
L 152.992427 201.032618 
L 154.684939 206.925265 
L 156.377451 209.543013 
L 158.069963 213.252545 
L 159.762475 212.963095 
L 161.454987 207.846519 
L 164.84001 192.369156 
L 166.532522 189.197994 
L 168.225034 186.729077 
L 169.917546 184.042107 
L 171.610058 187.198671 
L 174.995081 207.540235 
L 176.687593 218.675332 
L 178.380105 224.780796 
L 180.072617 232.725185 
L 183.457641 243.690539 
L 185.150153 246.907814 
L 186.842664 247.474879 
L 188.535176 247.797075 
L 190.227688 249.480254 
L 191.9202 248.556817 
L 193.612712 245.08607 
L 195.305224 243.204053 
L 198.690247 238.815428 
L 200.382759 235.683007 
L 202.075271 232.270423 
L 203.767783 231.130882 
L 205.460295 232.49656 
L 207.152807 234.57189 
L 208.845318 234.929153 
L 210.53783 236.028174 
L 212.230342 237.444895 
L 213.922854 238.514573 
L 215.615366 234.934333 
L 217.307878 238.395766 
L 219.00039 231.266365 
L 220.692901 229.132824 
L 222.385413 226.515892 
L 224.077925 229.239417 
L 225.770437 224.817696 
L 227.462949 209.621523 
L 229.155461 212.522123 
L 232.540484 216.641101 
L 234.232996 215.732855 
L 235.925508 217.061613 
L 237.61802 221.758769 
L 239.310532 232.710465 
L 241.003044 225.409058 
L 242.695555 226.675144 
L 244.388067 224.981941 
L 246.080579 225.516094 
L 247.773091 224.706134 
L 249.465603 219.993368 
L 251.158115 222.621729 
L 252.850626 230.960194 
L 254.543138 224.808205 
L 256.23565 219.699069 
L 257.928162 219.194515 
L 259.620674 212.348296 
L 261.313186 209.65087 
L 263.005698 194.907088 
L 264.698209 187.807324 
L 266.390721 195.211158 
L 268.083233 201.189777 
L 269.775745 199.121299 
L 271.468257 199.667689 
L 273.160769 201.664094 
L 274.853281 209.536309 
L 276.545792 206.137929 
L 278.238304 200.771985 
L 279.930816 200.539284 
L 281.623328 201.393693 
L 285.008352 190.557175 
L 286.700863 190.24811 
L 288.393375 187.367939 
L 290.085887 182.763564 
L 291.778399 175.139954 
L 293.470911 184.260041 
L 296.855935 185.693006 
L 298.548446 186.011723 
L 300.240958 189.053189 
L 301.93347 197.746163 
L 303.625982 192.377572 
L 305.318494 191.188962 
L 307.011006 196.093335 
L 308.703517 198.888857 
L 310.396029 207.49831 
L 313.781053 200.805821 
L 315.473565 208.713277 
L 317.166077 204.293783 
L 318.858589 199.221764 
L 320.5511 191.424833 
L 322.243612 192.344692 
L 323.936124 195.438584 
L 325.628636 188.410429 
L 327.321148 193.421343 
L 329.01366 191.466693 
L 330.706172 191.34645 
L 332.398683 191.086209 
L 334.091195 191.173373 
L 335.783707 195.888562 
L 337.476219 188.934661 
L 339.168731 184.957424 
L 340.861243 190.651256 
L 342.553754 195.922878 
L 344.246266 195.865522 
L 345.938778 196.964714 
L 347.63129 196.992366 
L 349.323802 203.993471 
L 351.016314 201.233957 
L 352.708826 193.29733 
L 354.401337 188.48751 
L 356.093849 182.050611 
L 357.786361 182.922867 
L 359.478873 180.997684 
L 361.171385 176.85942 
L 362.863897 178.181248 
L 364.556408 182.759312 
L 366.24892 186.049535 
L 367.941432 190.908696 
L 369.633944 194.995539 
L 371.326456 200.316108 
L 373.018968 202.053777 
L 374.71148 203.05515 
L 376.403991 203.188982 
L 378.096503 199.818307 
L 379.789015 199.700281 
L 381.481527 201.146293 
L 383.174039 201.664569 
L 384.866551 204.221356 
L 384.866551 204.221356 
" clip-path="url(#p5fd1e12c47)" style="fill: none; stroke: #8c564b; stroke-width: 1.5; stroke-linecap: square"/>
   </g>
   <g id="line2d_20">
    <path d="M 29.439063 224.216778 
L 31.131574 227.596136 
L 32.824086 236.094002 
L 34.516598 238.285498 
L 36.20911 247.009287 
L 37.901622 251.173405 
L 39.594134 253.38057 
L 41.286645 253.391419 
L 42.979157 250.111493 
L 44.671669 240.35466 
L 46.364181 240.873149 
L 48.056693 238.743918 
L 49.749205 231.524757 
L 51.441717 231.087585 
L 53.134228 239.084283 
L 54.82674 240.893702 
L 56.519252 246.996197 
L 58.211764 245.910647 
L 59.904276 233.085415 
L 61.596788 230.86679 
L 63.289299 221.875268 
L 64.981811 192.984554 
L 66.674323 172.579527 
L 68.366835 156.56697 
L 70.059347 133.393898 
L 71.751859 150.105108 
L 73.444371 145.513232 
L 75.136882 136.739153 
L 76.829394 150.483069 
L 78.521906 172.207681 
L 80.214418 164.739432 
L 81.90693 159.007124 
L 83.599442 141.932814 
L 85.291953 133.752243 
L 88.676977 113.209754 
L 90.369489 74.203567 
L 92.062001 74.821343 
L 93.754513 84.425418 
L 95.447025 85.512302 
L 97.139536 100.005778 
L 98.832048 109.382331 
L 100.52456 120.19955 
L 102.217072 134.191304 
L 103.909584 141.997781 
L 105.602096 153.047456 
L 107.294608 162.735832 
L 108.987119 166.052801 
L 110.679631 181.433711 
L 112.372143 182.665304 
L 114.064655 185.684395 
L 115.757167 190.052933 
L 117.449679 188.528151 
L 119.14219 189.949308 
L 120.834702 189.323584 
L 122.527214 181.997329 
L 124.219726 185.368481 
L 125.912238 189.494891 
L 127.60475 189.251731 
L 129.297262 189.776067 
L 130.989773 189.831957 
L 132.682285 191.63289 
L 134.374797 195.146246 
L 136.067309 195.216294 
L 137.759821 192.932486 
L 139.452333 191.218756 
L 141.144844 193.58218 
L 142.837356 193.580143 
L 144.529868 190.258975 
L 146.22238 188.474989 
L 147.914892 189.198645 
L 149.607404 191.981943 
L 151.299916 198.601115 
L 152.992427 199.784621 
L 154.684939 203.618883 
L 156.377451 206.544268 
L 158.069963 210.681256 
L 159.762475 211.804545 
L 161.454987 210.573035 
L 163.147499 201.272819 
L 166.532522 191.453746 
L 168.225034 191.567199 
L 169.917546 186.873421 
L 171.610058 188.362043 
L 173.30257 191.892493 
L 176.687593 214.499122 
L 178.380105 222.158824 
L 180.072617 227.322903 
L 181.765129 234.922937 
L 183.457641 240.308315 
L 185.150153 244.880253 
L 186.842664 247.623529 
L 188.535176 246.836933 
L 190.227688 248.36133 
L 191.9202 248.346486 
L 193.612712 246.014508 
L 195.305224 244.469403 
L 196.997735 242.710852 
L 198.690247 239.410904 
L 200.382759 238.158751 
L 202.075271 233.598803 
L 203.767783 230.819473 
L 205.460295 233.710105 
L 207.152807 235.321048 
L 208.845318 234.048867 
L 210.53783 235.757231 
L 212.230342 235.145673 
L 213.922854 236.280027 
L 215.615366 236.891486 
L 217.307878 240.248563 
L 219.00039 231.206691 
L 220.692901 230.855381 
L 222.385413 226.97232 
L 224.077925 229.200263 
L 225.770437 225.060755 
L 227.462949 220.171876 
L 229.155461 207.679122 
L 230.847972 216.719103 
L 232.540484 216.123738 
L 234.232996 220.271379 
L 235.925508 214.26839 
L 237.61802 217.436337 
L 239.310532 228.104504 
L 241.003044 227.449084 
L 242.695555 226.376218 
L 244.388067 227.223636 
L 246.080579 222.819885 
L 247.773091 223.999794 
L 249.465603 226.684388 
L 251.158115 218.385403 
L 252.850626 231.107781 
L 254.543138 225.63427 
L 256.23565 218.212387 
L 257.928162 218.52415 
L 259.620674 216.383034 
L 261.313186 209.44702 
L 263.005698 209.664523 
L 264.698209 187.671964 
L 266.390721 191.709338 
L 268.083233 202.671045 
L 269.775745 198.947973 
L 271.468257 198.387136 
L 273.160769 202.852002 
L 274.853281 201.008475 
L 276.545792 207.131896 
L 278.238304 207.18111 
L 279.930816 198.380668 
L 281.623328 200.348606 
L 283.31584 199.87207 
L 285.008352 191.497092 
L 286.700863 190.446999 
L 288.393375 191.399083 
L 290.085887 182.804438 
L 291.778399 178.836405 
L 293.470911 185.145917 
L 295.163423 181.658839 
L 296.855935 186.284838 
L 298.548446 187.806378 
L 300.240958 184.297498 
L 301.93347 192.130815 
L 303.625982 199.063592 
L 305.318494 187.727666 
L 307.011006 195.808404 
L 308.703517 199.024939 
L 310.396029 203.154815 
L 312.088541 204.902638 
L 313.781053 201.663825 
L 315.473565 202.345891 
L 317.166077 206.736348 
L 318.858589 201.650842 
L 320.5511 196.995616 
L 322.243612 191.746216 
L 323.936124 194.064329 
L 325.628636 191.922213 
L 327.321148 193.527147 
L 329.01366 190.499864 
L 330.706172 190.157175 
L 332.398683 191.456708 
L 334.091195 193.073793 
L 335.783707 192.318328 
L 337.476219 193.959995 
L 339.168731 183.119016 
L 342.553754 195.385749 
L 344.246266 197.120655 
L 345.938778 197.255697 
L 347.63129 194.920628 
L 349.323802 196.680503 
L 351.016314 203.076989 
L 352.708826 197.57802 
L 354.401337 190.830877 
L 356.093849 185.624953 
L 357.786361 182.786056 
L 359.478873 183.053444 
L 361.171385 179.987536 
L 362.863897 177.492985 
L 364.556408 181.681811 
L 366.24892 183.494688 
L 367.941432 190.37394 
L 369.633944 193.456085 
L 371.326456 196.827227 
L 373.018968 199.273135 
L 374.71148 202.7665 
L 376.403991 201.103242 
L 378.096503 201.896283 
L 379.789015 200.885534 
L 381.481527 202.043694 
L 383.174039 200.439377 
L 384.866551 204.616121 
L 384.866551 204.616121 
" clip-path="url(#p5fd1e12c47)" style="fill: none; stroke: #e377c2; stroke-width: 1.5; stroke-linecap: square"/>
   </g>
   <g id="patch_3">
    <path d="M 29.439063 284.991437 
L 29.439063 18.879437 
" style="fill: none; stroke: #000000; stroke-width: 0.8; stroke-linejoin: miter; stroke-linecap: square"/>
   </g>
   <g id="patch_4">
    <path d="M 386.559062 284.991437 
L 386.559062 18.879437 
" style="fill: none; stroke: #000000; stroke-width: 0.8; stroke-linejoin: miter; stroke-linecap: square"/>
   </g>
   <g id="patch_5">
    <path d="M 29.439063 284.991437 
L 386.559063 284.991437 
" style="fill: none; stroke: #000000; stroke-width: 0.8; stroke-linejoin: miter; stroke-linecap: square"/>
   </g>
   <g id="patch_6">
    <path d="M 29.439063 18.879437 
L 386.559063 18.879437 
" style="fill: none; stroke: #000000; stroke-width: 0.8; stroke-linejoin: miter; stroke-linecap: square"/>
   </g>
   <g id="legend_1">
    <g id="patch_7">
     <path d="M 341.260625 127.613812 
L 379.559062 127.613812 
Q 381.559062 127.613812 381.559062 125.613812 
L 381.559062 25.879437 
Q 381.559062 23.879437 379.559062 23.879437 
L 341.260625 23.879437 
Q 339.260625 23.879437 339.260625 25.879437 
L 339.260625 125.613812 
Q 339.260625 127.613812 341.260625 127.613812 
z
" style="fill: #ffffff; opacity: 0.8; stroke: #cccccc; stroke-linejoin: miter"/>
    </g>
    <g id="line2d_21">
     <path d="M 343.260625 31.870062 
L 353.260625 31.870062 
L 363.260625 31.870062 
" style="fill: none; stroke: #1f77b4; stroke-width: 1.5; stroke-linecap: square"/>
    </g>
    <g id="text_14">
     <!-- 1 -->
     <g transform="translate(371.260625 35.370062) scale(0.1 -0.1)">
      <use xlink:href="#IPAexGothic-31"/>
     </g>
    </g>
    <g id="line2d_22">
     <path d="M 343.260625 46.260687 
L 353.260625 46.260687 
L 363.260625 46.260687 
" style="fill: none; stroke: #ff7f0e; stroke-width: 1.5; stroke-linecap: square"/>
    </g>
    <g id="text_15">
     <!-- 2 -->
     <g transform="translate(371.260625 49.760687) scale(0.1 -0.1)">
      <use xlink:href="#IPAexGothic-32"/>
     </g>
    </g>
    <g id="line2d_23">
     <path d="M 343.260625 60.651312 
L 353.260625 60.651312 
L 363.260625 60.651312 
" style="fill: none; stroke: #2ca02c; stroke-width: 1.5; stroke-linecap: square"/>
    </g>
    <g id="text_16">
     <!-- 3 -->
     <g transform="translate(371.260625 64.151312) scale(0.1 -0.1)">
      <defs>
       <path id="IPAexGothic-33" d="M 2381 2419 
Q 3506 2216 3506 1278 
Q 3506 716 3128 356 
Q 2709 -31 1944 -31 
Q 797 -31 288 881 
L 756 1131 
Q 1109 441 1938 441 
Q 2425 441 2694 691 
Q 2950 928 2950 1291 
Q 2950 1719 2566 1978 
Q 2216 2213 1644 2213 
L 1363 2213 
L 1363 2669 
L 1656 2669 
Q 2231 2669 2534 2888 
Q 2859 3119 2859 3509 
Q 2859 3934 2494 4138 
Q 2259 4278 1931 4278 
Q 1238 4278 903 3578 
L 434 3803 
Q 897 4725 1938 4725 
Q 2597 4725 3006 4394 
Q 3416 4069 3416 3534 
Q 3416 3028 3019 2706 
Q 2763 2500 2381 2444 
L 2381 2419 
z
" transform="scale(0.015625)"/>
      </defs>
      <use xlink:href="#IPAexGothic-33"/>
     </g>
    </g>
    <g id="line2d_24">
     <path d="M 343.260625 75.041937 
L 353.260625 75.041937 
L 363.260625 75.041937 
" style="fill: none; stroke: #d62728; stroke-width: 1.5; stroke-linecap: square"/>
    </g>
    <g id="text_17">
     <!-- 4 -->
     <g transform="translate(371.260625 78.541937) scale(0.1 -0.1)">
      <defs>
       <path id="IPAexGothic-34" d="M 3813 1159 
L 3059 1159 
L 3059 63 
L 2547 63 
L 2547 1159 
L 197 1159 
L 197 1672 
L 2456 4678 
L 3059 4678 
L 3059 1634 
L 3813 1634 
L 3813 1159 
z
M 2578 4109 
L 2559 4109 
Q 2278 3656 2003 3284 
L 759 1634 
L 2547 1634 
L 2547 3144 
Q 2547 3481 2578 4109 
z
" transform="scale(0.015625)"/>
      </defs>
      <use xlink:href="#IPAexGothic-34"/>
     </g>
    </g>
    <g id="line2d_25">
     <path d="M 343.260625 89.432562 
L 353.260625 89.432562 
L 363.260625 89.432562 
" style="fill: none; stroke: #9467bd; stroke-width: 1.5; stroke-linecap: square"/>
    </g>
    <g id="text_18">
     <!-- 5 -->
     <g transform="translate(371.260625 92.932562) scale(0.1 -0.1)">
      <use xlink:href="#IPAexGothic-35"/>
     </g>
    </g>
    <g id="line2d_26">
     <path d="M 343.260625 103.823187 
L 353.260625 103.823187 
L 363.260625 103.823187 
" style="fill: none; stroke: #8c564b; stroke-width: 1.5; stroke-linecap: square"/>
    </g>
    <g id="text_19">
     <!-- 6 -->
     <g transform="translate(371.260625 107.323187) scale(0.1 -0.1)">
      <defs>
       <path id="IPAexGothic-36" d="M 1056 2328 
Q 1509 2981 2234 2981 
Q 2906 2981 3316 2513 
Q 3675 2106 3675 1522 
Q 3675 884 3272 434 
Q 2853 -31 2178 -31 
Q 1375 -31 922 581 
Q 481 1178 481 2228 
Q 481 3425 1013 4109 
Q 1494 4725 2272 4725 
Q 3191 4725 3609 4025 
L 3150 3775 
Q 2894 4266 2300 4266 
Q 1119 4266 1031 2328 
L 1056 2328 
z
M 2141 2547 
Q 1684 2547 1384 2206 
Q 1116 1900 1116 1541 
Q 1116 1156 1353 844 
Q 1672 428 2159 428 
Q 2669 428 2941 844 
Q 3125 1128 3125 1503 
Q 3125 1944 2881 2228 
Q 2600 2547 2141 2547 
z
" transform="scale(0.015625)"/>
      </defs>
      <use xlink:href="#IPAexGothic-36"/>
     </g>
    </g>
    <g id="line2d_27">
     <path d="M 343.260625 118.213812 
L 353.260625 118.213812 
L 363.260625 118.213812 
" style="fill: none; stroke: #e377c2; stroke-width: 1.5; stroke-linecap: square"/>
    </g>
    <g id="text_20">
     <!-- 7 -->
     <g transform="translate(371.260625 121.713812) scale(0.1 -0.1)">
      <defs>
       <path id="IPAexGothic-37" d="M 3597 4263 
Q 2238 2106 1778 63 
L 1131 63 
Q 1581 1834 2950 4128 
L 428 4128 
L 428 4634 
L 3597 4634 
L 3597 4263 
z
" transform="scale(0.015625)"/>
      </defs>
      <use xlink:href="#IPAexGothic-37"/>
     </g>
    </g>
   </g>
  </g>
  <g id="axes_2">
   <g id="matplotlib.axis_3"/>
   <g id="patch_8">
    <path d="M 29.439063 284.991437 
L 29.439063 18.879437 
" style="fill: none; stroke: #000000; stroke-width: 0.8; stroke-linejoin: miter; stroke-linecap: square"/>
   </g>
   <g id="patch_9">
    <path d="M 386.559062 284.991437 
L 386.559062 18.879437 
" style="fill: none; stroke: #000000; stroke-width: 0.8; stroke-linejoin: miter; stroke-linecap: square"/>
   </g>
   <g id="patch_10">
    <path d="M 29.439063 284.991437 
L 386.559063 284.991437 
" style="fill: none; stroke: #000000; stroke-width: 0.8; stroke-linejoin: miter; stroke-linecap: square"/>
   </g>
   <g id="patch_11">
    <path d="M 29.439063 18.879437 
L 386.559063 18.879437 
" style="fill: none; stroke: #000000; stroke-width: 0.8; stroke-linejoin: miter; stroke-linecap: square"/>
   </g>
  </g>
  <g id="text_21">
   <!-- : 2022/12/28 16:13:59(JST) -->
   <g transform="translate(211.087188 15.423437) scale(0.1 -0.1)">
    <defs>
     <path id="IPAexGothic-66f4" d="M 2956 3994 
L 2956 4588 
L 513 4588 
L 513 4984 
L 5881 4984 
L 5881 4588 
L 3413 4588 
L 3413 3994 
L 5300 3994 
L 5300 1288 
L 4838 1288 
L 4838 1759 
L 3406 1759 
Q 3384 1125 3150 709 
Q 4291 244 5997 31 
L 5694 -428 
Q 4109 -166 2906 384 
Q 2294 -266 744 -488 
L 494 -66 
Q 1903 59 2491 588 
Q 2041 813 1594 1166 
L 1928 1434 
Q 2331 1106 2747 897 
Q 2922 1219 2950 1759 
L 1556 1759 
L 1556 1413 
L 1097 1413 
L 1097 3994 
L 2956 3994 
z
M 2956 3609 
L 1556 3609 
L 1556 3078 
L 2956 3078 
L 2956 3609 
z
M 3413 3609 
L 3413 3078 
L 4838 3078 
L 4838 3609 
L 3413 3609 
z
M 2956 2700 
L 1556 2700 
L 1556 2144 
L 2956 2144 
L 2956 2700 
z
M 3413 2700 
L 3413 2144 
L 4838 2144 
L 4838 2700 
L 3413 2700 
z
" transform="scale(0.015625)"/>
     <path id="IPAexGothic-65b0" d="M 3891 2803 
Q 3881 1759 3794 1166 
Q 3653 197 3097 -563 
L 2741 -250 
Q 3450 700 3450 2631 
L 3450 4647 
Q 3516 4656 3622 4666 
Q 4656 4778 5447 5063 
L 5825 4678 
Q 4897 4419 3891 4294 
L 3891 3219 
L 6119 3219 
L 6119 2803 
L 5275 2803 
L 5275 -447 
L 4834 -447 
L 4834 2803 
L 3891 2803 
z
M 2822 4069 
Q 2678 3572 2519 3181 
L 3250 3181 
L 3250 2784 
L 2059 2784 
L 2059 2216 
L 3184 2216 
L 3184 1831 
L 2059 1831 
L 2059 1544 
Q 2613 1197 3031 847 
L 2781 456 
Q 2472 791 2059 1128 
L 2059 -447 
L 1644 -447 
L 1644 1294 
Q 1272 628 575 -31 
L 269 341 
Q 1041 938 1528 1831 
L 453 1831 
L 453 2216 
L 1644 2216 
L 1644 2784 
L 319 2784 
L 319 3181 
L 1125 3181 
Q 1013 3706 881 4069 
L 453 4069 
L 453 4453 
L 1631 4453 
L 1631 5309 
L 2072 5309 
L 2072 4453 
L 3166 4453 
L 3166 4069 
L 2822 4069 
z
M 2391 4069 
L 1325 4069 
Q 1450 3672 1534 3181 
L 2109 3181 
Q 2294 3659 2391 4069 
z
" transform="scale(0.015625)"/>
     <path id="IPAexGothic-65e5" d="M 5231 4800 
L 5231 -288 
L 4744 -288 
L 4744 128 
L 1647 128 
L 1647 -288 
L 1159 -288 
L 1159 4800 
L 5231 4800 
z
M 1647 4372 
L 1647 2731 
L 4744 2731 
L 4744 4372 
L 1647 4372 
z
M 1647 2297 
L 1647 556 
L 4744 556 
L 4744 2297 
L 1647 2297 
z
" transform="scale(0.015625)"/>
     <path id="IPAexGothic-6642" d="M 2328 4728 
L 2328 563 
L 934 563 
L 934 56 
L 519 56 
L 519 4728 
L 2328 4728 
z
M 934 4331 
L 934 2881 
L 1906 2881 
L 1906 4331 
L 934 4331 
z
M 934 2497 
L 934 953 
L 1906 953 
L 1906 2497 
L 934 2497 
z
M 3938 4372 
L 3938 5313 
L 4378 5313 
L 4378 4372 
L 5772 4372 
L 5772 3981 
L 4378 3981 
L 4378 3194 
L 6072 3194 
L 6072 2803 
L 5203 2803 
L 5203 2047 
L 5959 2047 
L 5959 1650 
L 5216 1650 
L 5216 31 
Q 5216 -447 4691 -447 
Q 4394 -447 3888 -391 
L 3784 78 
Q 4272 0 4591 0 
Q 4775 0 4775 172 
L 4775 1650 
L 2581 1650 
L 2581 2047 
L 4763 2047 
L 4763 2803 
L 2538 2803 
L 2538 3194 
L 3938 3194 
L 3938 3981 
L 2716 3981 
L 2716 4372 
L 3938 4372 
z
M 3669 384 
Q 3331 950 2956 1325 
L 3291 1575 
Q 3719 1147 4025 659 
L 3669 384 
z
" transform="scale(0.015625)"/>
     <path id="IPAexGothic-3a" d="M 1369 2559 
L 672 2559 
L 672 3250 
L 1369 3250 
L 1369 2559 
z
M 1369 63 
L 672 63 
L 672 753 
L 1369 753 
L 1369 63 
z
" transform="scale(0.015625)"/>
     <path id="IPAexGothic-20" transform="scale(0.015625)"/>
     <path id="IPAexGothic-2f" d="M 2719 4709 
L 600 -884 
L 300 -763 
L 2413 4831 
L 2719 4709 
z
" transform="scale(0.015625)"/>
     <path id="IPAexGothic-38" d="M 2541 2425 
Q 3700 2031 3700 1197 
Q 3700 541 3100 197 
Q 2663 -56 2016 -56 
Q 1366 -56 928 197 
Q 347 531 347 1178 
Q 347 1988 1409 2381 
L 1409 2400 
Q 481 2734 481 3509 
Q 481 4100 981 4456 
Q 1406 4756 2019 4756 
Q 2703 4756 3131 4403 
Q 3553 4069 3553 3566 
Q 3553 2706 2541 2444 
L 2541 2425 
z
M 2022 2625 
Q 2997 2856 2997 3528 
Q 2997 3916 2675 4150 
Q 2413 4347 2016 4347 
Q 1606 4347 1331 4128 
Q 1050 3897 1050 3522 
Q 1050 3150 1350 2925 
Q 1494 2809 1722 2722 
Q 1984 2616 2022 2625 
z
M 1978 2209 
Q 922 1931 922 1216 
Q 922 775 1313 556 
Q 1606 391 2009 391 
Q 2575 391 2881 697 
Q 3106 922 3106 1250 
Q 3106 1594 2794 1850 
Q 2609 1994 2350 2100 
Q 2047 2222 1978 2209 
z
" transform="scale(0.015625)"/>
     <path id="IPAexGothic-39" d="M 2984 2356 
Q 2544 1716 1813 1716 
Q 1253 1716 847 2056 
Q 366 2459 366 3163 
Q 366 3813 769 4266 
Q 1181 4725 1869 4725 
Q 2800 4725 3241 3950 
Q 3559 3378 3559 2472 
Q 3559 1250 3041 588 
Q 2553 -31 1769 -31 
Q 859 -31 391 703 
L 853 953 
Q 1156 428 1753 428 
Q 2922 428 3009 2356 
L 2984 2356 
z
M 1888 4278 
Q 1450 4278 1172 3950 
Q 922 3653 922 3200 
Q 922 2741 1159 2478 
Q 1434 2163 1906 2163 
Q 2431 2163 2728 2572 
Q 2925 2847 2925 3169 
Q 2925 3553 2694 3863 
Q 2375 4278 1888 4278 
z
" transform="scale(0.015625)"/>
     <path id="IPAexGothic-28" d="M 1928 -1016 
L 1653 -1166 
Q 488 69 488 1875 
Q 488 3678 1653 4909 
L 1928 4763 
Q 1006 3522 1006 1881 
Q 1006 203 1928 -1016 
z
" transform="scale(0.015625)"/>
     <path id="IPAexGothic-54" d="M 3866 4141 
L 2175 4141 
L 2175 63 
L 1606 63 
L 1606 4141 
L -31 4141 
L -31 4634 
L 3866 4634 
L 3866 4141 
z
" transform="scale(0.015625)"/>
     <path id="IPAexGothic-29" d="M 466 4909 
Q 1638 3672 1638 1875 
Q 1638 75 466 -1166 
L 191 -1016 
Q 1119 216 1119 1881 
Q 1119 3509 191 4763 
L 466 4909 
z
" transform="scale(0.015625)"/>
    </defs>
    <use xlink:href="#IPAexGothic-66f4"/>
    <use xlink:href="#IPAexGothic-65b0" x="100"/>
    <use xlink:href="#IPAexGothic-65e5" x="200"/>
    <use xlink:href="#IPAexGothic-6642" x="300"/>
    <use xlink:href="#IPAexGothic-3a" x="400"/>
    <use xlink:href="#IPAexGothic-20" x="431.982422"/>
    <use xlink:href="#IPAexGothic-32" x="458.984375"/>
    <use xlink:href="#IPAexGothic-30" x="521.972656"/>
    <use xlink:href="#IPAexGothic-32" x="584.960938"/>
    <use xlink:href="#IPAexGothic-32" x="647.949219"/>
    <use xlink:href="#IPAexGothic-2f" x="710.9375"/>
    <use xlink:href="#IPAexGothic-31" x="760.9375"/>
    <use xlink:href="#IPAexGothic-32" x="823.925781"/>
    <use xlink:href="#IPAexGothic-2f" x="886.914062"/>
    <use xlink:href="#IPAexGothic-32" x="936.914062"/>
    <use xlink:href="#IPAexGothic-38" x="999.902344"/>
    <use xlink:href="#IPAexGothic-20" x="1062.890625"/>
    <use xlink:href="#IPAexGothic-31" x="1089.892578"/>
    <use xlink:href="#IPAexGothic-36" x="1152.880859"/>
    <use xlink:href="#IPAexGothic-3a" x="1215.869141"/>
    <use xlink:href="#IPAexGothic-31" x="1247.851562"/>
    <use xlink:href="#IPAexGothic-33" x="1310.839844"/>
    <use xlink:href="#IPAexGothic-3a" x="1373.828125"/>
    <use xlink:href="#IPAexGothic-35" x="1405.810547"/>
    <use xlink:href="#IPAexGothic-39" x="1468.798828"/>
    <use xlink:href="#IPAexGothic-28" x="1531.787109"/>
    <use xlink:href="#IPAexGothic-4a" x="1565.087891"/>
    <use xlink:href="#IPAexGothic-53" x="1603.076172"/>
    <use xlink:href="#IPAexGothic-54" x="1661.572266"/>
    <use xlink:href="#IPAexGothic-29" x="1721.484375"/>
   </g>
  </g>
 </g>
 <defs>
  <clipPath id="p5fd1e12c47">
   <rect x="29.439063" y="18.879437" width="357.12" height="266.112"/>
  </clipPath>
 </defs>
</svg>
