<?xml version="1.0" encoding="utf-8" standalone="no"?>
<!DOCTYPE svg PUBLIC "-//W3C//DTD SVG 1.1//EN"
  "http://www.w3.org/Graphics/SVG/1.1/DTD/svg11.dtd">
<svg xmlns:xlink="http://www.w3.org/1999/xlink" width="403.5575pt" height="320.972687pt" viewBox="0 0 403.5575 320.972687" xmlns="http://www.w3.org/2000/svg" version="1.1">
 <metadata>
  <rdf:RDF xmlns:dc="http://purl.org/dc/elements/1.1/" xmlns:cc="http://creativecommons.org/ns#" xmlns:rdf="http://www.w3.org/1999/02/22-rdf-syntax-ns#">
   <cc:Work>
    <dc:type rdf:resource="http://purl.org/dc/dcmitype/StillImage"/>
    <dc:date>2022-09-09T06:34:22.374478</dc:date>
    <dc:format>image/svg+xml</dc:format>
    <dc:creator>
     <cc:Agent>
      <dc:title>Matplotlib v3.5.3, https://matplotlib.org/</dc:title>
     </cc:Agent>
    </dc:creator>
   </cc:Work>
  </rdf:RDF>
 </metadata>
 <defs>
  <style type="text/css">*{stroke-linejoin: round; stroke-linecap: butt}</style>
 </defs>
 <g id="figure_1">
  <g id="patch_1">
   <path d="M 0 320.972687 
L 403.5575 320.972687 
L 403.5575 0 
L 0 0 
z
" style="fill: #ffffff"/>
  </g>
  <g id="axes_1">
   <g id="patch_2">
    <path d="M 35.7375 284.991437 
L 392.8575 284.991437 
L 392.8575 18.879437 
L 35.7375 18.879437 
z
" style="fill: #ffffff"/>
   </g>
   <g id="line2d_1">
    <path d="M 35.7375 203.485507 
L 392.8575 203.485507 
" clip-path="url(#p362edf2ec0)" style="fill: none; stroke: #000000; stroke-linecap: square"/>
   </g>
   <g id="matplotlib.axis_1">
    <g id="xtick_1">
     <g id="line2d_2">
      <defs>
       <path id="m2fd36e6d81" d="M 0 0 
L 0 3.5 
" style="stroke: #000000; stroke-width: 0.8"/>
      </defs>
      <g>
       <use xlink:href="#m2fd36e6d81" x="35.7375" y="284.991437" style="stroke: #000000; stroke-width: 0.8"/>
      </g>
     </g>
     <g id="text_1">
      <!-- Feb -->
      <g transform="translate(26.914062 299.482062)scale(0.1 -0.1)">
       <defs>
        <path id="IPAexGothic-46" d="M 3469 4141 
L 1172 4141 
L 1172 2656 
L 3206 2656 
L 3206 2188 
L 1172 2188 
L 1172 63 
L 609 63 
L 609 4634 
L 3469 4634 
L 3469 4141 
z
" transform="scale(0.015625)"/>
        <path id="IPAexGothic-65" d="M 863 1594 
Q 891 1041 1209 722 
Q 1534 397 1997 397 
Q 2606 397 2963 966 
L 3322 728 
Q 2869 -31 1931 -31 
Q 1222 -31 766 422 
Q 306 884 306 1641 
Q 306 2444 788 2925 
Q 1216 3353 1856 3353 
Q 2459 3353 2866 2956 
Q 3322 2494 3322 1722 
L 3322 1594 
L 863 1594 
z
M 2756 1997 
Q 2709 2431 2450 2681 
Q 2194 2938 1844 2938 
Q 1438 2938 1150 2591 
Q 953 2356 894 1997 
L 2756 1997 
z
" transform="scale(0.015625)"/>
        <path id="IPAexGothic-62" d="M 1125 2731 
Q 1550 3341 2219 3341 
Q 2788 3341 3191 2938 
Q 3659 2469 3659 1644 
Q 3659 838 3191 372 
Q 2788 -31 2206 -31 
Q 1559 -31 1088 516 
L 1009 44 
L 581 44 
L 581 4794 
L 1125 4794 
L 1125 2731 
z
M 1125 1997 
L 1125 1253 
Q 1125 888 1528 600 
Q 1803 403 2119 403 
Q 2488 403 2744 659 
Q 3084 1009 3084 1631 
Q 3084 2194 2803 2553 
Q 2525 2900 2125 2900 
Q 1759 2900 1438 2578 
Q 1125 2266 1125 1997 
z
" transform="scale(0.015625)"/>
       </defs>
       <use xlink:href="#IPAexGothic-46"/>
       <use xlink:href="#IPAexGothic-65" x="57.177734"/>
       <use xlink:href="#IPAexGothic-62" x="114.0625"/>
      </g>
     </g>
    </g>
    <g id="xtick_2">
     <g id="line2d_3">
      <g>
       <use xlink:href="#m2fd36e6d81" x="80.983473" y="284.991437" style="stroke: #000000; stroke-width: 0.8"/>
      </g>
     </g>
     <g id="text_2">
      <!-- Mar -->
      <g transform="translate(71.874098 299.482062)scale(0.1 -0.1)">
       <defs>
        <path id="IPAexGothic-4d" d="M 5147 63 
L 4597 63 
L 4597 2534 
Q 4597 3281 4634 4134 
L 4609 4134 
Q 4356 3409 4066 2675 
L 3066 209 
L 2650 209 
L 1641 2725 
Q 1328 3506 1128 4141 
L 1103 4141 
Q 1141 3131 1141 2553 
L 1141 63 
L 609 63 
L 609 4634 
L 1416 4634 
L 2503 1944 
Q 2697 1472 2869 906 
L 2888 906 
Q 3028 1416 3234 1931 
L 4316 4634 
L 5147 4634 
L 5147 63 
z
" transform="scale(0.015625)"/>
        <path id="IPAexGothic-61" d="M 3156 63 
L 2672 63 
Q 2559 303 2531 556 
L 2509 556 
Q 2147 -25 1428 -25 
Q 934 -25 622 288 
Q 347 563 347 959 
Q 347 1947 2050 1997 
L 2478 2009 
L 2478 2175 
Q 2478 2509 2288 2700 
Q 2088 2900 1775 2900 
Q 1238 2900 969 2378 
L 494 2597 
Q 938 3328 1788 3328 
Q 2375 3328 2691 3000 
Q 2984 2706 2984 2169 
L 2984 997 
Q 2984 400 3156 63 
z
M 2491 1625 
L 2141 1619 
Q 903 1591 903 953 
Q 903 728 1050 581 
Q 1231 403 1525 403 
Q 1934 403 2234 703 
Q 2491 969 2491 1344 
L 2491 1625 
z
" transform="scale(0.015625)"/>
        <path id="IPAexGothic-72" d="M 2309 3316 
L 2213 2769 
Q 2106 2791 2022 2791 
Q 1653 2791 1413 2444 
Q 1113 2006 1113 1675 
L 1113 63 
L 563 63 
L 563 3250 
L 1081 3250 
L 1056 2303 
L 1069 2303 
Q 1422 3341 2097 3341 
Q 2206 3341 2309 3316 
z
" transform="scale(0.015625)"/>
       </defs>
       <use xlink:href="#IPAexGothic-4d"/>
       <use xlink:href="#IPAexGothic-61" x="90.185547"/>
       <use xlink:href="#IPAexGothic-72" x="145.166016"/>
      </g>
     </g>
    </g>
    <g id="xtick_3">
     <g id="line2d_4">
      <g>
       <use xlink:href="#m2fd36e6d81" x="131.077229" y="284.991437" style="stroke: #000000; stroke-width: 0.8"/>
      </g>
     </g>
     <g id="text_3">
      <!-- Apr -->
      <g transform="translate(122.935041 299.482062)scale(0.1 -0.1)">
       <defs>
        <path id="IPAexGothic-41" d="M 4056 63 
L 3444 63 
L 2938 1409 
L 1100 1409 
L 603 63 
L -6 63 
L 1806 4666 
L 2259 4666 
L 4056 63 
z
M 2778 1863 
L 2316 3078 
Q 2125 3588 2028 4000 
L 2009 4000 
Q 1897 3563 1716 3078 
L 1263 1863 
L 2778 1863 
z
" transform="scale(0.015625)"/>
        <path id="IPAexGothic-70" d="M 1075 2688 
Q 1525 3341 2206 3341 
Q 2769 3341 3172 2938 
Q 3641 2469 3641 1644 
Q 3641 841 3178 372 
Q 2775 -31 2200 -31 
Q 1569 -31 1106 497 
L 1106 -1216 
L 563 -1216 
L 563 3250 
L 1075 3250 
L 1075 2688 
z
M 1106 1950 
L 1106 1291 
Q 1106 897 1516 600 
Q 1791 403 2106 403 
Q 2469 403 2725 659 
Q 3066 997 3066 1631 
Q 3066 2200 2784 2559 
Q 2503 2900 2100 2900 
Q 1656 2900 1338 2484 
Q 1106 2184 1106 1950 
z
" transform="scale(0.015625)"/>
       </defs>
       <use xlink:href="#IPAexGothic-41"/>
       <use xlink:href="#IPAexGothic-70" x="63.720703"/>
       <use xlink:href="#IPAexGothic-72" x="125.830078"/>
      </g>
     </g>
    </g>
    <g id="xtick_4">
     <g id="line2d_5">
      <g>
       <use xlink:href="#m2fd36e6d81" x="179.555057" y="284.991437" style="stroke: #000000; stroke-width: 0.8"/>
      </g>
     </g>
     <g id="text_4">
      <!-- May -->
      <g transform="translate(169.835525 299.482062)scale(0.1 -0.1)">
       <defs>
        <path id="IPAexGothic-79" d="M 3122 3250 
L 1575 -488 
Q 1278 -1203 550 -1203 
L 478 -1203 
L 344 -703 
L 447 -703 
Q 969 -703 1150 -238 
L 1356 275 
L 38 3250 
L 659 3250 
L 1363 1459 
Q 1528 1025 1606 781 
L 1625 781 
Q 1750 1169 1863 1459 
L 2528 3250 
L 3122 3250 
z
" transform="scale(0.015625)"/>
       </defs>
       <use xlink:href="#IPAexGothic-4d"/>
       <use xlink:href="#IPAexGothic-61" x="90.185547"/>
       <use xlink:href="#IPAexGothic-79" x="145.166016"/>
      </g>
     </g>
    </g>
    <g id="xtick_5">
     <g id="line2d_6">
      <g>
       <use xlink:href="#m2fd36e6d81" x="229.648812" y="284.991437" style="stroke: #000000; stroke-width: 0.8"/>
      </g>
     </g>
     <g id="text_5">
      <!-- Jun -->
      <g transform="translate(221.708968 299.482062)scale(0.1 -0.1)">
       <defs>
        <path id="IPAexGothic-4a" d="M 1819 4634 
L 1819 1234 
Q 1819 -31 763 -31 
Q 303 -31 -125 209 
L 84 644 
Q 378 447 694 447 
Q 1250 447 1250 1203 
L 1250 4634 
L 1819 4634 
z
" transform="scale(0.015625)"/>
        <path id="IPAexGothic-75" d="M 3284 63 
L 2772 63 
L 2772 644 
Q 2300 0 1625 0 
Q 1072 0 763 375 
Q 519 678 519 1241 
L 519 3250 
L 1069 3250 
L 1069 1259 
Q 1069 466 1734 466 
Q 2406 466 2734 1291 
L 2734 3250 
L 3284 3250 
L 3284 63 
z
" transform="scale(0.015625)"/>
        <path id="IPAexGothic-6e" d="M 3328 63 
L 2778 63 
L 2778 2041 
Q 2778 2853 2106 2853 
Q 1428 2853 1113 2041 
L 1113 63 
L 563 63 
L 563 3250 
L 1075 3250 
L 1075 2675 
Q 1525 3316 2222 3316 
Q 3328 3316 3328 2072 
L 3328 63 
z
" transform="scale(0.015625)"/>
       </defs>
       <use xlink:href="#IPAexGothic-4a"/>
       <use xlink:href="#IPAexGothic-75" x="37.988281"/>
       <use xlink:href="#IPAexGothic-6e" x="98.388672"/>
      </g>
     </g>
    </g>
    <g id="xtick_6">
     <g id="line2d_7">
      <g>
       <use xlink:href="#m2fd36e6d81" x="278.12664" y="284.991437" style="stroke: #000000; stroke-width: 0.8"/>
      </g>
     </g>
     <g id="text_6">
      <!-- Jul -->
      <g transform="translate(271.857109 299.482062)scale(0.1 -0.1)">
       <defs>
        <path id="IPAexGothic-6c" d="M 1131 63 
L 581 63 
L 581 4794 
L 1131 4794 
L 1131 63 
z
" transform="scale(0.015625)"/>
       </defs>
       <use xlink:href="#IPAexGothic-4a"/>
       <use xlink:href="#IPAexGothic-75" x="37.988281"/>
       <use xlink:href="#IPAexGothic-6c" x="98.388672"/>
      </g>
     </g>
    </g>
    <g id="xtick_7">
     <g id="line2d_8">
      <g>
       <use xlink:href="#m2fd36e6d81" x="328.220396" y="284.991437" style="stroke: #000000; stroke-width: 0.8"/>
      </g>
     </g>
     <g id="text_7">
      <!-- Aug -->
      <g transform="translate(319.238365 299.42425)scale(0.1 -0.1)">
       <defs>
        <path id="IPAexGothic-67" d="M 1331 1150 
Q 1006 1122 1006 900 
Q 1006 613 1763 575 
L 2131 556 
Q 3303 497 3303 -294 
Q 3303 -700 2925 -959 
Q 2519 -1253 1794 -1253 
Q 1138 -1253 738 -1028 
Q 353 -809 353 -428 
Q 353 84 1075 247 
L 1075 269 
Q 506 413 506 778 
Q 506 1116 994 1297 
Q 456 1575 456 2181 
Q 456 2650 769 2963 
Q 1128 3322 1738 3322 
Q 2125 3322 2422 3153 
Q 2650 3453 3259 3463 
L 3259 3013 
Q 2838 3003 2703 2938 
Q 3034 2613 3034 2169 
Q 3034 1728 2734 1425 
Q 2400 1094 1813 1094 
Q 1563 1094 1331 1150 
z
M 1734 2919 
Q 1409 2919 1197 2706 
Q 988 2497 988 2181 
Q 988 1872 1184 1684 
Q 1397 1472 1756 1472 
Q 2094 1472 2297 1678 
Q 2503 1881 2503 2203 
Q 2503 2497 2297 2700 
Q 2081 2919 1734 2919 
z
M 1753 159 
Q 903 159 903 -366 
Q 903 -875 1800 -875 
Q 2378 -875 2638 -606 
Q 2772 -481 2772 -313 
Q 2772 159 1753 159 
z
" transform="scale(0.015625)"/>
       </defs>
       <use xlink:href="#IPAexGothic-41"/>
       <use xlink:href="#IPAexGothic-75" x="63.720703"/>
       <use xlink:href="#IPAexGothic-67" x="124.121094"/>
      </g>
     </g>
    </g>
    <g id="xtick_8">
     <g id="line2d_9">
      <g>
       <use xlink:href="#m2fd36e6d81" x="378.314152" y="284.991437" style="stroke: #000000; stroke-width: 0.8"/>
      </g>
     </g>
     <g id="text_8">
      <!-- Sep -->
      <g transform="translate(369.439152 299.482062)scale(0.1 -0.1)">
       <defs>
        <path id="IPAexGothic-53" d="M 2919 3641 
Q 2563 4259 1853 4259 
Q 1453 4259 1213 4009 
Q 1028 3803 1028 3534 
Q 1028 3238 1266 3047 
Q 1444 2913 1984 2688 
L 2200 2597 
Q 2925 2306 3191 1953 
Q 3422 1644 3422 1259 
Q 3422 644 2969 288 
Q 2559 -31 1931 -31 
Q 881 -31 313 766 
L 753 1100 
Q 1203 459 1938 459 
Q 2288 459 2534 625 
Q 2841 847 2841 1216 
Q 2841 1503 2616 1728 
Q 2375 1959 1728 2206 
L 1541 2278 
Q 453 2694 453 3481 
Q 453 4006 806 4347 
Q 1203 4725 1863 4725 
Q 2841 4725 3359 3956 
L 2919 3641 
z
" transform="scale(0.015625)"/>
       </defs>
       <use xlink:href="#IPAexGothic-53"/>
       <use xlink:href="#IPAexGothic-65" x="58.496094"/>
       <use xlink:href="#IPAexGothic-70" x="115.380859"/>
      </g>
     </g>
    </g>
    <g id="text_9">
     <!-- 2022 -->
     <g transform="translate(367.66375 311.872687)scale(0.1 -0.1)">
      <defs>
       <path id="IPAexGothic-32" d="M 3659 63 
L 447 63 
L 447 594 
Q 825 1475 1894 2203 
L 2072 2322 
Q 2619 2697 2791 2906 
Q 2988 3153 2988 3444 
Q 2988 3772 2756 4003 
Q 2500 4259 2084 4259 
Q 1250 4259 991 3328 
L 497 3506 
Q 853 4725 2116 4725 
Q 2806 4725 3216 4316 
Q 3575 3947 3575 3425 
Q 3575 3038 3344 2722 
Q 3131 2416 2366 1938 
L 2231 1856 
Q 1256 1253 978 569 
L 3659 569 
L 3659 63 
z
" transform="scale(0.015625)"/>
       <path id="IPAexGothic-30" d="M 2038 4725 
Q 2881 4725 3334 3944 
Q 3694 3325 3694 2344 
Q 3694 1372 3334 741 
Q 2888 -31 2016 -31 
Q 1147 -31 700 741 
Q 341 1372 341 2350 
Q 341 3713 1000 4334 
Q 1419 4725 2038 4725 
z
M 2016 4266 
Q 1516 4266 1228 3759 
Q 934 3247 934 2344 
Q 934 1456 1222 947 
Q 1513 447 2016 447 
Q 2619 447 2909 1153 
Q 3100 1622 3100 2375 
Q 3100 3256 2806 3759 
Q 2509 4266 2016 4266 
z
" transform="scale(0.015625)"/>
      </defs>
      <use xlink:href="#IPAexGothic-32"/>
      <use xlink:href="#IPAexGothic-30" x="62.988281"/>
      <use xlink:href="#IPAexGothic-32" x="125.976562"/>
      <use xlink:href="#IPAexGothic-32" x="188.964844"/>
     </g>
    </g>
   </g>
   <g id="matplotlib.axis_2">
    <g id="ytick_1">
     <g id="line2d_10">
      <defs>
       <path id="m293dc0680c" d="M 0 0 
L -3.5 0 
" style="stroke: #000000; stroke-width: 0.8"/>
      </defs>
      <g>
       <use xlink:href="#m293dc0680c" x="35.7375" y="264.522941" style="stroke: #000000; stroke-width: 0.8"/>
      </g>
     </g>
     <g id="text_10">
      <!-- 0.50 -->
      <g transform="translate(7.2 268.268254)scale(0.1 -0.1)">
       <defs>
        <path id="IPAexGothic-2e" d="M 1184 63 
L 494 63 
L 494 753 
L 1184 753 
L 1184 63 
z
" transform="scale(0.015625)"/>
        <path id="IPAexGothic-35" d="M 1178 2603 
Q 1634 2963 2172 2963 
Q 2816 2963 3241 2528 
Q 3638 2113 3638 1497 
Q 3638 938 3297 513 
Q 2869 -31 2031 -31 
Q 959 -31 469 784 
L 938 1028 
Q 1309 434 2013 434 
Q 2466 434 2769 716 
Q 3081 1013 3081 1503 
Q 3081 1966 2806 2241 
Q 2519 2528 2056 2528 
Q 1406 2528 1072 2028 
L 591 2091 
L 884 4634 
L 3406 4634 
L 3406 4153 
L 1341 4153 
L 1134 2603 
L 1178 2603 
z
" transform="scale(0.015625)"/>
       </defs>
       <use xlink:href="#IPAexGothic-30"/>
       <use xlink:href="#IPAexGothic-2e" x="62.988281"/>
       <use xlink:href="#IPAexGothic-35" x="89.404297"/>
       <use xlink:href="#IPAexGothic-30" x="152.392578"/>
      </g>
     </g>
    </g>
    <g id="ytick_2">
     <g id="line2d_11">
      <g>
       <use xlink:href="#m293dc0680c" x="35.7375" y="234.004224" style="stroke: #000000; stroke-width: 0.8"/>
      </g>
     </g>
     <g id="text_11">
      <!-- 0.75 -->
      <g transform="translate(7.2 237.749537)scale(0.1 -0.1)">
       <defs>
        <path id="IPAexGothic-37" d="M 3597 4263 
Q 2238 2106 1778 63 
L 1131 63 
Q 1581 1834 2950 4128 
L 428 4128 
L 428 4634 
L 3597 4634 
L 3597 4263 
z
" transform="scale(0.015625)"/>
       </defs>
       <use xlink:href="#IPAexGothic-30"/>
       <use xlink:href="#IPAexGothic-2e" x="62.988281"/>
       <use xlink:href="#IPAexGothic-37" x="89.404297"/>
       <use xlink:href="#IPAexGothic-35" x="152.392578"/>
      </g>
     </g>
    </g>
    <g id="ytick_3">
     <g id="line2d_12">
      <g>
       <use xlink:href="#m293dc0680c" x="35.7375" y="203.485507" style="stroke: #000000; stroke-width: 0.8"/>
      </g>
     </g>
     <g id="text_12">
      <!-- 1.00 -->
      <g transform="translate(7.2 207.230819)scale(0.1 -0.1)">
       <defs>
        <path id="IPAexGothic-31" d="M 2463 63 
L 1900 63 
L 1900 4103 
Q 1372 3922 788 3797 
L 684 4231 
Q 1519 4441 2106 4731 
L 2463 4731 
L 2463 63 
z
" transform="scale(0.015625)"/>
       </defs>
       <use xlink:href="#IPAexGothic-31"/>
       <use xlink:href="#IPAexGothic-2e" x="62.988281"/>
       <use xlink:href="#IPAexGothic-30" x="89.404297"/>
       <use xlink:href="#IPAexGothic-30" x="152.392578"/>
      </g>
     </g>
    </g>
    <g id="ytick_4">
     <g id="line2d_13">
      <g>
       <use xlink:href="#m293dc0680c" x="35.7375" y="172.96679" style="stroke: #000000; stroke-width: 0.8"/>
      </g>
     </g>
     <g id="text_13">
      <!-- 1.25 -->
      <g transform="translate(7.2 176.712102)scale(0.1 -0.1)">
       <use xlink:href="#IPAexGothic-31"/>
       <use xlink:href="#IPAexGothic-2e" x="62.988281"/>
       <use xlink:href="#IPAexGothic-32" x="89.404297"/>
       <use xlink:href="#IPAexGothic-35" x="152.392578"/>
      </g>
     </g>
    </g>
    <g id="ytick_5">
     <g id="line2d_14">
      <g>
       <use xlink:href="#m293dc0680c" x="35.7375" y="142.448073" style="stroke: #000000; stroke-width: 0.8"/>
      </g>
     </g>
     <g id="text_14">
      <!-- 1.50 -->
      <g transform="translate(7.2 146.193385)scale(0.1 -0.1)">
       <use xlink:href="#IPAexGothic-31"/>
       <use xlink:href="#IPAexGothic-2e" x="62.988281"/>
       <use xlink:href="#IPAexGothic-35" x="89.404297"/>
       <use xlink:href="#IPAexGothic-30" x="152.392578"/>
      </g>
     </g>
    </g>
    <g id="ytick_6">
     <g id="line2d_15">
      <g>
       <use xlink:href="#m293dc0680c" x="35.7375" y="111.929355" style="stroke: #000000; stroke-width: 0.8"/>
      </g>
     </g>
     <g id="text_15">
      <!-- 1.75 -->
      <g transform="translate(7.2 115.674668)scale(0.1 -0.1)">
       <use xlink:href="#IPAexGothic-31"/>
       <use xlink:href="#IPAexGothic-2e" x="62.988281"/>
       <use xlink:href="#IPAexGothic-37" x="89.404297"/>
       <use xlink:href="#IPAexGothic-35" x="152.392578"/>
      </g>
     </g>
    </g>
    <g id="ytick_7">
     <g id="line2d_16">
      <g>
       <use xlink:href="#m293dc0680c" x="35.7375" y="81.410638" style="stroke: #000000; stroke-width: 0.8"/>
      </g>
     </g>
     <g id="text_16">
      <!-- 2.00 -->
      <g transform="translate(7.2 85.155951)scale(0.1 -0.1)">
       <use xlink:href="#IPAexGothic-32"/>
       <use xlink:href="#IPAexGothic-2e" x="62.988281"/>
       <use xlink:href="#IPAexGothic-30" x="89.404297"/>
       <use xlink:href="#IPAexGothic-30" x="152.392578"/>
      </g>
     </g>
    </g>
    <g id="ytick_8">
     <g id="line2d_17">
      <g>
       <use xlink:href="#m293dc0680c" x="35.7375" y="50.891921" style="stroke: #000000; stroke-width: 0.8"/>
      </g>
     </g>
     <g id="text_17">
      <!-- 2.25 -->
      <g transform="translate(7.2 54.637233)scale(0.1 -0.1)">
       <use xlink:href="#IPAexGothic-32"/>
       <use xlink:href="#IPAexGothic-2e" x="62.988281"/>
       <use xlink:href="#IPAexGothic-32" x="89.404297"/>
       <use xlink:href="#IPAexGothic-35" x="152.392578"/>
      </g>
     </g>
    </g>
    <g id="ytick_9">
     <g id="line2d_18">
      <g>
       <use xlink:href="#m293dc0680c" x="35.7375" y="20.373204" style="stroke: #000000; stroke-width: 0.8"/>
      </g>
     </g>
     <g id="text_18">
      <!-- 2.50 -->
      <g transform="translate(7.2 24.118516)scale(0.1 -0.1)">
       <use xlink:href="#IPAexGothic-32"/>
       <use xlink:href="#IPAexGothic-2e" x="62.988281"/>
       <use xlink:href="#IPAexGothic-35" x="89.404297"/>
       <use xlink:href="#IPAexGothic-30" x="152.392578"/>
      </g>
     </g>
    </g>
   </g>
   <g id="line2d_19">
    <path d="M 47.048993 246.764939 
L 48.664921 252.025255 
L 50.280848 237.526584 
L 51.896776 216.985322 
L 53.512704 244.687429 
L 55.128631 217.229148 
L 56.744559 200.778852 
L 58.360486 200.790801 
L 59.976414 206.122014 
L 61.592342 171.133519 
L 63.208269 171.22436 
L 64.824197 134.588505 
L 66.440124 74.827759 
L 68.056052 156.078477 
L 69.67198 66.40717 
L 71.287907 51.742833 
L 72.903835 178.575122 
L 74.519762 147.743961 
L 76.13569 167.414814 
L 77.751618 202.924502 
L 68.056052 203.485507 
L 69.67198 203.485507 
L 77.751618 203.485507 
L 79.367545 213.751459 
L 80.983473 235.380804 
L 82.5994 255.089026 
L 84.215328 177.951635 
L 85.831256 234.261188 
L 87.447183 242.665646 
L 89.063111 244.246253 
L 90.679038 233.186855 
L 92.294966 234.01953 
L 93.910894 228.306711 
L 95.526821 242.632728 
L 97.142749 258.241949 
L 98.758676 218.779021 
L 100.374604 196.221145 
L 101.990532 155.170123 
L 103.606459 188.587109 
L 105.222387 166.549005 
L 106.838314 225.090323 
L 108.454242 182.097554 
L 110.07017 222.578799 
L 111.686097 211.702952 
L 113.302025 244.641749 
L 114.917952 215.749503 
L 116.53388 231.390981 
L 118.149808 99.500989 
L 119.765735 173.221782 
L 121.381663 178.369357 
L 122.99759 208.496101 
L 124.613518 191.755816 
L 126.229446 195.19815 
L 127.845373 189.980398 
L 129.461301 257.478647 
L 131.077229 249.283993 
L 132.693156 164.343531 
L 134.309084 192.886679 
L 135.925011 210.058887 
L 137.540939 210.130432 
L 139.156867 202.336034 
L 140.772794 202.338195 
L 142.388722 177.570736 
L 144.004649 217.104907 
L 145.620577 221.435178 
L 147.236505 182.441573 
L 148.852432 180.580175 
L 150.46836 197.957641 
L 152.084287 130.058376 
L 153.700215 117.661469 
L 155.316143 186.786379 
L 156.93207 170.33154 
L 158.547998 199.339318 
L 160.163925 199.36729 
L 161.779853 182.83858 
L 163.395781 187.011442 
L 165.011708 220.053339 
L 166.627636 187.811992 
L 168.243563 190.713443 
L 169.859491 186.027555 
L 171.475419 164.072866 
L 173.091346 219.833001 
L 174.707274 234.615348 
L 176.323201 228.990571 
L 177.939129 254.970143 
L 179.555057 234.259697 
L 181.170984 240.185174 
L 182.786912 257.538029 
L 184.402839 243.305776 
L 186.018767 247.76608 
L 187.634695 228.008753 
L 189.250622 30.975437 
L 190.86655 139.05485 
L 192.482477 134.576213 
L 194.098405 150.865065 
L 195.714333 140.117768 
L 197.33026 157.212876 
L 198.946188 155.348274 
L 200.562115 219.597731 
L 202.178043 208.727196 
L 203.793971 224.869401 
L 205.409898 196.123822 
L 207.025826 194.548969 
L 208.641753 175.537932 
L 210.257681 222.36709 
L 211.873609 207.300044 
L 213.489536 234.687017 
L 215.105464 201.826905 
L 216.721391 213.042625 
L 218.337319 228.693374 
L 219.953247 245.878005 
L 221.569174 224.721044 
L 223.185102 232.065687 
L 224.801029 214.557267 
L 226.416957 220.551233 
L 228.032885 247.065516 
L 229.648812 228.683818 
L 231.26474 232.827425 
L 232.880667 226.698225 
L 234.496595 237.62096 
L 236.112523 232.715103 
L 237.72845 239.022386 
L 239.344378 233.460845 
L 240.960305 258.550637 
L 242.576233 233.831019 
L 244.192161 241.843884 
L 245.808088 241.042411 
L 247.424016 188.051594 
L 249.039943 210.499396 
L 250.655871 272.895437 
L 252.271799 211.843552 
L 253.887726 227.496268 
L 255.503654 203.485507 
L 257.119581 173.595768 
L 258.735509 209.18892 
L 261.967364 108.328625 
L 263.583292 97.578952 
L 265.199219 129.275398 
L 266.815147 158.523115 
L 268.431075 144.469418 
L 270.047002 192.845645 
L 271.66293 189.387053 
L 273.278857 128.957579 
L 274.894785 126.086546 
L 278.12664 131.477171 
L 279.742568 106.927082 
L 281.358495 127.338125 
L 282.974423 100.986262 
L 284.590351 72.4685 
L 286.206278 104.040335 
L 287.822206 109.019272 
L 289.438133 97.065923 
L 291.054061 104.016235 
L 292.669989 96.357928 
L 294.285916 167.550364 
L 295.901844 95.715007 
L 297.517771 142.895225 
L 299.133699 136.948484 
L 300.749627 154.611992 
L 302.365554 181.699085 
L 303.981482 172.213917 
L 305.59741 188.365733 
L 307.213337 213.374488 
L 308.829265 153.393738 
L 310.445192 163.483704 
L 312.06112 188.30806 
L 313.677048 170.060811 
L 315.292975 182.650783 
L 316.908903 184.166255 
L 318.52483 163.35185 
L 320.140758 179.538248 
L 321.756686 193.578036 
L 323.372613 186.601857 
L 324.988541 174.166788 
L 326.604468 183.445376 
L 328.220396 196.817109 
L 329.836324 190.633767 
L 331.452251 180.066955 
L 334.684106 173.342573 
L 336.300034 191.688597 
L 337.915962 182.981875 
L 339.531889 172.448728 
L 341.147817 177.822713 
L 342.763744 185.324791 
L 344.379672 196.525236 
L 345.9956 218.940824 
L 347.611527 199.877308 
L 349.227455 210.925537 
L 350.843382 196.133671 
L 352.45931 209.905716 
L 354.075238 194.537808 
L 355.691165 186.539442 
L 357.307093 142.554572 
L 358.92302 161.74388 
L 360.538948 176.492958 
L 362.154876 196.891256 
L 363.770803 178.726653 
L 365.386731 203.983907 
L 367.002658 209.524372 
L 368.618586 224.930234 
L 370.234514 242.920052 
L 371.850441 234.899823 
L 373.466369 235.258809 
L 375.082296 241.352467 
L 376.698224 245.886082 
L 379.930079 246.421774 
L 381.546007 236.953151 
L 383.161934 246.204642 
L 384.777862 235.14378 
L 386.39379 222.204148 
L 388.009717 234.599267 
L 389.625645 233.724332 
L 391.241572 221.848655 
L 391.241572 221.848655 
" clip-path="url(#p362edf2ec0)" style="fill: none; stroke: #1f77b4; stroke-width: 1.5; stroke-linecap: square"/>
   </g>
   <g id="line2d_20">
    <path d="M 48.664921 249.440523 
L 50.280848 245.101843 
L 51.896776 227.793952 
L 53.512704 231.854536 
L 55.128631 231.959812 
L 56.744559 209.294578 
L 58.360486 200.784827 
L 59.976414 203.485507 
L 61.592342 189.74988 
L 64.824197 153.880914 
L 66.440124 106.738812 
L 68.056052 119.418095 
L 69.67198 115.985145 
L 71.287907 59.175891 
L 72.903835 124.943474 
L 74.519762 163.892844 
L 76.13569 157.867571 
L 77.751618 186.296888 
L 68.056052 203.205326 
L 69.67198 203.485507 
L 77.751618 203.485507 
L 79.367545 208.731189 
L 80.983473 225.146829 
L 82.5994 245.841644 
L 84.215328 223.569263 
L 85.831256 209.471797 
L 87.447183 238.56485 
L 89.063111 243.459753 
L 90.679038 238.892782 
L 92.294966 233.604135 
L 93.910894 231.206347 
L 95.526821 235.754932 
L 97.142749 250.843853 
L 98.758676 240.776221 
L 101.990532 177.107878 
L 103.606459 172.789602 
L 105.222387 177.97885 
L 106.838314 199.164645 
L 108.454242 205.503234 
L 110.07017 204.011918 
L 111.686097 217.277334 
L 113.302025 229.575031 
L 114.917952 231.296146 
L 116.53388 223.870536 
L 118.149808 179.656724 
L 119.765735 139.986754 
L 121.381663 175.817687 
L 122.99759 194.294196 
L 124.613518 200.405536 
L 126.229446 193.488198 
L 127.845373 192.614869 
L 129.461301 229.484784 
L 131.077229 253.497709 
L 132.693156 214.668367 
L 134.309084 179.309787 
L 135.925011 201.770193 
L 137.540939 210.094665 
L 140.772794 202.337115 
L 142.388722 190.521099 
L 144.004649 198.870653 
L 145.620577 219.292097 
L 147.236505 203.485507 
L 148.852432 181.513881 
L 150.46836 189.546148 
L 152.084287 167.615481 
L 153.700215 123.955187 
L 155.316143 155.704666 
L 156.93207 178.789377 
L 158.547998 185.58485 
L 160.163925 199.353305 
L 161.779853 191.357158 
L 163.395781 184.940489 
L 165.011708 204.65592 
L 166.627636 205.005725 
L 168.243563 189.270438 
L 169.859491 188.390507 
L 171.475419 175.451056 
L 173.091346 194.894196 
L 174.707274 227.502336 
L 176.323201 231.84515 
L 177.939129 242.995947 
L 179.555057 245.280016 
L 181.170984 237.272132 
L 182.786912 249.353935 
L 184.402839 250.759634 
L 186.018767 245.567009 
L 187.634695 238.44574 
L 189.250622 156.039761 
L 190.86655 91.163877 
L 192.482477 136.828816 
L 194.098405 142.902122 
L 195.714333 145.571615 
L 197.33026 148.871951 
L 198.946188 156.283142 
L 200.562115 191.261737 
L 202.178043 214.29514 
L 203.793971 217.098185 
L 205.409898 211.397804 
L 207.025826 195.338776 
L 208.641753 185.365328 
L 210.257681 201.136468 
L 211.873609 215.090144 
L 213.489536 221.894019 
L 215.105464 219.522288 
L 216.721391 207.567953 
L 218.337319 221.160869 
L 219.953247 237.704856 
L 221.569174 235.921562 
L 223.185102 228.462786 
L 224.801029 223.686919 
L 226.416957 217.595839 
L 228.032885 234.77118 
L 229.648812 238.35767 
L 231.26474 230.778262 
L 232.880667 229.811856 
L 234.496595 232.319399 
L 236.112523 235.20132 
L 237.72845 235.924204 
L 239.344378 236.284913 
L 240.960305 247.001064 
L 242.576233 247.159099 
L 244.192161 237.928989 
L 245.808088 241.444102 
L 247.424016 217.75517 
L 249.039943 199.775261 
L 250.655871 247.716433 
L 252.271799 248.17246 
L 253.887726 219.959529 
L 255.503654 216.147566 
L 257.119581 189.358101 
L 258.735509 192.577886 
L 260.351437 186.866044 
L 261.967364 136.065648 
L 263.583292 103.018686 
L 265.199219 114.020004 
L 266.815147 144.488829 
L 268.431075 151.638159 
L 270.047002 170.53316 
L 271.66293 191.127471 
L 273.278857 161.93869 
L 274.894785 127.527265 
L 276.510713 127.427011 
L 278.12664 130.122547 
L 279.742568 119.567536 
L 281.358495 117.382607 
L 282.974423 114.573205 
L 284.590351 87.153405 
L 286.206278 88.78005 
L 287.822206 106.543952 
L 289.438133 103.122877 
L 291.054061 100.567915 
L 292.669989 100.219613 
L 294.285916 135.254618 
L 295.901844 134.987898 
L 297.517771 120.658597 
L 299.133699 139.945668 
L 300.749627 145.997301 
L 302.365554 168.739283 
L 303.981482 177.032198 
L 305.59741 180.514477 
L 307.213337 201.498686 
L 308.829265 186.583158 
L 310.445192 158.514886 
L 312.06112 176.411462 
L 313.677048 179.469051 
L 315.292975 176.48865 
L 316.908903 183.410539 
L 318.52483 174.116221 
L 320.140758 171.657699 
L 321.756686 186.735515 
L 323.372613 190.13486 
L 324.988541 180.517525 
L 326.604468 178.87943 
L 328.220396 190.296377 
L 329.836324 193.761695 
L 331.452251 185.449941 
L 333.068179 178.383901 
L 334.684106 175.021231 
L 336.300034 182.810006 
L 337.915962 187.403807 
L 339.531889 177.809135 
L 341.147817 175.159721 
L 342.763744 181.62262 
L 344.379672 191.041536 
L 345.9956 208.267287 
L 347.611527 209.80083 
L 349.227455 205.528471 
L 350.843382 203.753933 
L 352.45931 203.213322 
L 354.075238 202.461349 
L 355.691165 190.597864 
L 357.307093 166.056025 
L 358.92302 152.41486 
L 362.154876 187.06715 
L 363.770803 188.10869 
L 365.386731 191.950774 
L 367.002658 206.786441 
L 368.618586 217.501505 
L 370.234514 234.367681 
L 371.850441 239.00278 
L 373.466369 235.079494 
L 375.082296 238.35885 
L 376.698224 243.650635 
L 378.314152 246.045118 
L 379.930079 246.312881 
L 381.546007 241.821186 
L 383.161934 241.706387 
L 384.777862 240.85456 
L 386.39379 228.890224 
L 388.009717 228.599574 
L 389.625645 234.162847 
L 391.241572 227.966964 
L 391.241572 227.966964 
" clip-path="url(#p362edf2ec0)" style="fill: none; stroke: #ff7f0e; stroke-width: 1.5; stroke-linecap: square"/>
   </g>
   <g id="line2d_21">
    <path d="M 50.280848 245.660072 
L 51.896776 236.648844 
L 53.512704 233.784703 
L 55.128631 227.213101 
L 56.744559 222.544916 
L 58.360486 206.526416 
L 59.976414 202.589876 
L 61.592342 193.534683 
L 63.208269 183.835968 
L 64.824197 159.835956 
L 66.440124 130.778217 
L 68.056052 124.60428 
L 69.67198 103.077334 
L 71.287907 96.448787 
L 72.903835 107.070891 
L 74.519762 132.851244 
L 76.13569 165.075464 
L 77.751618 174.477424 
L 68.056052 192.279777 
L 69.67198 203.298791 
L 71.287907 203.485507 
L 77.751618 203.485507 
L 79.367545 207.008165 
L 80.983473 218.391101 
L 82.5994 236.325957 
L 84.215328 227.669035 
L 85.831256 227.26558 
L 87.447183 221.7991 
L 89.063111 240.501441 
L 90.679038 240.169107 
L 92.294966 237.297894 
L 93.910894 231.87119 
L 95.526821 235.180151 
L 97.142749 243.981116 
L 98.758676 241.399629 
L 100.374604 227.959611 
L 101.990532 192.548583 
L 103.606459 181.037384 
L 105.222387 170.737102 
L 106.838314 195.732822 
L 108.454242 193.714042 
L 110.07017 211.488519 
L 111.686097 206.631654 
L 113.302025 227.297426 
L 114.917952 225.171621 
L 116.53388 231.327768 
L 118.149808 192.843579 
L 119.765735 177.542526 
L 121.381663 153.780902 
L 122.99759 187.615615 
L 124.613518 193.453465 
L 126.229446 198.693274 
L 127.845373 192.329133 
L 129.461301 219.196872 
L 131.077229 236.598198 
L 132.693156 231.311316 
L 134.309084 207.837252 
L 135.925011 190.375655 
L 137.540939 204.622139 
L 139.156867 207.564311 
L 140.772794 204.991662 
L 142.388722 194.580199 
L 144.004649 200.037209 
L 145.620577 206.888938 
L 147.236505 208.205448 
L 148.852432 196.28363 
L 150.46836 187.218034 
L 152.084287 172.060995 
L 153.700215 152.46407 
L 155.316143 147.55334 
L 156.93207 160.727349 
L 158.547998 185.986511 
L 160.163925 190.338614 
L 161.779853 194.072445 
L 163.395781 189.923946 
L 165.011708 197.781723 
L 166.627636 199.283535 
L 168.243563 200.418401 
L 169.859491 188.197939 
L 171.475419 180.721394 
L 173.091346 192.003089 
L 176.323201 228.000946 
L 177.939129 240.291938 
L 179.555057 240.180931 
L 181.170984 243.616446 
L 182.786912 244.622379 
L 184.402839 247.388983 
L 186.018767 249.774806 
L 187.634695 240.096848 
L 192.482477 106.633104 
L 194.098405 141.628598 
L 195.714333 141.97868 
L 197.33026 149.538836 
L 198.946188 151.057652 
L 200.562115 180.755463 
L 202.178043 197.355914 
L 203.793971 217.937851 
L 205.409898 210.514454 
L 207.025826 206.037179 
L 208.641753 189.047349 
L 210.257681 198.978286 
L 211.873609 203.225884 
L 213.489536 222.05195 
L 215.105464 215.595424 
L 216.721391 217.40496 
L 218.337319 215.077569 
L 219.953247 230.152027 
L 221.569174 233.574174 
L 223.185102 234.654271 
L 224.801029 224.032801 
L 226.416957 222.652235 
L 228.032885 228.47932 
L 229.648812 232.785793 
L 231.26474 236.551906 
L 232.880667 229.437311 
L 234.496595 232.489049 
L 236.112523 232.451487 
L 237.72845 236.493396 
L 239.344378 235.110494 
L 240.960305 244.426782 
L 242.576233 242.835797 
L 244.192161 245.425956 
L 245.808088 238.979335 
L 247.424016 226.4703 
L 249.039943 215.388897 
L 250.655871 231.459566 
L 252.271799 237.233787 
L 253.887726 241.816679 
L 255.503654 214.731306 
L 257.119581 203.485507 
L 258.735509 196.317961 
L 260.351437 182.576644 
L 261.967364 164.490777 
L 263.583292 124.018835 
L 265.199219 112.139642 
L 266.815147 130.036426 
L 268.431075 144.482359 
L 270.047002 166.62896 
L 271.66293 177.09131 
L 273.278857 172.967725 
L 276.510713 127.938519 
L 278.12664 128.786369 
L 279.742568 122.677908 
L 281.358495 122.191002 
L 284.590351 101.380426 
L 286.206278 92.920777 
L 287.822206 95.728361 
L 289.438133 103.429118 
L 291.054061 103.421062 
L 292.669989 99.173249 
L 294.285916 125.364693 
L 295.901844 122.894854 
L 297.517771 137.660993 
L 299.133699 126.239168 
L 300.749627 144.969174 
L 302.365554 158.787274 
L 307.213337 192.417977 
L 308.829265 187.179908 
L 310.445192 179.274438 
L 312.06112 169.102872 
L 313.677048 174.323932 
L 315.292975 180.537422 
L 316.908903 179.093089 
L 318.52483 177.016254 
L 320.140758 175.945572 
L 321.756686 179.341741 
L 323.372613 186.690977 
L 324.988541 185.008657 
L 326.604468 181.500116 
L 328.220396 185.120434 
L 329.836324 190.408934 
L 331.452251 189.34635 
L 333.068179 182.586025 
L 334.684106 176.722288 
L 336.300034 180.795687 
L 337.915962 182.867319 
L 339.531889 182.588559 
L 341.147817 177.813661 
L 342.763744 178.627416 
L 344.379672 186.772195 
L 345.9956 201.070407 
L 349.227455 210.176953 
L 350.843382 202.475196 
L 352.45931 205.840051 
L 354.075238 200.387265 
L 355.691165 197.367719 
L 357.307093 176.178793 
L 358.92302 164.631405 
L 360.538948 160.844646 
L 362.154876 179.0939 
L 363.770803 184.340999 
L 365.386731 193.618327 
L 367.002658 198.086057 
L 368.618586 213.171466 
L 370.234514 226.742021 
L 371.850441 234.545408 
L 373.466369 237.772363 
L 375.082296 237.220759 
L 378.314152 244.510701 
L 379.930079 246.170869 
L 381.546007 243.308324 
L 383.161934 243.308602 
L 384.777862 239.57356 
L 388.009717 230.83198 
L 389.625645 230.338839 
L 391.241572 230.229793 
L 391.241572 230.229793 
" clip-path="url(#p362edf2ec0)" style="fill: none; stroke: #2ca02c; stroke-width: 1.5; stroke-linecap: square"/>
   </g>
   <g id="line2d_22">
    <path d="M 51.896776 239.293547 
L 53.512704 238.730459 
L 56.744559 221.182293 
L 58.360486 217.490668 
L 61.592342 195.384229 
L 63.208269 188.279304 
L 64.824197 172.865016 
L 66.440124 141.761611 
L 68.056052 137.437023 
L 69.67198 111.411876 
L 71.287907 91.224921 
L 72.903835 120.513227 
L 74.519762 118.037552 
L 76.13569 142.14279 
L 77.751618 175.512435 
L 68.056052 182.319106 
L 69.67198 195.174134 
L 71.287907 203.345497 
L 72.903835 203.485507 
L 77.751618 203.485507 
L 79.367545 206.137147 
L 80.983473 214.844656 
L 82.5994 229.054031 
L 84.215328 224.36112 
L 85.831256 229.360406 
L 87.447183 231.364991 
L 89.063111 227.933819 
L 90.679038 238.728971 
L 92.294966 238.67157 
L 93.910894 235.131195 
L 95.526821 234.685896 
L 97.142749 241.597259 
L 98.758676 238.301688 
L 100.374604 231.854947 
L 101.990532 213.371163 
L 103.606459 191.569087 
L 105.222387 177.544004 
L 106.838314 186.601484 
L 108.454242 192.450586 
L 110.07017 201.611975 
L 111.686097 211.542165 
L 113.302025 217.547087 
L 114.917952 224.529601 
L 116.53388 226.763947 
L 118.149808 208.285078 
L 119.765735 188.188793 
L 121.381663 177.749668 
L 122.99759 169.484944 
L 124.613518 188.662523 
L 126.229446 193.891814 
L 127.845373 196.569006 
L 129.461301 212.915302 
L 131.077229 227.680818 
L 132.693156 222.342086 
L 134.309084 222.899733 
L 135.925011 208.396635 
L 137.540939 195.610662 
L 139.156867 204.05462 
L 140.772794 206.278938 
L 142.388722 198.653895 
L 144.004649 200.615905 
L 145.620577 205.767256 
L 147.236505 201.199485 
L 148.852432 201.836598 
L 150.46836 196.704181 
L 152.084287 174.724675 
L 153.700215 159.966976 
L 155.316143 161.768305 
L 156.93207 153.543531 
L 160.163925 189.459172 
L 161.779853 188.501388 
L 163.395781 192.341668 
L 165.011708 198.179973 
L 166.627636 195.359065 
L 168.243563 197.193477 
L 169.859491 196.966186 
L 171.475419 182.527548 
L 173.091346 191.681838 
L 174.707274 204.236736 
L 176.323201 214.901393 
L 177.939129 235.582011 
L 179.555057 238.82231 
L 181.170984 240.181992 
L 182.786912 247.343495 
L 184.402839 244.295217 
L 186.018767 247.483428 
L 187.634695 244.837149 
L 189.250622 209.11071 
L 190.86655 182.66403 
L 192.482477 146.692016 
L 194.098405 118.643834 
L 195.714333 141.252048 
L 197.33026 145.911833 
L 198.946188 151.009525 
L 200.562115 171.518125 
L 203.793971 204.869346 
L 205.409898 212.855782 
L 207.025826 206.715435 
L 208.641753 199.049399 
L 210.257681 198.270626 
L 211.873609 201.112075 
L 213.489536 211.98849 
L 215.105464 217.328901 
L 216.721391 214.962706 
L 218.337319 220.344768 
L 219.953247 223.745418 
L 221.569174 228.822338 
L 223.185102 233.199349 
L 224.801029 229.999841 
L 226.416957 223.173383 
L 228.032885 229.388607 
L 229.648812 228.530485 
L 231.26474 232.796203 
L 232.880667 234.184613 
L 234.496595 231.551988 
L 236.112523 232.545614 
L 239.344378 235.74475 
L 240.960305 241.645205 
L 242.576233 241.898495 
L 244.192161 242.588926 
L 245.808088 244.351858 
L 247.424016 228.364081 
L 249.039943 222.698453 
L 250.655871 233.952613 
L 252.271799 226.898084 
L 253.887726 234.89403 
L 255.503654 233.542827 
L 257.119581 205.630915 
L 258.735509 204.937045 
L 260.351437 188.117721 
L 261.967364 166.816933 
L 263.583292 149.875228 
L 265.199219 125.346028 
L 266.815147 124.821819 
L 268.431075 133.749087 
L 270.047002 158.016299 
L 271.66293 172.652336 
L 273.278857 166.293887 
L 274.894785 162.397371 
L 278.12664 128.829186 
L 279.742568 123.53549 
L 281.358495 123.853134 
L 282.974423 117.085326 
L 284.590351 102.780145 
L 286.206278 102.048383 
L 287.822206 97.054266 
L 289.438133 96.063484 
L 291.054061 103.576043 
L 292.669989 101.675951 
L 294.285916 118.636813 
L 295.901844 118.331643 
L 299.133699 137.483118 
L 300.749627 133.745899 
L 302.365554 154.948825 
L 303.981482 162.250314 
L 305.59741 174.741755 
L 307.213337 189.815554 
L 308.829265 183.581238 
L 310.445192 181.602237 
L 312.06112 181.58711 
L 313.677048 169.342909 
L 315.292975 176.450061 
L 316.908903 181.45327 
L 318.52483 175.307118 
L 320.140758 177.650807 
L 321.756686 180.563087 
L 323.372613 181.191579 
L 324.988541 183.660574 
L 329.836324 186.519536 
L 331.452251 187.894484 
L 333.068179 186.284874 
L 334.684106 180.329164 
L 336.300034 180.613847 
L 337.915962 181.345357 
L 339.531889 180.331094 
L 341.147817 181.411708 
L 342.763744 179.728342 
L 344.379672 183.322119 
L 345.9956 195.626146 
L 347.611527 200.773198 
L 349.227455 206.905781 
L 350.843382 206.815867 
L 352.45931 204.376425 
L 354.075238 203.109346 
L 355.691165 197.060315 
L 357.307093 185.436037 
L 358.92302 172.693919 
L 360.538948 167.68247 
L 362.154876 170.707281 
L 363.770803 179.002175 
L 365.386731 189.530876 
L 367.002658 197.788401 
L 368.618586 205.403384 
L 370.234514 221.486771 
L 371.850441 228.847832 
L 373.466369 234.724285 
L 375.082296 238.681411 
L 376.698224 239.471668 
L 379.930079 244.992753 
L 381.546007 243.960479 
L 383.161934 244.042166 
L 384.777862 241.33926 
L 386.39379 235.526061 
L 388.009717 234.933979 
L 391.241572 228.283783 
L 391.241572 228.283783 
" clip-path="url(#p362edf2ec0)" style="fill: none; stroke: #d62728; stroke-width: 1.5; stroke-linecap: square"/>
   </g>
   <g id="line2d_23">
    <path d="M 53.512704 240.400362 
L 55.128631 234.802099 
L 56.744559 224.677528 
L 58.360486 217.389787 
L 59.976414 215.306986 
L 61.592342 200.079985 
L 63.208269 190.875575 
L 64.824197 178.91026 
L 66.440124 156.942801 
L 68.056052 144.718612 
L 69.67198 124.990602 
L 71.287907 100.621623 
L 72.903835 112.096124 
L 74.519762 126.274115 
L 76.13569 129.014427 
L 77.751618 156.330793 
L 68.056052 181.578017 
L 69.67198 186.827374 
L 71.287907 196.88049 
L 72.903835 203.373512 
L 74.519762 203.485507 
L 77.751618 203.485507 
L 79.367545 205.611467 
L 80.983473 212.660703 
L 82.5994 224.40943 
L 84.215328 220.493188 
L 87.447183 232.182211 
L 89.063111 234.094964 
L 90.679038 229.007797 
L 92.294966 237.806876 
L 93.910894 236.690974 
L 95.526821 236.683916 
L 97.142749 239.978788 
L 98.758676 237.461589 
L 100.374604 231.155811 
L 103.606459 208.802 
L 105.222387 186.901751 
L 106.838314 188.581017 
L 108.454242 185.712154 
L 110.07017 199.110064 
L 111.686097 203.699298 
L 113.302025 219.099734 
L 114.917952 217.18994 
L 116.53388 225.94075 
L 118.149808 208.976764 
L 119.765735 201.986342 
L 121.381663 186.278764 
L 122.99759 184.485527 
L 124.613518 174.217557 
L 126.229446 189.995349 
L 127.845373 193.118664 
L 129.461301 212.045014 
L 131.077229 221.365159 
L 132.693156 217.408095 
L 134.309084 217.027254 
L 135.925011 220.451184 
L 139.156867 196.984478 
L 140.772794 203.713259 
L 142.388722 201.021611 
L 144.004649 202.579571 
L 145.620577 205.088742 
L 147.236505 201.428065 
L 148.852432 197.324719 
L 150.46836 201.070357 
L 152.084287 185.500259 
L 153.700215 164.727896 
L 155.316143 165.716487 
L 156.93207 163.517934 
L 158.547998 163.870382 
L 160.163925 177.42458 
L 161.779853 188.160091 
L 163.395781 188.204687 
L 165.011708 198.412691 
L 166.627636 196.170768 
L 168.243563 194.442924 
L 169.859491 195.03417 
L 171.475419 190.972833 
L 173.091346 190.916666 
L 174.707274 201.645182 
L 176.323201 209.649386 
L 177.939129 224.416809 
L 179.555057 235.31909 
L 181.170984 239.096612 
L 182.786912 243.975686 
L 184.402839 246.552127 
L 186.018767 245.001562 
L 187.634695 243.927488 
L 192.482477 174.128825 
L 194.098405 147.534525 
L 195.714333 123.128885 
L 197.33026 144.560907 
L 198.946188 147.840072 
L 200.562115 167.592735 
L 202.178043 179.804818 
L 203.793971 196.562866 
L 207.025826 209.411471 
L 208.641753 201.047058 
L 210.257681 204.100494 
L 211.873609 200.130046 
L 213.489536 208.696983 
L 215.105464 210.025232 
L 216.721391 216.484912 
L 218.337319 217.856346 
L 219.953247 226.034368 
L 221.569174 223.941296 
L 223.185102 229.479886 
L 224.801029 229.739965 
L 226.416957 228.18071 
L 228.032885 228.472707 
L 229.648812 229.24806 
L 231.26474 229.405513 
L 232.880667 231.607466 
L 234.496595 234.882461 
L 236.112523 231.785771 
L 237.72845 233.878633 
L 239.344378 234.004224 
L 240.960305 240.855365 
L 242.576233 240.137526 
L 244.192161 241.887576 
L 245.808088 242.281904 
L 247.424016 235.331125 
L 249.039943 225.028131 
L 250.655871 235.588241 
L 252.271799 229.904695 
L 253.887726 227.018012 
L 255.503654 229.336656 
L 257.119581 223.831318 
L 258.735509 206.351114 
L 260.351437 197.091109 
L 261.967364 174.940637 
L 263.583292 154.898494 
L 265.199219 145.935926 
L 266.815147 132.4708 
L 268.431075 128.914886 
L 271.66293 164.821225 
L 273.278857 164.769205 
L 274.894785 158.959719 
L 276.510713 156.16435 
L 278.12664 142.785296 
L 279.742568 124.63174 
L 281.358495 124.301808 
L 282.974423 119.474072 
L 284.590351 108.840416 
L 286.206278 103.032755 
L 287.822206 103.460286 
L 289.438133 97.056597 
L 291.054061 97.676551 
L 292.669989 102.150838 
L 294.285916 116.7481 
L 295.901844 114.243049 
L 297.517771 123.495366 
L 299.133699 129.895498 
L 300.749627 141.040979 
L 302.365554 144.470615 
L 303.981482 158.550753 
L 305.59741 167.843638 
L 307.213337 183.40882 
L 308.829265 183.206788 
L 310.445192 179.771721 
L 312.06112 182.969113 
L 313.677048 179.352314 
L 315.292975 172.100109 
L 316.908903 178.026273 
L 318.52483 178.002276 
L 320.140758 176.16304 
L 321.756686 180.983052 
L 323.372613 181.791479 
L 324.988541 179.813194 
L 328.220396 187.148108 
L 329.836324 186.536004 
L 331.452251 185.25233 
L 333.068179 185.72155 
L 334.684106 183.78759 
L 336.300034 182.67566 
L 339.531889 179.60838 
L 341.147817 179.832848 
L 342.763744 182.202964 
L 344.379672 183.254136 
L 345.9956 191.289907 
L 347.611527 196.487729 
L 349.227455 202.873164 
L 350.843382 204.825587 
L 352.45931 207.440371 
L 354.075238 202.469657 
L 355.691165 199.96143 
L 357.307093 187.644062 
L 358.92302 180.988975 
L 360.538948 173.461394 
L 362.154876 174.011768 
L 363.770803 172.345451 
L 365.386731 184.378806 
L 368.618586 203.747246 
L 371.850441 224.31944 
L 375.082296 236.090399 
L 376.698224 240.172669 
L 378.314152 240.86231 
L 379.930079 243.133755 
L 381.546007 243.445419 
L 383.161934 244.414332 
L 384.777862 242.335465 
L 386.39379 237.819064 
L 388.009717 235.341461 
L 389.625645 234.693331 
L 391.241572 229.696207 
L 391.241572 229.696207 
" clip-path="url(#p362edf2ec0)" style="fill: none; stroke: #9467bd; stroke-width: 1.5; stroke-linecap: square"/>
   </g>
   <g id="line2d_24">
    <path d="M 55.128631 236.915144 
L 56.744559 229.856341 
L 58.360486 221.040417 
L 59.976414 215.5885 
L 61.592342 208.938391 
L 64.824197 182.804589 
L 66.440124 165.197508 
L 68.056052 156.799054 
L 69.67198 133.542478 
L 71.287907 114.309696 
L 72.903835 116.020895 
L 74.519762 118.498757 
L 76.13569 133.808053 
L 77.751618 143.873732 
L 68.056052 165.296879 
L 69.67198 185.484897 
L 71.287907 189.75378 
L 72.903835 198.005636 
L 74.519762 203.392185 
L 77.751618 203.485507 
L 79.367545 205.259729 
L 80.983473 211.180853 
L 82.5994 221.189499 
L 84.215328 217.83278 
L 85.831256 222.924212 
L 87.447183 229.336277 
L 89.063111 234.310537 
L 90.679038 233.944235 
L 92.294966 229.861746 
L 93.910894 236.290547 
L 95.526821 237.710037 
L 97.142749 240.705276 
L 98.758676 236.763125 
L 100.374604 231.639244 
L 101.990532 221.392225 
L 103.606459 215.273646 
L 105.222387 202.634097 
L 106.838314 194.150347 
L 108.454242 187.521154 
L 110.07017 192.665762 
L 111.686097 201.301674 
L 113.302025 211.737664 
L 114.917952 218.548546 
L 116.53388 219.697428 
L 118.149808 211.362548 
L 119.765735 203.661534 
L 121.381663 198.331339 
L 122.99759 190.254844 
L 124.613518 185.724112 
L 126.229446 177.935297 
L 127.845373 189.992857 
L 129.461301 207.021969 
L 131.077229 219.32303 
L 132.693156 213.502715 
L 134.309084 213.661118 
L 135.925011 215.895763 
L 137.540939 218.797484 
L 139.156867 207.70086 
L 140.772794 197.892651 
L 142.388722 199.701282 
L 144.004649 203.858939 
L 145.620577 205.944062 
L 147.236505 201.579857 
L 148.852432 198.174244 
L 150.46836 197.430424 
L 152.084287 191.344472 
L 153.700215 175.969845 
L 155.316143 168.633927 
L 156.93207 166.495082 
L 158.547998 170.126402 
L 160.163925 170.413912 
L 161.779853 178.340969 
L 163.395781 187.969313 
L 165.011708 194.11284 
L 166.627636 196.70433 
L 168.243563 195.276798 
L 169.859491 193.076463 
L 171.475419 190.320555 
L 173.091346 196.279199 
L 174.707274 199.440108 
L 176.323201 206.688981 
L 177.939129 218.844767 
L 179.555057 226.12806 
L 181.170984 236.14895 
L 182.786912 242.48537 
L 184.402839 243.864415 
L 186.018767 246.75576 
L 187.634695 242.390389 
L 189.250622 224.459235 
L 190.86655 210.396559 
L 192.482477 188.774788 
L 194.098405 170.478689 
L 195.714333 146.319326 
L 197.33026 129.254707 
L 200.562115 162.515807 
L 203.793971 188.518689 
L 205.409898 196.489795 
L 207.025826 201.772625 
L 208.641753 204.350324 
L 210.257681 204.884143 
L 211.873609 204.639701 
L 213.489536 206.689654 
L 215.105464 207.579049 
L 216.721391 210.533692 
L 218.337319 218.621602 
L 219.953247 223.131988 
L 221.569174 225.816675 
L 223.185102 225.342805 
L 224.801029 227.13996 
L 226.416957 228.266342 
L 228.032885 231.617517 
L 229.648812 228.507924 
L 231.26474 229.854074 
L 232.880667 228.959503 
L 234.496595 232.637539 
L 236.112523 234.52478 
L 237.72845 233.03259 
L 239.344378 233.809133 
L 240.960305 238.645137 
L 242.576233 239.723156 
L 244.192161 240.424315 
L 245.808088 241.747304 
L 247.424016 235.02207 
L 249.039943 231.600131 
L 250.655871 235.297726 
L 252.271799 232.00671 
L 253.887726 229.507438 
L 255.503654 223.437385 
L 257.119581 221.721767 
L 258.735509 221.525586 
L 260.351437 199.676485 
L 261.967364 185.33716 
L 263.583292 164.16733 
L 265.199219 150.872961 
L 266.815147 148.097805 
L 268.431075 134.524404 
L 270.047002 141.388556 
L 271.66293 155.180629 
L 273.278857 159.3341 
L 274.894785 158.887031 
L 276.510713 154.269009 
L 278.12664 152.279484 
L 279.742568 137.245974 
L 281.358495 125.085357 
L 282.974423 120.59118 
L 284.590351 112.294857 
L 287.822206 104.04188 
L 289.438133 102.407123 
L 291.054061 98.231537 
L 292.669989 97.457308 
L 294.285916 114.68193 
L 295.901844 113.381254 
L 297.517771 119.312948 
L 299.133699 125.802409 
L 300.749627 134.25013 
L 302.365554 148.539013 
L 303.981482 149.420695 
L 305.59741 163.935785 
L 307.213337 176.548393 
L 308.829265 178.796948 
L 310.445192 180.094732 
L 312.06112 181.23045 
L 313.677048 180.894658 
L 315.292975 179.907299 
L 316.908903 174.180371 
L 318.52483 175.676138 
L 320.140758 178.259389 
L 321.756686 179.217468 
L 323.372613 181.935054 
L 324.988541 180.547901 
L 326.604468 180.424941 
L 328.220396 185.907913 
L 329.836324 187.735242 
L 331.452251 185.478158 
L 333.068179 183.858895 
L 334.684106 183.730611 
L 336.300034 185.136087 
L 337.915962 182.726741 
L 339.531889 179.684909 
L 341.147817 179.312274 
L 342.763744 180.762885 
L 344.379672 184.695908 
L 345.9956 189.93964 
L 347.611527 192.760842 
L 349.227455 199.014513 
L 350.843382 201.774794 
L 352.45931 205.687512 
L 354.075238 205.381751 
L 355.691165 199.947414 
L 358.92302 183.630887 
L 360.538948 180.249168 
L 362.154876 177.643528 
L 363.770803 174.807967 
L 365.386731 178.139445 
L 368.618586 199.578267 
L 370.234514 211.375017 
L 371.850441 217.847466 
L 373.466369 226.230627 
L 376.698224 237.802896 
L 378.314152 241.208791 
L 379.930079 241.815295 
L 381.546007 242.134437 
L 383.161934 243.911864 
L 384.777862 242.938037 
L 386.39379 239.275657 
L 388.009717 237.290457 
L 389.625645 235.073931 
L 391.241572 232.668733 
L 391.241572 232.668733 
" clip-path="url(#p362edf2ec0)" style="fill: none; stroke: #8c564b; stroke-width: 1.5; stroke-linecap: square"/>
   </g>
   <g id="line2d_25">
    <path d="M 56.744559 232.477684 
L 58.360486 226.16085 
L 59.976414 219.029124 
L 61.592342 210.123474 
L 63.208269 204.175587 
L 64.824197 188.322586 
L 66.440124 170.843024 
L 68.056052 163.925463 
L 69.67198 146.134584 
L 71.287907 123.556924 
L 72.903835 124.977138 
L 74.519762 120.877739 
L 76.13569 126.319137 
L 77.751618 145.669655 
L 68.056052 153.907122 
L 71.287907 188.210452 
L 72.903835 191.8062 
L 74.519762 198.803284 
L 76.13569 203.405521 
L 77.751618 203.485507 
L 79.367545 205.007856 
L 80.983473 210.111956 
L 82.5994 218.826981 
L 84.215328 215.891344 
L 85.831256 220.349352 
L 89.063111 231.622996 
L 90.679038 234.150851 
L 92.294966 233.954995 
L 93.910894 229.64113 
L 95.526821 237.225438 
L 97.142749 240.988142 
L 98.758676 237.872896 
L 100.374604 231.861909 
L 101.990532 223.297546 
L 103.606459 217.237348 
L 105.222387 209.355604 
L 106.838314 206.126015 
L 108.454242 192.492593 
L 110.07017 193.179596 
L 111.686097 195.568836 
L 113.302025 208.68699 
L 114.917952 212.319635 
L 116.53388 220.485212 
L 118.149808 207.579301 
L 119.765735 206.563183 
L 121.381663 200.333666 
L 122.99759 199.835777 
L 124.613518 190.470295 
L 126.229446 187.118577 
L 127.845373 179.719424 
L 129.461301 202.696703 
L 131.077229 214.257504 
L 132.693156 212.800812 
L 134.309084 210.766382 
L 135.925011 213.153475 
L 137.540939 215.090119 
L 139.156867 216.587873 
L 140.772794 206.949297 
L 142.388722 195.170031 
L 144.004649 202.348862 
L 145.620577 206.54075 
L 147.236505 202.839094 
L 148.852432 198.777283 
L 150.46836 198.143324 
L 152.084287 189.458213 
L 153.700215 182.686204 
L 155.316143 177.565209 
L 156.93207 168.877575 
L 158.547998 171.664726 
L 160.163925 174.685858 
L 161.779853 172.252988 
L 163.395781 179.612062 
L 165.011708 193.090374 
L 166.627636 193.23068 
L 168.243563 195.865067 
L 169.859491 193.993998 
L 171.475419 189.276209 
L 173.091346 194.994193 
L 174.707274 202.614784 
L 176.323201 204.159583 
L 177.939129 215.217548 
L 179.555057 221.196833 
L 181.170984 228.269747 
L 182.786912 239.573937 
L 184.402839 242.60307 
L 186.018767 244.433553 
L 187.634695 244.316233 
L 189.250622 225.921218 
L 190.86655 215.216848 
L 192.482477 201.766519 
L 197.33026 147.917677 
L 198.946188 133.214037 
L 200.562115 159.35422 
L 202.178043 170.096613 
L 203.793971 183.682749 
L 205.409898 189.631901 
L 207.025826 196.214305 
L 208.641753 198.326376 
L 210.257681 207.105006 
L 211.873609 205.23227 
L 213.489536 209.4751 
L 215.105464 206.006855 
L 216.721391 208.37551 
L 218.337319 213.322819 
L 219.953247 223.023065 
L 221.569174 223.36052 
L 223.185102 226.734334 
L 224.801029 223.868682 
L 226.416957 226.22465 
L 228.032885 231.20525 
L 229.648812 231.203921 
L 231.26474 229.137101 
L 232.880667 229.409483 
L 234.496595 230.247222 
L 237.72845 235.181331 
L 239.344378 233.093891 
L 240.960305 237.836934 
L 242.576233 237.973193 
L 244.192161 240.029375 
L 245.808088 240.51289 
L 247.424016 235.604671 
L 249.039943 231.868232 
L 250.655871 239.05828 
L 252.271799 232.26953 
L 253.887726 231.375291 
L 255.503654 226.16085 
L 257.119581 217.47091 
L 258.735509 220.017598 
L 260.351437 214.411244 
L 261.967364 189.472133 
L 263.583292 175.255129 
L 265.199219 159.590986 
L 266.815147 151.986926 
L 268.431075 147.583949 
L 270.047002 144.211144 
L 271.66293 149.163796 
L 273.278857 151.660351 
L 274.894785 154.947424 
L 276.510713 154.883308 
L 278.12664 151.18473 
L 279.742568 146.427898 
L 281.358495 135.86148 
L 282.974423 121.807832 
L 284.590351 114.321997 
L 287.822206 108.186752 
L 289.438133 103.058508 
L 291.054061 102.63771 
L 292.669989 97.96482 
L 294.285916 109.112638 
L 295.901844 112.071348 
L 297.517771 117.872939 
L 299.133699 121.929841 
L 300.749627 130.197797 
L 302.365554 141.883986 
L 303.981482 152.132757 
L 305.59741 155.597394 
L 307.213337 172.150014 
L 308.829265 173.44178 
L 310.445192 176.701282 
L 312.06112 181.297492 
L 313.677048 179.685308 
L 315.292975 181.146849 
L 316.908903 180.523487 
L 318.52483 172.678864 
L 320.140758 176.23406 
L 321.756686 180.552088 
L 323.372613 180.295933 
L 324.988541 180.850197 
L 326.604468 180.965415 
L 328.220396 182.888656 
L 329.836324 186.593036 
L 331.452251 186.665029 
L 333.068179 184.254037 
L 334.684106 182.402262 
L 336.300034 184.895794 
L 337.915962 184.830346 
L 339.531889 181.301816 
L 341.147817 179.420325 
L 342.763744 180.186736 
L 344.379672 183.127383 
L 345.9956 190.190883 
L 347.611527 191.406024 
L 349.227455 195.522206 
L 350.843382 198.606924 
L 352.45931 202.970449 
L 354.075238 204.154762 
L 355.691165 202.855062 
L 357.307093 193.009788 
L 360.538948 182.632501 
L 362.154876 182.752318 
L 363.770803 177.798748 
L 365.386731 179.369826 
L 367.002658 183.095827 
L 370.234514 206.942724 
L 371.850441 215.076915 
L 373.466369 220.526635 
L 375.082296 228.546758 
L 376.698224 234.230273 
L 378.314152 239.055402 
L 379.930079 241.974017 
L 381.546007 241.137389 
L 383.161934 242.728433 
L 384.777862 242.713368 
L 386.39379 240.252566 
L 388.009717 238.622617 
L 389.625645 236.789617 
L 391.241572 233.293248 
L 391.241572 233.293248 
" clip-path="url(#p362edf2ec0)" style="fill: none; stroke: #e377c2; stroke-width: 1.5; stroke-linecap: square"/>
   </g>
   <g id="patch_3">
    <path d="M 35.7375 284.991437 
L 35.7375 18.879437 
" style="fill: none; stroke: #000000; stroke-width: 0.8; stroke-linejoin: miter; stroke-linecap: square"/>
   </g>
   <g id="patch_4">
    <path d="M 392.8575 284.991437 
L 392.8575 18.879437 
" style="fill: none; stroke: #000000; stroke-width: 0.8; stroke-linejoin: miter; stroke-linecap: square"/>
   </g>
   <g id="patch_5">
    <path d="M 35.7375 284.991437 
L 392.8575 284.991437 
" style="fill: none; stroke: #000000; stroke-width: 0.8; stroke-linejoin: miter; stroke-linecap: square"/>
   </g>
   <g id="patch_6">
    <path d="M 35.7375 18.879437 
L 392.8575 18.879437 
" style="fill: none; stroke: #000000; stroke-width: 0.8; stroke-linejoin: miter; stroke-linecap: square"/>
   </g>
   <g id="legend_1">
    <g id="patch_7">
     <path d="M 347.559063 127.613812 
L 385.8575 127.613812 
Q 387.8575 127.613812 387.8575 125.613812 
L 387.8575 25.879437 
Q 387.8575 23.879437 385.8575 23.879437 
L 347.559063 23.879437 
Q 345.559063 23.879437 345.559063 25.879437 
L 345.559063 125.613812 
Q 345.559063 127.613812 347.559063 127.613812 
z
" style="fill: #ffffff; opacity: 0.8; stroke: #cccccc; stroke-linejoin: miter"/>
    </g>
    <g id="line2d_26">
     <path d="M 349.559063 31.870062 
L 359.559063 31.870062 
L 369.559063 31.870062 
" style="fill: none; stroke: #1f77b4; stroke-width: 1.5; stroke-linecap: square"/>
    </g>
    <g id="text_19">
     <!-- 1 -->
     <g transform="translate(377.559063 35.370062)scale(0.1 -0.1)">
      <use xlink:href="#IPAexGothic-31"/>
     </g>
    </g>
    <g id="line2d_27">
     <path d="M 349.559063 46.260687 
L 359.559063 46.260687 
L 369.559063 46.260687 
" style="fill: none; stroke: #ff7f0e; stroke-width: 1.5; stroke-linecap: square"/>
    </g>
    <g id="text_20">
     <!-- 2 -->
     <g transform="translate(377.559063 49.760687)scale(0.1 -0.1)">
      <use xlink:href="#IPAexGothic-32"/>
     </g>
    </g>
    <g id="line2d_28">
     <path d="M 349.559063 60.651312 
L 359.559063 60.651312 
L 369.559063 60.651312 
" style="fill: none; stroke: #2ca02c; stroke-width: 1.5; stroke-linecap: square"/>
    </g>
    <g id="text_21">
     <!-- 3 -->
     <g transform="translate(377.559063 64.151312)scale(0.1 -0.1)">
      <defs>
       <path id="IPAexGothic-33" d="M 2381 2419 
Q 3506 2216 3506 1278 
Q 3506 716 3128 356 
Q 2709 -31 1944 -31 
Q 797 -31 288 881 
L 756 1131 
Q 1109 441 1938 441 
Q 2425 441 2694 691 
Q 2950 928 2950 1291 
Q 2950 1719 2566 1978 
Q 2216 2213 1644 2213 
L 1363 2213 
L 1363 2669 
L 1656 2669 
Q 2231 2669 2534 2888 
Q 2859 3119 2859 3509 
Q 2859 3934 2494 4138 
Q 2259 4278 1931 4278 
Q 1238 4278 903 3578 
L 434 3803 
Q 897 4725 1938 4725 
Q 2597 4725 3006 4394 
Q 3416 4069 3416 3534 
Q 3416 3028 3019 2706 
Q 2763 2500 2381 2444 
L 2381 2419 
z
" transform="scale(0.015625)"/>
      </defs>
      <use xlink:href="#IPAexGothic-33"/>
     </g>
    </g>
    <g id="line2d_29">
     <path d="M 349.559063 75.041937 
L 359.559063 75.041937 
L 369.559063 75.041937 
" style="fill: none; stroke: #d62728; stroke-width: 1.5; stroke-linecap: square"/>
    </g>
    <g id="text_22">
     <!-- 4 -->
     <g transform="translate(377.559063 78.541937)scale(0.1 -0.1)">
      <defs>
       <path id="IPAexGothic-34" d="M 3813 1159 
L 3059 1159 
L 3059 63 
L 2547 63 
L 2547 1159 
L 197 1159 
L 197 1672 
L 2456 4678 
L 3059 4678 
L 3059 1634 
L 3813 1634 
L 3813 1159 
z
M 2578 4109 
L 2559 4109 
Q 2278 3656 2003 3284 
L 759 1634 
L 2547 1634 
L 2547 3144 
Q 2547 3481 2578 4109 
z
" transform="scale(0.015625)"/>
      </defs>
      <use xlink:href="#IPAexGothic-34"/>
     </g>
    </g>
    <g id="line2d_30">
     <path d="M 349.559063 89.432562 
L 359.559063 89.432562 
L 369.559063 89.432562 
" style="fill: none; stroke: #9467bd; stroke-width: 1.5; stroke-linecap: square"/>
    </g>
    <g id="text_23">
     <!-- 5 -->
     <g transform="translate(377.559063 92.932562)scale(0.1 -0.1)">
      <use xlink:href="#IPAexGothic-35"/>
     </g>
    </g>
    <g id="line2d_31">
     <path d="M 349.559063 103.823187 
L 359.559063 103.823187 
L 369.559063 103.823187 
" style="fill: none; stroke: #8c564b; stroke-width: 1.5; stroke-linecap: square"/>
    </g>
    <g id="text_24">
     <!-- 6 -->
     <g transform="translate(377.559063 107.323187)scale(0.1 -0.1)">
      <defs>
       <path id="IPAexGothic-36" d="M 1056 2328 
Q 1509 2981 2234 2981 
Q 2906 2981 3316 2513 
Q 3675 2106 3675 1522 
Q 3675 884 3272 434 
Q 2853 -31 2178 -31 
Q 1375 -31 922 581 
Q 481 1178 481 2228 
Q 481 3425 1013 4109 
Q 1494 4725 2272 4725 
Q 3191 4725 3609 4025 
L 3150 3775 
Q 2894 4266 2300 4266 
Q 1119 4266 1031 2328 
L 1056 2328 
z
M 2141 2547 
Q 1684 2547 1384 2206 
Q 1116 1900 1116 1541 
Q 1116 1156 1353 844 
Q 1672 428 2159 428 
Q 2669 428 2941 844 
Q 3125 1128 3125 1503 
Q 3125 1944 2881 2228 
Q 2600 2547 2141 2547 
z
" transform="scale(0.015625)"/>
      </defs>
      <use xlink:href="#IPAexGothic-36"/>
     </g>
    </g>
    <g id="line2d_32">
     <path d="M 349.559063 118.213812 
L 359.559063 118.213812 
L 369.559063 118.213812 
" style="fill: none; stroke: #e377c2; stroke-width: 1.5; stroke-linecap: square"/>
    </g>
    <g id="text_25">
     <!-- 7 -->
     <g transform="translate(377.559063 121.713812)scale(0.1 -0.1)">
      <use xlink:href="#IPAexGothic-37"/>
     </g>
    </g>
   </g>
  </g>
  <g id="axes_2">
   <g id="matplotlib.axis_3"/>
   <g id="patch_8">
    <path d="M 35.7375 284.991437 
L 35.7375 18.879437 
" style="fill: none; stroke: #000000; stroke-width: 0.8; stroke-linejoin: miter; stroke-linecap: square"/>
   </g>
   <g id="patch_9">
    <path d="M 392.8575 284.991437 
L 392.8575 18.879437 
" style="fill: none; stroke: #000000; stroke-width: 0.8; stroke-linejoin: miter; stroke-linecap: square"/>
   </g>
   <g id="patch_10">
    <path d="M 35.7375 284.991437 
L 392.8575 284.991437 
" style="fill: none; stroke: #000000; stroke-width: 0.8; stroke-linejoin: miter; stroke-linecap: square"/>
   </g>
   <g id="patch_11">
    <path d="M 35.7375 18.879437 
L 392.8575 18.879437 
" style="fill: none; stroke: #000000; stroke-width: 0.8; stroke-linejoin: miter; stroke-linecap: square"/>
   </g>
  </g>
  <g id="text_26">
   <!-- : 2022/09/09 15:34:18(JST) -->
   <g transform="translate(217.385625 15.423437)scale(0.1 -0.1)">
    <defs>
     <path id="IPAexGothic-66f4" d="M 2956 3994 
L 2956 4588 
L 513 4588 
L 513 4984 
L 5881 4984 
L 5881 4588 
L 3413 4588 
L 3413 3994 
L 5300 3994 
L 5300 1288 
L 4838 1288 
L 4838 1759 
L 3406 1759 
Q 3384 1125 3150 709 
Q 4291 244 5997 31 
L 5694 -428 
Q 4109 -166 2906 384 
Q 2294 -266 744 -488 
L 494 -66 
Q 1903 59 2491 588 
Q 2041 813 1594 1166 
L 1928 1434 
Q 2331 1106 2747 897 
Q 2922 1219 2950 1759 
L 1556 1759 
L 1556 1413 
L 1097 1413 
L 1097 3994 
L 2956 3994 
z
M 2956 3609 
L 1556 3609 
L 1556 3078 
L 2956 3078 
L 2956 3609 
z
M 3413 3609 
L 3413 3078 
L 4838 3078 
L 4838 3609 
L 3413 3609 
z
M 2956 2700 
L 1556 2700 
L 1556 2144 
L 2956 2144 
L 2956 2700 
z
M 3413 2700 
L 3413 2144 
L 4838 2144 
L 4838 2700 
L 3413 2700 
z
" transform="scale(0.015625)"/>
     <path id="IPAexGothic-65b0" d="M 3891 2803 
Q 3881 1759 3794 1166 
Q 3653 197 3097 -563 
L 2741 -250 
Q 3450 700 3450 2631 
L 3450 4647 
Q 3516 4656 3622 4666 
Q 4656 4778 5447 5063 
L 5825 4678 
Q 4897 4419 3891 4294 
L 3891 3219 
L 6119 3219 
L 6119 2803 
L 5275 2803 
L 5275 -447 
L 4834 -447 
L 4834 2803 
L 3891 2803 
z
M 2822 4069 
Q 2678 3572 2519 3181 
L 3250 3181 
L 3250 2784 
L 2059 2784 
L 2059 2216 
L 3184 2216 
L 3184 1831 
L 2059 1831 
L 2059 1544 
Q 2613 1197 3031 847 
L 2781 456 
Q 2472 791 2059 1128 
L 2059 -447 
L 1644 -447 
L 1644 1294 
Q 1272 628 575 -31 
L 269 341 
Q 1041 938 1528 1831 
L 453 1831 
L 453 2216 
L 1644 2216 
L 1644 2784 
L 319 2784 
L 319 3181 
L 1125 3181 
Q 1013 3706 881 4069 
L 453 4069 
L 453 4453 
L 1631 4453 
L 1631 5309 
L 2072 5309 
L 2072 4453 
L 3166 4453 
L 3166 4069 
L 2822 4069 
z
M 2391 4069 
L 1325 4069 
Q 1450 3672 1534 3181 
L 2109 3181 
Q 2294 3659 2391 4069 
z
" transform="scale(0.015625)"/>
     <path id="IPAexGothic-65e5" d="M 5231 4800 
L 5231 -288 
L 4744 -288 
L 4744 128 
L 1647 128 
L 1647 -288 
L 1159 -288 
L 1159 4800 
L 5231 4800 
z
M 1647 4372 
L 1647 2731 
L 4744 2731 
L 4744 4372 
L 1647 4372 
z
M 1647 2297 
L 1647 556 
L 4744 556 
L 4744 2297 
L 1647 2297 
z
" transform="scale(0.015625)"/>
     <path id="IPAexGothic-6642" d="M 2328 4728 
L 2328 563 
L 934 563 
L 934 56 
L 519 56 
L 519 4728 
L 2328 4728 
z
M 934 4331 
L 934 2881 
L 1906 2881 
L 1906 4331 
L 934 4331 
z
M 934 2497 
L 934 953 
L 1906 953 
L 1906 2497 
L 934 2497 
z
M 3938 4372 
L 3938 5313 
L 4378 5313 
L 4378 4372 
L 5772 4372 
L 5772 3981 
L 4378 3981 
L 4378 3194 
L 6072 3194 
L 6072 2803 
L 5203 2803 
L 5203 2047 
L 5959 2047 
L 5959 1650 
L 5216 1650 
L 5216 31 
Q 5216 -447 4691 -447 
Q 4394 -447 3888 -391 
L 3784 78 
Q 4272 0 4591 0 
Q 4775 0 4775 172 
L 4775 1650 
L 2581 1650 
L 2581 2047 
L 4763 2047 
L 4763 2803 
L 2538 2803 
L 2538 3194 
L 3938 3194 
L 3938 3981 
L 2716 3981 
L 2716 4372 
L 3938 4372 
z
M 3669 384 
Q 3331 950 2956 1325 
L 3291 1575 
Q 3719 1147 4025 659 
L 3669 384 
z
" transform="scale(0.015625)"/>
     <path id="IPAexGothic-3a" d="M 1369 2559 
L 672 2559 
L 672 3250 
L 1369 3250 
L 1369 2559 
z
M 1369 63 
L 672 63 
L 672 753 
L 1369 753 
L 1369 63 
z
" transform="scale(0.015625)"/>
     <path id="IPAexGothic-20" transform="scale(0.015625)"/>
     <path id="IPAexGothic-2f" d="M 2719 4709 
L 600 -884 
L 300 -763 
L 2413 4831 
L 2719 4709 
z
" transform="scale(0.015625)"/>
     <path id="IPAexGothic-39" d="M 2984 2356 
Q 2544 1716 1813 1716 
Q 1253 1716 847 2056 
Q 366 2459 366 3163 
Q 366 3813 769 4266 
Q 1181 4725 1869 4725 
Q 2800 4725 3241 3950 
Q 3559 3378 3559 2472 
Q 3559 1250 3041 588 
Q 2553 -31 1769 -31 
Q 859 -31 391 703 
L 853 953 
Q 1156 428 1753 428 
Q 2922 428 3009 2356 
L 2984 2356 
z
M 1888 4278 
Q 1450 4278 1172 3950 
Q 922 3653 922 3200 
Q 922 2741 1159 2478 
Q 1434 2163 1906 2163 
Q 2431 2163 2728 2572 
Q 2925 2847 2925 3169 
Q 2925 3553 2694 3863 
Q 2375 4278 1888 4278 
z
" transform="scale(0.015625)"/>
     <path id="IPAexGothic-38" d="M 2541 2425 
Q 3700 2031 3700 1197 
Q 3700 541 3100 197 
Q 2663 -56 2016 -56 
Q 1366 -56 928 197 
Q 347 531 347 1178 
Q 347 1988 1409 2381 
L 1409 2400 
Q 481 2734 481 3509 
Q 481 4100 981 4456 
Q 1406 4756 2019 4756 
Q 2703 4756 3131 4403 
Q 3553 4069 3553 3566 
Q 3553 2706 2541 2444 
L 2541 2425 
z
M 2022 2625 
Q 2997 2856 2997 3528 
Q 2997 3916 2675 4150 
Q 2413 4347 2016 4347 
Q 1606 4347 1331 4128 
Q 1050 3897 1050 3522 
Q 1050 3150 1350 2925 
Q 1494 2809 1722 2722 
Q 1984 2616 2022 2625 
z
M 1978 2209 
Q 922 1931 922 1216 
Q 922 775 1313 556 
Q 1606 391 2009 391 
Q 2575 391 2881 697 
Q 3106 922 3106 1250 
Q 3106 1594 2794 1850 
Q 2609 1994 2350 2100 
Q 2047 2222 1978 2209 
z
" transform="scale(0.015625)"/>
     <path id="IPAexGothic-28" d="M 1928 -1016 
L 1653 -1166 
Q 488 69 488 1875 
Q 488 3678 1653 4909 
L 1928 4763 
Q 1006 3522 1006 1881 
Q 1006 203 1928 -1016 
z
" transform="scale(0.015625)"/>
     <path id="IPAexGothic-54" d="M 3866 4141 
L 2175 4141 
L 2175 63 
L 1606 63 
L 1606 4141 
L -31 4141 
L -31 4634 
L 3866 4634 
L 3866 4141 
z
" transform="scale(0.015625)"/>
     <path id="IPAexGothic-29" d="M 466 4909 
Q 1638 3672 1638 1875 
Q 1638 75 466 -1166 
L 191 -1016 
Q 1119 216 1119 1881 
Q 1119 3509 191 4763 
L 466 4909 
z
" transform="scale(0.015625)"/>
    </defs>
    <use xlink:href="#IPAexGothic-66f4"/>
    <use xlink:href="#IPAexGothic-65b0" x="100"/>
    <use xlink:href="#IPAexGothic-65e5" x="200"/>
    <use xlink:href="#IPAexGothic-6642" x="300"/>
    <use xlink:href="#IPAexGothic-3a" x="400"/>
    <use xlink:href="#IPAexGothic-20" x="431.982422"/>
    <use xlink:href="#IPAexGothic-32" x="458.984375"/>
    <use xlink:href="#IPAexGothic-30" x="521.972656"/>
    <use xlink:href="#IPAexGothic-32" x="584.960938"/>
    <use xlink:href="#IPAexGothic-32" x="647.949219"/>
    <use xlink:href="#IPAexGothic-2f" x="710.9375"/>
    <use xlink:href="#IPAexGothic-30" x="760.9375"/>
    <use xlink:href="#IPAexGothic-39" x="823.925781"/>
    <use xlink:href="#IPAexGothic-2f" x="886.914062"/>
    <use xlink:href="#IPAexGothic-30" x="936.914062"/>
    <use xlink:href="#IPAexGothic-39" x="999.902344"/>
    <use xlink:href="#IPAexGothic-20" x="1062.890625"/>
    <use xlink:href="#IPAexGothic-31" x="1089.892578"/>
    <use xlink:href="#IPAexGothic-35" x="1152.880859"/>
    <use xlink:href="#IPAexGothic-3a" x="1215.869141"/>
    <use xlink:href="#IPAexGothic-33" x="1247.851562"/>
    <use xlink:href="#IPAexGothic-34" x="1310.839844"/>
    <use xlink:href="#IPAexGothic-3a" x="1373.828125"/>
    <use xlink:href="#IPAexGothic-31" x="1405.810547"/>
    <use xlink:href="#IPAexGothic-38" x="1468.798828"/>
    <use xlink:href="#IPAexGothic-28" x="1531.787109"/>
    <use xlink:href="#IPAexGothic-4a" x="1565.087891"/>
    <use xlink:href="#IPAexGothic-53" x="1603.076172"/>
    <use xlink:href="#IPAexGothic-54" x="1661.572266"/>
    <use xlink:href="#IPAexGothic-29" x="1721.484375"/>
   </g>
  </g>
 </g>
 <defs>
  <clipPath id="p362edf2ec0">
   <rect x="35.7375" y="18.879437" width="357.12" height="266.112"/>
  </clipPath>
 </defs>
</svg>
