<?xml version="1.0" encoding="utf-8" standalone="no"?>
<!DOCTYPE svg PUBLIC "-//W3C//DTD SVG 1.1//EN"
  "http://www.w3.org/Graphics/SVG/1.1/DTD/svg11.dtd">
<svg xmlns:xlink="http://www.w3.org/1999/xlink" width="397.259063pt" height="308.582062pt" viewBox="0 0 397.259063 308.582062" xmlns="http://www.w3.org/2000/svg" version="1.1">
 <metadata>
  <rdf:RDF xmlns:dc="http://purl.org/dc/elements/1.1/" xmlns:cc="http://creativecommons.org/ns#" xmlns:rdf="http://www.w3.org/1999/02/22-rdf-syntax-ns#">
   <cc:Work>
    <dc:type rdf:resource="http://purl.org/dc/dcmitype/StillImage"/>
    <dc:date>2023-02-12T07:13:36.553146</dc:date>
    <dc:format>image/svg+xml</dc:format>
    <dc:creator>
     <cc:Agent>
      <dc:title>Matplotlib v3.6.3, https://matplotlib.org/</dc:title>
     </cc:Agent>
    </dc:creator>
   </cc:Work>
  </rdf:RDF>
 </metadata>
 <defs>
  <style type="text/css">*{stroke-linejoin: round; stroke-linecap: butt}</style>
 </defs>
 <g id="figure_1">
  <g id="patch_1">
   <path d="M 0 308.582062 
L 397.259063 308.582062 
L 397.259063 0 
L 0 0 
z
" style="fill: #ffffff"/>
  </g>
  <g id="axes_1">
   <g id="patch_2">
    <path d="M 29.439063 284.991437 
L 386.559062 284.991437 
L 386.559062 18.879437 
L 29.439063 18.879437 
z
" style="fill: #ffffff"/>
   </g>
   <g id="line2d_1">
    <path d="M 29.439063 211.199039 
L 386.559062 211.199039 
" clip-path="url(#p3610b7f6ee)" style="fill: none; stroke: #000000; stroke-linecap: square"/>
   </g>
   <g id="matplotlib.axis_1">
    <g id="xtick_1">
     <g id="line2d_2">
      <defs>
       <path id="m256949dbb4" d="M 0 0 
L 0 3.5 
" style="stroke: #000000; stroke-width: 0.8"/>
      </defs>
      <g>
       <use xlink:href="#m256949dbb4" x="29.439062" y="284.991437" style="stroke: #000000; stroke-width: 0.8"/>
      </g>
     </g>
     <g id="text_1">
      <!-- Jun -->
      <g transform="translate(21.499219 299.482062) scale(0.1 -0.1)">
       <defs>
        <path id="IPAexGothic-4a" d="M 1819 4634 
L 1819 1234 
Q 1819 -31 763 -31 
Q 303 -31 -125 209 
L 84 644 
Q 378 447 694 447 
Q 1250 447 1250 1203 
L 1250 4634 
L 1819 4634 
z
" transform="scale(0.015625)"/>
        <path id="IPAexGothic-75" d="M 3284 63 
L 2772 63 
L 2772 644 
Q 2300 0 1625 0 
Q 1072 0 763 375 
Q 519 678 519 1241 
L 519 3250 
L 1069 3250 
L 1069 1259 
Q 1069 466 1734 466 
Q 2406 466 2734 1291 
L 2734 3250 
L 3284 3250 
L 3284 63 
z
" transform="scale(0.015625)"/>
        <path id="IPAexGothic-6e" d="M 3328 63 
L 2778 63 
L 2778 2041 
Q 2778 2853 2106 2853 
Q 1428 2853 1113 2041 
L 1113 63 
L 563 63 
L 563 3250 
L 1075 3250 
L 1075 2675 
Q 1525 3316 2222 3316 
Q 3328 3316 3328 2072 
L 3328 63 
z
" transform="scale(0.015625)"/>
       </defs>
       <use xlink:href="#IPAexGothic-4a"/>
       <use xlink:href="#IPAexGothic-75" x="37.988281"/>
       <use xlink:href="#IPAexGothic-6e" x="98.388672"/>
      </g>
     </g>
    </g>
    <g id="xtick_2">
     <g id="line2d_3">
      <g>
       <use xlink:href="#m256949dbb4" x="71.126222" y="284.991437" style="stroke: #000000; stroke-width: 0.8"/>
      </g>
     </g>
     <g id="text_2">
      <!-- Jul -->
      <g transform="translate(64.856691 299.482062) scale(0.1 -0.1)">
       <defs>
        <path id="IPAexGothic-6c" d="M 1131 63 
L 581 63 
L 581 4794 
L 1131 4794 
L 1131 63 
z
" transform="scale(0.015625)"/>
       </defs>
       <use xlink:href="#IPAexGothic-4a"/>
       <use xlink:href="#IPAexGothic-75" x="37.988281"/>
       <use xlink:href="#IPAexGothic-6c" x="98.388672"/>
      </g>
     </g>
    </g>
    <g id="xtick_3">
     <g id="line2d_4">
      <g>
       <use xlink:href="#m256949dbb4" x="114.202954" y="284.991437" style="stroke: #000000; stroke-width: 0.8"/>
      </g>
     </g>
     <g id="text_3">
      <!-- Aug -->
      <g transform="translate(105.220922 299.42425) scale(0.1 -0.1)">
       <defs>
        <path id="IPAexGothic-41" d="M 4056 63 
L 3444 63 
L 2938 1409 
L 1100 1409 
L 603 63 
L -6 63 
L 1806 4666 
L 2259 4666 
L 4056 63 
z
M 2778 1863 
L 2316 3078 
Q 2125 3588 2028 4000 
L 2009 4000 
Q 1897 3563 1716 3078 
L 1263 1863 
L 2778 1863 
z
" transform="scale(0.015625)"/>
        <path id="IPAexGothic-67" d="M 1331 1150 
Q 1006 1122 1006 900 
Q 1006 613 1763 575 
L 2131 556 
Q 3303 497 3303 -294 
Q 3303 -700 2925 -959 
Q 2519 -1253 1794 -1253 
Q 1138 -1253 738 -1028 
Q 353 -809 353 -428 
Q 353 84 1075 247 
L 1075 269 
Q 506 413 506 778 
Q 506 1116 994 1297 
Q 456 1575 456 2181 
Q 456 2650 769 2963 
Q 1128 3322 1738 3322 
Q 2125 3322 2422 3153 
Q 2650 3453 3259 3463 
L 3259 3013 
Q 2838 3003 2703 2938 
Q 3034 2613 3034 2169 
Q 3034 1728 2734 1425 
Q 2400 1094 1813 1094 
Q 1563 1094 1331 1150 
z
M 1734 2919 
Q 1409 2919 1197 2706 
Q 988 2497 988 2181 
Q 988 1872 1184 1684 
Q 1397 1472 1756 1472 
Q 2094 1472 2297 1678 
Q 2503 1881 2503 2203 
Q 2503 2497 2297 2700 
Q 2081 2919 1734 2919 
z
M 1753 159 
Q 903 159 903 -366 
Q 903 -875 1800 -875 
Q 2378 -875 2638 -606 
Q 2772 -481 2772 -313 
Q 2772 159 1753 159 
z
" transform="scale(0.015625)"/>
       </defs>
       <use xlink:href="#IPAexGothic-41"/>
       <use xlink:href="#IPAexGothic-75" x="63.720703"/>
       <use xlink:href="#IPAexGothic-67" x="124.121094"/>
      </g>
     </g>
    </g>
    <g id="xtick_4">
     <g id="line2d_5">
      <g>
       <use xlink:href="#m256949dbb4" x="157.279685" y="284.991437" style="stroke: #000000; stroke-width: 0.8"/>
      </g>
     </g>
     <g id="text_4">
      <!-- Sep -->
      <g transform="translate(148.404685 299.482062) scale(0.1 -0.1)">
       <defs>
        <path id="IPAexGothic-53" d="M 2919 3641 
Q 2563 4259 1853 4259 
Q 1453 4259 1213 4009 
Q 1028 3803 1028 3534 
Q 1028 3238 1266 3047 
Q 1444 2913 1984 2688 
L 2200 2597 
Q 2925 2306 3191 1953 
Q 3422 1644 3422 1259 
Q 3422 644 2969 288 
Q 2559 -31 1931 -31 
Q 881 -31 313 766 
L 753 1100 
Q 1203 459 1938 459 
Q 2288 459 2534 625 
Q 2841 847 2841 1216 
Q 2841 1503 2616 1728 
Q 2375 1959 1728 2206 
L 1541 2278 
Q 453 2694 453 3481 
Q 453 4006 806 4347 
Q 1203 4725 1863 4725 
Q 2841 4725 3359 3956 
L 2919 3641 
z
" transform="scale(0.015625)"/>
        <path id="IPAexGothic-65" d="M 863 1594 
Q 891 1041 1209 722 
Q 1534 397 1997 397 
Q 2606 397 2963 966 
L 3322 728 
Q 2869 -31 1931 -31 
Q 1222 -31 766 422 
Q 306 884 306 1641 
Q 306 2444 788 2925 
Q 1216 3353 1856 3353 
Q 2459 3353 2866 2956 
Q 3322 2494 3322 1722 
L 3322 1594 
L 863 1594 
z
M 2756 1997 
Q 2709 2431 2450 2681 
Q 2194 2938 1844 2938 
Q 1438 2938 1150 2591 
Q 953 2356 894 1997 
L 2756 1997 
z
" transform="scale(0.015625)"/>
        <path id="IPAexGothic-70" d="M 1075 2688 
Q 1525 3341 2206 3341 
Q 2769 3341 3172 2938 
Q 3641 2469 3641 1644 
Q 3641 841 3178 372 
Q 2775 -31 2200 -31 
Q 1569 -31 1106 497 
L 1106 -1216 
L 563 -1216 
L 563 3250 
L 1075 3250 
L 1075 2688 
z
M 1106 1950 
L 1106 1291 
Q 1106 897 1516 600 
Q 1791 403 2106 403 
Q 2469 403 2725 659 
Q 3066 997 3066 1631 
Q 3066 2200 2784 2559 
Q 2503 2900 2100 2900 
Q 1656 2900 1338 2484 
Q 1106 2184 1106 1950 
z
" transform="scale(0.015625)"/>
       </defs>
       <use xlink:href="#IPAexGothic-53"/>
       <use xlink:href="#IPAexGothic-65" x="58.496094"/>
       <use xlink:href="#IPAexGothic-70" x="115.380859"/>
      </g>
     </g>
    </g>
    <g id="xtick_5">
     <g id="line2d_6">
      <g>
       <use xlink:href="#m256949dbb4" x="198.966845" y="284.991437" style="stroke: #000000; stroke-width: 0.8"/>
      </g>
     </g>
     <g id="text_5">
      <!-- Oct -->
      <g transform="translate(190.531688 299.482062) scale(0.1 -0.1)">
       <defs>
        <path id="IPAexGothic-4f" d="M 2541 4725 
Q 3456 4725 4044 4138 
Q 4709 3472 4709 2331 
Q 4709 1219 4031 550 
Q 3450 -31 2541 -31 
Q 1638 -31 1056 550 
Q 378 1219 378 2356 
Q 378 3469 1044 4138 
Q 1631 4725 2541 4725 
z
M 2541 4266 
Q 1953 4266 1531 3844 
Q 994 3303 994 2350 
Q 994 1391 1531 863 
Q 1947 447 2541 447 
Q 3131 447 3556 863 
Q 4094 1400 4094 2375 
Q 4094 3297 3550 3844 
Q 3138 4266 2541 4266 
z
" transform="scale(0.015625)"/>
        <path id="IPAexGothic-63" d="M 3269 784 
Q 2834 -31 1900 -31 
Q 1228 -31 788 409 
Q 313 891 313 1663 
Q 313 2428 788 2913 
Q 1222 3347 1881 3347 
Q 2813 3347 3206 2541 
L 2763 2309 
Q 2484 2900 1900 2900 
Q 1516 2900 1234 2619 
Q 881 2266 881 1650 
Q 881 1069 1222 728 
Q 1522 428 1956 428 
Q 2547 428 2847 1016 
L 3269 784 
z
" transform="scale(0.015625)"/>
        <path id="IPAexGothic-74" d="M 2125 241 
Q 1769 -6 1397 -6 
Q 653 -6 653 831 
L 653 2859 
L 219 2859 
L 219 3250 
L 653 3250 
L 653 3966 
L 1178 4228 
L 1178 3250 
L 2063 3250 
L 2063 2859 
L 1178 2859 
L 1178 906 
Q 1178 416 1513 416 
Q 1738 416 1941 588 
L 2125 241 
z
" transform="scale(0.015625)"/>
       </defs>
       <use xlink:href="#IPAexGothic-4f"/>
       <use xlink:href="#IPAexGothic-63" x="79.6875"/>
       <use xlink:href="#IPAexGothic-74" x="134.082031"/>
      </g>
     </g>
    </g>
    <g id="xtick_6">
     <g id="line2d_7">
      <g>
       <use xlink:href="#m256949dbb4" x="242.043576" y="284.991437" style="stroke: #000000; stroke-width: 0.8"/>
      </g>
     </g>
     <g id="text_6">
      <!-- Nov -->
      <g transform="translate(232.795139 299.482062) scale(0.1 -0.1)">
       <defs>
        <path id="IPAexGothic-4e" d="M 4244 63 
L 3731 63 
L 1697 3150 
Q 1466 3500 1141 4097 
L 1116 4097 
L 1128 3797 
Q 1159 2803 1159 2469 
L 1159 63 
L 609 63 
L 609 4634 
L 1366 4634 
L 3113 1978 
Q 3453 1447 3713 966 
L 3738 966 
Q 3694 1897 3694 2469 
L 3694 4634 
L 4244 4634 
L 4244 63 
z
" transform="scale(0.015625)"/>
        <path id="IPAexGothic-6f" d="M 1919 3341 
Q 2594 3341 3056 2888 
Q 3531 2413 3531 1638 
Q 3531 888 3066 422 
Q 2609 -31 1919 -31 
Q 1228 -31 781 416 
Q 313 881 313 1656 
Q 313 2413 788 2888 
Q 1241 3341 1919 3341 
z
M 1919 2919 
Q 1519 2919 1241 2631 
Q 888 2278 888 1650 
Q 888 1031 1234 684 
Q 1516 403 1919 403 
Q 2331 403 2609 691 
Q 2956 1038 2956 1672 
Q 2956 2269 2603 2631 
Q 2316 2919 1919 2919 
z
" transform="scale(0.015625)"/>
        <path id="IPAexGothic-76" d="M 3103 3250 
L 1747 6 
L 1375 6 
L 25 3250 
L 628 3250 
L 1338 1388 
L 1522 844 
L 1569 703 
L 1588 703 
Q 1641 884 1822 1388 
L 2516 3250 
L 3103 3250 
z
" transform="scale(0.015625)"/>
       </defs>
       <use xlink:href="#IPAexGothic-4e"/>
       <use xlink:href="#IPAexGothic-6f" x="75.976562"/>
       <use xlink:href="#IPAexGothic-76" x="136.376953"/>
      </g>
     </g>
    </g>
    <g id="xtick_7">
     <g id="line2d_8">
      <g>
       <use xlink:href="#m256949dbb4" x="283.730736" y="284.991437" style="stroke: #000000; stroke-width: 0.8"/>
      </g>
     </g>
     <g id="text_7">
      <!-- Dec -->
      <g transform="translate(274.382298 299.482062) scale(0.1 -0.1)">
       <defs>
        <path id="IPAexGothic-44" d="M 609 4634 
L 1984 4634 
Q 3159 4634 3791 4050 
Q 4456 3444 4456 2356 
Q 4456 1047 3516 441 
Q 2925 63 1941 63 
L 609 63 
L 609 4634 
z
M 1172 556 
L 1894 556 
Q 3853 556 3853 2356 
Q 3853 4147 1928 4147 
L 1172 4147 
L 1172 556 
z
" transform="scale(0.015625)"/>
       </defs>
       <use xlink:href="#IPAexGothic-44"/>
       <use xlink:href="#IPAexGothic-65" x="75.683594"/>
       <use xlink:href="#IPAexGothic-63" x="132.568359"/>
      </g>
     </g>
    </g>
    <g id="xtick_8">
     <g id="line2d_9">
      <g>
       <use xlink:href="#m256949dbb4" x="326.807467" y="284.991437" style="stroke: #000000; stroke-width: 0.8"/>
      </g>
     </g>
     <g id="text_8">
      <!-- 2023 -->
      <g transform="translate(314.210592 299.482062) scale(0.1 -0.1)">
       <defs>
        <path id="IPAexGothic-32" d="M 3659 63 
L 447 63 
L 447 594 
Q 825 1475 1894 2203 
L 2072 2322 
Q 2619 2697 2791 2906 
Q 2988 3153 2988 3444 
Q 2988 3772 2756 4003 
Q 2500 4259 2084 4259 
Q 1250 4259 991 3328 
L 497 3506 
Q 853 4725 2116 4725 
Q 2806 4725 3216 4316 
Q 3575 3947 3575 3425 
Q 3575 3038 3344 2722 
Q 3131 2416 2366 1938 
L 2231 1856 
Q 1256 1253 978 569 
L 3659 569 
L 3659 63 
z
" transform="scale(0.015625)"/>
        <path id="IPAexGothic-30" d="M 2038 4725 
Q 2881 4725 3334 3944 
Q 3694 3325 3694 2344 
Q 3694 1372 3334 741 
Q 2888 -31 2016 -31 
Q 1147 -31 700 741 
Q 341 1372 341 2350 
Q 341 3713 1000 4334 
Q 1419 4725 2038 4725 
z
M 2016 4266 
Q 1516 4266 1228 3759 
Q 934 3247 934 2344 
Q 934 1456 1222 947 
Q 1513 447 2016 447 
Q 2619 447 2909 1153 
Q 3100 1622 3100 2375 
Q 3100 3256 2806 3759 
Q 2509 4266 2016 4266 
z
" transform="scale(0.015625)"/>
        <path id="IPAexGothic-33" d="M 2381 2419 
Q 3506 2216 3506 1278 
Q 3506 716 3128 356 
Q 2709 -31 1944 -31 
Q 797 -31 288 881 
L 756 1131 
Q 1109 441 1938 441 
Q 2425 441 2694 691 
Q 2950 928 2950 1291 
Q 2950 1719 2566 1978 
Q 2216 2213 1644 2213 
L 1363 2213 
L 1363 2669 
L 1656 2669 
Q 2231 2669 2534 2888 
Q 2859 3119 2859 3509 
Q 2859 3934 2494 4138 
Q 2259 4278 1931 4278 
Q 1238 4278 903 3578 
L 434 3803 
Q 897 4725 1938 4725 
Q 2597 4725 3006 4394 
Q 3416 4069 3416 3534 
Q 3416 3028 3019 2706 
Q 2763 2500 2381 2444 
L 2381 2419 
z
" transform="scale(0.015625)"/>
       </defs>
       <use xlink:href="#IPAexGothic-32"/>
       <use xlink:href="#IPAexGothic-30" x="62.988281"/>
       <use xlink:href="#IPAexGothic-32" x="125.976562"/>
       <use xlink:href="#IPAexGothic-33" x="188.964844"/>
      </g>
     </g>
    </g>
    <g id="xtick_9">
     <g id="line2d_10">
      <g>
       <use xlink:href="#m256949dbb4" x="369.884199" y="284.991437" style="stroke: #000000; stroke-width: 0.8"/>
      </g>
     </g>
     <g id="text_9">
      <!-- Feb -->
      <g transform="translate(361.060761 299.482062) scale(0.1 -0.1)">
       <defs>
        <path id="IPAexGothic-46" d="M 3469 4141 
L 1172 4141 
L 1172 2656 
L 3206 2656 
L 3206 2188 
L 1172 2188 
L 1172 63 
L 609 63 
L 609 4634 
L 3469 4634 
L 3469 4141 
z
" transform="scale(0.015625)"/>
        <path id="IPAexGothic-62" d="M 1125 2731 
Q 1550 3341 2219 3341 
Q 2788 3341 3191 2938 
Q 3659 2469 3659 1644 
Q 3659 838 3191 372 
Q 2788 -31 2206 -31 
Q 1559 -31 1088 516 
L 1009 44 
L 581 44 
L 581 4794 
L 1125 4794 
L 1125 2731 
z
M 1125 1997 
L 1125 1253 
Q 1125 888 1528 600 
Q 1803 403 2119 403 
Q 2488 403 2744 659 
Q 3084 1009 3084 1631 
Q 3084 2194 2803 2553 
Q 2525 2900 2125 2900 
Q 1759 2900 1438 2578 
Q 1125 2266 1125 1997 
z
" transform="scale(0.015625)"/>
       </defs>
       <use xlink:href="#IPAexGothic-46"/>
       <use xlink:href="#IPAexGothic-65" x="57.177734"/>
       <use xlink:href="#IPAexGothic-62" x="114.0625"/>
      </g>
     </g>
    </g>
   </g>
   <g id="matplotlib.axis_2">
    <g id="ytick_1">
     <g id="line2d_11">
      <defs>
       <path id="m80f25077d8" d="M 0 0 
L -3.5 0 
" style="stroke: #000000; stroke-width: 0.8"/>
      </defs>
      <g>
       <use xlink:href="#m80f25077d8" x="29.439063" y="269.014637" style="stroke: #000000; stroke-width: 0.8"/>
      </g>
     </g>
     <g id="text_10">
      <!-- 0.5 -->
      <g transform="translate(7.2 272.759949) scale(0.1 -0.1)">
       <defs>
        <path id="IPAexGothic-2e" d="M 1184 63 
L 494 63 
L 494 753 
L 1184 753 
L 1184 63 
z
" transform="scale(0.015625)"/>
        <path id="IPAexGothic-35" d="M 1178 2603 
Q 1634 2963 2172 2963 
Q 2816 2963 3241 2528 
Q 3638 2113 3638 1497 
Q 3638 938 3297 513 
Q 2869 -31 2031 -31 
Q 959 -31 469 784 
L 938 1028 
Q 1309 434 2013 434 
Q 2466 434 2769 716 
Q 3081 1013 3081 1503 
Q 3081 1966 2806 2241 
Q 2519 2528 2056 2528 
Q 1406 2528 1072 2028 
L 591 2091 
L 884 4634 
L 3406 4634 
L 3406 4153 
L 1341 4153 
L 1134 2603 
L 1178 2603 
z
" transform="scale(0.015625)"/>
       </defs>
       <use xlink:href="#IPAexGothic-30"/>
       <use xlink:href="#IPAexGothic-2e" x="62.988281"/>
       <use xlink:href="#IPAexGothic-35" x="89.404297"/>
      </g>
     </g>
    </g>
    <g id="ytick_2">
     <g id="line2d_12">
      <g>
       <use xlink:href="#m80f25077d8" x="29.439063" y="211.199039" style="stroke: #000000; stroke-width: 0.8"/>
      </g>
     </g>
     <g id="text_11">
      <!-- 1.0 -->
      <g transform="translate(7.2 214.944352) scale(0.1 -0.1)">
       <defs>
        <path id="IPAexGothic-31" d="M 2463 63 
L 1900 63 
L 1900 4103 
Q 1372 3922 788 3797 
L 684 4231 
Q 1519 4441 2106 4731 
L 2463 4731 
L 2463 63 
z
" transform="scale(0.015625)"/>
       </defs>
       <use xlink:href="#IPAexGothic-31"/>
       <use xlink:href="#IPAexGothic-2e" x="62.988281"/>
       <use xlink:href="#IPAexGothic-30" x="89.404297"/>
      </g>
     </g>
    </g>
    <g id="ytick_3">
     <g id="line2d_13">
      <g>
       <use xlink:href="#m80f25077d8" x="29.439063" y="153.383442" style="stroke: #000000; stroke-width: 0.8"/>
      </g>
     </g>
     <g id="text_12">
      <!-- 1.5 -->
      <g transform="translate(7.2 157.128754) scale(0.1 -0.1)">
       <use xlink:href="#IPAexGothic-31"/>
       <use xlink:href="#IPAexGothic-2e" x="62.988281"/>
       <use xlink:href="#IPAexGothic-35" x="89.404297"/>
      </g>
     </g>
    </g>
    <g id="ytick_4">
     <g id="line2d_14">
      <g>
       <use xlink:href="#m80f25077d8" x="29.439063" y="95.567844" style="stroke: #000000; stroke-width: 0.8"/>
      </g>
     </g>
     <g id="text_13">
      <!-- 2.0 -->
      <g transform="translate(7.2 99.313157) scale(0.1 -0.1)">
       <use xlink:href="#IPAexGothic-32"/>
       <use xlink:href="#IPAexGothic-2e" x="62.988281"/>
       <use xlink:href="#IPAexGothic-30" x="89.404297"/>
      </g>
     </g>
    </g>
    <g id="ytick_5">
     <g id="line2d_15">
      <g>
       <use xlink:href="#m80f25077d8" x="29.439063" y="37.752247" style="stroke: #000000; stroke-width: 0.8"/>
      </g>
     </g>
     <g id="text_14">
      <!-- 2.5 -->
      <g transform="translate(7.2 41.497559) scale(0.1 -0.1)">
       <use xlink:href="#IPAexGothic-32"/>
       <use xlink:href="#IPAexGothic-2e" x="62.988281"/>
       <use xlink:href="#IPAexGothic-35" x="89.404297"/>
      </g>
     </g>
    </g>
   </g>
   <g id="line2d_16">
    <path d="M 29.439062 227.411867 
L 30.828634 255.471758 
L 32.218206 269.405805 
L 33.607778 242.945807 
L 34.99735 262.441258 
L 37.776494 251.639145 
L 39.166066 227.514621 
L 40.555638 229.940841 
L 41.94521 194.078383 
L 43.334782 246.403784 
L 44.724354 250.411663 
L 46.113926 205.84664 
L 47.503498 249.191321 
L 48.89307 272.895437 
L 50.282642 243.090535 
L 51.672214 247.559579 
L 53.061786 238.429093 
L 54.451358 112.810292 
L 55.84093 184.323192 
L 57.230502 181.498781 
L 58.620074 30.975437 
L 61.399218 168.571026 
L 62.78879 110.868109 
L 64.178362 213.126183 
L 65.567934 156.293505 
L 66.957506 124.518024 
L 68.347078 151.875457 
L 69.73665 236.751655 
L 71.126222 106.655378 
L 72.515794 51.387485 
L 73.905366 102.788184 
L 75.294938 95.926279 
L 76.68451 36.542983 
L 78.074082 79.37836 
L 79.463654 35.439549 
L 80.853226 110.396771 
L 82.242798 116.980214 
L 83.63237 109.726148 
L 85.021942 177.160719 
L 86.411514 110.814502 
L 87.801086 153.702013 
L 89.190658 148.460822 
L 90.58023 164.812112 
L 91.969802 190.526245 
L 93.359374 181.526351 
L 94.748946 197.096587 
L 96.138518 219.976945 
L 97.52809 163.710275 
L 98.917662 173.022011 
L 100.307234 196.817697 
L 101.696806 179.527296 
L 103.086378 191.661352 
L 104.47595 192.887858 
L 105.865522 173.15897 
L 107.255094 188.50237 
L 108.644666 201.809366 
L 110.034238 195.197746 
L 111.42381 183.412435 
L 112.813382 192.046725 
L 114.202954 204.737627 
L 115.592526 199.025674 
L 116.982098 189.016626 
L 118.37167 185.809755 
L 119.761241 182.941981 
L 121.150813 200.02008 
L 122.540385 192.032303 
L 123.929957 181.775482 
L 125.319529 186.871327 
L 126.709101 193.9839 
L 128.098673 204.601463 
L 129.488245 225.669065 
L 130.877817 207.989558 
L 132.267389 218.057369 
L 133.656961 204.232725 
L 135.046533 217.282458 
L 136.436105 202.720535 
L 137.825677 195.141529 
L 139.215249 153.461242 
L 140.604821 171.531238 
L 141.994393 185.828914 
L 143.383965 204.950127 
L 144.773537 187.736367 
L 146.163109 211.671324 
L 147.552681 216.92144 
L 148.942253 231.587854 
L 150.331825 248.509599 
L 151.721397 240.826108 
L 153.110969 241.29957 
L 154.500541 247.072575 
L 155.890113 251.367839 
L 157.279685 251.669425 
L 158.669257 251.785215 
L 160.058829 242.900107 
L 161.448401 251.663262 
L 162.837973 241.186243 
L 164.227545 228.929625 
L 165.617117 240.670472 
L 167.006689 239.689961 
L 168.396261 228.587222 
L 169.785833 234.114512 
L 171.175405 220.053728 
L 172.564977 221.634093 
L 173.954549 247.789493 
L 175.344121 250.578039 
L 176.733693 230.847867 
L 178.123265 240.571341 
L 179.512837 229.667605 
L 180.902409 228.965012 
L 182.291981 226.507 
L 183.681553 266.267581 
L 185.071125 173.994674 
L 186.460697 228.352097 
L 187.850269 212.968149 
L 189.239841 243.863512 
L 190.629413 195.951487 
L 192.018985 187.500784 
L 193.408557 195.32975 
L 194.798129 238.855842 
L 196.187701 224.563828 
L 197.577273 239.674853 
L 198.966845 205.067187 
L 200.356417 219.657973 
L 201.745989 258.893645 
L 203.135561 189.095647 
L 204.525133 231.988543 
L 205.914705 230.452082 
L 207.304277 208.848889 
L 208.693848 214.413367 
L 210.08342 237.774657 
L 211.472992 208.216448 
L 212.862564 269.328924 
L 214.252136 186.857034 
L 215.641708 168.652783 
L 217.03128 211.199039 
L 218.420852 197.903063 
L 219.810424 190.42842 
L 221.199996 209.746404 
L 222.589568 135.123595 
L 223.97914 212.926136 
L 225.368712 239.34414 
L 226.758284 184.631705 
L 228.147856 193.892671 
L 229.537428 220.351516 
L 230.927 197.002011 
L 232.316572 191.634272 
L 233.706144 213.253557 
L 235.095716 183.049443 
L 236.485288 199.198481 
L 237.87486 190.346771 
L 239.264432 160.309806 
L 240.654004 189.784075 
L 242.043576 198.104074 
L 243.433148 152.110827 
L 244.82272 152.9204 
L 246.212292 232.748365 
L 247.601864 165.024121 
L 248.991436 194.085734 
L 250.381008 199.838398 
L 251.77058 173.564927 
L 253.160152 209.205445 
L 254.549724 206.690562 
L 255.939296 156.249641 
L 257.328868 220.402577 
L 258.71844 215.284532 
L 260.108012 225.924092 
L 261.497584 188.099011 
L 262.887156 185.511636 
L 264.276728 211.199039 
L 265.6663 194.160213 
L 267.055872 184.55213 
L 268.445444 182.799057 
L 271.224588 203.930102 
L 272.61416 168.757197 
L 274.003732 220.491359 
L 275.393304 171.577359 
L 278.172448 192.11637 
L 279.56202 204.402838 
L 280.951592 198.987955 
L 282.341164 181.777237 
L 283.730736 142.696764 
L 285.120308 213.580923 
L 286.50988 220.529523 
L 287.899452 204.080643 
L 289.289024 205.292279 
L 290.678596 181.962456 
L 292.068168 194.793532 
L 293.45774 197.432704 
L 294.847312 173.295964 
L 296.236884 175.045451 
L 297.626455 167.16196 
L 299.016027 187.120934 
L 300.405599 183.834422 
L 301.795171 173.778001 
L 303.184743 181.23856 
L 304.574315 201.020413 
L 305.963887 187.828789 
L 307.353459 213.66936 
L 308.743031 207.768569 
L 310.132603 207.295129 
L 311.522175 192.832229 
L 312.911747 206.958159 
L 314.301319 188.728128 
L 315.690891 193.851266 
L 317.080463 207.103197 
L 318.470035 215.224404 
L 319.859607 196.113595 
L 321.249179 220.91992 
L 322.638751 200.04709 
L 324.028323 223.444191 
L 325.417895 251.024981 
L 326.807467 228.180558 
L 328.197039 208.755181 
L 329.586611 251.311193 
L 330.976183 254.432046 
L 332.365755 215.74342 
L 333.755327 126.299141 
L 335.144899 90.185267 
L 336.534471 169.01121 
L 337.924043 202.233317 
L 339.313615 208.810336 
L 340.703187 167.736099 
L 342.092759 215.685286 
L 343.482331 255.304956 
L 344.871903 257.151057 
L 346.261475 241.910597 
L 347.651047 230.363911 
L 349.040619 201.639485 
L 350.430191 252.591109 
L 351.819763 261.202922 
L 353.209335 248.191392 
L 354.598907 245.888016 
L 355.988479 248.528538 
L 357.378051 233.937612 
L 358.767623 243.873594 
L 360.157195 245.699396 
L 361.546767 238.379427 
L 362.936339 250.421781 
L 364.325911 242.025158 
L 365.715483 235.679743 
L 367.105055 231.977605 
L 368.494627 268.725993 
L 369.884199 251.010186 
L 371.273771 243.44844 
L 372.663343 231.173865 
L 374.052915 246.470516 
L 375.442487 240.806074 
L 376.832059 205.729567 
L 378.221631 216.74151 
L 379.611203 221.239134 
L 381.000775 222.049942 
L 382.390347 236.243828 
L 383.779919 216.587974 
L 385.169491 250.056764 
L 385.169491 250.056764 
" clip-path="url(#p3610b7f6ee)" style="fill: none; stroke: #1f77b4; stroke-width: 1.5; stroke-linecap: square"/>
   </g>
   <g id="line2d_17">
    <path d="M 29.439062 230.929789 
L 30.828634 242.60231 
L 32.218206 262.8168 
L 33.607778 257.425513 
L 34.99735 253.337157 
L 36.386922 259.836211 
L 37.776494 254.434415 
L 39.166066 240.414674 
L 40.555638 228.735232 
L 41.94521 213.41839 
L 43.334782 223.501825 
L 44.724354 248.433331 
L 46.113926 230.677266 
L 47.503498 229.912564 
L 48.89307 262.11981 
L 50.282642 259.625445 
L 51.672214 245.355694 
L 53.061786 243.118728 
L 54.451358 189.281671 
L 55.84093 152.189606 
L 57.230502 182.917915 
L 58.620074 119.473036 
L 60.009646 68.196709 
L 61.399218 137.669929 
L 62.78879 141.957318 
L 64.178362 170.127431 
L 65.567934 187.579679 
L 66.957506 141.084002 
L 68.347078 138.693349 
L 69.73665 201.292679 
L 71.126222 186.000414 
L 72.515794 80.567026 
L 73.905366 78.413733 
L 75.294938 99.383107 
L 76.68451 67.931655 
L 78.074082 58.815077 
L 79.463654 58.306173 
L 80.853226 75.699401 
L 82.242798 113.713912 
L 83.63237 113.383995 
L 85.021942 146.569691 
L 86.411514 147.022086 
L 87.801086 133.443524 
L 89.190658 151.100956 
L 90.58023 156.832948 
L 91.969802 178.224324 
L 93.359374 186.098223 
L 94.748946 189.532009 
L 96.138518 209.091256 
L 97.52809 194.807872 
L 98.917662 168.434555 
L 100.307234 185.419494 
L 101.696806 188.44227 
L 103.086378 185.724694 
L 104.47595 192.276003 
L 105.865522 183.362139 
L 107.255094 181.032368 
L 108.644666 195.324076 
L 110.034238 198.546144 
L 111.42381 189.431392 
L 112.813382 187.79659 
L 114.202954 198.54902 
L 115.592526 201.914295 
L 116.982098 194.115474 
L 118.37167 187.422411 
L 119.761241 184.383085 
L 121.150813 191.750659 
L 122.540385 196.087179 
L 123.929957 186.997904 
L 125.319529 184.346184 
L 126.709101 190.473981 
L 128.098673 199.403219 
L 129.488245 215.633088 
L 130.877817 217.185071 
L 132.267389 213.134848 
L 133.656961 211.351742 
L 135.046533 210.94113 
L 136.436105 210.228598 
L 137.825677 198.987184 
L 139.215249 175.731796 
L 140.604821 162.744798 
L 143.383965 195.737687 
L 144.773537 196.62741 
L 146.163109 200.268399 
L 147.552681 214.327003 
L 148.942253 224.517111 
L 150.331825 240.462163 
L 151.721397 244.757718 
L 153.110969 241.063165 
L 154.500541 244.236496 
L 155.890113 249.249927 
L 157.279685 251.518783 
L 158.669257 251.727342 
L 160.058829 247.466905 
L 161.448401 247.402446 
L 162.837973 246.595581 
L 164.227545 235.262778 
L 165.617117 234.987471 
L 167.006689 240.181603 
L 168.396261 234.304978 
L 169.785833 231.390872 
L 171.175405 227.332189 
L 172.564977 220.846856 
L 173.954549 235.644814 
L 175.344121 249.196285 
L 176.733693 241.279862 
L 178.123265 235.839395 
L 179.512837 235.281663 
L 180.902409 229.316941 
L 182.291981 227.743627 
L 183.681553 248.882551 
L 185.071125 230.621466 
L 186.460697 204.147875 
L 187.850269 220.93913 
L 189.239841 229.635769 
L 190.629413 222.625721 
L 192.018985 191.792225 
L 193.408557 191.471858 
L 194.798129 219.272458 
L 196.187701 231.97864 
L 197.577273 232.42119 
L 198.966845 223.814193 
L 200.356417 212.595296 
L 201.745989 241.501939 
L 203.135561 230.097519 
L 204.525133 212.536835 
L 205.914705 231.223399 
L 207.304277 220.196168 
L 208.693848 211.66473 
L 210.08342 226.773505 
L 211.472992 224.052711 
L 212.862564 244.24423 
L 214.252136 237.116008 
L 215.641708 178.033043 
L 218.420852 204.731901 
L 219.810424 194.218394 
L 221.199996 200.456001 
L 222.589568 177.011185 
L 223.97914 179.059561 
L 225.368712 227.005264 
L 226.758284 215.29372 
L 228.147856 189.34014 
L 229.537428 207.855357 
L 230.927 209.25497 
L 232.316572 194.345323 
L 233.706144 202.914504 
L 235.095716 199.04078 
L 236.485288 191.364392 
L 237.87486 194.846812 
L 239.264432 176.074523 
L 240.654004 175.764073 
L 242.043576 194.009205 
L 243.433148 176.860376 
L 244.82272 152.516084 
L 246.212292 198.91713 
L 247.601864 203.448625 
L 248.991436 180.273516 
L 250.381008 196.993923 
L 251.77058 187.318791 
L 253.160152 192.562593 
L 254.549724 207.954654 
L 255.939296 183.674736 
L 257.328868 192.091624 
L 258.71844 217.873602 
L 260.108012 220.737602 
L 261.497584 208.513572 
L 262.887156 186.8113 
L 264.276728 198.998945 
L 265.6663 202.972279 
L 267.055872 189.440136 
L 268.445444 183.678277 
L 269.835016 188.335204 
L 271.224588 198.897374 
L 272.61416 187.448754 
L 274.003732 197.179515 
L 275.393304 198.341262 
L 276.782876 176.894581 
L 278.172448 187.16406 
L 279.56202 198.406453 
L 280.951592 201.724689 
L 282.341164 190.654224 
L 283.730736 163.401008 
L 285.120308 182.424595 
L 286.50988 217.110216 
L 287.899452 212.600777 
L 289.289024 204.687964 
L 290.678596 194.139114 
L 292.068168 188.526714 
L 293.45774 196.119779 
L 294.847312 185.880047 
L 296.236884 174.173214 
L 297.626455 171.1536 
L 299.016027 177.474475 
L 300.405599 185.48723 
L 301.795171 178.891638 
L 303.184743 177.554882 
L 304.574315 191.49043 
L 305.963887 194.588989 
L 307.353459 201.412831 
L 308.743031 210.756455 
L 310.132603 207.532084 
L 311.522175 200.270107 
L 312.911747 200.091846 
L 314.301319 198.165608 
L 315.690891 191.313905 
L 317.080463 200.651084 
L 318.470035 211.235099 
L 319.859607 206.046382 
L 321.249179 209.168684 
L 322.638751 210.952529 
L 324.028323 212.341773 
L 325.417895 238.302243 
L 326.807467 240.353858 
L 328.197039 218.904029 
L 329.586611 232.400817 
L 330.976183 252.888083 
L 332.365755 237.150337 
L 333.755327 177.577562 
L 335.144899 108.989297 
L 336.534471 133.576313 
L 337.924043 186.602691 
L 339.313615 205.566408 
L 340.703187 189.803691 
L 342.092759 193.854637 
L 343.482331 237.669294 
L 344.871903 256.234041 
L 346.261475 249.907348 
L 347.651047 236.3212 
L 349.040619 216.936234 
L 350.430191 230.424572 
L 351.819763 257.029702 
L 353.209335 254.991137 
L 354.598907 247.048016 
L 355.988479 247.219224 
L 357.378051 241.544538 
L 358.767623 239.046068 
L 360.157195 244.791574 
L 361.546767 242.11844 
L 362.936339 244.62081 
L 364.325911 246.332876 
L 365.715483 238.909678 
L 367.105055 233.847098 
L 368.494627 252.591834 
L 369.884199 260.456547 
L 371.273771 247.319155 
L 372.663343 237.521782 
L 374.052915 239.155159 
L 375.442487 243.68652 
L 376.832059 224.763671 
L 378.221631 211.366742 
L 379.611203 219.013772 
L 381.000775 221.645319 
L 382.390347 229.405031 
L 383.779919 226.898006 
L 385.169491 234.831969 
L 385.169491 234.831969 
" clip-path="url(#p3610b7f6ee)" style="fill: none; stroke: #ff7f0e; stroke-width: 1.5; stroke-linecap: square"/>
   </g>
   <g id="line2d_18">
    <path d="M 29.439062 229.122786 
L 30.828634 239.928401 
L 32.218206 252.698705 
L 33.607778 256.780278 
L 34.99735 259.139403 
L 36.386922 254.622372 
L 37.776494 257.208287 
L 39.166066 246.388486 
L 40.555638 237.055655 
L 41.94521 218.326475 
L 44.724354 233.387372 
L 46.113926 236.234427 
L 47.503498 237.293425 
L 50.282642 256.313321 
L 51.672214 255.822722 
L 53.061786 243.109331 
L 54.451358 212.36467 
L 57.230502 162.563334 
L 58.620074 143.84129 
L 60.009646 113.406318 
L 61.399218 107.256927 
L 62.78879 129.127564 
L 64.178362 169.610337 
L 65.567934 165.645532 
L 66.957506 169.115602 
L 68.347078 144.753156 
L 69.73665 179.647632 
L 71.126222 175.437505 
L 72.515794 150.710969 
L 73.905366 88.208754 
L 75.294938 84.394062 
L 76.68451 80.114816 
L 78.074082 71.804879 
L 79.463654 51.239386 
L 80.853226 76.931758 
L 82.242798 90.291085 
L 83.63237 112.392863 
L 85.021942 137.201801 
L 86.411514 135.362509 
L 87.801086 149.276885 
L 89.190658 138.58476 
L 90.58023 155.795645 
L 91.969802 168.900399 
L 96.138518 200.539182 
L 97.52809 195.575228 
L 98.917662 187.912342 
L 100.307234 178.52472 
L 101.696806 183.482093 
L 103.086378 189.523726 
L 104.47595 188.153999 
L 105.865522 186.18367 
L 107.255094 185.09643 
L 108.644666 188.315827 
L 110.034238 195.281979 
L 111.42381 193.687884 
L 112.813382 190.308761 
L 114.202954 193.689874 
L 115.592526 198.708102 
L 116.982098 197.755094 
L 118.37167 191.402728 
L 119.761241 185.944654 
L 121.150813 189.7987 
L 122.540385 191.844605 
L 123.929957 191.480812 
L 125.319529 186.955724 
L 126.709101 187.634041 
L 128.098673 195.355837 
L 129.488245 208.84012 
L 132.267389 217.476612 
L 133.656961 210.241718 
L 135.046533 213.36349 
L 136.436105 208.263285 
L 137.825677 205.402114 
L 139.215249 185.324114 
L 140.604821 174.344388 
L 141.994393 170.831497 
L 143.383965 188.120092 
L 144.773537 193.123075 
L 146.163109 201.848623 
L 147.552681 206.082407 
L 148.942253 220.402845 
L 150.331825 233.236603 
L 151.721397 240.583648 
L 153.110969 243.620823 
L 154.500541 243.114997 
L 157.279685 250.064959 
L 158.669257 251.607698 
L 160.058829 248.893225 
L 161.448401 248.891095 
L 162.837973 245.382199 
L 165.617117 237.10204 
L 167.006689 236.582508 
L 168.396261 236.477418 
L 169.785833 234.241533 
L 171.175405 227.752305 
L 172.564977 225.467971 
L 173.954549 230.718701 
L 175.344121 240.92208 
L 176.733693 243.507227 
L 178.123265 241.044337 
L 179.512837 233.826969 
L 180.902409 233.222764 
L 182.291981 228.38915 
L 183.681553 242.740121 
L 185.071125 229.269077 
L 186.460697 229.870881 
L 187.850269 207.161383 
L 189.239841 229.209749 
L 190.629413 219.501156 
L 192.018985 212.031087 
L 193.408557 192.98185 
L 194.798129 209.581314 
L 196.187701 221.065989 
L 197.577273 234.616737 
L 198.966845 224.06468 
L 200.356417 222.447011 
L 201.745989 230.764786 
L 203.135561 226.735849 
L 204.525133 230.732013 
L 205.914705 218.850986 
L 207.304277 224.281475 
L 208.693848 218.302399 
L 210.08342 221.123664 
L 211.472992 220.93512 
L 212.862564 242.141688 
L 214.252136 228.364316 
L 215.641708 218.44859 
L 217.03128 190.029585 
L 218.420852 193.727182 
L 219.810424 200.139008 
L 221.199996 199.610689 
L 222.589568 181.624175 
L 223.97914 190.09163 
L 226.758284 214.510045 
L 228.147856 208.573118 
L 229.537428 200.569432 
L 230.927 204.342327 
L 232.316572 203.652593 
L 233.706144 200.974213 
L 235.095716 196.618162 
L 236.485288 199.093369 
L 237.87486 191.026031 
L 239.264432 184.214067 
L 240.654004 180.790352 
L 242.043576 183.611312 
L 243.433148 181.298308 
L 244.82272 169.270937 
L 246.212292 184.905831 
L 247.601864 188.492178 
L 248.991436 200.403438 
L 250.381008 187.108997 
L 251.77058 189.611924 
L 253.160152 195.033037 
L 254.549724 197.447481 
L 255.939296 192.747876 
L 257.328868 197.145102 
L 258.71844 200.314175 
L 260.108012 220.626045 
L 262.887156 201.295556 
L 264.276728 195.464272 
L 265.6663 197.405968 
L 267.055872 197.113713 
L 268.445444 187.261183 
L 269.835016 187.08549 
L 271.224588 193.741822 
L 272.61416 189.550213 
L 274.003732 199.469935 
L 275.393304 189.152671 
L 276.782876 193.119185 
L 278.172448 182.150609 
L 279.56202 193.164416 
L 280.951592 198.60058 
L 282.341164 195.400607 
L 283.730736 176.246527 
L 285.120308 182.20913 
L 286.50988 196.443074 
L 287.899452 212.928431 
L 289.289024 210.214796 
L 290.678596 197.539344 
L 292.068168 194.357613 
L 294.847312 188.916137 
L 296.236884 182.357292 
L 297.626455 171.871023 
L 299.016027 176.669151 
L 300.405599 179.625281 
L 301.795171 181.687232 
L 303.184743 179.678119 
L 304.574315 185.826618 
L 305.963887 190.280728 
L 307.353459 201.282161 
L 308.743031 203.568241 
L 310.132603 209.613962 
L 311.522175 202.82065 
L 312.911747 202.539923 
L 314.301319 196.411828 
L 315.690891 196.743275 
L 317.080463 196.795762 
L 318.470035 205.708887 
L 319.859607 206.399686 
L 321.249179 211.222913 
L 322.638751 206.203506 
L 324.028323 215.275699 
L 325.417895 227.04317 
L 326.807467 235.049338 
L 328.197039 230.893623 
L 329.586611 231.014516 
L 330.976183 240.403632 
L 332.365755 242.143466 
L 333.755327 209.55923 
L 335.144899 152.790998 
L 336.534471 131.180415 
L 337.924043 159.879638 
L 339.313615 194.434509 
L 340.703187 194.078898 
L 342.092759 199.039398 
L 343.482331 218.686553 
L 344.871903 244.703586 
L 346.261475 251.750355 
L 347.651047 243.877834 
L 349.040619 225.985777 
L 350.430191 230.404356 
L 353.209335 254.199875 
L 354.598907 252.076606 
L 357.378051 243.017663 
L 358.767623 242.328067 
L 360.157195 241.322359 
L 361.546767 242.707579 
L 362.936339 244.981923 
L 364.325911 243.764543 
L 365.715483 242.927891 
L 367.105055 236.657187 
L 368.494627 247.335431 
L 369.884199 252.068319 
L 371.273771 255.212423 
L 372.663343 242.265414 
L 374.052915 240.610269 
L 375.442487 239.708955 
L 376.832059 232.583033 
L 378.221631 222.156768 
L 379.611203 214.756056 
L 381.000775 220.03548 
L 382.390347 226.75576 
L 383.779919 225.307435 
L 385.169491 235.305016 
L 385.169491 235.305016 
" clip-path="url(#p3610b7f6ee)" style="fill: none; stroke: #2ca02c; stroke-width: 1.5; stroke-linecap: square"/>
   </g>
   <g id="line2d_19">
    <path d="M 29.439062 221.275211 
L 30.828634 236.505406 
L 32.218206 248.478994 
L 33.607778 250.372301 
L 34.99735 258.240554 
L 36.386922 258.641514 
L 37.776494 253.887849 
L 39.166066 250.742613 
L 40.555638 242.558839 
L 41.94521 227.832517 
L 43.334782 226.152528 
L 44.724354 232.537407 
L 46.113926 227.154092 
L 47.503498 239.663468 
L 48.89307 247.949949 
L 50.282642 246.12502 
L 51.672214 254.219959 
L 53.061786 251.824807 
L 54.451358 220.968504 
L 55.84093 205.919399 
L 57.230502 186.135769 
L 58.620074 136.533121 
L 60.009646 133.903952 
L 61.399218 128.780364 
L 62.78879 108.165345 
L 64.178362 154.661857 
L 65.567934 166.381937 
L 66.957506 156.222628 
L 69.73665 174.127491 
L 71.126222 164.056515 
L 72.515794 151.002816 
L 73.905366 139.788926 
L 75.294938 90.161987 
L 76.68451 73.226844 
L 78.074082 79.930908 
L 79.463654 63.162834 
L 80.853226 67.394559 
L 82.242798 87.608872 
L 83.63237 95.307164 
L 85.021942 130.829051 
L 86.411514 130.923693 
L 89.190658 149.07322 
L 90.58023 145.514995 
L 91.969802 165.230701 
L 93.359374 172.15619 
L 94.748946 183.990017 
L 96.138518 198.107108 
L 97.52809 192.195781 
L 98.917662 190.267628 
L 100.307234 190.194295 
L 101.696806 178.776002 
L 103.086378 185.572177 
L 104.47595 190.372599 
L 105.865522 184.54832 
L 107.255094 186.766963 
L 108.644666 189.473261 
L 110.034238 190.069324 
L 111.42381 192.410021 
L 115.592526 195.044354 
L 116.982098 196.351076 
L 118.37167 194.867136 
L 119.761241 189.335364 
L 121.150813 189.603599 
L 122.540385 190.360547 
L 123.929957 189.394825 
L 125.319529 190.342872 
L 126.709101 188.74688 
L 128.098673 192.084855 
L 129.488245 203.69443 
L 130.877817 208.628052 
L 132.267389 214.390906 
L 133.656961 214.306201 
L 135.046533 212.043229 
L 136.436105 210.791529 
L 137.825677 205.110817 
L 139.215249 194.096195 
L 140.604821 181.995215 
L 141.994393 177.300368 
L 143.383965 180.166067 
L 144.773537 188.02426 
L 146.163109 198.022962 
L 148.942253 213.03684 
L 150.331825 228.256977 
L 151.721397 235.194567 
L 153.110969 240.763189 
L 154.500541 244.49752 
L 155.890113 245.259188 
L 158.669257 250.498685 
L 160.058829 249.519384 
L 161.448401 249.59516 
L 162.837973 247.032432 
L 164.227545 241.548346 
L 165.617117 240.987516 
L 168.396261 234.646856 
L 169.785833 235.892398 
L 172.564977 226.256947 
L 173.954549 231.579139 
L 175.344121 236.122417 
L 176.733693 238.507266 
L 178.123265 242.782759 
L 179.512837 238.331566 
L 180.902409 232.634606 
L 182.291981 231.587191 
L 183.681553 239.646891 
L 185.071125 229.193149 
L 186.460697 229.040635 
L 187.850269 225.896331 
L 189.239841 217.632953 
L 190.629413 221.78581 
L 192.018985 212.266073 
L 193.408557 208.065956 
L 194.798129 206.313066 
L 196.187701 213.521109 
L 197.577273 226.061058 
L 198.966845 227.980673 
L 200.356417 222.980288 
L 201.745989 233.074257 
L 203.135561 221.710038 
L 204.525133 228.075685 
L 205.914705 230.662107 
L 207.304277 216.432907 
L 208.693848 221.898783 
L 210.08342 223.537176 
L 211.472992 218.034898 
L 212.862564 235.927619 
L 214.252136 230.806248 
L 215.641708 215.976432 
L 217.03128 216.679967 
L 218.420852 192.041922 
L 219.810424 192.910047 
L 221.199996 202.612348 
L 222.589568 185.877122 
L 223.97914 190.175906 
L 225.368712 204.536808 
L 226.758284 198.448671 
L 228.147856 209.676726 
L 229.537428 211.634562 
L 230.927 199.686873 
L 232.316572 201.281933 
L 233.706144 206.126362 
L 235.095716 196.71423 
L 236.485288 197.268091 
L 237.87486 196.960725 
L 239.264432 183.923798 
L 240.654004 185.627441 
L 242.043576 185.325715 
L 243.433148 176.313222 
L 244.82272 174.670499 
L 246.212292 188.327129 
L 247.601864 180.177036 
L 250.381008 200.262414 
L 251.77058 183.839538 
L 253.160152 194.796847 
L 254.549724 198.049398 
L 255.939296 188.189868 
L 257.328868 200.271432 
L 258.71844 201.939318 
L 260.108012 207.269481 
L 261.497584 213.289999 
L 262.887156 204.949238 
L 264.276728 203.848238 
L 265.6663 195.139464 
L 267.055872 194.305696 
L 268.445444 193.674278 
L 269.835016 188.888776 
L 271.224588 191.5016 
L 272.61416 187.892686 
L 274.003732 198.041309 
L 275.393304 193.005785 
L 276.782876 187.405469 
L 278.172448 192.869183 
L 279.56202 188.066754 
L 280.951592 194.64471 
L 282.341164 194.587132 
L 283.730736 183.841066 
L 285.120308 186.599767 
L 286.50988 192.921842 
L 287.899452 198.395901 
L 289.289024 211.065593 
L 292.068168 196.858291 
L 293.45774 195.13317 
L 294.847312 187.209652 
L 296.236884 185.572071 
L 297.626455 178.699715 
L 299.016027 175.832866 
L 300.405599 178.493445 
L 301.795171 178.184745 
L 303.184743 181.575194 
L 304.574315 185.331186 
L 305.963887 186.329848 
L 307.353459 196.546057 
L 308.743031 202.936162 
L 310.132603 204.510717 
L 311.522175 205.626636 
L 312.911747 203.868227 
L 314.301319 199.222196 
L 315.690891 195.776348 
L 317.080463 199.414406 
L 318.470035 201.670223 
L 319.859607 203.378204 
L 321.249179 210.206468 
L 322.638751 208.524885 
L 324.028323 210.766072 
L 325.417895 225.546373 
L 328.197039 229.083162 
L 329.586611 236.464788 
L 330.976183 237.497733 
L 332.365755 234.806213 
L 333.755327 221.777563 
L 335.144899 187.059161 
L 336.534471 156.996009 
L 337.924043 152.052377 
L 339.313615 173.746238 
L 340.703187 188.21243 
L 342.092759 199.845473 
L 343.482331 216.297816 
L 346.261475 244.014071 
L 347.651047 246.895303 
L 349.040619 234.888058 
L 350.430191 233.419403 
L 351.819763 239.247932 
L 353.209335 243.609469 
L 354.598907 252.205565 
L 355.988479 251.204953 
L 357.378051 244.342162 
L 358.767623 243.23247 
L 360.157195 243.18381 
L 361.546767 240.595936 
L 362.936339 244.706237 
L 364.325911 244.25254 
L 365.715483 241.813187 
L 367.105055 240.314936 
L 368.494627 246.039879 
L 369.884199 248.270489 
L 371.273771 250.000714 
L 372.663343 249.838473 
L 374.052915 243.336882 
L 375.442487 240.659262 
L 376.832059 232.232699 
L 378.221631 228.85032 
L 379.611203 221.92811 
L 381.000775 216.625799 
L 382.390347 224.341012 
L 383.779919 224.305296 
L 385.169491 232.157378 
L 385.169491 232.157378 
" clip-path="url(#p3610b7f6ee)" style="fill: none; stroke: #d62728; stroke-width: 1.5; stroke-linecap: square"/>
   </g>
   <g id="line2d_20">
    <path d="M 29.439062 222.506149 
L 30.828634 229.225195 
L 32.218206 244.328125 
L 33.607778 247.402355 
L 34.99735 252.954749 
L 36.386922 258.019032 
L 37.776494 257.295259 
L 39.166066 249.2435 
L 40.555638 246.974437 
L 41.94521 234.54074 
L 43.334782 231.861658 
L 44.724354 231.553594 
L 46.113926 227.717781 
L 47.503498 232.012654 
L 48.89307 247.643113 
L 51.672214 246.413994 
L 53.061786 251.305355 
L 54.451358 234.325278 
L 55.84093 214.484016 
L 57.230502 201.387908 
L 58.620074 163.586194 
L 60.009646 129.858474 
L 61.399218 141.397281 
L 62.78879 125.3209 
L 64.178362 134.972888 
L 65.567934 154.989431 
L 66.957506 158.76708 
L 68.347078 155.361922 
L 69.73665 182.873277 
L 71.126222 162.532711 
L 72.515794 145.998895 
L 73.905366 142.271252 
L 75.294938 131.739654 
L 76.68451 80.2958 
L 78.074082 74.469261 
L 79.463654 71.612377 
L 80.853226 73.369884 
L 82.242798 78.170446 
L 83.63237 92.205622 
L 85.021942 114.651386 
L 86.411514 126.98029 
L 87.801086 135.707335 
L 89.190658 141.820322 
L 90.58023 152.338799 
L 91.969802 155.572908 
L 93.359374 168.629853 
L 94.748946 177.501124 
L 96.138518 192.046346 
L 97.52809 191.863517 
L 98.917662 188.562489 
L 100.307234 191.603524 
L 101.696806 188.124556 
L 103.086378 181.447777 
L 104.47595 187.0666 
L 105.865522 187.0915 
L 107.255094 185.34807 
L 108.644666 189.913695 
L 110.034238 190.637736 
L 111.42381 188.763136 
L 114.202954 195.654061 
L 115.592526 195.075047 
L 116.982098 193.860278 
L 118.37167 194.307816 
L 119.761241 192.563919 
L 121.150813 191.542008 
L 123.929957 188.685177 
L 125.319529 188.893792 
L 126.709101 191.078975 
L 128.098673 192.074346 
L 129.488245 199.593102 
L 130.877817 204.565698 
L 132.267389 210.577143 
L 133.656961 212.428944 
L 135.046533 214.907852 
L 136.436105 210.23647 
L 137.825677 207.817891 
L 139.215249 196.188428 
L 140.604821 189.862088 
L 141.994393 182.770205 
L 143.383965 183.291563 
L 144.773537 181.712392 
L 146.163109 193.113415 
L 148.942253 211.463604 
L 151.721397 230.909798 
L 154.500541 242.063784 
L 155.890113 245.919887 
L 157.279685 246.583547 
L 158.669257 248.741635 
L 160.058829 249.036102 
L 161.448401 249.952996 
L 162.837973 247.98217 
L 164.227545 243.701758 
L 165.617117 241.373489 
L 167.006689 240.72956 
L 168.396261 235.993508 
L 169.785833 234.540632 
L 171.175405 232.924776 
L 172.564977 229.099784 
L 173.954549 230.988135 
L 175.344121 235.724345 
L 176.733693 235.091221 
L 178.123265 238.923995 
L 179.512837 240.309621 
L 180.902409 236.532871 
L 182.291981 231.439783 
L 183.681553 239.832571 
L 185.071125 229.288225 
L 186.460697 229.025515 
L 187.850269 226.018762 
L 189.239841 229.776904 
L 190.629413 213.604985 
L 192.018985 215.680869 
L 193.408557 209.062995 
L 194.798129 214.984372 
L 196.187701 210.206824 
L 197.577273 219.314815 
L 198.966845 222.17396 
L 200.356417 226.369517 
L 201.745989 231.430807 
L 203.135561 225.577264 
L 204.525133 223.851206 
L 205.914705 228.555607 
L 207.304277 226.648719 
L 208.693848 216.031922 
L 210.08342 225.28565 
L 211.472992 220.640156 
L 212.862564 231.061495 
L 214.252136 227.73105 
L 215.641708 220.726004 
L 217.03128 215.037011 
L 218.420852 213.157231 
L 219.810424 191.720756 
L 221.199996 196.460668 
L 222.589568 191.350375 
L 223.97914 191.757527 
L 225.368712 201.836996 
L 226.758284 200.792232 
L 228.147856 197.550137 
L 229.537428 211.894043 
L 230.927 208.846332 
L 232.316572 198.115669 
L 233.706144 203.773183 
L 235.095716 201.828184 
L 236.485288 197.214919 
L 237.87486 195.912493 
L 240.654004 185.115566 
L 242.043576 188.215948 
L 243.433148 179.230873 
L 244.82272 171.901027 
L 246.212292 188.619752 
L 247.601864 183.951829 
L 248.991436 183.070739 
L 250.381008 191.957715 
L 251.77058 195.323676 
L 253.160152 189.316525 
L 254.549724 197.266248 
L 255.939296 190.602066 
L 257.328868 195.331172 
L 258.71844 203.427593 
L 260.108012 207.153921 
L 261.497584 203.660003 
L 262.887156 208.209749 
L 264.276728 206.225655 
L 265.6663 201.968952 
L 267.055872 193.086981 
L 268.445444 192.080368 
L 269.835016 193.671134 
L 271.224588 192.037551 
L 272.61416 187.230909 
L 274.003732 195.127704 
L 275.393304 193.136595 
L 276.782876 190.879234 
L 278.172448 188.360647 
L 279.56202 195.259724 
L 280.951592 190.323195 
L 282.341164 192.16594 
L 283.730736 185.535827 
L 285.120308 190.356327 
L 286.50988 194.157665 
L 287.899452 195.231943 
L 289.289024 199.805793 
L 290.678596 205.75506 
L 292.068168 201.980701 
L 293.45774 196.973377 
L 296.236884 184.857416 
L 297.626455 182.068236 
L 299.016027 180.423619 
L 300.405599 177.468219 
L 301.795171 177.562124 
L 303.184743 178.80059 
L 304.574315 185.690961 
L 305.963887 185.834271 
L 308.743031 198.87215 
L 310.132603 203.82049 
L 311.522175 202.259429 
L 312.911747 205.894119 
L 314.301319 200.979192 
L 315.690891 198.165651 
L 317.080463 198.124359 
L 318.470035 202.74615 
L 319.859607 200.578123 
L 321.249179 207.104849 
L 322.638751 208.241904 
L 324.028323 211.671763 
L 325.417895 220.244674 
L 326.807467 226.078778 
L 328.197039 223.863886 
L 329.586611 233.998962 
L 330.976183 240.383726 
L 332.365755 233.517676 
L 333.755327 219.293385 
L 335.144899 203.251104 
L 336.534471 183.622751 
L 337.924043 167.197618 
L 339.313615 165.252998 
L 340.703187 172.562654 
L 342.092759 194.202864 
L 343.482331 213.618043 
L 344.871903 226.041419 
L 346.261475 232.462632 
L 347.651047 241.448056 
L 349.040619 239.391526 
L 350.430191 238.737845 
L 351.819763 239.787062 
L 353.209335 241.114508 
L 354.598907 244.070253 
L 355.988479 251.48424 
L 357.378051 248.029576 
L 358.767623 244.248661 
L 360.157195 243.731784 
L 361.546767 242.244278 
L 362.936339 242.65733 
L 364.325911 244.176889 
L 365.715483 242.605043 
L 367.105055 239.931252 
L 368.494627 246.935916 
L 369.884199 247.059347 
L 371.273771 247.328921 
L 372.663343 246.558014 
L 374.052915 249.176368 
L 375.442487 242.836748 
L 376.832059 234.590488 
L 378.221631 229.319501 
L 379.611203 227.373291 
L 381.000775 221.952487 
L 382.390347 220.862935 
L 383.779919 222.835301 
L 385.169491 230.068009 
L 385.169491 230.068009 
" clip-path="url(#p3610b7f6ee)" style="fill: none; stroke: #9467bd; stroke-width: 1.5; stroke-linecap: square"/>
   </g>
   <g id="line2d_21">
    <path d="M 29.439062 221.989476 
L 30.828634 228.904971 
L 32.218206 237.483987 
L 33.607778 244.099331 
L 34.99735 250.133055 
L 37.776494 256.994611 
L 39.166066 253.038847 
L 41.94521 239.915086 
L 43.334782 236.632969 
L 44.724354 235.239876 
L 46.113926 227.68395 
L 47.503498 231.670455 
L 48.89307 240.522 
L 50.282642 246.901912 
L 51.672214 247.094508 
L 53.061786 245.135114 
L 54.451358 236.98727 
L 55.84093 227.417148 
L 57.230502 209.558869 
L 60.009646 154.479575 
L 61.399218 136.912814 
L 62.78879 136.626651 
L 64.178362 143.651398 
L 65.567934 138.702995 
L 66.957506 150.24993 
L 68.347078 157.637623 
L 69.73665 172.805614 
L 71.126222 172.308881 
L 72.515794 147.756838 
L 73.905366 139.424444 
L 75.294938 135.249771 
L 76.68451 118.380389 
L 78.074082 80.14313 
L 79.463654 68.347758 
L 80.853226 78.528388 
L 83.63237 83.731536 
L 85.021942 109.142714 
L 86.411514 114.016671 
L 87.801086 131.704446 
L 89.190658 137.894546 
L 90.58023 145.867244 
L 91.969802 159.375849 
L 93.359374 160.199988 
L 94.748946 173.774933 
L 96.138518 185.603024 
L 97.52809 187.691034 
L 100.307234 189.973888 
L 101.696806 189.661866 
L 103.086378 188.720384 
L 104.47595 183.420157 
L 105.865522 184.839306 
L 107.255094 187.32764 
L 108.644666 188.234936 
L 110.034238 190.808875 
L 111.42381 189.459306 
L 112.813382 189.315904 
L 114.202954 194.488321 
L 115.592526 196.222111 
L 116.982098 194.084129 
L 118.37167 192.551171 
L 119.761241 192.477858 
L 121.150813 193.836383 
L 122.540385 191.623847 
L 123.929957 188.740474 
L 125.319529 188.38451 
L 126.709101 189.755489 
L 128.098673 193.432394 
L 129.488245 198.363082 
L 130.877817 201.032618 
L 132.267389 206.925265 
L 133.656961 209.543013 
L 135.046533 213.252545 
L 136.436105 212.963095 
L 137.825677 207.846519 
L 140.604821 192.369156 
L 141.994393 189.197994 
L 144.773537 184.042107 
L 146.163109 187.198671 
L 148.942253 207.540235 
L 150.331825 218.675332 
L 151.721397 224.780796 
L 153.110969 232.725185 
L 155.890113 243.690539 
L 157.279685 246.907814 
L 158.669257 247.474879 
L 160.058829 247.797075 
L 161.448401 249.480254 
L 162.837973 248.556817 
L 164.227545 245.08607 
L 165.617117 243.204053 
L 168.396261 238.815428 
L 169.785833 235.683007 
L 171.175405 232.270423 
L 172.564977 231.130882 
L 173.954549 232.49656 
L 175.344121 234.57189 
L 176.733693 234.929153 
L 178.123265 236.028174 
L 179.512837 237.444895 
L 180.902409 238.514573 
L 182.291981 234.934333 
L 183.681553 238.395766 
L 185.071125 231.266365 
L 186.460697 229.132824 
L 187.850269 226.515892 
L 189.239841 229.239417 
L 190.629413 224.817696 
L 192.018985 209.621523 
L 193.408557 212.522123 
L 196.187701 216.641101 
L 197.577273 215.732855 
L 198.966845 217.061613 
L 200.356417 221.758769 
L 201.745989 232.710465 
L 203.135561 225.409058 
L 204.525133 226.675144 
L 205.914705 224.981941 
L 207.304277 225.516094 
L 208.693848 224.706134 
L 210.08342 219.993368 
L 211.472992 222.621729 
L 212.862564 230.960194 
L 214.252136 224.808205 
L 215.641708 219.699069 
L 217.03128 219.194515 
L 218.420852 212.348296 
L 219.810424 209.65087 
L 221.199996 194.907088 
L 222.589568 187.807324 
L 223.97914 195.211158 
L 225.368712 201.189777 
L 226.758284 199.121299 
L 228.147856 199.667689 
L 229.537428 201.664094 
L 230.927 209.536309 
L 232.316572 206.137929 
L 233.706144 200.771985 
L 235.095716 200.539284 
L 236.485288 201.393693 
L 239.264432 190.557175 
L 240.654004 190.24811 
L 242.043576 187.367939 
L 243.433148 182.763564 
L 244.82272 175.139954 
L 246.212292 184.260041 
L 248.991436 185.693006 
L 250.381008 186.011723 
L 251.77058 189.053189 
L 253.160152 197.746163 
L 254.549724 192.377572 
L 255.939296 191.188962 
L 257.328868 196.093335 
L 258.71844 198.888857 
L 260.108012 207.49831 
L 262.887156 200.805821 
L 264.276728 208.713277 
L 265.6663 204.293783 
L 267.055872 199.221764 
L 268.445444 191.424833 
L 269.835016 192.344692 
L 271.224588 195.438584 
L 272.61416 188.410429 
L 274.003732 193.421343 
L 275.393304 191.466693 
L 276.782876 191.34645 
L 278.172448 191.086209 
L 279.56202 191.173373 
L 280.951592 195.888562 
L 282.341164 188.934661 
L 283.730736 184.957424 
L 286.50988 195.922878 
L 287.899452 195.865522 
L 289.289024 196.964714 
L 290.678596 196.992366 
L 292.068168 203.993471 
L 293.45774 201.233957 
L 294.847312 193.29733 
L 296.236884 188.48751 
L 297.626455 182.050611 
L 299.016027 182.922867 
L 300.405599 180.997684 
L 301.795171 176.85942 
L 303.184743 178.181248 
L 304.574315 182.759312 
L 305.963887 186.049535 
L 307.353459 190.908696 
L 308.743031 194.995539 
L 310.132603 200.316108 
L 311.522175 202.053777 
L 312.911747 203.05515 
L 314.301319 203.188982 
L 315.690891 199.818307 
L 317.080463 199.700281 
L 318.470035 201.146293 
L 319.859607 201.664569 
L 321.249179 204.221356 
L 322.638751 205.956449 
L 324.028323 210.922625 
L 325.417895 219.423925 
L 326.807467 221.610325 
L 328.197039 223.37897 
L 329.586611 229.049003 
L 330.976183 237.766712 
L 332.365755 236.693885 
L 335.144899 204.185953 
L 336.534471 198.109798 
L 339.313615 175.034151 
L 340.703187 165.669523 
L 342.092759 180.766015 
L 343.482331 207.173387 
L 344.871903 222.415569 
L 346.261475 228.878611 
L 347.651047 232.116043 
L 349.040619 235.824645 
L 350.430191 241.744141 
L 351.819763 242.955834 
L 353.209335 241.247706 
L 354.598907 241.929208 
L 355.988479 244.83055 
L 357.378051 248.808845 
L 358.767623 247.351661 
L 360.157195 244.492239 
L 361.546767 242.862764 
L 362.936339 243.66558 
L 364.325911 242.552297 
L 365.715483 242.817807 
L 367.105055 240.92033 
L 368.494627 245.569599 
L 369.884199 247.629856 
L 371.273771 246.468575 
L 372.663343 244.839602 
L 374.052915 246.543437 
L 375.442487 247.840138 
L 376.832059 237.555391 
L 378.221631 231.830536 
L 379.611203 228.017048 
L 381.000775 226.505229 
L 382.390347 224.482092 
L 383.779919 220.162131 
L 385.169491 227.964603 
L 385.169491 227.964603 
" clip-path="url(#p3610b7f6ee)" style="fill: none; stroke: #8c564b; stroke-width: 1.5; stroke-linecap: square"/>
   </g>
   <g id="line2d_22">
    <path d="M 29.439062 224.216778 
L 30.828634 227.596136 
L 32.218206 236.094002 
L 33.607778 238.285498 
L 34.99735 247.009287 
L 36.386922 251.173405 
L 37.776494 253.38057 
L 39.166066 253.391419 
L 40.555638 250.111493 
L 41.94521 240.35466 
L 43.334782 240.873149 
L 44.724354 238.743918 
L 46.113926 231.524757 
L 47.503498 231.087585 
L 48.89307 239.084283 
L 50.282642 240.893702 
L 51.672214 246.996197 
L 53.061786 245.910647 
L 54.451358 233.085415 
L 55.84093 230.86679 
L 57.230502 221.875268 
L 58.620074 192.984554 
L 60.009646 172.579527 
L 61.399218 156.56697 
L 62.78879 133.393898 
L 64.178362 150.105108 
L 65.567934 145.513232 
L 66.957506 136.739153 
L 68.347078 150.483069 
L 69.73665 172.207681 
L 71.126222 164.739432 
L 72.515794 159.007124 
L 73.905366 141.932814 
L 75.294938 133.752243 
L 78.074082 113.209754 
L 79.463654 74.203567 
L 80.853226 74.821343 
L 82.242798 84.425418 
L 83.63237 85.512302 
L 85.021942 100.005778 
L 86.411514 109.382331 
L 87.801086 120.19955 
L 89.190658 134.191304 
L 90.58023 141.997781 
L 91.969802 153.047456 
L 93.359374 162.735832 
L 94.748946 166.052801 
L 96.138518 181.433711 
L 97.52809 182.665304 
L 98.917662 185.684395 
L 100.307234 190.052933 
L 101.696806 188.528151 
L 103.086378 189.949308 
L 104.47595 189.323584 
L 105.865522 181.997329 
L 107.255094 185.368481 
L 108.644666 189.494891 
L 110.034238 189.251731 
L 111.42381 189.776067 
L 112.813382 189.831957 
L 114.202954 191.63289 
L 115.592526 195.146246 
L 116.982098 195.216294 
L 118.37167 192.932486 
L 119.761241 191.218756 
L 121.150813 193.58218 
L 122.540385 193.580143 
L 123.929957 190.258975 
L 125.319529 188.474989 
L 126.709101 189.198645 
L 128.098673 191.981943 
L 129.488245 198.601115 
L 130.877817 199.784621 
L 132.267389 203.618883 
L 133.656961 206.544268 
L 135.046533 210.681256 
L 136.436105 211.804545 
L 137.825677 210.573035 
L 139.215249 201.272819 
L 141.994393 191.453746 
L 143.383965 191.567199 
L 144.773537 186.873421 
L 146.163109 188.362043 
L 147.552681 191.892493 
L 150.331825 214.499122 
L 151.721397 222.158824 
L 153.110969 227.322903 
L 154.500541 234.922937 
L 155.890113 240.308315 
L 157.279685 244.880253 
L 158.669257 247.623529 
L 160.058829 246.836933 
L 161.448401 248.36133 
L 162.837973 248.346486 
L 164.227545 246.014508 
L 165.617117 244.469403 
L 167.006689 242.710852 
L 168.396261 239.410904 
L 169.785833 238.158751 
L 171.175405 233.598803 
L 172.564977 230.819473 
L 173.954549 233.710105 
L 175.344121 235.321048 
L 176.733693 234.048867 
L 178.123265 235.757231 
L 179.512837 235.145673 
L 180.902409 236.280027 
L 182.291981 236.891486 
L 183.681553 240.248563 
L 185.071125 231.206691 
L 186.460697 230.855381 
L 187.850269 226.97232 
L 189.239841 229.200263 
L 190.629413 225.060755 
L 192.018985 220.171876 
L 193.408557 207.679122 
L 194.798129 216.719103 
L 196.187701 216.123738 
L 197.577273 220.271379 
L 198.966845 214.26839 
L 200.356417 217.436337 
L 201.745989 228.104504 
L 203.135561 227.449084 
L 204.525133 226.376218 
L 205.914705 227.223636 
L 207.304277 222.819885 
L 208.693848 223.999794 
L 210.08342 226.684388 
L 211.472992 218.385403 
L 212.862564 231.107781 
L 214.252136 225.63427 
L 215.641708 218.212387 
L 217.03128 218.52415 
L 218.420852 216.383034 
L 219.810424 209.44702 
L 221.199996 209.664523 
L 222.589568 187.671964 
L 223.97914 191.709338 
L 225.368712 202.671045 
L 226.758284 198.947973 
L 228.147856 198.387136 
L 229.537428 202.852002 
L 230.927 201.008475 
L 232.316572 207.131896 
L 233.706144 207.18111 
L 235.095716 198.380668 
L 236.485288 200.348606 
L 237.87486 199.87207 
L 239.264432 191.497092 
L 240.654004 190.446999 
L 242.043576 191.399083 
L 243.433148 182.804438 
L 244.82272 178.836405 
L 246.212292 185.145917 
L 247.601864 181.658839 
L 248.991436 186.284838 
L 250.381008 187.806378 
L 251.77058 184.297498 
L 253.160152 192.130815 
L 254.549724 199.063592 
L 255.939296 187.727666 
L 257.328868 195.808404 
L 258.71844 199.024939 
L 260.108012 203.154815 
L 261.497584 204.902638 
L 262.887156 201.663825 
L 264.276728 202.345891 
L 265.6663 206.736348 
L 267.055872 201.650842 
L 268.445444 196.995616 
L 269.835016 191.746216 
L 271.224588 194.064329 
L 272.61416 191.922213 
L 274.003732 193.527147 
L 275.393304 190.499864 
L 276.782876 190.157175 
L 278.172448 191.456708 
L 279.56202 193.073793 
L 280.951592 192.318328 
L 282.341164 193.959995 
L 283.730736 183.119016 
L 286.50988 195.385749 
L 287.899452 197.120655 
L 289.289024 197.255697 
L 290.678596 194.920628 
L 292.068168 196.680503 
L 293.45774 203.076989 
L 294.847312 197.57802 
L 296.236884 190.830877 
L 297.626455 185.624953 
L 299.016027 182.786056 
L 300.405599 183.053444 
L 301.795171 179.987536 
L 303.184743 177.492985 
L 304.574315 181.681811 
L 305.963887 183.494688 
L 307.353459 190.37394 
L 308.743031 193.456085 
L 310.132603 196.827227 
L 311.522175 199.273135 
L 312.911747 202.7665 
L 314.301319 201.103242 
L 315.690891 201.896283 
L 317.080463 200.885534 
L 318.470035 202.043694 
L 319.859607 200.439377 
L 321.249179 204.616121 
L 322.638751 203.633554 
L 324.028323 208.62509 
L 325.417895 217.74467 
L 326.807467 220.720925 
L 328.197039 219.863341 
L 329.586611 227.927071 
L 330.976183 233.158476 
L 332.365755 234.910488 
L 333.755327 225.785975 
L 335.144899 207.941713 
L 336.534471 199.687402 
L 337.924043 198.707123 
L 339.313615 190.269042 
L 340.703187 174.012436 
L 342.092759 174.001014 
L 344.871903 216.068495 
L 346.261475 225.453198 
L 347.651047 229.092188 
L 349.040619 228.265121 
L 350.430191 238.433858 
L 351.819763 244.842663 
L 353.209335 243.724589 
L 354.598907 241.926549 
L 355.988479 242.904976 
L 357.378051 243.356351 
L 358.767623 248.122206 
L 360.157195 247.117699 
L 361.546767 243.645552 
L 362.936339 243.986768 
L 364.325911 243.433191 
L 365.715483 241.603178 
L 367.105055 241.348576 
L 368.494627 245.588154 
L 371.273771 247.045601 
L 372.663343 244.443331 
L 375.442487 245.747859 
L 376.832059 242.868152 
L 378.221631 234.842259 
L 379.611203 230.38515 
L 381.000775 227.185875 
L 382.390347 227.958074 
L 383.779919 223.389952 
L 385.169491 225.05755 
L 385.169491 225.05755 
" clip-path="url(#p3610b7f6ee)" style="fill: none; stroke: #e377c2; stroke-width: 1.5; stroke-linecap: square"/>
   </g>
   <g id="patch_3">
    <path d="M 29.439063 284.991437 
L 29.439063 18.879437 
" style="fill: none; stroke: #000000; stroke-width: 0.8; stroke-linejoin: miter; stroke-linecap: square"/>
   </g>
   <g id="patch_4">
    <path d="M 386.559062 284.991437 
L 386.559062 18.879437 
" style="fill: none; stroke: #000000; stroke-width: 0.8; stroke-linejoin: miter; stroke-linecap: square"/>
   </g>
   <g id="patch_5">
    <path d="M 29.439062 284.991437 
L 386.559062 284.991437 
" style="fill: none; stroke: #000000; stroke-width: 0.8; stroke-linejoin: miter; stroke-linecap: square"/>
   </g>
   <g id="patch_6">
    <path d="M 29.439062 18.879437 
L 386.559062 18.879437 
" style="fill: none; stroke: #000000; stroke-width: 0.8; stroke-linejoin: miter; stroke-linecap: square"/>
   </g>
   <g id="legend_1">
    <g id="patch_7">
     <path d="M 341.260625 127.613812 
L 379.559062 127.613812 
Q 381.559062 127.613812 381.559062 125.613812 
L 381.559062 25.879437 
Q 381.559062 23.879437 379.559062 23.879437 
L 341.260625 23.879437 
Q 339.260625 23.879437 339.260625 25.879437 
L 339.260625 125.613812 
Q 339.260625 127.613812 341.260625 127.613812 
z
" style="fill: #ffffff; opacity: 0.8; stroke: #cccccc; stroke-linejoin: miter"/>
    </g>
    <g id="line2d_23">
     <path d="M 343.260625 31.870062 
L 353.260625 31.870062 
L 363.260625 31.870062 
" style="fill: none; stroke: #1f77b4; stroke-width: 1.5; stroke-linecap: square"/>
    </g>
    <g id="text_15">
     <!-- 1 -->
     <g transform="translate(371.260625 35.370062) scale(0.1 -0.1)">
      <use xlink:href="#IPAexGothic-31"/>
     </g>
    </g>
    <g id="line2d_24">
     <path d="M 343.260625 46.260687 
L 353.260625 46.260687 
L 363.260625 46.260687 
" style="fill: none; stroke: #ff7f0e; stroke-width: 1.5; stroke-linecap: square"/>
    </g>
    <g id="text_16">
     <!-- 2 -->
     <g transform="translate(371.260625 49.760687) scale(0.1 -0.1)">
      <use xlink:href="#IPAexGothic-32"/>
     </g>
    </g>
    <g id="line2d_25">
     <path d="M 343.260625 60.651312 
L 353.260625 60.651312 
L 363.260625 60.651312 
" style="fill: none; stroke: #2ca02c; stroke-width: 1.5; stroke-linecap: square"/>
    </g>
    <g id="text_17">
     <!-- 3 -->
     <g transform="translate(371.260625 64.151312) scale(0.1 -0.1)">
      <use xlink:href="#IPAexGothic-33"/>
     </g>
    </g>
    <g id="line2d_26">
     <path d="M 343.260625 75.041937 
L 353.260625 75.041937 
L 363.260625 75.041937 
" style="fill: none; stroke: #d62728; stroke-width: 1.5; stroke-linecap: square"/>
    </g>
    <g id="text_18">
     <!-- 4 -->
     <g transform="translate(371.260625 78.541937) scale(0.1 -0.1)">
      <defs>
       <path id="IPAexGothic-34" d="M 3813 1159 
L 3059 1159 
L 3059 63 
L 2547 63 
L 2547 1159 
L 197 1159 
L 197 1672 
L 2456 4678 
L 3059 4678 
L 3059 1634 
L 3813 1634 
L 3813 1159 
z
M 2578 4109 
L 2559 4109 
Q 2278 3656 2003 3284 
L 759 1634 
L 2547 1634 
L 2547 3144 
Q 2547 3481 2578 4109 
z
" transform="scale(0.015625)"/>
      </defs>
      <use xlink:href="#IPAexGothic-34"/>
     </g>
    </g>
    <g id="line2d_27">
     <path d="M 343.260625 89.432562 
L 353.260625 89.432562 
L 363.260625 89.432562 
" style="fill: none; stroke: #9467bd; stroke-width: 1.5; stroke-linecap: square"/>
    </g>
    <g id="text_19">
     <!-- 5 -->
     <g transform="translate(371.260625 92.932562) scale(0.1 -0.1)">
      <use xlink:href="#IPAexGothic-35"/>
     </g>
    </g>
    <g id="line2d_28">
     <path d="M 343.260625 103.823187 
L 353.260625 103.823187 
L 363.260625 103.823187 
" style="fill: none; stroke: #8c564b; stroke-width: 1.5; stroke-linecap: square"/>
    </g>
    <g id="text_20">
     <!-- 6 -->
     <g transform="translate(371.260625 107.323187) scale(0.1 -0.1)">
      <defs>
       <path id="IPAexGothic-36" d="M 1056 2328 
Q 1509 2981 2234 2981 
Q 2906 2981 3316 2513 
Q 3675 2106 3675 1522 
Q 3675 884 3272 434 
Q 2853 -31 2178 -31 
Q 1375 -31 922 581 
Q 481 1178 481 2228 
Q 481 3425 1013 4109 
Q 1494 4725 2272 4725 
Q 3191 4725 3609 4025 
L 3150 3775 
Q 2894 4266 2300 4266 
Q 1119 4266 1031 2328 
L 1056 2328 
z
M 2141 2547 
Q 1684 2547 1384 2206 
Q 1116 1900 1116 1541 
Q 1116 1156 1353 844 
Q 1672 428 2159 428 
Q 2669 428 2941 844 
Q 3125 1128 3125 1503 
Q 3125 1944 2881 2228 
Q 2600 2547 2141 2547 
z
" transform="scale(0.015625)"/>
      </defs>
      <use xlink:href="#IPAexGothic-36"/>
     </g>
    </g>
    <g id="line2d_29">
     <path d="M 343.260625 118.213812 
L 353.260625 118.213812 
L 363.260625 118.213812 
" style="fill: none; stroke: #e377c2; stroke-width: 1.5; stroke-linecap: square"/>
    </g>
    <g id="text_21">
     <!-- 7 -->
     <g transform="translate(371.260625 121.713812) scale(0.1 -0.1)">
      <defs>
       <path id="IPAexGothic-37" d="M 3597 4263 
Q 2238 2106 1778 63 
L 1131 63 
Q 1581 1834 2950 4128 
L 428 4128 
L 428 4634 
L 3597 4634 
L 3597 4263 
z
" transform="scale(0.015625)"/>
      </defs>
      <use xlink:href="#IPAexGothic-37"/>
     </g>
    </g>
   </g>
  </g>
  <g id="axes_2">
   <g id="matplotlib.axis_3"/>
   <g id="patch_8">
    <path d="M 29.439063 284.991437 
L 29.439063 18.879437 
" style="fill: none; stroke: #000000; stroke-width: 0.8; stroke-linejoin: miter; stroke-linecap: square"/>
   </g>
   <g id="patch_9">
    <path d="M 386.559062 284.991437 
L 386.559062 18.879437 
" style="fill: none; stroke: #000000; stroke-width: 0.8; stroke-linejoin: miter; stroke-linecap: square"/>
   </g>
   <g id="patch_10">
    <path d="M 29.439062 284.991437 
L 386.559062 284.991437 
" style="fill: none; stroke: #000000; stroke-width: 0.8; stroke-linejoin: miter; stroke-linecap: square"/>
   </g>
   <g id="patch_11">
    <path d="M 29.439062 18.879437 
L 386.559062 18.879437 
" style="fill: none; stroke: #000000; stroke-width: 0.8; stroke-linejoin: miter; stroke-linecap: square"/>
   </g>
  </g>
  <g id="text_22">
   <!-- : 2023/02/12 16:13:35(JST) -->
   <g transform="translate(211.087188 15.423437) scale(0.1 -0.1)">
    <defs>
     <path id="IPAexGothic-66f4" d="M 2956 3994 
L 2956 4588 
L 513 4588 
L 513 4984 
L 5881 4984 
L 5881 4588 
L 3413 4588 
L 3413 3994 
L 5300 3994 
L 5300 1288 
L 4838 1288 
L 4838 1759 
L 3406 1759 
Q 3384 1125 3150 709 
Q 4291 244 5997 31 
L 5694 -428 
Q 4109 -166 2906 384 
Q 2294 -266 744 -488 
L 494 -66 
Q 1903 59 2491 588 
Q 2041 813 1594 1166 
L 1928 1434 
Q 2331 1106 2747 897 
Q 2922 1219 2950 1759 
L 1556 1759 
L 1556 1413 
L 1097 1413 
L 1097 3994 
L 2956 3994 
z
M 2956 3609 
L 1556 3609 
L 1556 3078 
L 2956 3078 
L 2956 3609 
z
M 3413 3609 
L 3413 3078 
L 4838 3078 
L 4838 3609 
L 3413 3609 
z
M 2956 2700 
L 1556 2700 
L 1556 2144 
L 2956 2144 
L 2956 2700 
z
M 3413 2700 
L 3413 2144 
L 4838 2144 
L 4838 2700 
L 3413 2700 
z
" transform="scale(0.015625)"/>
     <path id="IPAexGothic-65b0" d="M 3891 2803 
Q 3881 1759 3794 1166 
Q 3653 197 3097 -563 
L 2741 -250 
Q 3450 700 3450 2631 
L 3450 4647 
Q 3516 4656 3622 4666 
Q 4656 4778 5447 5063 
L 5825 4678 
Q 4897 4419 3891 4294 
L 3891 3219 
L 6119 3219 
L 6119 2803 
L 5275 2803 
L 5275 -447 
L 4834 -447 
L 4834 2803 
L 3891 2803 
z
M 2822 4069 
Q 2678 3572 2519 3181 
L 3250 3181 
L 3250 2784 
L 2059 2784 
L 2059 2216 
L 3184 2216 
L 3184 1831 
L 2059 1831 
L 2059 1544 
Q 2613 1197 3031 847 
L 2781 456 
Q 2472 791 2059 1128 
L 2059 -447 
L 1644 -447 
L 1644 1294 
Q 1272 628 575 -31 
L 269 341 
Q 1041 938 1528 1831 
L 453 1831 
L 453 2216 
L 1644 2216 
L 1644 2784 
L 319 2784 
L 319 3181 
L 1125 3181 
Q 1013 3706 881 4069 
L 453 4069 
L 453 4453 
L 1631 4453 
L 1631 5309 
L 2072 5309 
L 2072 4453 
L 3166 4453 
L 3166 4069 
L 2822 4069 
z
M 2391 4069 
L 1325 4069 
Q 1450 3672 1534 3181 
L 2109 3181 
Q 2294 3659 2391 4069 
z
" transform="scale(0.015625)"/>
     <path id="IPAexGothic-65e5" d="M 5231 4800 
L 5231 -288 
L 4744 -288 
L 4744 128 
L 1647 128 
L 1647 -288 
L 1159 -288 
L 1159 4800 
L 5231 4800 
z
M 1647 4372 
L 1647 2731 
L 4744 2731 
L 4744 4372 
L 1647 4372 
z
M 1647 2297 
L 1647 556 
L 4744 556 
L 4744 2297 
L 1647 2297 
z
" transform="scale(0.015625)"/>
     <path id="IPAexGothic-6642" d="M 2328 4728 
L 2328 563 
L 934 563 
L 934 56 
L 519 56 
L 519 4728 
L 2328 4728 
z
M 934 4331 
L 934 2881 
L 1906 2881 
L 1906 4331 
L 934 4331 
z
M 934 2497 
L 934 953 
L 1906 953 
L 1906 2497 
L 934 2497 
z
M 3938 4372 
L 3938 5313 
L 4378 5313 
L 4378 4372 
L 5772 4372 
L 5772 3981 
L 4378 3981 
L 4378 3194 
L 6072 3194 
L 6072 2803 
L 5203 2803 
L 5203 2047 
L 5959 2047 
L 5959 1650 
L 5216 1650 
L 5216 31 
Q 5216 -447 4691 -447 
Q 4394 -447 3888 -391 
L 3784 78 
Q 4272 0 4591 0 
Q 4775 0 4775 172 
L 4775 1650 
L 2581 1650 
L 2581 2047 
L 4763 2047 
L 4763 2803 
L 2538 2803 
L 2538 3194 
L 3938 3194 
L 3938 3981 
L 2716 3981 
L 2716 4372 
L 3938 4372 
z
M 3669 384 
Q 3331 950 2956 1325 
L 3291 1575 
Q 3719 1147 4025 659 
L 3669 384 
z
" transform="scale(0.015625)"/>
     <path id="IPAexGothic-3a" d="M 1369 2559 
L 672 2559 
L 672 3250 
L 1369 3250 
L 1369 2559 
z
M 1369 63 
L 672 63 
L 672 753 
L 1369 753 
L 1369 63 
z
" transform="scale(0.015625)"/>
     <path id="IPAexGothic-20" transform="scale(0.015625)"/>
     <path id="IPAexGothic-2f" d="M 2719 4709 
L 600 -884 
L 300 -763 
L 2413 4831 
L 2719 4709 
z
" transform="scale(0.015625)"/>
     <path id="IPAexGothic-28" d="M 1928 -1016 
L 1653 -1166 
Q 488 69 488 1875 
Q 488 3678 1653 4909 
L 1928 4763 
Q 1006 3522 1006 1881 
Q 1006 203 1928 -1016 
z
" transform="scale(0.015625)"/>
     <path id="IPAexGothic-54" d="M 3866 4141 
L 2175 4141 
L 2175 63 
L 1606 63 
L 1606 4141 
L -31 4141 
L -31 4634 
L 3866 4634 
L 3866 4141 
z
" transform="scale(0.015625)"/>
     <path id="IPAexGothic-29" d="M 466 4909 
Q 1638 3672 1638 1875 
Q 1638 75 466 -1166 
L 191 -1016 
Q 1119 216 1119 1881 
Q 1119 3509 191 4763 
L 466 4909 
z
" transform="scale(0.015625)"/>
    </defs>
    <use xlink:href="#IPAexGothic-66f4"/>
    <use xlink:href="#IPAexGothic-65b0" x="100"/>
    <use xlink:href="#IPAexGothic-65e5" x="200"/>
    <use xlink:href="#IPAexGothic-6642" x="300"/>
    <use xlink:href="#IPAexGothic-3a" x="400"/>
    <use xlink:href="#IPAexGothic-20" x="431.982422"/>
    <use xlink:href="#IPAexGothic-32" x="458.984375"/>
    <use xlink:href="#IPAexGothic-30" x="521.972656"/>
    <use xlink:href="#IPAexGothic-32" x="584.960938"/>
    <use xlink:href="#IPAexGothic-33" x="647.949219"/>
    <use xlink:href="#IPAexGothic-2f" x="710.9375"/>
    <use xlink:href="#IPAexGothic-30" x="760.9375"/>
    <use xlink:href="#IPAexGothic-32" x="823.925781"/>
    <use xlink:href="#IPAexGothic-2f" x="886.914062"/>
    <use xlink:href="#IPAexGothic-31" x="936.914062"/>
    <use xlink:href="#IPAexGothic-32" x="999.902344"/>
    <use xlink:href="#IPAexGothic-20" x="1062.890625"/>
    <use xlink:href="#IPAexGothic-31" x="1089.892578"/>
    <use xlink:href="#IPAexGothic-36" x="1152.880859"/>
    <use xlink:href="#IPAexGothic-3a" x="1215.869141"/>
    <use xlink:href="#IPAexGothic-31" x="1247.851562"/>
    <use xlink:href="#IPAexGothic-33" x="1310.839844"/>
    <use xlink:href="#IPAexGothic-3a" x="1373.828125"/>
    <use xlink:href="#IPAexGothic-33" x="1405.810547"/>
    <use xlink:href="#IPAexGothic-35" x="1468.798828"/>
    <use xlink:href="#IPAexGothic-28" x="1531.787109"/>
    <use xlink:href="#IPAexGothic-4a" x="1565.087891"/>
    <use xlink:href="#IPAexGothic-53" x="1603.076172"/>
    <use xlink:href="#IPAexGothic-54" x="1661.572266"/>
    <use xlink:href="#IPAexGothic-29" x="1721.484375"/>
   </g>
  </g>
 </g>
 <defs>
  <clipPath id="p3610b7f6ee">
   <rect x="29.439063" y="18.879437" width="357.12" height="266.112"/>
  </clipPath>
 </defs>
</svg>
