<?xml version="1.0" encoding="utf-8" standalone="no"?>
<!DOCTYPE svg PUBLIC "-//W3C//DTD SVG 1.1//EN"
  "http://www.w3.org/Graphics/SVG/1.1/DTD/svg11.dtd">
<svg xmlns:xlink="http://www.w3.org/1999/xlink" width="397.259063pt" height="308.582062pt" viewBox="0 0 397.259063 308.582062" xmlns="http://www.w3.org/2000/svg" version="1.1">
 <metadata>
  <rdf:RDF xmlns:dc="http://purl.org/dc/elements/1.1/" xmlns:cc="http://creativecommons.org/ns#" xmlns:rdf="http://www.w3.org/1999/02/22-rdf-syntax-ns#">
   <cc:Work>
    <dc:type rdf:resource="http://purl.org/dc/dcmitype/StillImage"/>
    <dc:date>2023-01-13T07:14:26.306376</dc:date>
    <dc:format>image/svg+xml</dc:format>
    <dc:creator>
     <cc:Agent>
      <dc:title>Matplotlib v3.6.3, https://matplotlib.org/</dc:title>
     </cc:Agent>
    </dc:creator>
   </cc:Work>
  </rdf:RDF>
 </metadata>
 <defs>
  <style type="text/css">*{stroke-linejoin: round; stroke-linecap: butt}</style>
 </defs>
 <g id="figure_1">
  <g id="patch_1">
   <path d="M 0 308.582062 
L 397.259063 308.582062 
L 397.259063 0 
L 0 0 
z
" style="fill: #ffffff"/>
  </g>
  <g id="axes_1">
   <g id="patch_2">
    <path d="M 29.439063 284.991437 
L 386.559062 284.991437 
L 386.559062 18.879437 
L 29.439063 18.879437 
z
" style="fill: #ffffff"/>
   </g>
   <g id="line2d_1">
    <path d="M 29.439063 211.199039 
L 386.559062 211.199039 
" clip-path="url(#p790b98e693)" style="fill: none; stroke: #000000; stroke-linecap: square"/>
   </g>
   <g id="matplotlib.axis_1">
    <g id="xtick_1">
     <g id="line2d_2">
      <defs>
       <path id="ma130904e97" d="M 0 0 
L 0 3.5 
" style="stroke: #000000; stroke-width: 0.8"/>
      </defs>
      <g>
       <use xlink:href="#ma130904e97" x="29.439063" y="284.991437" style="stroke: #000000; stroke-width: 0.8"/>
      </g>
     </g>
     <g id="text_1">
      <!-- Jun -->
      <g transform="translate(21.499219 299.482062) scale(0.1 -0.1)">
       <defs>
        <path id="IPAexGothic-4a" d="M 1819 4634 
L 1819 1234 
Q 1819 -31 763 -31 
Q 303 -31 -125 209 
L 84 644 
Q 378 447 694 447 
Q 1250 447 1250 1203 
L 1250 4634 
L 1819 4634 
z
" transform="scale(0.015625)"/>
        <path id="IPAexGothic-75" d="M 3284 63 
L 2772 63 
L 2772 644 
Q 2300 0 1625 0 
Q 1072 0 763 375 
Q 519 678 519 1241 
L 519 3250 
L 1069 3250 
L 1069 1259 
Q 1069 466 1734 466 
Q 2406 466 2734 1291 
L 2734 3250 
L 3284 3250 
L 3284 63 
z
" transform="scale(0.015625)"/>
        <path id="IPAexGothic-6e" d="M 3328 63 
L 2778 63 
L 2778 2041 
Q 2778 2853 2106 2853 
Q 1428 2853 1113 2041 
L 1113 63 
L 563 63 
L 563 3250 
L 1075 3250 
L 1075 2675 
Q 1525 3316 2222 3316 
Q 3328 3316 3328 2072 
L 3328 63 
z
" transform="scale(0.015625)"/>
       </defs>
       <use xlink:href="#IPAexGothic-4a"/>
       <use xlink:href="#IPAexGothic-75" x="37.988281"/>
       <use xlink:href="#IPAexGothic-6e" x="98.388672"/>
      </g>
     </g>
    </g>
    <g id="xtick_2">
     <g id="line2d_3">
      <g>
       <use xlink:href="#ma130904e97" x="76.635538" y="284.991437" style="stroke: #000000; stroke-width: 0.8"/>
      </g>
     </g>
     <g id="text_2">
      <!-- Jul -->
      <g transform="translate(70.366007 299.482062) scale(0.1 -0.1)">
       <defs>
        <path id="IPAexGothic-6c" d="M 1131 63 
L 581 63 
L 581 4794 
L 1131 4794 
L 1131 63 
z
" transform="scale(0.015625)"/>
       </defs>
       <use xlink:href="#IPAexGothic-4a"/>
       <use xlink:href="#IPAexGothic-75" x="37.988281"/>
       <use xlink:href="#IPAexGothic-6c" x="98.388672"/>
      </g>
     </g>
    </g>
    <g id="xtick_3">
     <g id="line2d_4">
      <g>
       <use xlink:href="#ma130904e97" x="125.40523" y="284.991437" style="stroke: #000000; stroke-width: 0.8"/>
      </g>
     </g>
     <g id="text_3">
      <!-- Aug -->
      <g transform="translate(116.423199 299.42425) scale(0.1 -0.1)">
       <defs>
        <path id="IPAexGothic-41" d="M 4056 63 
L 3444 63 
L 2938 1409 
L 1100 1409 
L 603 63 
L -6 63 
L 1806 4666 
L 2259 4666 
L 4056 63 
z
M 2778 1863 
L 2316 3078 
Q 2125 3588 2028 4000 
L 2009 4000 
Q 1897 3563 1716 3078 
L 1263 1863 
L 2778 1863 
z
" transform="scale(0.015625)"/>
        <path id="IPAexGothic-67" d="M 1331 1150 
Q 1006 1122 1006 900 
Q 1006 613 1763 575 
L 2131 556 
Q 3303 497 3303 -294 
Q 3303 -700 2925 -959 
Q 2519 -1253 1794 -1253 
Q 1138 -1253 738 -1028 
Q 353 -809 353 -428 
Q 353 84 1075 247 
L 1075 269 
Q 506 413 506 778 
Q 506 1116 994 1297 
Q 456 1575 456 2181 
Q 456 2650 769 2963 
Q 1128 3322 1738 3322 
Q 2125 3322 2422 3153 
Q 2650 3453 3259 3463 
L 3259 3013 
Q 2838 3003 2703 2938 
Q 3034 2613 3034 2169 
Q 3034 1728 2734 1425 
Q 2400 1094 1813 1094 
Q 1563 1094 1331 1150 
z
M 1734 2919 
Q 1409 2919 1197 2706 
Q 988 2497 988 2181 
Q 988 1872 1184 1684 
Q 1397 1472 1756 1472 
Q 2094 1472 2297 1678 
Q 2503 1881 2503 2203 
Q 2503 2497 2297 2700 
Q 2081 2919 1734 2919 
z
M 1753 159 
Q 903 159 903 -366 
Q 903 -875 1800 -875 
Q 2378 -875 2638 -606 
Q 2772 -481 2772 -313 
Q 2772 159 1753 159 
z
" transform="scale(0.015625)"/>
       </defs>
       <use xlink:href="#IPAexGothic-41"/>
       <use xlink:href="#IPAexGothic-75" x="63.720703"/>
       <use xlink:href="#IPAexGothic-67" x="124.121094"/>
      </g>
     </g>
    </g>
    <g id="xtick_4">
     <g id="line2d_5">
      <g>
       <use xlink:href="#ma130904e97" x="174.174922" y="284.991437" style="stroke: #000000; stroke-width: 0.8"/>
      </g>
     </g>
     <g id="text_4">
      <!-- Sep -->
      <g transform="translate(165.299922 299.482062) scale(0.1 -0.1)">
       <defs>
        <path id="IPAexGothic-53" d="M 2919 3641 
Q 2563 4259 1853 4259 
Q 1453 4259 1213 4009 
Q 1028 3803 1028 3534 
Q 1028 3238 1266 3047 
Q 1444 2913 1984 2688 
L 2200 2597 
Q 2925 2306 3191 1953 
Q 3422 1644 3422 1259 
Q 3422 644 2969 288 
Q 2559 -31 1931 -31 
Q 881 -31 313 766 
L 753 1100 
Q 1203 459 1938 459 
Q 2288 459 2534 625 
Q 2841 847 2841 1216 
Q 2841 1503 2616 1728 
Q 2375 1959 1728 2206 
L 1541 2278 
Q 453 2694 453 3481 
Q 453 4006 806 4347 
Q 1203 4725 1863 4725 
Q 2841 4725 3359 3956 
L 2919 3641 
z
" transform="scale(0.015625)"/>
        <path id="IPAexGothic-65" d="M 863 1594 
Q 891 1041 1209 722 
Q 1534 397 1997 397 
Q 2606 397 2963 966 
L 3322 728 
Q 2869 -31 1931 -31 
Q 1222 -31 766 422 
Q 306 884 306 1641 
Q 306 2444 788 2925 
Q 1216 3353 1856 3353 
Q 2459 3353 2866 2956 
Q 3322 2494 3322 1722 
L 3322 1594 
L 863 1594 
z
M 2756 1997 
Q 2709 2431 2450 2681 
Q 2194 2938 1844 2938 
Q 1438 2938 1150 2591 
Q 953 2356 894 1997 
L 2756 1997 
z
" transform="scale(0.015625)"/>
        <path id="IPAexGothic-70" d="M 1075 2688 
Q 1525 3341 2206 3341 
Q 2769 3341 3172 2938 
Q 3641 2469 3641 1644 
Q 3641 841 3178 372 
Q 2775 -31 2200 -31 
Q 1569 -31 1106 497 
L 1106 -1216 
L 563 -1216 
L 563 3250 
L 1075 3250 
L 1075 2688 
z
M 1106 1950 
L 1106 1291 
Q 1106 897 1516 600 
Q 1791 403 2106 403 
Q 2469 403 2725 659 
Q 3066 997 3066 1631 
Q 3066 2200 2784 2559 
Q 2503 2900 2100 2900 
Q 1656 2900 1338 2484 
Q 1106 2184 1106 1950 
z
" transform="scale(0.015625)"/>
       </defs>
       <use xlink:href="#IPAexGothic-53"/>
       <use xlink:href="#IPAexGothic-65" x="58.496094"/>
       <use xlink:href="#IPAexGothic-70" x="115.380859"/>
      </g>
     </g>
    </g>
    <g id="xtick_5">
     <g id="line2d_6">
      <g>
       <use xlink:href="#ma130904e97" x="221.371397" y="284.991437" style="stroke: #000000; stroke-width: 0.8"/>
      </g>
     </g>
     <g id="text_5">
      <!-- Oct -->
      <g transform="translate(212.936241 299.482062) scale(0.1 -0.1)">
       <defs>
        <path id="IPAexGothic-4f" d="M 2541 4725 
Q 3456 4725 4044 4138 
Q 4709 3472 4709 2331 
Q 4709 1219 4031 550 
Q 3450 -31 2541 -31 
Q 1638 -31 1056 550 
Q 378 1219 378 2356 
Q 378 3469 1044 4138 
Q 1631 4725 2541 4725 
z
M 2541 4266 
Q 1953 4266 1531 3844 
Q 994 3303 994 2350 
Q 994 1391 1531 863 
Q 1947 447 2541 447 
Q 3131 447 3556 863 
Q 4094 1400 4094 2375 
Q 4094 3297 3550 3844 
Q 3138 4266 2541 4266 
z
" transform="scale(0.015625)"/>
        <path id="IPAexGothic-63" d="M 3269 784 
Q 2834 -31 1900 -31 
Q 1228 -31 788 409 
Q 313 891 313 1663 
Q 313 2428 788 2913 
Q 1222 3347 1881 3347 
Q 2813 3347 3206 2541 
L 2763 2309 
Q 2484 2900 1900 2900 
Q 1516 2900 1234 2619 
Q 881 2266 881 1650 
Q 881 1069 1222 728 
Q 1522 428 1956 428 
Q 2547 428 2847 1016 
L 3269 784 
z
" transform="scale(0.015625)"/>
        <path id="IPAexGothic-74" d="M 2125 241 
Q 1769 -6 1397 -6 
Q 653 -6 653 831 
L 653 2859 
L 219 2859 
L 219 3250 
L 653 3250 
L 653 3966 
L 1178 4228 
L 1178 3250 
L 2063 3250 
L 2063 2859 
L 1178 2859 
L 1178 906 
Q 1178 416 1513 416 
Q 1738 416 1941 588 
L 2125 241 
z
" transform="scale(0.015625)"/>
       </defs>
       <use xlink:href="#IPAexGothic-4f"/>
       <use xlink:href="#IPAexGothic-63" x="79.6875"/>
       <use xlink:href="#IPAexGothic-74" x="134.082031"/>
      </g>
     </g>
    </g>
    <g id="xtick_6">
     <g id="line2d_7">
      <g>
       <use xlink:href="#ma130904e97" x="270.141089" y="284.991437" style="stroke: #000000; stroke-width: 0.8"/>
      </g>
     </g>
     <g id="text_6">
      <!-- Nov -->
      <g transform="translate(260.892651 299.482062) scale(0.1 -0.1)">
       <defs>
        <path id="IPAexGothic-4e" d="M 4244 63 
L 3731 63 
L 1697 3150 
Q 1466 3500 1141 4097 
L 1116 4097 
L 1128 3797 
Q 1159 2803 1159 2469 
L 1159 63 
L 609 63 
L 609 4634 
L 1366 4634 
L 3113 1978 
Q 3453 1447 3713 966 
L 3738 966 
Q 3694 1897 3694 2469 
L 3694 4634 
L 4244 4634 
L 4244 63 
z
" transform="scale(0.015625)"/>
        <path id="IPAexGothic-6f" d="M 1919 3341 
Q 2594 3341 3056 2888 
Q 3531 2413 3531 1638 
Q 3531 888 3066 422 
Q 2609 -31 1919 -31 
Q 1228 -31 781 416 
Q 313 881 313 1656 
Q 313 2413 788 2888 
Q 1241 3341 1919 3341 
z
M 1919 2919 
Q 1519 2919 1241 2631 
Q 888 2278 888 1650 
Q 888 1031 1234 684 
Q 1516 403 1919 403 
Q 2331 403 2609 691 
Q 2956 1038 2956 1672 
Q 2956 2269 2603 2631 
Q 2316 2919 1919 2919 
z
" transform="scale(0.015625)"/>
        <path id="IPAexGothic-76" d="M 3103 3250 
L 1747 6 
L 1375 6 
L 25 3250 
L 628 3250 
L 1338 1388 
L 1522 844 
L 1569 703 
L 1588 703 
Q 1641 884 1822 1388 
L 2516 3250 
L 3103 3250 
z
" transform="scale(0.015625)"/>
       </defs>
       <use xlink:href="#IPAexGothic-4e"/>
       <use xlink:href="#IPAexGothic-6f" x="75.976562"/>
       <use xlink:href="#IPAexGothic-76" x="136.376953"/>
      </g>
     </g>
    </g>
    <g id="xtick_7">
     <g id="line2d_8">
      <g>
       <use xlink:href="#ma130904e97" x="317.337565" y="284.991437" style="stroke: #000000; stroke-width: 0.8"/>
      </g>
     </g>
     <g id="text_7">
      <!-- Dec -->
      <g transform="translate(307.989127 299.482062) scale(0.1 -0.1)">
       <defs>
        <path id="IPAexGothic-44" d="M 609 4634 
L 1984 4634 
Q 3159 4634 3791 4050 
Q 4456 3444 4456 2356 
Q 4456 1047 3516 441 
Q 2925 63 1941 63 
L 609 63 
L 609 4634 
z
M 1172 556 
L 1894 556 
Q 3853 556 3853 2356 
Q 3853 4147 1928 4147 
L 1172 4147 
L 1172 556 
z
" transform="scale(0.015625)"/>
       </defs>
       <use xlink:href="#IPAexGothic-44"/>
       <use xlink:href="#IPAexGothic-65" x="75.683594"/>
       <use xlink:href="#IPAexGothic-63" x="132.568359"/>
      </g>
     </g>
    </g>
    <g id="xtick_8">
     <g id="line2d_9">
      <g>
       <use xlink:href="#ma130904e97" x="366.107256" y="284.991437" style="stroke: #000000; stroke-width: 0.8"/>
      </g>
     </g>
     <g id="text_8">
      <!-- 2023 -->
      <g transform="translate(353.510381 299.482062) scale(0.1 -0.1)">
       <defs>
        <path id="IPAexGothic-32" d="M 3659 63 
L 447 63 
L 447 594 
Q 825 1475 1894 2203 
L 2072 2322 
Q 2619 2697 2791 2906 
Q 2988 3153 2988 3444 
Q 2988 3772 2756 4003 
Q 2500 4259 2084 4259 
Q 1250 4259 991 3328 
L 497 3506 
Q 853 4725 2116 4725 
Q 2806 4725 3216 4316 
Q 3575 3947 3575 3425 
Q 3575 3038 3344 2722 
Q 3131 2416 2366 1938 
L 2231 1856 
Q 1256 1253 978 569 
L 3659 569 
L 3659 63 
z
" transform="scale(0.015625)"/>
        <path id="IPAexGothic-30" d="M 2038 4725 
Q 2881 4725 3334 3944 
Q 3694 3325 3694 2344 
Q 3694 1372 3334 741 
Q 2888 -31 2016 -31 
Q 1147 -31 700 741 
Q 341 1372 341 2350 
Q 341 3713 1000 4334 
Q 1419 4725 2038 4725 
z
M 2016 4266 
Q 1516 4266 1228 3759 
Q 934 3247 934 2344 
Q 934 1456 1222 947 
Q 1513 447 2016 447 
Q 2619 447 2909 1153 
Q 3100 1622 3100 2375 
Q 3100 3256 2806 3759 
Q 2509 4266 2016 4266 
z
" transform="scale(0.015625)"/>
        <path id="IPAexGothic-33" d="M 2381 2419 
Q 3506 2216 3506 1278 
Q 3506 716 3128 356 
Q 2709 -31 1944 -31 
Q 797 -31 288 881 
L 756 1131 
Q 1109 441 1938 441 
Q 2425 441 2694 691 
Q 2950 928 2950 1291 
Q 2950 1719 2566 1978 
Q 2216 2213 1644 2213 
L 1363 2213 
L 1363 2669 
L 1656 2669 
Q 2231 2669 2534 2888 
Q 2859 3119 2859 3509 
Q 2859 3934 2494 4138 
Q 2259 4278 1931 4278 
Q 1238 4278 903 3578 
L 434 3803 
Q 897 4725 1938 4725 
Q 2597 4725 3006 4394 
Q 3416 4069 3416 3534 
Q 3416 3028 3019 2706 
Q 2763 2500 2381 2444 
L 2381 2419 
z
" transform="scale(0.015625)"/>
       </defs>
       <use xlink:href="#IPAexGothic-32"/>
       <use xlink:href="#IPAexGothic-30" x="62.988281"/>
       <use xlink:href="#IPAexGothic-32" x="125.976562"/>
       <use xlink:href="#IPAexGothic-33" x="188.964844"/>
      </g>
     </g>
    </g>
   </g>
   <g id="matplotlib.axis_2">
    <g id="ytick_1">
     <g id="line2d_10">
      <defs>
       <path id="mbe45fcbb35" d="M 0 0 
L -3.5 0 
" style="stroke: #000000; stroke-width: 0.8"/>
      </defs>
      <g>
       <use xlink:href="#mbe45fcbb35" x="29.439063" y="269.014637" style="stroke: #000000; stroke-width: 0.8"/>
      </g>
     </g>
     <g id="text_9">
      <!-- 0.5 -->
      <g transform="translate(7.2 272.759949) scale(0.1 -0.1)">
       <defs>
        <path id="IPAexGothic-2e" d="M 1184 63 
L 494 63 
L 494 753 
L 1184 753 
L 1184 63 
z
" transform="scale(0.015625)"/>
        <path id="IPAexGothic-35" d="M 1178 2603 
Q 1634 2963 2172 2963 
Q 2816 2963 3241 2528 
Q 3638 2113 3638 1497 
Q 3638 938 3297 513 
Q 2869 -31 2031 -31 
Q 959 -31 469 784 
L 938 1028 
Q 1309 434 2013 434 
Q 2466 434 2769 716 
Q 3081 1013 3081 1503 
Q 3081 1966 2806 2241 
Q 2519 2528 2056 2528 
Q 1406 2528 1072 2028 
L 591 2091 
L 884 4634 
L 3406 4634 
L 3406 4153 
L 1341 4153 
L 1134 2603 
L 1178 2603 
z
" transform="scale(0.015625)"/>
       </defs>
       <use xlink:href="#IPAexGothic-30"/>
       <use xlink:href="#IPAexGothic-2e" x="62.988281"/>
       <use xlink:href="#IPAexGothic-35" x="89.404297"/>
      </g>
     </g>
    </g>
    <g id="ytick_2">
     <g id="line2d_11">
      <g>
       <use xlink:href="#mbe45fcbb35" x="29.439063" y="211.199039" style="stroke: #000000; stroke-width: 0.8"/>
      </g>
     </g>
     <g id="text_10">
      <!-- 1.0 -->
      <g transform="translate(7.2 214.944352) scale(0.1 -0.1)">
       <defs>
        <path id="IPAexGothic-31" d="M 2463 63 
L 1900 63 
L 1900 4103 
Q 1372 3922 788 3797 
L 684 4231 
Q 1519 4441 2106 4731 
L 2463 4731 
L 2463 63 
z
" transform="scale(0.015625)"/>
       </defs>
       <use xlink:href="#IPAexGothic-31"/>
       <use xlink:href="#IPAexGothic-2e" x="62.988281"/>
       <use xlink:href="#IPAexGothic-30" x="89.404297"/>
      </g>
     </g>
    </g>
    <g id="ytick_3">
     <g id="line2d_12">
      <g>
       <use xlink:href="#mbe45fcbb35" x="29.439063" y="153.383442" style="stroke: #000000; stroke-width: 0.8"/>
      </g>
     </g>
     <g id="text_11">
      <!-- 1.5 -->
      <g transform="translate(7.2 157.128754) scale(0.1 -0.1)">
       <use xlink:href="#IPAexGothic-31"/>
       <use xlink:href="#IPAexGothic-2e" x="62.988281"/>
       <use xlink:href="#IPAexGothic-35" x="89.404297"/>
      </g>
     </g>
    </g>
    <g id="ytick_4">
     <g id="line2d_13">
      <g>
       <use xlink:href="#mbe45fcbb35" x="29.439063" y="95.567844" style="stroke: #000000; stroke-width: 0.8"/>
      </g>
     </g>
     <g id="text_12">
      <!-- 2.0 -->
      <g transform="translate(7.2 99.313157) scale(0.1 -0.1)">
       <use xlink:href="#IPAexGothic-32"/>
       <use xlink:href="#IPAexGothic-2e" x="62.988281"/>
       <use xlink:href="#IPAexGothic-30" x="89.404297"/>
      </g>
     </g>
    </g>
    <g id="ytick_5">
     <g id="line2d_14">
      <g>
       <use xlink:href="#mbe45fcbb35" x="29.439063" y="37.752247" style="stroke: #000000; stroke-width: 0.8"/>
      </g>
     </g>
     <g id="text_13">
      <!-- 2.5 -->
      <g transform="translate(7.2 41.497559) scale(0.1 -0.1)">
       <use xlink:href="#IPAexGothic-32"/>
       <use xlink:href="#IPAexGothic-2e" x="62.988281"/>
       <use xlink:href="#IPAexGothic-35" x="89.404297"/>
      </g>
     </g>
    </g>
   </g>
   <g id="line2d_15">
    <path d="M 29.439063 227.411867 
L 31.012278 255.471758 
L 32.585494 269.405805 
L 34.15871 242.945807 
L 35.731926 262.441258 
L 38.878358 251.639145 
L 40.451574 227.514621 
L 42.024789 229.940841 
L 43.598005 194.078383 
L 45.171221 246.403784 
L 46.744437 250.411663 
L 48.317653 205.84664 
L 49.890869 249.191321 
L 51.464085 272.895437 
L 53.0373 243.090535 
L 54.610516 247.559579 
L 56.183732 238.429093 
L 57.756948 112.810292 
L 59.330164 184.323192 
L 60.90338 181.498781 
L 62.476596 30.975437 
L 65.623027 168.571026 
L 67.196243 110.868109 
L 68.769459 213.126183 
L 70.342675 156.293505 
L 71.915891 124.518024 
L 73.489107 151.875457 
L 75.062322 236.751655 
L 76.635538 106.655378 
L 78.208754 51.387485 
L 79.78197 102.788184 
L 81.355186 95.926279 
L 82.928402 36.542983 
L 84.501618 79.37836 
L 86.074833 35.439549 
L 87.648049 110.396771 
L 89.221265 116.980214 
L 90.794481 109.726148 
L 92.367697 177.160719 
L 93.940913 110.814502 
L 95.514129 153.702013 
L 97.087344 148.460822 
L 98.66056 164.812112 
L 100.233776 190.526245 
L 101.806992 181.526351 
L 103.380208 197.096587 
L 104.953424 219.976945 
L 106.52664 163.710275 
L 108.099855 173.022011 
L 109.673071 196.817697 
L 111.246287 179.527296 
L 112.819503 191.661352 
L 114.392719 192.887858 
L 115.965935 173.15897 
L 117.539151 188.50237 
L 119.112366 201.809366 
L 120.685582 195.197746 
L 122.258798 183.412435 
L 123.832014 192.046725 
L 125.40523 204.737627 
L 126.978446 199.025674 
L 128.551662 189.016626 
L 130.124877 185.809755 
L 131.698093 182.941981 
L 133.271309 200.02008 
L 134.844525 192.032303 
L 136.417741 181.775482 
L 137.990957 186.871327 
L 139.564173 193.9839 
L 141.137388 204.601463 
L 142.710604 225.669065 
L 144.28382 207.989558 
L 145.857036 218.057369 
L 147.430252 204.232725 
L 149.003468 217.282458 
L 150.576684 202.720535 
L 152.1499 195.141529 
L 153.723115 153.461242 
L 155.296331 171.531238 
L 156.869547 185.828914 
L 158.442763 204.950127 
L 160.015979 187.736367 
L 161.589195 211.671324 
L 163.162411 216.92144 
L 164.735626 231.587854 
L 166.308842 248.509599 
L 167.882058 240.826108 
L 169.455274 241.29957 
L 171.02849 247.072575 
L 172.601706 251.367839 
L 174.174922 251.669425 
L 175.748137 251.785215 
L 177.321353 242.900107 
L 178.894569 251.663262 
L 180.467785 241.186243 
L 182.041001 228.929625 
L 183.614217 240.670472 
L 185.187433 239.689961 
L 186.760648 228.587222 
L 188.333864 234.114512 
L 189.90708 220.053728 
L 191.480296 221.634093 
L 193.053512 247.789493 
L 194.626728 250.578039 
L 196.199944 230.847867 
L 197.773159 240.571341 
L 199.346375 229.667605 
L 200.919591 228.965012 
L 202.492807 226.507 
L 204.066023 266.267581 
L 205.639239 173.994674 
L 207.212455 228.352097 
L 208.78567 212.968149 
L 210.358886 243.863512 
L 211.932102 195.951487 
L 213.505318 187.500784 
L 215.078534 195.32975 
L 216.65175 238.855842 
L 218.224966 224.563828 
L 219.798181 239.674853 
L 221.371397 205.067187 
L 222.944613 219.657973 
L 224.517829 258.893645 
L 226.091045 189.095647 
L 227.664261 231.988543 
L 229.237477 230.452082 
L 230.810692 208.848889 
L 232.383908 214.413367 
L 233.957124 237.774657 
L 235.53034 208.216448 
L 237.103556 269.328924 
L 238.676772 186.857034 
L 240.249988 168.652783 
L 241.823203 211.199039 
L 243.396419 197.903063 
L 244.969635 190.42842 
L 246.542851 209.746404 
L 248.116067 135.123595 
L 249.689283 212.926136 
L 251.262499 239.34414 
L 252.835714 184.631705 
L 254.40893 193.892671 
L 255.982146 220.351516 
L 257.555362 197.002011 
L 259.128578 191.634272 
L 260.701794 213.253557 
L 262.27501 183.049443 
L 263.848225 199.198481 
L 265.421441 190.346771 
L 266.994657 160.309806 
L 268.567873 189.784075 
L 270.141089 198.104074 
L 271.714305 152.110827 
L 273.287521 152.9204 
L 274.860737 232.748365 
L 276.433952 165.024121 
L 278.007168 194.085734 
L 279.580384 199.838398 
L 281.1536 173.564927 
L 282.726816 209.205445 
L 284.300032 206.690562 
L 285.873248 156.249641 
L 287.446463 220.402577 
L 289.019679 215.284532 
L 290.592895 225.924092 
L 292.166111 188.099011 
L 293.739327 185.511636 
L 295.312543 211.199039 
L 296.885759 194.160213 
L 298.458974 184.55213 
L 300.03219 182.799057 
L 303.178622 203.930102 
L 304.751838 168.757197 
L 306.325054 220.491359 
L 307.89827 171.577359 
L 311.044701 192.11637 
L 312.617917 204.402838 
L 314.191133 198.987955 
L 315.764349 181.777237 
L 317.337565 142.696764 
L 318.910781 213.580923 
L 320.483996 220.529523 
L 322.057212 204.080643 
L 323.630428 205.292279 
L 325.203644 181.962456 
L 326.77686 194.793532 
L 328.350076 197.432704 
L 329.923292 173.295964 
L 331.496507 175.045451 
L 333.069723 167.16196 
L 334.642939 187.120934 
L 336.216155 183.834422 
L 337.789371 173.778001 
L 339.362587 181.23856 
L 340.935803 201.020413 
L 342.509018 187.828789 
L 344.082234 213.66936 
L 345.65545 207.768569 
L 347.228666 207.295129 
L 348.801882 192.832229 
L 350.375098 206.958159 
L 351.948314 188.728128 
L 353.521529 193.851266 
L 355.094745 207.103197 
L 356.667961 215.224404 
L 358.241177 196.113595 
L 359.814393 220.91992 
L 361.387609 200.04709 
L 362.960825 223.444191 
L 364.53404 251.024981 
L 366.107256 228.180558 
L 367.680472 208.755181 
L 369.253688 251.311193 
L 370.826904 254.432046 
L 372.40012 215.74342 
L 373.973336 126.299141 
L 375.546551 90.185267 
L 377.119767 169.01121 
L 378.692983 202.233317 
L 380.266199 208.810336 
L 381.839415 167.736099 
L 383.412631 215.685286 
L 384.985847 255.304956 
L 384.985847 255.304956 
" clip-path="url(#p790b98e693)" style="fill: none; stroke: #1f77b4; stroke-width: 1.5; stroke-linecap: square"/>
   </g>
   <g id="line2d_16">
    <path d="M 29.439063 230.929789 
L 31.012278 242.60231 
L 32.585494 262.8168 
L 34.15871 257.425513 
L 35.731926 253.337157 
L 37.305142 259.836211 
L 38.878358 254.434415 
L 40.451574 240.414674 
L 42.024789 228.735232 
L 43.598005 213.41839 
L 45.171221 223.501825 
L 46.744437 248.433331 
L 48.317653 230.677266 
L 49.890869 229.912564 
L 51.464085 262.11981 
L 53.0373 259.625445 
L 54.610516 245.355694 
L 56.183732 243.118728 
L 57.756948 189.281671 
L 59.330164 152.189606 
L 60.90338 182.917915 
L 62.476596 119.473036 
L 64.049811 68.196709 
L 65.623027 137.669929 
L 67.196243 141.957318 
L 68.769459 170.127431 
L 70.342675 187.579679 
L 71.915891 141.084002 
L 73.489107 138.693349 
L 75.062322 201.292679 
L 76.635538 186.000414 
L 78.208754 80.567026 
L 79.78197 78.413733 
L 81.355186 99.383107 
L 82.928402 67.931655 
L 84.501618 58.815077 
L 86.074833 58.306173 
L 87.648049 75.699401 
L 89.221265 113.713912 
L 90.794481 113.383995 
L 92.367697 146.569691 
L 93.940913 147.022086 
L 95.514129 133.443524 
L 97.087344 151.100956 
L 98.66056 156.832948 
L 100.233776 178.224324 
L 101.806992 186.098223 
L 103.380208 189.532009 
L 104.953424 209.091256 
L 106.52664 194.807872 
L 108.099855 168.434555 
L 109.673071 185.419494 
L 111.246287 188.44227 
L 112.819503 185.724694 
L 114.392719 192.276003 
L 115.965935 183.362139 
L 117.539151 181.032368 
L 119.112366 195.324076 
L 120.685582 198.546144 
L 122.258798 189.431392 
L 123.832014 187.79659 
L 125.40523 198.54902 
L 126.978446 201.914295 
L 128.551662 194.115474 
L 130.124877 187.422411 
L 131.698093 184.383085 
L 133.271309 191.750659 
L 134.844525 196.087179 
L 136.417741 186.997904 
L 137.990957 184.346184 
L 139.564173 190.473981 
L 141.137388 199.403219 
L 142.710604 215.633088 
L 144.28382 217.185071 
L 145.857036 213.134848 
L 147.430252 211.351742 
L 149.003468 210.94113 
L 150.576684 210.228598 
L 152.1499 198.987184 
L 153.723115 175.731796 
L 155.296331 162.744798 
L 158.442763 195.737687 
L 160.015979 196.62741 
L 161.589195 200.268399 
L 163.162411 214.327003 
L 164.735626 224.517111 
L 166.308842 240.462163 
L 167.882058 244.757718 
L 169.455274 241.063165 
L 171.02849 244.236496 
L 172.601706 249.249927 
L 174.174922 251.518783 
L 175.748137 251.727342 
L 177.321353 247.466905 
L 178.894569 247.402446 
L 180.467785 246.595581 
L 182.041001 235.262778 
L 183.614217 234.987471 
L 185.187433 240.181603 
L 186.760648 234.304978 
L 188.333864 231.390872 
L 189.90708 227.332189 
L 191.480296 220.846856 
L 193.053512 235.644814 
L 194.626728 249.196285 
L 196.199944 241.279862 
L 197.773159 235.839395 
L 199.346375 235.281663 
L 200.919591 229.316941 
L 202.492807 227.743627 
L 204.066023 248.882551 
L 205.639239 230.621466 
L 207.212455 204.147875 
L 208.78567 220.93913 
L 210.358886 229.635769 
L 211.932102 222.625721 
L 213.505318 191.792225 
L 215.078534 191.471858 
L 216.65175 219.272458 
L 218.224966 231.97864 
L 219.798181 232.42119 
L 221.371397 223.814193 
L 222.944613 212.595296 
L 224.517829 241.501939 
L 226.091045 230.097519 
L 227.664261 212.536835 
L 229.237477 231.223399 
L 230.810692 220.196168 
L 232.383908 211.66473 
L 233.957124 226.773505 
L 235.53034 224.052711 
L 237.103556 244.24423 
L 238.676772 237.116008 
L 240.249988 178.033043 
L 243.396419 204.731901 
L 244.969635 194.218394 
L 246.542851 200.456001 
L 248.116067 177.011185 
L 249.689283 179.059561 
L 251.262499 227.005264 
L 252.835714 215.29372 
L 254.40893 189.34014 
L 255.982146 207.855357 
L 257.555362 209.25497 
L 259.128578 194.345323 
L 260.701794 202.914504 
L 262.27501 199.04078 
L 263.848225 191.364392 
L 265.421441 194.846812 
L 266.994657 176.074523 
L 268.567873 175.764073 
L 270.141089 194.009205 
L 271.714305 176.860376 
L 273.287521 152.516084 
L 274.860737 198.91713 
L 276.433952 203.448625 
L 278.007168 180.273516 
L 279.580384 196.993923 
L 281.1536 187.318791 
L 282.726816 192.562593 
L 284.300032 207.954654 
L 285.873248 183.674736 
L 287.446463 192.091624 
L 289.019679 217.873602 
L 290.592895 220.737602 
L 292.166111 208.513572 
L 293.739327 186.8113 
L 295.312543 198.998945 
L 296.885759 202.972279 
L 298.458974 189.440136 
L 300.03219 183.678277 
L 301.605406 188.335204 
L 303.178622 198.897374 
L 304.751838 187.448754 
L 306.325054 197.179515 
L 307.89827 198.341262 
L 309.471485 176.894581 
L 311.044701 187.16406 
L 312.617917 198.406453 
L 314.191133 201.724689 
L 315.764349 190.654224 
L 317.337565 163.401008 
L 318.910781 182.424595 
L 320.483996 217.110216 
L 322.057212 212.600777 
L 323.630428 204.687964 
L 325.203644 194.139114 
L 326.77686 188.526714 
L 328.350076 196.119779 
L 329.923292 185.880047 
L 331.496507 174.173214 
L 333.069723 171.1536 
L 334.642939 177.474475 
L 336.216155 185.48723 
L 337.789371 178.891638 
L 339.362587 177.554882 
L 340.935803 191.49043 
L 342.509018 194.588989 
L 344.082234 201.412831 
L 345.65545 210.756455 
L 347.228666 207.532084 
L 348.801882 200.270107 
L 350.375098 200.091846 
L 351.948314 198.165608 
L 353.521529 191.313905 
L 355.094745 200.651084 
L 356.667961 211.235099 
L 358.241177 206.046382 
L 359.814393 209.168684 
L 361.387609 210.952529 
L 362.960825 212.341773 
L 364.53404 238.302243 
L 366.107256 240.353858 
L 367.680472 218.904029 
L 369.253688 232.400817 
L 370.826904 252.888083 
L 372.40012 237.150337 
L 373.973336 177.577562 
L 375.546551 108.989297 
L 377.119767 133.576313 
L 378.692983 186.602691 
L 380.266199 205.566408 
L 381.839415 189.803691 
L 383.412631 193.854637 
L 384.985847 237.669294 
L 384.985847 237.669294 
" clip-path="url(#p790b98e693)" style="fill: none; stroke: #ff7f0e; stroke-width: 1.5; stroke-linecap: square"/>
   </g>
   <g id="line2d_17">
    <path d="M 29.439063 229.122786 
L 31.012278 239.928401 
L 32.585494 252.698705 
L 34.15871 256.780278 
L 35.731926 259.139403 
L 37.305142 254.622372 
L 38.878358 257.208287 
L 40.451574 246.388486 
L 42.024789 237.055655 
L 43.598005 218.326475 
L 46.744437 233.387372 
L 48.317653 236.234427 
L 49.890869 237.293425 
L 53.0373 256.313321 
L 54.610516 255.822722 
L 56.183732 243.109331 
L 57.756948 212.36467 
L 60.90338 162.563334 
L 62.476596 143.84129 
L 64.049811 113.406318 
L 65.623027 107.256927 
L 67.196243 129.127564 
L 68.769459 169.610337 
L 70.342675 165.645532 
L 71.915891 169.115602 
L 73.489107 144.753156 
L 75.062322 179.647632 
L 76.635538 175.437505 
L 78.208754 150.710969 
L 79.78197 88.208754 
L 81.355186 84.394062 
L 82.928402 80.114816 
L 84.501618 71.804879 
L 86.074833 51.239386 
L 87.648049 76.931758 
L 89.221265 90.291085 
L 90.794481 112.392863 
L 92.367697 137.201801 
L 93.940913 135.362509 
L 95.514129 149.276885 
L 97.087344 138.58476 
L 98.66056 155.795645 
L 100.233776 168.900399 
L 104.953424 200.539182 
L 106.52664 195.575228 
L 108.099855 187.912342 
L 109.673071 178.52472 
L 111.246287 183.482093 
L 112.819503 189.523726 
L 114.392719 188.153999 
L 115.965935 186.18367 
L 117.539151 185.09643 
L 119.112366 188.315827 
L 120.685582 195.281979 
L 122.258798 193.687884 
L 123.832014 190.308761 
L 125.40523 193.689874 
L 126.978446 198.708102 
L 128.551662 197.755094 
L 130.124877 191.402728 
L 131.698093 185.944654 
L 133.271309 189.7987 
L 134.844525 191.844605 
L 136.417741 191.480812 
L 137.990957 186.955724 
L 139.564173 187.634041 
L 141.137388 195.355837 
L 142.710604 208.84012 
L 145.857036 217.476612 
L 147.430252 210.241718 
L 149.003468 213.36349 
L 150.576684 208.263285 
L 152.1499 205.402114 
L 153.723115 185.324114 
L 155.296331 174.344388 
L 156.869547 170.831497 
L 158.442763 188.120092 
L 160.015979 193.123075 
L 161.589195 201.848623 
L 163.162411 206.082407 
L 164.735626 220.402845 
L 166.308842 233.236603 
L 167.882058 240.583648 
L 169.455274 243.620823 
L 171.02849 243.114997 
L 174.174922 250.064959 
L 175.748137 251.607698 
L 177.321353 248.893225 
L 178.894569 248.891095 
L 180.467785 245.382199 
L 183.614217 237.10204 
L 185.187433 236.582508 
L 186.760648 236.477418 
L 188.333864 234.241533 
L 189.90708 227.752305 
L 191.480296 225.467971 
L 193.053512 230.718701 
L 194.626728 240.92208 
L 196.199944 243.507227 
L 197.773159 241.044337 
L 199.346375 233.826969 
L 200.919591 233.222764 
L 202.492807 228.38915 
L 204.066023 242.740121 
L 205.639239 229.269077 
L 207.212455 229.870881 
L 208.78567 207.161383 
L 210.358886 229.209749 
L 211.932102 219.501156 
L 213.505318 212.031087 
L 215.078534 192.98185 
L 216.65175 209.581314 
L 218.224966 221.065989 
L 219.798181 234.616737 
L 221.371397 224.06468 
L 222.944613 222.447011 
L 224.517829 230.764786 
L 226.091045 226.735849 
L 227.664261 230.732013 
L 229.237477 218.850986 
L 230.810692 224.281475 
L 232.383908 218.302399 
L 233.957124 221.123664 
L 235.53034 220.93512 
L 237.103556 242.141688 
L 238.676772 228.364316 
L 240.249988 218.44859 
L 241.823203 190.029585 
L 243.396419 193.727182 
L 244.969635 200.139008 
L 246.542851 199.610689 
L 248.116067 181.624175 
L 249.689283 190.09163 
L 252.835714 214.510045 
L 254.40893 208.573118 
L 255.982146 200.569432 
L 257.555362 204.342327 
L 259.128578 203.652593 
L 260.701794 200.974213 
L 262.27501 196.618162 
L 263.848225 199.093369 
L 265.421441 191.026031 
L 266.994657 184.214067 
L 268.567873 180.790352 
L 270.141089 183.611312 
L 271.714305 181.298308 
L 273.287521 169.270937 
L 274.860737 184.905831 
L 276.433952 188.492178 
L 278.007168 200.403438 
L 279.580384 187.108997 
L 281.1536 189.611924 
L 282.726816 195.033037 
L 284.300032 197.447481 
L 285.873248 192.747876 
L 287.446463 197.145102 
L 289.019679 200.314175 
L 290.592895 220.626045 
L 293.739327 201.295556 
L 295.312543 195.464272 
L 296.885759 197.405968 
L 298.458974 197.113713 
L 300.03219 187.261183 
L 301.605406 187.08549 
L 303.178622 193.741822 
L 304.751838 189.550213 
L 306.325054 199.469935 
L 307.89827 189.152671 
L 309.471485 193.119185 
L 311.044701 182.150609 
L 312.617917 193.164416 
L 314.191133 198.60058 
L 315.764349 195.400607 
L 317.337565 176.246527 
L 318.910781 182.20913 
L 320.483996 196.443074 
L 322.057212 212.928431 
L 323.630428 210.214796 
L 325.203644 197.539344 
L 326.77686 194.357613 
L 329.923292 188.916137 
L 331.496507 182.357292 
L 333.069723 171.871023 
L 334.642939 176.669151 
L 336.216155 179.625281 
L 337.789371 181.687232 
L 339.362587 179.678119 
L 340.935803 185.826618 
L 342.509018 190.280728 
L 344.082234 201.282161 
L 345.65545 203.568241 
L 347.228666 209.613962 
L 348.801882 202.82065 
L 350.375098 202.539923 
L 351.948314 196.411828 
L 353.521529 196.743275 
L 355.094745 196.795762 
L 356.667961 205.708887 
L 358.241177 206.399686 
L 359.814393 211.222913 
L 361.387609 206.203506 
L 362.960825 215.275699 
L 364.53404 227.04317 
L 366.107256 235.049338 
L 367.680472 230.893623 
L 369.253688 231.014516 
L 370.826904 240.403632 
L 372.40012 242.143466 
L 373.973336 209.55923 
L 375.546551 152.790998 
L 377.119767 131.180415 
L 378.692983 159.879638 
L 380.266199 194.434509 
L 381.839415 194.078898 
L 383.412631 199.039398 
L 384.985847 218.686553 
L 384.985847 218.686553 
" clip-path="url(#p790b98e693)" style="fill: none; stroke: #2ca02c; stroke-width: 1.5; stroke-linecap: square"/>
   </g>
   <g id="line2d_18">
    <path d="M 29.439063 221.275211 
L 31.012278 236.505406 
L 32.585494 248.478994 
L 34.15871 250.372301 
L 35.731926 258.240554 
L 37.305142 258.641514 
L 38.878358 253.887849 
L 40.451574 250.742613 
L 42.024789 242.558839 
L 43.598005 227.832517 
L 45.171221 226.152528 
L 46.744437 232.537407 
L 48.317653 227.154092 
L 49.890869 239.663468 
L 51.464085 247.949949 
L 53.0373 246.12502 
L 54.610516 254.219959 
L 56.183732 251.824807 
L 57.756948 220.968504 
L 59.330164 205.919399 
L 60.90338 186.135769 
L 62.476596 136.533121 
L 64.049811 133.903952 
L 65.623027 128.780364 
L 67.196243 108.165345 
L 68.769459 154.661857 
L 70.342675 166.381937 
L 71.915891 156.222628 
L 75.062322 174.127491 
L 76.635538 164.056515 
L 78.208754 151.002816 
L 79.78197 139.788926 
L 81.355186 90.161987 
L 82.928402 73.226844 
L 84.501618 79.930908 
L 86.074833 63.162834 
L 87.648049 67.394559 
L 89.221265 87.608872 
L 90.794481 95.307164 
L 92.367697 130.829051 
L 93.940913 130.923693 
L 97.087344 149.07322 
L 98.66056 145.514995 
L 100.233776 165.230701 
L 101.806992 172.15619 
L 103.380208 183.990017 
L 104.953424 198.107108 
L 106.52664 192.195781 
L 108.099855 190.267628 
L 109.673071 190.194295 
L 111.246287 178.776002 
L 112.819503 185.572177 
L 114.392719 190.372599 
L 115.965935 184.54832 
L 117.539151 186.766963 
L 119.112366 189.473261 
L 120.685582 190.069324 
L 122.258798 192.410021 
L 126.978446 195.044354 
L 128.551662 196.351076 
L 130.124877 194.867136 
L 131.698093 189.335364 
L 133.271309 189.603599 
L 134.844525 190.360547 
L 136.417741 189.394825 
L 137.990957 190.342872 
L 139.564173 188.74688 
L 141.137388 192.084855 
L 142.710604 203.69443 
L 144.28382 208.628052 
L 145.857036 214.390906 
L 147.430252 214.306201 
L 149.003468 212.043229 
L 150.576684 210.791529 
L 152.1499 205.110817 
L 153.723115 194.096195 
L 155.296331 181.995215 
L 156.869547 177.300368 
L 158.442763 180.166067 
L 160.015979 188.02426 
L 161.589195 198.022962 
L 164.735626 213.03684 
L 166.308842 228.256977 
L 167.882058 235.194567 
L 169.455274 240.763189 
L 171.02849 244.49752 
L 172.601706 245.259188 
L 175.748137 250.498685 
L 177.321353 249.519384 
L 178.894569 249.59516 
L 180.467785 247.032432 
L 182.041001 241.548346 
L 183.614217 240.987516 
L 186.760648 234.646856 
L 188.333864 235.892398 
L 189.90708 230.881904 
L 191.480296 226.256947 
L 193.053512 231.579139 
L 194.626728 236.122417 
L 196.199944 238.507266 
L 197.773159 242.782759 
L 199.346375 238.331566 
L 200.919591 232.634606 
L 202.492807 231.587191 
L 204.066023 239.646891 
L 205.639239 229.193149 
L 207.212455 229.040635 
L 208.78567 225.896331 
L 210.358886 217.632953 
L 211.932102 221.78581 
L 213.505318 212.266073 
L 215.078534 208.065956 
L 216.65175 206.313066 
L 218.224966 213.521109 
L 219.798181 226.061058 
L 221.371397 227.980673 
L 222.944613 222.980288 
L 224.517829 233.074257 
L 226.091045 221.710038 
L 227.664261 228.075685 
L 229.237477 230.662107 
L 230.810692 216.432907 
L 232.383908 221.898783 
L 233.957124 223.537176 
L 235.53034 218.034898 
L 237.103556 235.927619 
L 238.676772 230.806248 
L 240.249988 215.976432 
L 241.823203 216.679967 
L 243.396419 192.041922 
L 244.969635 192.910047 
L 246.542851 202.612348 
L 248.116067 185.877122 
L 249.689283 190.175906 
L 251.262499 204.536808 
L 252.835714 198.448671 
L 254.40893 209.676726 
L 255.982146 211.634562 
L 257.555362 199.686873 
L 259.128578 201.281933 
L 260.701794 206.126362 
L 262.27501 196.71423 
L 263.848225 197.268091 
L 265.421441 196.960725 
L 266.994657 183.923798 
L 268.567873 185.627441 
L 270.141089 185.325715 
L 271.714305 176.313222 
L 273.287521 174.670499 
L 274.860737 188.327129 
L 276.433952 180.177036 
L 279.580384 200.262414 
L 281.1536 183.839538 
L 282.726816 194.796847 
L 284.300032 198.049398 
L 285.873248 188.189868 
L 287.446463 200.271432 
L 289.019679 201.939318 
L 290.592895 207.269481 
L 292.166111 213.289999 
L 293.739327 204.949238 
L 295.312543 203.848238 
L 296.885759 195.139464 
L 298.458974 194.305696 
L 300.03219 193.674278 
L 301.605406 188.888776 
L 303.178622 191.5016 
L 304.751838 187.892686 
L 306.325054 198.041309 
L 307.89827 193.005785 
L 309.471485 187.405469 
L 311.044701 192.869183 
L 312.617917 188.066754 
L 314.191133 194.64471 
L 315.764349 194.587132 
L 317.337565 183.841066 
L 318.910781 186.599767 
L 320.483996 192.921842 
L 322.057212 198.395901 
L 323.630428 211.065593 
L 326.77686 196.858291 
L 328.350076 195.13317 
L 329.923292 187.209652 
L 331.496507 185.572071 
L 333.069723 178.699715 
L 334.642939 175.832866 
L 336.216155 178.493445 
L 337.789371 178.184745 
L 339.362587 181.575194 
L 340.935803 185.331186 
L 342.509018 186.329848 
L 344.082234 196.546057 
L 345.65545 202.936162 
L 347.228666 204.510717 
L 348.801882 205.626636 
L 350.375098 203.868227 
L 351.948314 199.222196 
L 353.521529 195.776348 
L 355.094745 199.414406 
L 356.667961 201.670223 
L 358.241177 203.378204 
L 359.814393 210.206468 
L 361.387609 208.524885 
L 362.960825 210.766072 
L 364.53404 225.546373 
L 367.680472 229.083162 
L 369.253688 236.464788 
L 370.826904 237.497733 
L 372.40012 234.806213 
L 373.973336 221.777563 
L 375.546551 187.059161 
L 377.119767 156.996009 
L 378.692983 152.052377 
L 380.266199 173.746238 
L 381.839415 188.21243 
L 383.412631 199.845473 
L 384.985847 216.297816 
L 384.985847 216.297816 
" clip-path="url(#p790b98e693)" style="fill: none; stroke: #d62728; stroke-width: 1.5; stroke-linecap: square"/>
   </g>
   <g id="line2d_19">
    <path d="M 29.439063 222.506149 
L 31.012278 229.225195 
L 32.585494 244.328125 
L 34.15871 247.402355 
L 35.731926 252.954749 
L 37.305142 258.019032 
L 38.878358 257.295259 
L 40.451574 249.2435 
L 42.024789 246.974437 
L 43.598005 234.54074 
L 45.171221 231.861658 
L 46.744437 231.553594 
L 48.317653 227.717781 
L 49.890869 232.012654 
L 51.464085 247.643113 
L 54.610516 246.413994 
L 56.183732 251.305355 
L 57.756948 234.325278 
L 59.330164 214.484016 
L 60.90338 201.387908 
L 62.476596 163.586194 
L 64.049811 129.858474 
L 65.623027 141.397281 
L 67.196243 125.3209 
L 68.769459 134.972888 
L 70.342675 154.989431 
L 71.915891 158.76708 
L 73.489107 155.361922 
L 75.062322 182.873277 
L 76.635538 162.532711 
L 78.208754 145.998895 
L 79.78197 142.271252 
L 81.355186 131.739654 
L 82.928402 80.2958 
L 84.501618 74.469261 
L 86.074833 71.612377 
L 87.648049 73.369884 
L 89.221265 78.170446 
L 90.794481 92.205622 
L 92.367697 114.651386 
L 93.940913 126.98029 
L 95.514129 135.707335 
L 97.087344 141.820322 
L 98.66056 152.338799 
L 100.233776 155.572908 
L 101.806992 168.629853 
L 103.380208 177.501124 
L 104.953424 192.046346 
L 106.52664 191.863517 
L 108.099855 188.562489 
L 109.673071 191.603524 
L 111.246287 188.124556 
L 112.819503 181.447777 
L 114.392719 187.0666 
L 115.965935 187.0915 
L 117.539151 185.34807 
L 119.112366 189.913695 
L 120.685582 190.637736 
L 122.258798 188.763136 
L 125.40523 195.654061 
L 126.978446 195.075047 
L 128.551662 193.860278 
L 130.124877 194.307816 
L 131.698093 192.563919 
L 133.271309 191.542008 
L 136.417741 188.685177 
L 137.990957 188.893792 
L 139.564173 191.078975 
L 141.137388 192.074346 
L 142.710604 199.593102 
L 144.28382 204.565698 
L 145.857036 210.577143 
L 147.430252 212.428944 
L 149.003468 214.907852 
L 150.576684 210.23647 
L 152.1499 207.817891 
L 153.723115 196.188428 
L 155.296331 189.862088 
L 156.869547 182.770205 
L 158.442763 183.291563 
L 160.015979 181.712392 
L 161.589195 193.113415 
L 164.735626 211.463604 
L 167.882058 230.909798 
L 171.02849 242.063784 
L 172.601706 245.919887 
L 174.174922 246.583547 
L 175.748137 248.741635 
L 177.321353 249.036102 
L 178.894569 249.952996 
L 180.467785 247.98217 
L 182.041001 243.701758 
L 183.614217 241.373489 
L 185.187433 240.72956 
L 186.760648 235.993508 
L 188.333864 234.540632 
L 189.90708 232.924776 
L 191.480296 229.099784 
L 193.053512 230.988135 
L 194.626728 235.724345 
L 196.199944 235.091221 
L 197.773159 238.923995 
L 199.346375 240.309621 
L 200.919591 236.532871 
L 202.492807 231.439783 
L 204.066023 239.832571 
L 205.639239 229.288225 
L 207.212455 229.025515 
L 208.78567 226.018762 
L 210.358886 229.776904 
L 211.932102 213.604985 
L 213.505318 215.680869 
L 215.078534 209.062995 
L 216.65175 214.984372 
L 218.224966 210.206824 
L 219.798181 219.314815 
L 221.371397 222.17396 
L 222.944613 226.369517 
L 224.517829 231.430807 
L 226.091045 225.577264 
L 227.664261 223.851206 
L 229.237477 228.555607 
L 230.810692 226.648719 
L 232.383908 216.031922 
L 233.957124 225.28565 
L 235.53034 220.640156 
L 237.103556 231.061495 
L 238.676772 227.73105 
L 240.249988 220.726004 
L 241.823203 215.037011 
L 243.396419 213.157231 
L 244.969635 191.720756 
L 246.542851 196.460668 
L 248.116067 191.350375 
L 249.689283 191.757527 
L 251.262499 201.836996 
L 252.835714 200.792232 
L 254.40893 197.550137 
L 255.982146 211.894043 
L 257.555362 208.846332 
L 259.128578 198.115669 
L 260.701794 203.773183 
L 262.27501 201.828184 
L 263.848225 197.214919 
L 265.421441 195.912493 
L 268.567873 185.115566 
L 270.141089 188.215948 
L 271.714305 179.230873 
L 273.287521 171.901027 
L 274.860737 188.619752 
L 276.433952 183.951829 
L 278.007168 183.070739 
L 279.580384 191.957715 
L 281.1536 195.323676 
L 282.726816 189.316525 
L 284.300032 197.266248 
L 285.873248 190.602066 
L 287.446463 195.331172 
L 289.019679 203.427593 
L 290.592895 207.153921 
L 292.166111 203.660003 
L 293.739327 208.209749 
L 295.312543 206.225655 
L 296.885759 201.968952 
L 298.458974 193.086981 
L 300.03219 192.080368 
L 301.605406 193.671134 
L 303.178622 192.037551 
L 304.751838 187.230909 
L 306.325054 195.127704 
L 307.89827 193.136595 
L 309.471485 190.879234 
L 311.044701 188.360647 
L 312.617917 195.259724 
L 314.191133 190.323195 
L 315.764349 192.16594 
L 317.337565 185.535827 
L 318.910781 190.356327 
L 320.483996 194.157665 
L 322.057212 195.231943 
L 323.630428 199.805793 
L 325.203644 205.75506 
L 326.77686 201.980701 
L 328.350076 196.973377 
L 331.496507 184.857416 
L 333.069723 182.068236 
L 334.642939 180.423619 
L 336.216155 177.468219 
L 337.789371 177.562124 
L 339.362587 178.80059 
L 340.935803 185.690961 
L 342.509018 185.834271 
L 345.65545 198.87215 
L 347.228666 203.82049 
L 348.801882 202.259429 
L 350.375098 205.894119 
L 351.948314 200.979192 
L 353.521529 198.165651 
L 355.094745 198.124359 
L 356.667961 202.74615 
L 358.241177 200.578123 
L 359.814393 207.104849 
L 361.387609 208.241904 
L 362.960825 211.671763 
L 364.53404 220.244674 
L 366.107256 226.078778 
L 367.680472 223.863886 
L 369.253688 233.998962 
L 370.826904 240.383726 
L 372.40012 233.517676 
L 373.973336 219.293385 
L 375.546551 203.251104 
L 377.119767 183.622751 
L 378.692983 167.197618 
L 380.266199 165.252998 
L 381.839415 172.562654 
L 383.412631 194.202864 
L 384.985847 213.618043 
L 384.985847 213.618043 
" clip-path="url(#p790b98e693)" style="fill: none; stroke: #9467bd; stroke-width: 1.5; stroke-linecap: square"/>
   </g>
   <g id="line2d_20">
    <path d="M 29.439063 221.989476 
L 31.012278 228.904971 
L 32.585494 237.483987 
L 34.15871 244.099331 
L 35.731926 250.133055 
L 38.878358 256.994611 
L 40.451574 253.038847 
L 43.598005 239.915086 
L 45.171221 236.632969 
L 46.744437 235.239876 
L 48.317653 227.68395 
L 49.890869 231.670455 
L 51.464085 240.522 
L 53.0373 246.901912 
L 54.610516 247.094508 
L 56.183732 245.135114 
L 57.756948 236.98727 
L 59.330164 227.417148 
L 60.90338 209.558869 
L 64.049811 154.479575 
L 65.623027 136.912814 
L 67.196243 136.626651 
L 68.769459 143.651398 
L 70.342675 138.702995 
L 71.915891 150.24993 
L 73.489107 157.637623 
L 75.062322 172.805614 
L 76.635538 172.308881 
L 78.208754 147.756838 
L 79.78197 139.424444 
L 81.355186 135.249771 
L 82.928402 118.380389 
L 84.501618 80.14313 
L 86.074833 68.347758 
L 87.648049 78.528388 
L 90.794481 83.731536 
L 92.367697 109.142714 
L 93.940913 114.016671 
L 95.514129 131.704446 
L 97.087344 137.894546 
L 98.66056 145.867244 
L 100.233776 159.375849 
L 101.806992 160.199988 
L 103.380208 173.774933 
L 104.953424 185.603024 
L 106.52664 187.691034 
L 109.673071 189.973888 
L 111.246287 189.661866 
L 112.819503 188.720384 
L 114.392719 183.420157 
L 115.965935 184.839306 
L 117.539151 187.32764 
L 119.112366 188.234936 
L 120.685582 190.808875 
L 122.258798 189.459306 
L 123.832014 189.315904 
L 125.40523 194.488321 
L 126.978446 196.222111 
L 128.551662 194.084129 
L 130.124877 192.551171 
L 131.698093 192.477858 
L 133.271309 193.836383 
L 134.844525 191.623847 
L 136.417741 188.740474 
L 137.990957 188.38451 
L 139.564173 189.755489 
L 141.137388 193.432394 
L 142.710604 198.363082 
L 144.28382 201.032618 
L 145.857036 206.925265 
L 147.430252 209.543013 
L 149.003468 213.252545 
L 150.576684 212.963095 
L 152.1499 207.846519 
L 155.296331 192.369156 
L 156.869547 189.197994 
L 158.442763 186.729077 
L 160.015979 184.042107 
L 161.589195 187.198671 
L 164.735626 207.540235 
L 166.308842 218.675332 
L 167.882058 224.780796 
L 169.455274 232.725185 
L 172.601706 243.690539 
L 174.174922 246.907814 
L 175.748137 247.474879 
L 177.321353 247.797075 
L 178.894569 249.480254 
L 180.467785 248.556817 
L 182.041001 245.08607 
L 183.614217 243.204053 
L 186.760648 238.815428 
L 188.333864 235.683007 
L 189.90708 232.270423 
L 191.480296 231.130882 
L 193.053512 232.49656 
L 194.626728 234.57189 
L 196.199944 234.929153 
L 197.773159 236.028174 
L 199.346375 237.444895 
L 200.919591 238.514573 
L 202.492807 234.934333 
L 204.066023 238.395766 
L 205.639239 231.266365 
L 207.212455 229.132824 
L 208.78567 226.515892 
L 210.358886 229.239417 
L 211.932102 224.817696 
L 213.505318 209.621523 
L 215.078534 212.522123 
L 218.224966 216.641101 
L 219.798181 215.732855 
L 221.371397 217.061613 
L 222.944613 221.758769 
L 224.517829 232.710465 
L 226.091045 225.409058 
L 227.664261 226.675144 
L 229.237477 224.981941 
L 230.810692 225.516094 
L 232.383908 224.706134 
L 233.957124 219.993368 
L 235.53034 222.621729 
L 237.103556 230.960194 
L 238.676772 224.808205 
L 240.249988 219.699069 
L 241.823203 219.194515 
L 243.396419 212.348296 
L 244.969635 209.65087 
L 246.542851 194.907088 
L 248.116067 187.807324 
L 249.689283 195.211158 
L 251.262499 201.189777 
L 252.835714 199.121299 
L 254.40893 199.667689 
L 255.982146 201.664094 
L 257.555362 209.536309 
L 259.128578 206.137929 
L 260.701794 200.771985 
L 262.27501 200.539284 
L 263.848225 201.393693 
L 266.994657 190.557175 
L 268.567873 190.24811 
L 270.141089 187.367939 
L 271.714305 182.763564 
L 273.287521 175.139954 
L 274.860737 184.260041 
L 278.007168 185.693006 
L 279.580384 186.011723 
L 281.1536 189.053189 
L 282.726816 197.746163 
L 284.300032 192.377572 
L 285.873248 191.188962 
L 287.446463 196.093335 
L 289.019679 198.888857 
L 290.592895 207.49831 
L 293.739327 200.805821 
L 295.312543 208.713277 
L 296.885759 204.293783 
L 298.458974 199.221764 
L 300.03219 191.424833 
L 301.605406 192.344692 
L 303.178622 195.438584 
L 304.751838 188.410429 
L 306.325054 193.421343 
L 307.89827 191.466693 
L 309.471485 191.34645 
L 311.044701 191.086209 
L 312.617917 191.173373 
L 314.191133 195.888562 
L 315.764349 188.934661 
L 317.337565 184.957424 
L 318.910781 190.651256 
L 320.483996 195.922878 
L 322.057212 195.865522 
L 323.630428 196.964714 
L 325.203644 196.992366 
L 326.77686 203.993471 
L 328.350076 201.233957 
L 329.923292 193.29733 
L 331.496507 188.48751 
L 333.069723 182.050611 
L 334.642939 182.922867 
L 336.216155 180.997684 
L 337.789371 176.85942 
L 339.362587 178.181248 
L 340.935803 182.759312 
L 342.509018 186.049535 
L 344.082234 190.908696 
L 345.65545 194.995539 
L 347.228666 200.316108 
L 348.801882 202.053777 
L 350.375098 203.05515 
L 351.948314 203.188982 
L 353.521529 199.818307 
L 355.094745 199.700281 
L 356.667961 201.146293 
L 358.241177 201.664569 
L 359.814393 204.221356 
L 361.387609 205.956449 
L 362.960825 210.922625 
L 364.53404 219.423925 
L 366.107256 221.610325 
L 367.680472 223.37897 
L 369.253688 229.049003 
L 370.826904 237.766712 
L 372.40012 236.693885 
L 375.546551 204.185953 
L 377.119767 198.109798 
L 380.266199 175.034151 
L 381.839415 165.669523 
L 383.412631 180.766015 
L 384.985847 207.173387 
L 384.985847 207.173387 
" clip-path="url(#p790b98e693)" style="fill: none; stroke: #8c564b; stroke-width: 1.5; stroke-linecap: square"/>
   </g>
   <g id="line2d_21">
    <path d="M 29.439063 224.216778 
L 31.012278 227.596136 
L 32.585494 236.094002 
L 34.15871 238.285498 
L 35.731926 247.009287 
L 37.305142 251.173405 
L 38.878358 253.38057 
L 40.451574 253.391419 
L 42.024789 250.111493 
L 43.598005 240.35466 
L 45.171221 240.873149 
L 46.744437 238.743918 
L 48.317653 231.524757 
L 49.890869 231.087585 
L 51.464085 239.084283 
L 53.0373 240.893702 
L 54.610516 246.996197 
L 56.183732 245.910647 
L 57.756948 233.085415 
L 59.330164 230.86679 
L 60.90338 221.875268 
L 62.476596 192.984554 
L 64.049811 172.579527 
L 65.623027 156.56697 
L 67.196243 133.393898 
L 68.769459 150.105108 
L 70.342675 145.513232 
L 71.915891 136.739153 
L 73.489107 150.483069 
L 75.062322 172.207681 
L 76.635538 164.739432 
L 78.208754 159.007124 
L 79.78197 141.932814 
L 81.355186 133.752243 
L 84.501618 113.209754 
L 86.074833 74.203567 
L 87.648049 74.821343 
L 89.221265 84.425418 
L 90.794481 85.512302 
L 92.367697 100.005778 
L 93.940913 109.382331 
L 95.514129 120.19955 
L 97.087344 134.191304 
L 98.66056 141.997781 
L 100.233776 153.047456 
L 101.806992 162.735832 
L 103.380208 166.052801 
L 104.953424 181.433711 
L 106.52664 182.665304 
L 108.099855 185.684395 
L 109.673071 190.052933 
L 111.246287 188.528151 
L 112.819503 189.949308 
L 114.392719 189.323584 
L 115.965935 181.997329 
L 117.539151 185.368481 
L 119.112366 189.494891 
L 120.685582 189.251731 
L 122.258798 189.776067 
L 123.832014 189.831957 
L 125.40523 191.63289 
L 126.978446 195.146246 
L 128.551662 195.216294 
L 130.124877 192.932486 
L 131.698093 191.218756 
L 133.271309 193.58218 
L 134.844525 193.580143 
L 136.417741 190.258975 
L 137.990957 188.474989 
L 139.564173 189.198645 
L 141.137388 191.981943 
L 142.710604 198.601115 
L 144.28382 199.784621 
L 145.857036 203.618883 
L 147.430252 206.544268 
L 149.003468 210.681256 
L 150.576684 211.804545 
L 152.1499 210.573035 
L 153.723115 201.272819 
L 156.869547 191.453746 
L 158.442763 191.567199 
L 160.015979 186.873421 
L 161.589195 188.362043 
L 163.162411 191.892493 
L 166.308842 214.499122 
L 167.882058 222.158824 
L 169.455274 227.322903 
L 171.02849 234.922937 
L 172.601706 240.308315 
L 174.174922 244.880253 
L 175.748137 247.623529 
L 177.321353 246.836933 
L 178.894569 248.36133 
L 180.467785 248.346486 
L 182.041001 246.014508 
L 183.614217 244.469403 
L 185.187433 242.710852 
L 186.760648 239.410904 
L 188.333864 238.158751 
L 189.90708 233.598803 
L 191.480296 230.819473 
L 193.053512 233.710105 
L 194.626728 235.321048 
L 196.199944 234.048867 
L 197.773159 235.757231 
L 199.346375 235.145673 
L 200.919591 236.280027 
L 202.492807 236.891486 
L 204.066023 240.248563 
L 205.639239 231.206691 
L 207.212455 230.855381 
L 208.78567 226.97232 
L 210.358886 229.200263 
L 211.932102 225.060755 
L 213.505318 220.171876 
L 215.078534 207.679122 
L 216.65175 216.719103 
L 218.224966 216.123738 
L 219.798181 220.271379 
L 221.371397 214.26839 
L 222.944613 217.436337 
L 224.517829 228.104504 
L 226.091045 227.449084 
L 227.664261 226.376218 
L 229.237477 227.223636 
L 230.810692 222.819885 
L 232.383908 223.999794 
L 233.957124 226.684388 
L 235.53034 218.385403 
L 237.103556 231.107781 
L 238.676772 225.63427 
L 240.249988 218.212387 
L 241.823203 218.52415 
L 243.396419 216.383034 
L 244.969635 209.44702 
L 246.542851 209.664523 
L 248.116067 187.671964 
L 249.689283 191.709338 
L 251.262499 202.671045 
L 252.835714 198.947973 
L 254.40893 198.387136 
L 255.982146 202.852002 
L 257.555362 201.008475 
L 259.128578 207.131896 
L 260.701794 207.18111 
L 262.27501 198.380668 
L 263.848225 200.348606 
L 265.421441 199.87207 
L 266.994657 191.497092 
L 268.567873 190.446999 
L 270.141089 191.399083 
L 271.714305 182.804438 
L 273.287521 178.836405 
L 274.860737 185.145917 
L 276.433952 181.658839 
L 278.007168 186.284838 
L 279.580384 187.806378 
L 281.1536 184.297498 
L 282.726816 192.130815 
L 284.300032 199.063592 
L 285.873248 187.727666 
L 287.446463 195.808404 
L 289.019679 199.024939 
L 290.592895 203.154815 
L 292.166111 204.902638 
L 293.739327 201.663825 
L 295.312543 202.345891 
L 296.885759 206.736348 
L 298.458974 201.650842 
L 300.03219 196.995616 
L 301.605406 191.746216 
L 303.178622 194.064329 
L 304.751838 191.922213 
L 306.325054 193.527147 
L 307.89827 190.499864 
L 309.471485 190.157175 
L 311.044701 191.456708 
L 312.617917 193.073793 
L 314.191133 192.318328 
L 315.764349 193.959995 
L 317.337565 183.119016 
L 320.483996 195.385749 
L 322.057212 197.120655 
L 323.630428 197.255697 
L 325.203644 194.920628 
L 326.77686 196.680503 
L 328.350076 203.076989 
L 329.923292 197.57802 
L 331.496507 190.830877 
L 333.069723 185.624953 
L 334.642939 182.786056 
L 336.216155 183.053444 
L 337.789371 179.987536 
L 339.362587 177.492985 
L 340.935803 181.681811 
L 342.509018 183.494688 
L 344.082234 190.37394 
L 345.65545 193.456085 
L 347.228666 196.827227 
L 348.801882 199.273135 
L 350.375098 202.7665 
L 351.948314 201.103242 
L 353.521529 201.896283 
L 355.094745 200.885534 
L 356.667961 202.043694 
L 358.241177 200.439377 
L 359.814393 204.616121 
L 361.387609 203.633554 
L 362.960825 208.62509 
L 364.53404 217.74467 
L 366.107256 220.720925 
L 367.680472 219.863341 
L 369.253688 227.927071 
L 370.826904 233.158476 
L 372.40012 234.910488 
L 373.973336 225.785975 
L 375.546551 207.941713 
L 377.119767 199.687402 
L 378.692983 198.707123 
L 380.266199 190.269042 
L 381.839415 174.012436 
L 383.412631 174.001014 
L 384.985847 194.929842 
L 384.985847 194.929842 
" clip-path="url(#p790b98e693)" style="fill: none; stroke: #e377c2; stroke-width: 1.5; stroke-linecap: square"/>
   </g>
   <g id="patch_3">
    <path d="M 29.439063 284.991437 
L 29.439063 18.879437 
" style="fill: none; stroke: #000000; stroke-width: 0.8; stroke-linejoin: miter; stroke-linecap: square"/>
   </g>
   <g id="patch_4">
    <path d="M 386.559062 284.991437 
L 386.559062 18.879437 
" style="fill: none; stroke: #000000; stroke-width: 0.8; stroke-linejoin: miter; stroke-linecap: square"/>
   </g>
   <g id="patch_5">
    <path d="M 29.439063 284.991437 
L 386.559063 284.991437 
" style="fill: none; stroke: #000000; stroke-width: 0.8; stroke-linejoin: miter; stroke-linecap: square"/>
   </g>
   <g id="patch_6">
    <path d="M 29.439063 18.879437 
L 386.559063 18.879437 
" style="fill: none; stroke: #000000; stroke-width: 0.8; stroke-linejoin: miter; stroke-linecap: square"/>
   </g>
   <g id="legend_1">
    <g id="patch_7">
     <path d="M 188.849844 127.613812 
L 227.148281 127.613812 
Q 229.148281 127.613812 229.148281 125.613812 
L 229.148281 25.879437 
Q 229.148281 23.879437 227.148281 23.879437 
L 188.849844 23.879437 
Q 186.849844 23.879437 186.849844 25.879437 
L 186.849844 125.613812 
Q 186.849844 127.613812 188.849844 127.613812 
z
" style="fill: #ffffff; opacity: 0.8; stroke: #cccccc; stroke-linejoin: miter"/>
    </g>
    <g id="line2d_22">
     <path d="M 190.849844 31.870062 
L 200.849844 31.870062 
L 210.849844 31.870062 
" style="fill: none; stroke: #1f77b4; stroke-width: 1.5; stroke-linecap: square"/>
    </g>
    <g id="text_14">
     <!-- 1 -->
     <g transform="translate(218.849844 35.370062) scale(0.1 -0.1)">
      <use xlink:href="#IPAexGothic-31"/>
     </g>
    </g>
    <g id="line2d_23">
     <path d="M 190.849844 46.260687 
L 200.849844 46.260687 
L 210.849844 46.260687 
" style="fill: none; stroke: #ff7f0e; stroke-width: 1.5; stroke-linecap: square"/>
    </g>
    <g id="text_15">
     <!-- 2 -->
     <g transform="translate(218.849844 49.760687) scale(0.1 -0.1)">
      <use xlink:href="#IPAexGothic-32"/>
     </g>
    </g>
    <g id="line2d_24">
     <path d="M 190.849844 60.651312 
L 200.849844 60.651312 
L 210.849844 60.651312 
" style="fill: none; stroke: #2ca02c; stroke-width: 1.5; stroke-linecap: square"/>
    </g>
    <g id="text_16">
     <!-- 3 -->
     <g transform="translate(218.849844 64.151312) scale(0.1 -0.1)">
      <use xlink:href="#IPAexGothic-33"/>
     </g>
    </g>
    <g id="line2d_25">
     <path d="M 190.849844 75.041937 
L 200.849844 75.041937 
L 210.849844 75.041937 
" style="fill: none; stroke: #d62728; stroke-width: 1.5; stroke-linecap: square"/>
    </g>
    <g id="text_17">
     <!-- 4 -->
     <g transform="translate(218.849844 78.541937) scale(0.1 -0.1)">
      <defs>
       <path id="IPAexGothic-34" d="M 3813 1159 
L 3059 1159 
L 3059 63 
L 2547 63 
L 2547 1159 
L 197 1159 
L 197 1672 
L 2456 4678 
L 3059 4678 
L 3059 1634 
L 3813 1634 
L 3813 1159 
z
M 2578 4109 
L 2559 4109 
Q 2278 3656 2003 3284 
L 759 1634 
L 2547 1634 
L 2547 3144 
Q 2547 3481 2578 4109 
z
" transform="scale(0.015625)"/>
      </defs>
      <use xlink:href="#IPAexGothic-34"/>
     </g>
    </g>
    <g id="line2d_26">
     <path d="M 190.849844 89.432562 
L 200.849844 89.432562 
L 210.849844 89.432562 
" style="fill: none; stroke: #9467bd; stroke-width: 1.5; stroke-linecap: square"/>
    </g>
    <g id="text_18">
     <!-- 5 -->
     <g transform="translate(218.849844 92.932562) scale(0.1 -0.1)">
      <use xlink:href="#IPAexGothic-35"/>
     </g>
    </g>
    <g id="line2d_27">
     <path d="M 190.849844 103.823187 
L 200.849844 103.823187 
L 210.849844 103.823187 
" style="fill: none; stroke: #8c564b; stroke-width: 1.5; stroke-linecap: square"/>
    </g>
    <g id="text_19">
     <!-- 6 -->
     <g transform="translate(218.849844 107.323187) scale(0.1 -0.1)">
      <defs>
       <path id="IPAexGothic-36" d="M 1056 2328 
Q 1509 2981 2234 2981 
Q 2906 2981 3316 2513 
Q 3675 2106 3675 1522 
Q 3675 884 3272 434 
Q 2853 -31 2178 -31 
Q 1375 -31 922 581 
Q 481 1178 481 2228 
Q 481 3425 1013 4109 
Q 1494 4725 2272 4725 
Q 3191 4725 3609 4025 
L 3150 3775 
Q 2894 4266 2300 4266 
Q 1119 4266 1031 2328 
L 1056 2328 
z
M 2141 2547 
Q 1684 2547 1384 2206 
Q 1116 1900 1116 1541 
Q 1116 1156 1353 844 
Q 1672 428 2159 428 
Q 2669 428 2941 844 
Q 3125 1128 3125 1503 
Q 3125 1944 2881 2228 
Q 2600 2547 2141 2547 
z
" transform="scale(0.015625)"/>
      </defs>
      <use xlink:href="#IPAexGothic-36"/>
     </g>
    </g>
    <g id="line2d_28">
     <path d="M 190.849844 118.213812 
L 200.849844 118.213812 
L 210.849844 118.213812 
" style="fill: none; stroke: #e377c2; stroke-width: 1.5; stroke-linecap: square"/>
    </g>
    <g id="text_20">
     <!-- 7 -->
     <g transform="translate(218.849844 121.713812) scale(0.1 -0.1)">
      <defs>
       <path id="IPAexGothic-37" d="M 3597 4263 
Q 2238 2106 1778 63 
L 1131 63 
Q 1581 1834 2950 4128 
L 428 4128 
L 428 4634 
L 3597 4634 
L 3597 4263 
z
" transform="scale(0.015625)"/>
      </defs>
      <use xlink:href="#IPAexGothic-37"/>
     </g>
    </g>
   </g>
  </g>
  <g id="axes_2">
   <g id="matplotlib.axis_3"/>
   <g id="patch_8">
    <path d="M 29.439063 284.991437 
L 29.439063 18.879437 
" style="fill: none; stroke: #000000; stroke-width: 0.8; stroke-linejoin: miter; stroke-linecap: square"/>
   </g>
   <g id="patch_9">
    <path d="M 386.559062 284.991437 
L 386.559062 18.879437 
" style="fill: none; stroke: #000000; stroke-width: 0.8; stroke-linejoin: miter; stroke-linecap: square"/>
   </g>
   <g id="patch_10">
    <path d="M 29.439063 284.991437 
L 386.559063 284.991437 
" style="fill: none; stroke: #000000; stroke-width: 0.8; stroke-linejoin: miter; stroke-linecap: square"/>
   </g>
   <g id="patch_11">
    <path d="M 29.439063 18.879437 
L 386.559063 18.879437 
" style="fill: none; stroke: #000000; stroke-width: 0.8; stroke-linejoin: miter; stroke-linecap: square"/>
   </g>
  </g>
  <g id="text_21">
   <!-- : 2023/01/13 16:14:25(JST) -->
   <g transform="translate(211.087188 15.423437) scale(0.1 -0.1)">
    <defs>
     <path id="IPAexGothic-66f4" d="M 2956 3994 
L 2956 4588 
L 513 4588 
L 513 4984 
L 5881 4984 
L 5881 4588 
L 3413 4588 
L 3413 3994 
L 5300 3994 
L 5300 1288 
L 4838 1288 
L 4838 1759 
L 3406 1759 
Q 3384 1125 3150 709 
Q 4291 244 5997 31 
L 5694 -428 
Q 4109 -166 2906 384 
Q 2294 -266 744 -488 
L 494 -66 
Q 1903 59 2491 588 
Q 2041 813 1594 1166 
L 1928 1434 
Q 2331 1106 2747 897 
Q 2922 1219 2950 1759 
L 1556 1759 
L 1556 1413 
L 1097 1413 
L 1097 3994 
L 2956 3994 
z
M 2956 3609 
L 1556 3609 
L 1556 3078 
L 2956 3078 
L 2956 3609 
z
M 3413 3609 
L 3413 3078 
L 4838 3078 
L 4838 3609 
L 3413 3609 
z
M 2956 2700 
L 1556 2700 
L 1556 2144 
L 2956 2144 
L 2956 2700 
z
M 3413 2700 
L 3413 2144 
L 4838 2144 
L 4838 2700 
L 3413 2700 
z
" transform="scale(0.015625)"/>
     <path id="IPAexGothic-65b0" d="M 3891 2803 
Q 3881 1759 3794 1166 
Q 3653 197 3097 -563 
L 2741 -250 
Q 3450 700 3450 2631 
L 3450 4647 
Q 3516 4656 3622 4666 
Q 4656 4778 5447 5063 
L 5825 4678 
Q 4897 4419 3891 4294 
L 3891 3219 
L 6119 3219 
L 6119 2803 
L 5275 2803 
L 5275 -447 
L 4834 -447 
L 4834 2803 
L 3891 2803 
z
M 2822 4069 
Q 2678 3572 2519 3181 
L 3250 3181 
L 3250 2784 
L 2059 2784 
L 2059 2216 
L 3184 2216 
L 3184 1831 
L 2059 1831 
L 2059 1544 
Q 2613 1197 3031 847 
L 2781 456 
Q 2472 791 2059 1128 
L 2059 -447 
L 1644 -447 
L 1644 1294 
Q 1272 628 575 -31 
L 269 341 
Q 1041 938 1528 1831 
L 453 1831 
L 453 2216 
L 1644 2216 
L 1644 2784 
L 319 2784 
L 319 3181 
L 1125 3181 
Q 1013 3706 881 4069 
L 453 4069 
L 453 4453 
L 1631 4453 
L 1631 5309 
L 2072 5309 
L 2072 4453 
L 3166 4453 
L 3166 4069 
L 2822 4069 
z
M 2391 4069 
L 1325 4069 
Q 1450 3672 1534 3181 
L 2109 3181 
Q 2294 3659 2391 4069 
z
" transform="scale(0.015625)"/>
     <path id="IPAexGothic-65e5" d="M 5231 4800 
L 5231 -288 
L 4744 -288 
L 4744 128 
L 1647 128 
L 1647 -288 
L 1159 -288 
L 1159 4800 
L 5231 4800 
z
M 1647 4372 
L 1647 2731 
L 4744 2731 
L 4744 4372 
L 1647 4372 
z
M 1647 2297 
L 1647 556 
L 4744 556 
L 4744 2297 
L 1647 2297 
z
" transform="scale(0.015625)"/>
     <path id="IPAexGothic-6642" d="M 2328 4728 
L 2328 563 
L 934 563 
L 934 56 
L 519 56 
L 519 4728 
L 2328 4728 
z
M 934 4331 
L 934 2881 
L 1906 2881 
L 1906 4331 
L 934 4331 
z
M 934 2497 
L 934 953 
L 1906 953 
L 1906 2497 
L 934 2497 
z
M 3938 4372 
L 3938 5313 
L 4378 5313 
L 4378 4372 
L 5772 4372 
L 5772 3981 
L 4378 3981 
L 4378 3194 
L 6072 3194 
L 6072 2803 
L 5203 2803 
L 5203 2047 
L 5959 2047 
L 5959 1650 
L 5216 1650 
L 5216 31 
Q 5216 -447 4691 -447 
Q 4394 -447 3888 -391 
L 3784 78 
Q 4272 0 4591 0 
Q 4775 0 4775 172 
L 4775 1650 
L 2581 1650 
L 2581 2047 
L 4763 2047 
L 4763 2803 
L 2538 2803 
L 2538 3194 
L 3938 3194 
L 3938 3981 
L 2716 3981 
L 2716 4372 
L 3938 4372 
z
M 3669 384 
Q 3331 950 2956 1325 
L 3291 1575 
Q 3719 1147 4025 659 
L 3669 384 
z
" transform="scale(0.015625)"/>
     <path id="IPAexGothic-3a" d="M 1369 2559 
L 672 2559 
L 672 3250 
L 1369 3250 
L 1369 2559 
z
M 1369 63 
L 672 63 
L 672 753 
L 1369 753 
L 1369 63 
z
" transform="scale(0.015625)"/>
     <path id="IPAexGothic-20" transform="scale(0.015625)"/>
     <path id="IPAexGothic-2f" d="M 2719 4709 
L 600 -884 
L 300 -763 
L 2413 4831 
L 2719 4709 
z
" transform="scale(0.015625)"/>
     <path id="IPAexGothic-28" d="M 1928 -1016 
L 1653 -1166 
Q 488 69 488 1875 
Q 488 3678 1653 4909 
L 1928 4763 
Q 1006 3522 1006 1881 
Q 1006 203 1928 -1016 
z
" transform="scale(0.015625)"/>
     <path id="IPAexGothic-54" d="M 3866 4141 
L 2175 4141 
L 2175 63 
L 1606 63 
L 1606 4141 
L -31 4141 
L -31 4634 
L 3866 4634 
L 3866 4141 
z
" transform="scale(0.015625)"/>
     <path id="IPAexGothic-29" d="M 466 4909 
Q 1638 3672 1638 1875 
Q 1638 75 466 -1166 
L 191 -1016 
Q 1119 216 1119 1881 
Q 1119 3509 191 4763 
L 466 4909 
z
" transform="scale(0.015625)"/>
    </defs>
    <use xlink:href="#IPAexGothic-66f4"/>
    <use xlink:href="#IPAexGothic-65b0" x="100"/>
    <use xlink:href="#IPAexGothic-65e5" x="200"/>
    <use xlink:href="#IPAexGothic-6642" x="300"/>
    <use xlink:href="#IPAexGothic-3a" x="400"/>
    <use xlink:href="#IPAexGothic-20" x="431.982422"/>
    <use xlink:href="#IPAexGothic-32" x="458.984375"/>
    <use xlink:href="#IPAexGothic-30" x="521.972656"/>
    <use xlink:href="#IPAexGothic-32" x="584.960938"/>
    <use xlink:href="#IPAexGothic-33" x="647.949219"/>
    <use xlink:href="#IPAexGothic-2f" x="710.9375"/>
    <use xlink:href="#IPAexGothic-30" x="760.9375"/>
    <use xlink:href="#IPAexGothic-31" x="823.925781"/>
    <use xlink:href="#IPAexGothic-2f" x="886.914062"/>
    <use xlink:href="#IPAexGothic-31" x="936.914062"/>
    <use xlink:href="#IPAexGothic-33" x="999.902344"/>
    <use xlink:href="#IPAexGothic-20" x="1062.890625"/>
    <use xlink:href="#IPAexGothic-31" x="1089.892578"/>
    <use xlink:href="#IPAexGothic-36" x="1152.880859"/>
    <use xlink:href="#IPAexGothic-3a" x="1215.869141"/>
    <use xlink:href="#IPAexGothic-31" x="1247.851562"/>
    <use xlink:href="#IPAexGothic-34" x="1310.839844"/>
    <use xlink:href="#IPAexGothic-3a" x="1373.828125"/>
    <use xlink:href="#IPAexGothic-32" x="1405.810547"/>
    <use xlink:href="#IPAexGothic-35" x="1468.798828"/>
    <use xlink:href="#IPAexGothic-28" x="1531.787109"/>
    <use xlink:href="#IPAexGothic-4a" x="1565.087891"/>
    <use xlink:href="#IPAexGothic-53" x="1603.076172"/>
    <use xlink:href="#IPAexGothic-54" x="1661.572266"/>
    <use xlink:href="#IPAexGothic-29" x="1721.484375"/>
   </g>
  </g>
 </g>
 <defs>
  <clipPath id="p790b98e693">
   <rect x="29.439063" y="18.879437" width="357.12" height="266.112"/>
  </clipPath>
 </defs>
</svg>
