<?xml version="1.0" encoding="utf-8" standalone="no"?>
<!DOCTYPE svg PUBLIC "-//W3C//DTD SVG 1.1//EN"
  "http://www.w3.org/Graphics/SVG/1.1/DTD/svg11.dtd">
<svg xmlns:xlink="http://www.w3.org/1999/xlink" width="403.5575pt" height="320.972687pt" viewBox="0 0 403.5575 320.972687" xmlns="http://www.w3.org/2000/svg" version="1.1">
 <metadata>
  <rdf:RDF xmlns:dc="http://purl.org/dc/elements/1.1/" xmlns:cc="http://creativecommons.org/ns#" xmlns:rdf="http://www.w3.org/1999/02/22-rdf-syntax-ns#">
   <cc:Work>
    <dc:type rdf:resource="http://purl.org/dc/dcmitype/StillImage"/>
    <dc:date>2022-08-06T03:14:19.525849</dc:date>
    <dc:format>image/svg+xml</dc:format>
    <dc:creator>
     <cc:Agent>
      <dc:title>Matplotlib v3.5.2, https://matplotlib.org/</dc:title>
     </cc:Agent>
    </dc:creator>
   </cc:Work>
  </rdf:RDF>
 </metadata>
 <defs>
  <style type="text/css">*{stroke-linejoin: round; stroke-linecap: butt}</style>
 </defs>
 <g id="figure_1">
  <g id="patch_1">
   <path d="M 0 320.972687 
L 403.5575 320.972687 
L 403.5575 0 
L 0 0 
z
" style="fill: #ffffff"/>
  </g>
  <g id="axes_1">
   <g id="patch_2">
    <path d="M 35.7375 284.991437 
L 392.8575 284.991437 
L 392.8575 18.879437 
L 35.7375 18.879437 
z
" style="fill: #ffffff"/>
   </g>
   <g id="line2d_1">
    <path d="M 35.7375 203.485507 
L 392.8575 203.485507 
" clip-path="url(#pfcb30b1b9d)" style="fill: none; stroke: #000000; stroke-linecap: square"/>
   </g>
   <g id="matplotlib.axis_1">
    <g id="xtick_1">
     <g id="line2d_2">
      <defs>
       <path id="meb8ad6ebb0" d="M 0 0 
L 0 3.5 
" style="stroke: #000000; stroke-width: 0.8"/>
      </defs>
      <g>
       <use xlink:href="#meb8ad6ebb0" x="35.7375" y="284.991437" style="stroke: #000000; stroke-width: 0.8"/>
      </g>
     </g>
     <g id="text_1">
      <!-- Feb -->
      <g transform="translate(26.914063 299.482062)scale(0.1 -0.1)">
       <defs>
        <path id="IPAexGothic-46" d="M 3469 4141 
L 1172 4141 
L 1172 2656 
L 3206 2656 
L 3206 2188 
L 1172 2188 
L 1172 63 
L 609 63 
L 609 4634 
L 3469 4634 
L 3469 4141 
z
" transform="scale(0.015625)"/>
        <path id="IPAexGothic-65" d="M 863 1594 
Q 891 1041 1209 722 
Q 1534 397 1997 397 
Q 2606 397 2963 966 
L 3322 728 
Q 2869 -31 1931 -31 
Q 1222 -31 766 422 
Q 306 884 306 1641 
Q 306 2444 788 2925 
Q 1216 3353 1856 3353 
Q 2459 3353 2866 2956 
Q 3322 2494 3322 1722 
L 3322 1594 
L 863 1594 
z
M 2756 1997 
Q 2709 2431 2450 2681 
Q 2194 2938 1844 2938 
Q 1438 2938 1150 2591 
Q 953 2356 894 1997 
L 2756 1997 
z
" transform="scale(0.015625)"/>
        <path id="IPAexGothic-62" d="M 1125 2731 
Q 1550 3341 2219 3341 
Q 2788 3341 3191 2938 
Q 3659 2469 3659 1644 
Q 3659 838 3191 372 
Q 2788 -31 2206 -31 
Q 1559 -31 1088 516 
L 1009 44 
L 581 44 
L 581 4794 
L 1125 4794 
L 1125 2731 
z
M 1125 1997 
L 1125 1253 
Q 1125 888 1528 600 
Q 1803 403 2119 403 
Q 2488 403 2744 659 
Q 3084 1009 3084 1631 
Q 3084 2194 2803 2553 
Q 2525 2900 2125 2900 
Q 1759 2900 1438 2578 
Q 1125 2266 1125 1997 
z
" transform="scale(0.015625)"/>
       </defs>
       <use xlink:href="#IPAexGothic-46"/>
       <use xlink:href="#IPAexGothic-65" x="57.177734"/>
       <use xlink:href="#IPAexGothic-62" x="114.0625"/>
      </g>
     </g>
    </g>
    <g id="xtick_2">
     <g id="line2d_3">
      <g>
       <use xlink:href="#meb8ad6ebb0" x="89.210013" y="284.991437" style="stroke: #000000; stroke-width: 0.8"/>
      </g>
     </g>
     <g id="text_2">
      <!-- Mar -->
      <g transform="translate(80.100638 299.482062)scale(0.1 -0.1)">
       <defs>
        <path id="IPAexGothic-4d" d="M 5147 63 
L 4597 63 
L 4597 2534 
Q 4597 3281 4634 4134 
L 4609 4134 
Q 4356 3409 4066 2675 
L 3066 209 
L 2650 209 
L 1641 2725 
Q 1328 3506 1128 4141 
L 1103 4141 
Q 1141 3131 1141 2553 
L 1141 63 
L 609 63 
L 609 4634 
L 1416 4634 
L 2503 1944 
Q 2697 1472 2869 906 
L 2888 906 
Q 3028 1416 3234 1931 
L 4316 4634 
L 5147 4634 
L 5147 63 
z
" transform="scale(0.015625)"/>
        <path id="IPAexGothic-61" d="M 3156 63 
L 2672 63 
Q 2559 303 2531 556 
L 2509 556 
Q 2147 -25 1428 -25 
Q 934 -25 622 288 
Q 347 563 347 959 
Q 347 1947 2050 1997 
L 2478 2009 
L 2478 2175 
Q 2478 2509 2288 2700 
Q 2088 2900 1775 2900 
Q 1238 2900 969 2378 
L 494 2597 
Q 938 3328 1788 3328 
Q 2375 3328 2691 3000 
Q 2984 2706 2984 2169 
L 2984 997 
Q 2984 400 3156 63 
z
M 2491 1625 
L 2141 1619 
Q 903 1591 903 953 
Q 903 728 1050 581 
Q 1231 403 1525 403 
Q 1934 403 2234 703 
Q 2491 969 2491 1344 
L 2491 1625 
z
" transform="scale(0.015625)"/>
        <path id="IPAexGothic-72" d="M 2309 3316 
L 2213 2769 
Q 2106 2791 2022 2791 
Q 1653 2791 1413 2444 
Q 1113 2006 1113 1675 
L 1113 63 
L 563 63 
L 563 3250 
L 1081 3250 
L 1056 2303 
L 1069 2303 
Q 1422 3341 2097 3341 
Q 2206 3341 2309 3316 
z
" transform="scale(0.015625)"/>
       </defs>
       <use xlink:href="#IPAexGothic-4d"/>
       <use xlink:href="#IPAexGothic-61" x="90.185547"/>
       <use xlink:href="#IPAexGothic-72" x="145.166016"/>
      </g>
     </g>
    </g>
    <g id="xtick_3">
     <g id="line2d_4">
      <g>
       <use xlink:href="#meb8ad6ebb0" x="148.411725" y="284.991437" style="stroke: #000000; stroke-width: 0.8"/>
      </g>
     </g>
     <g id="text_3">
      <!-- Apr -->
      <g transform="translate(140.269537 299.482062)scale(0.1 -0.1)">
       <defs>
        <path id="IPAexGothic-41" d="M 4056 63 
L 3444 63 
L 2938 1409 
L 1100 1409 
L 603 63 
L -6 63 
L 1806 4666 
L 2259 4666 
L 4056 63 
z
M 2778 1863 
L 2316 3078 
Q 2125 3588 2028 4000 
L 2009 4000 
Q 1897 3563 1716 3078 
L 1263 1863 
L 2778 1863 
z
" transform="scale(0.015625)"/>
        <path id="IPAexGothic-70" d="M 1075 2688 
Q 1525 3341 2206 3341 
Q 2769 3341 3172 2938 
Q 3641 2469 3641 1644 
Q 3641 841 3178 372 
Q 2775 -31 2200 -31 
Q 1569 -31 1106 497 
L 1106 -1216 
L 563 -1216 
L 563 3250 
L 1075 3250 
L 1075 2688 
z
M 1106 1950 
L 1106 1291 
Q 1106 897 1516 600 
Q 1791 403 2106 403 
Q 2469 403 2725 659 
Q 3066 997 3066 1631 
Q 3066 2200 2784 2559 
Q 2503 2900 2100 2900 
Q 1656 2900 1338 2484 
Q 1106 2184 1106 1950 
z
" transform="scale(0.015625)"/>
       </defs>
       <use xlink:href="#IPAexGothic-41"/>
       <use xlink:href="#IPAexGothic-70" x="63.720703"/>
       <use xlink:href="#IPAexGothic-72" x="125.830078"/>
      </g>
     </g>
    </g>
    <g id="xtick_4">
     <g id="line2d_5">
      <g>
       <use xlink:href="#meb8ad6ebb0" x="205.703703" y="284.991437" style="stroke: #000000; stroke-width: 0.8"/>
      </g>
     </g>
     <g id="text_4">
      <!-- May -->
      <g transform="translate(195.984172 299.482062)scale(0.1 -0.1)">
       <defs>
        <path id="IPAexGothic-79" d="M 3122 3250 
L 1575 -488 
Q 1278 -1203 550 -1203 
L 478 -1203 
L 344 -703 
L 447 -703 
Q 969 -703 1150 -238 
L 1356 275 
L 38 3250 
L 659 3250 
L 1363 1459 
Q 1528 1025 1606 781 
L 1625 781 
Q 1750 1169 1863 1459 
L 2528 3250 
L 3122 3250 
z
" transform="scale(0.015625)"/>
       </defs>
       <use xlink:href="#IPAexGothic-4d"/>
       <use xlink:href="#IPAexGothic-61" x="90.185547"/>
       <use xlink:href="#IPAexGothic-79" x="145.166016"/>
      </g>
     </g>
    </g>
    <g id="xtick_5">
     <g id="line2d_6">
      <g>
       <use xlink:href="#meb8ad6ebb0" x="264.905414" y="284.991437" style="stroke: #000000; stroke-width: 0.8"/>
      </g>
     </g>
     <g id="text_5">
      <!-- Jun -->
      <g transform="translate(256.965571 299.482062)scale(0.1 -0.1)">
       <defs>
        <path id="IPAexGothic-4a" d="M 1819 4634 
L 1819 1234 
Q 1819 -31 763 -31 
Q 303 -31 -125 209 
L 84 644 
Q 378 447 694 447 
Q 1250 447 1250 1203 
L 1250 4634 
L 1819 4634 
z
" transform="scale(0.015625)"/>
        <path id="IPAexGothic-75" d="M 3284 63 
L 2772 63 
L 2772 644 
Q 2300 0 1625 0 
Q 1072 0 763 375 
Q 519 678 519 1241 
L 519 3250 
L 1069 3250 
L 1069 1259 
Q 1069 466 1734 466 
Q 2406 466 2734 1291 
L 2734 3250 
L 3284 3250 
L 3284 63 
z
" transform="scale(0.015625)"/>
        <path id="IPAexGothic-6e" d="M 3328 63 
L 2778 63 
L 2778 2041 
Q 2778 2853 2106 2853 
Q 1428 2853 1113 2041 
L 1113 63 
L 563 63 
L 563 3250 
L 1075 3250 
L 1075 2675 
Q 1525 3316 2222 3316 
Q 3328 3316 3328 2072 
L 3328 63 
z
" transform="scale(0.015625)"/>
       </defs>
       <use xlink:href="#IPAexGothic-4a"/>
       <use xlink:href="#IPAexGothic-75" x="37.988281"/>
       <use xlink:href="#IPAexGothic-6e" x="98.388672"/>
      </g>
     </g>
    </g>
    <g id="xtick_6">
     <g id="line2d_7">
      <g>
       <use xlink:href="#meb8ad6ebb0" x="322.197393" y="284.991437" style="stroke: #000000; stroke-width: 0.8"/>
      </g>
     </g>
     <g id="text_6">
      <!-- Jul -->
      <g transform="translate(315.927862 299.482062)scale(0.1 -0.1)">
       <defs>
        <path id="IPAexGothic-6c" d="M 1131 63 
L 581 63 
L 581 4794 
L 1131 4794 
L 1131 63 
z
" transform="scale(0.015625)"/>
       </defs>
       <use xlink:href="#IPAexGothic-4a"/>
       <use xlink:href="#IPAexGothic-75" x="37.988281"/>
       <use xlink:href="#IPAexGothic-6c" x="98.388672"/>
      </g>
     </g>
    </g>
    <g id="xtick_7">
     <g id="line2d_8">
      <g>
       <use xlink:href="#meb8ad6ebb0" x="381.399104" y="284.991437" style="stroke: #000000; stroke-width: 0.8"/>
      </g>
     </g>
     <g id="text_7">
      <!-- Aug -->
      <g transform="translate(372.417073 299.42425)scale(0.1 -0.1)">
       <defs>
        <path id="IPAexGothic-67" d="M 1331 1150 
Q 1006 1122 1006 900 
Q 1006 613 1763 575 
L 2131 556 
Q 3303 497 3303 -294 
Q 3303 -700 2925 -959 
Q 2519 -1253 1794 -1253 
Q 1138 -1253 738 -1028 
Q 353 -809 353 -428 
Q 353 84 1075 247 
L 1075 269 
Q 506 413 506 778 
Q 506 1116 994 1297 
Q 456 1575 456 2181 
Q 456 2650 769 2963 
Q 1128 3322 1738 3322 
Q 2125 3322 2422 3153 
Q 2650 3453 3259 3463 
L 3259 3013 
Q 2838 3003 2703 2938 
Q 3034 2613 3034 2169 
Q 3034 1728 2734 1425 
Q 2400 1094 1813 1094 
Q 1563 1094 1331 1150 
z
M 1734 2919 
Q 1409 2919 1197 2706 
Q 988 2497 988 2181 
Q 988 1872 1184 1684 
Q 1397 1472 1756 1472 
Q 2094 1472 2297 1678 
Q 2503 1881 2503 2203 
Q 2503 2497 2297 2700 
Q 2081 2919 1734 2919 
z
M 1753 159 
Q 903 159 903 -366 
Q 903 -875 1800 -875 
Q 2378 -875 2638 -606 
Q 2772 -481 2772 -313 
Q 2772 159 1753 159 
z
" transform="scale(0.015625)"/>
       </defs>
       <use xlink:href="#IPAexGothic-41"/>
       <use xlink:href="#IPAexGothic-75" x="63.720703"/>
       <use xlink:href="#IPAexGothic-67" x="124.121094"/>
      </g>
     </g>
    </g>
    <g id="text_8">
     <!-- 2022 -->
     <g transform="translate(367.66375 311.872687)scale(0.1 -0.1)">
      <defs>
       <path id="IPAexGothic-32" d="M 3659 63 
L 447 63 
L 447 594 
Q 825 1475 1894 2203 
L 2072 2322 
Q 2619 2697 2791 2906 
Q 2988 3153 2988 3444 
Q 2988 3772 2756 4003 
Q 2500 4259 2084 4259 
Q 1250 4259 991 3328 
L 497 3506 
Q 853 4725 2116 4725 
Q 2806 4725 3216 4316 
Q 3575 3947 3575 3425 
Q 3575 3038 3344 2722 
Q 3131 2416 2366 1938 
L 2231 1856 
Q 1256 1253 978 569 
L 3659 569 
L 3659 63 
z
" transform="scale(0.015625)"/>
       <path id="IPAexGothic-30" d="M 2038 4725 
Q 2881 4725 3334 3944 
Q 3694 3325 3694 2344 
Q 3694 1372 3334 741 
Q 2888 -31 2016 -31 
Q 1147 -31 700 741 
Q 341 1372 341 2350 
Q 341 3713 1000 4334 
Q 1419 4725 2038 4725 
z
M 2016 4266 
Q 1516 4266 1228 3759 
Q 934 3247 934 2344 
Q 934 1456 1222 947 
Q 1513 447 2016 447 
Q 2619 447 2909 1153 
Q 3100 1622 3100 2375 
Q 3100 3256 2806 3759 
Q 2509 4266 2016 4266 
z
" transform="scale(0.015625)"/>
      </defs>
      <use xlink:href="#IPAexGothic-32"/>
      <use xlink:href="#IPAexGothic-30" x="62.988281"/>
      <use xlink:href="#IPAexGothic-32" x="125.976562"/>
      <use xlink:href="#IPAexGothic-32" x="188.964844"/>
     </g>
    </g>
   </g>
   <g id="matplotlib.axis_2">
    <g id="ytick_1">
     <g id="line2d_9">
      <defs>
       <path id="m0a4eb3e4b5" d="M 0 0 
L -3.5 0 
" style="stroke: #000000; stroke-width: 0.8"/>
      </defs>
      <g>
       <use xlink:href="#m0a4eb3e4b5" x="35.7375" y="264.522941" style="stroke: #000000; stroke-width: 0.8"/>
      </g>
     </g>
     <g id="text_9">
      <!-- 0.50 -->
      <g transform="translate(7.2 268.268254)scale(0.1 -0.1)">
       <defs>
        <path id="IPAexGothic-2e" d="M 1184 63 
L 494 63 
L 494 753 
L 1184 753 
L 1184 63 
z
" transform="scale(0.015625)"/>
        <path id="IPAexGothic-35" d="M 1178 2603 
Q 1634 2963 2172 2963 
Q 2816 2963 3241 2528 
Q 3638 2113 3638 1497 
Q 3638 938 3297 513 
Q 2869 -31 2031 -31 
Q 959 -31 469 784 
L 938 1028 
Q 1309 434 2013 434 
Q 2466 434 2769 716 
Q 3081 1013 3081 1503 
Q 3081 1966 2806 2241 
Q 2519 2528 2056 2528 
Q 1406 2528 1072 2028 
L 591 2091 
L 884 4634 
L 3406 4634 
L 3406 4153 
L 1341 4153 
L 1134 2603 
L 1178 2603 
z
" transform="scale(0.015625)"/>
       </defs>
       <use xlink:href="#IPAexGothic-30"/>
       <use xlink:href="#IPAexGothic-2e" x="62.988281"/>
       <use xlink:href="#IPAexGothic-35" x="89.404297"/>
       <use xlink:href="#IPAexGothic-30" x="152.392578"/>
      </g>
     </g>
    </g>
    <g id="ytick_2">
     <g id="line2d_10">
      <g>
       <use xlink:href="#m0a4eb3e4b5" x="35.7375" y="234.004224" style="stroke: #000000; stroke-width: 0.8"/>
      </g>
     </g>
     <g id="text_10">
      <!-- 0.75 -->
      <g transform="translate(7.2 237.749537)scale(0.1 -0.1)">
       <defs>
        <path id="IPAexGothic-37" d="M 3597 4263 
Q 2238 2106 1778 63 
L 1131 63 
Q 1581 1834 2950 4128 
L 428 4128 
L 428 4634 
L 3597 4634 
L 3597 4263 
z
" transform="scale(0.015625)"/>
       </defs>
       <use xlink:href="#IPAexGothic-30"/>
       <use xlink:href="#IPAexGothic-2e" x="62.988281"/>
       <use xlink:href="#IPAexGothic-37" x="89.404297"/>
       <use xlink:href="#IPAexGothic-35" x="152.392578"/>
      </g>
     </g>
    </g>
    <g id="ytick_3">
     <g id="line2d_11">
      <g>
       <use xlink:href="#m0a4eb3e4b5" x="35.7375" y="203.485507" style="stroke: #000000; stroke-width: 0.8"/>
      </g>
     </g>
     <g id="text_11">
      <!-- 1.00 -->
      <g transform="translate(7.2 207.230819)scale(0.1 -0.1)">
       <defs>
        <path id="IPAexGothic-31" d="M 2463 63 
L 1900 63 
L 1900 4103 
Q 1372 3922 788 3797 
L 684 4231 
Q 1519 4441 2106 4731 
L 2463 4731 
L 2463 63 
z
" transform="scale(0.015625)"/>
       </defs>
       <use xlink:href="#IPAexGothic-31"/>
       <use xlink:href="#IPAexGothic-2e" x="62.988281"/>
       <use xlink:href="#IPAexGothic-30" x="89.404297"/>
       <use xlink:href="#IPAexGothic-30" x="152.392578"/>
      </g>
     </g>
    </g>
    <g id="ytick_4">
     <g id="line2d_12">
      <g>
       <use xlink:href="#m0a4eb3e4b5" x="35.7375" y="172.96679" style="stroke: #000000; stroke-width: 0.8"/>
      </g>
     </g>
     <g id="text_12">
      <!-- 1.25 -->
      <g transform="translate(7.2 176.712102)scale(0.1 -0.1)">
       <use xlink:href="#IPAexGothic-31"/>
       <use xlink:href="#IPAexGothic-2e" x="62.988281"/>
       <use xlink:href="#IPAexGothic-32" x="89.404297"/>
       <use xlink:href="#IPAexGothic-35" x="152.392578"/>
      </g>
     </g>
    </g>
    <g id="ytick_5">
     <g id="line2d_13">
      <g>
       <use xlink:href="#m0a4eb3e4b5" x="35.7375" y="142.448073" style="stroke: #000000; stroke-width: 0.8"/>
      </g>
     </g>
     <g id="text_13">
      <!-- 1.50 -->
      <g transform="translate(7.2 146.193385)scale(0.1 -0.1)">
       <use xlink:href="#IPAexGothic-31"/>
       <use xlink:href="#IPAexGothic-2e" x="62.988281"/>
       <use xlink:href="#IPAexGothic-35" x="89.404297"/>
       <use xlink:href="#IPAexGothic-30" x="152.392578"/>
      </g>
     </g>
    </g>
    <g id="ytick_6">
     <g id="line2d_14">
      <g>
       <use xlink:href="#m0a4eb3e4b5" x="35.7375" y="111.929355" style="stroke: #000000; stroke-width: 0.8"/>
      </g>
     </g>
     <g id="text_14">
      <!-- 1.75 -->
      <g transform="translate(7.2 115.674668)scale(0.1 -0.1)">
       <use xlink:href="#IPAexGothic-31"/>
       <use xlink:href="#IPAexGothic-2e" x="62.988281"/>
       <use xlink:href="#IPAexGothic-37" x="89.404297"/>
       <use xlink:href="#IPAexGothic-35" x="152.392578"/>
      </g>
     </g>
    </g>
    <g id="ytick_7">
     <g id="line2d_15">
      <g>
       <use xlink:href="#m0a4eb3e4b5" x="35.7375" y="81.410638" style="stroke: #000000; stroke-width: 0.8"/>
      </g>
     </g>
     <g id="text_15">
      <!-- 2.00 -->
      <g transform="translate(7.2 85.155951)scale(0.1 -0.1)">
       <use xlink:href="#IPAexGothic-32"/>
       <use xlink:href="#IPAexGothic-2e" x="62.988281"/>
       <use xlink:href="#IPAexGothic-30" x="89.404297"/>
       <use xlink:href="#IPAexGothic-30" x="152.392578"/>
      </g>
     </g>
    </g>
    <g id="ytick_8">
     <g id="line2d_16">
      <g>
       <use xlink:href="#m0a4eb3e4b5" x="35.7375" y="50.891921" style="stroke: #000000; stroke-width: 0.8"/>
      </g>
     </g>
     <g id="text_16">
      <!-- 2.25 -->
      <g transform="translate(7.2 54.637233)scale(0.1 -0.1)">
       <use xlink:href="#IPAexGothic-32"/>
       <use xlink:href="#IPAexGothic-2e" x="62.988281"/>
       <use xlink:href="#IPAexGothic-32" x="89.404297"/>
       <use xlink:href="#IPAexGothic-35" x="152.392578"/>
      </g>
     </g>
    </g>
    <g id="ytick_9">
     <g id="line2d_17">
      <g>
       <use xlink:href="#m0a4eb3e4b5" x="35.7375" y="20.373204" style="stroke: #000000; stroke-width: 0.8"/>
      </g>
     </g>
     <g id="text_17">
      <!-- 2.50 -->
      <g transform="translate(7.2 24.118516)scale(0.1 -0.1)">
       <use xlink:href="#IPAexGothic-32"/>
       <use xlink:href="#IPAexGothic-2e" x="62.988281"/>
       <use xlink:href="#IPAexGothic-35" x="89.404297"/>
       <use xlink:href="#IPAexGothic-30" x="152.392578"/>
      </g>
     </g>
    </g>
   </g>
   <g id="line2d_18">
    <path d="M 49.105628 246.764939 
L 51.015361 252.025255 
L 52.925094 237.526584 
L 54.834826 216.985322 
L 56.744559 244.687429 
L 58.654291 217.229148 
L 60.564024 200.778852 
L 62.473757 200.790801 
L 64.383489 206.122014 
L 66.293222 171.133519 
L 68.202955 171.22436 
L 70.112687 134.588505 
L 72.02242 74.827759 
L 73.932152 156.078477 
L 75.841885 66.40717 
L 77.751618 51.742833 
L 79.66135 178.575122 
L 81.571083 147.743961 
L 83.480816 167.414814 
L 85.390548 202.924502 
L 73.932152 203.485507 
L 75.841885 203.485507 
L 85.390548 203.485507 
L 87.300281 213.751459 
L 89.210013 235.380804 
L 91.119746 255.089026 
L 93.029479 177.951635 
L 94.939211 234.261188 
L 96.848944 242.665646 
L 98.758676 244.246253 
L 100.668409 233.186855 
L 102.578142 234.01953 
L 104.487874 228.306711 
L 106.397607 242.632728 
L 108.30734 258.241949 
L 110.217072 218.779021 
L 112.126805 196.221145 
L 114.036537 155.170123 
L 115.94627 188.587109 
L 117.856003 166.549005 
L 119.765735 225.090323 
L 121.675468 182.097554 
L 123.585201 222.578799 
L 125.494933 211.702952 
L 127.404666 244.641749 
L 129.314398 215.749503 
L 131.224131 231.390981 
L 133.133864 99.500989 
L 135.043596 173.221782 
L 136.953329 178.369357 
L 138.863061 208.496101 
L 140.772794 191.755816 
L 142.682527 195.19815 
L 144.592259 189.980398 
L 146.501992 257.478647 
L 148.411725 249.283993 
L 150.321457 164.343531 
L 152.23119 192.886679 
L 154.140922 210.058887 
L 156.050655 210.130432 
L 157.960388 202.336034 
L 159.87012 202.338195 
L 161.779853 177.570736 
L 163.689586 217.104907 
L 165.599318 221.435178 
L 167.509051 182.441573 
L 169.418783 180.580175 
L 171.328516 197.957641 
L 173.238249 130.058376 
L 175.147981 117.661469 
L 177.057714 186.786379 
L 178.967447 170.33154 
L 180.877179 199.339318 
L 182.786912 199.36729 
L 184.696644 182.83858 
L 186.606377 187.011442 
L 188.51611 220.053339 
L 190.425842 187.811992 
L 192.335575 190.713443 
L 194.245307 186.027555 
L 196.15504 164.072866 
L 198.064773 219.833001 
L 199.974505 234.615348 
L 201.884238 228.990571 
L 203.793971 254.970143 
L 205.703703 234.259697 
L 207.613436 240.185174 
L 209.523168 257.538029 
L 211.432901 243.305776 
L 213.342634 247.76608 
L 215.252366 228.008753 
L 217.162099 30.975437 
L 219.071832 139.05485 
L 220.981564 134.576213 
L 222.891297 150.865065 
L 224.801029 140.117768 
L 226.710762 157.212876 
L 228.620495 155.348274 
L 230.530227 219.597731 
L 232.43996 208.727196 
L 234.349693 224.869401 
L 236.259425 196.123822 
L 238.169158 194.548969 
L 240.07889 175.537932 
L 241.988623 222.36709 
L 243.898356 207.300044 
L 245.808088 234.687017 
L 247.717821 201.826905 
L 249.627553 213.042625 
L 251.537286 228.693374 
L 253.447019 245.878005 
L 255.356751 224.721044 
L 257.266484 232.065687 
L 259.176217 214.557267 
L 261.085949 220.551233 
L 262.995682 247.065516 
L 264.905414 228.683818 
L 266.815147 232.827425 
L 268.72488 226.698225 
L 270.634612 237.62096 
L 272.544345 232.715103 
L 274.454078 239.022386 
L 276.36381 233.460845 
L 278.273543 258.550637 
L 280.183275 233.831019 
L 282.093008 241.843884 
L 284.002741 241.042411 
L 285.912473 188.051594 
L 287.822206 210.499396 
L 289.731939 272.895437 
L 291.641671 211.843552 
L 293.551404 227.496268 
L 295.461136 203.485507 
L 297.370869 173.595768 
L 299.280602 209.18892 
L 301.190334 160.261097 
L 303.100067 108.328625 
L 305.009799 97.578952 
L 306.919532 129.275398 
L 308.829265 158.523115 
L 310.738997 144.469418 
L 312.64873 192.845645 
L 314.558463 189.387053 
L 316.468195 128.957579 
L 318.377928 126.086546 
L 322.197393 131.477171 
L 324.107126 106.927082 
L 326.016858 127.338125 
L 327.926591 100.986262 
L 329.836324 72.4685 
L 331.746056 104.040335 
L 333.655789 109.019272 
L 335.565521 97.065923 
L 337.475254 104.016235 
L 339.384987 96.357928 
L 341.294719 167.550364 
L 343.204452 95.715007 
L 345.114184 142.895225 
L 347.023917 136.948484 
L 348.93365 154.611992 
L 350.843382 181.699085 
L 352.753115 172.213917 
L 354.662848 188.365733 
L 356.57258 213.374488 
L 358.482313 153.393738 
L 360.392045 163.483704 
L 362.301778 188.30806 
L 364.211511 170.060811 
L 366.121243 182.650783 
L 368.030976 184.166255 
L 369.940709 163.35185 
L 371.850441 179.538248 
L 373.760174 193.578036 
L 375.669906 186.601857 
L 377.579639 174.166788 
L 379.489372 183.445376 
L 381.399104 196.817109 
L 383.308837 190.633767 
L 385.21857 180.066955 
L 389.038035 173.342573 
L 390.947767 191.688597 
L 390.947767 191.688597 
" clip-path="url(#pfcb30b1b9d)" style="fill: none; stroke: #1f77b4; stroke-width: 1.5; stroke-linecap: square"/>
   </g>
   <g id="line2d_19">
    <path d="M 51.015361 249.440523 
L 52.925094 245.101843 
L 54.834826 227.793952 
L 56.744559 231.854536 
L 58.654291 231.959812 
L 60.564024 209.294578 
L 62.473757 200.784827 
L 64.383489 203.485507 
L 66.293222 189.74988 
L 68.202955 171.178946 
L 70.112687 153.880914 
L 72.02242 106.738812 
L 73.932152 119.418095 
L 75.841885 115.985145 
L 77.751618 59.175891 
L 79.66135 124.943474 
L 81.571083 163.892844 
L 83.480816 157.867571 
L 85.390548 186.296888 
L 73.932152 203.205326 
L 75.841885 203.485507 
L 85.390548 203.485507 
L 87.300281 208.731189 
L 89.210013 225.146829 
L 91.119746 245.841644 
L 93.029479 223.569263 
L 94.939211 209.471797 
L 96.848944 238.56485 
L 98.758676 243.459753 
L 100.668409 238.892782 
L 102.578142 233.604135 
L 104.487874 231.206347 
L 106.397607 235.754932 
L 108.30734 250.843853 
L 110.217072 240.776221 
L 114.036537 177.107878 
L 115.94627 172.789602 
L 117.856003 177.97885 
L 119.765735 199.164645 
L 121.675468 205.503234 
L 123.585201 204.011918 
L 125.494933 217.277334 
L 127.404666 229.575031 
L 129.314398 231.296146 
L 131.224131 223.870536 
L 133.133864 179.656724 
L 135.043596 139.986754 
L 136.953329 175.817687 
L 138.863061 194.294196 
L 140.772794 200.405536 
L 142.682527 193.488198 
L 144.592259 192.614869 
L 146.501992 229.484784 
L 148.411725 253.497709 
L 150.321457 214.668367 
L 152.23119 179.309787 
L 154.140922 201.770193 
L 156.050655 210.094665 
L 159.87012 202.337115 
L 161.779853 190.521099 
L 163.689586 198.870653 
L 165.599318 219.292097 
L 167.509051 203.485507 
L 169.418783 181.513881 
L 171.328516 189.546148 
L 173.238249 167.615481 
L 175.147981 123.955187 
L 177.057714 155.704666 
L 178.967447 178.789377 
L 180.877179 185.58485 
L 182.786912 199.353305 
L 184.696644 191.357158 
L 186.606377 184.940489 
L 188.51611 204.65592 
L 190.425842 205.005725 
L 192.335575 189.270438 
L 194.245307 188.390507 
L 196.15504 175.451056 
L 198.064773 194.894196 
L 199.974505 227.502336 
L 201.884238 231.84515 
L 203.793971 242.995947 
L 205.703703 245.280016 
L 207.613436 237.272132 
L 209.523168 249.353935 
L 211.432901 250.759634 
L 213.342634 245.567009 
L 215.252366 238.44574 
L 217.162099 156.039761 
L 219.071832 91.163877 
L 220.981564 136.828816 
L 222.891297 142.902122 
L 224.801029 145.571615 
L 226.710762 148.871951 
L 228.620495 156.283142 
L 230.530227 191.261737 
L 232.43996 214.29514 
L 234.349693 217.098185 
L 236.259425 211.397804 
L 238.169158 195.338776 
L 240.07889 185.365328 
L 241.988623 201.136468 
L 243.898356 215.090144 
L 245.808088 221.894019 
L 247.717821 219.522288 
L 249.627553 207.567953 
L 251.537286 221.160869 
L 253.447019 237.704856 
L 255.356751 235.921562 
L 257.266484 228.462786 
L 259.176217 223.686919 
L 261.085949 217.595839 
L 262.995682 234.77118 
L 264.905414 238.35767 
L 266.815147 230.778262 
L 268.72488 229.811856 
L 270.634612 232.319399 
L 272.544345 235.20132 
L 274.454078 235.924204 
L 276.36381 236.284913 
L 278.273543 247.001064 
L 280.183275 247.159099 
L 282.093008 237.928989 
L 284.002741 241.444102 
L 285.912473 217.75517 
L 287.822206 199.775261 
L 289.731939 247.716433 
L 291.641671 248.17246 
L 293.551404 219.959529 
L 295.461136 216.147566 
L 297.370869 189.358101 
L 299.280602 192.577886 
L 301.190334 186.866044 
L 303.100067 136.065648 
L 305.009799 103.018686 
L 306.919532 114.020004 
L 308.829265 144.488829 
L 310.738997 151.638159 
L 312.64873 170.53316 
L 314.558463 191.127471 
L 316.468195 161.93869 
L 318.377928 127.527265 
L 320.28766 127.427011 
L 322.197393 130.122547 
L 324.107126 119.567536 
L 326.016858 117.382607 
L 327.926591 114.573205 
L 329.836324 87.153405 
L 331.746056 88.78005 
L 333.655789 106.543952 
L 335.565521 103.122877 
L 337.475254 100.567915 
L 339.384987 100.219613 
L 341.294719 135.254618 
L 343.204452 134.987898 
L 345.114184 120.658597 
L 347.023917 139.945668 
L 348.93365 145.997301 
L 350.843382 168.739283 
L 352.753115 177.032198 
L 354.662848 180.514477 
L 356.57258 201.498686 
L 358.482313 186.583158 
L 360.392045 158.514886 
L 362.301778 176.411462 
L 364.211511 179.469051 
L 366.121243 176.48865 
L 368.030976 183.410539 
L 369.940709 174.116221 
L 371.850441 171.657699 
L 373.760174 186.735515 
L 375.669906 190.13486 
L 377.579639 180.517525 
L 379.489372 178.87943 
L 381.399104 190.296377 
L 383.308837 193.761695 
L 385.21857 185.449941 
L 387.128302 178.383901 
L 389.038035 175.021231 
L 390.947767 182.810006 
L 390.947767 182.810006 
" clip-path="url(#pfcb30b1b9d)" style="fill: none; stroke: #ff7f0e; stroke-width: 1.5; stroke-linecap: square"/>
   </g>
   <g id="line2d_20">
    <path d="M 52.925094 245.660072 
L 54.834826 236.648844 
L 56.744559 233.784703 
L 58.654291 227.213101 
L 60.564024 222.544916 
L 62.473757 206.526416 
L 64.383489 202.589876 
L 66.293222 193.534683 
L 68.202955 183.835968 
L 70.112687 159.835956 
L 72.02242 130.778217 
L 73.932152 124.60428 
L 75.841885 103.077334 
L 77.751618 96.448787 
L 79.66135 107.070891 
L 81.571083 132.851244 
L 83.480816 165.075464 
L 85.390548 174.477424 
L 73.932152 192.279777 
L 75.841885 203.298791 
L 77.751618 203.485507 
L 85.390548 203.485507 
L 87.300281 207.008165 
L 89.210013 218.391101 
L 91.119746 236.325957 
L 93.029479 227.669035 
L 94.939211 227.26558 
L 96.848944 221.7991 
L 98.758676 240.501441 
L 100.668409 240.169107 
L 102.578142 237.297894 
L 104.487874 231.87119 
L 106.397607 235.180151 
L 108.30734 243.981116 
L 110.217072 241.399629 
L 112.126805 227.959611 
L 114.036537 192.548583 
L 115.94627 181.037384 
L 117.856003 170.737102 
L 119.765735 195.732822 
L 121.675468 193.714042 
L 123.585201 211.488519 
L 125.494933 206.631654 
L 127.404666 227.297426 
L 129.314398 225.171621 
L 131.224131 231.327768 
L 133.133864 192.843579 
L 135.043596 177.542526 
L 136.953329 153.780902 
L 138.863061 187.615615 
L 140.772794 193.453465 
L 142.682527 198.693274 
L 144.592259 192.329133 
L 146.501992 219.196872 
L 148.411725 236.598198 
L 150.321457 231.311316 
L 152.23119 207.837252 
L 154.140922 190.375655 
L 156.050655 204.622139 
L 157.960388 207.564311 
L 159.87012 204.991662 
L 161.779853 194.580199 
L 163.689586 200.037209 
L 165.599318 206.888938 
L 167.509051 208.205448 
L 169.418783 196.28363 
L 171.328516 187.218034 
L 173.238249 172.060995 
L 175.147981 152.46407 
L 177.057714 147.55334 
L 178.967447 160.727349 
L 180.877179 185.986511 
L 182.786912 190.338614 
L 184.696644 194.072445 
L 186.606377 189.923946 
L 188.51611 197.781723 
L 190.425842 199.283535 
L 192.335575 200.418401 
L 194.245307 188.197939 
L 196.15504 180.721394 
L 198.064773 192.003089 
L 201.884238 228.000946 
L 203.793971 240.291938 
L 205.703703 240.180931 
L 207.613436 243.616446 
L 209.523168 244.622379 
L 211.432901 247.388983 
L 213.342634 249.774806 
L 215.252366 240.096848 
L 220.981564 106.633104 
L 222.891297 141.628598 
L 224.801029 141.97868 
L 226.710762 149.538836 
L 228.620495 151.057652 
L 230.530227 180.755463 
L 232.43996 197.355914 
L 234.349693 217.937851 
L 236.259425 210.514454 
L 238.169158 206.037179 
L 240.07889 189.047349 
L 241.988623 198.978286 
L 243.898356 203.225884 
L 245.808088 222.05195 
L 247.717821 215.595424 
L 249.627553 217.40496 
L 251.537286 215.077569 
L 253.447019 230.152027 
L 255.356751 233.574174 
L 257.266484 234.654271 
L 259.176217 224.032801 
L 261.085949 222.652235 
L 262.995682 228.47932 
L 264.905414 232.785793 
L 266.815147 236.551906 
L 268.72488 229.437311 
L 270.634612 232.489049 
L 272.544345 232.451487 
L 274.454078 236.493396 
L 276.36381 235.110494 
L 278.273543 244.426782 
L 280.183275 242.835797 
L 282.093008 245.425956 
L 284.002741 238.979335 
L 285.912473 226.4703 
L 287.822206 215.388897 
L 289.731939 231.459566 
L 291.641671 237.233787 
L 293.551404 241.816679 
L 295.461136 214.731306 
L 297.370869 203.485507 
L 299.280602 196.317961 
L 301.190334 182.576644 
L 303.100067 164.490777 
L 305.009799 124.018835 
L 306.919532 112.139642 
L 308.829265 130.036426 
L 310.738997 144.482359 
L 312.64873 166.62896 
L 314.558463 177.09131 
L 316.468195 172.967725 
L 320.28766 127.938519 
L 322.197393 128.786369 
L 324.107126 122.677908 
L 326.016858 122.191002 
L 329.836324 101.380426 
L 331.746056 92.920777 
L 333.655789 95.728361 
L 335.565521 103.429118 
L 337.475254 103.421062 
L 339.384987 99.173249 
L 341.294719 125.364693 
L 343.204452 122.894854 
L 345.114184 137.660993 
L 347.023917 126.239168 
L 348.93365 144.969174 
L 350.843382 158.787274 
L 356.57258 192.417977 
L 358.482313 187.179908 
L 360.392045 179.274438 
L 362.301778 169.102872 
L 364.211511 174.323932 
L 366.121243 180.537422 
L 368.030976 179.093089 
L 369.940709 177.016254 
L 371.850441 175.945572 
L 373.760174 179.341741 
L 375.669906 186.690977 
L 377.579639 185.008657 
L 379.489372 181.500116 
L 381.399104 185.120434 
L 383.308837 190.408934 
L 385.21857 189.34635 
L 387.128302 182.586025 
L 389.038035 176.722288 
L 390.947767 180.795687 
L 390.947767 180.795687 
" clip-path="url(#pfcb30b1b9d)" style="fill: none; stroke: #2ca02c; stroke-width: 1.5; stroke-linecap: square"/>
   </g>
   <g id="line2d_21">
    <path d="M 54.834826 239.293547 
L 56.744559 238.730459 
L 60.564024 221.182293 
L 62.473757 217.490668 
L 66.293222 195.384229 
L 68.202955 188.279304 
L 70.112687 172.865016 
L 72.02242 141.761611 
L 73.932152 137.437023 
L 75.841885 111.411876 
L 77.751618 91.224921 
L 79.66135 120.513227 
L 81.571083 118.037552 
L 83.480816 142.14279 
L 85.390548 175.512435 
L 73.932152 182.319106 
L 75.841885 195.174134 
L 77.751618 203.345497 
L 79.66135 203.485507 
L 85.390548 203.485507 
L 87.300281 206.137147 
L 89.210013 214.844656 
L 91.119746 229.054031 
L 93.029479 224.36112 
L 94.939211 229.360406 
L 96.848944 231.364991 
L 98.758676 227.933819 
L 100.668409 238.728971 
L 102.578142 238.67157 
L 104.487874 235.131195 
L 106.397607 234.685896 
L 108.30734 241.597259 
L 110.217072 238.301688 
L 112.126805 231.854947 
L 114.036537 213.371163 
L 115.94627 191.569087 
L 117.856003 177.544004 
L 119.765735 186.601484 
L 121.675468 192.450586 
L 123.585201 201.611975 
L 125.494933 211.542165 
L 127.404666 217.547087 
L 129.314398 224.529601 
L 131.224131 226.763947 
L 133.133864 208.285078 
L 135.043596 188.188793 
L 136.953329 177.749668 
L 138.863061 169.484944 
L 140.772794 188.662523 
L 142.682527 193.891814 
L 144.592259 196.569006 
L 146.501992 212.915302 
L 148.411725 227.680818 
L 150.321457 222.342086 
L 152.23119 222.899733 
L 154.140922 208.396635 
L 156.050655 195.610662 
L 157.960388 204.05462 
L 159.87012 206.278938 
L 161.779853 198.653895 
L 163.689586 200.615905 
L 165.599318 205.767256 
L 167.509051 201.199485 
L 169.418783 201.836598 
L 171.328516 196.704181 
L 173.238249 174.724675 
L 175.147981 159.966976 
L 177.057714 161.768305 
L 178.967447 153.543531 
L 182.786912 189.459172 
L 184.696644 188.501388 
L 186.606377 192.341668 
L 188.51611 198.179973 
L 190.425842 195.359065 
L 192.335575 197.193477 
L 194.245307 196.966186 
L 196.15504 182.527548 
L 198.064773 191.681838 
L 199.974505 204.236736 
L 201.884238 214.901393 
L 203.793971 235.582011 
L 205.703703 238.82231 
L 207.613436 240.181992 
L 209.523168 247.343495 
L 211.432901 244.295217 
L 213.342634 247.483428 
L 215.252366 244.837149 
L 217.162099 209.11071 
L 219.071832 182.66403 
L 220.981564 146.692016 
L 222.891297 118.643834 
L 224.801029 141.252048 
L 226.710762 145.911833 
L 228.620495 151.009525 
L 230.530227 171.518125 
L 234.349693 204.869346 
L 236.259425 212.855782 
L 238.169158 206.715435 
L 240.07889 199.049399 
L 241.988623 198.270626 
L 243.898356 201.112075 
L 245.808088 211.98849 
L 247.717821 217.328901 
L 249.627553 214.962706 
L 251.537286 220.344768 
L 253.447019 223.745418 
L 255.356751 228.822338 
L 257.266484 233.199349 
L 259.176217 229.999841 
L 261.085949 223.173383 
L 262.995682 229.388607 
L 264.905414 228.530485 
L 266.815147 232.796203 
L 268.72488 234.184613 
L 270.634612 231.551988 
L 272.544345 232.545614 
L 276.36381 235.74475 
L 278.273543 241.645205 
L 280.183275 241.898495 
L 282.093008 242.588926 
L 284.002741 244.351858 
L 285.912473 228.364081 
L 287.822206 222.698453 
L 289.731939 233.952613 
L 291.641671 226.898084 
L 293.551404 234.89403 
L 295.461136 233.542827 
L 297.370869 205.630915 
L 299.280602 204.937045 
L 301.190334 188.117721 
L 303.100067 166.816933 
L 305.009799 149.875228 
L 306.919532 125.346028 
L 308.829265 124.821819 
L 310.738997 133.749087 
L 312.64873 158.016299 
L 314.558463 172.652336 
L 316.468195 166.293887 
L 318.377928 162.397371 
L 322.197393 128.829186 
L 324.107126 123.53549 
L 326.016858 123.853134 
L 327.926591 117.085326 
L 329.836324 102.780145 
L 331.746056 102.048383 
L 333.655789 97.054266 
L 335.565521 96.063484 
L 337.475254 103.576043 
L 339.384987 101.675951 
L 341.294719 118.636813 
L 343.204452 118.331643 
L 347.023917 137.483118 
L 348.93365 133.745899 
L 350.843382 154.948825 
L 352.753115 162.250314 
L 354.662848 174.741755 
L 356.57258 189.815554 
L 358.482313 183.581238 
L 360.392045 181.602237 
L 362.301778 181.58711 
L 364.211511 169.342909 
L 366.121243 176.450061 
L 368.030976 181.45327 
L 369.940709 175.307118 
L 371.850441 177.650807 
L 373.760174 180.563087 
L 375.669906 181.191579 
L 377.579639 183.660574 
L 383.308837 186.519536 
L 385.21857 187.894484 
L 387.128302 186.284874 
L 389.038035 180.329164 
L 390.947767 180.613847 
L 390.947767 180.613847 
" clip-path="url(#pfcb30b1b9d)" style="fill: none; stroke: #d62728; stroke-width: 1.5; stroke-linecap: square"/>
   </g>
   <g id="line2d_22">
    <path d="M 56.744559 240.400362 
L 58.654291 234.802099 
L 60.564024 224.677528 
L 62.473757 217.389787 
L 64.383489 215.306986 
L 66.293222 200.079985 
L 68.202955 190.875575 
L 70.112687 178.91026 
L 72.02242 156.942801 
L 73.932152 144.718612 
L 75.841885 124.990602 
L 77.751618 100.621623 
L 79.66135 112.096124 
L 81.571083 126.274115 
L 83.480816 129.014427 
L 85.390548 156.330793 
L 73.932152 181.578017 
L 75.841885 186.827374 
L 77.751618 196.88049 
L 79.66135 203.373512 
L 81.571083 203.485507 
L 85.390548 203.485507 
L 87.300281 205.611467 
L 89.210013 212.660703 
L 91.119746 224.40943 
L 93.029479 220.493188 
L 96.848944 232.182211 
L 98.758676 234.094964 
L 100.668409 229.007797 
L 102.578142 237.806876 
L 104.487874 236.690974 
L 106.397607 236.683916 
L 108.30734 239.978788 
L 110.217072 237.461589 
L 112.126805 231.155811 
L 115.94627 208.802 
L 117.856003 186.901751 
L 119.765735 188.581017 
L 121.675468 185.712154 
L 123.585201 199.110064 
L 125.494933 203.699298 
L 127.404666 219.099734 
L 129.314398 217.18994 
L 131.224131 225.94075 
L 133.133864 208.976764 
L 135.043596 201.986342 
L 136.953329 186.278764 
L 138.863061 184.485527 
L 140.772794 174.217557 
L 142.682527 189.995349 
L 144.592259 193.118664 
L 146.501992 212.045014 
L 148.411725 221.365159 
L 150.321457 217.408095 
L 152.23119 217.027254 
L 154.140922 220.451184 
L 157.960388 196.984478 
L 159.87012 203.713259 
L 161.779853 201.021611 
L 163.689586 202.579571 
L 165.599318 205.088742 
L 167.509051 201.428065 
L 169.418783 197.324719 
L 171.328516 201.070357 
L 173.238249 185.500259 
L 175.147981 164.727896 
L 177.057714 165.716487 
L 178.967447 163.517934 
L 180.877179 163.870382 
L 182.786912 177.42458 
L 184.696644 188.160091 
L 186.606377 188.204687 
L 188.51611 198.412691 
L 190.425842 196.170768 
L 192.335575 194.442924 
L 194.245307 195.03417 
L 196.15504 190.972833 
L 198.064773 190.916666 
L 199.974505 201.645182 
L 201.884238 209.649386 
L 203.793971 224.416809 
L 205.703703 235.31909 
L 207.613436 239.096612 
L 209.523168 243.975686 
L 211.432901 246.552127 
L 213.342634 245.001562 
L 215.252366 243.927488 
L 220.981564 174.128825 
L 222.891297 147.534525 
L 224.801029 123.128885 
L 226.710762 144.560907 
L 228.620495 147.840072 
L 230.530227 167.592735 
L 232.43996 179.804818 
L 234.349693 196.562866 
L 238.169158 209.411471 
L 240.07889 201.047058 
L 241.988623 204.100494 
L 243.898356 200.130046 
L 245.808088 208.696983 
L 247.717821 210.025232 
L 249.627553 216.484912 
L 251.537286 217.856346 
L 253.447019 226.034368 
L 255.356751 223.941296 
L 257.266484 229.479886 
L 259.176217 229.739965 
L 261.085949 228.18071 
L 262.995682 228.472707 
L 264.905414 229.24806 
L 266.815147 229.405513 
L 268.72488 231.607466 
L 270.634612 234.882461 
L 272.544345 231.785771 
L 274.454078 233.878633 
L 276.36381 234.004224 
L 278.273543 240.855365 
L 280.183275 240.137526 
L 282.093008 241.887576 
L 284.002741 242.281904 
L 285.912473 235.331125 
L 287.822206 225.028131 
L 289.731939 235.588241 
L 291.641671 229.904695 
L 293.551404 227.018012 
L 295.461136 229.336656 
L 297.370869 223.831318 
L 299.280602 206.351114 
L 301.190334 197.091109 
L 303.100067 174.940637 
L 305.009799 154.898494 
L 306.919532 145.935926 
L 308.829265 132.4708 
L 310.738997 128.914886 
L 314.558463 164.821225 
L 316.468195 164.769205 
L 318.377928 158.959719 
L 320.28766 156.16435 
L 322.197393 142.785296 
L 324.107126 124.63174 
L 326.016858 124.301808 
L 327.926591 119.474072 
L 329.836324 108.840416 
L 331.746056 103.032755 
L 333.655789 103.460286 
L 335.565521 97.056597 
L 337.475254 97.676551 
L 339.384987 102.150838 
L 341.294719 116.7481 
L 343.204452 114.243049 
L 345.114184 123.495366 
L 347.023917 129.895498 
L 348.93365 141.040979 
L 350.843382 144.470615 
L 352.753115 158.550753 
L 354.662848 167.843638 
L 356.57258 183.40882 
L 358.482313 183.206788 
L 360.392045 179.771721 
L 362.301778 182.969113 
L 364.211511 179.352314 
L 366.121243 172.100109 
L 368.030976 178.026273 
L 369.940709 178.002276 
L 371.850441 176.16304 
L 373.760174 180.983052 
L 375.669906 181.791479 
L 377.579639 179.813194 
L 379.489372 183.617561 
L 381.399104 187.148108 
L 383.308837 186.536004 
L 385.21857 185.25233 
L 387.128302 185.72155 
L 389.038035 183.78759 
L 390.947767 182.67566 
L 390.947767 182.67566 
" clip-path="url(#pfcb30b1b9d)" style="fill: none; stroke: #9467bd; stroke-width: 1.5; stroke-linecap: square"/>
   </g>
   <g id="line2d_23">
    <path d="M 58.654291 236.915144 
L 60.564024 229.856341 
L 62.473757 221.040417 
L 64.383489 215.5885 
L 66.293222 208.938391 
L 70.112687 182.804589 
L 72.02242 165.197508 
L 73.932152 156.799054 
L 75.841885 133.542478 
L 77.751618 114.309696 
L 79.66135 116.020895 
L 81.571083 118.498757 
L 83.480816 133.808053 
L 85.390548 143.873732 
L 73.932152 165.296879 
L 75.841885 185.484897 
L 77.751618 189.75378 
L 79.66135 198.005636 
L 81.571083 203.392185 
L 85.390548 203.485507 
L 87.300281 205.259729 
L 89.210013 211.180853 
L 91.119746 221.189499 
L 93.029479 217.83278 
L 94.939211 222.924212 
L 96.848944 229.336277 
L 98.758676 234.310537 
L 100.668409 233.944235 
L 102.578142 229.861746 
L 104.487874 236.290547 
L 106.397607 237.710037 
L 108.30734 240.705276 
L 110.217072 236.763125 
L 112.126805 231.639244 
L 114.036537 221.392225 
L 115.94627 215.273646 
L 117.856003 202.634097 
L 119.765735 194.150347 
L 121.675468 187.521154 
L 123.585201 192.665762 
L 125.494933 201.301674 
L 127.404666 211.737664 
L 129.314398 218.548546 
L 131.224131 219.697428 
L 133.133864 211.362548 
L 135.043596 203.661534 
L 136.953329 198.331339 
L 138.863061 190.254844 
L 140.772794 185.724112 
L 142.682527 177.935297 
L 144.592259 189.992857 
L 146.501992 207.021969 
L 148.411725 219.32303 
L 150.321457 213.502715 
L 152.23119 213.661118 
L 154.140922 215.895763 
L 156.050655 218.797484 
L 157.960388 207.70086 
L 159.87012 197.892651 
L 161.779853 199.701282 
L 163.689586 203.858939 
L 165.599318 205.944062 
L 167.509051 201.579857 
L 169.418783 198.174244 
L 171.328516 197.430424 
L 173.238249 191.344472 
L 175.147981 175.969845 
L 177.057714 168.633927 
L 178.967447 166.495082 
L 180.877179 170.126402 
L 182.786912 170.413912 
L 184.696644 178.340969 
L 186.606377 187.969313 
L 188.51611 194.11284 
L 190.425842 196.70433 
L 192.335575 195.276798 
L 194.245307 193.076463 
L 196.15504 190.320555 
L 198.064773 196.279199 
L 199.974505 199.440108 
L 201.884238 206.688981 
L 203.793971 218.844767 
L 205.703703 226.12806 
L 207.613436 236.14895 
L 209.523168 242.48537 
L 211.432901 243.864415 
L 213.342634 246.75576 
L 215.252366 242.390389 
L 217.162099 224.459235 
L 219.071832 210.396559 
L 220.981564 188.774788 
L 222.891297 170.478689 
L 224.801029 146.319326 
L 226.710762 129.254707 
L 228.620495 146.405146 
L 230.530227 162.515807 
L 234.349693 188.518689 
L 236.259425 196.489795 
L 238.169158 201.772625 
L 240.07889 204.350324 
L 241.988623 204.884143 
L 243.898356 204.639701 
L 245.808088 206.689654 
L 247.717821 207.579049 
L 249.627553 210.533692 
L 251.537286 218.621602 
L 253.447019 223.131988 
L 255.356751 225.816675 
L 257.266484 225.342805 
L 259.176217 227.13996 
L 261.085949 228.266342 
L 262.995682 231.617517 
L 264.905414 228.507924 
L 266.815147 229.854074 
L 268.72488 228.959503 
L 270.634612 232.637539 
L 272.544345 234.52478 
L 274.454078 233.03259 
L 276.36381 233.809133 
L 278.273543 238.645137 
L 280.183275 239.723156 
L 282.093008 240.424315 
L 284.002741 241.747304 
L 285.912473 235.02207 
L 287.822206 231.600131 
L 289.731939 235.297726 
L 291.641671 232.00671 
L 293.551404 229.507438 
L 295.461136 223.437385 
L 297.370869 221.721767 
L 299.280602 221.525586 
L 301.190334 199.676485 
L 303.100067 185.33716 
L 305.009799 164.16733 
L 306.919532 150.872961 
L 308.829265 148.097805 
L 310.738997 134.524404 
L 312.64873 141.388556 
L 314.558463 155.180629 
L 316.468195 159.3341 
L 318.377928 158.887031 
L 320.28766 154.269009 
L 322.197393 152.279484 
L 324.107126 137.245974 
L 326.016858 125.085357 
L 327.926591 120.59118 
L 329.836324 112.294857 
L 333.655789 104.04188 
L 335.565521 102.407123 
L 337.475254 98.231537 
L 339.384987 97.457308 
L 341.294719 114.68193 
L 343.204452 113.381254 
L 345.114184 119.312948 
L 347.023917 125.802409 
L 348.93365 134.25013 
L 350.843382 148.539013 
L 352.753115 149.420695 
L 354.662848 163.935785 
L 356.57258 176.548393 
L 358.482313 178.796948 
L 360.392045 180.094732 
L 362.301778 181.23045 
L 364.211511 180.894658 
L 366.121243 179.907299 
L 368.030976 174.180371 
L 369.940709 175.676138 
L 371.850441 178.259389 
L 373.760174 179.217468 
L 375.669906 181.935054 
L 377.579639 180.547901 
L 379.489372 180.424941 
L 381.399104 185.907913 
L 383.308837 187.735242 
L 385.21857 185.478158 
L 387.128302 183.858895 
L 389.038035 183.730611 
L 390.947767 185.136087 
L 390.947767 185.136087 
" clip-path="url(#pfcb30b1b9d)" style="fill: none; stroke: #8c564b; stroke-width: 1.5; stroke-linecap: square"/>
   </g>
   <g id="line2d_24">
    <path d="M 60.564024 232.477684 
L 62.473757 226.16085 
L 64.383489 219.029124 
L 66.293222 210.123474 
L 68.202955 204.175587 
L 70.112687 188.322586 
L 72.02242 170.843024 
L 73.932152 163.925463 
L 75.841885 146.134584 
L 77.751618 123.556924 
L 79.66135 124.977138 
L 81.571083 120.877739 
L 83.480816 126.319137 
L 85.390548 145.669655 
L 73.932152 153.907122 
L 77.751618 188.210452 
L 79.66135 191.8062 
L 81.571083 198.803284 
L 83.480816 203.405521 
L 85.390548 203.485507 
L 87.300281 205.007856 
L 89.210013 210.111956 
L 91.119746 218.826981 
L 93.029479 215.891344 
L 94.939211 220.349352 
L 98.758676 231.622996 
L 100.668409 234.150851 
L 102.578142 233.954995 
L 104.487874 229.64113 
L 106.397607 237.225438 
L 108.30734 240.988142 
L 110.217072 237.872896 
L 112.126805 231.861909 
L 114.036537 223.297546 
L 115.94627 217.237348 
L 117.856003 209.355604 
L 119.765735 206.126015 
L 121.675468 192.492593 
L 123.585201 193.179596 
L 125.494933 195.568836 
L 127.404666 208.68699 
L 129.314398 212.319635 
L 131.224131 220.485212 
L 133.133864 207.579301 
L 135.043596 206.563183 
L 136.953329 200.333666 
L 138.863061 199.835777 
L 140.772794 190.470295 
L 142.682527 187.118577 
L 144.592259 179.719424 
L 146.501992 202.696703 
L 148.411725 214.257504 
L 150.321457 212.800812 
L 152.23119 210.766382 
L 154.140922 213.153475 
L 156.050655 215.090119 
L 157.960388 216.587873 
L 159.87012 206.949297 
L 161.779853 195.170031 
L 163.689586 202.348862 
L 165.599318 206.54075 
L 167.509051 202.839094 
L 169.418783 198.777283 
L 171.328516 198.143324 
L 173.238249 189.458213 
L 175.147981 182.686204 
L 177.057714 177.565209 
L 178.967447 168.877575 
L 180.877179 171.664726 
L 182.786912 174.685858 
L 184.696644 172.252988 
L 186.606377 179.612062 
L 188.51611 193.090374 
L 190.425842 193.23068 
L 192.335575 195.865067 
L 194.245307 193.993998 
L 196.15504 189.276209 
L 198.064773 194.994193 
L 199.974505 202.614784 
L 201.884238 204.159583 
L 203.793971 215.217548 
L 205.703703 221.196833 
L 207.613436 228.269747 
L 209.523168 239.573937 
L 211.432901 242.60307 
L 213.342634 244.433553 
L 215.252366 244.316233 
L 217.162099 225.921218 
L 219.071832 215.216848 
L 220.981564 201.766519 
L 226.710762 147.917677 
L 228.620495 133.214037 
L 230.530227 159.35422 
L 232.43996 170.096613 
L 234.349693 183.682749 
L 236.259425 189.631901 
L 238.169158 196.214305 
L 240.07889 198.326376 
L 241.988623 207.105006 
L 243.898356 205.23227 
L 245.808088 209.4751 
L 247.717821 206.006855 
L 249.627553 208.37551 
L 251.537286 213.322819 
L 253.447019 223.023065 
L 255.356751 223.36052 
L 257.266484 226.734334 
L 259.176217 223.868682 
L 261.085949 226.22465 
L 262.995682 231.20525 
L 264.905414 231.203921 
L 266.815147 229.137101 
L 268.72488 229.409483 
L 270.634612 230.247222 
L 274.454078 235.181331 
L 276.36381 233.093891 
L 278.273543 237.836934 
L 280.183275 237.973193 
L 282.093008 240.029375 
L 284.002741 240.51289 
L 285.912473 235.604671 
L 287.822206 231.868232 
L 289.731939 239.05828 
L 291.641671 232.26953 
L 293.551404 231.375291 
L 295.461136 226.16085 
L 297.370869 217.47091 
L 299.280602 220.017598 
L 301.190334 214.411244 
L 303.100067 189.472133 
L 305.009799 175.255129 
L 306.919532 159.590986 
L 308.829265 151.986926 
L 310.738997 147.583949 
L 312.64873 144.211144 
L 314.558463 149.163796 
L 316.468195 151.660351 
L 318.377928 154.947424 
L 320.28766 154.883308 
L 322.197393 151.18473 
L 324.107126 146.427898 
L 326.016858 135.86148 
L 327.926591 121.807832 
L 329.836324 114.321997 
L 331.746056 111.134744 
L 333.655789 108.186752 
L 335.565521 103.058508 
L 337.475254 102.63771 
L 339.384987 97.96482 
L 341.294719 109.112638 
L 343.204452 112.071348 
L 345.114184 117.872939 
L 347.023917 121.929841 
L 348.93365 130.197797 
L 350.843382 141.883986 
L 352.753115 152.132757 
L 354.662848 155.597394 
L 356.57258 172.150014 
L 358.482313 173.44178 
L 360.392045 176.701282 
L 362.301778 181.297492 
L 364.211511 179.685308 
L 366.121243 181.146849 
L 368.030976 180.523487 
L 369.940709 172.678864 
L 371.850441 176.23406 
L 373.760174 180.552088 
L 375.669906 180.295933 
L 377.579639 180.850197 
L 379.489372 180.965415 
L 381.399104 182.888656 
L 383.308837 186.593036 
L 385.21857 186.665029 
L 387.128302 184.254037 
L 389.038035 182.402262 
L 390.947767 184.895794 
L 390.947767 184.895794 
" clip-path="url(#pfcb30b1b9d)" style="fill: none; stroke: #e377c2; stroke-width: 1.5; stroke-linecap: square"/>
   </g>
   <g id="patch_3">
    <path d="M 35.7375 284.991437 
L 35.7375 18.879437 
" style="fill: none; stroke: #000000; stroke-width: 0.8; stroke-linejoin: miter; stroke-linecap: square"/>
   </g>
   <g id="patch_4">
    <path d="M 392.8575 284.991437 
L 392.8575 18.879437 
" style="fill: none; stroke: #000000; stroke-width: 0.8; stroke-linejoin: miter; stroke-linecap: square"/>
   </g>
   <g id="patch_5">
    <path d="M 35.7375 284.991437 
L 392.8575 284.991437 
" style="fill: none; stroke: #000000; stroke-width: 0.8; stroke-linejoin: miter; stroke-linecap: square"/>
   </g>
   <g id="patch_6">
    <path d="M 35.7375 18.879437 
L 392.8575 18.879437 
" style="fill: none; stroke: #000000; stroke-width: 0.8; stroke-linejoin: miter; stroke-linecap: square"/>
   </g>
   <g id="legend_1">
    <g id="patch_7">
     <path d="M 347.559063 127.613812 
L 385.8575 127.613812 
Q 387.8575 127.613812 387.8575 125.613812 
L 387.8575 25.879437 
Q 387.8575 23.879437 385.8575 23.879437 
L 347.559063 23.879437 
Q 345.559063 23.879437 345.559063 25.879437 
L 345.559063 125.613812 
Q 345.559063 127.613812 347.559063 127.613812 
z
" style="fill: #ffffff; opacity: 0.8; stroke: #cccccc; stroke-linejoin: miter"/>
    </g>
    <g id="line2d_25">
     <path d="M 349.559063 31.870062 
L 359.559063 31.870062 
L 369.559063 31.870062 
" style="fill: none; stroke: #1f77b4; stroke-width: 1.5; stroke-linecap: square"/>
    </g>
    <g id="text_18">
     <!-- 1 -->
     <g transform="translate(377.559063 35.370062)scale(0.1 -0.1)">
      <use xlink:href="#IPAexGothic-31"/>
     </g>
    </g>
    <g id="line2d_26">
     <path d="M 349.559063 46.260687 
L 359.559063 46.260687 
L 369.559063 46.260687 
" style="fill: none; stroke: #ff7f0e; stroke-width: 1.5; stroke-linecap: square"/>
    </g>
    <g id="text_19">
     <!-- 2 -->
     <g transform="translate(377.559063 49.760687)scale(0.1 -0.1)">
      <use xlink:href="#IPAexGothic-32"/>
     </g>
    </g>
    <g id="line2d_27">
     <path d="M 349.559063 60.651312 
L 359.559063 60.651312 
L 369.559063 60.651312 
" style="fill: none; stroke: #2ca02c; stroke-width: 1.5; stroke-linecap: square"/>
    </g>
    <g id="text_20">
     <!-- 3 -->
     <g transform="translate(377.559063 64.151312)scale(0.1 -0.1)">
      <defs>
       <path id="IPAexGothic-33" d="M 2381 2419 
Q 3506 2216 3506 1278 
Q 3506 716 3128 356 
Q 2709 -31 1944 -31 
Q 797 -31 288 881 
L 756 1131 
Q 1109 441 1938 441 
Q 2425 441 2694 691 
Q 2950 928 2950 1291 
Q 2950 1719 2566 1978 
Q 2216 2213 1644 2213 
L 1363 2213 
L 1363 2669 
L 1656 2669 
Q 2231 2669 2534 2888 
Q 2859 3119 2859 3509 
Q 2859 3934 2494 4138 
Q 2259 4278 1931 4278 
Q 1238 4278 903 3578 
L 434 3803 
Q 897 4725 1938 4725 
Q 2597 4725 3006 4394 
Q 3416 4069 3416 3534 
Q 3416 3028 3019 2706 
Q 2763 2500 2381 2444 
L 2381 2419 
z
" transform="scale(0.015625)"/>
      </defs>
      <use xlink:href="#IPAexGothic-33"/>
     </g>
    </g>
    <g id="line2d_28">
     <path d="M 349.559063 75.041937 
L 359.559063 75.041937 
L 369.559063 75.041937 
" style="fill: none; stroke: #d62728; stroke-width: 1.5; stroke-linecap: square"/>
    </g>
    <g id="text_21">
     <!-- 4 -->
     <g transform="translate(377.559063 78.541937)scale(0.1 -0.1)">
      <defs>
       <path id="IPAexGothic-34" d="M 3813 1159 
L 3059 1159 
L 3059 63 
L 2547 63 
L 2547 1159 
L 197 1159 
L 197 1672 
L 2456 4678 
L 3059 4678 
L 3059 1634 
L 3813 1634 
L 3813 1159 
z
M 2578 4109 
L 2559 4109 
Q 2278 3656 2003 3284 
L 759 1634 
L 2547 1634 
L 2547 3144 
Q 2547 3481 2578 4109 
z
" transform="scale(0.015625)"/>
      </defs>
      <use xlink:href="#IPAexGothic-34"/>
     </g>
    </g>
    <g id="line2d_29">
     <path d="M 349.559063 89.432562 
L 359.559063 89.432562 
L 369.559063 89.432562 
" style="fill: none; stroke: #9467bd; stroke-width: 1.5; stroke-linecap: square"/>
    </g>
    <g id="text_22">
     <!-- 5 -->
     <g transform="translate(377.559063 92.932562)scale(0.1 -0.1)">
      <use xlink:href="#IPAexGothic-35"/>
     </g>
    </g>
    <g id="line2d_30">
     <path d="M 349.559063 103.823187 
L 359.559063 103.823187 
L 369.559063 103.823187 
" style="fill: none; stroke: #8c564b; stroke-width: 1.5; stroke-linecap: square"/>
    </g>
    <g id="text_23">
     <!-- 6 -->
     <g transform="translate(377.559063 107.323187)scale(0.1 -0.1)">
      <defs>
       <path id="IPAexGothic-36" d="M 1056 2328 
Q 1509 2981 2234 2981 
Q 2906 2981 3316 2513 
Q 3675 2106 3675 1522 
Q 3675 884 3272 434 
Q 2853 -31 2178 -31 
Q 1375 -31 922 581 
Q 481 1178 481 2228 
Q 481 3425 1013 4109 
Q 1494 4725 2272 4725 
Q 3191 4725 3609 4025 
L 3150 3775 
Q 2894 4266 2300 4266 
Q 1119 4266 1031 2328 
L 1056 2328 
z
M 2141 2547 
Q 1684 2547 1384 2206 
Q 1116 1900 1116 1541 
Q 1116 1156 1353 844 
Q 1672 428 2159 428 
Q 2669 428 2941 844 
Q 3125 1128 3125 1503 
Q 3125 1944 2881 2228 
Q 2600 2547 2141 2547 
z
" transform="scale(0.015625)"/>
      </defs>
      <use xlink:href="#IPAexGothic-36"/>
     </g>
    </g>
    <g id="line2d_31">
     <path d="M 349.559063 118.213812 
L 359.559063 118.213812 
L 369.559063 118.213812 
" style="fill: none; stroke: #e377c2; stroke-width: 1.5; stroke-linecap: square"/>
    </g>
    <g id="text_24">
     <!-- 7 -->
     <g transform="translate(377.559063 121.713812)scale(0.1 -0.1)">
      <use xlink:href="#IPAexGothic-37"/>
     </g>
    </g>
   </g>
  </g>
  <g id="axes_2">
   <g id="matplotlib.axis_3"/>
   <g id="patch_8">
    <path d="M 35.7375 284.991437 
L 35.7375 18.879437 
" style="fill: none; stroke: #000000; stroke-width: 0.8; stroke-linejoin: miter; stroke-linecap: square"/>
   </g>
   <g id="patch_9">
    <path d="M 392.8575 284.991437 
L 392.8575 18.879437 
" style="fill: none; stroke: #000000; stroke-width: 0.8; stroke-linejoin: miter; stroke-linecap: square"/>
   </g>
   <g id="patch_10">
    <path d="M 35.7375 284.991437 
L 392.8575 284.991437 
" style="fill: none; stroke: #000000; stroke-width: 0.8; stroke-linejoin: miter; stroke-linecap: square"/>
   </g>
   <g id="patch_11">
    <path d="M 35.7375 18.879437 
L 392.8575 18.879437 
" style="fill: none; stroke: #000000; stroke-width: 0.8; stroke-linejoin: miter; stroke-linecap: square"/>
   </g>
  </g>
  <g id="text_25">
   <!-- : 2022/08/06 12:14:17(JST) -->
   <g transform="translate(217.385625 15.423437)scale(0.1 -0.1)">
    <defs>
     <path id="IPAexGothic-66f4" d="M 2956 3994 
L 2956 4588 
L 513 4588 
L 513 4984 
L 5881 4984 
L 5881 4588 
L 3413 4588 
L 3413 3994 
L 5300 3994 
L 5300 1288 
L 4838 1288 
L 4838 1759 
L 3406 1759 
Q 3384 1125 3150 709 
Q 4291 244 5997 31 
L 5694 -428 
Q 4109 -166 2906 384 
Q 2294 -266 744 -488 
L 494 -66 
Q 1903 59 2491 588 
Q 2041 813 1594 1166 
L 1928 1434 
Q 2331 1106 2747 897 
Q 2922 1219 2950 1759 
L 1556 1759 
L 1556 1413 
L 1097 1413 
L 1097 3994 
L 2956 3994 
z
M 2956 3609 
L 1556 3609 
L 1556 3078 
L 2956 3078 
L 2956 3609 
z
M 3413 3609 
L 3413 3078 
L 4838 3078 
L 4838 3609 
L 3413 3609 
z
M 2956 2700 
L 1556 2700 
L 1556 2144 
L 2956 2144 
L 2956 2700 
z
M 3413 2700 
L 3413 2144 
L 4838 2144 
L 4838 2700 
L 3413 2700 
z
" transform="scale(0.015625)"/>
     <path id="IPAexGothic-65b0" d="M 3891 2803 
Q 3881 1759 3794 1166 
Q 3653 197 3097 -563 
L 2741 -250 
Q 3450 700 3450 2631 
L 3450 4647 
Q 3516 4656 3622 4666 
Q 4656 4778 5447 5063 
L 5825 4678 
Q 4897 4419 3891 4294 
L 3891 3219 
L 6119 3219 
L 6119 2803 
L 5275 2803 
L 5275 -447 
L 4834 -447 
L 4834 2803 
L 3891 2803 
z
M 2822 4069 
Q 2678 3572 2519 3181 
L 3250 3181 
L 3250 2784 
L 2059 2784 
L 2059 2216 
L 3184 2216 
L 3184 1831 
L 2059 1831 
L 2059 1544 
Q 2613 1197 3031 847 
L 2781 456 
Q 2472 791 2059 1128 
L 2059 -447 
L 1644 -447 
L 1644 1294 
Q 1272 628 575 -31 
L 269 341 
Q 1041 938 1528 1831 
L 453 1831 
L 453 2216 
L 1644 2216 
L 1644 2784 
L 319 2784 
L 319 3181 
L 1125 3181 
Q 1013 3706 881 4069 
L 453 4069 
L 453 4453 
L 1631 4453 
L 1631 5309 
L 2072 5309 
L 2072 4453 
L 3166 4453 
L 3166 4069 
L 2822 4069 
z
M 2391 4069 
L 1325 4069 
Q 1450 3672 1534 3181 
L 2109 3181 
Q 2294 3659 2391 4069 
z
" transform="scale(0.015625)"/>
     <path id="IPAexGothic-65e5" d="M 5231 4800 
L 5231 -288 
L 4744 -288 
L 4744 128 
L 1647 128 
L 1647 -288 
L 1159 -288 
L 1159 4800 
L 5231 4800 
z
M 1647 4372 
L 1647 2731 
L 4744 2731 
L 4744 4372 
L 1647 4372 
z
M 1647 2297 
L 1647 556 
L 4744 556 
L 4744 2297 
L 1647 2297 
z
" transform="scale(0.015625)"/>
     <path id="IPAexGothic-6642" d="M 2328 4728 
L 2328 563 
L 934 563 
L 934 56 
L 519 56 
L 519 4728 
L 2328 4728 
z
M 934 4331 
L 934 2881 
L 1906 2881 
L 1906 4331 
L 934 4331 
z
M 934 2497 
L 934 953 
L 1906 953 
L 1906 2497 
L 934 2497 
z
M 3938 4372 
L 3938 5313 
L 4378 5313 
L 4378 4372 
L 5772 4372 
L 5772 3981 
L 4378 3981 
L 4378 3194 
L 6072 3194 
L 6072 2803 
L 5203 2803 
L 5203 2047 
L 5959 2047 
L 5959 1650 
L 5216 1650 
L 5216 31 
Q 5216 -447 4691 -447 
Q 4394 -447 3888 -391 
L 3784 78 
Q 4272 0 4591 0 
Q 4775 0 4775 172 
L 4775 1650 
L 2581 1650 
L 2581 2047 
L 4763 2047 
L 4763 2803 
L 2538 2803 
L 2538 3194 
L 3938 3194 
L 3938 3981 
L 2716 3981 
L 2716 4372 
L 3938 4372 
z
M 3669 384 
Q 3331 950 2956 1325 
L 3291 1575 
Q 3719 1147 4025 659 
L 3669 384 
z
" transform="scale(0.015625)"/>
     <path id="IPAexGothic-3a" d="M 1369 2559 
L 672 2559 
L 672 3250 
L 1369 3250 
L 1369 2559 
z
M 1369 63 
L 672 63 
L 672 753 
L 1369 753 
L 1369 63 
z
" transform="scale(0.015625)"/>
     <path id="IPAexGothic-20" transform="scale(0.015625)"/>
     <path id="IPAexGothic-2f" d="M 2719 4709 
L 600 -884 
L 300 -763 
L 2413 4831 
L 2719 4709 
z
" transform="scale(0.015625)"/>
     <path id="IPAexGothic-38" d="M 2541 2425 
Q 3700 2031 3700 1197 
Q 3700 541 3100 197 
Q 2663 -56 2016 -56 
Q 1366 -56 928 197 
Q 347 531 347 1178 
Q 347 1988 1409 2381 
L 1409 2400 
Q 481 2734 481 3509 
Q 481 4100 981 4456 
Q 1406 4756 2019 4756 
Q 2703 4756 3131 4403 
Q 3553 4069 3553 3566 
Q 3553 2706 2541 2444 
L 2541 2425 
z
M 2022 2625 
Q 2997 2856 2997 3528 
Q 2997 3916 2675 4150 
Q 2413 4347 2016 4347 
Q 1606 4347 1331 4128 
Q 1050 3897 1050 3522 
Q 1050 3150 1350 2925 
Q 1494 2809 1722 2722 
Q 1984 2616 2022 2625 
z
M 1978 2209 
Q 922 1931 922 1216 
Q 922 775 1313 556 
Q 1606 391 2009 391 
Q 2575 391 2881 697 
Q 3106 922 3106 1250 
Q 3106 1594 2794 1850 
Q 2609 1994 2350 2100 
Q 2047 2222 1978 2209 
z
" transform="scale(0.015625)"/>
     <path id="IPAexGothic-28" d="M 1928 -1016 
L 1653 -1166 
Q 488 69 488 1875 
Q 488 3678 1653 4909 
L 1928 4763 
Q 1006 3522 1006 1881 
Q 1006 203 1928 -1016 
z
" transform="scale(0.015625)"/>
     <path id="IPAexGothic-53" d="M 2919 3641 
Q 2563 4259 1853 4259 
Q 1453 4259 1213 4009 
Q 1028 3803 1028 3534 
Q 1028 3238 1266 3047 
Q 1444 2913 1984 2688 
L 2200 2597 
Q 2925 2306 3191 1953 
Q 3422 1644 3422 1259 
Q 3422 644 2969 288 
Q 2559 -31 1931 -31 
Q 881 -31 313 766 
L 753 1100 
Q 1203 459 1938 459 
Q 2288 459 2534 625 
Q 2841 847 2841 1216 
Q 2841 1503 2616 1728 
Q 2375 1959 1728 2206 
L 1541 2278 
Q 453 2694 453 3481 
Q 453 4006 806 4347 
Q 1203 4725 1863 4725 
Q 2841 4725 3359 3956 
L 2919 3641 
z
" transform="scale(0.015625)"/>
     <path id="IPAexGothic-54" d="M 3866 4141 
L 2175 4141 
L 2175 63 
L 1606 63 
L 1606 4141 
L -31 4141 
L -31 4634 
L 3866 4634 
L 3866 4141 
z
" transform="scale(0.015625)"/>
     <path id="IPAexGothic-29" d="M 466 4909 
Q 1638 3672 1638 1875 
Q 1638 75 466 -1166 
L 191 -1016 
Q 1119 216 1119 1881 
Q 1119 3509 191 4763 
L 466 4909 
z
" transform="scale(0.015625)"/>
    </defs>
    <use xlink:href="#IPAexGothic-66f4"/>
    <use xlink:href="#IPAexGothic-65b0" x="100"/>
    <use xlink:href="#IPAexGothic-65e5" x="200"/>
    <use xlink:href="#IPAexGothic-6642" x="300"/>
    <use xlink:href="#IPAexGothic-3a" x="400"/>
    <use xlink:href="#IPAexGothic-20" x="431.982422"/>
    <use xlink:href="#IPAexGothic-32" x="458.984375"/>
    <use xlink:href="#IPAexGothic-30" x="521.972656"/>
    <use xlink:href="#IPAexGothic-32" x="584.960938"/>
    <use xlink:href="#IPAexGothic-32" x="647.949219"/>
    <use xlink:href="#IPAexGothic-2f" x="710.9375"/>
    <use xlink:href="#IPAexGothic-30" x="760.9375"/>
    <use xlink:href="#IPAexGothic-38" x="823.925781"/>
    <use xlink:href="#IPAexGothic-2f" x="886.914062"/>
    <use xlink:href="#IPAexGothic-30" x="936.914062"/>
    <use xlink:href="#IPAexGothic-36" x="999.902344"/>
    <use xlink:href="#IPAexGothic-20" x="1062.890625"/>
    <use xlink:href="#IPAexGothic-31" x="1089.892578"/>
    <use xlink:href="#IPAexGothic-32" x="1152.880859"/>
    <use xlink:href="#IPAexGothic-3a" x="1215.869141"/>
    <use xlink:href="#IPAexGothic-31" x="1247.851562"/>
    <use xlink:href="#IPAexGothic-34" x="1310.839844"/>
    <use xlink:href="#IPAexGothic-3a" x="1373.828125"/>
    <use xlink:href="#IPAexGothic-31" x="1405.810547"/>
    <use xlink:href="#IPAexGothic-37" x="1468.798828"/>
    <use xlink:href="#IPAexGothic-28" x="1531.787109"/>
    <use xlink:href="#IPAexGothic-4a" x="1565.087891"/>
    <use xlink:href="#IPAexGothic-53" x="1603.076172"/>
    <use xlink:href="#IPAexGothic-54" x="1661.572266"/>
    <use xlink:href="#IPAexGothic-29" x="1721.484375"/>
   </g>
  </g>
 </g>
 <defs>
  <clipPath id="pfcb30b1b9d">
   <rect x="35.7375" y="18.879437" width="357.12" height="266.112"/>
  </clipPath>
 </defs>
</svg>
