<?xml version="1.0" encoding="utf-8" standalone="no"?>
<!DOCTYPE svg PUBLIC "-//W3C//DTD SVG 1.1//EN"
  "http://www.w3.org/Graphics/SVG/1.1/DTD/svg11.dtd">
<svg xmlns:xlink="http://www.w3.org/1999/xlink" width="403.5575pt" height="320.972687pt" viewBox="0 0 403.5575 320.972687" xmlns="http://www.w3.org/2000/svg" version="1.1">
 <metadata>
  <rdf:RDF xmlns:dc="http://purl.org/dc/elements/1.1/" xmlns:cc="http://creativecommons.org/ns#" xmlns:rdf="http://www.w3.org/1999/02/22-rdf-syntax-ns#">
   <cc:Work>
    <dc:type rdf:resource="http://purl.org/dc/dcmitype/StillImage"/>
    <dc:date>2022-09-15T06:41:34.183522</dc:date>
    <dc:format>image/svg+xml</dc:format>
    <dc:creator>
     <cc:Agent>
      <dc:title>Matplotlib v3.5.3, https://matplotlib.org/</dc:title>
     </cc:Agent>
    </dc:creator>
   </cc:Work>
  </rdf:RDF>
 </metadata>
 <defs>
  <style type="text/css">*{stroke-linejoin: round; stroke-linecap: butt}</style>
 </defs>
 <g id="figure_1">
  <g id="patch_1">
   <path d="M 0 320.972687 
L 403.5575 320.972687 
L 403.5575 0 
L 0 0 
z
" style="fill: #ffffff"/>
  </g>
  <g id="axes_1">
   <g id="patch_2">
    <path d="M 35.7375 284.991437 
L 392.8575 284.991437 
L 392.8575 18.879437 
L 35.7375 18.879437 
z
" style="fill: #ffffff"/>
   </g>
   <g id="line2d_1">
    <path d="M 35.7375 203.485507 
L 392.8575 203.485507 
" clip-path="url(#pb20b660eab)" style="fill: none; stroke: #000000; stroke-linecap: square"/>
   </g>
   <g id="matplotlib.axis_1">
    <g id="xtick_1">
     <g id="line2d_2">
      <defs>
       <path id="m7a1bd1fce2" d="M 0 0 
L 0 3.5 
" style="stroke: #000000; stroke-width: 0.8"/>
      </defs>
      <g>
       <use xlink:href="#m7a1bd1fce2" x="35.7375" y="284.991437" style="stroke: #000000; stroke-width: 0.8"/>
      </g>
     </g>
     <g id="text_1">
      <!-- Feb -->
      <g transform="translate(26.914062 299.482062)scale(0.1 -0.1)">
       <defs>
        <path id="IPAexGothic-46" d="M 3469 4141 
L 1172 4141 
L 1172 2656 
L 3206 2656 
L 3206 2188 
L 1172 2188 
L 1172 63 
L 609 63 
L 609 4634 
L 3469 4634 
L 3469 4141 
z
" transform="scale(0.015625)"/>
        <path id="IPAexGothic-65" d="M 863 1594 
Q 891 1041 1209 722 
Q 1534 397 1997 397 
Q 2606 397 2963 966 
L 3322 728 
Q 2869 -31 1931 -31 
Q 1222 -31 766 422 
Q 306 884 306 1641 
Q 306 2444 788 2925 
Q 1216 3353 1856 3353 
Q 2459 3353 2866 2956 
Q 3322 2494 3322 1722 
L 3322 1594 
L 863 1594 
z
M 2756 1997 
Q 2709 2431 2450 2681 
Q 2194 2938 1844 2938 
Q 1438 2938 1150 2591 
Q 953 2356 894 1997 
L 2756 1997 
z
" transform="scale(0.015625)"/>
        <path id="IPAexGothic-62" d="M 1125 2731 
Q 1550 3341 2219 3341 
Q 2788 3341 3191 2938 
Q 3659 2469 3659 1644 
Q 3659 838 3191 372 
Q 2788 -31 2206 -31 
Q 1559 -31 1088 516 
L 1009 44 
L 581 44 
L 581 4794 
L 1125 4794 
L 1125 2731 
z
M 1125 1997 
L 1125 1253 
Q 1125 888 1528 600 
Q 1803 403 2119 403 
Q 2488 403 2744 659 
Q 3084 1009 3084 1631 
Q 3084 2194 2803 2553 
Q 2525 2900 2125 2900 
Q 1759 2900 1438 2578 
Q 1125 2266 1125 1997 
z
" transform="scale(0.015625)"/>
       </defs>
       <use xlink:href="#IPAexGothic-46"/>
       <use xlink:href="#IPAexGothic-65" x="57.177734"/>
       <use xlink:href="#IPAexGothic-62" x="114.0625"/>
      </g>
     </g>
    </g>
    <g id="xtick_2">
     <g id="line2d_3">
      <g>
       <use xlink:href="#m7a1bd1fce2" x="79.787544" y="284.991437" style="stroke: #000000; stroke-width: 0.8"/>
      </g>
     </g>
     <g id="text_2">
      <!-- Mar -->
      <g transform="translate(70.678169 299.482062)scale(0.1 -0.1)">
       <defs>
        <path id="IPAexGothic-4d" d="M 5147 63 
L 4597 63 
L 4597 2534 
Q 4597 3281 4634 4134 
L 4609 4134 
Q 4356 3409 4066 2675 
L 3066 209 
L 2650 209 
L 1641 2725 
Q 1328 3506 1128 4141 
L 1103 4141 
Q 1141 3131 1141 2553 
L 1141 63 
L 609 63 
L 609 4634 
L 1416 4634 
L 2503 1944 
Q 2697 1472 2869 906 
L 2888 906 
Q 3028 1416 3234 1931 
L 4316 4634 
L 5147 4634 
L 5147 63 
z
" transform="scale(0.015625)"/>
        <path id="IPAexGothic-61" d="M 3156 63 
L 2672 63 
Q 2559 303 2531 556 
L 2509 556 
Q 2147 -25 1428 -25 
Q 934 -25 622 288 
Q 347 563 347 959 
Q 347 1947 2050 1997 
L 2478 2009 
L 2478 2175 
Q 2478 2509 2288 2700 
Q 2088 2900 1775 2900 
Q 1238 2900 969 2378 
L 494 2597 
Q 938 3328 1788 3328 
Q 2375 3328 2691 3000 
Q 2984 2706 2984 2169 
L 2984 997 
Q 2984 400 3156 63 
z
M 2491 1625 
L 2141 1619 
Q 903 1591 903 953 
Q 903 728 1050 581 
Q 1231 403 1525 403 
Q 1934 403 2234 703 
Q 2491 969 2491 1344 
L 2491 1625 
z
" transform="scale(0.015625)"/>
        <path id="IPAexGothic-72" d="M 2309 3316 
L 2213 2769 
Q 2106 2791 2022 2791 
Q 1653 2791 1413 2444 
Q 1113 2006 1113 1675 
L 1113 63 
L 563 63 
L 563 3250 
L 1081 3250 
L 1056 2303 
L 1069 2303 
Q 1422 3341 2097 3341 
Q 2206 3341 2309 3316 
z
" transform="scale(0.015625)"/>
       </defs>
       <use xlink:href="#IPAexGothic-4d"/>
       <use xlink:href="#IPAexGothic-61" x="90.185547"/>
       <use xlink:href="#IPAexGothic-72" x="145.166016"/>
      </g>
     </g>
    </g>
    <g id="xtick_3">
     <g id="line2d_4">
      <g>
       <use xlink:href="#m7a1bd1fce2" x="128.557236" y="284.991437" style="stroke: #000000; stroke-width: 0.8"/>
      </g>
     </g>
     <g id="text_3">
      <!-- Apr -->
      <g transform="translate(120.415048 299.482062)scale(0.1 -0.1)">
       <defs>
        <path id="IPAexGothic-41" d="M 4056 63 
L 3444 63 
L 2938 1409 
L 1100 1409 
L 603 63 
L -6 63 
L 1806 4666 
L 2259 4666 
L 4056 63 
z
M 2778 1863 
L 2316 3078 
Q 2125 3588 2028 4000 
L 2009 4000 
Q 1897 3563 1716 3078 
L 1263 1863 
L 2778 1863 
z
" transform="scale(0.015625)"/>
        <path id="IPAexGothic-70" d="M 1075 2688 
Q 1525 3341 2206 3341 
Q 2769 3341 3172 2938 
Q 3641 2469 3641 1644 
Q 3641 841 3178 372 
Q 2775 -31 2200 -31 
Q 1569 -31 1106 497 
L 1106 -1216 
L 563 -1216 
L 563 3250 
L 1075 3250 
L 1075 2688 
z
M 1106 1950 
L 1106 1291 
Q 1106 897 1516 600 
Q 1791 403 2106 403 
Q 2469 403 2725 659 
Q 3066 997 3066 1631 
Q 3066 2200 2784 2559 
Q 2503 2900 2100 2900 
Q 1656 2900 1338 2484 
Q 1106 2184 1106 1950 
z
" transform="scale(0.015625)"/>
       </defs>
       <use xlink:href="#IPAexGothic-41"/>
       <use xlink:href="#IPAexGothic-70" x="63.720703"/>
       <use xlink:href="#IPAexGothic-72" x="125.830078"/>
      </g>
     </g>
    </g>
    <g id="xtick_4">
     <g id="line2d_5">
      <g>
       <use xlink:href="#m7a1bd1fce2" x="175.753711" y="284.991437" style="stroke: #000000; stroke-width: 0.8"/>
      </g>
     </g>
     <g id="text_4">
      <!-- May -->
      <g transform="translate(166.03418 299.482062)scale(0.1 -0.1)">
       <defs>
        <path id="IPAexGothic-79" d="M 3122 3250 
L 1575 -488 
Q 1278 -1203 550 -1203 
L 478 -1203 
L 344 -703 
L 447 -703 
Q 969 -703 1150 -238 
L 1356 275 
L 38 3250 
L 659 3250 
L 1363 1459 
Q 1528 1025 1606 781 
L 1625 781 
Q 1750 1169 1863 1459 
L 2528 3250 
L 3122 3250 
z
" transform="scale(0.015625)"/>
       </defs>
       <use xlink:href="#IPAexGothic-4d"/>
       <use xlink:href="#IPAexGothic-61" x="90.185547"/>
       <use xlink:href="#IPAexGothic-79" x="145.166016"/>
      </g>
     </g>
    </g>
    <g id="xtick_5">
     <g id="line2d_6">
      <g>
       <use xlink:href="#m7a1bd1fce2" x="224.523403" y="284.991437" style="stroke: #000000; stroke-width: 0.8"/>
      </g>
     </g>
     <g id="text_5">
      <!-- Jun -->
      <g transform="translate(216.583559 299.482062)scale(0.1 -0.1)">
       <defs>
        <path id="IPAexGothic-4a" d="M 1819 4634 
L 1819 1234 
Q 1819 -31 763 -31 
Q 303 -31 -125 209 
L 84 644 
Q 378 447 694 447 
Q 1250 447 1250 1203 
L 1250 4634 
L 1819 4634 
z
" transform="scale(0.015625)"/>
        <path id="IPAexGothic-75" d="M 3284 63 
L 2772 63 
L 2772 644 
Q 2300 0 1625 0 
Q 1072 0 763 375 
Q 519 678 519 1241 
L 519 3250 
L 1069 3250 
L 1069 1259 
Q 1069 466 1734 466 
Q 2406 466 2734 1291 
L 2734 3250 
L 3284 3250 
L 3284 63 
z
" transform="scale(0.015625)"/>
        <path id="IPAexGothic-6e" d="M 3328 63 
L 2778 63 
L 2778 2041 
Q 2778 2853 2106 2853 
Q 1428 2853 1113 2041 
L 1113 63 
L 563 63 
L 563 3250 
L 1075 3250 
L 1075 2675 
Q 1525 3316 2222 3316 
Q 3328 3316 3328 2072 
L 3328 63 
z
" transform="scale(0.015625)"/>
       </defs>
       <use xlink:href="#IPAexGothic-4a"/>
       <use xlink:href="#IPAexGothic-75" x="37.988281"/>
       <use xlink:href="#IPAexGothic-6e" x="98.388672"/>
      </g>
     </g>
    </g>
    <g id="xtick_6">
     <g id="line2d_7">
      <g>
       <use xlink:href="#m7a1bd1fce2" x="271.719879" y="284.991437" style="stroke: #000000; stroke-width: 0.8"/>
      </g>
     </g>
     <g id="text_6">
      <!-- Jul -->
      <g transform="translate(265.450348 299.482062)scale(0.1 -0.1)">
       <defs>
        <path id="IPAexGothic-6c" d="M 1131 63 
L 581 63 
L 581 4794 
L 1131 4794 
L 1131 63 
z
" transform="scale(0.015625)"/>
       </defs>
       <use xlink:href="#IPAexGothic-4a"/>
       <use xlink:href="#IPAexGothic-75" x="37.988281"/>
       <use xlink:href="#IPAexGothic-6c" x="98.388672"/>
      </g>
     </g>
    </g>
    <g id="xtick_7">
     <g id="line2d_8">
      <g>
       <use xlink:href="#m7a1bd1fce2" x="320.48957" y="284.991437" style="stroke: #000000; stroke-width: 0.8"/>
      </g>
     </g>
     <g id="text_7">
      <!-- Aug -->
      <g transform="translate(311.507539 299.42425)scale(0.1 -0.1)">
       <defs>
        <path id="IPAexGothic-67" d="M 1331 1150 
Q 1006 1122 1006 900 
Q 1006 613 1763 575 
L 2131 556 
Q 3303 497 3303 -294 
Q 3303 -700 2925 -959 
Q 2519 -1253 1794 -1253 
Q 1138 -1253 738 -1028 
Q 353 -809 353 -428 
Q 353 84 1075 247 
L 1075 269 
Q 506 413 506 778 
Q 506 1116 994 1297 
Q 456 1575 456 2181 
Q 456 2650 769 2963 
Q 1128 3322 1738 3322 
Q 2125 3322 2422 3153 
Q 2650 3453 3259 3463 
L 3259 3013 
Q 2838 3003 2703 2938 
Q 3034 2613 3034 2169 
Q 3034 1728 2734 1425 
Q 2400 1094 1813 1094 
Q 1563 1094 1331 1150 
z
M 1734 2919 
Q 1409 2919 1197 2706 
Q 988 2497 988 2181 
Q 988 1872 1184 1684 
Q 1397 1472 1756 1472 
Q 2094 1472 2297 1678 
Q 2503 1881 2503 2203 
Q 2503 2497 2297 2700 
Q 2081 2919 1734 2919 
z
M 1753 159 
Q 903 159 903 -366 
Q 903 -875 1800 -875 
Q 2378 -875 2638 -606 
Q 2772 -481 2772 -313 
Q 2772 159 1753 159 
z
" transform="scale(0.015625)"/>
       </defs>
       <use xlink:href="#IPAexGothic-41"/>
       <use xlink:href="#IPAexGothic-75" x="63.720703"/>
       <use xlink:href="#IPAexGothic-67" x="124.121094"/>
      </g>
     </g>
    </g>
    <g id="xtick_8">
     <g id="line2d_9">
      <g>
       <use xlink:href="#m7a1bd1fce2" x="369.259262" y="284.991437" style="stroke: #000000; stroke-width: 0.8"/>
      </g>
     </g>
     <g id="text_8">
      <!-- Sep -->
      <g transform="translate(360.384262 299.482062)scale(0.1 -0.1)">
       <defs>
        <path id="IPAexGothic-53" d="M 2919 3641 
Q 2563 4259 1853 4259 
Q 1453 4259 1213 4009 
Q 1028 3803 1028 3534 
Q 1028 3238 1266 3047 
Q 1444 2913 1984 2688 
L 2200 2597 
Q 2925 2306 3191 1953 
Q 3422 1644 3422 1259 
Q 3422 644 2969 288 
Q 2559 -31 1931 -31 
Q 881 -31 313 766 
L 753 1100 
Q 1203 459 1938 459 
Q 2288 459 2534 625 
Q 2841 847 2841 1216 
Q 2841 1503 2616 1728 
Q 2375 1959 1728 2206 
L 1541 2278 
Q 453 2694 453 3481 
Q 453 4006 806 4347 
Q 1203 4725 1863 4725 
Q 2841 4725 3359 3956 
L 2919 3641 
z
" transform="scale(0.015625)"/>
       </defs>
       <use xlink:href="#IPAexGothic-53"/>
       <use xlink:href="#IPAexGothic-65" x="58.496094"/>
       <use xlink:href="#IPAexGothic-70" x="115.380859"/>
      </g>
     </g>
    </g>
    <g id="text_9">
     <!-- 2022 -->
     <g transform="translate(367.66375 311.872687)scale(0.1 -0.1)">
      <defs>
       <path id="IPAexGothic-32" d="M 3659 63 
L 447 63 
L 447 594 
Q 825 1475 1894 2203 
L 2072 2322 
Q 2619 2697 2791 2906 
Q 2988 3153 2988 3444 
Q 2988 3772 2756 4003 
Q 2500 4259 2084 4259 
Q 1250 4259 991 3328 
L 497 3506 
Q 853 4725 2116 4725 
Q 2806 4725 3216 4316 
Q 3575 3947 3575 3425 
Q 3575 3038 3344 2722 
Q 3131 2416 2366 1938 
L 2231 1856 
Q 1256 1253 978 569 
L 3659 569 
L 3659 63 
z
" transform="scale(0.015625)"/>
       <path id="IPAexGothic-30" d="M 2038 4725 
Q 2881 4725 3334 3944 
Q 3694 3325 3694 2344 
Q 3694 1372 3334 741 
Q 2888 -31 2016 -31 
Q 1147 -31 700 741 
Q 341 1372 341 2350 
Q 341 3713 1000 4334 
Q 1419 4725 2038 4725 
z
M 2016 4266 
Q 1516 4266 1228 3759 
Q 934 3247 934 2344 
Q 934 1456 1222 947 
Q 1513 447 2016 447 
Q 2619 447 2909 1153 
Q 3100 1622 3100 2375 
Q 3100 3256 2806 3759 
Q 2509 4266 2016 4266 
z
" transform="scale(0.015625)"/>
      </defs>
      <use xlink:href="#IPAexGothic-32"/>
      <use xlink:href="#IPAexGothic-30" x="62.988281"/>
      <use xlink:href="#IPAexGothic-32" x="125.976562"/>
      <use xlink:href="#IPAexGothic-32" x="188.964844"/>
     </g>
    </g>
   </g>
   <g id="matplotlib.axis_2">
    <g id="ytick_1">
     <g id="line2d_10">
      <defs>
       <path id="m6c7f79f09f" d="M 0 0 
L -3.5 0 
" style="stroke: #000000; stroke-width: 0.8"/>
      </defs>
      <g>
       <use xlink:href="#m6c7f79f09f" x="35.7375" y="264.522941" style="stroke: #000000; stroke-width: 0.8"/>
      </g>
     </g>
     <g id="text_10">
      <!-- 0.50 -->
      <g transform="translate(7.2 268.268254)scale(0.1 -0.1)">
       <defs>
        <path id="IPAexGothic-2e" d="M 1184 63 
L 494 63 
L 494 753 
L 1184 753 
L 1184 63 
z
" transform="scale(0.015625)"/>
        <path id="IPAexGothic-35" d="M 1178 2603 
Q 1634 2963 2172 2963 
Q 2816 2963 3241 2528 
Q 3638 2113 3638 1497 
Q 3638 938 3297 513 
Q 2869 -31 2031 -31 
Q 959 -31 469 784 
L 938 1028 
Q 1309 434 2013 434 
Q 2466 434 2769 716 
Q 3081 1013 3081 1503 
Q 3081 1966 2806 2241 
Q 2519 2528 2056 2528 
Q 1406 2528 1072 2028 
L 591 2091 
L 884 4634 
L 3406 4634 
L 3406 4153 
L 1341 4153 
L 1134 2603 
L 1178 2603 
z
" transform="scale(0.015625)"/>
       </defs>
       <use xlink:href="#IPAexGothic-30"/>
       <use xlink:href="#IPAexGothic-2e" x="62.988281"/>
       <use xlink:href="#IPAexGothic-35" x="89.404297"/>
       <use xlink:href="#IPAexGothic-30" x="152.392578"/>
      </g>
     </g>
    </g>
    <g id="ytick_2">
     <g id="line2d_11">
      <g>
       <use xlink:href="#m6c7f79f09f" x="35.7375" y="234.004224" style="stroke: #000000; stroke-width: 0.8"/>
      </g>
     </g>
     <g id="text_11">
      <!-- 0.75 -->
      <g transform="translate(7.2 237.749537)scale(0.1 -0.1)">
       <defs>
        <path id="IPAexGothic-37" d="M 3597 4263 
Q 2238 2106 1778 63 
L 1131 63 
Q 1581 1834 2950 4128 
L 428 4128 
L 428 4634 
L 3597 4634 
L 3597 4263 
z
" transform="scale(0.015625)"/>
       </defs>
       <use xlink:href="#IPAexGothic-30"/>
       <use xlink:href="#IPAexGothic-2e" x="62.988281"/>
       <use xlink:href="#IPAexGothic-37" x="89.404297"/>
       <use xlink:href="#IPAexGothic-35" x="152.392578"/>
      </g>
     </g>
    </g>
    <g id="ytick_3">
     <g id="line2d_12">
      <g>
       <use xlink:href="#m6c7f79f09f" x="35.7375" y="203.485507" style="stroke: #000000; stroke-width: 0.8"/>
      </g>
     </g>
     <g id="text_12">
      <!-- 1.00 -->
      <g transform="translate(7.2 207.230819)scale(0.1 -0.1)">
       <defs>
        <path id="IPAexGothic-31" d="M 2463 63 
L 1900 63 
L 1900 4103 
Q 1372 3922 788 3797 
L 684 4231 
Q 1519 4441 2106 4731 
L 2463 4731 
L 2463 63 
z
" transform="scale(0.015625)"/>
       </defs>
       <use xlink:href="#IPAexGothic-31"/>
       <use xlink:href="#IPAexGothic-2e" x="62.988281"/>
       <use xlink:href="#IPAexGothic-30" x="89.404297"/>
       <use xlink:href="#IPAexGothic-30" x="152.392578"/>
      </g>
     </g>
    </g>
    <g id="ytick_4">
     <g id="line2d_13">
      <g>
       <use xlink:href="#m6c7f79f09f" x="35.7375" y="172.96679" style="stroke: #000000; stroke-width: 0.8"/>
      </g>
     </g>
     <g id="text_13">
      <!-- 1.25 -->
      <g transform="translate(7.2 176.712102)scale(0.1 -0.1)">
       <use xlink:href="#IPAexGothic-31"/>
       <use xlink:href="#IPAexGothic-2e" x="62.988281"/>
       <use xlink:href="#IPAexGothic-32" x="89.404297"/>
       <use xlink:href="#IPAexGothic-35" x="152.392578"/>
      </g>
     </g>
    </g>
    <g id="ytick_5">
     <g id="line2d_14">
      <g>
       <use xlink:href="#m6c7f79f09f" x="35.7375" y="142.448073" style="stroke: #000000; stroke-width: 0.8"/>
      </g>
     </g>
     <g id="text_14">
      <!-- 1.50 -->
      <g transform="translate(7.2 146.193385)scale(0.1 -0.1)">
       <use xlink:href="#IPAexGothic-31"/>
       <use xlink:href="#IPAexGothic-2e" x="62.988281"/>
       <use xlink:href="#IPAexGothic-35" x="89.404297"/>
       <use xlink:href="#IPAexGothic-30" x="152.392578"/>
      </g>
     </g>
    </g>
    <g id="ytick_6">
     <g id="line2d_15">
      <g>
       <use xlink:href="#m6c7f79f09f" x="35.7375" y="111.929355" style="stroke: #000000; stroke-width: 0.8"/>
      </g>
     </g>
     <g id="text_15">
      <!-- 1.75 -->
      <g transform="translate(7.2 115.674668)scale(0.1 -0.1)">
       <use xlink:href="#IPAexGothic-31"/>
       <use xlink:href="#IPAexGothic-2e" x="62.988281"/>
       <use xlink:href="#IPAexGothic-37" x="89.404297"/>
       <use xlink:href="#IPAexGothic-35" x="152.392578"/>
      </g>
     </g>
    </g>
    <g id="ytick_7">
     <g id="line2d_16">
      <g>
       <use xlink:href="#m6c7f79f09f" x="35.7375" y="81.410638" style="stroke: #000000; stroke-width: 0.8"/>
      </g>
     </g>
     <g id="text_16">
      <!-- 2.00 -->
      <g transform="translate(7.2 85.155951)scale(0.1 -0.1)">
       <use xlink:href="#IPAexGothic-32"/>
       <use xlink:href="#IPAexGothic-2e" x="62.988281"/>
       <use xlink:href="#IPAexGothic-30" x="89.404297"/>
       <use xlink:href="#IPAexGothic-30" x="152.392578"/>
      </g>
     </g>
    </g>
    <g id="ytick_8">
     <g id="line2d_17">
      <g>
       <use xlink:href="#m6c7f79f09f" x="35.7375" y="50.891921" style="stroke: #000000; stroke-width: 0.8"/>
      </g>
     </g>
     <g id="text_17">
      <!-- 2.25 -->
      <g transform="translate(7.2 54.637233)scale(0.1 -0.1)">
       <use xlink:href="#IPAexGothic-32"/>
       <use xlink:href="#IPAexGothic-2e" x="62.988281"/>
       <use xlink:href="#IPAexGothic-32" x="89.404297"/>
       <use xlink:href="#IPAexGothic-35" x="152.392578"/>
      </g>
     </g>
    </g>
    <g id="ytick_9">
     <g id="line2d_18">
      <g>
       <use xlink:href="#m6c7f79f09f" x="35.7375" y="20.373204" style="stroke: #000000; stroke-width: 0.8"/>
      </g>
     </g>
     <g id="text_18">
      <!-- 2.50 -->
      <g transform="translate(7.2 24.118516)scale(0.1 -0.1)">
       <use xlink:href="#IPAexGothic-32"/>
       <use xlink:href="#IPAexGothic-2e" x="62.988281"/>
       <use xlink:href="#IPAexGothic-35" x="89.404297"/>
       <use xlink:href="#IPAexGothic-30" x="152.392578"/>
      </g>
     </g>
    </g>
   </g>
   <g id="line2d_19">
    <path d="M 46.750011 246.764939 
L 48.323227 252.025255 
L 49.896443 237.526584 
L 51.469659 216.985322 
L 53.042874 244.687429 
L 54.61609 217.229148 
L 56.189306 200.778852 
L 57.762522 200.790801 
L 59.335738 206.122014 
L 60.908954 171.133519 
L 62.48217 171.22436 
L 64.055385 134.588505 
L 65.628601 74.827759 
L 67.201817 156.078477 
L 68.775033 66.40717 
L 70.348249 51.742833 
L 71.921465 178.575122 
L 73.494681 147.743961 
L 75.067896 167.414814 
L 76.641112 202.924502 
L 67.201817 203.485507 
L 68.775033 203.485507 
L 76.641112 203.485507 
L 78.214328 213.751459 
L 79.787544 235.380804 
L 81.36076 255.089026 
L 82.933976 177.951635 
L 84.507192 234.261188 
L 86.080407 242.665646 
L 87.653623 244.246253 
L 89.226839 233.186855 
L 90.800055 234.01953 
L 92.373271 228.306711 
L 93.946487 242.632728 
L 95.519703 258.241949 
L 97.092919 218.779021 
L 98.666134 196.221145 
L 100.23935 155.170123 
L 101.812566 188.587109 
L 103.385782 166.549005 
L 104.958998 225.090323 
L 106.532214 182.097554 
L 108.10543 222.578799 
L 109.678645 211.702952 
L 111.251861 244.641749 
L 112.825077 215.749503 
L 114.398293 231.390981 
L 115.971509 99.500989 
L 117.544725 173.221782 
L 119.117941 178.369357 
L 120.691156 208.496101 
L 122.264372 191.755816 
L 123.837588 195.19815 
L 125.410804 189.980398 
L 126.98402 257.478647 
L 128.557236 249.283993 
L 130.130452 164.343531 
L 131.703667 192.886679 
L 133.276883 210.058887 
L 134.850099 210.130432 
L 136.423315 202.336034 
L 137.996531 202.338195 
L 139.569747 177.570736 
L 141.142963 217.104907 
L 142.716178 221.435178 
L 144.289394 182.441573 
L 145.86261 180.580175 
L 147.435826 197.957641 
L 149.009042 130.058376 
L 150.582258 117.661469 
L 152.155474 186.786379 
L 153.728689 170.33154 
L 155.301905 199.339318 
L 156.875121 199.36729 
L 158.448337 182.83858 
L 160.021553 187.011442 
L 161.594769 220.053339 
L 163.167985 187.811992 
L 164.7412 190.713443 
L 166.314416 186.027555 
L 167.887632 164.072866 
L 169.460848 219.833001 
L 171.034064 234.615348 
L 172.60728 228.990571 
L 174.180496 254.970143 
L 175.753711 234.259697 
L 177.326927 240.185174 
L 178.900143 257.538029 
L 180.473359 243.305776 
L 182.046575 247.76608 
L 183.619791 228.008753 
L 185.193007 30.975437 
L 186.766222 139.05485 
L 188.339438 134.576213 
L 189.912654 150.865065 
L 191.48587 140.117768 
L 193.059086 157.212876 
L 194.632302 155.348274 
L 196.205518 219.597731 
L 197.778733 208.727196 
L 199.351949 224.869401 
L 200.925165 196.123822 
L 202.498381 194.548969 
L 204.071597 175.537932 
L 205.644813 222.36709 
L 207.218029 207.300044 
L 208.791244 234.687017 
L 210.36446 201.826905 
L 211.937676 213.042625 
L 213.510892 228.693374 
L 215.084108 245.878005 
L 216.657324 224.721044 
L 218.23054 232.065687 
L 219.803756 214.557267 
L 221.376971 220.551233 
L 222.950187 247.065516 
L 224.523403 228.683818 
L 226.096619 232.827425 
L 227.669835 226.698225 
L 229.243051 237.62096 
L 230.816267 232.715103 
L 232.389482 239.022386 
L 233.962698 233.460845 
L 235.535914 258.550637 
L 237.10913 233.831019 
L 238.682346 241.843884 
L 240.255562 241.042411 
L 241.828778 188.051594 
L 243.401993 210.499396 
L 244.975209 272.895437 
L 246.548425 211.843552 
L 248.121641 227.496268 
L 249.694857 203.485507 
L 251.268073 173.595768 
L 252.841289 209.18892 
L 255.98772 108.328625 
L 257.560936 97.578952 
L 259.134152 129.275398 
L 260.707368 158.523115 
L 262.280584 144.469418 
L 263.8538 192.845645 
L 265.427015 189.387053 
L 267.000231 128.957579 
L 268.573447 126.086546 
L 271.719879 131.477171 
L 273.293095 106.927082 
L 274.866311 127.338125 
L 276.439526 100.986262 
L 278.012742 72.4685 
L 279.585958 104.040335 
L 281.159174 109.019272 
L 282.73239 97.065923 
L 284.305606 104.016235 
L 285.878822 96.357928 
L 287.452037 167.550364 
L 289.025253 95.715007 
L 290.598469 142.895225 
L 292.171685 136.948484 
L 293.744901 154.611992 
L 295.318117 181.699085 
L 296.891333 172.213917 
L 298.464548 188.365733 
L 300.037764 213.374488 
L 301.61098 153.393738 
L 303.184196 163.483704 
L 304.757412 188.30806 
L 306.330628 170.060811 
L 307.903844 182.650783 
L 309.477059 184.166255 
L 311.050275 163.35185 
L 312.623491 179.538248 
L 314.196707 193.578036 
L 315.769923 186.601857 
L 317.343139 174.166788 
L 318.916355 183.445376 
L 320.48957 196.817109 
L 322.062786 190.633767 
L 323.636002 180.066955 
L 326.782434 173.342573 
L 328.35565 191.688597 
L 329.928866 182.981875 
L 331.502081 172.448728 
L 333.075297 177.822713 
L 334.648513 185.324791 
L 336.221729 196.525236 
L 337.794945 218.940824 
L 339.368161 199.877308 
L 340.941377 210.925537 
L 342.514593 196.133671 
L 344.087808 209.905716 
L 345.661024 194.537808 
L 347.23424 186.539442 
L 348.807456 142.554572 
L 350.380672 161.74388 
L 351.953888 176.492958 
L 353.527104 196.891256 
L 355.100319 178.726653 
L 356.673535 203.983907 
L 358.246751 209.524372 
L 359.819967 224.930234 
L 361.393183 242.920052 
L 362.966399 234.899823 
L 364.539615 235.258809 
L 366.11283 241.352467 
L 367.686046 245.886082 
L 370.832478 246.421774 
L 372.405694 236.953151 
L 373.97891 246.204642 
L 375.552126 235.14378 
L 377.125341 222.204148 
L 378.698557 234.599267 
L 380.271773 233.724332 
L 381.844989 221.848655 
L 383.418205 227.685931 
L 384.991421 212.837041 
L 386.564637 214.506122 
L 388.137852 242.127862 
L 389.711068 245.073648 
L 391.284284 223.997408 
L 391.284284 223.997408 
" clip-path="url(#pb20b660eab)" style="fill: none; stroke: #1f77b4; stroke-width: 1.5; stroke-linecap: square"/>
   </g>
   <g id="line2d_20">
    <path d="M 48.323227 249.440523 
L 49.896443 245.101843 
L 51.469659 227.793952 
L 53.042874 231.854536 
L 54.61609 231.959812 
L 56.189306 209.294578 
L 57.762522 200.784827 
L 59.335738 203.485507 
L 60.908954 189.74988 
L 64.055385 153.880914 
L 65.628601 106.738812 
L 67.201817 119.418095 
L 68.775033 115.985145 
L 70.348249 59.175891 
L 71.921465 124.943474 
L 73.494681 163.892844 
L 75.067896 157.867571 
L 76.641112 186.296888 
L 67.201817 203.205326 
L 68.775033 203.485507 
L 76.641112 203.485507 
L 78.214328 208.731189 
L 79.787544 225.146829 
L 81.36076 245.841644 
L 82.933976 223.569263 
L 84.507192 209.471797 
L 86.080407 238.56485 
L 87.653623 243.459753 
L 89.226839 238.892782 
L 90.800055 233.604135 
L 92.373271 231.206347 
L 93.946487 235.754932 
L 95.519703 250.843853 
L 97.092919 240.776221 
L 100.23935 177.107878 
L 101.812566 172.789602 
L 103.385782 177.97885 
L 104.958998 199.164645 
L 106.532214 205.503234 
L 108.10543 204.011918 
L 109.678645 217.277334 
L 111.251861 229.575031 
L 112.825077 231.296146 
L 114.398293 223.870536 
L 115.971509 179.656724 
L 117.544725 139.986754 
L 119.117941 175.817687 
L 120.691156 194.294196 
L 122.264372 200.405536 
L 123.837588 193.488198 
L 125.410804 192.614869 
L 126.98402 229.484784 
L 128.557236 253.497709 
L 130.130452 214.668367 
L 131.703667 179.309787 
L 133.276883 201.770193 
L 134.850099 210.094665 
L 137.996531 202.337115 
L 139.569747 190.521099 
L 141.142963 198.870653 
L 142.716178 219.292097 
L 144.289394 203.485507 
L 145.86261 181.513881 
L 147.435826 189.546148 
L 149.009042 167.615481 
L 150.582258 123.955187 
L 152.155474 155.704666 
L 153.728689 178.789377 
L 155.301905 185.58485 
L 156.875121 199.353305 
L 158.448337 191.357158 
L 160.021553 184.940489 
L 161.594769 204.65592 
L 163.167985 205.005725 
L 164.7412 189.270438 
L 166.314416 188.390507 
L 167.887632 175.451056 
L 169.460848 194.894196 
L 171.034064 227.502336 
L 172.60728 231.84515 
L 174.180496 242.995947 
L 175.753711 245.280016 
L 177.326927 237.272132 
L 178.900143 249.353935 
L 180.473359 250.759634 
L 182.046575 245.567009 
L 183.619791 238.44574 
L 185.193007 156.039761 
L 186.766222 91.163877 
L 188.339438 136.828816 
L 189.912654 142.902122 
L 191.48587 145.571615 
L 193.059086 148.871951 
L 194.632302 156.283142 
L 196.205518 191.261737 
L 197.778733 214.29514 
L 199.351949 217.098185 
L 200.925165 211.397804 
L 202.498381 195.338776 
L 204.071597 185.365328 
L 205.644813 201.136468 
L 207.218029 215.090144 
L 208.791244 221.894019 
L 210.36446 219.522288 
L 211.937676 207.567953 
L 213.510892 221.160869 
L 215.084108 237.704856 
L 216.657324 235.921562 
L 218.23054 228.462786 
L 219.803756 223.686919 
L 221.376971 217.595839 
L 222.950187 234.77118 
L 224.523403 238.35767 
L 226.096619 230.778262 
L 227.669835 229.811856 
L 229.243051 232.319399 
L 230.816267 235.20132 
L 232.389482 235.924204 
L 233.962698 236.284913 
L 235.535914 247.001064 
L 237.10913 247.159099 
L 238.682346 237.928989 
L 240.255562 241.444102 
L 241.828778 217.75517 
L 243.401993 199.775261 
L 244.975209 247.716433 
L 246.548425 248.17246 
L 248.121641 219.959529 
L 249.694857 216.147566 
L 251.268073 189.358101 
L 252.841289 192.577886 
L 254.414504 186.866044 
L 255.98772 136.065648 
L 257.560936 103.018686 
L 259.134152 114.020004 
L 260.707368 144.488829 
L 262.280584 151.638159 
L 263.8538 170.53316 
L 265.427015 191.127471 
L 267.000231 161.93869 
L 268.573447 127.527265 
L 270.146663 127.427011 
L 271.719879 130.122547 
L 273.293095 119.567536 
L 274.866311 117.382607 
L 276.439526 114.573205 
L 278.012742 87.153405 
L 279.585958 88.78005 
L 281.159174 106.543952 
L 282.73239 103.122877 
L 284.305606 100.567915 
L 285.878822 100.219613 
L 287.452037 135.254618 
L 289.025253 134.987898 
L 290.598469 120.658597 
L 292.171685 139.945668 
L 293.744901 145.997301 
L 295.318117 168.739283 
L 296.891333 177.032198 
L 298.464548 180.514477 
L 300.037764 201.498686 
L 301.61098 186.583158 
L 303.184196 158.514886 
L 304.757412 176.411462 
L 306.330628 179.469051 
L 307.903844 176.48865 
L 309.477059 183.410539 
L 311.050275 174.116221 
L 312.623491 171.657699 
L 314.196707 186.735515 
L 315.769923 190.13486 
L 317.343139 180.517525 
L 318.916355 178.87943 
L 320.48957 190.296377 
L 322.062786 193.761695 
L 323.636002 185.449941 
L 325.209218 178.383901 
L 326.782434 175.021231 
L 328.35565 182.810006 
L 329.928866 187.403807 
L 331.502081 177.809135 
L 333.075297 175.159721 
L 334.648513 181.62262 
L 336.221729 191.041536 
L 337.794945 208.267287 
L 339.368161 209.80083 
L 340.941377 205.528471 
L 342.514593 203.753933 
L 344.087808 203.213322 
L 345.661024 202.461349 
L 347.23424 190.597864 
L 348.807456 166.056025 
L 350.380672 152.41486 
L 353.527104 187.06715 
L 355.100319 188.10869 
L 356.673535 191.950774 
L 358.246751 206.786441 
L 359.819967 217.501505 
L 361.393183 234.367681 
L 362.966399 239.00278 
L 364.539615 235.079494 
L 366.11283 238.35885 
L 367.686046 243.650635 
L 369.259262 246.045118 
L 370.832478 246.312881 
L 372.405694 241.821186 
L 373.97891 241.706387 
L 375.552126 240.85456 
L 377.125341 228.890224 
L 378.698557 228.599574 
L 380.271773 234.162847 
L 381.844989 227.966964 
L 383.418205 224.809559 
L 384.991421 220.523555 
L 386.564637 213.674694 
L 388.137852 229.302724 
L 389.711068 243.613991 
L 391.284284 235.147595 
L 391.284284 235.147595 
" clip-path="url(#pb20b660eab)" style="fill: none; stroke: #ff7f0e; stroke-width: 1.5; stroke-linecap: square"/>
   </g>
   <g id="line2d_21">
    <path d="M 49.896443 245.660072 
L 51.469659 236.648844 
L 53.042874 233.784703 
L 54.61609 227.213101 
L 56.189306 222.544916 
L 57.762522 206.526416 
L 59.335738 202.589876 
L 62.48217 183.835968 
L 64.055385 159.835956 
L 65.628601 130.778217 
L 67.201817 124.60428 
L 68.775033 103.077334 
L 70.348249 96.448787 
L 71.921465 107.070891 
L 73.494681 132.851244 
L 75.067896 165.075464 
L 76.641112 174.477424 
L 67.201817 192.279777 
L 68.775033 203.298791 
L 70.348249 203.485507 
L 76.641112 203.485507 
L 78.214328 207.008165 
L 79.787544 218.391101 
L 81.36076 236.325957 
L 82.933976 227.669035 
L 84.507192 227.26558 
L 86.080407 221.7991 
L 87.653623 240.501441 
L 89.226839 240.169107 
L 90.800055 237.297894 
L 92.373271 231.87119 
L 93.946487 235.180151 
L 95.519703 243.981116 
L 97.092919 241.399629 
L 98.666134 227.959611 
L 100.23935 192.548583 
L 101.812566 181.037384 
L 103.385782 170.737102 
L 104.958998 195.732822 
L 106.532214 193.714042 
L 108.10543 211.488519 
L 109.678645 206.631654 
L 111.251861 227.297426 
L 112.825077 225.171621 
L 114.398293 231.327768 
L 115.971509 192.843579 
L 117.544725 177.542526 
L 119.117941 153.780902 
L 120.691156 187.615615 
L 122.264372 193.453465 
L 123.837588 198.693274 
L 125.410804 192.329133 
L 126.98402 219.196872 
L 128.557236 236.598198 
L 130.130452 231.311316 
L 131.703667 207.837252 
L 133.276883 190.375655 
L 134.850099 204.622139 
L 136.423315 207.564311 
L 137.996531 204.991662 
L 139.569747 194.580199 
L 141.142963 200.037209 
L 142.716178 206.888938 
L 144.289394 208.205448 
L 145.86261 196.28363 
L 147.435826 187.218034 
L 149.009042 172.060995 
L 150.582258 152.46407 
L 152.155474 147.55334 
L 153.728689 160.727349 
L 155.301905 185.986511 
L 156.875121 190.338614 
L 158.448337 194.072445 
L 160.021553 189.923946 
L 161.594769 197.781723 
L 163.167985 199.283535 
L 164.7412 200.418401 
L 166.314416 188.197939 
L 167.887632 180.721394 
L 169.460848 192.003089 
L 172.60728 228.000946 
L 174.180496 240.291938 
L 175.753711 240.180931 
L 177.326927 243.616446 
L 178.900143 244.622379 
L 180.473359 247.388983 
L 182.046575 249.774806 
L 183.619791 240.096848 
L 188.339438 106.633104 
L 189.912654 141.628598 
L 191.48587 141.97868 
L 193.059086 149.538836 
L 194.632302 151.057652 
L 196.205518 180.755463 
L 197.778733 197.355914 
L 199.351949 217.937851 
L 200.925165 210.514454 
L 202.498381 206.037179 
L 204.071597 189.047349 
L 205.644813 198.978286 
L 207.218029 203.225884 
L 208.791244 222.05195 
L 210.36446 215.595424 
L 211.937676 217.40496 
L 213.510892 215.077569 
L 215.084108 230.152027 
L 216.657324 233.574174 
L 218.23054 234.654271 
L 219.803756 224.032801 
L 221.376971 222.652235 
L 222.950187 228.47932 
L 224.523403 232.785793 
L 226.096619 236.551906 
L 227.669835 229.437311 
L 229.243051 232.489049 
L 230.816267 232.451487 
L 232.389482 236.493396 
L 233.962698 235.110494 
L 235.535914 244.426782 
L 237.10913 242.835797 
L 238.682346 245.425956 
L 240.255562 238.979335 
L 241.828778 226.4703 
L 243.401993 215.388897 
L 244.975209 231.459566 
L 246.548425 237.233787 
L 248.121641 241.816679 
L 249.694857 214.731306 
L 251.268073 203.485507 
L 252.841289 196.317961 
L 254.414504 182.576644 
L 255.98772 164.490777 
L 257.560936 124.018835 
L 259.134152 112.139642 
L 260.707368 130.036426 
L 262.280584 144.482359 
L 263.8538 166.62896 
L 265.427015 177.09131 
L 267.000231 172.967725 
L 270.146663 127.938519 
L 271.719879 128.786369 
L 273.293095 122.677908 
L 274.866311 122.191002 
L 278.012742 101.380426 
L 279.585958 92.920777 
L 281.159174 95.728361 
L 282.73239 103.429118 
L 284.305606 103.421062 
L 285.878822 99.173249 
L 287.452037 125.364693 
L 289.025253 122.894854 
L 290.598469 137.660993 
L 292.171685 126.239168 
L 293.744901 144.969174 
L 295.318117 158.787274 
L 300.037764 192.417977 
L 301.61098 187.179908 
L 303.184196 179.274438 
L 304.757412 169.102872 
L 306.330628 174.323932 
L 307.903844 180.537422 
L 309.477059 179.093089 
L 311.050275 177.016254 
L 312.623491 175.945572 
L 314.196707 179.341741 
L 315.769923 186.690977 
L 317.343139 185.008657 
L 318.916355 181.500116 
L 320.48957 185.120434 
L 322.062786 190.408934 
L 323.636002 189.34635 
L 325.209218 182.586025 
L 326.782434 176.722288 
L 328.35565 180.795687 
L 329.928866 182.867319 
L 331.502081 182.588559 
L 333.075297 177.813661 
L 334.648513 178.627416 
L 336.221729 186.772195 
L 337.794945 201.070407 
L 340.941377 210.176953 
L 342.514593 202.475196 
L 344.087808 205.840051 
L 345.661024 200.387265 
L 347.23424 197.367719 
L 348.807456 176.178793 
L 350.380672 164.631405 
L 351.953888 160.844646 
L 353.527104 179.0939 
L 355.100319 184.340999 
L 356.673535 193.618327 
L 358.246751 198.086057 
L 359.819967 213.171466 
L 361.393183 226.742021 
L 362.966399 234.545408 
L 364.539615 237.772363 
L 366.11283 237.220759 
L 369.259262 244.510701 
L 370.832478 246.170869 
L 372.405694 243.308324 
L 373.97891 243.308602 
L 375.552126 239.57356 
L 378.698557 230.83198 
L 380.271773 230.338839 
L 381.844989 230.229793 
L 383.418205 227.873376 
L 384.991421 220.967125 
L 386.564637 218.554873 
L 388.137852 224.100393 
L 389.711068 234.876181 
L 391.284284 237.536938 
L 391.284284 237.536938 
" clip-path="url(#pb20b660eab)" style="fill: none; stroke: #2ca02c; stroke-width: 1.5; stroke-linecap: square"/>
   </g>
   <g id="line2d_22">
    <path d="M 51.469659 239.293547 
L 53.042874 238.730459 
L 56.189306 221.182293 
L 57.762522 217.490668 
L 60.908954 195.384229 
L 62.48217 188.279304 
L 64.055385 172.865016 
L 65.628601 141.761611 
L 67.201817 137.437023 
L 68.775033 111.411876 
L 70.348249 91.224921 
L 71.921465 120.513227 
L 73.494681 118.037552 
L 75.067896 142.14279 
L 76.641112 175.512435 
L 67.201817 182.319106 
L 68.775033 195.174134 
L 70.348249 203.345497 
L 71.921465 203.485507 
L 76.641112 203.485507 
L 78.214328 206.137147 
L 79.787544 214.844656 
L 81.36076 229.054031 
L 82.933976 224.36112 
L 84.507192 229.360406 
L 86.080407 231.364991 
L 87.653623 227.933819 
L 89.226839 238.728971 
L 90.800055 238.67157 
L 92.373271 235.131195 
L 93.946487 234.685896 
L 95.519703 241.597259 
L 97.092919 238.301688 
L 98.666134 231.854947 
L 100.23935 213.371163 
L 101.812566 191.569087 
L 103.385782 177.544004 
L 104.958998 186.601484 
L 106.532214 192.450586 
L 108.10543 201.611975 
L 109.678645 211.542165 
L 111.251861 217.547087 
L 112.825077 224.529601 
L 114.398293 226.763947 
L 115.971509 208.285078 
L 117.544725 188.188793 
L 119.117941 177.749668 
L 120.691156 169.484944 
L 122.264372 188.662523 
L 123.837588 193.891814 
L 125.410804 196.569006 
L 126.98402 212.915302 
L 128.557236 227.680818 
L 130.130452 222.342086 
L 131.703667 222.899733 
L 133.276883 208.396635 
L 134.850099 195.610662 
L 136.423315 204.05462 
L 137.996531 206.278938 
L 139.569747 198.653895 
L 141.142963 200.615905 
L 142.716178 205.767256 
L 144.289394 201.199485 
L 145.86261 201.836598 
L 147.435826 196.704181 
L 149.009042 174.724675 
L 150.582258 159.966976 
L 152.155474 161.768305 
L 153.728689 153.543531 
L 156.875121 189.459172 
L 158.448337 188.501388 
L 160.021553 192.341668 
L 161.594769 198.179973 
L 163.167985 195.359065 
L 164.7412 197.193477 
L 166.314416 196.966186 
L 167.887632 182.527548 
L 169.460848 191.681838 
L 171.034064 204.236736 
L 172.60728 214.901393 
L 174.180496 235.582011 
L 175.753711 238.82231 
L 177.326927 240.181992 
L 178.900143 247.343495 
L 180.473359 244.295217 
L 182.046575 247.483428 
L 183.619791 244.837149 
L 185.193007 209.11071 
L 186.766222 182.66403 
L 188.339438 146.692016 
L 189.912654 118.643834 
L 191.48587 141.252048 
L 193.059086 145.911833 
L 194.632302 151.009525 
L 196.205518 171.518125 
L 199.351949 204.869346 
L 200.925165 212.855782 
L 202.498381 206.715435 
L 204.071597 199.049399 
L 205.644813 198.270626 
L 207.218029 201.112075 
L 208.791244 211.98849 
L 210.36446 217.328901 
L 211.937676 214.962706 
L 213.510892 220.344768 
L 215.084108 223.745418 
L 216.657324 228.822338 
L 218.23054 233.199349 
L 219.803756 229.999841 
L 221.376971 223.173383 
L 222.950187 229.388607 
L 224.523403 228.530485 
L 226.096619 232.796203 
L 227.669835 234.184613 
L 229.243051 231.551988 
L 230.816267 232.545614 
L 233.962698 235.74475 
L 235.535914 241.645205 
L 237.10913 241.898495 
L 238.682346 242.588926 
L 240.255562 244.351858 
L 241.828778 228.364081 
L 243.401993 222.698453 
L 244.975209 233.952613 
L 246.548425 226.898084 
L 248.121641 234.89403 
L 249.694857 233.542827 
L 251.268073 205.630915 
L 252.841289 204.937045 
L 254.414504 188.117721 
L 255.98772 166.816933 
L 257.560936 149.875228 
L 259.134152 125.346028 
L 260.707368 124.821819 
L 262.280584 133.749087 
L 263.8538 158.016299 
L 265.427015 172.652336 
L 267.000231 166.293887 
L 268.573447 162.397371 
L 271.719879 128.829186 
L 273.293095 123.53549 
L 274.866311 123.853134 
L 276.439526 117.085326 
L 278.012742 102.780145 
L 279.585958 102.048383 
L 281.159174 97.054266 
L 282.73239 96.063484 
L 284.305606 103.576043 
L 285.878822 101.675951 
L 287.452037 118.636813 
L 289.025253 118.331643 
L 292.171685 137.483118 
L 293.744901 133.745899 
L 295.318117 154.948825 
L 296.891333 162.250314 
L 298.464548 174.741755 
L 300.037764 189.815554 
L 301.61098 183.581238 
L 303.184196 181.602237 
L 304.757412 181.58711 
L 306.330628 169.342909 
L 307.903844 176.450061 
L 309.477059 181.45327 
L 311.050275 175.307118 
L 312.623491 177.650807 
L 314.196707 180.563087 
L 315.769923 181.191579 
L 317.343139 183.660574 
L 322.062786 186.519536 
L 323.636002 187.894484 
L 325.209218 186.284874 
L 326.782434 180.329164 
L 328.35565 180.613847 
L 329.928866 181.345357 
L 331.502081 180.331094 
L 333.075297 181.411708 
L 334.648513 179.728342 
L 336.221729 183.322119 
L 337.794945 195.626146 
L 339.368161 200.773198 
L 340.941377 206.905781 
L 342.514593 206.815867 
L 344.087808 204.376425 
L 345.661024 203.109346 
L 347.23424 197.060315 
L 348.807456 185.436037 
L 350.380672 172.693919 
L 351.953888 167.68247 
L 353.527104 170.707281 
L 355.100319 179.002175 
L 356.673535 189.530876 
L 358.246751 197.788401 
L 359.819967 205.403384 
L 361.393183 221.486771 
L 362.966399 228.847832 
L 364.539615 234.724285 
L 366.11283 238.681411 
L 367.686046 239.471668 
L 370.832478 244.992753 
L 372.405694 243.960479 
L 373.97891 244.042166 
L 375.552126 241.33926 
L 377.125341 235.526061 
L 378.698557 234.933979 
L 381.844989 228.283783 
L 383.418205 229.600094 
L 386.564637 219.387998 
L 388.137852 225.008908 
L 389.711068 229.807427 
L 391.284284 232.270923 
L 391.284284 232.270923 
" clip-path="url(#pb20b660eab)" style="fill: none; stroke: #d62728; stroke-width: 1.5; stroke-linecap: square"/>
   </g>
   <g id="line2d_23">
    <path d="M 53.042874 240.400362 
L 54.61609 234.802099 
L 56.189306 224.677528 
L 57.762522 217.389787 
L 59.335738 215.306986 
L 60.908954 200.079985 
L 62.48217 190.875575 
L 64.055385 178.91026 
L 65.628601 156.942801 
L 67.201817 144.718612 
L 68.775033 124.990602 
L 70.348249 100.621623 
L 71.921465 112.096124 
L 73.494681 126.274115 
L 75.067896 129.014427 
L 76.641112 156.330793 
L 67.201817 181.578017 
L 68.775033 186.827374 
L 70.348249 196.88049 
L 71.921465 203.373512 
L 73.494681 203.485507 
L 76.641112 203.485507 
L 78.214328 205.611467 
L 79.787544 212.660703 
L 81.36076 224.40943 
L 82.933976 220.493188 
L 86.080407 232.182211 
L 87.653623 234.094964 
L 89.226839 229.007797 
L 90.800055 237.806876 
L 92.373271 236.690974 
L 93.946487 236.683916 
L 95.519703 239.978788 
L 97.092919 237.461589 
L 98.666134 231.155811 
L 101.812566 208.802 
L 103.385782 186.901751 
L 104.958998 188.581017 
L 106.532214 185.712154 
L 108.10543 199.110064 
L 109.678645 203.699298 
L 111.251861 219.099734 
L 112.825077 217.18994 
L 114.398293 225.94075 
L 115.971509 208.976764 
L 117.544725 201.986342 
L 119.117941 186.278764 
L 120.691156 184.485527 
L 122.264372 174.217557 
L 123.837588 189.995349 
L 125.410804 193.118664 
L 126.98402 212.045014 
L 128.557236 221.365159 
L 130.130452 217.408095 
L 131.703667 217.027254 
L 133.276883 220.451184 
L 136.423315 196.984478 
L 137.996531 203.713259 
L 139.569747 201.021611 
L 141.142963 202.579571 
L 142.716178 205.088742 
L 144.289394 201.428065 
L 145.86261 197.324719 
L 147.435826 201.070357 
L 149.009042 185.500259 
L 150.582258 164.727896 
L 152.155474 165.716487 
L 153.728689 163.517934 
L 155.301905 163.870382 
L 156.875121 177.42458 
L 158.448337 188.160091 
L 160.021553 188.204687 
L 161.594769 198.412691 
L 163.167985 196.170768 
L 164.7412 194.442924 
L 166.314416 195.03417 
L 167.887632 190.972833 
L 169.460848 190.916666 
L 171.034064 201.645182 
L 172.60728 209.649386 
L 174.180496 224.416809 
L 175.753711 235.31909 
L 177.326927 239.096612 
L 178.900143 243.975686 
L 180.473359 246.552127 
L 182.046575 245.001562 
L 183.619791 243.927488 
L 188.339438 174.128825 
L 189.912654 147.534525 
L 191.48587 123.128885 
L 193.059086 144.560907 
L 194.632302 147.840072 
L 196.205518 167.592735 
L 197.778733 179.804818 
L 199.351949 196.562866 
L 202.498381 209.411471 
L 204.071597 201.047058 
L 205.644813 204.100494 
L 207.218029 200.130046 
L 208.791244 208.696983 
L 210.36446 210.025232 
L 211.937676 216.484912 
L 213.510892 217.856346 
L 215.084108 226.034368 
L 216.657324 223.941296 
L 218.23054 229.479886 
L 219.803756 229.739965 
L 221.376971 228.18071 
L 222.950187 228.472707 
L 224.523403 229.24806 
L 226.096619 229.405513 
L 227.669835 231.607466 
L 229.243051 234.882461 
L 230.816267 231.785771 
L 232.389482 233.878633 
L 233.962698 234.004224 
L 235.535914 240.855365 
L 237.10913 240.137526 
L 238.682346 241.887576 
L 240.255562 242.281904 
L 241.828778 235.331125 
L 243.401993 225.028131 
L 244.975209 235.588241 
L 246.548425 229.904695 
L 248.121641 227.018012 
L 249.694857 229.336656 
L 251.268073 223.831318 
L 252.841289 206.351114 
L 254.414504 197.091109 
L 255.98772 174.940637 
L 257.560936 154.898494 
L 259.134152 145.935926 
L 260.707368 132.4708 
L 262.280584 128.914886 
L 265.427015 164.821225 
L 267.000231 164.769205 
L 268.573447 158.959719 
L 270.146663 156.16435 
L 271.719879 142.785296 
L 273.293095 124.63174 
L 274.866311 124.301808 
L 276.439526 119.474072 
L 278.012742 108.840416 
L 279.585958 103.032755 
L 281.159174 103.460286 
L 282.73239 97.056597 
L 284.305606 97.676551 
L 285.878822 102.150838 
L 287.452037 116.7481 
L 289.025253 114.243049 
L 290.598469 123.495366 
L 292.171685 129.895498 
L 293.744901 141.040979 
L 295.318117 144.470615 
L 296.891333 158.550753 
L 298.464548 167.843638 
L 300.037764 183.40882 
L 301.61098 183.206788 
L 303.184196 179.771721 
L 304.757412 182.969113 
L 306.330628 179.352314 
L 307.903844 172.100109 
L 309.477059 178.026273 
L 311.050275 178.002276 
L 312.623491 176.16304 
L 314.196707 180.983052 
L 315.769923 181.791479 
L 317.343139 179.813194 
L 320.48957 187.148108 
L 322.062786 186.536004 
L 323.636002 185.25233 
L 325.209218 185.72155 
L 326.782434 183.78759 
L 328.35565 182.67566 
L 331.502081 179.60838 
L 333.075297 179.832848 
L 334.648513 182.202964 
L 336.221729 183.254136 
L 337.794945 191.289907 
L 339.368161 196.487729 
L 340.941377 202.873164 
L 342.514593 204.825587 
L 344.087808 207.440371 
L 345.661024 202.469657 
L 347.23424 199.96143 
L 348.807456 187.644062 
L 350.380672 180.988975 
L 351.953888 173.461394 
L 353.527104 174.011768 
L 355.100319 172.345451 
L 356.673535 184.378806 
L 359.819967 203.747246 
L 362.966399 224.31944 
L 366.11283 236.090399 
L 367.686046 240.172669 
L 369.259262 240.86231 
L 370.832478 243.133755 
L 372.405694 243.445419 
L 373.97891 244.414332 
L 375.552126 242.335465 
L 377.125341 237.819064 
L 378.698557 235.341461 
L 380.271773 234.693331 
L 381.844989 229.696207 
L 383.418205 228.164506 
L 384.991421 226.459846 
L 386.564637 222.423999 
L 388.137852 224.384656 
L 389.711068 229.386839 
L 391.284284 228.672641 
L 391.284284 228.672641 
" clip-path="url(#pb20b660eab)" style="fill: none; stroke: #9467bd; stroke-width: 1.5; stroke-linecap: square"/>
   </g>
   <g id="line2d_24">
    <path d="M 54.61609 236.915144 
L 56.189306 229.856341 
L 57.762522 221.040417 
L 59.335738 215.5885 
L 60.908954 208.938391 
L 64.055385 182.804589 
L 65.628601 165.197508 
L 67.201817 156.799054 
L 68.775033 133.542478 
L 70.348249 114.309696 
L 71.921465 116.020895 
L 73.494681 118.498757 
L 75.067896 133.808053 
L 76.641112 143.873732 
L 67.201817 165.296879 
L 68.775033 185.484897 
L 70.348249 189.75378 
L 71.921465 198.005636 
L 73.494681 203.392185 
L 76.641112 203.485507 
L 78.214328 205.259729 
L 79.787544 211.180853 
L 81.36076 221.189499 
L 82.933976 217.83278 
L 84.507192 222.924212 
L 86.080407 229.336277 
L 87.653623 234.310537 
L 89.226839 233.944235 
L 90.800055 229.861746 
L 92.373271 236.290547 
L 93.946487 237.710037 
L 95.519703 240.705276 
L 97.092919 236.763125 
L 98.666134 231.639244 
L 100.23935 221.392225 
L 101.812566 215.273646 
L 103.385782 202.634097 
L 104.958998 194.150347 
L 106.532214 187.521154 
L 108.10543 192.665762 
L 109.678645 201.301674 
L 111.251861 211.737664 
L 112.825077 218.548546 
L 114.398293 219.697428 
L 115.971509 211.362548 
L 117.544725 203.661534 
L 119.117941 198.331339 
L 120.691156 190.254844 
L 122.264372 185.724112 
L 123.837588 177.935297 
L 125.410804 189.992857 
L 126.98402 207.021969 
L 128.557236 219.32303 
L 130.130452 213.502715 
L 131.703667 213.661118 
L 133.276883 215.895763 
L 134.850099 218.797484 
L 136.423315 207.70086 
L 137.996531 197.892651 
L 139.569747 199.701282 
L 141.142963 203.858939 
L 142.716178 205.944062 
L 144.289394 201.579857 
L 145.86261 198.174244 
L 147.435826 197.430424 
L 149.009042 191.344472 
L 150.582258 175.969845 
L 152.155474 168.633927 
L 153.728689 166.495082 
L 155.301905 170.126402 
L 156.875121 170.413912 
L 158.448337 178.340969 
L 160.021553 187.969313 
L 161.594769 194.11284 
L 163.167985 196.70433 
L 164.7412 195.276798 
L 166.314416 193.076463 
L 167.887632 190.320555 
L 169.460848 196.279199 
L 171.034064 199.440108 
L 172.60728 206.688981 
L 174.180496 218.844767 
L 175.753711 226.12806 
L 177.326927 236.14895 
L 178.900143 242.48537 
L 180.473359 243.864415 
L 182.046575 246.75576 
L 183.619791 242.390389 
L 185.193007 224.459235 
L 186.766222 210.396559 
L 188.339438 188.774788 
L 189.912654 170.478689 
L 191.48587 146.319326 
L 193.059086 129.254707 
L 196.205518 162.515807 
L 199.351949 188.518689 
L 200.925165 196.489795 
L 202.498381 201.772625 
L 204.071597 204.350324 
L 205.644813 204.884143 
L 207.218029 204.639701 
L 208.791244 206.689654 
L 210.36446 207.579049 
L 211.937676 210.533692 
L 213.510892 218.621602 
L 215.084108 223.131988 
L 216.657324 225.816675 
L 218.23054 225.342805 
L 219.803756 227.13996 
L 221.376971 228.266342 
L 222.950187 231.617517 
L 224.523403 228.507924 
L 226.096619 229.854074 
L 227.669835 228.959503 
L 229.243051 232.637539 
L 230.816267 234.52478 
L 232.389482 233.03259 
L 233.962698 233.809133 
L 235.535914 238.645137 
L 237.10913 239.723156 
L 238.682346 240.424315 
L 240.255562 241.747304 
L 241.828778 235.02207 
L 243.401993 231.600131 
L 244.975209 235.297726 
L 246.548425 232.00671 
L 248.121641 229.507438 
L 249.694857 223.437385 
L 251.268073 221.721767 
L 252.841289 221.525586 
L 254.414504 199.676485 
L 255.98772 185.33716 
L 257.560936 164.16733 
L 259.134152 150.872961 
L 260.707368 148.097805 
L 262.280584 134.524404 
L 263.8538 141.388556 
L 265.427015 155.180629 
L 267.000231 159.3341 
L 268.573447 158.887031 
L 270.146663 154.269009 
L 271.719879 152.279484 
L 273.293095 137.245974 
L 274.866311 125.085357 
L 276.439526 120.59118 
L 278.012742 112.294857 
L 281.159174 104.04188 
L 282.73239 102.407123 
L 284.305606 98.231537 
L 285.878822 97.457308 
L 287.452037 114.68193 
L 289.025253 113.381254 
L 290.598469 119.312948 
L 292.171685 125.802409 
L 293.744901 134.25013 
L 295.318117 148.539013 
L 296.891333 149.420695 
L 298.464548 163.935785 
L 300.037764 176.548393 
L 301.61098 178.796948 
L 303.184196 180.094732 
L 304.757412 181.23045 
L 306.330628 180.894658 
L 307.903844 179.907299 
L 309.477059 174.180371 
L 311.050275 175.676138 
L 312.623491 178.259389 
L 314.196707 179.217468 
L 315.769923 181.935054 
L 317.343139 180.547901 
L 318.916355 180.424941 
L 320.48957 185.907913 
L 322.062786 187.735242 
L 323.636002 185.478158 
L 325.209218 183.858895 
L 326.782434 183.730611 
L 328.35565 185.136087 
L 329.928866 182.726741 
L 331.502081 179.684909 
L 333.075297 179.312274 
L 334.648513 180.762885 
L 336.221729 184.695908 
L 337.794945 189.93964 
L 339.368161 192.760842 
L 340.941377 199.014513 
L 342.514593 201.774794 
L 344.087808 205.687512 
L 345.661024 205.381751 
L 347.23424 199.947414 
L 350.380672 183.630887 
L 351.953888 180.249168 
L 353.527104 177.643528 
L 355.100319 174.807967 
L 356.673535 178.139445 
L 359.819967 199.578267 
L 361.393183 211.375017 
L 362.966399 217.847466 
L 364.539615 226.230627 
L 367.686046 237.802896 
L 369.259262 241.208791 
L 370.832478 241.815295 
L 372.405694 242.134437 
L 373.97891 243.911864 
L 375.552126 242.938037 
L 377.125341 239.275657 
L 378.698557 237.290457 
L 381.844989 232.668733 
L 383.418205 229.364052 
L 384.991421 225.762931 
L 386.564637 224.560886 
L 388.137852 226.004756 
L 389.711068 228.169644 
L 391.284284 228.508883 
L 391.284284 228.508883 
" clip-path="url(#pb20b660eab)" style="fill: none; stroke: #8c564b; stroke-width: 1.5; stroke-linecap: square"/>
   </g>
   <g id="line2d_25">
    <path d="M 56.189306 232.477684 
L 57.762522 226.16085 
L 59.335738 219.029124 
L 60.908954 210.123474 
L 62.48217 204.175587 
L 64.055385 188.322586 
L 65.628601 170.843024 
L 67.201817 163.925463 
L 68.775033 146.134584 
L 70.348249 123.556924 
L 71.921465 124.977138 
L 73.494681 120.877739 
L 75.067896 126.319137 
L 76.641112 145.669655 
L 67.201817 153.907122 
L 70.348249 188.210452 
L 71.921465 191.8062 
L 73.494681 198.803284 
L 75.067896 203.405521 
L 76.641112 203.485507 
L 78.214328 205.007856 
L 79.787544 210.111956 
L 81.36076 218.826981 
L 82.933976 215.891344 
L 84.507192 220.349352 
L 87.653623 231.622996 
L 89.226839 234.150851 
L 90.800055 233.954995 
L 92.373271 229.64113 
L 93.946487 237.225438 
L 95.519703 240.988142 
L 97.092919 237.872896 
L 98.666134 231.861909 
L 100.23935 223.297546 
L 101.812566 217.237348 
L 103.385782 209.355604 
L 104.958998 206.126015 
L 106.532214 192.492593 
L 108.10543 193.179596 
L 109.678645 195.568836 
L 111.251861 208.68699 
L 112.825077 212.319635 
L 114.398293 220.485212 
L 115.971509 207.579301 
L 117.544725 206.563183 
L 119.117941 200.333666 
L 120.691156 199.835777 
L 122.264372 190.470295 
L 123.837588 187.118577 
L 125.410804 179.719424 
L 126.98402 202.696703 
L 128.557236 214.257504 
L 130.130452 212.800812 
L 131.703667 210.766382 
L 133.276883 213.153475 
L 134.850099 215.090119 
L 136.423315 216.587873 
L 137.996531 206.949297 
L 139.569747 195.170031 
L 141.142963 202.348862 
L 142.716178 206.54075 
L 144.289394 202.839094 
L 145.86261 198.777283 
L 147.435826 198.143324 
L 149.009042 189.458213 
L 150.582258 182.686204 
L 152.155474 177.565209 
L 153.728689 168.877575 
L 155.301905 171.664726 
L 156.875121 174.685858 
L 158.448337 172.252988 
L 160.021553 179.612062 
L 161.594769 193.090374 
L 163.167985 193.23068 
L 164.7412 195.865067 
L 166.314416 193.993998 
L 167.887632 189.276209 
L 169.460848 194.994193 
L 171.034064 202.614784 
L 172.60728 204.159583 
L 174.180496 215.217548 
L 175.753711 221.196833 
L 177.326927 228.269747 
L 178.900143 239.573937 
L 180.473359 242.60307 
L 182.046575 244.433553 
L 183.619791 244.316233 
L 185.193007 225.921218 
L 186.766222 215.216848 
L 188.339438 201.766519 
L 193.059086 147.917677 
L 194.632302 133.214037 
L 196.205518 159.35422 
L 197.778733 170.096613 
L 199.351949 183.682749 
L 200.925165 189.631901 
L 202.498381 196.214305 
L 204.071597 198.326376 
L 205.644813 207.105006 
L 207.218029 205.23227 
L 208.791244 209.4751 
L 210.36446 206.006855 
L 211.937676 208.37551 
L 213.510892 213.322819 
L 215.084108 223.023065 
L 216.657324 223.36052 
L 218.23054 226.734334 
L 219.803756 223.868682 
L 221.376971 226.22465 
L 222.950187 231.20525 
L 224.523403 231.203921 
L 226.096619 229.137101 
L 227.669835 229.409483 
L 229.243051 230.247222 
L 232.389482 235.181331 
L 233.962698 233.093891 
L 235.535914 237.836934 
L 237.10913 237.973193 
L 238.682346 240.029375 
L 240.255562 240.51289 
L 241.828778 235.604671 
L 243.401993 231.868232 
L 244.975209 239.05828 
L 246.548425 232.26953 
L 248.121641 231.375291 
L 249.694857 226.16085 
L 251.268073 217.47091 
L 252.841289 220.017598 
L 254.414504 214.411244 
L 255.98772 189.472133 
L 257.560936 175.255129 
L 259.134152 159.590986 
L 260.707368 151.986926 
L 262.280584 147.583949 
L 263.8538 144.211144 
L 265.427015 149.163796 
L 267.000231 151.660351 
L 268.573447 154.947424 
L 270.146663 154.883308 
L 271.719879 151.18473 
L 273.293095 146.427898 
L 274.866311 135.86148 
L 276.439526 121.807832 
L 278.012742 114.321997 
L 281.159174 108.186752 
L 282.73239 103.058508 
L 284.305606 102.63771 
L 285.878822 97.96482 
L 287.452037 109.112638 
L 289.025253 112.071348 
L 290.598469 117.872939 
L 292.171685 121.929841 
L 293.744901 130.197797 
L 295.318117 141.883986 
L 296.891333 152.132757 
L 298.464548 155.597394 
L 300.037764 172.150014 
L 301.61098 173.44178 
L 303.184196 176.701282 
L 304.757412 181.297492 
L 306.330628 179.685308 
L 307.903844 181.146849 
L 309.477059 180.523487 
L 311.050275 172.678864 
L 312.623491 176.23406 
L 314.196707 180.552088 
L 315.769923 180.295933 
L 317.343139 180.850197 
L 318.916355 180.965415 
L 320.48957 182.888656 
L 322.062786 186.593036 
L 323.636002 186.665029 
L 325.209218 184.254037 
L 326.782434 182.402262 
L 328.35565 184.895794 
L 329.928866 184.830346 
L 331.502081 181.301816 
L 333.075297 179.420325 
L 334.648513 180.186736 
L 336.221729 183.127383 
L 337.794945 190.190883 
L 339.368161 191.406024 
L 340.941377 195.522206 
L 342.514593 198.606924 
L 344.087808 202.970449 
L 345.661024 204.154762 
L 347.23424 202.855062 
L 348.807456 193.009788 
L 351.953888 182.632501 
L 353.527104 182.752318 
L 355.100319 177.798748 
L 356.673535 179.369826 
L 358.246751 183.095827 
L 361.393183 206.942724 
L 362.966399 215.076915 
L 364.539615 220.526635 
L 366.11283 228.546758 
L 367.686046 234.230273 
L 369.259262 239.055402 
L 370.832478 241.974017 
L 372.405694 241.137389 
L 373.97891 242.728433 
L 375.552126 242.713368 
L 377.125341 240.252566 
L 378.698557 238.622617 
L 380.271773 236.789617 
L 381.844989 233.293248 
L 383.418205 231.972745 
L 384.991421 227.160408 
L 386.564637 224.227528 
L 388.137852 227.280557 
L 389.711068 228.983281 
L 391.284284 227.584272 
L 391.284284 227.584272 
" clip-path="url(#pb20b660eab)" style="fill: none; stroke: #e377c2; stroke-width: 1.5; stroke-linecap: square"/>
   </g>
   <g id="patch_3">
    <path d="M 35.7375 284.991437 
L 35.7375 18.879437 
" style="fill: none; stroke: #000000; stroke-width: 0.8; stroke-linejoin: miter; stroke-linecap: square"/>
   </g>
   <g id="patch_4">
    <path d="M 392.8575 284.991437 
L 392.8575 18.879437 
" style="fill: none; stroke: #000000; stroke-width: 0.8; stroke-linejoin: miter; stroke-linecap: square"/>
   </g>
   <g id="patch_5">
    <path d="M 35.7375 284.991437 
L 392.8575 284.991437 
" style="fill: none; stroke: #000000; stroke-width: 0.8; stroke-linejoin: miter; stroke-linecap: square"/>
   </g>
   <g id="patch_6">
    <path d="M 35.7375 18.879437 
L 392.8575 18.879437 
" style="fill: none; stroke: #000000; stroke-width: 0.8; stroke-linejoin: miter; stroke-linecap: square"/>
   </g>
   <g id="legend_1">
    <g id="patch_7">
     <path d="M 347.559063 127.613812 
L 385.8575 127.613812 
Q 387.8575 127.613812 387.8575 125.613812 
L 387.8575 25.879437 
Q 387.8575 23.879437 385.8575 23.879437 
L 347.559063 23.879437 
Q 345.559063 23.879437 345.559063 25.879437 
L 345.559063 125.613812 
Q 345.559063 127.613812 347.559063 127.613812 
z
" style="fill: #ffffff; opacity: 0.8; stroke: #cccccc; stroke-linejoin: miter"/>
    </g>
    <g id="line2d_26">
     <path d="M 349.559063 31.870062 
L 359.559063 31.870062 
L 369.559063 31.870062 
" style="fill: none; stroke: #1f77b4; stroke-width: 1.5; stroke-linecap: square"/>
    </g>
    <g id="text_19">
     <!-- 1 -->
     <g transform="translate(377.559063 35.370062)scale(0.1 -0.1)">
      <use xlink:href="#IPAexGothic-31"/>
     </g>
    </g>
    <g id="line2d_27">
     <path d="M 349.559063 46.260687 
L 359.559063 46.260687 
L 369.559063 46.260687 
" style="fill: none; stroke: #ff7f0e; stroke-width: 1.5; stroke-linecap: square"/>
    </g>
    <g id="text_20">
     <!-- 2 -->
     <g transform="translate(377.559063 49.760687)scale(0.1 -0.1)">
      <use xlink:href="#IPAexGothic-32"/>
     </g>
    </g>
    <g id="line2d_28">
     <path d="M 349.559063 60.651312 
L 359.559063 60.651312 
L 369.559063 60.651312 
" style="fill: none; stroke: #2ca02c; stroke-width: 1.5; stroke-linecap: square"/>
    </g>
    <g id="text_21">
     <!-- 3 -->
     <g transform="translate(377.559063 64.151312)scale(0.1 -0.1)">
      <defs>
       <path id="IPAexGothic-33" d="M 2381 2419 
Q 3506 2216 3506 1278 
Q 3506 716 3128 356 
Q 2709 -31 1944 -31 
Q 797 -31 288 881 
L 756 1131 
Q 1109 441 1938 441 
Q 2425 441 2694 691 
Q 2950 928 2950 1291 
Q 2950 1719 2566 1978 
Q 2216 2213 1644 2213 
L 1363 2213 
L 1363 2669 
L 1656 2669 
Q 2231 2669 2534 2888 
Q 2859 3119 2859 3509 
Q 2859 3934 2494 4138 
Q 2259 4278 1931 4278 
Q 1238 4278 903 3578 
L 434 3803 
Q 897 4725 1938 4725 
Q 2597 4725 3006 4394 
Q 3416 4069 3416 3534 
Q 3416 3028 3019 2706 
Q 2763 2500 2381 2444 
L 2381 2419 
z
" transform="scale(0.015625)"/>
      </defs>
      <use xlink:href="#IPAexGothic-33"/>
     </g>
    </g>
    <g id="line2d_29">
     <path d="M 349.559063 75.041937 
L 359.559063 75.041937 
L 369.559063 75.041937 
" style="fill: none; stroke: #d62728; stroke-width: 1.5; stroke-linecap: square"/>
    </g>
    <g id="text_22">
     <!-- 4 -->
     <g transform="translate(377.559063 78.541937)scale(0.1 -0.1)">
      <defs>
       <path id="IPAexGothic-34" d="M 3813 1159 
L 3059 1159 
L 3059 63 
L 2547 63 
L 2547 1159 
L 197 1159 
L 197 1672 
L 2456 4678 
L 3059 4678 
L 3059 1634 
L 3813 1634 
L 3813 1159 
z
M 2578 4109 
L 2559 4109 
Q 2278 3656 2003 3284 
L 759 1634 
L 2547 1634 
L 2547 3144 
Q 2547 3481 2578 4109 
z
" transform="scale(0.015625)"/>
      </defs>
      <use xlink:href="#IPAexGothic-34"/>
     </g>
    </g>
    <g id="line2d_30">
     <path d="M 349.559063 89.432562 
L 359.559063 89.432562 
L 369.559063 89.432562 
" style="fill: none; stroke: #9467bd; stroke-width: 1.5; stroke-linecap: square"/>
    </g>
    <g id="text_23">
     <!-- 5 -->
     <g transform="translate(377.559063 92.932562)scale(0.1 -0.1)">
      <use xlink:href="#IPAexGothic-35"/>
     </g>
    </g>
    <g id="line2d_31">
     <path d="M 349.559063 103.823187 
L 359.559063 103.823187 
L 369.559063 103.823187 
" style="fill: none; stroke: #8c564b; stroke-width: 1.5; stroke-linecap: square"/>
    </g>
    <g id="text_24">
     <!-- 6 -->
     <g transform="translate(377.559063 107.323187)scale(0.1 -0.1)">
      <defs>
       <path id="IPAexGothic-36" d="M 1056 2328 
Q 1509 2981 2234 2981 
Q 2906 2981 3316 2513 
Q 3675 2106 3675 1522 
Q 3675 884 3272 434 
Q 2853 -31 2178 -31 
Q 1375 -31 922 581 
Q 481 1178 481 2228 
Q 481 3425 1013 4109 
Q 1494 4725 2272 4725 
Q 3191 4725 3609 4025 
L 3150 3775 
Q 2894 4266 2300 4266 
Q 1119 4266 1031 2328 
L 1056 2328 
z
M 2141 2547 
Q 1684 2547 1384 2206 
Q 1116 1900 1116 1541 
Q 1116 1156 1353 844 
Q 1672 428 2159 428 
Q 2669 428 2941 844 
Q 3125 1128 3125 1503 
Q 3125 1944 2881 2228 
Q 2600 2547 2141 2547 
z
" transform="scale(0.015625)"/>
      </defs>
      <use xlink:href="#IPAexGothic-36"/>
     </g>
    </g>
    <g id="line2d_32">
     <path d="M 349.559063 118.213812 
L 359.559063 118.213812 
L 369.559063 118.213812 
" style="fill: none; stroke: #e377c2; stroke-width: 1.5; stroke-linecap: square"/>
    </g>
    <g id="text_25">
     <!-- 7 -->
     <g transform="translate(377.559063 121.713812)scale(0.1 -0.1)">
      <use xlink:href="#IPAexGothic-37"/>
     </g>
    </g>
   </g>
  </g>
  <g id="axes_2">
   <g id="matplotlib.axis_3"/>
   <g id="patch_8">
    <path d="M 35.7375 284.991437 
L 35.7375 18.879437 
" style="fill: none; stroke: #000000; stroke-width: 0.8; stroke-linejoin: miter; stroke-linecap: square"/>
   </g>
   <g id="patch_9">
    <path d="M 392.8575 284.991437 
L 392.8575 18.879437 
" style="fill: none; stroke: #000000; stroke-width: 0.8; stroke-linejoin: miter; stroke-linecap: square"/>
   </g>
   <g id="patch_10">
    <path d="M 35.7375 284.991437 
L 392.8575 284.991437 
" style="fill: none; stroke: #000000; stroke-width: 0.8; stroke-linejoin: miter; stroke-linecap: square"/>
   </g>
   <g id="patch_11">
    <path d="M 35.7375 18.879437 
L 392.8575 18.879437 
" style="fill: none; stroke: #000000; stroke-width: 0.8; stroke-linejoin: miter; stroke-linecap: square"/>
   </g>
  </g>
  <g id="text_26">
   <!-- : 2022/09/15 15:41:31(JST) -->
   <g transform="translate(217.385625 15.423437)scale(0.1 -0.1)">
    <defs>
     <path id="IPAexGothic-66f4" d="M 2956 3994 
L 2956 4588 
L 513 4588 
L 513 4984 
L 5881 4984 
L 5881 4588 
L 3413 4588 
L 3413 3994 
L 5300 3994 
L 5300 1288 
L 4838 1288 
L 4838 1759 
L 3406 1759 
Q 3384 1125 3150 709 
Q 4291 244 5997 31 
L 5694 -428 
Q 4109 -166 2906 384 
Q 2294 -266 744 -488 
L 494 -66 
Q 1903 59 2491 588 
Q 2041 813 1594 1166 
L 1928 1434 
Q 2331 1106 2747 897 
Q 2922 1219 2950 1759 
L 1556 1759 
L 1556 1413 
L 1097 1413 
L 1097 3994 
L 2956 3994 
z
M 2956 3609 
L 1556 3609 
L 1556 3078 
L 2956 3078 
L 2956 3609 
z
M 3413 3609 
L 3413 3078 
L 4838 3078 
L 4838 3609 
L 3413 3609 
z
M 2956 2700 
L 1556 2700 
L 1556 2144 
L 2956 2144 
L 2956 2700 
z
M 3413 2700 
L 3413 2144 
L 4838 2144 
L 4838 2700 
L 3413 2700 
z
" transform="scale(0.015625)"/>
     <path id="IPAexGothic-65b0" d="M 3891 2803 
Q 3881 1759 3794 1166 
Q 3653 197 3097 -563 
L 2741 -250 
Q 3450 700 3450 2631 
L 3450 4647 
Q 3516 4656 3622 4666 
Q 4656 4778 5447 5063 
L 5825 4678 
Q 4897 4419 3891 4294 
L 3891 3219 
L 6119 3219 
L 6119 2803 
L 5275 2803 
L 5275 -447 
L 4834 -447 
L 4834 2803 
L 3891 2803 
z
M 2822 4069 
Q 2678 3572 2519 3181 
L 3250 3181 
L 3250 2784 
L 2059 2784 
L 2059 2216 
L 3184 2216 
L 3184 1831 
L 2059 1831 
L 2059 1544 
Q 2613 1197 3031 847 
L 2781 456 
Q 2472 791 2059 1128 
L 2059 -447 
L 1644 -447 
L 1644 1294 
Q 1272 628 575 -31 
L 269 341 
Q 1041 938 1528 1831 
L 453 1831 
L 453 2216 
L 1644 2216 
L 1644 2784 
L 319 2784 
L 319 3181 
L 1125 3181 
Q 1013 3706 881 4069 
L 453 4069 
L 453 4453 
L 1631 4453 
L 1631 5309 
L 2072 5309 
L 2072 4453 
L 3166 4453 
L 3166 4069 
L 2822 4069 
z
M 2391 4069 
L 1325 4069 
Q 1450 3672 1534 3181 
L 2109 3181 
Q 2294 3659 2391 4069 
z
" transform="scale(0.015625)"/>
     <path id="IPAexGothic-65e5" d="M 5231 4800 
L 5231 -288 
L 4744 -288 
L 4744 128 
L 1647 128 
L 1647 -288 
L 1159 -288 
L 1159 4800 
L 5231 4800 
z
M 1647 4372 
L 1647 2731 
L 4744 2731 
L 4744 4372 
L 1647 4372 
z
M 1647 2297 
L 1647 556 
L 4744 556 
L 4744 2297 
L 1647 2297 
z
" transform="scale(0.015625)"/>
     <path id="IPAexGothic-6642" d="M 2328 4728 
L 2328 563 
L 934 563 
L 934 56 
L 519 56 
L 519 4728 
L 2328 4728 
z
M 934 4331 
L 934 2881 
L 1906 2881 
L 1906 4331 
L 934 4331 
z
M 934 2497 
L 934 953 
L 1906 953 
L 1906 2497 
L 934 2497 
z
M 3938 4372 
L 3938 5313 
L 4378 5313 
L 4378 4372 
L 5772 4372 
L 5772 3981 
L 4378 3981 
L 4378 3194 
L 6072 3194 
L 6072 2803 
L 5203 2803 
L 5203 2047 
L 5959 2047 
L 5959 1650 
L 5216 1650 
L 5216 31 
Q 5216 -447 4691 -447 
Q 4394 -447 3888 -391 
L 3784 78 
Q 4272 0 4591 0 
Q 4775 0 4775 172 
L 4775 1650 
L 2581 1650 
L 2581 2047 
L 4763 2047 
L 4763 2803 
L 2538 2803 
L 2538 3194 
L 3938 3194 
L 3938 3981 
L 2716 3981 
L 2716 4372 
L 3938 4372 
z
M 3669 384 
Q 3331 950 2956 1325 
L 3291 1575 
Q 3719 1147 4025 659 
L 3669 384 
z
" transform="scale(0.015625)"/>
     <path id="IPAexGothic-3a" d="M 1369 2559 
L 672 2559 
L 672 3250 
L 1369 3250 
L 1369 2559 
z
M 1369 63 
L 672 63 
L 672 753 
L 1369 753 
L 1369 63 
z
" transform="scale(0.015625)"/>
     <path id="IPAexGothic-20" transform="scale(0.015625)"/>
     <path id="IPAexGothic-2f" d="M 2719 4709 
L 600 -884 
L 300 -763 
L 2413 4831 
L 2719 4709 
z
" transform="scale(0.015625)"/>
     <path id="IPAexGothic-39" d="M 2984 2356 
Q 2544 1716 1813 1716 
Q 1253 1716 847 2056 
Q 366 2459 366 3163 
Q 366 3813 769 4266 
Q 1181 4725 1869 4725 
Q 2800 4725 3241 3950 
Q 3559 3378 3559 2472 
Q 3559 1250 3041 588 
Q 2553 -31 1769 -31 
Q 859 -31 391 703 
L 853 953 
Q 1156 428 1753 428 
Q 2922 428 3009 2356 
L 2984 2356 
z
M 1888 4278 
Q 1450 4278 1172 3950 
Q 922 3653 922 3200 
Q 922 2741 1159 2478 
Q 1434 2163 1906 2163 
Q 2431 2163 2728 2572 
Q 2925 2847 2925 3169 
Q 2925 3553 2694 3863 
Q 2375 4278 1888 4278 
z
" transform="scale(0.015625)"/>
     <path id="IPAexGothic-28" d="M 1928 -1016 
L 1653 -1166 
Q 488 69 488 1875 
Q 488 3678 1653 4909 
L 1928 4763 
Q 1006 3522 1006 1881 
Q 1006 203 1928 -1016 
z
" transform="scale(0.015625)"/>
     <path id="IPAexGothic-54" d="M 3866 4141 
L 2175 4141 
L 2175 63 
L 1606 63 
L 1606 4141 
L -31 4141 
L -31 4634 
L 3866 4634 
L 3866 4141 
z
" transform="scale(0.015625)"/>
     <path id="IPAexGothic-29" d="M 466 4909 
Q 1638 3672 1638 1875 
Q 1638 75 466 -1166 
L 191 -1016 
Q 1119 216 1119 1881 
Q 1119 3509 191 4763 
L 466 4909 
z
" transform="scale(0.015625)"/>
    </defs>
    <use xlink:href="#IPAexGothic-66f4"/>
    <use xlink:href="#IPAexGothic-65b0" x="100"/>
    <use xlink:href="#IPAexGothic-65e5" x="200"/>
    <use xlink:href="#IPAexGothic-6642" x="300"/>
    <use xlink:href="#IPAexGothic-3a" x="400"/>
    <use xlink:href="#IPAexGothic-20" x="431.982422"/>
    <use xlink:href="#IPAexGothic-32" x="458.984375"/>
    <use xlink:href="#IPAexGothic-30" x="521.972656"/>
    <use xlink:href="#IPAexGothic-32" x="584.960938"/>
    <use xlink:href="#IPAexGothic-32" x="647.949219"/>
    <use xlink:href="#IPAexGothic-2f" x="710.9375"/>
    <use xlink:href="#IPAexGothic-30" x="760.9375"/>
    <use xlink:href="#IPAexGothic-39" x="823.925781"/>
    <use xlink:href="#IPAexGothic-2f" x="886.914062"/>
    <use xlink:href="#IPAexGothic-31" x="936.914062"/>
    <use xlink:href="#IPAexGothic-35" x="999.902344"/>
    <use xlink:href="#IPAexGothic-20" x="1062.890625"/>
    <use xlink:href="#IPAexGothic-31" x="1089.892578"/>
    <use xlink:href="#IPAexGothic-35" x="1152.880859"/>
    <use xlink:href="#IPAexGothic-3a" x="1215.869141"/>
    <use xlink:href="#IPAexGothic-34" x="1247.851562"/>
    <use xlink:href="#IPAexGothic-31" x="1310.839844"/>
    <use xlink:href="#IPAexGothic-3a" x="1373.828125"/>
    <use xlink:href="#IPAexGothic-33" x="1405.810547"/>
    <use xlink:href="#IPAexGothic-31" x="1468.798828"/>
    <use xlink:href="#IPAexGothic-28" x="1531.787109"/>
    <use xlink:href="#IPAexGothic-4a" x="1565.087891"/>
    <use xlink:href="#IPAexGothic-53" x="1603.076172"/>
    <use xlink:href="#IPAexGothic-54" x="1661.572266"/>
    <use xlink:href="#IPAexGothic-29" x="1721.484375"/>
   </g>
  </g>
 </g>
 <defs>
  <clipPath id="pb20b660eab">
   <rect x="35.7375" y="18.879437" width="357.12" height="266.112"/>
  </clipPath>
 </defs>
</svg>
