<?xml version="1.0" encoding="utf-8" standalone="no"?>
<!DOCTYPE svg PUBLIC "-//W3C//DTD SVG 1.1//EN"
  "http://www.w3.org/Graphics/SVG/1.1/DTD/svg11.dtd">
<svg xmlns:xlink="http://www.w3.org/1999/xlink" width="401.418795pt" height="308.582062pt" viewBox="0 0 401.418795 308.582062" xmlns="http://www.w3.org/2000/svg" version="1.1">
 <metadata>
  <rdf:RDF xmlns:dc="http://purl.org/dc/elements/1.1/" xmlns:cc="http://creativecommons.org/ns#" xmlns:rdf="http://www.w3.org/1999/02/22-rdf-syntax-ns#">
   <cc:Work>
    <dc:type rdf:resource="http://purl.org/dc/dcmitype/StillImage"/>
    <dc:date>2023-01-03T07:13:59.559449</dc:date>
    <dc:format>image/svg+xml</dc:format>
    <dc:creator>
     <cc:Agent>
      <dc:title>Matplotlib v3.6.2, https://matplotlib.org/</dc:title>
     </cc:Agent>
    </dc:creator>
   </cc:Work>
  </rdf:RDF>
 </metadata>
 <defs>
  <style type="text/css">*{stroke-linejoin: round; stroke-linecap: butt}</style>
 </defs>
 <g id="figure_1">
  <g id="patch_1">
   <path d="M 0 308.582062 
L 401.418795 308.582062 
L 401.418795 0 
L 0 0 
z
" style="fill: #ffffff"/>
  </g>
  <g id="axes_1">
   <g id="patch_2">
    <path d="M 29.439063 284.991437 
L 386.559062 284.991437 
L 386.559062 18.879437 
L 29.439063 18.879437 
z
" style="fill: #ffffff"/>
   </g>
   <g id="line2d_1">
    <path d="M 29.439063 211.199039 
L 386.559062 211.199039 
" clip-path="url(#p82184dd497)" style="fill: none; stroke: #000000; stroke-linecap: square"/>
   </g>
   <g id="matplotlib.axis_1">
    <g id="xtick_1">
     <g id="line2d_2">
      <defs>
       <path id="maeb5cd6ea5" d="M 0 0 
L 0 3.5 
" style="stroke: #000000; stroke-width: 0.8"/>
      </defs>
      <g>
       <use xlink:href="#maeb5cd6ea5" x="29.439063" y="284.991437" style="stroke: #000000; stroke-width: 0.8"/>
      </g>
     </g>
     <g id="text_1">
      <!-- Jun -->
      <g transform="translate(21.499219 299.482062) scale(0.1 -0.1)">
       <defs>
        <path id="IPAexGothic-4a" d="M 1819 4634 
L 1819 1234 
Q 1819 -31 763 -31 
Q 303 -31 -125 209 
L 84 644 
Q 378 447 694 447 
Q 1250 447 1250 1203 
L 1250 4634 
L 1819 4634 
z
" transform="scale(0.015625)"/>
        <path id="IPAexGothic-75" d="M 3284 63 
L 2772 63 
L 2772 644 
Q 2300 0 1625 0 
Q 1072 0 763 375 
Q 519 678 519 1241 
L 519 3250 
L 1069 3250 
L 1069 1259 
Q 1069 466 1734 466 
Q 2406 466 2734 1291 
L 2734 3250 
L 3284 3250 
L 3284 63 
z
" transform="scale(0.015625)"/>
        <path id="IPAexGothic-6e" d="M 3328 63 
L 2778 63 
L 2778 2041 
Q 2778 2853 2106 2853 
Q 1428 2853 1113 2041 
L 1113 63 
L 563 63 
L 563 3250 
L 1075 3250 
L 1075 2675 
Q 1525 3316 2222 3316 
Q 3328 3316 3328 2072 
L 3328 63 
z
" transform="scale(0.015625)"/>
       </defs>
       <use xlink:href="#IPAexGothic-4a"/>
       <use xlink:href="#IPAexGothic-75" x="37.988281"/>
       <use xlink:href="#IPAexGothic-6e" x="98.388672"/>
      </g>
     </g>
    </g>
    <g id="xtick_2">
     <g id="line2d_3">
      <g>
       <use xlink:href="#maeb5cd6ea5" x="78.810491" y="284.991437" style="stroke: #000000; stroke-width: 0.8"/>
      </g>
     </g>
     <g id="text_2">
      <!-- Jul -->
      <g transform="translate(72.54096 299.482062) scale(0.1 -0.1)">
       <defs>
        <path id="IPAexGothic-6c" d="M 1131 63 
L 581 63 
L 581 4794 
L 1131 4794 
L 1131 63 
z
" transform="scale(0.015625)"/>
       </defs>
       <use xlink:href="#IPAexGothic-4a"/>
       <use xlink:href="#IPAexGothic-75" x="37.988281"/>
       <use xlink:href="#IPAexGothic-6c" x="98.388672"/>
      </g>
     </g>
    </g>
    <g id="xtick_3">
     <g id="line2d_4">
      <g>
       <use xlink:href="#maeb5cd6ea5" x="129.827634" y="284.991437" style="stroke: #000000; stroke-width: 0.8"/>
      </g>
     </g>
     <g id="text_3">
      <!-- Aug -->
      <g transform="translate(120.845603 299.42425) scale(0.1 -0.1)">
       <defs>
        <path id="IPAexGothic-41" d="M 4056 63 
L 3444 63 
L 2938 1409 
L 1100 1409 
L 603 63 
L -6 63 
L 1806 4666 
L 2259 4666 
L 4056 63 
z
M 2778 1863 
L 2316 3078 
Q 2125 3588 2028 4000 
L 2009 4000 
Q 1897 3563 1716 3078 
L 1263 1863 
L 2778 1863 
z
" transform="scale(0.015625)"/>
        <path id="IPAexGothic-67" d="M 1331 1150 
Q 1006 1122 1006 900 
Q 1006 613 1763 575 
L 2131 556 
Q 3303 497 3303 -294 
Q 3303 -700 2925 -959 
Q 2519 -1253 1794 -1253 
Q 1138 -1253 738 -1028 
Q 353 -809 353 -428 
Q 353 84 1075 247 
L 1075 269 
Q 506 413 506 778 
Q 506 1116 994 1297 
Q 456 1575 456 2181 
Q 456 2650 769 2963 
Q 1128 3322 1738 3322 
Q 2125 3322 2422 3153 
Q 2650 3453 3259 3463 
L 3259 3013 
Q 2838 3003 2703 2938 
Q 3034 2613 3034 2169 
Q 3034 1728 2734 1425 
Q 2400 1094 1813 1094 
Q 1563 1094 1331 1150 
z
M 1734 2919 
Q 1409 2919 1197 2706 
Q 988 2497 988 2181 
Q 988 1872 1184 1684 
Q 1397 1472 1756 1472 
Q 2094 1472 2297 1678 
Q 2503 1881 2503 2203 
Q 2503 2497 2297 2700 
Q 2081 2919 1734 2919 
z
M 1753 159 
Q 903 159 903 -366 
Q 903 -875 1800 -875 
Q 2378 -875 2638 -606 
Q 2772 -481 2772 -313 
Q 2772 159 1753 159 
z
" transform="scale(0.015625)"/>
       </defs>
       <use xlink:href="#IPAexGothic-41"/>
       <use xlink:href="#IPAexGothic-75" x="63.720703"/>
       <use xlink:href="#IPAexGothic-67" x="124.121094"/>
      </g>
     </g>
    </g>
    <g id="xtick_4">
     <g id="line2d_5">
      <g>
       <use xlink:href="#maeb5cd6ea5" x="180.844777" y="284.991437" style="stroke: #000000; stroke-width: 0.8"/>
      </g>
     </g>
     <g id="text_4">
      <!-- Sep -->
      <g transform="translate(171.969777 299.482062) scale(0.1 -0.1)">
       <defs>
        <path id="IPAexGothic-53" d="M 2919 3641 
Q 2563 4259 1853 4259 
Q 1453 4259 1213 4009 
Q 1028 3803 1028 3534 
Q 1028 3238 1266 3047 
Q 1444 2913 1984 2688 
L 2200 2597 
Q 2925 2306 3191 1953 
Q 3422 1644 3422 1259 
Q 3422 644 2969 288 
Q 2559 -31 1931 -31 
Q 881 -31 313 766 
L 753 1100 
Q 1203 459 1938 459 
Q 2288 459 2534 625 
Q 2841 847 2841 1216 
Q 2841 1503 2616 1728 
Q 2375 1959 1728 2206 
L 1541 2278 
Q 453 2694 453 3481 
Q 453 4006 806 4347 
Q 1203 4725 1863 4725 
Q 2841 4725 3359 3956 
L 2919 3641 
z
" transform="scale(0.015625)"/>
        <path id="IPAexGothic-65" d="M 863 1594 
Q 891 1041 1209 722 
Q 1534 397 1997 397 
Q 2606 397 2963 966 
L 3322 728 
Q 2869 -31 1931 -31 
Q 1222 -31 766 422 
Q 306 884 306 1641 
Q 306 2444 788 2925 
Q 1216 3353 1856 3353 
Q 2459 3353 2866 2956 
Q 3322 2494 3322 1722 
L 3322 1594 
L 863 1594 
z
M 2756 1997 
Q 2709 2431 2450 2681 
Q 2194 2938 1844 2938 
Q 1438 2938 1150 2591 
Q 953 2356 894 1997 
L 2756 1997 
z
" transform="scale(0.015625)"/>
        <path id="IPAexGothic-70" d="M 1075 2688 
Q 1525 3341 2206 3341 
Q 2769 3341 3172 2938 
Q 3641 2469 3641 1644 
Q 3641 841 3178 372 
Q 2775 -31 2200 -31 
Q 1569 -31 1106 497 
L 1106 -1216 
L 563 -1216 
L 563 3250 
L 1075 3250 
L 1075 2688 
z
M 1106 1950 
L 1106 1291 
Q 1106 897 1516 600 
Q 1791 403 2106 403 
Q 2469 403 2725 659 
Q 3066 997 3066 1631 
Q 3066 2200 2784 2559 
Q 2503 2900 2100 2900 
Q 1656 2900 1338 2484 
Q 1106 2184 1106 1950 
z
" transform="scale(0.015625)"/>
       </defs>
       <use xlink:href="#IPAexGothic-53"/>
       <use xlink:href="#IPAexGothic-65" x="58.496094"/>
       <use xlink:href="#IPAexGothic-70" x="115.380859"/>
      </g>
     </g>
    </g>
    <g id="xtick_5">
     <g id="line2d_6">
      <g>
       <use xlink:href="#maeb5cd6ea5" x="230.216205" y="284.991437" style="stroke: #000000; stroke-width: 0.8"/>
      </g>
     </g>
     <g id="text_5">
      <!-- Oct -->
      <g transform="translate(221.781049 299.482062) scale(0.1 -0.1)">
       <defs>
        <path id="IPAexGothic-4f" d="M 2541 4725 
Q 3456 4725 4044 4138 
Q 4709 3472 4709 2331 
Q 4709 1219 4031 550 
Q 3450 -31 2541 -31 
Q 1638 -31 1056 550 
Q 378 1219 378 2356 
Q 378 3469 1044 4138 
Q 1631 4725 2541 4725 
z
M 2541 4266 
Q 1953 4266 1531 3844 
Q 994 3303 994 2350 
Q 994 1391 1531 863 
Q 1947 447 2541 447 
Q 3131 447 3556 863 
Q 4094 1400 4094 2375 
Q 4094 3297 3550 3844 
Q 3138 4266 2541 4266 
z
" transform="scale(0.015625)"/>
        <path id="IPAexGothic-63" d="M 3269 784 
Q 2834 -31 1900 -31 
Q 1228 -31 788 409 
Q 313 891 313 1663 
Q 313 2428 788 2913 
Q 1222 3347 1881 3347 
Q 2813 3347 3206 2541 
L 2763 2309 
Q 2484 2900 1900 2900 
Q 1516 2900 1234 2619 
Q 881 2266 881 1650 
Q 881 1069 1222 728 
Q 1522 428 1956 428 
Q 2547 428 2847 1016 
L 3269 784 
z
" transform="scale(0.015625)"/>
        <path id="IPAexGothic-74" d="M 2125 241 
Q 1769 -6 1397 -6 
Q 653 -6 653 831 
L 653 2859 
L 219 2859 
L 219 3250 
L 653 3250 
L 653 3966 
L 1178 4228 
L 1178 3250 
L 2063 3250 
L 2063 2859 
L 1178 2859 
L 1178 906 
Q 1178 416 1513 416 
Q 1738 416 1941 588 
L 2125 241 
z
" transform="scale(0.015625)"/>
       </defs>
       <use xlink:href="#IPAexGothic-4f"/>
       <use xlink:href="#IPAexGothic-63" x="79.6875"/>
       <use xlink:href="#IPAexGothic-74" x="134.082031"/>
      </g>
     </g>
    </g>
    <g id="xtick_6">
     <g id="line2d_7">
      <g>
       <use xlink:href="#maeb5cd6ea5" x="281.233348" y="284.991437" style="stroke: #000000; stroke-width: 0.8"/>
      </g>
     </g>
     <g id="text_6">
      <!-- Nov -->
      <g transform="translate(271.984911 299.482062) scale(0.1 -0.1)">
       <defs>
        <path id="IPAexGothic-4e" d="M 4244 63 
L 3731 63 
L 1697 3150 
Q 1466 3500 1141 4097 
L 1116 4097 
L 1128 3797 
Q 1159 2803 1159 2469 
L 1159 63 
L 609 63 
L 609 4634 
L 1366 4634 
L 3113 1978 
Q 3453 1447 3713 966 
L 3738 966 
Q 3694 1897 3694 2469 
L 3694 4634 
L 4244 4634 
L 4244 63 
z
" transform="scale(0.015625)"/>
        <path id="IPAexGothic-6f" d="M 1919 3341 
Q 2594 3341 3056 2888 
Q 3531 2413 3531 1638 
Q 3531 888 3066 422 
Q 2609 -31 1919 -31 
Q 1228 -31 781 416 
Q 313 881 313 1656 
Q 313 2413 788 2888 
Q 1241 3341 1919 3341 
z
M 1919 2919 
Q 1519 2919 1241 2631 
Q 888 2278 888 1650 
Q 888 1031 1234 684 
Q 1516 403 1919 403 
Q 2331 403 2609 691 
Q 2956 1038 2956 1672 
Q 2956 2269 2603 2631 
Q 2316 2919 1919 2919 
z
" transform="scale(0.015625)"/>
        <path id="IPAexGothic-76" d="M 3103 3250 
L 1747 6 
L 1375 6 
L 25 3250 
L 628 3250 
L 1338 1388 
L 1522 844 
L 1569 703 
L 1588 703 
Q 1641 884 1822 1388 
L 2516 3250 
L 3103 3250 
z
" transform="scale(0.015625)"/>
       </defs>
       <use xlink:href="#IPAexGothic-4e"/>
       <use xlink:href="#IPAexGothic-6f" x="75.976562"/>
       <use xlink:href="#IPAexGothic-76" x="136.376953"/>
      </g>
     </g>
    </g>
    <g id="xtick_7">
     <g id="line2d_8">
      <g>
       <use xlink:href="#maeb5cd6ea5" x="330.604777" y="284.991437" style="stroke: #000000; stroke-width: 0.8"/>
      </g>
     </g>
     <g id="text_7">
      <!-- Dec -->
      <g transform="translate(321.256339 299.482062) scale(0.1 -0.1)">
       <defs>
        <path id="IPAexGothic-44" d="M 609 4634 
L 1984 4634 
Q 3159 4634 3791 4050 
Q 4456 3444 4456 2356 
Q 4456 1047 3516 441 
Q 2925 63 1941 63 
L 609 63 
L 609 4634 
z
M 1172 556 
L 1894 556 
Q 3853 556 3853 2356 
Q 3853 4147 1928 4147 
L 1172 4147 
L 1172 556 
z
" transform="scale(0.015625)"/>
       </defs>
       <use xlink:href="#IPAexGothic-44"/>
       <use xlink:href="#IPAexGothic-65" x="75.683594"/>
       <use xlink:href="#IPAexGothic-63" x="132.568359"/>
      </g>
     </g>
    </g>
    <g id="xtick_8">
     <g id="line2d_9">
      <g>
       <use xlink:href="#maeb5cd6ea5" x="381.62192" y="284.991437" style="stroke: #000000; stroke-width: 0.8"/>
      </g>
     </g>
     <g id="text_8">
      <!-- 2023 -->
      <g transform="translate(369.025045 299.482062) scale(0.1 -0.1)">
       <defs>
        <path id="IPAexGothic-32" d="M 3659 63 
L 447 63 
L 447 594 
Q 825 1475 1894 2203 
L 2072 2322 
Q 2619 2697 2791 2906 
Q 2988 3153 2988 3444 
Q 2988 3772 2756 4003 
Q 2500 4259 2084 4259 
Q 1250 4259 991 3328 
L 497 3506 
Q 853 4725 2116 4725 
Q 2806 4725 3216 4316 
Q 3575 3947 3575 3425 
Q 3575 3038 3344 2722 
Q 3131 2416 2366 1938 
L 2231 1856 
Q 1256 1253 978 569 
L 3659 569 
L 3659 63 
z
" transform="scale(0.015625)"/>
        <path id="IPAexGothic-30" d="M 2038 4725 
Q 2881 4725 3334 3944 
Q 3694 3325 3694 2344 
Q 3694 1372 3334 741 
Q 2888 -31 2016 -31 
Q 1147 -31 700 741 
Q 341 1372 341 2350 
Q 341 3713 1000 4334 
Q 1419 4725 2038 4725 
z
M 2016 4266 
Q 1516 4266 1228 3759 
Q 934 3247 934 2344 
Q 934 1456 1222 947 
Q 1513 447 2016 447 
Q 2619 447 2909 1153 
Q 3100 1622 3100 2375 
Q 3100 3256 2806 3759 
Q 2509 4266 2016 4266 
z
" transform="scale(0.015625)"/>
        <path id="IPAexGothic-33" d="M 2381 2419 
Q 3506 2216 3506 1278 
Q 3506 716 3128 356 
Q 2709 -31 1944 -31 
Q 797 -31 288 881 
L 756 1131 
Q 1109 441 1938 441 
Q 2425 441 2694 691 
Q 2950 928 2950 1291 
Q 2950 1719 2566 1978 
Q 2216 2213 1644 2213 
L 1363 2213 
L 1363 2669 
L 1656 2669 
Q 2231 2669 2534 2888 
Q 2859 3119 2859 3509 
Q 2859 3934 2494 4138 
Q 2259 4278 1931 4278 
Q 1238 4278 903 3578 
L 434 3803 
Q 897 4725 1938 4725 
Q 2597 4725 3006 4394 
Q 3416 4069 3416 3534 
Q 3416 3028 3019 2706 
Q 2763 2500 2381 2444 
L 2381 2419 
z
" transform="scale(0.015625)"/>
       </defs>
       <use xlink:href="#IPAexGothic-32"/>
       <use xlink:href="#IPAexGothic-30" x="62.988281"/>
       <use xlink:href="#IPAexGothic-32" x="125.976562"/>
       <use xlink:href="#IPAexGothic-33" x="188.964844"/>
      </g>
     </g>
    </g>
   </g>
   <g id="matplotlib.axis_2">
    <g id="ytick_1">
     <g id="line2d_10">
      <defs>
       <path id="m7fa233167d" d="M 0 0 
L -3.5 0 
" style="stroke: #000000; stroke-width: 0.8"/>
      </defs>
      <g>
       <use xlink:href="#m7fa233167d" x="29.439063" y="269.014637" style="stroke: #000000; stroke-width: 0.8"/>
      </g>
     </g>
     <g id="text_9">
      <!-- 0.5 -->
      <g transform="translate(7.2 272.759949) scale(0.1 -0.1)">
       <defs>
        <path id="IPAexGothic-2e" d="M 1184 63 
L 494 63 
L 494 753 
L 1184 753 
L 1184 63 
z
" transform="scale(0.015625)"/>
        <path id="IPAexGothic-35" d="M 1178 2603 
Q 1634 2963 2172 2963 
Q 2816 2963 3241 2528 
Q 3638 2113 3638 1497 
Q 3638 938 3297 513 
Q 2869 -31 2031 -31 
Q 959 -31 469 784 
L 938 1028 
Q 1309 434 2013 434 
Q 2466 434 2769 716 
Q 3081 1013 3081 1503 
Q 3081 1966 2806 2241 
Q 2519 2528 2056 2528 
Q 1406 2528 1072 2028 
L 591 2091 
L 884 4634 
L 3406 4634 
L 3406 4153 
L 1341 4153 
L 1134 2603 
L 1178 2603 
z
" transform="scale(0.015625)"/>
       </defs>
       <use xlink:href="#IPAexGothic-30"/>
       <use xlink:href="#IPAexGothic-2e" x="62.988281"/>
       <use xlink:href="#IPAexGothic-35" x="89.404297"/>
      </g>
     </g>
    </g>
    <g id="ytick_2">
     <g id="line2d_11">
      <g>
       <use xlink:href="#m7fa233167d" x="29.439063" y="211.199039" style="stroke: #000000; stroke-width: 0.8"/>
      </g>
     </g>
     <g id="text_10">
      <!-- 1.0 -->
      <g transform="translate(7.2 214.944352) scale(0.1 -0.1)">
       <defs>
        <path id="IPAexGothic-31" d="M 2463 63 
L 1900 63 
L 1900 4103 
Q 1372 3922 788 3797 
L 684 4231 
Q 1519 4441 2106 4731 
L 2463 4731 
L 2463 63 
z
" transform="scale(0.015625)"/>
       </defs>
       <use xlink:href="#IPAexGothic-31"/>
       <use xlink:href="#IPAexGothic-2e" x="62.988281"/>
       <use xlink:href="#IPAexGothic-30" x="89.404297"/>
      </g>
     </g>
    </g>
    <g id="ytick_3">
     <g id="line2d_12">
      <g>
       <use xlink:href="#m7fa233167d" x="29.439063" y="153.383442" style="stroke: #000000; stroke-width: 0.8"/>
      </g>
     </g>
     <g id="text_11">
      <!-- 1.5 -->
      <g transform="translate(7.2 157.128754) scale(0.1 -0.1)">
       <use xlink:href="#IPAexGothic-31"/>
       <use xlink:href="#IPAexGothic-2e" x="62.988281"/>
       <use xlink:href="#IPAexGothic-35" x="89.404297"/>
      </g>
     </g>
    </g>
    <g id="ytick_4">
     <g id="line2d_13">
      <g>
       <use xlink:href="#m7fa233167d" x="29.439063" y="95.567844" style="stroke: #000000; stroke-width: 0.8"/>
      </g>
     </g>
     <g id="text_12">
      <!-- 2.0 -->
      <g transform="translate(7.2 99.313157) scale(0.1 -0.1)">
       <use xlink:href="#IPAexGothic-32"/>
       <use xlink:href="#IPAexGothic-2e" x="62.988281"/>
       <use xlink:href="#IPAexGothic-30" x="89.404297"/>
      </g>
     </g>
    </g>
    <g id="ytick_5">
     <g id="line2d_14">
      <g>
       <use xlink:href="#m7fa233167d" x="29.439063" y="37.752247" style="stroke: #000000; stroke-width: 0.8"/>
      </g>
     </g>
     <g id="text_13">
      <!-- 2.5 -->
      <g transform="translate(7.2 41.497559) scale(0.1 -0.1)">
       <use xlink:href="#IPAexGothic-32"/>
       <use xlink:href="#IPAexGothic-2e" x="62.988281"/>
       <use xlink:href="#IPAexGothic-35" x="89.404297"/>
      </g>
     </g>
    </g>
   </g>
   <g id="line2d_15">
    <path d="M 29.439063 227.411867 
L 31.084777 255.471758 
L 32.730491 269.405805 
L 34.376205 242.945807 
L 36.02192 262.441258 
L 39.313348 251.639145 
L 40.959063 227.514621 
L 42.604777 229.940841 
L 44.250491 194.078383 
L 45.896205 246.403784 
L 47.54192 250.411663 
L 49.187634 205.84664 
L 50.833348 249.191321 
L 52.479063 272.895437 
L 54.124777 243.090535 
L 55.770491 247.559579 
L 57.416205 238.429093 
L 59.06192 112.810292 
L 60.707634 184.323192 
L 62.353348 181.498781 
L 63.999063 30.975437 
L 67.290491 168.571026 
L 68.936205 110.868109 
L 70.58192 213.126183 
L 72.227634 156.293505 
L 73.873348 124.518024 
L 75.519063 151.875457 
L 77.164777 236.751655 
L 78.810491 106.655378 
L 80.456205 51.387485 
L 82.10192 102.788184 
L 83.747634 95.926279 
L 85.393348 36.542983 
L 87.039063 79.37836 
L 88.684777 35.439549 
L 90.330491 110.396771 
L 91.976205 116.980214 
L 93.62192 109.726148 
L 95.267634 177.160719 
L 96.913348 110.814502 
L 98.559063 153.702013 
L 100.204777 148.460822 
L 101.850491 164.812112 
L 103.496205 190.526245 
L 105.14192 181.526351 
L 106.787634 197.096587 
L 108.433348 219.976945 
L 110.079063 163.710275 
L 111.724777 173.022011 
L 113.370491 196.817697 
L 115.016205 179.527296 
L 116.66192 191.661352 
L 118.307634 192.887858 
L 119.953348 173.15897 
L 121.599063 188.50237 
L 123.244777 201.809366 
L 124.890491 195.197746 
L 126.536205 183.412435 
L 128.18192 192.046725 
L 129.827634 204.737627 
L 131.473348 199.025674 
L 133.119063 189.016626 
L 134.764777 185.809755 
L 136.410491 182.941981 
L 138.056205 200.02008 
L 139.70192 192.032303 
L 141.347634 181.775482 
L 142.993348 186.871327 
L 144.639063 193.9839 
L 146.284777 204.601463 
L 147.930491 225.669065 
L 149.576205 207.989558 
L 151.22192 218.057369 
L 152.867634 204.232725 
L 154.513348 217.282458 
L 156.159063 202.720535 
L 157.804777 195.141529 
L 159.450491 153.461242 
L 161.096205 171.531238 
L 162.74192 185.828914 
L 164.387634 204.950127 
L 166.033348 187.736367 
L 167.679063 211.671324 
L 169.324777 216.92144 
L 170.970491 231.587854 
L 172.616205 248.509599 
L 174.26192 240.826108 
L 175.907634 241.29957 
L 177.553348 247.072575 
L 179.199063 251.367839 
L 180.844777 251.669425 
L 182.490491 251.785215 
L 184.136205 242.900107 
L 185.78192 251.663262 
L 187.427634 241.186243 
L 189.073348 228.929625 
L 190.719063 240.670472 
L 192.364777 239.689961 
L 194.010491 228.587222 
L 195.656205 234.114512 
L 197.30192 220.053728 
L 198.947634 221.634093 
L 200.593348 247.789493 
L 202.239063 250.578039 
L 203.884777 230.847867 
L 205.530491 240.571341 
L 207.176205 229.667605 
L 208.82192 228.965012 
L 210.467634 226.507 
L 212.113348 266.267581 
L 213.759063 173.994674 
L 215.404777 228.352097 
L 217.050491 212.968149 
L 218.696205 243.863512 
L 220.34192 195.951487 
L 221.987634 187.500784 
L 223.633348 195.32975 
L 225.279063 238.855842 
L 226.924777 224.563828 
L 228.570491 239.674853 
L 230.216205 205.067187 
L 231.86192 219.657973 
L 233.507634 258.893645 
L 235.153348 189.095647 
L 236.799063 231.988543 
L 238.444777 230.452082 
L 240.090491 208.848889 
L 241.736205 214.413367 
L 243.38192 237.774657 
L 245.027634 208.216448 
L 246.673348 269.328924 
L 248.319063 186.857034 
L 249.964777 168.652783 
L 251.610491 211.199039 
L 253.256205 197.903063 
L 254.90192 190.42842 
L 256.547634 209.746404 
L 258.193348 135.123595 
L 259.839063 212.926136 
L 261.484777 239.34414 
L 263.130491 184.631705 
L 264.776205 193.892671 
L 266.42192 220.351516 
L 268.067634 197.002011 
L 269.713348 191.634272 
L 271.359063 213.253557 
L 273.004777 183.049443 
L 274.650491 199.198481 
L 276.296205 190.346771 
L 277.94192 160.309806 
L 279.587634 189.784075 
L 281.233348 198.104074 
L 282.879063 152.110827 
L 284.524777 152.9204 
L 286.170491 232.748365 
L 287.816205 165.024121 
L 289.46192 194.085734 
L 291.107634 199.838398 
L 292.753348 173.564927 
L 294.399063 209.205445 
L 296.044777 206.690562 
L 297.690491 156.249641 
L 299.336205 220.402577 
L 300.98192 215.284532 
L 302.627634 225.924092 
L 304.273348 188.099011 
L 305.919063 185.511636 
L 307.564777 211.199039 
L 309.210491 194.160213 
L 310.856205 184.55213 
L 312.50192 182.799057 
L 315.793348 203.930102 
L 317.439063 168.757197 
L 319.084777 220.491359 
L 320.730491 171.577359 
L 324.02192 192.11637 
L 325.667634 204.402838 
L 327.313348 198.987955 
L 328.959063 181.777237 
L 330.604777 142.696764 
L 332.250491 213.580923 
L 333.896205 220.529523 
L 335.54192 204.080643 
L 337.187634 205.292279 
L 338.833348 181.962456 
L 340.479063 194.793532 
L 342.124777 197.432704 
L 343.770491 173.295964 
L 345.416205 175.045451 
L 347.06192 167.16196 
L 348.707634 187.120934 
L 350.353348 183.834422 
L 351.999063 173.778001 
L 353.644777 181.23856 
L 355.290491 201.020413 
L 356.936205 187.828789 
L 358.58192 213.66936 
L 360.227634 207.768569 
L 361.873348 207.295129 
L 363.519063 192.832229 
L 365.164777 206.958159 
L 366.810491 188.728128 
L 368.456205 193.851266 
L 370.10192 207.103197 
L 371.747634 215.224404 
L 373.393348 196.113595 
L 375.039063 220.91992 
L 376.684777 200.04709 
L 378.330491 223.444191 
L 379.976205 251.024981 
L 381.62192 228.180558 
L 383.267634 208.755181 
L 384.913348 251.311193 
L 384.913348 251.311193 
" clip-path="url(#p82184dd497)" style="fill: none; stroke: #1f77b4; stroke-width: 1.5; stroke-linecap: square"/>
   </g>
   <g id="line2d_16">
    <path d="M 29.439063 230.929789 
L 31.084777 242.60231 
L 32.730491 262.8168 
L 34.376205 257.425513 
L 36.02192 253.337157 
L 37.667634 259.836211 
L 39.313348 254.434415 
L 40.959063 240.414674 
L 42.604777 228.735232 
L 44.250491 213.41839 
L 45.896205 223.501825 
L 47.54192 248.433331 
L 49.187634 230.677266 
L 50.833348 229.912564 
L 52.479063 262.11981 
L 54.124777 259.625445 
L 55.770491 245.355694 
L 57.416205 243.118728 
L 59.06192 189.281671 
L 60.707634 152.189606 
L 62.353348 182.917915 
L 63.999063 119.473036 
L 65.644777 68.196709 
L 67.290491 137.669929 
L 68.936205 141.957318 
L 70.58192 170.127431 
L 72.227634 187.579679 
L 73.873348 141.084002 
L 75.519063 138.693349 
L 77.164777 201.292679 
L 78.810491 186.000414 
L 80.456205 80.567026 
L 82.10192 78.413733 
L 83.747634 99.383107 
L 85.393348 67.931655 
L 87.039063 58.815077 
L 88.684777 58.306173 
L 90.330491 75.699401 
L 91.976205 113.713912 
L 93.62192 113.383995 
L 95.267634 146.569691 
L 96.913348 147.022086 
L 98.559063 133.443524 
L 100.204777 151.100956 
L 101.850491 156.832948 
L 103.496205 178.224324 
L 105.14192 186.098223 
L 106.787634 189.532009 
L 108.433348 209.091256 
L 110.079063 194.807872 
L 111.724777 168.434555 
L 113.370491 185.419494 
L 115.016205 188.44227 
L 116.66192 185.724694 
L 118.307634 192.276003 
L 119.953348 183.362139 
L 121.599063 181.032368 
L 123.244777 195.324076 
L 124.890491 198.546144 
L 126.536205 189.431392 
L 128.18192 187.79659 
L 129.827634 198.54902 
L 131.473348 201.914295 
L 133.119063 194.115474 
L 134.764777 187.422411 
L 136.410491 184.383085 
L 138.056205 191.750659 
L 139.70192 196.087179 
L 141.347634 186.997904 
L 142.993348 184.346184 
L 144.639063 190.473981 
L 146.284777 199.403219 
L 147.930491 215.633088 
L 149.576205 217.185071 
L 151.22192 213.134848 
L 152.867634 211.351742 
L 154.513348 210.94113 
L 156.159063 210.228598 
L 157.804777 198.987184 
L 159.450491 175.731796 
L 161.096205 162.744798 
L 164.387634 195.737687 
L 166.033348 196.62741 
L 167.679063 200.268399 
L 169.324777 214.327003 
L 170.970491 224.517111 
L 172.616205 240.462163 
L 174.26192 244.757718 
L 175.907634 241.063165 
L 177.553348 244.236496 
L 179.199063 249.249927 
L 180.844777 251.518783 
L 182.490491 251.727342 
L 184.136205 247.466905 
L 185.78192 247.402446 
L 187.427634 246.595581 
L 189.073348 235.262778 
L 190.719063 234.987471 
L 192.364777 240.181603 
L 194.010491 234.304978 
L 195.656205 231.390872 
L 197.30192 227.332189 
L 198.947634 220.846856 
L 200.593348 235.644814 
L 202.239063 249.196285 
L 203.884777 241.279862 
L 205.530491 235.839395 
L 207.176205 235.281663 
L 208.82192 229.316941 
L 210.467634 227.743627 
L 212.113348 248.882551 
L 213.759063 230.621466 
L 215.404777 204.147875 
L 217.050491 220.93913 
L 218.696205 229.635769 
L 220.34192 222.625721 
L 221.987634 191.792225 
L 223.633348 191.471858 
L 225.279063 219.272458 
L 226.924777 231.97864 
L 228.570491 232.42119 
L 230.216205 223.814193 
L 231.86192 212.595296 
L 233.507634 241.501939 
L 235.153348 230.097519 
L 236.799063 212.536835 
L 238.444777 231.223399 
L 240.090491 220.196168 
L 241.736205 211.66473 
L 243.38192 226.773505 
L 245.027634 224.052711 
L 246.673348 244.24423 
L 248.319063 237.116008 
L 249.964777 178.033043 
L 253.256205 204.731901 
L 254.90192 194.218394 
L 256.547634 200.456001 
L 258.193348 177.011185 
L 259.839063 179.059561 
L 261.484777 227.005264 
L 263.130491 215.29372 
L 264.776205 189.34014 
L 266.42192 207.855357 
L 268.067634 209.25497 
L 269.713348 194.345323 
L 271.359063 202.914504 
L 273.004777 199.04078 
L 274.650491 191.364392 
L 276.296205 194.846812 
L 277.94192 176.074523 
L 279.587634 175.764073 
L 281.233348 194.009205 
L 282.879063 176.860376 
L 284.524777 152.516084 
L 286.170491 198.91713 
L 287.816205 203.448625 
L 289.46192 180.273516 
L 291.107634 196.993923 
L 292.753348 187.318791 
L 294.399063 192.562593 
L 296.044777 207.954654 
L 297.690491 183.674736 
L 299.336205 192.091624 
L 300.98192 217.873602 
L 302.627634 220.737602 
L 304.273348 208.513572 
L 305.919063 186.8113 
L 307.564777 198.998945 
L 309.210491 202.972279 
L 310.856205 189.440136 
L 312.50192 183.678277 
L 314.147634 188.335204 
L 315.793348 198.897374 
L 317.439063 187.448754 
L 319.084777 197.179515 
L 320.730491 198.341262 
L 322.376205 176.894581 
L 324.02192 187.16406 
L 325.667634 198.406453 
L 327.313348 201.724689 
L 328.959063 190.654224 
L 330.604777 163.401008 
L 332.250491 182.424595 
L 333.896205 217.110216 
L 335.54192 212.600777 
L 337.187634 204.687964 
L 338.833348 194.139114 
L 340.479063 188.526714 
L 342.124777 196.119779 
L 343.770491 185.880047 
L 345.416205 174.173214 
L 347.06192 171.1536 
L 348.707634 177.474475 
L 350.353348 185.48723 
L 351.999063 178.891638 
L 353.644777 177.554882 
L 355.290491 191.49043 
L 356.936205 194.588989 
L 358.58192 201.412831 
L 360.227634 210.756455 
L 361.873348 207.532084 
L 363.519063 200.270107 
L 365.164777 200.091846 
L 366.810491 198.165608 
L 368.456205 191.313905 
L 370.10192 200.651084 
L 371.747634 211.235099 
L 373.393348 206.046382 
L 375.039063 209.168684 
L 376.684777 210.952529 
L 378.330491 212.341773 
L 379.976205 238.302243 
L 381.62192 240.353858 
L 383.267634 218.904029 
L 384.913348 232.400817 
L 384.913348 232.400817 
" clip-path="url(#p82184dd497)" style="fill: none; stroke: #ff7f0e; stroke-width: 1.5; stroke-linecap: square"/>
   </g>
   <g id="line2d_17">
    <path d="M 29.439063 229.122786 
L 31.084777 239.928401 
L 32.730491 252.698705 
L 34.376205 256.780278 
L 36.02192 259.139403 
L 37.667634 254.622372 
L 39.313348 257.208287 
L 40.959063 246.388486 
L 42.604777 237.055655 
L 44.250491 218.326475 
L 47.54192 233.387372 
L 49.187634 236.234427 
L 50.833348 237.293425 
L 54.124777 256.313321 
L 55.770491 255.822722 
L 57.416205 243.109331 
L 59.06192 212.36467 
L 62.353348 162.563334 
L 63.999063 143.84129 
L 65.644777 113.406318 
L 67.290491 107.256927 
L 68.936205 129.127564 
L 70.58192 169.610337 
L 72.227634 165.645532 
L 73.873348 169.115602 
L 75.519063 144.753156 
L 77.164777 179.647632 
L 78.810491 175.437505 
L 80.456205 150.710969 
L 82.10192 88.208754 
L 83.747634 84.394062 
L 85.393348 80.114816 
L 87.039063 71.804879 
L 88.684777 51.239386 
L 90.330491 76.931758 
L 91.976205 90.291085 
L 93.62192 112.392863 
L 95.267634 137.201801 
L 96.913348 135.362509 
L 98.559063 149.276885 
L 100.204777 138.58476 
L 101.850491 155.795645 
L 103.496205 168.900399 
L 108.433348 200.539182 
L 110.079063 195.575228 
L 111.724777 187.912342 
L 113.370491 178.52472 
L 115.016205 183.482093 
L 116.66192 189.523726 
L 118.307634 188.153999 
L 119.953348 186.18367 
L 121.599063 185.09643 
L 123.244777 188.315827 
L 124.890491 195.281979 
L 126.536205 193.687884 
L 128.18192 190.308761 
L 129.827634 193.689874 
L 131.473348 198.708102 
L 133.119063 197.755094 
L 134.764777 191.402728 
L 136.410491 185.944654 
L 138.056205 189.7987 
L 139.70192 191.844605 
L 141.347634 191.480812 
L 142.993348 186.955724 
L 144.639063 187.634041 
L 146.284777 195.355837 
L 147.930491 208.84012 
L 151.22192 217.476612 
L 152.867634 210.241718 
L 154.513348 213.36349 
L 156.159063 208.263285 
L 157.804777 205.402114 
L 159.450491 185.324114 
L 161.096205 174.344388 
L 162.74192 170.831497 
L 164.387634 188.120092 
L 166.033348 193.123075 
L 167.679063 201.848623 
L 169.324777 206.082407 
L 170.970491 220.402845 
L 172.616205 233.236603 
L 174.26192 240.583648 
L 175.907634 243.620823 
L 177.553348 243.114997 
L 180.844777 250.064959 
L 182.490491 251.607698 
L 184.136205 248.893225 
L 185.78192 248.891095 
L 187.427634 245.382199 
L 190.719063 237.10204 
L 192.364777 236.582508 
L 194.010491 236.477418 
L 195.656205 234.241533 
L 197.30192 227.752305 
L 198.947634 225.467971 
L 200.593348 230.718701 
L 202.239063 240.92208 
L 203.884777 243.507227 
L 205.530491 241.044337 
L 207.176205 233.826969 
L 208.82192 233.222764 
L 210.467634 228.38915 
L 212.113348 242.740121 
L 213.759063 229.269077 
L 215.404777 229.870881 
L 217.050491 207.161383 
L 218.696205 229.209749 
L 220.34192 219.501156 
L 221.987634 212.031087 
L 223.633348 192.98185 
L 225.279063 209.581314 
L 226.924777 221.065989 
L 228.570491 234.616737 
L 230.216205 224.06468 
L 231.86192 222.447011 
L 233.507634 230.764786 
L 235.153348 226.735849 
L 236.799063 230.732013 
L 238.444777 218.850986 
L 240.090491 224.281475 
L 241.736205 218.302399 
L 243.38192 221.123664 
L 245.027634 220.93512 
L 246.673348 242.141688 
L 248.319063 228.364316 
L 249.964777 218.44859 
L 251.610491 190.029585 
L 253.256205 193.727182 
L 254.90192 200.139008 
L 256.547634 199.610689 
L 258.193348 181.624175 
L 259.839063 190.09163 
L 261.484777 202.749265 
L 263.130491 214.510045 
L 264.776205 208.573118 
L 266.42192 200.569432 
L 268.067634 204.342327 
L 269.713348 203.652593 
L 271.359063 200.974213 
L 273.004777 196.618162 
L 274.650491 199.093369 
L 276.296205 191.026031 
L 277.94192 184.214067 
L 279.587634 180.790352 
L 281.233348 183.611312 
L 282.879063 181.298308 
L 284.524777 169.270937 
L 286.170491 184.905831 
L 287.816205 188.492178 
L 289.46192 200.403438 
L 291.107634 187.108997 
L 292.753348 189.611924 
L 294.399063 195.033037 
L 296.044777 197.447481 
L 297.690491 192.747876 
L 299.336205 197.145102 
L 300.98192 200.314175 
L 302.627634 220.626045 
L 305.919063 201.295556 
L 307.564777 195.464272 
L 309.210491 197.405968 
L 310.856205 197.113713 
L 312.50192 187.261183 
L 314.147634 187.08549 
L 315.793348 193.741822 
L 317.439063 189.550213 
L 319.084777 199.469935 
L 320.730491 189.152671 
L 322.376205 193.119185 
L 324.02192 182.150609 
L 325.667634 193.164416 
L 327.313348 198.60058 
L 328.959063 195.400607 
L 330.604777 176.246527 
L 332.250491 182.20913 
L 333.896205 196.443074 
L 335.54192 212.928431 
L 337.187634 210.214796 
L 338.833348 197.539344 
L 340.479063 194.357613 
L 343.770491 188.916137 
L 345.416205 182.357292 
L 347.06192 171.871023 
L 348.707634 176.669151 
L 350.353348 179.625281 
L 351.999063 181.687232 
L 353.644777 179.678119 
L 355.290491 185.826618 
L 356.936205 190.280728 
L 358.58192 201.282161 
L 360.227634 203.568241 
L 361.873348 209.613962 
L 363.519063 202.82065 
L 365.164777 202.539923 
L 366.810491 196.411828 
L 368.456205 196.743275 
L 370.10192 196.795762 
L 371.747634 205.708887 
L 373.393348 206.399686 
L 375.039063 211.222913 
L 376.684777 206.203506 
L 378.330491 215.275699 
L 379.976205 227.04317 
L 381.62192 235.049338 
L 383.267634 230.893623 
L 384.913348 231.014516 
L 384.913348 231.014516 
" clip-path="url(#p82184dd497)" style="fill: none; stroke: #2ca02c; stroke-width: 1.5; stroke-linecap: square"/>
   </g>
   <g id="line2d_18">
    <path d="M 29.439063 221.275211 
L 31.084777 236.505406 
L 32.730491 248.478994 
L 34.376205 250.372301 
L 36.02192 258.240554 
L 37.667634 258.641514 
L 39.313348 253.887849 
L 40.959063 250.742613 
L 42.604777 242.558839 
L 44.250491 227.832517 
L 45.896205 226.152528 
L 47.54192 232.537407 
L 49.187634 227.154092 
L 50.833348 239.663468 
L 52.479063 247.949949 
L 54.124777 246.12502 
L 55.770491 254.219959 
L 57.416205 251.824807 
L 59.06192 220.968504 
L 60.707634 205.919399 
L 62.353348 186.135769 
L 63.999063 136.533121 
L 65.644777 133.903952 
L 67.290491 128.780364 
L 68.936205 108.165345 
L 70.58192 154.661857 
L 72.227634 166.381937 
L 73.873348 156.222628 
L 77.164777 174.127491 
L 78.810491 164.056515 
L 80.456205 151.002816 
L 82.10192 139.788926 
L 83.747634 90.161987 
L 85.393348 73.226844 
L 87.039063 79.930908 
L 88.684777 63.162834 
L 90.330491 67.394559 
L 91.976205 87.608872 
L 93.62192 95.307164 
L 95.267634 130.829051 
L 96.913348 130.923693 
L 100.204777 149.07322 
L 101.850491 145.514995 
L 103.496205 165.230701 
L 105.14192 172.15619 
L 106.787634 183.990017 
L 108.433348 198.107108 
L 110.079063 192.195781 
L 111.724777 190.267628 
L 113.370491 190.194295 
L 115.016205 178.776002 
L 116.66192 185.572177 
L 118.307634 190.372599 
L 119.953348 184.54832 
L 121.599063 186.766963 
L 123.244777 189.473261 
L 124.890491 190.069324 
L 126.536205 192.410021 
L 131.473348 195.044354 
L 133.119063 196.351076 
L 134.764777 194.867136 
L 136.410491 189.335364 
L 138.056205 189.603599 
L 139.70192 190.360547 
L 141.347634 189.394825 
L 142.993348 190.342872 
L 144.639063 188.74688 
L 146.284777 192.084855 
L 147.930491 203.69443 
L 149.576205 208.628052 
L 151.22192 214.390906 
L 152.867634 214.306201 
L 154.513348 212.043229 
L 156.159063 210.791529 
L 157.804777 205.110817 
L 159.450491 194.096195 
L 161.096205 181.995215 
L 162.74192 177.300368 
L 164.387634 180.166067 
L 166.033348 188.02426 
L 167.679063 198.022962 
L 169.324777 205.800327 
L 170.970491 213.03684 
L 172.616205 228.256977 
L 174.26192 235.194567 
L 175.907634 240.763189 
L 177.553348 244.49752 
L 179.199063 245.259188 
L 182.490491 250.498685 
L 184.136205 249.519384 
L 185.78192 249.59516 
L 187.427634 247.032432 
L 189.073348 241.548346 
L 190.719063 240.987516 
L 194.010491 234.646856 
L 195.656205 235.892398 
L 197.30192 230.881904 
L 198.947634 226.256947 
L 200.593348 231.579139 
L 202.239063 236.122417 
L 203.884777 238.507266 
L 205.530491 242.782759 
L 207.176205 238.331566 
L 208.82192 232.634606 
L 210.467634 231.587191 
L 212.113348 239.646891 
L 213.759063 229.193149 
L 215.404777 229.040635 
L 217.050491 225.896331 
L 218.696205 217.632953 
L 220.34192 221.78581 
L 221.987634 212.266073 
L 223.633348 208.065956 
L 225.279063 206.313066 
L 226.924777 213.521109 
L 228.570491 226.061058 
L 230.216205 227.980673 
L 231.86192 222.980288 
L 233.507634 233.074257 
L 235.153348 221.710038 
L 236.799063 228.075685 
L 238.444777 230.662107 
L 240.090491 216.432907 
L 241.736205 221.898783 
L 243.38192 223.537176 
L 245.027634 218.034898 
L 246.673348 235.927619 
L 248.319063 230.806248 
L 249.964777 215.976432 
L 251.610491 216.679967 
L 253.256205 192.041922 
L 254.90192 192.910047 
L 256.547634 202.612348 
L 258.193348 185.877122 
L 259.839063 190.175906 
L 261.484777 204.536808 
L 263.130491 198.448671 
L 264.776205 209.676726 
L 266.42192 211.634562 
L 268.067634 199.686873 
L 269.713348 201.281933 
L 271.359063 206.126362 
L 273.004777 196.71423 
L 274.650491 197.268091 
L 276.296205 196.960725 
L 277.94192 183.923798 
L 279.587634 185.627441 
L 281.233348 185.325715 
L 282.879063 176.313222 
L 284.524777 174.670499 
L 286.170491 188.327129 
L 287.816205 180.177036 
L 291.107634 200.262414 
L 292.753348 183.839538 
L 294.399063 194.796847 
L 296.044777 198.049398 
L 297.690491 188.189868 
L 299.336205 200.271432 
L 300.98192 201.939318 
L 302.627634 207.269481 
L 304.273348 213.289999 
L 305.919063 204.949238 
L 307.564777 203.848238 
L 309.210491 195.139464 
L 310.856205 194.305696 
L 312.50192 193.674278 
L 314.147634 188.888776 
L 315.793348 191.5016 
L 317.439063 187.892686 
L 319.084777 198.041309 
L 320.730491 193.005785 
L 322.376205 187.405469 
L 324.02192 192.869183 
L 325.667634 188.066754 
L 327.313348 194.64471 
L 328.959063 194.587132 
L 330.604777 183.841066 
L 332.250491 186.599767 
L 333.896205 192.921842 
L 335.54192 198.395901 
L 337.187634 211.065593 
L 340.479063 196.858291 
L 342.124777 195.13317 
L 343.770491 187.209652 
L 345.416205 185.572071 
L 347.06192 178.699715 
L 348.707634 175.832866 
L 350.353348 178.493445 
L 351.999063 178.184745 
L 353.644777 181.575194 
L 355.290491 185.331186 
L 356.936205 186.329848 
L 358.58192 196.546057 
L 360.227634 202.936162 
L 361.873348 204.510717 
L 363.519063 205.626636 
L 365.164777 203.868227 
L 366.810491 199.222196 
L 368.456205 195.776348 
L 370.10192 199.414406 
L 371.747634 201.670223 
L 373.393348 203.378204 
L 375.039063 210.206468 
L 376.684777 208.524885 
L 378.330491 210.766072 
L 379.976205 225.546373 
L 383.267634 229.083162 
L 384.913348 236.464788 
L 384.913348 236.464788 
" clip-path="url(#p82184dd497)" style="fill: none; stroke: #d62728; stroke-width: 1.5; stroke-linecap: square"/>
   </g>
   <g id="line2d_19">
    <path d="M 29.439063 222.506149 
L 31.084777 229.225195 
L 32.730491 244.328125 
L 34.376205 247.402355 
L 36.02192 252.954749 
L 37.667634 258.019032 
L 39.313348 257.295259 
L 40.959063 249.2435 
L 42.604777 246.974437 
L 44.250491 234.54074 
L 45.896205 231.861658 
L 47.54192 231.553594 
L 49.187634 227.717781 
L 50.833348 232.012654 
L 52.479063 247.643113 
L 55.770491 246.413994 
L 57.416205 251.305355 
L 59.06192 234.325278 
L 60.707634 214.484016 
L 62.353348 201.387908 
L 63.999063 163.586194 
L 65.644777 129.858474 
L 67.290491 141.397281 
L 68.936205 125.3209 
L 70.58192 134.972888 
L 72.227634 154.989431 
L 73.873348 158.76708 
L 75.519063 155.361922 
L 77.164777 182.873277 
L 78.810491 162.532711 
L 80.456205 145.998895 
L 82.10192 142.271252 
L 83.747634 131.739654 
L 85.393348 80.2958 
L 87.039063 74.469261 
L 88.684777 71.612377 
L 90.330491 73.369884 
L 91.976205 78.170446 
L 93.62192 92.205622 
L 95.267634 114.651386 
L 96.913348 126.98029 
L 98.559063 135.707335 
L 100.204777 141.820322 
L 101.850491 152.338799 
L 103.496205 155.572908 
L 105.14192 168.629853 
L 106.787634 177.501124 
L 108.433348 192.046346 
L 110.079063 191.863517 
L 111.724777 188.562489 
L 113.370491 191.603524 
L 115.016205 188.124556 
L 116.66192 181.447777 
L 118.307634 187.0666 
L 119.953348 187.0915 
L 121.599063 185.34807 
L 123.244777 189.913695 
L 124.890491 190.637736 
L 126.536205 188.763136 
L 129.827634 195.654061 
L 131.473348 195.075047 
L 133.119063 193.860278 
L 134.764777 194.307816 
L 136.410491 192.563919 
L 138.056205 191.542008 
L 141.347634 188.685177 
L 142.993348 188.893792 
L 144.639063 191.078975 
L 146.284777 192.074346 
L 147.930491 199.593102 
L 149.576205 204.565698 
L 151.22192 210.577143 
L 152.867634 212.428944 
L 154.513348 214.907852 
L 156.159063 210.23647 
L 157.804777 207.817891 
L 159.450491 196.188428 
L 161.096205 189.862088 
L 162.74192 182.770205 
L 164.387634 183.291563 
L 166.033348 181.712392 
L 167.679063 193.113415 
L 170.970491 211.463604 
L 174.26192 230.909798 
L 177.553348 242.063784 
L 179.199063 245.919887 
L 180.844777 246.583547 
L 182.490491 248.741635 
L 184.136205 249.036102 
L 185.78192 249.952996 
L 187.427634 247.98217 
L 189.073348 243.701758 
L 190.719063 241.373489 
L 192.364777 240.72956 
L 194.010491 235.993508 
L 195.656205 234.540632 
L 197.30192 232.924776 
L 198.947634 229.099784 
L 200.593348 230.988135 
L 202.239063 235.724345 
L 203.884777 235.091221 
L 205.530491 238.923995 
L 207.176205 240.309621 
L 208.82192 236.532871 
L 210.467634 231.439783 
L 212.113348 239.832571 
L 213.759063 229.288225 
L 215.404777 229.025515 
L 217.050491 226.018762 
L 218.696205 229.776904 
L 220.34192 213.604985 
L 221.987634 215.680869 
L 223.633348 209.062995 
L 225.279063 214.984372 
L 226.924777 210.206824 
L 228.570491 219.314815 
L 230.216205 222.17396 
L 231.86192 226.369517 
L 233.507634 231.430807 
L 235.153348 225.577264 
L 236.799063 223.851206 
L 238.444777 228.555607 
L 240.090491 226.648719 
L 241.736205 216.031922 
L 243.38192 225.28565 
L 245.027634 220.640156 
L 246.673348 231.061495 
L 248.319063 227.73105 
L 249.964777 220.726004 
L 251.610491 215.037011 
L 253.256205 213.157231 
L 254.90192 191.720756 
L 256.547634 196.460668 
L 258.193348 191.350375 
L 259.839063 191.757527 
L 261.484777 201.836996 
L 263.130491 200.792232 
L 264.776205 197.550137 
L 266.42192 211.894043 
L 268.067634 208.846332 
L 269.713348 198.115669 
L 271.359063 203.773183 
L 273.004777 201.828184 
L 274.650491 197.214919 
L 276.296205 195.912493 
L 279.587634 185.115566 
L 281.233348 188.215948 
L 282.879063 179.230873 
L 284.524777 171.901027 
L 286.170491 188.619752 
L 287.816205 183.951829 
L 289.46192 183.070739 
L 291.107634 191.957715 
L 292.753348 195.323676 
L 294.399063 189.316525 
L 296.044777 197.266248 
L 297.690491 190.602066 
L 299.336205 195.331172 
L 300.98192 203.427593 
L 302.627634 207.153921 
L 304.273348 203.660003 
L 305.919063 208.209749 
L 307.564777 206.225655 
L 309.210491 201.968952 
L 310.856205 193.086981 
L 312.50192 192.080368 
L 314.147634 193.671134 
L 315.793348 192.037551 
L 317.439063 187.230909 
L 319.084777 195.127704 
L 320.730491 193.136595 
L 322.376205 190.879234 
L 324.02192 188.360647 
L 325.667634 195.259724 
L 327.313348 190.323195 
L 328.959063 192.16594 
L 330.604777 185.535827 
L 332.250491 190.356327 
L 333.896205 194.157665 
L 335.54192 195.231943 
L 337.187634 199.805793 
L 338.833348 205.75506 
L 340.479063 201.980701 
L 342.124777 196.973377 
L 345.416205 184.857416 
L 347.06192 182.068236 
L 348.707634 180.423619 
L 350.353348 177.468219 
L 351.999063 177.562124 
L 353.644777 178.80059 
L 355.290491 185.690961 
L 356.936205 185.834271 
L 360.227634 198.87215 
L 361.873348 203.82049 
L 363.519063 202.259429 
L 365.164777 205.894119 
L 366.810491 200.979192 
L 368.456205 198.165651 
L 370.10192 198.124359 
L 371.747634 202.74615 
L 373.393348 200.578123 
L 375.039063 207.104849 
L 376.684777 208.241904 
L 378.330491 211.671763 
L 379.976205 220.244674 
L 381.62192 226.078778 
L 383.267634 223.863886 
L 384.913348 233.998962 
L 384.913348 233.998962 
" clip-path="url(#p82184dd497)" style="fill: none; stroke: #9467bd; stroke-width: 1.5; stroke-linecap: square"/>
   </g>
   <g id="line2d_20">
    <path d="M 29.439063 221.989476 
L 31.084777 228.904971 
L 32.730491 237.483987 
L 34.376205 244.099331 
L 36.02192 250.133055 
L 39.313348 256.994611 
L 40.959063 253.038847 
L 44.250491 239.915086 
L 45.896205 236.632969 
L 47.54192 235.239876 
L 49.187634 227.68395 
L 50.833348 231.670455 
L 52.479063 240.522 
L 54.124777 246.901912 
L 55.770491 247.094508 
L 57.416205 245.135114 
L 59.06192 236.98727 
L 60.707634 227.417148 
L 62.353348 209.558869 
L 65.644777 154.479575 
L 67.290491 136.912814 
L 68.936205 136.626651 
L 70.58192 143.651398 
L 72.227634 138.702995 
L 73.873348 150.24993 
L 75.519063 157.637623 
L 77.164777 172.805614 
L 78.810491 172.308881 
L 80.456205 147.756838 
L 82.10192 139.424444 
L 83.747634 135.249771 
L 85.393348 118.380389 
L 87.039063 80.14313 
L 88.684777 68.347758 
L 90.330491 78.528388 
L 93.62192 83.731536 
L 95.267634 109.142714 
L 96.913348 114.016671 
L 98.559063 131.704446 
L 100.204777 137.894546 
L 101.850491 145.867244 
L 103.496205 159.375849 
L 105.14192 160.199988 
L 106.787634 173.774933 
L 108.433348 185.603024 
L 110.079063 187.691034 
L 113.370491 189.973888 
L 115.016205 189.661866 
L 116.66192 188.720384 
L 118.307634 183.420157 
L 119.953348 184.839306 
L 121.599063 187.32764 
L 123.244777 188.234936 
L 124.890491 190.808875 
L 126.536205 189.459306 
L 128.18192 189.315904 
L 129.827634 194.488321 
L 131.473348 196.222111 
L 133.119063 194.084129 
L 134.764777 192.551171 
L 136.410491 192.477858 
L 138.056205 193.836383 
L 139.70192 191.623847 
L 141.347634 188.740474 
L 142.993348 188.38451 
L 144.639063 189.755489 
L 146.284777 193.432394 
L 147.930491 198.363082 
L 149.576205 201.032618 
L 151.22192 206.925265 
L 152.867634 209.543013 
L 154.513348 213.252545 
L 156.159063 212.963095 
L 157.804777 207.846519 
L 161.096205 192.369156 
L 162.74192 189.197994 
L 164.387634 186.729077 
L 166.033348 184.042107 
L 167.679063 187.198671 
L 170.970491 207.540235 
L 172.616205 218.675332 
L 174.26192 224.780796 
L 175.907634 232.725185 
L 179.199063 243.690539 
L 180.844777 246.907814 
L 182.490491 247.474879 
L 184.136205 247.797075 
L 185.78192 249.480254 
L 187.427634 248.556817 
L 189.073348 245.08607 
L 190.719063 243.204053 
L 194.010491 238.815428 
L 195.656205 235.683007 
L 197.30192 232.270423 
L 198.947634 231.130882 
L 200.593348 232.49656 
L 202.239063 234.57189 
L 203.884777 234.929153 
L 205.530491 236.028174 
L 207.176205 237.444895 
L 208.82192 238.514573 
L 210.467634 234.934333 
L 212.113348 238.395766 
L 213.759063 231.266365 
L 215.404777 229.132824 
L 217.050491 226.515892 
L 218.696205 229.239417 
L 220.34192 224.817696 
L 221.987634 209.621523 
L 223.633348 212.522123 
L 226.924777 216.641101 
L 228.570491 215.732855 
L 230.216205 217.061613 
L 231.86192 221.758769 
L 233.507634 232.710465 
L 235.153348 225.409058 
L 236.799063 226.675144 
L 238.444777 224.981941 
L 240.090491 225.516094 
L 241.736205 224.706134 
L 243.38192 219.993368 
L 245.027634 222.621729 
L 246.673348 230.960194 
L 248.319063 224.808205 
L 249.964777 219.699069 
L 251.610491 219.194515 
L 253.256205 212.348296 
L 254.90192 209.65087 
L 256.547634 194.907088 
L 258.193348 187.807324 
L 259.839063 195.211158 
L 261.484777 201.189777 
L 263.130491 199.121299 
L 264.776205 199.667689 
L 266.42192 201.664094 
L 268.067634 209.536309 
L 269.713348 206.137929 
L 271.359063 200.771985 
L 273.004777 200.539284 
L 274.650491 201.393693 
L 277.94192 190.557175 
L 279.587634 190.24811 
L 281.233348 187.367939 
L 282.879063 182.763564 
L 284.524777 175.139954 
L 286.170491 184.260041 
L 289.46192 185.693006 
L 291.107634 186.011723 
L 292.753348 189.053189 
L 294.399063 197.746163 
L 296.044777 192.377572 
L 297.690491 191.188962 
L 299.336205 196.093335 
L 300.98192 198.888857 
L 302.627634 207.49831 
L 305.919063 200.805821 
L 307.564777 208.713277 
L 309.210491 204.293783 
L 310.856205 199.221764 
L 312.50192 191.424833 
L 314.147634 192.344692 
L 315.793348 195.438584 
L 317.439063 188.410429 
L 319.084777 193.421343 
L 320.730491 191.466693 
L 322.376205 191.34645 
L 324.02192 191.086209 
L 325.667634 191.173373 
L 327.313348 195.888562 
L 328.959063 188.934661 
L 330.604777 184.957424 
L 332.250491 190.651256 
L 333.896205 195.922878 
L 335.54192 195.865522 
L 337.187634 196.964714 
L 338.833348 196.992366 
L 340.479063 203.993471 
L 342.124777 201.233957 
L 343.770491 193.29733 
L 345.416205 188.48751 
L 347.06192 182.050611 
L 348.707634 182.922867 
L 350.353348 180.997684 
L 351.999063 176.85942 
L 353.644777 178.181248 
L 355.290491 182.759312 
L 356.936205 186.049535 
L 358.58192 190.908696 
L 360.227634 194.995539 
L 361.873348 200.316108 
L 363.519063 202.053777 
L 365.164777 203.05515 
L 366.810491 203.188982 
L 368.456205 199.818307 
L 370.10192 199.700281 
L 371.747634 201.146293 
L 373.393348 201.664569 
L 375.039063 204.221356 
L 376.684777 205.956449 
L 378.330491 210.922625 
L 379.976205 219.423925 
L 381.62192 221.610325 
L 383.267634 223.37897 
L 384.913348 229.049003 
L 384.913348 229.049003 
" clip-path="url(#p82184dd497)" style="fill: none; stroke: #8c564b; stroke-width: 1.5; stroke-linecap: square"/>
   </g>
   <g id="line2d_21">
    <path d="M 29.439063 224.216778 
L 31.084777 227.596136 
L 32.730491 236.094002 
L 34.376205 238.285498 
L 36.02192 247.009287 
L 37.667634 251.173405 
L 39.313348 253.38057 
L 40.959063 253.391419 
L 42.604777 250.111493 
L 44.250491 240.35466 
L 45.896205 240.873149 
L 47.54192 238.743918 
L 49.187634 231.524757 
L 50.833348 231.087585 
L 52.479063 239.084283 
L 54.124777 240.893702 
L 55.770491 246.996197 
L 57.416205 245.910647 
L 59.06192 233.085415 
L 60.707634 230.86679 
L 62.353348 221.875268 
L 63.999063 192.984554 
L 65.644777 172.579527 
L 67.290491 156.56697 
L 68.936205 133.393898 
L 70.58192 150.105108 
L 72.227634 145.513232 
L 73.873348 136.739153 
L 75.519063 150.483069 
L 77.164777 172.207681 
L 78.810491 164.739432 
L 80.456205 159.007124 
L 82.10192 141.932814 
L 83.747634 133.752243 
L 87.039063 113.209754 
L 88.684777 74.203567 
L 90.330491 74.821343 
L 91.976205 84.425418 
L 93.62192 85.512302 
L 95.267634 100.005778 
L 96.913348 109.382331 
L 98.559063 120.19955 
L 100.204777 134.191304 
L 101.850491 141.997781 
L 103.496205 153.047456 
L 105.14192 162.735832 
L 106.787634 166.052801 
L 108.433348 181.433711 
L 110.079063 182.665304 
L 111.724777 185.684395 
L 113.370491 190.052933 
L 115.016205 188.528151 
L 116.66192 189.949308 
L 118.307634 189.323584 
L 119.953348 181.997329 
L 121.599063 185.368481 
L 123.244777 189.494891 
L 124.890491 189.251731 
L 126.536205 189.776067 
L 128.18192 189.831957 
L 129.827634 191.63289 
L 131.473348 195.146246 
L 133.119063 195.216294 
L 134.764777 192.932486 
L 136.410491 191.218756 
L 138.056205 193.58218 
L 139.70192 193.580143 
L 141.347634 190.258975 
L 142.993348 188.474989 
L 144.639063 189.198645 
L 146.284777 191.981943 
L 147.930491 198.601115 
L 149.576205 199.784621 
L 151.22192 203.618883 
L 152.867634 206.544268 
L 154.513348 210.681256 
L 156.159063 211.804545 
L 157.804777 210.573035 
L 159.450491 201.272819 
L 162.74192 191.453746 
L 164.387634 191.567199 
L 166.033348 186.873421 
L 167.679063 188.362043 
L 169.324777 191.892493 
L 172.616205 214.499122 
L 174.26192 222.158824 
L 175.907634 227.322903 
L 177.553348 234.922937 
L 179.199063 240.308315 
L 180.844777 244.880253 
L 182.490491 247.623529 
L 184.136205 246.836933 
L 185.78192 248.36133 
L 187.427634 248.346486 
L 189.073348 246.014508 
L 190.719063 244.469403 
L 192.364777 242.710852 
L 194.010491 239.410904 
L 195.656205 238.158751 
L 197.30192 233.598803 
L 198.947634 230.819473 
L 200.593348 233.710105 
L 202.239063 235.321048 
L 203.884777 234.048867 
L 205.530491 235.757231 
L 207.176205 235.145673 
L 208.82192 236.280027 
L 210.467634 236.891486 
L 212.113348 240.248563 
L 213.759063 231.206691 
L 215.404777 230.855381 
L 217.050491 226.97232 
L 218.696205 229.200263 
L 220.34192 225.060755 
L 221.987634 220.171876 
L 223.633348 207.679122 
L 225.279063 216.719103 
L 226.924777 216.123738 
L 228.570491 220.271379 
L 230.216205 214.26839 
L 231.86192 217.436337 
L 233.507634 228.104504 
L 235.153348 227.449084 
L 236.799063 226.376218 
L 238.444777 227.223636 
L 240.090491 222.819885 
L 241.736205 223.999794 
L 243.38192 226.684388 
L 245.027634 218.385403 
L 246.673348 231.107781 
L 248.319063 225.63427 
L 249.964777 218.212387 
L 251.610491 218.52415 
L 253.256205 216.383034 
L 254.90192 209.44702 
L 256.547634 209.664523 
L 258.193348 187.671964 
L 259.839063 191.709338 
L 261.484777 202.671045 
L 263.130491 198.947973 
L 264.776205 198.387136 
L 266.42192 202.852002 
L 268.067634 201.008475 
L 269.713348 207.131896 
L 271.359063 207.18111 
L 273.004777 198.380668 
L 274.650491 200.348606 
L 276.296205 199.87207 
L 277.94192 191.497092 
L 279.587634 190.446999 
L 281.233348 191.399083 
L 282.879063 182.804438 
L 284.524777 178.836405 
L 286.170491 185.145917 
L 287.816205 181.658839 
L 289.46192 186.284838 
L 291.107634 187.806378 
L 292.753348 184.297498 
L 294.399063 192.130815 
L 296.044777 199.063592 
L 297.690491 187.727666 
L 299.336205 195.808404 
L 300.98192 199.024939 
L 302.627634 203.154815 
L 304.273348 204.902638 
L 305.919063 201.663825 
L 307.564777 202.345891 
L 309.210491 206.736348 
L 310.856205 201.650842 
L 312.50192 196.995616 
L 314.147634 191.746216 
L 315.793348 194.064329 
L 317.439063 191.922213 
L 319.084777 193.527147 
L 320.730491 190.499864 
L 322.376205 190.157175 
L 324.02192 191.456708 
L 325.667634 193.073793 
L 327.313348 192.318328 
L 328.959063 193.959995 
L 330.604777 183.119016 
L 333.896205 195.385749 
L 335.54192 197.120655 
L 337.187634 197.255697 
L 338.833348 194.920628 
L 340.479063 196.680503 
L 342.124777 203.076989 
L 343.770491 197.57802 
L 345.416205 190.830877 
L 347.06192 185.624953 
L 348.707634 182.786056 
L 350.353348 183.053444 
L 351.999063 179.987536 
L 353.644777 177.492985 
L 355.290491 181.681811 
L 356.936205 183.494688 
L 358.58192 190.37394 
L 360.227634 193.456085 
L 361.873348 196.827227 
L 363.519063 199.273135 
L 365.164777 202.7665 
L 366.810491 201.103242 
L 368.456205 201.896283 
L 370.10192 200.885534 
L 371.747634 202.043694 
L 373.393348 200.439377 
L 375.039063 204.616121 
L 376.684777 203.633554 
L 378.330491 208.62509 
L 379.976205 217.74467 
L 381.62192 220.720925 
L 383.267634 219.863341 
L 384.913348 227.927071 
L 384.913348 227.927071 
" clip-path="url(#p82184dd497)" style="fill: none; stroke: #e377c2; stroke-width: 1.5; stroke-linecap: square"/>
   </g>
   <g id="patch_3">
    <path d="M 29.439063 284.991437 
L 29.439063 18.879437 
" style="fill: none; stroke: #000000; stroke-width: 0.8; stroke-linejoin: miter; stroke-linecap: square"/>
   </g>
   <g id="patch_4">
    <path d="M 386.559062 284.991437 
L 386.559062 18.879437 
" style="fill: none; stroke: #000000; stroke-width: 0.8; stroke-linejoin: miter; stroke-linecap: square"/>
   </g>
   <g id="patch_5">
    <path d="M 29.439063 284.991437 
L 386.559063 284.991437 
" style="fill: none; stroke: #000000; stroke-width: 0.8; stroke-linejoin: miter; stroke-linecap: square"/>
   </g>
   <g id="patch_6">
    <path d="M 29.439063 18.879437 
L 386.559063 18.879437 
" style="fill: none; stroke: #000000; stroke-width: 0.8; stroke-linejoin: miter; stroke-linecap: square"/>
   </g>
   <g id="legend_1">
    <g id="patch_7">
     <path d="M 341.260625 127.613812 
L 379.559062 127.613812 
Q 381.559062 127.613812 381.559062 125.613812 
L 381.559062 25.879437 
Q 381.559062 23.879437 379.559062 23.879437 
L 341.260625 23.879437 
Q 339.260625 23.879437 339.260625 25.879437 
L 339.260625 125.613812 
Q 339.260625 127.613812 341.260625 127.613812 
z
" style="fill: #ffffff; opacity: 0.8; stroke: #cccccc; stroke-linejoin: miter"/>
    </g>
    <g id="line2d_22">
     <path d="M 343.260625 31.870062 
L 353.260625 31.870062 
L 363.260625 31.870062 
" style="fill: none; stroke: #1f77b4; stroke-width: 1.5; stroke-linecap: square"/>
    </g>
    <g id="text_14">
     <!-- 1 -->
     <g transform="translate(371.260625 35.370062) scale(0.1 -0.1)">
      <use xlink:href="#IPAexGothic-31"/>
     </g>
    </g>
    <g id="line2d_23">
     <path d="M 343.260625 46.260687 
L 353.260625 46.260687 
L 363.260625 46.260687 
" style="fill: none; stroke: #ff7f0e; stroke-width: 1.5; stroke-linecap: square"/>
    </g>
    <g id="text_15">
     <!-- 2 -->
     <g transform="translate(371.260625 49.760687) scale(0.1 -0.1)">
      <use xlink:href="#IPAexGothic-32"/>
     </g>
    </g>
    <g id="line2d_24">
     <path d="M 343.260625 60.651312 
L 353.260625 60.651312 
L 363.260625 60.651312 
" style="fill: none; stroke: #2ca02c; stroke-width: 1.5; stroke-linecap: square"/>
    </g>
    <g id="text_16">
     <!-- 3 -->
     <g transform="translate(371.260625 64.151312) scale(0.1 -0.1)">
      <use xlink:href="#IPAexGothic-33"/>
     </g>
    </g>
    <g id="line2d_25">
     <path d="M 343.260625 75.041937 
L 353.260625 75.041937 
L 363.260625 75.041937 
" style="fill: none; stroke: #d62728; stroke-width: 1.5; stroke-linecap: square"/>
    </g>
    <g id="text_17">
     <!-- 4 -->
     <g transform="translate(371.260625 78.541937) scale(0.1 -0.1)">
      <defs>
       <path id="IPAexGothic-34" d="M 3813 1159 
L 3059 1159 
L 3059 63 
L 2547 63 
L 2547 1159 
L 197 1159 
L 197 1672 
L 2456 4678 
L 3059 4678 
L 3059 1634 
L 3813 1634 
L 3813 1159 
z
M 2578 4109 
L 2559 4109 
Q 2278 3656 2003 3284 
L 759 1634 
L 2547 1634 
L 2547 3144 
Q 2547 3481 2578 4109 
z
" transform="scale(0.015625)"/>
      </defs>
      <use xlink:href="#IPAexGothic-34"/>
     </g>
    </g>
    <g id="line2d_26">
     <path d="M 343.260625 89.432562 
L 353.260625 89.432562 
L 363.260625 89.432562 
" style="fill: none; stroke: #9467bd; stroke-width: 1.5; stroke-linecap: square"/>
    </g>
    <g id="text_18">
     <!-- 5 -->
     <g transform="translate(371.260625 92.932562) scale(0.1 -0.1)">
      <use xlink:href="#IPAexGothic-35"/>
     </g>
    </g>
    <g id="line2d_27">
     <path d="M 343.260625 103.823187 
L 353.260625 103.823187 
L 363.260625 103.823187 
" style="fill: none; stroke: #8c564b; stroke-width: 1.5; stroke-linecap: square"/>
    </g>
    <g id="text_19">
     <!-- 6 -->
     <g transform="translate(371.260625 107.323187) scale(0.1 -0.1)">
      <defs>
       <path id="IPAexGothic-36" d="M 1056 2328 
Q 1509 2981 2234 2981 
Q 2906 2981 3316 2513 
Q 3675 2106 3675 1522 
Q 3675 884 3272 434 
Q 2853 -31 2178 -31 
Q 1375 -31 922 581 
Q 481 1178 481 2228 
Q 481 3425 1013 4109 
Q 1494 4725 2272 4725 
Q 3191 4725 3609 4025 
L 3150 3775 
Q 2894 4266 2300 4266 
Q 1119 4266 1031 2328 
L 1056 2328 
z
M 2141 2547 
Q 1684 2547 1384 2206 
Q 1116 1900 1116 1541 
Q 1116 1156 1353 844 
Q 1672 428 2159 428 
Q 2669 428 2941 844 
Q 3125 1128 3125 1503 
Q 3125 1944 2881 2228 
Q 2600 2547 2141 2547 
z
" transform="scale(0.015625)"/>
      </defs>
      <use xlink:href="#IPAexGothic-36"/>
     </g>
    </g>
    <g id="line2d_28">
     <path d="M 343.260625 118.213812 
L 353.260625 118.213812 
L 363.260625 118.213812 
" style="fill: none; stroke: #e377c2; stroke-width: 1.5; stroke-linecap: square"/>
    </g>
    <g id="text_20">
     <!-- 7 -->
     <g transform="translate(371.260625 121.713812) scale(0.1 -0.1)">
      <defs>
       <path id="IPAexGothic-37" d="M 3597 4263 
Q 2238 2106 1778 63 
L 1131 63 
Q 1581 1834 2950 4128 
L 428 4128 
L 428 4634 
L 3597 4634 
L 3597 4263 
z
" transform="scale(0.015625)"/>
      </defs>
      <use xlink:href="#IPAexGothic-37"/>
     </g>
    </g>
   </g>
  </g>
  <g id="axes_2">
   <g id="matplotlib.axis_3"/>
   <g id="patch_8">
    <path d="M 29.439063 284.991437 
L 29.439063 18.879437 
" style="fill: none; stroke: #000000; stroke-width: 0.8; stroke-linejoin: miter; stroke-linecap: square"/>
   </g>
   <g id="patch_9">
    <path d="M 386.559062 284.991437 
L 386.559062 18.879437 
" style="fill: none; stroke: #000000; stroke-width: 0.8; stroke-linejoin: miter; stroke-linecap: square"/>
   </g>
   <g id="patch_10">
    <path d="M 29.439063 284.991437 
L 386.559063 284.991437 
" style="fill: none; stroke: #000000; stroke-width: 0.8; stroke-linejoin: miter; stroke-linecap: square"/>
   </g>
   <g id="patch_11">
    <path d="M 29.439063 18.879437 
L 386.559063 18.879437 
" style="fill: none; stroke: #000000; stroke-width: 0.8; stroke-linejoin: miter; stroke-linecap: square"/>
   </g>
  </g>
  <g id="text_21">
   <!-- : 2023/01/03 16:13:58(JST) -->
   <g transform="translate(211.087188 15.423437) scale(0.1 -0.1)">
    <defs>
     <path id="IPAexGothic-66f4" d="M 2956 3994 
L 2956 4588 
L 513 4588 
L 513 4984 
L 5881 4984 
L 5881 4588 
L 3413 4588 
L 3413 3994 
L 5300 3994 
L 5300 1288 
L 4838 1288 
L 4838 1759 
L 3406 1759 
Q 3384 1125 3150 709 
Q 4291 244 5997 31 
L 5694 -428 
Q 4109 -166 2906 384 
Q 2294 -266 744 -488 
L 494 -66 
Q 1903 59 2491 588 
Q 2041 813 1594 1166 
L 1928 1434 
Q 2331 1106 2747 897 
Q 2922 1219 2950 1759 
L 1556 1759 
L 1556 1413 
L 1097 1413 
L 1097 3994 
L 2956 3994 
z
M 2956 3609 
L 1556 3609 
L 1556 3078 
L 2956 3078 
L 2956 3609 
z
M 3413 3609 
L 3413 3078 
L 4838 3078 
L 4838 3609 
L 3413 3609 
z
M 2956 2700 
L 1556 2700 
L 1556 2144 
L 2956 2144 
L 2956 2700 
z
M 3413 2700 
L 3413 2144 
L 4838 2144 
L 4838 2700 
L 3413 2700 
z
" transform="scale(0.015625)"/>
     <path id="IPAexGothic-65b0" d="M 3891 2803 
Q 3881 1759 3794 1166 
Q 3653 197 3097 -563 
L 2741 -250 
Q 3450 700 3450 2631 
L 3450 4647 
Q 3516 4656 3622 4666 
Q 4656 4778 5447 5063 
L 5825 4678 
Q 4897 4419 3891 4294 
L 3891 3219 
L 6119 3219 
L 6119 2803 
L 5275 2803 
L 5275 -447 
L 4834 -447 
L 4834 2803 
L 3891 2803 
z
M 2822 4069 
Q 2678 3572 2519 3181 
L 3250 3181 
L 3250 2784 
L 2059 2784 
L 2059 2216 
L 3184 2216 
L 3184 1831 
L 2059 1831 
L 2059 1544 
Q 2613 1197 3031 847 
L 2781 456 
Q 2472 791 2059 1128 
L 2059 -447 
L 1644 -447 
L 1644 1294 
Q 1272 628 575 -31 
L 269 341 
Q 1041 938 1528 1831 
L 453 1831 
L 453 2216 
L 1644 2216 
L 1644 2784 
L 319 2784 
L 319 3181 
L 1125 3181 
Q 1013 3706 881 4069 
L 453 4069 
L 453 4453 
L 1631 4453 
L 1631 5309 
L 2072 5309 
L 2072 4453 
L 3166 4453 
L 3166 4069 
L 2822 4069 
z
M 2391 4069 
L 1325 4069 
Q 1450 3672 1534 3181 
L 2109 3181 
Q 2294 3659 2391 4069 
z
" transform="scale(0.015625)"/>
     <path id="IPAexGothic-65e5" d="M 5231 4800 
L 5231 -288 
L 4744 -288 
L 4744 128 
L 1647 128 
L 1647 -288 
L 1159 -288 
L 1159 4800 
L 5231 4800 
z
M 1647 4372 
L 1647 2731 
L 4744 2731 
L 4744 4372 
L 1647 4372 
z
M 1647 2297 
L 1647 556 
L 4744 556 
L 4744 2297 
L 1647 2297 
z
" transform="scale(0.015625)"/>
     <path id="IPAexGothic-6642" d="M 2328 4728 
L 2328 563 
L 934 563 
L 934 56 
L 519 56 
L 519 4728 
L 2328 4728 
z
M 934 4331 
L 934 2881 
L 1906 2881 
L 1906 4331 
L 934 4331 
z
M 934 2497 
L 934 953 
L 1906 953 
L 1906 2497 
L 934 2497 
z
M 3938 4372 
L 3938 5313 
L 4378 5313 
L 4378 4372 
L 5772 4372 
L 5772 3981 
L 4378 3981 
L 4378 3194 
L 6072 3194 
L 6072 2803 
L 5203 2803 
L 5203 2047 
L 5959 2047 
L 5959 1650 
L 5216 1650 
L 5216 31 
Q 5216 -447 4691 -447 
Q 4394 -447 3888 -391 
L 3784 78 
Q 4272 0 4591 0 
Q 4775 0 4775 172 
L 4775 1650 
L 2581 1650 
L 2581 2047 
L 4763 2047 
L 4763 2803 
L 2538 2803 
L 2538 3194 
L 3938 3194 
L 3938 3981 
L 2716 3981 
L 2716 4372 
L 3938 4372 
z
M 3669 384 
Q 3331 950 2956 1325 
L 3291 1575 
Q 3719 1147 4025 659 
L 3669 384 
z
" transform="scale(0.015625)"/>
     <path id="IPAexGothic-3a" d="M 1369 2559 
L 672 2559 
L 672 3250 
L 1369 3250 
L 1369 2559 
z
M 1369 63 
L 672 63 
L 672 753 
L 1369 753 
L 1369 63 
z
" transform="scale(0.015625)"/>
     <path id="IPAexGothic-20" transform="scale(0.015625)"/>
     <path id="IPAexGothic-2f" d="M 2719 4709 
L 600 -884 
L 300 -763 
L 2413 4831 
L 2719 4709 
z
" transform="scale(0.015625)"/>
     <path id="IPAexGothic-38" d="M 2541 2425 
Q 3700 2031 3700 1197 
Q 3700 541 3100 197 
Q 2663 -56 2016 -56 
Q 1366 -56 928 197 
Q 347 531 347 1178 
Q 347 1988 1409 2381 
L 1409 2400 
Q 481 2734 481 3509 
Q 481 4100 981 4456 
Q 1406 4756 2019 4756 
Q 2703 4756 3131 4403 
Q 3553 4069 3553 3566 
Q 3553 2706 2541 2444 
L 2541 2425 
z
M 2022 2625 
Q 2997 2856 2997 3528 
Q 2997 3916 2675 4150 
Q 2413 4347 2016 4347 
Q 1606 4347 1331 4128 
Q 1050 3897 1050 3522 
Q 1050 3150 1350 2925 
Q 1494 2809 1722 2722 
Q 1984 2616 2022 2625 
z
M 1978 2209 
Q 922 1931 922 1216 
Q 922 775 1313 556 
Q 1606 391 2009 391 
Q 2575 391 2881 697 
Q 3106 922 3106 1250 
Q 3106 1594 2794 1850 
Q 2609 1994 2350 2100 
Q 2047 2222 1978 2209 
z
" transform="scale(0.015625)"/>
     <path id="IPAexGothic-28" d="M 1928 -1016 
L 1653 -1166 
Q 488 69 488 1875 
Q 488 3678 1653 4909 
L 1928 4763 
Q 1006 3522 1006 1881 
Q 1006 203 1928 -1016 
z
" transform="scale(0.015625)"/>
     <path id="IPAexGothic-54" d="M 3866 4141 
L 2175 4141 
L 2175 63 
L 1606 63 
L 1606 4141 
L -31 4141 
L -31 4634 
L 3866 4634 
L 3866 4141 
z
" transform="scale(0.015625)"/>
     <path id="IPAexGothic-29" d="M 466 4909 
Q 1638 3672 1638 1875 
Q 1638 75 466 -1166 
L 191 -1016 
Q 1119 216 1119 1881 
Q 1119 3509 191 4763 
L 466 4909 
z
" transform="scale(0.015625)"/>
    </defs>
    <use xlink:href="#IPAexGothic-66f4"/>
    <use xlink:href="#IPAexGothic-65b0" x="100"/>
    <use xlink:href="#IPAexGothic-65e5" x="200"/>
    <use xlink:href="#IPAexGothic-6642" x="300"/>
    <use xlink:href="#IPAexGothic-3a" x="400"/>
    <use xlink:href="#IPAexGothic-20" x="431.982422"/>
    <use xlink:href="#IPAexGothic-32" x="458.984375"/>
    <use xlink:href="#IPAexGothic-30" x="521.972656"/>
    <use xlink:href="#IPAexGothic-32" x="584.960938"/>
    <use xlink:href="#IPAexGothic-33" x="647.949219"/>
    <use xlink:href="#IPAexGothic-2f" x="710.9375"/>
    <use xlink:href="#IPAexGothic-30" x="760.9375"/>
    <use xlink:href="#IPAexGothic-31" x="823.925781"/>
    <use xlink:href="#IPAexGothic-2f" x="886.914062"/>
    <use xlink:href="#IPAexGothic-30" x="936.914062"/>
    <use xlink:href="#IPAexGothic-33" x="999.902344"/>
    <use xlink:href="#IPAexGothic-20" x="1062.890625"/>
    <use xlink:href="#IPAexGothic-31" x="1089.892578"/>
    <use xlink:href="#IPAexGothic-36" x="1152.880859"/>
    <use xlink:href="#IPAexGothic-3a" x="1215.869141"/>
    <use xlink:href="#IPAexGothic-31" x="1247.851562"/>
    <use xlink:href="#IPAexGothic-33" x="1310.839844"/>
    <use xlink:href="#IPAexGothic-3a" x="1373.828125"/>
    <use xlink:href="#IPAexGothic-35" x="1405.810547"/>
    <use xlink:href="#IPAexGothic-38" x="1468.798828"/>
    <use xlink:href="#IPAexGothic-28" x="1531.787109"/>
    <use xlink:href="#IPAexGothic-4a" x="1565.087891"/>
    <use xlink:href="#IPAexGothic-53" x="1603.076172"/>
    <use xlink:href="#IPAexGothic-54" x="1661.572266"/>
    <use xlink:href="#IPAexGothic-29" x="1721.484375"/>
   </g>
  </g>
 </g>
 <defs>
  <clipPath id="p82184dd497">
   <rect x="29.439063" y="18.879437" width="357.12" height="266.112"/>
  </clipPath>
 </defs>
</svg>
