<?xml version="1.0" encoding="utf-8" standalone="no"?>
<!DOCTYPE svg PUBLIC "-//W3C//DTD SVG 1.1//EN"
  "http://www.w3.org/Graphics/SVG/1.1/DTD/svg11.dtd">
<svg xmlns:xlink="http://www.w3.org/1999/xlink" width="393.759062pt" height="308.582062pt" viewBox="0 0 393.759062 308.582062" xmlns="http://www.w3.org/2000/svg" version="1.1">
 <metadata>
  <rdf:RDF xmlns:dc="http://purl.org/dc/elements/1.1/" xmlns:cc="http://creativecommons.org/ns#" xmlns:rdf="http://www.w3.org/1999/02/22-rdf-syntax-ns#">
   <cc:Work>
    <dc:type rdf:resource="http://purl.org/dc/dcmitype/StillImage"/>
    <dc:date>2023-04-27T07:13:51.383965</dc:date>
    <dc:format>image/svg+xml</dc:format>
    <dc:creator>
     <cc:Agent>
      <dc:title>Matplotlib v3.7.1, https://matplotlib.org/</dc:title>
     </cc:Agent>
    </dc:creator>
   </cc:Work>
  </rdf:RDF>
 </metadata>
 <defs>
  <style type="text/css">*{stroke-linejoin: round; stroke-linecap: butt}</style>
 </defs>
 <g id="figure_1">
  <g id="patch_1">
   <path d="M 0 308.582062 
L 393.759062 308.582062 
L 393.759062 0 
L 0 0 
z
" style="fill: #ffffff"/>
  </g>
  <g id="axes_1">
   <g id="patch_2">
    <path d="M 29.439063 284.991437 
L 386.559062 284.991437 
L 386.559062 18.879437 
L 29.439063 18.879437 
z
" style="fill: #ffffff"/>
   </g>
   <g id="line2d_1">
    <path d="M 29.439063 211.199039 
L 386.559062 211.199039 
" clip-path="url(#p3b68f29bf3)" style="fill: none; stroke: #000000; stroke-linecap: square"/>
   </g>
   <g id="matplotlib.axis_1">
    <g id="xtick_1">
     <g id="line2d_2">
      <defs>
       <path id="m33099032ba" d="M 0 0 
L 0 3.5 
" style="stroke: #000000; stroke-width: 0.8"/>
      </defs>
      <g>
       <use xlink:href="#m33099032ba" x="29.439062" y="284.991437" style="stroke: #000000; stroke-width: 0.8"/>
      </g>
     </g>
     <g id="text_1">
      <!-- Jun -->
      <g transform="translate(21.499219 299.482062) scale(0.1 -0.1)">
       <defs>
        <path id="IPAexGothic-4a" d="M 1819 4634 
L 1819 1234 
Q 1819 -31 763 -31 
Q 303 -31 -125 209 
L 84 644 
Q 378 447 694 447 
Q 1250 447 1250 1203 
L 1250 4634 
L 1819 4634 
z
" transform="scale(0.015625)"/>
        <path id="IPAexGothic-75" d="M 3284 63 
L 2772 63 
L 2772 644 
Q 2300 0 1625 0 
Q 1072 0 763 375 
Q 519 678 519 1241 
L 519 3250 
L 1069 3250 
L 1069 1259 
Q 1069 466 1734 466 
Q 2406 466 2734 1291 
L 2734 3250 
L 3284 3250 
L 3284 63 
z
" transform="scale(0.015625)"/>
        <path id="IPAexGothic-6e" d="M 3328 63 
L 2778 63 
L 2778 2041 
Q 2778 2853 2106 2853 
Q 1428 2853 1113 2041 
L 1113 63 
L 563 63 
L 563 3250 
L 1075 3250 
L 1075 2675 
Q 1525 3316 2222 3316 
Q 3328 3316 3328 2072 
L 3328 63 
z
" transform="scale(0.015625)"/>
       </defs>
       <use xlink:href="#IPAexGothic-4a"/>
       <use xlink:href="#IPAexGothic-75" x="37.988281"/>
       <use xlink:href="#IPAexGothic-6e" x="98.388672"/>
      </g>
     </g>
    </g>
    <g id="xtick_2">
     <g id="line2d_3">
      <g>
       <use xlink:href="#m33099032ba" x="61.806434" y="284.991437" style="stroke: #000000; stroke-width: 0.8"/>
      </g>
     </g>
     <g id="text_2">
      <!-- Jul -->
      <g transform="translate(55.536903 299.482062) scale(0.1 -0.1)">
       <defs>
        <path id="IPAexGothic-6c" d="M 1131 63 
L 581 63 
L 581 4794 
L 1131 4794 
L 1131 63 
z
" transform="scale(0.015625)"/>
       </defs>
       <use xlink:href="#IPAexGothic-4a"/>
       <use xlink:href="#IPAexGothic-75" x="37.988281"/>
       <use xlink:href="#IPAexGothic-6c" x="98.388672"/>
      </g>
     </g>
    </g>
    <g id="xtick_3">
     <g id="line2d_4">
      <g>
       <use xlink:href="#m33099032ba" x="95.252718" y="284.991437" style="stroke: #000000; stroke-width: 0.8"/>
      </g>
     </g>
     <g id="text_3">
      <!-- Aug -->
      <g transform="translate(86.270687 299.42425) scale(0.1 -0.1)">
       <defs>
        <path id="IPAexGothic-41" d="M 4056 63 
L 3444 63 
L 2938 1409 
L 1100 1409 
L 603 63 
L -6 63 
L 1806 4666 
L 2259 4666 
L 4056 63 
z
M 2778 1863 
L 2316 3078 
Q 2125 3588 2028 4000 
L 2009 4000 
Q 1897 3563 1716 3078 
L 1263 1863 
L 2778 1863 
z
" transform="scale(0.015625)"/>
        <path id="IPAexGothic-67" d="M 1331 1150 
Q 1006 1122 1006 900 
Q 1006 613 1763 575 
L 2131 556 
Q 3303 497 3303 -294 
Q 3303 -700 2925 -959 
Q 2519 -1253 1794 -1253 
Q 1138 -1253 738 -1028 
Q 353 -809 353 -428 
Q 353 84 1075 247 
L 1075 269 
Q 506 413 506 778 
Q 506 1116 994 1297 
Q 456 1575 456 2181 
Q 456 2650 769 2963 
Q 1128 3322 1738 3322 
Q 2125 3322 2422 3153 
Q 2650 3453 3259 3463 
L 3259 3013 
Q 2838 3003 2703 2938 
Q 3034 2613 3034 2169 
Q 3034 1728 2734 1425 
Q 2400 1094 1813 1094 
Q 1563 1094 1331 1150 
z
M 1734 2919 
Q 1409 2919 1197 2706 
Q 988 2497 988 2181 
Q 988 1872 1184 1684 
Q 1397 1472 1756 1472 
Q 2094 1472 2297 1678 
Q 2503 1881 2503 2203 
Q 2503 2497 2297 2700 
Q 2081 2919 1734 2919 
z
M 1753 159 
Q 903 159 903 -366 
Q 903 -875 1800 -875 
Q 2378 -875 2638 -606 
Q 2772 -481 2772 -313 
Q 2772 159 1753 159 
z
" transform="scale(0.015625)"/>
       </defs>
       <use xlink:href="#IPAexGothic-41"/>
       <use xlink:href="#IPAexGothic-75" x="63.720703"/>
       <use xlink:href="#IPAexGothic-67" x="124.121094"/>
      </g>
     </g>
    </g>
    <g id="xtick_4">
     <g id="line2d_5">
      <g>
       <use xlink:href="#m33099032ba" x="128.699002" y="284.991437" style="stroke: #000000; stroke-width: 0.8"/>
      </g>
     </g>
     <g id="text_4">
      <!-- Sep -->
      <g transform="translate(119.824002 299.482062) scale(0.1 -0.1)">
       <defs>
        <path id="IPAexGothic-53" d="M 2919 3641 
Q 2563 4259 1853 4259 
Q 1453 4259 1213 4009 
Q 1028 3803 1028 3534 
Q 1028 3238 1266 3047 
Q 1444 2913 1984 2688 
L 2200 2597 
Q 2925 2306 3191 1953 
Q 3422 1644 3422 1259 
Q 3422 644 2969 288 
Q 2559 -31 1931 -31 
Q 881 -31 313 766 
L 753 1100 
Q 1203 459 1938 459 
Q 2288 459 2534 625 
Q 2841 847 2841 1216 
Q 2841 1503 2616 1728 
Q 2375 1959 1728 2206 
L 1541 2278 
Q 453 2694 453 3481 
Q 453 4006 806 4347 
Q 1203 4725 1863 4725 
Q 2841 4725 3359 3956 
L 2919 3641 
z
" transform="scale(0.015625)"/>
        <path id="IPAexGothic-65" d="M 863 1594 
Q 891 1041 1209 722 
Q 1534 397 1997 397 
Q 2606 397 2963 966 
L 3322 728 
Q 2869 -31 1931 -31 
Q 1222 -31 766 422 
Q 306 884 306 1641 
Q 306 2444 788 2925 
Q 1216 3353 1856 3353 
Q 2459 3353 2866 2956 
Q 3322 2494 3322 1722 
L 3322 1594 
L 863 1594 
z
M 2756 1997 
Q 2709 2431 2450 2681 
Q 2194 2938 1844 2938 
Q 1438 2938 1150 2591 
Q 953 2356 894 1997 
L 2756 1997 
z
" transform="scale(0.015625)"/>
        <path id="IPAexGothic-70" d="M 1075 2688 
Q 1525 3341 2206 3341 
Q 2769 3341 3172 2938 
Q 3641 2469 3641 1644 
Q 3641 841 3178 372 
Q 2775 -31 2200 -31 
Q 1569 -31 1106 497 
L 1106 -1216 
L 563 -1216 
L 563 3250 
L 1075 3250 
L 1075 2688 
z
M 1106 1950 
L 1106 1291 
Q 1106 897 1516 600 
Q 1791 403 2106 403 
Q 2469 403 2725 659 
Q 3066 997 3066 1631 
Q 3066 2200 2784 2559 
Q 2503 2900 2100 2900 
Q 1656 2900 1338 2484 
Q 1106 2184 1106 1950 
z
" transform="scale(0.015625)"/>
       </defs>
       <use xlink:href="#IPAexGothic-53"/>
       <use xlink:href="#IPAexGothic-65" x="58.496094"/>
       <use xlink:href="#IPAexGothic-70" x="115.380859"/>
      </g>
     </g>
    </g>
    <g id="xtick_5">
     <g id="line2d_6">
      <g>
       <use xlink:href="#m33099032ba" x="161.066374" y="284.991437" style="stroke: #000000; stroke-width: 0.8"/>
      </g>
     </g>
     <g id="text_5">
      <!-- Oct -->
      <g transform="translate(152.631217 299.482062) scale(0.1 -0.1)">
       <defs>
        <path id="IPAexGothic-4f" d="M 2541 4725 
Q 3456 4725 4044 4138 
Q 4709 3472 4709 2331 
Q 4709 1219 4031 550 
Q 3450 -31 2541 -31 
Q 1638 -31 1056 550 
Q 378 1219 378 2356 
Q 378 3469 1044 4138 
Q 1631 4725 2541 4725 
z
M 2541 4266 
Q 1953 4266 1531 3844 
Q 994 3303 994 2350 
Q 994 1391 1531 863 
Q 1947 447 2541 447 
Q 3131 447 3556 863 
Q 4094 1400 4094 2375 
Q 4094 3297 3550 3844 
Q 3138 4266 2541 4266 
z
" transform="scale(0.015625)"/>
        <path id="IPAexGothic-63" d="M 3269 784 
Q 2834 -31 1900 -31 
Q 1228 -31 788 409 
Q 313 891 313 1663 
Q 313 2428 788 2913 
Q 1222 3347 1881 3347 
Q 2813 3347 3206 2541 
L 2763 2309 
Q 2484 2900 1900 2900 
Q 1516 2900 1234 2619 
Q 881 2266 881 1650 
Q 881 1069 1222 728 
Q 1522 428 1956 428 
Q 2547 428 2847 1016 
L 3269 784 
z
" transform="scale(0.015625)"/>
        <path id="IPAexGothic-74" d="M 2125 241 
Q 1769 -6 1397 -6 
Q 653 -6 653 831 
L 653 2859 
L 219 2859 
L 219 3250 
L 653 3250 
L 653 3966 
L 1178 4228 
L 1178 3250 
L 2063 3250 
L 2063 2859 
L 1178 2859 
L 1178 906 
Q 1178 416 1513 416 
Q 1738 416 1941 588 
L 2125 241 
z
" transform="scale(0.015625)"/>
       </defs>
       <use xlink:href="#IPAexGothic-4f"/>
       <use xlink:href="#IPAexGothic-63" x="79.6875"/>
       <use xlink:href="#IPAexGothic-74" x="134.082031"/>
      </g>
     </g>
    </g>
    <g id="xtick_6">
     <g id="line2d_7">
      <g>
       <use xlink:href="#m33099032ba" x="194.512658" y="284.991437" style="stroke: #000000; stroke-width: 0.8"/>
      </g>
     </g>
     <g id="text_6">
      <!-- Nov -->
      <g transform="translate(185.26422 299.482062) scale(0.1 -0.1)">
       <defs>
        <path id="IPAexGothic-4e" d="M 4244 63 
L 3731 63 
L 1697 3150 
Q 1466 3500 1141 4097 
L 1116 4097 
L 1128 3797 
Q 1159 2803 1159 2469 
L 1159 63 
L 609 63 
L 609 4634 
L 1366 4634 
L 3113 1978 
Q 3453 1447 3713 966 
L 3738 966 
Q 3694 1897 3694 2469 
L 3694 4634 
L 4244 4634 
L 4244 63 
z
" transform="scale(0.015625)"/>
        <path id="IPAexGothic-6f" d="M 1919 3341 
Q 2594 3341 3056 2888 
Q 3531 2413 3531 1638 
Q 3531 888 3066 422 
Q 2609 -31 1919 -31 
Q 1228 -31 781 416 
Q 313 881 313 1656 
Q 313 2413 788 2888 
Q 1241 3341 1919 3341 
z
M 1919 2919 
Q 1519 2919 1241 2631 
Q 888 2278 888 1650 
Q 888 1031 1234 684 
Q 1516 403 1919 403 
Q 2331 403 2609 691 
Q 2956 1038 2956 1672 
Q 2956 2269 2603 2631 
Q 2316 2919 1919 2919 
z
" transform="scale(0.015625)"/>
        <path id="IPAexGothic-76" d="M 3103 3250 
L 1747 6 
L 1375 6 
L 25 3250 
L 628 3250 
L 1338 1388 
L 1522 844 
L 1569 703 
L 1588 703 
Q 1641 884 1822 1388 
L 2516 3250 
L 3103 3250 
z
" transform="scale(0.015625)"/>
       </defs>
       <use xlink:href="#IPAexGothic-4e"/>
       <use xlink:href="#IPAexGothic-6f" x="75.976562"/>
       <use xlink:href="#IPAexGothic-76" x="136.376953"/>
      </g>
     </g>
    </g>
    <g id="xtick_7">
     <g id="line2d_8">
      <g>
       <use xlink:href="#m33099032ba" x="226.880029" y="284.991437" style="stroke: #000000; stroke-width: 0.8"/>
      </g>
     </g>
     <g id="text_7">
      <!-- Dec -->
      <g transform="translate(217.531592 299.482062) scale(0.1 -0.1)">
       <defs>
        <path id="IPAexGothic-44" d="M 609 4634 
L 1984 4634 
Q 3159 4634 3791 4050 
Q 4456 3444 4456 2356 
Q 4456 1047 3516 441 
Q 2925 63 1941 63 
L 609 63 
L 609 4634 
z
M 1172 556 
L 1894 556 
Q 3853 556 3853 2356 
Q 3853 4147 1928 4147 
L 1172 4147 
L 1172 556 
z
" transform="scale(0.015625)"/>
       </defs>
       <use xlink:href="#IPAexGothic-44"/>
       <use xlink:href="#IPAexGothic-65" x="75.683594"/>
       <use xlink:href="#IPAexGothic-63" x="132.568359"/>
      </g>
     </g>
    </g>
    <g id="xtick_8">
     <g id="line2d_9">
      <g>
       <use xlink:href="#m33099032ba" x="260.326313" y="284.991437" style="stroke: #000000; stroke-width: 0.8"/>
      </g>
     </g>
     <g id="text_8">
      <!-- 2023 -->
      <g transform="translate(247.729438 299.482062) scale(0.1 -0.1)">
       <defs>
        <path id="IPAexGothic-32" d="M 3659 63 
L 447 63 
L 447 594 
Q 825 1475 1894 2203 
L 2072 2322 
Q 2619 2697 2791 2906 
Q 2988 3153 2988 3444 
Q 2988 3772 2756 4003 
Q 2500 4259 2084 4259 
Q 1250 4259 991 3328 
L 497 3506 
Q 853 4725 2116 4725 
Q 2806 4725 3216 4316 
Q 3575 3947 3575 3425 
Q 3575 3038 3344 2722 
Q 3131 2416 2366 1938 
L 2231 1856 
Q 1256 1253 978 569 
L 3659 569 
L 3659 63 
z
" transform="scale(0.015625)"/>
        <path id="IPAexGothic-30" d="M 2038 4725 
Q 2881 4725 3334 3944 
Q 3694 3325 3694 2344 
Q 3694 1372 3334 741 
Q 2888 -31 2016 -31 
Q 1147 -31 700 741 
Q 341 1372 341 2350 
Q 341 3713 1000 4334 
Q 1419 4725 2038 4725 
z
M 2016 4266 
Q 1516 4266 1228 3759 
Q 934 3247 934 2344 
Q 934 1456 1222 947 
Q 1513 447 2016 447 
Q 2619 447 2909 1153 
Q 3100 1622 3100 2375 
Q 3100 3256 2806 3759 
Q 2509 4266 2016 4266 
z
" transform="scale(0.015625)"/>
        <path id="IPAexGothic-33" d="M 2381 2419 
Q 3506 2216 3506 1278 
Q 3506 716 3128 356 
Q 2709 -31 1944 -31 
Q 797 -31 288 881 
L 756 1131 
Q 1109 441 1938 441 
Q 2425 441 2694 691 
Q 2950 928 2950 1291 
Q 2950 1719 2566 1978 
Q 2216 2213 1644 2213 
L 1363 2213 
L 1363 2669 
L 1656 2669 
Q 2231 2669 2534 2888 
Q 2859 3119 2859 3509 
Q 2859 3934 2494 4138 
Q 2259 4278 1931 4278 
Q 1238 4278 903 3578 
L 434 3803 
Q 897 4725 1938 4725 
Q 2597 4725 3006 4394 
Q 3416 4069 3416 3534 
Q 3416 3028 3019 2706 
Q 2763 2500 2381 2444 
L 2381 2419 
z
" transform="scale(0.015625)"/>
       </defs>
       <use xlink:href="#IPAexGothic-32"/>
       <use xlink:href="#IPAexGothic-30" x="62.988281"/>
       <use xlink:href="#IPAexGothic-32" x="125.976562"/>
       <use xlink:href="#IPAexGothic-33" x="188.964844"/>
      </g>
     </g>
    </g>
    <g id="xtick_9">
     <g id="line2d_10">
      <g>
       <use xlink:href="#m33099032ba" x="293.772597" y="284.991437" style="stroke: #000000; stroke-width: 0.8"/>
      </g>
     </g>
     <g id="text_9">
      <!-- Feb -->
      <g transform="translate(284.94916 299.482062) scale(0.1 -0.1)">
       <defs>
        <path id="IPAexGothic-46" d="M 3469 4141 
L 1172 4141 
L 1172 2656 
L 3206 2656 
L 3206 2188 
L 1172 2188 
L 1172 63 
L 609 63 
L 609 4634 
L 3469 4634 
L 3469 4141 
z
" transform="scale(0.015625)"/>
        <path id="IPAexGothic-62" d="M 1125 2731 
Q 1550 3341 2219 3341 
Q 2788 3341 3191 2938 
Q 3659 2469 3659 1644 
Q 3659 838 3191 372 
Q 2788 -31 2206 -31 
Q 1559 -31 1088 516 
L 1009 44 
L 581 44 
L 581 4794 
L 1125 4794 
L 1125 2731 
z
M 1125 1997 
L 1125 1253 
Q 1125 888 1528 600 
Q 1803 403 2119 403 
Q 2488 403 2744 659 
Q 3084 1009 3084 1631 
Q 3084 2194 2803 2553 
Q 2525 2900 2125 2900 
Q 1759 2900 1438 2578 
Q 1125 2266 1125 1997 
z
" transform="scale(0.015625)"/>
       </defs>
       <use xlink:href="#IPAexGothic-46"/>
       <use xlink:href="#IPAexGothic-65" x="57.177734"/>
       <use xlink:href="#IPAexGothic-62" x="114.0625"/>
      </g>
     </g>
    </g>
    <g id="xtick_10">
     <g id="line2d_11">
      <g>
       <use xlink:href="#m33099032ba" x="323.982144" y="284.991437" style="stroke: #000000; stroke-width: 0.8"/>
      </g>
     </g>
     <g id="text_10">
      <!-- Mar -->
      <g transform="translate(314.872769 299.482062) scale(0.1 -0.1)">
       <defs>
        <path id="IPAexGothic-4d" d="M 5147 63 
L 4597 63 
L 4597 2534 
Q 4597 3281 4634 4134 
L 4609 4134 
Q 4356 3409 4066 2675 
L 3066 209 
L 2650 209 
L 1641 2725 
Q 1328 3506 1128 4141 
L 1103 4141 
Q 1141 3131 1141 2553 
L 1141 63 
L 609 63 
L 609 4634 
L 1416 4634 
L 2503 1944 
Q 2697 1472 2869 906 
L 2888 906 
Q 3028 1416 3234 1931 
L 4316 4634 
L 5147 4634 
L 5147 63 
z
" transform="scale(0.015625)"/>
        <path id="IPAexGothic-61" d="M 3156 63 
L 2672 63 
Q 2559 303 2531 556 
L 2509 556 
Q 2147 -25 1428 -25 
Q 934 -25 622 288 
Q 347 563 347 959 
Q 347 1947 2050 1997 
L 2478 2009 
L 2478 2175 
Q 2478 2509 2288 2700 
Q 2088 2900 1775 2900 
Q 1238 2900 969 2378 
L 494 2597 
Q 938 3328 1788 3328 
Q 2375 3328 2691 3000 
Q 2984 2706 2984 2169 
L 2984 997 
Q 2984 400 3156 63 
z
M 2491 1625 
L 2141 1619 
Q 903 1591 903 953 
Q 903 728 1050 581 
Q 1231 403 1525 403 
Q 1934 403 2234 703 
Q 2491 969 2491 1344 
L 2491 1625 
z
" transform="scale(0.015625)"/>
        <path id="IPAexGothic-72" d="M 2309 3316 
L 2213 2769 
Q 2106 2791 2022 2791 
Q 1653 2791 1413 2444 
Q 1113 2006 1113 1675 
L 1113 63 
L 563 63 
L 563 3250 
L 1081 3250 
L 1056 2303 
L 1069 2303 
Q 1422 3341 2097 3341 
Q 2206 3341 2309 3316 
z
" transform="scale(0.015625)"/>
       </defs>
       <use xlink:href="#IPAexGothic-4d"/>
       <use xlink:href="#IPAexGothic-61" x="90.185547"/>
       <use xlink:href="#IPAexGothic-72" x="145.166016"/>
      </g>
     </g>
    </g>
    <g id="xtick_11">
     <g id="line2d_12">
      <g>
       <use xlink:href="#m33099032ba" x="357.428428" y="284.991437" style="stroke: #000000; stroke-width: 0.8"/>
      </g>
     </g>
     <g id="text_11">
      <!-- Apr -->
      <g transform="translate(349.286241 299.482062) scale(0.1 -0.1)">
       <use xlink:href="#IPAexGothic-41"/>
       <use xlink:href="#IPAexGothic-70" x="63.720703"/>
       <use xlink:href="#IPAexGothic-72" x="125.830078"/>
      </g>
     </g>
    </g>
   </g>
   <g id="matplotlib.axis_2">
    <g id="ytick_1">
     <g id="line2d_13">
      <defs>
       <path id="madc0ca42e7" d="M 0 0 
L -3.5 0 
" style="stroke: #000000; stroke-width: 0.8"/>
      </defs>
      <g>
       <use xlink:href="#madc0ca42e7" x="29.439063" y="269.014637" style="stroke: #000000; stroke-width: 0.8"/>
      </g>
     </g>
     <g id="text_12">
      <!-- 0.5 -->
      <g transform="translate(7.2 272.759949) scale(0.1 -0.1)">
       <defs>
        <path id="IPAexGothic-2e" d="M 1184 63 
L 494 63 
L 494 753 
L 1184 753 
L 1184 63 
z
" transform="scale(0.015625)"/>
        <path id="IPAexGothic-35" d="M 1178 2603 
Q 1634 2963 2172 2963 
Q 2816 2963 3241 2528 
Q 3638 2113 3638 1497 
Q 3638 938 3297 513 
Q 2869 -31 2031 -31 
Q 959 -31 469 784 
L 938 1028 
Q 1309 434 2013 434 
Q 2466 434 2769 716 
Q 3081 1013 3081 1503 
Q 3081 1966 2806 2241 
Q 2519 2528 2056 2528 
Q 1406 2528 1072 2028 
L 591 2091 
L 884 4634 
L 3406 4634 
L 3406 4153 
L 1341 4153 
L 1134 2603 
L 1178 2603 
z
" transform="scale(0.015625)"/>
       </defs>
       <use xlink:href="#IPAexGothic-30"/>
       <use xlink:href="#IPAexGothic-2e" x="62.988281"/>
       <use xlink:href="#IPAexGothic-35" x="89.404297"/>
      </g>
     </g>
    </g>
    <g id="ytick_2">
     <g id="line2d_14">
      <g>
       <use xlink:href="#madc0ca42e7" x="29.439063" y="211.199039" style="stroke: #000000; stroke-width: 0.8"/>
      </g>
     </g>
     <g id="text_13">
      <!-- 1.0 -->
      <g transform="translate(7.2 214.944352) scale(0.1 -0.1)">
       <defs>
        <path id="IPAexGothic-31" d="M 2463 63 
L 1900 63 
L 1900 4103 
Q 1372 3922 788 3797 
L 684 4231 
Q 1519 4441 2106 4731 
L 2463 4731 
L 2463 63 
z
" transform="scale(0.015625)"/>
       </defs>
       <use xlink:href="#IPAexGothic-31"/>
       <use xlink:href="#IPAexGothic-2e" x="62.988281"/>
       <use xlink:href="#IPAexGothic-30" x="89.404297"/>
      </g>
     </g>
    </g>
    <g id="ytick_3">
     <g id="line2d_15">
      <g>
       <use xlink:href="#madc0ca42e7" x="29.439063" y="153.383442" style="stroke: #000000; stroke-width: 0.8"/>
      </g>
     </g>
     <g id="text_14">
      <!-- 1.5 -->
      <g transform="translate(7.2 157.128754) scale(0.1 -0.1)">
       <use xlink:href="#IPAexGothic-31"/>
       <use xlink:href="#IPAexGothic-2e" x="62.988281"/>
       <use xlink:href="#IPAexGothic-35" x="89.404297"/>
      </g>
     </g>
    </g>
    <g id="ytick_4">
     <g id="line2d_16">
      <g>
       <use xlink:href="#madc0ca42e7" x="29.439063" y="95.567844" style="stroke: #000000; stroke-width: 0.8"/>
      </g>
     </g>
     <g id="text_15">
      <!-- 2.0 -->
      <g transform="translate(7.2 99.313157) scale(0.1 -0.1)">
       <use xlink:href="#IPAexGothic-32"/>
       <use xlink:href="#IPAexGothic-2e" x="62.988281"/>
       <use xlink:href="#IPAexGothic-30" x="89.404297"/>
      </g>
     </g>
    </g>
    <g id="ytick_5">
     <g id="line2d_17">
      <g>
       <use xlink:href="#madc0ca42e7" x="29.439063" y="37.752247" style="stroke: #000000; stroke-width: 0.8"/>
      </g>
     </g>
     <g id="text_16">
      <!-- 2.5 -->
      <g transform="translate(7.2 41.497559) scale(0.1 -0.1)">
       <use xlink:href="#IPAexGothic-32"/>
       <use xlink:href="#IPAexGothic-2e" x="62.988281"/>
       <use xlink:href="#IPAexGothic-35" x="89.404297"/>
      </g>
     </g>
    </g>
   </g>
   <g id="line2d_18">
    <path d="M 29.439062 227.411867 
L 30.517975 255.471758 
L 31.596887 269.405805 
L 32.6758 242.945807 
L 33.754712 262.441258 
L 35.912537 251.639145 
L 36.991449 227.514621 
L 38.070362 229.940841 
L 39.149274 194.078383 
L 40.228186 246.403784 
L 41.307099 250.411663 
L 42.386011 205.84664 
L 43.464924 249.191321 
L 44.543836 272.895437 
L 45.622748 243.090535 
L 46.701661 247.559579 
L 47.780573 238.429093 
L 48.859485 112.810292 
L 49.938398 184.323192 
L 51.01731 181.498781 
L 52.096223 30.975437 
L 54.254047 168.571026 
L 55.33296 110.868109 
L 56.411872 213.126183 
L 57.490785 156.293505 
L 58.569697 124.518024 
L 59.648609 151.875457 
L 60.727522 236.751655 
L 61.806434 106.655378 
L 62.885346 51.387485 
L 63.964259 102.788184 
L 65.043171 95.926279 
L 66.122084 36.542983 
L 67.200996 79.37836 
L 68.279908 35.439549 
L 69.358821 110.396771 
L 70.437733 116.980214 
L 71.516646 109.726148 
L 72.595558 177.160719 
L 73.67447 110.814502 
L 74.753383 153.702013 
L 75.832295 148.460822 
L 76.911208 164.812112 
L 77.99012 190.526245 
L 79.069032 181.526351 
L 80.147945 197.096587 
L 81.226857 219.976945 
L 82.305769 163.710275 
L 83.384682 173.022011 
L 84.463594 196.817697 
L 85.542507 179.527296 
L 86.621419 191.661352 
L 87.700331 192.887858 
L 88.779244 173.15897 
L 89.858156 188.50237 
L 90.937069 201.809366 
L 92.015981 195.197746 
L 93.094893 183.412435 
L 94.173806 192.046725 
L 95.252718 204.737627 
L 96.33163 199.025674 
L 97.410543 189.016626 
L 99.568368 182.941981 
L 100.64728 200.02008 
L 101.726192 192.032303 
L 102.805105 181.775482 
L 103.884017 186.871327 
L 104.96293 193.9839 
L 106.041842 204.601463 
L 107.120754 225.669065 
L 108.199667 207.989558 
L 109.278579 218.057369 
L 110.357492 204.232725 
L 111.436404 217.282458 
L 112.515316 202.720535 
L 113.594229 195.141529 
L 114.673141 153.461242 
L 115.752053 171.531238 
L 116.830966 185.828914 
L 117.909878 204.950127 
L 118.988791 187.736367 
L 120.067703 211.671324 
L 121.146615 216.92144 
L 122.225528 231.587854 
L 123.30444 248.509599 
L 124.383353 240.826108 
L 125.462265 241.29957 
L 126.541177 247.072575 
L 127.62009 251.367839 
L 128.699002 251.669425 
L 129.777914 251.785215 
L 130.856827 242.900107 
L 131.935739 251.663262 
L 133.014652 241.186243 
L 134.093564 228.929625 
L 135.172476 240.670472 
L 136.251389 239.689961 
L 137.330301 228.587222 
L 138.409214 234.114512 
L 139.488126 220.053728 
L 140.567038 221.634093 
L 141.645951 247.789493 
L 142.724863 250.578039 
L 143.803775 230.847867 
L 144.882688 240.571341 
L 145.9616 229.667605 
L 147.040513 228.965012 
L 148.119425 226.507 
L 149.198337 266.267581 
L 150.27725 173.994674 
L 151.356162 228.352097 
L 152.435075 212.968149 
L 153.513987 243.863512 
L 154.592899 195.951487 
L 155.671812 187.500784 
L 156.750724 195.32975 
L 157.829637 238.855842 
L 158.908549 224.563828 
L 159.987461 239.674853 
L 161.066374 205.067187 
L 162.145286 219.657973 
L 163.224198 258.893645 
L 164.303111 189.095647 
L 165.382023 231.988543 
L 166.460936 230.452082 
L 167.539848 208.848889 
L 168.61876 214.413367 
L 169.697673 237.774657 
L 170.776585 208.216448 
L 171.855498 269.328924 
L 172.93441 186.857034 
L 174.013322 168.652783 
L 175.092235 211.199039 
L 176.171147 197.903063 
L 177.250059 190.42842 
L 178.328972 209.746404 
L 179.407884 135.123595 
L 180.486797 212.926136 
L 181.565709 239.34414 
L 182.644621 184.631705 
L 183.723534 193.892671 
L 184.802446 220.351516 
L 185.881359 197.002011 
L 186.960271 191.634272 
L 188.039183 213.253557 
L 189.118096 183.049443 
L 190.197008 199.198481 
L 191.275921 190.346771 
L 192.354833 160.309806 
L 193.433745 189.784075 
L 194.512658 198.104074 
L 195.59157 152.110827 
L 196.670482 152.9204 
L 197.749395 232.748365 
L 198.828307 165.024121 
L 199.90722 194.085734 
L 200.986132 199.838398 
L 202.065044 173.564927 
L 203.143957 209.205445 
L 204.222869 206.690562 
L 205.301782 156.249641 
L 206.380694 220.402577 
L 207.459606 215.284532 
L 208.538519 225.924092 
L 209.617431 188.099011 
L 210.696343 185.511636 
L 211.775256 211.199039 
L 212.854168 194.160213 
L 213.933081 184.55213 
L 215.011993 182.799057 
L 217.169818 203.930102 
L 218.24873 168.757197 
L 219.327643 220.491359 
L 220.406555 171.577359 
L 222.56438 192.11637 
L 223.643292 204.402838 
L 224.722204 198.987955 
L 225.801117 181.777237 
L 226.880029 142.696764 
L 227.958942 213.580923 
L 229.037854 220.529523 
L 230.116766 204.080643 
L 231.195679 205.292279 
L 232.274591 181.962456 
L 233.353504 194.793532 
L 234.432416 197.432704 
L 235.511328 173.295964 
L 236.590241 175.045451 
L 237.669153 167.16196 
L 238.748066 187.120934 
L 239.826978 183.834422 
L 240.90589 173.778001 
L 241.984803 181.23856 
L 243.063715 201.020413 
L 244.142627 187.828789 
L 245.22154 213.66936 
L 246.300452 207.768569 
L 247.379365 207.295129 
L 248.458277 192.832229 
L 249.537189 206.958159 
L 250.616102 188.728128 
L 251.695014 193.851266 
L 252.773927 207.103197 
L 253.852839 215.224404 
L 254.931751 196.113595 
L 256.010664 220.91992 
L 257.089576 200.04709 
L 258.168488 223.444191 
L 259.247401 251.024981 
L 260.326313 228.180558 
L 261.405226 208.755181 
L 262.484138 251.311193 
L 263.56305 254.432046 
L 264.641963 215.74342 
L 265.720875 126.299141 
L 266.799788 90.185267 
L 267.8787 169.01121 
L 268.957612 202.233317 
L 270.036525 208.810336 
L 271.115437 167.736099 
L 272.19435 215.685286 
L 273.273262 255.304956 
L 274.352174 257.151057 
L 275.431087 241.910597 
L 276.509999 230.363911 
L 277.588911 201.639485 
L 278.667824 252.591109 
L 279.746736 261.202922 
L 280.825649 248.191392 
L 281.904561 245.888016 
L 282.983473 248.528538 
L 284.062386 233.937612 
L 285.141298 243.873594 
L 286.220211 245.699396 
L 287.299123 238.379427 
L 288.378035 250.421781 
L 289.456948 242.025158 
L 290.53586 235.679743 
L 291.614772 231.977605 
L 292.693685 268.725993 
L 293.772597 251.010186 
L 294.85151 243.44844 
L 295.930422 231.173865 
L 297.009334 246.470516 
L 298.088247 240.806074 
L 299.167159 205.729567 
L 300.246072 216.74151 
L 301.324984 221.239134 
L 302.403896 222.049942 
L 303.482809 236.243828 
L 304.561721 216.587974 
L 305.640633 250.056764 
L 306.719546 220.887451 
L 307.798458 228.799652 
L 308.877371 253.712581 
L 309.956283 218.850978 
L 311.035195 215.357996 
L 312.114108 237.280047 
L 313.19302 193.27922 
L 314.271933 224.105076 
L 315.350845 238.379537 
L 316.429757 241.772305 
L 317.50867 251.269511 
L 318.587582 255.03236 
L 320.745407 237.065956 
L 321.824319 226.130001 
L 322.903232 244.38679 
L 323.982144 206.157732 
L 325.061056 233.765533 
L 326.139969 159.336552 
L 327.218881 185.327724 
L 328.297794 214.962751 
L 329.376706 217.21233 
L 330.455618 183.217935 
L 331.534531 224.645526 
L 332.613443 214.214028 
L 333.692356 235.628575 
L 334.771268 247.936648 
L 335.85018 239.212375 
L 336.929093 229.20156 
L 339.086917 253.457905 
L 340.16583 223.82357 
L 341.244742 230.110703 
L 342.323655 231.751414 
L 343.402567 221.724925 
L 344.481479 218.438731 
L 345.560392 196.729311 
L 346.639304 269.644947 
L 347.718217 186.805833 
L 348.797129 151.469654 
L 349.876041 196.794784 
L 350.954954 186.090119 
L 352.033866 212.367022 
L 353.112779 270.557568 
L 354.191691 131.696335 
L 355.270603 246.286327 
L 356.349516 246.583352 
L 357.428428 237.988485 
L 358.50734 247.318928 
L 359.586253 158.670839 
L 360.665165 179.975338 
L 361.744078 223.430761 
L 362.82299 212.644411 
L 363.901902 225.046752 
L 364.980815 197.113467 
L 366.059727 202.169595 
L 367.13864 251.481393 
L 368.217552 236.781261 
L 369.296464 190.034499 
L 371.454289 209.627986 
L 372.533201 206.447701 
L 373.612114 229.946022 
L 374.691026 202.966425 
L 375.769939 187.325942 
L 376.848851 234.850923 
L 377.927763 249.425785 
L 379.006676 237.707895 
L 380.085588 238.97414 
L 381.164501 232.48244 
L 382.243413 220.86156 
L 383.322325 241.904439 
L 384.401238 236.738014 
L 385.48015 191.805638 
L 385.48015 191.805638 
" clip-path="url(#p3b68f29bf3)" style="fill: none; stroke: #1f77b4; stroke-width: 1.5; stroke-linecap: square"/>
   </g>
   <g id="line2d_19">
    <path d="M 29.439062 230.929789 
L 30.517975 242.60231 
L 31.596887 262.8168 
L 32.6758 257.425513 
L 33.754712 253.337157 
L 34.833624 259.836211 
L 35.912537 254.434415 
L 36.991449 240.414674 
L 38.070362 228.735232 
L 39.149274 213.41839 
L 40.228186 223.501825 
L 41.307099 248.433331 
L 42.386011 230.677266 
L 43.464924 229.912564 
L 44.543836 262.11981 
L 45.622748 259.625445 
L 46.701661 245.355694 
L 47.780573 243.118728 
L 48.859485 189.281671 
L 49.938398 152.189606 
L 51.01731 182.917915 
L 52.096223 119.473036 
L 53.175135 68.196709 
L 54.254047 137.669929 
L 55.33296 141.957318 
L 56.411872 170.127431 
L 57.490785 187.579679 
L 58.569697 141.084002 
L 59.648609 138.693349 
L 60.727522 201.292679 
L 61.806434 186.000414 
L 62.885346 80.567026 
L 63.964259 78.413733 
L 65.043171 99.383107 
L 66.122084 67.931655 
L 67.200996 58.815077 
L 68.279908 58.306173 
L 69.358821 75.699401 
L 70.437733 113.713912 
L 71.516646 113.383995 
L 72.595558 146.569691 
L 73.67447 147.022086 
L 74.753383 133.443524 
L 75.832295 151.100956 
L 76.911208 156.832948 
L 77.99012 178.224324 
L 79.069032 186.098223 
L 80.147945 189.532009 
L 81.226857 209.091256 
L 82.305769 194.807872 
L 83.384682 168.434555 
L 84.463594 185.419494 
L 85.542507 188.44227 
L 86.621419 185.724694 
L 87.700331 192.276003 
L 88.779244 183.362139 
L 89.858156 181.032368 
L 90.937069 195.324076 
L 92.015981 198.546144 
L 93.094893 189.431392 
L 94.173806 187.79659 
L 95.252718 198.54902 
L 96.33163 201.914295 
L 97.410543 194.115474 
L 98.489455 187.422411 
L 99.568368 184.383085 
L 100.64728 191.750659 
L 101.726192 196.087179 
L 102.805105 186.997904 
L 103.884017 184.346184 
L 104.96293 190.473981 
L 106.041842 199.403219 
L 107.120754 215.633088 
L 108.199667 217.185071 
L 109.278579 213.134848 
L 110.357492 211.351742 
L 111.436404 210.94113 
L 112.515316 210.228598 
L 113.594229 198.987184 
L 114.673141 175.731796 
L 115.752053 162.744798 
L 117.909878 195.737687 
L 118.988791 196.62741 
L 120.067703 200.268399 
L 121.146615 214.327003 
L 122.225528 224.517111 
L 123.30444 240.462163 
L 124.383353 244.757718 
L 125.462265 241.063165 
L 126.541177 244.236496 
L 127.62009 249.249927 
L 128.699002 251.518783 
L 129.777914 251.727342 
L 130.856827 247.466905 
L 131.935739 247.402446 
L 133.014652 246.595581 
L 134.093564 235.262778 
L 135.172476 234.987471 
L 136.251389 240.181603 
L 137.330301 234.304978 
L 138.409214 231.390872 
L 139.488126 227.332189 
L 140.567038 220.846856 
L 142.724863 249.196285 
L 143.803775 241.279862 
L 144.882688 235.839395 
L 145.9616 235.281663 
L 147.040513 229.316941 
L 148.119425 227.743627 
L 149.198337 248.882551 
L 150.27725 230.621466 
L 151.356162 204.147875 
L 152.435075 220.93913 
L 153.513987 229.635769 
L 154.592899 222.625721 
L 155.671812 191.792225 
L 156.750724 191.471858 
L 157.829637 219.272458 
L 158.908549 231.97864 
L 159.987461 232.42119 
L 161.066374 223.814193 
L 162.145286 212.595296 
L 163.224198 241.501939 
L 164.303111 230.097519 
L 165.382023 212.536835 
L 166.460936 231.223399 
L 167.539848 220.196168 
L 168.61876 211.66473 
L 169.697673 226.773505 
L 170.776585 224.052711 
L 171.855498 244.24423 
L 172.93441 237.116008 
L 174.013322 178.033043 
L 176.171147 204.731901 
L 177.250059 194.218394 
L 178.328972 200.456001 
L 179.407884 177.011185 
L 180.486797 179.059561 
L 181.565709 227.005264 
L 182.644621 215.29372 
L 183.723534 189.34014 
L 184.802446 207.855357 
L 185.881359 209.25497 
L 186.960271 194.345323 
L 188.039183 202.914504 
L 189.118096 199.04078 
L 190.197008 191.364392 
L 191.275921 194.846812 
L 192.354833 176.074523 
L 193.433745 175.764073 
L 194.512658 194.009205 
L 195.59157 176.860376 
L 196.670482 152.516084 
L 197.749395 198.91713 
L 198.828307 203.448625 
L 199.90722 180.273516 
L 200.986132 196.993923 
L 202.065044 187.318791 
L 203.143957 192.562593 
L 204.222869 207.954654 
L 205.301782 183.674736 
L 206.380694 192.091624 
L 207.459606 217.873602 
L 208.538519 220.737602 
L 209.617431 208.513572 
L 210.696343 186.8113 
L 211.775256 198.998945 
L 212.854168 202.972279 
L 213.933081 189.440136 
L 215.011993 183.678277 
L 216.090905 188.335204 
L 217.169818 198.897374 
L 218.24873 187.448754 
L 219.327643 197.179515 
L 220.406555 198.341262 
L 221.485467 176.894581 
L 223.643292 198.406453 
L 224.722204 201.724689 
L 225.801117 190.654224 
L 226.880029 163.401008 
L 227.958942 182.424595 
L 229.037854 217.110216 
L 230.116766 212.600777 
L 231.195679 204.687964 
L 232.274591 194.139114 
L 233.353504 188.526714 
L 234.432416 196.119779 
L 235.511328 185.880047 
L 236.590241 174.173214 
L 237.669153 171.1536 
L 238.748066 177.474475 
L 239.826978 185.48723 
L 240.90589 178.891638 
L 241.984803 177.554882 
L 243.063715 191.49043 
L 244.142627 194.588989 
L 245.22154 201.412831 
L 246.300452 210.756455 
L 247.379365 207.532084 
L 248.458277 200.270107 
L 249.537189 200.091846 
L 250.616102 198.165608 
L 251.695014 191.313905 
L 252.773927 200.651084 
L 253.852839 211.235099 
L 254.931751 206.046382 
L 256.010664 209.168684 
L 257.089576 210.952529 
L 258.168488 212.341773 
L 259.247401 238.302243 
L 260.326313 240.353858 
L 261.405226 218.904029 
L 262.484138 232.400817 
L 263.56305 252.888083 
L 264.641963 237.150337 
L 265.720875 177.577562 
L 266.799788 108.989297 
L 267.8787 133.576313 
L 268.957612 186.602691 
L 270.036525 205.566408 
L 271.115437 189.803691 
L 272.19435 193.854637 
L 273.273262 237.669294 
L 274.352174 256.234041 
L 275.431087 249.907348 
L 276.509999 236.3212 
L 277.588911 216.936234 
L 278.667824 230.424572 
L 279.746736 257.029702 
L 280.825649 254.991137 
L 281.904561 247.048016 
L 282.983473 247.219224 
L 284.062386 241.544538 
L 285.141298 239.046068 
L 286.220211 244.791574 
L 287.299123 242.11844 
L 288.378035 244.62081 
L 289.456948 246.332876 
L 290.53586 238.909678 
L 291.614772 233.847098 
L 292.693685 252.591834 
L 293.772597 260.456547 
L 294.85151 247.319155 
L 295.930422 237.521782 
L 297.009334 239.155159 
L 298.088247 243.68652 
L 299.167159 224.763671 
L 300.246072 211.366742 
L 301.324984 219.013772 
L 302.403896 221.645319 
L 303.482809 229.405031 
L 304.561721 226.898006 
L 305.640633 234.831969 
L 306.719546 236.643788 
L 307.798458 224.92031 
L 308.877371 242.167574 
L 309.956283 237.975354 
L 311.035195 217.118387 
L 312.114108 226.918474 
L 313.19302 217.470651 
L 314.271933 209.70189 
L 315.350845 231.509136 
L 316.429757 240.092508 
L 318.587582 253.174961 
L 319.666495 250.620979 
L 321.824319 231.755086 
L 322.903232 235.714517 
L 323.982144 227.087281 
L 325.061056 220.856887 
L 326.139969 201.979325 
L 327.218881 172.879669 
L 328.297794 201.014775 
L 329.376706 216.093253 
L 330.455618 201.361197 
L 331.534531 205.689899 
L 332.613443 219.5565 
L 333.692356 225.485354 
L 334.771268 242.005556 
L 335.85018 243.688865 
L 336.929093 234.342313 
L 338.008005 235.172055 
L 339.086917 247.370212 
L 340.16583 239.894402 
L 341.244742 227.016627 
L 342.323655 230.934568 
L 343.402567 226.863796 
L 344.481479 220.094475 
L 345.560392 208.079088 
L 346.639304 240.575619 
L 347.718217 237.346517 
L 348.797129 170.130648 
L 349.876041 175.823307 
L 350.954954 191.548291 
L 352.033866 199.90677 
L 353.112779 246.573458 
L 354.191691 222.041376 
L 355.270603 201.463386 
L 356.349516 246.434977 
L 357.428428 242.395209 
L 358.50734 242.783083 
L 359.586253 211.199039 
L 360.665165 169.683708 
L 361.744078 203.603942 
L 362.82299 218.171346 
L 363.901902 219.023784 
L 364.980815 211.92582 
L 366.059727 199.666658 
L 367.13864 229.912564 
L 368.217552 244.458602 
L 369.296464 215.842327 
L 370.375377 194.909964 
L 371.454289 204.722485 
L 372.533201 208.048487 
L 373.612114 218.834091 
L 374.691026 217.28368 
L 375.769939 195.378597 
L 376.848851 213.553984 
L 377.927763 242.452465 
L 379.006676 243.773232 
L 380.085588 238.343282 
L 381.164501 235.786131 
L 382.243413 226.840682 
L 383.322325 231.964677 
L 384.401238 239.359363 
L 385.48015 216.536691 
L 385.48015 216.536691 
" clip-path="url(#p3b68f29bf3)" style="fill: none; stroke: #ff7f0e; stroke-width: 1.5; stroke-linecap: square"/>
   </g>
   <g id="line2d_20">
    <path d="M 29.439062 229.122786 
L 30.517975 239.928401 
L 31.596887 252.698705 
L 32.6758 256.780278 
L 33.754712 259.139403 
L 34.833624 254.622372 
L 35.912537 257.208287 
L 36.991449 246.388486 
L 38.070362 237.055655 
L 39.149274 218.326475 
L 41.307099 233.387372 
L 42.386011 236.234427 
L 43.464924 237.293425 
L 45.622748 256.313321 
L 46.701661 255.822722 
L 47.780573 243.109331 
L 48.859485 212.36467 
L 51.01731 162.563334 
L 52.096223 143.84129 
L 53.175135 113.406318 
L 54.254047 107.256927 
L 55.33296 129.127564 
L 56.411872 169.610337 
L 57.490785 165.645532 
L 58.569697 169.115602 
L 59.648609 144.753156 
L 60.727522 179.647632 
L 61.806434 175.437505 
L 62.885346 150.710969 
L 63.964259 88.208754 
L 65.043171 84.394062 
L 66.122084 80.114816 
L 67.200996 71.804879 
L 68.279908 51.239386 
L 69.358821 76.931758 
L 70.437733 90.291085 
L 71.516646 112.392863 
L 72.595558 137.201801 
L 73.67447 135.362509 
L 74.753383 149.276885 
L 75.832295 138.58476 
L 76.911208 155.795645 
L 77.99012 168.900399 
L 81.226857 200.539182 
L 82.305769 195.575228 
L 83.384682 187.912342 
L 84.463594 178.52472 
L 85.542507 183.482093 
L 86.621419 189.523726 
L 87.700331 188.153999 
L 88.779244 186.18367 
L 89.858156 185.09643 
L 90.937069 188.315827 
L 92.015981 195.281979 
L 93.094893 193.687884 
L 94.173806 190.308761 
L 95.252718 193.689874 
L 96.33163 198.708102 
L 97.410543 197.755094 
L 98.489455 191.402728 
L 99.568368 185.944654 
L 100.64728 189.7987 
L 101.726192 191.844605 
L 102.805105 191.480812 
L 103.884017 186.955724 
L 104.96293 187.634041 
L 106.041842 195.355837 
L 107.120754 208.84012 
L 109.278579 217.476612 
L 110.357492 210.241718 
L 111.436404 213.36349 
L 112.515316 208.263285 
L 113.594229 205.402114 
L 114.673141 185.324114 
L 115.752053 174.344388 
L 116.830966 170.831497 
L 117.909878 188.120092 
L 118.988791 193.123075 
L 120.067703 201.848623 
L 121.146615 206.082407 
L 122.225528 220.402845 
L 123.30444 233.236603 
L 124.383353 240.583648 
L 125.462265 243.620823 
L 126.541177 243.114997 
L 128.699002 250.064959 
L 129.777914 251.607698 
L 130.856827 248.893225 
L 131.935739 248.891095 
L 133.014652 245.382199 
L 135.172476 237.10204 
L 136.251389 236.582508 
L 137.330301 236.477418 
L 138.409214 234.241533 
L 139.488126 227.752305 
L 140.567038 225.467971 
L 141.645951 230.718701 
L 142.724863 240.92208 
L 143.803775 243.507227 
L 144.882688 241.044337 
L 145.9616 233.826969 
L 147.040513 233.222764 
L 148.119425 228.38915 
L 149.198337 242.740121 
L 150.27725 229.269077 
L 151.356162 229.870881 
L 152.435075 207.161383 
L 153.513987 229.209749 
L 154.592899 219.501156 
L 155.671812 212.031087 
L 156.750724 192.98185 
L 157.829637 209.581314 
L 158.908549 221.065989 
L 159.987461 234.616737 
L 161.066374 224.06468 
L 162.145286 222.447011 
L 163.224198 230.764786 
L 164.303111 226.735849 
L 165.382023 230.732013 
L 166.460936 218.850986 
L 167.539848 224.281475 
L 168.61876 218.302399 
L 169.697673 221.123664 
L 170.776585 220.93512 
L 171.855498 242.141688 
L 172.93441 228.364316 
L 174.013322 218.44859 
L 175.092235 190.029585 
L 176.171147 193.727182 
L 177.250059 200.139008 
L 178.328972 199.610689 
L 179.407884 181.624175 
L 180.486797 190.09163 
L 182.644621 214.510045 
L 183.723534 208.573118 
L 184.802446 200.569432 
L 185.881359 204.342327 
L 186.960271 203.652593 
L 188.039183 200.974213 
L 189.118096 196.618162 
L 190.197008 199.093369 
L 191.275921 191.026031 
L 192.354833 184.214067 
L 193.433745 180.790352 
L 194.512658 183.611312 
L 195.59157 181.298308 
L 196.670482 169.270937 
L 197.749395 184.905831 
L 198.828307 188.492178 
L 199.90722 200.403438 
L 200.986132 187.108997 
L 202.065044 189.611924 
L 203.143957 195.033037 
L 204.222869 197.447481 
L 205.301782 192.747876 
L 206.380694 197.145102 
L 207.459606 200.314175 
L 208.538519 220.626045 
L 210.696343 201.295556 
L 211.775256 195.464272 
L 212.854168 197.405968 
L 213.933081 197.113713 
L 215.011993 187.261183 
L 216.090905 187.08549 
L 217.169818 193.741822 
L 218.24873 189.550213 
L 219.327643 199.469935 
L 220.406555 189.152671 
L 221.485467 193.119185 
L 222.56438 182.150609 
L 223.643292 193.164416 
L 224.722204 198.60058 
L 225.801117 195.400607 
L 226.880029 176.246527 
L 227.958942 182.20913 
L 229.037854 196.443074 
L 230.116766 212.928431 
L 231.195679 210.214796 
L 232.274591 197.539344 
L 233.353504 194.357613 
L 235.511328 188.916137 
L 236.590241 182.357292 
L 237.669153 171.871023 
L 238.748066 176.669151 
L 239.826978 179.625281 
L 240.90589 181.687232 
L 241.984803 179.678119 
L 243.063715 185.826618 
L 244.142627 190.280728 
L 245.22154 201.282161 
L 246.300452 203.568241 
L 247.379365 209.613962 
L 248.458277 202.82065 
L 249.537189 202.539923 
L 250.616102 196.411828 
L 251.695014 196.743275 
L 252.773927 196.795762 
L 253.852839 205.708887 
L 254.931751 206.399686 
L 256.010664 211.222913 
L 257.089576 206.203506 
L 258.168488 215.275699 
L 259.247401 227.04317 
L 260.326313 235.049338 
L 261.405226 230.893623 
L 262.484138 231.014516 
L 263.56305 240.403632 
L 264.641963 242.143466 
L 265.720875 209.55923 
L 266.799788 152.790998 
L 267.8787 131.180415 
L 268.957612 159.879638 
L 270.036525 194.434509 
L 271.115437 194.078898 
L 272.19435 199.039398 
L 273.273262 218.686553 
L 274.352174 244.703586 
L 275.431087 251.750355 
L 276.509999 243.877834 
L 277.588911 225.985777 
L 278.667824 230.404356 
L 280.825649 254.199875 
L 281.904561 252.076606 
L 284.062386 243.017663 
L 285.141298 242.328067 
L 286.220211 241.322359 
L 287.299123 242.707579 
L 288.378035 244.981923 
L 289.456948 243.764543 
L 290.53586 242.927891 
L 291.614772 236.657187 
L 292.693685 247.335431 
L 293.772597 252.068319 
L 294.85151 255.212423 
L 295.930422 242.265414 
L 297.009334 240.610269 
L 298.088247 239.708955 
L 299.167159 232.583033 
L 300.246072 222.156768 
L 301.324984 214.756056 
L 302.403896 220.03548 
L 303.482809 226.75576 
L 304.561721 225.307435 
L 305.640633 235.305016 
L 306.719546 230.400667 
L 307.798458 234.101419 
L 308.877371 235.597281 
L 309.956283 235.016415 
L 311.035195 230.998408 
L 312.114108 224.298607 
L 313.19302 216.77092 
L 314.271933 219.728418 
L 315.350845 220.168553 
L 316.429757 235.06089 
L 317.50867 243.990749 
L 318.587582 249.55491 
L 319.666495 250.837773 
L 320.745407 246.346832 
L 321.824319 236.739674 
L 322.903232 236.167242 
L 323.982144 226.769203 
L 325.061056 229.364982 
L 326.139969 203.387961 
L 327.218881 196.658751 
L 328.297794 188.424055 
L 329.376706 206.663801 
L 330.455618 206.069522 
L 331.534531 209.659357 
L 332.613443 208.600655 
L 333.692356 225.206181 
L 334.771268 233.601789 
L 335.85018 241.084532 
L 336.929093 239.115899 
L 338.008005 236.539116 
L 339.086917 241.724612 
L 340.16583 240.189745 
L 341.244742 236.74839 
L 342.323655 228.620524 
L 343.402567 227.958032 
L 344.481479 224.130838 
L 345.560392 212.813983 
L 346.639304 233.750892 
L 347.718217 225.457117 
L 348.797129 214.850353 
L 349.876041 179.576668 
L 350.954954 179.326206 
L 352.033866 198.877806 
L 353.112779 230.048416 
L 354.191691 218.911035 
L 355.270603 230.841344 
L 356.349516 218.786929 
L 357.428428 243.712699 
L 358.50734 244.069427 
L 359.586253 220.923793 
L 360.665165 201.608566 
L 361.744078 190.148872 
L 362.82299 206.694286 
L 363.901902 220.51326 
L 364.980815 212.165852 
L 366.059727 208.761677 
L 368.217552 232.258454 
L 369.296464 229.284271 
L 370.375377 210.676295 
L 371.454289 200.010647 
L 372.533201 205.300287 
L 373.612114 215.848678 
L 374.691026 213.78464 
L 375.769939 208.090792 
L 376.848851 210.129375 
L 377.927763 227.056885 
L 379.006676 240.899692 
L 380.085588 242.203393 
L 382.243413 231.060772 
L 383.322325 232.13758 
L 384.401238 233.583248 
L 385.48015 225.739054 
L 385.48015 225.739054 
" clip-path="url(#p3b68f29bf3)" style="fill: none; stroke: #2ca02c; stroke-width: 1.5; stroke-linecap: square"/>
   </g>
   <g id="line2d_21">
    <path d="M 29.439062 221.275211 
L 30.517975 236.505406 
L 31.596887 248.478994 
L 32.6758 250.372301 
L 33.754712 258.240554 
L 34.833624 258.641514 
L 35.912537 253.887849 
L 36.991449 250.742613 
L 38.070362 242.558839 
L 39.149274 227.832517 
L 40.228186 226.152528 
L 41.307099 232.537407 
L 42.386011 227.154092 
L 43.464924 239.663468 
L 44.543836 247.949949 
L 45.622748 246.12502 
L 46.701661 254.219959 
L 47.780573 251.824807 
L 48.859485 220.968504 
L 49.938398 205.919399 
L 51.01731 186.135769 
L 52.096223 136.533121 
L 53.175135 133.903952 
L 54.254047 128.780364 
L 55.33296 108.165345 
L 56.411872 154.661857 
L 57.490785 166.381937 
L 58.569697 156.222628 
L 60.727522 174.127491 
L 61.806434 164.056515 
L 62.885346 151.002816 
L 63.964259 139.788926 
L 65.043171 90.161987 
L 66.122084 73.226844 
L 67.200996 79.930908 
L 68.279908 63.162834 
L 69.358821 67.394559 
L 70.437733 87.608872 
L 71.516646 95.307164 
L 72.595558 130.829051 
L 73.67447 130.923693 
L 75.832295 149.07322 
L 76.911208 145.514995 
L 77.99012 165.230701 
L 79.069032 172.15619 
L 80.147945 183.990017 
L 81.226857 198.107108 
L 82.305769 192.195781 
L 83.384682 190.267628 
L 84.463594 190.194295 
L 85.542507 178.776002 
L 86.621419 185.572177 
L 87.700331 190.372599 
L 88.779244 184.54832 
L 89.858156 186.766963 
L 90.937069 189.473261 
L 92.015981 190.069324 
L 93.094893 192.410021 
L 96.33163 195.044354 
L 97.410543 196.351076 
L 98.489455 194.867136 
L 99.568368 189.335364 
L 100.64728 189.603599 
L 101.726192 190.360547 
L 102.805105 189.394825 
L 103.884017 190.342872 
L 104.96293 188.74688 
L 106.041842 192.084855 
L 107.120754 203.69443 
L 108.199667 208.628052 
L 109.278579 214.390906 
L 110.357492 214.306201 
L 111.436404 212.043229 
L 112.515316 210.791529 
L 113.594229 205.110817 
L 115.752053 181.995215 
L 116.830966 177.300368 
L 117.909878 180.166067 
L 118.988791 188.02426 
L 120.067703 198.022962 
L 122.225528 213.03684 
L 123.30444 228.256977 
L 124.383353 235.194567 
L 125.462265 240.763189 
L 126.541177 244.49752 
L 127.62009 245.259188 
L 129.777914 250.498685 
L 130.856827 249.519384 
L 131.935739 249.59516 
L 133.014652 247.032432 
L 134.093564 241.548346 
L 135.172476 240.987516 
L 137.330301 234.646856 
L 138.409214 235.892398 
L 140.567038 226.256947 
L 141.645951 231.579139 
L 142.724863 236.122417 
L 143.803775 238.507266 
L 144.882688 242.782759 
L 145.9616 238.331566 
L 147.040513 232.634606 
L 148.119425 231.587191 
L 149.198337 239.646891 
L 150.27725 229.193149 
L 151.356162 229.040635 
L 152.435075 225.896331 
L 153.513987 217.632953 
L 154.592899 221.78581 
L 155.671812 212.266073 
L 156.750724 208.065956 
L 157.829637 206.313066 
L 158.908549 213.521109 
L 159.987461 226.061058 
L 161.066374 227.980673 
L 162.145286 222.980288 
L 163.224198 233.074257 
L 164.303111 221.710038 
L 165.382023 228.075685 
L 166.460936 230.662107 
L 167.539848 216.432907 
L 168.61876 221.898783 
L 169.697673 223.537176 
L 170.776585 218.034898 
L 171.855498 235.927619 
L 172.93441 230.806248 
L 174.013322 215.976432 
L 175.092235 216.679967 
L 176.171147 192.041922 
L 177.250059 192.910047 
L 178.328972 202.612348 
L 179.407884 185.877122 
L 180.486797 190.175906 
L 181.565709 204.536808 
L 182.644621 198.448671 
L 183.723534 209.676726 
L 184.802446 211.634562 
L 185.881359 199.686873 
L 186.960271 201.281933 
L 188.039183 206.126362 
L 189.118096 196.71423 
L 190.197008 197.268091 
L 191.275921 196.960725 
L 192.354833 183.923798 
L 193.433745 185.627441 
L 194.512658 185.325715 
L 195.59157 176.313222 
L 196.670482 174.670499 
L 197.749395 188.327129 
L 198.828307 180.177036 
L 200.986132 200.262414 
L 202.065044 183.839538 
L 203.143957 194.796847 
L 204.222869 198.049398 
L 205.301782 188.189868 
L 206.380694 200.271432 
L 207.459606 201.939318 
L 208.538519 207.269481 
L 209.617431 213.289999 
L 210.696343 204.949238 
L 211.775256 203.848238 
L 212.854168 195.139464 
L 213.933081 194.305696 
L 215.011993 193.674278 
L 216.090905 188.888776 
L 217.169818 191.5016 
L 218.24873 187.892686 
L 219.327643 198.041309 
L 220.406555 193.005785 
L 221.485467 187.405469 
L 222.56438 192.869183 
L 223.643292 188.066754 
L 224.722204 194.64471 
L 225.801117 194.587132 
L 226.880029 183.841066 
L 227.958942 186.599767 
L 229.037854 192.921842 
L 230.116766 198.395901 
L 231.195679 211.065593 
L 233.353504 196.858291 
L 234.432416 195.13317 
L 235.511328 187.209652 
L 236.590241 185.572071 
L 237.669153 178.699715 
L 238.748066 175.832866 
L 239.826978 178.493445 
L 240.90589 178.184745 
L 243.063715 185.331186 
L 244.142627 186.329848 
L 245.22154 196.546057 
L 246.300452 202.936162 
L 247.379365 204.510717 
L 248.458277 205.626636 
L 249.537189 203.868227 
L 250.616102 199.222196 
L 251.695014 195.776348 
L 252.773927 199.414406 
L 253.852839 201.670223 
L 254.931751 203.378204 
L 256.010664 210.206468 
L 257.089576 208.524885 
L 258.168488 210.766072 
L 259.247401 225.546373 
L 261.405226 229.083162 
L 262.484138 236.464788 
L 263.56305 237.497733 
L 264.641963 234.806213 
L 265.720875 221.777563 
L 266.799788 187.059161 
L 267.8787 156.996009 
L 268.957612 152.052377 
L 270.036525 173.746238 
L 271.115437 188.21243 
L 272.19435 199.845473 
L 273.273262 216.297816 
L 275.431087 244.014071 
L 276.509999 246.895303 
L 277.588911 234.888058 
L 278.667824 233.419403 
L 279.746736 239.247932 
L 280.825649 243.609469 
L 281.904561 252.205565 
L 282.983473 251.204953 
L 284.062386 244.342162 
L 285.141298 243.23247 
L 286.220211 243.18381 
L 287.299123 240.595936 
L 288.378035 244.706237 
L 289.456948 244.25254 
L 290.53586 241.813187 
L 291.614772 240.314936 
L 292.693685 246.039879 
L 293.772597 248.270489 
L 294.85151 250.000714 
L 295.930422 249.838473 
L 297.009334 243.336882 
L 298.088247 240.659262 
L 299.167159 232.232699 
L 300.246072 228.85032 
L 301.324984 221.92811 
L 302.403896 216.625799 
L 303.482809 224.341012 
L 304.561721 224.305296 
L 305.640633 232.157378 
L 306.719546 231.895875 
L 307.798458 230.002881 
L 308.877371 239.449318 
L 309.956283 231.67145 
L 311.035195 230.453386 
L 312.114108 232.608966 
L 313.19302 217.294661 
L 314.271933 218.652145 
L 315.350845 224.730893 
L 316.429757 226.036156 
L 317.50867 239.412963 
L 318.587582 246.900947 
L 319.666495 248.666268 
L 320.745407 247.606781 
L 321.824319 241.709108 
L 322.903232 238.715508 
L 323.982144 229.449148 
L 325.061056 228.566113 
L 326.139969 215.237231 
L 327.218881 199.101393 
L 328.297794 201.497978 
L 329.376706 196.262164 
L 330.455618 201.188106 
L 331.534531 211.008323 
L 332.613443 210.81501 
L 333.692356 216.028823 
L 334.771268 231.439145 
L 336.929093 238.256773 
L 338.008005 239.534264 
L 339.086917 241.103387 
L 340.16583 237.564451 
L 341.244742 237.772997 
L 342.323655 235.524322 
L 343.402567 226.940241 
L 344.481479 225.659602 
L 345.560392 217.875523 
L 346.639304 230.879977 
L 347.718217 223.746317 
L 348.797129 210.571632 
L 349.876041 210.586262 
L 350.954954 181.23276 
L 352.033866 188.387747 
L 353.112779 222.631901 
L 354.191691 211.503893 
L 355.270603 226.523011 
L 356.349516 235.045011 
L 357.428428 223.94509 
L 358.50734 244.629308 
L 360.665165 211.905399 
L 361.744078 207.461883 
L 362.82299 196.157487 
L 363.901902 211.571442 
L 364.980815 215.092211 
L 366.059727 209.744566 
L 367.13864 221.301717 
L 368.217552 224.484392 
L 369.296464 223.115774 
L 370.375377 222.587786 
L 371.454289 210.4151 
L 372.533201 201.651481 
L 373.612114 211.994848 
L 374.691026 212.759506 
L 375.769939 207.682134 
L 376.848851 215.434441 
L 377.927763 221.513588 
L 379.006676 229.833401 
L 380.085588 240.422297 
L 381.164501 239.871335 
L 382.243413 232.767645 
L 383.322325 233.895044 
L 384.401238 233.309256 
L 385.48015 224.541142 
L 385.48015 224.541142 
" clip-path="url(#p3b68f29bf3)" style="fill: none; stroke: #d62728; stroke-width: 1.5; stroke-linecap: square"/>
   </g>
   <g id="line2d_22">
    <path d="M 29.439062 222.506149 
L 30.517975 229.225195 
L 31.596887 244.328125 
L 32.6758 247.402355 
L 34.833624 258.019032 
L 35.912537 257.295259 
L 36.991449 249.2435 
L 38.070362 246.974437 
L 39.149274 234.54074 
L 40.228186 231.861658 
L 41.307099 231.553594 
L 42.386011 227.717781 
L 43.464924 232.012654 
L 44.543836 247.643113 
L 46.701661 246.413994 
L 47.780573 251.305355 
L 48.859485 234.325278 
L 49.938398 214.484016 
L 51.01731 201.387908 
L 52.096223 163.586194 
L 53.175135 129.858474 
L 54.254047 141.397281 
L 55.33296 125.3209 
L 56.411872 134.972888 
L 57.490785 154.989431 
L 58.569697 158.76708 
L 59.648609 155.361922 
L 60.727522 182.873277 
L 61.806434 162.532711 
L 62.885346 145.998895 
L 63.964259 142.271252 
L 65.043171 131.739654 
L 66.122084 80.2958 
L 67.200996 74.469261 
L 68.279908 71.612377 
L 69.358821 73.369884 
L 70.437733 78.170446 
L 71.516646 92.205622 
L 72.595558 114.651386 
L 73.67447 126.98029 
L 74.753383 135.707335 
L 75.832295 141.820322 
L 76.911208 152.338799 
L 77.99012 155.572908 
L 79.069032 168.629853 
L 80.147945 177.501124 
L 81.226857 192.046346 
L 82.305769 191.863517 
L 83.384682 188.562489 
L 84.463594 191.603524 
L 85.542507 188.124556 
L 86.621419 181.447777 
L 87.700331 187.0666 
L 88.779244 187.0915 
L 89.858156 185.34807 
L 90.937069 189.913695 
L 92.015981 190.637736 
L 93.094893 188.763136 
L 95.252718 195.654061 
L 96.33163 195.075047 
L 97.410543 193.860278 
L 98.489455 194.307816 
L 99.568368 192.563919 
L 100.64728 191.542008 
L 102.805105 188.685177 
L 103.884017 188.893792 
L 104.96293 191.078975 
L 106.041842 192.074346 
L 107.120754 199.593102 
L 108.199667 204.565698 
L 109.278579 210.577143 
L 110.357492 212.428944 
L 111.436404 214.907852 
L 112.515316 210.23647 
L 113.594229 207.817891 
L 114.673141 196.188428 
L 115.752053 189.862088 
L 116.830966 182.770205 
L 117.909878 183.291563 
L 118.988791 181.712392 
L 120.067703 193.113415 
L 122.225528 211.463604 
L 124.383353 230.909798 
L 126.541177 242.063784 
L 127.62009 245.919887 
L 128.699002 246.583547 
L 129.777914 248.741635 
L 130.856827 249.036102 
L 131.935739 249.952996 
L 133.014652 247.98217 
L 134.093564 243.701758 
L 135.172476 241.373489 
L 136.251389 240.72956 
L 137.330301 235.993508 
L 139.488126 232.924776 
L 140.567038 229.099784 
L 141.645951 230.988135 
L 142.724863 235.724345 
L 143.803775 235.091221 
L 144.882688 238.923995 
L 145.9616 240.309621 
L 147.040513 236.532871 
L 148.119425 231.439783 
L 149.198337 239.832571 
L 150.27725 229.288225 
L 151.356162 229.025515 
L 152.435075 226.018762 
L 153.513987 229.776904 
L 154.592899 213.604985 
L 155.671812 215.680869 
L 156.750724 209.062995 
L 157.829637 214.984372 
L 158.908549 210.206824 
L 159.987461 219.314815 
L 161.066374 222.17396 
L 162.145286 226.369517 
L 163.224198 231.430807 
L 164.303111 225.577264 
L 165.382023 223.851206 
L 166.460936 228.555607 
L 167.539848 226.648719 
L 168.61876 216.031922 
L 169.697673 225.28565 
L 170.776585 220.640156 
L 171.855498 231.061495 
L 172.93441 227.73105 
L 174.013322 220.726004 
L 175.092235 215.037011 
L 176.171147 213.157231 
L 177.250059 191.720756 
L 178.328972 196.460668 
L 179.407884 191.350375 
L 180.486797 191.757527 
L 181.565709 201.836996 
L 182.644621 200.792232 
L 183.723534 197.550137 
L 184.802446 211.894043 
L 185.881359 208.846332 
L 186.960271 198.115669 
L 188.039183 203.773183 
L 189.118096 201.828184 
L 190.197008 197.214919 
L 191.275921 195.912493 
L 193.433745 185.115566 
L 194.512658 188.215948 
L 195.59157 179.230873 
L 196.670482 171.901027 
L 197.749395 188.619752 
L 198.828307 183.951829 
L 199.90722 183.070739 
L 200.986132 191.957715 
L 202.065044 195.323676 
L 203.143957 189.316525 
L 204.222869 197.266248 
L 205.301782 190.602066 
L 206.380694 195.331172 
L 207.459606 203.427593 
L 208.538519 207.153921 
L 209.617431 203.660003 
L 210.696343 208.209749 
L 211.775256 206.225655 
L 212.854168 201.968952 
L 213.933081 193.086981 
L 215.011993 192.080368 
L 216.090905 193.671134 
L 217.169818 192.037551 
L 218.24873 187.230909 
L 219.327643 195.127704 
L 220.406555 193.136595 
L 221.485467 190.879234 
L 222.56438 188.360647 
L 223.643292 195.259724 
L 224.722204 190.323195 
L 225.801117 192.16594 
L 226.880029 185.535827 
L 227.958942 190.356327 
L 229.037854 194.157665 
L 230.116766 195.231943 
L 231.195679 199.805793 
L 232.274591 205.75506 
L 233.353504 201.980701 
L 234.432416 196.973377 
L 236.590241 184.857416 
L 237.669153 182.068236 
L 238.748066 180.423619 
L 239.826978 177.468219 
L 240.90589 177.562124 
L 241.984803 178.80059 
L 243.063715 185.690961 
L 244.142627 185.834271 
L 246.300452 198.87215 
L 247.379365 203.82049 
L 248.458277 202.259429 
L 249.537189 205.894119 
L 250.616102 200.979192 
L 251.695014 198.165651 
L 252.773927 198.124359 
L 253.852839 202.74615 
L 254.931751 200.578123 
L 256.010664 207.104849 
L 257.089576 208.241904 
L 258.168488 211.671763 
L 259.247401 220.244674 
L 260.326313 226.078778 
L 261.405226 223.863886 
L 262.484138 233.998962 
L 263.56305 240.383726 
L 264.641963 233.517676 
L 265.720875 219.293385 
L 266.799788 203.251104 
L 267.8787 183.622751 
L 268.957612 167.197618 
L 270.036525 165.252998 
L 271.115437 172.562654 
L 273.273262 213.618043 
L 274.352174 226.041419 
L 275.431087 232.462632 
L 276.509999 241.448056 
L 277.588911 239.391526 
L 278.667824 238.737845 
L 279.746736 239.787062 
L 280.825649 241.114508 
L 281.904561 244.070253 
L 282.983473 251.48424 
L 285.141298 244.248661 
L 286.220211 243.731784 
L 287.299123 242.244278 
L 288.378035 242.65733 
L 289.456948 244.176889 
L 290.53586 242.605043 
L 291.614772 239.931252 
L 292.693685 246.935916 
L 293.772597 247.059347 
L 294.85151 247.328921 
L 295.930422 246.558014 
L 297.009334 249.176368 
L 298.088247 242.836748 
L 299.167159 234.590488 
L 300.246072 229.319501 
L 301.324984 227.373291 
L 302.403896 221.952487 
L 303.482809 220.862935 
L 304.561721 222.835301 
L 305.640633 230.068009 
L 306.719546 230.003639 
L 307.798458 231.284555 
L 308.877371 235.291923 
L 309.956283 235.670859 
L 311.035195 228.611926 
L 312.114108 231.859133 
L 313.19302 225.800643 
L 314.271933 218.691941 
L 315.350845 222.921585 
L 316.429757 228.392567 
L 317.50867 231.680575 
L 318.587582 242.787511 
L 319.666495 246.709389 
L 320.745407 246.472815 
L 321.824319 243.713377 
L 322.903232 242.251513 
L 323.982144 232.996184 
L 325.061056 230.328151 
L 326.139969 217.506195 
L 328.297794 202.444106 
L 329.376706 204.81148 
L 330.455618 193.751729 
L 331.534531 206.275183 
L 332.613443 211.656683 
L 333.692356 216.266542 
L 334.771268 223.305393 
L 335.85018 233.047093 
L 336.929093 233.898707 
L 338.008005 238.766741 
L 339.086917 242.515821 
L 340.16583 237.896497 
L 341.244742 236.121135 
L 342.323655 236.59999 
L 343.402567 232.917594 
L 344.481479 225.295033 
L 345.560392 220.440519 
L 346.639304 231.054901 
L 347.718217 223.345173 
L 348.797129 212.189456 
L 349.876041 207.93829 
L 350.954954 206.054431 
L 352.033866 188.0728 
L 353.112779 211.199039 
L 354.191691 208.701605 
L 356.349516 230.900906 
L 357.428428 235.641406 
L 358.50734 229.113732 
L 359.586253 231.97843 
L 360.665165 219.871379 
L 362.82299 208.516872 
L 363.901902 202.5267 
L 364.980815 208.814891 
L 366.059727 212.61957 
L 367.13864 219.624428 
L 368.217552 224.597112 
L 369.296464 218.369966 
L 370.375377 218.790986 
L 371.454289 220.115873 
L 372.533201 209.632221 
L 373.612114 207.904703 
L 374.691026 210.24341 
L 375.769939 208.073872 
L 376.848851 213.692434 
L 377.927763 223.256838 
L 379.006676 224.972284 
L 381.164501 238.889668 
L 382.243413 236.363955 
L 383.322325 234.670446 
L 384.401238 234.470726 
L 385.48015 226.181154 
L 385.48015 226.181154 
" clip-path="url(#p3b68f29bf3)" style="fill: none; stroke: #9467bd; stroke-width: 1.5; stroke-linecap: square"/>
   </g>
   <g id="line2d_23">
    <path d="M 29.439062 221.989476 
L 30.517975 228.904971 
L 31.596887 237.483987 
L 33.754712 250.133055 
L 35.912537 256.994611 
L 36.991449 253.038847 
L 39.149274 239.915086 
L 40.228186 236.632969 
L 41.307099 235.239876 
L 42.386011 227.68395 
L 43.464924 231.670455 
L 44.543836 240.522 
L 45.622748 246.901912 
L 46.701661 247.094508 
L 47.780573 245.135114 
L 48.859485 236.98727 
L 49.938398 227.417148 
L 51.01731 209.558869 
L 53.175135 154.479575 
L 54.254047 136.912814 
L 55.33296 136.626651 
L 56.411872 143.651398 
L 57.490785 138.702995 
L 58.569697 150.24993 
L 59.648609 157.637623 
L 60.727522 172.805614 
L 61.806434 172.308881 
L 62.885346 147.756838 
L 63.964259 139.424444 
L 65.043171 135.249771 
L 66.122084 118.380389 
L 67.200996 80.14313 
L 68.279908 68.347758 
L 69.358821 78.528388 
L 71.516646 83.731536 
L 72.595558 109.142714 
L 73.67447 114.016671 
L 74.753383 131.704446 
L 75.832295 137.894546 
L 76.911208 145.867244 
L 77.99012 159.375849 
L 79.069032 160.199988 
L 80.147945 173.774933 
L 81.226857 185.603024 
L 82.305769 187.691034 
L 84.463594 189.973888 
L 85.542507 189.661866 
L 86.621419 188.720384 
L 87.700331 183.420157 
L 88.779244 184.839306 
L 89.858156 187.32764 
L 90.937069 188.234936 
L 92.015981 190.808875 
L 93.094893 189.459306 
L 94.173806 189.315904 
L 95.252718 194.488321 
L 96.33163 196.222111 
L 97.410543 194.084129 
L 98.489455 192.551171 
L 99.568368 192.477858 
L 100.64728 193.836383 
L 101.726192 191.623847 
L 102.805105 188.740474 
L 103.884017 188.38451 
L 104.96293 189.755489 
L 106.041842 193.432394 
L 107.120754 198.363082 
L 108.199667 201.032618 
L 109.278579 206.925265 
L 110.357492 209.543013 
L 111.436404 213.252545 
L 112.515316 212.963095 
L 113.594229 207.846519 
L 115.752053 192.369156 
L 116.830966 189.197994 
L 118.988791 184.042107 
L 120.067703 187.198671 
L 123.30444 218.675332 
L 124.383353 224.780796 
L 125.462265 232.725185 
L 127.62009 243.690539 
L 128.699002 246.907814 
L 129.777914 247.474879 
L 130.856827 247.797075 
L 131.935739 249.480254 
L 133.014652 248.556817 
L 134.093564 245.08607 
L 135.172476 243.204053 
L 137.330301 238.815428 
L 139.488126 232.270423 
L 140.567038 231.130882 
L 141.645951 232.49656 
L 142.724863 234.57189 
L 143.803775 234.929153 
L 144.882688 236.028174 
L 145.9616 237.444895 
L 147.040513 238.514573 
L 148.119425 234.934333 
L 149.198337 238.395766 
L 150.27725 231.266365 
L 151.356162 229.132824 
L 152.435075 226.515892 
L 153.513987 229.239417 
L 154.592899 224.817696 
L 155.671812 209.621523 
L 156.750724 212.522123 
L 158.908549 216.641101 
L 159.987461 215.732855 
L 161.066374 217.061613 
L 162.145286 221.758769 
L 163.224198 232.710465 
L 164.303111 225.409058 
L 165.382023 226.675144 
L 166.460936 224.981941 
L 167.539848 225.516094 
L 168.61876 224.706134 
L 169.697673 219.993368 
L 170.776585 222.621729 
L 171.855498 230.960194 
L 172.93441 224.808205 
L 174.013322 219.699069 
L 175.092235 219.194515 
L 176.171147 212.348296 
L 177.250059 209.65087 
L 178.328972 194.907088 
L 179.407884 187.807324 
L 180.486797 195.211158 
L 181.565709 201.189777 
L 182.644621 199.121299 
L 183.723534 199.667689 
L 184.802446 201.664094 
L 185.881359 209.536309 
L 186.960271 206.137929 
L 188.039183 200.771985 
L 189.118096 200.539284 
L 190.197008 201.393693 
L 192.354833 190.557175 
L 193.433745 190.24811 
L 194.512658 187.367939 
L 195.59157 182.763564 
L 196.670482 175.139954 
L 197.749395 184.260041 
L 199.90722 185.693006 
L 200.986132 186.011723 
L 202.065044 189.053189 
L 203.143957 197.746163 
L 204.222869 192.377572 
L 205.301782 191.188962 
L 206.380694 196.093335 
L 207.459606 198.888857 
L 208.538519 207.49831 
L 210.696343 200.805821 
L 211.775256 208.713277 
L 212.854168 204.293783 
L 213.933081 199.221764 
L 215.011993 191.424833 
L 216.090905 192.344692 
L 217.169818 195.438584 
L 218.24873 188.410429 
L 219.327643 193.421343 
L 220.406555 191.466693 
L 221.485467 191.34645 
L 222.56438 191.086209 
L 223.643292 191.173373 
L 224.722204 195.888562 
L 225.801117 188.934661 
L 226.880029 184.957424 
L 229.037854 195.922878 
L 230.116766 195.865522 
L 231.195679 196.964714 
L 232.274591 196.992366 
L 233.353504 203.993471 
L 234.432416 201.233957 
L 235.511328 193.29733 
L 236.590241 188.48751 
L 237.669153 182.050611 
L 238.748066 182.922867 
L 239.826978 180.997684 
L 240.90589 176.85942 
L 241.984803 178.181248 
L 243.063715 182.759312 
L 244.142627 186.049535 
L 245.22154 190.908696 
L 246.300452 194.995539 
L 247.379365 200.316108 
L 248.458277 202.053777 
L 249.537189 203.05515 
L 250.616102 203.188982 
L 251.695014 199.818307 
L 252.773927 199.700281 
L 253.852839 201.146293 
L 254.931751 201.664569 
L 256.010664 204.221356 
L 257.089576 205.956449 
L 258.168488 210.922625 
L 259.247401 219.423925 
L 260.326313 221.610325 
L 261.405226 223.37897 
L 262.484138 229.049003 
L 263.56305 237.766712 
L 264.641963 236.693885 
L 266.799788 204.185953 
L 267.8787 198.109798 
L 270.036525 175.034151 
L 271.115437 165.669523 
L 272.19435 180.766015 
L 273.273262 207.173387 
L 274.352174 222.415569 
L 275.431087 228.878611 
L 276.509999 232.116043 
L 277.588911 235.824645 
L 278.667824 241.744141 
L 279.746736 242.955834 
L 280.825649 241.247706 
L 281.904561 241.929208 
L 282.983473 244.83055 
L 284.062386 248.808845 
L 285.141298 247.351661 
L 286.220211 244.492239 
L 287.299123 242.862764 
L 288.378035 243.66558 
L 289.456948 242.552297 
L 290.53586 242.817807 
L 291.614772 240.92033 
L 292.693685 245.569599 
L 293.772597 247.629856 
L 294.85151 246.468575 
L 295.930422 244.839602 
L 297.009334 246.543437 
L 298.088247 247.840138 
L 299.167159 237.555391 
L 300.246072 231.830536 
L 301.324984 228.017048 
L 302.403896 226.505229 
L 303.482809 224.482092 
L 304.561721 220.162131 
L 305.640633 227.964603 
L 306.719546 228.595117 
L 307.798458 229.804007 
L 308.877371 235.451266 
L 309.956283 232.73684 
L 311.035195 232.56268 
L 312.114108 230.112794 
L 313.19302 226.306774 
L 314.271933 225.520005 
L 315.350845 222.253967 
L 316.429757 226.331124 
L 317.50867 232.637563 
L 318.587582 236.043033 
L 319.666495 243.321083 
L 320.745407 245.177288 
L 321.824319 243.392969 
L 322.903232 243.825994 
L 323.982144 237.09032 
L 325.061056 233.124849 
L 326.139969 221.039659 
L 327.218881 212.702705 
L 328.297794 210.684665 
L 329.376706 205.036894 
L 330.455618 201.452401 
L 331.534531 199.483568 
L 333.692356 216.050304 
L 334.771268 222.313926 
L 335.85018 226.144196 
L 336.929093 232.416854 
L 338.008005 235.082206 
L 339.086917 241.405172 
L 340.16583 239.654475 
L 341.244742 236.643814 
L 343.402567 234.275732 
L 344.481479 230.64629 
L 345.560392 221.01198 
L 346.639304 230.898177 
L 347.718217 224.796132 
L 348.797129 213.836756 
L 349.876041 209.756475 
L 350.954954 204.548007 
L 352.033866 207.130202 
L 353.112779 207.450722 
L 354.191691 200.66163 
L 355.270603 216.005997 
L 356.349516 224.572582 
L 357.428428 232.120267 
L 358.50734 237.700452 
L 359.586253 219.860697 
L 360.665165 224.810058 
L 361.744078 220.473006 
L 362.82299 214.0332 
L 363.901902 211.447442 
L 364.980815 201.640442 
L 366.059727 207.732467 
L 367.13864 220.268411 
L 368.217552 222.695635 
L 369.296464 219.51243 
L 370.375377 215.447644 
L 371.454289 217.315148 
L 372.533201 217.950687 
L 373.612114 213.291937 
L 374.691026 207.095546 
L 375.769939 206.703642 
L 376.848851 213.024949 
L 377.927763 220.627892 
L 379.006676 225.818628 
L 380.085588 227.452042 
L 382.243413 236.113523 
L 383.322325 237.311855 
L 384.401238 235.018307 
L 385.48015 228.435885 
L 385.48015 228.435885 
" clip-path="url(#p3b68f29bf3)" style="fill: none; stroke: #8c564b; stroke-width: 1.5; stroke-linecap: square"/>
   </g>
   <g id="line2d_24">
    <path d="M 29.439062 224.216778 
L 30.517975 227.596136 
L 31.596887 236.094002 
L 32.6758 238.285498 
L 33.754712 247.009287 
L 34.833624 251.173405 
L 35.912537 253.38057 
L 36.991449 253.391419 
L 38.070362 250.111493 
L 39.149274 240.35466 
L 40.228186 240.873149 
L 41.307099 238.743918 
L 42.386011 231.524757 
L 43.464924 231.087585 
L 44.543836 239.084283 
L 45.622748 240.893702 
L 46.701661 246.996197 
L 47.780573 245.910647 
L 48.859485 233.085415 
L 49.938398 230.86679 
L 51.01731 221.875268 
L 52.096223 192.984554 
L 53.175135 172.579527 
L 54.254047 156.56697 
L 55.33296 133.393898 
L 56.411872 150.105108 
L 57.490785 145.513232 
L 58.569697 136.739153 
L 59.648609 150.483069 
L 60.727522 172.207681 
L 61.806434 164.739432 
L 62.885346 159.007124 
L 63.964259 141.932814 
L 65.043171 133.752243 
L 67.200996 113.209754 
L 68.279908 74.203567 
L 69.358821 74.821343 
L 70.437733 84.425418 
L 71.516646 85.512302 
L 72.595558 100.005778 
L 73.67447 109.382331 
L 74.753383 120.19955 
L 75.832295 134.191304 
L 76.911208 141.997781 
L 77.99012 153.047456 
L 79.069032 162.735832 
L 80.147945 166.052801 
L 81.226857 181.433711 
L 82.305769 182.665304 
L 83.384682 185.684395 
L 84.463594 190.052933 
L 85.542507 188.528151 
L 86.621419 189.949308 
L 87.700331 189.323584 
L 88.779244 181.997329 
L 89.858156 185.368481 
L 90.937069 189.494891 
L 92.015981 189.251731 
L 93.094893 189.776067 
L 94.173806 189.831957 
L 95.252718 191.63289 
L 96.33163 195.146246 
L 97.410543 195.216294 
L 98.489455 192.932486 
L 99.568368 191.218756 
L 100.64728 193.58218 
L 101.726192 193.580143 
L 102.805105 190.258975 
L 103.884017 188.474989 
L 104.96293 189.198645 
L 106.041842 191.981943 
L 107.120754 198.601115 
L 108.199667 199.784621 
L 109.278579 203.618883 
L 110.357492 206.544268 
L 111.436404 210.681256 
L 112.515316 211.804545 
L 113.594229 210.573035 
L 114.673141 201.272819 
L 116.830966 191.453746 
L 117.909878 191.567199 
L 118.988791 186.873421 
L 120.067703 188.362043 
L 121.146615 191.892493 
L 123.30444 214.499122 
L 124.383353 222.158824 
L 125.462265 227.322903 
L 126.541177 234.922937 
L 127.62009 240.308315 
L 128.699002 244.880253 
L 129.777914 247.623529 
L 130.856827 246.836933 
L 131.935739 248.36133 
L 133.014652 248.346486 
L 134.093564 246.014508 
L 135.172476 244.469403 
L 136.251389 242.710852 
L 137.330301 239.410904 
L 138.409214 238.158751 
L 139.488126 233.598803 
L 140.567038 230.819473 
L 141.645951 233.710105 
L 142.724863 235.321048 
L 143.803775 234.048867 
L 144.882688 235.757231 
L 145.9616 235.145673 
L 147.040513 236.280027 
L 148.119425 236.891486 
L 149.198337 240.248563 
L 150.27725 231.206691 
L 151.356162 230.855381 
L 152.435075 226.97232 
L 153.513987 229.200263 
L 154.592899 225.060755 
L 155.671812 220.171876 
L 156.750724 207.679122 
L 157.829637 216.719103 
L 158.908549 216.123738 
L 159.987461 220.271379 
L 161.066374 214.26839 
L 162.145286 217.436337 
L 163.224198 228.104504 
L 164.303111 227.449084 
L 165.382023 226.376218 
L 166.460936 227.223636 
L 167.539848 222.819885 
L 168.61876 223.999794 
L 169.697673 226.684388 
L 170.776585 218.385403 
L 171.855498 231.107781 
L 172.93441 225.63427 
L 174.013322 218.212387 
L 175.092235 218.52415 
L 176.171147 216.383034 
L 177.250059 209.44702 
L 178.328972 209.664523 
L 179.407884 187.671964 
L 180.486797 191.709338 
L 181.565709 202.671045 
L 182.644621 198.947973 
L 183.723534 198.387136 
L 184.802446 202.852002 
L 185.881359 201.008475 
L 186.960271 207.131896 
L 188.039183 207.18111 
L 189.118096 198.380668 
L 190.197008 200.348606 
L 191.275921 199.87207 
L 192.354833 191.497092 
L 193.433745 190.446999 
L 194.512658 191.399083 
L 195.59157 182.804438 
L 196.670482 178.836405 
L 197.749395 185.145917 
L 198.828307 181.658839 
L 199.90722 186.284838 
L 200.986132 187.806378 
L 202.065044 184.297498 
L 203.143957 192.130815 
L 204.222869 199.063592 
L 205.301782 187.727666 
L 206.380694 195.808404 
L 207.459606 199.024939 
L 208.538519 203.154815 
L 209.617431 204.902638 
L 210.696343 201.663825 
L 211.775256 202.345891 
L 212.854168 206.736348 
L 216.090905 191.746216 
L 217.169818 194.064329 
L 218.24873 191.922213 
L 219.327643 193.527147 
L 220.406555 190.499864 
L 221.485467 190.157175 
L 222.56438 191.456708 
L 223.643292 193.073793 
L 224.722204 192.318328 
L 225.801117 193.959995 
L 226.880029 183.119016 
L 229.037854 195.385749 
L 230.116766 197.120655 
L 231.195679 197.255697 
L 232.274591 194.920628 
L 233.353504 196.680503 
L 234.432416 203.076989 
L 235.511328 197.57802 
L 236.590241 190.830877 
L 237.669153 185.624953 
L 238.748066 182.786056 
L 239.826978 183.053444 
L 240.90589 179.987536 
L 241.984803 177.492985 
L 243.063715 181.681811 
L 244.142627 183.494688 
L 245.22154 190.37394 
L 247.379365 196.827227 
L 248.458277 199.273135 
L 249.537189 202.7665 
L 250.616102 201.103242 
L 251.695014 201.896283 
L 252.773927 200.885534 
L 253.852839 202.043694 
L 254.931751 200.439377 
L 256.010664 204.616121 
L 257.089576 203.633554 
L 258.168488 208.62509 
L 259.247401 217.74467 
L 260.326313 220.720925 
L 261.405226 219.863341 
L 262.484138 227.927071 
L 263.56305 233.158476 
L 264.641963 234.910488 
L 265.720875 225.785975 
L 266.799788 207.941713 
L 267.8787 199.687402 
L 268.957612 198.707123 
L 270.036525 190.269042 
L 271.115437 174.012436 
L 272.19435 174.001014 
L 274.352174 216.068495 
L 275.431087 225.453198 
L 276.509999 229.092188 
L 277.588911 228.265121 
L 278.667824 238.433858 
L 279.746736 244.842663 
L 280.825649 243.724589 
L 281.904561 241.926549 
L 282.983473 242.904976 
L 284.062386 243.356351 
L 285.141298 248.122206 
L 286.220211 247.117699 
L 287.299123 243.645552 
L 288.378035 243.986768 
L 289.456948 243.433191 
L 290.53586 241.603178 
L 291.614772 241.348576 
L 292.693685 245.588154 
L 294.85151 247.045601 
L 295.930422 244.443331 
L 298.088247 245.747859 
L 299.167159 242.868152 
L 300.246072 234.842259 
L 301.324984 230.38515 
L 302.403896 227.185875 
L 303.482809 227.958074 
L 304.561721 223.389952 
L 305.640633 225.05755 
L 306.719546 226.98329 
L 307.798458 228.624362 
L 308.877371 233.647225 
L 309.956283 233.246031 
L 311.035195 230.430796 
L 312.114108 233.251507 
L 313.19302 225.549898 
L 314.271933 225.995159 
L 315.350845 227.465659 
L 316.429757 225.295127 
L 317.50867 230.343622 
L 318.587582 236.22079 
L 319.666495 237.527549 
L 320.745407 242.454916 
L 321.824319 242.69455 
L 322.903232 243.535674 
L 323.982144 239.268226 
L 325.061056 236.622724 
L 326.139969 225.01847 
L 327.218881 216.551369 
L 328.297794 213.028343 
L 329.376706 211.640465 
L 330.455618 202.135661 
L 331.534531 205.063105 
L 332.613443 201.700388 
L 333.692356 212.108094 
L 334.771268 221.294101 
L 335.85018 224.91422 
L 336.929093 226.586756 
L 338.008005 233.659203 
L 339.086917 237.965307 
L 340.16583 239.090415 
L 341.244742 238.351026 
L 343.402567 233.567325 
L 344.481479 232.163538 
L 345.560392 226.405136 
L 346.639304 229.918076 
L 347.718217 225.572872 
L 348.797129 216.58916 
L 350.954954 206.636402 
L 352.033866 205.696889 
L 353.112779 219.365454 
L 354.191691 198.769517 
L 355.270603 208.497259 
L 356.349516 221.001101 
L 357.428428 226.606567 
L 358.50734 234.457609 
L 359.586253 229.239561 
L 360.665165 214.906728 
L 361.744078 224.614148 
L 362.82299 219.388388 
L 363.901902 215.676684 
L 364.980815 209.501049 
L 366.059727 201.716173 
L 367.13864 215.272482 
L 368.217552 222.800972 
L 369.296464 218.557175 
L 370.375377 216.872474 
L 371.454289 214.634301 
L 372.533201 215.824891 
L 373.612114 219.75121 
L 375.769939 204.452877 
L 376.848851 211.199039 
L 377.927763 219.122065 
L 380.085588 227.812218 
L 381.164501 228.186767 
L 382.243413 230.361332 
L 383.322325 236.964366 
L 384.401238 237.230102 
L 385.48015 229.817299 
L 385.48015 229.817299 
" clip-path="url(#p3b68f29bf3)" style="fill: none; stroke: #e377c2; stroke-width: 1.5; stroke-linecap: square"/>
   </g>
   <g id="patch_3">
    <path d="M 29.439063 284.991437 
L 29.439063 18.879437 
" style="fill: none; stroke: #000000; stroke-width: 0.8; stroke-linejoin: miter; stroke-linecap: square"/>
   </g>
   <g id="patch_4">
    <path d="M 386.559062 284.991437 
L 386.559062 18.879437 
" style="fill: none; stroke: #000000; stroke-width: 0.8; stroke-linejoin: miter; stroke-linecap: square"/>
   </g>
   <g id="patch_5">
    <path d="M 29.439062 284.991437 
L 386.559062 284.991437 
" style="fill: none; stroke: #000000; stroke-width: 0.8; stroke-linejoin: miter; stroke-linecap: square"/>
   </g>
   <g id="patch_6">
    <path d="M 29.439062 18.879437 
L 386.559062 18.879437 
" style="fill: none; stroke: #000000; stroke-width: 0.8; stroke-linejoin: miter; stroke-linecap: square"/>
   </g>
   <g id="legend_1">
    <g id="patch_7">
     <path d="M 341.260625 127.613812 
L 379.559062 127.613812 
Q 381.559062 127.613812 381.559062 125.613812 
L 381.559062 25.879437 
Q 381.559062 23.879437 379.559062 23.879437 
L 341.260625 23.879437 
Q 339.260625 23.879437 339.260625 25.879437 
L 339.260625 125.613812 
Q 339.260625 127.613812 341.260625 127.613812 
z
" style="fill: #ffffff; opacity: 0.8; stroke: #cccccc; stroke-linejoin: miter"/>
    </g>
    <g id="line2d_25">
     <path d="M 343.260625 31.870062 
L 353.260625 31.870062 
L 363.260625 31.870062 
" style="fill: none; stroke: #1f77b4; stroke-width: 1.5; stroke-linecap: square"/>
    </g>
    <g id="text_17">
     <!-- 1 -->
     <g transform="translate(371.260625 35.370062) scale(0.1 -0.1)">
      <use xlink:href="#IPAexGothic-31"/>
     </g>
    </g>
    <g id="line2d_26">
     <path d="M 343.260625 46.260687 
L 353.260625 46.260687 
L 363.260625 46.260687 
" style="fill: none; stroke: #ff7f0e; stroke-width: 1.5; stroke-linecap: square"/>
    </g>
    <g id="text_18">
     <!-- 2 -->
     <g transform="translate(371.260625 49.760687) scale(0.1 -0.1)">
      <use xlink:href="#IPAexGothic-32"/>
     </g>
    </g>
    <g id="line2d_27">
     <path d="M 343.260625 60.651312 
L 353.260625 60.651312 
L 363.260625 60.651312 
" style="fill: none; stroke: #2ca02c; stroke-width: 1.5; stroke-linecap: square"/>
    </g>
    <g id="text_19">
     <!-- 3 -->
     <g transform="translate(371.260625 64.151312) scale(0.1 -0.1)">
      <use xlink:href="#IPAexGothic-33"/>
     </g>
    </g>
    <g id="line2d_28">
     <path d="M 343.260625 75.041937 
L 353.260625 75.041937 
L 363.260625 75.041937 
" style="fill: none; stroke: #d62728; stroke-width: 1.5; stroke-linecap: square"/>
    </g>
    <g id="text_20">
     <!-- 4 -->
     <g transform="translate(371.260625 78.541937) scale(0.1 -0.1)">
      <defs>
       <path id="IPAexGothic-34" d="M 3813 1159 
L 3059 1159 
L 3059 63 
L 2547 63 
L 2547 1159 
L 197 1159 
L 197 1672 
L 2456 4678 
L 3059 4678 
L 3059 1634 
L 3813 1634 
L 3813 1159 
z
M 2578 4109 
L 2559 4109 
Q 2278 3656 2003 3284 
L 759 1634 
L 2547 1634 
L 2547 3144 
Q 2547 3481 2578 4109 
z
" transform="scale(0.015625)"/>
      </defs>
      <use xlink:href="#IPAexGothic-34"/>
     </g>
    </g>
    <g id="line2d_29">
     <path d="M 343.260625 89.432562 
L 353.260625 89.432562 
L 363.260625 89.432562 
" style="fill: none; stroke: #9467bd; stroke-width: 1.5; stroke-linecap: square"/>
    </g>
    <g id="text_21">
     <!-- 5 -->
     <g transform="translate(371.260625 92.932562) scale(0.1 -0.1)">
      <use xlink:href="#IPAexGothic-35"/>
     </g>
    </g>
    <g id="line2d_30">
     <path d="M 343.260625 103.823187 
L 353.260625 103.823187 
L 363.260625 103.823187 
" style="fill: none; stroke: #8c564b; stroke-width: 1.5; stroke-linecap: square"/>
    </g>
    <g id="text_22">
     <!-- 6 -->
     <g transform="translate(371.260625 107.323187) scale(0.1 -0.1)">
      <defs>
       <path id="IPAexGothic-36" d="M 1056 2328 
Q 1509 2981 2234 2981 
Q 2906 2981 3316 2513 
Q 3675 2106 3675 1522 
Q 3675 884 3272 434 
Q 2853 -31 2178 -31 
Q 1375 -31 922 581 
Q 481 1178 481 2228 
Q 481 3425 1013 4109 
Q 1494 4725 2272 4725 
Q 3191 4725 3609 4025 
L 3150 3775 
Q 2894 4266 2300 4266 
Q 1119 4266 1031 2328 
L 1056 2328 
z
M 2141 2547 
Q 1684 2547 1384 2206 
Q 1116 1900 1116 1541 
Q 1116 1156 1353 844 
Q 1672 428 2159 428 
Q 2669 428 2941 844 
Q 3125 1128 3125 1503 
Q 3125 1944 2881 2228 
Q 2600 2547 2141 2547 
z
" transform="scale(0.015625)"/>
      </defs>
      <use xlink:href="#IPAexGothic-36"/>
     </g>
    </g>
    <g id="line2d_31">
     <path d="M 343.260625 118.213812 
L 353.260625 118.213812 
L 363.260625 118.213812 
" style="fill: none; stroke: #e377c2; stroke-width: 1.5; stroke-linecap: square"/>
    </g>
    <g id="text_23">
     <!-- 7 -->
     <g transform="translate(371.260625 121.713812) scale(0.1 -0.1)">
      <defs>
       <path id="IPAexGothic-37" d="M 3597 4263 
Q 2238 2106 1778 63 
L 1131 63 
Q 1581 1834 2950 4128 
L 428 4128 
L 428 4634 
L 3597 4634 
L 3597 4263 
z
" transform="scale(0.015625)"/>
      </defs>
      <use xlink:href="#IPAexGothic-37"/>
     </g>
    </g>
   </g>
  </g>
  <g id="axes_2">
   <g id="matplotlib.axis_3"/>
   <g id="patch_8">
    <path d="M 29.439063 284.991437 
L 29.439063 18.879437 
" style="fill: none; stroke: #000000; stroke-width: 0.8; stroke-linejoin: miter; stroke-linecap: square"/>
   </g>
   <g id="patch_9">
    <path d="M 386.559062 284.991437 
L 386.559062 18.879437 
" style="fill: none; stroke: #000000; stroke-width: 0.8; stroke-linejoin: miter; stroke-linecap: square"/>
   </g>
   <g id="patch_10">
    <path d="M 29.439062 284.991437 
L 386.559062 284.991437 
" style="fill: none; stroke: #000000; stroke-width: 0.8; stroke-linejoin: miter; stroke-linecap: square"/>
   </g>
   <g id="patch_11">
    <path d="M 29.439062 18.879437 
L 386.559062 18.879437 
" style="fill: none; stroke: #000000; stroke-width: 0.8; stroke-linejoin: miter; stroke-linecap: square"/>
   </g>
  </g>
  <g id="text_24">
   <!-- : 2023/04/27 16:13:49(JST) -->
   <g transform="translate(211.087188 15.423437) scale(0.1 -0.1)">
    <defs>
     <path id="IPAexGothic-66f4" d="M 2956 3994 
L 2956 4588 
L 513 4588 
L 513 4984 
L 5881 4984 
L 5881 4588 
L 3413 4588 
L 3413 3994 
L 5300 3994 
L 5300 1288 
L 4838 1288 
L 4838 1759 
L 3406 1759 
Q 3384 1125 3150 709 
Q 4291 244 5997 31 
L 5694 -428 
Q 4109 -166 2906 384 
Q 2294 -266 744 -488 
L 494 -66 
Q 1903 59 2491 588 
Q 2041 813 1594 1166 
L 1928 1434 
Q 2331 1106 2747 897 
Q 2922 1219 2950 1759 
L 1556 1759 
L 1556 1413 
L 1097 1413 
L 1097 3994 
L 2956 3994 
z
M 2956 3609 
L 1556 3609 
L 1556 3078 
L 2956 3078 
L 2956 3609 
z
M 3413 3609 
L 3413 3078 
L 4838 3078 
L 4838 3609 
L 3413 3609 
z
M 2956 2700 
L 1556 2700 
L 1556 2144 
L 2956 2144 
L 2956 2700 
z
M 3413 2700 
L 3413 2144 
L 4838 2144 
L 4838 2700 
L 3413 2700 
z
" transform="scale(0.015625)"/>
     <path id="IPAexGothic-65b0" d="M 3891 2803 
Q 3881 1759 3794 1166 
Q 3653 197 3097 -563 
L 2741 -250 
Q 3450 700 3450 2631 
L 3450 4647 
Q 3516 4656 3622 4666 
Q 4656 4778 5447 5063 
L 5825 4678 
Q 4897 4419 3891 4294 
L 3891 3219 
L 6119 3219 
L 6119 2803 
L 5275 2803 
L 5275 -447 
L 4834 -447 
L 4834 2803 
L 3891 2803 
z
M 2822 4069 
Q 2678 3572 2519 3181 
L 3250 3181 
L 3250 2784 
L 2059 2784 
L 2059 2216 
L 3184 2216 
L 3184 1831 
L 2059 1831 
L 2059 1544 
Q 2613 1197 3031 847 
L 2781 456 
Q 2472 791 2059 1128 
L 2059 -447 
L 1644 -447 
L 1644 1294 
Q 1272 628 575 -31 
L 269 341 
Q 1041 938 1528 1831 
L 453 1831 
L 453 2216 
L 1644 2216 
L 1644 2784 
L 319 2784 
L 319 3181 
L 1125 3181 
Q 1013 3706 881 4069 
L 453 4069 
L 453 4453 
L 1631 4453 
L 1631 5309 
L 2072 5309 
L 2072 4453 
L 3166 4453 
L 3166 4069 
L 2822 4069 
z
M 2391 4069 
L 1325 4069 
Q 1450 3672 1534 3181 
L 2109 3181 
Q 2294 3659 2391 4069 
z
" transform="scale(0.015625)"/>
     <path id="IPAexGothic-65e5" d="M 5231 4800 
L 5231 -288 
L 4744 -288 
L 4744 128 
L 1647 128 
L 1647 -288 
L 1159 -288 
L 1159 4800 
L 5231 4800 
z
M 1647 4372 
L 1647 2731 
L 4744 2731 
L 4744 4372 
L 1647 4372 
z
M 1647 2297 
L 1647 556 
L 4744 556 
L 4744 2297 
L 1647 2297 
z
" transform="scale(0.015625)"/>
     <path id="IPAexGothic-6642" d="M 2328 4728 
L 2328 563 
L 934 563 
L 934 56 
L 519 56 
L 519 4728 
L 2328 4728 
z
M 934 4331 
L 934 2881 
L 1906 2881 
L 1906 4331 
L 934 4331 
z
M 934 2497 
L 934 953 
L 1906 953 
L 1906 2497 
L 934 2497 
z
M 3938 4372 
L 3938 5313 
L 4378 5313 
L 4378 4372 
L 5772 4372 
L 5772 3981 
L 4378 3981 
L 4378 3194 
L 6072 3194 
L 6072 2803 
L 5203 2803 
L 5203 2047 
L 5959 2047 
L 5959 1650 
L 5216 1650 
L 5216 31 
Q 5216 -447 4691 -447 
Q 4394 -447 3888 -391 
L 3784 78 
Q 4272 0 4591 0 
Q 4775 0 4775 172 
L 4775 1650 
L 2581 1650 
L 2581 2047 
L 4763 2047 
L 4763 2803 
L 2538 2803 
L 2538 3194 
L 3938 3194 
L 3938 3981 
L 2716 3981 
L 2716 4372 
L 3938 4372 
z
M 3669 384 
Q 3331 950 2956 1325 
L 3291 1575 
Q 3719 1147 4025 659 
L 3669 384 
z
" transform="scale(0.015625)"/>
     <path id="IPAexGothic-3a" d="M 1369 2559 
L 672 2559 
L 672 3250 
L 1369 3250 
L 1369 2559 
z
M 1369 63 
L 672 63 
L 672 753 
L 1369 753 
L 1369 63 
z
" transform="scale(0.015625)"/>
     <path id="IPAexGothic-20" transform="scale(0.015625)"/>
     <path id="IPAexGothic-2f" d="M 2719 4709 
L 600 -884 
L 300 -763 
L 2413 4831 
L 2719 4709 
z
" transform="scale(0.015625)"/>
     <path id="IPAexGothic-39" d="M 2984 2356 
Q 2544 1716 1813 1716 
Q 1253 1716 847 2056 
Q 366 2459 366 3163 
Q 366 3813 769 4266 
Q 1181 4725 1869 4725 
Q 2800 4725 3241 3950 
Q 3559 3378 3559 2472 
Q 3559 1250 3041 588 
Q 2553 -31 1769 -31 
Q 859 -31 391 703 
L 853 953 
Q 1156 428 1753 428 
Q 2922 428 3009 2356 
L 2984 2356 
z
M 1888 4278 
Q 1450 4278 1172 3950 
Q 922 3653 922 3200 
Q 922 2741 1159 2478 
Q 1434 2163 1906 2163 
Q 2431 2163 2728 2572 
Q 2925 2847 2925 3169 
Q 2925 3553 2694 3863 
Q 2375 4278 1888 4278 
z
" transform="scale(0.015625)"/>
     <path id="IPAexGothic-28" d="M 1928 -1016 
L 1653 -1166 
Q 488 69 488 1875 
Q 488 3678 1653 4909 
L 1928 4763 
Q 1006 3522 1006 1881 
Q 1006 203 1928 -1016 
z
" transform="scale(0.015625)"/>
     <path id="IPAexGothic-54" d="M 3866 4141 
L 2175 4141 
L 2175 63 
L 1606 63 
L 1606 4141 
L -31 4141 
L -31 4634 
L 3866 4634 
L 3866 4141 
z
" transform="scale(0.015625)"/>
     <path id="IPAexGothic-29" d="M 466 4909 
Q 1638 3672 1638 1875 
Q 1638 75 466 -1166 
L 191 -1016 
Q 1119 216 1119 1881 
Q 1119 3509 191 4763 
L 466 4909 
z
" transform="scale(0.015625)"/>
    </defs>
    <use xlink:href="#IPAexGothic-66f4"/>
    <use xlink:href="#IPAexGothic-65b0" x="100"/>
    <use xlink:href="#IPAexGothic-65e5" x="200"/>
    <use xlink:href="#IPAexGothic-6642" x="300"/>
    <use xlink:href="#IPAexGothic-3a" x="400"/>
    <use xlink:href="#IPAexGothic-20" x="431.982422"/>
    <use xlink:href="#IPAexGothic-32" x="458.984375"/>
    <use xlink:href="#IPAexGothic-30" x="521.972656"/>
    <use xlink:href="#IPAexGothic-32" x="584.960938"/>
    <use xlink:href="#IPAexGothic-33" x="647.949219"/>
    <use xlink:href="#IPAexGothic-2f" x="710.9375"/>
    <use xlink:href="#IPAexGothic-30" x="760.9375"/>
    <use xlink:href="#IPAexGothic-34" x="823.925781"/>
    <use xlink:href="#IPAexGothic-2f" x="886.914062"/>
    <use xlink:href="#IPAexGothic-32" x="936.914062"/>
    <use xlink:href="#IPAexGothic-37" x="999.902344"/>
    <use xlink:href="#IPAexGothic-20" x="1062.890625"/>
    <use xlink:href="#IPAexGothic-31" x="1089.892578"/>
    <use xlink:href="#IPAexGothic-36" x="1152.880859"/>
    <use xlink:href="#IPAexGothic-3a" x="1215.869141"/>
    <use xlink:href="#IPAexGothic-31" x="1247.851562"/>
    <use xlink:href="#IPAexGothic-33" x="1310.839844"/>
    <use xlink:href="#IPAexGothic-3a" x="1373.828125"/>
    <use xlink:href="#IPAexGothic-34" x="1405.810547"/>
    <use xlink:href="#IPAexGothic-39" x="1468.798828"/>
    <use xlink:href="#IPAexGothic-28" x="1531.787109"/>
    <use xlink:href="#IPAexGothic-4a" x="1565.087891"/>
    <use xlink:href="#IPAexGothic-53" x="1603.076172"/>
    <use xlink:href="#IPAexGothic-54" x="1661.572266"/>
    <use xlink:href="#IPAexGothic-29" x="1721.484375"/>
   </g>
  </g>
 </g>
 <defs>
  <clipPath id="p3b68f29bf3">
   <rect x="29.439063" y="18.879437" width="357.12" height="266.112"/>
  </clipPath>
 </defs>
</svg>
