<?xml version="1.0" encoding="utf-8" standalone="no"?>
<!DOCTYPE svg PUBLIC "-//W3C//DTD SVG 1.1//EN"
  "http://www.w3.org/Graphics/SVG/1.1/DTD/svg11.dtd">
<svg xmlns:xlink="http://www.w3.org/1999/xlink" width="397.259063pt" height="308.582062pt" viewBox="0 0 397.259063 308.582062" xmlns="http://www.w3.org/2000/svg" version="1.1">
 <metadata>
  <rdf:RDF xmlns:dc="http://purl.org/dc/elements/1.1/" xmlns:cc="http://creativecommons.org/ns#" xmlns:rdf="http://www.w3.org/1999/02/22-rdf-syntax-ns#">
   <cc:Work>
    <dc:type rdf:resource="http://purl.org/dc/dcmitype/StillImage"/>
    <dc:date>2023-01-06T07:13:40.077974</dc:date>
    <dc:format>image/svg+xml</dc:format>
    <dc:creator>
     <cc:Agent>
      <dc:title>Matplotlib v3.6.2, https://matplotlib.org/</dc:title>
     </cc:Agent>
    </dc:creator>
   </cc:Work>
  </rdf:RDF>
 </metadata>
 <defs>
  <style type="text/css">*{stroke-linejoin: round; stroke-linecap: butt}</style>
 </defs>
 <g id="figure_1">
  <g id="patch_1">
   <path d="M 0 308.582062 
L 397.259063 308.582062 
L 397.259063 0 
L 0 0 
z
" style="fill: #ffffff"/>
  </g>
  <g id="axes_1">
   <g id="patch_2">
    <path d="M 29.439063 284.991437 
L 386.559062 284.991437 
L 386.559062 18.879437 
L 29.439063 18.879437 
z
" style="fill: #ffffff"/>
   </g>
   <g id="line2d_1">
    <path d="M 29.439063 211.199039 
L 386.559062 211.199039 
" clip-path="url(#pa9bc1f58b8)" style="fill: none; stroke: #000000; stroke-linecap: square"/>
   </g>
   <g id="matplotlib.axis_1">
    <g id="xtick_1">
     <g id="line2d_2">
      <defs>
       <path id="m4f2f2e6661" d="M 0 0 
L 0 3.5 
" style="stroke: #000000; stroke-width: 0.8"/>
      </defs>
      <g>
       <use xlink:href="#m4f2f2e6661" x="29.439063" y="284.991437" style="stroke: #000000; stroke-width: 0.8"/>
      </g>
     </g>
     <g id="text_1">
      <!-- Jun -->
      <g transform="translate(21.499219 299.482062) scale(0.1 -0.1)">
       <defs>
        <path id="IPAexGothic-4a" d="M 1819 4634 
L 1819 1234 
Q 1819 -31 763 -31 
Q 303 -31 -125 209 
L 84 644 
Q 378 447 694 447 
Q 1250 447 1250 1203 
L 1250 4634 
L 1819 4634 
z
" transform="scale(0.015625)"/>
        <path id="IPAexGothic-75" d="M 3284 63 
L 2772 63 
L 2772 644 
Q 2300 0 1625 0 
Q 1072 0 763 375 
Q 519 678 519 1241 
L 519 3250 
L 1069 3250 
L 1069 1259 
Q 1069 466 1734 466 
Q 2406 466 2734 1291 
L 2734 3250 
L 3284 3250 
L 3284 63 
z
" transform="scale(0.015625)"/>
        <path id="IPAexGothic-6e" d="M 3328 63 
L 2778 63 
L 2778 2041 
Q 2778 2853 2106 2853 
Q 1428 2853 1113 2041 
L 1113 63 
L 563 63 
L 563 3250 
L 1075 3250 
L 1075 2675 
Q 1525 3316 2222 3316 
Q 3328 3316 3328 2072 
L 3328 63 
z
" transform="scale(0.015625)"/>
       </defs>
       <use xlink:href="#IPAexGothic-4a"/>
       <use xlink:href="#IPAexGothic-75" x="37.988281"/>
       <use xlink:href="#IPAexGothic-6e" x="98.388672"/>
      </g>
     </g>
    </g>
    <g id="xtick_2">
     <g id="line2d_3">
      <g>
       <use xlink:href="#m4f2f2e6661" x="78.137244" y="284.991437" style="stroke: #000000; stroke-width: 0.8"/>
      </g>
     </g>
     <g id="text_2">
      <!-- Jul -->
      <g transform="translate(71.867713 299.482062) scale(0.1 -0.1)">
       <defs>
        <path id="IPAexGothic-6c" d="M 1131 63 
L 581 63 
L 581 4794 
L 1131 4794 
L 1131 63 
z
" transform="scale(0.015625)"/>
       </defs>
       <use xlink:href="#IPAexGothic-4a"/>
       <use xlink:href="#IPAexGothic-75" x="37.988281"/>
       <use xlink:href="#IPAexGothic-6c" x="98.388672"/>
      </g>
     </g>
    </g>
    <g id="xtick_3">
     <g id="line2d_4">
      <g>
       <use xlink:href="#m4f2f2e6661" x="128.458699" y="284.991437" style="stroke: #000000; stroke-width: 0.8"/>
      </g>
     </g>
     <g id="text_3">
      <!-- Aug -->
      <g transform="translate(119.476668 299.42425) scale(0.1 -0.1)">
       <defs>
        <path id="IPAexGothic-41" d="M 4056 63 
L 3444 63 
L 2938 1409 
L 1100 1409 
L 603 63 
L -6 63 
L 1806 4666 
L 2259 4666 
L 4056 63 
z
M 2778 1863 
L 2316 3078 
Q 2125 3588 2028 4000 
L 2009 4000 
Q 1897 3563 1716 3078 
L 1263 1863 
L 2778 1863 
z
" transform="scale(0.015625)"/>
        <path id="IPAexGothic-67" d="M 1331 1150 
Q 1006 1122 1006 900 
Q 1006 613 1763 575 
L 2131 556 
Q 3303 497 3303 -294 
Q 3303 -700 2925 -959 
Q 2519 -1253 1794 -1253 
Q 1138 -1253 738 -1028 
Q 353 -809 353 -428 
Q 353 84 1075 247 
L 1075 269 
Q 506 413 506 778 
Q 506 1116 994 1297 
Q 456 1575 456 2181 
Q 456 2650 769 2963 
Q 1128 3322 1738 3322 
Q 2125 3322 2422 3153 
Q 2650 3453 3259 3463 
L 3259 3013 
Q 2838 3003 2703 2938 
Q 3034 2613 3034 2169 
Q 3034 1728 2734 1425 
Q 2400 1094 1813 1094 
Q 1563 1094 1331 1150 
z
M 1734 2919 
Q 1409 2919 1197 2706 
Q 988 2497 988 2181 
Q 988 1872 1184 1684 
Q 1397 1472 1756 1472 
Q 2094 1472 2297 1678 
Q 2503 1881 2503 2203 
Q 2503 2497 2297 2700 
Q 2081 2919 1734 2919 
z
M 1753 159 
Q 903 159 903 -366 
Q 903 -875 1800 -875 
Q 2378 -875 2638 -606 
Q 2772 -481 2772 -313 
Q 2772 159 1753 159 
z
" transform="scale(0.015625)"/>
       </defs>
       <use xlink:href="#IPAexGothic-41"/>
       <use xlink:href="#IPAexGothic-75" x="63.720703"/>
       <use xlink:href="#IPAexGothic-67" x="124.121094"/>
      </g>
     </g>
    </g>
    <g id="xtick_4">
     <g id="line2d_5">
      <g>
       <use xlink:href="#m4f2f2e6661" x="178.780153" y="284.991437" style="stroke: #000000; stroke-width: 0.8"/>
      </g>
     </g>
     <g id="text_4">
      <!-- Sep -->
      <g transform="translate(169.905153 299.482062) scale(0.1 -0.1)">
       <defs>
        <path id="IPAexGothic-53" d="M 2919 3641 
Q 2563 4259 1853 4259 
Q 1453 4259 1213 4009 
Q 1028 3803 1028 3534 
Q 1028 3238 1266 3047 
Q 1444 2913 1984 2688 
L 2200 2597 
Q 2925 2306 3191 1953 
Q 3422 1644 3422 1259 
Q 3422 644 2969 288 
Q 2559 -31 1931 -31 
Q 881 -31 313 766 
L 753 1100 
Q 1203 459 1938 459 
Q 2288 459 2534 625 
Q 2841 847 2841 1216 
Q 2841 1503 2616 1728 
Q 2375 1959 1728 2206 
L 1541 2278 
Q 453 2694 453 3481 
Q 453 4006 806 4347 
Q 1203 4725 1863 4725 
Q 2841 4725 3359 3956 
L 2919 3641 
z
" transform="scale(0.015625)"/>
        <path id="IPAexGothic-65" d="M 863 1594 
Q 891 1041 1209 722 
Q 1534 397 1997 397 
Q 2606 397 2963 966 
L 3322 728 
Q 2869 -31 1931 -31 
Q 1222 -31 766 422 
Q 306 884 306 1641 
Q 306 2444 788 2925 
Q 1216 3353 1856 3353 
Q 2459 3353 2866 2956 
Q 3322 2494 3322 1722 
L 3322 1594 
L 863 1594 
z
M 2756 1997 
Q 2709 2431 2450 2681 
Q 2194 2938 1844 2938 
Q 1438 2938 1150 2591 
Q 953 2356 894 1997 
L 2756 1997 
z
" transform="scale(0.015625)"/>
        <path id="IPAexGothic-70" d="M 1075 2688 
Q 1525 3341 2206 3341 
Q 2769 3341 3172 2938 
Q 3641 2469 3641 1644 
Q 3641 841 3178 372 
Q 2775 -31 2200 -31 
Q 1569 -31 1106 497 
L 1106 -1216 
L 563 -1216 
L 563 3250 
L 1075 3250 
L 1075 2688 
z
M 1106 1950 
L 1106 1291 
Q 1106 897 1516 600 
Q 1791 403 2106 403 
Q 2469 403 2725 659 
Q 3066 997 3066 1631 
Q 3066 2200 2784 2559 
Q 2503 2900 2100 2900 
Q 1656 2900 1338 2484 
Q 1106 2184 1106 1950 
z
" transform="scale(0.015625)"/>
       </defs>
       <use xlink:href="#IPAexGothic-53"/>
       <use xlink:href="#IPAexGothic-65" x="58.496094"/>
       <use xlink:href="#IPAexGothic-70" x="115.380859"/>
      </g>
     </g>
    </g>
    <g id="xtick_5">
     <g id="line2d_6">
      <g>
       <use xlink:href="#m4f2f2e6661" x="227.478335" y="284.991437" style="stroke: #000000; stroke-width: 0.8"/>
      </g>
     </g>
     <g id="text_5">
      <!-- Oct -->
      <g transform="translate(219.043179 299.482062) scale(0.1 -0.1)">
       <defs>
        <path id="IPAexGothic-4f" d="M 2541 4725 
Q 3456 4725 4044 4138 
Q 4709 3472 4709 2331 
Q 4709 1219 4031 550 
Q 3450 -31 2541 -31 
Q 1638 -31 1056 550 
Q 378 1219 378 2356 
Q 378 3469 1044 4138 
Q 1631 4725 2541 4725 
z
M 2541 4266 
Q 1953 4266 1531 3844 
Q 994 3303 994 2350 
Q 994 1391 1531 863 
Q 1947 447 2541 447 
Q 3131 447 3556 863 
Q 4094 1400 4094 2375 
Q 4094 3297 3550 3844 
Q 3138 4266 2541 4266 
z
" transform="scale(0.015625)"/>
        <path id="IPAexGothic-63" d="M 3269 784 
Q 2834 -31 1900 -31 
Q 1228 -31 788 409 
Q 313 891 313 1663 
Q 313 2428 788 2913 
Q 1222 3347 1881 3347 
Q 2813 3347 3206 2541 
L 2763 2309 
Q 2484 2900 1900 2900 
Q 1516 2900 1234 2619 
Q 881 2266 881 1650 
Q 881 1069 1222 728 
Q 1522 428 1956 428 
Q 2547 428 2847 1016 
L 3269 784 
z
" transform="scale(0.015625)"/>
        <path id="IPAexGothic-74" d="M 2125 241 
Q 1769 -6 1397 -6 
Q 653 -6 653 831 
L 653 2859 
L 219 2859 
L 219 3250 
L 653 3250 
L 653 3966 
L 1178 4228 
L 1178 3250 
L 2063 3250 
L 2063 2859 
L 1178 2859 
L 1178 906 
Q 1178 416 1513 416 
Q 1738 416 1941 588 
L 2125 241 
z
" transform="scale(0.015625)"/>
       </defs>
       <use xlink:href="#IPAexGothic-4f"/>
       <use xlink:href="#IPAexGothic-63" x="79.6875"/>
       <use xlink:href="#IPAexGothic-74" x="134.082031"/>
      </g>
     </g>
    </g>
    <g id="xtick_6">
     <g id="line2d_7">
      <g>
       <use xlink:href="#m4f2f2e6661" x="277.79979" y="284.991437" style="stroke: #000000; stroke-width: 0.8"/>
      </g>
     </g>
     <g id="text_6">
      <!-- Nov -->
      <g transform="translate(268.551352 299.482062) scale(0.1 -0.1)">
       <defs>
        <path id="IPAexGothic-4e" d="M 4244 63 
L 3731 63 
L 1697 3150 
Q 1466 3500 1141 4097 
L 1116 4097 
L 1128 3797 
Q 1159 2803 1159 2469 
L 1159 63 
L 609 63 
L 609 4634 
L 1366 4634 
L 3113 1978 
Q 3453 1447 3713 966 
L 3738 966 
Q 3694 1897 3694 2469 
L 3694 4634 
L 4244 4634 
L 4244 63 
z
" transform="scale(0.015625)"/>
        <path id="IPAexGothic-6f" d="M 1919 3341 
Q 2594 3341 3056 2888 
Q 3531 2413 3531 1638 
Q 3531 888 3066 422 
Q 2609 -31 1919 -31 
Q 1228 -31 781 416 
Q 313 881 313 1656 
Q 313 2413 788 2888 
Q 1241 3341 1919 3341 
z
M 1919 2919 
Q 1519 2919 1241 2631 
Q 888 2278 888 1650 
Q 888 1031 1234 684 
Q 1516 403 1919 403 
Q 2331 403 2609 691 
Q 2956 1038 2956 1672 
Q 2956 2269 2603 2631 
Q 2316 2919 1919 2919 
z
" transform="scale(0.015625)"/>
        <path id="IPAexGothic-76" d="M 3103 3250 
L 1747 6 
L 1375 6 
L 25 3250 
L 628 3250 
L 1338 1388 
L 1522 844 
L 1569 703 
L 1588 703 
Q 1641 884 1822 1388 
L 2516 3250 
L 3103 3250 
z
" transform="scale(0.015625)"/>
       </defs>
       <use xlink:href="#IPAexGothic-4e"/>
       <use xlink:href="#IPAexGothic-6f" x="75.976562"/>
       <use xlink:href="#IPAexGothic-76" x="136.376953"/>
      </g>
     </g>
    </g>
    <g id="xtick_7">
     <g id="line2d_8">
      <g>
       <use xlink:href="#m4f2f2e6661" x="326.497972" y="284.991437" style="stroke: #000000; stroke-width: 0.8"/>
      </g>
     </g>
     <g id="text_7">
      <!-- Dec -->
      <g transform="translate(317.149534 299.482062) scale(0.1 -0.1)">
       <defs>
        <path id="IPAexGothic-44" d="M 609 4634 
L 1984 4634 
Q 3159 4634 3791 4050 
Q 4456 3444 4456 2356 
Q 4456 1047 3516 441 
Q 2925 63 1941 63 
L 609 63 
L 609 4634 
z
M 1172 556 
L 1894 556 
Q 3853 556 3853 2356 
Q 3853 4147 1928 4147 
L 1172 4147 
L 1172 556 
z
" transform="scale(0.015625)"/>
       </defs>
       <use xlink:href="#IPAexGothic-44"/>
       <use xlink:href="#IPAexGothic-65" x="75.683594"/>
       <use xlink:href="#IPAexGothic-63" x="132.568359"/>
      </g>
     </g>
    </g>
    <g id="xtick_8">
     <g id="line2d_9">
      <g>
       <use xlink:href="#m4f2f2e6661" x="376.819426" y="284.991437" style="stroke: #000000; stroke-width: 0.8"/>
      </g>
     </g>
     <g id="text_8">
      <!-- 2023 -->
      <g transform="translate(364.222551 299.482062) scale(0.1 -0.1)">
       <defs>
        <path id="IPAexGothic-32" d="M 3659 63 
L 447 63 
L 447 594 
Q 825 1475 1894 2203 
L 2072 2322 
Q 2619 2697 2791 2906 
Q 2988 3153 2988 3444 
Q 2988 3772 2756 4003 
Q 2500 4259 2084 4259 
Q 1250 4259 991 3328 
L 497 3506 
Q 853 4725 2116 4725 
Q 2806 4725 3216 4316 
Q 3575 3947 3575 3425 
Q 3575 3038 3344 2722 
Q 3131 2416 2366 1938 
L 2231 1856 
Q 1256 1253 978 569 
L 3659 569 
L 3659 63 
z
" transform="scale(0.015625)"/>
        <path id="IPAexGothic-30" d="M 2038 4725 
Q 2881 4725 3334 3944 
Q 3694 3325 3694 2344 
Q 3694 1372 3334 741 
Q 2888 -31 2016 -31 
Q 1147 -31 700 741 
Q 341 1372 341 2350 
Q 341 3713 1000 4334 
Q 1419 4725 2038 4725 
z
M 2016 4266 
Q 1516 4266 1228 3759 
Q 934 3247 934 2344 
Q 934 1456 1222 947 
Q 1513 447 2016 447 
Q 2619 447 2909 1153 
Q 3100 1622 3100 2375 
Q 3100 3256 2806 3759 
Q 2509 4266 2016 4266 
z
" transform="scale(0.015625)"/>
        <path id="IPAexGothic-33" d="M 2381 2419 
Q 3506 2216 3506 1278 
Q 3506 716 3128 356 
Q 2709 -31 1944 -31 
Q 797 -31 288 881 
L 756 1131 
Q 1109 441 1938 441 
Q 2425 441 2694 691 
Q 2950 928 2950 1291 
Q 2950 1719 2566 1978 
Q 2216 2213 1644 2213 
L 1363 2213 
L 1363 2669 
L 1656 2669 
Q 2231 2669 2534 2888 
Q 2859 3119 2859 3509 
Q 2859 3934 2494 4138 
Q 2259 4278 1931 4278 
Q 1238 4278 903 3578 
L 434 3803 
Q 897 4725 1938 4725 
Q 2597 4725 3006 4394 
Q 3416 4069 3416 3534 
Q 3416 3028 3019 2706 
Q 2763 2500 2381 2444 
L 2381 2419 
z
" transform="scale(0.015625)"/>
       </defs>
       <use xlink:href="#IPAexGothic-32"/>
       <use xlink:href="#IPAexGothic-30" x="62.988281"/>
       <use xlink:href="#IPAexGothic-32" x="125.976562"/>
       <use xlink:href="#IPAexGothic-33" x="188.964844"/>
      </g>
     </g>
    </g>
   </g>
   <g id="matplotlib.axis_2">
    <g id="ytick_1">
     <g id="line2d_10">
      <defs>
       <path id="mf748df1f7f" d="M 0 0 
L -3.5 0 
" style="stroke: #000000; stroke-width: 0.8"/>
      </defs>
      <g>
       <use xlink:href="#mf748df1f7f" x="29.439063" y="269.014637" style="stroke: #000000; stroke-width: 0.8"/>
      </g>
     </g>
     <g id="text_9">
      <!-- 0.5 -->
      <g transform="translate(7.2 272.759949) scale(0.1 -0.1)">
       <defs>
        <path id="IPAexGothic-2e" d="M 1184 63 
L 494 63 
L 494 753 
L 1184 753 
L 1184 63 
z
" transform="scale(0.015625)"/>
        <path id="IPAexGothic-35" d="M 1178 2603 
Q 1634 2963 2172 2963 
Q 2816 2963 3241 2528 
Q 3638 2113 3638 1497 
Q 3638 938 3297 513 
Q 2869 -31 2031 -31 
Q 959 -31 469 784 
L 938 1028 
Q 1309 434 2013 434 
Q 2466 434 2769 716 
Q 3081 1013 3081 1503 
Q 3081 1966 2806 2241 
Q 2519 2528 2056 2528 
Q 1406 2528 1072 2028 
L 591 2091 
L 884 4634 
L 3406 4634 
L 3406 4153 
L 1341 4153 
L 1134 2603 
L 1178 2603 
z
" transform="scale(0.015625)"/>
       </defs>
       <use xlink:href="#IPAexGothic-30"/>
       <use xlink:href="#IPAexGothic-2e" x="62.988281"/>
       <use xlink:href="#IPAexGothic-35" x="89.404297"/>
      </g>
     </g>
    </g>
    <g id="ytick_2">
     <g id="line2d_11">
      <g>
       <use xlink:href="#mf748df1f7f" x="29.439063" y="211.199039" style="stroke: #000000; stroke-width: 0.8"/>
      </g>
     </g>
     <g id="text_10">
      <!-- 1.0 -->
      <g transform="translate(7.2 214.944352) scale(0.1 -0.1)">
       <defs>
        <path id="IPAexGothic-31" d="M 2463 63 
L 1900 63 
L 1900 4103 
Q 1372 3922 788 3797 
L 684 4231 
Q 1519 4441 2106 4731 
L 2463 4731 
L 2463 63 
z
" transform="scale(0.015625)"/>
       </defs>
       <use xlink:href="#IPAexGothic-31"/>
       <use xlink:href="#IPAexGothic-2e" x="62.988281"/>
       <use xlink:href="#IPAexGothic-30" x="89.404297"/>
      </g>
     </g>
    </g>
    <g id="ytick_3">
     <g id="line2d_12">
      <g>
       <use xlink:href="#mf748df1f7f" x="29.439063" y="153.383442" style="stroke: #000000; stroke-width: 0.8"/>
      </g>
     </g>
     <g id="text_11">
      <!-- 1.5 -->
      <g transform="translate(7.2 157.128754) scale(0.1 -0.1)">
       <use xlink:href="#IPAexGothic-31"/>
       <use xlink:href="#IPAexGothic-2e" x="62.988281"/>
       <use xlink:href="#IPAexGothic-35" x="89.404297"/>
      </g>
     </g>
    </g>
    <g id="ytick_4">
     <g id="line2d_13">
      <g>
       <use xlink:href="#mf748df1f7f" x="29.439063" y="95.567844" style="stroke: #000000; stroke-width: 0.8"/>
      </g>
     </g>
     <g id="text_12">
      <!-- 2.0 -->
      <g transform="translate(7.2 99.313157) scale(0.1 -0.1)">
       <use xlink:href="#IPAexGothic-32"/>
       <use xlink:href="#IPAexGothic-2e" x="62.988281"/>
       <use xlink:href="#IPAexGothic-30" x="89.404297"/>
      </g>
     </g>
    </g>
    <g id="ytick_5">
     <g id="line2d_14">
      <g>
       <use xlink:href="#mf748df1f7f" x="29.439063" y="37.752247" style="stroke: #000000; stroke-width: 0.8"/>
      </g>
     </g>
     <g id="text_13">
      <!-- 2.5 -->
      <g transform="translate(7.2 41.497559) scale(0.1 -0.1)">
       <use xlink:href="#IPAexGothic-32"/>
       <use xlink:href="#IPAexGothic-2e" x="62.988281"/>
       <use xlink:href="#IPAexGothic-35" x="89.404297"/>
      </g>
     </g>
    </g>
   </g>
   <g id="line2d_15">
    <path d="M 29.439063 227.411867 
L 31.062335 255.471758 
L 32.685608 269.405805 
L 34.308881 242.945807 
L 35.932153 262.441258 
L 39.178699 251.639145 
L 40.801972 227.514621 
L 42.425244 229.940841 
L 44.048517 194.078383 
L 45.67179 246.403784 
L 47.295063 250.411663 
L 48.918335 205.84664 
L 50.541608 249.191321 
L 52.164881 272.895437 
L 53.788153 243.090535 
L 55.411426 247.559579 
L 57.034699 238.429093 
L 58.657972 112.810292 
L 60.281244 184.323192 
L 61.904517 181.498781 
L 63.52779 30.975437 
L 66.774335 168.571026 
L 68.397608 110.868109 
L 70.020881 213.126183 
L 71.644153 156.293505 
L 73.267426 124.518024 
L 74.890699 151.875457 
L 76.513972 236.751655 
L 78.137244 106.655378 
L 79.760517 51.387485 
L 81.38379 102.788184 
L 83.007063 95.926279 
L 84.630335 36.542983 
L 86.253608 79.37836 
L 87.876881 35.439549 
L 89.500153 110.396771 
L 91.123426 116.980214 
L 92.746699 109.726148 
L 94.369972 177.160719 
L 95.993244 110.814502 
L 97.616517 153.702013 
L 99.23979 148.460822 
L 100.863063 164.812112 
L 102.486335 190.526245 
L 104.109608 181.526351 
L 105.732881 197.096587 
L 107.356153 219.976945 
L 108.979426 163.710275 
L 110.602699 173.022011 
L 112.225972 196.817697 
L 113.849244 179.527296 
L 115.472517 191.661352 
L 117.09579 192.887858 
L 118.719063 173.15897 
L 120.342335 188.50237 
L 121.965608 201.809366 
L 123.588881 195.197746 
L 125.212153 183.412435 
L 126.835426 192.046725 
L 128.458699 204.737627 
L 130.081972 199.025674 
L 131.705244 189.016626 
L 133.328517 185.809755 
L 134.95179 182.941981 
L 136.575063 200.02008 
L 138.198335 192.032303 
L 139.821608 181.775482 
L 141.444881 186.871327 
L 143.068153 193.9839 
L 144.691426 204.601463 
L 146.314699 225.669065 
L 147.937972 207.989558 
L 149.561244 218.057369 
L 151.184517 204.232725 
L 152.80779 217.282458 
L 154.431062 202.720535 
L 156.054335 195.141529 
L 157.677608 153.461242 
L 159.300881 171.531238 
L 160.924153 185.828914 
L 162.547426 204.950127 
L 164.170699 187.736367 
L 165.793972 211.671324 
L 167.417244 216.92144 
L 169.040517 231.587854 
L 170.66379 248.509599 
L 172.287063 240.826108 
L 173.910335 241.29957 
L 175.533608 247.072575 
L 177.156881 251.367839 
L 178.780153 251.669425 
L 180.403426 251.785215 
L 182.026699 242.900107 
L 183.649972 251.663262 
L 185.273244 241.186243 
L 186.896517 228.929625 
L 188.51979 240.670472 
L 190.143063 239.689961 
L 191.766335 228.587222 
L 193.389608 234.114512 
L 195.012881 220.053728 
L 196.636153 221.634093 
L 198.259426 247.789493 
L 199.882699 250.578039 
L 201.505972 230.847867 
L 203.129244 240.571341 
L 204.752517 229.667605 
L 206.37579 228.965012 
L 207.999063 226.507 
L 209.622335 266.267581 
L 211.245608 173.994674 
L 212.868881 228.352097 
L 214.492153 212.968149 
L 216.115426 243.863512 
L 217.738699 195.951487 
L 219.361972 187.500784 
L 220.985244 195.32975 
L 222.608517 238.855842 
L 224.23179 224.563828 
L 225.855063 239.674853 
L 227.478335 205.067187 
L 229.101608 219.657973 
L 230.724881 258.893645 
L 232.348153 189.095647 
L 233.971426 231.988543 
L 235.594699 230.452082 
L 237.217972 208.848889 
L 238.841244 214.413367 
L 240.464517 237.774657 
L 242.08779 208.216448 
L 243.711063 269.328924 
L 245.334335 186.857034 
L 246.957608 168.652783 
L 248.580881 211.199039 
L 250.204153 197.903063 
L 251.827426 190.42842 
L 253.450699 209.746404 
L 255.073972 135.123595 
L 256.697244 212.926136 
L 258.320517 239.34414 
L 259.94379 184.631705 
L 261.567063 193.892671 
L 263.190335 220.351516 
L 264.813608 197.002011 
L 266.436881 191.634272 
L 268.060153 213.253557 
L 269.683426 183.049443 
L 271.306699 199.198481 
L 272.929972 190.346771 
L 274.553244 160.309806 
L 276.176517 189.784075 
L 277.79979 198.104074 
L 279.423063 152.110827 
L 281.046335 152.9204 
L 282.669608 232.748365 
L 284.292881 165.024121 
L 285.916153 194.085734 
L 287.539426 199.838398 
L 289.162699 173.564927 
L 290.785972 209.205445 
L 292.409244 206.690562 
L 294.032517 156.249641 
L 295.65579 220.402577 
L 297.279063 215.284532 
L 298.902335 225.924092 
L 300.525608 188.099011 
L 302.148881 185.511636 
L 303.772153 211.199039 
L 305.395426 194.160213 
L 307.018699 184.55213 
L 308.641972 182.799057 
L 311.888517 203.930102 
L 313.51179 168.757197 
L 315.135063 220.491359 
L 316.758335 171.577359 
L 320.004881 192.11637 
L 321.628153 204.402838 
L 323.251426 198.987955 
L 324.874699 181.777237 
L 326.497972 142.696764 
L 328.121244 213.580923 
L 329.744517 220.529523 
L 331.36779 204.080643 
L 332.991063 205.292279 
L 334.614335 181.962456 
L 336.237608 194.793532 
L 337.860881 197.432704 
L 339.484153 173.295964 
L 341.107426 175.045451 
L 342.730699 167.16196 
L 344.353972 187.120934 
L 345.977244 183.834422 
L 347.600517 173.778001 
L 349.22379 181.23856 
L 350.847063 201.020413 
L 352.470335 187.828789 
L 354.093608 213.66936 
L 355.716881 207.768569 
L 357.340153 207.295129 
L 358.963426 192.832229 
L 360.586699 206.958159 
L 362.209972 188.728128 
L 363.833244 193.851266 
L 365.456517 207.103197 
L 367.07979 215.224404 
L 368.703063 196.113595 
L 370.326335 220.91992 
L 371.949608 200.04709 
L 373.572881 223.444191 
L 375.196153 251.024981 
L 376.819426 228.180558 
L 378.442699 208.755181 
L 380.065972 251.311193 
L 381.689244 254.432046 
L 383.312517 215.74342 
L 384.93579 126.299141 
L 384.93579 126.299141 
" clip-path="url(#pa9bc1f58b8)" style="fill: none; stroke: #1f77b4; stroke-width: 1.5; stroke-linecap: square"/>
   </g>
   <g id="line2d_16">
    <path d="M 29.439063 230.929789 
L 31.062335 242.60231 
L 32.685608 262.8168 
L 34.308881 257.425513 
L 35.932153 253.337157 
L 37.555426 259.836211 
L 39.178699 254.434415 
L 40.801972 240.414674 
L 42.425244 228.735232 
L 44.048517 213.41839 
L 45.67179 223.501825 
L 47.295063 248.433331 
L 48.918335 230.677266 
L 50.541608 229.912564 
L 52.164881 262.11981 
L 53.788153 259.625445 
L 55.411426 245.355694 
L 57.034699 243.118728 
L 58.657972 189.281671 
L 60.281244 152.189606 
L 61.904517 182.917915 
L 63.52779 119.473036 
L 65.151063 68.196709 
L 66.774335 137.669929 
L 68.397608 141.957318 
L 70.020881 170.127431 
L 71.644153 187.579679 
L 73.267426 141.084002 
L 74.890699 138.693349 
L 76.513972 201.292679 
L 78.137244 186.000414 
L 79.760517 80.567026 
L 81.38379 78.413733 
L 83.007063 99.383107 
L 84.630335 67.931655 
L 86.253608 58.815077 
L 87.876881 58.306173 
L 89.500153 75.699401 
L 91.123426 113.713912 
L 92.746699 113.383995 
L 94.369972 146.569691 
L 95.993244 147.022086 
L 97.616517 133.443524 
L 99.23979 151.100956 
L 100.863063 156.832948 
L 102.486335 178.224324 
L 104.109608 186.098223 
L 105.732881 189.532009 
L 107.356153 209.091256 
L 108.979426 194.807872 
L 110.602699 168.434555 
L 112.225972 185.419494 
L 113.849244 188.44227 
L 115.472517 185.724694 
L 117.09579 192.276003 
L 118.719063 183.362139 
L 120.342335 181.032368 
L 121.965608 195.324076 
L 123.588881 198.546144 
L 125.212153 189.431392 
L 126.835426 187.79659 
L 128.458699 198.54902 
L 130.081972 201.914295 
L 131.705244 194.115474 
L 133.328517 187.422411 
L 134.95179 184.383085 
L 136.575063 191.750659 
L 138.198335 196.087179 
L 139.821608 186.997904 
L 141.444881 184.346184 
L 143.068153 190.473981 
L 144.691426 199.403219 
L 146.314699 215.633088 
L 147.937972 217.185071 
L 149.561244 213.134848 
L 151.184517 211.351742 
L 152.80779 210.94113 
L 154.431062 210.228598 
L 156.054335 198.987184 
L 157.677608 175.731796 
L 159.300881 162.744798 
L 162.547426 195.737687 
L 164.170699 196.62741 
L 165.793972 200.268399 
L 167.417244 214.327003 
L 169.040517 224.517111 
L 170.66379 240.462163 
L 172.287063 244.757718 
L 173.910335 241.063165 
L 175.533608 244.236496 
L 177.156881 249.249927 
L 178.780153 251.518783 
L 180.403426 251.727342 
L 182.026699 247.466905 
L 183.649972 247.402446 
L 185.273244 246.595581 
L 186.896517 235.262778 
L 188.51979 234.987471 
L 190.143063 240.181603 
L 191.766335 234.304978 
L 193.389608 231.390872 
L 195.012881 227.332189 
L 196.636153 220.846856 
L 198.259426 235.644814 
L 199.882699 249.196285 
L 201.505972 241.279862 
L 203.129244 235.839395 
L 204.752517 235.281663 
L 206.37579 229.316941 
L 207.999063 227.743627 
L 209.622335 248.882551 
L 211.245608 230.621466 
L 212.868881 204.147875 
L 214.492153 220.93913 
L 216.115426 229.635769 
L 217.738699 222.625721 
L 219.361972 191.792225 
L 220.985244 191.471858 
L 222.608517 219.272458 
L 224.23179 231.97864 
L 225.855063 232.42119 
L 227.478335 223.814193 
L 229.101608 212.595296 
L 230.724881 241.501939 
L 232.348153 230.097519 
L 233.971426 212.536835 
L 235.594699 231.223399 
L 237.217972 220.196168 
L 238.841244 211.66473 
L 240.464517 226.773505 
L 242.08779 224.052711 
L 243.711063 244.24423 
L 245.334335 237.116008 
L 246.957608 178.033043 
L 250.204153 204.731901 
L 251.827426 194.218394 
L 253.450699 200.456001 
L 255.073972 177.011185 
L 256.697244 179.059561 
L 258.320517 227.005264 
L 259.94379 215.29372 
L 261.567063 189.34014 
L 263.190335 207.855357 
L 264.813608 209.25497 
L 266.436881 194.345323 
L 268.060153 202.914504 
L 269.683426 199.04078 
L 271.306699 191.364392 
L 272.929972 194.846812 
L 274.553244 176.074523 
L 276.176517 175.764073 
L 277.79979 194.009205 
L 279.423063 176.860376 
L 281.046335 152.516084 
L 282.669608 198.91713 
L 284.292881 203.448625 
L 285.916153 180.273516 
L 287.539426 196.993923 
L 289.162699 187.318791 
L 290.785972 192.562593 
L 292.409244 207.954654 
L 294.032517 183.674736 
L 295.65579 192.091624 
L 297.279063 217.873602 
L 298.902335 220.737602 
L 300.525608 208.513572 
L 302.148881 186.8113 
L 303.772153 198.998945 
L 305.395426 202.972279 
L 307.018699 189.440136 
L 308.641972 183.678277 
L 310.265244 188.335204 
L 311.888517 198.897374 
L 313.51179 187.448754 
L 315.135063 197.179515 
L 316.758335 198.341262 
L 318.381608 176.894581 
L 320.004881 187.16406 
L 321.628153 198.406453 
L 323.251426 201.724689 
L 324.874699 190.654224 
L 326.497972 163.401008 
L 328.121244 182.424595 
L 329.744517 217.110216 
L 331.36779 212.600777 
L 332.991063 204.687964 
L 334.614335 194.139114 
L 336.237608 188.526714 
L 337.860881 196.119779 
L 339.484153 185.880047 
L 341.107426 174.173214 
L 342.730699 171.1536 
L 344.353972 177.474475 
L 345.977244 185.48723 
L 347.600517 178.891638 
L 349.22379 177.554882 
L 350.847063 191.49043 
L 352.470335 194.588989 
L 354.093608 201.412831 
L 355.716881 210.756455 
L 357.340153 207.532084 
L 358.963426 200.270107 
L 360.586699 200.091846 
L 362.209972 198.165608 
L 363.833244 191.313905 
L 365.456517 200.651084 
L 367.07979 211.235099 
L 368.703063 206.046382 
L 370.326335 209.168684 
L 371.949608 210.952529 
L 373.572881 212.341773 
L 375.196153 238.302243 
L 376.819426 240.353858 
L 378.442699 218.904029 
L 380.065972 232.400817 
L 381.689244 252.888083 
L 383.312517 237.150337 
L 384.93579 177.577562 
L 384.93579 177.577562 
" clip-path="url(#pa9bc1f58b8)" style="fill: none; stroke: #ff7f0e; stroke-width: 1.5; stroke-linecap: square"/>
   </g>
   <g id="line2d_17">
    <path d="M 29.439063 229.122786 
L 31.062335 239.928401 
L 32.685608 252.698705 
L 34.308881 256.780278 
L 35.932153 259.139403 
L 37.555426 254.622372 
L 39.178699 257.208287 
L 40.801972 246.388486 
L 42.425244 237.055655 
L 44.048517 218.326475 
L 47.295063 233.387372 
L 48.918335 236.234427 
L 50.541608 237.293425 
L 53.788153 256.313321 
L 55.411426 255.822722 
L 57.034699 243.109331 
L 58.657972 212.36467 
L 61.904517 162.563334 
L 63.52779 143.84129 
L 65.151063 113.406318 
L 66.774335 107.256927 
L 68.397608 129.127564 
L 70.020881 169.610337 
L 71.644153 165.645532 
L 73.267426 169.115602 
L 74.890699 144.753156 
L 76.513972 179.647632 
L 78.137244 175.437505 
L 79.760517 150.710969 
L 81.38379 88.208754 
L 83.007063 84.394062 
L 84.630335 80.114816 
L 86.253608 71.804879 
L 87.876881 51.239386 
L 89.500153 76.931758 
L 91.123426 90.291085 
L 92.746699 112.392863 
L 94.369972 137.201801 
L 95.993244 135.362509 
L 97.616517 149.276885 
L 99.23979 138.58476 
L 100.863063 155.795645 
L 102.486335 168.900399 
L 107.356153 200.539182 
L 108.979426 195.575228 
L 110.602699 187.912342 
L 112.225972 178.52472 
L 113.849244 183.482093 
L 115.472517 189.523726 
L 117.09579 188.153999 
L 118.719063 186.18367 
L 120.342335 185.09643 
L 121.965608 188.315827 
L 123.588881 195.281979 
L 125.212153 193.687884 
L 126.835426 190.308761 
L 128.458699 193.689874 
L 130.081972 198.708102 
L 131.705244 197.755094 
L 133.328517 191.402728 
L 134.95179 185.944654 
L 136.575063 189.7987 
L 138.198335 191.844605 
L 139.821608 191.480812 
L 141.444881 186.955724 
L 143.068153 187.634041 
L 144.691426 195.355837 
L 146.314699 208.84012 
L 149.561244 217.476612 
L 151.184517 210.241718 
L 152.80779 213.36349 
L 154.431062 208.263285 
L 156.054335 205.402114 
L 157.677608 185.324114 
L 159.300881 174.344388 
L 160.924153 170.831497 
L 162.547426 188.120092 
L 164.170699 193.123075 
L 165.793972 201.848623 
L 167.417244 206.082407 
L 169.040517 220.402845 
L 170.66379 233.236603 
L 172.287063 240.583648 
L 173.910335 243.620823 
L 175.533608 243.114997 
L 178.780153 250.064959 
L 180.403426 251.607698 
L 182.026699 248.893225 
L 183.649972 248.891095 
L 185.273244 245.382199 
L 188.51979 237.10204 
L 190.143063 236.582508 
L 191.766335 236.477418 
L 193.389608 234.241533 
L 195.012881 227.752305 
L 196.636153 225.467971 
L 198.259426 230.718701 
L 199.882699 240.92208 
L 201.505972 243.507227 
L 203.129244 241.044337 
L 204.752517 233.826969 
L 206.37579 233.222764 
L 207.999063 228.38915 
L 209.622335 242.740121 
L 211.245608 229.269077 
L 212.868881 229.870881 
L 214.492153 207.161383 
L 216.115426 229.209749 
L 217.738699 219.501156 
L 219.361972 212.031087 
L 220.985244 192.98185 
L 222.608517 209.581314 
L 224.23179 221.065989 
L 225.855063 234.616737 
L 227.478335 224.06468 
L 229.101608 222.447011 
L 230.724881 230.764786 
L 232.348153 226.735849 
L 233.971426 230.732013 
L 235.594699 218.850986 
L 237.217972 224.281475 
L 238.841244 218.302399 
L 240.464517 221.123664 
L 242.08779 220.93512 
L 243.711063 242.141688 
L 245.334335 228.364316 
L 246.957608 218.44859 
L 248.580881 190.029585 
L 250.204153 193.727182 
L 251.827426 200.139008 
L 253.450699 199.610689 
L 255.073972 181.624175 
L 256.697244 190.09163 
L 258.320517 202.749265 
L 259.94379 214.510045 
L 261.567063 208.573118 
L 263.190335 200.569432 
L 264.813608 204.342327 
L 266.436881 203.652593 
L 268.060153 200.974213 
L 269.683426 196.618162 
L 271.306699 199.093369 
L 272.929972 191.026031 
L 274.553244 184.214067 
L 276.176517 180.790352 
L 277.79979 183.611312 
L 279.423063 181.298308 
L 281.046335 169.270937 
L 282.669608 184.905831 
L 284.292881 188.492178 
L 285.916153 200.403438 
L 287.539426 187.108997 
L 289.162699 189.611924 
L 290.785972 195.033037 
L 292.409244 197.447481 
L 294.032517 192.747876 
L 295.65579 197.145102 
L 297.279063 200.314175 
L 298.902335 220.626045 
L 302.148881 201.295556 
L 303.772153 195.464272 
L 305.395426 197.405968 
L 307.018699 197.113713 
L 308.641972 187.261183 
L 310.265244 187.08549 
L 311.888517 193.741822 
L 313.51179 189.550213 
L 315.135063 199.469935 
L 316.758335 189.152671 
L 318.381608 193.119185 
L 320.004881 182.150609 
L 321.628153 193.164416 
L 323.251426 198.60058 
L 324.874699 195.400607 
L 326.497972 176.246527 
L 328.121244 182.20913 
L 329.744517 196.443074 
L 331.36779 212.928431 
L 332.991063 210.214796 
L 334.614335 197.539344 
L 336.237608 194.357613 
L 339.484153 188.916137 
L 341.107426 182.357292 
L 342.730699 171.871023 
L 344.353972 176.669151 
L 345.977244 179.625281 
L 347.600517 181.687232 
L 349.22379 179.678119 
L 350.847063 185.826618 
L 352.470335 190.280728 
L 354.093608 201.282161 
L 355.716881 203.568241 
L 357.340153 209.613962 
L 358.963426 202.82065 
L 360.586699 202.539923 
L 362.209972 196.411828 
L 363.833244 196.743275 
L 365.456517 196.795762 
L 367.07979 205.708887 
L 368.703063 206.399686 
L 370.326335 211.222913 
L 371.949608 206.203506 
L 373.572881 215.275699 
L 375.196153 227.04317 
L 376.819426 235.049338 
L 378.442699 230.893623 
L 380.065972 231.014516 
L 381.689244 240.403632 
L 383.312517 242.143466 
L 384.93579 209.55923 
L 384.93579 209.55923 
" clip-path="url(#pa9bc1f58b8)" style="fill: none; stroke: #2ca02c; stroke-width: 1.5; stroke-linecap: square"/>
   </g>
   <g id="line2d_18">
    <path d="M 29.439063 221.275211 
L 31.062335 236.505406 
L 32.685608 248.478994 
L 34.308881 250.372301 
L 35.932153 258.240554 
L 37.555426 258.641514 
L 39.178699 253.887849 
L 40.801972 250.742613 
L 42.425244 242.558839 
L 44.048517 227.832517 
L 45.67179 226.152528 
L 47.295063 232.537407 
L 48.918335 227.154092 
L 50.541608 239.663468 
L 52.164881 247.949949 
L 53.788153 246.12502 
L 55.411426 254.219959 
L 57.034699 251.824807 
L 58.657972 220.968504 
L 60.281244 205.919399 
L 61.904517 186.135769 
L 63.52779 136.533121 
L 65.151063 133.903952 
L 66.774335 128.780364 
L 68.397608 108.165345 
L 70.020881 154.661857 
L 71.644153 166.381937 
L 73.267426 156.222628 
L 76.513972 174.127491 
L 78.137244 164.056515 
L 79.760517 151.002816 
L 81.38379 139.788926 
L 83.007063 90.161987 
L 84.630335 73.226844 
L 86.253608 79.930908 
L 87.876881 63.162834 
L 89.500153 67.394559 
L 91.123426 87.608872 
L 92.746699 95.307164 
L 94.369972 130.829051 
L 95.993244 130.923693 
L 99.23979 149.07322 
L 100.863063 145.514995 
L 102.486335 165.230701 
L 104.109608 172.15619 
L 105.732881 183.990017 
L 107.356153 198.107108 
L 108.979426 192.195781 
L 110.602699 190.267628 
L 112.225972 190.194295 
L 113.849244 178.776002 
L 115.472517 185.572177 
L 117.09579 190.372599 
L 118.719063 184.54832 
L 120.342335 186.766963 
L 121.965608 189.473261 
L 123.588881 190.069324 
L 125.212153 192.410021 
L 130.081972 195.044354 
L 131.705244 196.351076 
L 133.328517 194.867136 
L 134.95179 189.335364 
L 136.575063 189.603599 
L 138.198335 190.360547 
L 139.821608 189.394825 
L 141.444881 190.342872 
L 143.068153 188.74688 
L 144.691426 192.084855 
L 146.314699 203.69443 
L 147.937972 208.628052 
L 149.561244 214.390906 
L 151.184517 214.306201 
L 152.80779 212.043229 
L 154.431062 210.791529 
L 156.054335 205.110817 
L 157.677608 194.096195 
L 159.300881 181.995215 
L 160.924153 177.300368 
L 162.547426 180.166067 
L 164.170699 188.02426 
L 165.793972 198.022962 
L 169.040517 213.03684 
L 170.66379 228.256977 
L 172.287063 235.194567 
L 173.910335 240.763189 
L 175.533608 244.49752 
L 177.156881 245.259188 
L 180.403426 250.498685 
L 182.026699 249.519384 
L 183.649972 249.59516 
L 185.273244 247.032432 
L 186.896517 241.548346 
L 188.51979 240.987516 
L 191.766335 234.646856 
L 193.389608 235.892398 
L 195.012881 230.881904 
L 196.636153 226.256947 
L 198.259426 231.579139 
L 199.882699 236.122417 
L 201.505972 238.507266 
L 203.129244 242.782759 
L 204.752517 238.331566 
L 206.37579 232.634606 
L 207.999063 231.587191 
L 209.622335 239.646891 
L 211.245608 229.193149 
L 212.868881 229.040635 
L 214.492153 225.896331 
L 216.115426 217.632953 
L 217.738699 221.78581 
L 219.361972 212.266073 
L 220.985244 208.065956 
L 222.608517 206.313066 
L 224.23179 213.521109 
L 225.855063 226.061058 
L 227.478335 227.980673 
L 229.101608 222.980288 
L 230.724881 233.074257 
L 232.348153 221.710038 
L 233.971426 228.075685 
L 235.594699 230.662107 
L 237.217972 216.432907 
L 238.841244 221.898783 
L 240.464517 223.537176 
L 242.08779 218.034898 
L 243.711063 235.927619 
L 245.334335 230.806248 
L 246.957608 215.976432 
L 248.580881 216.679967 
L 250.204153 192.041922 
L 251.827426 192.910047 
L 253.450699 202.612348 
L 255.073972 185.877122 
L 256.697244 190.175906 
L 258.320517 204.536808 
L 259.94379 198.448671 
L 261.567063 209.676726 
L 263.190335 211.634562 
L 264.813608 199.686873 
L 266.436881 201.281933 
L 268.060153 206.126362 
L 269.683426 196.71423 
L 271.306699 197.268091 
L 272.929972 196.960725 
L 274.553244 183.923798 
L 276.176517 185.627441 
L 277.79979 185.325715 
L 279.423063 176.313222 
L 281.046335 174.670499 
L 282.669608 188.327129 
L 284.292881 180.177036 
L 287.539426 200.262414 
L 289.162699 183.839538 
L 290.785972 194.796847 
L 292.409244 198.049398 
L 294.032517 188.189868 
L 295.65579 200.271432 
L 297.279063 201.939318 
L 298.902335 207.269481 
L 300.525608 213.289999 
L 302.148881 204.949238 
L 303.772153 203.848238 
L 305.395426 195.139464 
L 307.018699 194.305696 
L 308.641972 193.674278 
L 310.265244 188.888776 
L 311.888517 191.5016 
L 313.51179 187.892686 
L 315.135063 198.041309 
L 316.758335 193.005785 
L 318.381608 187.405469 
L 320.004881 192.869183 
L 321.628153 188.066754 
L 323.251426 194.64471 
L 324.874699 194.587132 
L 326.497972 183.841066 
L 328.121244 186.599767 
L 329.744517 192.921842 
L 331.36779 198.395901 
L 332.991063 211.065593 
L 336.237608 196.858291 
L 337.860881 195.13317 
L 339.484153 187.209652 
L 341.107426 185.572071 
L 342.730699 178.699715 
L 344.353972 175.832866 
L 345.977244 178.493445 
L 347.600517 178.184745 
L 349.22379 181.575194 
L 350.847063 185.331186 
L 352.470335 186.329848 
L 354.093608 196.546057 
L 355.716881 202.936162 
L 357.340153 204.510717 
L 358.963426 205.626636 
L 360.586699 203.868227 
L 362.209972 199.222196 
L 363.833244 195.776348 
L 365.456517 199.414406 
L 367.07979 201.670223 
L 368.703063 203.378204 
L 370.326335 210.206468 
L 371.949608 208.524885 
L 373.572881 210.766072 
L 375.196153 225.546373 
L 378.442699 229.083162 
L 380.065972 236.464788 
L 381.689244 237.497733 
L 383.312517 234.806213 
L 384.93579 221.777563 
L 384.93579 221.777563 
" clip-path="url(#pa9bc1f58b8)" style="fill: none; stroke: #d62728; stroke-width: 1.5; stroke-linecap: square"/>
   </g>
   <g id="line2d_19">
    <path d="M 29.439063 222.506149 
L 31.062335 229.225195 
L 32.685608 244.328125 
L 34.308881 247.402355 
L 35.932153 252.954749 
L 37.555426 258.019032 
L 39.178699 257.295259 
L 40.801972 249.2435 
L 42.425244 246.974437 
L 44.048517 234.54074 
L 45.67179 231.861658 
L 47.295063 231.553594 
L 48.918335 227.717781 
L 50.541608 232.012654 
L 52.164881 247.643113 
L 55.411426 246.413994 
L 57.034699 251.305355 
L 58.657972 234.325278 
L 60.281244 214.484016 
L 61.904517 201.387908 
L 63.52779 163.586194 
L 65.151063 129.858474 
L 66.774335 141.397281 
L 68.397608 125.3209 
L 70.020881 134.972888 
L 71.644153 154.989431 
L 73.267426 158.76708 
L 74.890699 155.361922 
L 76.513972 182.873277 
L 78.137244 162.532711 
L 79.760517 145.998895 
L 81.38379 142.271252 
L 83.007063 131.739654 
L 84.630335 80.2958 
L 86.253608 74.469261 
L 87.876881 71.612377 
L 89.500153 73.369884 
L 91.123426 78.170446 
L 92.746699 92.205622 
L 94.369972 114.651386 
L 95.993244 126.98029 
L 97.616517 135.707335 
L 99.23979 141.820322 
L 100.863063 152.338799 
L 102.486335 155.572908 
L 104.109608 168.629853 
L 105.732881 177.501124 
L 107.356153 192.046346 
L 108.979426 191.863517 
L 110.602699 188.562489 
L 112.225972 191.603524 
L 113.849244 188.124556 
L 115.472517 181.447777 
L 117.09579 187.0666 
L 118.719063 187.0915 
L 120.342335 185.34807 
L 121.965608 189.913695 
L 123.588881 190.637736 
L 125.212153 188.763136 
L 128.458699 195.654061 
L 130.081972 195.075047 
L 131.705244 193.860278 
L 133.328517 194.307816 
L 134.95179 192.563919 
L 136.575063 191.542008 
L 139.821608 188.685177 
L 141.444881 188.893792 
L 143.068153 191.078975 
L 144.691426 192.074346 
L 146.314699 199.593102 
L 147.937972 204.565698 
L 149.561244 210.577143 
L 151.184517 212.428944 
L 152.80779 214.907852 
L 154.431062 210.23647 
L 156.054335 207.817891 
L 157.677608 196.188428 
L 159.300881 189.862088 
L 160.924153 182.770205 
L 162.547426 183.291563 
L 164.170699 181.712392 
L 165.793972 193.113415 
L 169.040517 211.463604 
L 172.287063 230.909798 
L 175.533608 242.063784 
L 177.156881 245.919887 
L 178.780153 246.583547 
L 180.403426 248.741635 
L 182.026699 249.036102 
L 183.649972 249.952996 
L 185.273244 247.98217 
L 186.896517 243.701758 
L 188.51979 241.373489 
L 190.143063 240.72956 
L 191.766335 235.993508 
L 193.389608 234.540632 
L 195.012881 232.924776 
L 196.636153 229.099784 
L 198.259426 230.988135 
L 199.882699 235.724345 
L 201.505972 235.091221 
L 203.129244 238.923995 
L 204.752517 240.309621 
L 206.37579 236.532871 
L 207.999063 231.439783 
L 209.622335 239.832571 
L 211.245608 229.288225 
L 212.868881 229.025515 
L 214.492153 226.018762 
L 216.115426 229.776904 
L 217.738699 213.604985 
L 219.361972 215.680869 
L 220.985244 209.062995 
L 222.608517 214.984372 
L 224.23179 210.206824 
L 225.855063 219.314815 
L 227.478335 222.17396 
L 229.101608 226.369517 
L 230.724881 231.430807 
L 232.348153 225.577264 
L 233.971426 223.851206 
L 235.594699 228.555607 
L 237.217972 226.648719 
L 238.841244 216.031922 
L 240.464517 225.28565 
L 242.08779 220.640156 
L 243.711063 231.061495 
L 245.334335 227.73105 
L 246.957608 220.726004 
L 248.580881 215.037011 
L 250.204153 213.157231 
L 251.827426 191.720756 
L 253.450699 196.460668 
L 255.073972 191.350375 
L 256.697244 191.757527 
L 258.320517 201.836996 
L 259.94379 200.792232 
L 261.567063 197.550137 
L 263.190335 211.894043 
L 264.813608 208.846332 
L 266.436881 198.115669 
L 268.060153 203.773183 
L 269.683426 201.828184 
L 271.306699 197.214919 
L 272.929972 195.912493 
L 276.176517 185.115566 
L 277.79979 188.215948 
L 279.423063 179.230873 
L 281.046335 171.901027 
L 282.669608 188.619752 
L 284.292881 183.951829 
L 285.916153 183.070739 
L 287.539426 191.957715 
L 289.162699 195.323676 
L 290.785972 189.316525 
L 292.409244 197.266248 
L 294.032517 190.602066 
L 295.65579 195.331172 
L 297.279063 203.427593 
L 298.902335 207.153921 
L 300.525608 203.660003 
L 302.148881 208.209749 
L 303.772153 206.225655 
L 305.395426 201.968952 
L 307.018699 193.086981 
L 308.641972 192.080368 
L 310.265244 193.671134 
L 311.888517 192.037551 
L 313.51179 187.230909 
L 315.135063 195.127704 
L 316.758335 193.136595 
L 318.381608 190.879234 
L 320.004881 188.360647 
L 321.628153 195.259724 
L 323.251426 190.323195 
L 324.874699 192.16594 
L 326.497972 185.535827 
L 328.121244 190.356327 
L 329.744517 194.157665 
L 331.36779 195.231943 
L 332.991063 199.805793 
L 334.614335 205.75506 
L 336.237608 201.980701 
L 337.860881 196.973377 
L 341.107426 184.857416 
L 342.730699 182.068236 
L 344.353972 180.423619 
L 345.977244 177.468219 
L 347.600517 177.562124 
L 349.22379 178.80059 
L 350.847063 185.690961 
L 352.470335 185.834271 
L 355.716881 198.87215 
L 357.340153 203.82049 
L 358.963426 202.259429 
L 360.586699 205.894119 
L 362.209972 200.979192 
L 363.833244 198.165651 
L 365.456517 198.124359 
L 367.07979 202.74615 
L 368.703063 200.578123 
L 370.326335 207.104849 
L 371.949608 208.241904 
L 373.572881 211.671763 
L 375.196153 220.244674 
L 376.819426 226.078778 
L 378.442699 223.863886 
L 380.065972 233.998962 
L 381.689244 240.383726 
L 383.312517 233.517676 
L 384.93579 219.293385 
L 384.93579 219.293385 
" clip-path="url(#pa9bc1f58b8)" style="fill: none; stroke: #9467bd; stroke-width: 1.5; stroke-linecap: square"/>
   </g>
   <g id="line2d_20">
    <path d="M 29.439063 221.989476 
L 31.062335 228.904971 
L 32.685608 237.483987 
L 34.308881 244.099331 
L 35.932153 250.133055 
L 39.178699 256.994611 
L 40.801972 253.038847 
L 44.048517 239.915086 
L 45.67179 236.632969 
L 47.295063 235.239876 
L 48.918335 227.68395 
L 50.541608 231.670455 
L 52.164881 240.522 
L 53.788153 246.901912 
L 55.411426 247.094508 
L 57.034699 245.135114 
L 58.657972 236.98727 
L 60.281244 227.417148 
L 61.904517 209.558869 
L 65.151063 154.479575 
L 66.774335 136.912814 
L 68.397608 136.626651 
L 70.020881 143.651398 
L 71.644153 138.702995 
L 73.267426 150.24993 
L 74.890699 157.637623 
L 76.513972 172.805614 
L 78.137244 172.308881 
L 79.760517 147.756838 
L 81.38379 139.424444 
L 83.007063 135.249771 
L 84.630335 118.380389 
L 86.253608 80.14313 
L 87.876881 68.347758 
L 89.500153 78.528388 
L 92.746699 83.731536 
L 94.369972 109.142714 
L 95.993244 114.016671 
L 97.616517 131.704446 
L 99.23979 137.894546 
L 100.863063 145.867244 
L 102.486335 159.375849 
L 104.109608 160.199988 
L 105.732881 173.774933 
L 107.356153 185.603024 
L 108.979426 187.691034 
L 112.225972 189.973888 
L 113.849244 189.661866 
L 115.472517 188.720384 
L 117.09579 183.420157 
L 118.719063 184.839306 
L 120.342335 187.32764 
L 121.965608 188.234936 
L 123.588881 190.808875 
L 125.212153 189.459306 
L 126.835426 189.315904 
L 128.458699 194.488321 
L 130.081972 196.222111 
L 131.705244 194.084129 
L 133.328517 192.551171 
L 134.95179 192.477858 
L 136.575063 193.836383 
L 138.198335 191.623847 
L 139.821608 188.740474 
L 141.444881 188.38451 
L 143.068153 189.755489 
L 144.691426 193.432394 
L 146.314699 198.363082 
L 147.937972 201.032618 
L 149.561244 206.925265 
L 151.184517 209.543013 
L 152.80779 213.252545 
L 154.431062 212.963095 
L 156.054335 207.846519 
L 159.300881 192.369156 
L 160.924153 189.197994 
L 162.547426 186.729077 
L 164.170699 184.042107 
L 165.793972 187.198671 
L 169.040517 207.540235 
L 170.66379 218.675332 
L 172.287063 224.780796 
L 173.910335 232.725185 
L 177.156881 243.690539 
L 178.780153 246.907814 
L 180.403426 247.474879 
L 182.026699 247.797075 
L 183.649972 249.480254 
L 185.273244 248.556817 
L 186.896517 245.08607 
L 188.51979 243.204053 
L 191.766335 238.815428 
L 193.389608 235.683007 
L 195.012881 232.270423 
L 196.636153 231.130882 
L 198.259426 232.49656 
L 199.882699 234.57189 
L 201.505972 234.929153 
L 203.129244 236.028174 
L 204.752517 237.444895 
L 206.37579 238.514573 
L 207.999063 234.934333 
L 209.622335 238.395766 
L 211.245608 231.266365 
L 212.868881 229.132824 
L 214.492153 226.515892 
L 216.115426 229.239417 
L 217.738699 224.817696 
L 219.361972 209.621523 
L 220.985244 212.522123 
L 224.23179 216.641101 
L 225.855063 215.732855 
L 227.478335 217.061613 
L 229.101608 221.758769 
L 230.724881 232.710465 
L 232.348153 225.409058 
L 233.971426 226.675144 
L 235.594699 224.981941 
L 237.217972 225.516094 
L 238.841244 224.706134 
L 240.464517 219.993368 
L 242.08779 222.621729 
L 243.711063 230.960194 
L 245.334335 224.808205 
L 246.957608 219.699069 
L 248.580881 219.194515 
L 250.204153 212.348296 
L 251.827426 209.65087 
L 253.450699 194.907088 
L 255.073972 187.807324 
L 256.697244 195.211158 
L 258.320517 201.189777 
L 259.94379 199.121299 
L 261.567063 199.667689 
L 263.190335 201.664094 
L 264.813608 209.536309 
L 266.436881 206.137929 
L 268.060153 200.771985 
L 269.683426 200.539284 
L 271.306699 201.393693 
L 274.553244 190.557175 
L 276.176517 190.24811 
L 277.79979 187.367939 
L 279.423063 182.763564 
L 281.046335 175.139954 
L 282.669608 184.260041 
L 285.916153 185.693006 
L 287.539426 186.011723 
L 289.162699 189.053189 
L 290.785972 197.746163 
L 292.409244 192.377572 
L 294.032517 191.188962 
L 295.65579 196.093335 
L 297.279063 198.888857 
L 298.902335 207.49831 
L 302.148881 200.805821 
L 303.772153 208.713277 
L 305.395426 204.293783 
L 307.018699 199.221764 
L 308.641972 191.424833 
L 310.265244 192.344692 
L 311.888517 195.438584 
L 313.51179 188.410429 
L 315.135063 193.421343 
L 316.758335 191.466693 
L 318.381608 191.34645 
L 320.004881 191.086209 
L 321.628153 191.173373 
L 323.251426 195.888562 
L 324.874699 188.934661 
L 326.497972 184.957424 
L 328.121244 190.651256 
L 329.744517 195.922878 
L 331.36779 195.865522 
L 332.991063 196.964714 
L 334.614335 196.992366 
L 336.237608 203.993471 
L 337.860881 201.233957 
L 339.484153 193.29733 
L 341.107426 188.48751 
L 342.730699 182.050611 
L 344.353972 182.922867 
L 345.977244 180.997684 
L 347.600517 176.85942 
L 349.22379 178.181248 
L 350.847063 182.759312 
L 352.470335 186.049535 
L 354.093608 190.908696 
L 355.716881 194.995539 
L 357.340153 200.316108 
L 358.963426 202.053777 
L 360.586699 203.05515 
L 362.209972 203.188982 
L 363.833244 199.818307 
L 365.456517 199.700281 
L 367.07979 201.146293 
L 368.703063 201.664569 
L 370.326335 204.221356 
L 371.949608 205.956449 
L 373.572881 210.922625 
L 375.196153 219.423925 
L 376.819426 221.610325 
L 378.442699 223.37897 
L 380.065972 229.049003 
L 381.689244 237.766712 
L 383.312517 236.693885 
L 384.93579 220.828321 
L 384.93579 220.828321 
" clip-path="url(#pa9bc1f58b8)" style="fill: none; stroke: #8c564b; stroke-width: 1.5; stroke-linecap: square"/>
   </g>
   <g id="line2d_21">
    <path d="M 29.439063 224.216778 
L 31.062335 227.596136 
L 32.685608 236.094002 
L 34.308881 238.285498 
L 35.932153 247.009287 
L 37.555426 251.173405 
L 39.178699 253.38057 
L 40.801972 253.391419 
L 42.425244 250.111493 
L 44.048517 240.35466 
L 45.67179 240.873149 
L 47.295063 238.743918 
L 48.918335 231.524757 
L 50.541608 231.087585 
L 52.164881 239.084283 
L 53.788153 240.893702 
L 55.411426 246.996197 
L 57.034699 245.910647 
L 58.657972 233.085415 
L 60.281244 230.86679 
L 61.904517 221.875268 
L 63.52779 192.984554 
L 65.151063 172.579527 
L 66.774335 156.56697 
L 68.397608 133.393898 
L 70.020881 150.105108 
L 71.644153 145.513232 
L 73.267426 136.739153 
L 74.890699 150.483069 
L 76.513972 172.207681 
L 78.137244 164.739432 
L 79.760517 159.007124 
L 81.38379 141.932814 
L 83.007063 133.752243 
L 86.253608 113.209754 
L 87.876881 74.203567 
L 89.500153 74.821343 
L 91.123426 84.425418 
L 92.746699 85.512302 
L 94.369972 100.005778 
L 95.993244 109.382331 
L 97.616517 120.19955 
L 99.23979 134.191304 
L 100.863063 141.997781 
L 102.486335 153.047456 
L 104.109608 162.735832 
L 105.732881 166.052801 
L 107.356153 181.433711 
L 108.979426 182.665304 
L 110.602699 185.684395 
L 112.225972 190.052933 
L 113.849244 188.528151 
L 115.472517 189.949308 
L 117.09579 189.323584 
L 118.719063 181.997329 
L 120.342335 185.368481 
L 121.965608 189.494891 
L 123.588881 189.251731 
L 125.212153 189.776067 
L 126.835426 189.831957 
L 128.458699 191.63289 
L 130.081972 195.146246 
L 131.705244 195.216294 
L 133.328517 192.932486 
L 134.95179 191.218756 
L 136.575063 193.58218 
L 138.198335 193.580143 
L 139.821608 190.258975 
L 141.444881 188.474989 
L 143.068153 189.198645 
L 144.691426 191.981943 
L 146.314699 198.601115 
L 147.937972 199.784621 
L 149.561244 203.618883 
L 151.184517 206.544268 
L 152.80779 210.681256 
L 154.431062 211.804545 
L 156.054335 210.573035 
L 157.677608 201.272819 
L 160.924153 191.453746 
L 162.547426 191.567199 
L 164.170699 186.873421 
L 165.793972 188.362043 
L 167.417244 191.892493 
L 170.66379 214.499122 
L 172.287063 222.158824 
L 173.910335 227.322903 
L 175.533608 234.922937 
L 177.156881 240.308315 
L 178.780153 244.880253 
L 180.403426 247.623529 
L 182.026699 246.836933 
L 183.649972 248.36133 
L 185.273244 248.346486 
L 186.896517 246.014508 
L 188.51979 244.469403 
L 190.143063 242.710852 
L 191.766335 239.410904 
L 193.389608 238.158751 
L 195.012881 233.598803 
L 196.636153 230.819473 
L 198.259426 233.710105 
L 199.882699 235.321048 
L 201.505972 234.048867 
L 203.129244 235.757231 
L 204.752517 235.145673 
L 206.37579 236.280027 
L 207.999063 236.891486 
L 209.622335 240.248563 
L 211.245608 231.206691 
L 212.868881 230.855381 
L 214.492153 226.97232 
L 216.115426 229.200263 
L 217.738699 225.060755 
L 219.361972 220.171876 
L 220.985244 207.679122 
L 222.608517 216.719103 
L 224.23179 216.123738 
L 225.855063 220.271379 
L 227.478335 214.26839 
L 229.101608 217.436337 
L 230.724881 228.104504 
L 232.348153 227.449084 
L 233.971426 226.376218 
L 235.594699 227.223636 
L 237.217972 222.819885 
L 238.841244 223.999794 
L 240.464517 226.684388 
L 242.08779 218.385403 
L 243.711063 231.107781 
L 245.334335 225.63427 
L 246.957608 218.212387 
L 248.580881 218.52415 
L 250.204153 216.383034 
L 251.827426 209.44702 
L 253.450699 209.664523 
L 255.073972 187.671964 
L 256.697244 191.709338 
L 258.320517 202.671045 
L 259.94379 198.947973 
L 261.567063 198.387136 
L 263.190335 202.852002 
L 264.813608 201.008475 
L 266.436881 207.131896 
L 268.060153 207.18111 
L 269.683426 198.380668 
L 271.306699 200.348606 
L 272.929972 199.87207 
L 274.553244 191.497092 
L 276.176517 190.446999 
L 277.79979 191.399083 
L 279.423063 182.804438 
L 281.046335 178.836405 
L 282.669608 185.145917 
L 284.292881 181.658839 
L 285.916153 186.284838 
L 287.539426 187.806378 
L 289.162699 184.297498 
L 290.785972 192.130815 
L 292.409244 199.063592 
L 294.032517 187.727666 
L 295.65579 195.808404 
L 297.279063 199.024939 
L 298.902335 203.154815 
L 300.525608 204.902638 
L 302.148881 201.663825 
L 303.772153 202.345891 
L 305.395426 206.736348 
L 307.018699 201.650842 
L 308.641972 196.995616 
L 310.265244 191.746216 
L 311.888517 194.064329 
L 313.51179 191.922213 
L 315.135063 193.527147 
L 316.758335 190.499864 
L 318.381608 190.157175 
L 320.004881 191.456708 
L 321.628153 193.073793 
L 323.251426 192.318328 
L 324.874699 193.959995 
L 326.497972 183.119016 
L 329.744517 195.385749 
L 331.36779 197.120655 
L 332.991063 197.255697 
L 334.614335 194.920628 
L 336.237608 196.680503 
L 337.860881 203.076989 
L 339.484153 197.57802 
L 341.107426 190.830877 
L 342.730699 185.624953 
L 344.353972 182.786056 
L 345.977244 183.053444 
L 347.600517 179.987536 
L 349.22379 177.492985 
L 350.847063 181.681811 
L 352.470335 183.494688 
L 354.093608 190.37394 
L 355.716881 193.456085 
L 357.340153 196.827227 
L 358.963426 199.273135 
L 360.586699 202.7665 
L 362.209972 201.103242 
L 363.833244 201.896283 
L 365.456517 200.885534 
L 367.07979 202.043694 
L 368.703063 200.439377 
L 370.326335 204.616121 
L 371.949608 203.633554 
L 373.572881 208.62509 
L 375.196153 217.74467 
L 376.819426 220.720925 
L 378.442699 219.863341 
L 380.065972 227.927071 
L 381.689244 233.158476 
L 383.312517 234.910488 
L 384.93579 225.785975 
L 384.93579 225.785975 
" clip-path="url(#pa9bc1f58b8)" style="fill: none; stroke: #e377c2; stroke-width: 1.5; stroke-linecap: square"/>
   </g>
   <g id="patch_3">
    <path d="M 29.439063 284.991437 
L 29.439063 18.879437 
" style="fill: none; stroke: #000000; stroke-width: 0.8; stroke-linejoin: miter; stroke-linecap: square"/>
   </g>
   <g id="patch_4">
    <path d="M 386.559062 284.991437 
L 386.559062 18.879437 
" style="fill: none; stroke: #000000; stroke-width: 0.8; stroke-linejoin: miter; stroke-linecap: square"/>
   </g>
   <g id="patch_5">
    <path d="M 29.439063 284.991437 
L 386.559063 284.991437 
" style="fill: none; stroke: #000000; stroke-width: 0.8; stroke-linejoin: miter; stroke-linecap: square"/>
   </g>
   <g id="patch_6">
    <path d="M 29.439063 18.879437 
L 386.559063 18.879437 
" style="fill: none; stroke: #000000; stroke-width: 0.8; stroke-linejoin: miter; stroke-linecap: square"/>
   </g>
   <g id="legend_1">
    <g id="patch_7">
     <path d="M 341.260625 127.613812 
L 379.559062 127.613812 
Q 381.559062 127.613812 381.559062 125.613812 
L 381.559062 25.879437 
Q 381.559062 23.879437 379.559062 23.879437 
L 341.260625 23.879437 
Q 339.260625 23.879437 339.260625 25.879437 
L 339.260625 125.613812 
Q 339.260625 127.613812 341.260625 127.613812 
z
" style="fill: #ffffff; opacity: 0.8; stroke: #cccccc; stroke-linejoin: miter"/>
    </g>
    <g id="line2d_22">
     <path d="M 343.260625 31.870062 
L 353.260625 31.870062 
L 363.260625 31.870062 
" style="fill: none; stroke: #1f77b4; stroke-width: 1.5; stroke-linecap: square"/>
    </g>
    <g id="text_14">
     <!-- 1 -->
     <g transform="translate(371.260625 35.370062) scale(0.1 -0.1)">
      <use xlink:href="#IPAexGothic-31"/>
     </g>
    </g>
    <g id="line2d_23">
     <path d="M 343.260625 46.260687 
L 353.260625 46.260687 
L 363.260625 46.260687 
" style="fill: none; stroke: #ff7f0e; stroke-width: 1.5; stroke-linecap: square"/>
    </g>
    <g id="text_15">
     <!-- 2 -->
     <g transform="translate(371.260625 49.760687) scale(0.1 -0.1)">
      <use xlink:href="#IPAexGothic-32"/>
     </g>
    </g>
    <g id="line2d_24">
     <path d="M 343.260625 60.651312 
L 353.260625 60.651312 
L 363.260625 60.651312 
" style="fill: none; stroke: #2ca02c; stroke-width: 1.5; stroke-linecap: square"/>
    </g>
    <g id="text_16">
     <!-- 3 -->
     <g transform="translate(371.260625 64.151312) scale(0.1 -0.1)">
      <use xlink:href="#IPAexGothic-33"/>
     </g>
    </g>
    <g id="line2d_25">
     <path d="M 343.260625 75.041937 
L 353.260625 75.041937 
L 363.260625 75.041937 
" style="fill: none; stroke: #d62728; stroke-width: 1.5; stroke-linecap: square"/>
    </g>
    <g id="text_17">
     <!-- 4 -->
     <g transform="translate(371.260625 78.541937) scale(0.1 -0.1)">
      <defs>
       <path id="IPAexGothic-34" d="M 3813 1159 
L 3059 1159 
L 3059 63 
L 2547 63 
L 2547 1159 
L 197 1159 
L 197 1672 
L 2456 4678 
L 3059 4678 
L 3059 1634 
L 3813 1634 
L 3813 1159 
z
M 2578 4109 
L 2559 4109 
Q 2278 3656 2003 3284 
L 759 1634 
L 2547 1634 
L 2547 3144 
Q 2547 3481 2578 4109 
z
" transform="scale(0.015625)"/>
      </defs>
      <use xlink:href="#IPAexGothic-34"/>
     </g>
    </g>
    <g id="line2d_26">
     <path d="M 343.260625 89.432562 
L 353.260625 89.432562 
L 363.260625 89.432562 
" style="fill: none; stroke: #9467bd; stroke-width: 1.5; stroke-linecap: square"/>
    </g>
    <g id="text_18">
     <!-- 5 -->
     <g transform="translate(371.260625 92.932562) scale(0.1 -0.1)">
      <use xlink:href="#IPAexGothic-35"/>
     </g>
    </g>
    <g id="line2d_27">
     <path d="M 343.260625 103.823187 
L 353.260625 103.823187 
L 363.260625 103.823187 
" style="fill: none; stroke: #8c564b; stroke-width: 1.5; stroke-linecap: square"/>
    </g>
    <g id="text_19">
     <!-- 6 -->
     <g transform="translate(371.260625 107.323187) scale(0.1 -0.1)">
      <defs>
       <path id="IPAexGothic-36" d="M 1056 2328 
Q 1509 2981 2234 2981 
Q 2906 2981 3316 2513 
Q 3675 2106 3675 1522 
Q 3675 884 3272 434 
Q 2853 -31 2178 -31 
Q 1375 -31 922 581 
Q 481 1178 481 2228 
Q 481 3425 1013 4109 
Q 1494 4725 2272 4725 
Q 3191 4725 3609 4025 
L 3150 3775 
Q 2894 4266 2300 4266 
Q 1119 4266 1031 2328 
L 1056 2328 
z
M 2141 2547 
Q 1684 2547 1384 2206 
Q 1116 1900 1116 1541 
Q 1116 1156 1353 844 
Q 1672 428 2159 428 
Q 2669 428 2941 844 
Q 3125 1128 3125 1503 
Q 3125 1944 2881 2228 
Q 2600 2547 2141 2547 
z
" transform="scale(0.015625)"/>
      </defs>
      <use xlink:href="#IPAexGothic-36"/>
     </g>
    </g>
    <g id="line2d_28">
     <path d="M 343.260625 118.213812 
L 353.260625 118.213812 
L 363.260625 118.213812 
" style="fill: none; stroke: #e377c2; stroke-width: 1.5; stroke-linecap: square"/>
    </g>
    <g id="text_20">
     <!-- 7 -->
     <g transform="translate(371.260625 121.713812) scale(0.1 -0.1)">
      <defs>
       <path id="IPAexGothic-37" d="M 3597 4263 
Q 2238 2106 1778 63 
L 1131 63 
Q 1581 1834 2950 4128 
L 428 4128 
L 428 4634 
L 3597 4634 
L 3597 4263 
z
" transform="scale(0.015625)"/>
      </defs>
      <use xlink:href="#IPAexGothic-37"/>
     </g>
    </g>
   </g>
  </g>
  <g id="axes_2">
   <g id="matplotlib.axis_3"/>
   <g id="patch_8">
    <path d="M 29.439063 284.991437 
L 29.439063 18.879437 
" style="fill: none; stroke: #000000; stroke-width: 0.8; stroke-linejoin: miter; stroke-linecap: square"/>
   </g>
   <g id="patch_9">
    <path d="M 386.559062 284.991437 
L 386.559062 18.879437 
" style="fill: none; stroke: #000000; stroke-width: 0.8; stroke-linejoin: miter; stroke-linecap: square"/>
   </g>
   <g id="patch_10">
    <path d="M 29.439063 284.991437 
L 386.559063 284.991437 
" style="fill: none; stroke: #000000; stroke-width: 0.8; stroke-linejoin: miter; stroke-linecap: square"/>
   </g>
   <g id="patch_11">
    <path d="M 29.439063 18.879437 
L 386.559063 18.879437 
" style="fill: none; stroke: #000000; stroke-width: 0.8; stroke-linejoin: miter; stroke-linecap: square"/>
   </g>
  </g>
  <g id="text_21">
   <!-- : 2023/01/06 16:13:39(JST) -->
   <g transform="translate(211.087188 15.423437) scale(0.1 -0.1)">
    <defs>
     <path id="IPAexGothic-66f4" d="M 2956 3994 
L 2956 4588 
L 513 4588 
L 513 4984 
L 5881 4984 
L 5881 4588 
L 3413 4588 
L 3413 3994 
L 5300 3994 
L 5300 1288 
L 4838 1288 
L 4838 1759 
L 3406 1759 
Q 3384 1125 3150 709 
Q 4291 244 5997 31 
L 5694 -428 
Q 4109 -166 2906 384 
Q 2294 -266 744 -488 
L 494 -66 
Q 1903 59 2491 588 
Q 2041 813 1594 1166 
L 1928 1434 
Q 2331 1106 2747 897 
Q 2922 1219 2950 1759 
L 1556 1759 
L 1556 1413 
L 1097 1413 
L 1097 3994 
L 2956 3994 
z
M 2956 3609 
L 1556 3609 
L 1556 3078 
L 2956 3078 
L 2956 3609 
z
M 3413 3609 
L 3413 3078 
L 4838 3078 
L 4838 3609 
L 3413 3609 
z
M 2956 2700 
L 1556 2700 
L 1556 2144 
L 2956 2144 
L 2956 2700 
z
M 3413 2700 
L 3413 2144 
L 4838 2144 
L 4838 2700 
L 3413 2700 
z
" transform="scale(0.015625)"/>
     <path id="IPAexGothic-65b0" d="M 3891 2803 
Q 3881 1759 3794 1166 
Q 3653 197 3097 -563 
L 2741 -250 
Q 3450 700 3450 2631 
L 3450 4647 
Q 3516 4656 3622 4666 
Q 4656 4778 5447 5063 
L 5825 4678 
Q 4897 4419 3891 4294 
L 3891 3219 
L 6119 3219 
L 6119 2803 
L 5275 2803 
L 5275 -447 
L 4834 -447 
L 4834 2803 
L 3891 2803 
z
M 2822 4069 
Q 2678 3572 2519 3181 
L 3250 3181 
L 3250 2784 
L 2059 2784 
L 2059 2216 
L 3184 2216 
L 3184 1831 
L 2059 1831 
L 2059 1544 
Q 2613 1197 3031 847 
L 2781 456 
Q 2472 791 2059 1128 
L 2059 -447 
L 1644 -447 
L 1644 1294 
Q 1272 628 575 -31 
L 269 341 
Q 1041 938 1528 1831 
L 453 1831 
L 453 2216 
L 1644 2216 
L 1644 2784 
L 319 2784 
L 319 3181 
L 1125 3181 
Q 1013 3706 881 4069 
L 453 4069 
L 453 4453 
L 1631 4453 
L 1631 5309 
L 2072 5309 
L 2072 4453 
L 3166 4453 
L 3166 4069 
L 2822 4069 
z
M 2391 4069 
L 1325 4069 
Q 1450 3672 1534 3181 
L 2109 3181 
Q 2294 3659 2391 4069 
z
" transform="scale(0.015625)"/>
     <path id="IPAexGothic-65e5" d="M 5231 4800 
L 5231 -288 
L 4744 -288 
L 4744 128 
L 1647 128 
L 1647 -288 
L 1159 -288 
L 1159 4800 
L 5231 4800 
z
M 1647 4372 
L 1647 2731 
L 4744 2731 
L 4744 4372 
L 1647 4372 
z
M 1647 2297 
L 1647 556 
L 4744 556 
L 4744 2297 
L 1647 2297 
z
" transform="scale(0.015625)"/>
     <path id="IPAexGothic-6642" d="M 2328 4728 
L 2328 563 
L 934 563 
L 934 56 
L 519 56 
L 519 4728 
L 2328 4728 
z
M 934 4331 
L 934 2881 
L 1906 2881 
L 1906 4331 
L 934 4331 
z
M 934 2497 
L 934 953 
L 1906 953 
L 1906 2497 
L 934 2497 
z
M 3938 4372 
L 3938 5313 
L 4378 5313 
L 4378 4372 
L 5772 4372 
L 5772 3981 
L 4378 3981 
L 4378 3194 
L 6072 3194 
L 6072 2803 
L 5203 2803 
L 5203 2047 
L 5959 2047 
L 5959 1650 
L 5216 1650 
L 5216 31 
Q 5216 -447 4691 -447 
Q 4394 -447 3888 -391 
L 3784 78 
Q 4272 0 4591 0 
Q 4775 0 4775 172 
L 4775 1650 
L 2581 1650 
L 2581 2047 
L 4763 2047 
L 4763 2803 
L 2538 2803 
L 2538 3194 
L 3938 3194 
L 3938 3981 
L 2716 3981 
L 2716 4372 
L 3938 4372 
z
M 3669 384 
Q 3331 950 2956 1325 
L 3291 1575 
Q 3719 1147 4025 659 
L 3669 384 
z
" transform="scale(0.015625)"/>
     <path id="IPAexGothic-3a" d="M 1369 2559 
L 672 2559 
L 672 3250 
L 1369 3250 
L 1369 2559 
z
M 1369 63 
L 672 63 
L 672 753 
L 1369 753 
L 1369 63 
z
" transform="scale(0.015625)"/>
     <path id="IPAexGothic-20" transform="scale(0.015625)"/>
     <path id="IPAexGothic-2f" d="M 2719 4709 
L 600 -884 
L 300 -763 
L 2413 4831 
L 2719 4709 
z
" transform="scale(0.015625)"/>
     <path id="IPAexGothic-39" d="M 2984 2356 
Q 2544 1716 1813 1716 
Q 1253 1716 847 2056 
Q 366 2459 366 3163 
Q 366 3813 769 4266 
Q 1181 4725 1869 4725 
Q 2800 4725 3241 3950 
Q 3559 3378 3559 2472 
Q 3559 1250 3041 588 
Q 2553 -31 1769 -31 
Q 859 -31 391 703 
L 853 953 
Q 1156 428 1753 428 
Q 2922 428 3009 2356 
L 2984 2356 
z
M 1888 4278 
Q 1450 4278 1172 3950 
Q 922 3653 922 3200 
Q 922 2741 1159 2478 
Q 1434 2163 1906 2163 
Q 2431 2163 2728 2572 
Q 2925 2847 2925 3169 
Q 2925 3553 2694 3863 
Q 2375 4278 1888 4278 
z
" transform="scale(0.015625)"/>
     <path id="IPAexGothic-28" d="M 1928 -1016 
L 1653 -1166 
Q 488 69 488 1875 
Q 488 3678 1653 4909 
L 1928 4763 
Q 1006 3522 1006 1881 
Q 1006 203 1928 -1016 
z
" transform="scale(0.015625)"/>
     <path id="IPAexGothic-54" d="M 3866 4141 
L 2175 4141 
L 2175 63 
L 1606 63 
L 1606 4141 
L -31 4141 
L -31 4634 
L 3866 4634 
L 3866 4141 
z
" transform="scale(0.015625)"/>
     <path id="IPAexGothic-29" d="M 466 4909 
Q 1638 3672 1638 1875 
Q 1638 75 466 -1166 
L 191 -1016 
Q 1119 216 1119 1881 
Q 1119 3509 191 4763 
L 466 4909 
z
" transform="scale(0.015625)"/>
    </defs>
    <use xlink:href="#IPAexGothic-66f4"/>
    <use xlink:href="#IPAexGothic-65b0" x="100"/>
    <use xlink:href="#IPAexGothic-65e5" x="200"/>
    <use xlink:href="#IPAexGothic-6642" x="300"/>
    <use xlink:href="#IPAexGothic-3a" x="400"/>
    <use xlink:href="#IPAexGothic-20" x="431.982422"/>
    <use xlink:href="#IPAexGothic-32" x="458.984375"/>
    <use xlink:href="#IPAexGothic-30" x="521.972656"/>
    <use xlink:href="#IPAexGothic-32" x="584.960938"/>
    <use xlink:href="#IPAexGothic-33" x="647.949219"/>
    <use xlink:href="#IPAexGothic-2f" x="710.9375"/>
    <use xlink:href="#IPAexGothic-30" x="760.9375"/>
    <use xlink:href="#IPAexGothic-31" x="823.925781"/>
    <use xlink:href="#IPAexGothic-2f" x="886.914062"/>
    <use xlink:href="#IPAexGothic-30" x="936.914062"/>
    <use xlink:href="#IPAexGothic-36" x="999.902344"/>
    <use xlink:href="#IPAexGothic-20" x="1062.890625"/>
    <use xlink:href="#IPAexGothic-31" x="1089.892578"/>
    <use xlink:href="#IPAexGothic-36" x="1152.880859"/>
    <use xlink:href="#IPAexGothic-3a" x="1215.869141"/>
    <use xlink:href="#IPAexGothic-31" x="1247.851562"/>
    <use xlink:href="#IPAexGothic-33" x="1310.839844"/>
    <use xlink:href="#IPAexGothic-3a" x="1373.828125"/>
    <use xlink:href="#IPAexGothic-33" x="1405.810547"/>
    <use xlink:href="#IPAexGothic-39" x="1468.798828"/>
    <use xlink:href="#IPAexGothic-28" x="1531.787109"/>
    <use xlink:href="#IPAexGothic-4a" x="1565.087891"/>
    <use xlink:href="#IPAexGothic-53" x="1603.076172"/>
    <use xlink:href="#IPAexGothic-54" x="1661.572266"/>
    <use xlink:href="#IPAexGothic-29" x="1721.484375"/>
   </g>
  </g>
 </g>
 <defs>
  <clipPath id="pa9bc1f58b8">
   <rect x="29.439063" y="18.879437" width="357.12" height="266.112"/>
  </clipPath>
 </defs>
</svg>
