<?xml version="1.0" encoding="utf-8" standalone="no"?>
<!DOCTYPE svg PUBLIC "-//W3C//DTD SVG 1.1//EN"
  "http://www.w3.org/Graphics/SVG/1.1/DTD/svg11.dtd">
<svg xmlns:xlink="http://www.w3.org/1999/xlink" width="397.259063pt" height="308.582062pt" viewBox="0 0 397.259063 308.582062" xmlns="http://www.w3.org/2000/svg" version="1.1">
 <metadata>
  <rdf:RDF xmlns:dc="http://purl.org/dc/elements/1.1/" xmlns:cc="http://creativecommons.org/ns#" xmlns:rdf="http://www.w3.org/1999/02/22-rdf-syntax-ns#">
   <cc:Work>
    <dc:type rdf:resource="http://purl.org/dc/dcmitype/StillImage"/>
    <dc:date>2023-02-08T07:15:02.901758</dc:date>
    <dc:format>image/svg+xml</dc:format>
    <dc:creator>
     <cc:Agent>
      <dc:title>Matplotlib v3.6.3, https://matplotlib.org/</dc:title>
     </cc:Agent>
    </dc:creator>
   </cc:Work>
  </rdf:RDF>
 </metadata>
 <defs>
  <style type="text/css">*{stroke-linejoin: round; stroke-linecap: butt}</style>
 </defs>
 <g id="figure_1">
  <g id="patch_1">
   <path d="M 0 308.582062 
L 397.259063 308.582062 
L 397.259063 0 
L 0 0 
z
" style="fill: #ffffff"/>
  </g>
  <g id="axes_1">
   <g id="patch_2">
    <path d="M 29.439063 284.991437 
L 386.559062 284.991437 
L 386.559062 18.879437 
L 29.439063 18.879437 
z
" style="fill: #ffffff"/>
   </g>
   <g id="line2d_1">
    <path d="M 29.439063 211.199039 
L 386.559062 211.199039 
" clip-path="url(#pf9a5b3d09f)" style="fill: none; stroke: #000000; stroke-linecap: square"/>
   </g>
   <g id="matplotlib.axis_1">
    <g id="xtick_1">
     <g id="line2d_2">
      <defs>
       <path id="m3022b0ac9c" d="M 0 0 
L 0 3.5 
" style="stroke: #000000; stroke-width: 0.8"/>
      </defs>
      <g>
       <use xlink:href="#m3022b0ac9c" x="29.439063" y="284.991437" style="stroke: #000000; stroke-width: 0.8"/>
      </g>
     </g>
     <g id="text_1">
      <!-- Jun -->
      <g transform="translate(21.499219 299.482062) scale(0.1 -0.1)">
       <defs>
        <path id="IPAexGothic-4a" d="M 1819 4634 
L 1819 1234 
Q 1819 -31 763 -31 
Q 303 -31 -125 209 
L 84 644 
Q 378 447 694 447 
Q 1250 447 1250 1203 
L 1250 4634 
L 1819 4634 
z
" transform="scale(0.015625)"/>
        <path id="IPAexGothic-75" d="M 3284 63 
L 2772 63 
L 2772 644 
Q 2300 0 1625 0 
Q 1072 0 763 375 
Q 519 678 519 1241 
L 519 3250 
L 1069 3250 
L 1069 1259 
Q 1069 466 1734 466 
Q 2406 466 2734 1291 
L 2734 3250 
L 3284 3250 
L 3284 63 
z
" transform="scale(0.015625)"/>
        <path id="IPAexGothic-6e" d="M 3328 63 
L 2778 63 
L 2778 2041 
Q 2778 2853 2106 2853 
Q 1428 2853 1113 2041 
L 1113 63 
L 563 63 
L 563 3250 
L 1075 3250 
L 1075 2675 
Q 1525 3316 2222 3316 
Q 3328 3316 3328 2072 
L 3328 63 
z
" transform="scale(0.015625)"/>
       </defs>
       <use xlink:href="#IPAexGothic-4a"/>
       <use xlink:href="#IPAexGothic-75" x="37.988281"/>
       <use xlink:href="#IPAexGothic-6e" x="98.388672"/>
      </g>
     </g>
    </g>
    <g id="xtick_2">
     <g id="line2d_3">
      <g>
       <use xlink:href="#m3022b0ac9c" x="71.785308" y="284.991437" style="stroke: #000000; stroke-width: 0.8"/>
      </g>
     </g>
     <g id="text_2">
      <!-- Jul -->
      <g transform="translate(65.515776 299.482062) scale(0.1 -0.1)">
       <defs>
        <path id="IPAexGothic-6c" d="M 1131 63 
L 581 63 
L 581 4794 
L 1131 4794 
L 1131 63 
z
" transform="scale(0.015625)"/>
       </defs>
       <use xlink:href="#IPAexGothic-4a"/>
       <use xlink:href="#IPAexGothic-75" x="37.988281"/>
       <use xlink:href="#IPAexGothic-6c" x="98.388672"/>
      </g>
     </g>
    </g>
    <g id="xtick_3">
     <g id="line2d_4">
      <g>
       <use xlink:href="#m3022b0ac9c" x="115.543094" y="284.991437" style="stroke: #000000; stroke-width: 0.8"/>
      </g>
     </g>
     <g id="text_3">
      <!-- Aug -->
      <g transform="translate(106.561063 299.42425) scale(0.1 -0.1)">
       <defs>
        <path id="IPAexGothic-41" d="M 4056 63 
L 3444 63 
L 2938 1409 
L 1100 1409 
L 603 63 
L -6 63 
L 1806 4666 
L 2259 4666 
L 4056 63 
z
M 2778 1863 
L 2316 3078 
Q 2125 3588 2028 4000 
L 2009 4000 
Q 1897 3563 1716 3078 
L 1263 1863 
L 2778 1863 
z
" transform="scale(0.015625)"/>
        <path id="IPAexGothic-67" d="M 1331 1150 
Q 1006 1122 1006 900 
Q 1006 613 1763 575 
L 2131 556 
Q 3303 497 3303 -294 
Q 3303 -700 2925 -959 
Q 2519 -1253 1794 -1253 
Q 1138 -1253 738 -1028 
Q 353 -809 353 -428 
Q 353 84 1075 247 
L 1075 269 
Q 506 413 506 778 
Q 506 1116 994 1297 
Q 456 1575 456 2181 
Q 456 2650 769 2963 
Q 1128 3322 1738 3322 
Q 2125 3322 2422 3153 
Q 2650 3453 3259 3463 
L 3259 3013 
Q 2838 3003 2703 2938 
Q 3034 2613 3034 2169 
Q 3034 1728 2734 1425 
Q 2400 1094 1813 1094 
Q 1563 1094 1331 1150 
z
M 1734 2919 
Q 1409 2919 1197 2706 
Q 988 2497 988 2181 
Q 988 1872 1184 1684 
Q 1397 1472 1756 1472 
Q 2094 1472 2297 1678 
Q 2503 1881 2503 2203 
Q 2503 2497 2297 2700 
Q 2081 2919 1734 2919 
z
M 1753 159 
Q 903 159 903 -366 
Q 903 -875 1800 -875 
Q 2378 -875 2638 -606 
Q 2772 -481 2772 -313 
Q 2772 159 1753 159 
z
" transform="scale(0.015625)"/>
       </defs>
       <use xlink:href="#IPAexGothic-41"/>
       <use xlink:href="#IPAexGothic-75" x="63.720703"/>
       <use xlink:href="#IPAexGothic-67" x="124.121094"/>
      </g>
     </g>
    </g>
    <g id="xtick_4">
     <g id="line2d_5">
      <g>
       <use xlink:href="#m3022b0ac9c" x="159.300881" y="284.991437" style="stroke: #000000; stroke-width: 0.8"/>
      </g>
     </g>
     <g id="text_4">
      <!-- Sep -->
      <g transform="translate(150.425881 299.482062) scale(0.1 -0.1)">
       <defs>
        <path id="IPAexGothic-53" d="M 2919 3641 
Q 2563 4259 1853 4259 
Q 1453 4259 1213 4009 
Q 1028 3803 1028 3534 
Q 1028 3238 1266 3047 
Q 1444 2913 1984 2688 
L 2200 2597 
Q 2925 2306 3191 1953 
Q 3422 1644 3422 1259 
Q 3422 644 2969 288 
Q 2559 -31 1931 -31 
Q 881 -31 313 766 
L 753 1100 
Q 1203 459 1938 459 
Q 2288 459 2534 625 
Q 2841 847 2841 1216 
Q 2841 1503 2616 1728 
Q 2375 1959 1728 2206 
L 1541 2278 
Q 453 2694 453 3481 
Q 453 4006 806 4347 
Q 1203 4725 1863 4725 
Q 2841 4725 3359 3956 
L 2919 3641 
z
" transform="scale(0.015625)"/>
        <path id="IPAexGothic-65" d="M 863 1594 
Q 891 1041 1209 722 
Q 1534 397 1997 397 
Q 2606 397 2963 966 
L 3322 728 
Q 2869 -31 1931 -31 
Q 1222 -31 766 422 
Q 306 884 306 1641 
Q 306 2444 788 2925 
Q 1216 3353 1856 3353 
Q 2459 3353 2866 2956 
Q 3322 2494 3322 1722 
L 3322 1594 
L 863 1594 
z
M 2756 1997 
Q 2709 2431 2450 2681 
Q 2194 2938 1844 2938 
Q 1438 2938 1150 2591 
Q 953 2356 894 1997 
L 2756 1997 
z
" transform="scale(0.015625)"/>
        <path id="IPAexGothic-70" d="M 1075 2688 
Q 1525 3341 2206 3341 
Q 2769 3341 3172 2938 
Q 3641 2469 3641 1644 
Q 3641 841 3178 372 
Q 2775 -31 2200 -31 
Q 1569 -31 1106 497 
L 1106 -1216 
L 563 -1216 
L 563 3250 
L 1075 3250 
L 1075 2688 
z
M 1106 1950 
L 1106 1291 
Q 1106 897 1516 600 
Q 1791 403 2106 403 
Q 2469 403 2725 659 
Q 3066 997 3066 1631 
Q 3066 2200 2784 2559 
Q 2503 2900 2100 2900 
Q 1656 2900 1338 2484 
Q 1106 2184 1106 1950 
z
" transform="scale(0.015625)"/>
       </defs>
       <use xlink:href="#IPAexGothic-53"/>
       <use xlink:href="#IPAexGothic-65" x="58.496094"/>
       <use xlink:href="#IPAexGothic-70" x="115.380859"/>
      </g>
     </g>
    </g>
    <g id="xtick_5">
     <g id="line2d_6">
      <g>
       <use xlink:href="#m3022b0ac9c" x="201.647126" y="284.991437" style="stroke: #000000; stroke-width: 0.8"/>
      </g>
     </g>
     <g id="text_5">
      <!-- Oct -->
      <g transform="translate(193.211969 299.482062) scale(0.1 -0.1)">
       <defs>
        <path id="IPAexGothic-4f" d="M 2541 4725 
Q 3456 4725 4044 4138 
Q 4709 3472 4709 2331 
Q 4709 1219 4031 550 
Q 3450 -31 2541 -31 
Q 1638 -31 1056 550 
Q 378 1219 378 2356 
Q 378 3469 1044 4138 
Q 1631 4725 2541 4725 
z
M 2541 4266 
Q 1953 4266 1531 3844 
Q 994 3303 994 2350 
Q 994 1391 1531 863 
Q 1947 447 2541 447 
Q 3131 447 3556 863 
Q 4094 1400 4094 2375 
Q 4094 3297 3550 3844 
Q 3138 4266 2541 4266 
z
" transform="scale(0.015625)"/>
        <path id="IPAexGothic-63" d="M 3269 784 
Q 2834 -31 1900 -31 
Q 1228 -31 788 409 
Q 313 891 313 1663 
Q 313 2428 788 2913 
Q 1222 3347 1881 3347 
Q 2813 3347 3206 2541 
L 2763 2309 
Q 2484 2900 1900 2900 
Q 1516 2900 1234 2619 
Q 881 2266 881 1650 
Q 881 1069 1222 728 
Q 1522 428 1956 428 
Q 2547 428 2847 1016 
L 3269 784 
z
" transform="scale(0.015625)"/>
        <path id="IPAexGothic-74" d="M 2125 241 
Q 1769 -6 1397 -6 
Q 653 -6 653 831 
L 653 2859 
L 219 2859 
L 219 3250 
L 653 3250 
L 653 3966 
L 1178 4228 
L 1178 3250 
L 2063 3250 
L 2063 2859 
L 1178 2859 
L 1178 906 
Q 1178 416 1513 416 
Q 1738 416 1941 588 
L 2125 241 
z
" transform="scale(0.015625)"/>
       </defs>
       <use xlink:href="#IPAexGothic-4f"/>
       <use xlink:href="#IPAexGothic-63" x="79.6875"/>
       <use xlink:href="#IPAexGothic-74" x="134.082031"/>
      </g>
     </g>
    </g>
    <g id="xtick_6">
     <g id="line2d_7">
      <g>
       <use xlink:href="#m3022b0ac9c" x="245.404912" y="284.991437" style="stroke: #000000; stroke-width: 0.8"/>
      </g>
     </g>
     <g id="text_6">
      <!-- Nov -->
      <g transform="translate(236.156475 299.482062) scale(0.1 -0.1)">
       <defs>
        <path id="IPAexGothic-4e" d="M 4244 63 
L 3731 63 
L 1697 3150 
Q 1466 3500 1141 4097 
L 1116 4097 
L 1128 3797 
Q 1159 2803 1159 2469 
L 1159 63 
L 609 63 
L 609 4634 
L 1366 4634 
L 3113 1978 
Q 3453 1447 3713 966 
L 3738 966 
Q 3694 1897 3694 2469 
L 3694 4634 
L 4244 4634 
L 4244 63 
z
" transform="scale(0.015625)"/>
        <path id="IPAexGothic-6f" d="M 1919 3341 
Q 2594 3341 3056 2888 
Q 3531 2413 3531 1638 
Q 3531 888 3066 422 
Q 2609 -31 1919 -31 
Q 1228 -31 781 416 
Q 313 881 313 1656 
Q 313 2413 788 2888 
Q 1241 3341 1919 3341 
z
M 1919 2919 
Q 1519 2919 1241 2631 
Q 888 2278 888 1650 
Q 888 1031 1234 684 
Q 1516 403 1919 403 
Q 2331 403 2609 691 
Q 2956 1038 2956 1672 
Q 2956 2269 2603 2631 
Q 2316 2919 1919 2919 
z
" transform="scale(0.015625)"/>
        <path id="IPAexGothic-76" d="M 3103 3250 
L 1747 6 
L 1375 6 
L 25 3250 
L 628 3250 
L 1338 1388 
L 1522 844 
L 1569 703 
L 1588 703 
Q 1641 884 1822 1388 
L 2516 3250 
L 3103 3250 
z
" transform="scale(0.015625)"/>
       </defs>
       <use xlink:href="#IPAexGothic-4e"/>
       <use xlink:href="#IPAexGothic-6f" x="75.976562"/>
       <use xlink:href="#IPAexGothic-76" x="136.376953"/>
      </g>
     </g>
    </g>
    <g id="xtick_7">
     <g id="line2d_8">
      <g>
       <use xlink:href="#m3022b0ac9c" x="287.751157" y="284.991437" style="stroke: #000000; stroke-width: 0.8"/>
      </g>
     </g>
     <g id="text_7">
      <!-- Dec -->
      <g transform="translate(278.40272 299.482062) scale(0.1 -0.1)">
       <defs>
        <path id="IPAexGothic-44" d="M 609 4634 
L 1984 4634 
Q 3159 4634 3791 4050 
Q 4456 3444 4456 2356 
Q 4456 1047 3516 441 
Q 2925 63 1941 63 
L 609 63 
L 609 4634 
z
M 1172 556 
L 1894 556 
Q 3853 556 3853 2356 
Q 3853 4147 1928 4147 
L 1172 4147 
L 1172 556 
z
" transform="scale(0.015625)"/>
       </defs>
       <use xlink:href="#IPAexGothic-44"/>
       <use xlink:href="#IPAexGothic-65" x="75.683594"/>
       <use xlink:href="#IPAexGothic-63" x="132.568359"/>
      </g>
     </g>
    </g>
    <g id="xtick_8">
     <g id="line2d_9">
      <g>
       <use xlink:href="#m3022b0ac9c" x="331.508944" y="284.991437" style="stroke: #000000; stroke-width: 0.8"/>
      </g>
     </g>
     <g id="text_8">
      <!-- 2023 -->
      <g transform="translate(318.912069 299.482062) scale(0.1 -0.1)">
       <defs>
        <path id="IPAexGothic-32" d="M 3659 63 
L 447 63 
L 447 594 
Q 825 1475 1894 2203 
L 2072 2322 
Q 2619 2697 2791 2906 
Q 2988 3153 2988 3444 
Q 2988 3772 2756 4003 
Q 2500 4259 2084 4259 
Q 1250 4259 991 3328 
L 497 3506 
Q 853 4725 2116 4725 
Q 2806 4725 3216 4316 
Q 3575 3947 3575 3425 
Q 3575 3038 3344 2722 
Q 3131 2416 2366 1938 
L 2231 1856 
Q 1256 1253 978 569 
L 3659 569 
L 3659 63 
z
" transform="scale(0.015625)"/>
        <path id="IPAexGothic-30" d="M 2038 4725 
Q 2881 4725 3334 3944 
Q 3694 3325 3694 2344 
Q 3694 1372 3334 741 
Q 2888 -31 2016 -31 
Q 1147 -31 700 741 
Q 341 1372 341 2350 
Q 341 3713 1000 4334 
Q 1419 4725 2038 4725 
z
M 2016 4266 
Q 1516 4266 1228 3759 
Q 934 3247 934 2344 
Q 934 1456 1222 947 
Q 1513 447 2016 447 
Q 2619 447 2909 1153 
Q 3100 1622 3100 2375 
Q 3100 3256 2806 3759 
Q 2509 4266 2016 4266 
z
" transform="scale(0.015625)"/>
        <path id="IPAexGothic-33" d="M 2381 2419 
Q 3506 2216 3506 1278 
Q 3506 716 3128 356 
Q 2709 -31 1944 -31 
Q 797 -31 288 881 
L 756 1131 
Q 1109 441 1938 441 
Q 2425 441 2694 691 
Q 2950 928 2950 1291 
Q 2950 1719 2566 1978 
Q 2216 2213 1644 2213 
L 1363 2213 
L 1363 2669 
L 1656 2669 
Q 2231 2669 2534 2888 
Q 2859 3119 2859 3509 
Q 2859 3934 2494 4138 
Q 2259 4278 1931 4278 
Q 1238 4278 903 3578 
L 434 3803 
Q 897 4725 1938 4725 
Q 2597 4725 3006 4394 
Q 3416 4069 3416 3534 
Q 3416 3028 3019 2706 
Q 2763 2500 2381 2444 
L 2381 2419 
z
" transform="scale(0.015625)"/>
       </defs>
       <use xlink:href="#IPAexGothic-32"/>
       <use xlink:href="#IPAexGothic-30" x="62.988281"/>
       <use xlink:href="#IPAexGothic-32" x="125.976562"/>
       <use xlink:href="#IPAexGothic-33" x="188.964844"/>
      </g>
     </g>
    </g>
    <g id="xtick_9">
     <g id="line2d_10">
      <g>
       <use xlink:href="#m3022b0ac9c" x="375.26673" y="284.991437" style="stroke: #000000; stroke-width: 0.8"/>
      </g>
     </g>
     <g id="text_9">
      <!-- Feb -->
      <g transform="translate(366.443293 299.482062) scale(0.1 -0.1)">
       <defs>
        <path id="IPAexGothic-46" d="M 3469 4141 
L 1172 4141 
L 1172 2656 
L 3206 2656 
L 3206 2188 
L 1172 2188 
L 1172 63 
L 609 63 
L 609 4634 
L 3469 4634 
L 3469 4141 
z
" transform="scale(0.015625)"/>
        <path id="IPAexGothic-62" d="M 1125 2731 
Q 1550 3341 2219 3341 
Q 2788 3341 3191 2938 
Q 3659 2469 3659 1644 
Q 3659 838 3191 372 
Q 2788 -31 2206 -31 
Q 1559 -31 1088 516 
L 1009 44 
L 581 44 
L 581 4794 
L 1125 4794 
L 1125 2731 
z
M 1125 1997 
L 1125 1253 
Q 1125 888 1528 600 
Q 1803 403 2119 403 
Q 2488 403 2744 659 
Q 3084 1009 3084 1631 
Q 3084 2194 2803 2553 
Q 2525 2900 2125 2900 
Q 1759 2900 1438 2578 
Q 1125 2266 1125 1997 
z
" transform="scale(0.015625)"/>
       </defs>
       <use xlink:href="#IPAexGothic-46"/>
       <use xlink:href="#IPAexGothic-65" x="57.177734"/>
       <use xlink:href="#IPAexGothic-62" x="114.0625"/>
      </g>
     </g>
    </g>
   </g>
   <g id="matplotlib.axis_2">
    <g id="ytick_1">
     <g id="line2d_11">
      <defs>
       <path id="mb4fb0b5372" d="M 0 0 
L -3.5 0 
" style="stroke: #000000; stroke-width: 0.8"/>
      </defs>
      <g>
       <use xlink:href="#mb4fb0b5372" x="29.439063" y="269.014637" style="stroke: #000000; stroke-width: 0.8"/>
      </g>
     </g>
     <g id="text_10">
      <!-- 0.5 -->
      <g transform="translate(7.2 272.759949) scale(0.1 -0.1)">
       <defs>
        <path id="IPAexGothic-2e" d="M 1184 63 
L 494 63 
L 494 753 
L 1184 753 
L 1184 63 
z
" transform="scale(0.015625)"/>
        <path id="IPAexGothic-35" d="M 1178 2603 
Q 1634 2963 2172 2963 
Q 2816 2963 3241 2528 
Q 3638 2113 3638 1497 
Q 3638 938 3297 513 
Q 2869 -31 2031 -31 
Q 959 -31 469 784 
L 938 1028 
Q 1309 434 2013 434 
Q 2466 434 2769 716 
Q 3081 1013 3081 1503 
Q 3081 1966 2806 2241 
Q 2519 2528 2056 2528 
Q 1406 2528 1072 2028 
L 591 2091 
L 884 4634 
L 3406 4634 
L 3406 4153 
L 1341 4153 
L 1134 2603 
L 1178 2603 
z
" transform="scale(0.015625)"/>
       </defs>
       <use xlink:href="#IPAexGothic-30"/>
       <use xlink:href="#IPAexGothic-2e" x="62.988281"/>
       <use xlink:href="#IPAexGothic-35" x="89.404297"/>
      </g>
     </g>
    </g>
    <g id="ytick_2">
     <g id="line2d_12">
      <g>
       <use xlink:href="#mb4fb0b5372" x="29.439063" y="211.199039" style="stroke: #000000; stroke-width: 0.8"/>
      </g>
     </g>
     <g id="text_11">
      <!-- 1.0 -->
      <g transform="translate(7.2 214.944352) scale(0.1 -0.1)">
       <defs>
        <path id="IPAexGothic-31" d="M 2463 63 
L 1900 63 
L 1900 4103 
Q 1372 3922 788 3797 
L 684 4231 
Q 1519 4441 2106 4731 
L 2463 4731 
L 2463 63 
z
" transform="scale(0.015625)"/>
       </defs>
       <use xlink:href="#IPAexGothic-31"/>
       <use xlink:href="#IPAexGothic-2e" x="62.988281"/>
       <use xlink:href="#IPAexGothic-30" x="89.404297"/>
      </g>
     </g>
    </g>
    <g id="ytick_3">
     <g id="line2d_13">
      <g>
       <use xlink:href="#mb4fb0b5372" x="29.439063" y="153.383442" style="stroke: #000000; stroke-width: 0.8"/>
      </g>
     </g>
     <g id="text_12">
      <!-- 1.5 -->
      <g transform="translate(7.2 157.128754) scale(0.1 -0.1)">
       <use xlink:href="#IPAexGothic-31"/>
       <use xlink:href="#IPAexGothic-2e" x="62.988281"/>
       <use xlink:href="#IPAexGothic-35" x="89.404297"/>
      </g>
     </g>
    </g>
    <g id="ytick_4">
     <g id="line2d_14">
      <g>
       <use xlink:href="#mb4fb0b5372" x="29.439063" y="95.567844" style="stroke: #000000; stroke-width: 0.8"/>
      </g>
     </g>
     <g id="text_13">
      <!-- 2.0 -->
      <g transform="translate(7.2 99.313157) scale(0.1 -0.1)">
       <use xlink:href="#IPAexGothic-32"/>
       <use xlink:href="#IPAexGothic-2e" x="62.988281"/>
       <use xlink:href="#IPAexGothic-30" x="89.404297"/>
      </g>
     </g>
    </g>
    <g id="ytick_5">
     <g id="line2d_15">
      <g>
       <use xlink:href="#mb4fb0b5372" x="29.439063" y="37.752247" style="stroke: #000000; stroke-width: 0.8"/>
      </g>
     </g>
     <g id="text_14">
      <!-- 2.5 -->
      <g transform="translate(7.2 41.497559) scale(0.1 -0.1)">
       <use xlink:href="#IPAexGothic-32"/>
       <use xlink:href="#IPAexGothic-2e" x="62.988281"/>
       <use xlink:href="#IPAexGothic-35" x="89.404297"/>
      </g>
     </g>
    </g>
   </g>
   <g id="line2d_16">
    <path d="M 29.439063 227.411867 
L 30.850604 255.471758 
L 32.262146 269.405805 
L 33.673687 242.945807 
L 35.085229 262.441258 
L 37.908312 251.639145 
L 39.319853 227.514621 
L 40.731395 229.940841 
L 42.142936 194.078383 
L 43.554478 246.403784 
L 44.966019 250.411663 
L 46.377561 205.84664 
L 47.789102 249.191321 
L 49.200644 272.895437 
L 50.612185 243.090535 
L 52.023727 247.559579 
L 53.435268 238.429093 
L 54.84681 112.810292 
L 56.258351 184.323192 
L 57.669893 181.498781 
L 59.081434 30.975437 
L 61.904517 168.571026 
L 63.316059 110.868109 
L 64.7276 213.126183 
L 66.139142 156.293505 
L 67.550683 124.518024 
L 68.962225 151.875457 
L 70.373766 236.751655 
L 71.785308 106.655378 
L 73.196849 51.387485 
L 74.608391 102.788184 
L 76.019932 95.926279 
L 77.431474 36.542983 
L 78.843015 79.37836 
L 80.254557 35.439549 
L 81.666098 110.396771 
L 83.07764 116.980214 
L 84.489181 109.726148 
L 85.900723 177.160719 
L 87.312264 110.814502 
L 88.723806 153.702013 
L 90.135347 148.460822 
L 91.546889 164.812112 
L 92.95843 190.526245 
L 94.369972 181.526351 
L 95.781513 197.096587 
L 97.193055 219.976945 
L 98.604596 163.710275 
L 100.016138 173.022011 
L 101.427679 196.817697 
L 102.839221 179.527296 
L 104.250762 191.661352 
L 105.662304 192.887858 
L 107.073845 173.15897 
L 108.485387 188.50237 
L 109.896928 201.809366 
L 111.30847 195.197746 
L 112.720011 183.412435 
L 114.131553 192.046725 
L 115.543094 204.737627 
L 116.954636 199.025674 
L 118.366177 189.016626 
L 119.777719 185.809755 
L 121.18926 182.941981 
L 122.600802 200.02008 
L 124.012343 192.032303 
L 125.423885 181.775482 
L 126.835426 186.871327 
L 128.246968 193.9839 
L 129.658509 204.601463 
L 131.070051 225.669065 
L 132.481592 207.989558 
L 133.893134 218.057369 
L 135.304675 204.232725 
L 136.716217 217.282458 
L 138.127758 202.720535 
L 139.5393 195.141529 
L 140.950841 153.461242 
L 142.362383 171.531238 
L 143.773924 185.828914 
L 145.185466 204.950127 
L 146.597007 187.736367 
L 148.008549 211.671324 
L 149.42009 216.92144 
L 150.831632 231.587854 
L 152.243173 248.509599 
L 153.654715 240.826108 
L 155.066256 241.29957 
L 156.477798 247.072575 
L 157.889339 251.367839 
L 159.300881 251.669425 
L 160.712422 251.785215 
L 162.123964 242.900107 
L 163.535505 251.663262 
L 164.947047 241.186243 
L 166.358588 228.929625 
L 167.77013 240.670472 
L 169.181671 239.689961 
L 170.593213 228.587222 
L 172.004754 234.114512 
L 173.416296 220.053728 
L 174.827837 221.634093 
L 176.239379 247.789493 
L 177.65092 250.578039 
L 179.062462 230.847867 
L 180.474003 240.571341 
L 181.885545 229.667605 
L 183.297086 228.965012 
L 184.708628 226.507 
L 186.120169 266.267581 
L 187.531711 173.994674 
L 188.943252 228.352097 
L 190.354794 212.968149 
L 191.766335 243.863512 
L 193.177877 195.951487 
L 194.589418 187.500784 
L 196.00096 195.32975 
L 197.412501 238.855842 
L 198.824043 224.563828 
L 200.235584 239.674853 
L 201.647126 205.067187 
L 203.058667 219.657973 
L 204.470209 258.893645 
L 205.88175 189.095647 
L 207.293292 231.988543 
L 208.704833 230.452082 
L 210.116375 208.848889 
L 211.527916 214.413367 
L 212.939458 237.774657 
L 214.350999 208.216448 
L 215.762541 269.328924 
L 217.174082 186.857034 
L 218.585624 168.652783 
L 219.997165 211.199039 
L 221.408707 197.903063 
L 222.820248 190.42842 
L 224.23179 209.746404 
L 225.643331 135.123595 
L 227.054873 212.926136 
L 228.466414 239.34414 
L 229.877956 184.631705 
L 231.289497 193.892671 
L 232.701039 220.351516 
L 234.11258 197.002011 
L 235.524122 191.634272 
L 236.935663 213.253557 
L 238.347205 183.049443 
L 239.758746 199.198481 
L 241.170288 190.346771 
L 242.581829 160.309806 
L 243.993371 189.784075 
L 245.404912 198.104074 
L 246.816454 152.110827 
L 248.227995 152.9204 
L 249.639537 232.748365 
L 251.051078 165.024121 
L 252.46262 194.085734 
L 253.874161 199.838398 
L 255.285703 173.564927 
L 256.697244 209.205445 
L 258.108786 206.690562 
L 259.520327 156.249641 
L 260.931869 220.402577 
L 262.34341 215.284532 
L 263.754952 225.924092 
L 265.166493 188.099011 
L 266.578035 185.511636 
L 267.989576 211.199039 
L 269.401118 194.160213 
L 270.812659 184.55213 
L 272.224201 182.799057 
L 275.047284 203.930102 
L 276.458825 168.757197 
L 277.870367 220.491359 
L 279.281908 171.577359 
L 282.104991 192.11637 
L 283.516533 204.402838 
L 284.928074 198.987955 
L 286.339616 181.777237 
L 287.751157 142.696764 
L 289.162699 213.580923 
L 290.57424 220.529523 
L 291.985782 204.080643 
L 293.397323 205.292279 
L 294.808865 181.962456 
L 296.220406 194.793532 
L 297.631948 197.432704 
L 299.043489 173.295964 
L 300.455031 175.045451 
L 301.866572 167.16196 
L 303.278114 187.120934 
L 304.689655 183.834422 
L 306.101197 173.778001 
L 307.512738 181.23856 
L 308.92428 201.020413 
L 310.335821 187.828789 
L 311.747363 213.66936 
L 313.158904 207.768569 
L 314.570446 207.295129 
L 315.981987 192.832229 
L 317.393529 206.958159 
L 318.80507 188.728128 
L 320.216612 193.851266 
L 321.628153 207.103197 
L 323.039695 215.224404 
L 324.451236 196.113595 
L 325.862778 220.91992 
L 327.274319 200.04709 
L 328.685861 223.444191 
L 330.097402 251.024981 
L 331.508944 228.180558 
L 332.920485 208.755181 
L 334.332027 251.311193 
L 335.743568 254.432046 
L 337.15511 215.74342 
L 338.566651 126.299141 
L 339.978193 90.185267 
L 341.389734 169.01121 
L 342.801276 202.233317 
L 344.212817 208.810336 
L 345.624359 167.736099 
L 347.0359 215.685286 
L 348.447442 255.304956 
L 349.858983 257.151057 
L 351.270525 241.910597 
L 352.682066 230.363911 
L 354.093608 201.639485 
L 355.505149 252.591109 
L 356.916691 261.202922 
L 358.328232 248.191392 
L 359.739774 245.888016 
L 361.151315 248.528538 
L 362.562857 233.937612 
L 363.974398 243.873594 
L 365.38594 245.699396 
L 366.797481 238.379427 
L 368.209023 250.421781 
L 369.620564 242.025158 
L 371.032106 235.679743 
L 372.443647 231.977605 
L 373.855189 268.725993 
L 375.26673 251.010186 
L 376.678272 243.44844 
L 378.089813 231.173865 
L 379.501355 246.470516 
L 380.912896 240.806074 
L 382.324438 205.729567 
L 383.735979 216.74151 
L 385.147521 221.239134 
L 385.147521 221.239134 
" clip-path="url(#pf9a5b3d09f)" style="fill: none; stroke: #1f77b4; stroke-width: 1.5; stroke-linecap: square"/>
   </g>
   <g id="line2d_17">
    <path d="M 29.439063 230.929789 
L 30.850604 242.60231 
L 32.262146 262.8168 
L 33.673687 257.425513 
L 35.085229 253.337157 
L 36.49677 259.836211 
L 37.908312 254.434415 
L 39.319853 240.414674 
L 40.731395 228.735232 
L 42.142936 213.41839 
L 43.554478 223.501825 
L 44.966019 248.433331 
L 46.377561 230.677266 
L 47.789102 229.912564 
L 49.200644 262.11981 
L 50.612185 259.625445 
L 52.023727 245.355694 
L 53.435268 243.118728 
L 54.84681 189.281671 
L 56.258351 152.189606 
L 57.669893 182.917915 
L 59.081434 119.473036 
L 60.492976 68.196709 
L 61.904517 137.669929 
L 63.316059 141.957318 
L 64.7276 170.127431 
L 66.139142 187.579679 
L 67.550683 141.084002 
L 68.962225 138.693349 
L 70.373766 201.292679 
L 71.785308 186.000414 
L 73.196849 80.567026 
L 74.608391 78.413733 
L 76.019932 99.383107 
L 77.431474 67.931655 
L 78.843015 58.815077 
L 80.254557 58.306173 
L 81.666098 75.699401 
L 83.07764 113.713912 
L 84.489181 113.383995 
L 85.900723 146.569691 
L 87.312264 147.022086 
L 88.723806 133.443524 
L 90.135347 151.100956 
L 91.546889 156.832948 
L 92.95843 178.224324 
L 94.369972 186.098223 
L 95.781513 189.532009 
L 97.193055 209.091256 
L 98.604596 194.807872 
L 100.016138 168.434555 
L 101.427679 185.419494 
L 102.839221 188.44227 
L 104.250762 185.724694 
L 105.662304 192.276003 
L 107.073845 183.362139 
L 108.485387 181.032368 
L 109.896928 195.324076 
L 111.30847 198.546144 
L 112.720011 189.431392 
L 114.131553 187.79659 
L 115.543094 198.54902 
L 116.954636 201.914295 
L 118.366177 194.115474 
L 119.777719 187.422411 
L 121.18926 184.383085 
L 122.600802 191.750659 
L 124.012343 196.087179 
L 125.423885 186.997904 
L 126.835426 184.346184 
L 128.246968 190.473981 
L 129.658509 199.403219 
L 131.070051 215.633088 
L 132.481592 217.185071 
L 133.893134 213.134848 
L 135.304675 211.351742 
L 136.716217 210.94113 
L 138.127758 210.228598 
L 139.5393 198.987184 
L 140.950841 175.731796 
L 142.362383 162.744798 
L 145.185466 195.737687 
L 146.597007 196.62741 
L 148.008549 200.268399 
L 149.42009 214.327003 
L 150.831632 224.517111 
L 152.243173 240.462163 
L 153.654715 244.757718 
L 155.066256 241.063165 
L 156.477798 244.236496 
L 157.889339 249.249927 
L 159.300881 251.518783 
L 160.712422 251.727342 
L 162.123964 247.466905 
L 163.535505 247.402446 
L 164.947047 246.595581 
L 166.358588 235.262778 
L 167.77013 234.987471 
L 169.181671 240.181603 
L 170.593213 234.304978 
L 172.004754 231.390872 
L 173.416296 227.332189 
L 174.827837 220.846856 
L 176.239379 235.644814 
L 177.65092 249.196285 
L 179.062462 241.279862 
L 180.474003 235.839395 
L 181.885545 235.281663 
L 183.297086 229.316941 
L 184.708628 227.743627 
L 186.120169 248.882551 
L 187.531711 230.621466 
L 188.943252 204.147875 
L 190.354794 220.93913 
L 191.766335 229.635769 
L 193.177877 222.625721 
L 194.589418 191.792225 
L 196.00096 191.471858 
L 197.412501 219.272458 
L 198.824043 231.97864 
L 200.235584 232.42119 
L 201.647126 223.814193 
L 203.058667 212.595296 
L 204.470209 241.501939 
L 205.88175 230.097519 
L 207.293292 212.536835 
L 208.704833 231.223399 
L 210.116375 220.196168 
L 211.527916 211.66473 
L 212.939458 226.773505 
L 214.350999 224.052711 
L 215.762541 244.24423 
L 217.174082 237.116008 
L 218.585624 178.033043 
L 221.408707 204.731901 
L 222.820248 194.218394 
L 224.23179 200.456001 
L 225.643331 177.011185 
L 227.054873 179.059561 
L 228.466414 227.005264 
L 229.877956 215.29372 
L 231.289497 189.34014 
L 232.701039 207.855357 
L 234.11258 209.25497 
L 235.524122 194.345323 
L 236.935663 202.914504 
L 238.347205 199.04078 
L 239.758746 191.364392 
L 241.170288 194.846812 
L 242.581829 176.074523 
L 243.993371 175.764073 
L 245.404912 194.009205 
L 246.816454 176.860376 
L 248.227995 152.516084 
L 249.639537 198.91713 
L 251.051078 203.448625 
L 252.46262 180.273516 
L 253.874161 196.993923 
L 255.285703 187.318791 
L 256.697244 192.562593 
L 258.108786 207.954654 
L 259.520327 183.674736 
L 260.931869 192.091624 
L 262.34341 217.873602 
L 263.754952 220.737602 
L 265.166493 208.513572 
L 266.578035 186.8113 
L 267.989576 198.998945 
L 269.401118 202.972279 
L 270.812659 189.440136 
L 272.224201 183.678277 
L 273.635742 188.335204 
L 275.047284 198.897374 
L 276.458825 187.448754 
L 277.870367 197.179515 
L 279.281908 198.341262 
L 280.69345 176.894581 
L 282.104991 187.16406 
L 283.516533 198.406453 
L 284.928074 201.724689 
L 286.339616 190.654224 
L 287.751157 163.401008 
L 289.162699 182.424595 
L 290.57424 217.110216 
L 291.985782 212.600777 
L 293.397323 204.687964 
L 294.808865 194.139114 
L 296.220406 188.526714 
L 297.631948 196.119779 
L 299.043489 185.880047 
L 300.455031 174.173214 
L 301.866572 171.1536 
L 303.278114 177.474475 
L 304.689655 185.48723 
L 306.101197 178.891638 
L 307.512738 177.554882 
L 308.92428 191.49043 
L 310.335821 194.588989 
L 311.747363 201.412831 
L 313.158904 210.756455 
L 314.570446 207.532084 
L 315.981987 200.270107 
L 317.393529 200.091846 
L 318.80507 198.165608 
L 320.216612 191.313905 
L 321.628153 200.651084 
L 323.039695 211.235099 
L 324.451236 206.046382 
L 325.862778 209.168684 
L 327.274319 210.952529 
L 328.685861 212.341773 
L 330.097402 238.302243 
L 331.508944 240.353858 
L 332.920485 218.904029 
L 334.332027 232.400817 
L 335.743568 252.888083 
L 337.15511 237.150337 
L 338.566651 177.577562 
L 339.978193 108.989297 
L 341.389734 133.576313 
L 342.801276 186.602691 
L 344.212817 205.566408 
L 345.624359 189.803691 
L 347.0359 193.854637 
L 348.447442 237.669294 
L 349.858983 256.234041 
L 351.270525 249.907348 
L 352.682066 236.3212 
L 354.093608 216.936234 
L 355.505149 230.424572 
L 356.916691 257.029702 
L 358.328232 254.991137 
L 359.739774 247.048016 
L 361.151315 247.219224 
L 362.562857 241.544538 
L 363.974398 239.046068 
L 365.38594 244.791574 
L 366.797481 242.11844 
L 368.209023 244.62081 
L 369.620564 246.332876 
L 371.032106 238.909678 
L 372.443647 233.847098 
L 373.855189 252.591834 
L 375.26673 260.456547 
L 376.678272 247.319155 
L 378.089813 237.521782 
L 379.501355 239.155159 
L 380.912896 243.68652 
L 382.324438 224.763671 
L 383.735979 211.366742 
L 385.147521 219.013772 
L 385.147521 219.013772 
" clip-path="url(#pf9a5b3d09f)" style="fill: none; stroke: #ff7f0e; stroke-width: 1.5; stroke-linecap: square"/>
   </g>
   <g id="line2d_18">
    <path d="M 29.439063 229.122786 
L 30.850604 239.928401 
L 32.262146 252.698705 
L 33.673687 256.780278 
L 35.085229 259.139403 
L 36.49677 254.622372 
L 37.908312 257.208287 
L 39.319853 246.388486 
L 40.731395 237.055655 
L 42.142936 218.326475 
L 44.966019 233.387372 
L 46.377561 236.234427 
L 47.789102 237.293425 
L 50.612185 256.313321 
L 52.023727 255.822722 
L 53.435268 243.109331 
L 54.84681 212.36467 
L 57.669893 162.563334 
L 59.081434 143.84129 
L 60.492976 113.406318 
L 61.904517 107.256927 
L 63.316059 129.127564 
L 64.7276 169.610337 
L 66.139142 165.645532 
L 67.550683 169.115602 
L 68.962225 144.753156 
L 70.373766 179.647632 
L 71.785308 175.437505 
L 73.196849 150.710969 
L 74.608391 88.208754 
L 76.019932 84.394062 
L 77.431474 80.114816 
L 78.843015 71.804879 
L 80.254557 51.239386 
L 81.666098 76.931758 
L 83.07764 90.291085 
L 84.489181 112.392863 
L 85.900723 137.201801 
L 87.312264 135.362509 
L 88.723806 149.276885 
L 90.135347 138.58476 
L 91.546889 155.795645 
L 92.95843 168.900399 
L 97.193055 200.539182 
L 98.604596 195.575228 
L 100.016138 187.912342 
L 101.427679 178.52472 
L 102.839221 183.482093 
L 104.250762 189.523726 
L 105.662304 188.153999 
L 107.073845 186.18367 
L 108.485387 185.09643 
L 109.896928 188.315827 
L 111.30847 195.281979 
L 112.720011 193.687884 
L 114.131553 190.308761 
L 115.543094 193.689874 
L 116.954636 198.708102 
L 118.366177 197.755094 
L 119.777719 191.402728 
L 121.18926 185.944654 
L 122.600802 189.7987 
L 124.012343 191.844605 
L 125.423885 191.480812 
L 126.835426 186.955724 
L 128.246968 187.634041 
L 129.658509 195.355837 
L 131.070051 208.84012 
L 133.893134 217.476612 
L 135.304675 210.241718 
L 136.716217 213.36349 
L 138.127758 208.263285 
L 139.5393 205.402114 
L 140.950841 185.324114 
L 142.362383 174.344388 
L 143.773924 170.831497 
L 145.185466 188.120092 
L 146.597007 193.123075 
L 148.008549 201.848623 
L 149.42009 206.082407 
L 150.831632 220.402845 
L 152.243173 233.236603 
L 153.654715 240.583648 
L 155.066256 243.620823 
L 156.477798 243.114997 
L 159.300881 250.064959 
L 160.712422 251.607698 
L 162.123964 248.893225 
L 163.535505 248.891095 
L 164.947047 245.382199 
L 167.77013 237.10204 
L 169.181671 236.582508 
L 170.593213 236.477418 
L 172.004754 234.241533 
L 173.416296 227.752305 
L 174.827837 225.467971 
L 176.239379 230.718701 
L 177.65092 240.92208 
L 179.062462 243.507227 
L 180.474003 241.044337 
L 181.885545 233.826969 
L 183.297086 233.222764 
L 184.708628 228.38915 
L 186.120169 242.740121 
L 187.531711 229.269077 
L 188.943252 229.870881 
L 190.354794 207.161383 
L 191.766335 229.209749 
L 193.177877 219.501156 
L 194.589418 212.031087 
L 196.00096 192.98185 
L 197.412501 209.581314 
L 198.824043 221.065989 
L 200.235584 234.616737 
L 201.647126 224.06468 
L 203.058667 222.447011 
L 204.470209 230.764786 
L 205.88175 226.735849 
L 207.293292 230.732013 
L 208.704833 218.850986 
L 210.116375 224.281475 
L 211.527916 218.302399 
L 212.939458 221.123664 
L 214.350999 220.93512 
L 215.762541 242.141688 
L 217.174082 228.364316 
L 218.585624 218.44859 
L 219.997165 190.029585 
L 221.408707 193.727182 
L 222.820248 200.139008 
L 224.23179 199.610689 
L 225.643331 181.624175 
L 227.054873 190.09163 
L 229.877956 214.510045 
L 231.289497 208.573118 
L 232.701039 200.569432 
L 234.11258 204.342327 
L 235.524122 203.652593 
L 236.935663 200.974213 
L 238.347205 196.618162 
L 239.758746 199.093369 
L 241.170288 191.026031 
L 242.581829 184.214067 
L 243.993371 180.790352 
L 245.404912 183.611312 
L 246.816454 181.298308 
L 248.227995 169.270937 
L 249.639537 184.905831 
L 251.051078 188.492178 
L 252.46262 200.403438 
L 253.874161 187.108997 
L 255.285703 189.611924 
L 256.697244 195.033037 
L 258.108786 197.447481 
L 259.520327 192.747876 
L 260.931869 197.145102 
L 262.34341 200.314175 
L 263.754952 220.626045 
L 266.578035 201.295556 
L 267.989576 195.464272 
L 269.401118 197.405968 
L 270.812659 197.113713 
L 272.224201 187.261183 
L 273.635742 187.08549 
L 275.047284 193.741822 
L 276.458825 189.550213 
L 277.870367 199.469935 
L 279.281908 189.152671 
L 280.69345 193.119185 
L 282.104991 182.150609 
L 283.516533 193.164416 
L 284.928074 198.60058 
L 286.339616 195.400607 
L 287.751157 176.246527 
L 289.162699 182.20913 
L 290.57424 196.443074 
L 291.985782 212.928431 
L 293.397323 210.214796 
L 294.808865 197.539344 
L 296.220406 194.357613 
L 299.043489 188.916137 
L 300.455031 182.357292 
L 301.866572 171.871023 
L 303.278114 176.669151 
L 304.689655 179.625281 
L 306.101197 181.687232 
L 307.512738 179.678119 
L 308.92428 185.826618 
L 310.335821 190.280728 
L 311.747363 201.282161 
L 313.158904 203.568241 
L 314.570446 209.613962 
L 315.981987 202.82065 
L 317.393529 202.539923 
L 318.80507 196.411828 
L 320.216612 196.743275 
L 321.628153 196.795762 
L 323.039695 205.708887 
L 324.451236 206.399686 
L 325.862778 211.222913 
L 327.274319 206.203506 
L 328.685861 215.275699 
L 330.097402 227.04317 
L 331.508944 235.049338 
L 332.920485 230.893623 
L 334.332027 231.014516 
L 335.743568 240.403632 
L 337.15511 242.143466 
L 338.566651 209.55923 
L 339.978193 152.790998 
L 341.389734 131.180415 
L 342.801276 159.879638 
L 344.212817 194.434509 
L 345.624359 194.078898 
L 347.0359 199.039398 
L 348.447442 218.686553 
L 349.858983 244.703586 
L 351.270525 251.750355 
L 352.682066 243.877834 
L 354.093608 225.985777 
L 355.505149 230.404356 
L 358.328232 254.199875 
L 359.739774 252.076606 
L 362.562857 243.017663 
L 363.974398 242.328067 
L 365.38594 241.322359 
L 366.797481 242.707579 
L 368.209023 244.981923 
L 369.620564 243.764543 
L 371.032106 242.927891 
L 372.443647 236.657187 
L 373.855189 247.335431 
L 375.26673 252.068319 
L 376.678272 255.212423 
L 378.089813 242.265414 
L 379.501355 240.610269 
L 380.912896 239.708955 
L 382.324438 232.583033 
L 383.735979 222.156768 
L 385.147521 214.756056 
L 385.147521 214.756056 
" clip-path="url(#pf9a5b3d09f)" style="fill: none; stroke: #2ca02c; stroke-width: 1.5; stroke-linecap: square"/>
   </g>
   <g id="line2d_19">
    <path d="M 29.439063 221.275211 
L 30.850604 236.505406 
L 32.262146 248.478994 
L 33.673687 250.372301 
L 35.085229 258.240554 
L 36.49677 258.641514 
L 37.908312 253.887849 
L 39.319853 250.742613 
L 40.731395 242.558839 
L 42.142936 227.832517 
L 43.554478 226.152528 
L 44.966019 232.537407 
L 46.377561 227.154092 
L 47.789102 239.663468 
L 49.200644 247.949949 
L 50.612185 246.12502 
L 52.023727 254.219959 
L 53.435268 251.824807 
L 54.84681 220.968504 
L 56.258351 205.919399 
L 57.669893 186.135769 
L 59.081434 136.533121 
L 60.492976 133.903952 
L 61.904517 128.780364 
L 63.316059 108.165345 
L 64.7276 154.661857 
L 66.139142 166.381937 
L 67.550683 156.222628 
L 70.373766 174.127491 
L 71.785308 164.056515 
L 73.196849 151.002816 
L 74.608391 139.788926 
L 76.019932 90.161987 
L 77.431474 73.226844 
L 78.843015 79.930908 
L 80.254557 63.162834 
L 81.666098 67.394559 
L 83.07764 87.608872 
L 84.489181 95.307164 
L 85.900723 130.829051 
L 87.312264 130.923693 
L 90.135347 149.07322 
L 91.546889 145.514995 
L 92.95843 165.230701 
L 94.369972 172.15619 
L 95.781513 183.990017 
L 97.193055 198.107108 
L 98.604596 192.195781 
L 100.016138 190.267628 
L 101.427679 190.194295 
L 102.839221 178.776002 
L 104.250762 185.572177 
L 105.662304 190.372599 
L 107.073845 184.54832 
L 108.485387 186.766963 
L 109.896928 189.473261 
L 111.30847 190.069324 
L 112.720011 192.410021 
L 116.954636 195.044354 
L 118.366177 196.351076 
L 119.777719 194.867136 
L 121.18926 189.335364 
L 122.600802 189.603599 
L 124.012343 190.360547 
L 125.423885 189.394825 
L 126.835426 190.342872 
L 128.246968 188.74688 
L 129.658509 192.084855 
L 131.070051 203.69443 
L 132.481592 208.628052 
L 133.893134 214.390906 
L 135.304675 214.306201 
L 136.716217 212.043229 
L 138.127758 210.791529 
L 139.5393 205.110817 
L 140.950841 194.096195 
L 142.362383 181.995215 
L 143.773924 177.300368 
L 145.185466 180.166067 
L 146.597007 188.02426 
L 148.008549 198.022962 
L 150.831632 213.03684 
L 152.243173 228.256977 
L 153.654715 235.194567 
L 155.066256 240.763189 
L 156.477798 244.49752 
L 157.889339 245.259188 
L 160.712422 250.498685 
L 162.123964 249.519384 
L 163.535505 249.59516 
L 164.947047 247.032432 
L 166.358588 241.548346 
L 167.77013 240.987516 
L 170.593213 234.646856 
L 172.004754 235.892398 
L 174.827837 226.256947 
L 176.239379 231.579139 
L 177.65092 236.122417 
L 179.062462 238.507266 
L 180.474003 242.782759 
L 181.885545 238.331566 
L 183.297086 232.634606 
L 184.708628 231.587191 
L 186.120169 239.646891 
L 187.531711 229.193149 
L 188.943252 229.040635 
L 190.354794 225.896331 
L 191.766335 217.632953 
L 193.177877 221.78581 
L 194.589418 212.266073 
L 196.00096 208.065956 
L 197.412501 206.313066 
L 198.824043 213.521109 
L 200.235584 226.061058 
L 201.647126 227.980673 
L 203.058667 222.980288 
L 204.470209 233.074257 
L 205.88175 221.710038 
L 207.293292 228.075685 
L 208.704833 230.662107 
L 210.116375 216.432907 
L 211.527916 221.898783 
L 212.939458 223.537176 
L 214.350999 218.034898 
L 215.762541 235.927619 
L 217.174082 230.806248 
L 218.585624 215.976432 
L 219.997165 216.679967 
L 221.408707 192.041922 
L 222.820248 192.910047 
L 224.23179 202.612348 
L 225.643331 185.877122 
L 227.054873 190.175906 
L 228.466414 204.536808 
L 229.877956 198.448671 
L 231.289497 209.676726 
L 232.701039 211.634562 
L 234.11258 199.686873 
L 235.524122 201.281933 
L 236.935663 206.126362 
L 238.347205 196.71423 
L 239.758746 197.268091 
L 241.170288 196.960725 
L 242.581829 183.923798 
L 243.993371 185.627441 
L 245.404912 185.325715 
L 246.816454 176.313222 
L 248.227995 174.670499 
L 249.639537 188.327129 
L 251.051078 180.177036 
L 253.874161 200.262414 
L 255.285703 183.839538 
L 256.697244 194.796847 
L 258.108786 198.049398 
L 259.520327 188.189868 
L 260.931869 200.271432 
L 262.34341 201.939318 
L 263.754952 207.269481 
L 265.166493 213.289999 
L 266.578035 204.949238 
L 267.989576 203.848238 
L 269.401118 195.139464 
L 270.812659 194.305696 
L 272.224201 193.674278 
L 273.635742 188.888776 
L 275.047284 191.5016 
L 276.458825 187.892686 
L 277.870367 198.041309 
L 279.281908 193.005785 
L 280.69345 187.405469 
L 282.104991 192.869183 
L 283.516533 188.066754 
L 284.928074 194.64471 
L 286.339616 194.587132 
L 287.751157 183.841066 
L 289.162699 186.599767 
L 290.57424 192.921842 
L 291.985782 198.395901 
L 293.397323 211.065593 
L 296.220406 196.858291 
L 297.631948 195.13317 
L 299.043489 187.209652 
L 300.455031 185.572071 
L 301.866572 178.699715 
L 303.278114 175.832866 
L 304.689655 178.493445 
L 306.101197 178.184745 
L 307.512738 181.575194 
L 308.92428 185.331186 
L 310.335821 186.329848 
L 311.747363 196.546057 
L 313.158904 202.936162 
L 314.570446 204.510717 
L 315.981987 205.626636 
L 317.393529 203.868227 
L 318.80507 199.222196 
L 320.216612 195.776348 
L 321.628153 199.414406 
L 323.039695 201.670223 
L 324.451236 203.378204 
L 325.862778 210.206468 
L 327.274319 208.524885 
L 328.685861 210.766072 
L 330.097402 225.546373 
L 332.920485 229.083162 
L 334.332027 236.464788 
L 335.743568 237.497733 
L 337.15511 234.806213 
L 338.566651 221.777563 
L 339.978193 187.059161 
L 341.389734 156.996009 
L 342.801276 152.052377 
L 344.212817 173.746238 
L 345.624359 188.21243 
L 347.0359 199.845473 
L 348.447442 216.297816 
L 351.270525 244.014071 
L 352.682066 246.895303 
L 354.093608 234.888058 
L 355.505149 233.419403 
L 356.916691 239.247932 
L 358.328232 243.609469 
L 359.739774 252.205565 
L 361.151315 251.204953 
L 362.562857 244.342162 
L 363.974398 243.23247 
L 365.38594 243.18381 
L 366.797481 240.595936 
L 368.209023 244.706237 
L 369.620564 244.25254 
L 371.032106 241.813187 
L 372.443647 240.314936 
L 373.855189 246.039879 
L 375.26673 248.270489 
L 376.678272 250.000714 
L 378.089813 249.838473 
L 379.501355 243.336882 
L 380.912896 240.659262 
L 382.324438 232.232699 
L 383.735979 228.85032 
L 385.147521 221.92811 
L 385.147521 221.92811 
" clip-path="url(#pf9a5b3d09f)" style="fill: none; stroke: #d62728; stroke-width: 1.5; stroke-linecap: square"/>
   </g>
   <g id="line2d_20">
    <path d="M 29.439063 222.506149 
L 30.850604 229.225195 
L 32.262146 244.328125 
L 33.673687 247.402355 
L 35.085229 252.954749 
L 36.49677 258.019032 
L 37.908312 257.295259 
L 39.319853 249.2435 
L 40.731395 246.974437 
L 42.142936 234.54074 
L 43.554478 231.861658 
L 44.966019 231.553594 
L 46.377561 227.717781 
L 47.789102 232.012654 
L 49.200644 247.643113 
L 52.023727 246.413994 
L 53.435268 251.305355 
L 54.84681 234.325278 
L 56.258351 214.484016 
L 57.669893 201.387908 
L 59.081434 163.586194 
L 60.492976 129.858474 
L 61.904517 141.397281 
L 63.316059 125.3209 
L 64.7276 134.972888 
L 66.139142 154.989431 
L 67.550683 158.76708 
L 68.962225 155.361922 
L 70.373766 182.873277 
L 71.785308 162.532711 
L 73.196849 145.998895 
L 74.608391 142.271252 
L 76.019932 131.739654 
L 77.431474 80.2958 
L 78.843015 74.469261 
L 80.254557 71.612377 
L 81.666098 73.369884 
L 83.07764 78.170446 
L 84.489181 92.205622 
L 85.900723 114.651386 
L 87.312264 126.98029 
L 88.723806 135.707335 
L 90.135347 141.820322 
L 91.546889 152.338799 
L 92.95843 155.572908 
L 94.369972 168.629853 
L 95.781513 177.501124 
L 97.193055 192.046346 
L 98.604596 191.863517 
L 100.016138 188.562489 
L 101.427679 191.603524 
L 102.839221 188.124556 
L 104.250762 181.447777 
L 105.662304 187.0666 
L 107.073845 187.0915 
L 108.485387 185.34807 
L 109.896928 189.913695 
L 111.30847 190.637736 
L 112.720011 188.763136 
L 115.543094 195.654061 
L 116.954636 195.075047 
L 118.366177 193.860278 
L 119.777719 194.307816 
L 121.18926 192.563919 
L 122.600802 191.542008 
L 125.423885 188.685177 
L 126.835426 188.893792 
L 128.246968 191.078975 
L 129.658509 192.074346 
L 131.070051 199.593102 
L 132.481592 204.565698 
L 133.893134 210.577143 
L 135.304675 212.428944 
L 136.716217 214.907852 
L 138.127758 210.23647 
L 139.5393 207.817891 
L 140.950841 196.188428 
L 142.362383 189.862088 
L 143.773924 182.770205 
L 145.185466 183.291563 
L 146.597007 181.712392 
L 148.008549 193.113415 
L 150.831632 211.463604 
L 153.654715 230.909798 
L 156.477798 242.063784 
L 157.889339 245.919887 
L 159.300881 246.583547 
L 160.712422 248.741635 
L 162.123964 249.036102 
L 163.535505 249.952996 
L 164.947047 247.98217 
L 166.358588 243.701758 
L 167.77013 241.373489 
L 169.181671 240.72956 
L 170.593213 235.993508 
L 172.004754 234.540632 
L 173.416296 232.924776 
L 174.827837 229.099784 
L 176.239379 230.988135 
L 177.65092 235.724345 
L 179.062462 235.091221 
L 180.474003 238.923995 
L 181.885545 240.309621 
L 183.297086 236.532871 
L 184.708628 231.439783 
L 186.120169 239.832571 
L 187.531711 229.288225 
L 188.943252 229.025515 
L 190.354794 226.018762 
L 191.766335 229.776904 
L 193.177877 213.604985 
L 194.589418 215.680869 
L 196.00096 209.062995 
L 197.412501 214.984372 
L 198.824043 210.206824 
L 200.235584 219.314815 
L 201.647126 222.17396 
L 203.058667 226.369517 
L 204.470209 231.430807 
L 205.88175 225.577264 
L 207.293292 223.851206 
L 208.704833 228.555607 
L 210.116375 226.648719 
L 211.527916 216.031922 
L 212.939458 225.28565 
L 214.350999 220.640156 
L 215.762541 231.061495 
L 217.174082 227.73105 
L 218.585624 220.726004 
L 219.997165 215.037011 
L 221.408707 213.157231 
L 222.820248 191.720756 
L 224.23179 196.460668 
L 225.643331 191.350375 
L 227.054873 191.757527 
L 228.466414 201.836996 
L 229.877956 200.792232 
L 231.289497 197.550137 
L 232.701039 211.894043 
L 234.11258 208.846332 
L 235.524122 198.115669 
L 236.935663 203.773183 
L 238.347205 201.828184 
L 239.758746 197.214919 
L 241.170288 195.912493 
L 243.993371 185.115566 
L 245.404912 188.215948 
L 246.816454 179.230873 
L 248.227995 171.901027 
L 249.639537 188.619752 
L 251.051078 183.951829 
L 252.46262 183.070739 
L 253.874161 191.957715 
L 255.285703 195.323676 
L 256.697244 189.316525 
L 258.108786 197.266248 
L 259.520327 190.602066 
L 260.931869 195.331172 
L 262.34341 203.427593 
L 263.754952 207.153921 
L 265.166493 203.660003 
L 266.578035 208.209749 
L 267.989576 206.225655 
L 269.401118 201.968952 
L 270.812659 193.086981 
L 272.224201 192.080368 
L 273.635742 193.671134 
L 275.047284 192.037551 
L 276.458825 187.230909 
L 277.870367 195.127704 
L 279.281908 193.136595 
L 280.69345 190.879234 
L 282.104991 188.360647 
L 283.516533 195.259724 
L 284.928074 190.323195 
L 286.339616 192.16594 
L 287.751157 185.535827 
L 289.162699 190.356327 
L 290.57424 194.157665 
L 291.985782 195.231943 
L 293.397323 199.805793 
L 294.808865 205.75506 
L 296.220406 201.980701 
L 297.631948 196.973377 
L 300.455031 184.857416 
L 301.866572 182.068236 
L 303.278114 180.423619 
L 304.689655 177.468219 
L 306.101197 177.562124 
L 307.512738 178.80059 
L 308.92428 185.690961 
L 310.335821 185.834271 
L 313.158904 198.87215 
L 314.570446 203.82049 
L 315.981987 202.259429 
L 317.393529 205.894119 
L 318.80507 200.979192 
L 320.216612 198.165651 
L 321.628153 198.124359 
L 323.039695 202.74615 
L 324.451236 200.578123 
L 325.862778 207.104849 
L 327.274319 208.241904 
L 328.685861 211.671763 
L 330.097402 220.244674 
L 331.508944 226.078778 
L 332.920485 223.863886 
L 334.332027 233.998962 
L 335.743568 240.383726 
L 337.15511 233.517676 
L 338.566651 219.293385 
L 339.978193 203.251104 
L 341.389734 183.622751 
L 342.801276 167.197618 
L 344.212817 165.252998 
L 345.624359 172.562654 
L 347.0359 194.202864 
L 348.447442 213.618043 
L 349.858983 226.041419 
L 351.270525 232.462632 
L 352.682066 241.448056 
L 354.093608 239.391526 
L 355.505149 238.737845 
L 356.916691 239.787062 
L 358.328232 241.114508 
L 359.739774 244.070253 
L 361.151315 251.48424 
L 362.562857 248.029576 
L 363.974398 244.248661 
L 365.38594 243.731784 
L 366.797481 242.244278 
L 368.209023 242.65733 
L 369.620564 244.176889 
L 371.032106 242.605043 
L 372.443647 239.931252 
L 373.855189 246.935916 
L 375.26673 247.059347 
L 376.678272 247.328921 
L 378.089813 246.558014 
L 379.501355 249.176368 
L 380.912896 242.836748 
L 382.324438 234.590488 
L 383.735979 229.319501 
L 385.147521 227.373291 
L 385.147521 227.373291 
" clip-path="url(#pf9a5b3d09f)" style="fill: none; stroke: #9467bd; stroke-width: 1.5; stroke-linecap: square"/>
   </g>
   <g id="line2d_21">
    <path d="M 29.439063 221.989476 
L 30.850604 228.904971 
L 32.262146 237.483987 
L 33.673687 244.099331 
L 35.085229 250.133055 
L 37.908312 256.994611 
L 39.319853 253.038847 
L 42.142936 239.915086 
L 43.554478 236.632969 
L 44.966019 235.239876 
L 46.377561 227.68395 
L 47.789102 231.670455 
L 49.200644 240.522 
L 50.612185 246.901912 
L 52.023727 247.094508 
L 53.435268 245.135114 
L 54.84681 236.98727 
L 56.258351 227.417148 
L 57.669893 209.558869 
L 60.492976 154.479575 
L 61.904517 136.912814 
L 63.316059 136.626651 
L 64.7276 143.651398 
L 66.139142 138.702995 
L 67.550683 150.24993 
L 68.962225 157.637623 
L 70.373766 172.805614 
L 71.785308 172.308881 
L 73.196849 147.756838 
L 74.608391 139.424444 
L 76.019932 135.249771 
L 77.431474 118.380389 
L 78.843015 80.14313 
L 80.254557 68.347758 
L 81.666098 78.528388 
L 84.489181 83.731536 
L 85.900723 109.142714 
L 87.312264 114.016671 
L 88.723806 131.704446 
L 90.135347 137.894546 
L 91.546889 145.867244 
L 92.95843 159.375849 
L 94.369972 160.199988 
L 95.781513 173.774933 
L 97.193055 185.603024 
L 98.604596 187.691034 
L 101.427679 189.973888 
L 102.839221 189.661866 
L 104.250762 188.720384 
L 105.662304 183.420157 
L 107.073845 184.839306 
L 108.485387 187.32764 
L 109.896928 188.234936 
L 111.30847 190.808875 
L 112.720011 189.459306 
L 114.131553 189.315904 
L 115.543094 194.488321 
L 116.954636 196.222111 
L 118.366177 194.084129 
L 119.777719 192.551171 
L 121.18926 192.477858 
L 122.600802 193.836383 
L 124.012343 191.623847 
L 125.423885 188.740474 
L 126.835426 188.38451 
L 128.246968 189.755489 
L 129.658509 193.432394 
L 131.070051 198.363082 
L 132.481592 201.032618 
L 133.893134 206.925265 
L 135.304675 209.543013 
L 136.716217 213.252545 
L 138.127758 212.963095 
L 139.5393 207.846519 
L 142.362383 192.369156 
L 143.773924 189.197994 
L 146.597007 184.042107 
L 148.008549 187.198671 
L 150.831632 207.540235 
L 152.243173 218.675332 
L 153.654715 224.780796 
L 155.066256 232.725185 
L 157.889339 243.690539 
L 159.300881 246.907814 
L 160.712422 247.474879 
L 162.123964 247.797075 
L 163.535505 249.480254 
L 164.947047 248.556817 
L 166.358588 245.08607 
L 167.77013 243.204053 
L 170.593213 238.815428 
L 172.004754 235.683007 
L 173.416296 232.270423 
L 174.827837 231.130882 
L 176.239379 232.49656 
L 177.65092 234.57189 
L 179.062462 234.929153 
L 180.474003 236.028174 
L 181.885545 237.444895 
L 183.297086 238.514573 
L 184.708628 234.934333 
L 186.120169 238.395766 
L 187.531711 231.266365 
L 188.943252 229.132824 
L 190.354794 226.515892 
L 191.766335 229.239417 
L 193.177877 224.817696 
L 194.589418 209.621523 
L 196.00096 212.522123 
L 198.824043 216.641101 
L 200.235584 215.732855 
L 201.647126 217.061613 
L 203.058667 221.758769 
L 204.470209 232.710465 
L 205.88175 225.409058 
L 207.293292 226.675144 
L 208.704833 224.981941 
L 210.116375 225.516094 
L 211.527916 224.706134 
L 212.939458 219.993368 
L 214.350999 222.621729 
L 215.762541 230.960194 
L 217.174082 224.808205 
L 218.585624 219.699069 
L 219.997165 219.194515 
L 221.408707 212.348296 
L 222.820248 209.65087 
L 224.23179 194.907088 
L 225.643331 187.807324 
L 227.054873 195.211158 
L 228.466414 201.189777 
L 229.877956 199.121299 
L 231.289497 199.667689 
L 232.701039 201.664094 
L 234.11258 209.536309 
L 235.524122 206.137929 
L 236.935663 200.771985 
L 238.347205 200.539284 
L 239.758746 201.393693 
L 242.581829 190.557175 
L 243.993371 190.24811 
L 245.404912 187.367939 
L 246.816454 182.763564 
L 248.227995 175.139954 
L 249.639537 184.260041 
L 252.46262 185.693006 
L 253.874161 186.011723 
L 255.285703 189.053189 
L 256.697244 197.746163 
L 258.108786 192.377572 
L 259.520327 191.188962 
L 260.931869 196.093335 
L 262.34341 198.888857 
L 263.754952 207.49831 
L 266.578035 200.805821 
L 267.989576 208.713277 
L 269.401118 204.293783 
L 270.812659 199.221764 
L 272.224201 191.424833 
L 273.635742 192.344692 
L 275.047284 195.438584 
L 276.458825 188.410429 
L 277.870367 193.421343 
L 279.281908 191.466693 
L 280.69345 191.34645 
L 282.104991 191.086209 
L 283.516533 191.173373 
L 284.928074 195.888562 
L 286.339616 188.934661 
L 287.751157 184.957424 
L 290.57424 195.922878 
L 291.985782 195.865522 
L 293.397323 196.964714 
L 294.808865 196.992366 
L 296.220406 203.993471 
L 297.631948 201.233957 
L 299.043489 193.29733 
L 300.455031 188.48751 
L 301.866572 182.050611 
L 303.278114 182.922867 
L 304.689655 180.997684 
L 306.101197 176.85942 
L 307.512738 178.181248 
L 308.92428 182.759312 
L 310.335821 186.049535 
L 311.747363 190.908696 
L 313.158904 194.995539 
L 314.570446 200.316108 
L 315.981987 202.053777 
L 317.393529 203.05515 
L 318.80507 203.188982 
L 320.216612 199.818307 
L 321.628153 199.700281 
L 323.039695 201.146293 
L 324.451236 201.664569 
L 325.862778 204.221356 
L 327.274319 205.956449 
L 328.685861 210.922625 
L 330.097402 219.423925 
L 331.508944 221.610325 
L 332.920485 223.37897 
L 334.332027 229.049003 
L 335.743568 237.766712 
L 337.15511 236.693885 
L 339.978193 204.185953 
L 341.389734 198.109798 
L 344.212817 175.034151 
L 345.624359 165.669523 
L 347.0359 180.766015 
L 348.447442 207.173387 
L 349.858983 222.415569 
L 351.270525 228.878611 
L 352.682066 232.116043 
L 354.093608 235.824645 
L 355.505149 241.744141 
L 356.916691 242.955834 
L 358.328232 241.247706 
L 359.739774 241.929208 
L 361.151315 244.83055 
L 362.562857 248.808845 
L 363.974398 247.351661 
L 365.38594 244.492239 
L 366.797481 242.862764 
L 368.209023 243.66558 
L 369.620564 242.552297 
L 371.032106 242.817807 
L 372.443647 240.92033 
L 373.855189 245.569599 
L 375.26673 247.629856 
L 376.678272 246.468575 
L 378.089813 244.839602 
L 379.501355 246.543437 
L 380.912896 247.840138 
L 382.324438 237.555391 
L 383.735979 231.830536 
L 385.147521 228.017048 
L 385.147521 228.017048 
" clip-path="url(#pf9a5b3d09f)" style="fill: none; stroke: #8c564b; stroke-width: 1.5; stroke-linecap: square"/>
   </g>
   <g id="line2d_22">
    <path d="M 29.439063 224.216778 
L 30.850604 227.596136 
L 32.262146 236.094002 
L 33.673687 238.285498 
L 35.085229 247.009287 
L 36.49677 251.173405 
L 37.908312 253.38057 
L 39.319853 253.391419 
L 40.731395 250.111493 
L 42.142936 240.35466 
L 43.554478 240.873149 
L 44.966019 238.743918 
L 46.377561 231.524757 
L 47.789102 231.087585 
L 49.200644 239.084283 
L 50.612185 240.893702 
L 52.023727 246.996197 
L 53.435268 245.910647 
L 54.84681 233.085415 
L 56.258351 230.86679 
L 57.669893 221.875268 
L 59.081434 192.984554 
L 60.492976 172.579527 
L 61.904517 156.56697 
L 63.316059 133.393898 
L 64.7276 150.105108 
L 66.139142 145.513232 
L 67.550683 136.739153 
L 68.962225 150.483069 
L 70.373766 172.207681 
L 71.785308 164.739432 
L 73.196849 159.007124 
L 74.608391 141.932814 
L 76.019932 133.752243 
L 78.843015 113.209754 
L 80.254557 74.203567 
L 81.666098 74.821343 
L 83.07764 84.425418 
L 84.489181 85.512302 
L 85.900723 100.005778 
L 87.312264 109.382331 
L 88.723806 120.19955 
L 90.135347 134.191304 
L 91.546889 141.997781 
L 92.95843 153.047456 
L 94.369972 162.735832 
L 95.781513 166.052801 
L 97.193055 181.433711 
L 98.604596 182.665304 
L 100.016138 185.684395 
L 101.427679 190.052933 
L 102.839221 188.528151 
L 104.250762 189.949308 
L 105.662304 189.323584 
L 107.073845 181.997329 
L 108.485387 185.368481 
L 109.896928 189.494891 
L 111.30847 189.251731 
L 112.720011 189.776067 
L 114.131553 189.831957 
L 115.543094 191.63289 
L 116.954636 195.146246 
L 118.366177 195.216294 
L 119.777719 192.932486 
L 121.18926 191.218756 
L 122.600802 193.58218 
L 124.012343 193.580143 
L 125.423885 190.258975 
L 126.835426 188.474989 
L 128.246968 189.198645 
L 129.658509 191.981943 
L 131.070051 198.601115 
L 132.481592 199.784621 
L 133.893134 203.618883 
L 135.304675 206.544268 
L 136.716217 210.681256 
L 138.127758 211.804545 
L 139.5393 210.573035 
L 140.950841 201.272819 
L 143.773924 191.453746 
L 145.185466 191.567199 
L 146.597007 186.873421 
L 148.008549 188.362043 
L 149.42009 191.892493 
L 152.243173 214.499122 
L 153.654715 222.158824 
L 155.066256 227.322903 
L 156.477798 234.922937 
L 157.889339 240.308315 
L 159.300881 244.880253 
L 160.712422 247.623529 
L 162.123964 246.836933 
L 163.535505 248.36133 
L 164.947047 248.346486 
L 166.358588 246.014508 
L 167.77013 244.469403 
L 169.181671 242.710852 
L 170.593213 239.410904 
L 172.004754 238.158751 
L 173.416296 233.598803 
L 174.827837 230.819473 
L 176.239379 233.710105 
L 177.65092 235.321048 
L 179.062462 234.048867 
L 180.474003 235.757231 
L 181.885545 235.145673 
L 183.297086 236.280027 
L 184.708628 236.891486 
L 186.120169 240.248563 
L 187.531711 231.206691 
L 188.943252 230.855381 
L 190.354794 226.97232 
L 191.766335 229.200263 
L 193.177877 225.060755 
L 194.589418 220.171876 
L 196.00096 207.679122 
L 197.412501 216.719103 
L 198.824043 216.123738 
L 200.235584 220.271379 
L 201.647126 214.26839 
L 203.058667 217.436337 
L 204.470209 228.104504 
L 205.88175 227.449084 
L 207.293292 226.376218 
L 208.704833 227.223636 
L 210.116375 222.819885 
L 211.527916 223.999794 
L 212.939458 226.684388 
L 214.350999 218.385403 
L 215.762541 231.107781 
L 217.174082 225.63427 
L 218.585624 218.212387 
L 219.997165 218.52415 
L 221.408707 216.383034 
L 222.820248 209.44702 
L 224.23179 209.664523 
L 225.643331 187.671964 
L 227.054873 191.709338 
L 228.466414 202.671045 
L 229.877956 198.947973 
L 231.289497 198.387136 
L 232.701039 202.852002 
L 234.11258 201.008475 
L 235.524122 207.131896 
L 236.935663 207.18111 
L 238.347205 198.380668 
L 239.758746 200.348606 
L 241.170288 199.87207 
L 242.581829 191.497092 
L 243.993371 190.446999 
L 245.404912 191.399083 
L 246.816454 182.804438 
L 248.227995 178.836405 
L 249.639537 185.145917 
L 251.051078 181.658839 
L 252.46262 186.284838 
L 253.874161 187.806378 
L 255.285703 184.297498 
L 256.697244 192.130815 
L 258.108786 199.063592 
L 259.520327 187.727666 
L 260.931869 195.808404 
L 262.34341 199.024939 
L 263.754952 203.154815 
L 265.166493 204.902638 
L 266.578035 201.663825 
L 267.989576 202.345891 
L 269.401118 206.736348 
L 270.812659 201.650842 
L 272.224201 196.995616 
L 273.635742 191.746216 
L 275.047284 194.064329 
L 276.458825 191.922213 
L 277.870367 193.527147 
L 279.281908 190.499864 
L 280.69345 190.157175 
L 282.104991 191.456708 
L 283.516533 193.073793 
L 284.928074 192.318328 
L 286.339616 193.959995 
L 287.751157 183.119016 
L 290.57424 195.385749 
L 291.985782 197.120655 
L 293.397323 197.255697 
L 294.808865 194.920628 
L 296.220406 196.680503 
L 297.631948 203.076989 
L 299.043489 197.57802 
L 300.455031 190.830877 
L 301.866572 185.624953 
L 303.278114 182.786056 
L 304.689655 183.053444 
L 306.101197 179.987536 
L 307.512738 177.492985 
L 308.92428 181.681811 
L 310.335821 183.494688 
L 311.747363 190.37394 
L 313.158904 193.456085 
L 314.570446 196.827227 
L 315.981987 199.273135 
L 317.393529 202.7665 
L 318.80507 201.103242 
L 320.216612 201.896283 
L 321.628153 200.885534 
L 323.039695 202.043694 
L 324.451236 200.439377 
L 325.862778 204.616121 
L 327.274319 203.633554 
L 328.685861 208.62509 
L 330.097402 217.74467 
L 331.508944 220.720925 
L 332.920485 219.863341 
L 334.332027 227.927071 
L 335.743568 233.158476 
L 337.15511 234.910488 
L 338.566651 225.785975 
L 339.978193 207.941713 
L 341.389734 199.687402 
L 342.801276 198.707123 
L 344.212817 190.269042 
L 345.624359 174.012436 
L 347.0359 174.001014 
L 349.858983 216.068495 
L 351.270525 225.453198 
L 352.682066 229.092188 
L 354.093608 228.265121 
L 355.505149 238.433858 
L 356.916691 244.842663 
L 358.328232 243.724589 
L 359.739774 241.926549 
L 361.151315 242.904976 
L 362.562857 243.356351 
L 363.974398 248.122206 
L 365.38594 247.117699 
L 366.797481 243.645552 
L 368.209023 243.986768 
L 369.620564 243.433191 
L 371.032106 241.603178 
L 372.443647 241.348576 
L 373.855189 245.588154 
L 376.678272 247.045601 
L 378.089813 244.443331 
L 380.912896 245.747859 
L 382.324438 242.868152 
L 383.735979 234.842259 
L 385.147521 230.38515 
L 385.147521 230.38515 
" clip-path="url(#pf9a5b3d09f)" style="fill: none; stroke: #e377c2; stroke-width: 1.5; stroke-linecap: square"/>
   </g>
   <g id="patch_3">
    <path d="M 29.439063 284.991437 
L 29.439063 18.879437 
" style="fill: none; stroke: #000000; stroke-width: 0.8; stroke-linejoin: miter; stroke-linecap: square"/>
   </g>
   <g id="patch_4">
    <path d="M 386.559062 284.991437 
L 386.559062 18.879437 
" style="fill: none; stroke: #000000; stroke-width: 0.8; stroke-linejoin: miter; stroke-linecap: square"/>
   </g>
   <g id="patch_5">
    <path d="M 29.439063 284.991437 
L 386.559063 284.991437 
" style="fill: none; stroke: #000000; stroke-width: 0.8; stroke-linejoin: miter; stroke-linecap: square"/>
   </g>
   <g id="patch_6">
    <path d="M 29.439063 18.879437 
L 386.559063 18.879437 
" style="fill: none; stroke: #000000; stroke-width: 0.8; stroke-linejoin: miter; stroke-linecap: square"/>
   </g>
   <g id="legend_1">
    <g id="patch_7">
     <path d="M 188.849844 127.613812 
L 227.148281 127.613812 
Q 229.148281 127.613812 229.148281 125.613812 
L 229.148281 25.879437 
Q 229.148281 23.879437 227.148281 23.879437 
L 188.849844 23.879437 
Q 186.849844 23.879437 186.849844 25.879437 
L 186.849844 125.613812 
Q 186.849844 127.613812 188.849844 127.613812 
z
" style="fill: #ffffff; opacity: 0.8; stroke: #cccccc; stroke-linejoin: miter"/>
    </g>
    <g id="line2d_23">
     <path d="M 190.849844 31.870062 
L 200.849844 31.870062 
L 210.849844 31.870062 
" style="fill: none; stroke: #1f77b4; stroke-width: 1.5; stroke-linecap: square"/>
    </g>
    <g id="text_15">
     <!-- 1 -->
     <g transform="translate(218.849844 35.370062) scale(0.1 -0.1)">
      <use xlink:href="#IPAexGothic-31"/>
     </g>
    </g>
    <g id="line2d_24">
     <path d="M 190.849844 46.260687 
L 200.849844 46.260687 
L 210.849844 46.260687 
" style="fill: none; stroke: #ff7f0e; stroke-width: 1.5; stroke-linecap: square"/>
    </g>
    <g id="text_16">
     <!-- 2 -->
     <g transform="translate(218.849844 49.760687) scale(0.1 -0.1)">
      <use xlink:href="#IPAexGothic-32"/>
     </g>
    </g>
    <g id="line2d_25">
     <path d="M 190.849844 60.651312 
L 200.849844 60.651312 
L 210.849844 60.651312 
" style="fill: none; stroke: #2ca02c; stroke-width: 1.5; stroke-linecap: square"/>
    </g>
    <g id="text_17">
     <!-- 3 -->
     <g transform="translate(218.849844 64.151312) scale(0.1 -0.1)">
      <use xlink:href="#IPAexGothic-33"/>
     </g>
    </g>
    <g id="line2d_26">
     <path d="M 190.849844 75.041937 
L 200.849844 75.041937 
L 210.849844 75.041937 
" style="fill: none; stroke: #d62728; stroke-width: 1.5; stroke-linecap: square"/>
    </g>
    <g id="text_18">
     <!-- 4 -->
     <g transform="translate(218.849844 78.541937) scale(0.1 -0.1)">
      <defs>
       <path id="IPAexGothic-34" d="M 3813 1159 
L 3059 1159 
L 3059 63 
L 2547 63 
L 2547 1159 
L 197 1159 
L 197 1672 
L 2456 4678 
L 3059 4678 
L 3059 1634 
L 3813 1634 
L 3813 1159 
z
M 2578 4109 
L 2559 4109 
Q 2278 3656 2003 3284 
L 759 1634 
L 2547 1634 
L 2547 3144 
Q 2547 3481 2578 4109 
z
" transform="scale(0.015625)"/>
      </defs>
      <use xlink:href="#IPAexGothic-34"/>
     </g>
    </g>
    <g id="line2d_27">
     <path d="M 190.849844 89.432562 
L 200.849844 89.432562 
L 210.849844 89.432562 
" style="fill: none; stroke: #9467bd; stroke-width: 1.5; stroke-linecap: square"/>
    </g>
    <g id="text_19">
     <!-- 5 -->
     <g transform="translate(218.849844 92.932562) scale(0.1 -0.1)">
      <use xlink:href="#IPAexGothic-35"/>
     </g>
    </g>
    <g id="line2d_28">
     <path d="M 190.849844 103.823187 
L 200.849844 103.823187 
L 210.849844 103.823187 
" style="fill: none; stroke: #8c564b; stroke-width: 1.5; stroke-linecap: square"/>
    </g>
    <g id="text_20">
     <!-- 6 -->
     <g transform="translate(218.849844 107.323187) scale(0.1 -0.1)">
      <defs>
       <path id="IPAexGothic-36" d="M 1056 2328 
Q 1509 2981 2234 2981 
Q 2906 2981 3316 2513 
Q 3675 2106 3675 1522 
Q 3675 884 3272 434 
Q 2853 -31 2178 -31 
Q 1375 -31 922 581 
Q 481 1178 481 2228 
Q 481 3425 1013 4109 
Q 1494 4725 2272 4725 
Q 3191 4725 3609 4025 
L 3150 3775 
Q 2894 4266 2300 4266 
Q 1119 4266 1031 2328 
L 1056 2328 
z
M 2141 2547 
Q 1684 2547 1384 2206 
Q 1116 1900 1116 1541 
Q 1116 1156 1353 844 
Q 1672 428 2159 428 
Q 2669 428 2941 844 
Q 3125 1128 3125 1503 
Q 3125 1944 2881 2228 
Q 2600 2547 2141 2547 
z
" transform="scale(0.015625)"/>
      </defs>
      <use xlink:href="#IPAexGothic-36"/>
     </g>
    </g>
    <g id="line2d_29">
     <path d="M 190.849844 118.213812 
L 200.849844 118.213812 
L 210.849844 118.213812 
" style="fill: none; stroke: #e377c2; stroke-width: 1.5; stroke-linecap: square"/>
    </g>
    <g id="text_21">
     <!-- 7 -->
     <g transform="translate(218.849844 121.713812) scale(0.1 -0.1)">
      <defs>
       <path id="IPAexGothic-37" d="M 3597 4263 
Q 2238 2106 1778 63 
L 1131 63 
Q 1581 1834 2950 4128 
L 428 4128 
L 428 4634 
L 3597 4634 
L 3597 4263 
z
" transform="scale(0.015625)"/>
      </defs>
      <use xlink:href="#IPAexGothic-37"/>
     </g>
    </g>
   </g>
  </g>
  <g id="axes_2">
   <g id="matplotlib.axis_3"/>
   <g id="patch_8">
    <path d="M 29.439063 284.991437 
L 29.439063 18.879437 
" style="fill: none; stroke: #000000; stroke-width: 0.8; stroke-linejoin: miter; stroke-linecap: square"/>
   </g>
   <g id="patch_9">
    <path d="M 386.559062 284.991437 
L 386.559062 18.879437 
" style="fill: none; stroke: #000000; stroke-width: 0.8; stroke-linejoin: miter; stroke-linecap: square"/>
   </g>
   <g id="patch_10">
    <path d="M 29.439063 284.991437 
L 386.559063 284.991437 
" style="fill: none; stroke: #000000; stroke-width: 0.8; stroke-linejoin: miter; stroke-linecap: square"/>
   </g>
   <g id="patch_11">
    <path d="M 29.439063 18.879437 
L 386.559063 18.879437 
" style="fill: none; stroke: #000000; stroke-width: 0.8; stroke-linejoin: miter; stroke-linecap: square"/>
   </g>
  </g>
  <g id="text_22">
   <!-- : 2023/02/08 16:15:01(JST) -->
   <g transform="translate(211.087188 15.423437) scale(0.1 -0.1)">
    <defs>
     <path id="IPAexGothic-66f4" d="M 2956 3994 
L 2956 4588 
L 513 4588 
L 513 4984 
L 5881 4984 
L 5881 4588 
L 3413 4588 
L 3413 3994 
L 5300 3994 
L 5300 1288 
L 4838 1288 
L 4838 1759 
L 3406 1759 
Q 3384 1125 3150 709 
Q 4291 244 5997 31 
L 5694 -428 
Q 4109 -166 2906 384 
Q 2294 -266 744 -488 
L 494 -66 
Q 1903 59 2491 588 
Q 2041 813 1594 1166 
L 1928 1434 
Q 2331 1106 2747 897 
Q 2922 1219 2950 1759 
L 1556 1759 
L 1556 1413 
L 1097 1413 
L 1097 3994 
L 2956 3994 
z
M 2956 3609 
L 1556 3609 
L 1556 3078 
L 2956 3078 
L 2956 3609 
z
M 3413 3609 
L 3413 3078 
L 4838 3078 
L 4838 3609 
L 3413 3609 
z
M 2956 2700 
L 1556 2700 
L 1556 2144 
L 2956 2144 
L 2956 2700 
z
M 3413 2700 
L 3413 2144 
L 4838 2144 
L 4838 2700 
L 3413 2700 
z
" transform="scale(0.015625)"/>
     <path id="IPAexGothic-65b0" d="M 3891 2803 
Q 3881 1759 3794 1166 
Q 3653 197 3097 -563 
L 2741 -250 
Q 3450 700 3450 2631 
L 3450 4647 
Q 3516 4656 3622 4666 
Q 4656 4778 5447 5063 
L 5825 4678 
Q 4897 4419 3891 4294 
L 3891 3219 
L 6119 3219 
L 6119 2803 
L 5275 2803 
L 5275 -447 
L 4834 -447 
L 4834 2803 
L 3891 2803 
z
M 2822 4069 
Q 2678 3572 2519 3181 
L 3250 3181 
L 3250 2784 
L 2059 2784 
L 2059 2216 
L 3184 2216 
L 3184 1831 
L 2059 1831 
L 2059 1544 
Q 2613 1197 3031 847 
L 2781 456 
Q 2472 791 2059 1128 
L 2059 -447 
L 1644 -447 
L 1644 1294 
Q 1272 628 575 -31 
L 269 341 
Q 1041 938 1528 1831 
L 453 1831 
L 453 2216 
L 1644 2216 
L 1644 2784 
L 319 2784 
L 319 3181 
L 1125 3181 
Q 1013 3706 881 4069 
L 453 4069 
L 453 4453 
L 1631 4453 
L 1631 5309 
L 2072 5309 
L 2072 4453 
L 3166 4453 
L 3166 4069 
L 2822 4069 
z
M 2391 4069 
L 1325 4069 
Q 1450 3672 1534 3181 
L 2109 3181 
Q 2294 3659 2391 4069 
z
" transform="scale(0.015625)"/>
     <path id="IPAexGothic-65e5" d="M 5231 4800 
L 5231 -288 
L 4744 -288 
L 4744 128 
L 1647 128 
L 1647 -288 
L 1159 -288 
L 1159 4800 
L 5231 4800 
z
M 1647 4372 
L 1647 2731 
L 4744 2731 
L 4744 4372 
L 1647 4372 
z
M 1647 2297 
L 1647 556 
L 4744 556 
L 4744 2297 
L 1647 2297 
z
" transform="scale(0.015625)"/>
     <path id="IPAexGothic-6642" d="M 2328 4728 
L 2328 563 
L 934 563 
L 934 56 
L 519 56 
L 519 4728 
L 2328 4728 
z
M 934 4331 
L 934 2881 
L 1906 2881 
L 1906 4331 
L 934 4331 
z
M 934 2497 
L 934 953 
L 1906 953 
L 1906 2497 
L 934 2497 
z
M 3938 4372 
L 3938 5313 
L 4378 5313 
L 4378 4372 
L 5772 4372 
L 5772 3981 
L 4378 3981 
L 4378 3194 
L 6072 3194 
L 6072 2803 
L 5203 2803 
L 5203 2047 
L 5959 2047 
L 5959 1650 
L 5216 1650 
L 5216 31 
Q 5216 -447 4691 -447 
Q 4394 -447 3888 -391 
L 3784 78 
Q 4272 0 4591 0 
Q 4775 0 4775 172 
L 4775 1650 
L 2581 1650 
L 2581 2047 
L 4763 2047 
L 4763 2803 
L 2538 2803 
L 2538 3194 
L 3938 3194 
L 3938 3981 
L 2716 3981 
L 2716 4372 
L 3938 4372 
z
M 3669 384 
Q 3331 950 2956 1325 
L 3291 1575 
Q 3719 1147 4025 659 
L 3669 384 
z
" transform="scale(0.015625)"/>
     <path id="IPAexGothic-3a" d="M 1369 2559 
L 672 2559 
L 672 3250 
L 1369 3250 
L 1369 2559 
z
M 1369 63 
L 672 63 
L 672 753 
L 1369 753 
L 1369 63 
z
" transform="scale(0.015625)"/>
     <path id="IPAexGothic-20" transform="scale(0.015625)"/>
     <path id="IPAexGothic-2f" d="M 2719 4709 
L 600 -884 
L 300 -763 
L 2413 4831 
L 2719 4709 
z
" transform="scale(0.015625)"/>
     <path id="IPAexGothic-38" d="M 2541 2425 
Q 3700 2031 3700 1197 
Q 3700 541 3100 197 
Q 2663 -56 2016 -56 
Q 1366 -56 928 197 
Q 347 531 347 1178 
Q 347 1988 1409 2381 
L 1409 2400 
Q 481 2734 481 3509 
Q 481 4100 981 4456 
Q 1406 4756 2019 4756 
Q 2703 4756 3131 4403 
Q 3553 4069 3553 3566 
Q 3553 2706 2541 2444 
L 2541 2425 
z
M 2022 2625 
Q 2997 2856 2997 3528 
Q 2997 3916 2675 4150 
Q 2413 4347 2016 4347 
Q 1606 4347 1331 4128 
Q 1050 3897 1050 3522 
Q 1050 3150 1350 2925 
Q 1494 2809 1722 2722 
Q 1984 2616 2022 2625 
z
M 1978 2209 
Q 922 1931 922 1216 
Q 922 775 1313 556 
Q 1606 391 2009 391 
Q 2575 391 2881 697 
Q 3106 922 3106 1250 
Q 3106 1594 2794 1850 
Q 2609 1994 2350 2100 
Q 2047 2222 1978 2209 
z
" transform="scale(0.015625)"/>
     <path id="IPAexGothic-28" d="M 1928 -1016 
L 1653 -1166 
Q 488 69 488 1875 
Q 488 3678 1653 4909 
L 1928 4763 
Q 1006 3522 1006 1881 
Q 1006 203 1928 -1016 
z
" transform="scale(0.015625)"/>
     <path id="IPAexGothic-54" d="M 3866 4141 
L 2175 4141 
L 2175 63 
L 1606 63 
L 1606 4141 
L -31 4141 
L -31 4634 
L 3866 4634 
L 3866 4141 
z
" transform="scale(0.015625)"/>
     <path id="IPAexGothic-29" d="M 466 4909 
Q 1638 3672 1638 1875 
Q 1638 75 466 -1166 
L 191 -1016 
Q 1119 216 1119 1881 
Q 1119 3509 191 4763 
L 466 4909 
z
" transform="scale(0.015625)"/>
    </defs>
    <use xlink:href="#IPAexGothic-66f4"/>
    <use xlink:href="#IPAexGothic-65b0" x="100"/>
    <use xlink:href="#IPAexGothic-65e5" x="200"/>
    <use xlink:href="#IPAexGothic-6642" x="300"/>
    <use xlink:href="#IPAexGothic-3a" x="400"/>
    <use xlink:href="#IPAexGothic-20" x="431.982422"/>
    <use xlink:href="#IPAexGothic-32" x="458.984375"/>
    <use xlink:href="#IPAexGothic-30" x="521.972656"/>
    <use xlink:href="#IPAexGothic-32" x="584.960938"/>
    <use xlink:href="#IPAexGothic-33" x="647.949219"/>
    <use xlink:href="#IPAexGothic-2f" x="710.9375"/>
    <use xlink:href="#IPAexGothic-30" x="760.9375"/>
    <use xlink:href="#IPAexGothic-32" x="823.925781"/>
    <use xlink:href="#IPAexGothic-2f" x="886.914062"/>
    <use xlink:href="#IPAexGothic-30" x="936.914062"/>
    <use xlink:href="#IPAexGothic-38" x="999.902344"/>
    <use xlink:href="#IPAexGothic-20" x="1062.890625"/>
    <use xlink:href="#IPAexGothic-31" x="1089.892578"/>
    <use xlink:href="#IPAexGothic-36" x="1152.880859"/>
    <use xlink:href="#IPAexGothic-3a" x="1215.869141"/>
    <use xlink:href="#IPAexGothic-31" x="1247.851562"/>
    <use xlink:href="#IPAexGothic-35" x="1310.839844"/>
    <use xlink:href="#IPAexGothic-3a" x="1373.828125"/>
    <use xlink:href="#IPAexGothic-30" x="1405.810547"/>
    <use xlink:href="#IPAexGothic-31" x="1468.798828"/>
    <use xlink:href="#IPAexGothic-28" x="1531.787109"/>
    <use xlink:href="#IPAexGothic-4a" x="1565.087891"/>
    <use xlink:href="#IPAexGothic-53" x="1603.076172"/>
    <use xlink:href="#IPAexGothic-54" x="1661.572266"/>
    <use xlink:href="#IPAexGothic-29" x="1721.484375"/>
   </g>
  </g>
 </g>
 <defs>
  <clipPath id="pf9a5b3d09f">
   <rect x="29.439063" y="18.879437" width="357.12" height="266.112"/>
  </clipPath>
 </defs>
</svg>
