<?xml version="1.0" encoding="utf-8" standalone="no"?>
<!DOCTYPE svg PUBLIC "-//W3C//DTD SVG 1.1//EN"
  "http://www.w3.org/Graphics/SVG/1.1/DTD/svg11.dtd">
<svg xmlns:xlink="http://www.w3.org/1999/xlink" width="393.759062pt" height="308.582062pt" viewBox="0 0 393.759062 308.582062" xmlns="http://www.w3.org/2000/svg" version="1.1">
 <metadata>
  <rdf:RDF xmlns:dc="http://purl.org/dc/elements/1.1/" xmlns:cc="http://creativecommons.org/ns#" xmlns:rdf="http://www.w3.org/1999/02/22-rdf-syntax-ns#">
   <cc:Work>
    <dc:type rdf:resource="http://purl.org/dc/dcmitype/StillImage"/>
    <dc:date>2023-02-21T07:14:56.353226</dc:date>
    <dc:format>image/svg+xml</dc:format>
    <dc:creator>
     <cc:Agent>
      <dc:title>Matplotlib v3.7.0, https://matplotlib.org/</dc:title>
     </cc:Agent>
    </dc:creator>
   </cc:Work>
  </rdf:RDF>
 </metadata>
 <defs>
  <style type="text/css">*{stroke-linejoin: round; stroke-linecap: butt}</style>
 </defs>
 <g id="figure_1">
  <g id="patch_1">
   <path d="M 0 308.582062 
L 393.759062 308.582062 
L 393.759062 0 
L 0 0 
z
" style="fill: #ffffff"/>
  </g>
  <g id="axes_1">
   <g id="patch_2">
    <path d="M 29.439063 284.991437 
L 386.559062 284.991437 
L 386.559062 18.879437 
L 29.439063 18.879437 
z
" style="fill: #ffffff"/>
   </g>
   <g id="line2d_1">
    <path d="M 29.439063 211.199039 
L 386.559062 211.199039 
" clip-path="url(#pfc0d9dea33)" style="fill: none; stroke: #000000; stroke-linecap: square"/>
   </g>
   <g id="matplotlib.axis_1">
    <g id="xtick_1">
     <g id="line2d_2">
      <defs>
       <path id="me99a752ffa" d="M 0 0 
L 0 3.5 
" style="stroke: #000000; stroke-width: 0.8"/>
      </defs>
      <g>
       <use xlink:href="#me99a752ffa" x="29.439063" y="284.991437" style="stroke: #000000; stroke-width: 0.8"/>
      </g>
     </g>
     <g id="text_1">
      <!-- Jun -->
      <g transform="translate(21.499219 299.482062) scale(0.1 -0.1)">
       <defs>
        <path id="IPAexGothic-4a" d="M 1819 4634 
L 1819 1234 
Q 1819 -31 763 -31 
Q 303 -31 -125 209 
L 84 644 
Q 378 447 694 447 
Q 1250 447 1250 1203 
L 1250 4634 
L 1819 4634 
z
" transform="scale(0.015625)"/>
        <path id="IPAexGothic-75" d="M 3284 63 
L 2772 63 
L 2772 644 
Q 2300 0 1625 0 
Q 1072 0 763 375 
Q 519 678 519 1241 
L 519 3250 
L 1069 3250 
L 1069 1259 
Q 1069 466 1734 466 
Q 2406 466 2734 1291 
L 2734 3250 
L 3284 3250 
L 3284 63 
z
" transform="scale(0.015625)"/>
        <path id="IPAexGothic-6e" d="M 3328 63 
L 2778 63 
L 2778 2041 
Q 2778 2853 2106 2853 
Q 1428 2853 1113 2041 
L 1113 63 
L 563 63 
L 563 3250 
L 1075 3250 
L 1075 2675 
Q 1525 3316 2222 3316 
Q 3328 3316 3328 2072 
L 3328 63 
z
" transform="scale(0.015625)"/>
       </defs>
       <use xlink:href="#IPAexGothic-4a"/>
       <use xlink:href="#IPAexGothic-75" x="37.988281"/>
       <use xlink:href="#IPAexGothic-6e" x="98.388672"/>
      </g>
     </g>
    </g>
    <g id="xtick_2">
     <g id="line2d_3">
      <g>
       <use xlink:href="#me99a752ffa" x="69.715754" y="284.991437" style="stroke: #000000; stroke-width: 0.8"/>
      </g>
     </g>
     <g id="text_2">
      <!-- Jul -->
      <g transform="translate(63.446223 299.482062) scale(0.1 -0.1)">
       <defs>
        <path id="IPAexGothic-6c" d="M 1131 63 
L 581 63 
L 581 4794 
L 1131 4794 
L 1131 63 
z
" transform="scale(0.015625)"/>
       </defs>
       <use xlink:href="#IPAexGothic-4a"/>
       <use xlink:href="#IPAexGothic-75" x="37.988281"/>
       <use xlink:href="#IPAexGothic-6c" x="98.388672"/>
      </g>
     </g>
    </g>
    <g id="xtick_3">
     <g id="line2d_4">
      <g>
       <use xlink:href="#me99a752ffa" x="111.335002" y="284.991437" style="stroke: #000000; stroke-width: 0.8"/>
      </g>
     </g>
     <g id="text_3">
      <!-- Aug -->
      <g transform="translate(102.352971 299.42425) scale(0.1 -0.1)">
       <defs>
        <path id="IPAexGothic-41" d="M 4056 63 
L 3444 63 
L 2938 1409 
L 1100 1409 
L 603 63 
L -6 63 
L 1806 4666 
L 2259 4666 
L 4056 63 
z
M 2778 1863 
L 2316 3078 
Q 2125 3588 2028 4000 
L 2009 4000 
Q 1897 3563 1716 3078 
L 1263 1863 
L 2778 1863 
z
" transform="scale(0.015625)"/>
        <path id="IPAexGothic-67" d="M 1331 1150 
Q 1006 1122 1006 900 
Q 1006 613 1763 575 
L 2131 556 
Q 3303 497 3303 -294 
Q 3303 -700 2925 -959 
Q 2519 -1253 1794 -1253 
Q 1138 -1253 738 -1028 
Q 353 -809 353 -428 
Q 353 84 1075 247 
L 1075 269 
Q 506 413 506 778 
Q 506 1116 994 1297 
Q 456 1575 456 2181 
Q 456 2650 769 2963 
Q 1128 3322 1738 3322 
Q 2125 3322 2422 3153 
Q 2650 3453 3259 3463 
L 3259 3013 
Q 2838 3003 2703 2938 
Q 3034 2613 3034 2169 
Q 3034 1728 2734 1425 
Q 2400 1094 1813 1094 
Q 1563 1094 1331 1150 
z
M 1734 2919 
Q 1409 2919 1197 2706 
Q 988 2497 988 2181 
Q 988 1872 1184 1684 
Q 1397 1472 1756 1472 
Q 2094 1472 2297 1678 
Q 2503 1881 2503 2203 
Q 2503 2497 2297 2700 
Q 2081 2919 1734 2919 
z
M 1753 159 
Q 903 159 903 -366 
Q 903 -875 1800 -875 
Q 2378 -875 2638 -606 
Q 2772 -481 2772 -313 
Q 2772 159 1753 159 
z
" transform="scale(0.015625)"/>
       </defs>
       <use xlink:href="#IPAexGothic-41"/>
       <use xlink:href="#IPAexGothic-75" x="63.720703"/>
       <use xlink:href="#IPAexGothic-67" x="124.121094"/>
      </g>
     </g>
    </g>
    <g id="xtick_4">
     <g id="line2d_5">
      <g>
       <use xlink:href="#me99a752ffa" x="152.95425" y="284.991437" style="stroke: #000000; stroke-width: 0.8"/>
      </g>
     </g>
     <g id="text_4">
      <!-- Sep -->
      <g transform="translate(144.07925 299.482062) scale(0.1 -0.1)">
       <defs>
        <path id="IPAexGothic-53" d="M 2919 3641 
Q 2563 4259 1853 4259 
Q 1453 4259 1213 4009 
Q 1028 3803 1028 3534 
Q 1028 3238 1266 3047 
Q 1444 2913 1984 2688 
L 2200 2597 
Q 2925 2306 3191 1953 
Q 3422 1644 3422 1259 
Q 3422 644 2969 288 
Q 2559 -31 1931 -31 
Q 881 -31 313 766 
L 753 1100 
Q 1203 459 1938 459 
Q 2288 459 2534 625 
Q 2841 847 2841 1216 
Q 2841 1503 2616 1728 
Q 2375 1959 1728 2206 
L 1541 2278 
Q 453 2694 453 3481 
Q 453 4006 806 4347 
Q 1203 4725 1863 4725 
Q 2841 4725 3359 3956 
L 2919 3641 
z
" transform="scale(0.015625)"/>
        <path id="IPAexGothic-65" d="M 863 1594 
Q 891 1041 1209 722 
Q 1534 397 1997 397 
Q 2606 397 2963 966 
L 3322 728 
Q 2869 -31 1931 -31 
Q 1222 -31 766 422 
Q 306 884 306 1641 
Q 306 2444 788 2925 
Q 1216 3353 1856 3353 
Q 2459 3353 2866 2956 
Q 3322 2494 3322 1722 
L 3322 1594 
L 863 1594 
z
M 2756 1997 
Q 2709 2431 2450 2681 
Q 2194 2938 1844 2938 
Q 1438 2938 1150 2591 
Q 953 2356 894 1997 
L 2756 1997 
z
" transform="scale(0.015625)"/>
        <path id="IPAexGothic-70" d="M 1075 2688 
Q 1525 3341 2206 3341 
Q 2769 3341 3172 2938 
Q 3641 2469 3641 1644 
Q 3641 841 3178 372 
Q 2775 -31 2200 -31 
Q 1569 -31 1106 497 
L 1106 -1216 
L 563 -1216 
L 563 3250 
L 1075 3250 
L 1075 2688 
z
M 1106 1950 
L 1106 1291 
Q 1106 897 1516 600 
Q 1791 403 2106 403 
Q 2469 403 2725 659 
Q 3066 997 3066 1631 
Q 3066 2200 2784 2559 
Q 2503 2900 2100 2900 
Q 1656 2900 1338 2484 
Q 1106 2184 1106 1950 
z
" transform="scale(0.015625)"/>
       </defs>
       <use xlink:href="#IPAexGothic-53"/>
       <use xlink:href="#IPAexGothic-65" x="58.496094"/>
       <use xlink:href="#IPAexGothic-70" x="115.380859"/>
      </g>
     </g>
    </g>
    <g id="xtick_5">
     <g id="line2d_6">
      <g>
       <use xlink:href="#me99a752ffa" x="193.230942" y="284.991437" style="stroke: #000000; stroke-width: 0.8"/>
      </g>
     </g>
     <g id="text_5">
      <!-- Oct -->
      <g transform="translate(184.795786 299.482062) scale(0.1 -0.1)">
       <defs>
        <path id="IPAexGothic-4f" d="M 2541 4725 
Q 3456 4725 4044 4138 
Q 4709 3472 4709 2331 
Q 4709 1219 4031 550 
Q 3450 -31 2541 -31 
Q 1638 -31 1056 550 
Q 378 1219 378 2356 
Q 378 3469 1044 4138 
Q 1631 4725 2541 4725 
z
M 2541 4266 
Q 1953 4266 1531 3844 
Q 994 3303 994 2350 
Q 994 1391 1531 863 
Q 1947 447 2541 447 
Q 3131 447 3556 863 
Q 4094 1400 4094 2375 
Q 4094 3297 3550 3844 
Q 3138 4266 2541 4266 
z
" transform="scale(0.015625)"/>
        <path id="IPAexGothic-63" d="M 3269 784 
Q 2834 -31 1900 -31 
Q 1228 -31 788 409 
Q 313 891 313 1663 
Q 313 2428 788 2913 
Q 1222 3347 1881 3347 
Q 2813 3347 3206 2541 
L 2763 2309 
Q 2484 2900 1900 2900 
Q 1516 2900 1234 2619 
Q 881 2266 881 1650 
Q 881 1069 1222 728 
Q 1522 428 1956 428 
Q 2547 428 2847 1016 
L 3269 784 
z
" transform="scale(0.015625)"/>
        <path id="IPAexGothic-74" d="M 2125 241 
Q 1769 -6 1397 -6 
Q 653 -6 653 831 
L 653 2859 
L 219 2859 
L 219 3250 
L 653 3250 
L 653 3966 
L 1178 4228 
L 1178 3250 
L 2063 3250 
L 2063 2859 
L 1178 2859 
L 1178 906 
Q 1178 416 1513 416 
Q 1738 416 1941 588 
L 2125 241 
z
" transform="scale(0.015625)"/>
       </defs>
       <use xlink:href="#IPAexGothic-4f"/>
       <use xlink:href="#IPAexGothic-63" x="79.6875"/>
       <use xlink:href="#IPAexGothic-74" x="134.082031"/>
      </g>
     </g>
    </g>
    <g id="xtick_6">
     <g id="line2d_7">
      <g>
       <use xlink:href="#me99a752ffa" x="234.85019" y="284.991437" style="stroke: #000000; stroke-width: 0.8"/>
      </g>
     </g>
     <g id="text_6">
      <!-- Nov -->
      <g transform="translate(225.601753 299.482062) scale(0.1 -0.1)">
       <defs>
        <path id="IPAexGothic-4e" d="M 4244 63 
L 3731 63 
L 1697 3150 
Q 1466 3500 1141 4097 
L 1116 4097 
L 1128 3797 
Q 1159 2803 1159 2469 
L 1159 63 
L 609 63 
L 609 4634 
L 1366 4634 
L 3113 1978 
Q 3453 1447 3713 966 
L 3738 966 
Q 3694 1897 3694 2469 
L 3694 4634 
L 4244 4634 
L 4244 63 
z
" transform="scale(0.015625)"/>
        <path id="IPAexGothic-6f" d="M 1919 3341 
Q 2594 3341 3056 2888 
Q 3531 2413 3531 1638 
Q 3531 888 3066 422 
Q 2609 -31 1919 -31 
Q 1228 -31 781 416 
Q 313 881 313 1656 
Q 313 2413 788 2888 
Q 1241 3341 1919 3341 
z
M 1919 2919 
Q 1519 2919 1241 2631 
Q 888 2278 888 1650 
Q 888 1031 1234 684 
Q 1516 403 1919 403 
Q 2331 403 2609 691 
Q 2956 1038 2956 1672 
Q 2956 2269 2603 2631 
Q 2316 2919 1919 2919 
z
" transform="scale(0.015625)"/>
        <path id="IPAexGothic-76" d="M 3103 3250 
L 1747 6 
L 1375 6 
L 25 3250 
L 628 3250 
L 1338 1388 
L 1522 844 
L 1569 703 
L 1588 703 
Q 1641 884 1822 1388 
L 2516 3250 
L 3103 3250 
z
" transform="scale(0.015625)"/>
       </defs>
       <use xlink:href="#IPAexGothic-4e"/>
       <use xlink:href="#IPAexGothic-6f" x="75.976562"/>
       <use xlink:href="#IPAexGothic-76" x="136.376953"/>
      </g>
     </g>
    </g>
    <g id="xtick_7">
     <g id="line2d_8">
      <g>
       <use xlink:href="#me99a752ffa" x="275.126882" y="284.991437" style="stroke: #000000; stroke-width: 0.8"/>
      </g>
     </g>
     <g id="text_7">
      <!-- Dec -->
      <g transform="translate(265.778445 299.482062) scale(0.1 -0.1)">
       <defs>
        <path id="IPAexGothic-44" d="M 609 4634 
L 1984 4634 
Q 3159 4634 3791 4050 
Q 4456 3444 4456 2356 
Q 4456 1047 3516 441 
Q 2925 63 1941 63 
L 609 63 
L 609 4634 
z
M 1172 556 
L 1894 556 
Q 3853 556 3853 2356 
Q 3853 4147 1928 4147 
L 1172 4147 
L 1172 556 
z
" transform="scale(0.015625)"/>
       </defs>
       <use xlink:href="#IPAexGothic-44"/>
       <use xlink:href="#IPAexGothic-65" x="75.683594"/>
       <use xlink:href="#IPAexGothic-63" x="132.568359"/>
      </g>
     </g>
    </g>
    <g id="xtick_8">
     <g id="line2d_9">
      <g>
       <use xlink:href="#me99a752ffa" x="316.74613" y="284.991437" style="stroke: #000000; stroke-width: 0.8"/>
      </g>
     </g>
     <g id="text_8">
      <!-- 2023 -->
      <g transform="translate(304.149255 299.482062) scale(0.1 -0.1)">
       <defs>
        <path id="IPAexGothic-32" d="M 3659 63 
L 447 63 
L 447 594 
Q 825 1475 1894 2203 
L 2072 2322 
Q 2619 2697 2791 2906 
Q 2988 3153 2988 3444 
Q 2988 3772 2756 4003 
Q 2500 4259 2084 4259 
Q 1250 4259 991 3328 
L 497 3506 
Q 853 4725 2116 4725 
Q 2806 4725 3216 4316 
Q 3575 3947 3575 3425 
Q 3575 3038 3344 2722 
Q 3131 2416 2366 1938 
L 2231 1856 
Q 1256 1253 978 569 
L 3659 569 
L 3659 63 
z
" transform="scale(0.015625)"/>
        <path id="IPAexGothic-30" d="M 2038 4725 
Q 2881 4725 3334 3944 
Q 3694 3325 3694 2344 
Q 3694 1372 3334 741 
Q 2888 -31 2016 -31 
Q 1147 -31 700 741 
Q 341 1372 341 2350 
Q 341 3713 1000 4334 
Q 1419 4725 2038 4725 
z
M 2016 4266 
Q 1516 4266 1228 3759 
Q 934 3247 934 2344 
Q 934 1456 1222 947 
Q 1513 447 2016 447 
Q 2619 447 2909 1153 
Q 3100 1622 3100 2375 
Q 3100 3256 2806 3759 
Q 2509 4266 2016 4266 
z
" transform="scale(0.015625)"/>
        <path id="IPAexGothic-33" d="M 2381 2419 
Q 3506 2216 3506 1278 
Q 3506 716 3128 356 
Q 2709 -31 1944 -31 
Q 797 -31 288 881 
L 756 1131 
Q 1109 441 1938 441 
Q 2425 441 2694 691 
Q 2950 928 2950 1291 
Q 2950 1719 2566 1978 
Q 2216 2213 1644 2213 
L 1363 2213 
L 1363 2669 
L 1656 2669 
Q 2231 2669 2534 2888 
Q 2859 3119 2859 3509 
Q 2859 3934 2494 4138 
Q 2259 4278 1931 4278 
Q 1238 4278 903 3578 
L 434 3803 
Q 897 4725 1938 4725 
Q 2597 4725 3006 4394 
Q 3416 4069 3416 3534 
Q 3416 3028 3019 2706 
Q 2763 2500 2381 2444 
L 2381 2419 
z
" transform="scale(0.015625)"/>
       </defs>
       <use xlink:href="#IPAexGothic-32"/>
       <use xlink:href="#IPAexGothic-30" x="62.988281"/>
       <use xlink:href="#IPAexGothic-32" x="125.976562"/>
       <use xlink:href="#IPAexGothic-33" x="188.964844"/>
      </g>
     </g>
    </g>
    <g id="xtick_9">
     <g id="line2d_10">
      <g>
       <use xlink:href="#me99a752ffa" x="358.365378" y="284.991437" style="stroke: #000000; stroke-width: 0.8"/>
      </g>
     </g>
     <g id="text_9">
      <!-- Feb -->
      <g transform="translate(349.541941 299.482062) scale(0.1 -0.1)">
       <defs>
        <path id="IPAexGothic-46" d="M 3469 4141 
L 1172 4141 
L 1172 2656 
L 3206 2656 
L 3206 2188 
L 1172 2188 
L 1172 63 
L 609 63 
L 609 4634 
L 3469 4634 
L 3469 4141 
z
" transform="scale(0.015625)"/>
        <path id="IPAexGothic-62" d="M 1125 2731 
Q 1550 3341 2219 3341 
Q 2788 3341 3191 2938 
Q 3659 2469 3659 1644 
Q 3659 838 3191 372 
Q 2788 -31 2206 -31 
Q 1559 -31 1088 516 
L 1009 44 
L 581 44 
L 581 4794 
L 1125 4794 
L 1125 2731 
z
M 1125 1997 
L 1125 1253 
Q 1125 888 1528 600 
Q 1803 403 2119 403 
Q 2488 403 2744 659 
Q 3084 1009 3084 1631 
Q 3084 2194 2803 2553 
Q 2525 2900 2125 2900 
Q 1759 2900 1438 2578 
Q 1125 2266 1125 1997 
z
" transform="scale(0.015625)"/>
       </defs>
       <use xlink:href="#IPAexGothic-46"/>
       <use xlink:href="#IPAexGothic-65" x="57.177734"/>
       <use xlink:href="#IPAexGothic-62" x="114.0625"/>
      </g>
     </g>
    </g>
   </g>
   <g id="matplotlib.axis_2">
    <g id="ytick_1">
     <g id="line2d_11">
      <defs>
       <path id="maa11eed95e" d="M 0 0 
L -3.5 0 
" style="stroke: #000000; stroke-width: 0.8"/>
      </defs>
      <g>
       <use xlink:href="#maa11eed95e" x="29.439063" y="269.014637" style="stroke: #000000; stroke-width: 0.8"/>
      </g>
     </g>
     <g id="text_10">
      <!-- 0.5 -->
      <g transform="translate(7.2 272.759949) scale(0.1 -0.1)">
       <defs>
        <path id="IPAexGothic-2e" d="M 1184 63 
L 494 63 
L 494 753 
L 1184 753 
L 1184 63 
z
" transform="scale(0.015625)"/>
        <path id="IPAexGothic-35" d="M 1178 2603 
Q 1634 2963 2172 2963 
Q 2816 2963 3241 2528 
Q 3638 2113 3638 1497 
Q 3638 938 3297 513 
Q 2869 -31 2031 -31 
Q 959 -31 469 784 
L 938 1028 
Q 1309 434 2013 434 
Q 2466 434 2769 716 
Q 3081 1013 3081 1503 
Q 3081 1966 2806 2241 
Q 2519 2528 2056 2528 
Q 1406 2528 1072 2028 
L 591 2091 
L 884 4634 
L 3406 4634 
L 3406 4153 
L 1341 4153 
L 1134 2603 
L 1178 2603 
z
" transform="scale(0.015625)"/>
       </defs>
       <use xlink:href="#IPAexGothic-30"/>
       <use xlink:href="#IPAexGothic-2e" x="62.988281"/>
       <use xlink:href="#IPAexGothic-35" x="89.404297"/>
      </g>
     </g>
    </g>
    <g id="ytick_2">
     <g id="line2d_12">
      <g>
       <use xlink:href="#maa11eed95e" x="29.439063" y="211.199039" style="stroke: #000000; stroke-width: 0.8"/>
      </g>
     </g>
     <g id="text_11">
      <!-- 1.0 -->
      <g transform="translate(7.2 214.944352) scale(0.1 -0.1)">
       <defs>
        <path id="IPAexGothic-31" d="M 2463 63 
L 1900 63 
L 1900 4103 
Q 1372 3922 788 3797 
L 684 4231 
Q 1519 4441 2106 4731 
L 2463 4731 
L 2463 63 
z
" transform="scale(0.015625)"/>
       </defs>
       <use xlink:href="#IPAexGothic-31"/>
       <use xlink:href="#IPAexGothic-2e" x="62.988281"/>
       <use xlink:href="#IPAexGothic-30" x="89.404297"/>
      </g>
     </g>
    </g>
    <g id="ytick_3">
     <g id="line2d_13">
      <g>
       <use xlink:href="#maa11eed95e" x="29.439063" y="153.383442" style="stroke: #000000; stroke-width: 0.8"/>
      </g>
     </g>
     <g id="text_12">
      <!-- 1.5 -->
      <g transform="translate(7.2 157.128754) scale(0.1 -0.1)">
       <use xlink:href="#IPAexGothic-31"/>
       <use xlink:href="#IPAexGothic-2e" x="62.988281"/>
       <use xlink:href="#IPAexGothic-35" x="89.404297"/>
      </g>
     </g>
    </g>
    <g id="ytick_4">
     <g id="line2d_14">
      <g>
       <use xlink:href="#maa11eed95e" x="29.439063" y="95.567844" style="stroke: #000000; stroke-width: 0.8"/>
      </g>
     </g>
     <g id="text_13">
      <!-- 2.0 -->
      <g transform="translate(7.2 99.313157) scale(0.1 -0.1)">
       <use xlink:href="#IPAexGothic-32"/>
       <use xlink:href="#IPAexGothic-2e" x="62.988281"/>
       <use xlink:href="#IPAexGothic-30" x="89.404297"/>
      </g>
     </g>
    </g>
    <g id="ytick_5">
     <g id="line2d_15">
      <g>
       <use xlink:href="#maa11eed95e" x="29.439063" y="37.752247" style="stroke: #000000; stroke-width: 0.8"/>
      </g>
     </g>
     <g id="text_14">
      <!-- 2.5 -->
      <g transform="translate(7.2 41.497559) scale(0.1 -0.1)">
       <use xlink:href="#IPAexGothic-32"/>
       <use xlink:href="#IPAexGothic-2e" x="62.988281"/>
       <use xlink:href="#IPAexGothic-35" x="89.404297"/>
      </g>
     </g>
    </g>
   </g>
   <g id="line2d_16">
    <path d="M 29.439063 227.411867 
L 30.781619 255.471758 
L 32.124175 269.405805 
L 33.466732 242.945807 
L 34.809288 262.441258 
L 37.494401 251.639145 
L 38.836957 227.514621 
L 40.179514 229.940841 
L 41.52207 194.078383 
L 42.864626 246.403784 
L 44.207183 250.411663 
L 45.549739 205.84664 
L 46.892296 249.191321 
L 48.234852 272.895437 
L 49.577408 243.090535 
L 50.919965 247.559579 
L 52.262521 238.429093 
L 53.605078 112.810292 
L 54.947634 184.323192 
L 56.29019 181.498781 
L 57.632747 30.975437 
L 60.317859 168.571026 
L 61.660416 110.868109 
L 63.002972 213.126183 
L 64.345529 156.293505 
L 65.688085 124.518024 
L 67.030641 151.875457 
L 68.373198 236.751655 
L 69.715754 106.655378 
L 71.058311 51.387485 
L 72.400867 102.788184 
L 73.743423 95.926279 
L 75.08598 36.542983 
L 76.428536 79.37836 
L 77.771093 35.439549 
L 79.113649 110.396771 
L 80.456205 116.980214 
L 81.798762 109.726148 
L 83.141318 177.160719 
L 84.483875 110.814502 
L 85.826431 153.702013 
L 87.168987 148.460822 
L 88.511544 164.812112 
L 89.8541 190.526245 
L 91.196656 181.526351 
L 92.539213 197.096587 
L 93.881769 219.976945 
L 95.224326 163.710275 
L 96.566882 173.022011 
L 97.909438 196.817697 
L 99.251995 179.527296 
L 100.594551 191.661352 
L 101.937108 192.887858 
L 103.279664 173.15897 
L 104.62222 188.50237 
L 105.964777 201.809366 
L 107.307333 195.197746 
L 108.64989 183.412435 
L 109.992446 192.046725 
L 111.335002 204.737627 
L 112.677559 199.025674 
L 114.020115 189.016626 
L 115.362672 185.809755 
L 116.705228 182.941981 
L 118.047784 200.02008 
L 119.390341 192.032303 
L 120.732897 181.775482 
L 122.075453 186.871327 
L 123.41801 193.9839 
L 124.760566 204.601463 
L 126.103123 225.669065 
L 127.445679 207.989558 
L 128.788235 218.057369 
L 130.130792 204.232725 
L 131.473348 217.282458 
L 132.815905 202.720535 
L 134.158461 195.141529 
L 135.501017 153.461242 
L 136.843574 171.531238 
L 138.18613 185.828914 
L 139.528687 204.950127 
L 140.871243 187.736367 
L 142.213799 211.671324 
L 143.556356 216.92144 
L 144.898912 231.587854 
L 146.241469 248.509599 
L 147.584025 240.826108 
L 148.926581 241.29957 
L 150.269138 247.072575 
L 151.611694 251.367839 
L 152.95425 251.669425 
L 154.296807 251.785215 
L 155.639363 242.900107 
L 156.98192 251.663262 
L 158.324476 241.186243 
L 159.667032 228.929625 
L 161.009589 240.670472 
L 162.352145 239.689961 
L 163.694702 228.587222 
L 165.037258 234.114512 
L 166.379814 220.053728 
L 167.722371 221.634093 
L 169.064927 247.789493 
L 170.407484 250.578039 
L 171.75004 230.847867 
L 173.092596 240.571341 
L 174.435153 229.667605 
L 175.777709 228.965012 
L 177.120266 226.507 
L 178.462822 266.267581 
L 179.805378 173.994674 
L 181.147935 228.352097 
L 182.490491 212.968149 
L 183.833047 243.863512 
L 185.175604 195.951487 
L 186.51816 187.500784 
L 187.860717 195.32975 
L 189.203273 238.855842 
L 190.545829 224.563828 
L 191.888386 239.674853 
L 193.230942 205.067187 
L 194.573499 219.657973 
L 195.916055 258.893645 
L 197.258611 189.095647 
L 198.601168 231.988543 
L 199.943724 230.452082 
L 201.286281 208.848889 
L 202.628837 214.413367 
L 203.971393 237.774657 
L 205.31395 208.216448 
L 206.656506 269.328924 
L 207.999062 186.857034 
L 209.341619 168.652783 
L 210.684175 211.199039 
L 212.026732 197.903063 
L 213.369288 190.42842 
L 214.711844 209.746404 
L 216.054401 135.123595 
L 217.396957 212.926136 
L 218.739514 239.34414 
L 220.08207 184.631705 
L 221.424626 193.892671 
L 222.767183 220.351516 
L 224.109739 197.002011 
L 225.452296 191.634272 
L 226.794852 213.253557 
L 228.137408 183.049443 
L 229.479965 199.198481 
L 230.822521 190.346771 
L 232.165078 160.309806 
L 233.507634 189.784075 
L 234.85019 198.104074 
L 236.192747 152.110827 
L 237.535303 152.9204 
L 238.877859 232.748365 
L 240.220416 165.024121 
L 241.562972 194.085734 
L 242.905529 199.838398 
L 244.248085 173.564927 
L 245.590641 209.205445 
L 246.933198 206.690562 
L 248.275754 156.249641 
L 249.618311 220.402577 
L 250.960867 215.284532 
L 252.303423 225.924092 
L 253.64598 188.099011 
L 254.988536 185.511636 
L 256.331093 211.199039 
L 257.673649 194.160213 
L 259.016205 184.55213 
L 260.358762 182.799057 
L 263.043875 203.930102 
L 264.386431 168.757197 
L 265.728987 220.491359 
L 267.071544 171.577359 
L 269.756656 192.11637 
L 271.099213 204.402838 
L 272.441769 198.987955 
L 273.784326 181.777237 
L 275.126882 142.696764 
L 276.469438 213.580923 
L 277.811995 220.529523 
L 279.154551 204.080643 
L 280.497108 205.292279 
L 281.839664 181.962456 
L 283.18222 194.793532 
L 284.524777 197.432704 
L 285.867333 173.295964 
L 287.20989 175.045451 
L 288.552446 167.16196 
L 289.895002 187.120934 
L 291.237559 183.834422 
L 292.580115 173.778001 
L 293.922672 181.23856 
L 295.265228 201.020413 
L 296.607784 187.828789 
L 297.950341 213.66936 
L 299.292897 207.768569 
L 300.635453 207.295129 
L 301.97801 192.832229 
L 303.320566 206.958159 
L 304.663123 188.728128 
L 306.005679 193.851266 
L 307.348235 207.103197 
L 308.690792 215.224404 
L 310.033348 196.113595 
L 311.375905 220.91992 
L 312.718461 200.04709 
L 314.061017 223.444191 
L 315.403574 251.024981 
L 316.74613 228.180558 
L 318.088687 208.755181 
L 319.431243 251.311193 
L 320.773799 254.432046 
L 322.116356 215.74342 
L 323.458912 126.299141 
L 324.801469 90.185267 
L 326.144025 169.01121 
L 327.486581 202.233317 
L 328.829138 208.810336 
L 330.171694 167.736099 
L 331.51425 215.685286 
L 332.856807 255.304956 
L 334.199363 257.151057 
L 335.54192 241.910597 
L 336.884476 230.363911 
L 338.227032 201.639485 
L 339.569589 252.591109 
L 340.912145 261.202922 
L 342.254702 248.191392 
L 343.597258 245.888016 
L 344.939814 248.528538 
L 346.282371 233.937612 
L 347.624927 243.873594 
L 348.967484 245.699396 
L 350.31004 238.379427 
L 351.652596 250.421781 
L 352.995153 242.025158 
L 354.337709 235.679743 
L 355.680266 231.977605 
L 357.022822 268.725993 
L 358.365378 251.010186 
L 359.707935 243.44844 
L 361.050491 231.173865 
L 362.393047 246.470516 
L 363.735604 240.806074 
L 365.07816 205.729567 
L 366.420717 216.74151 
L 367.763273 221.239134 
L 369.105829 222.049942 
L 370.448386 236.243828 
L 371.790942 216.587974 
L 373.133499 250.056764 
L 374.476055 220.887451 
L 375.818611 228.799652 
L 377.161168 253.712581 
L 378.503724 218.850978 
L 379.846281 215.357996 
L 381.188837 237.280047 
L 382.531393 193.27922 
L 383.87395 224.105076 
L 385.216506 238.379537 
L 385.216506 238.379537 
" clip-path="url(#pfc0d9dea33)" style="fill: none; stroke: #1f77b4; stroke-width: 1.5; stroke-linecap: square"/>
   </g>
   <g id="line2d_17">
    <path d="M 29.439063 230.929789 
L 30.781619 242.60231 
L 32.124175 262.8168 
L 33.466732 257.425513 
L 34.809288 253.337157 
L 36.151844 259.836211 
L 37.494401 254.434415 
L 38.836957 240.414674 
L 40.179514 228.735232 
L 41.52207 213.41839 
L 42.864626 223.501825 
L 44.207183 248.433331 
L 45.549739 230.677266 
L 46.892296 229.912564 
L 48.234852 262.11981 
L 49.577408 259.625445 
L 50.919965 245.355694 
L 52.262521 243.118728 
L 53.605078 189.281671 
L 54.947634 152.189606 
L 56.29019 182.917915 
L 57.632747 119.473036 
L 58.975303 68.196709 
L 60.317859 137.669929 
L 61.660416 141.957318 
L 63.002972 170.127431 
L 64.345529 187.579679 
L 65.688085 141.084002 
L 67.030641 138.693349 
L 68.373198 201.292679 
L 69.715754 186.000414 
L 71.058311 80.567026 
L 72.400867 78.413733 
L 73.743423 99.383107 
L 75.08598 67.931655 
L 76.428536 58.815077 
L 77.771093 58.306173 
L 79.113649 75.699401 
L 80.456205 113.713912 
L 81.798762 113.383995 
L 83.141318 146.569691 
L 84.483875 147.022086 
L 85.826431 133.443524 
L 87.168987 151.100956 
L 88.511544 156.832948 
L 89.8541 178.224324 
L 91.196656 186.098223 
L 92.539213 189.532009 
L 93.881769 209.091256 
L 95.224326 194.807872 
L 96.566882 168.434555 
L 97.909438 185.419494 
L 99.251995 188.44227 
L 100.594551 185.724694 
L 101.937108 192.276003 
L 103.279664 183.362139 
L 104.62222 181.032368 
L 105.964777 195.324076 
L 107.307333 198.546144 
L 108.64989 189.431392 
L 109.992446 187.79659 
L 111.335002 198.54902 
L 112.677559 201.914295 
L 114.020115 194.115474 
L 115.362672 187.422411 
L 116.705228 184.383085 
L 118.047784 191.750659 
L 119.390341 196.087179 
L 120.732897 186.997904 
L 122.075453 184.346184 
L 123.41801 190.473981 
L 124.760566 199.403219 
L 126.103123 215.633088 
L 127.445679 217.185071 
L 128.788235 213.134848 
L 130.130792 211.351742 
L 131.473348 210.94113 
L 132.815905 210.228598 
L 134.158461 198.987184 
L 135.501017 175.731796 
L 136.843574 162.744798 
L 139.528687 195.737687 
L 140.871243 196.62741 
L 142.213799 200.268399 
L 143.556356 214.327003 
L 144.898912 224.517111 
L 146.241469 240.462163 
L 147.584025 244.757718 
L 148.926581 241.063165 
L 150.269138 244.236496 
L 151.611694 249.249927 
L 152.95425 251.518783 
L 154.296807 251.727342 
L 155.639363 247.466905 
L 156.98192 247.402446 
L 158.324476 246.595581 
L 159.667032 235.262778 
L 161.009589 234.987471 
L 162.352145 240.181603 
L 163.694702 234.304978 
L 165.037258 231.390872 
L 166.379814 227.332189 
L 167.722371 220.846856 
L 169.064927 235.644814 
L 170.407484 249.196285 
L 171.75004 241.279862 
L 173.092596 235.839395 
L 174.435153 235.281663 
L 175.777709 229.316941 
L 177.120266 227.743627 
L 178.462822 248.882551 
L 179.805378 230.621466 
L 181.147935 204.147875 
L 182.490491 220.93913 
L 183.833047 229.635769 
L 185.175604 222.625721 
L 186.51816 191.792225 
L 187.860717 191.471858 
L 189.203273 219.272458 
L 190.545829 231.97864 
L 191.888386 232.42119 
L 193.230942 223.814193 
L 194.573499 212.595296 
L 195.916055 241.501939 
L 197.258611 230.097519 
L 198.601168 212.536835 
L 199.943724 231.223399 
L 201.286281 220.196168 
L 202.628837 211.66473 
L 203.971393 226.773505 
L 205.31395 224.052711 
L 206.656506 244.24423 
L 207.999062 237.116008 
L 209.341619 178.033043 
L 212.026732 204.731901 
L 213.369288 194.218394 
L 214.711844 200.456001 
L 216.054401 177.011185 
L 217.396957 179.059561 
L 218.739514 227.005264 
L 220.08207 215.29372 
L 221.424626 189.34014 
L 222.767183 207.855357 
L 224.109739 209.25497 
L 225.452296 194.345323 
L 226.794852 202.914504 
L 228.137408 199.04078 
L 229.479965 191.364392 
L 230.822521 194.846812 
L 232.165078 176.074523 
L 233.507634 175.764073 
L 234.85019 194.009205 
L 236.192747 176.860376 
L 237.535303 152.516084 
L 238.877859 198.91713 
L 240.220416 203.448625 
L 241.562972 180.273516 
L 242.905529 196.993923 
L 244.248085 187.318791 
L 245.590641 192.562593 
L 246.933198 207.954654 
L 248.275754 183.674736 
L 249.618311 192.091624 
L 250.960867 217.873602 
L 252.303423 220.737602 
L 253.64598 208.513572 
L 254.988536 186.8113 
L 256.331093 198.998945 
L 257.673649 202.972279 
L 259.016205 189.440136 
L 260.358762 183.678277 
L 261.701318 188.335204 
L 263.043875 198.897374 
L 264.386431 187.448754 
L 265.728987 197.179515 
L 267.071544 198.341262 
L 268.4141 176.894581 
L 269.756656 187.16406 
L 271.099213 198.406453 
L 272.441769 201.724689 
L 273.784326 190.654224 
L 275.126882 163.401008 
L 276.469438 182.424595 
L 277.811995 217.110216 
L 279.154551 212.600777 
L 280.497108 204.687964 
L 281.839664 194.139114 
L 283.18222 188.526714 
L 284.524777 196.119779 
L 285.867333 185.880047 
L 287.20989 174.173214 
L 288.552446 171.1536 
L 289.895002 177.474475 
L 291.237559 185.48723 
L 292.580115 178.891638 
L 293.922672 177.554882 
L 295.265228 191.49043 
L 296.607784 194.588989 
L 297.950341 201.412831 
L 299.292897 210.756455 
L 300.635453 207.532084 
L 301.97801 200.270107 
L 303.320566 200.091846 
L 304.663123 198.165608 
L 306.005679 191.313905 
L 307.348235 200.651084 
L 308.690792 211.235099 
L 310.033348 206.046382 
L 311.375905 209.168684 
L 312.718461 210.952529 
L 314.061017 212.341773 
L 315.403574 238.302243 
L 316.74613 240.353858 
L 318.088687 218.904029 
L 319.431243 232.400817 
L 320.773799 252.888083 
L 322.116356 237.150337 
L 323.458912 177.577562 
L 324.801469 108.989297 
L 326.144025 133.576313 
L 327.486581 186.602691 
L 328.829138 205.566408 
L 330.171694 189.803691 
L 331.51425 193.854637 
L 332.856807 237.669294 
L 334.199363 256.234041 
L 335.54192 249.907348 
L 336.884476 236.3212 
L 338.227032 216.936234 
L 339.569589 230.424572 
L 340.912145 257.029702 
L 342.254702 254.991137 
L 343.597258 247.048016 
L 344.939814 247.219224 
L 346.282371 241.544538 
L 347.624927 239.046068 
L 348.967484 244.791574 
L 350.31004 242.11844 
L 351.652596 244.62081 
L 352.995153 246.332876 
L 354.337709 238.909678 
L 355.680266 233.847098 
L 357.022822 252.591834 
L 358.365378 260.456547 
L 359.707935 247.319155 
L 361.050491 237.521782 
L 362.393047 239.155159 
L 363.735604 243.68652 
L 365.07816 224.763671 
L 366.420717 211.366742 
L 367.763273 219.013772 
L 369.105829 221.645319 
L 370.448386 229.405031 
L 371.790942 226.898006 
L 373.133499 234.831969 
L 374.476055 236.643788 
L 375.818611 224.92031 
L 377.161168 242.167574 
L 378.503724 237.975354 
L 379.846281 217.118387 
L 381.188837 226.918474 
L 382.531393 217.470651 
L 383.87395 209.70189 
L 385.216506 231.509136 
L 385.216506 231.509136 
" clip-path="url(#pfc0d9dea33)" style="fill: none; stroke: #ff7f0e; stroke-width: 1.5; stroke-linecap: square"/>
   </g>
   <g id="line2d_18">
    <path d="M 29.439063 229.122786 
L 30.781619 239.928401 
L 32.124175 252.698705 
L 33.466732 256.780278 
L 34.809288 259.139403 
L 36.151844 254.622372 
L 37.494401 257.208287 
L 38.836957 246.388486 
L 40.179514 237.055655 
L 41.52207 218.326475 
L 44.207183 233.387372 
L 45.549739 236.234427 
L 46.892296 237.293425 
L 49.577408 256.313321 
L 50.919965 255.822722 
L 52.262521 243.109331 
L 53.605078 212.36467 
L 56.29019 162.563334 
L 57.632747 143.84129 
L 58.975303 113.406318 
L 60.317859 107.256927 
L 61.660416 129.127564 
L 63.002972 169.610337 
L 64.345529 165.645532 
L 65.688085 169.115602 
L 67.030641 144.753156 
L 68.373198 179.647632 
L 69.715754 175.437505 
L 71.058311 150.710969 
L 72.400867 88.208754 
L 73.743423 84.394062 
L 75.08598 80.114816 
L 76.428536 71.804879 
L 77.771093 51.239386 
L 79.113649 76.931758 
L 80.456205 90.291085 
L 81.798762 112.392863 
L 83.141318 137.201801 
L 84.483875 135.362509 
L 85.826431 149.276885 
L 87.168987 138.58476 
L 88.511544 155.795645 
L 89.8541 168.900399 
L 93.881769 200.539182 
L 95.224326 195.575228 
L 96.566882 187.912342 
L 97.909438 178.52472 
L 99.251995 183.482093 
L 100.594551 189.523726 
L 101.937108 188.153999 
L 103.279664 186.18367 
L 104.62222 185.09643 
L 105.964777 188.315827 
L 107.307333 195.281979 
L 108.64989 193.687884 
L 109.992446 190.308761 
L 111.335002 193.689874 
L 112.677559 198.708102 
L 114.020115 197.755094 
L 115.362672 191.402728 
L 116.705228 185.944654 
L 118.047784 189.7987 
L 119.390341 191.844605 
L 120.732897 191.480812 
L 122.075453 186.955724 
L 123.41801 187.634041 
L 124.760566 195.355837 
L 126.103123 208.84012 
L 128.788235 217.476612 
L 130.130792 210.241718 
L 131.473348 213.36349 
L 132.815905 208.263285 
L 134.158461 205.402114 
L 135.501017 185.324114 
L 136.843574 174.344388 
L 138.18613 170.831497 
L 139.528687 188.120092 
L 140.871243 193.123075 
L 142.213799 201.848623 
L 143.556356 206.082407 
L 144.898912 220.402845 
L 146.241469 233.236603 
L 147.584025 240.583648 
L 148.926581 243.620823 
L 150.269138 243.114997 
L 152.95425 250.064959 
L 154.296807 251.607698 
L 155.639363 248.893225 
L 156.98192 248.891095 
L 158.324476 245.382199 
L 161.009589 237.10204 
L 162.352145 236.582508 
L 163.694702 236.477418 
L 165.037258 234.241533 
L 166.379814 227.752305 
L 167.722371 225.467971 
L 169.064927 230.718701 
L 170.407484 240.92208 
L 171.75004 243.507227 
L 173.092596 241.044337 
L 174.435153 233.826969 
L 175.777709 233.222764 
L 177.120266 228.38915 
L 178.462822 242.740121 
L 179.805378 229.269077 
L 181.147935 229.870881 
L 182.490491 207.161383 
L 183.833047 229.209749 
L 185.175604 219.501156 
L 186.51816 212.031087 
L 187.860717 192.98185 
L 189.203273 209.581314 
L 190.545829 221.065989 
L 191.888386 234.616737 
L 193.230942 224.06468 
L 194.573499 222.447011 
L 195.916055 230.764786 
L 197.258611 226.735849 
L 198.601168 230.732013 
L 199.943724 218.850986 
L 201.286281 224.281475 
L 202.628837 218.302399 
L 203.971393 221.123664 
L 205.31395 220.93512 
L 206.656506 242.141688 
L 207.999062 228.364316 
L 209.341619 218.44859 
L 210.684175 190.029585 
L 212.026732 193.727182 
L 213.369288 200.139008 
L 214.711844 199.610689 
L 216.054401 181.624175 
L 217.396957 190.09163 
L 220.08207 214.510045 
L 221.424626 208.573118 
L 222.767183 200.569432 
L 224.109739 204.342327 
L 225.452296 203.652593 
L 226.794852 200.974213 
L 228.137408 196.618162 
L 229.479965 199.093369 
L 230.822521 191.026031 
L 232.165078 184.214067 
L 233.507634 180.790352 
L 234.85019 183.611312 
L 236.192747 181.298308 
L 237.535303 169.270937 
L 238.877859 184.905831 
L 240.220416 188.492178 
L 241.562972 200.403438 
L 242.905529 187.108997 
L 244.248085 189.611924 
L 245.590641 195.033037 
L 246.933198 197.447481 
L 248.275754 192.747876 
L 249.618311 197.145102 
L 250.960867 200.314175 
L 252.303423 220.626045 
L 254.988536 201.295556 
L 256.331093 195.464272 
L 257.673649 197.405968 
L 259.016205 197.113713 
L 260.358762 187.261183 
L 261.701318 187.08549 
L 263.043875 193.741822 
L 264.386431 189.550213 
L 265.728987 199.469935 
L 267.071544 189.152671 
L 268.4141 193.119185 
L 269.756656 182.150609 
L 271.099213 193.164416 
L 272.441769 198.60058 
L 273.784326 195.400607 
L 275.126882 176.246527 
L 276.469438 182.20913 
L 277.811995 196.443074 
L 279.154551 212.928431 
L 280.497108 210.214796 
L 281.839664 197.539344 
L 283.18222 194.357613 
L 285.867333 188.916137 
L 287.20989 182.357292 
L 288.552446 171.871023 
L 289.895002 176.669151 
L 291.237559 179.625281 
L 292.580115 181.687232 
L 293.922672 179.678119 
L 295.265228 185.826618 
L 296.607784 190.280728 
L 297.950341 201.282161 
L 299.292897 203.568241 
L 300.635453 209.613962 
L 301.97801 202.82065 
L 303.320566 202.539923 
L 304.663123 196.411828 
L 306.005679 196.743275 
L 307.348235 196.795762 
L 308.690792 205.708887 
L 310.033348 206.399686 
L 311.375905 211.222913 
L 312.718461 206.203506 
L 314.061017 215.275699 
L 315.403574 227.04317 
L 316.74613 235.049338 
L 318.088687 230.893623 
L 319.431243 231.014516 
L 320.773799 240.403632 
L 322.116356 242.143466 
L 323.458912 209.55923 
L 324.801469 152.790998 
L 326.144025 131.180415 
L 327.486581 159.879638 
L 328.829138 194.434509 
L 330.171694 194.078898 
L 331.51425 199.039398 
L 332.856807 218.686553 
L 334.199363 244.703586 
L 335.54192 251.750355 
L 336.884476 243.877834 
L 338.227032 225.985777 
L 339.569589 230.404356 
L 342.254702 254.199875 
L 343.597258 252.076606 
L 346.282371 243.017663 
L 347.624927 242.328067 
L 348.967484 241.322359 
L 350.31004 242.707579 
L 351.652596 244.981923 
L 352.995153 243.764543 
L 354.337709 242.927891 
L 355.680266 236.657187 
L 357.022822 247.335431 
L 358.365378 252.068319 
L 359.707935 255.212423 
L 361.050491 242.265414 
L 362.393047 240.610269 
L 363.735604 239.708955 
L 365.07816 232.583033 
L 366.420717 222.156768 
L 367.763273 214.756056 
L 369.105829 220.03548 
L 370.448386 226.75576 
L 371.790942 225.307435 
L 373.133499 235.305016 
L 374.476055 230.400667 
L 375.818611 234.101419 
L 377.161168 235.597281 
L 378.503724 235.016415 
L 379.846281 230.998408 
L 381.188837 224.298607 
L 382.531393 216.77092 
L 383.87395 219.728418 
L 385.216506 220.168553 
L 385.216506 220.168553 
" clip-path="url(#pfc0d9dea33)" style="fill: none; stroke: #2ca02c; stroke-width: 1.5; stroke-linecap: square"/>
   </g>
   <g id="line2d_19">
    <path d="M 29.439063 221.275211 
L 30.781619 236.505406 
L 32.124175 248.478994 
L 33.466732 250.372301 
L 34.809288 258.240554 
L 36.151844 258.641514 
L 37.494401 253.887849 
L 38.836957 250.742613 
L 40.179514 242.558839 
L 41.52207 227.832517 
L 42.864626 226.152528 
L 44.207183 232.537407 
L 45.549739 227.154092 
L 46.892296 239.663468 
L 48.234852 247.949949 
L 49.577408 246.12502 
L 50.919965 254.219959 
L 52.262521 251.824807 
L 53.605078 220.968504 
L 54.947634 205.919399 
L 56.29019 186.135769 
L 57.632747 136.533121 
L 58.975303 133.903952 
L 60.317859 128.780364 
L 61.660416 108.165345 
L 63.002972 154.661857 
L 64.345529 166.381937 
L 65.688085 156.222628 
L 68.373198 174.127491 
L 69.715754 164.056515 
L 71.058311 151.002816 
L 72.400867 139.788926 
L 73.743423 90.161987 
L 75.08598 73.226844 
L 76.428536 79.930908 
L 77.771093 63.162834 
L 79.113649 67.394559 
L 80.456205 87.608872 
L 81.798762 95.307164 
L 83.141318 130.829051 
L 84.483875 130.923693 
L 87.168987 149.07322 
L 88.511544 145.514995 
L 89.8541 165.230701 
L 91.196656 172.15619 
L 92.539213 183.990017 
L 93.881769 198.107108 
L 95.224326 192.195781 
L 96.566882 190.267628 
L 97.909438 190.194295 
L 99.251995 178.776002 
L 100.594551 185.572177 
L 101.937108 190.372599 
L 103.279664 184.54832 
L 104.62222 186.766963 
L 105.964777 189.473261 
L 107.307333 190.069324 
L 108.64989 192.410021 
L 112.677559 195.044354 
L 114.020115 196.351076 
L 115.362672 194.867136 
L 116.705228 189.335364 
L 118.047784 189.603599 
L 119.390341 190.360547 
L 120.732897 189.394825 
L 122.075453 190.342872 
L 123.41801 188.74688 
L 124.760566 192.084855 
L 126.103123 203.69443 
L 127.445679 208.628052 
L 128.788235 214.390906 
L 130.130792 214.306201 
L 131.473348 212.043229 
L 132.815905 210.791529 
L 134.158461 205.110817 
L 135.501017 194.096195 
L 136.843574 181.995215 
L 138.18613 177.300368 
L 139.528687 180.166067 
L 140.871243 188.02426 
L 142.213799 198.022962 
L 144.898912 213.03684 
L 146.241469 228.256977 
L 147.584025 235.194567 
L 148.926581 240.763189 
L 150.269138 244.49752 
L 151.611694 245.259188 
L 154.296807 250.498685 
L 155.639363 249.519384 
L 156.98192 249.59516 
L 158.324476 247.032432 
L 159.667032 241.548346 
L 161.009589 240.987516 
L 163.694702 234.646856 
L 165.037258 235.892398 
L 167.722371 226.256947 
L 169.064927 231.579139 
L 170.407484 236.122417 
L 171.75004 238.507266 
L 173.092596 242.782759 
L 174.435153 238.331566 
L 175.777709 232.634606 
L 177.120266 231.587191 
L 178.462822 239.646891 
L 179.805378 229.193149 
L 181.147935 229.040635 
L 182.490491 225.896331 
L 183.833047 217.632953 
L 185.175604 221.78581 
L 186.51816 212.266073 
L 187.860717 208.065956 
L 189.203273 206.313066 
L 190.545829 213.521109 
L 191.888386 226.061058 
L 193.230942 227.980673 
L 194.573499 222.980288 
L 195.916055 233.074257 
L 197.258611 221.710038 
L 198.601168 228.075685 
L 199.943724 230.662107 
L 201.286281 216.432907 
L 202.628837 221.898783 
L 203.971393 223.537176 
L 205.31395 218.034898 
L 206.656506 235.927619 
L 207.999062 230.806248 
L 209.341619 215.976432 
L 210.684175 216.679967 
L 212.026732 192.041922 
L 213.369288 192.910047 
L 214.711844 202.612348 
L 216.054401 185.877122 
L 217.396957 190.175906 
L 218.739514 204.536808 
L 220.08207 198.448671 
L 221.424626 209.676726 
L 222.767183 211.634562 
L 224.109739 199.686873 
L 225.452296 201.281933 
L 226.794852 206.126362 
L 228.137408 196.71423 
L 229.479965 197.268091 
L 230.822521 196.960725 
L 232.165078 183.923798 
L 233.507634 185.627441 
L 234.85019 185.325715 
L 236.192747 176.313222 
L 237.535303 174.670499 
L 238.877859 188.327129 
L 240.220416 180.177036 
L 242.905529 200.262414 
L 244.248085 183.839538 
L 245.590641 194.796847 
L 246.933198 198.049398 
L 248.275754 188.189868 
L 249.618311 200.271432 
L 250.960867 201.939318 
L 252.303423 207.269481 
L 253.64598 213.289999 
L 254.988536 204.949238 
L 256.331093 203.848238 
L 257.673649 195.139464 
L 259.016205 194.305696 
L 260.358762 193.674278 
L 261.701318 188.888776 
L 263.043875 191.5016 
L 264.386431 187.892686 
L 265.728987 198.041309 
L 267.071544 193.005785 
L 268.4141 187.405469 
L 269.756656 192.869183 
L 271.099213 188.066754 
L 272.441769 194.64471 
L 273.784326 194.587132 
L 275.126882 183.841066 
L 276.469438 186.599767 
L 277.811995 192.921842 
L 279.154551 198.395901 
L 280.497108 211.065593 
L 283.18222 196.858291 
L 284.524777 195.13317 
L 285.867333 187.209652 
L 287.20989 185.572071 
L 288.552446 178.699715 
L 289.895002 175.832866 
L 291.237559 178.493445 
L 292.580115 178.184745 
L 293.922672 181.575194 
L 295.265228 185.331186 
L 296.607784 186.329848 
L 297.950341 196.546057 
L 299.292897 202.936162 
L 300.635453 204.510717 
L 301.97801 205.626636 
L 303.320566 203.868227 
L 304.663123 199.222196 
L 306.005679 195.776348 
L 307.348235 199.414406 
L 308.690792 201.670223 
L 310.033348 203.378204 
L 311.375905 210.206468 
L 312.718461 208.524885 
L 314.061017 210.766072 
L 315.403574 225.546373 
L 318.088687 229.083162 
L 319.431243 236.464788 
L 320.773799 237.497733 
L 322.116356 234.806213 
L 323.458912 221.777563 
L 324.801469 187.059161 
L 326.144025 156.996009 
L 327.486581 152.052377 
L 328.829138 173.746238 
L 330.171694 188.21243 
L 331.51425 199.845473 
L 332.856807 216.297816 
L 335.54192 244.014071 
L 336.884476 246.895303 
L 338.227032 234.888058 
L 339.569589 233.419403 
L 340.912145 239.247932 
L 342.254702 243.609469 
L 343.597258 252.205565 
L 344.939814 251.204953 
L 346.282371 244.342162 
L 347.624927 243.23247 
L 348.967484 243.18381 
L 350.31004 240.595936 
L 351.652596 244.706237 
L 352.995153 244.25254 
L 354.337709 241.813187 
L 355.680266 240.314936 
L 357.022822 246.039879 
L 358.365378 248.270489 
L 359.707935 250.000714 
L 361.050491 249.838473 
L 362.393047 243.336882 
L 363.735604 240.659262 
L 365.07816 232.232699 
L 366.420717 228.85032 
L 367.763273 221.92811 
L 369.105829 216.625799 
L 370.448386 224.341012 
L 371.790942 224.305296 
L 373.133499 232.157378 
L 374.476055 231.895875 
L 375.818611 230.002881 
L 377.161168 239.449318 
L 378.503724 231.67145 
L 379.846281 230.453386 
L 381.188837 232.608966 
L 382.531393 217.294661 
L 383.87395 218.652145 
L 385.216506 224.730893 
L 385.216506 224.730893 
" clip-path="url(#pfc0d9dea33)" style="fill: none; stroke: #d62728; stroke-width: 1.5; stroke-linecap: square"/>
   </g>
   <g id="line2d_20">
    <path d="M 29.439063 222.506149 
L 30.781619 229.225195 
L 32.124175 244.328125 
L 33.466732 247.402355 
L 34.809288 252.954749 
L 36.151844 258.019032 
L 37.494401 257.295259 
L 38.836957 249.2435 
L 40.179514 246.974437 
L 41.52207 234.54074 
L 42.864626 231.861658 
L 44.207183 231.553594 
L 45.549739 227.717781 
L 46.892296 232.012654 
L 48.234852 247.643113 
L 50.919965 246.413994 
L 52.262521 251.305355 
L 53.605078 234.325278 
L 54.947634 214.484016 
L 56.29019 201.387908 
L 57.632747 163.586194 
L 58.975303 129.858474 
L 60.317859 141.397281 
L 61.660416 125.3209 
L 63.002972 134.972888 
L 64.345529 154.989431 
L 65.688085 158.76708 
L 67.030641 155.361922 
L 68.373198 182.873277 
L 69.715754 162.532711 
L 71.058311 145.998895 
L 72.400867 142.271252 
L 73.743423 131.739654 
L 75.08598 80.2958 
L 76.428536 74.469261 
L 77.771093 71.612377 
L 79.113649 73.369884 
L 80.456205 78.170446 
L 81.798762 92.205622 
L 83.141318 114.651386 
L 84.483875 126.98029 
L 85.826431 135.707335 
L 87.168987 141.820322 
L 88.511544 152.338799 
L 89.8541 155.572908 
L 91.196656 168.629853 
L 92.539213 177.501124 
L 93.881769 192.046346 
L 95.224326 191.863517 
L 96.566882 188.562489 
L 97.909438 191.603524 
L 99.251995 188.124556 
L 100.594551 181.447777 
L 101.937108 187.0666 
L 103.279664 187.0915 
L 104.62222 185.34807 
L 105.964777 189.913695 
L 107.307333 190.637736 
L 108.64989 188.763136 
L 111.335002 195.654061 
L 112.677559 195.075047 
L 114.020115 193.860278 
L 115.362672 194.307816 
L 116.705228 192.563919 
L 118.047784 191.542008 
L 120.732897 188.685177 
L 122.075453 188.893792 
L 123.41801 191.078975 
L 124.760566 192.074346 
L 126.103123 199.593102 
L 127.445679 204.565698 
L 128.788235 210.577143 
L 130.130792 212.428944 
L 131.473348 214.907852 
L 132.815905 210.23647 
L 134.158461 207.817891 
L 135.501017 196.188428 
L 136.843574 189.862088 
L 138.18613 182.770205 
L 139.528687 183.291563 
L 140.871243 181.712392 
L 142.213799 193.113415 
L 144.898912 211.463604 
L 147.584025 230.909798 
L 150.269138 242.063784 
L 151.611694 245.919887 
L 152.95425 246.583547 
L 154.296807 248.741635 
L 155.639363 249.036102 
L 156.98192 249.952996 
L 158.324476 247.98217 
L 159.667032 243.701758 
L 161.009589 241.373489 
L 162.352145 240.72956 
L 163.694702 235.993508 
L 166.379814 232.924776 
L 167.722371 229.099784 
L 169.064927 230.988135 
L 170.407484 235.724345 
L 171.75004 235.091221 
L 173.092596 238.923995 
L 174.435153 240.309621 
L 175.777709 236.532871 
L 177.120266 231.439783 
L 178.462822 239.832571 
L 179.805378 229.288225 
L 181.147935 229.025515 
L 182.490491 226.018762 
L 183.833047 229.776904 
L 185.175604 213.604985 
L 186.51816 215.680869 
L 187.860717 209.062995 
L 189.203273 214.984372 
L 190.545829 210.206824 
L 191.888386 219.314815 
L 193.230942 222.17396 
L 194.573499 226.369517 
L 195.916055 231.430807 
L 197.258611 225.577264 
L 198.601168 223.851206 
L 199.943724 228.555607 
L 201.286281 226.648719 
L 202.628837 216.031922 
L 203.971393 225.28565 
L 205.31395 220.640156 
L 206.656506 231.061495 
L 207.999062 227.73105 
L 209.341619 220.726004 
L 210.684175 215.037011 
L 212.026732 213.157231 
L 213.369288 191.720756 
L 214.711844 196.460668 
L 216.054401 191.350375 
L 217.396957 191.757527 
L 218.739514 201.836996 
L 220.08207 200.792232 
L 221.424626 197.550137 
L 222.767183 211.894043 
L 224.109739 208.846332 
L 225.452296 198.115669 
L 226.794852 203.773183 
L 228.137408 201.828184 
L 229.479965 197.214919 
L 230.822521 195.912493 
L 233.507634 185.115566 
L 234.85019 188.215948 
L 236.192747 179.230873 
L 237.535303 171.901027 
L 238.877859 188.619752 
L 240.220416 183.951829 
L 241.562972 183.070739 
L 242.905529 191.957715 
L 244.248085 195.323676 
L 245.590641 189.316525 
L 246.933198 197.266248 
L 248.275754 190.602066 
L 249.618311 195.331172 
L 250.960867 203.427593 
L 252.303423 207.153921 
L 253.64598 203.660003 
L 254.988536 208.209749 
L 256.331093 206.225655 
L 257.673649 201.968952 
L 259.016205 193.086981 
L 260.358762 192.080368 
L 261.701318 193.671134 
L 263.043875 192.037551 
L 264.386431 187.230909 
L 265.728987 195.127704 
L 267.071544 193.136595 
L 268.4141 190.879234 
L 269.756656 188.360647 
L 271.099213 195.259724 
L 272.441769 190.323195 
L 273.784326 192.16594 
L 275.126882 185.535827 
L 276.469438 190.356327 
L 277.811995 194.157665 
L 279.154551 195.231943 
L 280.497108 199.805793 
L 281.839664 205.75506 
L 283.18222 201.980701 
L 284.524777 196.973377 
L 287.20989 184.857416 
L 288.552446 182.068236 
L 289.895002 180.423619 
L 291.237559 177.468219 
L 292.580115 177.562124 
L 293.922672 178.80059 
L 295.265228 185.690961 
L 296.607784 185.834271 
L 299.292897 198.87215 
L 300.635453 203.82049 
L 301.97801 202.259429 
L 303.320566 205.894119 
L 304.663123 200.979192 
L 306.005679 198.165651 
L 307.348235 198.124359 
L 308.690792 202.74615 
L 310.033348 200.578123 
L 311.375905 207.104849 
L 312.718461 208.241904 
L 314.061017 211.671763 
L 315.403574 220.244674 
L 316.74613 226.078778 
L 318.088687 223.863886 
L 319.431243 233.998962 
L 320.773799 240.383726 
L 322.116356 233.517676 
L 323.458912 219.293385 
L 324.801469 203.251104 
L 326.144025 183.622751 
L 327.486581 167.197618 
L 328.829138 165.252998 
L 330.171694 172.562654 
L 331.51425 194.202864 
L 332.856807 213.618043 
L 334.199363 226.041419 
L 335.54192 232.462632 
L 336.884476 241.448056 
L 338.227032 239.391526 
L 339.569589 238.737845 
L 340.912145 239.787062 
L 342.254702 241.114508 
L 343.597258 244.070253 
L 344.939814 251.48424 
L 346.282371 248.029576 
L 347.624927 244.248661 
L 348.967484 243.731784 
L 350.31004 242.244278 
L 351.652596 242.65733 
L 352.995153 244.176889 
L 354.337709 242.605043 
L 355.680266 239.931252 
L 357.022822 246.935916 
L 358.365378 247.059347 
L 359.707935 247.328921 
L 361.050491 246.558014 
L 362.393047 249.176368 
L 363.735604 242.836748 
L 365.07816 234.590488 
L 366.420717 229.319501 
L 367.763273 227.373291 
L 369.105829 221.952487 
L 370.448386 220.862935 
L 371.790942 222.835301 
L 373.133499 230.068009 
L 374.476055 230.003639 
L 375.818611 231.284555 
L 377.161168 235.291923 
L 378.503724 235.670859 
L 379.846281 228.611926 
L 381.188837 231.859133 
L 382.531393 225.800643 
L 383.87395 218.691941 
L 385.216506 222.921585 
L 385.216506 222.921585 
" clip-path="url(#pfc0d9dea33)" style="fill: none; stroke: #9467bd; stroke-width: 1.5; stroke-linecap: square"/>
   </g>
   <g id="line2d_21">
    <path d="M 29.439063 221.989476 
L 30.781619 228.904971 
L 32.124175 237.483987 
L 33.466732 244.099331 
L 34.809288 250.133055 
L 37.494401 256.994611 
L 38.836957 253.038847 
L 41.52207 239.915086 
L 42.864626 236.632969 
L 44.207183 235.239876 
L 45.549739 227.68395 
L 46.892296 231.670455 
L 48.234852 240.522 
L 49.577408 246.901912 
L 50.919965 247.094508 
L 52.262521 245.135114 
L 53.605078 236.98727 
L 54.947634 227.417148 
L 56.29019 209.558869 
L 58.975303 154.479575 
L 60.317859 136.912814 
L 61.660416 136.626651 
L 63.002972 143.651398 
L 64.345529 138.702995 
L 65.688085 150.24993 
L 67.030641 157.637623 
L 68.373198 172.805614 
L 69.715754 172.308881 
L 71.058311 147.756838 
L 72.400867 139.424444 
L 73.743423 135.249771 
L 75.08598 118.380389 
L 76.428536 80.14313 
L 77.771093 68.347758 
L 79.113649 78.528388 
L 81.798762 83.731536 
L 83.141318 109.142714 
L 84.483875 114.016671 
L 85.826431 131.704446 
L 87.168987 137.894546 
L 88.511544 145.867244 
L 89.8541 159.375849 
L 91.196656 160.199988 
L 92.539213 173.774933 
L 93.881769 185.603024 
L 95.224326 187.691034 
L 97.909438 189.973888 
L 99.251995 189.661866 
L 100.594551 188.720384 
L 101.937108 183.420157 
L 103.279664 184.839306 
L 104.62222 187.32764 
L 105.964777 188.234936 
L 107.307333 190.808875 
L 108.64989 189.459306 
L 109.992446 189.315904 
L 111.335002 194.488321 
L 112.677559 196.222111 
L 114.020115 194.084129 
L 115.362672 192.551171 
L 116.705228 192.477858 
L 118.047784 193.836383 
L 119.390341 191.623847 
L 120.732897 188.740474 
L 122.075453 188.38451 
L 123.41801 189.755489 
L 124.760566 193.432394 
L 126.103123 198.363082 
L 127.445679 201.032618 
L 128.788235 206.925265 
L 130.130792 209.543013 
L 131.473348 213.252545 
L 132.815905 212.963095 
L 134.158461 207.846519 
L 136.843574 192.369156 
L 138.18613 189.197994 
L 140.871243 184.042107 
L 142.213799 187.198671 
L 146.241469 218.675332 
L 147.584025 224.780796 
L 148.926581 232.725185 
L 151.611694 243.690539 
L 152.95425 246.907814 
L 154.296807 247.474879 
L 155.639363 247.797075 
L 156.98192 249.480254 
L 158.324476 248.556817 
L 159.667032 245.08607 
L 161.009589 243.204053 
L 163.694702 238.815428 
L 166.379814 232.270423 
L 167.722371 231.130882 
L 169.064927 232.49656 
L 170.407484 234.57189 
L 171.75004 234.929153 
L 173.092596 236.028174 
L 174.435153 237.444895 
L 175.777709 238.514573 
L 177.120266 234.934333 
L 178.462822 238.395766 
L 179.805378 231.266365 
L 181.147935 229.132824 
L 182.490491 226.515892 
L 183.833047 229.239417 
L 185.175604 224.817696 
L 186.51816 209.621523 
L 187.860717 212.522123 
L 190.545829 216.641101 
L 191.888386 215.732855 
L 193.230942 217.061613 
L 194.573499 221.758769 
L 195.916055 232.710465 
L 197.258611 225.409058 
L 198.601168 226.675144 
L 199.943724 224.981941 
L 201.286281 225.516094 
L 202.628837 224.706134 
L 203.971393 219.993368 
L 205.31395 222.621729 
L 206.656506 230.960194 
L 207.999062 224.808205 
L 209.341619 219.699069 
L 210.684175 219.194515 
L 212.026732 212.348296 
L 213.369288 209.65087 
L 214.711844 194.907088 
L 216.054401 187.807324 
L 217.396957 195.211158 
L 218.739514 201.189777 
L 220.08207 199.121299 
L 221.424626 199.667689 
L 222.767183 201.664094 
L 224.109739 209.536309 
L 225.452296 206.137929 
L 226.794852 200.771985 
L 228.137408 200.539284 
L 229.479965 201.393693 
L 232.165078 190.557175 
L 233.507634 190.24811 
L 234.85019 187.367939 
L 236.192747 182.763564 
L 237.535303 175.139954 
L 238.877859 184.260041 
L 241.562972 185.693006 
L 242.905529 186.011723 
L 244.248085 189.053189 
L 245.590641 197.746163 
L 246.933198 192.377572 
L 248.275754 191.188962 
L 249.618311 196.093335 
L 250.960867 198.888857 
L 252.303423 207.49831 
L 254.988536 200.805821 
L 256.331093 208.713277 
L 257.673649 204.293783 
L 259.016205 199.221764 
L 260.358762 191.424833 
L 261.701318 192.344692 
L 263.043875 195.438584 
L 264.386431 188.410429 
L 265.728987 193.421343 
L 267.071544 191.466693 
L 268.4141 191.34645 
L 269.756656 191.086209 
L 271.099213 191.173373 
L 272.441769 195.888562 
L 273.784326 188.934661 
L 275.126882 184.957424 
L 277.811995 195.922878 
L 279.154551 195.865522 
L 280.497108 196.964714 
L 281.839664 196.992366 
L 283.18222 203.993471 
L 284.524777 201.233957 
L 285.867333 193.29733 
L 287.20989 188.48751 
L 288.552446 182.050611 
L 289.895002 182.922867 
L 291.237559 180.997684 
L 292.580115 176.85942 
L 293.922672 178.181248 
L 295.265228 182.759312 
L 296.607784 186.049535 
L 297.950341 190.908696 
L 299.292897 194.995539 
L 300.635453 200.316108 
L 301.97801 202.053777 
L 303.320566 203.05515 
L 304.663123 203.188982 
L 306.005679 199.818307 
L 307.348235 199.700281 
L 308.690792 201.146293 
L 310.033348 201.664569 
L 311.375905 204.221356 
L 312.718461 205.956449 
L 314.061017 210.922625 
L 315.403574 219.423925 
L 316.74613 221.610325 
L 318.088687 223.37897 
L 319.431243 229.049003 
L 320.773799 237.766712 
L 322.116356 236.693885 
L 324.801469 204.185953 
L 326.144025 198.109798 
L 328.829138 175.034151 
L 330.171694 165.669523 
L 331.51425 180.766015 
L 332.856807 207.173387 
L 334.199363 222.415569 
L 335.54192 228.878611 
L 336.884476 232.116043 
L 338.227032 235.824645 
L 339.569589 241.744141 
L 340.912145 242.955834 
L 342.254702 241.247706 
L 343.597258 241.929208 
L 344.939814 244.83055 
L 346.282371 248.808845 
L 347.624927 247.351661 
L 348.967484 244.492239 
L 350.31004 242.862764 
L 351.652596 243.66558 
L 352.995153 242.552297 
L 354.337709 242.817807 
L 355.680266 240.92033 
L 357.022822 245.569599 
L 358.365378 247.629856 
L 359.707935 246.468575 
L 361.050491 244.839602 
L 362.393047 246.543437 
L 363.735604 247.840138 
L 365.07816 237.555391 
L 366.420717 231.830536 
L 367.763273 228.017048 
L 369.105829 226.505229 
L 370.448386 224.482092 
L 371.790942 220.162131 
L 373.133499 227.964603 
L 374.476055 228.595117 
L 375.818611 229.804007 
L 377.161168 235.451266 
L 378.503724 232.73684 
L 379.846281 232.56268 
L 381.188837 230.112794 
L 382.531393 226.306774 
L 383.87395 225.520005 
L 385.216506 222.253967 
L 385.216506 222.253967 
" clip-path="url(#pfc0d9dea33)" style="fill: none; stroke: #8c564b; stroke-width: 1.5; stroke-linecap: square"/>
   </g>
   <g id="line2d_22">
    <path d="M 29.439063 224.216778 
L 30.781619 227.596136 
L 32.124175 236.094002 
L 33.466732 238.285498 
L 34.809288 247.009287 
L 36.151844 251.173405 
L 37.494401 253.38057 
L 38.836957 253.391419 
L 40.179514 250.111493 
L 41.52207 240.35466 
L 42.864626 240.873149 
L 44.207183 238.743918 
L 45.549739 231.524757 
L 46.892296 231.087585 
L 48.234852 239.084283 
L 49.577408 240.893702 
L 50.919965 246.996197 
L 52.262521 245.910647 
L 53.605078 233.085415 
L 54.947634 230.86679 
L 56.29019 221.875268 
L 57.632747 192.984554 
L 58.975303 172.579527 
L 60.317859 156.56697 
L 61.660416 133.393898 
L 63.002972 150.105108 
L 64.345529 145.513232 
L 65.688085 136.739153 
L 67.030641 150.483069 
L 68.373198 172.207681 
L 69.715754 164.739432 
L 71.058311 159.007124 
L 72.400867 141.932814 
L 73.743423 133.752243 
L 76.428536 113.209754 
L 77.771093 74.203567 
L 79.113649 74.821343 
L 80.456205 84.425418 
L 81.798762 85.512302 
L 83.141318 100.005778 
L 84.483875 109.382331 
L 85.826431 120.19955 
L 87.168987 134.191304 
L 88.511544 141.997781 
L 89.8541 153.047456 
L 91.196656 162.735832 
L 92.539213 166.052801 
L 93.881769 181.433711 
L 95.224326 182.665304 
L 96.566882 185.684395 
L 97.909438 190.052933 
L 99.251995 188.528151 
L 100.594551 189.949308 
L 101.937108 189.323584 
L 103.279664 181.997329 
L 104.62222 185.368481 
L 105.964777 189.494891 
L 107.307333 189.251731 
L 108.64989 189.776067 
L 109.992446 189.831957 
L 111.335002 191.63289 
L 112.677559 195.146246 
L 114.020115 195.216294 
L 115.362672 192.932486 
L 116.705228 191.218756 
L 118.047784 193.58218 
L 119.390341 193.580143 
L 120.732897 190.258975 
L 122.075453 188.474989 
L 123.41801 189.198645 
L 124.760566 191.981943 
L 126.103123 198.601115 
L 127.445679 199.784621 
L 128.788235 203.618883 
L 130.130792 206.544268 
L 131.473348 210.681256 
L 132.815905 211.804545 
L 134.158461 210.573035 
L 135.501017 201.272819 
L 138.18613 191.453746 
L 139.528687 191.567199 
L 140.871243 186.873421 
L 142.213799 188.362043 
L 143.556356 191.892493 
L 146.241469 214.499122 
L 147.584025 222.158824 
L 148.926581 227.322903 
L 150.269138 234.922937 
L 151.611694 240.308315 
L 152.95425 244.880253 
L 154.296807 247.623529 
L 155.639363 246.836933 
L 156.98192 248.36133 
L 158.324476 248.346486 
L 159.667032 246.014508 
L 161.009589 244.469403 
L 162.352145 242.710852 
L 163.694702 239.410904 
L 165.037258 238.158751 
L 166.379814 233.598803 
L 167.722371 230.819473 
L 169.064927 233.710105 
L 170.407484 235.321048 
L 171.75004 234.048867 
L 173.092596 235.757231 
L 174.435153 235.145673 
L 175.777709 236.280027 
L 177.120266 236.891486 
L 178.462822 240.248563 
L 179.805378 231.206691 
L 181.147935 230.855381 
L 182.490491 226.97232 
L 183.833047 229.200263 
L 185.175604 225.060755 
L 186.51816 220.171876 
L 187.860717 207.679122 
L 189.203273 216.719103 
L 190.545829 216.123738 
L 191.888386 220.271379 
L 193.230942 214.26839 
L 194.573499 217.436337 
L 195.916055 228.104504 
L 197.258611 227.449084 
L 198.601168 226.376218 
L 199.943724 227.223636 
L 201.286281 222.819885 
L 202.628837 223.999794 
L 203.971393 226.684388 
L 205.31395 218.385403 
L 206.656506 231.107781 
L 207.999062 225.63427 
L 209.341619 218.212387 
L 210.684175 218.52415 
L 212.026732 216.383034 
L 213.369288 209.44702 
L 214.711844 209.664523 
L 216.054401 187.671964 
L 217.396957 191.709338 
L 218.739514 202.671045 
L 220.08207 198.947973 
L 221.424626 198.387136 
L 222.767183 202.852002 
L 224.109739 201.008475 
L 225.452296 207.131896 
L 226.794852 207.18111 
L 228.137408 198.380668 
L 229.479965 200.348606 
L 230.822521 199.87207 
L 232.165078 191.497092 
L 233.507634 190.446999 
L 234.85019 191.399083 
L 236.192747 182.804438 
L 237.535303 178.836405 
L 238.877859 185.145917 
L 240.220416 181.658839 
L 241.562972 186.284838 
L 242.905529 187.806378 
L 244.248085 184.297498 
L 245.590641 192.130815 
L 246.933198 199.063592 
L 248.275754 187.727666 
L 249.618311 195.808404 
L 250.960867 199.024939 
L 252.303423 203.154815 
L 253.64598 204.902638 
L 254.988536 201.663825 
L 256.331093 202.345891 
L 257.673649 206.736348 
L 261.701318 191.746216 
L 263.043875 194.064329 
L 264.386431 191.922213 
L 265.728987 193.527147 
L 267.071544 190.499864 
L 268.4141 190.157175 
L 269.756656 191.456708 
L 271.099213 193.073793 
L 272.441769 192.318328 
L 273.784326 193.959995 
L 275.126882 183.119016 
L 277.811995 195.385749 
L 279.154551 197.120655 
L 280.497108 197.255697 
L 281.839664 194.920628 
L 283.18222 196.680503 
L 284.524777 203.076989 
L 285.867333 197.57802 
L 287.20989 190.830877 
L 288.552446 185.624953 
L 289.895002 182.786056 
L 291.237559 183.053444 
L 292.580115 179.987536 
L 293.922672 177.492985 
L 295.265228 181.681811 
L 296.607784 183.494688 
L 297.950341 190.37394 
L 299.292897 193.456085 
L 300.635453 196.827227 
L 301.97801 199.273135 
L 303.320566 202.7665 
L 304.663123 201.103242 
L 306.005679 201.896283 
L 307.348235 200.885534 
L 308.690792 202.043694 
L 310.033348 200.439377 
L 311.375905 204.616121 
L 312.718461 203.633554 
L 314.061017 208.62509 
L 315.403574 217.74467 
L 316.74613 220.720925 
L 318.088687 219.863341 
L 319.431243 227.927071 
L 320.773799 233.158476 
L 322.116356 234.910488 
L 323.458912 225.785975 
L 324.801469 207.941713 
L 326.144025 199.687402 
L 327.486581 198.707123 
L 328.829138 190.269042 
L 330.171694 174.012436 
L 331.51425 174.001014 
L 334.199363 216.068495 
L 335.54192 225.453198 
L 336.884476 229.092188 
L 338.227032 228.265121 
L 339.569589 238.433858 
L 340.912145 244.842663 
L 342.254702 243.724589 
L 343.597258 241.926549 
L 344.939814 242.904976 
L 346.282371 243.356351 
L 347.624927 248.122206 
L 348.967484 247.117699 
L 350.31004 243.645552 
L 351.652596 243.986768 
L 352.995153 243.433191 
L 354.337709 241.603178 
L 355.680266 241.348576 
L 357.022822 245.588154 
L 359.707935 247.045601 
L 361.050491 244.443331 
L 363.735604 245.747859 
L 365.07816 242.868152 
L 366.420717 234.842259 
L 367.763273 230.38515 
L 369.105829 227.185875 
L 370.448386 227.958074 
L 371.790942 223.389952 
L 373.133499 225.05755 
L 374.476055 226.98329 
L 375.818611 228.624362 
L 377.161168 233.647225 
L 378.503724 233.246031 
L 379.846281 230.430796 
L 381.188837 233.251507 
L 382.531393 225.549898 
L 383.87395 225.995159 
L 385.216506 227.465659 
L 385.216506 227.465659 
" clip-path="url(#pfc0d9dea33)" style="fill: none; stroke: #e377c2; stroke-width: 1.5; stroke-linecap: square"/>
   </g>
   <g id="patch_3">
    <path d="M 29.439063 284.991437 
L 29.439063 18.879437 
" style="fill: none; stroke: #000000; stroke-width: 0.8; stroke-linejoin: miter; stroke-linecap: square"/>
   </g>
   <g id="patch_4">
    <path d="M 386.559062 284.991437 
L 386.559062 18.879437 
" style="fill: none; stroke: #000000; stroke-width: 0.8; stroke-linejoin: miter; stroke-linecap: square"/>
   </g>
   <g id="patch_5">
    <path d="M 29.439063 284.991437 
L 386.559063 284.991437 
" style="fill: none; stroke: #000000; stroke-width: 0.8; stroke-linejoin: miter; stroke-linecap: square"/>
   </g>
   <g id="patch_6">
    <path d="M 29.439063 18.879437 
L 386.559063 18.879437 
" style="fill: none; stroke: #000000; stroke-width: 0.8; stroke-linejoin: miter; stroke-linecap: square"/>
   </g>
   <g id="legend_1">
    <g id="patch_7">
     <path d="M 341.260625 127.613812 
L 379.559062 127.613812 
Q 381.559062 127.613812 381.559062 125.613812 
L 381.559062 25.879437 
Q 381.559062 23.879437 379.559062 23.879437 
L 341.260625 23.879437 
Q 339.260625 23.879437 339.260625 25.879437 
L 339.260625 125.613812 
Q 339.260625 127.613812 341.260625 127.613812 
z
" style="fill: #ffffff; opacity: 0.8; stroke: #cccccc; stroke-linejoin: miter"/>
    </g>
    <g id="line2d_23">
     <path d="M 343.260625 31.870062 
L 353.260625 31.870062 
L 363.260625 31.870062 
" style="fill: none; stroke: #1f77b4; stroke-width: 1.5; stroke-linecap: square"/>
    </g>
    <g id="text_15">
     <!-- 1 -->
     <g transform="translate(371.260625 35.370062) scale(0.1 -0.1)">
      <use xlink:href="#IPAexGothic-31"/>
     </g>
    </g>
    <g id="line2d_24">
     <path d="M 343.260625 46.260687 
L 353.260625 46.260687 
L 363.260625 46.260687 
" style="fill: none; stroke: #ff7f0e; stroke-width: 1.5; stroke-linecap: square"/>
    </g>
    <g id="text_16">
     <!-- 2 -->
     <g transform="translate(371.260625 49.760687) scale(0.1 -0.1)">
      <use xlink:href="#IPAexGothic-32"/>
     </g>
    </g>
    <g id="line2d_25">
     <path d="M 343.260625 60.651312 
L 353.260625 60.651312 
L 363.260625 60.651312 
" style="fill: none; stroke: #2ca02c; stroke-width: 1.5; stroke-linecap: square"/>
    </g>
    <g id="text_17">
     <!-- 3 -->
     <g transform="translate(371.260625 64.151312) scale(0.1 -0.1)">
      <use xlink:href="#IPAexGothic-33"/>
     </g>
    </g>
    <g id="line2d_26">
     <path d="M 343.260625 75.041937 
L 353.260625 75.041937 
L 363.260625 75.041937 
" style="fill: none; stroke: #d62728; stroke-width: 1.5; stroke-linecap: square"/>
    </g>
    <g id="text_18">
     <!-- 4 -->
     <g transform="translate(371.260625 78.541937) scale(0.1 -0.1)">
      <defs>
       <path id="IPAexGothic-34" d="M 3813 1159 
L 3059 1159 
L 3059 63 
L 2547 63 
L 2547 1159 
L 197 1159 
L 197 1672 
L 2456 4678 
L 3059 4678 
L 3059 1634 
L 3813 1634 
L 3813 1159 
z
M 2578 4109 
L 2559 4109 
Q 2278 3656 2003 3284 
L 759 1634 
L 2547 1634 
L 2547 3144 
Q 2547 3481 2578 4109 
z
" transform="scale(0.015625)"/>
      </defs>
      <use xlink:href="#IPAexGothic-34"/>
     </g>
    </g>
    <g id="line2d_27">
     <path d="M 343.260625 89.432562 
L 353.260625 89.432562 
L 363.260625 89.432562 
" style="fill: none; stroke: #9467bd; stroke-width: 1.5; stroke-linecap: square"/>
    </g>
    <g id="text_19">
     <!-- 5 -->
     <g transform="translate(371.260625 92.932562) scale(0.1 -0.1)">
      <use xlink:href="#IPAexGothic-35"/>
     </g>
    </g>
    <g id="line2d_28">
     <path d="M 343.260625 103.823187 
L 353.260625 103.823187 
L 363.260625 103.823187 
" style="fill: none; stroke: #8c564b; stroke-width: 1.5; stroke-linecap: square"/>
    </g>
    <g id="text_20">
     <!-- 6 -->
     <g transform="translate(371.260625 107.323187) scale(0.1 -0.1)">
      <defs>
       <path id="IPAexGothic-36" d="M 1056 2328 
Q 1509 2981 2234 2981 
Q 2906 2981 3316 2513 
Q 3675 2106 3675 1522 
Q 3675 884 3272 434 
Q 2853 -31 2178 -31 
Q 1375 -31 922 581 
Q 481 1178 481 2228 
Q 481 3425 1013 4109 
Q 1494 4725 2272 4725 
Q 3191 4725 3609 4025 
L 3150 3775 
Q 2894 4266 2300 4266 
Q 1119 4266 1031 2328 
L 1056 2328 
z
M 2141 2547 
Q 1684 2547 1384 2206 
Q 1116 1900 1116 1541 
Q 1116 1156 1353 844 
Q 1672 428 2159 428 
Q 2669 428 2941 844 
Q 3125 1128 3125 1503 
Q 3125 1944 2881 2228 
Q 2600 2547 2141 2547 
z
" transform="scale(0.015625)"/>
      </defs>
      <use xlink:href="#IPAexGothic-36"/>
     </g>
    </g>
    <g id="line2d_29">
     <path d="M 343.260625 118.213812 
L 353.260625 118.213812 
L 363.260625 118.213812 
" style="fill: none; stroke: #e377c2; stroke-width: 1.5; stroke-linecap: square"/>
    </g>
    <g id="text_21">
     <!-- 7 -->
     <g transform="translate(371.260625 121.713812) scale(0.1 -0.1)">
      <defs>
       <path id="IPAexGothic-37" d="M 3597 4263 
Q 2238 2106 1778 63 
L 1131 63 
Q 1581 1834 2950 4128 
L 428 4128 
L 428 4634 
L 3597 4634 
L 3597 4263 
z
" transform="scale(0.015625)"/>
      </defs>
      <use xlink:href="#IPAexGothic-37"/>
     </g>
    </g>
   </g>
  </g>
  <g id="axes_2">
   <g id="matplotlib.axis_3"/>
   <g id="patch_8">
    <path d="M 29.439063 284.991437 
L 29.439063 18.879437 
" style="fill: none; stroke: #000000; stroke-width: 0.8; stroke-linejoin: miter; stroke-linecap: square"/>
   </g>
   <g id="patch_9">
    <path d="M 386.559062 284.991437 
L 386.559062 18.879437 
" style="fill: none; stroke: #000000; stroke-width: 0.8; stroke-linejoin: miter; stroke-linecap: square"/>
   </g>
   <g id="patch_10">
    <path d="M 29.439063 284.991437 
L 386.559063 284.991437 
" style="fill: none; stroke: #000000; stroke-width: 0.8; stroke-linejoin: miter; stroke-linecap: square"/>
   </g>
   <g id="patch_11">
    <path d="M 29.439063 18.879437 
L 386.559063 18.879437 
" style="fill: none; stroke: #000000; stroke-width: 0.8; stroke-linejoin: miter; stroke-linecap: square"/>
   </g>
  </g>
  <g id="text_22">
   <!-- : 2023/02/21 16:14:55(JST) -->
   <g transform="translate(211.087188 15.423437) scale(0.1 -0.1)">
    <defs>
     <path id="IPAexGothic-66f4" d="M 2956 3994 
L 2956 4588 
L 513 4588 
L 513 4984 
L 5881 4984 
L 5881 4588 
L 3413 4588 
L 3413 3994 
L 5300 3994 
L 5300 1288 
L 4838 1288 
L 4838 1759 
L 3406 1759 
Q 3384 1125 3150 709 
Q 4291 244 5997 31 
L 5694 -428 
Q 4109 -166 2906 384 
Q 2294 -266 744 -488 
L 494 -66 
Q 1903 59 2491 588 
Q 2041 813 1594 1166 
L 1928 1434 
Q 2331 1106 2747 897 
Q 2922 1219 2950 1759 
L 1556 1759 
L 1556 1413 
L 1097 1413 
L 1097 3994 
L 2956 3994 
z
M 2956 3609 
L 1556 3609 
L 1556 3078 
L 2956 3078 
L 2956 3609 
z
M 3413 3609 
L 3413 3078 
L 4838 3078 
L 4838 3609 
L 3413 3609 
z
M 2956 2700 
L 1556 2700 
L 1556 2144 
L 2956 2144 
L 2956 2700 
z
M 3413 2700 
L 3413 2144 
L 4838 2144 
L 4838 2700 
L 3413 2700 
z
" transform="scale(0.015625)"/>
     <path id="IPAexGothic-65b0" d="M 3891 2803 
Q 3881 1759 3794 1166 
Q 3653 197 3097 -563 
L 2741 -250 
Q 3450 700 3450 2631 
L 3450 4647 
Q 3516 4656 3622 4666 
Q 4656 4778 5447 5063 
L 5825 4678 
Q 4897 4419 3891 4294 
L 3891 3219 
L 6119 3219 
L 6119 2803 
L 5275 2803 
L 5275 -447 
L 4834 -447 
L 4834 2803 
L 3891 2803 
z
M 2822 4069 
Q 2678 3572 2519 3181 
L 3250 3181 
L 3250 2784 
L 2059 2784 
L 2059 2216 
L 3184 2216 
L 3184 1831 
L 2059 1831 
L 2059 1544 
Q 2613 1197 3031 847 
L 2781 456 
Q 2472 791 2059 1128 
L 2059 -447 
L 1644 -447 
L 1644 1294 
Q 1272 628 575 -31 
L 269 341 
Q 1041 938 1528 1831 
L 453 1831 
L 453 2216 
L 1644 2216 
L 1644 2784 
L 319 2784 
L 319 3181 
L 1125 3181 
Q 1013 3706 881 4069 
L 453 4069 
L 453 4453 
L 1631 4453 
L 1631 5309 
L 2072 5309 
L 2072 4453 
L 3166 4453 
L 3166 4069 
L 2822 4069 
z
M 2391 4069 
L 1325 4069 
Q 1450 3672 1534 3181 
L 2109 3181 
Q 2294 3659 2391 4069 
z
" transform="scale(0.015625)"/>
     <path id="IPAexGothic-65e5" d="M 5231 4800 
L 5231 -288 
L 4744 -288 
L 4744 128 
L 1647 128 
L 1647 -288 
L 1159 -288 
L 1159 4800 
L 5231 4800 
z
M 1647 4372 
L 1647 2731 
L 4744 2731 
L 4744 4372 
L 1647 4372 
z
M 1647 2297 
L 1647 556 
L 4744 556 
L 4744 2297 
L 1647 2297 
z
" transform="scale(0.015625)"/>
     <path id="IPAexGothic-6642" d="M 2328 4728 
L 2328 563 
L 934 563 
L 934 56 
L 519 56 
L 519 4728 
L 2328 4728 
z
M 934 4331 
L 934 2881 
L 1906 2881 
L 1906 4331 
L 934 4331 
z
M 934 2497 
L 934 953 
L 1906 953 
L 1906 2497 
L 934 2497 
z
M 3938 4372 
L 3938 5313 
L 4378 5313 
L 4378 4372 
L 5772 4372 
L 5772 3981 
L 4378 3981 
L 4378 3194 
L 6072 3194 
L 6072 2803 
L 5203 2803 
L 5203 2047 
L 5959 2047 
L 5959 1650 
L 5216 1650 
L 5216 31 
Q 5216 -447 4691 -447 
Q 4394 -447 3888 -391 
L 3784 78 
Q 4272 0 4591 0 
Q 4775 0 4775 172 
L 4775 1650 
L 2581 1650 
L 2581 2047 
L 4763 2047 
L 4763 2803 
L 2538 2803 
L 2538 3194 
L 3938 3194 
L 3938 3981 
L 2716 3981 
L 2716 4372 
L 3938 4372 
z
M 3669 384 
Q 3331 950 2956 1325 
L 3291 1575 
Q 3719 1147 4025 659 
L 3669 384 
z
" transform="scale(0.015625)"/>
     <path id="IPAexGothic-3a" d="M 1369 2559 
L 672 2559 
L 672 3250 
L 1369 3250 
L 1369 2559 
z
M 1369 63 
L 672 63 
L 672 753 
L 1369 753 
L 1369 63 
z
" transform="scale(0.015625)"/>
     <path id="IPAexGothic-20" transform="scale(0.015625)"/>
     <path id="IPAexGothic-2f" d="M 2719 4709 
L 600 -884 
L 300 -763 
L 2413 4831 
L 2719 4709 
z
" transform="scale(0.015625)"/>
     <path id="IPAexGothic-28" d="M 1928 -1016 
L 1653 -1166 
Q 488 69 488 1875 
Q 488 3678 1653 4909 
L 1928 4763 
Q 1006 3522 1006 1881 
Q 1006 203 1928 -1016 
z
" transform="scale(0.015625)"/>
     <path id="IPAexGothic-54" d="M 3866 4141 
L 2175 4141 
L 2175 63 
L 1606 63 
L 1606 4141 
L -31 4141 
L -31 4634 
L 3866 4634 
L 3866 4141 
z
" transform="scale(0.015625)"/>
     <path id="IPAexGothic-29" d="M 466 4909 
Q 1638 3672 1638 1875 
Q 1638 75 466 -1166 
L 191 -1016 
Q 1119 216 1119 1881 
Q 1119 3509 191 4763 
L 466 4909 
z
" transform="scale(0.015625)"/>
    </defs>
    <use xlink:href="#IPAexGothic-66f4"/>
    <use xlink:href="#IPAexGothic-65b0" x="100"/>
    <use xlink:href="#IPAexGothic-65e5" x="200"/>
    <use xlink:href="#IPAexGothic-6642" x="300"/>
    <use xlink:href="#IPAexGothic-3a" x="400"/>
    <use xlink:href="#IPAexGothic-20" x="431.982422"/>
    <use xlink:href="#IPAexGothic-32" x="458.984375"/>
    <use xlink:href="#IPAexGothic-30" x="521.972656"/>
    <use xlink:href="#IPAexGothic-32" x="584.960938"/>
    <use xlink:href="#IPAexGothic-33" x="647.949219"/>
    <use xlink:href="#IPAexGothic-2f" x="710.9375"/>
    <use xlink:href="#IPAexGothic-30" x="760.9375"/>
    <use xlink:href="#IPAexGothic-32" x="823.925781"/>
    <use xlink:href="#IPAexGothic-2f" x="886.914062"/>
    <use xlink:href="#IPAexGothic-32" x="936.914062"/>
    <use xlink:href="#IPAexGothic-31" x="999.902344"/>
    <use xlink:href="#IPAexGothic-20" x="1062.890625"/>
    <use xlink:href="#IPAexGothic-31" x="1089.892578"/>
    <use xlink:href="#IPAexGothic-36" x="1152.880859"/>
    <use xlink:href="#IPAexGothic-3a" x="1215.869141"/>
    <use xlink:href="#IPAexGothic-31" x="1247.851562"/>
    <use xlink:href="#IPAexGothic-34" x="1310.839844"/>
    <use xlink:href="#IPAexGothic-3a" x="1373.828125"/>
    <use xlink:href="#IPAexGothic-35" x="1405.810547"/>
    <use xlink:href="#IPAexGothic-35" x="1468.798828"/>
    <use xlink:href="#IPAexGothic-28" x="1531.787109"/>
    <use xlink:href="#IPAexGothic-4a" x="1565.087891"/>
    <use xlink:href="#IPAexGothic-53" x="1603.076172"/>
    <use xlink:href="#IPAexGothic-54" x="1661.572266"/>
    <use xlink:href="#IPAexGothic-29" x="1721.484375"/>
   </g>
  </g>
 </g>
 <defs>
  <clipPath id="pfc0d9dea33">
   <rect x="29.439063" y="18.879437" width="357.12" height="266.112"/>
  </clipPath>
 </defs>
</svg>
