<?xml version="1.0" encoding="utf-8" standalone="no"?>
<!DOCTYPE svg PUBLIC "-//W3C//DTD SVG 1.1//EN"
  "http://www.w3.org/Graphics/SVG/1.1/DTD/svg11.dtd">
<svg xmlns:xlink="http://www.w3.org/1999/xlink" width="397.259063pt" height="308.582062pt" viewBox="0 0 397.259063 308.582062" xmlns="http://www.w3.org/2000/svg" version="1.1">
 <metadata>
  <rdf:RDF xmlns:dc="http://purl.org/dc/elements/1.1/" xmlns:cc="http://creativecommons.org/ns#" xmlns:rdf="http://www.w3.org/1999/02/22-rdf-syntax-ns#">
   <cc:Work>
    <dc:type rdf:resource="http://purl.org/dc/dcmitype/StillImage"/>
    <dc:date>2023-01-27T07:14:08.970017</dc:date>
    <dc:format>image/svg+xml</dc:format>
    <dc:creator>
     <cc:Agent>
      <dc:title>Matplotlib v3.6.3, https://matplotlib.org/</dc:title>
     </cc:Agent>
    </dc:creator>
   </cc:Work>
  </rdf:RDF>
 </metadata>
 <defs>
  <style type="text/css">*{stroke-linejoin: round; stroke-linecap: butt}</style>
 </defs>
 <g id="figure_1">
  <g id="patch_1">
   <path d="M 0 308.582062 
L 397.259063 308.582062 
L 397.259063 0 
L 0 0 
z
" style="fill: #ffffff"/>
  </g>
  <g id="axes_1">
   <g id="patch_2">
    <path d="M 29.439063 284.991437 
L 386.559062 284.991437 
L 386.559062 18.879437 
L 29.439063 18.879437 
z
" style="fill: #ffffff"/>
   </g>
   <g id="line2d_1">
    <path d="M 29.439063 211.199039 
L 386.559062 211.199039 
" clip-path="url(#p7339fd05f4)" style="fill: none; stroke: #000000; stroke-linecap: square"/>
   </g>
   <g id="matplotlib.axis_1">
    <g id="xtick_1">
     <g id="line2d_2">
      <defs>
       <path id="md26fbd06ca" d="M 0 0 
L 0 3.5 
" style="stroke: #000000; stroke-width: 0.8"/>
      </defs>
      <g>
       <use xlink:href="#md26fbd06ca" x="29.439062" y="284.991437" style="stroke: #000000; stroke-width: 0.8"/>
      </g>
     </g>
     <g id="text_1">
      <!-- Jun -->
      <g transform="translate(21.499219 299.482062) scale(0.1 -0.1)">
       <defs>
        <path id="IPAexGothic-4a" d="M 1819 4634 
L 1819 1234 
Q 1819 -31 763 -31 
Q 303 -31 -125 209 
L 84 644 
Q 378 447 694 447 
Q 1250 447 1250 1203 
L 1250 4634 
L 1819 4634 
z
" transform="scale(0.015625)"/>
        <path id="IPAexGothic-75" d="M 3284 63 
L 2772 63 
L 2772 644 
Q 2300 0 1625 0 
Q 1072 0 763 375 
Q 519 678 519 1241 
L 519 3250 
L 1069 3250 
L 1069 1259 
Q 1069 466 1734 466 
Q 2406 466 2734 1291 
L 2734 3250 
L 3284 3250 
L 3284 63 
z
" transform="scale(0.015625)"/>
        <path id="IPAexGothic-6e" d="M 3328 63 
L 2778 63 
L 2778 2041 
Q 2778 2853 2106 2853 
Q 1428 2853 1113 2041 
L 1113 63 
L 563 63 
L 563 3250 
L 1075 3250 
L 1075 2675 
Q 1525 3316 2222 3316 
Q 3328 3316 3328 2072 
L 3328 63 
z
" transform="scale(0.015625)"/>
       </defs>
       <use xlink:href="#IPAexGothic-4a"/>
       <use xlink:href="#IPAexGothic-75" x="37.988281"/>
       <use xlink:href="#IPAexGothic-6e" x="98.388672"/>
      </g>
     </g>
    </g>
    <g id="xtick_2">
     <g id="line2d_3">
      <g>
       <use xlink:href="#md26fbd06ca" x="73.893834" y="284.991437" style="stroke: #000000; stroke-width: 0.8"/>
      </g>
     </g>
     <g id="text_2">
      <!-- Jul -->
      <g transform="translate(67.624303 299.482062) scale(0.1 -0.1)">
       <defs>
        <path id="IPAexGothic-6c" d="M 1131 63 
L 581 63 
L 581 4794 
L 1131 4794 
L 1131 63 
z
" transform="scale(0.015625)"/>
       </defs>
       <use xlink:href="#IPAexGothic-4a"/>
       <use xlink:href="#IPAexGothic-75" x="37.988281"/>
       <use xlink:href="#IPAexGothic-6c" x="98.388672"/>
      </g>
     </g>
    </g>
    <g id="xtick_3">
     <g id="line2d_4">
      <g>
       <use xlink:href="#md26fbd06ca" x="119.830432" y="284.991437" style="stroke: #000000; stroke-width: 0.8"/>
      </g>
     </g>
     <g id="text_3">
      <!-- Aug -->
      <g transform="translate(110.848401 299.42425) scale(0.1 -0.1)">
       <defs>
        <path id="IPAexGothic-41" d="M 4056 63 
L 3444 63 
L 2938 1409 
L 1100 1409 
L 603 63 
L -6 63 
L 1806 4666 
L 2259 4666 
L 4056 63 
z
M 2778 1863 
L 2316 3078 
Q 2125 3588 2028 4000 
L 2009 4000 
Q 1897 3563 1716 3078 
L 1263 1863 
L 2778 1863 
z
" transform="scale(0.015625)"/>
        <path id="IPAexGothic-67" d="M 1331 1150 
Q 1006 1122 1006 900 
Q 1006 613 1763 575 
L 2131 556 
Q 3303 497 3303 -294 
Q 3303 -700 2925 -959 
Q 2519 -1253 1794 -1253 
Q 1138 -1253 738 -1028 
Q 353 -809 353 -428 
Q 353 84 1075 247 
L 1075 269 
Q 506 413 506 778 
Q 506 1116 994 1297 
Q 456 1575 456 2181 
Q 456 2650 769 2963 
Q 1128 3322 1738 3322 
Q 2125 3322 2422 3153 
Q 2650 3453 3259 3463 
L 3259 3013 
Q 2838 3003 2703 2938 
Q 3034 2613 3034 2169 
Q 3034 1728 2734 1425 
Q 2400 1094 1813 1094 
Q 1563 1094 1331 1150 
z
M 1734 2919 
Q 1409 2919 1197 2706 
Q 988 2497 988 2181 
Q 988 1872 1184 1684 
Q 1397 1472 1756 1472 
Q 2094 1472 2297 1678 
Q 2503 1881 2503 2203 
Q 2503 2497 2297 2700 
Q 2081 2919 1734 2919 
z
M 1753 159 
Q 903 159 903 -366 
Q 903 -875 1800 -875 
Q 2378 -875 2638 -606 
Q 2772 -481 2772 -313 
Q 2772 159 1753 159 
z
" transform="scale(0.015625)"/>
       </defs>
       <use xlink:href="#IPAexGothic-41"/>
       <use xlink:href="#IPAexGothic-75" x="63.720703"/>
       <use xlink:href="#IPAexGothic-67" x="124.121094"/>
      </g>
     </g>
    </g>
    <g id="xtick_4">
     <g id="line2d_5">
      <g>
       <use xlink:href="#md26fbd06ca" x="165.767029" y="284.991437" style="stroke: #000000; stroke-width: 0.8"/>
      </g>
     </g>
     <g id="text_4">
      <!-- Sep -->
      <g transform="translate(156.892029 299.482062) scale(0.1 -0.1)">
       <defs>
        <path id="IPAexGothic-53" d="M 2919 3641 
Q 2563 4259 1853 4259 
Q 1453 4259 1213 4009 
Q 1028 3803 1028 3534 
Q 1028 3238 1266 3047 
Q 1444 2913 1984 2688 
L 2200 2597 
Q 2925 2306 3191 1953 
Q 3422 1644 3422 1259 
Q 3422 644 2969 288 
Q 2559 -31 1931 -31 
Q 881 -31 313 766 
L 753 1100 
Q 1203 459 1938 459 
Q 2288 459 2534 625 
Q 2841 847 2841 1216 
Q 2841 1503 2616 1728 
Q 2375 1959 1728 2206 
L 1541 2278 
Q 453 2694 453 3481 
Q 453 4006 806 4347 
Q 1203 4725 1863 4725 
Q 2841 4725 3359 3956 
L 2919 3641 
z
" transform="scale(0.015625)"/>
        <path id="IPAexGothic-65" d="M 863 1594 
Q 891 1041 1209 722 
Q 1534 397 1997 397 
Q 2606 397 2963 966 
L 3322 728 
Q 2869 -31 1931 -31 
Q 1222 -31 766 422 
Q 306 884 306 1641 
Q 306 2444 788 2925 
Q 1216 3353 1856 3353 
Q 2459 3353 2866 2956 
Q 3322 2494 3322 1722 
L 3322 1594 
L 863 1594 
z
M 2756 1997 
Q 2709 2431 2450 2681 
Q 2194 2938 1844 2938 
Q 1438 2938 1150 2591 
Q 953 2356 894 1997 
L 2756 1997 
z
" transform="scale(0.015625)"/>
        <path id="IPAexGothic-70" d="M 1075 2688 
Q 1525 3341 2206 3341 
Q 2769 3341 3172 2938 
Q 3641 2469 3641 1644 
Q 3641 841 3178 372 
Q 2775 -31 2200 -31 
Q 1569 -31 1106 497 
L 1106 -1216 
L 563 -1216 
L 563 3250 
L 1075 3250 
L 1075 2688 
z
M 1106 1950 
L 1106 1291 
Q 1106 897 1516 600 
Q 1791 403 2106 403 
Q 2469 403 2725 659 
Q 3066 997 3066 1631 
Q 3066 2200 2784 2559 
Q 2503 2900 2100 2900 
Q 1656 2900 1338 2484 
Q 1106 2184 1106 1950 
z
" transform="scale(0.015625)"/>
       </defs>
       <use xlink:href="#IPAexGothic-53"/>
       <use xlink:href="#IPAexGothic-65" x="58.496094"/>
       <use xlink:href="#IPAexGothic-70" x="115.380859"/>
      </g>
     </g>
    </g>
    <g id="xtick_5">
     <g id="line2d_6">
      <g>
       <use xlink:href="#md26fbd06ca" x="210.221801" y="284.991437" style="stroke: #000000; stroke-width: 0.8"/>
      </g>
     </g>
     <g id="text_5">
      <!-- Oct -->
      <g transform="translate(201.786645 299.482062) scale(0.1 -0.1)">
       <defs>
        <path id="IPAexGothic-4f" d="M 2541 4725 
Q 3456 4725 4044 4138 
Q 4709 3472 4709 2331 
Q 4709 1219 4031 550 
Q 3450 -31 2541 -31 
Q 1638 -31 1056 550 
Q 378 1219 378 2356 
Q 378 3469 1044 4138 
Q 1631 4725 2541 4725 
z
M 2541 4266 
Q 1953 4266 1531 3844 
Q 994 3303 994 2350 
Q 994 1391 1531 863 
Q 1947 447 2541 447 
Q 3131 447 3556 863 
Q 4094 1400 4094 2375 
Q 4094 3297 3550 3844 
Q 3138 4266 2541 4266 
z
" transform="scale(0.015625)"/>
        <path id="IPAexGothic-63" d="M 3269 784 
Q 2834 -31 1900 -31 
Q 1228 -31 788 409 
Q 313 891 313 1663 
Q 313 2428 788 2913 
Q 1222 3347 1881 3347 
Q 2813 3347 3206 2541 
L 2763 2309 
Q 2484 2900 1900 2900 
Q 1516 2900 1234 2619 
Q 881 2266 881 1650 
Q 881 1069 1222 728 
Q 1522 428 1956 428 
Q 2547 428 2847 1016 
L 3269 784 
z
" transform="scale(0.015625)"/>
        <path id="IPAexGothic-74" d="M 2125 241 
Q 1769 -6 1397 -6 
Q 653 -6 653 831 
L 653 2859 
L 219 2859 
L 219 3250 
L 653 3250 
L 653 3966 
L 1178 4228 
L 1178 3250 
L 2063 3250 
L 2063 2859 
L 1178 2859 
L 1178 906 
Q 1178 416 1513 416 
Q 1738 416 1941 588 
L 2125 241 
z
" transform="scale(0.015625)"/>
       </defs>
       <use xlink:href="#IPAexGothic-4f"/>
       <use xlink:href="#IPAexGothic-63" x="79.6875"/>
       <use xlink:href="#IPAexGothic-74" x="134.082031"/>
      </g>
     </g>
    </g>
    <g id="xtick_6">
     <g id="line2d_7">
      <g>
       <use xlink:href="#md26fbd06ca" x="256.158399" y="284.991437" style="stroke: #000000; stroke-width: 0.8"/>
      </g>
     </g>
     <g id="text_6">
      <!-- Nov -->
      <g transform="translate(246.909961 299.482062) scale(0.1 -0.1)">
       <defs>
        <path id="IPAexGothic-4e" d="M 4244 63 
L 3731 63 
L 1697 3150 
Q 1466 3500 1141 4097 
L 1116 4097 
L 1128 3797 
Q 1159 2803 1159 2469 
L 1159 63 
L 609 63 
L 609 4634 
L 1366 4634 
L 3113 1978 
Q 3453 1447 3713 966 
L 3738 966 
Q 3694 1897 3694 2469 
L 3694 4634 
L 4244 4634 
L 4244 63 
z
" transform="scale(0.015625)"/>
        <path id="IPAexGothic-6f" d="M 1919 3341 
Q 2594 3341 3056 2888 
Q 3531 2413 3531 1638 
Q 3531 888 3066 422 
Q 2609 -31 1919 -31 
Q 1228 -31 781 416 
Q 313 881 313 1656 
Q 313 2413 788 2888 
Q 1241 3341 1919 3341 
z
M 1919 2919 
Q 1519 2919 1241 2631 
Q 888 2278 888 1650 
Q 888 1031 1234 684 
Q 1516 403 1919 403 
Q 2331 403 2609 691 
Q 2956 1038 2956 1672 
Q 2956 2269 2603 2631 
Q 2316 2919 1919 2919 
z
" transform="scale(0.015625)"/>
        <path id="IPAexGothic-76" d="M 3103 3250 
L 1747 6 
L 1375 6 
L 25 3250 
L 628 3250 
L 1338 1388 
L 1522 844 
L 1569 703 
L 1588 703 
Q 1641 884 1822 1388 
L 2516 3250 
L 3103 3250 
z
" transform="scale(0.015625)"/>
       </defs>
       <use xlink:href="#IPAexGothic-4e"/>
       <use xlink:href="#IPAexGothic-6f" x="75.976562"/>
       <use xlink:href="#IPAexGothic-76" x="136.376953"/>
      </g>
     </g>
    </g>
    <g id="xtick_7">
     <g id="line2d_8">
      <g>
       <use xlink:href="#md26fbd06ca" x="300.61317" y="284.991437" style="stroke: #000000; stroke-width: 0.8"/>
      </g>
     </g>
     <g id="text_7">
      <!-- Dec -->
      <g transform="translate(291.264733 299.482062) scale(0.1 -0.1)">
       <defs>
        <path id="IPAexGothic-44" d="M 609 4634 
L 1984 4634 
Q 3159 4634 3791 4050 
Q 4456 3444 4456 2356 
Q 4456 1047 3516 441 
Q 2925 63 1941 63 
L 609 63 
L 609 4634 
z
M 1172 556 
L 1894 556 
Q 3853 556 3853 2356 
Q 3853 4147 1928 4147 
L 1172 4147 
L 1172 556 
z
" transform="scale(0.015625)"/>
       </defs>
       <use xlink:href="#IPAexGothic-44"/>
       <use xlink:href="#IPAexGothic-65" x="75.683594"/>
       <use xlink:href="#IPAexGothic-63" x="132.568359"/>
      </g>
     </g>
    </g>
    <g id="xtick_8">
     <g id="line2d_9">
      <g>
       <use xlink:href="#md26fbd06ca" x="346.549768" y="284.991437" style="stroke: #000000; stroke-width: 0.8"/>
      </g>
     </g>
     <g id="text_8">
      <!-- 2023 -->
      <g transform="translate(333.952893 299.482062) scale(0.1 -0.1)">
       <defs>
        <path id="IPAexGothic-32" d="M 3659 63 
L 447 63 
L 447 594 
Q 825 1475 1894 2203 
L 2072 2322 
Q 2619 2697 2791 2906 
Q 2988 3153 2988 3444 
Q 2988 3772 2756 4003 
Q 2500 4259 2084 4259 
Q 1250 4259 991 3328 
L 497 3506 
Q 853 4725 2116 4725 
Q 2806 4725 3216 4316 
Q 3575 3947 3575 3425 
Q 3575 3038 3344 2722 
Q 3131 2416 2366 1938 
L 2231 1856 
Q 1256 1253 978 569 
L 3659 569 
L 3659 63 
z
" transform="scale(0.015625)"/>
        <path id="IPAexGothic-30" d="M 2038 4725 
Q 2881 4725 3334 3944 
Q 3694 3325 3694 2344 
Q 3694 1372 3334 741 
Q 2888 -31 2016 -31 
Q 1147 -31 700 741 
Q 341 1372 341 2350 
Q 341 3713 1000 4334 
Q 1419 4725 2038 4725 
z
M 2016 4266 
Q 1516 4266 1228 3759 
Q 934 3247 934 2344 
Q 934 1456 1222 947 
Q 1513 447 2016 447 
Q 2619 447 2909 1153 
Q 3100 1622 3100 2375 
Q 3100 3256 2806 3759 
Q 2509 4266 2016 4266 
z
" transform="scale(0.015625)"/>
        <path id="IPAexGothic-33" d="M 2381 2419 
Q 3506 2216 3506 1278 
Q 3506 716 3128 356 
Q 2709 -31 1944 -31 
Q 797 -31 288 881 
L 756 1131 
Q 1109 441 1938 441 
Q 2425 441 2694 691 
Q 2950 928 2950 1291 
Q 2950 1719 2566 1978 
Q 2216 2213 1644 2213 
L 1363 2213 
L 1363 2669 
L 1656 2669 
Q 2231 2669 2534 2888 
Q 2859 3119 2859 3509 
Q 2859 3934 2494 4138 
Q 2259 4278 1931 4278 
Q 1238 4278 903 3578 
L 434 3803 
Q 897 4725 1938 4725 
Q 2597 4725 3006 4394 
Q 3416 4069 3416 3534 
Q 3416 3028 3019 2706 
Q 2763 2500 2381 2444 
L 2381 2419 
z
" transform="scale(0.015625)"/>
       </defs>
       <use xlink:href="#IPAexGothic-32"/>
       <use xlink:href="#IPAexGothic-30" x="62.988281"/>
       <use xlink:href="#IPAexGothic-32" x="125.976562"/>
       <use xlink:href="#IPAexGothic-33" x="188.964844"/>
      </g>
     </g>
    </g>
   </g>
   <g id="matplotlib.axis_2">
    <g id="ytick_1">
     <g id="line2d_10">
      <defs>
       <path id="m87d8be5987" d="M 0 0 
L -3.5 0 
" style="stroke: #000000; stroke-width: 0.8"/>
      </defs>
      <g>
       <use xlink:href="#m87d8be5987" x="29.439063" y="269.014637" style="stroke: #000000; stroke-width: 0.8"/>
      </g>
     </g>
     <g id="text_9">
      <!-- 0.5 -->
      <g transform="translate(7.2 272.759949) scale(0.1 -0.1)">
       <defs>
        <path id="IPAexGothic-2e" d="M 1184 63 
L 494 63 
L 494 753 
L 1184 753 
L 1184 63 
z
" transform="scale(0.015625)"/>
        <path id="IPAexGothic-35" d="M 1178 2603 
Q 1634 2963 2172 2963 
Q 2816 2963 3241 2528 
Q 3638 2113 3638 1497 
Q 3638 938 3297 513 
Q 2869 -31 2031 -31 
Q 959 -31 469 784 
L 938 1028 
Q 1309 434 2013 434 
Q 2466 434 2769 716 
Q 3081 1013 3081 1503 
Q 3081 1966 2806 2241 
Q 2519 2528 2056 2528 
Q 1406 2528 1072 2028 
L 591 2091 
L 884 4634 
L 3406 4634 
L 3406 4153 
L 1341 4153 
L 1134 2603 
L 1178 2603 
z
" transform="scale(0.015625)"/>
       </defs>
       <use xlink:href="#IPAexGothic-30"/>
       <use xlink:href="#IPAexGothic-2e" x="62.988281"/>
       <use xlink:href="#IPAexGothic-35" x="89.404297"/>
      </g>
     </g>
    </g>
    <g id="ytick_2">
     <g id="line2d_11">
      <g>
       <use xlink:href="#m87d8be5987" x="29.439063" y="211.199039" style="stroke: #000000; stroke-width: 0.8"/>
      </g>
     </g>
     <g id="text_10">
      <!-- 1.0 -->
      <g transform="translate(7.2 214.944352) scale(0.1 -0.1)">
       <defs>
        <path id="IPAexGothic-31" d="M 2463 63 
L 1900 63 
L 1900 4103 
Q 1372 3922 788 3797 
L 684 4231 
Q 1519 4441 2106 4731 
L 2463 4731 
L 2463 63 
z
" transform="scale(0.015625)"/>
       </defs>
       <use xlink:href="#IPAexGothic-31"/>
       <use xlink:href="#IPAexGothic-2e" x="62.988281"/>
       <use xlink:href="#IPAexGothic-30" x="89.404297"/>
      </g>
     </g>
    </g>
    <g id="ytick_3">
     <g id="line2d_12">
      <g>
       <use xlink:href="#m87d8be5987" x="29.439063" y="153.383442" style="stroke: #000000; stroke-width: 0.8"/>
      </g>
     </g>
     <g id="text_11">
      <!-- 1.5 -->
      <g transform="translate(7.2 157.128754) scale(0.1 -0.1)">
       <use xlink:href="#IPAexGothic-31"/>
       <use xlink:href="#IPAexGothic-2e" x="62.988281"/>
       <use xlink:href="#IPAexGothic-35" x="89.404297"/>
      </g>
     </g>
    </g>
    <g id="ytick_4">
     <g id="line2d_13">
      <g>
       <use xlink:href="#m87d8be5987" x="29.439063" y="95.567844" style="stroke: #000000; stroke-width: 0.8"/>
      </g>
     </g>
     <g id="text_12">
      <!-- 2.0 -->
      <g transform="translate(7.2 99.313157) scale(0.1 -0.1)">
       <use xlink:href="#IPAexGothic-32"/>
       <use xlink:href="#IPAexGothic-2e" x="62.988281"/>
       <use xlink:href="#IPAexGothic-30" x="89.404297"/>
      </g>
     </g>
    </g>
    <g id="ytick_5">
     <g id="line2d_14">
      <g>
       <use xlink:href="#m87d8be5987" x="29.439063" y="37.752247" style="stroke: #000000; stroke-width: 0.8"/>
      </g>
     </g>
     <g id="text_13">
      <!-- 2.5 -->
      <g transform="translate(7.2 41.497559) scale(0.1 -0.1)">
       <use xlink:href="#IPAexGothic-32"/>
       <use xlink:href="#IPAexGothic-2e" x="62.988281"/>
       <use xlink:href="#IPAexGothic-35" x="89.404297"/>
      </g>
     </g>
    </g>
   </g>
   <g id="line2d_15">
    <path d="M 29.439062 227.411867 
L 30.920888 255.471758 
L 32.402714 269.405805 
L 33.88454 242.945807 
L 35.366365 262.441258 
L 38.330017 251.639145 
L 39.811843 227.514621 
L 41.293668 229.940841 
L 42.775494 194.078383 
L 44.25732 246.403784 
L 45.739145 250.411663 
L 47.220971 205.84664 
L 48.702797 249.191321 
L 50.184623 272.895437 
L 51.666448 243.090535 
L 53.148274 247.559579 
L 54.6301 238.429093 
L 56.111926 112.810292 
L 57.593751 184.323192 
L 59.075577 181.498781 
L 60.557403 30.975437 
L 63.521054 168.571026 
L 65.00288 110.868109 
L 66.484706 213.126183 
L 67.966531 156.293505 
L 69.448357 124.518024 
L 70.930183 151.875457 
L 72.412009 236.751655 
L 73.893834 106.655378 
L 75.37566 51.387485 
L 76.857486 102.788184 
L 78.339311 95.926279 
L 79.821137 36.542983 
L 81.302963 79.37836 
L 82.784789 35.439549 
L 84.266614 110.396771 
L 85.74844 116.980214 
L 87.230266 109.726148 
L 88.712092 177.160719 
L 90.193917 110.814502 
L 91.675743 153.702013 
L 93.157569 148.460822 
L 94.639394 164.812112 
L 96.12122 190.526245 
L 97.603046 181.526351 
L 99.084872 197.096587 
L 100.566697 219.976945 
L 102.048523 163.710275 
L 103.530349 173.022011 
L 105.012175 196.817697 
L 106.494 179.527296 
L 107.975826 191.661352 
L 109.457652 192.887858 
L 110.939477 173.15897 
L 112.421303 188.50237 
L 113.903129 201.809366 
L 115.384955 195.197746 
L 116.86678 183.412435 
L 118.348606 192.046725 
L 119.830432 204.737627 
L 121.312258 199.025674 
L 122.794083 189.016626 
L 124.275909 185.809755 
L 125.757735 182.941981 
L 127.23956 200.02008 
L 128.721386 192.032303 
L 130.203212 181.775482 
L 131.685038 186.871327 
L 133.166863 193.9839 
L 134.648689 204.601463 
L 136.130515 225.669065 
L 137.612341 207.989558 
L 139.094166 218.057369 
L 140.575992 204.232725 
L 142.057818 217.282458 
L 143.539643 202.720535 
L 145.021469 195.141529 
L 146.503295 153.461242 
L 147.985121 171.531238 
L 149.466946 185.828914 
L 150.948772 204.950127 
L 152.430598 187.736367 
L 153.912423 211.671324 
L 155.394249 216.92144 
L 156.876075 231.587854 
L 158.357901 248.509599 
L 159.839726 240.826108 
L 161.321552 241.29957 
L 162.803378 247.072575 
L 164.285204 251.367839 
L 165.767029 251.669425 
L 167.248855 251.785215 
L 168.730681 242.900107 
L 170.212506 251.663262 
L 171.694332 241.186243 
L 173.176158 228.929625 
L 174.657984 240.670472 
L 176.139809 239.689961 
L 177.621635 228.587222 
L 179.103461 234.114512 
L 180.585287 220.053728 
L 182.067112 221.634093 
L 183.548938 247.789493 
L 185.030764 250.578039 
L 186.512589 230.847867 
L 187.994415 240.571341 
L 189.476241 229.667605 
L 190.958067 228.965012 
L 192.439892 226.507 
L 193.921718 266.267581 
L 195.403544 173.994674 
L 196.88537 228.352097 
L 198.367195 212.968149 
L 199.849021 243.863512 
L 201.330847 195.951487 
L 202.812672 187.500784 
L 204.294498 195.32975 
L 205.776324 238.855842 
L 207.25815 224.563828 
L 208.739975 239.674853 
L 210.221801 205.067187 
L 211.703627 219.657973 
L 213.185453 258.893645 
L 214.667278 189.095647 
L 216.149104 231.988543 
L 217.63093 230.452082 
L 219.112755 208.848889 
L 220.594581 214.413367 
L 222.076407 237.774657 
L 223.558233 208.216448 
L 225.040058 269.328924 
L 226.521884 186.857034 
L 228.00371 168.652783 
L 229.485536 211.199039 
L 230.967361 197.903063 
L 232.449187 190.42842 
L 233.931013 209.746404 
L 235.412838 135.123595 
L 236.894664 212.926136 
L 238.37649 239.34414 
L 239.858316 184.631705 
L 241.340141 193.892671 
L 242.821967 220.351516 
L 244.303793 197.002011 
L 245.785619 191.634272 
L 247.267444 213.253557 
L 248.74927 183.049443 
L 250.231096 199.198481 
L 251.712921 190.346771 
L 253.194747 160.309806 
L 254.676573 189.784075 
L 256.158399 198.104074 
L 257.640224 152.110827 
L 259.12205 152.9204 
L 260.603876 232.748365 
L 262.085702 165.024121 
L 263.567527 194.085734 
L 265.049353 199.838398 
L 266.531179 173.564927 
L 268.013004 209.205445 
L 269.49483 206.690562 
L 270.976656 156.249641 
L 272.458482 220.402577 
L 273.940307 215.284532 
L 275.422133 225.924092 
L 276.903959 188.099011 
L 278.385784 185.511636 
L 279.86761 211.199039 
L 281.349436 194.160213 
L 282.831262 184.55213 
L 284.313087 182.799057 
L 287.276739 203.930102 
L 288.758565 168.757197 
L 290.24039 220.491359 
L 291.722216 171.577359 
L 294.685867 192.11637 
L 296.167693 204.402838 
L 297.649519 198.987955 
L 299.131345 181.777237 
L 300.61317 142.696764 
L 302.094996 213.580923 
L 303.576822 220.529523 
L 305.058648 204.080643 
L 306.540473 205.292279 
L 308.022299 181.962456 
L 309.504125 194.793532 
L 310.98595 197.432704 
L 312.467776 173.295964 
L 313.949602 175.045451 
L 315.431428 167.16196 
L 316.913253 187.120934 
L 318.395079 183.834422 
L 319.876905 173.778001 
L 321.358731 181.23856 
L 322.840556 201.020413 
L 324.322382 187.828789 
L 325.804208 213.66936 
L 327.286033 207.768569 
L 328.767859 207.295129 
L 330.249685 192.832229 
L 331.731511 206.958159 
L 333.213336 188.728128 
L 334.695162 193.851266 
L 336.176988 207.103197 
L 337.658814 215.224404 
L 339.140639 196.113595 
L 340.622465 220.91992 
L 342.104291 200.04709 
L 343.586116 223.444191 
L 345.067942 251.024981 
L 346.549768 228.180558 
L 348.031594 208.755181 
L 349.513419 251.311193 
L 350.995245 254.432046 
L 352.477071 215.74342 
L 353.958897 126.299141 
L 355.440722 90.185267 
L 356.922548 169.01121 
L 358.404374 202.233317 
L 359.886199 208.810336 
L 361.368025 167.736099 
L 362.849851 215.685286 
L 364.331677 255.304956 
L 365.813502 257.151057 
L 367.295328 241.910597 
L 368.777154 230.363911 
L 370.25898 201.639485 
L 371.740805 252.591109 
L 373.222631 261.202922 
L 374.704457 248.191392 
L 376.186282 245.888016 
L 377.668108 248.528538 
L 379.149934 233.937612 
L 380.63176 243.873594 
L 382.113585 245.699396 
L 383.595411 238.379427 
L 385.077237 250.421781 
L 385.077237 250.421781 
" clip-path="url(#p7339fd05f4)" style="fill: none; stroke: #1f77b4; stroke-width: 1.5; stroke-linecap: square"/>
   </g>
   <g id="line2d_16">
    <path d="M 29.439062 230.929789 
L 30.920888 242.60231 
L 32.402714 262.8168 
L 33.88454 257.425513 
L 35.366365 253.337157 
L 36.848191 259.836211 
L 38.330017 254.434415 
L 39.811843 240.414674 
L 41.293668 228.735232 
L 42.775494 213.41839 
L 44.25732 223.501825 
L 45.739145 248.433331 
L 47.220971 230.677266 
L 48.702797 229.912564 
L 50.184623 262.11981 
L 51.666448 259.625445 
L 53.148274 245.355694 
L 54.6301 243.118728 
L 56.111926 189.281671 
L 57.593751 152.189606 
L 59.075577 182.917915 
L 60.557403 119.473036 
L 62.039228 68.196709 
L 63.521054 137.669929 
L 65.00288 141.957318 
L 66.484706 170.127431 
L 67.966531 187.579679 
L 69.448357 141.084002 
L 70.930183 138.693349 
L 72.412009 201.292679 
L 73.893834 186.000414 
L 75.37566 80.567026 
L 76.857486 78.413733 
L 78.339311 99.383107 
L 79.821137 67.931655 
L 81.302963 58.815077 
L 82.784789 58.306173 
L 84.266614 75.699401 
L 85.74844 113.713912 
L 87.230266 113.383995 
L 88.712092 146.569691 
L 90.193917 147.022086 
L 91.675743 133.443524 
L 93.157569 151.100956 
L 94.639394 156.832948 
L 96.12122 178.224324 
L 97.603046 186.098223 
L 99.084872 189.532009 
L 100.566697 209.091256 
L 102.048523 194.807872 
L 103.530349 168.434555 
L 105.012175 185.419494 
L 106.494 188.44227 
L 107.975826 185.724694 
L 109.457652 192.276003 
L 110.939477 183.362139 
L 112.421303 181.032368 
L 113.903129 195.324076 
L 115.384955 198.546144 
L 116.86678 189.431392 
L 118.348606 187.79659 
L 119.830432 198.54902 
L 121.312258 201.914295 
L 122.794083 194.115474 
L 124.275909 187.422411 
L 125.757735 184.383085 
L 127.23956 191.750659 
L 128.721386 196.087179 
L 130.203212 186.997904 
L 131.685038 184.346184 
L 133.166863 190.473981 
L 134.648689 199.403219 
L 136.130515 215.633088 
L 137.612341 217.185071 
L 139.094166 213.134848 
L 140.575992 211.351742 
L 142.057818 210.94113 
L 143.539643 210.228598 
L 145.021469 198.987184 
L 146.503295 175.731796 
L 147.985121 162.744798 
L 150.948772 195.737687 
L 152.430598 196.62741 
L 153.912423 200.268399 
L 155.394249 214.327003 
L 156.876075 224.517111 
L 158.357901 240.462163 
L 159.839726 244.757718 
L 161.321552 241.063165 
L 162.803378 244.236496 
L 164.285204 249.249927 
L 165.767029 251.518783 
L 167.248855 251.727342 
L 168.730681 247.466905 
L 170.212506 247.402446 
L 171.694332 246.595581 
L 173.176158 235.262778 
L 174.657984 234.987471 
L 176.139809 240.181603 
L 177.621635 234.304978 
L 179.103461 231.390872 
L 180.585287 227.332189 
L 182.067112 220.846856 
L 183.548938 235.644814 
L 185.030764 249.196285 
L 186.512589 241.279862 
L 187.994415 235.839395 
L 189.476241 235.281663 
L 190.958067 229.316941 
L 192.439892 227.743627 
L 193.921718 248.882551 
L 195.403544 230.621466 
L 196.88537 204.147875 
L 198.367195 220.93913 
L 199.849021 229.635769 
L 201.330847 222.625721 
L 202.812672 191.792225 
L 204.294498 191.471858 
L 205.776324 219.272458 
L 207.25815 231.97864 
L 208.739975 232.42119 
L 210.221801 223.814193 
L 211.703627 212.595296 
L 213.185453 241.501939 
L 214.667278 230.097519 
L 216.149104 212.536835 
L 217.63093 231.223399 
L 219.112755 220.196168 
L 220.594581 211.66473 
L 222.076407 226.773505 
L 223.558233 224.052711 
L 225.040058 244.24423 
L 226.521884 237.116008 
L 228.00371 178.033043 
L 230.967361 204.731901 
L 232.449187 194.218394 
L 233.931013 200.456001 
L 235.412838 177.011185 
L 236.894664 179.059561 
L 238.37649 227.005264 
L 239.858316 215.29372 
L 241.340141 189.34014 
L 242.821967 207.855357 
L 244.303793 209.25497 
L 245.785619 194.345323 
L 247.267444 202.914504 
L 248.74927 199.04078 
L 250.231096 191.364392 
L 251.712921 194.846812 
L 253.194747 176.074523 
L 254.676573 175.764073 
L 256.158399 194.009205 
L 257.640224 176.860376 
L 259.12205 152.516084 
L 260.603876 198.91713 
L 262.085702 203.448625 
L 263.567527 180.273516 
L 265.049353 196.993923 
L 266.531179 187.318791 
L 268.013004 192.562593 
L 269.49483 207.954654 
L 270.976656 183.674736 
L 272.458482 192.091624 
L 273.940307 217.873602 
L 275.422133 220.737602 
L 276.903959 208.513572 
L 278.385784 186.8113 
L 279.86761 198.998945 
L 281.349436 202.972279 
L 282.831262 189.440136 
L 284.313087 183.678277 
L 285.794913 188.335204 
L 287.276739 198.897374 
L 288.758565 187.448754 
L 290.24039 197.179515 
L 291.722216 198.341262 
L 293.204042 176.894581 
L 294.685867 187.16406 
L 296.167693 198.406453 
L 297.649519 201.724689 
L 299.131345 190.654224 
L 300.61317 163.401008 
L 302.094996 182.424595 
L 303.576822 217.110216 
L 305.058648 212.600777 
L 306.540473 204.687964 
L 308.022299 194.139114 
L 309.504125 188.526714 
L 310.98595 196.119779 
L 312.467776 185.880047 
L 313.949602 174.173214 
L 315.431428 171.1536 
L 316.913253 177.474475 
L 318.395079 185.48723 
L 319.876905 178.891638 
L 321.358731 177.554882 
L 322.840556 191.49043 
L 324.322382 194.588989 
L 325.804208 201.412831 
L 327.286033 210.756455 
L 328.767859 207.532084 
L 330.249685 200.270107 
L 331.731511 200.091846 
L 333.213336 198.165608 
L 334.695162 191.313905 
L 336.176988 200.651084 
L 337.658814 211.235099 
L 339.140639 206.046382 
L 340.622465 209.168684 
L 342.104291 210.952529 
L 343.586116 212.341773 
L 345.067942 238.302243 
L 346.549768 240.353858 
L 348.031594 218.904029 
L 349.513419 232.400817 
L 350.995245 252.888083 
L 352.477071 237.150337 
L 353.958897 177.577562 
L 355.440722 108.989297 
L 356.922548 133.576313 
L 358.404374 186.602691 
L 359.886199 205.566408 
L 361.368025 189.803691 
L 362.849851 193.854637 
L 364.331677 237.669294 
L 365.813502 256.234041 
L 367.295328 249.907348 
L 368.777154 236.3212 
L 370.25898 216.936234 
L 371.740805 230.424572 
L 373.222631 257.029702 
L 374.704457 254.991137 
L 376.186282 247.048016 
L 377.668108 247.219224 
L 379.149934 241.544538 
L 380.63176 239.046068 
L 382.113585 244.791574 
L 383.595411 242.11844 
L 385.077237 244.62081 
L 385.077237 244.62081 
" clip-path="url(#p7339fd05f4)" style="fill: none; stroke: #ff7f0e; stroke-width: 1.5; stroke-linecap: square"/>
   </g>
   <g id="line2d_17">
    <path d="M 29.439062 229.122786 
L 30.920888 239.928401 
L 32.402714 252.698705 
L 33.88454 256.780278 
L 35.366365 259.139403 
L 36.848191 254.622372 
L 38.330017 257.208287 
L 39.811843 246.388486 
L 41.293668 237.055655 
L 42.775494 218.326475 
L 45.739145 233.387372 
L 47.220971 236.234427 
L 48.702797 237.293425 
L 51.666448 256.313321 
L 53.148274 255.822722 
L 54.6301 243.109331 
L 56.111926 212.36467 
L 59.075577 162.563334 
L 60.557403 143.84129 
L 62.039228 113.406318 
L 63.521054 107.256927 
L 65.00288 129.127564 
L 66.484706 169.610337 
L 67.966531 165.645532 
L 69.448357 169.115602 
L 70.930183 144.753156 
L 72.412009 179.647632 
L 73.893834 175.437505 
L 75.37566 150.710969 
L 76.857486 88.208754 
L 78.339311 84.394062 
L 79.821137 80.114816 
L 81.302963 71.804879 
L 82.784789 51.239386 
L 84.266614 76.931758 
L 85.74844 90.291085 
L 87.230266 112.392863 
L 88.712092 137.201801 
L 90.193917 135.362509 
L 91.675743 149.276885 
L 93.157569 138.58476 
L 94.639394 155.795645 
L 96.12122 168.900399 
L 100.566697 200.539182 
L 102.048523 195.575228 
L 103.530349 187.912342 
L 105.012175 178.52472 
L 106.494 183.482093 
L 107.975826 189.523726 
L 109.457652 188.153999 
L 110.939477 186.18367 
L 112.421303 185.09643 
L 113.903129 188.315827 
L 115.384955 195.281979 
L 116.86678 193.687884 
L 118.348606 190.308761 
L 119.830432 193.689874 
L 121.312258 198.708102 
L 122.794083 197.755094 
L 124.275909 191.402728 
L 125.757735 185.944654 
L 127.23956 189.7987 
L 128.721386 191.844605 
L 130.203212 191.480812 
L 131.685038 186.955724 
L 133.166863 187.634041 
L 134.648689 195.355837 
L 136.130515 208.84012 
L 139.094166 217.476612 
L 140.575992 210.241718 
L 142.057818 213.36349 
L 143.539643 208.263285 
L 145.021469 205.402114 
L 146.503295 185.324114 
L 147.985121 174.344388 
L 149.466946 170.831497 
L 150.948772 188.120092 
L 152.430598 193.123075 
L 153.912423 201.848623 
L 155.394249 206.082407 
L 156.876075 220.402845 
L 158.357901 233.236603 
L 159.839726 240.583648 
L 161.321552 243.620823 
L 162.803378 243.114997 
L 165.767029 250.064959 
L 167.248855 251.607698 
L 168.730681 248.893225 
L 170.212506 248.891095 
L 171.694332 245.382199 
L 174.657984 237.10204 
L 176.139809 236.582508 
L 177.621635 236.477418 
L 179.103461 234.241533 
L 180.585287 227.752305 
L 182.067112 225.467971 
L 183.548938 230.718701 
L 185.030764 240.92208 
L 186.512589 243.507227 
L 187.994415 241.044337 
L 189.476241 233.826969 
L 190.958067 233.222764 
L 192.439892 228.38915 
L 193.921718 242.740121 
L 195.403544 229.269077 
L 196.88537 229.870881 
L 198.367195 207.161383 
L 199.849021 229.209749 
L 201.330847 219.501156 
L 202.812672 212.031087 
L 204.294498 192.98185 
L 205.776324 209.581314 
L 207.25815 221.065989 
L 208.739975 234.616737 
L 210.221801 224.06468 
L 211.703627 222.447011 
L 213.185453 230.764786 
L 214.667278 226.735849 
L 216.149104 230.732013 
L 217.63093 218.850986 
L 219.112755 224.281475 
L 220.594581 218.302399 
L 222.076407 221.123664 
L 223.558233 220.93512 
L 225.040058 242.141688 
L 226.521884 228.364316 
L 228.00371 218.44859 
L 229.485536 190.029585 
L 230.967361 193.727182 
L 232.449187 200.139008 
L 233.931013 199.610689 
L 235.412838 181.624175 
L 236.894664 190.09163 
L 239.858316 214.510045 
L 241.340141 208.573118 
L 242.821967 200.569432 
L 244.303793 204.342327 
L 245.785619 203.652593 
L 247.267444 200.974213 
L 248.74927 196.618162 
L 250.231096 199.093369 
L 251.712921 191.026031 
L 253.194747 184.214067 
L 254.676573 180.790352 
L 256.158399 183.611312 
L 257.640224 181.298308 
L 259.12205 169.270937 
L 260.603876 184.905831 
L 262.085702 188.492178 
L 263.567527 200.403438 
L 265.049353 187.108997 
L 266.531179 189.611924 
L 268.013004 195.033037 
L 269.49483 197.447481 
L 270.976656 192.747876 
L 272.458482 197.145102 
L 273.940307 200.314175 
L 275.422133 220.626045 
L 278.385784 201.295556 
L 279.86761 195.464272 
L 281.349436 197.405968 
L 282.831262 197.113713 
L 284.313087 187.261183 
L 285.794913 187.08549 
L 287.276739 193.741822 
L 288.758565 189.550213 
L 290.24039 199.469935 
L 291.722216 189.152671 
L 293.204042 193.119185 
L 294.685867 182.150609 
L 296.167693 193.164416 
L 297.649519 198.60058 
L 299.131345 195.400607 
L 300.61317 176.246527 
L 302.094996 182.20913 
L 303.576822 196.443074 
L 305.058648 212.928431 
L 306.540473 210.214796 
L 308.022299 197.539344 
L 309.504125 194.357613 
L 312.467776 188.916137 
L 313.949602 182.357292 
L 315.431428 171.871023 
L 316.913253 176.669151 
L 318.395079 179.625281 
L 319.876905 181.687232 
L 321.358731 179.678119 
L 322.840556 185.826618 
L 324.322382 190.280728 
L 325.804208 201.282161 
L 327.286033 203.568241 
L 328.767859 209.613962 
L 330.249685 202.82065 
L 331.731511 202.539923 
L 333.213336 196.411828 
L 334.695162 196.743275 
L 336.176988 196.795762 
L 337.658814 205.708887 
L 339.140639 206.399686 
L 340.622465 211.222913 
L 342.104291 206.203506 
L 343.586116 215.275699 
L 345.067942 227.04317 
L 346.549768 235.049338 
L 348.031594 230.893623 
L 349.513419 231.014516 
L 350.995245 240.403632 
L 352.477071 242.143466 
L 353.958897 209.55923 
L 355.440722 152.790998 
L 356.922548 131.180415 
L 358.404374 159.879638 
L 359.886199 194.434509 
L 361.368025 194.078898 
L 362.849851 199.039398 
L 364.331677 218.686553 
L 365.813502 244.703586 
L 367.295328 251.750355 
L 368.777154 243.877834 
L 370.25898 225.985777 
L 371.740805 230.404356 
L 374.704457 254.199875 
L 376.186282 252.076606 
L 379.149934 243.017663 
L 380.63176 242.328067 
L 382.113585 241.322359 
L 383.595411 242.707579 
L 385.077237 244.981923 
L 385.077237 244.981923 
" clip-path="url(#p7339fd05f4)" style="fill: none; stroke: #2ca02c; stroke-width: 1.5; stroke-linecap: square"/>
   </g>
   <g id="line2d_18">
    <path d="M 29.439062 221.275211 
L 30.920888 236.505406 
L 32.402714 248.478994 
L 33.88454 250.372301 
L 35.366365 258.240554 
L 36.848191 258.641514 
L 38.330017 253.887849 
L 39.811843 250.742613 
L 41.293668 242.558839 
L 42.775494 227.832517 
L 44.25732 226.152528 
L 45.739145 232.537407 
L 47.220971 227.154092 
L 48.702797 239.663468 
L 50.184623 247.949949 
L 51.666448 246.12502 
L 53.148274 254.219959 
L 54.6301 251.824807 
L 56.111926 220.968504 
L 57.593751 205.919399 
L 59.075577 186.135769 
L 60.557403 136.533121 
L 62.039228 133.903952 
L 63.521054 128.780364 
L 65.00288 108.165345 
L 66.484706 154.661857 
L 67.966531 166.381937 
L 69.448357 156.222628 
L 72.412009 174.127491 
L 73.893834 164.056515 
L 75.37566 151.002816 
L 76.857486 139.788926 
L 78.339311 90.161987 
L 79.821137 73.226844 
L 81.302963 79.930908 
L 82.784789 63.162834 
L 84.266614 67.394559 
L 85.74844 87.608872 
L 87.230266 95.307164 
L 88.712092 130.829051 
L 90.193917 130.923693 
L 93.157569 149.07322 
L 94.639394 145.514995 
L 96.12122 165.230701 
L 97.603046 172.15619 
L 99.084872 183.990017 
L 100.566697 198.107108 
L 102.048523 192.195781 
L 103.530349 190.267628 
L 105.012175 190.194295 
L 106.494 178.776002 
L 107.975826 185.572177 
L 109.457652 190.372599 
L 110.939477 184.54832 
L 112.421303 186.766963 
L 113.903129 189.473261 
L 115.384955 190.069324 
L 116.86678 192.410021 
L 121.312258 195.044354 
L 122.794083 196.351076 
L 124.275909 194.867136 
L 125.757735 189.335364 
L 127.23956 189.603599 
L 128.721386 190.360547 
L 130.203212 189.394825 
L 131.685038 190.342872 
L 133.166863 188.74688 
L 134.648689 192.084855 
L 136.130515 203.69443 
L 137.612341 208.628052 
L 139.094166 214.390906 
L 140.575992 214.306201 
L 142.057818 212.043229 
L 143.539643 210.791529 
L 145.021469 205.110817 
L 146.503295 194.096195 
L 147.985121 181.995215 
L 149.466946 177.300368 
L 150.948772 180.166067 
L 152.430598 188.02426 
L 153.912423 198.022962 
L 156.876075 213.03684 
L 158.357901 228.256977 
L 159.839726 235.194567 
L 161.321552 240.763189 
L 162.803378 244.49752 
L 164.285204 245.259188 
L 167.248855 250.498685 
L 168.730681 249.519384 
L 170.212506 249.59516 
L 171.694332 247.032432 
L 173.176158 241.548346 
L 174.657984 240.987516 
L 177.621635 234.646856 
L 179.103461 235.892398 
L 182.067112 226.256947 
L 183.548938 231.579139 
L 185.030764 236.122417 
L 186.512589 238.507266 
L 187.994415 242.782759 
L 189.476241 238.331566 
L 190.958067 232.634606 
L 192.439892 231.587191 
L 193.921718 239.646891 
L 195.403544 229.193149 
L 196.88537 229.040635 
L 198.367195 225.896331 
L 199.849021 217.632953 
L 201.330847 221.78581 
L 202.812672 212.266073 
L 204.294498 208.065956 
L 205.776324 206.313066 
L 207.25815 213.521109 
L 208.739975 226.061058 
L 210.221801 227.980673 
L 211.703627 222.980288 
L 213.185453 233.074257 
L 214.667278 221.710038 
L 216.149104 228.075685 
L 217.63093 230.662107 
L 219.112755 216.432907 
L 220.594581 221.898783 
L 222.076407 223.537176 
L 223.558233 218.034898 
L 225.040058 235.927619 
L 226.521884 230.806248 
L 228.00371 215.976432 
L 229.485536 216.679967 
L 230.967361 192.041922 
L 232.449187 192.910047 
L 233.931013 202.612348 
L 235.412838 185.877122 
L 236.894664 190.175906 
L 238.37649 204.536808 
L 239.858316 198.448671 
L 241.340141 209.676726 
L 242.821967 211.634562 
L 244.303793 199.686873 
L 245.785619 201.281933 
L 247.267444 206.126362 
L 248.74927 196.71423 
L 250.231096 197.268091 
L 251.712921 196.960725 
L 253.194747 183.923798 
L 254.676573 185.627441 
L 256.158399 185.325715 
L 257.640224 176.313222 
L 259.12205 174.670499 
L 260.603876 188.327129 
L 262.085702 180.177036 
L 265.049353 200.262414 
L 266.531179 183.839538 
L 268.013004 194.796847 
L 269.49483 198.049398 
L 270.976656 188.189868 
L 272.458482 200.271432 
L 273.940307 201.939318 
L 275.422133 207.269481 
L 276.903959 213.289999 
L 278.385784 204.949238 
L 279.86761 203.848238 
L 281.349436 195.139464 
L 282.831262 194.305696 
L 284.313087 193.674278 
L 285.794913 188.888776 
L 287.276739 191.5016 
L 288.758565 187.892686 
L 290.24039 198.041309 
L 291.722216 193.005785 
L 293.204042 187.405469 
L 294.685867 192.869183 
L 296.167693 188.066754 
L 297.649519 194.64471 
L 299.131345 194.587132 
L 300.61317 183.841066 
L 302.094996 186.599767 
L 303.576822 192.921842 
L 305.058648 198.395901 
L 306.540473 211.065593 
L 309.504125 196.858291 
L 310.98595 195.13317 
L 312.467776 187.209652 
L 313.949602 185.572071 
L 315.431428 178.699715 
L 316.913253 175.832866 
L 318.395079 178.493445 
L 319.876905 178.184745 
L 321.358731 181.575194 
L 322.840556 185.331186 
L 324.322382 186.329848 
L 325.804208 196.546057 
L 327.286033 202.936162 
L 328.767859 204.510717 
L 330.249685 205.626636 
L 331.731511 203.868227 
L 333.213336 199.222196 
L 334.695162 195.776348 
L 336.176988 199.414406 
L 337.658814 201.670223 
L 339.140639 203.378204 
L 340.622465 210.206468 
L 342.104291 208.524885 
L 343.586116 210.766072 
L 345.067942 225.546373 
L 348.031594 229.083162 
L 349.513419 236.464788 
L 350.995245 237.497733 
L 352.477071 234.806213 
L 353.958897 221.777563 
L 355.440722 187.059161 
L 356.922548 156.996009 
L 358.404374 152.052377 
L 359.886199 173.746238 
L 361.368025 188.21243 
L 362.849851 199.845473 
L 364.331677 216.297816 
L 367.295328 244.014071 
L 368.777154 246.895303 
L 370.25898 234.888058 
L 371.740805 233.419403 
L 373.222631 239.247932 
L 374.704457 243.609469 
L 376.186282 252.205565 
L 377.668108 251.204953 
L 379.149934 244.342162 
L 380.63176 243.23247 
L 382.113585 243.18381 
L 383.595411 240.595936 
L 385.077237 244.706237 
L 385.077237 244.706237 
" clip-path="url(#p7339fd05f4)" style="fill: none; stroke: #d62728; stroke-width: 1.5; stroke-linecap: square"/>
   </g>
   <g id="line2d_19">
    <path d="M 29.439062 222.506149 
L 30.920888 229.225195 
L 32.402714 244.328125 
L 33.88454 247.402355 
L 35.366365 252.954749 
L 36.848191 258.019032 
L 38.330017 257.295259 
L 39.811843 249.2435 
L 41.293668 246.974437 
L 42.775494 234.54074 
L 44.25732 231.861658 
L 45.739145 231.553594 
L 47.220971 227.717781 
L 48.702797 232.012654 
L 50.184623 247.643113 
L 53.148274 246.413994 
L 54.6301 251.305355 
L 56.111926 234.325278 
L 57.593751 214.484016 
L 59.075577 201.387908 
L 60.557403 163.586194 
L 62.039228 129.858474 
L 63.521054 141.397281 
L 65.00288 125.3209 
L 66.484706 134.972888 
L 67.966531 154.989431 
L 69.448357 158.76708 
L 70.930183 155.361922 
L 72.412009 182.873277 
L 73.893834 162.532711 
L 75.37566 145.998895 
L 76.857486 142.271252 
L 78.339311 131.739654 
L 79.821137 80.2958 
L 81.302963 74.469261 
L 82.784789 71.612377 
L 84.266614 73.369884 
L 85.74844 78.170446 
L 87.230266 92.205622 
L 88.712092 114.651386 
L 90.193917 126.98029 
L 91.675743 135.707335 
L 93.157569 141.820322 
L 94.639394 152.338799 
L 96.12122 155.572908 
L 97.603046 168.629853 
L 99.084872 177.501124 
L 100.566697 192.046346 
L 102.048523 191.863517 
L 103.530349 188.562489 
L 105.012175 191.603524 
L 106.494 188.124556 
L 107.975826 181.447777 
L 109.457652 187.0666 
L 110.939477 187.0915 
L 112.421303 185.34807 
L 113.903129 189.913695 
L 115.384955 190.637736 
L 116.86678 188.763136 
L 119.830432 195.654061 
L 121.312258 195.075047 
L 122.794083 193.860278 
L 124.275909 194.307816 
L 125.757735 192.563919 
L 127.23956 191.542008 
L 130.203212 188.685177 
L 131.685038 188.893792 
L 133.166863 191.078975 
L 134.648689 192.074346 
L 136.130515 199.593102 
L 137.612341 204.565698 
L 139.094166 210.577143 
L 140.575992 212.428944 
L 142.057818 214.907852 
L 143.539643 210.23647 
L 145.021469 207.817891 
L 146.503295 196.188428 
L 147.985121 189.862088 
L 149.466946 182.770205 
L 150.948772 183.291563 
L 152.430598 181.712392 
L 153.912423 193.113415 
L 156.876075 211.463604 
L 159.839726 230.909798 
L 162.803378 242.063784 
L 164.285204 245.919887 
L 165.767029 246.583547 
L 167.248855 248.741635 
L 168.730681 249.036102 
L 170.212506 249.952996 
L 171.694332 247.98217 
L 173.176158 243.701758 
L 174.657984 241.373489 
L 176.139809 240.72956 
L 177.621635 235.993508 
L 179.103461 234.540632 
L 180.585287 232.924776 
L 182.067112 229.099784 
L 183.548938 230.988135 
L 185.030764 235.724345 
L 186.512589 235.091221 
L 187.994415 238.923995 
L 189.476241 240.309621 
L 190.958067 236.532871 
L 192.439892 231.439783 
L 193.921718 239.832571 
L 195.403544 229.288225 
L 196.88537 229.025515 
L 198.367195 226.018762 
L 199.849021 229.776904 
L 201.330847 213.604985 
L 202.812672 215.680869 
L 204.294498 209.062995 
L 205.776324 214.984372 
L 207.25815 210.206824 
L 208.739975 219.314815 
L 210.221801 222.17396 
L 211.703627 226.369517 
L 213.185453 231.430807 
L 214.667278 225.577264 
L 216.149104 223.851206 
L 217.63093 228.555607 
L 219.112755 226.648719 
L 220.594581 216.031922 
L 222.076407 225.28565 
L 223.558233 220.640156 
L 225.040058 231.061495 
L 226.521884 227.73105 
L 228.00371 220.726004 
L 229.485536 215.037011 
L 230.967361 213.157231 
L 232.449187 191.720756 
L 233.931013 196.460668 
L 235.412838 191.350375 
L 236.894664 191.757527 
L 238.37649 201.836996 
L 239.858316 200.792232 
L 241.340141 197.550137 
L 242.821967 211.894043 
L 244.303793 208.846332 
L 245.785619 198.115669 
L 247.267444 203.773183 
L 248.74927 201.828184 
L 250.231096 197.214919 
L 251.712921 195.912493 
L 254.676573 185.115566 
L 256.158399 188.215948 
L 257.640224 179.230873 
L 259.12205 171.901027 
L 260.603876 188.619752 
L 262.085702 183.951829 
L 263.567527 183.070739 
L 265.049353 191.957715 
L 266.531179 195.323676 
L 268.013004 189.316525 
L 269.49483 197.266248 
L 270.976656 190.602066 
L 272.458482 195.331172 
L 273.940307 203.427593 
L 275.422133 207.153921 
L 276.903959 203.660003 
L 278.385784 208.209749 
L 279.86761 206.225655 
L 281.349436 201.968952 
L 282.831262 193.086981 
L 284.313087 192.080368 
L 285.794913 193.671134 
L 287.276739 192.037551 
L 288.758565 187.230909 
L 290.24039 195.127704 
L 291.722216 193.136595 
L 293.204042 190.879234 
L 294.685867 188.360647 
L 296.167693 195.259724 
L 297.649519 190.323195 
L 299.131345 192.16594 
L 300.61317 185.535827 
L 302.094996 190.356327 
L 303.576822 194.157665 
L 305.058648 195.231943 
L 306.540473 199.805793 
L 308.022299 205.75506 
L 309.504125 201.980701 
L 310.98595 196.973377 
L 313.949602 184.857416 
L 315.431428 182.068236 
L 316.913253 180.423619 
L 318.395079 177.468219 
L 319.876905 177.562124 
L 321.358731 178.80059 
L 322.840556 185.690961 
L 324.322382 185.834271 
L 327.286033 198.87215 
L 328.767859 203.82049 
L 330.249685 202.259429 
L 331.731511 205.894119 
L 333.213336 200.979192 
L 334.695162 198.165651 
L 336.176988 198.124359 
L 337.658814 202.74615 
L 339.140639 200.578123 
L 340.622465 207.104849 
L 342.104291 208.241904 
L 343.586116 211.671763 
L 345.067942 220.244674 
L 346.549768 226.078778 
L 348.031594 223.863886 
L 349.513419 233.998962 
L 350.995245 240.383726 
L 352.477071 233.517676 
L 353.958897 219.293385 
L 355.440722 203.251104 
L 356.922548 183.622751 
L 358.404374 167.197618 
L 359.886199 165.252998 
L 361.368025 172.562654 
L 362.849851 194.202864 
L 364.331677 213.618043 
L 365.813502 226.041419 
L 367.295328 232.462632 
L 368.777154 241.448056 
L 370.25898 239.391526 
L 371.740805 238.737845 
L 373.222631 239.787062 
L 374.704457 241.114508 
L 376.186282 244.070253 
L 377.668108 251.48424 
L 379.149934 248.029576 
L 380.63176 244.248661 
L 382.113585 243.731784 
L 383.595411 242.244278 
L 385.077237 242.65733 
L 385.077237 242.65733 
" clip-path="url(#p7339fd05f4)" style="fill: none; stroke: #9467bd; stroke-width: 1.5; stroke-linecap: square"/>
   </g>
   <g id="line2d_20">
    <path d="M 29.439062 221.989476 
L 30.920888 228.904971 
L 32.402714 237.483987 
L 33.88454 244.099331 
L 35.366365 250.133055 
L 38.330017 256.994611 
L 39.811843 253.038847 
L 42.775494 239.915086 
L 44.25732 236.632969 
L 45.739145 235.239876 
L 47.220971 227.68395 
L 48.702797 231.670455 
L 50.184623 240.522 
L 51.666448 246.901912 
L 53.148274 247.094508 
L 54.6301 245.135114 
L 56.111926 236.98727 
L 57.593751 227.417148 
L 59.075577 209.558869 
L 62.039228 154.479575 
L 63.521054 136.912814 
L 65.00288 136.626651 
L 66.484706 143.651398 
L 67.966531 138.702995 
L 69.448357 150.24993 
L 70.930183 157.637623 
L 72.412009 172.805614 
L 73.893834 172.308881 
L 75.37566 147.756838 
L 76.857486 139.424444 
L 78.339311 135.249771 
L 79.821137 118.380389 
L 81.302963 80.14313 
L 82.784789 68.347758 
L 84.266614 78.528388 
L 87.230266 83.731536 
L 88.712092 109.142714 
L 90.193917 114.016671 
L 91.675743 131.704446 
L 93.157569 137.894546 
L 94.639394 145.867244 
L 96.12122 159.375849 
L 97.603046 160.199988 
L 99.084872 173.774933 
L 100.566697 185.603024 
L 102.048523 187.691034 
L 105.012175 189.973888 
L 106.494 189.661866 
L 107.975826 188.720384 
L 109.457652 183.420157 
L 110.939477 184.839306 
L 112.421303 187.32764 
L 113.903129 188.234936 
L 115.384955 190.808875 
L 116.86678 189.459306 
L 118.348606 189.315904 
L 119.830432 194.488321 
L 121.312258 196.222111 
L 122.794083 194.084129 
L 124.275909 192.551171 
L 125.757735 192.477858 
L 127.23956 193.836383 
L 128.721386 191.623847 
L 130.203212 188.740474 
L 131.685038 188.38451 
L 133.166863 189.755489 
L 134.648689 193.432394 
L 136.130515 198.363082 
L 137.612341 201.032618 
L 139.094166 206.925265 
L 140.575992 209.543013 
L 142.057818 213.252545 
L 143.539643 212.963095 
L 145.021469 207.846519 
L 147.985121 192.369156 
L 149.466946 189.197994 
L 150.948772 186.729077 
L 152.430598 184.042107 
L 153.912423 187.198671 
L 156.876075 207.540235 
L 158.357901 218.675332 
L 159.839726 224.780796 
L 161.321552 232.725185 
L 164.285204 243.690539 
L 165.767029 246.907814 
L 167.248855 247.474879 
L 168.730681 247.797075 
L 170.212506 249.480254 
L 171.694332 248.556817 
L 173.176158 245.08607 
L 174.657984 243.204053 
L 177.621635 238.815428 
L 179.103461 235.683007 
L 180.585287 232.270423 
L 182.067112 231.130882 
L 183.548938 232.49656 
L 185.030764 234.57189 
L 186.512589 234.929153 
L 187.994415 236.028174 
L 189.476241 237.444895 
L 190.958067 238.514573 
L 192.439892 234.934333 
L 193.921718 238.395766 
L 195.403544 231.266365 
L 196.88537 229.132824 
L 198.367195 226.515892 
L 199.849021 229.239417 
L 201.330847 224.817696 
L 202.812672 209.621523 
L 204.294498 212.522123 
L 207.25815 216.641101 
L 208.739975 215.732855 
L 210.221801 217.061613 
L 211.703627 221.758769 
L 213.185453 232.710465 
L 214.667278 225.409058 
L 216.149104 226.675144 
L 217.63093 224.981941 
L 219.112755 225.516094 
L 220.594581 224.706134 
L 222.076407 219.993368 
L 223.558233 222.621729 
L 225.040058 230.960194 
L 226.521884 224.808205 
L 228.00371 219.699069 
L 229.485536 219.194515 
L 230.967361 212.348296 
L 232.449187 209.65087 
L 233.931013 194.907088 
L 235.412838 187.807324 
L 236.894664 195.211158 
L 238.37649 201.189777 
L 239.858316 199.121299 
L 241.340141 199.667689 
L 242.821967 201.664094 
L 244.303793 209.536309 
L 245.785619 206.137929 
L 247.267444 200.771985 
L 248.74927 200.539284 
L 250.231096 201.393693 
L 253.194747 190.557175 
L 254.676573 190.24811 
L 256.158399 187.367939 
L 257.640224 182.763564 
L 259.12205 175.139954 
L 260.603876 184.260041 
L 263.567527 185.693006 
L 265.049353 186.011723 
L 266.531179 189.053189 
L 268.013004 197.746163 
L 269.49483 192.377572 
L 270.976656 191.188962 
L 272.458482 196.093335 
L 273.940307 198.888857 
L 275.422133 207.49831 
L 278.385784 200.805821 
L 279.86761 208.713277 
L 281.349436 204.293783 
L 282.831262 199.221764 
L 284.313087 191.424833 
L 285.794913 192.344692 
L 287.276739 195.438584 
L 288.758565 188.410429 
L 290.24039 193.421343 
L 291.722216 191.466693 
L 293.204042 191.34645 
L 294.685867 191.086209 
L 296.167693 191.173373 
L 297.649519 195.888562 
L 299.131345 188.934661 
L 300.61317 184.957424 
L 303.576822 195.922878 
L 305.058648 195.865522 
L 306.540473 196.964714 
L 308.022299 196.992366 
L 309.504125 203.993471 
L 310.98595 201.233957 
L 312.467776 193.29733 
L 313.949602 188.48751 
L 315.431428 182.050611 
L 316.913253 182.922867 
L 318.395079 180.997684 
L 319.876905 176.85942 
L 321.358731 178.181248 
L 322.840556 182.759312 
L 324.322382 186.049535 
L 325.804208 190.908696 
L 327.286033 194.995539 
L 328.767859 200.316108 
L 330.249685 202.053777 
L 331.731511 203.05515 
L 333.213336 203.188982 
L 334.695162 199.818307 
L 336.176988 199.700281 
L 337.658814 201.146293 
L 339.140639 201.664569 
L 340.622465 204.221356 
L 342.104291 205.956449 
L 343.586116 210.922625 
L 345.067942 219.423925 
L 346.549768 221.610325 
L 348.031594 223.37897 
L 349.513419 229.049003 
L 350.995245 237.766712 
L 352.477071 236.693885 
L 355.440722 204.185953 
L 356.922548 198.109798 
L 359.886199 175.034151 
L 361.368025 165.669523 
L 362.849851 180.766015 
L 364.331677 207.173387 
L 365.813502 222.415569 
L 367.295328 228.878611 
L 368.777154 232.116043 
L 370.25898 235.824645 
L 371.740805 241.744141 
L 373.222631 242.955834 
L 374.704457 241.247706 
L 376.186282 241.929208 
L 377.668108 244.83055 
L 379.149934 248.808845 
L 380.63176 247.351661 
L 382.113585 244.492239 
L 383.595411 242.862764 
L 385.077237 243.66558 
L 385.077237 243.66558 
" clip-path="url(#p7339fd05f4)" style="fill: none; stroke: #8c564b; stroke-width: 1.5; stroke-linecap: square"/>
   </g>
   <g id="line2d_21">
    <path d="M 29.439062 224.216778 
L 30.920888 227.596136 
L 32.402714 236.094002 
L 33.88454 238.285498 
L 35.366365 247.009287 
L 36.848191 251.173405 
L 38.330017 253.38057 
L 39.811843 253.391419 
L 41.293668 250.111493 
L 42.775494 240.35466 
L 44.25732 240.873149 
L 45.739145 238.743918 
L 47.220971 231.524757 
L 48.702797 231.087585 
L 50.184623 239.084283 
L 51.666448 240.893702 
L 53.148274 246.996197 
L 54.6301 245.910647 
L 56.111926 233.085415 
L 57.593751 230.86679 
L 59.075577 221.875268 
L 60.557403 192.984554 
L 62.039228 172.579527 
L 63.521054 156.56697 
L 65.00288 133.393898 
L 66.484706 150.105108 
L 67.966531 145.513232 
L 69.448357 136.739153 
L 70.930183 150.483069 
L 72.412009 172.207681 
L 73.893834 164.739432 
L 75.37566 159.007124 
L 76.857486 141.932814 
L 78.339311 133.752243 
L 81.302963 113.209754 
L 82.784789 74.203567 
L 84.266614 74.821343 
L 85.74844 84.425418 
L 87.230266 85.512302 
L 88.712092 100.005778 
L 90.193917 109.382331 
L 91.675743 120.19955 
L 93.157569 134.191304 
L 94.639394 141.997781 
L 96.12122 153.047456 
L 97.603046 162.735832 
L 99.084872 166.052801 
L 100.566697 181.433711 
L 102.048523 182.665304 
L 103.530349 185.684395 
L 105.012175 190.052933 
L 106.494 188.528151 
L 107.975826 189.949308 
L 109.457652 189.323584 
L 110.939477 181.997329 
L 112.421303 185.368481 
L 113.903129 189.494891 
L 115.384955 189.251731 
L 116.86678 189.776067 
L 118.348606 189.831957 
L 119.830432 191.63289 
L 121.312258 195.146246 
L 122.794083 195.216294 
L 124.275909 192.932486 
L 125.757735 191.218756 
L 127.23956 193.58218 
L 128.721386 193.580143 
L 130.203212 190.258975 
L 131.685038 188.474989 
L 133.166863 189.198645 
L 134.648689 191.981943 
L 136.130515 198.601115 
L 137.612341 199.784621 
L 139.094166 203.618883 
L 140.575992 206.544268 
L 142.057818 210.681256 
L 143.539643 211.804545 
L 145.021469 210.573035 
L 146.503295 201.272819 
L 149.466946 191.453746 
L 150.948772 191.567199 
L 152.430598 186.873421 
L 153.912423 188.362043 
L 155.394249 191.892493 
L 158.357901 214.499122 
L 159.839726 222.158824 
L 161.321552 227.322903 
L 162.803378 234.922937 
L 164.285204 240.308315 
L 165.767029 244.880253 
L 167.248855 247.623529 
L 168.730681 246.836933 
L 170.212506 248.36133 
L 171.694332 248.346486 
L 173.176158 246.014508 
L 174.657984 244.469403 
L 176.139809 242.710852 
L 177.621635 239.410904 
L 179.103461 238.158751 
L 180.585287 233.598803 
L 182.067112 230.819473 
L 183.548938 233.710105 
L 185.030764 235.321048 
L 186.512589 234.048867 
L 187.994415 235.757231 
L 189.476241 235.145673 
L 190.958067 236.280027 
L 192.439892 236.891486 
L 193.921718 240.248563 
L 195.403544 231.206691 
L 196.88537 230.855381 
L 198.367195 226.97232 
L 199.849021 229.200263 
L 201.330847 225.060755 
L 202.812672 220.171876 
L 204.294498 207.679122 
L 205.776324 216.719103 
L 207.25815 216.123738 
L 208.739975 220.271379 
L 210.221801 214.26839 
L 211.703627 217.436337 
L 213.185453 228.104504 
L 214.667278 227.449084 
L 216.149104 226.376218 
L 217.63093 227.223636 
L 219.112755 222.819885 
L 220.594581 223.999794 
L 222.076407 226.684388 
L 223.558233 218.385403 
L 225.040058 231.107781 
L 226.521884 225.63427 
L 228.00371 218.212387 
L 229.485536 218.52415 
L 230.967361 216.383034 
L 232.449187 209.44702 
L 233.931013 209.664523 
L 235.412838 187.671964 
L 236.894664 191.709338 
L 238.37649 202.671045 
L 239.858316 198.947973 
L 241.340141 198.387136 
L 242.821967 202.852002 
L 244.303793 201.008475 
L 245.785619 207.131896 
L 247.267444 207.18111 
L 248.74927 198.380668 
L 250.231096 200.348606 
L 251.712921 199.87207 
L 253.194747 191.497092 
L 254.676573 190.446999 
L 256.158399 191.399083 
L 257.640224 182.804438 
L 259.12205 178.836405 
L 260.603876 185.145917 
L 262.085702 181.658839 
L 263.567527 186.284838 
L 265.049353 187.806378 
L 266.531179 184.297498 
L 268.013004 192.130815 
L 269.49483 199.063592 
L 270.976656 187.727666 
L 272.458482 195.808404 
L 273.940307 199.024939 
L 275.422133 203.154815 
L 276.903959 204.902638 
L 278.385784 201.663825 
L 279.86761 202.345891 
L 281.349436 206.736348 
L 282.831262 201.650842 
L 284.313087 196.995616 
L 285.794913 191.746216 
L 287.276739 194.064329 
L 288.758565 191.922213 
L 290.24039 193.527147 
L 291.722216 190.499864 
L 293.204042 190.157175 
L 294.685867 191.456708 
L 296.167693 193.073793 
L 297.649519 192.318328 
L 299.131345 193.959995 
L 300.61317 183.119016 
L 303.576822 195.385749 
L 305.058648 197.120655 
L 306.540473 197.255697 
L 308.022299 194.920628 
L 309.504125 196.680503 
L 310.98595 203.076989 
L 312.467776 197.57802 
L 313.949602 190.830877 
L 315.431428 185.624953 
L 316.913253 182.786056 
L 318.395079 183.053444 
L 319.876905 179.987536 
L 321.358731 177.492985 
L 322.840556 181.681811 
L 324.322382 183.494688 
L 325.804208 190.37394 
L 327.286033 193.456085 
L 328.767859 196.827227 
L 330.249685 199.273135 
L 331.731511 202.7665 
L 333.213336 201.103242 
L 334.695162 201.896283 
L 336.176988 200.885534 
L 337.658814 202.043694 
L 339.140639 200.439377 
L 340.622465 204.616121 
L 342.104291 203.633554 
L 343.586116 208.62509 
L 345.067942 217.74467 
L 346.549768 220.720925 
L 348.031594 219.863341 
L 349.513419 227.927071 
L 350.995245 233.158476 
L 352.477071 234.910488 
L 353.958897 225.785975 
L 355.440722 207.941713 
L 356.922548 199.687402 
L 358.404374 198.707123 
L 359.886199 190.269042 
L 361.368025 174.012436 
L 362.849851 174.001014 
L 365.813502 216.068495 
L 367.295328 225.453198 
L 368.777154 229.092188 
L 370.25898 228.265121 
L 371.740805 238.433858 
L 373.222631 244.842663 
L 374.704457 243.724589 
L 376.186282 241.926549 
L 377.668108 242.904976 
L 379.149934 243.356351 
L 380.63176 248.122206 
L 382.113585 247.117699 
L 383.595411 243.645552 
L 385.077237 243.986768 
L 385.077237 243.986768 
" clip-path="url(#p7339fd05f4)" style="fill: none; stroke: #e377c2; stroke-width: 1.5; stroke-linecap: square"/>
   </g>
   <g id="patch_3">
    <path d="M 29.439063 284.991437 
L 29.439063 18.879437 
" style="fill: none; stroke: #000000; stroke-width: 0.8; stroke-linejoin: miter; stroke-linecap: square"/>
   </g>
   <g id="patch_4">
    <path d="M 386.559062 284.991437 
L 386.559062 18.879437 
" style="fill: none; stroke: #000000; stroke-width: 0.8; stroke-linejoin: miter; stroke-linecap: square"/>
   </g>
   <g id="patch_5">
    <path d="M 29.439062 284.991437 
L 386.559062 284.991437 
" style="fill: none; stroke: #000000; stroke-width: 0.8; stroke-linejoin: miter; stroke-linecap: square"/>
   </g>
   <g id="patch_6">
    <path d="M 29.439062 18.879437 
L 386.559062 18.879437 
" style="fill: none; stroke: #000000; stroke-width: 0.8; stroke-linejoin: miter; stroke-linecap: square"/>
   </g>
   <g id="legend_1">
    <g id="patch_7">
     <path d="M 188.849844 127.613812 
L 227.148281 127.613812 
Q 229.148281 127.613812 229.148281 125.613812 
L 229.148281 25.879437 
Q 229.148281 23.879437 227.148281 23.879437 
L 188.849844 23.879437 
Q 186.849844 23.879437 186.849844 25.879437 
L 186.849844 125.613812 
Q 186.849844 127.613812 188.849844 127.613812 
z
" style="fill: #ffffff; opacity: 0.8; stroke: #cccccc; stroke-linejoin: miter"/>
    </g>
    <g id="line2d_22">
     <path d="M 190.849844 31.870062 
L 200.849844 31.870062 
L 210.849844 31.870062 
" style="fill: none; stroke: #1f77b4; stroke-width: 1.5; stroke-linecap: square"/>
    </g>
    <g id="text_14">
     <!-- 1 -->
     <g transform="translate(218.849844 35.370062) scale(0.1 -0.1)">
      <use xlink:href="#IPAexGothic-31"/>
     </g>
    </g>
    <g id="line2d_23">
     <path d="M 190.849844 46.260687 
L 200.849844 46.260687 
L 210.849844 46.260687 
" style="fill: none; stroke: #ff7f0e; stroke-width: 1.5; stroke-linecap: square"/>
    </g>
    <g id="text_15">
     <!-- 2 -->
     <g transform="translate(218.849844 49.760687) scale(0.1 -0.1)">
      <use xlink:href="#IPAexGothic-32"/>
     </g>
    </g>
    <g id="line2d_24">
     <path d="M 190.849844 60.651312 
L 200.849844 60.651312 
L 210.849844 60.651312 
" style="fill: none; stroke: #2ca02c; stroke-width: 1.5; stroke-linecap: square"/>
    </g>
    <g id="text_16">
     <!-- 3 -->
     <g transform="translate(218.849844 64.151312) scale(0.1 -0.1)">
      <use xlink:href="#IPAexGothic-33"/>
     </g>
    </g>
    <g id="line2d_25">
     <path d="M 190.849844 75.041937 
L 200.849844 75.041937 
L 210.849844 75.041937 
" style="fill: none; stroke: #d62728; stroke-width: 1.5; stroke-linecap: square"/>
    </g>
    <g id="text_17">
     <!-- 4 -->
     <g transform="translate(218.849844 78.541937) scale(0.1 -0.1)">
      <defs>
       <path id="IPAexGothic-34" d="M 3813 1159 
L 3059 1159 
L 3059 63 
L 2547 63 
L 2547 1159 
L 197 1159 
L 197 1672 
L 2456 4678 
L 3059 4678 
L 3059 1634 
L 3813 1634 
L 3813 1159 
z
M 2578 4109 
L 2559 4109 
Q 2278 3656 2003 3284 
L 759 1634 
L 2547 1634 
L 2547 3144 
Q 2547 3481 2578 4109 
z
" transform="scale(0.015625)"/>
      </defs>
      <use xlink:href="#IPAexGothic-34"/>
     </g>
    </g>
    <g id="line2d_26">
     <path d="M 190.849844 89.432562 
L 200.849844 89.432562 
L 210.849844 89.432562 
" style="fill: none; stroke: #9467bd; stroke-width: 1.5; stroke-linecap: square"/>
    </g>
    <g id="text_18">
     <!-- 5 -->
     <g transform="translate(218.849844 92.932562) scale(0.1 -0.1)">
      <use xlink:href="#IPAexGothic-35"/>
     </g>
    </g>
    <g id="line2d_27">
     <path d="M 190.849844 103.823187 
L 200.849844 103.823187 
L 210.849844 103.823187 
" style="fill: none; stroke: #8c564b; stroke-width: 1.5; stroke-linecap: square"/>
    </g>
    <g id="text_19">
     <!-- 6 -->
     <g transform="translate(218.849844 107.323187) scale(0.1 -0.1)">
      <defs>
       <path id="IPAexGothic-36" d="M 1056 2328 
Q 1509 2981 2234 2981 
Q 2906 2981 3316 2513 
Q 3675 2106 3675 1522 
Q 3675 884 3272 434 
Q 2853 -31 2178 -31 
Q 1375 -31 922 581 
Q 481 1178 481 2228 
Q 481 3425 1013 4109 
Q 1494 4725 2272 4725 
Q 3191 4725 3609 4025 
L 3150 3775 
Q 2894 4266 2300 4266 
Q 1119 4266 1031 2328 
L 1056 2328 
z
M 2141 2547 
Q 1684 2547 1384 2206 
Q 1116 1900 1116 1541 
Q 1116 1156 1353 844 
Q 1672 428 2159 428 
Q 2669 428 2941 844 
Q 3125 1128 3125 1503 
Q 3125 1944 2881 2228 
Q 2600 2547 2141 2547 
z
" transform="scale(0.015625)"/>
      </defs>
      <use xlink:href="#IPAexGothic-36"/>
     </g>
    </g>
    <g id="line2d_28">
     <path d="M 190.849844 118.213812 
L 200.849844 118.213812 
L 210.849844 118.213812 
" style="fill: none; stroke: #e377c2; stroke-width: 1.5; stroke-linecap: square"/>
    </g>
    <g id="text_20">
     <!-- 7 -->
     <g transform="translate(218.849844 121.713812) scale(0.1 -0.1)">
      <defs>
       <path id="IPAexGothic-37" d="M 3597 4263 
Q 2238 2106 1778 63 
L 1131 63 
Q 1581 1834 2950 4128 
L 428 4128 
L 428 4634 
L 3597 4634 
L 3597 4263 
z
" transform="scale(0.015625)"/>
      </defs>
      <use xlink:href="#IPAexGothic-37"/>
     </g>
    </g>
   </g>
  </g>
  <g id="axes_2">
   <g id="matplotlib.axis_3"/>
   <g id="patch_8">
    <path d="M 29.439063 284.991437 
L 29.439063 18.879437 
" style="fill: none; stroke: #000000; stroke-width: 0.8; stroke-linejoin: miter; stroke-linecap: square"/>
   </g>
   <g id="patch_9">
    <path d="M 386.559062 284.991437 
L 386.559062 18.879437 
" style="fill: none; stroke: #000000; stroke-width: 0.8; stroke-linejoin: miter; stroke-linecap: square"/>
   </g>
   <g id="patch_10">
    <path d="M 29.439062 284.991437 
L 386.559062 284.991437 
" style="fill: none; stroke: #000000; stroke-width: 0.8; stroke-linejoin: miter; stroke-linecap: square"/>
   </g>
   <g id="patch_11">
    <path d="M 29.439062 18.879437 
L 386.559062 18.879437 
" style="fill: none; stroke: #000000; stroke-width: 0.8; stroke-linejoin: miter; stroke-linecap: square"/>
   </g>
  </g>
  <g id="text_21">
   <!-- : 2023/01/27 16:14:08(JST) -->
   <g transform="translate(211.087188 15.423437) scale(0.1 -0.1)">
    <defs>
     <path id="IPAexGothic-66f4" d="M 2956 3994 
L 2956 4588 
L 513 4588 
L 513 4984 
L 5881 4984 
L 5881 4588 
L 3413 4588 
L 3413 3994 
L 5300 3994 
L 5300 1288 
L 4838 1288 
L 4838 1759 
L 3406 1759 
Q 3384 1125 3150 709 
Q 4291 244 5997 31 
L 5694 -428 
Q 4109 -166 2906 384 
Q 2294 -266 744 -488 
L 494 -66 
Q 1903 59 2491 588 
Q 2041 813 1594 1166 
L 1928 1434 
Q 2331 1106 2747 897 
Q 2922 1219 2950 1759 
L 1556 1759 
L 1556 1413 
L 1097 1413 
L 1097 3994 
L 2956 3994 
z
M 2956 3609 
L 1556 3609 
L 1556 3078 
L 2956 3078 
L 2956 3609 
z
M 3413 3609 
L 3413 3078 
L 4838 3078 
L 4838 3609 
L 3413 3609 
z
M 2956 2700 
L 1556 2700 
L 1556 2144 
L 2956 2144 
L 2956 2700 
z
M 3413 2700 
L 3413 2144 
L 4838 2144 
L 4838 2700 
L 3413 2700 
z
" transform="scale(0.015625)"/>
     <path id="IPAexGothic-65b0" d="M 3891 2803 
Q 3881 1759 3794 1166 
Q 3653 197 3097 -563 
L 2741 -250 
Q 3450 700 3450 2631 
L 3450 4647 
Q 3516 4656 3622 4666 
Q 4656 4778 5447 5063 
L 5825 4678 
Q 4897 4419 3891 4294 
L 3891 3219 
L 6119 3219 
L 6119 2803 
L 5275 2803 
L 5275 -447 
L 4834 -447 
L 4834 2803 
L 3891 2803 
z
M 2822 4069 
Q 2678 3572 2519 3181 
L 3250 3181 
L 3250 2784 
L 2059 2784 
L 2059 2216 
L 3184 2216 
L 3184 1831 
L 2059 1831 
L 2059 1544 
Q 2613 1197 3031 847 
L 2781 456 
Q 2472 791 2059 1128 
L 2059 -447 
L 1644 -447 
L 1644 1294 
Q 1272 628 575 -31 
L 269 341 
Q 1041 938 1528 1831 
L 453 1831 
L 453 2216 
L 1644 2216 
L 1644 2784 
L 319 2784 
L 319 3181 
L 1125 3181 
Q 1013 3706 881 4069 
L 453 4069 
L 453 4453 
L 1631 4453 
L 1631 5309 
L 2072 5309 
L 2072 4453 
L 3166 4453 
L 3166 4069 
L 2822 4069 
z
M 2391 4069 
L 1325 4069 
Q 1450 3672 1534 3181 
L 2109 3181 
Q 2294 3659 2391 4069 
z
" transform="scale(0.015625)"/>
     <path id="IPAexGothic-65e5" d="M 5231 4800 
L 5231 -288 
L 4744 -288 
L 4744 128 
L 1647 128 
L 1647 -288 
L 1159 -288 
L 1159 4800 
L 5231 4800 
z
M 1647 4372 
L 1647 2731 
L 4744 2731 
L 4744 4372 
L 1647 4372 
z
M 1647 2297 
L 1647 556 
L 4744 556 
L 4744 2297 
L 1647 2297 
z
" transform="scale(0.015625)"/>
     <path id="IPAexGothic-6642" d="M 2328 4728 
L 2328 563 
L 934 563 
L 934 56 
L 519 56 
L 519 4728 
L 2328 4728 
z
M 934 4331 
L 934 2881 
L 1906 2881 
L 1906 4331 
L 934 4331 
z
M 934 2497 
L 934 953 
L 1906 953 
L 1906 2497 
L 934 2497 
z
M 3938 4372 
L 3938 5313 
L 4378 5313 
L 4378 4372 
L 5772 4372 
L 5772 3981 
L 4378 3981 
L 4378 3194 
L 6072 3194 
L 6072 2803 
L 5203 2803 
L 5203 2047 
L 5959 2047 
L 5959 1650 
L 5216 1650 
L 5216 31 
Q 5216 -447 4691 -447 
Q 4394 -447 3888 -391 
L 3784 78 
Q 4272 0 4591 0 
Q 4775 0 4775 172 
L 4775 1650 
L 2581 1650 
L 2581 2047 
L 4763 2047 
L 4763 2803 
L 2538 2803 
L 2538 3194 
L 3938 3194 
L 3938 3981 
L 2716 3981 
L 2716 4372 
L 3938 4372 
z
M 3669 384 
Q 3331 950 2956 1325 
L 3291 1575 
Q 3719 1147 4025 659 
L 3669 384 
z
" transform="scale(0.015625)"/>
     <path id="IPAexGothic-3a" d="M 1369 2559 
L 672 2559 
L 672 3250 
L 1369 3250 
L 1369 2559 
z
M 1369 63 
L 672 63 
L 672 753 
L 1369 753 
L 1369 63 
z
" transform="scale(0.015625)"/>
     <path id="IPAexGothic-20" transform="scale(0.015625)"/>
     <path id="IPAexGothic-2f" d="M 2719 4709 
L 600 -884 
L 300 -763 
L 2413 4831 
L 2719 4709 
z
" transform="scale(0.015625)"/>
     <path id="IPAexGothic-38" d="M 2541 2425 
Q 3700 2031 3700 1197 
Q 3700 541 3100 197 
Q 2663 -56 2016 -56 
Q 1366 -56 928 197 
Q 347 531 347 1178 
Q 347 1988 1409 2381 
L 1409 2400 
Q 481 2734 481 3509 
Q 481 4100 981 4456 
Q 1406 4756 2019 4756 
Q 2703 4756 3131 4403 
Q 3553 4069 3553 3566 
Q 3553 2706 2541 2444 
L 2541 2425 
z
M 2022 2625 
Q 2997 2856 2997 3528 
Q 2997 3916 2675 4150 
Q 2413 4347 2016 4347 
Q 1606 4347 1331 4128 
Q 1050 3897 1050 3522 
Q 1050 3150 1350 2925 
Q 1494 2809 1722 2722 
Q 1984 2616 2022 2625 
z
M 1978 2209 
Q 922 1931 922 1216 
Q 922 775 1313 556 
Q 1606 391 2009 391 
Q 2575 391 2881 697 
Q 3106 922 3106 1250 
Q 3106 1594 2794 1850 
Q 2609 1994 2350 2100 
Q 2047 2222 1978 2209 
z
" transform="scale(0.015625)"/>
     <path id="IPAexGothic-28" d="M 1928 -1016 
L 1653 -1166 
Q 488 69 488 1875 
Q 488 3678 1653 4909 
L 1928 4763 
Q 1006 3522 1006 1881 
Q 1006 203 1928 -1016 
z
" transform="scale(0.015625)"/>
     <path id="IPAexGothic-54" d="M 3866 4141 
L 2175 4141 
L 2175 63 
L 1606 63 
L 1606 4141 
L -31 4141 
L -31 4634 
L 3866 4634 
L 3866 4141 
z
" transform="scale(0.015625)"/>
     <path id="IPAexGothic-29" d="M 466 4909 
Q 1638 3672 1638 1875 
Q 1638 75 466 -1166 
L 191 -1016 
Q 1119 216 1119 1881 
Q 1119 3509 191 4763 
L 466 4909 
z
" transform="scale(0.015625)"/>
    </defs>
    <use xlink:href="#IPAexGothic-66f4"/>
    <use xlink:href="#IPAexGothic-65b0" x="100"/>
    <use xlink:href="#IPAexGothic-65e5" x="200"/>
    <use xlink:href="#IPAexGothic-6642" x="300"/>
    <use xlink:href="#IPAexGothic-3a" x="400"/>
    <use xlink:href="#IPAexGothic-20" x="431.982422"/>
    <use xlink:href="#IPAexGothic-32" x="458.984375"/>
    <use xlink:href="#IPAexGothic-30" x="521.972656"/>
    <use xlink:href="#IPAexGothic-32" x="584.960938"/>
    <use xlink:href="#IPAexGothic-33" x="647.949219"/>
    <use xlink:href="#IPAexGothic-2f" x="710.9375"/>
    <use xlink:href="#IPAexGothic-30" x="760.9375"/>
    <use xlink:href="#IPAexGothic-31" x="823.925781"/>
    <use xlink:href="#IPAexGothic-2f" x="886.914062"/>
    <use xlink:href="#IPAexGothic-32" x="936.914062"/>
    <use xlink:href="#IPAexGothic-37" x="999.902344"/>
    <use xlink:href="#IPAexGothic-20" x="1062.890625"/>
    <use xlink:href="#IPAexGothic-31" x="1089.892578"/>
    <use xlink:href="#IPAexGothic-36" x="1152.880859"/>
    <use xlink:href="#IPAexGothic-3a" x="1215.869141"/>
    <use xlink:href="#IPAexGothic-31" x="1247.851562"/>
    <use xlink:href="#IPAexGothic-34" x="1310.839844"/>
    <use xlink:href="#IPAexGothic-3a" x="1373.828125"/>
    <use xlink:href="#IPAexGothic-30" x="1405.810547"/>
    <use xlink:href="#IPAexGothic-38" x="1468.798828"/>
    <use xlink:href="#IPAexGothic-28" x="1531.787109"/>
    <use xlink:href="#IPAexGothic-4a" x="1565.087891"/>
    <use xlink:href="#IPAexGothic-53" x="1603.076172"/>
    <use xlink:href="#IPAexGothic-54" x="1661.572266"/>
    <use xlink:href="#IPAexGothic-29" x="1721.484375"/>
   </g>
  </g>
 </g>
 <defs>
  <clipPath id="p7339fd05f4">
   <rect x="29.439063" y="18.879437" width="357.12" height="266.112"/>
  </clipPath>
 </defs>
</svg>
