<?xml version="1.0" encoding="utf-8" standalone="no"?>
<!DOCTYPE svg PUBLIC "-//W3C//DTD SVG 1.1//EN"
  "http://www.w3.org/Graphics/SVG/1.1/DTD/svg11.dtd">
<svg xmlns:xlink="http://www.w3.org/1999/xlink" width="402.868437pt" height="308.582062pt" viewBox="0 0 402.868437 308.582062" xmlns="http://www.w3.org/2000/svg" version="1.1">
 <metadata>
  <rdf:RDF xmlns:dc="http://purl.org/dc/elements/1.1/" xmlns:cc="http://creativecommons.org/ns#" xmlns:rdf="http://www.w3.org/1999/02/22-rdf-syntax-ns#">
   <cc:Work>
    <dc:type rdf:resource="http://purl.org/dc/dcmitype/StillImage"/>
    <dc:date>2023-02-28T07:15:27.161314</dc:date>
    <dc:format>image/svg+xml</dc:format>
    <dc:creator>
     <cc:Agent>
      <dc:title>Matplotlib v3.7.0, https://matplotlib.org/</dc:title>
     </cc:Agent>
    </dc:creator>
   </cc:Work>
  </rdf:RDF>
 </metadata>
 <defs>
  <style type="text/css">*{stroke-linejoin: round; stroke-linecap: butt}</style>
 </defs>
 <g id="figure_1">
  <g id="patch_1">
   <path d="M 0 308.582062 
L 402.868437 308.582062 
L 402.868437 0 
L 0 0 
z
" style="fill: #ffffff"/>
  </g>
  <g id="axes_1">
   <g id="patch_2">
    <path d="M 29.439063 284.991437 
L 386.559062 284.991437 
L 386.559062 18.879437 
L 29.439063 18.879437 
z
" style="fill: #ffffff"/>
   </g>
   <g id="line2d_1">
    <path d="M 29.439063 211.199039 
L 386.559062 211.199039 
" clip-path="url(#p62a437df09)" style="fill: none; stroke: #000000; stroke-linecap: square"/>
   </g>
   <g id="matplotlib.axis_1">
    <g id="xtick_1">
     <g id="line2d_2">
      <defs>
       <path id="m6e465e01c6" d="M 0 0 
L 0 3.5 
" style="stroke: #000000; stroke-width: 0.8"/>
      </defs>
      <g>
       <use xlink:href="#m6e465e01c6" x="29.439062" y="284.991437" style="stroke: #000000; stroke-width: 0.8"/>
      </g>
     </g>
     <g id="text_1">
      <!-- Jun -->
      <g transform="translate(21.499219 299.482062) scale(0.1 -0.1)">
       <defs>
        <path id="IPAexGothic-4a" d="M 1819 4634 
L 1819 1234 
Q 1819 -31 763 -31 
Q 303 -31 -125 209 
L 84 644 
Q 378 447 694 447 
Q 1250 447 1250 1203 
L 1250 4634 
L 1819 4634 
z
" transform="scale(0.015625)"/>
        <path id="IPAexGothic-75" d="M 3284 63 
L 2772 63 
L 2772 644 
Q 2300 0 1625 0 
Q 1072 0 763 375 
Q 519 678 519 1241 
L 519 3250 
L 1069 3250 
L 1069 1259 
Q 1069 466 1734 466 
Q 2406 466 2734 1291 
L 2734 3250 
L 3284 3250 
L 3284 63 
z
" transform="scale(0.015625)"/>
        <path id="IPAexGothic-6e" d="M 3328 63 
L 2778 63 
L 2778 2041 
Q 2778 2853 2106 2853 
Q 1428 2853 1113 2041 
L 1113 63 
L 563 63 
L 563 3250 
L 1075 3250 
L 1075 2675 
Q 1525 3316 2222 3316 
Q 3328 3316 3328 2072 
L 3328 63 
z
" transform="scale(0.015625)"/>
       </defs>
       <use xlink:href="#IPAexGothic-4a"/>
       <use xlink:href="#IPAexGothic-75" x="37.988281"/>
       <use xlink:href="#IPAexGothic-6e" x="98.388672"/>
      </g>
     </g>
    </g>
    <g id="xtick_2">
     <g id="line2d_3">
      <g>
       <use xlink:href="#m6e465e01c6" x="68.683019" y="284.991437" style="stroke: #000000; stroke-width: 0.8"/>
      </g>
     </g>
     <g id="text_2">
      <!-- Jul -->
      <g transform="translate(62.413487 299.482062) scale(0.1 -0.1)">
       <defs>
        <path id="IPAexGothic-6c" d="M 1131 63 
L 581 63 
L 581 4794 
L 1131 4794 
L 1131 63 
z
" transform="scale(0.015625)"/>
       </defs>
       <use xlink:href="#IPAexGothic-4a"/>
       <use xlink:href="#IPAexGothic-75" x="37.988281"/>
       <use xlink:href="#IPAexGothic-6c" x="98.388672"/>
      </g>
     </g>
    </g>
    <g id="xtick_3">
     <g id="line2d_4">
      <g>
       <use xlink:href="#m6e465e01c6" x="109.235106" y="284.991437" style="stroke: #000000; stroke-width: 0.8"/>
      </g>
     </g>
     <g id="text_3">
      <!-- Aug -->
      <g transform="translate(100.253075 299.42425) scale(0.1 -0.1)">
       <defs>
        <path id="IPAexGothic-41" d="M 4056 63 
L 3444 63 
L 2938 1409 
L 1100 1409 
L 603 63 
L -6 63 
L 1806 4666 
L 2259 4666 
L 4056 63 
z
M 2778 1863 
L 2316 3078 
Q 2125 3588 2028 4000 
L 2009 4000 
Q 1897 3563 1716 3078 
L 1263 1863 
L 2778 1863 
z
" transform="scale(0.015625)"/>
        <path id="IPAexGothic-67" d="M 1331 1150 
Q 1006 1122 1006 900 
Q 1006 613 1763 575 
L 2131 556 
Q 3303 497 3303 -294 
Q 3303 -700 2925 -959 
Q 2519 -1253 1794 -1253 
Q 1138 -1253 738 -1028 
Q 353 -809 353 -428 
Q 353 84 1075 247 
L 1075 269 
Q 506 413 506 778 
Q 506 1116 994 1297 
Q 456 1575 456 2181 
Q 456 2650 769 2963 
Q 1128 3322 1738 3322 
Q 2125 3322 2422 3153 
Q 2650 3453 3259 3463 
L 3259 3013 
Q 2838 3003 2703 2938 
Q 3034 2613 3034 2169 
Q 3034 1728 2734 1425 
Q 2400 1094 1813 1094 
Q 1563 1094 1331 1150 
z
M 1734 2919 
Q 1409 2919 1197 2706 
Q 988 2497 988 2181 
Q 988 1872 1184 1684 
Q 1397 1472 1756 1472 
Q 2094 1472 2297 1678 
Q 2503 1881 2503 2203 
Q 2503 2497 2297 2700 
Q 2081 2919 1734 2919 
z
M 1753 159 
Q 903 159 903 -366 
Q 903 -875 1800 -875 
Q 2378 -875 2638 -606 
Q 2772 -481 2772 -313 
Q 2772 159 1753 159 
z
" transform="scale(0.015625)"/>
       </defs>
       <use xlink:href="#IPAexGothic-41"/>
       <use xlink:href="#IPAexGothic-75" x="63.720703"/>
       <use xlink:href="#IPAexGothic-67" x="124.121094"/>
      </g>
     </g>
    </g>
    <g id="xtick_4">
     <g id="line2d_5">
      <g>
       <use xlink:href="#m6e465e01c6" x="149.787194" y="284.991437" style="stroke: #000000; stroke-width: 0.8"/>
      </g>
     </g>
     <g id="text_4">
      <!-- Sep -->
      <g transform="translate(140.912194 299.482062) scale(0.1 -0.1)">
       <defs>
        <path id="IPAexGothic-53" d="M 2919 3641 
Q 2563 4259 1853 4259 
Q 1453 4259 1213 4009 
Q 1028 3803 1028 3534 
Q 1028 3238 1266 3047 
Q 1444 2913 1984 2688 
L 2200 2597 
Q 2925 2306 3191 1953 
Q 3422 1644 3422 1259 
Q 3422 644 2969 288 
Q 2559 -31 1931 -31 
Q 881 -31 313 766 
L 753 1100 
Q 1203 459 1938 459 
Q 2288 459 2534 625 
Q 2841 847 2841 1216 
Q 2841 1503 2616 1728 
Q 2375 1959 1728 2206 
L 1541 2278 
Q 453 2694 453 3481 
Q 453 4006 806 4347 
Q 1203 4725 1863 4725 
Q 2841 4725 3359 3956 
L 2919 3641 
z
" transform="scale(0.015625)"/>
        <path id="IPAexGothic-65" d="M 863 1594 
Q 891 1041 1209 722 
Q 1534 397 1997 397 
Q 2606 397 2963 966 
L 3322 728 
Q 2869 -31 1931 -31 
Q 1222 -31 766 422 
Q 306 884 306 1641 
Q 306 2444 788 2925 
Q 1216 3353 1856 3353 
Q 2459 3353 2866 2956 
Q 3322 2494 3322 1722 
L 3322 1594 
L 863 1594 
z
M 2756 1997 
Q 2709 2431 2450 2681 
Q 2194 2938 1844 2938 
Q 1438 2938 1150 2591 
Q 953 2356 894 1997 
L 2756 1997 
z
" transform="scale(0.015625)"/>
        <path id="IPAexGothic-70" d="M 1075 2688 
Q 1525 3341 2206 3341 
Q 2769 3341 3172 2938 
Q 3641 2469 3641 1644 
Q 3641 841 3178 372 
Q 2775 -31 2200 -31 
Q 1569 -31 1106 497 
L 1106 -1216 
L 563 -1216 
L 563 3250 
L 1075 3250 
L 1075 2688 
z
M 1106 1950 
L 1106 1291 
Q 1106 897 1516 600 
Q 1791 403 2106 403 
Q 2469 403 2725 659 
Q 3066 997 3066 1631 
Q 3066 2200 2784 2559 
Q 2503 2900 2100 2900 
Q 1656 2900 1338 2484 
Q 1106 2184 1106 1950 
z
" transform="scale(0.015625)"/>
       </defs>
       <use xlink:href="#IPAexGothic-53"/>
       <use xlink:href="#IPAexGothic-65" x="58.496094"/>
       <use xlink:href="#IPAexGothic-70" x="115.380859"/>
      </g>
     </g>
    </g>
    <g id="xtick_5">
     <g id="line2d_6">
      <g>
       <use xlink:href="#m6e465e01c6" x="189.03115" y="284.991437" style="stroke: #000000; stroke-width: 0.8"/>
      </g>
     </g>
     <g id="text_5">
      <!-- Oct -->
      <g transform="translate(180.595994 299.482062) scale(0.1 -0.1)">
       <defs>
        <path id="IPAexGothic-4f" d="M 2541 4725 
Q 3456 4725 4044 4138 
Q 4709 3472 4709 2331 
Q 4709 1219 4031 550 
Q 3450 -31 2541 -31 
Q 1638 -31 1056 550 
Q 378 1219 378 2356 
Q 378 3469 1044 4138 
Q 1631 4725 2541 4725 
z
M 2541 4266 
Q 1953 4266 1531 3844 
Q 994 3303 994 2350 
Q 994 1391 1531 863 
Q 1947 447 2541 447 
Q 3131 447 3556 863 
Q 4094 1400 4094 2375 
Q 4094 3297 3550 3844 
Q 3138 4266 2541 4266 
z
" transform="scale(0.015625)"/>
        <path id="IPAexGothic-63" d="M 3269 784 
Q 2834 -31 1900 -31 
Q 1228 -31 788 409 
Q 313 891 313 1663 
Q 313 2428 788 2913 
Q 1222 3347 1881 3347 
Q 2813 3347 3206 2541 
L 2763 2309 
Q 2484 2900 1900 2900 
Q 1516 2900 1234 2619 
Q 881 2266 881 1650 
Q 881 1069 1222 728 
Q 1522 428 1956 428 
Q 2547 428 2847 1016 
L 3269 784 
z
" transform="scale(0.015625)"/>
        <path id="IPAexGothic-74" d="M 2125 241 
Q 1769 -6 1397 -6 
Q 653 -6 653 831 
L 653 2859 
L 219 2859 
L 219 3250 
L 653 3250 
L 653 3966 
L 1178 4228 
L 1178 3250 
L 2063 3250 
L 2063 2859 
L 1178 2859 
L 1178 906 
Q 1178 416 1513 416 
Q 1738 416 1941 588 
L 2125 241 
z
" transform="scale(0.015625)"/>
       </defs>
       <use xlink:href="#IPAexGothic-4f"/>
       <use xlink:href="#IPAexGothic-63" x="79.6875"/>
       <use xlink:href="#IPAexGothic-74" x="134.082031"/>
      </g>
     </g>
    </g>
    <g id="xtick_6">
     <g id="line2d_7">
      <g>
       <use xlink:href="#m6e465e01c6" x="229.583238" y="284.991437" style="stroke: #000000; stroke-width: 0.8"/>
      </g>
     </g>
     <g id="text_6">
      <!-- Nov -->
      <g transform="translate(220.334801 299.482062) scale(0.1 -0.1)">
       <defs>
        <path id="IPAexGothic-4e" d="M 4244 63 
L 3731 63 
L 1697 3150 
Q 1466 3500 1141 4097 
L 1116 4097 
L 1128 3797 
Q 1159 2803 1159 2469 
L 1159 63 
L 609 63 
L 609 4634 
L 1366 4634 
L 3113 1978 
Q 3453 1447 3713 966 
L 3738 966 
Q 3694 1897 3694 2469 
L 3694 4634 
L 4244 4634 
L 4244 63 
z
" transform="scale(0.015625)"/>
        <path id="IPAexGothic-6f" d="M 1919 3341 
Q 2594 3341 3056 2888 
Q 3531 2413 3531 1638 
Q 3531 888 3066 422 
Q 2609 -31 1919 -31 
Q 1228 -31 781 416 
Q 313 881 313 1656 
Q 313 2413 788 2888 
Q 1241 3341 1919 3341 
z
M 1919 2919 
Q 1519 2919 1241 2631 
Q 888 2278 888 1650 
Q 888 1031 1234 684 
Q 1516 403 1919 403 
Q 2331 403 2609 691 
Q 2956 1038 2956 1672 
Q 2956 2269 2603 2631 
Q 2316 2919 1919 2919 
z
" transform="scale(0.015625)"/>
        <path id="IPAexGothic-76" d="M 3103 3250 
L 1747 6 
L 1375 6 
L 25 3250 
L 628 3250 
L 1338 1388 
L 1522 844 
L 1569 703 
L 1588 703 
Q 1641 884 1822 1388 
L 2516 3250 
L 3103 3250 
z
" transform="scale(0.015625)"/>
       </defs>
       <use xlink:href="#IPAexGothic-4e"/>
       <use xlink:href="#IPAexGothic-6f" x="75.976562"/>
       <use xlink:href="#IPAexGothic-76" x="136.376953"/>
      </g>
     </g>
    </g>
    <g id="xtick_7">
     <g id="line2d_8">
      <g>
       <use xlink:href="#m6e465e01c6" x="268.827194" y="284.991437" style="stroke: #000000; stroke-width: 0.8"/>
      </g>
     </g>
     <g id="text_7">
      <!-- Dec -->
      <g transform="translate(259.478757 299.482062) scale(0.1 -0.1)">
       <defs>
        <path id="IPAexGothic-44" d="M 609 4634 
L 1984 4634 
Q 3159 4634 3791 4050 
Q 4456 3444 4456 2356 
Q 4456 1047 3516 441 
Q 2925 63 1941 63 
L 609 63 
L 609 4634 
z
M 1172 556 
L 1894 556 
Q 3853 556 3853 2356 
Q 3853 4147 1928 4147 
L 1172 4147 
L 1172 556 
z
" transform="scale(0.015625)"/>
       </defs>
       <use xlink:href="#IPAexGothic-44"/>
       <use xlink:href="#IPAexGothic-65" x="75.683594"/>
       <use xlink:href="#IPAexGothic-63" x="132.568359"/>
      </g>
     </g>
    </g>
    <g id="xtick_8">
     <g id="line2d_9">
      <g>
       <use xlink:href="#m6e465e01c6" x="309.379282" y="284.991437" style="stroke: #000000; stroke-width: 0.8"/>
      </g>
     </g>
     <g id="text_8">
      <!-- 2023 -->
      <g transform="translate(296.782407 299.482062) scale(0.1 -0.1)">
       <defs>
        <path id="IPAexGothic-32" d="M 3659 63 
L 447 63 
L 447 594 
Q 825 1475 1894 2203 
L 2072 2322 
Q 2619 2697 2791 2906 
Q 2988 3153 2988 3444 
Q 2988 3772 2756 4003 
Q 2500 4259 2084 4259 
Q 1250 4259 991 3328 
L 497 3506 
Q 853 4725 2116 4725 
Q 2806 4725 3216 4316 
Q 3575 3947 3575 3425 
Q 3575 3038 3344 2722 
Q 3131 2416 2366 1938 
L 2231 1856 
Q 1256 1253 978 569 
L 3659 569 
L 3659 63 
z
" transform="scale(0.015625)"/>
        <path id="IPAexGothic-30" d="M 2038 4725 
Q 2881 4725 3334 3944 
Q 3694 3325 3694 2344 
Q 3694 1372 3334 741 
Q 2888 -31 2016 -31 
Q 1147 -31 700 741 
Q 341 1372 341 2350 
Q 341 3713 1000 4334 
Q 1419 4725 2038 4725 
z
M 2016 4266 
Q 1516 4266 1228 3759 
Q 934 3247 934 2344 
Q 934 1456 1222 947 
Q 1513 447 2016 447 
Q 2619 447 2909 1153 
Q 3100 1622 3100 2375 
Q 3100 3256 2806 3759 
Q 2509 4266 2016 4266 
z
" transform="scale(0.015625)"/>
        <path id="IPAexGothic-33" d="M 2381 2419 
Q 3506 2216 3506 1278 
Q 3506 716 3128 356 
Q 2709 -31 1944 -31 
Q 797 -31 288 881 
L 756 1131 
Q 1109 441 1938 441 
Q 2425 441 2694 691 
Q 2950 928 2950 1291 
Q 2950 1719 2566 1978 
Q 2216 2213 1644 2213 
L 1363 2213 
L 1363 2669 
L 1656 2669 
Q 2231 2669 2534 2888 
Q 2859 3119 2859 3509 
Q 2859 3934 2494 4138 
Q 2259 4278 1931 4278 
Q 1238 4278 903 3578 
L 434 3803 
Q 897 4725 1938 4725 
Q 2597 4725 3006 4394 
Q 3416 4069 3416 3534 
Q 3416 3028 3019 2706 
Q 2763 2500 2381 2444 
L 2381 2419 
z
" transform="scale(0.015625)"/>
       </defs>
       <use xlink:href="#IPAexGothic-32"/>
       <use xlink:href="#IPAexGothic-30" x="62.988281"/>
       <use xlink:href="#IPAexGothic-32" x="125.976562"/>
       <use xlink:href="#IPAexGothic-33" x="188.964844"/>
      </g>
     </g>
    </g>
    <g id="xtick_9">
     <g id="line2d_10">
      <g>
       <use xlink:href="#m6e465e01c6" x="349.93137" y="284.991437" style="stroke: #000000; stroke-width: 0.8"/>
      </g>
     </g>
     <g id="text_9">
      <!-- Feb -->
      <g transform="translate(341.107933 299.482062) scale(0.1 -0.1)">
       <defs>
        <path id="IPAexGothic-46" d="M 3469 4141 
L 1172 4141 
L 1172 2656 
L 3206 2656 
L 3206 2188 
L 1172 2188 
L 1172 63 
L 609 63 
L 609 4634 
L 3469 4634 
L 3469 4141 
z
" transform="scale(0.015625)"/>
        <path id="IPAexGothic-62" d="M 1125 2731 
Q 1550 3341 2219 3341 
Q 2788 3341 3191 2938 
Q 3659 2469 3659 1644 
Q 3659 838 3191 372 
Q 2788 -31 2206 -31 
Q 1559 -31 1088 516 
L 1009 44 
L 581 44 
L 581 4794 
L 1125 4794 
L 1125 2731 
z
M 1125 1997 
L 1125 1253 
Q 1125 888 1528 600 
Q 1803 403 2119 403 
Q 2488 403 2744 659 
Q 3084 1009 3084 1631 
Q 3084 2194 2803 2553 
Q 2525 2900 2125 2900 
Q 1759 2900 1438 2578 
Q 1125 2266 1125 1997 
z
" transform="scale(0.015625)"/>
       </defs>
       <use xlink:href="#IPAexGothic-46"/>
       <use xlink:href="#IPAexGothic-65" x="57.177734"/>
       <use xlink:href="#IPAexGothic-62" x="114.0625"/>
      </g>
     </g>
    </g>
    <g id="xtick_10">
     <g id="line2d_11">
      <g>
       <use xlink:href="#m6e465e01c6" x="386.559062" y="284.991437" style="stroke: #000000; stroke-width: 0.8"/>
      </g>
     </g>
     <g id="text_10">
      <!-- Mar -->
      <g transform="translate(377.449687 299.482062) scale(0.1 -0.1)">
       <defs>
        <path id="IPAexGothic-4d" d="M 5147 63 
L 4597 63 
L 4597 2534 
Q 4597 3281 4634 4134 
L 4609 4134 
Q 4356 3409 4066 2675 
L 3066 209 
L 2650 209 
L 1641 2725 
Q 1328 3506 1128 4141 
L 1103 4141 
Q 1141 3131 1141 2553 
L 1141 63 
L 609 63 
L 609 4634 
L 1416 4634 
L 2503 1944 
Q 2697 1472 2869 906 
L 2888 906 
Q 3028 1416 3234 1931 
L 4316 4634 
L 5147 4634 
L 5147 63 
z
" transform="scale(0.015625)"/>
        <path id="IPAexGothic-61" d="M 3156 63 
L 2672 63 
Q 2559 303 2531 556 
L 2509 556 
Q 2147 -25 1428 -25 
Q 934 -25 622 288 
Q 347 563 347 959 
Q 347 1947 2050 1997 
L 2478 2009 
L 2478 2175 
Q 2478 2509 2288 2700 
Q 2088 2900 1775 2900 
Q 1238 2900 969 2378 
L 494 2597 
Q 938 3328 1788 3328 
Q 2375 3328 2691 3000 
Q 2984 2706 2984 2169 
L 2984 997 
Q 2984 400 3156 63 
z
M 2491 1625 
L 2141 1619 
Q 903 1591 903 953 
Q 903 728 1050 581 
Q 1231 403 1525 403 
Q 1934 403 2234 703 
Q 2491 969 2491 1344 
L 2491 1625 
z
" transform="scale(0.015625)"/>
        <path id="IPAexGothic-72" d="M 2309 3316 
L 2213 2769 
Q 2106 2791 2022 2791 
Q 1653 2791 1413 2444 
Q 1113 2006 1113 1675 
L 1113 63 
L 563 63 
L 563 3250 
L 1081 3250 
L 1056 2303 
L 1069 2303 
Q 1422 3341 2097 3341 
Q 2206 3341 2309 3316 
z
" transform="scale(0.015625)"/>
       </defs>
       <use xlink:href="#IPAexGothic-4d"/>
       <use xlink:href="#IPAexGothic-61" x="90.185547"/>
       <use xlink:href="#IPAexGothic-72" x="145.166016"/>
      </g>
     </g>
    </g>
   </g>
   <g id="matplotlib.axis_2">
    <g id="ytick_1">
     <g id="line2d_12">
      <defs>
       <path id="m4cbb96ffe0" d="M 0 0 
L -3.5 0 
" style="stroke: #000000; stroke-width: 0.8"/>
      </defs>
      <g>
       <use xlink:href="#m4cbb96ffe0" x="29.439063" y="269.014637" style="stroke: #000000; stroke-width: 0.8"/>
      </g>
     </g>
     <g id="text_11">
      <!-- 0.5 -->
      <g transform="translate(7.2 272.759949) scale(0.1 -0.1)">
       <defs>
        <path id="IPAexGothic-2e" d="M 1184 63 
L 494 63 
L 494 753 
L 1184 753 
L 1184 63 
z
" transform="scale(0.015625)"/>
        <path id="IPAexGothic-35" d="M 1178 2603 
Q 1634 2963 2172 2963 
Q 2816 2963 3241 2528 
Q 3638 2113 3638 1497 
Q 3638 938 3297 513 
Q 2869 -31 2031 -31 
Q 959 -31 469 784 
L 938 1028 
Q 1309 434 2013 434 
Q 2466 434 2769 716 
Q 3081 1013 3081 1503 
Q 3081 1966 2806 2241 
Q 2519 2528 2056 2528 
Q 1406 2528 1072 2028 
L 591 2091 
L 884 4634 
L 3406 4634 
L 3406 4153 
L 1341 4153 
L 1134 2603 
L 1178 2603 
z
" transform="scale(0.015625)"/>
       </defs>
       <use xlink:href="#IPAexGothic-30"/>
       <use xlink:href="#IPAexGothic-2e" x="62.988281"/>
       <use xlink:href="#IPAexGothic-35" x="89.404297"/>
      </g>
     </g>
    </g>
    <g id="ytick_2">
     <g id="line2d_13">
      <g>
       <use xlink:href="#m4cbb96ffe0" x="29.439063" y="211.199039" style="stroke: #000000; stroke-width: 0.8"/>
      </g>
     </g>
     <g id="text_12">
      <!-- 1.0 -->
      <g transform="translate(7.2 214.944352) scale(0.1 -0.1)">
       <defs>
        <path id="IPAexGothic-31" d="M 2463 63 
L 1900 63 
L 1900 4103 
Q 1372 3922 788 3797 
L 684 4231 
Q 1519 4441 2106 4731 
L 2463 4731 
L 2463 63 
z
" transform="scale(0.015625)"/>
       </defs>
       <use xlink:href="#IPAexGothic-31"/>
       <use xlink:href="#IPAexGothic-2e" x="62.988281"/>
       <use xlink:href="#IPAexGothic-30" x="89.404297"/>
      </g>
     </g>
    </g>
    <g id="ytick_3">
     <g id="line2d_14">
      <g>
       <use xlink:href="#m4cbb96ffe0" x="29.439063" y="153.383442" style="stroke: #000000; stroke-width: 0.8"/>
      </g>
     </g>
     <g id="text_13">
      <!-- 1.5 -->
      <g transform="translate(7.2 157.128754) scale(0.1 -0.1)">
       <use xlink:href="#IPAexGothic-31"/>
       <use xlink:href="#IPAexGothic-2e" x="62.988281"/>
       <use xlink:href="#IPAexGothic-35" x="89.404297"/>
      </g>
     </g>
    </g>
    <g id="ytick_4">
     <g id="line2d_15">
      <g>
       <use xlink:href="#m4cbb96ffe0" x="29.439063" y="95.567844" style="stroke: #000000; stroke-width: 0.8"/>
      </g>
     </g>
     <g id="text_14">
      <!-- 2.0 -->
      <g transform="translate(7.2 99.313157) scale(0.1 -0.1)">
       <use xlink:href="#IPAexGothic-32"/>
       <use xlink:href="#IPAexGothic-2e" x="62.988281"/>
       <use xlink:href="#IPAexGothic-30" x="89.404297"/>
      </g>
     </g>
    </g>
    <g id="ytick_5">
     <g id="line2d_16">
      <g>
       <use xlink:href="#m4cbb96ffe0" x="29.439063" y="37.752247" style="stroke: #000000; stroke-width: 0.8"/>
      </g>
     </g>
     <g id="text_15">
      <!-- 2.5 -->
      <g transform="translate(7.2 41.497559) scale(0.1 -0.1)">
       <use xlink:href="#IPAexGothic-32"/>
       <use xlink:href="#IPAexGothic-2e" x="62.988281"/>
       <use xlink:href="#IPAexGothic-35" x="89.404297"/>
      </g>
     </g>
    </g>
   </g>
   <g id="line2d_17">
    <path d="M 29.439062 227.411867 
L 30.747194 255.471758 
L 32.055326 269.405805 
L 33.363458 242.945807 
L 34.67159 262.441258 
L 37.287854 251.639145 
L 38.595986 227.514621 
L 39.904117 229.940841 
L 41.212249 194.078383 
L 42.520381 246.403784 
L 43.828513 250.411663 
L 45.136645 205.84664 
L 46.444777 249.191321 
L 47.752909 272.895437 
L 49.061041 243.090535 
L 50.369172 247.559579 
L 51.677304 238.429093 
L 52.985436 112.810292 
L 54.293568 184.323192 
L 55.6017 181.498781 
L 56.909832 30.975437 
L 59.526095 168.571026 
L 60.834227 110.868109 
L 62.142359 213.126183 
L 63.450491 156.293505 
L 64.758623 124.518024 
L 66.066755 151.875457 
L 67.374887 236.751655 
L 68.683019 106.655378 
L 69.99115 51.387485 
L 71.299282 102.788184 
L 72.607414 95.926279 
L 73.915546 36.542983 
L 75.223678 79.37836 
L 76.53181 35.439549 
L 77.839942 110.396771 
L 79.148073 116.980214 
L 80.456205 109.726148 
L 81.764337 177.160719 
L 83.072469 110.814502 
L 84.380601 153.702013 
L 85.688733 148.460822 
L 86.996865 164.812112 
L 88.304997 190.526245 
L 89.613128 181.526351 
L 90.92126 197.096587 
L 92.229392 219.976945 
L 93.537524 163.710275 
L 94.845656 173.022011 
L 96.153788 196.817697 
L 97.46192 179.527296 
L 98.770052 191.661352 
L 100.078183 192.887858 
L 101.386315 173.15897 
L 102.694447 188.50237 
L 104.002579 201.809366 
L 105.310711 195.197746 
L 106.618843 183.412435 
L 107.926975 192.046725 
L 109.235106 204.737627 
L 110.543238 199.025674 
L 111.85137 189.016626 
L 113.159502 185.809755 
L 114.467634 182.941981 
L 115.775766 200.02008 
L 117.083898 192.032303 
L 118.39203 181.775482 
L 119.700161 186.871327 
L 121.008293 193.9839 
L 122.316425 204.601463 
L 123.624557 225.669065 
L 124.932689 207.989558 
L 126.240821 218.057369 
L 127.548953 204.232725 
L 128.857084 217.282458 
L 130.165216 202.720535 
L 131.473348 195.141529 
L 132.78148 153.461242 
L 134.089612 171.531238 
L 135.397744 185.828914 
L 136.705876 204.950127 
L 138.014008 187.736367 
L 139.322139 211.671324 
L 140.630271 216.92144 
L 141.938403 231.587854 
L 143.246535 248.509599 
L 144.554667 240.826108 
L 145.862799 241.29957 
L 147.170931 247.072575 
L 148.479062 251.367839 
L 149.787194 251.669425 
L 151.095326 251.785215 
L 152.403458 242.900107 
L 153.71159 251.663262 
L 155.019722 241.186243 
L 156.327854 228.929625 
L 157.635986 240.670472 
L 158.944117 239.689961 
L 160.252249 228.587222 
L 161.560381 234.114512 
L 162.868513 220.053728 
L 164.176645 221.634093 
L 165.484777 247.789493 
L 166.792909 250.578039 
L 168.101041 230.847867 
L 169.409172 240.571341 
L 170.717304 229.667605 
L 172.025436 228.965012 
L 173.333568 226.507 
L 174.6417 266.267581 
L 175.949832 173.994674 
L 177.257964 228.352097 
L 178.566095 212.968149 
L 179.874227 243.863512 
L 181.182359 195.951487 
L 182.490491 187.500784 
L 183.798623 195.32975 
L 185.106755 238.855842 
L 186.414887 224.563828 
L 187.723019 239.674853 
L 189.03115 205.067187 
L 190.339282 219.657973 
L 191.647414 258.893645 
L 192.955546 189.095647 
L 194.263678 231.988543 
L 195.57181 230.452082 
L 196.879942 208.848889 
L 198.188073 214.413367 
L 199.496205 237.774657 
L 200.804337 208.216448 
L 202.112469 269.328924 
L 203.420601 186.857034 
L 204.728733 168.652783 
L 206.036865 211.199039 
L 207.344997 197.903063 
L 208.653128 190.42842 
L 209.96126 209.746404 
L 211.269392 135.123595 
L 212.577524 212.926136 
L 213.885656 239.34414 
L 215.193788 184.631705 
L 216.50192 193.892671 
L 217.810052 220.351516 
L 219.118183 197.002011 
L 220.426315 191.634272 
L 221.734447 213.253557 
L 223.042579 183.049443 
L 224.350711 199.198481 
L 225.658843 190.346771 
L 226.966975 160.309806 
L 228.275106 189.784075 
L 229.583238 198.104074 
L 230.89137 152.110827 
L 232.199502 152.9204 
L 233.507634 232.748365 
L 234.815766 165.024121 
L 236.123898 194.085734 
L 237.43203 199.838398 
L 238.740161 173.564927 
L 240.048293 209.205445 
L 241.356425 206.690562 
L 242.664557 156.249641 
L 243.972689 220.402577 
L 245.280821 215.284532 
L 246.588953 225.924092 
L 247.897084 188.099011 
L 249.205216 185.511636 
L 250.513348 211.199039 
L 251.82148 194.160213 
L 253.129612 184.55213 
L 254.437744 182.799057 
L 257.054008 203.930102 
L 258.362139 168.757197 
L 259.670271 220.491359 
L 260.978403 171.577359 
L 263.594667 192.11637 
L 264.902799 204.402838 
L 266.210931 198.987955 
L 267.519062 181.777237 
L 268.827194 142.696764 
L 270.135326 213.580923 
L 271.443458 220.529523 
L 272.75159 204.080643 
L 274.059722 205.292279 
L 275.367854 181.962456 
L 276.675986 194.793532 
L 277.984117 197.432704 
L 279.292249 173.295964 
L 280.600381 175.045451 
L 281.908513 167.16196 
L 283.216645 187.120934 
L 284.524777 183.834422 
L 285.832909 173.778001 
L 287.141041 181.23856 
L 288.449172 201.020413 
L 289.757304 187.828789 
L 291.065436 213.66936 
L 292.373568 207.768569 
L 293.6817 207.295129 
L 294.989832 192.832229 
L 296.297964 206.958159 
L 297.606095 188.728128 
L 298.914227 193.851266 
L 300.222359 207.103197 
L 301.530491 215.224404 
L 302.838623 196.113595 
L 304.146755 220.91992 
L 305.454887 200.04709 
L 306.763019 223.444191 
L 308.07115 251.024981 
L 309.379282 228.180558 
L 310.687414 208.755181 
L 311.995546 251.311193 
L 313.303678 254.432046 
L 314.61181 215.74342 
L 315.919942 126.299141 
L 317.228073 90.185267 
L 318.536205 169.01121 
L 319.844337 202.233317 
L 321.152469 208.810336 
L 322.460601 167.736099 
L 323.768733 215.685286 
L 325.076865 255.304956 
L 326.384997 257.151057 
L 327.693128 241.910597 
L 329.00126 230.363911 
L 330.309392 201.639485 
L 331.617524 252.591109 
L 332.925656 261.202922 
L 334.233788 248.191392 
L 335.54192 245.888016 
L 336.850052 248.528538 
L 338.158183 233.937612 
L 339.466315 243.873594 
L 340.774447 245.699396 
L 342.082579 238.379427 
L 343.390711 250.421781 
L 344.698843 242.025158 
L 346.006975 235.679743 
L 347.315106 231.977605 
L 348.623238 268.725993 
L 349.93137 251.010186 
L 351.239502 243.44844 
L 352.547634 231.173865 
L 353.855766 246.470516 
L 355.163898 240.806074 
L 356.47203 205.729567 
L 357.780161 216.74151 
L 359.088293 221.239134 
L 360.396425 222.049942 
L 361.704557 236.243828 
L 363.012689 216.587974 
L 364.320821 250.056764 
L 365.628953 220.887451 
L 366.937084 228.799652 
L 368.245216 253.712581 
L 369.553348 218.850978 
L 370.86148 215.357996 
L 372.169612 237.280047 
L 373.477744 193.27922 
L 374.785876 224.105076 
L 376.094008 238.379537 
L 377.402139 241.772305 
L 378.710271 251.269511 
L 380.018403 255.03236 
L 382.634667 237.065956 
L 383.942799 226.130001 
L 385.250931 244.38679 
L 385.250931 244.38679 
" clip-path="url(#p62a437df09)" style="fill: none; stroke: #1f77b4; stroke-width: 1.5; stroke-linecap: square"/>
   </g>
   <g id="line2d_18">
    <path d="M 29.439062 230.929789 
L 30.747194 242.60231 
L 32.055326 262.8168 
L 33.363458 257.425513 
L 34.67159 253.337157 
L 35.979722 259.836211 
L 37.287854 254.434415 
L 38.595986 240.414674 
L 39.904117 228.735232 
L 41.212249 213.41839 
L 42.520381 223.501825 
L 43.828513 248.433331 
L 45.136645 230.677266 
L 46.444777 229.912564 
L 47.752909 262.11981 
L 49.061041 259.625445 
L 50.369172 245.355694 
L 51.677304 243.118728 
L 52.985436 189.281671 
L 54.293568 152.189606 
L 55.6017 182.917915 
L 56.909832 119.473036 
L 58.217964 68.196709 
L 59.526095 137.669929 
L 60.834227 141.957318 
L 62.142359 170.127431 
L 63.450491 187.579679 
L 64.758623 141.084002 
L 66.066755 138.693349 
L 67.374887 201.292679 
L 68.683019 186.000414 
L 69.99115 80.567026 
L 71.299282 78.413733 
L 72.607414 99.383107 
L 73.915546 67.931655 
L 75.223678 58.815077 
L 76.53181 58.306173 
L 77.839942 75.699401 
L 79.148073 113.713912 
L 80.456205 113.383995 
L 81.764337 146.569691 
L 83.072469 147.022086 
L 84.380601 133.443524 
L 85.688733 151.100956 
L 86.996865 156.832948 
L 88.304997 178.224324 
L 89.613128 186.098223 
L 90.92126 189.532009 
L 92.229392 209.091256 
L 93.537524 194.807872 
L 94.845656 168.434555 
L 96.153788 185.419494 
L 97.46192 188.44227 
L 98.770052 185.724694 
L 100.078183 192.276003 
L 101.386315 183.362139 
L 102.694447 181.032368 
L 104.002579 195.324076 
L 105.310711 198.546144 
L 106.618843 189.431392 
L 107.926975 187.79659 
L 109.235106 198.54902 
L 110.543238 201.914295 
L 111.85137 194.115474 
L 113.159502 187.422411 
L 114.467634 184.383085 
L 115.775766 191.750659 
L 117.083898 196.087179 
L 118.39203 186.997904 
L 119.700161 184.346184 
L 121.008293 190.473981 
L 122.316425 199.403219 
L 123.624557 215.633088 
L 124.932689 217.185071 
L 126.240821 213.134848 
L 127.548953 211.351742 
L 128.857084 210.94113 
L 130.165216 210.228598 
L 131.473348 198.987184 
L 132.78148 175.731796 
L 134.089612 162.744798 
L 136.705876 195.737687 
L 138.014008 196.62741 
L 139.322139 200.268399 
L 140.630271 214.327003 
L 141.938403 224.517111 
L 143.246535 240.462163 
L 144.554667 244.757718 
L 145.862799 241.063165 
L 147.170931 244.236496 
L 148.479062 249.249927 
L 149.787194 251.518783 
L 151.095326 251.727342 
L 152.403458 247.466905 
L 153.71159 247.402446 
L 155.019722 246.595581 
L 156.327854 235.262778 
L 157.635986 234.987471 
L 158.944117 240.181603 
L 160.252249 234.304978 
L 161.560381 231.390872 
L 162.868513 227.332189 
L 164.176645 220.846856 
L 166.792909 249.196285 
L 168.101041 241.279862 
L 169.409172 235.839395 
L 170.717304 235.281663 
L 172.025436 229.316941 
L 173.333568 227.743627 
L 174.6417 248.882551 
L 175.949832 230.621466 
L 177.257964 204.147875 
L 178.566095 220.93913 
L 179.874227 229.635769 
L 181.182359 222.625721 
L 182.490491 191.792225 
L 183.798623 191.471858 
L 185.106755 219.272458 
L 186.414887 231.97864 
L 187.723019 232.42119 
L 189.03115 223.814193 
L 190.339282 212.595296 
L 191.647414 241.501939 
L 192.955546 230.097519 
L 194.263678 212.536835 
L 195.57181 231.223399 
L 196.879942 220.196168 
L 198.188073 211.66473 
L 199.496205 226.773505 
L 200.804337 224.052711 
L 202.112469 244.24423 
L 203.420601 237.116008 
L 204.728733 178.033043 
L 207.344997 204.731901 
L 208.653128 194.218394 
L 209.96126 200.456001 
L 211.269392 177.011185 
L 212.577524 179.059561 
L 213.885656 227.005264 
L 215.193788 215.29372 
L 216.50192 189.34014 
L 217.810052 207.855357 
L 219.118183 209.25497 
L 220.426315 194.345323 
L 221.734447 202.914504 
L 223.042579 199.04078 
L 224.350711 191.364392 
L 225.658843 194.846812 
L 226.966975 176.074523 
L 228.275106 175.764073 
L 229.583238 194.009205 
L 230.89137 176.860376 
L 232.199502 152.516084 
L 233.507634 198.91713 
L 234.815766 203.448625 
L 236.123898 180.273516 
L 237.43203 196.993923 
L 238.740161 187.318791 
L 240.048293 192.562593 
L 241.356425 207.954654 
L 242.664557 183.674736 
L 243.972689 192.091624 
L 245.280821 217.873602 
L 246.588953 220.737602 
L 247.897084 208.513572 
L 249.205216 186.8113 
L 250.513348 198.998945 
L 251.82148 202.972279 
L 253.129612 189.440136 
L 254.437744 183.678277 
L 255.745876 188.335204 
L 257.054008 198.897374 
L 258.362139 187.448754 
L 259.670271 197.179515 
L 260.978403 198.341262 
L 262.286535 176.894581 
L 263.594667 187.16406 
L 264.902799 198.406453 
L 266.210931 201.724689 
L 267.519062 190.654224 
L 268.827194 163.401008 
L 270.135326 182.424595 
L 271.443458 217.110216 
L 272.75159 212.600777 
L 274.059722 204.687964 
L 275.367854 194.139114 
L 276.675986 188.526714 
L 277.984117 196.119779 
L 279.292249 185.880047 
L 280.600381 174.173214 
L 281.908513 171.1536 
L 283.216645 177.474475 
L 284.524777 185.48723 
L 285.832909 178.891638 
L 287.141041 177.554882 
L 288.449172 191.49043 
L 289.757304 194.588989 
L 291.065436 201.412831 
L 292.373568 210.756455 
L 293.6817 207.532084 
L 294.989832 200.270107 
L 296.297964 200.091846 
L 297.606095 198.165608 
L 298.914227 191.313905 
L 300.222359 200.651084 
L 301.530491 211.235099 
L 302.838623 206.046382 
L 304.146755 209.168684 
L 305.454887 210.952529 
L 306.763019 212.341773 
L 308.07115 238.302243 
L 309.379282 240.353858 
L 310.687414 218.904029 
L 311.995546 232.400817 
L 313.303678 252.888083 
L 314.61181 237.150337 
L 315.919942 177.577562 
L 317.228073 108.989297 
L 318.536205 133.576313 
L 319.844337 186.602691 
L 321.152469 205.566408 
L 322.460601 189.803691 
L 323.768733 193.854637 
L 325.076865 237.669294 
L 326.384997 256.234041 
L 327.693128 249.907348 
L 329.00126 236.3212 
L 330.309392 216.936234 
L 331.617524 230.424572 
L 332.925656 257.029702 
L 334.233788 254.991137 
L 335.54192 247.048016 
L 336.850052 247.219224 
L 338.158183 241.544538 
L 339.466315 239.046068 
L 340.774447 244.791574 
L 342.082579 242.11844 
L 343.390711 244.62081 
L 344.698843 246.332876 
L 346.006975 238.909678 
L 347.315106 233.847098 
L 348.623238 252.591834 
L 349.93137 260.456547 
L 351.239502 247.319155 
L 352.547634 237.521782 
L 353.855766 239.155159 
L 355.163898 243.68652 
L 356.47203 224.763671 
L 357.780161 211.366742 
L 359.088293 219.013772 
L 360.396425 221.645319 
L 361.704557 229.405031 
L 363.012689 226.898006 
L 364.320821 234.831969 
L 365.628953 236.643788 
L 366.937084 224.92031 
L 368.245216 242.167574 
L 369.553348 237.975354 
L 370.86148 217.118387 
L 372.169612 226.918474 
L 373.477744 217.470651 
L 374.785876 209.70189 
L 376.094008 231.509136 
L 377.402139 240.092508 
L 380.018403 253.174961 
L 381.326535 250.620979 
L 382.634667 241.617658 
L 383.942799 231.755086 
L 385.250931 235.714517 
L 385.250931 235.714517 
" clip-path="url(#p62a437df09)" style="fill: none; stroke: #ff7f0e; stroke-width: 1.5; stroke-linecap: square"/>
   </g>
   <g id="line2d_19">
    <path d="M 29.439062 229.122786 
L 30.747194 239.928401 
L 32.055326 252.698705 
L 33.363458 256.780278 
L 34.67159 259.139403 
L 35.979722 254.622372 
L 37.287854 257.208287 
L 38.595986 246.388486 
L 39.904117 237.055655 
L 41.212249 218.326475 
L 43.828513 233.387372 
L 45.136645 236.234427 
L 46.444777 237.293425 
L 49.061041 256.313321 
L 50.369172 255.822722 
L 51.677304 243.109331 
L 52.985436 212.36467 
L 55.6017 162.563334 
L 56.909832 143.84129 
L 58.217964 113.406318 
L 59.526095 107.256927 
L 60.834227 129.127564 
L 62.142359 169.610337 
L 63.450491 165.645532 
L 64.758623 169.115602 
L 66.066755 144.753156 
L 67.374887 179.647632 
L 68.683019 175.437505 
L 69.99115 150.710969 
L 71.299282 88.208754 
L 72.607414 84.394062 
L 73.915546 80.114816 
L 75.223678 71.804879 
L 76.53181 51.239386 
L 77.839942 76.931758 
L 79.148073 90.291085 
L 80.456205 112.392863 
L 81.764337 137.201801 
L 83.072469 135.362509 
L 84.380601 149.276885 
L 85.688733 138.58476 
L 86.996865 155.795645 
L 88.304997 168.900399 
L 92.229392 200.539182 
L 93.537524 195.575228 
L 94.845656 187.912342 
L 96.153788 178.52472 
L 97.46192 183.482093 
L 98.770052 189.523726 
L 100.078183 188.153999 
L 101.386315 186.18367 
L 102.694447 185.09643 
L 104.002579 188.315827 
L 105.310711 195.281979 
L 106.618843 193.687884 
L 107.926975 190.308761 
L 109.235106 193.689874 
L 110.543238 198.708102 
L 111.85137 197.755094 
L 113.159502 191.402728 
L 114.467634 185.944654 
L 115.775766 189.7987 
L 117.083898 191.844605 
L 118.39203 191.480812 
L 119.700161 186.955724 
L 121.008293 187.634041 
L 122.316425 195.355837 
L 123.624557 208.84012 
L 126.240821 217.476612 
L 127.548953 210.241718 
L 128.857084 213.36349 
L 130.165216 208.263285 
L 131.473348 205.402114 
L 132.78148 185.324114 
L 134.089612 174.344388 
L 135.397744 170.831497 
L 136.705876 188.120092 
L 138.014008 193.123075 
L 139.322139 201.848623 
L 140.630271 206.082407 
L 141.938403 220.402845 
L 143.246535 233.236603 
L 144.554667 240.583648 
L 145.862799 243.620823 
L 147.170931 243.114997 
L 149.787194 250.064959 
L 151.095326 251.607698 
L 152.403458 248.893225 
L 153.71159 248.891095 
L 155.019722 245.382199 
L 157.635986 237.10204 
L 158.944117 236.582508 
L 160.252249 236.477418 
L 161.560381 234.241533 
L 162.868513 227.752305 
L 164.176645 225.467971 
L 165.484777 230.718701 
L 166.792909 240.92208 
L 168.101041 243.507227 
L 169.409172 241.044337 
L 170.717304 233.826969 
L 172.025436 233.222764 
L 173.333568 228.38915 
L 174.6417 242.740121 
L 175.949832 229.269077 
L 177.257964 229.870881 
L 178.566095 207.161383 
L 179.874227 229.209749 
L 181.182359 219.501156 
L 182.490491 212.031087 
L 183.798623 192.98185 
L 185.106755 209.581314 
L 186.414887 221.065989 
L 187.723019 234.616737 
L 189.03115 224.06468 
L 190.339282 222.447011 
L 191.647414 230.764786 
L 192.955546 226.735849 
L 194.263678 230.732013 
L 195.57181 218.850986 
L 196.879942 224.281475 
L 198.188073 218.302399 
L 199.496205 221.123664 
L 200.804337 220.93512 
L 202.112469 242.141688 
L 203.420601 228.364316 
L 204.728733 218.44859 
L 206.036865 190.029585 
L 207.344997 193.727182 
L 208.653128 200.139008 
L 209.96126 199.610689 
L 211.269392 181.624175 
L 212.577524 190.09163 
L 215.193788 214.510045 
L 216.50192 208.573118 
L 217.810052 200.569432 
L 219.118183 204.342327 
L 220.426315 203.652593 
L 221.734447 200.974213 
L 223.042579 196.618162 
L 224.350711 199.093369 
L 225.658843 191.026031 
L 226.966975 184.214067 
L 228.275106 180.790352 
L 229.583238 183.611312 
L 230.89137 181.298308 
L 232.199502 169.270937 
L 233.507634 184.905831 
L 234.815766 188.492178 
L 236.123898 200.403438 
L 237.43203 187.108997 
L 238.740161 189.611924 
L 240.048293 195.033037 
L 241.356425 197.447481 
L 242.664557 192.747876 
L 243.972689 197.145102 
L 245.280821 200.314175 
L 246.588953 220.626045 
L 249.205216 201.295556 
L 250.513348 195.464272 
L 251.82148 197.405968 
L 253.129612 197.113713 
L 254.437744 187.261183 
L 255.745876 187.08549 
L 257.054008 193.741822 
L 258.362139 189.550213 
L 259.670271 199.469935 
L 260.978403 189.152671 
L 262.286535 193.119185 
L 263.594667 182.150609 
L 264.902799 193.164416 
L 266.210931 198.60058 
L 267.519062 195.400607 
L 268.827194 176.246527 
L 270.135326 182.20913 
L 271.443458 196.443074 
L 272.75159 212.928431 
L 274.059722 210.214796 
L 275.367854 197.539344 
L 276.675986 194.357613 
L 279.292249 188.916137 
L 280.600381 182.357292 
L 281.908513 171.871023 
L 283.216645 176.669151 
L 284.524777 179.625281 
L 285.832909 181.687232 
L 287.141041 179.678119 
L 288.449172 185.826618 
L 289.757304 190.280728 
L 291.065436 201.282161 
L 292.373568 203.568241 
L 293.6817 209.613962 
L 294.989832 202.82065 
L 296.297964 202.539923 
L 297.606095 196.411828 
L 298.914227 196.743275 
L 300.222359 196.795762 
L 301.530491 205.708887 
L 302.838623 206.399686 
L 304.146755 211.222913 
L 305.454887 206.203506 
L 306.763019 215.275699 
L 308.07115 227.04317 
L 309.379282 235.049338 
L 310.687414 230.893623 
L 311.995546 231.014516 
L 313.303678 240.403632 
L 314.61181 242.143466 
L 315.919942 209.55923 
L 317.228073 152.790998 
L 318.536205 131.180415 
L 319.844337 159.879638 
L 321.152469 194.434509 
L 322.460601 194.078898 
L 323.768733 199.039398 
L 325.076865 218.686553 
L 326.384997 244.703586 
L 327.693128 251.750355 
L 329.00126 243.877834 
L 330.309392 225.985777 
L 331.617524 230.404356 
L 334.233788 254.199875 
L 335.54192 252.076606 
L 338.158183 243.017663 
L 339.466315 242.328067 
L 340.774447 241.322359 
L 342.082579 242.707579 
L 343.390711 244.981923 
L 344.698843 243.764543 
L 346.006975 242.927891 
L 347.315106 236.657187 
L 348.623238 247.335431 
L 349.93137 252.068319 
L 351.239502 255.212423 
L 352.547634 242.265414 
L 353.855766 240.610269 
L 355.163898 239.708955 
L 356.47203 232.583033 
L 357.780161 222.156768 
L 359.088293 214.756056 
L 360.396425 220.03548 
L 361.704557 226.75576 
L 363.012689 225.307435 
L 364.320821 235.305016 
L 365.628953 230.400667 
L 366.937084 234.101419 
L 368.245216 235.597281 
L 369.553348 235.016415 
L 370.86148 230.998408 
L 372.169612 224.298607 
L 373.477744 216.77092 
L 374.785876 219.728418 
L 376.094008 220.168553 
L 377.402139 235.06089 
L 378.710271 243.990749 
L 380.018403 249.55491 
L 381.326535 250.837773 
L 382.634667 246.346832 
L 383.942799 236.739674 
L 385.250931 236.167242 
L 385.250931 236.167242 
" clip-path="url(#p62a437df09)" style="fill: none; stroke: #2ca02c; stroke-width: 1.5; stroke-linecap: square"/>
   </g>
   <g id="line2d_20">
    <path d="M 29.439062 221.275211 
L 30.747194 236.505406 
L 32.055326 248.478994 
L 33.363458 250.372301 
L 34.67159 258.240554 
L 35.979722 258.641514 
L 37.287854 253.887849 
L 38.595986 250.742613 
L 39.904117 242.558839 
L 41.212249 227.832517 
L 42.520381 226.152528 
L 43.828513 232.537407 
L 45.136645 227.154092 
L 46.444777 239.663468 
L 47.752909 247.949949 
L 49.061041 246.12502 
L 50.369172 254.219959 
L 51.677304 251.824807 
L 52.985436 220.968504 
L 54.293568 205.919399 
L 55.6017 186.135769 
L 56.909832 136.533121 
L 58.217964 133.903952 
L 59.526095 128.780364 
L 60.834227 108.165345 
L 62.142359 154.661857 
L 63.450491 166.381937 
L 64.758623 156.222628 
L 67.374887 174.127491 
L 68.683019 164.056515 
L 69.99115 151.002816 
L 71.299282 139.788926 
L 72.607414 90.161987 
L 73.915546 73.226844 
L 75.223678 79.930908 
L 76.53181 63.162834 
L 77.839942 67.394559 
L 79.148073 87.608872 
L 80.456205 95.307164 
L 81.764337 130.829051 
L 83.072469 130.923693 
L 85.688733 149.07322 
L 86.996865 145.514995 
L 88.304997 165.230701 
L 89.613128 172.15619 
L 90.92126 183.990017 
L 92.229392 198.107108 
L 93.537524 192.195781 
L 94.845656 190.267628 
L 96.153788 190.194295 
L 97.46192 178.776002 
L 98.770052 185.572177 
L 100.078183 190.372599 
L 101.386315 184.54832 
L 102.694447 186.766963 
L 104.002579 189.473261 
L 105.310711 190.069324 
L 106.618843 192.410021 
L 110.543238 195.044354 
L 111.85137 196.351076 
L 113.159502 194.867136 
L 114.467634 189.335364 
L 115.775766 189.603599 
L 117.083898 190.360547 
L 118.39203 189.394825 
L 119.700161 190.342872 
L 121.008293 188.74688 
L 122.316425 192.084855 
L 123.624557 203.69443 
L 124.932689 208.628052 
L 126.240821 214.390906 
L 127.548953 214.306201 
L 128.857084 212.043229 
L 130.165216 210.791529 
L 131.473348 205.110817 
L 132.78148 194.096195 
L 134.089612 181.995215 
L 135.397744 177.300368 
L 136.705876 180.166067 
L 138.014008 188.02426 
L 139.322139 198.022962 
L 141.938403 213.03684 
L 143.246535 228.256977 
L 144.554667 235.194567 
L 145.862799 240.763189 
L 147.170931 244.49752 
L 148.479062 245.259188 
L 151.095326 250.498685 
L 152.403458 249.519384 
L 153.71159 249.59516 
L 155.019722 247.032432 
L 156.327854 241.548346 
L 157.635986 240.987516 
L 160.252249 234.646856 
L 161.560381 235.892398 
L 164.176645 226.256947 
L 165.484777 231.579139 
L 166.792909 236.122417 
L 168.101041 238.507266 
L 169.409172 242.782759 
L 170.717304 238.331566 
L 172.025436 232.634606 
L 173.333568 231.587191 
L 174.6417 239.646891 
L 175.949832 229.193149 
L 177.257964 229.040635 
L 178.566095 225.896331 
L 179.874227 217.632953 
L 181.182359 221.78581 
L 182.490491 212.266073 
L 183.798623 208.065956 
L 185.106755 206.313066 
L 186.414887 213.521109 
L 187.723019 226.061058 
L 189.03115 227.980673 
L 190.339282 222.980288 
L 191.647414 233.074257 
L 192.955546 221.710038 
L 194.263678 228.075685 
L 195.57181 230.662107 
L 196.879942 216.432907 
L 198.188073 221.898783 
L 199.496205 223.537176 
L 200.804337 218.034898 
L 202.112469 235.927619 
L 203.420601 230.806248 
L 204.728733 215.976432 
L 206.036865 216.679967 
L 207.344997 192.041922 
L 208.653128 192.910047 
L 209.96126 202.612348 
L 211.269392 185.877122 
L 212.577524 190.175906 
L 213.885656 204.536808 
L 215.193788 198.448671 
L 216.50192 209.676726 
L 217.810052 211.634562 
L 219.118183 199.686873 
L 220.426315 201.281933 
L 221.734447 206.126362 
L 223.042579 196.71423 
L 224.350711 197.268091 
L 225.658843 196.960725 
L 226.966975 183.923798 
L 228.275106 185.627441 
L 229.583238 185.325715 
L 230.89137 176.313222 
L 232.199502 174.670499 
L 233.507634 188.327129 
L 234.815766 180.177036 
L 237.43203 200.262414 
L 238.740161 183.839538 
L 240.048293 194.796847 
L 241.356425 198.049398 
L 242.664557 188.189868 
L 243.972689 200.271432 
L 245.280821 201.939318 
L 246.588953 207.269481 
L 247.897084 213.289999 
L 249.205216 204.949238 
L 250.513348 203.848238 
L 251.82148 195.139464 
L 253.129612 194.305696 
L 254.437744 193.674278 
L 255.745876 188.888776 
L 257.054008 191.5016 
L 258.362139 187.892686 
L 259.670271 198.041309 
L 260.978403 193.005785 
L 262.286535 187.405469 
L 263.594667 192.869183 
L 264.902799 188.066754 
L 266.210931 194.64471 
L 267.519062 194.587132 
L 268.827194 183.841066 
L 270.135326 186.599767 
L 271.443458 192.921842 
L 272.75159 198.395901 
L 274.059722 211.065593 
L 276.675986 196.858291 
L 277.984117 195.13317 
L 279.292249 187.209652 
L 280.600381 185.572071 
L 281.908513 178.699715 
L 283.216645 175.832866 
L 284.524777 178.493445 
L 285.832909 178.184745 
L 287.141041 181.575194 
L 288.449172 185.331186 
L 289.757304 186.329848 
L 291.065436 196.546057 
L 292.373568 202.936162 
L 293.6817 204.510717 
L 294.989832 205.626636 
L 296.297964 203.868227 
L 297.606095 199.222196 
L 298.914227 195.776348 
L 300.222359 199.414406 
L 301.530491 201.670223 
L 302.838623 203.378204 
L 304.146755 210.206468 
L 305.454887 208.524885 
L 306.763019 210.766072 
L 308.07115 225.546373 
L 310.687414 229.083162 
L 311.995546 236.464788 
L 313.303678 237.497733 
L 314.61181 234.806213 
L 315.919942 221.777563 
L 317.228073 187.059161 
L 318.536205 156.996009 
L 319.844337 152.052377 
L 321.152469 173.746238 
L 322.460601 188.21243 
L 323.768733 199.845473 
L 325.076865 216.297816 
L 327.693128 244.014071 
L 329.00126 246.895303 
L 330.309392 234.888058 
L 331.617524 233.419403 
L 332.925656 239.247932 
L 334.233788 243.609469 
L 335.54192 252.205565 
L 336.850052 251.204953 
L 338.158183 244.342162 
L 339.466315 243.23247 
L 340.774447 243.18381 
L 342.082579 240.595936 
L 343.390711 244.706237 
L 344.698843 244.25254 
L 346.006975 241.813187 
L 347.315106 240.314936 
L 348.623238 246.039879 
L 349.93137 248.270489 
L 351.239502 250.000714 
L 352.547634 249.838473 
L 353.855766 243.336882 
L 355.163898 240.659262 
L 356.47203 232.232699 
L 357.780161 228.85032 
L 359.088293 221.92811 
L 360.396425 216.625799 
L 361.704557 224.341012 
L 363.012689 224.305296 
L 364.320821 232.157378 
L 365.628953 231.895875 
L 366.937084 230.002881 
L 368.245216 239.449318 
L 369.553348 231.67145 
L 370.86148 230.453386 
L 372.169612 232.608966 
L 373.477744 217.294661 
L 374.785876 218.652145 
L 376.094008 224.730893 
L 377.402139 226.036156 
L 378.710271 239.412963 
L 380.018403 246.900947 
L 381.326535 248.666268 
L 382.634667 247.606781 
L 383.942799 241.709108 
L 385.250931 238.715508 
L 385.250931 238.715508 
" clip-path="url(#p62a437df09)" style="fill: none; stroke: #d62728; stroke-width: 1.5; stroke-linecap: square"/>
   </g>
   <g id="line2d_21">
    <path d="M 29.439062 222.506149 
L 30.747194 229.225195 
L 32.055326 244.328125 
L 33.363458 247.402355 
L 34.67159 252.954749 
L 35.979722 258.019032 
L 37.287854 257.295259 
L 38.595986 249.2435 
L 39.904117 246.974437 
L 41.212249 234.54074 
L 42.520381 231.861658 
L 43.828513 231.553594 
L 45.136645 227.717781 
L 46.444777 232.012654 
L 47.752909 247.643113 
L 50.369172 246.413994 
L 51.677304 251.305355 
L 52.985436 234.325278 
L 54.293568 214.484016 
L 55.6017 201.387908 
L 56.909832 163.586194 
L 58.217964 129.858474 
L 59.526095 141.397281 
L 60.834227 125.3209 
L 62.142359 134.972888 
L 63.450491 154.989431 
L 64.758623 158.76708 
L 66.066755 155.361922 
L 67.374887 182.873277 
L 68.683019 162.532711 
L 69.99115 145.998895 
L 71.299282 142.271252 
L 72.607414 131.739654 
L 73.915546 80.2958 
L 75.223678 74.469261 
L 76.53181 71.612377 
L 77.839942 73.369884 
L 79.148073 78.170446 
L 80.456205 92.205622 
L 81.764337 114.651386 
L 83.072469 126.98029 
L 84.380601 135.707335 
L 85.688733 141.820322 
L 86.996865 152.338799 
L 88.304997 155.572908 
L 89.613128 168.629853 
L 90.92126 177.501124 
L 92.229392 192.046346 
L 93.537524 191.863517 
L 94.845656 188.562489 
L 96.153788 191.603524 
L 97.46192 188.124556 
L 98.770052 181.447777 
L 100.078183 187.0666 
L 101.386315 187.0915 
L 102.694447 185.34807 
L 104.002579 189.913695 
L 105.310711 190.637736 
L 106.618843 188.763136 
L 109.235106 195.654061 
L 110.543238 195.075047 
L 111.85137 193.860278 
L 113.159502 194.307816 
L 114.467634 192.563919 
L 115.775766 191.542008 
L 118.39203 188.685177 
L 119.700161 188.893792 
L 121.008293 191.078975 
L 122.316425 192.074346 
L 123.624557 199.593102 
L 124.932689 204.565698 
L 126.240821 210.577143 
L 127.548953 212.428944 
L 128.857084 214.907852 
L 130.165216 210.23647 
L 131.473348 207.817891 
L 132.78148 196.188428 
L 134.089612 189.862088 
L 135.397744 182.770205 
L 136.705876 183.291563 
L 138.014008 181.712392 
L 139.322139 193.113415 
L 141.938403 211.463604 
L 144.554667 230.909798 
L 147.170931 242.063784 
L 148.479062 245.919887 
L 149.787194 246.583547 
L 151.095326 248.741635 
L 152.403458 249.036102 
L 153.71159 249.952996 
L 155.019722 247.98217 
L 156.327854 243.701758 
L 157.635986 241.373489 
L 158.944117 240.72956 
L 160.252249 235.993508 
L 162.868513 232.924776 
L 164.176645 229.099784 
L 165.484777 230.988135 
L 166.792909 235.724345 
L 168.101041 235.091221 
L 169.409172 238.923995 
L 170.717304 240.309621 
L 172.025436 236.532871 
L 173.333568 231.439783 
L 174.6417 239.832571 
L 175.949832 229.288225 
L 177.257964 229.025515 
L 178.566095 226.018762 
L 179.874227 229.776904 
L 181.182359 213.604985 
L 182.490491 215.680869 
L 183.798623 209.062995 
L 185.106755 214.984372 
L 186.414887 210.206824 
L 187.723019 219.314815 
L 189.03115 222.17396 
L 190.339282 226.369517 
L 191.647414 231.430807 
L 192.955546 225.577264 
L 194.263678 223.851206 
L 195.57181 228.555607 
L 196.879942 226.648719 
L 198.188073 216.031922 
L 199.496205 225.28565 
L 200.804337 220.640156 
L 202.112469 231.061495 
L 203.420601 227.73105 
L 204.728733 220.726004 
L 206.036865 215.037011 
L 207.344997 213.157231 
L 208.653128 191.720756 
L 209.96126 196.460668 
L 211.269392 191.350375 
L 212.577524 191.757527 
L 213.885656 201.836996 
L 215.193788 200.792232 
L 216.50192 197.550137 
L 217.810052 211.894043 
L 219.118183 208.846332 
L 220.426315 198.115669 
L 221.734447 203.773183 
L 223.042579 201.828184 
L 224.350711 197.214919 
L 225.658843 195.912493 
L 228.275106 185.115566 
L 229.583238 188.215948 
L 230.89137 179.230873 
L 232.199502 171.901027 
L 233.507634 188.619752 
L 234.815766 183.951829 
L 236.123898 183.070739 
L 237.43203 191.957715 
L 238.740161 195.323676 
L 240.048293 189.316525 
L 241.356425 197.266248 
L 242.664557 190.602066 
L 243.972689 195.331172 
L 245.280821 203.427593 
L 246.588953 207.153921 
L 247.897084 203.660003 
L 249.205216 208.209749 
L 250.513348 206.225655 
L 251.82148 201.968952 
L 253.129612 193.086981 
L 254.437744 192.080368 
L 255.745876 193.671134 
L 257.054008 192.037551 
L 258.362139 187.230909 
L 259.670271 195.127704 
L 260.978403 193.136595 
L 262.286535 190.879234 
L 263.594667 188.360647 
L 264.902799 195.259724 
L 266.210931 190.323195 
L 267.519062 192.16594 
L 268.827194 185.535827 
L 270.135326 190.356327 
L 271.443458 194.157665 
L 272.75159 195.231943 
L 274.059722 199.805793 
L 275.367854 205.75506 
L 276.675986 201.980701 
L 277.984117 196.973377 
L 280.600381 184.857416 
L 281.908513 182.068236 
L 283.216645 180.423619 
L 284.524777 177.468219 
L 285.832909 177.562124 
L 287.141041 178.80059 
L 288.449172 185.690961 
L 289.757304 185.834271 
L 292.373568 198.87215 
L 293.6817 203.82049 
L 294.989832 202.259429 
L 296.297964 205.894119 
L 297.606095 200.979192 
L 298.914227 198.165651 
L 300.222359 198.124359 
L 301.530491 202.74615 
L 302.838623 200.578123 
L 304.146755 207.104849 
L 305.454887 208.241904 
L 306.763019 211.671763 
L 308.07115 220.244674 
L 309.379282 226.078778 
L 310.687414 223.863886 
L 311.995546 233.998962 
L 313.303678 240.383726 
L 314.61181 233.517676 
L 315.919942 219.293385 
L 317.228073 203.251104 
L 318.536205 183.622751 
L 319.844337 167.197618 
L 321.152469 165.252998 
L 322.460601 172.562654 
L 323.768733 194.202864 
L 325.076865 213.618043 
L 326.384997 226.041419 
L 327.693128 232.462632 
L 329.00126 241.448056 
L 330.309392 239.391526 
L 331.617524 238.737845 
L 332.925656 239.787062 
L 334.233788 241.114508 
L 335.54192 244.070253 
L 336.850052 251.48424 
L 338.158183 248.029576 
L 339.466315 244.248661 
L 340.774447 243.731784 
L 342.082579 242.244278 
L 343.390711 242.65733 
L 344.698843 244.176889 
L 346.006975 242.605043 
L 347.315106 239.931252 
L 348.623238 246.935916 
L 349.93137 247.059347 
L 351.239502 247.328921 
L 352.547634 246.558014 
L 353.855766 249.176368 
L 355.163898 242.836748 
L 356.47203 234.590488 
L 357.780161 229.319501 
L 359.088293 227.373291 
L 360.396425 221.952487 
L 361.704557 220.862935 
L 363.012689 222.835301 
L 364.320821 230.068009 
L 365.628953 230.003639 
L 366.937084 231.284555 
L 368.245216 235.291923 
L 369.553348 235.670859 
L 370.86148 228.611926 
L 372.169612 231.859133 
L 373.477744 225.800643 
L 374.785876 218.691941 
L 376.094008 222.921585 
L 377.402139 228.392567 
L 378.710271 231.680575 
L 380.018403 242.787511 
L 381.326535 246.709389 
L 382.634667 246.472815 
L 383.942799 243.713377 
L 385.250931 242.251513 
L 385.250931 242.251513 
" clip-path="url(#p62a437df09)" style="fill: none; stroke: #9467bd; stroke-width: 1.5; stroke-linecap: square"/>
   </g>
   <g id="line2d_22">
    <path d="M 29.439062 221.989476 
L 30.747194 228.904971 
L 32.055326 237.483987 
L 33.363458 244.099331 
L 34.67159 250.133055 
L 37.287854 256.994611 
L 38.595986 253.038847 
L 41.212249 239.915086 
L 42.520381 236.632969 
L 43.828513 235.239876 
L 45.136645 227.68395 
L 46.444777 231.670455 
L 47.752909 240.522 
L 49.061041 246.901912 
L 50.369172 247.094508 
L 51.677304 245.135114 
L 52.985436 236.98727 
L 54.293568 227.417148 
L 55.6017 209.558869 
L 58.217964 154.479575 
L 59.526095 136.912814 
L 60.834227 136.626651 
L 62.142359 143.651398 
L 63.450491 138.702995 
L 64.758623 150.24993 
L 66.066755 157.637623 
L 67.374887 172.805614 
L 68.683019 172.308881 
L 69.99115 147.756838 
L 71.299282 139.424444 
L 72.607414 135.249771 
L 73.915546 118.380389 
L 75.223678 80.14313 
L 76.53181 68.347758 
L 77.839942 78.528388 
L 80.456205 83.731536 
L 81.764337 109.142714 
L 83.072469 114.016671 
L 84.380601 131.704446 
L 85.688733 137.894546 
L 86.996865 145.867244 
L 88.304997 159.375849 
L 89.613128 160.199988 
L 90.92126 173.774933 
L 92.229392 185.603024 
L 93.537524 187.691034 
L 96.153788 189.973888 
L 97.46192 189.661866 
L 98.770052 188.720384 
L 100.078183 183.420157 
L 101.386315 184.839306 
L 102.694447 187.32764 
L 104.002579 188.234936 
L 105.310711 190.808875 
L 106.618843 189.459306 
L 107.926975 189.315904 
L 109.235106 194.488321 
L 110.543238 196.222111 
L 111.85137 194.084129 
L 113.159502 192.551171 
L 114.467634 192.477858 
L 115.775766 193.836383 
L 117.083898 191.623847 
L 118.39203 188.740474 
L 119.700161 188.38451 
L 121.008293 189.755489 
L 122.316425 193.432394 
L 123.624557 198.363082 
L 124.932689 201.032618 
L 126.240821 206.925265 
L 127.548953 209.543013 
L 128.857084 213.252545 
L 130.165216 212.963095 
L 131.473348 207.846519 
L 134.089612 192.369156 
L 135.397744 189.197994 
L 138.014008 184.042107 
L 139.322139 187.198671 
L 143.246535 218.675332 
L 144.554667 224.780796 
L 145.862799 232.725185 
L 148.479062 243.690539 
L 149.787194 246.907814 
L 151.095326 247.474879 
L 152.403458 247.797075 
L 153.71159 249.480254 
L 155.019722 248.556817 
L 156.327854 245.08607 
L 157.635986 243.204053 
L 160.252249 238.815428 
L 162.868513 232.270423 
L 164.176645 231.130882 
L 165.484777 232.49656 
L 166.792909 234.57189 
L 168.101041 234.929153 
L 169.409172 236.028174 
L 170.717304 237.444895 
L 172.025436 238.514573 
L 173.333568 234.934333 
L 174.6417 238.395766 
L 175.949832 231.266365 
L 177.257964 229.132824 
L 178.566095 226.515892 
L 179.874227 229.239417 
L 181.182359 224.817696 
L 182.490491 209.621523 
L 183.798623 212.522123 
L 186.414887 216.641101 
L 187.723019 215.732855 
L 189.03115 217.061613 
L 190.339282 221.758769 
L 191.647414 232.710465 
L 192.955546 225.409058 
L 194.263678 226.675144 
L 195.57181 224.981941 
L 196.879942 225.516094 
L 198.188073 224.706134 
L 199.496205 219.993368 
L 200.804337 222.621729 
L 202.112469 230.960194 
L 203.420601 224.808205 
L 204.728733 219.699069 
L 206.036865 219.194515 
L 207.344997 212.348296 
L 208.653128 209.65087 
L 209.96126 194.907088 
L 211.269392 187.807324 
L 212.577524 195.211158 
L 213.885656 201.189777 
L 215.193788 199.121299 
L 216.50192 199.667689 
L 217.810052 201.664094 
L 219.118183 209.536309 
L 220.426315 206.137929 
L 221.734447 200.771985 
L 223.042579 200.539284 
L 224.350711 201.393693 
L 226.966975 190.557175 
L 228.275106 190.24811 
L 229.583238 187.367939 
L 230.89137 182.763564 
L 232.199502 175.139954 
L 233.507634 184.260041 
L 236.123898 185.693006 
L 237.43203 186.011723 
L 238.740161 189.053189 
L 240.048293 197.746163 
L 241.356425 192.377572 
L 242.664557 191.188962 
L 243.972689 196.093335 
L 245.280821 198.888857 
L 246.588953 207.49831 
L 249.205216 200.805821 
L 250.513348 208.713277 
L 251.82148 204.293783 
L 253.129612 199.221764 
L 254.437744 191.424833 
L 255.745876 192.344692 
L 257.054008 195.438584 
L 258.362139 188.410429 
L 259.670271 193.421343 
L 260.978403 191.466693 
L 262.286535 191.34645 
L 263.594667 191.086209 
L 264.902799 191.173373 
L 266.210931 195.888562 
L 267.519062 188.934661 
L 268.827194 184.957424 
L 271.443458 195.922878 
L 272.75159 195.865522 
L 274.059722 196.964714 
L 275.367854 196.992366 
L 276.675986 203.993471 
L 277.984117 201.233957 
L 279.292249 193.29733 
L 280.600381 188.48751 
L 281.908513 182.050611 
L 283.216645 182.922867 
L 284.524777 180.997684 
L 285.832909 176.85942 
L 287.141041 178.181248 
L 288.449172 182.759312 
L 289.757304 186.049535 
L 291.065436 190.908696 
L 292.373568 194.995539 
L 293.6817 200.316108 
L 294.989832 202.053777 
L 296.297964 203.05515 
L 297.606095 203.188982 
L 298.914227 199.818307 
L 300.222359 199.700281 
L 301.530491 201.146293 
L 302.838623 201.664569 
L 304.146755 204.221356 
L 305.454887 205.956449 
L 306.763019 210.922625 
L 308.07115 219.423925 
L 309.379282 221.610325 
L 310.687414 223.37897 
L 311.995546 229.049003 
L 313.303678 237.766712 
L 314.61181 236.693885 
L 317.228073 204.185953 
L 318.536205 198.109798 
L 321.152469 175.034151 
L 322.460601 165.669523 
L 323.768733 180.766015 
L 325.076865 207.173387 
L 326.384997 222.415569 
L 327.693128 228.878611 
L 329.00126 232.116043 
L 330.309392 235.824645 
L 331.617524 241.744141 
L 332.925656 242.955834 
L 334.233788 241.247706 
L 335.54192 241.929208 
L 336.850052 244.83055 
L 338.158183 248.808845 
L 339.466315 247.351661 
L 340.774447 244.492239 
L 342.082579 242.862764 
L 343.390711 243.66558 
L 344.698843 242.552297 
L 346.006975 242.817807 
L 347.315106 240.92033 
L 348.623238 245.569599 
L 349.93137 247.629856 
L 351.239502 246.468575 
L 352.547634 244.839602 
L 353.855766 246.543437 
L 355.163898 247.840138 
L 356.47203 237.555391 
L 357.780161 231.830536 
L 359.088293 228.017048 
L 360.396425 226.505229 
L 361.704557 224.482092 
L 363.012689 220.162131 
L 364.320821 227.964603 
L 365.628953 228.595117 
L 366.937084 229.804007 
L 368.245216 235.451266 
L 369.553348 232.73684 
L 370.86148 232.56268 
L 372.169612 230.112794 
L 373.477744 226.306774 
L 374.785876 225.520005 
L 376.094008 222.253967 
L 377.402139 226.331124 
L 378.710271 232.637563 
L 380.018403 236.043033 
L 381.326535 243.321083 
L 382.634667 245.177288 
L 383.942799 243.392969 
L 385.250931 243.825994 
L 385.250931 243.825994 
" clip-path="url(#p62a437df09)" style="fill: none; stroke: #8c564b; stroke-width: 1.5; stroke-linecap: square"/>
   </g>
   <g id="line2d_23">
    <path d="M 29.439062 224.216778 
L 30.747194 227.596136 
L 32.055326 236.094002 
L 33.363458 238.285498 
L 34.67159 247.009287 
L 35.979722 251.173405 
L 37.287854 253.38057 
L 38.595986 253.391419 
L 39.904117 250.111493 
L 41.212249 240.35466 
L 42.520381 240.873149 
L 43.828513 238.743918 
L 45.136645 231.524757 
L 46.444777 231.087585 
L 47.752909 239.084283 
L 49.061041 240.893702 
L 50.369172 246.996197 
L 51.677304 245.910647 
L 52.985436 233.085415 
L 54.293568 230.86679 
L 55.6017 221.875268 
L 56.909832 192.984554 
L 58.217964 172.579527 
L 59.526095 156.56697 
L 60.834227 133.393898 
L 62.142359 150.105108 
L 63.450491 145.513232 
L 64.758623 136.739153 
L 66.066755 150.483069 
L 67.374887 172.207681 
L 68.683019 164.739432 
L 69.99115 159.007124 
L 71.299282 141.932814 
L 72.607414 133.752243 
L 75.223678 113.209754 
L 76.53181 74.203567 
L 77.839942 74.821343 
L 79.148073 84.425418 
L 80.456205 85.512302 
L 81.764337 100.005778 
L 83.072469 109.382331 
L 84.380601 120.19955 
L 85.688733 134.191304 
L 86.996865 141.997781 
L 88.304997 153.047456 
L 89.613128 162.735832 
L 90.92126 166.052801 
L 92.229392 181.433711 
L 93.537524 182.665304 
L 94.845656 185.684395 
L 96.153788 190.052933 
L 97.46192 188.528151 
L 98.770052 189.949308 
L 100.078183 189.323584 
L 101.386315 181.997329 
L 102.694447 185.368481 
L 104.002579 189.494891 
L 105.310711 189.251731 
L 106.618843 189.776067 
L 107.926975 189.831957 
L 109.235106 191.63289 
L 110.543238 195.146246 
L 111.85137 195.216294 
L 113.159502 192.932486 
L 114.467634 191.218756 
L 115.775766 193.58218 
L 117.083898 193.580143 
L 118.39203 190.258975 
L 119.700161 188.474989 
L 121.008293 189.198645 
L 122.316425 191.981943 
L 123.624557 198.601115 
L 124.932689 199.784621 
L 126.240821 203.618883 
L 127.548953 206.544268 
L 128.857084 210.681256 
L 130.165216 211.804545 
L 131.473348 210.573035 
L 132.78148 201.272819 
L 135.397744 191.453746 
L 136.705876 191.567199 
L 138.014008 186.873421 
L 139.322139 188.362043 
L 140.630271 191.892493 
L 143.246535 214.499122 
L 144.554667 222.158824 
L 145.862799 227.322903 
L 147.170931 234.922937 
L 148.479062 240.308315 
L 149.787194 244.880253 
L 151.095326 247.623529 
L 152.403458 246.836933 
L 153.71159 248.36133 
L 155.019722 248.346486 
L 156.327854 246.014508 
L 157.635986 244.469403 
L 158.944117 242.710852 
L 160.252249 239.410904 
L 161.560381 238.158751 
L 162.868513 233.598803 
L 164.176645 230.819473 
L 165.484777 233.710105 
L 166.792909 235.321048 
L 168.101041 234.048867 
L 169.409172 235.757231 
L 170.717304 235.145673 
L 172.025436 236.280027 
L 173.333568 236.891486 
L 174.6417 240.248563 
L 175.949832 231.206691 
L 177.257964 230.855381 
L 178.566095 226.97232 
L 179.874227 229.200263 
L 181.182359 225.060755 
L 182.490491 220.171876 
L 183.798623 207.679122 
L 185.106755 216.719103 
L 186.414887 216.123738 
L 187.723019 220.271379 
L 189.03115 214.26839 
L 190.339282 217.436337 
L 191.647414 228.104504 
L 192.955546 227.449084 
L 194.263678 226.376218 
L 195.57181 227.223636 
L 196.879942 222.819885 
L 198.188073 223.999794 
L 199.496205 226.684388 
L 200.804337 218.385403 
L 202.112469 231.107781 
L 203.420601 225.63427 
L 204.728733 218.212387 
L 206.036865 218.52415 
L 207.344997 216.383034 
L 208.653128 209.44702 
L 209.96126 209.664523 
L 211.269392 187.671964 
L 212.577524 191.709338 
L 213.885656 202.671045 
L 215.193788 198.947973 
L 216.50192 198.387136 
L 217.810052 202.852002 
L 219.118183 201.008475 
L 220.426315 207.131896 
L 221.734447 207.18111 
L 223.042579 198.380668 
L 224.350711 200.348606 
L 225.658843 199.87207 
L 226.966975 191.497092 
L 228.275106 190.446999 
L 229.583238 191.399083 
L 230.89137 182.804438 
L 232.199502 178.836405 
L 233.507634 185.145917 
L 234.815766 181.658839 
L 236.123898 186.284838 
L 237.43203 187.806378 
L 238.740161 184.297498 
L 240.048293 192.130815 
L 241.356425 199.063592 
L 242.664557 187.727666 
L 243.972689 195.808404 
L 245.280821 199.024939 
L 246.588953 203.154815 
L 247.897084 204.902638 
L 249.205216 201.663825 
L 250.513348 202.345891 
L 251.82148 206.736348 
L 255.745876 191.746216 
L 257.054008 194.064329 
L 258.362139 191.922213 
L 259.670271 193.527147 
L 260.978403 190.499864 
L 262.286535 190.157175 
L 263.594667 191.456708 
L 264.902799 193.073793 
L 266.210931 192.318328 
L 267.519062 193.959995 
L 268.827194 183.119016 
L 271.443458 195.385749 
L 272.75159 197.120655 
L 274.059722 197.255697 
L 275.367854 194.920628 
L 276.675986 196.680503 
L 277.984117 203.076989 
L 279.292249 197.57802 
L 280.600381 190.830877 
L 281.908513 185.624953 
L 283.216645 182.786056 
L 284.524777 183.053444 
L 285.832909 179.987536 
L 287.141041 177.492985 
L 288.449172 181.681811 
L 289.757304 183.494688 
L 291.065436 190.37394 
L 292.373568 193.456085 
L 293.6817 196.827227 
L 294.989832 199.273135 
L 296.297964 202.7665 
L 297.606095 201.103242 
L 298.914227 201.896283 
L 300.222359 200.885534 
L 301.530491 202.043694 
L 302.838623 200.439377 
L 304.146755 204.616121 
L 305.454887 203.633554 
L 306.763019 208.62509 
L 308.07115 217.74467 
L 309.379282 220.720925 
L 310.687414 219.863341 
L 311.995546 227.927071 
L 313.303678 233.158476 
L 314.61181 234.910488 
L 315.919942 225.785975 
L 317.228073 207.941713 
L 318.536205 199.687402 
L 319.844337 198.707123 
L 321.152469 190.269042 
L 322.460601 174.012436 
L 323.768733 174.001014 
L 326.384997 216.068495 
L 327.693128 225.453198 
L 329.00126 229.092188 
L 330.309392 228.265121 
L 331.617524 238.433858 
L 332.925656 244.842663 
L 334.233788 243.724589 
L 335.54192 241.926549 
L 336.850052 242.904976 
L 338.158183 243.356351 
L 339.466315 248.122206 
L 340.774447 247.117699 
L 342.082579 243.645552 
L 343.390711 243.986768 
L 344.698843 243.433191 
L 346.006975 241.603178 
L 347.315106 241.348576 
L 348.623238 245.588154 
L 351.239502 247.045601 
L 352.547634 244.443331 
L 355.163898 245.747859 
L 356.47203 242.868152 
L 357.780161 234.842259 
L 359.088293 230.38515 
L 360.396425 227.185875 
L 361.704557 227.958074 
L 363.012689 223.389952 
L 364.320821 225.05755 
L 365.628953 226.98329 
L 366.937084 228.624362 
L 368.245216 233.647225 
L 369.553348 233.246031 
L 370.86148 230.430796 
L 372.169612 233.251507 
L 373.477744 225.549898 
L 374.785876 225.995159 
L 376.094008 227.465659 
L 377.402139 225.295127 
L 378.710271 230.343622 
L 380.018403 236.22079 
L 381.326535 237.527549 
L 382.634667 242.454916 
L 383.942799 242.69455 
L 385.250931 243.535674 
L 385.250931 243.535674 
" clip-path="url(#p62a437df09)" style="fill: none; stroke: #e377c2; stroke-width: 1.5; stroke-linecap: square"/>
   </g>
   <g id="patch_3">
    <path d="M 29.439063 284.991437 
L 29.439063 18.879437 
" style="fill: none; stroke: #000000; stroke-width: 0.8; stroke-linejoin: miter; stroke-linecap: square"/>
   </g>
   <g id="patch_4">
    <path d="M 386.559062 284.991437 
L 386.559062 18.879437 
" style="fill: none; stroke: #000000; stroke-width: 0.8; stroke-linejoin: miter; stroke-linecap: square"/>
   </g>
   <g id="patch_5">
    <path d="M 29.439062 284.991437 
L 386.559062 284.991437 
" style="fill: none; stroke: #000000; stroke-width: 0.8; stroke-linejoin: miter; stroke-linecap: square"/>
   </g>
   <g id="patch_6">
    <path d="M 29.439062 18.879437 
L 386.559062 18.879437 
" style="fill: none; stroke: #000000; stroke-width: 0.8; stroke-linejoin: miter; stroke-linecap: square"/>
   </g>
   <g id="legend_1">
    <g id="patch_7">
     <path d="M 341.260625 127.613812 
L 379.559062 127.613812 
Q 381.559062 127.613812 381.559062 125.613812 
L 381.559062 25.879437 
Q 381.559062 23.879437 379.559062 23.879437 
L 341.260625 23.879437 
Q 339.260625 23.879437 339.260625 25.879437 
L 339.260625 125.613812 
Q 339.260625 127.613812 341.260625 127.613812 
z
" style="fill: #ffffff; opacity: 0.8; stroke: #cccccc; stroke-linejoin: miter"/>
    </g>
    <g id="line2d_24">
     <path d="M 343.260625 31.870062 
L 353.260625 31.870062 
L 363.260625 31.870062 
" style="fill: none; stroke: #1f77b4; stroke-width: 1.5; stroke-linecap: square"/>
    </g>
    <g id="text_16">
     <!-- 1 -->
     <g transform="translate(371.260625 35.370062) scale(0.1 -0.1)">
      <use xlink:href="#IPAexGothic-31"/>
     </g>
    </g>
    <g id="line2d_25">
     <path d="M 343.260625 46.260687 
L 353.260625 46.260687 
L 363.260625 46.260687 
" style="fill: none; stroke: #ff7f0e; stroke-width: 1.5; stroke-linecap: square"/>
    </g>
    <g id="text_17">
     <!-- 2 -->
     <g transform="translate(371.260625 49.760687) scale(0.1 -0.1)">
      <use xlink:href="#IPAexGothic-32"/>
     </g>
    </g>
    <g id="line2d_26">
     <path d="M 343.260625 60.651312 
L 353.260625 60.651312 
L 363.260625 60.651312 
" style="fill: none; stroke: #2ca02c; stroke-width: 1.5; stroke-linecap: square"/>
    </g>
    <g id="text_18">
     <!-- 3 -->
     <g transform="translate(371.260625 64.151312) scale(0.1 -0.1)">
      <use xlink:href="#IPAexGothic-33"/>
     </g>
    </g>
    <g id="line2d_27">
     <path d="M 343.260625 75.041937 
L 353.260625 75.041937 
L 363.260625 75.041937 
" style="fill: none; stroke: #d62728; stroke-width: 1.5; stroke-linecap: square"/>
    </g>
    <g id="text_19">
     <!-- 4 -->
     <g transform="translate(371.260625 78.541937) scale(0.1 -0.1)">
      <defs>
       <path id="IPAexGothic-34" d="M 3813 1159 
L 3059 1159 
L 3059 63 
L 2547 63 
L 2547 1159 
L 197 1159 
L 197 1672 
L 2456 4678 
L 3059 4678 
L 3059 1634 
L 3813 1634 
L 3813 1159 
z
M 2578 4109 
L 2559 4109 
Q 2278 3656 2003 3284 
L 759 1634 
L 2547 1634 
L 2547 3144 
Q 2547 3481 2578 4109 
z
" transform="scale(0.015625)"/>
      </defs>
      <use xlink:href="#IPAexGothic-34"/>
     </g>
    </g>
    <g id="line2d_28">
     <path d="M 343.260625 89.432562 
L 353.260625 89.432562 
L 363.260625 89.432562 
" style="fill: none; stroke: #9467bd; stroke-width: 1.5; stroke-linecap: square"/>
    </g>
    <g id="text_20">
     <!-- 5 -->
     <g transform="translate(371.260625 92.932562) scale(0.1 -0.1)">
      <use xlink:href="#IPAexGothic-35"/>
     </g>
    </g>
    <g id="line2d_29">
     <path d="M 343.260625 103.823187 
L 353.260625 103.823187 
L 363.260625 103.823187 
" style="fill: none; stroke: #8c564b; stroke-width: 1.5; stroke-linecap: square"/>
    </g>
    <g id="text_21">
     <!-- 6 -->
     <g transform="translate(371.260625 107.323187) scale(0.1 -0.1)">
      <defs>
       <path id="IPAexGothic-36" d="M 1056 2328 
Q 1509 2981 2234 2981 
Q 2906 2981 3316 2513 
Q 3675 2106 3675 1522 
Q 3675 884 3272 434 
Q 2853 -31 2178 -31 
Q 1375 -31 922 581 
Q 481 1178 481 2228 
Q 481 3425 1013 4109 
Q 1494 4725 2272 4725 
Q 3191 4725 3609 4025 
L 3150 3775 
Q 2894 4266 2300 4266 
Q 1119 4266 1031 2328 
L 1056 2328 
z
M 2141 2547 
Q 1684 2547 1384 2206 
Q 1116 1900 1116 1541 
Q 1116 1156 1353 844 
Q 1672 428 2159 428 
Q 2669 428 2941 844 
Q 3125 1128 3125 1503 
Q 3125 1944 2881 2228 
Q 2600 2547 2141 2547 
z
" transform="scale(0.015625)"/>
      </defs>
      <use xlink:href="#IPAexGothic-36"/>
     </g>
    </g>
    <g id="line2d_30">
     <path d="M 343.260625 118.213812 
L 353.260625 118.213812 
L 363.260625 118.213812 
" style="fill: none; stroke: #e377c2; stroke-width: 1.5; stroke-linecap: square"/>
    </g>
    <g id="text_22">
     <!-- 7 -->
     <g transform="translate(371.260625 121.713812) scale(0.1 -0.1)">
      <defs>
       <path id="IPAexGothic-37" d="M 3597 4263 
Q 2238 2106 1778 63 
L 1131 63 
Q 1581 1834 2950 4128 
L 428 4128 
L 428 4634 
L 3597 4634 
L 3597 4263 
z
" transform="scale(0.015625)"/>
      </defs>
      <use xlink:href="#IPAexGothic-37"/>
     </g>
    </g>
   </g>
  </g>
  <g id="axes_2">
   <g id="matplotlib.axis_3"/>
   <g id="patch_8">
    <path d="M 29.439063 284.991437 
L 29.439063 18.879437 
" style="fill: none; stroke: #000000; stroke-width: 0.8; stroke-linejoin: miter; stroke-linecap: square"/>
   </g>
   <g id="patch_9">
    <path d="M 386.559062 284.991437 
L 386.559062 18.879437 
" style="fill: none; stroke: #000000; stroke-width: 0.8; stroke-linejoin: miter; stroke-linecap: square"/>
   </g>
   <g id="patch_10">
    <path d="M 29.439062 284.991437 
L 386.559062 284.991437 
" style="fill: none; stroke: #000000; stroke-width: 0.8; stroke-linejoin: miter; stroke-linecap: square"/>
   </g>
   <g id="patch_11">
    <path d="M 29.439062 18.879437 
L 386.559062 18.879437 
" style="fill: none; stroke: #000000; stroke-width: 0.8; stroke-linejoin: miter; stroke-linecap: square"/>
   </g>
  </g>
  <g id="text_23">
   <!-- : 2023/02/28 16:15:26(JST) -->
   <g transform="translate(211.087188 15.423437) scale(0.1 -0.1)">
    <defs>
     <path id="IPAexGothic-66f4" d="M 2956 3994 
L 2956 4588 
L 513 4588 
L 513 4984 
L 5881 4984 
L 5881 4588 
L 3413 4588 
L 3413 3994 
L 5300 3994 
L 5300 1288 
L 4838 1288 
L 4838 1759 
L 3406 1759 
Q 3384 1125 3150 709 
Q 4291 244 5997 31 
L 5694 -428 
Q 4109 -166 2906 384 
Q 2294 -266 744 -488 
L 494 -66 
Q 1903 59 2491 588 
Q 2041 813 1594 1166 
L 1928 1434 
Q 2331 1106 2747 897 
Q 2922 1219 2950 1759 
L 1556 1759 
L 1556 1413 
L 1097 1413 
L 1097 3994 
L 2956 3994 
z
M 2956 3609 
L 1556 3609 
L 1556 3078 
L 2956 3078 
L 2956 3609 
z
M 3413 3609 
L 3413 3078 
L 4838 3078 
L 4838 3609 
L 3413 3609 
z
M 2956 2700 
L 1556 2700 
L 1556 2144 
L 2956 2144 
L 2956 2700 
z
M 3413 2700 
L 3413 2144 
L 4838 2144 
L 4838 2700 
L 3413 2700 
z
" transform="scale(0.015625)"/>
     <path id="IPAexGothic-65b0" d="M 3891 2803 
Q 3881 1759 3794 1166 
Q 3653 197 3097 -563 
L 2741 -250 
Q 3450 700 3450 2631 
L 3450 4647 
Q 3516 4656 3622 4666 
Q 4656 4778 5447 5063 
L 5825 4678 
Q 4897 4419 3891 4294 
L 3891 3219 
L 6119 3219 
L 6119 2803 
L 5275 2803 
L 5275 -447 
L 4834 -447 
L 4834 2803 
L 3891 2803 
z
M 2822 4069 
Q 2678 3572 2519 3181 
L 3250 3181 
L 3250 2784 
L 2059 2784 
L 2059 2216 
L 3184 2216 
L 3184 1831 
L 2059 1831 
L 2059 1544 
Q 2613 1197 3031 847 
L 2781 456 
Q 2472 791 2059 1128 
L 2059 -447 
L 1644 -447 
L 1644 1294 
Q 1272 628 575 -31 
L 269 341 
Q 1041 938 1528 1831 
L 453 1831 
L 453 2216 
L 1644 2216 
L 1644 2784 
L 319 2784 
L 319 3181 
L 1125 3181 
Q 1013 3706 881 4069 
L 453 4069 
L 453 4453 
L 1631 4453 
L 1631 5309 
L 2072 5309 
L 2072 4453 
L 3166 4453 
L 3166 4069 
L 2822 4069 
z
M 2391 4069 
L 1325 4069 
Q 1450 3672 1534 3181 
L 2109 3181 
Q 2294 3659 2391 4069 
z
" transform="scale(0.015625)"/>
     <path id="IPAexGothic-65e5" d="M 5231 4800 
L 5231 -288 
L 4744 -288 
L 4744 128 
L 1647 128 
L 1647 -288 
L 1159 -288 
L 1159 4800 
L 5231 4800 
z
M 1647 4372 
L 1647 2731 
L 4744 2731 
L 4744 4372 
L 1647 4372 
z
M 1647 2297 
L 1647 556 
L 4744 556 
L 4744 2297 
L 1647 2297 
z
" transform="scale(0.015625)"/>
     <path id="IPAexGothic-6642" d="M 2328 4728 
L 2328 563 
L 934 563 
L 934 56 
L 519 56 
L 519 4728 
L 2328 4728 
z
M 934 4331 
L 934 2881 
L 1906 2881 
L 1906 4331 
L 934 4331 
z
M 934 2497 
L 934 953 
L 1906 953 
L 1906 2497 
L 934 2497 
z
M 3938 4372 
L 3938 5313 
L 4378 5313 
L 4378 4372 
L 5772 4372 
L 5772 3981 
L 4378 3981 
L 4378 3194 
L 6072 3194 
L 6072 2803 
L 5203 2803 
L 5203 2047 
L 5959 2047 
L 5959 1650 
L 5216 1650 
L 5216 31 
Q 5216 -447 4691 -447 
Q 4394 -447 3888 -391 
L 3784 78 
Q 4272 0 4591 0 
Q 4775 0 4775 172 
L 4775 1650 
L 2581 1650 
L 2581 2047 
L 4763 2047 
L 4763 2803 
L 2538 2803 
L 2538 3194 
L 3938 3194 
L 3938 3981 
L 2716 3981 
L 2716 4372 
L 3938 4372 
z
M 3669 384 
Q 3331 950 2956 1325 
L 3291 1575 
Q 3719 1147 4025 659 
L 3669 384 
z
" transform="scale(0.015625)"/>
     <path id="IPAexGothic-3a" d="M 1369 2559 
L 672 2559 
L 672 3250 
L 1369 3250 
L 1369 2559 
z
M 1369 63 
L 672 63 
L 672 753 
L 1369 753 
L 1369 63 
z
" transform="scale(0.015625)"/>
     <path id="IPAexGothic-20" transform="scale(0.015625)"/>
     <path id="IPAexGothic-2f" d="M 2719 4709 
L 600 -884 
L 300 -763 
L 2413 4831 
L 2719 4709 
z
" transform="scale(0.015625)"/>
     <path id="IPAexGothic-38" d="M 2541 2425 
Q 3700 2031 3700 1197 
Q 3700 541 3100 197 
Q 2663 -56 2016 -56 
Q 1366 -56 928 197 
Q 347 531 347 1178 
Q 347 1988 1409 2381 
L 1409 2400 
Q 481 2734 481 3509 
Q 481 4100 981 4456 
Q 1406 4756 2019 4756 
Q 2703 4756 3131 4403 
Q 3553 4069 3553 3566 
Q 3553 2706 2541 2444 
L 2541 2425 
z
M 2022 2625 
Q 2997 2856 2997 3528 
Q 2997 3916 2675 4150 
Q 2413 4347 2016 4347 
Q 1606 4347 1331 4128 
Q 1050 3897 1050 3522 
Q 1050 3150 1350 2925 
Q 1494 2809 1722 2722 
Q 1984 2616 2022 2625 
z
M 1978 2209 
Q 922 1931 922 1216 
Q 922 775 1313 556 
Q 1606 391 2009 391 
Q 2575 391 2881 697 
Q 3106 922 3106 1250 
Q 3106 1594 2794 1850 
Q 2609 1994 2350 2100 
Q 2047 2222 1978 2209 
z
" transform="scale(0.015625)"/>
     <path id="IPAexGothic-28" d="M 1928 -1016 
L 1653 -1166 
Q 488 69 488 1875 
Q 488 3678 1653 4909 
L 1928 4763 
Q 1006 3522 1006 1881 
Q 1006 203 1928 -1016 
z
" transform="scale(0.015625)"/>
     <path id="IPAexGothic-54" d="M 3866 4141 
L 2175 4141 
L 2175 63 
L 1606 63 
L 1606 4141 
L -31 4141 
L -31 4634 
L 3866 4634 
L 3866 4141 
z
" transform="scale(0.015625)"/>
     <path id="IPAexGothic-29" d="M 466 4909 
Q 1638 3672 1638 1875 
Q 1638 75 466 -1166 
L 191 -1016 
Q 1119 216 1119 1881 
Q 1119 3509 191 4763 
L 466 4909 
z
" transform="scale(0.015625)"/>
    </defs>
    <use xlink:href="#IPAexGothic-66f4"/>
    <use xlink:href="#IPAexGothic-65b0" x="100"/>
    <use xlink:href="#IPAexGothic-65e5" x="200"/>
    <use xlink:href="#IPAexGothic-6642" x="300"/>
    <use xlink:href="#IPAexGothic-3a" x="400"/>
    <use xlink:href="#IPAexGothic-20" x="431.982422"/>
    <use xlink:href="#IPAexGothic-32" x="458.984375"/>
    <use xlink:href="#IPAexGothic-30" x="521.972656"/>
    <use xlink:href="#IPAexGothic-32" x="584.960938"/>
    <use xlink:href="#IPAexGothic-33" x="647.949219"/>
    <use xlink:href="#IPAexGothic-2f" x="710.9375"/>
    <use xlink:href="#IPAexGothic-30" x="760.9375"/>
    <use xlink:href="#IPAexGothic-32" x="823.925781"/>
    <use xlink:href="#IPAexGothic-2f" x="886.914062"/>
    <use xlink:href="#IPAexGothic-32" x="936.914062"/>
    <use xlink:href="#IPAexGothic-38" x="999.902344"/>
    <use xlink:href="#IPAexGothic-20" x="1062.890625"/>
    <use xlink:href="#IPAexGothic-31" x="1089.892578"/>
    <use xlink:href="#IPAexGothic-36" x="1152.880859"/>
    <use xlink:href="#IPAexGothic-3a" x="1215.869141"/>
    <use xlink:href="#IPAexGothic-31" x="1247.851562"/>
    <use xlink:href="#IPAexGothic-35" x="1310.839844"/>
    <use xlink:href="#IPAexGothic-3a" x="1373.828125"/>
    <use xlink:href="#IPAexGothic-32" x="1405.810547"/>
    <use xlink:href="#IPAexGothic-36" x="1468.798828"/>
    <use xlink:href="#IPAexGothic-28" x="1531.787109"/>
    <use xlink:href="#IPAexGothic-4a" x="1565.087891"/>
    <use xlink:href="#IPAexGothic-53" x="1603.076172"/>
    <use xlink:href="#IPAexGothic-54" x="1661.572266"/>
    <use xlink:href="#IPAexGothic-29" x="1721.484375"/>
   </g>
  </g>
 </g>
 <defs>
  <clipPath id="p62a437df09">
   <rect x="29.439063" y="18.879437" width="357.12" height="266.112"/>
  </clipPath>
 </defs>
</svg>
