<?xml version="1.0" encoding="utf-8" standalone="no"?>
<!DOCTYPE svg PUBLIC "-//W3C//DTD SVG 1.1//EN"
  "http://www.w3.org/Graphics/SVG/1.1/DTD/svg11.dtd">
<svg xmlns:xlink="http://www.w3.org/1999/xlink" width="397.259063pt" height="308.582062pt" viewBox="0 0 397.259063 308.582062" xmlns="http://www.w3.org/2000/svg" version="1.1">
 <metadata>
  <rdf:RDF xmlns:dc="http://purl.org/dc/elements/1.1/" xmlns:cc="http://creativecommons.org/ns#" xmlns:rdf="http://www.w3.org/1999/02/22-rdf-syntax-ns#">
   <cc:Work>
    <dc:type rdf:resource="http://purl.org/dc/dcmitype/StillImage"/>
    <dc:date>2023-02-05T07:13:37.164028</dc:date>
    <dc:format>image/svg+xml</dc:format>
    <dc:creator>
     <cc:Agent>
      <dc:title>Matplotlib v3.6.3, https://matplotlib.org/</dc:title>
     </cc:Agent>
    </dc:creator>
   </cc:Work>
  </rdf:RDF>
 </metadata>
 <defs>
  <style type="text/css">*{stroke-linejoin: round; stroke-linecap: butt}</style>
 </defs>
 <g id="figure_1">
  <g id="patch_1">
   <path d="M 0 308.582062 
L 397.259063 308.582062 
L 397.259063 0 
L 0 0 
z
" style="fill: #ffffff"/>
  </g>
  <g id="axes_1">
   <g id="patch_2">
    <path d="M 29.439063 284.991437 
L 386.559062 284.991437 
L 386.559062 18.879437 
L 29.439063 18.879437 
z
" style="fill: #ffffff"/>
   </g>
   <g id="line2d_1">
    <path d="M 29.439063 211.199039 
L 386.559062 211.199039 
" clip-path="url(#pa4eedad689)" style="fill: none; stroke: #000000; stroke-linecap: square"/>
   </g>
   <g id="matplotlib.axis_1">
    <g id="xtick_1">
     <g id="line2d_2">
      <defs>
       <path id="m7cdeed6900" d="M 0 0 
L 0 3.5 
" style="stroke: #000000; stroke-width: 0.8"/>
      </defs>
      <g>
       <use xlink:href="#m7cdeed6900" x="29.439062" y="284.991437" style="stroke: #000000; stroke-width: 0.8"/>
      </g>
     </g>
     <g id="text_1">
      <!-- Jun -->
      <g transform="translate(21.499219 299.482062) scale(0.1 -0.1)">
       <defs>
        <path id="IPAexGothic-4a" d="M 1819 4634 
L 1819 1234 
Q 1819 -31 763 -31 
Q 303 -31 -125 209 
L 84 644 
Q 378 447 694 447 
Q 1250 447 1250 1203 
L 1250 4634 
L 1819 4634 
z
" transform="scale(0.015625)"/>
        <path id="IPAexGothic-75" d="M 3284 63 
L 2772 63 
L 2772 644 
Q 2300 0 1625 0 
Q 1072 0 763 375 
Q 519 678 519 1241 
L 519 3250 
L 1069 3250 
L 1069 1259 
Q 1069 466 1734 466 
Q 2406 466 2734 1291 
L 2734 3250 
L 3284 3250 
L 3284 63 
z
" transform="scale(0.015625)"/>
        <path id="IPAexGothic-6e" d="M 3328 63 
L 2778 63 
L 2778 2041 
Q 2778 2853 2106 2853 
Q 1428 2853 1113 2041 
L 1113 63 
L 563 63 
L 563 3250 
L 1075 3250 
L 1075 2675 
Q 1525 3316 2222 3316 
Q 3328 3316 3328 2072 
L 3328 63 
z
" transform="scale(0.015625)"/>
       </defs>
       <use xlink:href="#IPAexGothic-4a"/>
       <use xlink:href="#IPAexGothic-75" x="37.988281"/>
       <use xlink:href="#IPAexGothic-6e" x="98.388672"/>
      </g>
     </g>
    </g>
    <g id="xtick_2">
     <g id="line2d_3">
      <g>
       <use xlink:href="#m7cdeed6900" x="72.293462" y="284.991437" style="stroke: #000000; stroke-width: 0.8"/>
      </g>
     </g>
     <g id="text_2">
      <!-- Jul -->
      <g transform="translate(66.023931 299.482062) scale(0.1 -0.1)">
       <defs>
        <path id="IPAexGothic-6c" d="M 1131 63 
L 581 63 
L 581 4794 
L 1131 4794 
L 1131 63 
z
" transform="scale(0.015625)"/>
       </defs>
       <use xlink:href="#IPAexGothic-4a"/>
       <use xlink:href="#IPAexGothic-75" x="37.988281"/>
       <use xlink:href="#IPAexGothic-6c" x="98.388672"/>
      </g>
     </g>
    </g>
    <g id="xtick_3">
     <g id="line2d_4">
      <g>
       <use xlink:href="#m7cdeed6900" x="116.576342" y="284.991437" style="stroke: #000000; stroke-width: 0.8"/>
      </g>
     </g>
     <g id="text_3">
      <!-- Aug -->
      <g transform="translate(107.594311 299.42425) scale(0.1 -0.1)">
       <defs>
        <path id="IPAexGothic-41" d="M 4056 63 
L 3444 63 
L 2938 1409 
L 1100 1409 
L 603 63 
L -6 63 
L 1806 4666 
L 2259 4666 
L 4056 63 
z
M 2778 1863 
L 2316 3078 
Q 2125 3588 2028 4000 
L 2009 4000 
Q 1897 3563 1716 3078 
L 1263 1863 
L 2778 1863 
z
" transform="scale(0.015625)"/>
        <path id="IPAexGothic-67" d="M 1331 1150 
Q 1006 1122 1006 900 
Q 1006 613 1763 575 
L 2131 556 
Q 3303 497 3303 -294 
Q 3303 -700 2925 -959 
Q 2519 -1253 1794 -1253 
Q 1138 -1253 738 -1028 
Q 353 -809 353 -428 
Q 353 84 1075 247 
L 1075 269 
Q 506 413 506 778 
Q 506 1116 994 1297 
Q 456 1575 456 2181 
Q 456 2650 769 2963 
Q 1128 3322 1738 3322 
Q 2125 3322 2422 3153 
Q 2650 3453 3259 3463 
L 3259 3013 
Q 2838 3003 2703 2938 
Q 3034 2613 3034 2169 
Q 3034 1728 2734 1425 
Q 2400 1094 1813 1094 
Q 1563 1094 1331 1150 
z
M 1734 2919 
Q 1409 2919 1197 2706 
Q 988 2497 988 2181 
Q 988 1872 1184 1684 
Q 1397 1472 1756 1472 
Q 2094 1472 2297 1678 
Q 2503 1881 2503 2203 
Q 2503 2497 2297 2700 
Q 2081 2919 1734 2919 
z
M 1753 159 
Q 903 159 903 -366 
Q 903 -875 1800 -875 
Q 2378 -875 2638 -606 
Q 2772 -481 2772 -313 
Q 2772 159 1753 159 
z
" transform="scale(0.015625)"/>
       </defs>
       <use xlink:href="#IPAexGothic-41"/>
       <use xlink:href="#IPAexGothic-75" x="63.720703"/>
       <use xlink:href="#IPAexGothic-67" x="124.121094"/>
      </g>
     </g>
    </g>
    <g id="xtick_4">
     <g id="line2d_5">
      <g>
       <use xlink:href="#m7cdeed6900" x="160.859222" y="284.991437" style="stroke: #000000; stroke-width: 0.8"/>
      </g>
     </g>
     <g id="text_4">
      <!-- Sep -->
      <g transform="translate(151.984222 299.482062) scale(0.1 -0.1)">
       <defs>
        <path id="IPAexGothic-53" d="M 2919 3641 
Q 2563 4259 1853 4259 
Q 1453 4259 1213 4009 
Q 1028 3803 1028 3534 
Q 1028 3238 1266 3047 
Q 1444 2913 1984 2688 
L 2200 2597 
Q 2925 2306 3191 1953 
Q 3422 1644 3422 1259 
Q 3422 644 2969 288 
Q 2559 -31 1931 -31 
Q 881 -31 313 766 
L 753 1100 
Q 1203 459 1938 459 
Q 2288 459 2534 625 
Q 2841 847 2841 1216 
Q 2841 1503 2616 1728 
Q 2375 1959 1728 2206 
L 1541 2278 
Q 453 2694 453 3481 
Q 453 4006 806 4347 
Q 1203 4725 1863 4725 
Q 2841 4725 3359 3956 
L 2919 3641 
z
" transform="scale(0.015625)"/>
        <path id="IPAexGothic-65" d="M 863 1594 
Q 891 1041 1209 722 
Q 1534 397 1997 397 
Q 2606 397 2963 966 
L 3322 728 
Q 2869 -31 1931 -31 
Q 1222 -31 766 422 
Q 306 884 306 1641 
Q 306 2444 788 2925 
Q 1216 3353 1856 3353 
Q 2459 3353 2866 2956 
Q 3322 2494 3322 1722 
L 3322 1594 
L 863 1594 
z
M 2756 1997 
Q 2709 2431 2450 2681 
Q 2194 2938 1844 2938 
Q 1438 2938 1150 2591 
Q 953 2356 894 1997 
L 2756 1997 
z
" transform="scale(0.015625)"/>
        <path id="IPAexGothic-70" d="M 1075 2688 
Q 1525 3341 2206 3341 
Q 2769 3341 3172 2938 
Q 3641 2469 3641 1644 
Q 3641 841 3178 372 
Q 2775 -31 2200 -31 
Q 1569 -31 1106 497 
L 1106 -1216 
L 563 -1216 
L 563 3250 
L 1075 3250 
L 1075 2688 
z
M 1106 1950 
L 1106 1291 
Q 1106 897 1516 600 
Q 1791 403 2106 403 
Q 2469 403 2725 659 
Q 3066 997 3066 1631 
Q 3066 2200 2784 2559 
Q 2503 2900 2100 2900 
Q 1656 2900 1338 2484 
Q 1106 2184 1106 1950 
z
" transform="scale(0.015625)"/>
       </defs>
       <use xlink:href="#IPAexGothic-53"/>
       <use xlink:href="#IPAexGothic-65" x="58.496094"/>
       <use xlink:href="#IPAexGothic-70" x="115.380859"/>
      </g>
     </g>
    </g>
    <g id="xtick_5">
     <g id="line2d_6">
      <g>
       <use xlink:href="#m7cdeed6900" x="203.713622" y="284.991437" style="stroke: #000000; stroke-width: 0.8"/>
      </g>
     </g>
     <g id="text_5">
      <!-- Oct -->
      <g transform="translate(195.278466 299.482062) scale(0.1 -0.1)">
       <defs>
        <path id="IPAexGothic-4f" d="M 2541 4725 
Q 3456 4725 4044 4138 
Q 4709 3472 4709 2331 
Q 4709 1219 4031 550 
Q 3450 -31 2541 -31 
Q 1638 -31 1056 550 
Q 378 1219 378 2356 
Q 378 3469 1044 4138 
Q 1631 4725 2541 4725 
z
M 2541 4266 
Q 1953 4266 1531 3844 
Q 994 3303 994 2350 
Q 994 1391 1531 863 
Q 1947 447 2541 447 
Q 3131 447 3556 863 
Q 4094 1400 4094 2375 
Q 4094 3297 3550 3844 
Q 3138 4266 2541 4266 
z
" transform="scale(0.015625)"/>
        <path id="IPAexGothic-63" d="M 3269 784 
Q 2834 -31 1900 -31 
Q 1228 -31 788 409 
Q 313 891 313 1663 
Q 313 2428 788 2913 
Q 1222 3347 1881 3347 
Q 2813 3347 3206 2541 
L 2763 2309 
Q 2484 2900 1900 2900 
Q 1516 2900 1234 2619 
Q 881 2266 881 1650 
Q 881 1069 1222 728 
Q 1522 428 1956 428 
Q 2547 428 2847 1016 
L 3269 784 
z
" transform="scale(0.015625)"/>
        <path id="IPAexGothic-74" d="M 2125 241 
Q 1769 -6 1397 -6 
Q 653 -6 653 831 
L 653 2859 
L 219 2859 
L 219 3250 
L 653 3250 
L 653 3966 
L 1178 4228 
L 1178 3250 
L 2063 3250 
L 2063 2859 
L 1178 2859 
L 1178 906 
Q 1178 416 1513 416 
Q 1738 416 1941 588 
L 2125 241 
z
" transform="scale(0.015625)"/>
       </defs>
       <use xlink:href="#IPAexGothic-4f"/>
       <use xlink:href="#IPAexGothic-63" x="79.6875"/>
       <use xlink:href="#IPAexGothic-74" x="134.082031"/>
      </g>
     </g>
    </g>
    <g id="xtick_6">
     <g id="line2d_7">
      <g>
       <use xlink:href="#m7cdeed6900" x="247.996502" y="284.991437" style="stroke: #000000; stroke-width: 0.8"/>
      </g>
     </g>
     <g id="text_6">
      <!-- Nov -->
      <g transform="translate(238.748065 299.482062) scale(0.1 -0.1)">
       <defs>
        <path id="IPAexGothic-4e" d="M 4244 63 
L 3731 63 
L 1697 3150 
Q 1466 3500 1141 4097 
L 1116 4097 
L 1128 3797 
Q 1159 2803 1159 2469 
L 1159 63 
L 609 63 
L 609 4634 
L 1366 4634 
L 3113 1978 
Q 3453 1447 3713 966 
L 3738 966 
Q 3694 1897 3694 2469 
L 3694 4634 
L 4244 4634 
L 4244 63 
z
" transform="scale(0.015625)"/>
        <path id="IPAexGothic-6f" d="M 1919 3341 
Q 2594 3341 3056 2888 
Q 3531 2413 3531 1638 
Q 3531 888 3066 422 
Q 2609 -31 1919 -31 
Q 1228 -31 781 416 
Q 313 881 313 1656 
Q 313 2413 788 2888 
Q 1241 3341 1919 3341 
z
M 1919 2919 
Q 1519 2919 1241 2631 
Q 888 2278 888 1650 
Q 888 1031 1234 684 
Q 1516 403 1919 403 
Q 2331 403 2609 691 
Q 2956 1038 2956 1672 
Q 2956 2269 2603 2631 
Q 2316 2919 1919 2919 
z
" transform="scale(0.015625)"/>
        <path id="IPAexGothic-76" d="M 3103 3250 
L 1747 6 
L 1375 6 
L 25 3250 
L 628 3250 
L 1338 1388 
L 1522 844 
L 1569 703 
L 1588 703 
Q 1641 884 1822 1388 
L 2516 3250 
L 3103 3250 
z
" transform="scale(0.015625)"/>
       </defs>
       <use xlink:href="#IPAexGothic-4e"/>
       <use xlink:href="#IPAexGothic-6f" x="75.976562"/>
       <use xlink:href="#IPAexGothic-76" x="136.376953"/>
      </g>
     </g>
    </g>
    <g id="xtick_7">
     <g id="line2d_8">
      <g>
       <use xlink:href="#m7cdeed6900" x="290.850902" y="284.991437" style="stroke: #000000; stroke-width: 0.8"/>
      </g>
     </g>
     <g id="text_7">
      <!-- Dec -->
      <g transform="translate(281.502465 299.482062) scale(0.1 -0.1)">
       <defs>
        <path id="IPAexGothic-44" d="M 609 4634 
L 1984 4634 
Q 3159 4634 3791 4050 
Q 4456 3444 4456 2356 
Q 4456 1047 3516 441 
Q 2925 63 1941 63 
L 609 63 
L 609 4634 
z
M 1172 556 
L 1894 556 
Q 3853 556 3853 2356 
Q 3853 4147 1928 4147 
L 1172 4147 
L 1172 556 
z
" transform="scale(0.015625)"/>
       </defs>
       <use xlink:href="#IPAexGothic-44"/>
       <use xlink:href="#IPAexGothic-65" x="75.683594"/>
       <use xlink:href="#IPAexGothic-63" x="132.568359"/>
      </g>
     </g>
    </g>
    <g id="xtick_8">
     <g id="line2d_9">
      <g>
       <use xlink:href="#m7cdeed6900" x="335.133782" y="284.991437" style="stroke: #000000; stroke-width: 0.8"/>
      </g>
     </g>
     <g id="text_8">
      <!-- 2023 -->
      <g transform="translate(322.536907 299.482062) scale(0.1 -0.1)">
       <defs>
        <path id="IPAexGothic-32" d="M 3659 63 
L 447 63 
L 447 594 
Q 825 1475 1894 2203 
L 2072 2322 
Q 2619 2697 2791 2906 
Q 2988 3153 2988 3444 
Q 2988 3772 2756 4003 
Q 2500 4259 2084 4259 
Q 1250 4259 991 3328 
L 497 3506 
Q 853 4725 2116 4725 
Q 2806 4725 3216 4316 
Q 3575 3947 3575 3425 
Q 3575 3038 3344 2722 
Q 3131 2416 2366 1938 
L 2231 1856 
Q 1256 1253 978 569 
L 3659 569 
L 3659 63 
z
" transform="scale(0.015625)"/>
        <path id="IPAexGothic-30" d="M 2038 4725 
Q 2881 4725 3334 3944 
Q 3694 3325 3694 2344 
Q 3694 1372 3334 741 
Q 2888 -31 2016 -31 
Q 1147 -31 700 741 
Q 341 1372 341 2350 
Q 341 3713 1000 4334 
Q 1419 4725 2038 4725 
z
M 2016 4266 
Q 1516 4266 1228 3759 
Q 934 3247 934 2344 
Q 934 1456 1222 947 
Q 1513 447 2016 447 
Q 2619 447 2909 1153 
Q 3100 1622 3100 2375 
Q 3100 3256 2806 3759 
Q 2509 4266 2016 4266 
z
" transform="scale(0.015625)"/>
        <path id="IPAexGothic-33" d="M 2381 2419 
Q 3506 2216 3506 1278 
Q 3506 716 3128 356 
Q 2709 -31 1944 -31 
Q 797 -31 288 881 
L 756 1131 
Q 1109 441 1938 441 
Q 2425 441 2694 691 
Q 2950 928 2950 1291 
Q 2950 1719 2566 1978 
Q 2216 2213 1644 2213 
L 1363 2213 
L 1363 2669 
L 1656 2669 
Q 2231 2669 2534 2888 
Q 2859 3119 2859 3509 
Q 2859 3934 2494 4138 
Q 2259 4278 1931 4278 
Q 1238 4278 903 3578 
L 434 3803 
Q 897 4725 1938 4725 
Q 2597 4725 3006 4394 
Q 3416 4069 3416 3534 
Q 3416 3028 3019 2706 
Q 2763 2500 2381 2444 
L 2381 2419 
z
" transform="scale(0.015625)"/>
       </defs>
       <use xlink:href="#IPAexGothic-32"/>
       <use xlink:href="#IPAexGothic-30" x="62.988281"/>
       <use xlink:href="#IPAexGothic-32" x="125.976562"/>
       <use xlink:href="#IPAexGothic-33" x="188.964844"/>
      </g>
     </g>
    </g>
    <g id="xtick_9">
     <g id="line2d_10">
      <g>
       <use xlink:href="#m7cdeed6900" x="379.416662" y="284.991437" style="stroke: #000000; stroke-width: 0.8"/>
      </g>
     </g>
     <g id="text_9">
      <!-- Feb -->
      <g transform="translate(370.593225 299.482062) scale(0.1 -0.1)">
       <defs>
        <path id="IPAexGothic-46" d="M 3469 4141 
L 1172 4141 
L 1172 2656 
L 3206 2656 
L 3206 2188 
L 1172 2188 
L 1172 63 
L 609 63 
L 609 4634 
L 3469 4634 
L 3469 4141 
z
" transform="scale(0.015625)"/>
        <path id="IPAexGothic-62" d="M 1125 2731 
Q 1550 3341 2219 3341 
Q 2788 3341 3191 2938 
Q 3659 2469 3659 1644 
Q 3659 838 3191 372 
Q 2788 -31 2206 -31 
Q 1559 -31 1088 516 
L 1009 44 
L 581 44 
L 581 4794 
L 1125 4794 
L 1125 2731 
z
M 1125 1997 
L 1125 1253 
Q 1125 888 1528 600 
Q 1803 403 2119 403 
Q 2488 403 2744 659 
Q 3084 1009 3084 1631 
Q 3084 2194 2803 2553 
Q 2525 2900 2125 2900 
Q 1759 2900 1438 2578 
Q 1125 2266 1125 1997 
z
" transform="scale(0.015625)"/>
       </defs>
       <use xlink:href="#IPAexGothic-46"/>
       <use xlink:href="#IPAexGothic-65" x="57.177734"/>
       <use xlink:href="#IPAexGothic-62" x="114.0625"/>
      </g>
     </g>
    </g>
   </g>
   <g id="matplotlib.axis_2">
    <g id="ytick_1">
     <g id="line2d_11">
      <defs>
       <path id="mfcc55f2c97" d="M 0 0 
L -3.5 0 
" style="stroke: #000000; stroke-width: 0.8"/>
      </defs>
      <g>
       <use xlink:href="#mfcc55f2c97" x="29.439063" y="269.014637" style="stroke: #000000; stroke-width: 0.8"/>
      </g>
     </g>
     <g id="text_10">
      <!-- 0.5 -->
      <g transform="translate(7.2 272.759949) scale(0.1 -0.1)">
       <defs>
        <path id="IPAexGothic-2e" d="M 1184 63 
L 494 63 
L 494 753 
L 1184 753 
L 1184 63 
z
" transform="scale(0.015625)"/>
        <path id="IPAexGothic-35" d="M 1178 2603 
Q 1634 2963 2172 2963 
Q 2816 2963 3241 2528 
Q 3638 2113 3638 1497 
Q 3638 938 3297 513 
Q 2869 -31 2031 -31 
Q 959 -31 469 784 
L 938 1028 
Q 1309 434 2013 434 
Q 2466 434 2769 716 
Q 3081 1013 3081 1503 
Q 3081 1966 2806 2241 
Q 2519 2528 2056 2528 
Q 1406 2528 1072 2028 
L 591 2091 
L 884 4634 
L 3406 4634 
L 3406 4153 
L 1341 4153 
L 1134 2603 
L 1178 2603 
z
" transform="scale(0.015625)"/>
       </defs>
       <use xlink:href="#IPAexGothic-30"/>
       <use xlink:href="#IPAexGothic-2e" x="62.988281"/>
       <use xlink:href="#IPAexGothic-35" x="89.404297"/>
      </g>
     </g>
    </g>
    <g id="ytick_2">
     <g id="line2d_12">
      <g>
       <use xlink:href="#mfcc55f2c97" x="29.439063" y="211.199039" style="stroke: #000000; stroke-width: 0.8"/>
      </g>
     </g>
     <g id="text_11">
      <!-- 1.0 -->
      <g transform="translate(7.2 214.944352) scale(0.1 -0.1)">
       <defs>
        <path id="IPAexGothic-31" d="M 2463 63 
L 1900 63 
L 1900 4103 
Q 1372 3922 788 3797 
L 684 4231 
Q 1519 4441 2106 4731 
L 2463 4731 
L 2463 63 
z
" transform="scale(0.015625)"/>
       </defs>
       <use xlink:href="#IPAexGothic-31"/>
       <use xlink:href="#IPAexGothic-2e" x="62.988281"/>
       <use xlink:href="#IPAexGothic-30" x="89.404297"/>
      </g>
     </g>
    </g>
    <g id="ytick_3">
     <g id="line2d_13">
      <g>
       <use xlink:href="#mfcc55f2c97" x="29.439063" y="153.383442" style="stroke: #000000; stroke-width: 0.8"/>
      </g>
     </g>
     <g id="text_12">
      <!-- 1.5 -->
      <g transform="translate(7.2 157.128754) scale(0.1 -0.1)">
       <use xlink:href="#IPAexGothic-31"/>
       <use xlink:href="#IPAexGothic-2e" x="62.988281"/>
       <use xlink:href="#IPAexGothic-35" x="89.404297"/>
      </g>
     </g>
    </g>
    <g id="ytick_4">
     <g id="line2d_14">
      <g>
       <use xlink:href="#mfcc55f2c97" x="29.439063" y="95.567844" style="stroke: #000000; stroke-width: 0.8"/>
      </g>
     </g>
     <g id="text_13">
      <!-- 2.0 -->
      <g transform="translate(7.2 99.313157) scale(0.1 -0.1)">
       <use xlink:href="#IPAexGothic-32"/>
       <use xlink:href="#IPAexGothic-2e" x="62.988281"/>
       <use xlink:href="#IPAexGothic-30" x="89.404297"/>
      </g>
     </g>
    </g>
    <g id="ytick_5">
     <g id="line2d_15">
      <g>
       <use xlink:href="#mfcc55f2c97" x="29.439063" y="37.752247" style="stroke: #000000; stroke-width: 0.8"/>
      </g>
     </g>
     <g id="text_14">
      <!-- 2.5 -->
      <g transform="translate(7.2 41.497559) scale(0.1 -0.1)">
       <use xlink:href="#IPAexGothic-32"/>
       <use xlink:href="#IPAexGothic-2e" x="62.988281"/>
       <use xlink:href="#IPAexGothic-35" x="89.404297"/>
      </g>
     </g>
    </g>
   </g>
   <g id="line2d_16">
    <path d="M 29.439062 227.411867 
L 30.867542 255.471758 
L 32.296022 269.405805 
L 33.724502 242.945807 
L 35.152982 262.441258 
L 38.009942 251.639145 
L 39.438422 227.514621 
L 40.866902 229.940841 
L 42.295382 194.078383 
L 43.723862 246.403784 
L 45.152342 250.411663 
L 46.580822 205.84664 
L 48.009302 249.191321 
L 49.437782 272.895437 
L 50.866262 243.090535 
L 52.294742 247.559579 
L 53.723222 238.429093 
L 55.151702 112.810292 
L 56.580182 184.323192 
L 58.008662 181.498781 
L 59.437142 30.975437 
L 62.294102 168.571026 
L 63.722582 110.868109 
L 65.151062 213.126183 
L 66.579542 156.293505 
L 68.008022 124.518024 
L 69.436502 151.875457 
L 70.864982 236.751655 
L 72.293462 106.655378 
L 73.721942 51.387485 
L 75.150422 102.788184 
L 76.578902 95.926279 
L 78.007382 36.542983 
L 79.435862 79.37836 
L 80.864342 35.439549 
L 82.292822 110.396771 
L 83.721302 116.980214 
L 85.149782 109.726148 
L 86.578262 177.160719 
L 88.006742 110.814502 
L 89.435222 153.702013 
L 90.863702 148.460822 
L 92.292182 164.812112 
L 93.720662 190.526245 
L 95.149142 181.526351 
L 96.577622 197.096587 
L 98.006102 219.976945 
L 99.434582 163.710275 
L 100.863062 173.022011 
L 102.291542 196.817697 
L 103.720022 179.527296 
L 105.148502 191.661352 
L 106.576982 192.887858 
L 108.005462 173.15897 
L 109.433942 188.50237 
L 110.862422 201.809366 
L 112.290902 195.197746 
L 113.719382 183.412435 
L 115.147862 192.046725 
L 116.576342 204.737627 
L 118.004822 199.025674 
L 119.433302 189.016626 
L 120.861782 185.809755 
L 122.290262 182.941981 
L 123.718742 200.02008 
L 125.147222 192.032303 
L 126.575702 181.775482 
L 128.004182 186.871327 
L 129.432662 193.9839 
L 130.861142 204.601463 
L 132.289622 225.669065 
L 133.718102 207.989558 
L 135.146582 218.057369 
L 136.575062 204.232725 
L 138.003542 217.282458 
L 139.432022 202.720535 
L 140.860502 195.141529 
L 142.288982 153.461242 
L 143.717462 171.531238 
L 145.145942 185.828914 
L 146.574422 204.950127 
L 148.002902 187.736367 
L 149.431382 211.671324 
L 150.859862 216.92144 
L 152.288342 231.587854 
L 153.716822 248.509599 
L 155.145302 240.826108 
L 156.573782 241.29957 
L 158.002262 247.072575 
L 159.430742 251.367839 
L 160.859222 251.669425 
L 162.287702 251.785215 
L 163.716182 242.900107 
L 165.144662 251.663262 
L 166.573142 241.186243 
L 168.001622 228.929625 
L 169.430102 240.670472 
L 170.858582 239.689961 
L 172.287062 228.587222 
L 173.715542 234.114512 
L 175.144022 220.053728 
L 176.572502 221.634093 
L 178.000982 247.789493 
L 179.429462 250.578039 
L 180.857942 230.847867 
L 182.286422 240.571341 
L 183.714902 229.667605 
L 185.143382 228.965012 
L 186.571862 226.507 
L 188.000342 266.267581 
L 189.428822 173.994674 
L 190.857302 228.352097 
L 192.285782 212.968149 
L 193.714262 243.863512 
L 195.142742 195.951487 
L 196.571222 187.500784 
L 197.999702 195.32975 
L 199.428182 238.855842 
L 200.856662 224.563828 
L 202.285142 239.674853 
L 203.713622 205.067187 
L 205.142102 219.657973 
L 206.570582 258.893645 
L 207.999062 189.095647 
L 209.427542 231.988543 
L 210.856022 230.452082 
L 212.284502 208.848889 
L 213.712982 214.413367 
L 215.141462 237.774657 
L 216.569942 208.216448 
L 217.998422 269.328924 
L 219.426902 186.857034 
L 220.855382 168.652783 
L 222.283862 211.199039 
L 223.712342 197.903063 
L 225.140822 190.42842 
L 226.569302 209.746404 
L 227.997782 135.123595 
L 229.426262 212.926136 
L 230.854742 239.34414 
L 232.283222 184.631705 
L 233.711702 193.892671 
L 235.140182 220.351516 
L 236.568662 197.002011 
L 237.997142 191.634272 
L 239.425622 213.253557 
L 240.854102 183.049443 
L 242.282582 199.198481 
L 243.711062 190.346771 
L 245.139542 160.309806 
L 246.568022 189.784075 
L 247.996502 198.104074 
L 249.424982 152.110827 
L 250.853462 152.9204 
L 252.281942 232.748365 
L 253.710422 165.024121 
L 255.138902 194.085734 
L 256.567382 199.838398 
L 257.995862 173.564927 
L 259.424342 209.205445 
L 260.852822 206.690562 
L 262.281302 156.249641 
L 263.709782 220.402577 
L 265.138262 215.284532 
L 266.566742 225.924092 
L 267.995222 188.099011 
L 269.423702 185.511636 
L 270.852182 211.199039 
L 272.280662 194.160213 
L 273.709142 184.55213 
L 275.137622 182.799057 
L 277.994582 203.930102 
L 279.423062 168.757197 
L 280.851542 220.491359 
L 282.280022 171.577359 
L 285.136982 192.11637 
L 286.565462 204.402838 
L 287.993942 198.987955 
L 289.422422 181.777237 
L 290.850902 142.696764 
L 292.279382 213.580923 
L 293.707862 220.529523 
L 295.136342 204.080643 
L 296.564822 205.292279 
L 297.993302 181.962456 
L 299.421782 194.793532 
L 300.850262 197.432704 
L 302.278742 173.295964 
L 303.707222 175.045451 
L 305.135702 167.16196 
L 306.564182 187.120934 
L 307.992662 183.834422 
L 309.421142 173.778001 
L 310.849622 181.23856 
L 312.278102 201.020413 
L 313.706582 187.828789 
L 315.135062 213.66936 
L 316.563542 207.768569 
L 317.992022 207.295129 
L 319.420502 192.832229 
L 320.848982 206.958159 
L 322.277462 188.728128 
L 323.705942 193.851266 
L 325.134422 207.103197 
L 326.562902 215.224404 
L 327.991382 196.113595 
L 329.419862 220.91992 
L 330.848342 200.04709 
L 332.276822 223.444191 
L 333.705302 251.024981 
L 335.133782 228.180558 
L 336.562262 208.755181 
L 337.990742 251.311193 
L 339.419222 254.432046 
L 340.847702 215.74342 
L 342.276182 126.299141 
L 343.704662 90.185267 
L 345.133142 169.01121 
L 346.561622 202.233317 
L 347.990102 208.810336 
L 349.418582 167.736099 
L 350.847062 215.685286 
L 352.275542 255.304956 
L 353.704022 257.151057 
L 355.132502 241.910597 
L 356.560982 230.363911 
L 357.989462 201.639485 
L 359.417942 252.591109 
L 360.846422 261.202922 
L 362.274902 248.191392 
L 363.703382 245.888016 
L 365.131862 248.528538 
L 366.560342 233.937612 
L 367.988822 243.873594 
L 369.417302 245.699396 
L 370.845782 238.379427 
L 372.274262 250.421781 
L 373.702742 242.025158 
L 375.131222 235.679743 
L 376.559702 231.977605 
L 377.988182 268.725993 
L 379.416662 251.010186 
L 380.845142 243.44844 
L 382.273622 231.173865 
L 383.702102 246.470516 
L 385.130582 240.806074 
L 385.130582 240.806074 
" clip-path="url(#pa4eedad689)" style="fill: none; stroke: #1f77b4; stroke-width: 1.5; stroke-linecap: square"/>
   </g>
   <g id="line2d_17">
    <path d="M 29.439062 230.929789 
L 30.867542 242.60231 
L 32.296022 262.8168 
L 33.724502 257.425513 
L 35.152982 253.337157 
L 36.581462 259.836211 
L 38.009942 254.434415 
L 39.438422 240.414674 
L 40.866902 228.735232 
L 42.295382 213.41839 
L 43.723862 223.501825 
L 45.152342 248.433331 
L 46.580822 230.677266 
L 48.009302 229.912564 
L 49.437782 262.11981 
L 50.866262 259.625445 
L 52.294742 245.355694 
L 53.723222 243.118728 
L 55.151702 189.281671 
L 56.580182 152.189606 
L 58.008662 182.917915 
L 59.437142 119.473036 
L 60.865622 68.196709 
L 62.294102 137.669929 
L 63.722582 141.957318 
L 65.151062 170.127431 
L 66.579542 187.579679 
L 68.008022 141.084002 
L 69.436502 138.693349 
L 70.864982 201.292679 
L 72.293462 186.000414 
L 73.721942 80.567026 
L 75.150422 78.413733 
L 76.578902 99.383107 
L 78.007382 67.931655 
L 79.435862 58.815077 
L 80.864342 58.306173 
L 82.292822 75.699401 
L 83.721302 113.713912 
L 85.149782 113.383995 
L 86.578262 146.569691 
L 88.006742 147.022086 
L 89.435222 133.443524 
L 90.863702 151.100956 
L 92.292182 156.832948 
L 93.720662 178.224324 
L 95.149142 186.098223 
L 96.577622 189.532009 
L 98.006102 209.091256 
L 99.434582 194.807872 
L 100.863062 168.434555 
L 102.291542 185.419494 
L 103.720022 188.44227 
L 105.148502 185.724694 
L 106.576982 192.276003 
L 108.005462 183.362139 
L 109.433942 181.032368 
L 110.862422 195.324076 
L 112.290902 198.546144 
L 113.719382 189.431392 
L 115.147862 187.79659 
L 116.576342 198.54902 
L 118.004822 201.914295 
L 119.433302 194.115474 
L 120.861782 187.422411 
L 122.290262 184.383085 
L 123.718742 191.750659 
L 125.147222 196.087179 
L 126.575702 186.997904 
L 128.004182 184.346184 
L 129.432662 190.473981 
L 130.861142 199.403219 
L 132.289622 215.633088 
L 133.718102 217.185071 
L 135.146582 213.134848 
L 136.575062 211.351742 
L 138.003542 210.94113 
L 139.432022 210.228598 
L 140.860502 198.987184 
L 142.288982 175.731796 
L 143.717462 162.744798 
L 146.574422 195.737687 
L 148.002902 196.62741 
L 149.431382 200.268399 
L 150.859862 214.327003 
L 152.288342 224.517111 
L 153.716822 240.462163 
L 155.145302 244.757718 
L 156.573782 241.063165 
L 158.002262 244.236496 
L 159.430742 249.249927 
L 160.859222 251.518783 
L 162.287702 251.727342 
L 163.716182 247.466905 
L 165.144662 247.402446 
L 166.573142 246.595581 
L 168.001622 235.262778 
L 169.430102 234.987471 
L 170.858582 240.181603 
L 172.287062 234.304978 
L 173.715542 231.390872 
L 175.144022 227.332189 
L 176.572502 220.846856 
L 178.000982 235.644814 
L 179.429462 249.196285 
L 180.857942 241.279862 
L 182.286422 235.839395 
L 183.714902 235.281663 
L 185.143382 229.316941 
L 186.571862 227.743627 
L 188.000342 248.882551 
L 189.428822 230.621466 
L 190.857302 204.147875 
L 192.285782 220.93913 
L 193.714262 229.635769 
L 195.142742 222.625721 
L 196.571222 191.792225 
L 197.999702 191.471858 
L 199.428182 219.272458 
L 200.856662 231.97864 
L 202.285142 232.42119 
L 203.713622 223.814193 
L 205.142102 212.595296 
L 206.570582 241.501939 
L 207.999062 230.097519 
L 209.427542 212.536835 
L 210.856022 231.223399 
L 212.284502 220.196168 
L 213.712982 211.66473 
L 215.141462 226.773505 
L 216.569942 224.052711 
L 217.998422 244.24423 
L 219.426902 237.116008 
L 220.855382 178.033043 
L 223.712342 204.731901 
L 225.140822 194.218394 
L 226.569302 200.456001 
L 227.997782 177.011185 
L 229.426262 179.059561 
L 230.854742 227.005264 
L 232.283222 215.29372 
L 233.711702 189.34014 
L 235.140182 207.855357 
L 236.568662 209.25497 
L 237.997142 194.345323 
L 239.425622 202.914504 
L 240.854102 199.04078 
L 242.282582 191.364392 
L 243.711062 194.846812 
L 245.139542 176.074523 
L 246.568022 175.764073 
L 247.996502 194.009205 
L 249.424982 176.860376 
L 250.853462 152.516084 
L 252.281942 198.91713 
L 253.710422 203.448625 
L 255.138902 180.273516 
L 256.567382 196.993923 
L 257.995862 187.318791 
L 259.424342 192.562593 
L 260.852822 207.954654 
L 262.281302 183.674736 
L 263.709782 192.091624 
L 265.138262 217.873602 
L 266.566742 220.737602 
L 267.995222 208.513572 
L 269.423702 186.8113 
L 270.852182 198.998945 
L 272.280662 202.972279 
L 273.709142 189.440136 
L 275.137622 183.678277 
L 276.566102 188.335204 
L 277.994582 198.897374 
L 279.423062 187.448754 
L 280.851542 197.179515 
L 282.280022 198.341262 
L 283.708502 176.894581 
L 285.136982 187.16406 
L 286.565462 198.406453 
L 287.993942 201.724689 
L 289.422422 190.654224 
L 290.850902 163.401008 
L 292.279382 182.424595 
L 293.707862 217.110216 
L 295.136342 212.600777 
L 296.564822 204.687964 
L 297.993302 194.139114 
L 299.421782 188.526714 
L 300.850262 196.119779 
L 302.278742 185.880047 
L 303.707222 174.173214 
L 305.135702 171.1536 
L 306.564182 177.474475 
L 307.992662 185.48723 
L 309.421142 178.891638 
L 310.849622 177.554882 
L 312.278102 191.49043 
L 313.706582 194.588989 
L 315.135062 201.412831 
L 316.563542 210.756455 
L 317.992022 207.532084 
L 319.420502 200.270107 
L 320.848982 200.091846 
L 322.277462 198.165608 
L 323.705942 191.313905 
L 325.134422 200.651084 
L 326.562902 211.235099 
L 327.991382 206.046382 
L 329.419862 209.168684 
L 330.848342 210.952529 
L 332.276822 212.341773 
L 333.705302 238.302243 
L 335.133782 240.353858 
L 336.562262 218.904029 
L 337.990742 232.400817 
L 339.419222 252.888083 
L 340.847702 237.150337 
L 342.276182 177.577562 
L 343.704662 108.989297 
L 345.133142 133.576313 
L 346.561622 186.602691 
L 347.990102 205.566408 
L 349.418582 189.803691 
L 350.847062 193.854637 
L 352.275542 237.669294 
L 353.704022 256.234041 
L 355.132502 249.907348 
L 356.560982 236.3212 
L 357.989462 216.936234 
L 359.417942 230.424572 
L 360.846422 257.029702 
L 362.274902 254.991137 
L 363.703382 247.048016 
L 365.131862 247.219224 
L 366.560342 241.544538 
L 367.988822 239.046068 
L 369.417302 244.791574 
L 370.845782 242.11844 
L 372.274262 244.62081 
L 373.702742 246.332876 
L 375.131222 238.909678 
L 376.559702 233.847098 
L 377.988182 252.591834 
L 379.416662 260.456547 
L 380.845142 247.319155 
L 382.273622 237.521782 
L 383.702102 239.155159 
L 385.130582 243.68652 
L 385.130582 243.68652 
" clip-path="url(#pa4eedad689)" style="fill: none; stroke: #ff7f0e; stroke-width: 1.5; stroke-linecap: square"/>
   </g>
   <g id="line2d_18">
    <path d="M 29.439062 229.122786 
L 30.867542 239.928401 
L 32.296022 252.698705 
L 33.724502 256.780278 
L 35.152982 259.139403 
L 36.581462 254.622372 
L 38.009942 257.208287 
L 39.438422 246.388486 
L 40.866902 237.055655 
L 42.295382 218.326475 
L 45.152342 233.387372 
L 46.580822 236.234427 
L 48.009302 237.293425 
L 50.866262 256.313321 
L 52.294742 255.822722 
L 53.723222 243.109331 
L 55.151702 212.36467 
L 58.008662 162.563334 
L 59.437142 143.84129 
L 60.865622 113.406318 
L 62.294102 107.256927 
L 63.722582 129.127564 
L 65.151062 169.610337 
L 66.579542 165.645532 
L 68.008022 169.115602 
L 69.436502 144.753156 
L 70.864982 179.647632 
L 72.293462 175.437505 
L 73.721942 150.710969 
L 75.150422 88.208754 
L 76.578902 84.394062 
L 78.007382 80.114816 
L 79.435862 71.804879 
L 80.864342 51.239386 
L 82.292822 76.931758 
L 83.721302 90.291085 
L 85.149782 112.392863 
L 86.578262 137.201801 
L 88.006742 135.362509 
L 89.435222 149.276885 
L 90.863702 138.58476 
L 92.292182 155.795645 
L 93.720662 168.900399 
L 98.006102 200.539182 
L 99.434582 195.575228 
L 100.863062 187.912342 
L 102.291542 178.52472 
L 103.720022 183.482093 
L 105.148502 189.523726 
L 106.576982 188.153999 
L 108.005462 186.18367 
L 109.433942 185.09643 
L 110.862422 188.315827 
L 112.290902 195.281979 
L 113.719382 193.687884 
L 115.147862 190.308761 
L 116.576342 193.689874 
L 118.004822 198.708102 
L 119.433302 197.755094 
L 120.861782 191.402728 
L 122.290262 185.944654 
L 123.718742 189.7987 
L 125.147222 191.844605 
L 126.575702 191.480812 
L 128.004182 186.955724 
L 129.432662 187.634041 
L 130.861142 195.355837 
L 132.289622 208.84012 
L 135.146582 217.476612 
L 136.575062 210.241718 
L 138.003542 213.36349 
L 139.432022 208.263285 
L 140.860502 205.402114 
L 142.288982 185.324114 
L 143.717462 174.344388 
L 145.145942 170.831497 
L 146.574422 188.120092 
L 148.002902 193.123075 
L 149.431382 201.848623 
L 150.859862 206.082407 
L 152.288342 220.402845 
L 153.716822 233.236603 
L 155.145302 240.583648 
L 156.573782 243.620823 
L 158.002262 243.114997 
L 160.859222 250.064959 
L 162.287702 251.607698 
L 163.716182 248.893225 
L 165.144662 248.891095 
L 166.573142 245.382199 
L 169.430102 237.10204 
L 170.858582 236.582508 
L 172.287062 236.477418 
L 173.715542 234.241533 
L 175.144022 227.752305 
L 176.572502 225.467971 
L 178.000982 230.718701 
L 179.429462 240.92208 
L 180.857942 243.507227 
L 182.286422 241.044337 
L 183.714902 233.826969 
L 185.143382 233.222764 
L 186.571862 228.38915 
L 188.000342 242.740121 
L 189.428822 229.269077 
L 190.857302 229.870881 
L 192.285782 207.161383 
L 193.714262 229.209749 
L 195.142742 219.501156 
L 196.571222 212.031087 
L 197.999702 192.98185 
L 199.428182 209.581314 
L 200.856662 221.065989 
L 202.285142 234.616737 
L 203.713622 224.06468 
L 205.142102 222.447011 
L 206.570582 230.764786 
L 207.999062 226.735849 
L 209.427542 230.732013 
L 210.856022 218.850986 
L 212.284502 224.281475 
L 213.712982 218.302399 
L 215.141462 221.123664 
L 216.569942 220.93512 
L 217.998422 242.141688 
L 219.426902 228.364316 
L 220.855382 218.44859 
L 222.283862 190.029585 
L 223.712342 193.727182 
L 225.140822 200.139008 
L 226.569302 199.610689 
L 227.997782 181.624175 
L 229.426262 190.09163 
L 232.283222 214.510045 
L 233.711702 208.573118 
L 235.140182 200.569432 
L 236.568662 204.342327 
L 237.997142 203.652593 
L 239.425622 200.974213 
L 240.854102 196.618162 
L 242.282582 199.093369 
L 243.711062 191.026031 
L 245.139542 184.214067 
L 246.568022 180.790352 
L 247.996502 183.611312 
L 249.424982 181.298308 
L 250.853462 169.270937 
L 252.281942 184.905831 
L 253.710422 188.492178 
L 255.138902 200.403438 
L 256.567382 187.108997 
L 257.995862 189.611924 
L 259.424342 195.033037 
L 260.852822 197.447481 
L 262.281302 192.747876 
L 263.709782 197.145102 
L 265.138262 200.314175 
L 266.566742 220.626045 
L 269.423702 201.295556 
L 270.852182 195.464272 
L 272.280662 197.405968 
L 273.709142 197.113713 
L 275.137622 187.261183 
L 276.566102 187.08549 
L 277.994582 193.741822 
L 279.423062 189.550213 
L 280.851542 199.469935 
L 282.280022 189.152671 
L 283.708502 193.119185 
L 285.136982 182.150609 
L 286.565462 193.164416 
L 287.993942 198.60058 
L 289.422422 195.400607 
L 290.850902 176.246527 
L 292.279382 182.20913 
L 293.707862 196.443074 
L 295.136342 212.928431 
L 296.564822 210.214796 
L 297.993302 197.539344 
L 299.421782 194.357613 
L 302.278742 188.916137 
L 303.707222 182.357292 
L 305.135702 171.871023 
L 306.564182 176.669151 
L 307.992662 179.625281 
L 309.421142 181.687232 
L 310.849622 179.678119 
L 312.278102 185.826618 
L 313.706582 190.280728 
L 315.135062 201.282161 
L 316.563542 203.568241 
L 317.992022 209.613962 
L 319.420502 202.82065 
L 320.848982 202.539923 
L 322.277462 196.411828 
L 323.705942 196.743275 
L 325.134422 196.795762 
L 326.562902 205.708887 
L 327.991382 206.399686 
L 329.419862 211.222913 
L 330.848342 206.203506 
L 332.276822 215.275699 
L 333.705302 227.04317 
L 335.133782 235.049338 
L 336.562262 230.893623 
L 337.990742 231.014516 
L 339.419222 240.403632 
L 340.847702 242.143466 
L 342.276182 209.55923 
L 343.704662 152.790998 
L 345.133142 131.180415 
L 346.561622 159.879638 
L 347.990102 194.434509 
L 349.418582 194.078898 
L 350.847062 199.039398 
L 352.275542 218.686553 
L 353.704022 244.703586 
L 355.132502 251.750355 
L 356.560982 243.877834 
L 357.989462 225.985777 
L 359.417942 230.404356 
L 362.274902 254.199875 
L 363.703382 252.076606 
L 366.560342 243.017663 
L 367.988822 242.328067 
L 369.417302 241.322359 
L 370.845782 242.707579 
L 372.274262 244.981923 
L 373.702742 243.764543 
L 375.131222 242.927891 
L 376.559702 236.657187 
L 377.988182 247.335431 
L 379.416662 252.068319 
L 380.845142 255.212423 
L 382.273622 242.265414 
L 383.702102 240.610269 
L 385.130582 239.708955 
L 385.130582 239.708955 
" clip-path="url(#pa4eedad689)" style="fill: none; stroke: #2ca02c; stroke-width: 1.5; stroke-linecap: square"/>
   </g>
   <g id="line2d_19">
    <path d="M 29.439062 221.275211 
L 30.867542 236.505406 
L 32.296022 248.478994 
L 33.724502 250.372301 
L 35.152982 258.240554 
L 36.581462 258.641514 
L 38.009942 253.887849 
L 39.438422 250.742613 
L 40.866902 242.558839 
L 42.295382 227.832517 
L 43.723862 226.152528 
L 45.152342 232.537407 
L 46.580822 227.154092 
L 48.009302 239.663468 
L 49.437782 247.949949 
L 50.866262 246.12502 
L 52.294742 254.219959 
L 53.723222 251.824807 
L 55.151702 220.968504 
L 56.580182 205.919399 
L 58.008662 186.135769 
L 59.437142 136.533121 
L 60.865622 133.903952 
L 62.294102 128.780364 
L 63.722582 108.165345 
L 65.151062 154.661857 
L 66.579542 166.381937 
L 68.008022 156.222628 
L 70.864982 174.127491 
L 72.293462 164.056515 
L 73.721942 151.002816 
L 75.150422 139.788926 
L 76.578902 90.161987 
L 78.007382 73.226844 
L 79.435862 79.930908 
L 80.864342 63.162834 
L 82.292822 67.394559 
L 83.721302 87.608872 
L 85.149782 95.307164 
L 86.578262 130.829051 
L 88.006742 130.923693 
L 90.863702 149.07322 
L 92.292182 145.514995 
L 93.720662 165.230701 
L 95.149142 172.15619 
L 96.577622 183.990017 
L 98.006102 198.107108 
L 99.434582 192.195781 
L 100.863062 190.267628 
L 102.291542 190.194295 
L 103.720022 178.776002 
L 105.148502 185.572177 
L 106.576982 190.372599 
L 108.005462 184.54832 
L 109.433942 186.766963 
L 110.862422 189.473261 
L 112.290902 190.069324 
L 113.719382 192.410021 
L 118.004822 195.044354 
L 119.433302 196.351076 
L 120.861782 194.867136 
L 122.290262 189.335364 
L 123.718742 189.603599 
L 125.147222 190.360547 
L 126.575702 189.394825 
L 128.004182 190.342872 
L 129.432662 188.74688 
L 130.861142 192.084855 
L 132.289622 203.69443 
L 133.718102 208.628052 
L 135.146582 214.390906 
L 136.575062 214.306201 
L 138.003542 212.043229 
L 139.432022 210.791529 
L 140.860502 205.110817 
L 142.288982 194.096195 
L 143.717462 181.995215 
L 145.145942 177.300368 
L 146.574422 180.166067 
L 148.002902 188.02426 
L 149.431382 198.022962 
L 152.288342 213.03684 
L 153.716822 228.256977 
L 155.145302 235.194567 
L 156.573782 240.763189 
L 158.002262 244.49752 
L 159.430742 245.259188 
L 162.287702 250.498685 
L 163.716182 249.519384 
L 165.144662 249.59516 
L 166.573142 247.032432 
L 168.001622 241.548346 
L 169.430102 240.987516 
L 172.287062 234.646856 
L 173.715542 235.892398 
L 176.572502 226.256947 
L 178.000982 231.579139 
L 179.429462 236.122417 
L 180.857942 238.507266 
L 182.286422 242.782759 
L 183.714902 238.331566 
L 185.143382 232.634606 
L 186.571862 231.587191 
L 188.000342 239.646891 
L 189.428822 229.193149 
L 190.857302 229.040635 
L 192.285782 225.896331 
L 193.714262 217.632953 
L 195.142742 221.78581 
L 196.571222 212.266073 
L 197.999702 208.065956 
L 199.428182 206.313066 
L 200.856662 213.521109 
L 202.285142 226.061058 
L 203.713622 227.980673 
L 205.142102 222.980288 
L 206.570582 233.074257 
L 207.999062 221.710038 
L 209.427542 228.075685 
L 210.856022 230.662107 
L 212.284502 216.432907 
L 213.712982 221.898783 
L 215.141462 223.537176 
L 216.569942 218.034898 
L 217.998422 235.927619 
L 219.426902 230.806248 
L 220.855382 215.976432 
L 222.283862 216.679967 
L 223.712342 192.041922 
L 225.140822 192.910047 
L 226.569302 202.612348 
L 227.997782 185.877122 
L 229.426262 190.175906 
L 230.854742 204.536808 
L 232.283222 198.448671 
L 233.711702 209.676726 
L 235.140182 211.634562 
L 236.568662 199.686873 
L 237.997142 201.281933 
L 239.425622 206.126362 
L 240.854102 196.71423 
L 242.282582 197.268091 
L 243.711062 196.960725 
L 245.139542 183.923798 
L 246.568022 185.627441 
L 247.996502 185.325715 
L 249.424982 176.313222 
L 250.853462 174.670499 
L 252.281942 188.327129 
L 253.710422 180.177036 
L 256.567382 200.262414 
L 257.995862 183.839538 
L 259.424342 194.796847 
L 260.852822 198.049398 
L 262.281302 188.189868 
L 263.709782 200.271432 
L 265.138262 201.939318 
L 266.566742 207.269481 
L 267.995222 213.289999 
L 269.423702 204.949238 
L 270.852182 203.848238 
L 272.280662 195.139464 
L 273.709142 194.305696 
L 275.137622 193.674278 
L 276.566102 188.888776 
L 277.994582 191.5016 
L 279.423062 187.892686 
L 280.851542 198.041309 
L 282.280022 193.005785 
L 283.708502 187.405469 
L 285.136982 192.869183 
L 286.565462 188.066754 
L 287.993942 194.64471 
L 289.422422 194.587132 
L 290.850902 183.841066 
L 292.279382 186.599767 
L 293.707862 192.921842 
L 295.136342 198.395901 
L 296.564822 211.065593 
L 299.421782 196.858291 
L 300.850262 195.13317 
L 302.278742 187.209652 
L 303.707222 185.572071 
L 305.135702 178.699715 
L 306.564182 175.832866 
L 307.992662 178.493445 
L 309.421142 178.184745 
L 310.849622 181.575194 
L 312.278102 185.331186 
L 313.706582 186.329848 
L 315.135062 196.546057 
L 316.563542 202.936162 
L 317.992022 204.510717 
L 319.420502 205.626636 
L 320.848982 203.868227 
L 322.277462 199.222196 
L 323.705942 195.776348 
L 325.134422 199.414406 
L 326.562902 201.670223 
L 327.991382 203.378204 
L 329.419862 210.206468 
L 330.848342 208.524885 
L 332.276822 210.766072 
L 333.705302 225.546373 
L 336.562262 229.083162 
L 337.990742 236.464788 
L 339.419222 237.497733 
L 340.847702 234.806213 
L 342.276182 221.777563 
L 343.704662 187.059161 
L 345.133142 156.996009 
L 346.561622 152.052377 
L 347.990102 173.746238 
L 349.418582 188.21243 
L 350.847062 199.845473 
L 352.275542 216.297816 
L 355.132502 244.014071 
L 356.560982 246.895303 
L 357.989462 234.888058 
L 359.417942 233.419403 
L 360.846422 239.247932 
L 362.274902 243.609469 
L 363.703382 252.205565 
L 365.131862 251.204953 
L 366.560342 244.342162 
L 367.988822 243.23247 
L 369.417302 243.18381 
L 370.845782 240.595936 
L 372.274262 244.706237 
L 373.702742 244.25254 
L 375.131222 241.813187 
L 376.559702 240.314936 
L 377.988182 246.039879 
L 379.416662 248.270489 
L 380.845142 250.000714 
L 382.273622 249.838473 
L 383.702102 243.336882 
L 385.130582 240.659262 
L 385.130582 240.659262 
" clip-path="url(#pa4eedad689)" style="fill: none; stroke: #d62728; stroke-width: 1.5; stroke-linecap: square"/>
   </g>
   <g id="line2d_20">
    <path d="M 29.439062 222.506149 
L 30.867542 229.225195 
L 32.296022 244.328125 
L 33.724502 247.402355 
L 35.152982 252.954749 
L 36.581462 258.019032 
L 38.009942 257.295259 
L 39.438422 249.2435 
L 40.866902 246.974437 
L 42.295382 234.54074 
L 43.723862 231.861658 
L 45.152342 231.553594 
L 46.580822 227.717781 
L 48.009302 232.012654 
L 49.437782 247.643113 
L 52.294742 246.413994 
L 53.723222 251.305355 
L 55.151702 234.325278 
L 56.580182 214.484016 
L 58.008662 201.387908 
L 59.437142 163.586194 
L 60.865622 129.858474 
L 62.294102 141.397281 
L 63.722582 125.3209 
L 65.151062 134.972888 
L 66.579542 154.989431 
L 68.008022 158.76708 
L 69.436502 155.361922 
L 70.864982 182.873277 
L 72.293462 162.532711 
L 73.721942 145.998895 
L 75.150422 142.271252 
L 76.578902 131.739654 
L 78.007382 80.2958 
L 79.435862 74.469261 
L 80.864342 71.612377 
L 82.292822 73.369884 
L 83.721302 78.170446 
L 85.149782 92.205622 
L 86.578262 114.651386 
L 88.006742 126.98029 
L 89.435222 135.707335 
L 90.863702 141.820322 
L 92.292182 152.338799 
L 93.720662 155.572908 
L 95.149142 168.629853 
L 96.577622 177.501124 
L 98.006102 192.046346 
L 99.434582 191.863517 
L 100.863062 188.562489 
L 102.291542 191.603524 
L 103.720022 188.124556 
L 105.148502 181.447777 
L 106.576982 187.0666 
L 108.005462 187.0915 
L 109.433942 185.34807 
L 110.862422 189.913695 
L 112.290902 190.637736 
L 113.719382 188.763136 
L 116.576342 195.654061 
L 118.004822 195.075047 
L 119.433302 193.860278 
L 120.861782 194.307816 
L 122.290262 192.563919 
L 123.718742 191.542008 
L 126.575702 188.685177 
L 128.004182 188.893792 
L 129.432662 191.078975 
L 130.861142 192.074346 
L 132.289622 199.593102 
L 133.718102 204.565698 
L 135.146582 210.577143 
L 136.575062 212.428944 
L 138.003542 214.907852 
L 139.432022 210.23647 
L 140.860502 207.817891 
L 142.288982 196.188428 
L 143.717462 189.862088 
L 145.145942 182.770205 
L 146.574422 183.291563 
L 148.002902 181.712392 
L 149.431382 193.113415 
L 152.288342 211.463604 
L 155.145302 230.909798 
L 158.002262 242.063784 
L 159.430742 245.919887 
L 160.859222 246.583547 
L 162.287702 248.741635 
L 163.716182 249.036102 
L 165.144662 249.952996 
L 166.573142 247.98217 
L 168.001622 243.701758 
L 169.430102 241.373489 
L 170.858582 240.72956 
L 172.287062 235.993508 
L 173.715542 234.540632 
L 175.144022 232.924776 
L 176.572502 229.099784 
L 178.000982 230.988135 
L 179.429462 235.724345 
L 180.857942 235.091221 
L 182.286422 238.923995 
L 183.714902 240.309621 
L 185.143382 236.532871 
L 186.571862 231.439783 
L 188.000342 239.832571 
L 189.428822 229.288225 
L 190.857302 229.025515 
L 192.285782 226.018762 
L 193.714262 229.776904 
L 195.142742 213.604985 
L 196.571222 215.680869 
L 197.999702 209.062995 
L 199.428182 214.984372 
L 200.856662 210.206824 
L 202.285142 219.314815 
L 203.713622 222.17396 
L 205.142102 226.369517 
L 206.570582 231.430807 
L 207.999062 225.577264 
L 209.427542 223.851206 
L 210.856022 228.555607 
L 212.284502 226.648719 
L 213.712982 216.031922 
L 215.141462 225.28565 
L 216.569942 220.640156 
L 217.998422 231.061495 
L 219.426902 227.73105 
L 220.855382 220.726004 
L 222.283862 215.037011 
L 223.712342 213.157231 
L 225.140822 191.720756 
L 226.569302 196.460668 
L 227.997782 191.350375 
L 229.426262 191.757527 
L 230.854742 201.836996 
L 232.283222 200.792232 
L 233.711702 197.550137 
L 235.140182 211.894043 
L 236.568662 208.846332 
L 237.997142 198.115669 
L 239.425622 203.773183 
L 240.854102 201.828184 
L 242.282582 197.214919 
L 243.711062 195.912493 
L 246.568022 185.115566 
L 247.996502 188.215948 
L 249.424982 179.230873 
L 250.853462 171.901027 
L 252.281942 188.619752 
L 253.710422 183.951829 
L 255.138902 183.070739 
L 256.567382 191.957715 
L 257.995862 195.323676 
L 259.424342 189.316525 
L 260.852822 197.266248 
L 262.281302 190.602066 
L 263.709782 195.331172 
L 265.138262 203.427593 
L 266.566742 207.153921 
L 267.995222 203.660003 
L 269.423702 208.209749 
L 270.852182 206.225655 
L 272.280662 201.968952 
L 273.709142 193.086981 
L 275.137622 192.080368 
L 276.566102 193.671134 
L 277.994582 192.037551 
L 279.423062 187.230909 
L 280.851542 195.127704 
L 282.280022 193.136595 
L 283.708502 190.879234 
L 285.136982 188.360647 
L 286.565462 195.259724 
L 287.993942 190.323195 
L 289.422422 192.16594 
L 290.850902 185.535827 
L 292.279382 190.356327 
L 293.707862 194.157665 
L 295.136342 195.231943 
L 296.564822 199.805793 
L 297.993302 205.75506 
L 299.421782 201.980701 
L 300.850262 196.973377 
L 303.707222 184.857416 
L 305.135702 182.068236 
L 306.564182 180.423619 
L 307.992662 177.468219 
L 309.421142 177.562124 
L 310.849622 178.80059 
L 312.278102 185.690961 
L 313.706582 185.834271 
L 316.563542 198.87215 
L 317.992022 203.82049 
L 319.420502 202.259429 
L 320.848982 205.894119 
L 322.277462 200.979192 
L 323.705942 198.165651 
L 325.134422 198.124359 
L 326.562902 202.74615 
L 327.991382 200.578123 
L 329.419862 207.104849 
L 330.848342 208.241904 
L 332.276822 211.671763 
L 333.705302 220.244674 
L 335.133782 226.078778 
L 336.562262 223.863886 
L 337.990742 233.998962 
L 339.419222 240.383726 
L 340.847702 233.517676 
L 342.276182 219.293385 
L 343.704662 203.251104 
L 345.133142 183.622751 
L 346.561622 167.197618 
L 347.990102 165.252998 
L 349.418582 172.562654 
L 350.847062 194.202864 
L 352.275542 213.618043 
L 353.704022 226.041419 
L 355.132502 232.462632 
L 356.560982 241.448056 
L 357.989462 239.391526 
L 359.417942 238.737845 
L 360.846422 239.787062 
L 362.274902 241.114508 
L 363.703382 244.070253 
L 365.131862 251.48424 
L 366.560342 248.029576 
L 367.988822 244.248661 
L 369.417302 243.731784 
L 370.845782 242.244278 
L 372.274262 242.65733 
L 373.702742 244.176889 
L 375.131222 242.605043 
L 376.559702 239.931252 
L 377.988182 246.935916 
L 379.416662 247.059347 
L 380.845142 247.328921 
L 382.273622 246.558014 
L 383.702102 249.176368 
L 385.130582 242.836748 
L 385.130582 242.836748 
" clip-path="url(#pa4eedad689)" style="fill: none; stroke: #9467bd; stroke-width: 1.5; stroke-linecap: square"/>
   </g>
   <g id="line2d_21">
    <path d="M 29.439062 221.989476 
L 30.867542 228.904971 
L 32.296022 237.483987 
L 33.724502 244.099331 
L 35.152982 250.133055 
L 38.009942 256.994611 
L 39.438422 253.038847 
L 42.295382 239.915086 
L 43.723862 236.632969 
L 45.152342 235.239876 
L 46.580822 227.68395 
L 48.009302 231.670455 
L 49.437782 240.522 
L 50.866262 246.901912 
L 52.294742 247.094508 
L 53.723222 245.135114 
L 55.151702 236.98727 
L 56.580182 227.417148 
L 58.008662 209.558869 
L 60.865622 154.479575 
L 62.294102 136.912814 
L 63.722582 136.626651 
L 65.151062 143.651398 
L 66.579542 138.702995 
L 68.008022 150.24993 
L 69.436502 157.637623 
L 70.864982 172.805614 
L 72.293462 172.308881 
L 73.721942 147.756838 
L 75.150422 139.424444 
L 76.578902 135.249771 
L 78.007382 118.380389 
L 79.435862 80.14313 
L 80.864342 68.347758 
L 82.292822 78.528388 
L 85.149782 83.731536 
L 86.578262 109.142714 
L 88.006742 114.016671 
L 89.435222 131.704446 
L 90.863702 137.894546 
L 92.292182 145.867244 
L 93.720662 159.375849 
L 95.149142 160.199988 
L 96.577622 173.774933 
L 98.006102 185.603024 
L 99.434582 187.691034 
L 102.291542 189.973888 
L 103.720022 189.661866 
L 105.148502 188.720384 
L 106.576982 183.420157 
L 108.005462 184.839306 
L 109.433942 187.32764 
L 110.862422 188.234936 
L 112.290902 190.808875 
L 113.719382 189.459306 
L 115.147862 189.315904 
L 116.576342 194.488321 
L 118.004822 196.222111 
L 119.433302 194.084129 
L 120.861782 192.551171 
L 122.290262 192.477858 
L 123.718742 193.836383 
L 125.147222 191.623847 
L 126.575702 188.740474 
L 128.004182 188.38451 
L 129.432662 189.755489 
L 130.861142 193.432394 
L 132.289622 198.363082 
L 133.718102 201.032618 
L 135.146582 206.925265 
L 136.575062 209.543013 
L 138.003542 213.252545 
L 139.432022 212.963095 
L 140.860502 207.846519 
L 143.717462 192.369156 
L 145.145942 189.197994 
L 148.002902 184.042107 
L 149.431382 187.198671 
L 152.288342 207.540235 
L 153.716822 218.675332 
L 155.145302 224.780796 
L 156.573782 232.725185 
L 159.430742 243.690539 
L 160.859222 246.907814 
L 162.287702 247.474879 
L 163.716182 247.797075 
L 165.144662 249.480254 
L 166.573142 248.556817 
L 168.001622 245.08607 
L 169.430102 243.204053 
L 172.287062 238.815428 
L 173.715542 235.683007 
L 175.144022 232.270423 
L 176.572502 231.130882 
L 178.000982 232.49656 
L 179.429462 234.57189 
L 180.857942 234.929153 
L 182.286422 236.028174 
L 183.714902 237.444895 
L 185.143382 238.514573 
L 186.571862 234.934333 
L 188.000342 238.395766 
L 189.428822 231.266365 
L 190.857302 229.132824 
L 192.285782 226.515892 
L 193.714262 229.239417 
L 195.142742 224.817696 
L 196.571222 209.621523 
L 197.999702 212.522123 
L 200.856662 216.641101 
L 202.285142 215.732855 
L 203.713622 217.061613 
L 205.142102 221.758769 
L 206.570582 232.710465 
L 207.999062 225.409058 
L 209.427542 226.675144 
L 210.856022 224.981941 
L 212.284502 225.516094 
L 213.712982 224.706134 
L 215.141462 219.993368 
L 216.569942 222.621729 
L 217.998422 230.960194 
L 219.426902 224.808205 
L 220.855382 219.699069 
L 222.283862 219.194515 
L 223.712342 212.348296 
L 225.140822 209.65087 
L 226.569302 194.907088 
L 227.997782 187.807324 
L 229.426262 195.211158 
L 230.854742 201.189777 
L 232.283222 199.121299 
L 233.711702 199.667689 
L 235.140182 201.664094 
L 236.568662 209.536309 
L 237.997142 206.137929 
L 239.425622 200.771985 
L 240.854102 200.539284 
L 242.282582 201.393693 
L 245.139542 190.557175 
L 246.568022 190.24811 
L 247.996502 187.367939 
L 249.424982 182.763564 
L 250.853462 175.139954 
L 252.281942 184.260041 
L 255.138902 185.693006 
L 256.567382 186.011723 
L 257.995862 189.053189 
L 259.424342 197.746163 
L 260.852822 192.377572 
L 262.281302 191.188962 
L 263.709782 196.093335 
L 265.138262 198.888857 
L 266.566742 207.49831 
L 269.423702 200.805821 
L 270.852182 208.713277 
L 272.280662 204.293783 
L 273.709142 199.221764 
L 275.137622 191.424833 
L 276.566102 192.344692 
L 277.994582 195.438584 
L 279.423062 188.410429 
L 280.851542 193.421343 
L 282.280022 191.466693 
L 283.708502 191.34645 
L 285.136982 191.086209 
L 286.565462 191.173373 
L 287.993942 195.888562 
L 289.422422 188.934661 
L 290.850902 184.957424 
L 293.707862 195.922878 
L 295.136342 195.865522 
L 296.564822 196.964714 
L 297.993302 196.992366 
L 299.421782 203.993471 
L 300.850262 201.233957 
L 302.278742 193.29733 
L 303.707222 188.48751 
L 305.135702 182.050611 
L 306.564182 182.922867 
L 307.992662 180.997684 
L 309.421142 176.85942 
L 310.849622 178.181248 
L 312.278102 182.759312 
L 313.706582 186.049535 
L 315.135062 190.908696 
L 316.563542 194.995539 
L 317.992022 200.316108 
L 319.420502 202.053777 
L 320.848982 203.05515 
L 322.277462 203.188982 
L 323.705942 199.818307 
L 325.134422 199.700281 
L 326.562902 201.146293 
L 327.991382 201.664569 
L 329.419862 204.221356 
L 330.848342 205.956449 
L 332.276822 210.922625 
L 333.705302 219.423925 
L 335.133782 221.610325 
L 336.562262 223.37897 
L 337.990742 229.049003 
L 339.419222 237.766712 
L 340.847702 236.693885 
L 343.704662 204.185953 
L 345.133142 198.109798 
L 347.990102 175.034151 
L 349.418582 165.669523 
L 350.847062 180.766015 
L 352.275542 207.173387 
L 353.704022 222.415569 
L 355.132502 228.878611 
L 356.560982 232.116043 
L 357.989462 235.824645 
L 359.417942 241.744141 
L 360.846422 242.955834 
L 362.274902 241.247706 
L 363.703382 241.929208 
L 365.131862 244.83055 
L 366.560342 248.808845 
L 367.988822 247.351661 
L 369.417302 244.492239 
L 370.845782 242.862764 
L 372.274262 243.66558 
L 373.702742 242.552297 
L 375.131222 242.817807 
L 376.559702 240.92033 
L 377.988182 245.569599 
L 379.416662 247.629856 
L 380.845142 246.468575 
L 382.273622 244.839602 
L 383.702102 246.543437 
L 385.130582 247.840138 
L 385.130582 247.840138 
" clip-path="url(#pa4eedad689)" style="fill: none; stroke: #8c564b; stroke-width: 1.5; stroke-linecap: square"/>
   </g>
   <g id="line2d_22">
    <path d="M 29.439062 224.216778 
L 30.867542 227.596136 
L 32.296022 236.094002 
L 33.724502 238.285498 
L 35.152982 247.009287 
L 36.581462 251.173405 
L 38.009942 253.38057 
L 39.438422 253.391419 
L 40.866902 250.111493 
L 42.295382 240.35466 
L 43.723862 240.873149 
L 45.152342 238.743918 
L 46.580822 231.524757 
L 48.009302 231.087585 
L 49.437782 239.084283 
L 50.866262 240.893702 
L 52.294742 246.996197 
L 53.723222 245.910647 
L 55.151702 233.085415 
L 56.580182 230.86679 
L 58.008662 221.875268 
L 59.437142 192.984554 
L 60.865622 172.579527 
L 62.294102 156.56697 
L 63.722582 133.393898 
L 65.151062 150.105108 
L 66.579542 145.513232 
L 68.008022 136.739153 
L 69.436502 150.483069 
L 70.864982 172.207681 
L 72.293462 164.739432 
L 73.721942 159.007124 
L 75.150422 141.932814 
L 76.578902 133.752243 
L 79.435862 113.209754 
L 80.864342 74.203567 
L 82.292822 74.821343 
L 83.721302 84.425418 
L 85.149782 85.512302 
L 86.578262 100.005778 
L 88.006742 109.382331 
L 89.435222 120.19955 
L 90.863702 134.191304 
L 92.292182 141.997781 
L 93.720662 153.047456 
L 95.149142 162.735832 
L 96.577622 166.052801 
L 98.006102 181.433711 
L 99.434582 182.665304 
L 100.863062 185.684395 
L 102.291542 190.052933 
L 103.720022 188.528151 
L 105.148502 189.949308 
L 106.576982 189.323584 
L 108.005462 181.997329 
L 109.433942 185.368481 
L 110.862422 189.494891 
L 112.290902 189.251731 
L 113.719382 189.776067 
L 115.147862 189.831957 
L 116.576342 191.63289 
L 118.004822 195.146246 
L 119.433302 195.216294 
L 120.861782 192.932486 
L 122.290262 191.218756 
L 123.718742 193.58218 
L 125.147222 193.580143 
L 126.575702 190.258975 
L 128.004182 188.474989 
L 129.432662 189.198645 
L 130.861142 191.981943 
L 132.289622 198.601115 
L 133.718102 199.784621 
L 135.146582 203.618883 
L 136.575062 206.544268 
L 138.003542 210.681256 
L 139.432022 211.804545 
L 140.860502 210.573035 
L 142.288982 201.272819 
L 145.145942 191.453746 
L 146.574422 191.567199 
L 148.002902 186.873421 
L 149.431382 188.362043 
L 150.859862 191.892493 
L 153.716822 214.499122 
L 155.145302 222.158824 
L 156.573782 227.322903 
L 158.002262 234.922937 
L 159.430742 240.308315 
L 160.859222 244.880253 
L 162.287702 247.623529 
L 163.716182 246.836933 
L 165.144662 248.36133 
L 166.573142 248.346486 
L 168.001622 246.014508 
L 169.430102 244.469403 
L 170.858582 242.710852 
L 172.287062 239.410904 
L 173.715542 238.158751 
L 175.144022 233.598803 
L 176.572502 230.819473 
L 178.000982 233.710105 
L 179.429462 235.321048 
L 180.857942 234.048867 
L 182.286422 235.757231 
L 183.714902 235.145673 
L 185.143382 236.280027 
L 186.571862 236.891486 
L 188.000342 240.248563 
L 189.428822 231.206691 
L 190.857302 230.855381 
L 192.285782 226.97232 
L 193.714262 229.200263 
L 195.142742 225.060755 
L 196.571222 220.171876 
L 197.999702 207.679122 
L 199.428182 216.719103 
L 200.856662 216.123738 
L 202.285142 220.271379 
L 203.713622 214.26839 
L 205.142102 217.436337 
L 206.570582 228.104504 
L 207.999062 227.449084 
L 209.427542 226.376218 
L 210.856022 227.223636 
L 212.284502 222.819885 
L 213.712982 223.999794 
L 215.141462 226.684388 
L 216.569942 218.385403 
L 217.998422 231.107781 
L 219.426902 225.63427 
L 220.855382 218.212387 
L 222.283862 218.52415 
L 223.712342 216.383034 
L 225.140822 209.44702 
L 226.569302 209.664523 
L 227.997782 187.671964 
L 229.426262 191.709338 
L 230.854742 202.671045 
L 232.283222 198.947973 
L 233.711702 198.387136 
L 235.140182 202.852002 
L 236.568662 201.008475 
L 237.997142 207.131896 
L 239.425622 207.18111 
L 240.854102 198.380668 
L 242.282582 200.348606 
L 243.711062 199.87207 
L 245.139542 191.497092 
L 246.568022 190.446999 
L 247.996502 191.399083 
L 249.424982 182.804438 
L 250.853462 178.836405 
L 252.281942 185.145917 
L 253.710422 181.658839 
L 255.138902 186.284838 
L 256.567382 187.806378 
L 257.995862 184.297498 
L 259.424342 192.130815 
L 260.852822 199.063592 
L 262.281302 187.727666 
L 263.709782 195.808404 
L 265.138262 199.024939 
L 266.566742 203.154815 
L 267.995222 204.902638 
L 269.423702 201.663825 
L 270.852182 202.345891 
L 272.280662 206.736348 
L 273.709142 201.650842 
L 275.137622 196.995616 
L 276.566102 191.746216 
L 277.994582 194.064329 
L 279.423062 191.922213 
L 280.851542 193.527147 
L 282.280022 190.499864 
L 283.708502 190.157175 
L 285.136982 191.456708 
L 286.565462 193.073793 
L 287.993942 192.318328 
L 289.422422 193.959995 
L 290.850902 183.119016 
L 293.707862 195.385749 
L 295.136342 197.120655 
L 296.564822 197.255697 
L 297.993302 194.920628 
L 299.421782 196.680503 
L 300.850262 203.076989 
L 302.278742 197.57802 
L 303.707222 190.830877 
L 305.135702 185.624953 
L 306.564182 182.786056 
L 307.992662 183.053444 
L 309.421142 179.987536 
L 310.849622 177.492985 
L 312.278102 181.681811 
L 313.706582 183.494688 
L 315.135062 190.37394 
L 316.563542 193.456085 
L 317.992022 196.827227 
L 319.420502 199.273135 
L 320.848982 202.7665 
L 322.277462 201.103242 
L 323.705942 201.896283 
L 325.134422 200.885534 
L 326.562902 202.043694 
L 327.991382 200.439377 
L 329.419862 204.616121 
L 330.848342 203.633554 
L 332.276822 208.62509 
L 333.705302 217.74467 
L 335.133782 220.720925 
L 336.562262 219.863341 
L 337.990742 227.927071 
L 339.419222 233.158476 
L 340.847702 234.910488 
L 342.276182 225.785975 
L 343.704662 207.941713 
L 345.133142 199.687402 
L 346.561622 198.707123 
L 347.990102 190.269042 
L 349.418582 174.012436 
L 350.847062 174.001014 
L 353.704022 216.068495 
L 355.132502 225.453198 
L 356.560982 229.092188 
L 357.989462 228.265121 
L 359.417942 238.433858 
L 360.846422 244.842663 
L 362.274902 243.724589 
L 363.703382 241.926549 
L 365.131862 242.904976 
L 366.560342 243.356351 
L 367.988822 248.122206 
L 369.417302 247.117699 
L 370.845782 243.645552 
L 372.274262 243.986768 
L 373.702742 243.433191 
L 375.131222 241.603178 
L 376.559702 241.348576 
L 377.988182 245.588154 
L 380.845142 247.045601 
L 382.273622 244.443331 
L 385.130582 245.747859 
L 385.130582 245.747859 
" clip-path="url(#pa4eedad689)" style="fill: none; stroke: #e377c2; stroke-width: 1.5; stroke-linecap: square"/>
   </g>
   <g id="patch_3">
    <path d="M 29.439063 284.991437 
L 29.439063 18.879437 
" style="fill: none; stroke: #000000; stroke-width: 0.8; stroke-linejoin: miter; stroke-linecap: square"/>
   </g>
   <g id="patch_4">
    <path d="M 386.559062 284.991437 
L 386.559062 18.879437 
" style="fill: none; stroke: #000000; stroke-width: 0.8; stroke-linejoin: miter; stroke-linecap: square"/>
   </g>
   <g id="patch_5">
    <path d="M 29.439062 284.991437 
L 386.559062 284.991437 
" style="fill: none; stroke: #000000; stroke-width: 0.8; stroke-linejoin: miter; stroke-linecap: square"/>
   </g>
   <g id="patch_6">
    <path d="M 29.439062 18.879437 
L 386.559062 18.879437 
" style="fill: none; stroke: #000000; stroke-width: 0.8; stroke-linejoin: miter; stroke-linecap: square"/>
   </g>
   <g id="legend_1">
    <g id="patch_7">
     <path d="M 188.849844 127.613812 
L 227.148281 127.613812 
Q 229.148281 127.613812 229.148281 125.613812 
L 229.148281 25.879437 
Q 229.148281 23.879437 227.148281 23.879437 
L 188.849844 23.879437 
Q 186.849844 23.879437 186.849844 25.879437 
L 186.849844 125.613812 
Q 186.849844 127.613812 188.849844 127.613812 
z
" style="fill: #ffffff; opacity: 0.8; stroke: #cccccc; stroke-linejoin: miter"/>
    </g>
    <g id="line2d_23">
     <path d="M 190.849844 31.870062 
L 200.849844 31.870062 
L 210.849844 31.870062 
" style="fill: none; stroke: #1f77b4; stroke-width: 1.5; stroke-linecap: square"/>
    </g>
    <g id="text_15">
     <!-- 1 -->
     <g transform="translate(218.849844 35.370062) scale(0.1 -0.1)">
      <use xlink:href="#IPAexGothic-31"/>
     </g>
    </g>
    <g id="line2d_24">
     <path d="M 190.849844 46.260687 
L 200.849844 46.260687 
L 210.849844 46.260687 
" style="fill: none; stroke: #ff7f0e; stroke-width: 1.5; stroke-linecap: square"/>
    </g>
    <g id="text_16">
     <!-- 2 -->
     <g transform="translate(218.849844 49.760687) scale(0.1 -0.1)">
      <use xlink:href="#IPAexGothic-32"/>
     </g>
    </g>
    <g id="line2d_25">
     <path d="M 190.849844 60.651312 
L 200.849844 60.651312 
L 210.849844 60.651312 
" style="fill: none; stroke: #2ca02c; stroke-width: 1.5; stroke-linecap: square"/>
    </g>
    <g id="text_17">
     <!-- 3 -->
     <g transform="translate(218.849844 64.151312) scale(0.1 -0.1)">
      <use xlink:href="#IPAexGothic-33"/>
     </g>
    </g>
    <g id="line2d_26">
     <path d="M 190.849844 75.041937 
L 200.849844 75.041937 
L 210.849844 75.041937 
" style="fill: none; stroke: #d62728; stroke-width: 1.5; stroke-linecap: square"/>
    </g>
    <g id="text_18">
     <!-- 4 -->
     <g transform="translate(218.849844 78.541937) scale(0.1 -0.1)">
      <defs>
       <path id="IPAexGothic-34" d="M 3813 1159 
L 3059 1159 
L 3059 63 
L 2547 63 
L 2547 1159 
L 197 1159 
L 197 1672 
L 2456 4678 
L 3059 4678 
L 3059 1634 
L 3813 1634 
L 3813 1159 
z
M 2578 4109 
L 2559 4109 
Q 2278 3656 2003 3284 
L 759 1634 
L 2547 1634 
L 2547 3144 
Q 2547 3481 2578 4109 
z
" transform="scale(0.015625)"/>
      </defs>
      <use xlink:href="#IPAexGothic-34"/>
     </g>
    </g>
    <g id="line2d_27">
     <path d="M 190.849844 89.432562 
L 200.849844 89.432562 
L 210.849844 89.432562 
" style="fill: none; stroke: #9467bd; stroke-width: 1.5; stroke-linecap: square"/>
    </g>
    <g id="text_19">
     <!-- 5 -->
     <g transform="translate(218.849844 92.932562) scale(0.1 -0.1)">
      <use xlink:href="#IPAexGothic-35"/>
     </g>
    </g>
    <g id="line2d_28">
     <path d="M 190.849844 103.823187 
L 200.849844 103.823187 
L 210.849844 103.823187 
" style="fill: none; stroke: #8c564b; stroke-width: 1.5; stroke-linecap: square"/>
    </g>
    <g id="text_20">
     <!-- 6 -->
     <g transform="translate(218.849844 107.323187) scale(0.1 -0.1)">
      <defs>
       <path id="IPAexGothic-36" d="M 1056 2328 
Q 1509 2981 2234 2981 
Q 2906 2981 3316 2513 
Q 3675 2106 3675 1522 
Q 3675 884 3272 434 
Q 2853 -31 2178 -31 
Q 1375 -31 922 581 
Q 481 1178 481 2228 
Q 481 3425 1013 4109 
Q 1494 4725 2272 4725 
Q 3191 4725 3609 4025 
L 3150 3775 
Q 2894 4266 2300 4266 
Q 1119 4266 1031 2328 
L 1056 2328 
z
M 2141 2547 
Q 1684 2547 1384 2206 
Q 1116 1900 1116 1541 
Q 1116 1156 1353 844 
Q 1672 428 2159 428 
Q 2669 428 2941 844 
Q 3125 1128 3125 1503 
Q 3125 1944 2881 2228 
Q 2600 2547 2141 2547 
z
" transform="scale(0.015625)"/>
      </defs>
      <use xlink:href="#IPAexGothic-36"/>
     </g>
    </g>
    <g id="line2d_29">
     <path d="M 190.849844 118.213812 
L 200.849844 118.213812 
L 210.849844 118.213812 
" style="fill: none; stroke: #e377c2; stroke-width: 1.5; stroke-linecap: square"/>
    </g>
    <g id="text_21">
     <!-- 7 -->
     <g transform="translate(218.849844 121.713812) scale(0.1 -0.1)">
      <defs>
       <path id="IPAexGothic-37" d="M 3597 4263 
Q 2238 2106 1778 63 
L 1131 63 
Q 1581 1834 2950 4128 
L 428 4128 
L 428 4634 
L 3597 4634 
L 3597 4263 
z
" transform="scale(0.015625)"/>
      </defs>
      <use xlink:href="#IPAexGothic-37"/>
     </g>
    </g>
   </g>
  </g>
  <g id="axes_2">
   <g id="matplotlib.axis_3"/>
   <g id="patch_8">
    <path d="M 29.439063 284.991437 
L 29.439063 18.879437 
" style="fill: none; stroke: #000000; stroke-width: 0.8; stroke-linejoin: miter; stroke-linecap: square"/>
   </g>
   <g id="patch_9">
    <path d="M 386.559062 284.991437 
L 386.559062 18.879437 
" style="fill: none; stroke: #000000; stroke-width: 0.8; stroke-linejoin: miter; stroke-linecap: square"/>
   </g>
   <g id="patch_10">
    <path d="M 29.439062 284.991437 
L 386.559062 284.991437 
" style="fill: none; stroke: #000000; stroke-width: 0.8; stroke-linejoin: miter; stroke-linecap: square"/>
   </g>
   <g id="patch_11">
    <path d="M 29.439062 18.879437 
L 386.559062 18.879437 
" style="fill: none; stroke: #000000; stroke-width: 0.8; stroke-linejoin: miter; stroke-linecap: square"/>
   </g>
  </g>
  <g id="text_22">
   <!-- : 2023/02/05 16:13:36(JST) -->
   <g transform="translate(211.087188 15.423437) scale(0.1 -0.1)">
    <defs>
     <path id="IPAexGothic-66f4" d="M 2956 3994 
L 2956 4588 
L 513 4588 
L 513 4984 
L 5881 4984 
L 5881 4588 
L 3413 4588 
L 3413 3994 
L 5300 3994 
L 5300 1288 
L 4838 1288 
L 4838 1759 
L 3406 1759 
Q 3384 1125 3150 709 
Q 4291 244 5997 31 
L 5694 -428 
Q 4109 -166 2906 384 
Q 2294 -266 744 -488 
L 494 -66 
Q 1903 59 2491 588 
Q 2041 813 1594 1166 
L 1928 1434 
Q 2331 1106 2747 897 
Q 2922 1219 2950 1759 
L 1556 1759 
L 1556 1413 
L 1097 1413 
L 1097 3994 
L 2956 3994 
z
M 2956 3609 
L 1556 3609 
L 1556 3078 
L 2956 3078 
L 2956 3609 
z
M 3413 3609 
L 3413 3078 
L 4838 3078 
L 4838 3609 
L 3413 3609 
z
M 2956 2700 
L 1556 2700 
L 1556 2144 
L 2956 2144 
L 2956 2700 
z
M 3413 2700 
L 3413 2144 
L 4838 2144 
L 4838 2700 
L 3413 2700 
z
" transform="scale(0.015625)"/>
     <path id="IPAexGothic-65b0" d="M 3891 2803 
Q 3881 1759 3794 1166 
Q 3653 197 3097 -563 
L 2741 -250 
Q 3450 700 3450 2631 
L 3450 4647 
Q 3516 4656 3622 4666 
Q 4656 4778 5447 5063 
L 5825 4678 
Q 4897 4419 3891 4294 
L 3891 3219 
L 6119 3219 
L 6119 2803 
L 5275 2803 
L 5275 -447 
L 4834 -447 
L 4834 2803 
L 3891 2803 
z
M 2822 4069 
Q 2678 3572 2519 3181 
L 3250 3181 
L 3250 2784 
L 2059 2784 
L 2059 2216 
L 3184 2216 
L 3184 1831 
L 2059 1831 
L 2059 1544 
Q 2613 1197 3031 847 
L 2781 456 
Q 2472 791 2059 1128 
L 2059 -447 
L 1644 -447 
L 1644 1294 
Q 1272 628 575 -31 
L 269 341 
Q 1041 938 1528 1831 
L 453 1831 
L 453 2216 
L 1644 2216 
L 1644 2784 
L 319 2784 
L 319 3181 
L 1125 3181 
Q 1013 3706 881 4069 
L 453 4069 
L 453 4453 
L 1631 4453 
L 1631 5309 
L 2072 5309 
L 2072 4453 
L 3166 4453 
L 3166 4069 
L 2822 4069 
z
M 2391 4069 
L 1325 4069 
Q 1450 3672 1534 3181 
L 2109 3181 
Q 2294 3659 2391 4069 
z
" transform="scale(0.015625)"/>
     <path id="IPAexGothic-65e5" d="M 5231 4800 
L 5231 -288 
L 4744 -288 
L 4744 128 
L 1647 128 
L 1647 -288 
L 1159 -288 
L 1159 4800 
L 5231 4800 
z
M 1647 4372 
L 1647 2731 
L 4744 2731 
L 4744 4372 
L 1647 4372 
z
M 1647 2297 
L 1647 556 
L 4744 556 
L 4744 2297 
L 1647 2297 
z
" transform="scale(0.015625)"/>
     <path id="IPAexGothic-6642" d="M 2328 4728 
L 2328 563 
L 934 563 
L 934 56 
L 519 56 
L 519 4728 
L 2328 4728 
z
M 934 4331 
L 934 2881 
L 1906 2881 
L 1906 4331 
L 934 4331 
z
M 934 2497 
L 934 953 
L 1906 953 
L 1906 2497 
L 934 2497 
z
M 3938 4372 
L 3938 5313 
L 4378 5313 
L 4378 4372 
L 5772 4372 
L 5772 3981 
L 4378 3981 
L 4378 3194 
L 6072 3194 
L 6072 2803 
L 5203 2803 
L 5203 2047 
L 5959 2047 
L 5959 1650 
L 5216 1650 
L 5216 31 
Q 5216 -447 4691 -447 
Q 4394 -447 3888 -391 
L 3784 78 
Q 4272 0 4591 0 
Q 4775 0 4775 172 
L 4775 1650 
L 2581 1650 
L 2581 2047 
L 4763 2047 
L 4763 2803 
L 2538 2803 
L 2538 3194 
L 3938 3194 
L 3938 3981 
L 2716 3981 
L 2716 4372 
L 3938 4372 
z
M 3669 384 
Q 3331 950 2956 1325 
L 3291 1575 
Q 3719 1147 4025 659 
L 3669 384 
z
" transform="scale(0.015625)"/>
     <path id="IPAexGothic-3a" d="M 1369 2559 
L 672 2559 
L 672 3250 
L 1369 3250 
L 1369 2559 
z
M 1369 63 
L 672 63 
L 672 753 
L 1369 753 
L 1369 63 
z
" transform="scale(0.015625)"/>
     <path id="IPAexGothic-20" transform="scale(0.015625)"/>
     <path id="IPAexGothic-2f" d="M 2719 4709 
L 600 -884 
L 300 -763 
L 2413 4831 
L 2719 4709 
z
" transform="scale(0.015625)"/>
     <path id="IPAexGothic-28" d="M 1928 -1016 
L 1653 -1166 
Q 488 69 488 1875 
Q 488 3678 1653 4909 
L 1928 4763 
Q 1006 3522 1006 1881 
Q 1006 203 1928 -1016 
z
" transform="scale(0.015625)"/>
     <path id="IPAexGothic-54" d="M 3866 4141 
L 2175 4141 
L 2175 63 
L 1606 63 
L 1606 4141 
L -31 4141 
L -31 4634 
L 3866 4634 
L 3866 4141 
z
" transform="scale(0.015625)"/>
     <path id="IPAexGothic-29" d="M 466 4909 
Q 1638 3672 1638 1875 
Q 1638 75 466 -1166 
L 191 -1016 
Q 1119 216 1119 1881 
Q 1119 3509 191 4763 
L 466 4909 
z
" transform="scale(0.015625)"/>
    </defs>
    <use xlink:href="#IPAexGothic-66f4"/>
    <use xlink:href="#IPAexGothic-65b0" x="100"/>
    <use xlink:href="#IPAexGothic-65e5" x="200"/>
    <use xlink:href="#IPAexGothic-6642" x="300"/>
    <use xlink:href="#IPAexGothic-3a" x="400"/>
    <use xlink:href="#IPAexGothic-20" x="431.982422"/>
    <use xlink:href="#IPAexGothic-32" x="458.984375"/>
    <use xlink:href="#IPAexGothic-30" x="521.972656"/>
    <use xlink:href="#IPAexGothic-32" x="584.960938"/>
    <use xlink:href="#IPAexGothic-33" x="647.949219"/>
    <use xlink:href="#IPAexGothic-2f" x="710.9375"/>
    <use xlink:href="#IPAexGothic-30" x="760.9375"/>
    <use xlink:href="#IPAexGothic-32" x="823.925781"/>
    <use xlink:href="#IPAexGothic-2f" x="886.914062"/>
    <use xlink:href="#IPAexGothic-30" x="936.914062"/>
    <use xlink:href="#IPAexGothic-35" x="999.902344"/>
    <use xlink:href="#IPAexGothic-20" x="1062.890625"/>
    <use xlink:href="#IPAexGothic-31" x="1089.892578"/>
    <use xlink:href="#IPAexGothic-36" x="1152.880859"/>
    <use xlink:href="#IPAexGothic-3a" x="1215.869141"/>
    <use xlink:href="#IPAexGothic-31" x="1247.851562"/>
    <use xlink:href="#IPAexGothic-33" x="1310.839844"/>
    <use xlink:href="#IPAexGothic-3a" x="1373.828125"/>
    <use xlink:href="#IPAexGothic-33" x="1405.810547"/>
    <use xlink:href="#IPAexGothic-36" x="1468.798828"/>
    <use xlink:href="#IPAexGothic-28" x="1531.787109"/>
    <use xlink:href="#IPAexGothic-4a" x="1565.087891"/>
    <use xlink:href="#IPAexGothic-53" x="1603.076172"/>
    <use xlink:href="#IPAexGothic-54" x="1661.572266"/>
    <use xlink:href="#IPAexGothic-29" x="1721.484375"/>
   </g>
  </g>
 </g>
 <defs>
  <clipPath id="pa4eedad689">
   <rect x="29.439063" y="18.879437" width="357.12" height="266.112"/>
  </clipPath>
 </defs>
</svg>
