<?xml version="1.0" encoding="utf-8" standalone="no"?>
<!DOCTYPE svg PUBLIC "-//W3C//DTD SVG 1.1//EN"
  "http://www.w3.org/Graphics/SVG/1.1/DTD/svg11.dtd">
<svg xmlns:xlink="http://www.w3.org/1999/xlink" width="393.759062pt" height="308.582062pt" viewBox="0 0 393.759062 308.582062" xmlns="http://www.w3.org/2000/svg" version="1.1">
 <metadata>
  <rdf:RDF xmlns:dc="http://purl.org/dc/elements/1.1/" xmlns:cc="http://creativecommons.org/ns#" xmlns:rdf="http://www.w3.org/1999/02/22-rdf-syntax-ns#">
   <cc:Work>
    <dc:type rdf:resource="http://purl.org/dc/dcmitype/StillImage"/>
    <dc:date>2023-03-20T07:14:58.894936</dc:date>
    <dc:format>image/svg+xml</dc:format>
    <dc:creator>
     <cc:Agent>
      <dc:title>Matplotlib v3.7.1, https://matplotlib.org/</dc:title>
     </cc:Agent>
    </dc:creator>
   </cc:Work>
  </rdf:RDF>
 </metadata>
 <defs>
  <style type="text/css">*{stroke-linejoin: round; stroke-linecap: butt}</style>
 </defs>
 <g id="figure_1">
  <g id="patch_1">
   <path d="M 0 308.582062 
L 393.759062 308.582062 
L 393.759062 0 
L 0 0 
z
" style="fill: #ffffff"/>
  </g>
  <g id="axes_1">
   <g id="patch_2">
    <path d="M 29.439063 284.991437 
L 386.559062 284.991437 
L 386.559062 18.879437 
L 29.439063 18.879437 
z
" style="fill: #ffffff"/>
   </g>
   <g id="line2d_1">
    <path d="M 29.439063 211.199039 
L 386.559062 211.199039 
" clip-path="url(#p0f9369f869)" style="fill: none; stroke: #000000; stroke-linecap: square"/>
   </g>
   <g id="matplotlib.axis_1">
    <g id="xtick_1">
     <g id="line2d_2">
      <defs>
       <path id="mbda18e2819" d="M 0 0 
L 0 3.5 
" style="stroke: #000000; stroke-width: 0.8"/>
      </defs>
      <g>
       <use xlink:href="#mbda18e2819" x="29.439062" y="284.991437" style="stroke: #000000; stroke-width: 0.8"/>
      </g>
     </g>
     <g id="text_1">
      <!-- Jun -->
      <g transform="translate(21.499219 299.482062) scale(0.1 -0.1)">
       <defs>
        <path id="IPAexGothic-4a" d="M 1819 4634 
L 1819 1234 
Q 1819 -31 763 -31 
Q 303 -31 -125 209 
L 84 644 
Q 378 447 694 447 
Q 1250 447 1250 1203 
L 1250 4634 
L 1819 4634 
z
" transform="scale(0.015625)"/>
        <path id="IPAexGothic-75" d="M 3284 63 
L 2772 63 
L 2772 644 
Q 2300 0 1625 0 
Q 1072 0 763 375 
Q 519 678 519 1241 
L 519 3250 
L 1069 3250 
L 1069 1259 
Q 1069 466 1734 466 
Q 2406 466 2734 1291 
L 2734 3250 
L 3284 3250 
L 3284 63 
z
" transform="scale(0.015625)"/>
        <path id="IPAexGothic-6e" d="M 3328 63 
L 2778 63 
L 2778 2041 
Q 2778 2853 2106 2853 
Q 1428 2853 1113 2041 
L 1113 63 
L 563 63 
L 563 3250 
L 1075 3250 
L 1075 2675 
Q 1525 3316 2222 3316 
Q 3328 3316 3328 2072 
L 3328 63 
z
" transform="scale(0.015625)"/>
       </defs>
       <use xlink:href="#IPAexGothic-4a"/>
       <use xlink:href="#IPAexGothic-75" x="37.988281"/>
       <use xlink:href="#IPAexGothic-6e" x="98.388672"/>
      </g>
     </g>
    </g>
    <g id="xtick_2">
     <g id="line2d_3">
      <g>
       <use xlink:href="#mbda18e2819" x="66.00425" y="284.991437" style="stroke: #000000; stroke-width: 0.8"/>
      </g>
     </g>
     <g id="text_2">
      <!-- Jul -->
      <g transform="translate(59.734719 299.482062) scale(0.1 -0.1)">
       <defs>
        <path id="IPAexGothic-6c" d="M 1131 63 
L 581 63 
L 581 4794 
L 1131 4794 
L 1131 63 
z
" transform="scale(0.015625)"/>
       </defs>
       <use xlink:href="#IPAexGothic-4a"/>
       <use xlink:href="#IPAexGothic-75" x="37.988281"/>
       <use xlink:href="#IPAexGothic-6c" x="98.388672"/>
      </g>
     </g>
    </g>
    <g id="xtick_3">
     <g id="line2d_4">
      <g>
       <use xlink:href="#mbda18e2819" x="103.788278" y="284.991437" style="stroke: #000000; stroke-width: 0.8"/>
      </g>
     </g>
     <g id="text_3">
      <!-- Aug -->
      <g transform="translate(94.806246 299.42425) scale(0.1 -0.1)">
       <defs>
        <path id="IPAexGothic-41" d="M 4056 63 
L 3444 63 
L 2938 1409 
L 1100 1409 
L 603 63 
L -6 63 
L 1806 4666 
L 2259 4666 
L 4056 63 
z
M 2778 1863 
L 2316 3078 
Q 2125 3588 2028 4000 
L 2009 4000 
Q 1897 3563 1716 3078 
L 1263 1863 
L 2778 1863 
z
" transform="scale(0.015625)"/>
        <path id="IPAexGothic-67" d="M 1331 1150 
Q 1006 1122 1006 900 
Q 1006 613 1763 575 
L 2131 556 
Q 3303 497 3303 -294 
Q 3303 -700 2925 -959 
Q 2519 -1253 1794 -1253 
Q 1138 -1253 738 -1028 
Q 353 -809 353 -428 
Q 353 84 1075 247 
L 1075 269 
Q 506 413 506 778 
Q 506 1116 994 1297 
Q 456 1575 456 2181 
Q 456 2650 769 2963 
Q 1128 3322 1738 3322 
Q 2125 3322 2422 3153 
Q 2650 3453 3259 3463 
L 3259 3013 
Q 2838 3003 2703 2938 
Q 3034 2613 3034 2169 
Q 3034 1728 2734 1425 
Q 2400 1094 1813 1094 
Q 1563 1094 1331 1150 
z
M 1734 2919 
Q 1409 2919 1197 2706 
Q 988 2497 988 2181 
Q 988 1872 1184 1684 
Q 1397 1472 1756 1472 
Q 2094 1472 2297 1678 
Q 2503 1881 2503 2203 
Q 2503 2497 2297 2700 
Q 2081 2919 1734 2919 
z
M 1753 159 
Q 903 159 903 -366 
Q 903 -875 1800 -875 
Q 2378 -875 2638 -606 
Q 2772 -481 2772 -313 
Q 2772 159 1753 159 
z
" transform="scale(0.015625)"/>
       </defs>
       <use xlink:href="#IPAexGothic-41"/>
       <use xlink:href="#IPAexGothic-75" x="63.720703"/>
       <use xlink:href="#IPAexGothic-67" x="124.121094"/>
      </g>
     </g>
    </g>
    <g id="xtick_4">
     <g id="line2d_5">
      <g>
       <use xlink:href="#mbda18e2819" x="141.572305" y="284.991437" style="stroke: #000000; stroke-width: 0.8"/>
      </g>
     </g>
     <g id="text_4">
      <!-- Sep -->
      <g transform="translate(132.697305 299.482062) scale(0.1 -0.1)">
       <defs>
        <path id="IPAexGothic-53" d="M 2919 3641 
Q 2563 4259 1853 4259 
Q 1453 4259 1213 4009 
Q 1028 3803 1028 3534 
Q 1028 3238 1266 3047 
Q 1444 2913 1984 2688 
L 2200 2597 
Q 2925 2306 3191 1953 
Q 3422 1644 3422 1259 
Q 3422 644 2969 288 
Q 2559 -31 1931 -31 
Q 881 -31 313 766 
L 753 1100 
Q 1203 459 1938 459 
Q 2288 459 2534 625 
Q 2841 847 2841 1216 
Q 2841 1503 2616 1728 
Q 2375 1959 1728 2206 
L 1541 2278 
Q 453 2694 453 3481 
Q 453 4006 806 4347 
Q 1203 4725 1863 4725 
Q 2841 4725 3359 3956 
L 2919 3641 
z
" transform="scale(0.015625)"/>
        <path id="IPAexGothic-65" d="M 863 1594 
Q 891 1041 1209 722 
Q 1534 397 1997 397 
Q 2606 397 2963 966 
L 3322 728 
Q 2869 -31 1931 -31 
Q 1222 -31 766 422 
Q 306 884 306 1641 
Q 306 2444 788 2925 
Q 1216 3353 1856 3353 
Q 2459 3353 2866 2956 
Q 3322 2494 3322 1722 
L 3322 1594 
L 863 1594 
z
M 2756 1997 
Q 2709 2431 2450 2681 
Q 2194 2938 1844 2938 
Q 1438 2938 1150 2591 
Q 953 2356 894 1997 
L 2756 1997 
z
" transform="scale(0.015625)"/>
        <path id="IPAexGothic-70" d="M 1075 2688 
Q 1525 3341 2206 3341 
Q 2769 3341 3172 2938 
Q 3641 2469 3641 1644 
Q 3641 841 3178 372 
Q 2775 -31 2200 -31 
Q 1569 -31 1106 497 
L 1106 -1216 
L 563 -1216 
L 563 3250 
L 1075 3250 
L 1075 2688 
z
M 1106 1950 
L 1106 1291 
Q 1106 897 1516 600 
Q 1791 403 2106 403 
Q 2469 403 2725 659 
Q 3066 997 3066 1631 
Q 3066 2200 2784 2559 
Q 2503 2900 2100 2900 
Q 1656 2900 1338 2484 
Q 1106 2184 1106 1950 
z
" transform="scale(0.015625)"/>
       </defs>
       <use xlink:href="#IPAexGothic-53"/>
       <use xlink:href="#IPAexGothic-65" x="58.496094"/>
       <use xlink:href="#IPAexGothic-70" x="115.380859"/>
      </g>
     </g>
    </g>
    <g id="xtick_5">
     <g id="line2d_6">
      <g>
       <use xlink:href="#mbda18e2819" x="178.137493" y="284.991437" style="stroke: #000000; stroke-width: 0.8"/>
      </g>
     </g>
     <g id="text_5">
      <!-- Oct -->
      <g transform="translate(169.702336 299.482062) scale(0.1 -0.1)">
       <defs>
        <path id="IPAexGothic-4f" d="M 2541 4725 
Q 3456 4725 4044 4138 
Q 4709 3472 4709 2331 
Q 4709 1219 4031 550 
Q 3450 -31 2541 -31 
Q 1638 -31 1056 550 
Q 378 1219 378 2356 
Q 378 3469 1044 4138 
Q 1631 4725 2541 4725 
z
M 2541 4266 
Q 1953 4266 1531 3844 
Q 994 3303 994 2350 
Q 994 1391 1531 863 
Q 1947 447 2541 447 
Q 3131 447 3556 863 
Q 4094 1400 4094 2375 
Q 4094 3297 3550 3844 
Q 3138 4266 2541 4266 
z
" transform="scale(0.015625)"/>
        <path id="IPAexGothic-63" d="M 3269 784 
Q 2834 -31 1900 -31 
Q 1228 -31 788 409 
Q 313 891 313 1663 
Q 313 2428 788 2913 
Q 1222 3347 1881 3347 
Q 2813 3347 3206 2541 
L 2763 2309 
Q 2484 2900 1900 2900 
Q 1516 2900 1234 2619 
Q 881 2266 881 1650 
Q 881 1069 1222 728 
Q 1522 428 1956 428 
Q 2547 428 2847 1016 
L 3269 784 
z
" transform="scale(0.015625)"/>
        <path id="IPAexGothic-74" d="M 2125 241 
Q 1769 -6 1397 -6 
Q 653 -6 653 831 
L 653 2859 
L 219 2859 
L 219 3250 
L 653 3250 
L 653 3966 
L 1178 4228 
L 1178 3250 
L 2063 3250 
L 2063 2859 
L 1178 2859 
L 1178 906 
Q 1178 416 1513 416 
Q 1738 416 1941 588 
L 2125 241 
z
" transform="scale(0.015625)"/>
       </defs>
       <use xlink:href="#IPAexGothic-4f"/>
       <use xlink:href="#IPAexGothic-63" x="79.6875"/>
       <use xlink:href="#IPAexGothic-74" x="134.082031"/>
      </g>
     </g>
    </g>
    <g id="xtick_6">
     <g id="line2d_7">
      <g>
       <use xlink:href="#mbda18e2819" x="215.92152" y="284.991437" style="stroke: #000000; stroke-width: 0.8"/>
      </g>
     </g>
     <g id="text_6">
      <!-- Nov -->
      <g transform="translate(206.673082 299.482062) scale(0.1 -0.1)">
       <defs>
        <path id="IPAexGothic-4e" d="M 4244 63 
L 3731 63 
L 1697 3150 
Q 1466 3500 1141 4097 
L 1116 4097 
L 1128 3797 
Q 1159 2803 1159 2469 
L 1159 63 
L 609 63 
L 609 4634 
L 1366 4634 
L 3113 1978 
Q 3453 1447 3713 966 
L 3738 966 
Q 3694 1897 3694 2469 
L 3694 4634 
L 4244 4634 
L 4244 63 
z
" transform="scale(0.015625)"/>
        <path id="IPAexGothic-6f" d="M 1919 3341 
Q 2594 3341 3056 2888 
Q 3531 2413 3531 1638 
Q 3531 888 3066 422 
Q 2609 -31 1919 -31 
Q 1228 -31 781 416 
Q 313 881 313 1656 
Q 313 2413 788 2888 
Q 1241 3341 1919 3341 
z
M 1919 2919 
Q 1519 2919 1241 2631 
Q 888 2278 888 1650 
Q 888 1031 1234 684 
Q 1516 403 1919 403 
Q 2331 403 2609 691 
Q 2956 1038 2956 1672 
Q 2956 2269 2603 2631 
Q 2316 2919 1919 2919 
z
" transform="scale(0.015625)"/>
        <path id="IPAexGothic-76" d="M 3103 3250 
L 1747 6 
L 1375 6 
L 25 3250 
L 628 3250 
L 1338 1388 
L 1522 844 
L 1569 703 
L 1588 703 
Q 1641 884 1822 1388 
L 2516 3250 
L 3103 3250 
z
" transform="scale(0.015625)"/>
       </defs>
       <use xlink:href="#IPAexGothic-4e"/>
       <use xlink:href="#IPAexGothic-6f" x="75.976562"/>
       <use xlink:href="#IPAexGothic-76" x="136.376953"/>
      </g>
     </g>
    </g>
    <g id="xtick_7">
     <g id="line2d_8">
      <g>
       <use xlink:href="#mbda18e2819" x="252.486708" y="284.991437" style="stroke: #000000; stroke-width: 0.8"/>
      </g>
     </g>
     <g id="text_7">
      <!-- Dec -->
      <g transform="translate(243.13827 299.482062) scale(0.1 -0.1)">
       <defs>
        <path id="IPAexGothic-44" d="M 609 4634 
L 1984 4634 
Q 3159 4634 3791 4050 
Q 4456 3444 4456 2356 
Q 4456 1047 3516 441 
Q 2925 63 1941 63 
L 609 63 
L 609 4634 
z
M 1172 556 
L 1894 556 
Q 3853 556 3853 2356 
Q 3853 4147 1928 4147 
L 1172 4147 
L 1172 556 
z
" transform="scale(0.015625)"/>
       </defs>
       <use xlink:href="#IPAexGothic-44"/>
       <use xlink:href="#IPAexGothic-65" x="75.683594"/>
       <use xlink:href="#IPAexGothic-63" x="132.568359"/>
      </g>
     </g>
    </g>
    <g id="xtick_8">
     <g id="line2d_9">
      <g>
       <use xlink:href="#mbda18e2819" x="290.270735" y="284.991437" style="stroke: #000000; stroke-width: 0.8"/>
      </g>
     </g>
     <g id="text_8">
      <!-- 2023 -->
      <g transform="translate(277.67386 299.482062) scale(0.1 -0.1)">
       <defs>
        <path id="IPAexGothic-32" d="M 3659 63 
L 447 63 
L 447 594 
Q 825 1475 1894 2203 
L 2072 2322 
Q 2619 2697 2791 2906 
Q 2988 3153 2988 3444 
Q 2988 3772 2756 4003 
Q 2500 4259 2084 4259 
Q 1250 4259 991 3328 
L 497 3506 
Q 853 4725 2116 4725 
Q 2806 4725 3216 4316 
Q 3575 3947 3575 3425 
Q 3575 3038 3344 2722 
Q 3131 2416 2366 1938 
L 2231 1856 
Q 1256 1253 978 569 
L 3659 569 
L 3659 63 
z
" transform="scale(0.015625)"/>
        <path id="IPAexGothic-30" d="M 2038 4725 
Q 2881 4725 3334 3944 
Q 3694 3325 3694 2344 
Q 3694 1372 3334 741 
Q 2888 -31 2016 -31 
Q 1147 -31 700 741 
Q 341 1372 341 2350 
Q 341 3713 1000 4334 
Q 1419 4725 2038 4725 
z
M 2016 4266 
Q 1516 4266 1228 3759 
Q 934 3247 934 2344 
Q 934 1456 1222 947 
Q 1513 447 2016 447 
Q 2619 447 2909 1153 
Q 3100 1622 3100 2375 
Q 3100 3256 2806 3759 
Q 2509 4266 2016 4266 
z
" transform="scale(0.015625)"/>
        <path id="IPAexGothic-33" d="M 2381 2419 
Q 3506 2216 3506 1278 
Q 3506 716 3128 356 
Q 2709 -31 1944 -31 
Q 797 -31 288 881 
L 756 1131 
Q 1109 441 1938 441 
Q 2425 441 2694 691 
Q 2950 928 2950 1291 
Q 2950 1719 2566 1978 
Q 2216 2213 1644 2213 
L 1363 2213 
L 1363 2669 
L 1656 2669 
Q 2231 2669 2534 2888 
Q 2859 3119 2859 3509 
Q 2859 3934 2494 4138 
Q 2259 4278 1931 4278 
Q 1238 4278 903 3578 
L 434 3803 
Q 897 4725 1938 4725 
Q 2597 4725 3006 4394 
Q 3416 4069 3416 3534 
Q 3416 3028 3019 2706 
Q 2763 2500 2381 2444 
L 2381 2419 
z
" transform="scale(0.015625)"/>
       </defs>
       <use xlink:href="#IPAexGothic-32"/>
       <use xlink:href="#IPAexGothic-30" x="62.988281"/>
       <use xlink:href="#IPAexGothic-32" x="125.976562"/>
       <use xlink:href="#IPAexGothic-33" x="188.964844"/>
      </g>
     </g>
    </g>
    <g id="xtick_9">
     <g id="line2d_10">
      <g>
       <use xlink:href="#mbda18e2819" x="328.054762" y="284.991437" style="stroke: #000000; stroke-width: 0.8"/>
      </g>
     </g>
     <g id="text_9">
      <!-- Feb -->
      <g transform="translate(319.231325 299.482062) scale(0.1 -0.1)">
       <defs>
        <path id="IPAexGothic-46" d="M 3469 4141 
L 1172 4141 
L 1172 2656 
L 3206 2656 
L 3206 2188 
L 1172 2188 
L 1172 63 
L 609 63 
L 609 4634 
L 3469 4634 
L 3469 4141 
z
" transform="scale(0.015625)"/>
        <path id="IPAexGothic-62" d="M 1125 2731 
Q 1550 3341 2219 3341 
Q 2788 3341 3191 2938 
Q 3659 2469 3659 1644 
Q 3659 838 3191 372 
Q 2788 -31 2206 -31 
Q 1559 -31 1088 516 
L 1009 44 
L 581 44 
L 581 4794 
L 1125 4794 
L 1125 2731 
z
M 1125 1997 
L 1125 1253 
Q 1125 888 1528 600 
Q 1803 403 2119 403 
Q 2488 403 2744 659 
Q 3084 1009 3084 1631 
Q 3084 2194 2803 2553 
Q 2525 2900 2125 2900 
Q 1759 2900 1438 2578 
Q 1125 2266 1125 1997 
z
" transform="scale(0.015625)"/>
       </defs>
       <use xlink:href="#IPAexGothic-46"/>
       <use xlink:href="#IPAexGothic-65" x="57.177734"/>
       <use xlink:href="#IPAexGothic-62" x="114.0625"/>
      </g>
     </g>
    </g>
    <g id="xtick_10">
     <g id="line2d_11">
      <g>
       <use xlink:href="#mbda18e2819" x="362.182271" y="284.991437" style="stroke: #000000; stroke-width: 0.8"/>
      </g>
     </g>
     <g id="text_10">
      <!-- Mar -->
      <g transform="translate(353.072896 299.482062) scale(0.1 -0.1)">
       <defs>
        <path id="IPAexGothic-4d" d="M 5147 63 
L 4597 63 
L 4597 2534 
Q 4597 3281 4634 4134 
L 4609 4134 
Q 4356 3409 4066 2675 
L 3066 209 
L 2650 209 
L 1641 2725 
Q 1328 3506 1128 4141 
L 1103 4141 
Q 1141 3131 1141 2553 
L 1141 63 
L 609 63 
L 609 4634 
L 1416 4634 
L 2503 1944 
Q 2697 1472 2869 906 
L 2888 906 
Q 3028 1416 3234 1931 
L 4316 4634 
L 5147 4634 
L 5147 63 
z
" transform="scale(0.015625)"/>
        <path id="IPAexGothic-61" d="M 3156 63 
L 2672 63 
Q 2559 303 2531 556 
L 2509 556 
Q 2147 -25 1428 -25 
Q 934 -25 622 288 
Q 347 563 347 959 
Q 347 1947 2050 1997 
L 2478 2009 
L 2478 2175 
Q 2478 2509 2288 2700 
Q 2088 2900 1775 2900 
Q 1238 2900 969 2378 
L 494 2597 
Q 938 3328 1788 3328 
Q 2375 3328 2691 3000 
Q 2984 2706 2984 2169 
L 2984 997 
Q 2984 400 3156 63 
z
M 2491 1625 
L 2141 1619 
Q 903 1591 903 953 
Q 903 728 1050 581 
Q 1231 403 1525 403 
Q 1934 403 2234 703 
Q 2491 969 2491 1344 
L 2491 1625 
z
" transform="scale(0.015625)"/>
        <path id="IPAexGothic-72" d="M 2309 3316 
L 2213 2769 
Q 2106 2791 2022 2791 
Q 1653 2791 1413 2444 
Q 1113 2006 1113 1675 
L 1113 63 
L 563 63 
L 563 3250 
L 1081 3250 
L 1056 2303 
L 1069 2303 
Q 1422 3341 2097 3341 
Q 2206 3341 2309 3316 
z
" transform="scale(0.015625)"/>
       </defs>
       <use xlink:href="#IPAexGothic-4d"/>
       <use xlink:href="#IPAexGothic-61" x="90.185547"/>
       <use xlink:href="#IPAexGothic-72" x="145.166016"/>
      </g>
     </g>
    </g>
   </g>
   <g id="matplotlib.axis_2">
    <g id="ytick_1">
     <g id="line2d_12">
      <defs>
       <path id="m60062cd760" d="M 0 0 
L -3.5 0 
" style="stroke: #000000; stroke-width: 0.8"/>
      </defs>
      <g>
       <use xlink:href="#m60062cd760" x="29.439063" y="269.014637" style="stroke: #000000; stroke-width: 0.8"/>
      </g>
     </g>
     <g id="text_11">
      <!-- 0.5 -->
      <g transform="translate(7.2 272.759949) scale(0.1 -0.1)">
       <defs>
        <path id="IPAexGothic-2e" d="M 1184 63 
L 494 63 
L 494 753 
L 1184 753 
L 1184 63 
z
" transform="scale(0.015625)"/>
        <path id="IPAexGothic-35" d="M 1178 2603 
Q 1634 2963 2172 2963 
Q 2816 2963 3241 2528 
Q 3638 2113 3638 1497 
Q 3638 938 3297 513 
Q 2869 -31 2031 -31 
Q 959 -31 469 784 
L 938 1028 
Q 1309 434 2013 434 
Q 2466 434 2769 716 
Q 3081 1013 3081 1503 
Q 3081 1966 2806 2241 
Q 2519 2528 2056 2528 
Q 1406 2528 1072 2028 
L 591 2091 
L 884 4634 
L 3406 4634 
L 3406 4153 
L 1341 4153 
L 1134 2603 
L 1178 2603 
z
" transform="scale(0.015625)"/>
       </defs>
       <use xlink:href="#IPAexGothic-30"/>
       <use xlink:href="#IPAexGothic-2e" x="62.988281"/>
       <use xlink:href="#IPAexGothic-35" x="89.404297"/>
      </g>
     </g>
    </g>
    <g id="ytick_2">
     <g id="line2d_13">
      <g>
       <use xlink:href="#m60062cd760" x="29.439063" y="211.199039" style="stroke: #000000; stroke-width: 0.8"/>
      </g>
     </g>
     <g id="text_12">
      <!-- 1.0 -->
      <g transform="translate(7.2 214.944352) scale(0.1 -0.1)">
       <defs>
        <path id="IPAexGothic-31" d="M 2463 63 
L 1900 63 
L 1900 4103 
Q 1372 3922 788 3797 
L 684 4231 
Q 1519 4441 2106 4731 
L 2463 4731 
L 2463 63 
z
" transform="scale(0.015625)"/>
       </defs>
       <use xlink:href="#IPAexGothic-31"/>
       <use xlink:href="#IPAexGothic-2e" x="62.988281"/>
       <use xlink:href="#IPAexGothic-30" x="89.404297"/>
      </g>
     </g>
    </g>
    <g id="ytick_3">
     <g id="line2d_14">
      <g>
       <use xlink:href="#m60062cd760" x="29.439063" y="153.383442" style="stroke: #000000; stroke-width: 0.8"/>
      </g>
     </g>
     <g id="text_13">
      <!-- 1.5 -->
      <g transform="translate(7.2 157.128754) scale(0.1 -0.1)">
       <use xlink:href="#IPAexGothic-31"/>
       <use xlink:href="#IPAexGothic-2e" x="62.988281"/>
       <use xlink:href="#IPAexGothic-35" x="89.404297"/>
      </g>
     </g>
    </g>
    <g id="ytick_4">
     <g id="line2d_15">
      <g>
       <use xlink:href="#m60062cd760" x="29.439063" y="95.567844" style="stroke: #000000; stroke-width: 0.8"/>
      </g>
     </g>
     <g id="text_14">
      <!-- 2.0 -->
      <g transform="translate(7.2 99.313157) scale(0.1 -0.1)">
       <use xlink:href="#IPAexGothic-32"/>
       <use xlink:href="#IPAexGothic-2e" x="62.988281"/>
       <use xlink:href="#IPAexGothic-30" x="89.404297"/>
      </g>
     </g>
    </g>
    <g id="ytick_5">
     <g id="line2d_16">
      <g>
       <use xlink:href="#m60062cd760" x="29.439063" y="37.752247" style="stroke: #000000; stroke-width: 0.8"/>
      </g>
     </g>
     <g id="text_15">
      <!-- 2.5 -->
      <g transform="translate(7.2 41.497559) scale(0.1 -0.1)">
       <use xlink:href="#IPAexGothic-32"/>
       <use xlink:href="#IPAexGothic-2e" x="62.988281"/>
       <use xlink:href="#IPAexGothic-35" x="89.404297"/>
      </g>
     </g>
    </g>
   </g>
   <g id="line2d_17">
    <path d="M 29.439062 227.411867 
L 30.657902 255.471758 
L 31.876742 269.405805 
L 33.095581 242.945807 
L 34.314421 262.441258 
L 36.7521 251.639145 
L 37.97094 227.514621 
L 39.189779 229.940841 
L 40.408619 194.078383 
L 41.627458 246.403784 
L 42.846298 250.411663 
L 44.065138 205.84664 
L 45.283977 249.191321 
L 46.502817 272.895437 
L 47.721656 243.090535 
L 48.940496 247.559579 
L 50.159336 238.429093 
L 51.378175 112.810292 
L 52.597015 184.323192 
L 53.815854 181.498781 
L 55.034694 30.975437 
L 57.472373 168.571026 
L 58.691213 110.868109 
L 59.910052 213.126183 
L 61.128892 156.293505 
L 62.347731 124.518024 
L 63.566571 151.875457 
L 64.785411 236.751655 
L 66.00425 106.655378 
L 67.22309 51.387485 
L 68.441929 102.788184 
L 69.660769 95.926279 
L 70.879609 36.542983 
L 72.098448 79.37836 
L 73.317288 35.439549 
L 74.536127 110.396771 
L 75.754967 116.980214 
L 76.973807 109.726148 
L 78.192646 177.160719 
L 79.411486 110.814502 
L 80.630325 153.702013 
L 81.849165 148.460822 
L 83.068004 164.812112 
L 84.286844 190.526245 
L 85.505684 181.526351 
L 86.724523 197.096587 
L 87.943363 219.976945 
L 89.162202 163.710275 
L 90.381042 173.022011 
L 91.599882 196.817697 
L 92.818721 179.527296 
L 94.037561 191.661352 
L 95.2564 192.887858 
L 96.47524 173.15897 
L 97.69408 188.50237 
L 98.912919 201.809366 
L 100.131759 195.197746 
L 101.350598 183.412435 
L 102.569438 192.046725 
L 103.788278 204.737627 
L 105.007117 199.025674 
L 106.225957 189.016626 
L 107.444796 185.809755 
L 108.663636 182.941981 
L 109.882475 200.02008 
L 111.101315 192.032303 
L 112.320155 181.775482 
L 113.538994 186.871327 
L 114.757834 193.9839 
L 115.976673 204.601463 
L 117.195513 225.669065 
L 118.414353 207.989558 
L 119.633192 218.057369 
L 120.852032 204.232725 
L 122.070871 217.282458 
L 123.289711 202.720535 
L 124.508551 195.141529 
L 125.72739 153.461242 
L 126.94623 171.531238 
L 128.165069 185.828914 
L 129.383909 204.950127 
L 130.602749 187.736367 
L 131.821588 211.671324 
L 133.040428 216.92144 
L 134.259267 231.587854 
L 135.478107 248.509599 
L 136.696946 240.826108 
L 137.915786 241.29957 
L 139.134626 247.072575 
L 140.353465 251.367839 
L 141.572305 251.669425 
L 142.791144 251.785215 
L 144.009984 242.900107 
L 145.228824 251.663262 
L 146.447663 241.186243 
L 147.666503 228.929625 
L 148.885342 240.670472 
L 150.104182 239.689961 
L 151.323022 228.587222 
L 152.541861 234.114512 
L 153.760701 220.053728 
L 154.97954 221.634093 
L 156.19838 247.789493 
L 157.417219 250.578039 
L 158.636059 230.847867 
L 159.854899 240.571341 
L 161.073738 229.667605 
L 162.292578 228.965012 
L 163.511417 226.507 
L 164.730257 266.267581 
L 165.949097 173.994674 
L 167.167936 228.352097 
L 168.386776 212.968149 
L 169.605615 243.863512 
L 170.824455 195.951487 
L 172.043295 187.500784 
L 173.262134 195.32975 
L 174.480974 238.855842 
L 175.699813 224.563828 
L 176.918653 239.674853 
L 178.137493 205.067187 
L 179.356332 219.657973 
L 180.575172 258.893645 
L 181.794011 189.095647 
L 183.012851 231.988543 
L 184.23169 230.452082 
L 185.45053 208.848889 
L 186.66937 214.413367 
L 187.888209 237.774657 
L 189.107049 208.216448 
L 190.325888 269.328924 
L 191.544728 186.857034 
L 192.763568 168.652783 
L 193.982407 211.199039 
L 195.201247 197.903063 
L 196.420086 190.42842 
L 197.638926 209.746404 
L 198.857766 135.123595 
L 200.076605 212.926136 
L 201.295445 239.34414 
L 202.514284 184.631705 
L 203.733124 193.892671 
L 204.951964 220.351516 
L 206.170803 197.002011 
L 207.389643 191.634272 
L 208.608482 213.253557 
L 209.827322 183.049443 
L 211.046161 199.198481 
L 212.265001 190.346771 
L 213.483841 160.309806 
L 214.70268 189.784075 
L 215.92152 198.104074 
L 217.140359 152.110827 
L 218.359199 152.9204 
L 219.578039 232.748365 
L 220.796878 165.024121 
L 222.015718 194.085734 
L 223.234557 199.838398 
L 224.453397 173.564927 
L 225.672237 209.205445 
L 226.891076 206.690562 
L 228.109916 156.249641 
L 229.328755 220.402577 
L 230.547595 215.284532 
L 231.766435 225.924092 
L 232.985274 188.099011 
L 234.204114 185.511636 
L 235.422953 211.199039 
L 236.641793 194.160213 
L 237.860632 184.55213 
L 239.079472 182.799057 
L 241.517151 203.930102 
L 242.735991 168.757197 
L 243.95483 220.491359 
L 245.17367 171.577359 
L 247.611349 192.11637 
L 248.830189 204.402838 
L 250.049028 198.987955 
L 251.267868 181.777237 
L 252.486708 142.696764 
L 253.705547 213.580923 
L 254.924387 220.529523 
L 256.143226 204.080643 
L 257.362066 205.292279 
L 258.580906 181.962456 
L 259.799745 194.793532 
L 261.018585 197.432704 
L 262.237424 173.295964 
L 263.456264 175.045451 
L 264.675103 167.16196 
L 265.893943 187.120934 
L 267.112783 183.834422 
L 268.331622 173.778001 
L 269.550462 181.23856 
L 270.769301 201.020413 
L 271.988141 187.828789 
L 273.206981 213.66936 
L 274.42582 207.768569 
L 275.64466 207.295129 
L 276.863499 192.832229 
L 278.082339 206.958159 
L 279.301179 188.728128 
L 280.520018 193.851266 
L 281.738858 207.103197 
L 282.957697 215.224404 
L 284.176537 196.113595 
L 285.395376 220.91992 
L 286.614216 200.04709 
L 287.833056 223.444191 
L 289.051895 251.024981 
L 290.270735 228.180558 
L 291.489574 208.755181 
L 292.708414 251.311193 
L 293.927254 254.432046 
L 295.146093 215.74342 
L 296.364933 126.299141 
L 297.583772 90.185267 
L 298.802612 169.01121 
L 300.021452 202.233317 
L 301.240291 208.810336 
L 302.459131 167.736099 
L 303.67797 215.685286 
L 304.89681 255.304956 
L 306.11565 257.151057 
L 307.334489 241.910597 
L 308.553329 230.363911 
L 309.772168 201.639485 
L 310.991008 252.591109 
L 312.209847 261.202922 
L 313.428687 248.191392 
L 314.647527 245.888016 
L 315.866366 248.528538 
L 317.085206 233.937612 
L 318.304045 243.873594 
L 319.522885 245.699396 
L 320.741725 238.379427 
L 321.960564 250.421781 
L 323.179404 242.025158 
L 324.398243 235.679743 
L 325.617083 231.977605 
L 326.835923 268.725993 
L 328.054762 251.010186 
L 329.273602 243.44844 
L 330.492441 231.173865 
L 331.711281 246.470516 
L 332.930121 240.806074 
L 334.14896 205.729567 
L 335.3678 216.74151 
L 336.586639 221.239134 
L 337.805479 222.049942 
L 339.024318 236.243828 
L 340.243158 216.587974 
L 341.461998 250.056764 
L 342.680837 220.887451 
L 343.899677 228.799652 
L 345.118516 253.712581 
L 346.337356 218.850978 
L 347.556196 215.357996 
L 348.775035 237.280047 
L 349.993875 193.27922 
L 351.212714 224.105076 
L 352.431554 238.379537 
L 353.650394 241.772305 
L 354.869233 251.269511 
L 356.088073 255.03236 
L 358.525752 237.065956 
L 359.744592 226.130001 
L 360.963431 244.38679 
L 362.182271 206.157732 
L 363.40111 233.765533 
L 364.61995 159.336552 
L 365.838789 185.327724 
L 367.057629 214.962751 
L 368.276469 217.21233 
L 369.495308 183.217935 
L 370.714148 224.645526 
L 371.932987 214.214028 
L 373.151827 235.628575 
L 374.370667 247.936648 
L 375.589506 239.212375 
L 376.808346 229.20156 
L 378.027185 240.777423 
L 379.246025 253.457905 
L 380.464865 223.82357 
L 381.683704 230.110703 
L 382.902544 230.748482 
L 384.121383 221.703691 
L 385.340223 218.423659 
L 385.340223 218.423659 
" clip-path="url(#p0f9369f869)" style="fill: none; stroke: #1f77b4; stroke-width: 1.5; stroke-linecap: square"/>
   </g>
   <g id="line2d_18">
    <path d="M 29.439062 230.929789 
L 30.657902 242.60231 
L 31.876742 262.8168 
L 33.095581 257.425513 
L 34.314421 253.337157 
L 35.53326 259.836211 
L 36.7521 254.434415 
L 37.97094 240.414674 
L 39.189779 228.735232 
L 40.408619 213.41839 
L 41.627458 223.501825 
L 42.846298 248.433331 
L 44.065138 230.677266 
L 45.283977 229.912564 
L 46.502817 262.11981 
L 47.721656 259.625445 
L 48.940496 245.355694 
L 50.159336 243.118728 
L 51.378175 189.281671 
L 52.597015 152.189606 
L 53.815854 182.917915 
L 55.034694 119.473036 
L 56.253533 68.196709 
L 57.472373 137.669929 
L 58.691213 141.957318 
L 59.910052 170.127431 
L 61.128892 187.579679 
L 62.347731 141.084002 
L 63.566571 138.693349 
L 64.785411 201.292679 
L 66.00425 186.000414 
L 67.22309 80.567026 
L 68.441929 78.413733 
L 69.660769 99.383107 
L 70.879609 67.931655 
L 72.098448 58.815077 
L 73.317288 58.306173 
L 74.536127 75.699401 
L 75.754967 113.713912 
L 76.973807 113.383995 
L 78.192646 146.569691 
L 79.411486 147.022086 
L 80.630325 133.443524 
L 81.849165 151.100956 
L 83.068004 156.832948 
L 84.286844 178.224324 
L 85.505684 186.098223 
L 86.724523 189.532009 
L 87.943363 209.091256 
L 89.162202 194.807872 
L 90.381042 168.434555 
L 91.599882 185.419494 
L 92.818721 188.44227 
L 94.037561 185.724694 
L 95.2564 192.276003 
L 96.47524 183.362139 
L 97.69408 181.032368 
L 98.912919 195.324076 
L 100.131759 198.546144 
L 101.350598 189.431392 
L 102.569438 187.79659 
L 103.788278 198.54902 
L 105.007117 201.914295 
L 106.225957 194.115474 
L 107.444796 187.422411 
L 108.663636 184.383085 
L 109.882475 191.750659 
L 111.101315 196.087179 
L 112.320155 186.997904 
L 113.538994 184.346184 
L 114.757834 190.473981 
L 115.976673 199.403219 
L 117.195513 215.633088 
L 118.414353 217.185071 
L 119.633192 213.134848 
L 120.852032 211.351742 
L 122.070871 210.94113 
L 123.289711 210.228598 
L 124.508551 198.987184 
L 125.72739 175.731796 
L 126.94623 162.744798 
L 129.383909 195.737687 
L 130.602749 196.62741 
L 131.821588 200.268399 
L 133.040428 214.327003 
L 134.259267 224.517111 
L 135.478107 240.462163 
L 136.696946 244.757718 
L 137.915786 241.063165 
L 139.134626 244.236496 
L 140.353465 249.249927 
L 141.572305 251.518783 
L 142.791144 251.727342 
L 144.009984 247.466905 
L 145.228824 247.402446 
L 146.447663 246.595581 
L 147.666503 235.262778 
L 148.885342 234.987471 
L 150.104182 240.181603 
L 151.323022 234.304978 
L 152.541861 231.390872 
L 153.760701 227.332189 
L 154.97954 220.846856 
L 157.417219 249.196285 
L 158.636059 241.279862 
L 159.854899 235.839395 
L 161.073738 235.281663 
L 162.292578 229.316941 
L 163.511417 227.743627 
L 164.730257 248.882551 
L 165.949097 230.621466 
L 167.167936 204.147875 
L 168.386776 220.93913 
L 169.605615 229.635769 
L 170.824455 222.625721 
L 172.043295 191.792225 
L 173.262134 191.471858 
L 174.480974 219.272458 
L 175.699813 231.97864 
L 176.918653 232.42119 
L 178.137493 223.814193 
L 179.356332 212.595296 
L 180.575172 241.501939 
L 181.794011 230.097519 
L 183.012851 212.536835 
L 184.23169 231.223399 
L 185.45053 220.196168 
L 186.66937 211.66473 
L 187.888209 226.773505 
L 189.107049 224.052711 
L 190.325888 244.24423 
L 191.544728 237.116008 
L 192.763568 178.033043 
L 195.201247 204.731901 
L 196.420086 194.218394 
L 197.638926 200.456001 
L 198.857766 177.011185 
L 200.076605 179.059561 
L 201.295445 227.005264 
L 202.514284 215.29372 
L 203.733124 189.34014 
L 204.951964 207.855357 
L 206.170803 209.25497 
L 207.389643 194.345323 
L 208.608482 202.914504 
L 209.827322 199.04078 
L 211.046161 191.364392 
L 212.265001 194.846812 
L 213.483841 176.074523 
L 214.70268 175.764073 
L 215.92152 194.009205 
L 217.140359 176.860376 
L 218.359199 152.516084 
L 219.578039 198.91713 
L 220.796878 203.448625 
L 222.015718 180.273516 
L 223.234557 196.993923 
L 224.453397 187.318791 
L 225.672237 192.562593 
L 226.891076 207.954654 
L 228.109916 183.674736 
L 229.328755 192.091624 
L 230.547595 217.873602 
L 231.766435 220.737602 
L 232.985274 208.513572 
L 234.204114 186.8113 
L 235.422953 198.998945 
L 236.641793 202.972279 
L 237.860632 189.440136 
L 239.079472 183.678277 
L 240.298312 188.335204 
L 241.517151 198.897374 
L 242.735991 187.448754 
L 243.95483 197.179515 
L 245.17367 198.341262 
L 246.39251 176.894581 
L 247.611349 187.16406 
L 248.830189 198.406453 
L 250.049028 201.724689 
L 251.267868 190.654224 
L 252.486708 163.401008 
L 253.705547 182.424595 
L 254.924387 217.110216 
L 256.143226 212.600777 
L 257.362066 204.687964 
L 258.580906 194.139114 
L 259.799745 188.526714 
L 261.018585 196.119779 
L 262.237424 185.880047 
L 263.456264 174.173214 
L 264.675103 171.1536 
L 265.893943 177.474475 
L 267.112783 185.48723 
L 268.331622 178.891638 
L 269.550462 177.554882 
L 270.769301 191.49043 
L 271.988141 194.588989 
L 273.206981 201.412831 
L 274.42582 210.756455 
L 275.64466 207.532084 
L 276.863499 200.270107 
L 278.082339 200.091846 
L 279.301179 198.165608 
L 280.520018 191.313905 
L 281.738858 200.651084 
L 282.957697 211.235099 
L 284.176537 206.046382 
L 285.395376 209.168684 
L 286.614216 210.952529 
L 287.833056 212.341773 
L 289.051895 238.302243 
L 290.270735 240.353858 
L 291.489574 218.904029 
L 292.708414 232.400817 
L 293.927254 252.888083 
L 295.146093 237.150337 
L 296.364933 177.577562 
L 297.583772 108.989297 
L 298.802612 133.576313 
L 300.021452 186.602691 
L 301.240291 205.566408 
L 302.459131 189.803691 
L 303.67797 193.854637 
L 304.89681 237.669294 
L 306.11565 256.234041 
L 307.334489 249.907348 
L 308.553329 236.3212 
L 309.772168 216.936234 
L 310.991008 230.424572 
L 312.209847 257.029702 
L 313.428687 254.991137 
L 314.647527 247.048016 
L 315.866366 247.219224 
L 317.085206 241.544538 
L 318.304045 239.046068 
L 319.522885 244.791574 
L 320.741725 242.11844 
L 321.960564 244.62081 
L 323.179404 246.332876 
L 324.398243 238.909678 
L 325.617083 233.847098 
L 326.835923 252.591834 
L 328.054762 260.456547 
L 329.273602 247.319155 
L 330.492441 237.521782 
L 331.711281 239.155159 
L 332.930121 243.68652 
L 334.14896 224.763671 
L 335.3678 211.366742 
L 336.586639 219.013772 
L 337.805479 221.645319 
L 339.024318 229.405031 
L 340.243158 226.898006 
L 341.461998 234.831969 
L 342.680837 236.643788 
L 343.899677 224.92031 
L 345.118516 242.167574 
L 346.337356 237.975354 
L 347.556196 217.118387 
L 348.775035 226.918474 
L 349.993875 217.470651 
L 351.212714 209.70189 
L 352.431554 231.509136 
L 353.650394 240.092508 
L 356.088073 253.174961 
L 357.306912 250.620979 
L 358.525752 241.617658 
L 359.744592 231.755086 
L 360.963431 235.714517 
L 362.182271 227.087281 
L 363.40111 220.856887 
L 364.61995 201.979325 
L 365.838789 172.879669 
L 367.057629 201.014775 
L 368.276469 216.093253 
L 369.495308 201.361197 
L 370.714148 205.689899 
L 371.932987 219.5565 
L 373.151827 225.485354 
L 374.370667 242.005556 
L 375.589506 243.688865 
L 376.808346 234.342313 
L 378.027185 235.172055 
L 379.246025 247.370212 
L 380.464865 239.894402 
L 381.683704 227.016627 
L 382.902544 230.43012 
L 384.121383 226.327784 
L 385.340223 220.076272 
L 385.340223 220.076272 
" clip-path="url(#p0f9369f869)" style="fill: none; stroke: #ff7f0e; stroke-width: 1.5; stroke-linecap: square"/>
   </g>
   <g id="line2d_19">
    <path d="M 29.439062 229.122786 
L 30.657902 239.928401 
L 31.876742 252.698705 
L 33.095581 256.780278 
L 34.314421 259.139403 
L 35.53326 254.622372 
L 36.7521 257.208287 
L 37.97094 246.388486 
L 39.189779 237.055655 
L 40.408619 218.326475 
L 42.846298 233.387372 
L 44.065138 236.234427 
L 45.283977 237.293425 
L 47.721656 256.313321 
L 48.940496 255.822722 
L 50.159336 243.109331 
L 51.378175 212.36467 
L 53.815854 162.563334 
L 55.034694 143.84129 
L 56.253533 113.406318 
L 57.472373 107.256927 
L 58.691213 129.127564 
L 59.910052 169.610337 
L 61.128892 165.645532 
L 62.347731 169.115602 
L 63.566571 144.753156 
L 64.785411 179.647632 
L 66.00425 175.437505 
L 67.22309 150.710969 
L 68.441929 88.208754 
L 69.660769 84.394062 
L 70.879609 80.114816 
L 72.098448 71.804879 
L 73.317288 51.239386 
L 74.536127 76.931758 
L 75.754967 90.291085 
L 76.973807 112.392863 
L 78.192646 137.201801 
L 79.411486 135.362509 
L 80.630325 149.276885 
L 81.849165 138.58476 
L 83.068004 155.795645 
L 84.286844 168.900399 
L 87.943363 200.539182 
L 89.162202 195.575228 
L 90.381042 187.912342 
L 91.599882 178.52472 
L 92.818721 183.482093 
L 94.037561 189.523726 
L 95.2564 188.153999 
L 96.47524 186.18367 
L 97.69408 185.09643 
L 98.912919 188.315827 
L 100.131759 195.281979 
L 101.350598 193.687884 
L 102.569438 190.308761 
L 103.788278 193.689874 
L 105.007117 198.708102 
L 106.225957 197.755094 
L 107.444796 191.402728 
L 108.663636 185.944654 
L 109.882475 189.7987 
L 111.101315 191.844605 
L 112.320155 191.480812 
L 113.538994 186.955724 
L 114.757834 187.634041 
L 115.976673 195.355837 
L 117.195513 208.84012 
L 119.633192 217.476612 
L 120.852032 210.241718 
L 122.070871 213.36349 
L 123.289711 208.263285 
L 124.508551 205.402114 
L 125.72739 185.324114 
L 126.94623 174.344388 
L 128.165069 170.831497 
L 129.383909 188.120092 
L 130.602749 193.123075 
L 131.821588 201.848623 
L 133.040428 206.082407 
L 134.259267 220.402845 
L 135.478107 233.236603 
L 136.696946 240.583648 
L 137.915786 243.620823 
L 139.134626 243.114997 
L 141.572305 250.064959 
L 142.791144 251.607698 
L 144.009984 248.893225 
L 145.228824 248.891095 
L 146.447663 245.382199 
L 148.885342 237.10204 
L 150.104182 236.582508 
L 151.323022 236.477418 
L 152.541861 234.241533 
L 153.760701 227.752305 
L 154.97954 225.467971 
L 156.19838 230.718701 
L 157.417219 240.92208 
L 158.636059 243.507227 
L 159.854899 241.044337 
L 161.073738 233.826969 
L 162.292578 233.222764 
L 163.511417 228.38915 
L 164.730257 242.740121 
L 165.949097 229.269077 
L 167.167936 229.870881 
L 168.386776 207.161383 
L 169.605615 229.209749 
L 170.824455 219.501156 
L 172.043295 212.031087 
L 173.262134 192.98185 
L 174.480974 209.581314 
L 175.699813 221.065989 
L 176.918653 234.616737 
L 178.137493 224.06468 
L 179.356332 222.447011 
L 180.575172 230.764786 
L 181.794011 226.735849 
L 183.012851 230.732013 
L 184.23169 218.850986 
L 185.45053 224.281475 
L 186.66937 218.302399 
L 187.888209 221.123664 
L 189.107049 220.93512 
L 190.325888 242.141688 
L 191.544728 228.364316 
L 192.763568 218.44859 
L 193.982407 190.029585 
L 195.201247 193.727182 
L 196.420086 200.139008 
L 197.638926 199.610689 
L 198.857766 181.624175 
L 200.076605 190.09163 
L 202.514284 214.510045 
L 203.733124 208.573118 
L 204.951964 200.569432 
L 206.170803 204.342327 
L 207.389643 203.652593 
L 208.608482 200.974213 
L 209.827322 196.618162 
L 211.046161 199.093369 
L 212.265001 191.026031 
L 213.483841 184.214067 
L 214.70268 180.790352 
L 215.92152 183.611312 
L 217.140359 181.298308 
L 218.359199 169.270937 
L 219.578039 184.905831 
L 220.796878 188.492178 
L 222.015718 200.403438 
L 223.234557 187.108997 
L 224.453397 189.611924 
L 225.672237 195.033037 
L 226.891076 197.447481 
L 228.109916 192.747876 
L 229.328755 197.145102 
L 230.547595 200.314175 
L 231.766435 220.626045 
L 234.204114 201.295556 
L 235.422953 195.464272 
L 236.641793 197.405968 
L 237.860632 197.113713 
L 239.079472 187.261183 
L 240.298312 187.08549 
L 241.517151 193.741822 
L 242.735991 189.550213 
L 243.95483 199.469935 
L 245.17367 189.152671 
L 246.39251 193.119185 
L 247.611349 182.150609 
L 248.830189 193.164416 
L 250.049028 198.60058 
L 251.267868 195.400607 
L 252.486708 176.246527 
L 253.705547 182.20913 
L 254.924387 196.443074 
L 256.143226 212.928431 
L 257.362066 210.214796 
L 258.580906 197.539344 
L 259.799745 194.357613 
L 262.237424 188.916137 
L 263.456264 182.357292 
L 264.675103 171.871023 
L 265.893943 176.669151 
L 267.112783 179.625281 
L 268.331622 181.687232 
L 269.550462 179.678119 
L 270.769301 185.826618 
L 271.988141 190.280728 
L 273.206981 201.282161 
L 274.42582 203.568241 
L 275.64466 209.613962 
L 276.863499 202.82065 
L 278.082339 202.539923 
L 279.301179 196.411828 
L 280.520018 196.743275 
L 281.738858 196.795762 
L 282.957697 205.708887 
L 284.176537 206.399686 
L 285.395376 211.222913 
L 286.614216 206.203506 
L 287.833056 215.275699 
L 289.051895 227.04317 
L 290.270735 235.049338 
L 291.489574 230.893623 
L 292.708414 231.014516 
L 293.927254 240.403632 
L 295.146093 242.143466 
L 296.364933 209.55923 
L 297.583772 152.790998 
L 298.802612 131.180415 
L 300.021452 159.879638 
L 301.240291 194.434509 
L 302.459131 194.078898 
L 303.67797 199.039398 
L 304.89681 218.686553 
L 306.11565 244.703586 
L 307.334489 251.750355 
L 308.553329 243.877834 
L 309.772168 225.985777 
L 310.991008 230.404356 
L 313.428687 254.199875 
L 314.647527 252.076606 
L 317.085206 243.017663 
L 318.304045 242.328067 
L 319.522885 241.322359 
L 320.741725 242.707579 
L 321.960564 244.981923 
L 323.179404 243.764543 
L 324.398243 242.927891 
L 325.617083 236.657187 
L 326.835923 247.335431 
L 328.054762 252.068319 
L 329.273602 255.212423 
L 330.492441 242.265414 
L 331.711281 240.610269 
L 332.930121 239.708955 
L 334.14896 232.583033 
L 335.3678 222.156768 
L 336.586639 214.756056 
L 337.805479 220.03548 
L 339.024318 226.75576 
L 340.243158 225.307435 
L 341.461998 235.305016 
L 342.680837 230.400667 
L 343.899677 234.101419 
L 345.118516 235.597281 
L 346.337356 235.016415 
L 347.556196 230.998408 
L 348.775035 224.298607 
L 349.993875 216.77092 
L 351.212714 219.728418 
L 352.431554 220.168553 
L 353.650394 235.06089 
L 354.869233 243.990749 
L 356.088073 249.55491 
L 357.306912 250.837773 
L 358.525752 246.346832 
L 359.744592 236.739674 
L 360.963431 236.167242 
L 362.182271 226.769203 
L 363.40111 229.364982 
L 364.61995 203.387961 
L 365.838789 196.658751 
L 367.057629 188.424055 
L 368.276469 206.663801 
L 369.495308 206.069522 
L 370.714148 209.659357 
L 371.932987 208.600655 
L 373.151827 225.206181 
L 374.370667 233.601789 
L 375.589506 241.084532 
L 376.808346 239.115899 
L 378.027185 236.539116 
L 379.246025 241.724612 
L 380.464865 240.189745 
L 381.683704 236.74839 
L 382.902544 228.276412 
L 384.121383 227.604918 
L 385.340223 223.759277 
L 385.340223 223.759277 
" clip-path="url(#p0f9369f869)" style="fill: none; stroke: #2ca02c; stroke-width: 1.5; stroke-linecap: square"/>
   </g>
   <g id="line2d_20">
    <path d="M 29.439062 221.275211 
L 30.657902 236.505406 
L 31.876742 248.478994 
L 33.095581 250.372301 
L 34.314421 258.240554 
L 35.53326 258.641514 
L 36.7521 253.887849 
L 37.97094 250.742613 
L 39.189779 242.558839 
L 40.408619 227.832517 
L 41.627458 226.152528 
L 42.846298 232.537407 
L 44.065138 227.154092 
L 45.283977 239.663468 
L 46.502817 247.949949 
L 47.721656 246.12502 
L 48.940496 254.219959 
L 50.159336 251.824807 
L 51.378175 220.968504 
L 52.597015 205.919399 
L 53.815854 186.135769 
L 55.034694 136.533121 
L 56.253533 133.903952 
L 57.472373 128.780364 
L 58.691213 108.165345 
L 59.910052 154.661857 
L 61.128892 166.381937 
L 62.347731 156.222628 
L 64.785411 174.127491 
L 66.00425 164.056515 
L 67.22309 151.002816 
L 68.441929 139.788926 
L 69.660769 90.161987 
L 70.879609 73.226844 
L 72.098448 79.930908 
L 73.317288 63.162834 
L 74.536127 67.394559 
L 75.754967 87.608872 
L 76.973807 95.307164 
L 78.192646 130.829051 
L 79.411486 130.923693 
L 81.849165 149.07322 
L 83.068004 145.514995 
L 84.286844 165.230701 
L 85.505684 172.15619 
L 86.724523 183.990017 
L 87.943363 198.107108 
L 89.162202 192.195781 
L 90.381042 190.267628 
L 91.599882 190.194295 
L 92.818721 178.776002 
L 94.037561 185.572177 
L 95.2564 190.372599 
L 96.47524 184.54832 
L 97.69408 186.766963 
L 98.912919 189.473261 
L 100.131759 190.069324 
L 101.350598 192.410021 
L 105.007117 195.044354 
L 106.225957 196.351076 
L 107.444796 194.867136 
L 108.663636 189.335364 
L 109.882475 189.603599 
L 111.101315 190.360547 
L 112.320155 189.394825 
L 113.538994 190.342872 
L 114.757834 188.74688 
L 115.976673 192.084855 
L 117.195513 203.69443 
L 118.414353 208.628052 
L 119.633192 214.390906 
L 120.852032 214.306201 
L 122.070871 212.043229 
L 123.289711 210.791529 
L 124.508551 205.110817 
L 125.72739 194.096195 
L 126.94623 181.995215 
L 128.165069 177.300368 
L 129.383909 180.166067 
L 130.602749 188.02426 
L 131.821588 198.022962 
L 134.259267 213.03684 
L 135.478107 228.256977 
L 136.696946 235.194567 
L 137.915786 240.763189 
L 139.134626 244.49752 
L 140.353465 245.259188 
L 142.791144 250.498685 
L 144.009984 249.519384 
L 145.228824 249.59516 
L 146.447663 247.032432 
L 147.666503 241.548346 
L 148.885342 240.987516 
L 151.323022 234.646856 
L 152.541861 235.892398 
L 154.97954 226.256947 
L 156.19838 231.579139 
L 157.417219 236.122417 
L 158.636059 238.507266 
L 159.854899 242.782759 
L 161.073738 238.331566 
L 162.292578 232.634606 
L 163.511417 231.587191 
L 164.730257 239.646891 
L 165.949097 229.193149 
L 167.167936 229.040635 
L 168.386776 225.896331 
L 169.605615 217.632953 
L 170.824455 221.78581 
L 172.043295 212.266073 
L 173.262134 208.065956 
L 174.480974 206.313066 
L 175.699813 213.521109 
L 176.918653 226.061058 
L 178.137493 227.980673 
L 179.356332 222.980288 
L 180.575172 233.074257 
L 181.794011 221.710038 
L 183.012851 228.075685 
L 184.23169 230.662107 
L 185.45053 216.432907 
L 186.66937 221.898783 
L 187.888209 223.537176 
L 189.107049 218.034898 
L 190.325888 235.927619 
L 191.544728 230.806248 
L 192.763568 215.976432 
L 193.982407 216.679967 
L 195.201247 192.041922 
L 196.420086 192.910047 
L 197.638926 202.612348 
L 198.857766 185.877122 
L 200.076605 190.175906 
L 201.295445 204.536808 
L 202.514284 198.448671 
L 203.733124 209.676726 
L 204.951964 211.634562 
L 206.170803 199.686873 
L 207.389643 201.281933 
L 208.608482 206.126362 
L 209.827322 196.71423 
L 211.046161 197.268091 
L 212.265001 196.960725 
L 213.483841 183.923798 
L 214.70268 185.627441 
L 215.92152 185.325715 
L 217.140359 176.313222 
L 218.359199 174.670499 
L 219.578039 188.327129 
L 220.796878 180.177036 
L 223.234557 200.262414 
L 224.453397 183.839538 
L 225.672237 194.796847 
L 226.891076 198.049398 
L 228.109916 188.189868 
L 229.328755 200.271432 
L 230.547595 201.939318 
L 231.766435 207.269481 
L 232.985274 213.289999 
L 234.204114 204.949238 
L 235.422953 203.848238 
L 236.641793 195.139464 
L 237.860632 194.305696 
L 239.079472 193.674278 
L 240.298312 188.888776 
L 241.517151 191.5016 
L 242.735991 187.892686 
L 243.95483 198.041309 
L 245.17367 193.005785 
L 246.39251 187.405469 
L 247.611349 192.869183 
L 248.830189 188.066754 
L 250.049028 194.64471 
L 251.267868 194.587132 
L 252.486708 183.841066 
L 253.705547 186.599767 
L 254.924387 192.921842 
L 256.143226 198.395901 
L 257.362066 211.065593 
L 259.799745 196.858291 
L 261.018585 195.13317 
L 262.237424 187.209652 
L 263.456264 185.572071 
L 264.675103 178.699715 
L 265.893943 175.832866 
L 267.112783 178.493445 
L 268.331622 178.184745 
L 269.550462 181.575194 
L 270.769301 185.331186 
L 271.988141 186.329848 
L 273.206981 196.546057 
L 274.42582 202.936162 
L 275.64466 204.510717 
L 276.863499 205.626636 
L 278.082339 203.868227 
L 279.301179 199.222196 
L 280.520018 195.776348 
L 281.738858 199.414406 
L 282.957697 201.670223 
L 284.176537 203.378204 
L 285.395376 210.206468 
L 286.614216 208.524885 
L 287.833056 210.766072 
L 289.051895 225.546373 
L 291.489574 229.083162 
L 292.708414 236.464788 
L 293.927254 237.497733 
L 295.146093 234.806213 
L 296.364933 221.777563 
L 297.583772 187.059161 
L 298.802612 156.996009 
L 300.021452 152.052377 
L 301.240291 173.746238 
L 302.459131 188.21243 
L 303.67797 199.845473 
L 304.89681 216.297816 
L 307.334489 244.014071 
L 308.553329 246.895303 
L 309.772168 234.888058 
L 310.991008 233.419403 
L 312.209847 239.247932 
L 313.428687 243.609469 
L 314.647527 252.205565 
L 315.866366 251.204953 
L 317.085206 244.342162 
L 318.304045 243.23247 
L 319.522885 243.18381 
L 320.741725 240.595936 
L 321.960564 244.706237 
L 323.179404 244.25254 
L 324.398243 241.813187 
L 325.617083 240.314936 
L 326.835923 246.039879 
L 328.054762 248.270489 
L 329.273602 250.000714 
L 330.492441 249.838473 
L 331.711281 243.336882 
L 332.930121 240.659262 
L 334.14896 232.232699 
L 335.3678 228.85032 
L 336.586639 221.92811 
L 337.805479 216.625799 
L 339.024318 224.341012 
L 340.243158 224.305296 
L 341.461998 232.157378 
L 342.680837 231.895875 
L 343.899677 230.002881 
L 345.118516 239.449318 
L 346.337356 231.67145 
L 347.556196 230.453386 
L 348.775035 232.608966 
L 349.993875 217.294661 
L 351.212714 218.652145 
L 352.431554 224.730893 
L 353.650394 226.036156 
L 354.869233 239.412963 
L 356.088073 246.900947 
L 357.306912 248.666268 
L 358.525752 247.606781 
L 359.744592 241.709108 
L 360.963431 238.715508 
L 362.182271 229.449148 
L 363.40111 228.566113 
L 364.61995 215.237231 
L 365.838789 199.101393 
L 367.057629 201.497978 
L 368.276469 196.262164 
L 369.495308 201.188106 
L 370.714148 211.008323 
L 371.932987 210.81501 
L 373.151827 216.028823 
L 374.370667 231.439145 
L 375.589506 235.037249 
L 376.808346 238.256773 
L 378.027185 239.534264 
L 379.246025 241.103387 
L 380.464865 237.564451 
L 381.683704 237.772997 
L 382.902544 235.284485 
L 384.121383 226.672798 
L 385.340223 225.385204 
L 385.340223 225.385204 
" clip-path="url(#p0f9369f869)" style="fill: none; stroke: #d62728; stroke-width: 1.5; stroke-linecap: square"/>
   </g>
   <g id="line2d_21">
    <path d="M 29.439062 222.506149 
L 30.657902 229.225195 
L 31.876742 244.328125 
L 33.095581 247.402355 
L 35.53326 258.019032 
L 36.7521 257.295259 
L 37.97094 249.2435 
L 39.189779 246.974437 
L 40.408619 234.54074 
L 41.627458 231.861658 
L 42.846298 231.553594 
L 44.065138 227.717781 
L 45.283977 232.012654 
L 46.502817 247.643113 
L 48.940496 246.413994 
L 50.159336 251.305355 
L 51.378175 234.325278 
L 52.597015 214.484016 
L 53.815854 201.387908 
L 55.034694 163.586194 
L 56.253533 129.858474 
L 57.472373 141.397281 
L 58.691213 125.3209 
L 59.910052 134.972888 
L 61.128892 154.989431 
L 62.347731 158.76708 
L 63.566571 155.361922 
L 64.785411 182.873277 
L 66.00425 162.532711 
L 67.22309 145.998895 
L 68.441929 142.271252 
L 69.660769 131.739654 
L 70.879609 80.2958 
L 72.098448 74.469261 
L 73.317288 71.612377 
L 74.536127 73.369884 
L 75.754967 78.170446 
L 76.973807 92.205622 
L 78.192646 114.651386 
L 79.411486 126.98029 
L 80.630325 135.707335 
L 81.849165 141.820322 
L 83.068004 152.338799 
L 84.286844 155.572908 
L 85.505684 168.629853 
L 86.724523 177.501124 
L 87.943363 192.046346 
L 89.162202 191.863517 
L 90.381042 188.562489 
L 91.599882 191.603524 
L 92.818721 188.124556 
L 94.037561 181.447777 
L 95.2564 187.0666 
L 96.47524 187.0915 
L 97.69408 185.34807 
L 98.912919 189.913695 
L 100.131759 190.637736 
L 101.350598 188.763136 
L 103.788278 195.654061 
L 105.007117 195.075047 
L 106.225957 193.860278 
L 107.444796 194.307816 
L 108.663636 192.563919 
L 109.882475 191.542008 
L 112.320155 188.685177 
L 113.538994 188.893792 
L 114.757834 191.078975 
L 115.976673 192.074346 
L 117.195513 199.593102 
L 118.414353 204.565698 
L 119.633192 210.577143 
L 120.852032 212.428944 
L 122.070871 214.907852 
L 123.289711 210.23647 
L 124.508551 207.817891 
L 125.72739 196.188428 
L 126.94623 189.862088 
L 128.165069 182.770205 
L 129.383909 183.291563 
L 130.602749 181.712392 
L 131.821588 193.113415 
L 134.259267 211.463604 
L 136.696946 230.909798 
L 139.134626 242.063784 
L 140.353465 245.919887 
L 141.572305 246.583547 
L 142.791144 248.741635 
L 144.009984 249.036102 
L 145.228824 249.952996 
L 146.447663 247.98217 
L 147.666503 243.701758 
L 148.885342 241.373489 
L 150.104182 240.72956 
L 151.323022 235.993508 
L 153.760701 232.924776 
L 154.97954 229.099784 
L 156.19838 230.988135 
L 157.417219 235.724345 
L 158.636059 235.091221 
L 159.854899 238.923995 
L 161.073738 240.309621 
L 162.292578 236.532871 
L 163.511417 231.439783 
L 164.730257 239.832571 
L 165.949097 229.288225 
L 167.167936 229.025515 
L 168.386776 226.018762 
L 169.605615 229.776904 
L 170.824455 213.604985 
L 172.043295 215.680869 
L 173.262134 209.062995 
L 174.480974 214.984372 
L 175.699813 210.206824 
L 176.918653 219.314815 
L 178.137493 222.17396 
L 179.356332 226.369517 
L 180.575172 231.430807 
L 181.794011 225.577264 
L 183.012851 223.851206 
L 184.23169 228.555607 
L 185.45053 226.648719 
L 186.66937 216.031922 
L 187.888209 225.28565 
L 189.107049 220.640156 
L 190.325888 231.061495 
L 191.544728 227.73105 
L 192.763568 220.726004 
L 193.982407 215.037011 
L 195.201247 213.157231 
L 196.420086 191.720756 
L 197.638926 196.460668 
L 198.857766 191.350375 
L 200.076605 191.757527 
L 201.295445 201.836996 
L 202.514284 200.792232 
L 203.733124 197.550137 
L 204.951964 211.894043 
L 206.170803 208.846332 
L 207.389643 198.115669 
L 208.608482 203.773183 
L 209.827322 201.828184 
L 211.046161 197.214919 
L 212.265001 195.912493 
L 214.70268 185.115566 
L 215.92152 188.215948 
L 217.140359 179.230873 
L 218.359199 171.901027 
L 219.578039 188.619752 
L 220.796878 183.951829 
L 222.015718 183.070739 
L 223.234557 191.957715 
L 224.453397 195.323676 
L 225.672237 189.316525 
L 226.891076 197.266248 
L 228.109916 190.602066 
L 229.328755 195.331172 
L 230.547595 203.427593 
L 231.766435 207.153921 
L 232.985274 203.660003 
L 234.204114 208.209749 
L 235.422953 206.225655 
L 236.641793 201.968952 
L 237.860632 193.086981 
L 239.079472 192.080368 
L 240.298312 193.671134 
L 241.517151 192.037551 
L 242.735991 187.230909 
L 243.95483 195.127704 
L 245.17367 193.136595 
L 246.39251 190.879234 
L 247.611349 188.360647 
L 248.830189 195.259724 
L 250.049028 190.323195 
L 251.267868 192.16594 
L 252.486708 185.535827 
L 253.705547 190.356327 
L 254.924387 194.157665 
L 256.143226 195.231943 
L 257.362066 199.805793 
L 258.580906 205.75506 
L 259.799745 201.980701 
L 261.018585 196.973377 
L 263.456264 184.857416 
L 264.675103 182.068236 
L 265.893943 180.423619 
L 267.112783 177.468219 
L 268.331622 177.562124 
L 269.550462 178.80059 
L 270.769301 185.690961 
L 271.988141 185.834271 
L 274.42582 198.87215 
L 275.64466 203.82049 
L 276.863499 202.259429 
L 278.082339 205.894119 
L 279.301179 200.979192 
L 280.520018 198.165651 
L 281.738858 198.124359 
L 282.957697 202.74615 
L 284.176537 200.578123 
L 285.395376 207.104849 
L 286.614216 208.241904 
L 287.833056 211.671763 
L 289.051895 220.244674 
L 290.270735 226.078778 
L 291.489574 223.863886 
L 292.708414 233.998962 
L 293.927254 240.383726 
L 295.146093 233.517676 
L 296.364933 219.293385 
L 297.583772 203.251104 
L 298.802612 183.622751 
L 300.021452 167.197618 
L 301.240291 165.252998 
L 302.459131 172.562654 
L 303.67797 194.202864 
L 304.89681 213.618043 
L 306.11565 226.041419 
L 307.334489 232.462632 
L 308.553329 241.448056 
L 309.772168 239.391526 
L 310.991008 238.737845 
L 312.209847 239.787062 
L 313.428687 241.114508 
L 314.647527 244.070253 
L 315.866366 251.48424 
L 318.304045 244.248661 
L 319.522885 243.731784 
L 320.741725 242.244278 
L 321.960564 242.65733 
L 323.179404 244.176889 
L 324.398243 242.605043 
L 325.617083 239.931252 
L 326.835923 246.935916 
L 328.054762 247.059347 
L 329.273602 247.328921 
L 330.492441 246.558014 
L 331.711281 249.176368 
L 332.930121 242.836748 
L 334.14896 234.590488 
L 335.3678 229.319501 
L 336.586639 227.373291 
L 337.805479 221.952487 
L 339.024318 220.862935 
L 340.243158 222.835301 
L 341.461998 230.068009 
L 342.680837 230.003639 
L 343.899677 231.284555 
L 345.118516 235.291923 
L 346.337356 235.670859 
L 347.556196 228.611926 
L 348.775035 231.859133 
L 349.993875 225.800643 
L 351.212714 218.691941 
L 352.431554 222.921585 
L 353.650394 228.392567 
L 354.869233 231.680575 
L 356.088073 242.787511 
L 357.306912 246.709389 
L 358.525752 246.472815 
L 359.744592 243.713377 
L 360.963431 242.251513 
L 362.182271 232.996184 
L 363.40111 230.328151 
L 364.61995 217.506195 
L 367.057629 202.444106 
L 368.276469 204.81148 
L 369.495308 193.751729 
L 370.714148 206.275183 
L 371.932987 211.656683 
L 373.151827 216.266542 
L 374.370667 223.305393 
L 375.589506 233.047093 
L 376.808346 233.898707 
L 378.027185 238.766741 
L 379.246025 242.515821 
L 380.464865 237.896497 
L 381.683704 236.121135 
L 382.902544 236.410431 
L 384.121383 232.716497 
L 385.340223 225.074783 
L 385.340223 225.074783 
" clip-path="url(#p0f9369f869)" style="fill: none; stroke: #9467bd; stroke-width: 1.5; stroke-linecap: square"/>
   </g>
   <g id="line2d_22">
    <path d="M 29.439062 221.989476 
L 30.657902 228.904971 
L 31.876742 237.483987 
L 34.314421 250.133055 
L 36.7521 256.994611 
L 37.97094 253.038847 
L 40.408619 239.915086 
L 41.627458 236.632969 
L 42.846298 235.239876 
L 44.065138 227.68395 
L 45.283977 231.670455 
L 46.502817 240.522 
L 47.721656 246.901912 
L 48.940496 247.094508 
L 50.159336 245.135114 
L 51.378175 236.98727 
L 52.597015 227.417148 
L 53.815854 209.558869 
L 56.253533 154.479575 
L 57.472373 136.912814 
L 58.691213 136.626651 
L 59.910052 143.651398 
L 61.128892 138.702995 
L 62.347731 150.24993 
L 63.566571 157.637623 
L 64.785411 172.805614 
L 66.00425 172.308881 
L 67.22309 147.756838 
L 68.441929 139.424444 
L 69.660769 135.249771 
L 70.879609 118.380389 
L 72.098448 80.14313 
L 73.317288 68.347758 
L 74.536127 78.528388 
L 76.973807 83.731536 
L 78.192646 109.142714 
L 79.411486 114.016671 
L 80.630325 131.704446 
L 81.849165 137.894546 
L 83.068004 145.867244 
L 84.286844 159.375849 
L 85.505684 160.199988 
L 86.724523 173.774933 
L 87.943363 185.603024 
L 89.162202 187.691034 
L 91.599882 189.973888 
L 92.818721 189.661866 
L 94.037561 188.720384 
L 95.2564 183.420157 
L 96.47524 184.839306 
L 97.69408 187.32764 
L 98.912919 188.234936 
L 100.131759 190.808875 
L 101.350598 189.459306 
L 102.569438 189.315904 
L 103.788278 194.488321 
L 105.007117 196.222111 
L 106.225957 194.084129 
L 107.444796 192.551171 
L 108.663636 192.477858 
L 109.882475 193.836383 
L 111.101315 191.623847 
L 112.320155 188.740474 
L 113.538994 188.38451 
L 114.757834 189.755489 
L 115.976673 193.432394 
L 117.195513 198.363082 
L 118.414353 201.032618 
L 119.633192 206.925265 
L 120.852032 209.543013 
L 122.070871 213.252545 
L 123.289711 212.963095 
L 124.508551 207.846519 
L 126.94623 192.369156 
L 128.165069 189.197994 
L 130.602749 184.042107 
L 131.821588 187.198671 
L 135.478107 218.675332 
L 136.696946 224.780796 
L 137.915786 232.725185 
L 140.353465 243.690539 
L 141.572305 246.907814 
L 142.791144 247.474879 
L 144.009984 247.797075 
L 145.228824 249.480254 
L 146.447663 248.556817 
L 147.666503 245.08607 
L 148.885342 243.204053 
L 151.323022 238.815428 
L 153.760701 232.270423 
L 154.97954 231.130882 
L 156.19838 232.49656 
L 157.417219 234.57189 
L 158.636059 234.929153 
L 159.854899 236.028174 
L 161.073738 237.444895 
L 162.292578 238.514573 
L 163.511417 234.934333 
L 164.730257 238.395766 
L 165.949097 231.266365 
L 167.167936 229.132824 
L 168.386776 226.515892 
L 169.605615 229.239417 
L 170.824455 224.817696 
L 172.043295 209.621523 
L 173.262134 212.522123 
L 175.699813 216.641101 
L 176.918653 215.732855 
L 178.137493 217.061613 
L 179.356332 221.758769 
L 180.575172 232.710465 
L 181.794011 225.409058 
L 183.012851 226.675144 
L 184.23169 224.981941 
L 185.45053 225.516094 
L 186.66937 224.706134 
L 187.888209 219.993368 
L 189.107049 222.621729 
L 190.325888 230.960194 
L 191.544728 224.808205 
L 192.763568 219.699069 
L 193.982407 219.194515 
L 195.201247 212.348296 
L 196.420086 209.65087 
L 197.638926 194.907088 
L 198.857766 187.807324 
L 200.076605 195.211158 
L 201.295445 201.189777 
L 202.514284 199.121299 
L 203.733124 199.667689 
L 204.951964 201.664094 
L 206.170803 209.536309 
L 207.389643 206.137929 
L 208.608482 200.771985 
L 209.827322 200.539284 
L 211.046161 201.393693 
L 213.483841 190.557175 
L 214.70268 190.24811 
L 215.92152 187.367939 
L 217.140359 182.763564 
L 218.359199 175.139954 
L 219.578039 184.260041 
L 222.015718 185.693006 
L 223.234557 186.011723 
L 224.453397 189.053189 
L 225.672237 197.746163 
L 226.891076 192.377572 
L 228.109916 191.188962 
L 229.328755 196.093335 
L 230.547595 198.888857 
L 231.766435 207.49831 
L 234.204114 200.805821 
L 235.422953 208.713277 
L 236.641793 204.293783 
L 237.860632 199.221764 
L 239.079472 191.424833 
L 240.298312 192.344692 
L 241.517151 195.438584 
L 242.735991 188.410429 
L 243.95483 193.421343 
L 245.17367 191.466693 
L 246.39251 191.34645 
L 247.611349 191.086209 
L 248.830189 191.173373 
L 250.049028 195.888562 
L 251.267868 188.934661 
L 252.486708 184.957424 
L 254.924387 195.922878 
L 256.143226 195.865522 
L 257.362066 196.964714 
L 258.580906 196.992366 
L 259.799745 203.993471 
L 261.018585 201.233957 
L 262.237424 193.29733 
L 263.456264 188.48751 
L 264.675103 182.050611 
L 265.893943 182.922867 
L 267.112783 180.997684 
L 268.331622 176.85942 
L 269.550462 178.181248 
L 270.769301 182.759312 
L 271.988141 186.049535 
L 273.206981 190.908696 
L 274.42582 194.995539 
L 275.64466 200.316108 
L 276.863499 202.053777 
L 278.082339 203.05515 
L 279.301179 203.188982 
L 280.520018 199.818307 
L 281.738858 199.700281 
L 282.957697 201.146293 
L 284.176537 201.664569 
L 285.395376 204.221356 
L 286.614216 205.956449 
L 287.833056 210.922625 
L 289.051895 219.423925 
L 290.270735 221.610325 
L 291.489574 223.37897 
L 292.708414 229.049003 
L 293.927254 237.766712 
L 295.146093 236.693885 
L 297.583772 204.185953 
L 298.802612 198.109798 
L 301.240291 175.034151 
L 302.459131 165.669523 
L 303.67797 180.766015 
L 304.89681 207.173387 
L 306.11565 222.415569 
L 307.334489 228.878611 
L 308.553329 232.116043 
L 309.772168 235.824645 
L 310.991008 241.744141 
L 312.209847 242.955834 
L 313.428687 241.247706 
L 314.647527 241.929208 
L 315.866366 244.83055 
L 317.085206 248.808845 
L 318.304045 247.351661 
L 319.522885 244.492239 
L 320.741725 242.862764 
L 321.960564 243.66558 
L 323.179404 242.552297 
L 324.398243 242.817807 
L 325.617083 240.92033 
L 326.835923 245.569599 
L 328.054762 247.629856 
L 329.273602 246.468575 
L 330.492441 244.839602 
L 331.711281 246.543437 
L 332.930121 247.840138 
L 334.14896 237.555391 
L 335.3678 231.830536 
L 336.586639 228.017048 
L 337.805479 226.505229 
L 339.024318 224.482092 
L 340.243158 220.162131 
L 341.461998 227.964603 
L 342.680837 228.595117 
L 343.899677 229.804007 
L 345.118516 235.451266 
L 346.337356 232.73684 
L 347.556196 232.56268 
L 348.775035 230.112794 
L 349.993875 226.306774 
L 351.212714 225.520005 
L 352.431554 222.253967 
L 353.650394 226.331124 
L 354.869233 232.637563 
L 356.088073 236.043033 
L 357.306912 243.321083 
L 358.525752 245.177288 
L 359.744592 243.392969 
L 360.963431 243.825994 
L 362.182271 237.09032 
L 363.40111 233.124849 
L 364.61995 221.039659 
L 365.838789 212.702705 
L 367.057629 210.684665 
L 368.276469 205.036894 
L 369.495308 201.452401 
L 370.714148 199.483568 
L 373.151827 216.050304 
L 374.370667 222.313926 
L 375.589506 226.144196 
L 376.808346 232.416854 
L 378.027185 235.082206 
L 379.246025 241.405172 
L 380.464865 239.654475 
L 381.683704 236.643814 
L 382.902544 235.247024 
L 384.121383 234.110603 
L 385.340223 230.472453 
L 385.340223 230.472453 
" clip-path="url(#p0f9369f869)" style="fill: none; stroke: #8c564b; stroke-width: 1.5; stroke-linecap: square"/>
   </g>
   <g id="line2d_23">
    <path d="M 29.439062 224.216778 
L 30.657902 227.596136 
L 31.876742 236.094002 
L 33.095581 238.285498 
L 34.314421 247.009287 
L 35.53326 251.173405 
L 36.7521 253.38057 
L 37.97094 253.391419 
L 39.189779 250.111493 
L 40.408619 240.35466 
L 41.627458 240.873149 
L 42.846298 238.743918 
L 44.065138 231.524757 
L 45.283977 231.087585 
L 46.502817 239.084283 
L 47.721656 240.893702 
L 48.940496 246.996197 
L 50.159336 245.910647 
L 51.378175 233.085415 
L 52.597015 230.86679 
L 53.815854 221.875268 
L 55.034694 192.984554 
L 56.253533 172.579527 
L 57.472373 156.56697 
L 58.691213 133.393898 
L 59.910052 150.105108 
L 61.128892 145.513232 
L 62.347731 136.739153 
L 63.566571 150.483069 
L 64.785411 172.207681 
L 66.00425 164.739432 
L 67.22309 159.007124 
L 68.441929 141.932814 
L 69.660769 133.752243 
L 72.098448 113.209754 
L 73.317288 74.203567 
L 74.536127 74.821343 
L 75.754967 84.425418 
L 76.973807 85.512302 
L 78.192646 100.005778 
L 79.411486 109.382331 
L 80.630325 120.19955 
L 81.849165 134.191304 
L 83.068004 141.997781 
L 84.286844 153.047456 
L 85.505684 162.735832 
L 86.724523 166.052801 
L 87.943363 181.433711 
L 89.162202 182.665304 
L 90.381042 185.684395 
L 91.599882 190.052933 
L 92.818721 188.528151 
L 94.037561 189.949308 
L 95.2564 189.323584 
L 96.47524 181.997329 
L 97.69408 185.368481 
L 98.912919 189.494891 
L 100.131759 189.251731 
L 101.350598 189.776067 
L 102.569438 189.831957 
L 103.788278 191.63289 
L 105.007117 195.146246 
L 106.225957 195.216294 
L 107.444796 192.932486 
L 108.663636 191.218756 
L 109.882475 193.58218 
L 111.101315 193.580143 
L 112.320155 190.258975 
L 113.538994 188.474989 
L 114.757834 189.198645 
L 115.976673 191.981943 
L 117.195513 198.601115 
L 118.414353 199.784621 
L 119.633192 203.618883 
L 120.852032 206.544268 
L 122.070871 210.681256 
L 123.289711 211.804545 
L 124.508551 210.573035 
L 125.72739 201.272819 
L 128.165069 191.453746 
L 129.383909 191.567199 
L 130.602749 186.873421 
L 131.821588 188.362043 
L 133.040428 191.892493 
L 135.478107 214.499122 
L 136.696946 222.158824 
L 137.915786 227.322903 
L 139.134626 234.922937 
L 140.353465 240.308315 
L 141.572305 244.880253 
L 142.791144 247.623529 
L 144.009984 246.836933 
L 145.228824 248.36133 
L 146.447663 248.346486 
L 147.666503 246.014508 
L 148.885342 244.469403 
L 150.104182 242.710852 
L 151.323022 239.410904 
L 152.541861 238.158751 
L 153.760701 233.598803 
L 154.97954 230.819473 
L 156.19838 233.710105 
L 157.417219 235.321048 
L 158.636059 234.048867 
L 159.854899 235.757231 
L 161.073738 235.145673 
L 162.292578 236.280027 
L 163.511417 236.891486 
L 164.730257 240.248563 
L 165.949097 231.206691 
L 167.167936 230.855381 
L 168.386776 226.97232 
L 169.605615 229.200263 
L 170.824455 225.060755 
L 172.043295 220.171876 
L 173.262134 207.679122 
L 174.480974 216.719103 
L 175.699813 216.123738 
L 176.918653 220.271379 
L 178.137493 214.26839 
L 179.356332 217.436337 
L 180.575172 228.104504 
L 181.794011 227.449084 
L 183.012851 226.376218 
L 184.23169 227.223636 
L 185.45053 222.819885 
L 186.66937 223.999794 
L 187.888209 226.684388 
L 189.107049 218.385403 
L 190.325888 231.107781 
L 191.544728 225.63427 
L 192.763568 218.212387 
L 193.982407 218.52415 
L 195.201247 216.383034 
L 196.420086 209.44702 
L 197.638926 209.664523 
L 198.857766 187.671964 
L 200.076605 191.709338 
L 201.295445 202.671045 
L 202.514284 198.947973 
L 203.733124 198.387136 
L 204.951964 202.852002 
L 206.170803 201.008475 
L 207.389643 207.131896 
L 208.608482 207.18111 
L 209.827322 198.380668 
L 211.046161 200.348606 
L 212.265001 199.87207 
L 213.483841 191.497092 
L 214.70268 190.446999 
L 215.92152 191.399083 
L 217.140359 182.804438 
L 218.359199 178.836405 
L 219.578039 185.145917 
L 220.796878 181.658839 
L 222.015718 186.284838 
L 223.234557 187.806378 
L 224.453397 184.297498 
L 225.672237 192.130815 
L 226.891076 199.063592 
L 228.109916 187.727666 
L 229.328755 195.808404 
L 230.547595 199.024939 
L 231.766435 203.154815 
L 232.985274 204.902638 
L 234.204114 201.663825 
L 235.422953 202.345891 
L 236.641793 206.736348 
L 240.298312 191.746216 
L 241.517151 194.064329 
L 242.735991 191.922213 
L 243.95483 193.527147 
L 245.17367 190.499864 
L 246.39251 190.157175 
L 247.611349 191.456708 
L 248.830189 193.073793 
L 250.049028 192.318328 
L 251.267868 193.959995 
L 252.486708 183.119016 
L 254.924387 195.385749 
L 256.143226 197.120655 
L 257.362066 197.255697 
L 258.580906 194.920628 
L 259.799745 196.680503 
L 261.018585 203.076989 
L 262.237424 197.57802 
L 263.456264 190.830877 
L 264.675103 185.624953 
L 265.893943 182.786056 
L 267.112783 183.053444 
L 268.331622 179.987536 
L 269.550462 177.492985 
L 270.769301 181.681811 
L 271.988141 183.494688 
L 273.206981 190.37394 
L 275.64466 196.827227 
L 276.863499 199.273135 
L 278.082339 202.7665 
L 279.301179 201.103242 
L 280.520018 201.896283 
L 281.738858 200.885534 
L 282.957697 202.043694 
L 284.176537 200.439377 
L 285.395376 204.616121 
L 286.614216 203.633554 
L 287.833056 208.62509 
L 289.051895 217.74467 
L 290.270735 220.720925 
L 291.489574 219.863341 
L 292.708414 227.927071 
L 293.927254 233.158476 
L 295.146093 234.910488 
L 296.364933 225.785975 
L 297.583772 207.941713 
L 298.802612 199.687402 
L 300.021452 198.707123 
L 301.240291 190.269042 
L 302.459131 174.012436 
L 303.67797 174.001014 
L 306.11565 216.068495 
L 307.334489 225.453198 
L 308.553329 229.092188 
L 309.772168 228.265121 
L 310.991008 238.433858 
L 312.209847 244.842663 
L 313.428687 243.724589 
L 314.647527 241.926549 
L 315.866366 242.904976 
L 317.085206 243.356351 
L 318.304045 248.122206 
L 319.522885 247.117699 
L 320.741725 243.645552 
L 321.960564 243.986768 
L 323.179404 243.433191 
L 324.398243 241.603178 
L 325.617083 241.348576 
L 326.835923 245.588154 
L 329.273602 247.045601 
L 330.492441 244.443331 
L 332.930121 245.747859 
L 334.14896 242.868152 
L 335.3678 234.842259 
L 336.586639 230.38515 
L 337.805479 227.185875 
L 339.024318 227.958074 
L 340.243158 223.389952 
L 341.461998 225.05755 
L 342.680837 226.98329 
L 343.899677 228.624362 
L 345.118516 233.647225 
L 346.337356 233.246031 
L 347.556196 230.430796 
L 348.775035 233.251507 
L 349.993875 225.549898 
L 351.212714 225.995159 
L 352.431554 227.465659 
L 353.650394 225.295127 
L 354.869233 230.343622 
L 356.088073 236.22079 
L 357.306912 237.527549 
L 358.525752 242.454916 
L 359.744592 242.69455 
L 360.963431 243.535674 
L 362.182271 239.268226 
L 363.40111 236.622724 
L 364.61995 225.01847 
L 365.838789 216.551369 
L 367.057629 213.028343 
L 368.276469 211.640465 
L 369.495308 202.135661 
L 370.714148 205.063105 
L 371.932987 201.700388 
L 373.151827 212.108094 
L 374.370667 221.294101 
L 375.589506 224.91422 
L 376.808346 226.586756 
L 378.027185 233.659203 
L 379.246025 237.965307 
L 380.464865 239.090415 
L 381.683704 238.351026 
L 384.121383 233.424721 
L 385.340223 232.016904 
L 385.340223 232.016904 
" clip-path="url(#p0f9369f869)" style="fill: none; stroke: #e377c2; stroke-width: 1.5; stroke-linecap: square"/>
   </g>
   <g id="patch_3">
    <path d="M 29.439063 284.991437 
L 29.439063 18.879437 
" style="fill: none; stroke: #000000; stroke-width: 0.8; stroke-linejoin: miter; stroke-linecap: square"/>
   </g>
   <g id="patch_4">
    <path d="M 386.559062 284.991437 
L 386.559062 18.879437 
" style="fill: none; stroke: #000000; stroke-width: 0.8; stroke-linejoin: miter; stroke-linecap: square"/>
   </g>
   <g id="patch_5">
    <path d="M 29.439062 284.991437 
L 386.559062 284.991437 
" style="fill: none; stroke: #000000; stroke-width: 0.8; stroke-linejoin: miter; stroke-linecap: square"/>
   </g>
   <g id="patch_6">
    <path d="M 29.439062 18.879437 
L 386.559062 18.879437 
" style="fill: none; stroke: #000000; stroke-width: 0.8; stroke-linejoin: miter; stroke-linecap: square"/>
   </g>
   <g id="legend_1">
    <g id="patch_7">
     <path d="M 341.260625 127.613812 
L 379.559062 127.613812 
Q 381.559062 127.613812 381.559062 125.613812 
L 381.559062 25.879437 
Q 381.559062 23.879437 379.559062 23.879437 
L 341.260625 23.879437 
Q 339.260625 23.879437 339.260625 25.879437 
L 339.260625 125.613812 
Q 339.260625 127.613812 341.260625 127.613812 
z
" style="fill: #ffffff; opacity: 0.8; stroke: #cccccc; stroke-linejoin: miter"/>
    </g>
    <g id="line2d_24">
     <path d="M 343.260625 31.870062 
L 353.260625 31.870062 
L 363.260625 31.870062 
" style="fill: none; stroke: #1f77b4; stroke-width: 1.5; stroke-linecap: square"/>
    </g>
    <g id="text_16">
     <!-- 1 -->
     <g transform="translate(371.260625 35.370062) scale(0.1 -0.1)">
      <use xlink:href="#IPAexGothic-31"/>
     </g>
    </g>
    <g id="line2d_25">
     <path d="M 343.260625 46.260687 
L 353.260625 46.260687 
L 363.260625 46.260687 
" style="fill: none; stroke: #ff7f0e; stroke-width: 1.5; stroke-linecap: square"/>
    </g>
    <g id="text_17">
     <!-- 2 -->
     <g transform="translate(371.260625 49.760687) scale(0.1 -0.1)">
      <use xlink:href="#IPAexGothic-32"/>
     </g>
    </g>
    <g id="line2d_26">
     <path d="M 343.260625 60.651312 
L 353.260625 60.651312 
L 363.260625 60.651312 
" style="fill: none; stroke: #2ca02c; stroke-width: 1.5; stroke-linecap: square"/>
    </g>
    <g id="text_18">
     <!-- 3 -->
     <g transform="translate(371.260625 64.151312) scale(0.1 -0.1)">
      <use xlink:href="#IPAexGothic-33"/>
     </g>
    </g>
    <g id="line2d_27">
     <path d="M 343.260625 75.041937 
L 353.260625 75.041937 
L 363.260625 75.041937 
" style="fill: none; stroke: #d62728; stroke-width: 1.5; stroke-linecap: square"/>
    </g>
    <g id="text_19">
     <!-- 4 -->
     <g transform="translate(371.260625 78.541937) scale(0.1 -0.1)">
      <defs>
       <path id="IPAexGothic-34" d="M 3813 1159 
L 3059 1159 
L 3059 63 
L 2547 63 
L 2547 1159 
L 197 1159 
L 197 1672 
L 2456 4678 
L 3059 4678 
L 3059 1634 
L 3813 1634 
L 3813 1159 
z
M 2578 4109 
L 2559 4109 
Q 2278 3656 2003 3284 
L 759 1634 
L 2547 1634 
L 2547 3144 
Q 2547 3481 2578 4109 
z
" transform="scale(0.015625)"/>
      </defs>
      <use xlink:href="#IPAexGothic-34"/>
     </g>
    </g>
    <g id="line2d_28">
     <path d="M 343.260625 89.432562 
L 353.260625 89.432562 
L 363.260625 89.432562 
" style="fill: none; stroke: #9467bd; stroke-width: 1.5; stroke-linecap: square"/>
    </g>
    <g id="text_20">
     <!-- 5 -->
     <g transform="translate(371.260625 92.932562) scale(0.1 -0.1)">
      <use xlink:href="#IPAexGothic-35"/>
     </g>
    </g>
    <g id="line2d_29">
     <path d="M 343.260625 103.823187 
L 353.260625 103.823187 
L 363.260625 103.823187 
" style="fill: none; stroke: #8c564b; stroke-width: 1.5; stroke-linecap: square"/>
    </g>
    <g id="text_21">
     <!-- 6 -->
     <g transform="translate(371.260625 107.323187) scale(0.1 -0.1)">
      <defs>
       <path id="IPAexGothic-36" d="M 1056 2328 
Q 1509 2981 2234 2981 
Q 2906 2981 3316 2513 
Q 3675 2106 3675 1522 
Q 3675 884 3272 434 
Q 2853 -31 2178 -31 
Q 1375 -31 922 581 
Q 481 1178 481 2228 
Q 481 3425 1013 4109 
Q 1494 4725 2272 4725 
Q 3191 4725 3609 4025 
L 3150 3775 
Q 2894 4266 2300 4266 
Q 1119 4266 1031 2328 
L 1056 2328 
z
M 2141 2547 
Q 1684 2547 1384 2206 
Q 1116 1900 1116 1541 
Q 1116 1156 1353 844 
Q 1672 428 2159 428 
Q 2669 428 2941 844 
Q 3125 1128 3125 1503 
Q 3125 1944 2881 2228 
Q 2600 2547 2141 2547 
z
" transform="scale(0.015625)"/>
      </defs>
      <use xlink:href="#IPAexGothic-36"/>
     </g>
    </g>
    <g id="line2d_30">
     <path d="M 343.260625 118.213812 
L 353.260625 118.213812 
L 363.260625 118.213812 
" style="fill: none; stroke: #e377c2; stroke-width: 1.5; stroke-linecap: square"/>
    </g>
    <g id="text_22">
     <!-- 7 -->
     <g transform="translate(371.260625 121.713812) scale(0.1 -0.1)">
      <defs>
       <path id="IPAexGothic-37" d="M 3597 4263 
Q 2238 2106 1778 63 
L 1131 63 
Q 1581 1834 2950 4128 
L 428 4128 
L 428 4634 
L 3597 4634 
L 3597 4263 
z
" transform="scale(0.015625)"/>
      </defs>
      <use xlink:href="#IPAexGothic-37"/>
     </g>
    </g>
   </g>
  </g>
  <g id="axes_2">
   <g id="matplotlib.axis_3"/>
   <g id="patch_8">
    <path d="M 29.439063 284.991437 
L 29.439063 18.879437 
" style="fill: none; stroke: #000000; stroke-width: 0.8; stroke-linejoin: miter; stroke-linecap: square"/>
   </g>
   <g id="patch_9">
    <path d="M 386.559062 284.991437 
L 386.559062 18.879437 
" style="fill: none; stroke: #000000; stroke-width: 0.8; stroke-linejoin: miter; stroke-linecap: square"/>
   </g>
   <g id="patch_10">
    <path d="M 29.439062 284.991437 
L 386.559062 284.991437 
" style="fill: none; stroke: #000000; stroke-width: 0.8; stroke-linejoin: miter; stroke-linecap: square"/>
   </g>
   <g id="patch_11">
    <path d="M 29.439062 18.879437 
L 386.559062 18.879437 
" style="fill: none; stroke: #000000; stroke-width: 0.8; stroke-linejoin: miter; stroke-linecap: square"/>
   </g>
  </g>
  <g id="text_23">
   <!-- : 2023/03/20 16:14:57(JST) -->
   <g transform="translate(211.087188 15.423437) scale(0.1 -0.1)">
    <defs>
     <path id="IPAexGothic-66f4" d="M 2956 3994 
L 2956 4588 
L 513 4588 
L 513 4984 
L 5881 4984 
L 5881 4588 
L 3413 4588 
L 3413 3994 
L 5300 3994 
L 5300 1288 
L 4838 1288 
L 4838 1759 
L 3406 1759 
Q 3384 1125 3150 709 
Q 4291 244 5997 31 
L 5694 -428 
Q 4109 -166 2906 384 
Q 2294 -266 744 -488 
L 494 -66 
Q 1903 59 2491 588 
Q 2041 813 1594 1166 
L 1928 1434 
Q 2331 1106 2747 897 
Q 2922 1219 2950 1759 
L 1556 1759 
L 1556 1413 
L 1097 1413 
L 1097 3994 
L 2956 3994 
z
M 2956 3609 
L 1556 3609 
L 1556 3078 
L 2956 3078 
L 2956 3609 
z
M 3413 3609 
L 3413 3078 
L 4838 3078 
L 4838 3609 
L 3413 3609 
z
M 2956 2700 
L 1556 2700 
L 1556 2144 
L 2956 2144 
L 2956 2700 
z
M 3413 2700 
L 3413 2144 
L 4838 2144 
L 4838 2700 
L 3413 2700 
z
" transform="scale(0.015625)"/>
     <path id="IPAexGothic-65b0" d="M 3891 2803 
Q 3881 1759 3794 1166 
Q 3653 197 3097 -563 
L 2741 -250 
Q 3450 700 3450 2631 
L 3450 4647 
Q 3516 4656 3622 4666 
Q 4656 4778 5447 5063 
L 5825 4678 
Q 4897 4419 3891 4294 
L 3891 3219 
L 6119 3219 
L 6119 2803 
L 5275 2803 
L 5275 -447 
L 4834 -447 
L 4834 2803 
L 3891 2803 
z
M 2822 4069 
Q 2678 3572 2519 3181 
L 3250 3181 
L 3250 2784 
L 2059 2784 
L 2059 2216 
L 3184 2216 
L 3184 1831 
L 2059 1831 
L 2059 1544 
Q 2613 1197 3031 847 
L 2781 456 
Q 2472 791 2059 1128 
L 2059 -447 
L 1644 -447 
L 1644 1294 
Q 1272 628 575 -31 
L 269 341 
Q 1041 938 1528 1831 
L 453 1831 
L 453 2216 
L 1644 2216 
L 1644 2784 
L 319 2784 
L 319 3181 
L 1125 3181 
Q 1013 3706 881 4069 
L 453 4069 
L 453 4453 
L 1631 4453 
L 1631 5309 
L 2072 5309 
L 2072 4453 
L 3166 4453 
L 3166 4069 
L 2822 4069 
z
M 2391 4069 
L 1325 4069 
Q 1450 3672 1534 3181 
L 2109 3181 
Q 2294 3659 2391 4069 
z
" transform="scale(0.015625)"/>
     <path id="IPAexGothic-65e5" d="M 5231 4800 
L 5231 -288 
L 4744 -288 
L 4744 128 
L 1647 128 
L 1647 -288 
L 1159 -288 
L 1159 4800 
L 5231 4800 
z
M 1647 4372 
L 1647 2731 
L 4744 2731 
L 4744 4372 
L 1647 4372 
z
M 1647 2297 
L 1647 556 
L 4744 556 
L 4744 2297 
L 1647 2297 
z
" transform="scale(0.015625)"/>
     <path id="IPAexGothic-6642" d="M 2328 4728 
L 2328 563 
L 934 563 
L 934 56 
L 519 56 
L 519 4728 
L 2328 4728 
z
M 934 4331 
L 934 2881 
L 1906 2881 
L 1906 4331 
L 934 4331 
z
M 934 2497 
L 934 953 
L 1906 953 
L 1906 2497 
L 934 2497 
z
M 3938 4372 
L 3938 5313 
L 4378 5313 
L 4378 4372 
L 5772 4372 
L 5772 3981 
L 4378 3981 
L 4378 3194 
L 6072 3194 
L 6072 2803 
L 5203 2803 
L 5203 2047 
L 5959 2047 
L 5959 1650 
L 5216 1650 
L 5216 31 
Q 5216 -447 4691 -447 
Q 4394 -447 3888 -391 
L 3784 78 
Q 4272 0 4591 0 
Q 4775 0 4775 172 
L 4775 1650 
L 2581 1650 
L 2581 2047 
L 4763 2047 
L 4763 2803 
L 2538 2803 
L 2538 3194 
L 3938 3194 
L 3938 3981 
L 2716 3981 
L 2716 4372 
L 3938 4372 
z
M 3669 384 
Q 3331 950 2956 1325 
L 3291 1575 
Q 3719 1147 4025 659 
L 3669 384 
z
" transform="scale(0.015625)"/>
     <path id="IPAexGothic-3a" d="M 1369 2559 
L 672 2559 
L 672 3250 
L 1369 3250 
L 1369 2559 
z
M 1369 63 
L 672 63 
L 672 753 
L 1369 753 
L 1369 63 
z
" transform="scale(0.015625)"/>
     <path id="IPAexGothic-20" transform="scale(0.015625)"/>
     <path id="IPAexGothic-2f" d="M 2719 4709 
L 600 -884 
L 300 -763 
L 2413 4831 
L 2719 4709 
z
" transform="scale(0.015625)"/>
     <path id="IPAexGothic-28" d="M 1928 -1016 
L 1653 -1166 
Q 488 69 488 1875 
Q 488 3678 1653 4909 
L 1928 4763 
Q 1006 3522 1006 1881 
Q 1006 203 1928 -1016 
z
" transform="scale(0.015625)"/>
     <path id="IPAexGothic-54" d="M 3866 4141 
L 2175 4141 
L 2175 63 
L 1606 63 
L 1606 4141 
L -31 4141 
L -31 4634 
L 3866 4634 
L 3866 4141 
z
" transform="scale(0.015625)"/>
     <path id="IPAexGothic-29" d="M 466 4909 
Q 1638 3672 1638 1875 
Q 1638 75 466 -1166 
L 191 -1016 
Q 1119 216 1119 1881 
Q 1119 3509 191 4763 
L 466 4909 
z
" transform="scale(0.015625)"/>
    </defs>
    <use xlink:href="#IPAexGothic-66f4"/>
    <use xlink:href="#IPAexGothic-65b0" x="100"/>
    <use xlink:href="#IPAexGothic-65e5" x="200"/>
    <use xlink:href="#IPAexGothic-6642" x="300"/>
    <use xlink:href="#IPAexGothic-3a" x="400"/>
    <use xlink:href="#IPAexGothic-20" x="431.982422"/>
    <use xlink:href="#IPAexGothic-32" x="458.984375"/>
    <use xlink:href="#IPAexGothic-30" x="521.972656"/>
    <use xlink:href="#IPAexGothic-32" x="584.960938"/>
    <use xlink:href="#IPAexGothic-33" x="647.949219"/>
    <use xlink:href="#IPAexGothic-2f" x="710.9375"/>
    <use xlink:href="#IPAexGothic-30" x="760.9375"/>
    <use xlink:href="#IPAexGothic-33" x="823.925781"/>
    <use xlink:href="#IPAexGothic-2f" x="886.914062"/>
    <use xlink:href="#IPAexGothic-32" x="936.914062"/>
    <use xlink:href="#IPAexGothic-30" x="999.902344"/>
    <use xlink:href="#IPAexGothic-20" x="1062.890625"/>
    <use xlink:href="#IPAexGothic-31" x="1089.892578"/>
    <use xlink:href="#IPAexGothic-36" x="1152.880859"/>
    <use xlink:href="#IPAexGothic-3a" x="1215.869141"/>
    <use xlink:href="#IPAexGothic-31" x="1247.851562"/>
    <use xlink:href="#IPAexGothic-34" x="1310.839844"/>
    <use xlink:href="#IPAexGothic-3a" x="1373.828125"/>
    <use xlink:href="#IPAexGothic-35" x="1405.810547"/>
    <use xlink:href="#IPAexGothic-37" x="1468.798828"/>
    <use xlink:href="#IPAexGothic-28" x="1531.787109"/>
    <use xlink:href="#IPAexGothic-4a" x="1565.087891"/>
    <use xlink:href="#IPAexGothic-53" x="1603.076172"/>
    <use xlink:href="#IPAexGothic-54" x="1661.572266"/>
    <use xlink:href="#IPAexGothic-29" x="1721.484375"/>
   </g>
  </g>
 </g>
 <defs>
  <clipPath id="p0f9369f869">
   <rect x="29.439063" y="18.879437" width="357.12" height="266.112"/>
  </clipPath>
 </defs>
</svg>
