<?xml version="1.0" encoding="utf-8" standalone="no"?>
<!DOCTYPE svg PUBLIC "-//W3C//DTD SVG 1.1//EN"
  "http://www.w3.org/Graphics/SVG/1.1/DTD/svg11.dtd">
<svg xmlns:xlink="http://www.w3.org/1999/xlink" width="403.5575pt" height="320.972687pt" viewBox="0 0 403.5575 320.972687" xmlns="http://www.w3.org/2000/svg" version="1.1">
 <metadata>
  <rdf:RDF xmlns:dc="http://purl.org/dc/elements/1.1/" xmlns:cc="http://creativecommons.org/ns#" xmlns:rdf="http://www.w3.org/1999/02/22-rdf-syntax-ns#">
   <cc:Work>
    <dc:type rdf:resource="http://purl.org/dc/dcmitype/StillImage"/>
    <dc:date>2022-06-25T03:08:40.687166</dc:date>
    <dc:format>image/svg+xml</dc:format>
    <dc:creator>
     <cc:Agent>
      <dc:title>Matplotlib v3.5.2, https://matplotlib.org/</dc:title>
     </cc:Agent>
    </dc:creator>
   </cc:Work>
  </rdf:RDF>
 </metadata>
 <defs>
  <style type="text/css">*{stroke-linejoin: round; stroke-linecap: butt}</style>
 </defs>
 <g id="figure_1">
  <g id="patch_1">
   <path d="M 0 320.972687 
L 403.5575 320.972687 
L 403.5575 0 
L 0 0 
z
" style="fill: #ffffff"/>
  </g>
  <g id="axes_1">
   <g id="patch_2">
    <path d="M 35.7375 284.991437 
L 392.8575 284.991437 
L 392.8575 18.879437 
L 35.7375 18.879437 
z
" style="fill: #ffffff"/>
   </g>
   <g id="line2d_1">
    <path d="M 35.7375 203.485507 
L 392.8575 203.485507 
" clip-path="url(#pa40c2e9e51)" style="fill: none; stroke: #000000; stroke-linecap: square"/>
   </g>
   <g id="matplotlib.axis_1">
    <g id="xtick_1">
     <g id="line2d_2">
      <defs>
       <path id="me4de4bcf40" d="M 0 0 
L 0 3.5 
" style="stroke: #000000; stroke-width: 0.8"/>
      </defs>
      <g>
       <use xlink:href="#me4de4bcf40" x="35.7375" y="284.991437" style="stroke: #000000; stroke-width: 0.8"/>
      </g>
     </g>
     <g id="text_1">
      <!-- Feb -->
      <g transform="translate(26.914063 299.482062)scale(0.1 -0.1)">
       <defs>
        <path id="IPAexGothic-46" d="M 3469 4141 
L 1172 4141 
L 1172 2656 
L 3206 2656 
L 3206 2188 
L 1172 2188 
L 1172 63 
L 609 63 
L 609 4634 
L 3469 4634 
L 3469 4141 
z
" transform="scale(0.015625)"/>
        <path id="IPAexGothic-65" d="M 863 1594 
Q 891 1041 1209 722 
Q 1534 397 1997 397 
Q 2606 397 2963 966 
L 3322 728 
Q 2869 -31 1931 -31 
Q 1222 -31 766 422 
Q 306 884 306 1641 
Q 306 2444 788 2925 
Q 1216 3353 1856 3353 
Q 2459 3353 2866 2956 
Q 3322 2494 3322 1722 
L 3322 1594 
L 863 1594 
z
M 2756 1997 
Q 2709 2431 2450 2681 
Q 2194 2938 1844 2938 
Q 1438 2938 1150 2591 
Q 953 2356 894 1997 
L 2756 1997 
z
" transform="scale(0.015625)"/>
        <path id="IPAexGothic-62" d="M 1125 2731 
Q 1550 3341 2219 3341 
Q 2788 3341 3191 2938 
Q 3659 2469 3659 1644 
Q 3659 838 3191 372 
Q 2788 -31 2206 -31 
Q 1559 -31 1088 516 
L 1009 44 
L 581 44 
L 581 4794 
L 1125 4794 
L 1125 2731 
z
M 1125 1997 
L 1125 1253 
Q 1125 888 1528 600 
Q 1803 403 2119 403 
Q 2488 403 2744 659 
Q 3084 1009 3084 1631 
Q 3084 2194 2803 2553 
Q 2525 2900 2125 2900 
Q 1759 2900 1438 2578 
Q 1125 2266 1125 1997 
z
" transform="scale(0.015625)"/>
       </defs>
       <use xlink:href="#IPAexGothic-46"/>
       <use xlink:href="#IPAexGothic-65" x="57.177734"/>
       <use xlink:href="#IPAexGothic-62" x="114.0625"/>
      </g>
     </g>
    </g>
    <g id="xtick_2">
     <g id="line2d_3">
      <g>
       <use xlink:href="#me4de4bcf40" x="70.218052" y="284.991437" style="stroke: #000000; stroke-width: 0.8"/>
      </g>
     </g>
     <g id="text_2">
      <!-- 15 -->
      <g transform="translate(63.919614 299.482062)scale(0.1 -0.1)">
       <defs>
        <path id="IPAexGothic-31" d="M 2463 63 
L 1900 63 
L 1900 4103 
Q 1372 3922 788 3797 
L 684 4231 
Q 1519 4441 2106 4731 
L 2463 4731 
L 2463 63 
z
" transform="scale(0.015625)"/>
        <path id="IPAexGothic-35" d="M 1178 2603 
Q 1634 2963 2172 2963 
Q 2816 2963 3241 2528 
Q 3638 2113 3638 1497 
Q 3638 938 3297 513 
Q 2869 -31 2031 -31 
Q 959 -31 469 784 
L 938 1028 
Q 1309 434 2013 434 
Q 2466 434 2769 716 
Q 3081 1013 3081 1503 
Q 3081 1966 2806 2241 
Q 2519 2528 2056 2528 
Q 1406 2528 1072 2028 
L 591 2091 
L 884 4634 
L 3406 4634 
L 3406 4153 
L 1341 4153 
L 1134 2603 
L 1178 2603 
z
" transform="scale(0.015625)"/>
       </defs>
       <use xlink:href="#IPAexGothic-31"/>
       <use xlink:href="#IPAexGothic-35" x="62.988281"/>
      </g>
     </g>
    </g>
    <g id="xtick_3">
     <g id="line2d_4">
      <g>
       <use xlink:href="#me4de4bcf40" x="104.698603" y="284.991437" style="stroke: #000000; stroke-width: 0.8"/>
      </g>
     </g>
     <g id="text_3">
      <!-- Mar -->
      <g transform="translate(95.589228 299.482062)scale(0.1 -0.1)">
       <defs>
        <path id="IPAexGothic-4d" d="M 5147 63 
L 4597 63 
L 4597 2534 
Q 4597 3281 4634 4134 
L 4609 4134 
Q 4356 3409 4066 2675 
L 3066 209 
L 2650 209 
L 1641 2725 
Q 1328 3506 1128 4141 
L 1103 4141 
Q 1141 3131 1141 2553 
L 1141 63 
L 609 63 
L 609 4634 
L 1416 4634 
L 2503 1944 
Q 2697 1472 2869 906 
L 2888 906 
Q 3028 1416 3234 1931 
L 4316 4634 
L 5147 4634 
L 5147 63 
z
" transform="scale(0.015625)"/>
        <path id="IPAexGothic-61" d="M 3156 63 
L 2672 63 
Q 2559 303 2531 556 
L 2509 556 
Q 2147 -25 1428 -25 
Q 934 -25 622 288 
Q 347 563 347 959 
Q 347 1947 2050 1997 
L 2478 2009 
L 2478 2175 
Q 2478 2509 2288 2700 
Q 2088 2900 1775 2900 
Q 1238 2900 969 2378 
L 494 2597 
Q 938 3328 1788 3328 
Q 2375 3328 2691 3000 
Q 2984 2706 2984 2169 
L 2984 997 
Q 2984 400 3156 63 
z
M 2491 1625 
L 2141 1619 
Q 903 1591 903 953 
Q 903 728 1050 581 
Q 1231 403 1525 403 
Q 1934 403 2234 703 
Q 2491 969 2491 1344 
L 2491 1625 
z
" transform="scale(0.015625)"/>
        <path id="IPAexGothic-72" d="M 2309 3316 
L 2213 2769 
Q 2106 2791 2022 2791 
Q 1653 2791 1413 2444 
Q 1113 2006 1113 1675 
L 1113 63 
L 563 63 
L 563 3250 
L 1081 3250 
L 1056 2303 
L 1069 2303 
Q 1422 3341 2097 3341 
Q 2206 3341 2309 3316 
z
" transform="scale(0.015625)"/>
       </defs>
       <use xlink:href="#IPAexGothic-4d"/>
       <use xlink:href="#IPAexGothic-61" x="90.185547"/>
       <use xlink:href="#IPAexGothic-72" x="145.166016"/>
      </g>
     </g>
    </g>
    <g id="xtick_4">
     <g id="line2d_5">
      <g>
       <use xlink:href="#me4de4bcf40" x="139.179155" y="284.991437" style="stroke: #000000; stroke-width: 0.8"/>
      </g>
     </g>
     <g id="text_4">
      <!-- 15 -->
      <g transform="translate(132.880718 299.482062)scale(0.1 -0.1)">
       <use xlink:href="#IPAexGothic-31"/>
       <use xlink:href="#IPAexGothic-35" x="62.988281"/>
      </g>
     </g>
    </g>
    <g id="xtick_5">
     <g id="line2d_6">
      <g>
       <use xlink:href="#me4de4bcf40" x="181.048397" y="284.991437" style="stroke: #000000; stroke-width: 0.8"/>
      </g>
     </g>
     <g id="text_5">
      <!-- Apr -->
      <g transform="translate(172.906209 299.482062)scale(0.1 -0.1)">
       <defs>
        <path id="IPAexGothic-41" d="M 4056 63 
L 3444 63 
L 2938 1409 
L 1100 1409 
L 603 63 
L -6 63 
L 1806 4666 
L 2259 4666 
L 4056 63 
z
M 2778 1863 
L 2316 3078 
Q 2125 3588 2028 4000 
L 2009 4000 
Q 1897 3563 1716 3078 
L 1263 1863 
L 2778 1863 
z
" transform="scale(0.015625)"/>
        <path id="IPAexGothic-70" d="M 1075 2688 
Q 1525 3341 2206 3341 
Q 2769 3341 3172 2938 
Q 3641 2469 3641 1644 
Q 3641 841 3178 372 
Q 2775 -31 2200 -31 
Q 1569 -31 1106 497 
L 1106 -1216 
L 563 -1216 
L 563 3250 
L 1075 3250 
L 1075 2688 
z
M 1106 1950 
L 1106 1291 
Q 1106 897 1516 600 
Q 1791 403 2106 403 
Q 2469 403 2725 659 
Q 3066 997 3066 1631 
Q 3066 2200 2784 2559 
Q 2503 2900 2100 2900 
Q 1656 2900 1338 2484 
Q 1106 2184 1106 1950 
z
" transform="scale(0.015625)"/>
       </defs>
       <use xlink:href="#IPAexGothic-41"/>
       <use xlink:href="#IPAexGothic-70" x="63.720703"/>
       <use xlink:href="#IPAexGothic-72" x="125.830078"/>
      </g>
     </g>
    </g>
    <g id="xtick_6">
     <g id="line2d_7">
      <g>
       <use xlink:href="#me4de4bcf40" x="215.528948" y="284.991437" style="stroke: #000000; stroke-width: 0.8"/>
      </g>
     </g>
     <g id="text_6">
      <!-- 15 -->
      <g transform="translate(209.230511 299.482062)scale(0.1 -0.1)">
       <use xlink:href="#IPAexGothic-31"/>
       <use xlink:href="#IPAexGothic-35" x="62.988281"/>
      </g>
     </g>
    </g>
    <g id="xtick_7">
     <g id="line2d_8">
      <g>
       <use xlink:href="#me4de4bcf40" x="254.935293" y="284.991437" style="stroke: #000000; stroke-width: 0.8"/>
      </g>
     </g>
     <g id="text_7">
      <!-- May -->
      <g transform="translate(245.215762 299.482062)scale(0.1 -0.1)">
       <defs>
        <path id="IPAexGothic-79" d="M 3122 3250 
L 1575 -488 
Q 1278 -1203 550 -1203 
L 478 -1203 
L 344 -703 
L 447 -703 
Q 969 -703 1150 -238 
L 1356 275 
L 38 3250 
L 659 3250 
L 1363 1459 
Q 1528 1025 1606 781 
L 1625 781 
Q 1750 1169 1863 1459 
L 2528 3250 
L 3122 3250 
z
" transform="scale(0.015625)"/>
       </defs>
       <use xlink:href="#IPAexGothic-4d"/>
       <use xlink:href="#IPAexGothic-61" x="90.185547"/>
       <use xlink:href="#IPAexGothic-79" x="145.166016"/>
      </g>
     </g>
    </g>
    <g id="xtick_8">
     <g id="line2d_9">
      <g>
       <use xlink:href="#me4de4bcf40" x="289.415845" y="284.991437" style="stroke: #000000; stroke-width: 0.8"/>
      </g>
     </g>
     <g id="text_8">
      <!-- 15 -->
      <g transform="translate(283.117407 299.482062)scale(0.1 -0.1)">
       <use xlink:href="#IPAexGothic-31"/>
       <use xlink:href="#IPAexGothic-35" x="62.988281"/>
      </g>
     </g>
    </g>
    <g id="xtick_9">
     <g id="line2d_10">
      <g>
       <use xlink:href="#me4de4bcf40" x="331.285086" y="284.991437" style="stroke: #000000; stroke-width: 0.8"/>
      </g>
     </g>
     <g id="text_9">
      <!-- Jun -->
      <g transform="translate(323.345242 299.482062)scale(0.1 -0.1)">
       <defs>
        <path id="IPAexGothic-4a" d="M 1819 4634 
L 1819 1234 
Q 1819 -31 763 -31 
Q 303 -31 -125 209 
L 84 644 
Q 378 447 694 447 
Q 1250 447 1250 1203 
L 1250 4634 
L 1819 4634 
z
" transform="scale(0.015625)"/>
        <path id="IPAexGothic-75" d="M 3284 63 
L 2772 63 
L 2772 644 
Q 2300 0 1625 0 
Q 1072 0 763 375 
Q 519 678 519 1241 
L 519 3250 
L 1069 3250 
L 1069 1259 
Q 1069 466 1734 466 
Q 2406 466 2734 1291 
L 2734 3250 
L 3284 3250 
L 3284 63 
z
" transform="scale(0.015625)"/>
        <path id="IPAexGothic-6e" d="M 3328 63 
L 2778 63 
L 2778 2041 
Q 2778 2853 2106 2853 
Q 1428 2853 1113 2041 
L 1113 63 
L 563 63 
L 563 3250 
L 1075 3250 
L 1075 2675 
Q 1525 3316 2222 3316 
Q 3328 3316 3328 2072 
L 3328 63 
z
" transform="scale(0.015625)"/>
       </defs>
       <use xlink:href="#IPAexGothic-4a"/>
       <use xlink:href="#IPAexGothic-75" x="37.988281"/>
       <use xlink:href="#IPAexGothic-6e" x="98.388672"/>
      </g>
     </g>
    </g>
    <g id="xtick_10">
     <g id="line2d_11">
      <g>
       <use xlink:href="#me4de4bcf40" x="365.765638" y="284.991437" style="stroke: #000000; stroke-width: 0.8"/>
      </g>
     </g>
     <g id="text_10">
      <!-- 15 -->
      <g transform="translate(359.4672 299.482062)scale(0.1 -0.1)">
       <use xlink:href="#IPAexGothic-31"/>
       <use xlink:href="#IPAexGothic-35" x="62.988281"/>
      </g>
     </g>
    </g>
    <g id="text_11">
     <!-- 2022-Jun -->
     <g transform="translate(348.204375 311.872687)scale(0.1 -0.1)">
      <defs>
       <path id="IPAexGothic-32" d="M 3659 63 
L 447 63 
L 447 594 
Q 825 1475 1894 2203 
L 2072 2322 
Q 2619 2697 2791 2906 
Q 2988 3153 2988 3444 
Q 2988 3772 2756 4003 
Q 2500 4259 2084 4259 
Q 1250 4259 991 3328 
L 497 3506 
Q 853 4725 2116 4725 
Q 2806 4725 3216 4316 
Q 3575 3947 3575 3425 
Q 3575 3038 3344 2722 
Q 3131 2416 2366 1938 
L 2231 1856 
Q 1256 1253 978 569 
L 3659 569 
L 3659 63 
z
" transform="scale(0.015625)"/>
       <path id="IPAexGothic-30" d="M 2038 4725 
Q 2881 4725 3334 3944 
Q 3694 3325 3694 2344 
Q 3694 1372 3334 741 
Q 2888 -31 2016 -31 
Q 1147 -31 700 741 
Q 341 1372 341 2350 
Q 341 3713 1000 4334 
Q 1419 4725 2038 4725 
z
M 2016 4266 
Q 1516 4266 1228 3759 
Q 934 3247 934 2344 
Q 934 1456 1222 947 
Q 1513 447 2016 447 
Q 2619 447 2909 1153 
Q 3100 1622 3100 2375 
Q 3100 3256 2806 3759 
Q 2509 4266 2016 4266 
z
" transform="scale(0.015625)"/>
       <path id="IPAexGothic-2d" d="M 1969 1703 
L 319 1703 
L 319 2203 
L 1969 2203 
L 1969 1703 
z
" transform="scale(0.015625)"/>
      </defs>
      <use xlink:href="#IPAexGothic-32"/>
      <use xlink:href="#IPAexGothic-30" x="62.988281"/>
      <use xlink:href="#IPAexGothic-32" x="125.976562"/>
      <use xlink:href="#IPAexGothic-32" x="188.964844"/>
      <use xlink:href="#IPAexGothic-2d" x="251.953125"/>
      <use xlink:href="#IPAexGothic-4a" x="287.744141"/>
      <use xlink:href="#IPAexGothic-75" x="325.732422"/>
      <use xlink:href="#IPAexGothic-6e" x="386.132812"/>
     </g>
    </g>
   </g>
   <g id="matplotlib.axis_2">
    <g id="ytick_1">
     <g id="line2d_12">
      <defs>
       <path id="mbc9adccf1e" d="M 0 0 
L -3.5 0 
" style="stroke: #000000; stroke-width: 0.8"/>
      </defs>
      <g>
       <use xlink:href="#mbc9adccf1e" x="35.7375" y="264.522941" style="stroke: #000000; stroke-width: 0.8"/>
      </g>
     </g>
     <g id="text_12">
      <!-- 0.50 -->
      <g transform="translate(7.2 268.268254)scale(0.1 -0.1)">
       <defs>
        <path id="IPAexGothic-2e" d="M 1184 63 
L 494 63 
L 494 753 
L 1184 753 
L 1184 63 
z
" transform="scale(0.015625)"/>
       </defs>
       <use xlink:href="#IPAexGothic-30"/>
       <use xlink:href="#IPAexGothic-2e" x="62.988281"/>
       <use xlink:href="#IPAexGothic-35" x="89.404297"/>
       <use xlink:href="#IPAexGothic-30" x="152.392578"/>
      </g>
     </g>
    </g>
    <g id="ytick_2">
     <g id="line2d_13">
      <g>
       <use xlink:href="#mbc9adccf1e" x="35.7375" y="234.004224" style="stroke: #000000; stroke-width: 0.8"/>
      </g>
     </g>
     <g id="text_13">
      <!-- 0.75 -->
      <g transform="translate(7.2 237.749537)scale(0.1 -0.1)">
       <defs>
        <path id="IPAexGothic-37" d="M 3597 4263 
Q 2238 2106 1778 63 
L 1131 63 
Q 1581 1834 2950 4128 
L 428 4128 
L 428 4634 
L 3597 4634 
L 3597 4263 
z
" transform="scale(0.015625)"/>
       </defs>
       <use xlink:href="#IPAexGothic-30"/>
       <use xlink:href="#IPAexGothic-2e" x="62.988281"/>
       <use xlink:href="#IPAexGothic-37" x="89.404297"/>
       <use xlink:href="#IPAexGothic-35" x="152.392578"/>
      </g>
     </g>
    </g>
    <g id="ytick_3">
     <g id="line2d_14">
      <g>
       <use xlink:href="#mbc9adccf1e" x="35.7375" y="203.485507" style="stroke: #000000; stroke-width: 0.8"/>
      </g>
     </g>
     <g id="text_14">
      <!-- 1.00 -->
      <g transform="translate(7.2 207.230819)scale(0.1 -0.1)">
       <use xlink:href="#IPAexGothic-31"/>
       <use xlink:href="#IPAexGothic-2e" x="62.988281"/>
       <use xlink:href="#IPAexGothic-30" x="89.404297"/>
       <use xlink:href="#IPAexGothic-30" x="152.392578"/>
      </g>
     </g>
    </g>
    <g id="ytick_4">
     <g id="line2d_15">
      <g>
       <use xlink:href="#mbc9adccf1e" x="35.7375" y="172.96679" style="stroke: #000000; stroke-width: 0.8"/>
      </g>
     </g>
     <g id="text_15">
      <!-- 1.25 -->
      <g transform="translate(7.2 176.712102)scale(0.1 -0.1)">
       <use xlink:href="#IPAexGothic-31"/>
       <use xlink:href="#IPAexGothic-2e" x="62.988281"/>
       <use xlink:href="#IPAexGothic-32" x="89.404297"/>
       <use xlink:href="#IPAexGothic-35" x="152.392578"/>
      </g>
     </g>
    </g>
    <g id="ytick_5">
     <g id="line2d_16">
      <g>
       <use xlink:href="#mbc9adccf1e" x="35.7375" y="142.448073" style="stroke: #000000; stroke-width: 0.8"/>
      </g>
     </g>
     <g id="text_16">
      <!-- 1.50 -->
      <g transform="translate(7.2 146.193385)scale(0.1 -0.1)">
       <use xlink:href="#IPAexGothic-31"/>
       <use xlink:href="#IPAexGothic-2e" x="62.988281"/>
       <use xlink:href="#IPAexGothic-35" x="89.404297"/>
       <use xlink:href="#IPAexGothic-30" x="152.392578"/>
      </g>
     </g>
    </g>
    <g id="ytick_6">
     <g id="line2d_17">
      <g>
       <use xlink:href="#mbc9adccf1e" x="35.7375" y="111.929355" style="stroke: #000000; stroke-width: 0.8"/>
      </g>
     </g>
     <g id="text_17">
      <!-- 1.75 -->
      <g transform="translate(7.2 115.674668)scale(0.1 -0.1)">
       <use xlink:href="#IPAexGothic-31"/>
       <use xlink:href="#IPAexGothic-2e" x="62.988281"/>
       <use xlink:href="#IPAexGothic-37" x="89.404297"/>
       <use xlink:href="#IPAexGothic-35" x="152.392578"/>
      </g>
     </g>
    </g>
    <g id="ytick_7">
     <g id="line2d_18">
      <g>
       <use xlink:href="#mbc9adccf1e" x="35.7375" y="81.410638" style="stroke: #000000; stroke-width: 0.8"/>
      </g>
     </g>
     <g id="text_18">
      <!-- 2.00 -->
      <g transform="translate(7.2 85.155951)scale(0.1 -0.1)">
       <use xlink:href="#IPAexGothic-32"/>
       <use xlink:href="#IPAexGothic-2e" x="62.988281"/>
       <use xlink:href="#IPAexGothic-30" x="89.404297"/>
       <use xlink:href="#IPAexGothic-30" x="152.392578"/>
      </g>
     </g>
    </g>
    <g id="ytick_8">
     <g id="line2d_19">
      <g>
       <use xlink:href="#mbc9adccf1e" x="35.7375" y="50.891921" style="stroke: #000000; stroke-width: 0.8"/>
      </g>
     </g>
     <g id="text_19">
      <!-- 2.25 -->
      <g transform="translate(7.2 54.637233)scale(0.1 -0.1)">
       <use xlink:href="#IPAexGothic-32"/>
       <use xlink:href="#IPAexGothic-2e" x="62.988281"/>
       <use xlink:href="#IPAexGothic-32" x="89.404297"/>
       <use xlink:href="#IPAexGothic-35" x="152.392578"/>
      </g>
     </g>
    </g>
    <g id="ytick_9">
     <g id="line2d_20">
      <g>
       <use xlink:href="#mbc9adccf1e" x="35.7375" y="20.373204" style="stroke: #000000; stroke-width: 0.8"/>
      </g>
     </g>
     <g id="text_20">
      <!-- 2.50 -->
      <g transform="translate(7.2 24.118516)scale(0.1 -0.1)">
       <use xlink:href="#IPAexGothic-32"/>
       <use xlink:href="#IPAexGothic-2e" x="62.988281"/>
       <use xlink:href="#IPAexGothic-35" x="89.404297"/>
       <use xlink:href="#IPAexGothic-30" x="152.392578"/>
      </g>
     </g>
    </g>
   </g>
   <g id="line2d_21">
    <path d="M 52.977776 246.764939 
L 55.440672 252.025255 
L 57.903569 237.526584 
L 60.366466 216.985322 
L 62.829362 244.687429 
L 65.292259 217.229148 
L 67.755155 200.778852 
L 70.218052 200.790801 
L 72.680948 206.122014 
L 75.143845 171.133519 
L 77.606741 171.22436 
L 80.069638 134.588505 
L 82.532534 74.827759 
L 84.995431 156.078477 
L 87.458328 66.40717 
L 89.921224 51.742833 
L 92.384121 178.575122 
L 94.847017 147.743961 
L 97.309914 167.414814 
L 99.77281 202.924502 
L 84.995431 203.485507 
L 87.458328 203.485507 
L 99.77281 203.485507 
L 102.235707 213.751459 
L 104.698603 235.380804 
L 107.1615 255.089026 
L 109.624397 177.951635 
L 112.087293 234.261188 
L 114.55019 242.665646 
L 117.013086 244.246253 
L 119.475983 233.186855 
L 121.938879 234.01953 
L 124.401776 228.306711 
L 126.864672 242.632728 
L 129.327569 258.241949 
L 131.790466 218.779021 
L 134.253362 196.221145 
L 136.716259 155.170123 
L 139.179155 188.587109 
L 141.642052 166.549005 
L 144.104948 225.090323 
L 146.567845 182.097554 
L 149.030741 222.578799 
L 151.493638 211.702952 
L 153.956534 244.641749 
L 156.419431 215.749503 
L 158.882328 231.390981 
L 161.345224 99.500989 
L 163.808121 173.221782 
L 166.271017 178.369357 
L 168.733914 208.496101 
L 171.19681 191.755816 
L 173.659707 195.19815 
L 176.122603 189.980398 
L 178.5855 257.478647 
L 181.048397 249.283993 
L 183.511293 164.343531 
L 185.97419 192.886679 
L 188.437086 210.058887 
L 190.899983 210.130432 
L 193.362879 202.336034 
L 195.825776 202.338195 
L 198.288672 177.570736 
L 200.751569 217.104907 
L 203.214466 221.435178 
L 205.677362 182.441573 
L 208.140259 180.580175 
L 210.603155 197.957641 
L 213.066052 130.058376 
L 215.528948 117.661469 
L 217.991845 186.786379 
L 220.454741 170.33154 
L 222.917638 199.339318 
L 225.380534 199.36729 
L 227.843431 182.83858 
L 230.306328 187.011442 
L 232.769224 220.053339 
L 235.232121 187.811992 
L 237.695017 190.713443 
L 240.157914 186.027555 
L 242.62081 164.072866 
L 245.083707 219.833001 
L 247.546603 234.615348 
L 250.0095 228.990571 
L 252.472397 254.970143 
L 254.935293 234.259697 
L 257.39819 240.185174 
L 259.861086 257.538029 
L 262.323983 243.305776 
L 264.786879 247.76608 
L 267.249776 228.008753 
L 269.712672 30.975437 
L 272.175569 139.05485 
L 274.638466 134.576213 
L 277.101362 150.865065 
L 279.564259 140.117768 
L 282.027155 157.212876 
L 284.490052 155.348274 
L 286.952948 219.597731 
L 289.415845 208.727196 
L 291.878741 224.869401 
L 294.341638 196.123822 
L 296.804534 194.548969 
L 299.267431 175.537932 
L 301.730328 222.36709 
L 304.193224 207.300044 
L 306.656121 234.687017 
L 309.119017 201.826905 
L 311.581914 213.042625 
L 314.04481 228.693374 
L 316.507707 245.878005 
L 318.970603 224.721044 
L 321.4335 232.065687 
L 323.896397 214.557267 
L 326.359293 220.551233 
L 328.82219 247.065516 
L 331.285086 228.683818 
L 333.747983 232.827425 
L 336.210879 226.698225 
L 338.673776 237.62096 
L 341.136672 232.715103 
L 343.599569 239.022386 
L 346.062466 233.460845 
L 348.525362 258.550637 
L 350.988259 233.831019 
L 353.451155 241.843884 
L 355.914052 241.042411 
L 358.376948 188.051594 
L 360.839845 210.499396 
L 363.302741 272.895437 
L 365.765638 211.843552 
L 368.228534 227.496268 
L 370.691431 203.485507 
L 373.154328 173.595768 
L 375.617224 209.18892 
L 378.080121 160.261097 
L 380.543017 108.328625 
L 383.005914 97.578952 
L 385.46881 129.275398 
L 387.931707 158.523115 
L 390.394603 144.469418 
L 390.394603 144.469418 
" clip-path="url(#pa40c2e9e51)" style="fill: none; stroke: #1f77b4; stroke-width: 1.5; stroke-linecap: square"/>
   </g>
   <g id="line2d_22">
    <path d="M 55.440672 249.440523 
L 57.903569 245.101843 
L 60.366466 227.793952 
L 62.829362 231.854536 
L 65.292259 231.959812 
L 67.755155 209.294578 
L 70.218052 200.784827 
L 72.680948 203.485507 
L 75.143845 189.74988 
L 77.606741 171.178946 
L 80.069638 153.880914 
L 82.532534 106.738812 
L 84.995431 119.418095 
L 87.458328 115.985145 
L 89.921224 59.175891 
L 92.384121 124.943474 
L 94.847017 163.892844 
L 97.309914 157.867571 
L 99.77281 186.296888 
L 84.995431 203.205326 
L 87.458328 203.485507 
L 99.77281 203.485507 
L 102.235707 208.731189 
L 104.698603 225.146829 
L 107.1615 245.841644 
L 109.624397 223.569263 
L 112.087293 209.471797 
L 114.55019 238.56485 
L 117.013086 243.459753 
L 119.475983 238.892782 
L 121.938879 233.604135 
L 124.401776 231.206347 
L 126.864672 235.754932 
L 129.327569 250.843853 
L 131.790466 240.776221 
L 134.253362 208.040087 
L 136.716259 177.107878 
L 139.179155 172.789602 
L 141.642052 177.97885 
L 144.104948 199.164645 
L 146.567845 205.503234 
L 149.030741 204.011918 
L 151.493638 217.277334 
L 153.956534 229.575031 
L 156.419431 231.296146 
L 158.882328 223.870536 
L 161.345224 179.656724 
L 163.808121 139.986754 
L 166.271017 175.817687 
L 168.733914 194.294196 
L 171.19681 200.405536 
L 173.659707 193.488198 
L 176.122603 192.614869 
L 178.5855 229.484784 
L 181.048397 253.497709 
L 183.511293 214.668367 
L 185.97419 179.309787 
L 188.437086 201.770193 
L 190.899983 210.094665 
L 195.825776 202.337115 
L 198.288672 190.521099 
L 200.751569 198.870653 
L 203.214466 219.292097 
L 205.677362 203.485507 
L 208.140259 181.513881 
L 210.603155 189.546148 
L 213.066052 167.615481 
L 215.528948 123.955187 
L 217.991845 155.704666 
L 220.454741 178.789377 
L 222.917638 185.58485 
L 225.380534 199.353305 
L 227.843431 191.357158 
L 230.306328 184.940489 
L 232.769224 204.65592 
L 235.232121 205.005725 
L 237.695017 189.270438 
L 240.157914 188.390507 
L 242.62081 175.451056 
L 245.083707 194.894196 
L 247.546603 227.502336 
L 250.0095 231.84515 
L 252.472397 242.995947 
L 254.935293 245.280016 
L 257.39819 237.272132 
L 259.861086 249.353935 
L 262.323983 250.759634 
L 264.786879 245.567009 
L 267.249776 238.44574 
L 269.712672 156.039761 
L 272.175569 91.163877 
L 274.638466 136.828816 
L 277.101362 142.902122 
L 279.564259 145.571615 
L 282.027155 148.871951 
L 284.490052 156.283142 
L 286.952948 191.261737 
L 289.415845 214.29514 
L 291.878741 217.098185 
L 294.341638 211.397804 
L 296.804534 195.338776 
L 299.267431 185.365328 
L 301.730328 201.136468 
L 304.193224 215.090144 
L 306.656121 221.894019 
L 309.119017 219.522288 
L 311.581914 207.567953 
L 314.04481 221.160869 
L 316.507707 237.704856 
L 318.970603 235.921562 
L 321.4335 228.462786 
L 323.896397 223.686919 
L 326.359293 217.595839 
L 328.82219 234.77118 
L 331.285086 238.35767 
L 333.747983 230.778262 
L 336.210879 229.811856 
L 338.673776 232.319399 
L 341.136672 235.20132 
L 343.599569 235.924204 
L 346.062466 236.284913 
L 348.525362 247.001064 
L 350.988259 247.159099 
L 353.451155 237.928989 
L 355.914052 241.444102 
L 358.376948 217.75517 
L 360.839845 199.775261 
L 363.302741 247.716433 
L 365.765638 248.17246 
L 368.228534 219.959529 
L 370.691431 216.147566 
L 373.154328 189.358101 
L 375.617224 192.577886 
L 378.080121 186.866044 
L 380.543017 136.065648 
L 383.005914 103.018686 
L 385.46881 114.020004 
L 387.931707 144.488829 
L 390.394603 151.638159 
L 390.394603 151.638159 
" clip-path="url(#pa40c2e9e51)" style="fill: none; stroke: #ff7f0e; stroke-width: 1.5; stroke-linecap: square"/>
   </g>
   <g id="line2d_23">
    <path d="M 57.903569 245.660072 
L 60.366466 236.648844 
L 62.829362 233.784703 
L 65.292259 227.213101 
L 67.755155 222.544916 
L 70.218052 206.526416 
L 72.680948 202.589876 
L 75.143845 193.534683 
L 77.606741 183.835968 
L 80.069638 159.835956 
L 82.532534 130.778217 
L 84.995431 124.60428 
L 87.458328 103.077334 
L 89.921224 96.448787 
L 92.384121 107.070891 
L 94.847017 132.851244 
L 97.309914 165.075464 
L 99.77281 174.477424 
L 84.995431 192.279777 
L 87.458328 203.298791 
L 89.921224 203.485507 
L 99.77281 203.485507 
L 102.235707 207.008165 
L 104.698603 218.391101 
L 107.1615 236.325957 
L 109.624397 227.669035 
L 112.087293 227.26558 
L 114.55019 221.7991 
L 117.013086 240.501441 
L 119.475983 240.169107 
L 121.938879 237.297894 
L 124.401776 231.87119 
L 126.864672 235.180151 
L 129.327569 243.981116 
L 131.790466 241.399629 
L 134.253362 227.959611 
L 136.716259 192.548583 
L 139.179155 181.037384 
L 141.642052 170.737102 
L 144.104948 195.732822 
L 146.567845 193.714042 
L 149.030741 211.488519 
L 151.493638 206.631654 
L 153.956534 227.297426 
L 156.419431 225.171621 
L 158.882328 231.327768 
L 161.345224 192.843579 
L 163.808121 177.542526 
L 166.271017 153.780902 
L 168.733914 187.615615 
L 171.19681 193.453465 
L 173.659707 198.693274 
L 176.122603 192.329133 
L 178.5855 219.196872 
L 181.048397 236.598198 
L 183.511293 231.311316 
L 185.97419 207.837252 
L 188.437086 190.375655 
L 190.899983 204.622139 
L 193.362879 207.564311 
L 195.825776 204.991662 
L 198.288672 194.580199 
L 200.751569 200.037209 
L 203.214466 206.888938 
L 205.677362 208.205448 
L 208.140259 196.28363 
L 210.603155 187.218034 
L 213.066052 172.060995 
L 215.528948 152.46407 
L 217.991845 147.55334 
L 220.454741 160.727349 
L 222.917638 185.986511 
L 225.380534 190.338614 
L 227.843431 194.072445 
L 230.306328 189.923946 
L 232.769224 197.781723 
L 235.232121 199.283535 
L 237.695017 200.418401 
L 240.157914 188.197939 
L 242.62081 180.721394 
L 245.083707 192.003089 
L 250.0095 228.000946 
L 252.472397 240.291938 
L 254.935293 240.180931 
L 257.39819 243.616446 
L 259.861086 244.622379 
L 262.323983 247.388983 
L 264.786879 249.774806 
L 267.249776 240.096848 
L 272.175569 150.557341 
L 274.638466 106.633104 
L 277.101362 141.628598 
L 279.564259 141.97868 
L 282.027155 149.538836 
L 284.490052 151.057652 
L 286.952948 180.755463 
L 289.415845 197.355914 
L 291.878741 217.937851 
L 294.341638 210.514454 
L 296.804534 206.037179 
L 299.267431 189.047349 
L 301.730328 198.978286 
L 304.193224 203.225884 
L 306.656121 222.05195 
L 309.119017 215.595424 
L 311.581914 217.40496 
L 314.04481 215.077569 
L 316.507707 230.152027 
L 318.970603 233.574174 
L 321.4335 234.654271 
L 323.896397 224.032801 
L 326.359293 222.652235 
L 328.82219 228.47932 
L 331.285086 232.785793 
L 333.747983 236.551906 
L 336.210879 229.437311 
L 338.673776 232.489049 
L 341.136672 232.451487 
L 343.599569 236.493396 
L 346.062466 235.110494 
L 348.525362 244.426782 
L 350.988259 242.835797 
L 353.451155 245.425956 
L 355.914052 238.979335 
L 358.376948 226.4703 
L 360.839845 215.388897 
L 363.302741 231.459566 
L 365.765638 237.233787 
L 368.228534 241.816679 
L 370.691431 214.731306 
L 373.154328 203.485507 
L 375.617224 196.317961 
L 378.080121 182.576644 
L 380.543017 164.490777 
L 383.005914 124.018835 
L 385.46881 112.139642 
L 387.931707 130.036426 
L 390.394603 144.482359 
L 390.394603 144.482359 
" clip-path="url(#pa40c2e9e51)" style="fill: none; stroke: #2ca02c; stroke-width: 1.5; stroke-linecap: square"/>
   </g>
   <g id="line2d_24">
    <path d="M 60.366466 239.293547 
L 62.829362 238.730459 
L 67.755155 221.182293 
L 70.218052 217.490668 
L 75.143845 195.384229 
L 77.606741 188.279304 
L 80.069638 172.865016 
L 82.532534 141.761611 
L 84.995431 137.437023 
L 87.458328 111.411876 
L 89.921224 91.224921 
L 92.384121 120.513227 
L 94.847017 118.037552 
L 97.309914 142.14279 
L 99.77281 175.512435 
L 84.995431 182.319106 
L 87.458328 195.174134 
L 89.921224 203.345497 
L 92.384121 203.485507 
L 99.77281 203.485507 
L 102.235707 206.137147 
L 104.698603 214.844656 
L 107.1615 229.054031 
L 109.624397 224.36112 
L 112.087293 229.360406 
L 114.55019 231.364991 
L 117.013086 227.933819 
L 119.475983 238.728971 
L 121.938879 238.67157 
L 124.401776 235.131195 
L 126.864672 234.685896 
L 129.327569 241.597259 
L 131.790466 238.301688 
L 134.253362 231.854947 
L 136.716259 213.371163 
L 139.179155 191.569087 
L 141.642052 177.544004 
L 144.104948 186.601484 
L 146.567845 192.450586 
L 149.030741 201.611975 
L 151.493638 211.542165 
L 153.956534 217.547087 
L 156.419431 224.529601 
L 158.882328 226.763947 
L 161.345224 208.285078 
L 163.808121 188.188793 
L 166.271017 177.749668 
L 168.733914 169.484944 
L 171.19681 188.662523 
L 173.659707 193.891814 
L 176.122603 196.569006 
L 178.5855 212.915302 
L 181.048397 227.680818 
L 183.511293 222.342086 
L 185.97419 222.899733 
L 188.437086 208.396635 
L 190.899983 195.610662 
L 193.362879 204.05462 
L 195.825776 206.278938 
L 198.288672 198.653895 
L 200.751569 200.615905 
L 203.214466 205.767256 
L 205.677362 201.199485 
L 208.140259 201.836598 
L 210.603155 196.704181 
L 213.066052 174.724675 
L 215.528948 159.966976 
L 217.991845 161.768305 
L 220.454741 153.543531 
L 225.380534 189.459172 
L 227.843431 188.501388 
L 230.306328 192.341668 
L 232.769224 198.179973 
L 235.232121 195.359065 
L 237.695017 197.193477 
L 240.157914 196.966186 
L 242.62081 182.527548 
L 245.083707 191.681838 
L 247.546603 204.236736 
L 250.0095 214.901393 
L 252.472397 235.582011 
L 254.935293 238.82231 
L 257.39819 240.181992 
L 259.861086 247.343495 
L 262.323983 244.295217 
L 264.786879 247.483428 
L 267.249776 244.837149 
L 269.712672 209.11071 
L 272.175569 182.66403 
L 274.638466 146.692016 
L 277.101362 118.643834 
L 279.564259 141.252048 
L 282.027155 145.911833 
L 284.490052 151.009525 
L 286.952948 171.518125 
L 291.878741 204.869346 
L 294.341638 212.855782 
L 296.804534 206.715435 
L 299.267431 199.049399 
L 301.730328 198.270626 
L 304.193224 201.112075 
L 306.656121 211.98849 
L 309.119017 217.328901 
L 311.581914 214.962706 
L 314.04481 220.344768 
L 316.507707 223.745418 
L 318.970603 228.822338 
L 321.4335 233.199349 
L 323.896397 229.999841 
L 326.359293 223.173383 
L 328.82219 229.388607 
L 331.285086 228.530485 
L 333.747983 232.796203 
L 336.210879 234.184613 
L 338.673776 231.551988 
L 341.136672 232.545614 
L 346.062466 235.74475 
L 348.525362 241.645205 
L 350.988259 241.898495 
L 353.451155 242.588926 
L 355.914052 244.351858 
L 358.376948 228.364081 
L 360.839845 222.698453 
L 363.302741 233.952613 
L 365.765638 226.898084 
L 368.228534 234.89403 
L 370.691431 233.542827 
L 373.154328 205.630915 
L 375.617224 204.937045 
L 378.080121 188.117721 
L 380.543017 166.816933 
L 383.005914 149.875228 
L 385.46881 125.346028 
L 387.931707 124.821819 
L 390.394603 133.749087 
L 390.394603 133.749087 
" clip-path="url(#pa40c2e9e51)" style="fill: none; stroke: #d62728; stroke-width: 1.5; stroke-linecap: square"/>
   </g>
   <g id="line2d_25">
    <path d="M 62.829362 240.400362 
L 65.292259 234.802099 
L 67.755155 224.677528 
L 70.218052 217.389787 
L 72.680948 215.306986 
L 75.143845 200.079985 
L 77.606741 190.875575 
L 80.069638 178.91026 
L 82.532534 156.942801 
L 84.995431 144.718612 
L 87.458328 124.990602 
L 89.921224 100.621623 
L 92.384121 112.096124 
L 94.847017 126.274115 
L 97.309914 129.014427 
L 99.77281 156.330793 
L 84.995431 181.578017 
L 87.458328 186.827374 
L 89.921224 196.88049 
L 92.384121 203.373512 
L 94.847017 203.485507 
L 99.77281 203.485507 
L 102.235707 205.611467 
L 104.698603 212.660703 
L 107.1615 224.40943 
L 109.624397 220.493188 
L 114.55019 232.182211 
L 117.013086 234.094964 
L 119.475983 229.007797 
L 121.938879 237.806876 
L 124.401776 236.690974 
L 126.864672 236.683916 
L 129.327569 239.978788 
L 131.790466 237.461589 
L 134.253362 231.155811 
L 139.179155 208.802 
L 141.642052 186.901751 
L 144.104948 188.581017 
L 146.567845 185.712154 
L 149.030741 199.110064 
L 151.493638 203.699298 
L 153.956534 219.099734 
L 156.419431 217.18994 
L 158.882328 225.94075 
L 161.345224 208.976764 
L 163.808121 201.986342 
L 166.271017 186.278764 
L 168.733914 184.485527 
L 171.19681 174.217557 
L 173.659707 189.995349 
L 176.122603 193.118664 
L 178.5855 212.045014 
L 181.048397 221.365159 
L 183.511293 217.408095 
L 185.97419 217.027254 
L 188.437086 220.451184 
L 193.362879 196.984478 
L 195.825776 203.713259 
L 198.288672 201.021611 
L 200.751569 202.579571 
L 203.214466 205.088742 
L 205.677362 201.428065 
L 208.140259 197.324719 
L 210.603155 201.070357 
L 213.066052 185.500259 
L 215.528948 164.727896 
L 217.991845 165.716487 
L 220.454741 163.517934 
L 222.917638 163.870382 
L 225.380534 177.42458 
L 227.843431 188.160091 
L 230.306328 188.204687 
L 232.769224 198.412691 
L 235.232121 196.170768 
L 237.695017 194.442924 
L 240.157914 195.03417 
L 242.62081 190.972833 
L 245.083707 190.916666 
L 247.546603 201.645182 
L 250.0095 209.649386 
L 252.472397 224.416809 
L 254.935293 235.31909 
L 257.39819 239.096612 
L 259.861086 243.975686 
L 262.323983 246.552127 
L 264.786879 245.001562 
L 267.249776 243.927488 
L 274.638466 174.128825 
L 277.101362 147.534525 
L 279.564259 123.128885 
L 282.027155 144.560907 
L 284.490052 147.840072 
L 286.952948 167.592735 
L 289.415845 179.804818 
L 291.878741 196.562866 
L 294.341638 203.168841 
L 296.804534 209.411471 
L 299.267431 201.047058 
L 301.730328 204.100494 
L 304.193224 200.130046 
L 306.656121 208.696983 
L 309.119017 210.025232 
L 311.581914 216.484912 
L 314.04481 217.856346 
L 316.507707 226.034368 
L 318.970603 223.941296 
L 321.4335 229.479886 
L 323.896397 229.739965 
L 326.359293 228.18071 
L 328.82219 228.472707 
L 331.285086 229.24806 
L 333.747983 229.405513 
L 336.210879 231.607466 
L 338.673776 234.882461 
L 341.136672 231.785771 
L 343.599569 233.878633 
L 346.062466 234.004224 
L 348.525362 240.855365 
L 350.988259 240.137526 
L 353.451155 241.887576 
L 355.914052 242.281904 
L 358.376948 235.331125 
L 360.839845 225.028131 
L 363.302741 235.588241 
L 365.765638 229.904695 
L 368.228534 227.018012 
L 370.691431 229.336656 
L 373.154328 223.831318 
L 375.617224 206.351114 
L 378.080121 197.091109 
L 380.543017 174.940637 
L 383.005914 154.898494 
L 385.46881 145.935926 
L 387.931707 132.4708 
L 390.394603 128.914886 
L 390.394603 128.914886 
" clip-path="url(#pa40c2e9e51)" style="fill: none; stroke: #9467bd; stroke-width: 1.5; stroke-linecap: square"/>
   </g>
   <g id="line2d_26">
    <path d="M 65.292259 236.915144 
L 67.755155 229.856341 
L 70.218052 221.040417 
L 72.680948 215.5885 
L 75.143845 208.938391 
L 80.069638 182.804589 
L 82.532534 165.197508 
L 84.995431 156.799054 
L 87.458328 133.542478 
L 89.921224 114.309696 
L 92.384121 116.020895 
L 94.847017 118.498757 
L 97.309914 133.808053 
L 99.77281 143.873732 
L 84.995431 165.296879 
L 87.458328 185.484897 
L 89.921224 189.75378 
L 92.384121 198.005636 
L 94.847017 203.392185 
L 99.77281 203.485507 
L 102.235707 205.259729 
L 104.698603 211.180853 
L 107.1615 221.189499 
L 109.624397 217.83278 
L 112.087293 222.924212 
L 114.55019 229.336277 
L 117.013086 234.310537 
L 119.475983 233.944235 
L 121.938879 229.861746 
L 124.401776 236.290547 
L 126.864672 237.710037 
L 129.327569 240.705276 
L 131.790466 236.763125 
L 134.253362 231.639244 
L 136.716259 221.392225 
L 139.179155 215.273646 
L 141.642052 202.634097 
L 144.104948 194.150347 
L 146.567845 187.521154 
L 149.030741 192.665762 
L 151.493638 201.301674 
L 153.956534 211.737664 
L 156.419431 218.548546 
L 158.882328 219.697428 
L 161.345224 211.362548 
L 163.808121 203.661534 
L 166.271017 198.331339 
L 168.733914 190.254844 
L 171.19681 185.724112 
L 173.659707 177.935297 
L 176.122603 189.992857 
L 178.5855 207.021969 
L 181.048397 219.32303 
L 183.511293 213.502715 
L 185.97419 213.661118 
L 188.437086 215.895763 
L 190.899983 218.797484 
L 193.362879 207.70086 
L 195.825776 197.892651 
L 198.288672 199.701282 
L 200.751569 203.858939 
L 203.214466 205.944062 
L 205.677362 201.579857 
L 208.140259 198.174244 
L 210.603155 197.430424 
L 213.066052 191.344472 
L 215.528948 175.969845 
L 217.991845 168.633927 
L 220.454741 166.495082 
L 222.917638 170.126402 
L 225.380534 170.413912 
L 227.843431 178.340969 
L 230.306328 187.969313 
L 232.769224 194.11284 
L 235.232121 196.70433 
L 237.695017 195.276798 
L 240.157914 193.076463 
L 242.62081 190.320555 
L 245.083707 196.279199 
L 247.546603 199.440108 
L 250.0095 206.688981 
L 252.472397 218.844767 
L 254.935293 226.12806 
L 257.39819 236.14895 
L 259.861086 242.48537 
L 262.323983 243.864415 
L 264.786879 246.75576 
L 267.249776 242.390389 
L 269.712672 224.459235 
L 272.175569 210.396559 
L 274.638466 188.774788 
L 277.101362 170.478689 
L 279.564259 146.319326 
L 282.027155 129.254707 
L 284.490052 146.405146 
L 286.952948 162.515807 
L 291.878741 188.518689 
L 294.341638 196.489795 
L 296.804534 201.772625 
L 299.267431 204.350324 
L 301.730328 204.884143 
L 304.193224 204.639701 
L 306.656121 206.689654 
L 309.119017 207.579049 
L 311.581914 210.533692 
L 314.04481 218.621602 
L 316.507707 223.131988 
L 318.970603 225.816675 
L 321.4335 225.342805 
L 323.896397 227.13996 
L 326.359293 228.266342 
L 328.82219 231.617517 
L 331.285086 228.507924 
L 333.747983 229.854074 
L 336.210879 228.959503 
L 338.673776 232.637539 
L 341.136672 234.52478 
L 343.599569 233.03259 
L 346.062466 233.809133 
L 348.525362 238.645137 
L 350.988259 239.723156 
L 353.451155 240.424315 
L 355.914052 241.747304 
L 358.376948 235.02207 
L 360.839845 231.600131 
L 363.302741 235.297726 
L 365.765638 232.00671 
L 368.228534 229.507438 
L 370.691431 223.437385 
L 373.154328 221.721767 
L 375.617224 221.525586 
L 378.080121 199.676485 
L 380.543017 185.33716 
L 383.005914 164.16733 
L 385.46881 150.872961 
L 387.931707 148.097805 
L 390.394603 134.524404 
L 390.394603 134.524404 
" clip-path="url(#pa40c2e9e51)" style="fill: none; stroke: #8c564b; stroke-width: 1.5; stroke-linecap: square"/>
   </g>
   <g id="line2d_27">
    <path d="M 67.755155 232.477684 
L 70.218052 226.16085 
L 72.680948 219.029124 
L 75.143845 210.123474 
L 77.606741 204.175587 
L 80.069638 188.322586 
L 82.532534 170.843024 
L 84.995431 163.925463 
L 87.458328 146.134584 
L 89.921224 123.556924 
L 92.384121 124.977138 
L 94.847017 120.877739 
L 97.309914 126.319137 
L 99.77281 145.669655 
L 84.995431 153.907122 
L 89.921224 188.210452 
L 92.384121 191.8062 
L 94.847017 198.803284 
L 97.309914 203.405521 
L 99.77281 203.485507 
L 102.235707 205.007856 
L 104.698603 210.111956 
L 107.1615 218.826981 
L 109.624397 215.891344 
L 112.087293 220.349352 
L 117.013086 231.622996 
L 119.475983 234.150851 
L 121.938879 233.954995 
L 124.401776 229.64113 
L 126.864672 237.225438 
L 129.327569 240.988142 
L 131.790466 237.872896 
L 134.253362 231.861909 
L 136.716259 223.297546 
L 139.179155 217.237348 
L 141.642052 209.355604 
L 144.104948 206.126015 
L 146.567845 192.492593 
L 149.030741 193.179596 
L 151.493638 195.568836 
L 153.956534 208.68699 
L 156.419431 212.319635 
L 158.882328 220.485212 
L 161.345224 207.579301 
L 163.808121 206.563183 
L 166.271017 200.333666 
L 168.733914 199.835777 
L 171.19681 190.470295 
L 173.659707 187.118577 
L 176.122603 179.719424 
L 178.5855 202.696703 
L 181.048397 214.257504 
L 183.511293 212.800812 
L 185.97419 210.766382 
L 188.437086 213.153475 
L 190.899983 215.090119 
L 193.362879 216.587873 
L 195.825776 206.949297 
L 198.288672 195.170031 
L 200.751569 202.348862 
L 203.214466 206.54075 
L 205.677362 202.839094 
L 208.140259 198.777283 
L 210.603155 198.143324 
L 213.066052 189.458213 
L 215.528948 182.686204 
L 217.991845 177.565209 
L 220.454741 168.877575 
L 222.917638 171.664726 
L 225.380534 174.685858 
L 227.843431 172.252988 
L 230.306328 179.612062 
L 232.769224 193.090374 
L 235.232121 193.23068 
L 237.695017 195.865067 
L 240.157914 193.993998 
L 242.62081 189.276209 
L 245.083707 194.994193 
L 247.546603 202.614784 
L 250.0095 204.159583 
L 252.472397 215.217548 
L 254.935293 221.196833 
L 257.39819 228.269747 
L 259.861086 239.573937 
L 262.323983 242.60307 
L 264.786879 244.433553 
L 267.249776 244.316233 
L 269.712672 225.921218 
L 272.175569 215.216848 
L 274.638466 201.766519 
L 282.027155 147.917677 
L 284.490052 133.214037 
L 286.952948 159.35422 
L 289.415845 170.096613 
L 291.878741 183.682749 
L 294.341638 189.631901 
L 296.804534 196.214305 
L 299.267431 198.326376 
L 301.730328 207.105006 
L 304.193224 205.23227 
L 306.656121 209.4751 
L 309.119017 206.006855 
L 311.581914 208.37551 
L 314.04481 213.322819 
L 316.507707 223.023065 
L 318.970603 223.36052 
L 321.4335 226.734334 
L 323.896397 223.868682 
L 326.359293 226.22465 
L 328.82219 231.20525 
L 331.285086 231.203921 
L 333.747983 229.137101 
L 336.210879 229.409483 
L 338.673776 230.247222 
L 343.599569 235.181331 
L 346.062466 233.093891 
L 348.525362 237.836934 
L 350.988259 237.973193 
L 353.451155 240.029375 
L 355.914052 240.51289 
L 358.376948 235.604671 
L 360.839845 231.868232 
L 363.302741 239.05828 
L 365.765638 232.26953 
L 368.228534 231.375291 
L 370.691431 226.16085 
L 373.154328 217.47091 
L 375.617224 220.017598 
L 378.080121 214.411244 
L 380.543017 189.472133 
L 383.005914 175.255129 
L 385.46881 159.590986 
L 387.931707 151.986926 
L 390.394603 147.583949 
L 390.394603 147.583949 
" clip-path="url(#pa40c2e9e51)" style="fill: none; stroke: #e377c2; stroke-width: 1.5; stroke-linecap: square"/>
   </g>
   <g id="patch_3">
    <path d="M 35.7375 284.991437 
L 35.7375 18.879437 
" style="fill: none; stroke: #000000; stroke-width: 0.8; stroke-linejoin: miter; stroke-linecap: square"/>
   </g>
   <g id="patch_4">
    <path d="M 392.8575 284.991437 
L 392.8575 18.879437 
" style="fill: none; stroke: #000000; stroke-width: 0.8; stroke-linejoin: miter; stroke-linecap: square"/>
   </g>
   <g id="patch_5">
    <path d="M 35.7375 284.991437 
L 392.8575 284.991437 
" style="fill: none; stroke: #000000; stroke-width: 0.8; stroke-linejoin: miter; stroke-linecap: square"/>
   </g>
   <g id="patch_6">
    <path d="M 35.7375 18.879437 
L 392.8575 18.879437 
" style="fill: none; stroke: #000000; stroke-width: 0.8; stroke-linejoin: miter; stroke-linecap: square"/>
   </g>
   <g id="legend_1">
    <g id="patch_7">
     <path d="M 42.7375 127.613812 
L 81.035938 127.613812 
Q 83.035938 127.613812 83.035938 125.613812 
L 83.035938 25.879437 
Q 83.035938 23.879437 81.035938 23.879437 
L 42.7375 23.879437 
Q 40.7375 23.879437 40.7375 25.879437 
L 40.7375 125.613812 
Q 40.7375 127.613812 42.7375 127.613812 
z
" style="fill: #ffffff; opacity: 0.8; stroke: #cccccc; stroke-linejoin: miter"/>
    </g>
    <g id="line2d_28">
     <path d="M 44.7375 31.870062 
L 54.7375 31.870062 
L 64.7375 31.870062 
" style="fill: none; stroke: #1f77b4; stroke-width: 1.5; stroke-linecap: square"/>
    </g>
    <g id="text_21">
     <!-- 1 -->
     <g transform="translate(72.7375 35.370062)scale(0.1 -0.1)">
      <use xlink:href="#IPAexGothic-31"/>
     </g>
    </g>
    <g id="line2d_29">
     <path d="M 44.7375 46.260687 
L 54.7375 46.260687 
L 64.7375 46.260687 
" style="fill: none; stroke: #ff7f0e; stroke-width: 1.5; stroke-linecap: square"/>
    </g>
    <g id="text_22">
     <!-- 2 -->
     <g transform="translate(72.7375 49.760687)scale(0.1 -0.1)">
      <use xlink:href="#IPAexGothic-32"/>
     </g>
    </g>
    <g id="line2d_30">
     <path d="M 44.7375 60.651312 
L 54.7375 60.651312 
L 64.7375 60.651312 
" style="fill: none; stroke: #2ca02c; stroke-width: 1.5; stroke-linecap: square"/>
    </g>
    <g id="text_23">
     <!-- 3 -->
     <g transform="translate(72.7375 64.151312)scale(0.1 -0.1)">
      <defs>
       <path id="IPAexGothic-33" d="M 2381 2419 
Q 3506 2216 3506 1278 
Q 3506 716 3128 356 
Q 2709 -31 1944 -31 
Q 797 -31 288 881 
L 756 1131 
Q 1109 441 1938 441 
Q 2425 441 2694 691 
Q 2950 928 2950 1291 
Q 2950 1719 2566 1978 
Q 2216 2213 1644 2213 
L 1363 2213 
L 1363 2669 
L 1656 2669 
Q 2231 2669 2534 2888 
Q 2859 3119 2859 3509 
Q 2859 3934 2494 4138 
Q 2259 4278 1931 4278 
Q 1238 4278 903 3578 
L 434 3803 
Q 897 4725 1938 4725 
Q 2597 4725 3006 4394 
Q 3416 4069 3416 3534 
Q 3416 3028 3019 2706 
Q 2763 2500 2381 2444 
L 2381 2419 
z
" transform="scale(0.015625)"/>
      </defs>
      <use xlink:href="#IPAexGothic-33"/>
     </g>
    </g>
    <g id="line2d_31">
     <path d="M 44.7375 75.041937 
L 54.7375 75.041937 
L 64.7375 75.041937 
" style="fill: none; stroke: #d62728; stroke-width: 1.5; stroke-linecap: square"/>
    </g>
    <g id="text_24">
     <!-- 4 -->
     <g transform="translate(72.7375 78.541937)scale(0.1 -0.1)">
      <defs>
       <path id="IPAexGothic-34" d="M 3813 1159 
L 3059 1159 
L 3059 63 
L 2547 63 
L 2547 1159 
L 197 1159 
L 197 1672 
L 2456 4678 
L 3059 4678 
L 3059 1634 
L 3813 1634 
L 3813 1159 
z
M 2578 4109 
L 2559 4109 
Q 2278 3656 2003 3284 
L 759 1634 
L 2547 1634 
L 2547 3144 
Q 2547 3481 2578 4109 
z
" transform="scale(0.015625)"/>
      </defs>
      <use xlink:href="#IPAexGothic-34"/>
     </g>
    </g>
    <g id="line2d_32">
     <path d="M 44.7375 89.432562 
L 54.7375 89.432562 
L 64.7375 89.432562 
" style="fill: none; stroke: #9467bd; stroke-width: 1.5; stroke-linecap: square"/>
    </g>
    <g id="text_25">
     <!-- 5 -->
     <g transform="translate(72.7375 92.932562)scale(0.1 -0.1)">
      <use xlink:href="#IPAexGothic-35"/>
     </g>
    </g>
    <g id="line2d_33">
     <path d="M 44.7375 103.823187 
L 54.7375 103.823187 
L 64.7375 103.823187 
" style="fill: none; stroke: #8c564b; stroke-width: 1.5; stroke-linecap: square"/>
    </g>
    <g id="text_26">
     <!-- 6 -->
     <g transform="translate(72.7375 107.323187)scale(0.1 -0.1)">
      <defs>
       <path id="IPAexGothic-36" d="M 1056 2328 
Q 1509 2981 2234 2981 
Q 2906 2981 3316 2513 
Q 3675 2106 3675 1522 
Q 3675 884 3272 434 
Q 2853 -31 2178 -31 
Q 1375 -31 922 581 
Q 481 1178 481 2228 
Q 481 3425 1013 4109 
Q 1494 4725 2272 4725 
Q 3191 4725 3609 4025 
L 3150 3775 
Q 2894 4266 2300 4266 
Q 1119 4266 1031 2328 
L 1056 2328 
z
M 2141 2547 
Q 1684 2547 1384 2206 
Q 1116 1900 1116 1541 
Q 1116 1156 1353 844 
Q 1672 428 2159 428 
Q 2669 428 2941 844 
Q 3125 1128 3125 1503 
Q 3125 1944 2881 2228 
Q 2600 2547 2141 2547 
z
" transform="scale(0.015625)"/>
      </defs>
      <use xlink:href="#IPAexGothic-36"/>
     </g>
    </g>
    <g id="line2d_34">
     <path d="M 44.7375 118.213812 
L 54.7375 118.213812 
L 64.7375 118.213812 
" style="fill: none; stroke: #e377c2; stroke-width: 1.5; stroke-linecap: square"/>
    </g>
    <g id="text_27">
     <!-- 7 -->
     <g transform="translate(72.7375 121.713812)scale(0.1 -0.1)">
      <use xlink:href="#IPAexGothic-37"/>
     </g>
    </g>
   </g>
  </g>
  <g id="axes_2">
   <g id="matplotlib.axis_3"/>
   <g id="patch_8">
    <path d="M 35.7375 284.991437 
L 35.7375 18.879437 
" style="fill: none; stroke: #000000; stroke-width: 0.8; stroke-linejoin: miter; stroke-linecap: square"/>
   </g>
   <g id="patch_9">
    <path d="M 392.8575 284.991437 
L 392.8575 18.879437 
" style="fill: none; stroke: #000000; stroke-width: 0.8; stroke-linejoin: miter; stroke-linecap: square"/>
   </g>
   <g id="patch_10">
    <path d="M 35.7375 284.991437 
L 392.8575 284.991437 
" style="fill: none; stroke: #000000; stroke-width: 0.8; stroke-linejoin: miter; stroke-linecap: square"/>
   </g>
   <g id="patch_11">
    <path d="M 35.7375 18.879437 
L 392.8575 18.879437 
" style="fill: none; stroke: #000000; stroke-width: 0.8; stroke-linejoin: miter; stroke-linecap: square"/>
   </g>
  </g>
  <g id="text_28">
   <!-- 更新日時: 2022/06/25 12:08:38(JST) -->
   <g transform="translate(217.385625 15.423437)scale(0.1 -0.1)">
    <defs>
     <path id="IPAexGothic-66f4" d="M 2956 3994 
L 2956 4588 
L 513 4588 
L 513 4984 
L 5881 4984 
L 5881 4588 
L 3413 4588 
L 3413 3994 
L 5300 3994 
L 5300 1288 
L 4838 1288 
L 4838 1759 
L 3406 1759 
Q 3384 1125 3150 709 
Q 4291 244 5997 31 
L 5694 -428 
Q 4109 -166 2906 384 
Q 2294 -266 744 -488 
L 494 -66 
Q 1903 59 2491 588 
Q 2041 813 1594 1166 
L 1928 1434 
Q 2331 1106 2747 897 
Q 2922 1219 2950 1759 
L 1556 1759 
L 1556 1413 
L 1097 1413 
L 1097 3994 
L 2956 3994 
z
M 2956 3609 
L 1556 3609 
L 1556 3078 
L 2956 3078 
L 2956 3609 
z
M 3413 3609 
L 3413 3078 
L 4838 3078 
L 4838 3609 
L 3413 3609 
z
M 2956 2700 
L 1556 2700 
L 1556 2144 
L 2956 2144 
L 2956 2700 
z
M 3413 2700 
L 3413 2144 
L 4838 2144 
L 4838 2700 
L 3413 2700 
z
" transform="scale(0.015625)"/>
     <path id="IPAexGothic-65b0" d="M 3891 2803 
Q 3881 1759 3794 1166 
Q 3653 197 3097 -563 
L 2741 -250 
Q 3450 700 3450 2631 
L 3450 4647 
Q 3516 4656 3622 4666 
Q 4656 4778 5447 5063 
L 5825 4678 
Q 4897 4419 3891 4294 
L 3891 3219 
L 6119 3219 
L 6119 2803 
L 5275 2803 
L 5275 -447 
L 4834 -447 
L 4834 2803 
L 3891 2803 
z
M 2822 4069 
Q 2678 3572 2519 3181 
L 3250 3181 
L 3250 2784 
L 2059 2784 
L 2059 2216 
L 3184 2216 
L 3184 1831 
L 2059 1831 
L 2059 1544 
Q 2613 1197 3031 847 
L 2781 456 
Q 2472 791 2059 1128 
L 2059 -447 
L 1644 -447 
L 1644 1294 
Q 1272 628 575 -31 
L 269 341 
Q 1041 938 1528 1831 
L 453 1831 
L 453 2216 
L 1644 2216 
L 1644 2784 
L 319 2784 
L 319 3181 
L 1125 3181 
Q 1013 3706 881 4069 
L 453 4069 
L 453 4453 
L 1631 4453 
L 1631 5309 
L 2072 5309 
L 2072 4453 
L 3166 4453 
L 3166 4069 
L 2822 4069 
z
M 2391 4069 
L 1325 4069 
Q 1450 3672 1534 3181 
L 2109 3181 
Q 2294 3659 2391 4069 
z
" transform="scale(0.015625)"/>
     <path id="IPAexGothic-65e5" d="M 5231 4800 
L 5231 -288 
L 4744 -288 
L 4744 128 
L 1647 128 
L 1647 -288 
L 1159 -288 
L 1159 4800 
L 5231 4800 
z
M 1647 4372 
L 1647 2731 
L 4744 2731 
L 4744 4372 
L 1647 4372 
z
M 1647 2297 
L 1647 556 
L 4744 556 
L 4744 2297 
L 1647 2297 
z
" transform="scale(0.015625)"/>
     <path id="IPAexGothic-6642" d="M 2328 4728 
L 2328 563 
L 934 563 
L 934 56 
L 519 56 
L 519 4728 
L 2328 4728 
z
M 934 4331 
L 934 2881 
L 1906 2881 
L 1906 4331 
L 934 4331 
z
M 934 2497 
L 934 953 
L 1906 953 
L 1906 2497 
L 934 2497 
z
M 3938 4372 
L 3938 5313 
L 4378 5313 
L 4378 4372 
L 5772 4372 
L 5772 3981 
L 4378 3981 
L 4378 3194 
L 6072 3194 
L 6072 2803 
L 5203 2803 
L 5203 2047 
L 5959 2047 
L 5959 1650 
L 5216 1650 
L 5216 31 
Q 5216 -447 4691 -447 
Q 4394 -447 3888 -391 
L 3784 78 
Q 4272 0 4591 0 
Q 4775 0 4775 172 
L 4775 1650 
L 2581 1650 
L 2581 2047 
L 4763 2047 
L 4763 2803 
L 2538 2803 
L 2538 3194 
L 3938 3194 
L 3938 3981 
L 2716 3981 
L 2716 4372 
L 3938 4372 
z
M 3669 384 
Q 3331 950 2956 1325 
L 3291 1575 
Q 3719 1147 4025 659 
L 3669 384 
z
" transform="scale(0.015625)"/>
     <path id="IPAexGothic-3a" d="M 1369 2559 
L 672 2559 
L 672 3250 
L 1369 3250 
L 1369 2559 
z
M 1369 63 
L 672 63 
L 672 753 
L 1369 753 
L 1369 63 
z
" transform="scale(0.015625)"/>
     <path id="IPAexGothic-20" transform="scale(0.015625)"/>
     <path id="IPAexGothic-2f" d="M 2719 4709 
L 600 -884 
L 300 -763 
L 2413 4831 
L 2719 4709 
z
" transform="scale(0.015625)"/>
     <path id="IPAexGothic-38" d="M 2541 2425 
Q 3700 2031 3700 1197 
Q 3700 541 3100 197 
Q 2663 -56 2016 -56 
Q 1366 -56 928 197 
Q 347 531 347 1178 
Q 347 1988 1409 2381 
L 1409 2400 
Q 481 2734 481 3509 
Q 481 4100 981 4456 
Q 1406 4756 2019 4756 
Q 2703 4756 3131 4403 
Q 3553 4069 3553 3566 
Q 3553 2706 2541 2444 
L 2541 2425 
z
M 2022 2625 
Q 2997 2856 2997 3528 
Q 2997 3916 2675 4150 
Q 2413 4347 2016 4347 
Q 1606 4347 1331 4128 
Q 1050 3897 1050 3522 
Q 1050 3150 1350 2925 
Q 1494 2809 1722 2722 
Q 1984 2616 2022 2625 
z
M 1978 2209 
Q 922 1931 922 1216 
Q 922 775 1313 556 
Q 1606 391 2009 391 
Q 2575 391 2881 697 
Q 3106 922 3106 1250 
Q 3106 1594 2794 1850 
Q 2609 1994 2350 2100 
Q 2047 2222 1978 2209 
z
" transform="scale(0.015625)"/>
     <path id="IPAexGothic-28" d="M 1928 -1016 
L 1653 -1166 
Q 488 69 488 1875 
Q 488 3678 1653 4909 
L 1928 4763 
Q 1006 3522 1006 1881 
Q 1006 203 1928 -1016 
z
" transform="scale(0.015625)"/>
     <path id="IPAexGothic-53" d="M 2919 3641 
Q 2563 4259 1853 4259 
Q 1453 4259 1213 4009 
Q 1028 3803 1028 3534 
Q 1028 3238 1266 3047 
Q 1444 2913 1984 2688 
L 2200 2597 
Q 2925 2306 3191 1953 
Q 3422 1644 3422 1259 
Q 3422 644 2969 288 
Q 2559 -31 1931 -31 
Q 881 -31 313 766 
L 753 1100 
Q 1203 459 1938 459 
Q 2288 459 2534 625 
Q 2841 847 2841 1216 
Q 2841 1503 2616 1728 
Q 2375 1959 1728 2206 
L 1541 2278 
Q 453 2694 453 3481 
Q 453 4006 806 4347 
Q 1203 4725 1863 4725 
Q 2841 4725 3359 3956 
L 2919 3641 
z
" transform="scale(0.015625)"/>
     <path id="IPAexGothic-54" d="M 3866 4141 
L 2175 4141 
L 2175 63 
L 1606 63 
L 1606 4141 
L -31 4141 
L -31 4634 
L 3866 4634 
L 3866 4141 
z
" transform="scale(0.015625)"/>
     <path id="IPAexGothic-29" d="M 466 4909 
Q 1638 3672 1638 1875 
Q 1638 75 466 -1166 
L 191 -1016 
Q 1119 216 1119 1881 
Q 1119 3509 191 4763 
L 466 4909 
z
" transform="scale(0.015625)"/>
    </defs>
    <use xlink:href="#IPAexGothic-66f4"/>
    <use xlink:href="#IPAexGothic-65b0" x="100"/>
    <use xlink:href="#IPAexGothic-65e5" x="200"/>
    <use xlink:href="#IPAexGothic-6642" x="300"/>
    <use xlink:href="#IPAexGothic-3a" x="400"/>
    <use xlink:href="#IPAexGothic-20" x="431.982422"/>
    <use xlink:href="#IPAexGothic-32" x="458.984375"/>
    <use xlink:href="#IPAexGothic-30" x="521.972656"/>
    <use xlink:href="#IPAexGothic-32" x="584.960938"/>
    <use xlink:href="#IPAexGothic-32" x="647.949219"/>
    <use xlink:href="#IPAexGothic-2f" x="710.9375"/>
    <use xlink:href="#IPAexGothic-30" x="760.9375"/>
    <use xlink:href="#IPAexGothic-36" x="823.925781"/>
    <use xlink:href="#IPAexGothic-2f" x="886.914062"/>
    <use xlink:href="#IPAexGothic-32" x="936.914062"/>
    <use xlink:href="#IPAexGothic-35" x="999.902344"/>
    <use xlink:href="#IPAexGothic-20" x="1062.890625"/>
    <use xlink:href="#IPAexGothic-31" x="1089.892578"/>
    <use xlink:href="#IPAexGothic-32" x="1152.880859"/>
    <use xlink:href="#IPAexGothic-3a" x="1215.869141"/>
    <use xlink:href="#IPAexGothic-30" x="1247.851562"/>
    <use xlink:href="#IPAexGothic-38" x="1310.839844"/>
    <use xlink:href="#IPAexGothic-3a" x="1373.828125"/>
    <use xlink:href="#IPAexGothic-33" x="1405.810547"/>
    <use xlink:href="#IPAexGothic-38" x="1468.798828"/>
    <use xlink:href="#IPAexGothic-28" x="1531.787109"/>
    <use xlink:href="#IPAexGothic-4a" x="1565.087891"/>
    <use xlink:href="#IPAexGothic-53" x="1603.076172"/>
    <use xlink:href="#IPAexGothic-54" x="1661.572266"/>
    <use xlink:href="#IPAexGothic-29" x="1721.484375"/>
   </g>
  </g>
 </g>
 <defs>
  <clipPath id="pa40c2e9e51">
   <rect x="35.7375" y="18.879437" width="357.12" height="266.112"/>
  </clipPath>
 </defs>
</svg>
