<?xml version="1.0" encoding="utf-8" standalone="no"?>
<!DOCTYPE svg PUBLIC "-//W3C//DTD SVG 1.1//EN"
  "http://www.w3.org/Graphics/SVG/1.1/DTD/svg11.dtd">
<svg xmlns:xlink="http://www.w3.org/1999/xlink" width="397.259063pt" height="320.972687pt" viewBox="0 0 397.259063 320.972687" xmlns="http://www.w3.org/2000/svg" version="1.1">
 <metadata>
  <rdf:RDF xmlns:dc="http://purl.org/dc/elements/1.1/" xmlns:cc="http://creativecommons.org/ns#" xmlns:rdf="http://www.w3.org/1999/02/22-rdf-syntax-ns#">
   <cc:Work>
    <dc:type rdf:resource="http://purl.org/dc/dcmitype/StillImage"/>
    <dc:date>2022-12-20T07:14:17.212202</dc:date>
    <dc:format>image/svg+xml</dc:format>
    <dc:creator>
     <cc:Agent>
      <dc:title>Matplotlib v3.6.2, https://matplotlib.org/</dc:title>
     </cc:Agent>
    </dc:creator>
   </cc:Work>
  </rdf:RDF>
 </metadata>
 <defs>
  <style type="text/css">*{stroke-linejoin: round; stroke-linecap: butt}</style>
 </defs>
 <g id="figure_1">
  <g id="patch_1">
   <path d="M 0 320.972687 
L 397.259063 320.972687 
L 397.259063 0 
L 0 0 
z
" style="fill: #ffffff"/>
  </g>
  <g id="axes_1">
   <g id="patch_2">
    <path d="M 29.439063 284.991437 
L 386.559062 284.991437 
L 386.559062 18.879437 
L 29.439063 18.879437 
z
" style="fill: #ffffff"/>
   </g>
   <g id="line2d_1">
    <path d="M 29.439063 211.199039 
L 386.559062 211.199039 
" clip-path="url(#p7a22f7ab8f)" style="fill: none; stroke: #000000; stroke-linecap: square"/>
   </g>
   <g id="matplotlib.axis_1">
    <g id="xtick_1">
     <g id="line2d_2">
      <defs>
       <path id="m6b19f747cc" d="M 0 0 
L 0 3.5 
" style="stroke: #000000; stroke-width: 0.8"/>
      </defs>
      <g>
       <use xlink:href="#m6b19f747cc" x="29.439063" y="284.991437" style="stroke: #000000; stroke-width: 0.8"/>
      </g>
     </g>
     <g id="text_1">
      <!-- Jun -->
      <g transform="translate(21.499219 299.482062) scale(0.1 -0.1)">
       <defs>
        <path id="IPAexGothic-4a" d="M 1819 4634 
L 1819 1234 
Q 1819 -31 763 -31 
Q 303 -31 -125 209 
L 84 644 
Q 378 447 694 447 
Q 1250 447 1250 1203 
L 1250 4634 
L 1819 4634 
z
" transform="scale(0.015625)"/>
        <path id="IPAexGothic-75" d="M 3284 63 
L 2772 63 
L 2772 644 
Q 2300 0 1625 0 
Q 1072 0 763 375 
Q 519 678 519 1241 
L 519 3250 
L 1069 3250 
L 1069 1259 
Q 1069 466 1734 466 
Q 2406 466 2734 1291 
L 2734 3250 
L 3284 3250 
L 3284 63 
z
" transform="scale(0.015625)"/>
        <path id="IPAexGothic-6e" d="M 3328 63 
L 2778 63 
L 2778 2041 
Q 2778 2853 2106 2853 
Q 1428 2853 1113 2041 
L 1113 63 
L 563 63 
L 563 3250 
L 1075 3250 
L 1075 2675 
Q 1525 3316 2222 3316 
Q 3328 3316 3328 2072 
L 3328 63 
z
" transform="scale(0.015625)"/>
       </defs>
       <use xlink:href="#IPAexGothic-4a"/>
       <use xlink:href="#IPAexGothic-75" x="37.988281"/>
       <use xlink:href="#IPAexGothic-6e" x="98.388672"/>
      </g>
     </g>
    </g>
    <g id="xtick_2">
     <g id="line2d_3">
      <g>
       <use xlink:href="#m6b19f747cc" x="82.215417" y="284.991437" style="stroke: #000000; stroke-width: 0.8"/>
      </g>
     </g>
     <g id="text_2">
      <!-- Jul -->
      <g transform="translate(75.945886 299.482062) scale(0.1 -0.1)">
       <defs>
        <path id="IPAexGothic-6c" d="M 1131 63 
L 581 63 
L 581 4794 
L 1131 4794 
L 1131 63 
z
" transform="scale(0.015625)"/>
       </defs>
       <use xlink:href="#IPAexGothic-4a"/>
       <use xlink:href="#IPAexGothic-75" x="37.988281"/>
       <use xlink:href="#IPAexGothic-6c" x="98.388672"/>
      </g>
     </g>
    </g>
    <g id="xtick_3">
     <g id="line2d_4">
      <g>
       <use xlink:href="#m6b19f747cc" x="136.750984" y="284.991437" style="stroke: #000000; stroke-width: 0.8"/>
      </g>
     </g>
     <g id="text_3">
      <!-- Aug -->
      <g transform="translate(127.768952 299.42425) scale(0.1 -0.1)">
       <defs>
        <path id="IPAexGothic-41" d="M 4056 63 
L 3444 63 
L 2938 1409 
L 1100 1409 
L 603 63 
L -6 63 
L 1806 4666 
L 2259 4666 
L 4056 63 
z
M 2778 1863 
L 2316 3078 
Q 2125 3588 2028 4000 
L 2009 4000 
Q 1897 3563 1716 3078 
L 1263 1863 
L 2778 1863 
z
" transform="scale(0.015625)"/>
        <path id="IPAexGothic-67" d="M 1331 1150 
Q 1006 1122 1006 900 
Q 1006 613 1763 575 
L 2131 556 
Q 3303 497 3303 -294 
Q 3303 -700 2925 -959 
Q 2519 -1253 1794 -1253 
Q 1138 -1253 738 -1028 
Q 353 -809 353 -428 
Q 353 84 1075 247 
L 1075 269 
Q 506 413 506 778 
Q 506 1116 994 1297 
Q 456 1575 456 2181 
Q 456 2650 769 2963 
Q 1128 3322 1738 3322 
Q 2125 3322 2422 3153 
Q 2650 3453 3259 3463 
L 3259 3013 
Q 2838 3003 2703 2938 
Q 3034 2613 3034 2169 
Q 3034 1728 2734 1425 
Q 2400 1094 1813 1094 
Q 1563 1094 1331 1150 
z
M 1734 2919 
Q 1409 2919 1197 2706 
Q 988 2497 988 2181 
Q 988 1872 1184 1684 
Q 1397 1472 1756 1472 
Q 2094 1472 2297 1678 
Q 2503 1881 2503 2203 
Q 2503 2497 2297 2700 
Q 2081 2919 1734 2919 
z
M 1753 159 
Q 903 159 903 -366 
Q 903 -875 1800 -875 
Q 2378 -875 2638 -606 
Q 2772 -481 2772 -313 
Q 2772 159 1753 159 
z
" transform="scale(0.015625)"/>
       </defs>
       <use xlink:href="#IPAexGothic-41"/>
       <use xlink:href="#IPAexGothic-75" x="63.720703"/>
       <use xlink:href="#IPAexGothic-67" x="124.121094"/>
      </g>
     </g>
    </g>
    <g id="xtick_4">
     <g id="line2d_5">
      <g>
       <use xlink:href="#m6b19f747cc" x="191.28655" y="284.991437" style="stroke: #000000; stroke-width: 0.8"/>
      </g>
     </g>
     <g id="text_4">
      <!-- Sep -->
      <g transform="translate(182.41155 299.482062) scale(0.1 -0.1)">
       <defs>
        <path id="IPAexGothic-53" d="M 2919 3641 
Q 2563 4259 1853 4259 
Q 1453 4259 1213 4009 
Q 1028 3803 1028 3534 
Q 1028 3238 1266 3047 
Q 1444 2913 1984 2688 
L 2200 2597 
Q 2925 2306 3191 1953 
Q 3422 1644 3422 1259 
Q 3422 644 2969 288 
Q 2559 -31 1931 -31 
Q 881 -31 313 766 
L 753 1100 
Q 1203 459 1938 459 
Q 2288 459 2534 625 
Q 2841 847 2841 1216 
Q 2841 1503 2616 1728 
Q 2375 1959 1728 2206 
L 1541 2278 
Q 453 2694 453 3481 
Q 453 4006 806 4347 
Q 1203 4725 1863 4725 
Q 2841 4725 3359 3956 
L 2919 3641 
z
" transform="scale(0.015625)"/>
        <path id="IPAexGothic-65" d="M 863 1594 
Q 891 1041 1209 722 
Q 1534 397 1997 397 
Q 2606 397 2963 966 
L 3322 728 
Q 2869 -31 1931 -31 
Q 1222 -31 766 422 
Q 306 884 306 1641 
Q 306 2444 788 2925 
Q 1216 3353 1856 3353 
Q 2459 3353 2866 2956 
Q 3322 2494 3322 1722 
L 3322 1594 
L 863 1594 
z
M 2756 1997 
Q 2709 2431 2450 2681 
Q 2194 2938 1844 2938 
Q 1438 2938 1150 2591 
Q 953 2356 894 1997 
L 2756 1997 
z
" transform="scale(0.015625)"/>
        <path id="IPAexGothic-70" d="M 1075 2688 
Q 1525 3341 2206 3341 
Q 2769 3341 3172 2938 
Q 3641 2469 3641 1644 
Q 3641 841 3178 372 
Q 2775 -31 2200 -31 
Q 1569 -31 1106 497 
L 1106 -1216 
L 563 -1216 
L 563 3250 
L 1075 3250 
L 1075 2688 
z
M 1106 1950 
L 1106 1291 
Q 1106 897 1516 600 
Q 1791 403 2106 403 
Q 2469 403 2725 659 
Q 3066 997 3066 1631 
Q 3066 2200 2784 2559 
Q 2503 2900 2100 2900 
Q 1656 2900 1338 2484 
Q 1106 2184 1106 1950 
z
" transform="scale(0.015625)"/>
       </defs>
       <use xlink:href="#IPAexGothic-53"/>
       <use xlink:href="#IPAexGothic-65" x="58.496094"/>
       <use xlink:href="#IPAexGothic-70" x="115.380859"/>
      </g>
     </g>
    </g>
    <g id="xtick_5">
     <g id="line2d_6">
      <g>
       <use xlink:href="#m6b19f747cc" x="244.062905" y="284.991437" style="stroke: #000000; stroke-width: 0.8"/>
      </g>
     </g>
     <g id="text_5">
      <!-- Oct -->
      <g transform="translate(235.627749 299.482062) scale(0.1 -0.1)">
       <defs>
        <path id="IPAexGothic-4f" d="M 2541 4725 
Q 3456 4725 4044 4138 
Q 4709 3472 4709 2331 
Q 4709 1219 4031 550 
Q 3450 -31 2541 -31 
Q 1638 -31 1056 550 
Q 378 1219 378 2356 
Q 378 3469 1044 4138 
Q 1631 4725 2541 4725 
z
M 2541 4266 
Q 1953 4266 1531 3844 
Q 994 3303 994 2350 
Q 994 1391 1531 863 
Q 1947 447 2541 447 
Q 3131 447 3556 863 
Q 4094 1400 4094 2375 
Q 4094 3297 3550 3844 
Q 3138 4266 2541 4266 
z
" transform="scale(0.015625)"/>
        <path id="IPAexGothic-63" d="M 3269 784 
Q 2834 -31 1900 -31 
Q 1228 -31 788 409 
Q 313 891 313 1663 
Q 313 2428 788 2913 
Q 1222 3347 1881 3347 
Q 2813 3347 3206 2541 
L 2763 2309 
Q 2484 2900 1900 2900 
Q 1516 2900 1234 2619 
Q 881 2266 881 1650 
Q 881 1069 1222 728 
Q 1522 428 1956 428 
Q 2547 428 2847 1016 
L 3269 784 
z
" transform="scale(0.015625)"/>
        <path id="IPAexGothic-74" d="M 2125 241 
Q 1769 -6 1397 -6 
Q 653 -6 653 831 
L 653 2859 
L 219 2859 
L 219 3250 
L 653 3250 
L 653 3966 
L 1178 4228 
L 1178 3250 
L 2063 3250 
L 2063 2859 
L 1178 2859 
L 1178 906 
Q 1178 416 1513 416 
Q 1738 416 1941 588 
L 2125 241 
z
" transform="scale(0.015625)"/>
       </defs>
       <use xlink:href="#IPAexGothic-4f"/>
       <use xlink:href="#IPAexGothic-63" x="79.6875"/>
       <use xlink:href="#IPAexGothic-74" x="134.082031"/>
      </g>
     </g>
    </g>
    <g id="xtick_6">
     <g id="line2d_7">
      <g>
       <use xlink:href="#m6b19f747cc" x="298.598471" y="284.991437" style="stroke: #000000; stroke-width: 0.8"/>
      </g>
     </g>
     <g id="text_6">
      <!-- Nov -->
      <g transform="translate(289.350034 299.482062) scale(0.1 -0.1)">
       <defs>
        <path id="IPAexGothic-4e" d="M 4244 63 
L 3731 63 
L 1697 3150 
Q 1466 3500 1141 4097 
L 1116 4097 
L 1128 3797 
Q 1159 2803 1159 2469 
L 1159 63 
L 609 63 
L 609 4634 
L 1366 4634 
L 3113 1978 
Q 3453 1447 3713 966 
L 3738 966 
Q 3694 1897 3694 2469 
L 3694 4634 
L 4244 4634 
L 4244 63 
z
" transform="scale(0.015625)"/>
        <path id="IPAexGothic-6f" d="M 1919 3341 
Q 2594 3341 3056 2888 
Q 3531 2413 3531 1638 
Q 3531 888 3066 422 
Q 2609 -31 1919 -31 
Q 1228 -31 781 416 
Q 313 881 313 1656 
Q 313 2413 788 2888 
Q 1241 3341 1919 3341 
z
M 1919 2919 
Q 1519 2919 1241 2631 
Q 888 2278 888 1650 
Q 888 1031 1234 684 
Q 1516 403 1919 403 
Q 2331 403 2609 691 
Q 2956 1038 2956 1672 
Q 2956 2269 2603 2631 
Q 2316 2919 1919 2919 
z
" transform="scale(0.015625)"/>
        <path id="IPAexGothic-76" d="M 3103 3250 
L 1747 6 
L 1375 6 
L 25 3250 
L 628 3250 
L 1338 1388 
L 1522 844 
L 1569 703 
L 1588 703 
Q 1641 884 1822 1388 
L 2516 3250 
L 3103 3250 
z
" transform="scale(0.015625)"/>
       </defs>
       <use xlink:href="#IPAexGothic-4e"/>
       <use xlink:href="#IPAexGothic-6f" x="75.976562"/>
       <use xlink:href="#IPAexGothic-76" x="136.376953"/>
      </g>
     </g>
    </g>
    <g id="xtick_7">
     <g id="line2d_8">
      <g>
       <use xlink:href="#m6b19f747cc" x="351.374826" y="284.991437" style="stroke: #000000; stroke-width: 0.8"/>
      </g>
     </g>
     <g id="text_7">
      <!-- Dec -->
      <g transform="translate(342.026389 299.482062) scale(0.1 -0.1)">
       <defs>
        <path id="IPAexGothic-44" d="M 609 4634 
L 1984 4634 
Q 3159 4634 3791 4050 
Q 4456 3444 4456 2356 
Q 4456 1047 3516 441 
Q 2925 63 1941 63 
L 609 63 
L 609 4634 
z
M 1172 556 
L 1894 556 
Q 3853 556 3853 2356 
Q 3853 4147 1928 4147 
L 1172 4147 
L 1172 556 
z
" transform="scale(0.015625)"/>
       </defs>
       <use xlink:href="#IPAexGothic-44"/>
       <use xlink:href="#IPAexGothic-65" x="75.683594"/>
       <use xlink:href="#IPAexGothic-63" x="132.568359"/>
      </g>
     </g>
    </g>
    <g id="text_8">
     <!-- 2022 -->
     <g transform="translate(361.365312 311.872687) scale(0.1 -0.1)">
      <defs>
       <path id="IPAexGothic-32" d="M 3659 63 
L 447 63 
L 447 594 
Q 825 1475 1894 2203 
L 2072 2322 
Q 2619 2697 2791 2906 
Q 2988 3153 2988 3444 
Q 2988 3772 2756 4003 
Q 2500 4259 2084 4259 
Q 1250 4259 991 3328 
L 497 3506 
Q 853 4725 2116 4725 
Q 2806 4725 3216 4316 
Q 3575 3947 3575 3425 
Q 3575 3038 3344 2722 
Q 3131 2416 2366 1938 
L 2231 1856 
Q 1256 1253 978 569 
L 3659 569 
L 3659 63 
z
" transform="scale(0.015625)"/>
       <path id="IPAexGothic-30" d="M 2038 4725 
Q 2881 4725 3334 3944 
Q 3694 3325 3694 2344 
Q 3694 1372 3334 741 
Q 2888 -31 2016 -31 
Q 1147 -31 700 741 
Q 341 1372 341 2350 
Q 341 3713 1000 4334 
Q 1419 4725 2038 4725 
z
M 2016 4266 
Q 1516 4266 1228 3759 
Q 934 3247 934 2344 
Q 934 1456 1222 947 
Q 1513 447 2016 447 
Q 2619 447 2909 1153 
Q 3100 1622 3100 2375 
Q 3100 3256 2806 3759 
Q 2509 4266 2016 4266 
z
" transform="scale(0.015625)"/>
      </defs>
      <use xlink:href="#IPAexGothic-32"/>
      <use xlink:href="#IPAexGothic-30" x="62.988281"/>
      <use xlink:href="#IPAexGothic-32" x="125.976562"/>
      <use xlink:href="#IPAexGothic-32" x="188.964844"/>
     </g>
    </g>
   </g>
   <g id="matplotlib.axis_2">
    <g id="ytick_1">
     <g id="line2d_9">
      <defs>
       <path id="m018cf9369f" d="M 0 0 
L -3.5 0 
" style="stroke: #000000; stroke-width: 0.8"/>
      </defs>
      <g>
       <use xlink:href="#m018cf9369f" x="29.439063" y="269.014637" style="stroke: #000000; stroke-width: 0.8"/>
      </g>
     </g>
     <g id="text_9">
      <!-- 0.5 -->
      <g transform="translate(7.2 272.759949) scale(0.1 -0.1)">
       <defs>
        <path id="IPAexGothic-2e" d="M 1184 63 
L 494 63 
L 494 753 
L 1184 753 
L 1184 63 
z
" transform="scale(0.015625)"/>
        <path id="IPAexGothic-35" d="M 1178 2603 
Q 1634 2963 2172 2963 
Q 2816 2963 3241 2528 
Q 3638 2113 3638 1497 
Q 3638 938 3297 513 
Q 2869 -31 2031 -31 
Q 959 -31 469 784 
L 938 1028 
Q 1309 434 2013 434 
Q 2466 434 2769 716 
Q 3081 1013 3081 1503 
Q 3081 1966 2806 2241 
Q 2519 2528 2056 2528 
Q 1406 2528 1072 2028 
L 591 2091 
L 884 4634 
L 3406 4634 
L 3406 4153 
L 1341 4153 
L 1134 2603 
L 1178 2603 
z
" transform="scale(0.015625)"/>
       </defs>
       <use xlink:href="#IPAexGothic-30"/>
       <use xlink:href="#IPAexGothic-2e" x="62.988281"/>
       <use xlink:href="#IPAexGothic-35" x="89.404297"/>
      </g>
     </g>
    </g>
    <g id="ytick_2">
     <g id="line2d_10">
      <g>
       <use xlink:href="#m018cf9369f" x="29.439063" y="211.199039" style="stroke: #000000; stroke-width: 0.8"/>
      </g>
     </g>
     <g id="text_10">
      <!-- 1.0 -->
      <g transform="translate(7.2 214.944352) scale(0.1 -0.1)">
       <defs>
        <path id="IPAexGothic-31" d="M 2463 63 
L 1900 63 
L 1900 4103 
Q 1372 3922 788 3797 
L 684 4231 
Q 1519 4441 2106 4731 
L 2463 4731 
L 2463 63 
z
" transform="scale(0.015625)"/>
       </defs>
       <use xlink:href="#IPAexGothic-31"/>
       <use xlink:href="#IPAexGothic-2e" x="62.988281"/>
       <use xlink:href="#IPAexGothic-30" x="89.404297"/>
      </g>
     </g>
    </g>
    <g id="ytick_3">
     <g id="line2d_11">
      <g>
       <use xlink:href="#m018cf9369f" x="29.439063" y="153.383442" style="stroke: #000000; stroke-width: 0.8"/>
      </g>
     </g>
     <g id="text_11">
      <!-- 1.5 -->
      <g transform="translate(7.2 157.128754) scale(0.1 -0.1)">
       <use xlink:href="#IPAexGothic-31"/>
       <use xlink:href="#IPAexGothic-2e" x="62.988281"/>
       <use xlink:href="#IPAexGothic-35" x="89.404297"/>
      </g>
     </g>
    </g>
    <g id="ytick_4">
     <g id="line2d_12">
      <g>
       <use xlink:href="#m018cf9369f" x="29.439063" y="95.567844" style="stroke: #000000; stroke-width: 0.8"/>
      </g>
     </g>
     <g id="text_12">
      <!-- 2.0 -->
      <g transform="translate(7.2 99.313157) scale(0.1 -0.1)">
       <use xlink:href="#IPAexGothic-32"/>
       <use xlink:href="#IPAexGothic-2e" x="62.988281"/>
       <use xlink:href="#IPAexGothic-30" x="89.404297"/>
      </g>
     </g>
    </g>
    <g id="ytick_5">
     <g id="line2d_13">
      <g>
       <use xlink:href="#m018cf9369f" x="29.439063" y="37.752247" style="stroke: #000000; stroke-width: 0.8"/>
      </g>
     </g>
     <g id="text_13">
      <!-- 2.5 -->
      <g transform="translate(7.2 41.497559) scale(0.1 -0.1)">
       <use xlink:href="#IPAexGothic-32"/>
       <use xlink:href="#IPAexGothic-2e" x="62.988281"/>
       <use xlink:href="#IPAexGothic-35" x="89.404297"/>
      </g>
     </g>
    </g>
   </g>
   <g id="line2d_14">
    <path d="M 29.439063 227.411867 
L 31.198274 255.471758 
L 32.957486 269.405805 
L 34.716698 242.945807 
L 36.47591 262.441258 
L 39.994333 251.639145 
L 41.753545 227.514621 
L 43.512757 229.940841 
L 45.271969 194.078383 
L 47.031181 246.403784 
L 48.790393 250.411663 
L 50.549604 205.84664 
L 52.308816 249.191321 
L 54.068028 272.895437 
L 55.82724 243.090535 
L 57.586452 247.559579 
L 59.345663 238.429093 
L 61.104875 112.810292 
L 62.864087 184.323192 
L 64.623299 181.498781 
L 66.382511 30.975437 
L 69.900934 168.571026 
L 71.660146 110.868109 
L 73.419358 213.126183 
L 75.17857 156.293505 
L 76.937782 124.518024 
L 78.696994 151.875457 
L 80.456205 236.751655 
L 82.215417 106.655378 
L 83.974629 51.387485 
L 85.733841 102.788184 
L 87.493053 95.926279 
L 89.252264 36.542983 
L 91.011476 79.37836 
L 92.770688 35.439549 
L 94.5299 110.396771 
L 96.289112 116.980214 
L 98.048324 109.726148 
L 99.807535 177.160719 
L 101.566747 110.814502 
L 103.325959 153.702013 
L 105.085171 148.460822 
L 106.844383 164.812112 
L 108.603595 190.526245 
L 110.362806 181.526351 
L 112.122018 197.096587 
L 113.88123 219.976945 
L 115.640442 163.710275 
L 117.399654 173.022011 
L 119.158865 196.817697 
L 120.918077 179.527296 
L 122.677289 191.661352 
L 124.436501 192.887858 
L 126.195713 173.15897 
L 127.954925 188.50237 
L 129.714136 201.809366 
L 131.473348 195.197746 
L 133.23256 183.412435 
L 134.991772 192.046725 
L 136.750984 204.737627 
L 138.510196 199.025674 
L 140.269407 189.016626 
L 142.028619 185.809755 
L 143.787831 182.941981 
L 145.547043 200.02008 
L 147.306255 192.032303 
L 149.065466 181.775482 
L 150.824678 186.871327 
L 152.58389 193.9839 
L 154.343102 204.601463 
L 156.102314 225.669065 
L 157.861526 207.989558 
L 159.620737 218.057369 
L 161.379949 204.232725 
L 163.139161 217.282458 
L 164.898373 202.720535 
L 166.657585 195.141529 
L 168.416796 153.461242 
L 170.176008 171.531238 
L 171.93522 185.828914 
L 173.694432 204.950127 
L 175.453644 187.736367 
L 177.212856 211.671324 
L 178.972067 216.92144 
L 180.731279 231.587854 
L 182.490491 248.509599 
L 184.249703 240.826108 
L 186.008915 241.29957 
L 187.768127 247.072575 
L 189.527338 251.367839 
L 191.28655 251.669425 
L 193.045762 251.785215 
L 194.804974 242.900107 
L 196.564186 251.663262 
L 198.323397 241.186243 
L 200.082609 228.929625 
L 201.841821 240.670472 
L 203.601033 239.689961 
L 205.360245 228.587222 
L 207.119457 234.114512 
L 208.878668 220.053728 
L 210.63788 221.634093 
L 212.397092 247.789493 
L 214.156304 250.578039 
L 215.915516 230.847867 
L 217.674728 240.571341 
L 219.433939 229.667605 
L 221.193151 228.965012 
L 222.952363 226.507 
L 224.711575 266.267581 
L 226.470787 173.994674 
L 228.229998 228.352097 
L 229.98921 212.968149 
L 231.748422 243.863512 
L 233.507634 195.951487 
L 235.266846 187.500784 
L 237.026058 195.32975 
L 238.785269 238.855842 
L 240.544481 224.563828 
L 242.303693 239.674853 
L 244.062905 205.067187 
L 245.822117 219.657973 
L 247.581329 258.893645 
L 249.34054 189.095647 
L 251.099752 231.988543 
L 252.858964 230.452082 
L 254.618176 208.848889 
L 256.377388 214.413367 
L 258.136599 237.774657 
L 259.895811 208.216448 
L 261.655023 269.328924 
L 263.414235 186.857034 
L 265.173447 168.652783 
L 266.932659 211.199039 
L 268.69187 197.903063 
L 270.451082 190.42842 
L 272.210294 209.746404 
L 273.969506 135.123595 
L 275.728718 212.926136 
L 277.487929 239.34414 
L 279.247141 184.631705 
L 281.006353 193.892671 
L 282.765565 220.351516 
L 284.524777 197.002011 
L 286.283989 191.634272 
L 288.0432 213.253557 
L 289.802412 183.049443 
L 291.561624 199.198481 
L 293.320836 190.346771 
L 295.080048 160.309806 
L 296.83926 189.784075 
L 298.598471 198.104074 
L 300.357683 152.110827 
L 302.116895 152.9204 
L 303.876107 232.748365 
L 305.635319 165.024121 
L 307.39453 194.085734 
L 309.153742 199.838398 
L 310.912954 173.564927 
L 312.672166 209.205445 
L 314.431378 206.690562 
L 316.19059 156.249641 
L 317.949801 220.402577 
L 319.709013 215.284532 
L 321.468225 225.924092 
L 323.227437 188.099011 
L 324.986649 185.511636 
L 326.745861 211.199039 
L 328.505072 194.160213 
L 330.264284 184.55213 
L 332.023496 182.799057 
L 335.54192 203.930102 
L 337.301131 168.757197 
L 339.060343 220.491359 
L 340.819555 171.577359 
L 344.337979 192.11637 
L 346.097191 204.402838 
L 347.856402 198.987955 
L 349.615614 181.777237 
L 351.374826 142.696764 
L 353.134038 213.580923 
L 354.89325 220.529523 
L 356.652462 204.080643 
L 358.411673 205.292279 
L 360.170885 181.962456 
L 361.930097 194.793532 
L 363.689309 197.432704 
L 365.448521 173.295964 
L 367.207732 175.045451 
L 368.966944 167.16196 
L 370.726156 187.120934 
L 372.485368 183.834422 
L 374.24458 173.778001 
L 376.003792 181.23856 
L 377.763003 201.020413 
L 379.522215 187.828789 
L 381.281427 213.66936 
L 383.040639 207.768569 
L 384.799851 207.130207 
L 384.799851 207.130207 
" clip-path="url(#p7a22f7ab8f)" style="fill: none; stroke: #1f77b4; stroke-width: 1.5; stroke-linecap: square"/>
   </g>
   <g id="line2d_15">
    <path d="M 29.439063 230.929789 
L 31.198274 242.60231 
L 32.957486 262.8168 
L 34.716698 257.425513 
L 36.47591 253.337157 
L 38.235122 259.836211 
L 39.994333 254.434415 
L 41.753545 240.414674 
L 43.512757 228.735232 
L 45.271969 213.41839 
L 47.031181 223.501825 
L 48.790393 248.433331 
L 50.549604 230.677266 
L 52.308816 229.912564 
L 54.068028 262.11981 
L 55.82724 259.625445 
L 57.586452 245.355694 
L 59.345663 243.118728 
L 61.104875 189.281671 
L 62.864087 152.189606 
L 64.623299 182.917915 
L 66.382511 119.473036 
L 68.141723 68.196709 
L 69.900934 137.669929 
L 71.660146 141.957318 
L 73.419358 170.127431 
L 75.17857 187.579679 
L 76.937782 141.084002 
L 78.696994 138.693349 
L 80.456205 201.292679 
L 82.215417 186.000414 
L 83.974629 80.567026 
L 85.733841 78.413733 
L 87.493053 99.383107 
L 89.252264 67.931655 
L 91.011476 58.815077 
L 92.770688 58.306173 
L 94.5299 75.699401 
L 96.289112 113.713912 
L 98.048324 113.383995 
L 99.807535 146.569691 
L 101.566747 147.022086 
L 103.325959 133.443524 
L 105.085171 151.100956 
L 106.844383 156.832948 
L 108.603595 178.224324 
L 110.362806 186.098223 
L 112.122018 189.532009 
L 113.88123 209.091256 
L 115.640442 194.807872 
L 117.399654 168.434555 
L 119.158865 185.419494 
L 120.918077 188.44227 
L 122.677289 185.724694 
L 124.436501 192.276003 
L 126.195713 183.362139 
L 127.954925 181.032368 
L 129.714136 195.324076 
L 131.473348 198.546144 
L 133.23256 189.431392 
L 134.991772 187.79659 
L 136.750984 198.54902 
L 138.510196 201.914295 
L 140.269407 194.115474 
L 142.028619 187.422411 
L 143.787831 184.383085 
L 145.547043 191.750659 
L 147.306255 196.087179 
L 149.065466 186.997904 
L 150.824678 184.346184 
L 152.58389 190.473981 
L 154.343102 199.403219 
L 156.102314 215.633088 
L 157.861526 217.185071 
L 159.620737 213.134848 
L 161.379949 211.351742 
L 163.139161 210.94113 
L 164.898373 210.228598 
L 166.657585 198.987184 
L 168.416796 175.731796 
L 170.176008 162.744798 
L 173.694432 195.737687 
L 175.453644 196.62741 
L 177.212856 200.268399 
L 178.972067 214.327003 
L 180.731279 224.517111 
L 182.490491 240.462163 
L 184.249703 244.757718 
L 186.008915 241.063165 
L 187.768127 244.236496 
L 189.527338 249.249927 
L 191.28655 251.518783 
L 193.045762 251.727342 
L 194.804974 247.466905 
L 196.564186 247.402446 
L 198.323397 246.595581 
L 200.082609 235.262778 
L 201.841821 234.987471 
L 203.601033 240.181603 
L 205.360245 234.304978 
L 207.119457 231.390872 
L 208.878668 227.332189 
L 210.63788 220.846856 
L 212.397092 235.644814 
L 214.156304 249.196285 
L 215.915516 241.279862 
L 217.674728 235.839395 
L 219.433939 235.281663 
L 221.193151 229.316941 
L 222.952363 227.743627 
L 224.711575 248.882551 
L 226.470787 230.621466 
L 228.229998 204.147875 
L 229.98921 220.93913 
L 231.748422 229.635769 
L 233.507634 222.625721 
L 235.266846 191.792225 
L 237.026058 191.471858 
L 238.785269 219.272458 
L 240.544481 231.97864 
L 242.303693 232.42119 
L 244.062905 223.814193 
L 245.822117 212.595296 
L 247.581329 241.501939 
L 249.34054 230.097519 
L 251.099752 212.536835 
L 252.858964 231.223399 
L 254.618176 220.196168 
L 256.377388 211.66473 
L 258.136599 226.773505 
L 259.895811 224.052711 
L 261.655023 244.24423 
L 263.414235 237.116008 
L 265.173447 178.033043 
L 268.69187 204.731901 
L 270.451082 194.218394 
L 272.210294 200.456001 
L 273.969506 177.011185 
L 275.728718 179.059561 
L 277.487929 227.005264 
L 279.247141 215.29372 
L 281.006353 189.34014 
L 282.765565 207.855357 
L 284.524777 209.25497 
L 286.283989 194.345323 
L 288.0432 202.914504 
L 289.802412 199.04078 
L 291.561624 191.364392 
L 293.320836 194.846812 
L 295.080048 176.074523 
L 296.83926 175.764073 
L 298.598471 194.009205 
L 300.357683 176.860376 
L 302.116895 152.516084 
L 303.876107 198.91713 
L 305.635319 203.448625 
L 307.39453 180.273516 
L 309.153742 196.993923 
L 310.912954 187.318791 
L 312.672166 192.562593 
L 314.431378 207.954654 
L 316.19059 183.674736 
L 317.949801 192.091624 
L 319.709013 217.873602 
L 321.468225 220.737602 
L 323.227437 208.513572 
L 324.986649 186.8113 
L 326.745861 198.998945 
L 328.505072 202.972279 
L 330.264284 189.440136 
L 332.023496 183.678277 
L 333.782708 188.335204 
L 335.54192 198.897374 
L 337.301131 187.448754 
L 339.060343 197.179515 
L 340.819555 198.341262 
L 342.578767 176.894581 
L 344.337979 187.16406 
L 346.097191 198.406453 
L 347.856402 201.724689 
L 349.615614 190.654224 
L 351.374826 163.401008 
L 353.134038 182.424595 
L 354.89325 217.110216 
L 356.652462 212.600777 
L 358.411673 204.687964 
L 360.170885 194.139114 
L 361.930097 188.526714 
L 363.689309 196.119779 
L 365.448521 185.880047 
L 367.207732 174.173214 
L 368.966944 171.1536 
L 370.726156 177.474475 
L 372.485368 185.48723 
L 374.24458 178.891638 
L 376.003792 177.554882 
L 377.763003 191.49043 
L 379.522215 194.588989 
L 381.281427 201.412831 
L 383.040639 210.756455 
L 384.799851 207.449815 
L 384.799851 207.449815 
" clip-path="url(#p7a22f7ab8f)" style="fill: none; stroke: #ff7f0e; stroke-width: 1.5; stroke-linecap: square"/>
   </g>
   <g id="line2d_16">
    <path d="M 29.439063 229.122786 
L 31.198274 239.928401 
L 32.957486 252.698705 
L 34.716698 256.780278 
L 36.47591 259.139403 
L 38.235122 254.622372 
L 39.994333 257.208287 
L 41.753545 246.388486 
L 43.512757 237.055655 
L 45.271969 218.326475 
L 48.790393 233.387372 
L 50.549604 236.234427 
L 52.308816 237.293425 
L 55.82724 256.313321 
L 57.586452 255.822722 
L 59.345663 243.109331 
L 61.104875 212.36467 
L 64.623299 162.563334 
L 66.382511 143.84129 
L 68.141723 113.406318 
L 69.900934 107.256927 
L 71.660146 129.127564 
L 73.419358 169.610337 
L 75.17857 165.645532 
L 76.937782 169.115602 
L 78.696994 144.753156 
L 80.456205 179.647632 
L 82.215417 175.437505 
L 83.974629 150.710969 
L 85.733841 88.208754 
L 87.493053 84.394062 
L 89.252264 80.114816 
L 91.011476 71.804879 
L 92.770688 51.239386 
L 94.5299 76.931758 
L 96.289112 90.291085 
L 98.048324 112.392863 
L 99.807535 137.201801 
L 101.566747 135.362509 
L 103.325959 149.276885 
L 105.085171 138.58476 
L 106.844383 155.795645 
L 108.603595 168.900399 
L 113.88123 200.539182 
L 115.640442 195.575228 
L 117.399654 187.912342 
L 119.158865 178.52472 
L 120.918077 183.482093 
L 122.677289 189.523726 
L 124.436501 188.153999 
L 126.195713 186.18367 
L 127.954925 185.09643 
L 129.714136 188.315827 
L 131.473348 195.281979 
L 133.23256 193.687884 
L 134.991772 190.308761 
L 136.750984 193.689874 
L 138.510196 198.708102 
L 140.269407 197.755094 
L 142.028619 191.402728 
L 143.787831 185.944654 
L 145.547043 189.7987 
L 147.306255 191.844605 
L 149.065466 191.480812 
L 150.824678 186.955724 
L 152.58389 187.634041 
L 154.343102 195.355837 
L 156.102314 208.84012 
L 159.620737 217.476612 
L 161.379949 210.241718 
L 163.139161 213.36349 
L 164.898373 208.263285 
L 166.657585 205.402114 
L 168.416796 185.324114 
L 170.176008 174.344388 
L 171.93522 170.831497 
L 173.694432 188.120092 
L 175.453644 193.123075 
L 177.212856 201.848623 
L 178.972067 206.082407 
L 180.731279 220.402845 
L 182.490491 233.236603 
L 184.249703 240.583648 
L 186.008915 243.620823 
L 187.768127 243.114997 
L 191.28655 250.064959 
L 193.045762 251.607698 
L 194.804974 248.893225 
L 196.564186 248.891095 
L 198.323397 245.382199 
L 200.082609 241.092938 
L 201.841821 237.10204 
L 203.601033 236.582508 
L 205.360245 236.477418 
L 207.119457 234.241533 
L 208.878668 227.752305 
L 210.63788 225.467971 
L 212.397092 230.718701 
L 214.156304 240.92208 
L 215.915516 243.507227 
L 217.674728 241.044337 
L 219.433939 233.826969 
L 221.193151 233.222764 
L 222.952363 228.38915 
L 224.711575 242.740121 
L 226.470787 229.269077 
L 228.229998 229.870881 
L 229.98921 207.161383 
L 231.748422 229.209749 
L 233.507634 219.501156 
L 235.266846 212.031087 
L 237.026058 192.98185 
L 238.785269 209.581314 
L 240.544481 221.065989 
L 242.303693 234.616737 
L 244.062905 224.06468 
L 245.822117 222.447011 
L 247.581329 230.764786 
L 249.34054 226.735849 
L 251.099752 230.732013 
L 252.858964 218.850986 
L 254.618176 224.281475 
L 256.377388 218.302399 
L 258.136599 221.123664 
L 259.895811 220.93512 
L 261.655023 242.141688 
L 263.414235 228.364316 
L 265.173447 218.44859 
L 266.932659 190.029585 
L 268.69187 193.727182 
L 270.451082 200.139008 
L 272.210294 199.610689 
L 273.969506 181.624175 
L 275.728718 190.09163 
L 277.487929 202.749265 
L 279.247141 214.510045 
L 281.006353 208.573118 
L 282.765565 200.569432 
L 284.524777 204.342327 
L 286.283989 203.652593 
L 288.0432 200.974213 
L 289.802412 196.618162 
L 291.561624 199.093369 
L 293.320836 191.026031 
L 295.080048 184.214067 
L 296.83926 180.790352 
L 298.598471 183.611312 
L 300.357683 181.298308 
L 302.116895 169.270937 
L 303.876107 184.905831 
L 305.635319 188.492178 
L 307.39453 200.403438 
L 309.153742 187.108997 
L 310.912954 189.611924 
L 312.672166 195.033037 
L 314.431378 197.447481 
L 316.19059 192.747876 
L 317.949801 197.145102 
L 319.709013 200.314175 
L 321.468225 220.626045 
L 324.986649 201.295556 
L 326.745861 195.464272 
L 328.505072 197.405968 
L 330.264284 197.113713 
L 332.023496 187.261183 
L 333.782708 187.08549 
L 335.54192 193.741822 
L 337.301131 189.550213 
L 339.060343 199.469935 
L 340.819555 189.152671 
L 342.578767 193.119185 
L 344.337979 182.150609 
L 346.097191 193.164416 
L 347.856402 198.60058 
L 349.615614 195.400607 
L 351.374826 176.246527 
L 353.134038 182.20913 
L 354.89325 196.443074 
L 356.652462 212.928431 
L 358.411673 210.214796 
L 360.170885 197.539344 
L 361.930097 194.357613 
L 365.448521 188.916137 
L 367.207732 182.357292 
L 368.966944 171.871023 
L 370.726156 176.669151 
L 372.485368 179.625281 
L 374.24458 181.687232 
L 376.003792 179.678119 
L 377.763003 185.826618 
L 379.522215 190.280728 
L 381.281427 201.282161 
L 383.040639 203.568241 
L 384.799851 209.560079 
L 384.799851 209.560079 
" clip-path="url(#p7a22f7ab8f)" style="fill: none; stroke: #2ca02c; stroke-width: 1.5; stroke-linecap: square"/>
   </g>
   <g id="line2d_17">
    <path d="M 29.439063 221.275211 
L 31.198274 236.505406 
L 32.957486 248.478994 
L 34.716698 250.372301 
L 36.47591 258.240554 
L 38.235122 258.641514 
L 39.994333 253.887849 
L 41.753545 250.742613 
L 43.512757 242.558839 
L 45.271969 227.832517 
L 47.031181 226.152528 
L 48.790393 232.537407 
L 50.549604 227.154092 
L 52.308816 239.663468 
L 54.068028 247.949949 
L 55.82724 246.12502 
L 57.586452 254.219959 
L 59.345663 251.824807 
L 61.104875 220.968504 
L 62.864087 205.919399 
L 64.623299 186.135769 
L 66.382511 136.533121 
L 68.141723 133.903952 
L 69.900934 128.780364 
L 71.660146 108.165345 
L 73.419358 154.661857 
L 75.17857 166.381937 
L 76.937782 156.222628 
L 80.456205 174.127491 
L 82.215417 164.056515 
L 83.974629 151.002816 
L 85.733841 139.788926 
L 87.493053 90.161987 
L 89.252264 73.226844 
L 91.011476 79.930908 
L 92.770688 63.162834 
L 94.5299 67.394559 
L 96.289112 87.608872 
L 98.048324 95.307164 
L 99.807535 130.829051 
L 101.566747 130.923693 
L 105.085171 149.07322 
L 106.844383 145.514995 
L 108.603595 165.230701 
L 110.362806 172.15619 
L 112.122018 183.990017 
L 113.88123 198.107108 
L 115.640442 192.195781 
L 117.399654 190.267628 
L 119.158865 190.194295 
L 120.918077 178.776002 
L 122.677289 185.572177 
L 124.436501 190.372599 
L 126.195713 184.54832 
L 127.954925 186.766963 
L 129.714136 189.473261 
L 131.473348 190.069324 
L 133.23256 192.410021 
L 138.510196 195.044354 
L 140.269407 196.351076 
L 142.028619 194.867136 
L 143.787831 189.335364 
L 145.547043 189.603599 
L 147.306255 190.360547 
L 149.065466 189.394825 
L 150.824678 190.342872 
L 152.58389 188.74688 
L 154.343102 192.084855 
L 156.102314 203.69443 
L 157.861526 208.628052 
L 159.620737 214.390906 
L 161.379949 214.306201 
L 163.139161 212.043229 
L 164.898373 210.791529 
L 166.657585 205.110817 
L 168.416796 194.096195 
L 170.176008 181.995215 
L 171.93522 177.300368 
L 173.694432 180.166067 
L 175.453644 188.02426 
L 177.212856 198.022962 
L 178.972067 205.800327 
L 180.731279 213.03684 
L 182.490491 228.256977 
L 184.249703 235.194567 
L 186.008915 240.763189 
L 187.768127 244.49752 
L 189.527338 245.259188 
L 193.045762 250.498685 
L 194.804974 249.519384 
L 196.564186 249.59516 
L 198.323397 247.032432 
L 200.082609 241.548346 
L 201.841821 240.987516 
L 205.360245 234.646856 
L 207.119457 235.892398 
L 208.878668 230.881904 
L 210.63788 226.256947 
L 212.397092 231.579139 
L 214.156304 236.122417 
L 215.915516 238.507266 
L 217.674728 242.782759 
L 219.433939 238.331566 
L 221.193151 232.634606 
L 222.952363 231.587191 
L 224.711575 239.646891 
L 226.470787 229.193149 
L 228.229998 229.040635 
L 229.98921 225.896331 
L 231.748422 217.632953 
L 233.507634 221.78581 
L 235.266846 212.266073 
L 237.026058 208.065956 
L 238.785269 206.313066 
L 240.544481 213.521109 
L 242.303693 226.061058 
L 244.062905 227.980673 
L 245.822117 222.980288 
L 247.581329 233.074257 
L 249.34054 221.710038 
L 251.099752 228.075685 
L 252.858964 230.662107 
L 254.618176 216.432907 
L 256.377388 221.898783 
L 258.136599 223.537176 
L 259.895811 218.034898 
L 261.655023 235.927619 
L 263.414235 230.806248 
L 265.173447 215.976432 
L 266.932659 216.679967 
L 268.69187 192.041922 
L 270.451082 192.910047 
L 272.210294 202.612348 
L 273.969506 185.877122 
L 275.728718 190.175906 
L 277.487929 204.536808 
L 279.247141 198.448671 
L 281.006353 209.676726 
L 282.765565 211.634562 
L 284.524777 199.686873 
L 286.283989 201.281933 
L 288.0432 206.126362 
L 289.802412 196.71423 
L 291.561624 197.268091 
L 293.320836 196.960725 
L 295.080048 183.923798 
L 296.83926 185.627441 
L 298.598471 185.325715 
L 300.357683 176.313222 
L 302.116895 174.670499 
L 303.876107 188.327129 
L 305.635319 180.177036 
L 309.153742 200.262414 
L 310.912954 183.839538 
L 312.672166 194.796847 
L 314.431378 198.049398 
L 316.19059 188.189868 
L 317.949801 200.271432 
L 319.709013 201.939318 
L 321.468225 207.269481 
L 323.227437 213.289999 
L 324.986649 204.949238 
L 326.745861 203.848238 
L 328.505072 195.139464 
L 330.264284 194.305696 
L 332.023496 193.674278 
L 333.782708 188.888776 
L 335.54192 191.5016 
L 337.301131 187.892686 
L 339.060343 198.041309 
L 340.819555 193.005785 
L 342.578767 187.405469 
L 344.337979 192.869183 
L 346.097191 188.066754 
L 347.856402 194.64471 
L 349.615614 194.587132 
L 351.374826 183.841066 
L 353.134038 186.599767 
L 354.89325 192.921842 
L 356.652462 198.395901 
L 358.411673 211.065593 
L 360.170885 203.715513 
L 361.930097 196.858291 
L 363.689309 195.13317 
L 365.448521 187.209652 
L 367.207732 185.572071 
L 368.966944 178.699715 
L 370.726156 175.832866 
L 372.485368 178.493445 
L 374.24458 178.184745 
L 376.003792 181.575194 
L 377.763003 185.331186 
L 379.522215 186.329848 
L 381.281427 196.546057 
L 383.040639 202.936162 
L 384.799851 204.468548 
L 384.799851 204.468548 
" clip-path="url(#p7a22f7ab8f)" style="fill: none; stroke: #d62728; stroke-width: 1.5; stroke-linecap: square"/>
   </g>
   <g id="line2d_18">
    <path d="M 29.439063 222.506149 
L 31.198274 229.225195 
L 32.957486 244.328125 
L 34.716698 247.402355 
L 36.47591 252.954749 
L 38.235122 258.019032 
L 39.994333 257.295259 
L 41.753545 249.2435 
L 43.512757 246.974437 
L 45.271969 234.54074 
L 47.031181 231.861658 
L 48.790393 231.553594 
L 50.549604 227.717781 
L 52.308816 232.012654 
L 54.068028 247.643113 
L 57.586452 246.413994 
L 59.345663 251.305355 
L 61.104875 234.325278 
L 62.864087 214.484016 
L 64.623299 201.387908 
L 66.382511 163.586194 
L 68.141723 129.858474 
L 69.900934 141.397281 
L 71.660146 125.3209 
L 73.419358 134.972888 
L 75.17857 154.989431 
L 76.937782 158.76708 
L 78.696994 155.361922 
L 80.456205 182.873277 
L 82.215417 162.532711 
L 83.974629 145.998895 
L 85.733841 142.271252 
L 87.493053 131.739654 
L 89.252264 80.2958 
L 91.011476 74.469261 
L 92.770688 71.612377 
L 94.5299 73.369884 
L 96.289112 78.170446 
L 98.048324 92.205622 
L 99.807535 114.651386 
L 101.566747 126.98029 
L 103.325959 135.707335 
L 105.085171 141.820322 
L 106.844383 152.338799 
L 108.603595 155.572908 
L 110.362806 168.629853 
L 112.122018 177.501124 
L 113.88123 192.046346 
L 115.640442 191.863517 
L 117.399654 188.562489 
L 119.158865 191.603524 
L 120.918077 188.124556 
L 122.677289 181.447777 
L 124.436501 187.0666 
L 126.195713 187.0915 
L 127.954925 185.34807 
L 129.714136 189.913695 
L 131.473348 190.637736 
L 133.23256 188.763136 
L 134.991772 192.33744 
L 136.750984 195.654061 
L 138.510196 195.075047 
L 140.269407 193.860278 
L 142.028619 194.307816 
L 143.787831 192.563919 
L 145.547043 191.542008 
L 149.065466 188.685177 
L 150.824678 188.893792 
L 152.58389 191.078975 
L 154.343102 192.074346 
L 156.102314 199.593102 
L 157.861526 204.565698 
L 159.620737 210.577143 
L 161.379949 212.428944 
L 163.139161 214.907852 
L 164.898373 210.23647 
L 166.657585 207.817891 
L 168.416796 196.188428 
L 170.176008 189.862088 
L 171.93522 182.770205 
L 173.694432 183.291563 
L 175.453644 181.712392 
L 177.212856 193.113415 
L 180.731279 211.463604 
L 184.249703 230.909798 
L 187.768127 242.063784 
L 189.527338 245.919887 
L 191.28655 246.583547 
L 193.045762 248.741635 
L 194.804974 249.036102 
L 196.564186 249.952996 
L 198.323397 247.98217 
L 200.082609 243.701758 
L 201.841821 241.373489 
L 203.601033 240.72956 
L 205.360245 235.993508 
L 207.119457 234.540632 
L 208.878668 232.924776 
L 210.63788 229.099784 
L 212.397092 230.988135 
L 214.156304 235.724345 
L 215.915516 235.091221 
L 217.674728 238.923995 
L 219.433939 240.309621 
L 221.193151 236.532871 
L 222.952363 231.439783 
L 224.711575 239.832571 
L 226.470787 229.288225 
L 228.229998 229.025515 
L 229.98921 226.018762 
L 231.748422 229.776904 
L 233.507634 213.604985 
L 235.266846 215.680869 
L 237.026058 209.062995 
L 238.785269 214.984372 
L 240.544481 210.206824 
L 242.303693 219.314815 
L 244.062905 222.17396 
L 245.822117 226.369517 
L 247.581329 231.430807 
L 249.34054 225.577264 
L 251.099752 223.851206 
L 252.858964 228.555607 
L 254.618176 226.648719 
L 256.377388 216.031922 
L 258.136599 225.28565 
L 259.895811 220.640156 
L 261.655023 231.061495 
L 263.414235 227.73105 
L 265.173447 220.726004 
L 266.932659 215.037011 
L 268.69187 213.157231 
L 270.451082 191.720756 
L 272.210294 196.460668 
L 273.969506 191.350375 
L 275.728718 191.757527 
L 277.487929 201.836996 
L 279.247141 200.792232 
L 281.006353 197.550137 
L 282.765565 211.894043 
L 284.524777 208.846332 
L 286.283989 198.115669 
L 288.0432 203.773183 
L 289.802412 201.828184 
L 291.561624 197.214919 
L 293.320836 195.912493 
L 296.83926 185.115566 
L 298.598471 188.215948 
L 300.357683 179.230873 
L 302.116895 171.901027 
L 303.876107 188.619752 
L 305.635319 183.951829 
L 307.39453 183.070739 
L 309.153742 191.957715 
L 310.912954 195.323676 
L 312.672166 189.316525 
L 314.431378 197.266248 
L 316.19059 190.602066 
L 317.949801 195.331172 
L 319.709013 203.427593 
L 321.468225 207.153921 
L 323.227437 203.660003 
L 324.986649 208.209749 
L 326.745861 206.225655 
L 328.505072 201.968952 
L 330.264284 193.086981 
L 332.023496 192.080368 
L 333.782708 193.671134 
L 335.54192 192.037551 
L 337.301131 187.230909 
L 339.060343 195.127704 
L 340.819555 193.136595 
L 342.578767 190.879234 
L 344.337979 188.360647 
L 346.097191 195.259724 
L 347.856402 190.323195 
L 349.615614 192.16594 
L 351.374826 185.535827 
L 353.134038 190.356327 
L 354.89325 194.157665 
L 356.652462 195.231943 
L 358.411673 199.805793 
L 360.170885 205.75506 
L 361.930097 201.980701 
L 363.689309 196.973377 
L 367.207732 184.857416 
L 368.966944 182.068236 
L 370.726156 180.423619 
L 372.485368 177.468219 
L 374.24458 177.562124 
L 376.003792 178.80059 
L 377.763003 185.690961 
L 379.522215 185.834271 
L 383.040639 198.87215 
L 384.799851 203.786566 
L 384.799851 203.786566 
" clip-path="url(#p7a22f7ab8f)" style="fill: none; stroke: #9467bd; stroke-width: 1.5; stroke-linecap: square"/>
   </g>
   <g id="line2d_19">
    <path d="M 29.439063 221.989476 
L 31.198274 228.904971 
L 32.957486 237.483987 
L 34.716698 244.099331 
L 36.47591 250.133055 
L 39.994333 256.994611 
L 41.753545 253.038847 
L 45.271969 239.915086 
L 47.031181 236.632969 
L 48.790393 235.239876 
L 50.549604 227.68395 
L 52.308816 231.670455 
L 54.068028 240.522 
L 55.82724 246.901912 
L 57.586452 247.094508 
L 59.345663 245.135114 
L 61.104875 236.98727 
L 62.864087 227.417148 
L 64.623299 209.558869 
L 68.141723 154.479575 
L 69.900934 136.912814 
L 71.660146 136.626651 
L 73.419358 143.651398 
L 75.17857 138.702995 
L 76.937782 150.24993 
L 78.696994 157.637623 
L 80.456205 172.805614 
L 82.215417 172.308881 
L 83.974629 147.756838 
L 85.733841 139.424444 
L 87.493053 135.249771 
L 89.252264 118.380389 
L 91.011476 80.14313 
L 92.770688 68.347758 
L 94.5299 78.528388 
L 98.048324 83.731536 
L 99.807535 109.142714 
L 101.566747 114.016671 
L 103.325959 131.704446 
L 105.085171 137.894546 
L 106.844383 145.867244 
L 108.603595 159.375849 
L 110.362806 160.199988 
L 112.122018 173.774933 
L 113.88123 185.603024 
L 115.640442 187.691034 
L 119.158865 189.973888 
L 120.918077 189.661866 
L 122.677289 188.720384 
L 124.436501 183.420157 
L 126.195713 184.839306 
L 127.954925 187.32764 
L 129.714136 188.234936 
L 131.473348 190.808875 
L 133.23256 189.459306 
L 134.991772 189.315904 
L 136.750984 194.488321 
L 138.510196 196.222111 
L 140.269407 194.084129 
L 142.028619 192.551171 
L 143.787831 192.477858 
L 145.547043 193.836383 
L 147.306255 191.623847 
L 149.065466 188.740474 
L 150.824678 188.38451 
L 152.58389 189.755489 
L 154.343102 193.432394 
L 156.102314 198.363082 
L 157.861526 201.032618 
L 159.620737 206.925265 
L 161.379949 209.543013 
L 163.139161 213.252545 
L 164.898373 212.963095 
L 166.657585 207.846519 
L 170.176008 192.369156 
L 171.93522 189.197994 
L 173.694432 186.729077 
L 175.453644 184.042107 
L 177.212856 187.198671 
L 180.731279 207.540235 
L 182.490491 218.675332 
L 184.249703 224.780796 
L 186.008915 232.725185 
L 189.527338 243.690539 
L 191.28655 246.907814 
L 193.045762 247.474879 
L 194.804974 247.797075 
L 196.564186 249.480254 
L 198.323397 248.556817 
L 200.082609 245.08607 
L 201.841821 243.204053 
L 205.360245 238.815428 
L 207.119457 235.683007 
L 208.878668 232.270423 
L 210.63788 231.130882 
L 212.397092 232.49656 
L 214.156304 234.57189 
L 215.915516 234.929153 
L 217.674728 236.028174 
L 219.433939 237.444895 
L 221.193151 238.514573 
L 222.952363 234.934333 
L 224.711575 238.395766 
L 226.470787 231.266365 
L 228.229998 229.132824 
L 229.98921 226.515892 
L 231.748422 229.239417 
L 233.507634 224.817696 
L 235.266846 209.621523 
L 237.026058 212.522123 
L 240.544481 216.641101 
L 242.303693 215.732855 
L 244.062905 217.061613 
L 245.822117 221.758769 
L 247.581329 232.710465 
L 249.34054 225.409058 
L 251.099752 226.675144 
L 252.858964 224.981941 
L 254.618176 225.516094 
L 256.377388 224.706134 
L 258.136599 219.993368 
L 259.895811 222.621729 
L 261.655023 230.960194 
L 263.414235 224.808205 
L 265.173447 219.699069 
L 266.932659 219.194515 
L 268.69187 212.348296 
L 270.451082 209.65087 
L 272.210294 194.907088 
L 273.969506 187.807324 
L 275.728718 195.211158 
L 277.487929 201.189777 
L 279.247141 199.121299 
L 281.006353 199.667689 
L 282.765565 201.664094 
L 284.524777 209.536309 
L 286.283989 206.137929 
L 288.0432 200.771985 
L 289.802412 200.539284 
L 291.561624 201.393693 
L 295.080048 190.557175 
L 296.83926 190.24811 
L 298.598471 187.367939 
L 300.357683 182.763564 
L 302.116895 175.139954 
L 303.876107 184.260041 
L 307.39453 185.693006 
L 309.153742 186.011723 
L 310.912954 189.053189 
L 312.672166 197.746163 
L 314.431378 192.377572 
L 316.19059 191.188962 
L 317.949801 196.093335 
L 319.709013 198.888857 
L 321.468225 207.49831 
L 324.986649 200.805821 
L 326.745861 208.713277 
L 328.505072 204.293783 
L 330.264284 199.221764 
L 332.023496 191.424833 
L 333.782708 192.344692 
L 335.54192 195.438584 
L 337.301131 188.410429 
L 339.060343 193.421343 
L 340.819555 191.466693 
L 342.578767 191.34645 
L 344.337979 191.086209 
L 346.097191 191.173373 
L 347.856402 195.888562 
L 349.615614 188.934661 
L 351.374826 184.957424 
L 353.134038 190.651256 
L 354.89325 195.922878 
L 356.652462 195.865522 
L 358.411673 196.964714 
L 360.170885 196.992366 
L 361.930097 203.993471 
L 363.689309 201.233957 
L 365.448521 193.29733 
L 367.207732 188.48751 
L 368.966944 182.050611 
L 370.726156 182.922867 
L 372.485368 180.997684 
L 374.24458 176.85942 
L 376.003792 178.181248 
L 377.763003 182.759312 
L 379.522215 186.049535 
L 381.281427 190.908696 
L 383.040639 194.995539 
L 384.799851 200.287033 
L 384.799851 200.287033 
" clip-path="url(#p7a22f7ab8f)" style="fill: none; stroke: #8c564b; stroke-width: 1.5; stroke-linecap: square"/>
   </g>
   <g id="line2d_20">
    <path d="M 29.439063 224.216778 
L 31.198274 227.596136 
L 32.957486 236.094002 
L 34.716698 238.285498 
L 36.47591 247.009287 
L 38.235122 251.173405 
L 39.994333 253.38057 
L 41.753545 253.391419 
L 43.512757 250.111493 
L 45.271969 240.35466 
L 47.031181 240.873149 
L 48.790393 238.743918 
L 50.549604 231.524757 
L 52.308816 231.087585 
L 54.068028 239.084283 
L 55.82724 240.893702 
L 57.586452 246.996197 
L 59.345663 245.910647 
L 61.104875 233.085415 
L 62.864087 230.86679 
L 64.623299 221.875268 
L 66.382511 192.984554 
L 68.141723 172.579527 
L 69.900934 156.56697 
L 71.660146 133.393898 
L 73.419358 150.105108 
L 75.17857 145.513232 
L 76.937782 136.739153 
L 78.696994 150.483069 
L 80.456205 172.207681 
L 82.215417 164.739432 
L 83.974629 159.007124 
L 85.733841 141.932814 
L 87.493053 133.752243 
L 91.011476 113.209754 
L 92.770688 74.203567 
L 94.5299 74.821343 
L 96.289112 84.425418 
L 98.048324 85.512302 
L 99.807535 100.005778 
L 101.566747 109.382331 
L 103.325959 120.19955 
L 105.085171 134.191304 
L 106.844383 141.997781 
L 108.603595 153.047456 
L 110.362806 162.735832 
L 112.122018 166.052801 
L 113.88123 181.433711 
L 115.640442 182.665304 
L 117.399654 185.684395 
L 119.158865 190.052933 
L 120.918077 188.528151 
L 122.677289 189.949308 
L 124.436501 189.323584 
L 126.195713 181.997329 
L 127.954925 185.368481 
L 129.714136 189.494891 
L 131.473348 189.251731 
L 133.23256 189.776067 
L 134.991772 189.831957 
L 136.750984 191.63289 
L 138.510196 195.146246 
L 140.269407 195.216294 
L 142.028619 192.932486 
L 143.787831 191.218756 
L 145.547043 193.58218 
L 147.306255 193.580143 
L 149.065466 190.258975 
L 150.824678 188.474989 
L 152.58389 189.198645 
L 154.343102 191.981943 
L 156.102314 198.601115 
L 157.861526 199.784621 
L 159.620737 203.618883 
L 161.379949 206.544268 
L 163.139161 210.681256 
L 164.898373 211.804545 
L 166.657585 210.573035 
L 168.416796 201.272819 
L 171.93522 191.453746 
L 173.694432 191.567199 
L 175.453644 186.873421 
L 177.212856 188.362043 
L 178.972067 191.892493 
L 182.490491 214.499122 
L 184.249703 222.158824 
L 186.008915 227.322903 
L 187.768127 234.922937 
L 189.527338 240.308315 
L 191.28655 244.880253 
L 193.045762 247.623529 
L 194.804974 246.836933 
L 196.564186 248.36133 
L 198.323397 248.346486 
L 200.082609 246.014508 
L 201.841821 244.469403 
L 203.601033 242.710852 
L 205.360245 239.410904 
L 207.119457 238.158751 
L 208.878668 233.598803 
L 210.63788 230.819473 
L 212.397092 233.710105 
L 214.156304 235.321048 
L 215.915516 234.048867 
L 217.674728 235.757231 
L 219.433939 235.145673 
L 221.193151 236.280027 
L 222.952363 236.891486 
L 224.711575 240.248563 
L 226.470787 231.206691 
L 228.229998 230.855381 
L 229.98921 226.97232 
L 231.748422 229.200263 
L 233.507634 225.060755 
L 235.266846 220.171876 
L 237.026058 207.679122 
L 238.785269 216.719103 
L 240.544481 216.123738 
L 242.303693 220.271379 
L 244.062905 214.26839 
L 245.822117 217.436337 
L 247.581329 228.104504 
L 249.34054 227.449084 
L 251.099752 226.376218 
L 252.858964 227.223636 
L 254.618176 222.819885 
L 256.377388 223.999794 
L 258.136599 226.684388 
L 259.895811 218.385403 
L 261.655023 231.107781 
L 263.414235 225.63427 
L 265.173447 218.212387 
L 266.932659 218.52415 
L 268.69187 216.383034 
L 270.451082 209.44702 
L 272.210294 209.664523 
L 273.969506 187.671964 
L 275.728718 191.709338 
L 277.487929 202.671045 
L 279.247141 198.947973 
L 281.006353 198.387136 
L 282.765565 202.852002 
L 284.524777 201.008475 
L 286.283989 207.131896 
L 288.0432 207.18111 
L 289.802412 198.380668 
L 291.561624 200.348606 
L 293.320836 199.87207 
L 295.080048 191.497092 
L 296.83926 190.446999 
L 298.598471 191.399083 
L 300.357683 182.804438 
L 302.116895 178.836405 
L 303.876107 185.145917 
L 305.635319 181.658839 
L 307.39453 186.284838 
L 309.153742 187.806378 
L 310.912954 184.297498 
L 312.672166 192.130815 
L 314.431378 199.063592 
L 316.19059 187.727666 
L 317.949801 195.808404 
L 319.709013 199.024939 
L 321.468225 203.154815 
L 323.227437 204.902638 
L 324.986649 201.663825 
L 326.745861 202.345891 
L 328.505072 206.736348 
L 330.264284 201.650842 
L 332.023496 196.995616 
L 333.782708 191.746216 
L 335.54192 194.064329 
L 337.301131 191.922213 
L 339.060343 193.527147 
L 340.819555 190.499864 
L 342.578767 190.157175 
L 344.337979 191.456708 
L 346.097191 193.073793 
L 347.856402 192.318328 
L 349.615614 193.959995 
L 351.374826 183.119016 
L 354.89325 195.385749 
L 356.652462 197.120655 
L 358.411673 197.255697 
L 360.170885 194.920628 
L 361.930097 196.680503 
L 363.689309 203.076989 
L 365.448521 197.57802 
L 367.207732 190.830877 
L 368.966944 185.624953 
L 370.726156 182.786056 
L 372.485368 183.053444 
L 374.24458 179.987536 
L 376.003792 177.492985 
L 377.763003 181.681811 
L 379.522215 183.494688 
L 381.281427 190.37394 
L 383.040639 193.456085 
L 384.799851 196.801619 
L 384.799851 196.801619 
" clip-path="url(#p7a22f7ab8f)" style="fill: none; stroke: #e377c2; stroke-width: 1.5; stroke-linecap: square"/>
   </g>
   <g id="patch_3">
    <path d="M 29.439063 284.991437 
L 29.439063 18.879437 
" style="fill: none; stroke: #000000; stroke-width: 0.8; stroke-linejoin: miter; stroke-linecap: square"/>
   </g>
   <g id="patch_4">
    <path d="M 386.559062 284.991437 
L 386.559062 18.879437 
" style="fill: none; stroke: #000000; stroke-width: 0.8; stroke-linejoin: miter; stroke-linecap: square"/>
   </g>
   <g id="patch_5">
    <path d="M 29.439063 284.991437 
L 386.559062 284.991437 
" style="fill: none; stroke: #000000; stroke-width: 0.8; stroke-linejoin: miter; stroke-linecap: square"/>
   </g>
   <g id="patch_6">
    <path d="M 29.439063 18.879437 
L 386.559062 18.879437 
" style="fill: none; stroke: #000000; stroke-width: 0.8; stroke-linejoin: miter; stroke-linecap: square"/>
   </g>
   <g id="legend_1">
    <g id="patch_7">
     <path d="M 341.260625 127.613812 
L 379.559062 127.613812 
Q 381.559062 127.613812 381.559062 125.613812 
L 381.559062 25.879437 
Q 381.559062 23.879437 379.559062 23.879437 
L 341.260625 23.879437 
Q 339.260625 23.879437 339.260625 25.879437 
L 339.260625 125.613812 
Q 339.260625 127.613812 341.260625 127.613812 
z
" style="fill: #ffffff; opacity: 0.8; stroke: #cccccc; stroke-linejoin: miter"/>
    </g>
    <g id="line2d_21">
     <path d="M 343.260625 31.870062 
L 353.260625 31.870062 
L 363.260625 31.870062 
" style="fill: none; stroke: #1f77b4; stroke-width: 1.5; stroke-linecap: square"/>
    </g>
    <g id="text_14">
     <!-- 1 -->
     <g transform="translate(371.260625 35.370062) scale(0.1 -0.1)">
      <use xlink:href="#IPAexGothic-31"/>
     </g>
    </g>
    <g id="line2d_22">
     <path d="M 343.260625 46.260687 
L 353.260625 46.260687 
L 363.260625 46.260687 
" style="fill: none; stroke: #ff7f0e; stroke-width: 1.5; stroke-linecap: square"/>
    </g>
    <g id="text_15">
     <!-- 2 -->
     <g transform="translate(371.260625 49.760687) scale(0.1 -0.1)">
      <use xlink:href="#IPAexGothic-32"/>
     </g>
    </g>
    <g id="line2d_23">
     <path d="M 343.260625 60.651312 
L 353.260625 60.651312 
L 363.260625 60.651312 
" style="fill: none; stroke: #2ca02c; stroke-width: 1.5; stroke-linecap: square"/>
    </g>
    <g id="text_16">
     <!-- 3 -->
     <g transform="translate(371.260625 64.151312) scale(0.1 -0.1)">
      <defs>
       <path id="IPAexGothic-33" d="M 2381 2419 
Q 3506 2216 3506 1278 
Q 3506 716 3128 356 
Q 2709 -31 1944 -31 
Q 797 -31 288 881 
L 756 1131 
Q 1109 441 1938 441 
Q 2425 441 2694 691 
Q 2950 928 2950 1291 
Q 2950 1719 2566 1978 
Q 2216 2213 1644 2213 
L 1363 2213 
L 1363 2669 
L 1656 2669 
Q 2231 2669 2534 2888 
Q 2859 3119 2859 3509 
Q 2859 3934 2494 4138 
Q 2259 4278 1931 4278 
Q 1238 4278 903 3578 
L 434 3803 
Q 897 4725 1938 4725 
Q 2597 4725 3006 4394 
Q 3416 4069 3416 3534 
Q 3416 3028 3019 2706 
Q 2763 2500 2381 2444 
L 2381 2419 
z
" transform="scale(0.015625)"/>
      </defs>
      <use xlink:href="#IPAexGothic-33"/>
     </g>
    </g>
    <g id="line2d_24">
     <path d="M 343.260625 75.041937 
L 353.260625 75.041937 
L 363.260625 75.041937 
" style="fill: none; stroke: #d62728; stroke-width: 1.5; stroke-linecap: square"/>
    </g>
    <g id="text_17">
     <!-- 4 -->
     <g transform="translate(371.260625 78.541937) scale(0.1 -0.1)">
      <defs>
       <path id="IPAexGothic-34" d="M 3813 1159 
L 3059 1159 
L 3059 63 
L 2547 63 
L 2547 1159 
L 197 1159 
L 197 1672 
L 2456 4678 
L 3059 4678 
L 3059 1634 
L 3813 1634 
L 3813 1159 
z
M 2578 4109 
L 2559 4109 
Q 2278 3656 2003 3284 
L 759 1634 
L 2547 1634 
L 2547 3144 
Q 2547 3481 2578 4109 
z
" transform="scale(0.015625)"/>
      </defs>
      <use xlink:href="#IPAexGothic-34"/>
     </g>
    </g>
    <g id="line2d_25">
     <path d="M 343.260625 89.432562 
L 353.260625 89.432562 
L 363.260625 89.432562 
" style="fill: none; stroke: #9467bd; stroke-width: 1.5; stroke-linecap: square"/>
    </g>
    <g id="text_18">
     <!-- 5 -->
     <g transform="translate(371.260625 92.932562) scale(0.1 -0.1)">
      <use xlink:href="#IPAexGothic-35"/>
     </g>
    </g>
    <g id="line2d_26">
     <path d="M 343.260625 103.823187 
L 353.260625 103.823187 
L 363.260625 103.823187 
" style="fill: none; stroke: #8c564b; stroke-width: 1.5; stroke-linecap: square"/>
    </g>
    <g id="text_19">
     <!-- 6 -->
     <g transform="translate(371.260625 107.323187) scale(0.1 -0.1)">
      <defs>
       <path id="IPAexGothic-36" d="M 1056 2328 
Q 1509 2981 2234 2981 
Q 2906 2981 3316 2513 
Q 3675 2106 3675 1522 
Q 3675 884 3272 434 
Q 2853 -31 2178 -31 
Q 1375 -31 922 581 
Q 481 1178 481 2228 
Q 481 3425 1013 4109 
Q 1494 4725 2272 4725 
Q 3191 4725 3609 4025 
L 3150 3775 
Q 2894 4266 2300 4266 
Q 1119 4266 1031 2328 
L 1056 2328 
z
M 2141 2547 
Q 1684 2547 1384 2206 
Q 1116 1900 1116 1541 
Q 1116 1156 1353 844 
Q 1672 428 2159 428 
Q 2669 428 2941 844 
Q 3125 1128 3125 1503 
Q 3125 1944 2881 2228 
Q 2600 2547 2141 2547 
z
" transform="scale(0.015625)"/>
      </defs>
      <use xlink:href="#IPAexGothic-36"/>
     </g>
    </g>
    <g id="line2d_27">
     <path d="M 343.260625 118.213812 
L 353.260625 118.213812 
L 363.260625 118.213812 
" style="fill: none; stroke: #e377c2; stroke-width: 1.5; stroke-linecap: square"/>
    </g>
    <g id="text_20">
     <!-- 7 -->
     <g transform="translate(371.260625 121.713812) scale(0.1 -0.1)">
      <defs>
       <path id="IPAexGothic-37" d="M 3597 4263 
Q 2238 2106 1778 63 
L 1131 63 
Q 1581 1834 2950 4128 
L 428 4128 
L 428 4634 
L 3597 4634 
L 3597 4263 
z
" transform="scale(0.015625)"/>
      </defs>
      <use xlink:href="#IPAexGothic-37"/>
     </g>
    </g>
   </g>
  </g>
  <g id="axes_2">
   <g id="matplotlib.axis_3"/>
   <g id="patch_8">
    <path d="M 29.439063 284.991437 
L 29.439063 18.879437 
" style="fill: none; stroke: #000000; stroke-width: 0.8; stroke-linejoin: miter; stroke-linecap: square"/>
   </g>
   <g id="patch_9">
    <path d="M 386.559062 284.991437 
L 386.559062 18.879437 
" style="fill: none; stroke: #000000; stroke-width: 0.8; stroke-linejoin: miter; stroke-linecap: square"/>
   </g>
   <g id="patch_10">
    <path d="M 29.439063 284.991437 
L 386.559062 284.991437 
" style="fill: none; stroke: #000000; stroke-width: 0.8; stroke-linejoin: miter; stroke-linecap: square"/>
   </g>
   <g id="patch_11">
    <path d="M 29.439063 18.879437 
L 386.559062 18.879437 
" style="fill: none; stroke: #000000; stroke-width: 0.8; stroke-linejoin: miter; stroke-linecap: square"/>
   </g>
  </g>
  <g id="text_21">
   <!-- : 2022/12/20 16:14:16(JST) -->
   <g transform="translate(211.087188 15.423437) scale(0.1 -0.1)">
    <defs>
     <path id="IPAexGothic-66f4" d="M 2956 3994 
L 2956 4588 
L 513 4588 
L 513 4984 
L 5881 4984 
L 5881 4588 
L 3413 4588 
L 3413 3994 
L 5300 3994 
L 5300 1288 
L 4838 1288 
L 4838 1759 
L 3406 1759 
Q 3384 1125 3150 709 
Q 4291 244 5997 31 
L 5694 -428 
Q 4109 -166 2906 384 
Q 2294 -266 744 -488 
L 494 -66 
Q 1903 59 2491 588 
Q 2041 813 1594 1166 
L 1928 1434 
Q 2331 1106 2747 897 
Q 2922 1219 2950 1759 
L 1556 1759 
L 1556 1413 
L 1097 1413 
L 1097 3994 
L 2956 3994 
z
M 2956 3609 
L 1556 3609 
L 1556 3078 
L 2956 3078 
L 2956 3609 
z
M 3413 3609 
L 3413 3078 
L 4838 3078 
L 4838 3609 
L 3413 3609 
z
M 2956 2700 
L 1556 2700 
L 1556 2144 
L 2956 2144 
L 2956 2700 
z
M 3413 2700 
L 3413 2144 
L 4838 2144 
L 4838 2700 
L 3413 2700 
z
" transform="scale(0.015625)"/>
     <path id="IPAexGothic-65b0" d="M 3891 2803 
Q 3881 1759 3794 1166 
Q 3653 197 3097 -563 
L 2741 -250 
Q 3450 700 3450 2631 
L 3450 4647 
Q 3516 4656 3622 4666 
Q 4656 4778 5447 5063 
L 5825 4678 
Q 4897 4419 3891 4294 
L 3891 3219 
L 6119 3219 
L 6119 2803 
L 5275 2803 
L 5275 -447 
L 4834 -447 
L 4834 2803 
L 3891 2803 
z
M 2822 4069 
Q 2678 3572 2519 3181 
L 3250 3181 
L 3250 2784 
L 2059 2784 
L 2059 2216 
L 3184 2216 
L 3184 1831 
L 2059 1831 
L 2059 1544 
Q 2613 1197 3031 847 
L 2781 456 
Q 2472 791 2059 1128 
L 2059 -447 
L 1644 -447 
L 1644 1294 
Q 1272 628 575 -31 
L 269 341 
Q 1041 938 1528 1831 
L 453 1831 
L 453 2216 
L 1644 2216 
L 1644 2784 
L 319 2784 
L 319 3181 
L 1125 3181 
Q 1013 3706 881 4069 
L 453 4069 
L 453 4453 
L 1631 4453 
L 1631 5309 
L 2072 5309 
L 2072 4453 
L 3166 4453 
L 3166 4069 
L 2822 4069 
z
M 2391 4069 
L 1325 4069 
Q 1450 3672 1534 3181 
L 2109 3181 
Q 2294 3659 2391 4069 
z
" transform="scale(0.015625)"/>
     <path id="IPAexGothic-65e5" d="M 5231 4800 
L 5231 -288 
L 4744 -288 
L 4744 128 
L 1647 128 
L 1647 -288 
L 1159 -288 
L 1159 4800 
L 5231 4800 
z
M 1647 4372 
L 1647 2731 
L 4744 2731 
L 4744 4372 
L 1647 4372 
z
M 1647 2297 
L 1647 556 
L 4744 556 
L 4744 2297 
L 1647 2297 
z
" transform="scale(0.015625)"/>
     <path id="IPAexGothic-6642" d="M 2328 4728 
L 2328 563 
L 934 563 
L 934 56 
L 519 56 
L 519 4728 
L 2328 4728 
z
M 934 4331 
L 934 2881 
L 1906 2881 
L 1906 4331 
L 934 4331 
z
M 934 2497 
L 934 953 
L 1906 953 
L 1906 2497 
L 934 2497 
z
M 3938 4372 
L 3938 5313 
L 4378 5313 
L 4378 4372 
L 5772 4372 
L 5772 3981 
L 4378 3981 
L 4378 3194 
L 6072 3194 
L 6072 2803 
L 5203 2803 
L 5203 2047 
L 5959 2047 
L 5959 1650 
L 5216 1650 
L 5216 31 
Q 5216 -447 4691 -447 
Q 4394 -447 3888 -391 
L 3784 78 
Q 4272 0 4591 0 
Q 4775 0 4775 172 
L 4775 1650 
L 2581 1650 
L 2581 2047 
L 4763 2047 
L 4763 2803 
L 2538 2803 
L 2538 3194 
L 3938 3194 
L 3938 3981 
L 2716 3981 
L 2716 4372 
L 3938 4372 
z
M 3669 384 
Q 3331 950 2956 1325 
L 3291 1575 
Q 3719 1147 4025 659 
L 3669 384 
z
" transform="scale(0.015625)"/>
     <path id="IPAexGothic-3a" d="M 1369 2559 
L 672 2559 
L 672 3250 
L 1369 3250 
L 1369 2559 
z
M 1369 63 
L 672 63 
L 672 753 
L 1369 753 
L 1369 63 
z
" transform="scale(0.015625)"/>
     <path id="IPAexGothic-20" transform="scale(0.015625)"/>
     <path id="IPAexGothic-2f" d="M 2719 4709 
L 600 -884 
L 300 -763 
L 2413 4831 
L 2719 4709 
z
" transform="scale(0.015625)"/>
     <path id="IPAexGothic-28" d="M 1928 -1016 
L 1653 -1166 
Q 488 69 488 1875 
Q 488 3678 1653 4909 
L 1928 4763 
Q 1006 3522 1006 1881 
Q 1006 203 1928 -1016 
z
" transform="scale(0.015625)"/>
     <path id="IPAexGothic-54" d="M 3866 4141 
L 2175 4141 
L 2175 63 
L 1606 63 
L 1606 4141 
L -31 4141 
L -31 4634 
L 3866 4634 
L 3866 4141 
z
" transform="scale(0.015625)"/>
     <path id="IPAexGothic-29" d="M 466 4909 
Q 1638 3672 1638 1875 
Q 1638 75 466 -1166 
L 191 -1016 
Q 1119 216 1119 1881 
Q 1119 3509 191 4763 
L 466 4909 
z
" transform="scale(0.015625)"/>
    </defs>
    <use xlink:href="#IPAexGothic-66f4"/>
    <use xlink:href="#IPAexGothic-65b0" x="100"/>
    <use xlink:href="#IPAexGothic-65e5" x="200"/>
    <use xlink:href="#IPAexGothic-6642" x="300"/>
    <use xlink:href="#IPAexGothic-3a" x="400"/>
    <use xlink:href="#IPAexGothic-20" x="431.982422"/>
    <use xlink:href="#IPAexGothic-32" x="458.984375"/>
    <use xlink:href="#IPAexGothic-30" x="521.972656"/>
    <use xlink:href="#IPAexGothic-32" x="584.960938"/>
    <use xlink:href="#IPAexGothic-32" x="647.949219"/>
    <use xlink:href="#IPAexGothic-2f" x="710.9375"/>
    <use xlink:href="#IPAexGothic-31" x="760.9375"/>
    <use xlink:href="#IPAexGothic-32" x="823.925781"/>
    <use xlink:href="#IPAexGothic-2f" x="886.914062"/>
    <use xlink:href="#IPAexGothic-32" x="936.914062"/>
    <use xlink:href="#IPAexGothic-30" x="999.902344"/>
    <use xlink:href="#IPAexGothic-20" x="1062.890625"/>
    <use xlink:href="#IPAexGothic-31" x="1089.892578"/>
    <use xlink:href="#IPAexGothic-36" x="1152.880859"/>
    <use xlink:href="#IPAexGothic-3a" x="1215.869141"/>
    <use xlink:href="#IPAexGothic-31" x="1247.851562"/>
    <use xlink:href="#IPAexGothic-34" x="1310.839844"/>
    <use xlink:href="#IPAexGothic-3a" x="1373.828125"/>
    <use xlink:href="#IPAexGothic-31" x="1405.810547"/>
    <use xlink:href="#IPAexGothic-36" x="1468.798828"/>
    <use xlink:href="#IPAexGothic-28" x="1531.787109"/>
    <use xlink:href="#IPAexGothic-4a" x="1565.087891"/>
    <use xlink:href="#IPAexGothic-53" x="1603.076172"/>
    <use xlink:href="#IPAexGothic-54" x="1661.572266"/>
    <use xlink:href="#IPAexGothic-29" x="1721.484375"/>
   </g>
  </g>
 </g>
 <defs>
  <clipPath id="p7a22f7ab8f">
   <rect x="29.439063" y="18.879437" width="357.12" height="266.112"/>
  </clipPath>
 </defs>
</svg>
