<?xml version="1.0" encoding="utf-8" standalone="no"?>
<!DOCTYPE svg PUBLIC "-//W3C//DTD SVG 1.1//EN"
  "http://www.w3.org/Graphics/SVG/1.1/DTD/svg11.dtd">
<svg xmlns:xlink="http://www.w3.org/1999/xlink" width="393.759063pt" height="308.582062pt" viewBox="0 0 393.759063 308.582062" xmlns="http://www.w3.org/2000/svg" version="1.1">
 <metadata>
  <rdf:RDF xmlns:dc="http://purl.org/dc/elements/1.1/" xmlns:cc="http://creativecommons.org/ns#" xmlns:rdf="http://www.w3.org/1999/02/22-rdf-syntax-ns#">
   <cc:Work>
    <dc:type rdf:resource="http://purl.org/dc/dcmitype/StillImage"/>
    <dc:date>2023-02-17T07:15:02.113587</dc:date>
    <dc:format>image/svg+xml</dc:format>
    <dc:creator>
     <cc:Agent>
      <dc:title>Matplotlib v3.7.0, https://matplotlib.org/</dc:title>
     </cc:Agent>
    </dc:creator>
   </cc:Work>
  </rdf:RDF>
 </metadata>
 <defs>
  <style type="text/css">*{stroke-linejoin: round; stroke-linecap: butt}</style>
 </defs>
 <g id="figure_1">
  <g id="patch_1">
   <path d="M 0 308.582062 
L 393.759063 308.582062 
L 393.759063 0 
L 0 0 
z
" style="fill: #ffffff"/>
  </g>
  <g id="axes_1">
   <g id="patch_2">
    <path d="M 29.439063 284.991437 
L 386.559062 284.991437 
L 386.559062 18.879437 
L 29.439063 18.879437 
z
" style="fill: #ffffff"/>
   </g>
   <g id="line2d_1">
    <path d="M 29.439063 211.199039 
L 386.559062 211.199039 
" clip-path="url(#pa67d216f3d)" style="fill: none; stroke: #000000; stroke-linecap: square"/>
   </g>
   <g id="matplotlib.axis_1">
    <g id="xtick_1">
     <g id="line2d_2">
      <defs>
       <path id="m5e8ac12c35" d="M 0 0 
L 0 3.5 
" style="stroke: #000000; stroke-width: 0.8"/>
      </defs>
      <g>
       <use xlink:href="#m5e8ac12c35" x="29.439063" y="284.991437" style="stroke: #000000; stroke-width: 0.8"/>
      </g>
     </g>
     <g id="text_1">
      <!-- Jun -->
      <g transform="translate(21.499219 299.482062) scale(0.1 -0.1)">
       <defs>
        <path id="IPAexGothic-4a" d="M 1819 4634 
L 1819 1234 
Q 1819 -31 763 -31 
Q 303 -31 -125 209 
L 84 644 
Q 378 447 694 447 
Q 1250 447 1250 1203 
L 1250 4634 
L 1819 4634 
z
" transform="scale(0.015625)"/>
        <path id="IPAexGothic-75" d="M 3284 63 
L 2772 63 
L 2772 644 
Q 2300 0 1625 0 
Q 1072 0 763 375 
Q 519 678 519 1241 
L 519 3250 
L 1069 3250 
L 1069 1259 
Q 1069 466 1734 466 
Q 2406 466 2734 1291 
L 2734 3250 
L 3284 3250 
L 3284 63 
z
" transform="scale(0.015625)"/>
        <path id="IPAexGothic-6e" d="M 3328 63 
L 2778 63 
L 2778 2041 
Q 2778 2853 2106 2853 
Q 1428 2853 1113 2041 
L 1113 63 
L 563 63 
L 563 3250 
L 1075 3250 
L 1075 2675 
Q 1525 3316 2222 3316 
Q 3328 3316 3328 2072 
L 3328 63 
z
" transform="scale(0.015625)"/>
       </defs>
       <use xlink:href="#IPAexGothic-4a"/>
       <use xlink:href="#IPAexGothic-75" x="37.988281"/>
       <use xlink:href="#IPAexGothic-6e" x="98.388672"/>
      </g>
     </g>
    </g>
    <g id="xtick_2">
     <g id="line2d_3">
      <g>
       <use xlink:href="#m5e8ac12c35" x="70.330666" y="284.991437" style="stroke: #000000; stroke-width: 0.8"/>
      </g>
     </g>
     <g id="text_2">
      <!-- Jul -->
      <g transform="translate(64.061134 299.482062) scale(0.1 -0.1)">
       <defs>
        <path id="IPAexGothic-6c" d="M 1131 63 
L 581 63 
L 581 4794 
L 1131 4794 
L 1131 63 
z
" transform="scale(0.015625)"/>
       </defs>
       <use xlink:href="#IPAexGothic-4a"/>
       <use xlink:href="#IPAexGothic-75" x="37.988281"/>
       <use xlink:href="#IPAexGothic-6c" x="98.388672"/>
      </g>
     </g>
    </g>
    <g id="xtick_3">
     <g id="line2d_4">
      <g>
       <use xlink:href="#m5e8ac12c35" x="112.585322" y="284.991437" style="stroke: #000000; stroke-width: 0.8"/>
      </g>
     </g>
     <g id="text_3">
      <!-- Aug -->
      <g transform="translate(103.603291 299.42425) scale(0.1 -0.1)">
       <defs>
        <path id="IPAexGothic-41" d="M 4056 63 
L 3444 63 
L 2938 1409 
L 1100 1409 
L 603 63 
L -6 63 
L 1806 4666 
L 2259 4666 
L 4056 63 
z
M 2778 1863 
L 2316 3078 
Q 2125 3588 2028 4000 
L 2009 4000 
Q 1897 3563 1716 3078 
L 1263 1863 
L 2778 1863 
z
" transform="scale(0.015625)"/>
        <path id="IPAexGothic-67" d="M 1331 1150 
Q 1006 1122 1006 900 
Q 1006 613 1763 575 
L 2131 556 
Q 3303 497 3303 -294 
Q 3303 -700 2925 -959 
Q 2519 -1253 1794 -1253 
Q 1138 -1253 738 -1028 
Q 353 -809 353 -428 
Q 353 84 1075 247 
L 1075 269 
Q 506 413 506 778 
Q 506 1116 994 1297 
Q 456 1575 456 2181 
Q 456 2650 769 2963 
Q 1128 3322 1738 3322 
Q 2125 3322 2422 3153 
Q 2650 3453 3259 3463 
L 3259 3013 
Q 2838 3003 2703 2938 
Q 3034 2613 3034 2169 
Q 3034 1728 2734 1425 
Q 2400 1094 1813 1094 
Q 1563 1094 1331 1150 
z
M 1734 2919 
Q 1409 2919 1197 2706 
Q 988 2497 988 2181 
Q 988 1872 1184 1684 
Q 1397 1472 1756 1472 
Q 2094 1472 2297 1678 
Q 2503 1881 2503 2203 
Q 2503 2497 2297 2700 
Q 2081 2919 1734 2919 
z
M 1753 159 
Q 903 159 903 -366 
Q 903 -875 1800 -875 
Q 2378 -875 2638 -606 
Q 2772 -481 2772 -313 
Q 2772 159 1753 159 
z
" transform="scale(0.015625)"/>
       </defs>
       <use xlink:href="#IPAexGothic-41"/>
       <use xlink:href="#IPAexGothic-75" x="63.720703"/>
       <use xlink:href="#IPAexGothic-67" x="124.121094"/>
      </g>
     </g>
    </g>
    <g id="xtick_4">
     <g id="line2d_5">
      <g>
       <use xlink:href="#m5e8ac12c35" x="154.839979" y="284.991437" style="stroke: #000000; stroke-width: 0.8"/>
      </g>
     </g>
     <g id="text_4">
      <!-- Sep -->
      <g transform="translate(145.964979 299.482062) scale(0.1 -0.1)">
       <defs>
        <path id="IPAexGothic-53" d="M 2919 3641 
Q 2563 4259 1853 4259 
Q 1453 4259 1213 4009 
Q 1028 3803 1028 3534 
Q 1028 3238 1266 3047 
Q 1444 2913 1984 2688 
L 2200 2597 
Q 2925 2306 3191 1953 
Q 3422 1644 3422 1259 
Q 3422 644 2969 288 
Q 2559 -31 1931 -31 
Q 881 -31 313 766 
L 753 1100 
Q 1203 459 1938 459 
Q 2288 459 2534 625 
Q 2841 847 2841 1216 
Q 2841 1503 2616 1728 
Q 2375 1959 1728 2206 
L 1541 2278 
Q 453 2694 453 3481 
Q 453 4006 806 4347 
Q 1203 4725 1863 4725 
Q 2841 4725 3359 3956 
L 2919 3641 
z
" transform="scale(0.015625)"/>
        <path id="IPAexGothic-65" d="M 863 1594 
Q 891 1041 1209 722 
Q 1534 397 1997 397 
Q 2606 397 2963 966 
L 3322 728 
Q 2869 -31 1931 -31 
Q 1222 -31 766 422 
Q 306 884 306 1641 
Q 306 2444 788 2925 
Q 1216 3353 1856 3353 
Q 2459 3353 2866 2956 
Q 3322 2494 3322 1722 
L 3322 1594 
L 863 1594 
z
M 2756 1997 
Q 2709 2431 2450 2681 
Q 2194 2938 1844 2938 
Q 1438 2938 1150 2591 
Q 953 2356 894 1997 
L 2756 1997 
z
" transform="scale(0.015625)"/>
        <path id="IPAexGothic-70" d="M 1075 2688 
Q 1525 3341 2206 3341 
Q 2769 3341 3172 2938 
Q 3641 2469 3641 1644 
Q 3641 841 3178 372 
Q 2775 -31 2200 -31 
Q 1569 -31 1106 497 
L 1106 -1216 
L 563 -1216 
L 563 3250 
L 1075 3250 
L 1075 2688 
z
M 1106 1950 
L 1106 1291 
Q 1106 897 1516 600 
Q 1791 403 2106 403 
Q 2469 403 2725 659 
Q 3066 997 3066 1631 
Q 3066 2200 2784 2559 
Q 2503 2900 2100 2900 
Q 1656 2900 1338 2484 
Q 1106 2184 1106 1950 
z
" transform="scale(0.015625)"/>
       </defs>
       <use xlink:href="#IPAexGothic-53"/>
       <use xlink:href="#IPAexGothic-65" x="58.496094"/>
       <use xlink:href="#IPAexGothic-70" x="115.380859"/>
      </g>
     </g>
    </g>
    <g id="xtick_5">
     <g id="line2d_6">
      <g>
       <use xlink:href="#m5e8ac12c35" x="195.731582" y="284.991437" style="stroke: #000000; stroke-width: 0.8"/>
      </g>
     </g>
     <g id="text_5">
      <!-- Oct -->
      <g transform="translate(187.296425 299.482062) scale(0.1 -0.1)">
       <defs>
        <path id="IPAexGothic-4f" d="M 2541 4725 
Q 3456 4725 4044 4138 
Q 4709 3472 4709 2331 
Q 4709 1219 4031 550 
Q 3450 -31 2541 -31 
Q 1638 -31 1056 550 
Q 378 1219 378 2356 
Q 378 3469 1044 4138 
Q 1631 4725 2541 4725 
z
M 2541 4266 
Q 1953 4266 1531 3844 
Q 994 3303 994 2350 
Q 994 1391 1531 863 
Q 1947 447 2541 447 
Q 3131 447 3556 863 
Q 4094 1400 4094 2375 
Q 4094 3297 3550 3844 
Q 3138 4266 2541 4266 
z
" transform="scale(0.015625)"/>
        <path id="IPAexGothic-63" d="M 3269 784 
Q 2834 -31 1900 -31 
Q 1228 -31 788 409 
Q 313 891 313 1663 
Q 313 2428 788 2913 
Q 1222 3347 1881 3347 
Q 2813 3347 3206 2541 
L 2763 2309 
Q 2484 2900 1900 2900 
Q 1516 2900 1234 2619 
Q 881 2266 881 1650 
Q 881 1069 1222 728 
Q 1522 428 1956 428 
Q 2547 428 2847 1016 
L 3269 784 
z
" transform="scale(0.015625)"/>
        <path id="IPAexGothic-74" d="M 2125 241 
Q 1769 -6 1397 -6 
Q 653 -6 653 831 
L 653 2859 
L 219 2859 
L 219 3250 
L 653 3250 
L 653 3966 
L 1178 4228 
L 1178 3250 
L 2063 3250 
L 2063 2859 
L 1178 2859 
L 1178 906 
Q 1178 416 1513 416 
Q 1738 416 1941 588 
L 2125 241 
z
" transform="scale(0.015625)"/>
       </defs>
       <use xlink:href="#IPAexGothic-4f"/>
       <use xlink:href="#IPAexGothic-63" x="79.6875"/>
       <use xlink:href="#IPAexGothic-74" x="134.082031"/>
      </g>
     </g>
    </g>
    <g id="xtick_6">
     <g id="line2d_7">
      <g>
       <use xlink:href="#m5e8ac12c35" x="237.986238" y="284.991437" style="stroke: #000000; stroke-width: 0.8"/>
      </g>
     </g>
     <g id="text_6">
      <!-- Nov -->
      <g transform="translate(228.737801 299.482062) scale(0.1 -0.1)">
       <defs>
        <path id="IPAexGothic-4e" d="M 4244 63 
L 3731 63 
L 1697 3150 
Q 1466 3500 1141 4097 
L 1116 4097 
L 1128 3797 
Q 1159 2803 1159 2469 
L 1159 63 
L 609 63 
L 609 4634 
L 1366 4634 
L 3113 1978 
Q 3453 1447 3713 966 
L 3738 966 
Q 3694 1897 3694 2469 
L 3694 4634 
L 4244 4634 
L 4244 63 
z
" transform="scale(0.015625)"/>
        <path id="IPAexGothic-6f" d="M 1919 3341 
Q 2594 3341 3056 2888 
Q 3531 2413 3531 1638 
Q 3531 888 3066 422 
Q 2609 -31 1919 -31 
Q 1228 -31 781 416 
Q 313 881 313 1656 
Q 313 2413 788 2888 
Q 1241 3341 1919 3341 
z
M 1919 2919 
Q 1519 2919 1241 2631 
Q 888 2278 888 1650 
Q 888 1031 1234 684 
Q 1516 403 1919 403 
Q 2331 403 2609 691 
Q 2956 1038 2956 1672 
Q 2956 2269 2603 2631 
Q 2316 2919 1919 2919 
z
" transform="scale(0.015625)"/>
        <path id="IPAexGothic-76" d="M 3103 3250 
L 1747 6 
L 1375 6 
L 25 3250 
L 628 3250 
L 1338 1388 
L 1522 844 
L 1569 703 
L 1588 703 
Q 1641 884 1822 1388 
L 2516 3250 
L 3103 3250 
z
" transform="scale(0.015625)"/>
       </defs>
       <use xlink:href="#IPAexGothic-4e"/>
       <use xlink:href="#IPAexGothic-6f" x="75.976562"/>
       <use xlink:href="#IPAexGothic-76" x="136.376953"/>
      </g>
     </g>
    </g>
    <g id="xtick_7">
     <g id="line2d_8">
      <g>
       <use xlink:href="#m5e8ac12c35" x="278.877841" y="284.991437" style="stroke: #000000; stroke-width: 0.8"/>
      </g>
     </g>
     <g id="text_7">
      <!-- Dec -->
      <g transform="translate(269.529404 299.482062) scale(0.1 -0.1)">
       <defs>
        <path id="IPAexGothic-44" d="M 609 4634 
L 1984 4634 
Q 3159 4634 3791 4050 
Q 4456 3444 4456 2356 
Q 4456 1047 3516 441 
Q 2925 63 1941 63 
L 609 63 
L 609 4634 
z
M 1172 556 
L 1894 556 
Q 3853 556 3853 2356 
Q 3853 4147 1928 4147 
L 1172 4147 
L 1172 556 
z
" transform="scale(0.015625)"/>
       </defs>
       <use xlink:href="#IPAexGothic-44"/>
       <use xlink:href="#IPAexGothic-65" x="75.683594"/>
       <use xlink:href="#IPAexGothic-63" x="132.568359"/>
      </g>
     </g>
    </g>
    <g id="xtick_8">
     <g id="line2d_9">
      <g>
       <use xlink:href="#m5e8ac12c35" x="321.132498" y="284.991437" style="stroke: #000000; stroke-width: 0.8"/>
      </g>
     </g>
     <g id="text_8">
      <!-- 2023 -->
      <g transform="translate(308.535623 299.482062) scale(0.1 -0.1)">
       <defs>
        <path id="IPAexGothic-32" d="M 3659 63 
L 447 63 
L 447 594 
Q 825 1475 1894 2203 
L 2072 2322 
Q 2619 2697 2791 2906 
Q 2988 3153 2988 3444 
Q 2988 3772 2756 4003 
Q 2500 4259 2084 4259 
Q 1250 4259 991 3328 
L 497 3506 
Q 853 4725 2116 4725 
Q 2806 4725 3216 4316 
Q 3575 3947 3575 3425 
Q 3575 3038 3344 2722 
Q 3131 2416 2366 1938 
L 2231 1856 
Q 1256 1253 978 569 
L 3659 569 
L 3659 63 
z
" transform="scale(0.015625)"/>
        <path id="IPAexGothic-30" d="M 2038 4725 
Q 2881 4725 3334 3944 
Q 3694 3325 3694 2344 
Q 3694 1372 3334 741 
Q 2888 -31 2016 -31 
Q 1147 -31 700 741 
Q 341 1372 341 2350 
Q 341 3713 1000 4334 
Q 1419 4725 2038 4725 
z
M 2016 4266 
Q 1516 4266 1228 3759 
Q 934 3247 934 2344 
Q 934 1456 1222 947 
Q 1513 447 2016 447 
Q 2619 447 2909 1153 
Q 3100 1622 3100 2375 
Q 3100 3256 2806 3759 
Q 2509 4266 2016 4266 
z
" transform="scale(0.015625)"/>
        <path id="IPAexGothic-33" d="M 2381 2419 
Q 3506 2216 3506 1278 
Q 3506 716 3128 356 
Q 2709 -31 1944 -31 
Q 797 -31 288 881 
L 756 1131 
Q 1109 441 1938 441 
Q 2425 441 2694 691 
Q 2950 928 2950 1291 
Q 2950 1719 2566 1978 
Q 2216 2213 1644 2213 
L 1363 2213 
L 1363 2669 
L 1656 2669 
Q 2231 2669 2534 2888 
Q 2859 3119 2859 3509 
Q 2859 3934 2494 4138 
Q 2259 4278 1931 4278 
Q 1238 4278 903 3578 
L 434 3803 
Q 897 4725 1938 4725 
Q 2597 4725 3006 4394 
Q 3416 4069 3416 3534 
Q 3416 3028 3019 2706 
Q 2763 2500 2381 2444 
L 2381 2419 
z
" transform="scale(0.015625)"/>
       </defs>
       <use xlink:href="#IPAexGothic-32"/>
       <use xlink:href="#IPAexGothic-30" x="62.988281"/>
       <use xlink:href="#IPAexGothic-32" x="125.976562"/>
       <use xlink:href="#IPAexGothic-33" x="188.964844"/>
      </g>
     </g>
    </g>
    <g id="xtick_9">
     <g id="line2d_10">
      <g>
       <use xlink:href="#m5e8ac12c35" x="363.387154" y="284.991437" style="stroke: #000000; stroke-width: 0.8"/>
      </g>
     </g>
     <g id="text_9">
      <!-- Feb -->
      <g transform="translate(354.563717 299.482062) scale(0.1 -0.1)">
       <defs>
        <path id="IPAexGothic-46" d="M 3469 4141 
L 1172 4141 
L 1172 2656 
L 3206 2656 
L 3206 2188 
L 1172 2188 
L 1172 63 
L 609 63 
L 609 4634 
L 3469 4634 
L 3469 4141 
z
" transform="scale(0.015625)"/>
        <path id="IPAexGothic-62" d="M 1125 2731 
Q 1550 3341 2219 3341 
Q 2788 3341 3191 2938 
Q 3659 2469 3659 1644 
Q 3659 838 3191 372 
Q 2788 -31 2206 -31 
Q 1559 -31 1088 516 
L 1009 44 
L 581 44 
L 581 4794 
L 1125 4794 
L 1125 2731 
z
M 1125 1997 
L 1125 1253 
Q 1125 888 1528 600 
Q 1803 403 2119 403 
Q 2488 403 2744 659 
Q 3084 1009 3084 1631 
Q 3084 2194 2803 2553 
Q 2525 2900 2125 2900 
Q 1759 2900 1438 2578 
Q 1125 2266 1125 1997 
z
" transform="scale(0.015625)"/>
       </defs>
       <use xlink:href="#IPAexGothic-46"/>
       <use xlink:href="#IPAexGothic-65" x="57.177734"/>
       <use xlink:href="#IPAexGothic-62" x="114.0625"/>
      </g>
     </g>
    </g>
   </g>
   <g id="matplotlib.axis_2">
    <g id="ytick_1">
     <g id="line2d_11">
      <defs>
       <path id="m2e08a65c82" d="M 0 0 
L -3.5 0 
" style="stroke: #000000; stroke-width: 0.8"/>
      </defs>
      <g>
       <use xlink:href="#m2e08a65c82" x="29.439063" y="269.014637" style="stroke: #000000; stroke-width: 0.8"/>
      </g>
     </g>
     <g id="text_10">
      <!-- 0.5 -->
      <g transform="translate(7.2 272.759949) scale(0.1 -0.1)">
       <defs>
        <path id="IPAexGothic-2e" d="M 1184 63 
L 494 63 
L 494 753 
L 1184 753 
L 1184 63 
z
" transform="scale(0.015625)"/>
        <path id="IPAexGothic-35" d="M 1178 2603 
Q 1634 2963 2172 2963 
Q 2816 2963 3241 2528 
Q 3638 2113 3638 1497 
Q 3638 938 3297 513 
Q 2869 -31 2031 -31 
Q 959 -31 469 784 
L 938 1028 
Q 1309 434 2013 434 
Q 2466 434 2769 716 
Q 3081 1013 3081 1503 
Q 3081 1966 2806 2241 
Q 2519 2528 2056 2528 
Q 1406 2528 1072 2028 
L 591 2091 
L 884 4634 
L 3406 4634 
L 3406 4153 
L 1341 4153 
L 1134 2603 
L 1178 2603 
z
" transform="scale(0.015625)"/>
       </defs>
       <use xlink:href="#IPAexGothic-30"/>
       <use xlink:href="#IPAexGothic-2e" x="62.988281"/>
       <use xlink:href="#IPAexGothic-35" x="89.404297"/>
      </g>
     </g>
    </g>
    <g id="ytick_2">
     <g id="line2d_12">
      <g>
       <use xlink:href="#m2e08a65c82" x="29.439063" y="211.199039" style="stroke: #000000; stroke-width: 0.8"/>
      </g>
     </g>
     <g id="text_11">
      <!-- 1.0 -->
      <g transform="translate(7.2 214.944352) scale(0.1 -0.1)">
       <defs>
        <path id="IPAexGothic-31" d="M 2463 63 
L 1900 63 
L 1900 4103 
Q 1372 3922 788 3797 
L 684 4231 
Q 1519 4441 2106 4731 
L 2463 4731 
L 2463 63 
z
" transform="scale(0.015625)"/>
       </defs>
       <use xlink:href="#IPAexGothic-31"/>
       <use xlink:href="#IPAexGothic-2e" x="62.988281"/>
       <use xlink:href="#IPAexGothic-30" x="89.404297"/>
      </g>
     </g>
    </g>
    <g id="ytick_3">
     <g id="line2d_13">
      <g>
       <use xlink:href="#m2e08a65c82" x="29.439063" y="153.383442" style="stroke: #000000; stroke-width: 0.8"/>
      </g>
     </g>
     <g id="text_12">
      <!-- 1.5 -->
      <g transform="translate(7.2 157.128754) scale(0.1 -0.1)">
       <use xlink:href="#IPAexGothic-31"/>
       <use xlink:href="#IPAexGothic-2e" x="62.988281"/>
       <use xlink:href="#IPAexGothic-35" x="89.404297"/>
      </g>
     </g>
    </g>
    <g id="ytick_4">
     <g id="line2d_14">
      <g>
       <use xlink:href="#m2e08a65c82" x="29.439063" y="95.567844" style="stroke: #000000; stroke-width: 0.8"/>
      </g>
     </g>
     <g id="text_13">
      <!-- 2.0 -->
      <g transform="translate(7.2 99.313157) scale(0.1 -0.1)">
       <use xlink:href="#IPAexGothic-32"/>
       <use xlink:href="#IPAexGothic-2e" x="62.988281"/>
       <use xlink:href="#IPAexGothic-30" x="89.404297"/>
      </g>
     </g>
    </g>
    <g id="ytick_5">
     <g id="line2d_15">
      <g>
       <use xlink:href="#m2e08a65c82" x="29.439063" y="37.752247" style="stroke: #000000; stroke-width: 0.8"/>
      </g>
     </g>
     <g id="text_14">
      <!-- 2.5 -->
      <g transform="translate(7.2 41.497559) scale(0.1 -0.1)">
       <use xlink:href="#IPAexGothic-32"/>
       <use xlink:href="#IPAexGothic-2e" x="62.988281"/>
       <use xlink:href="#IPAexGothic-35" x="89.404297"/>
      </g>
     </g>
    </g>
   </g>
   <g id="line2d_16">
    <path d="M 29.439063 227.411867 
L 30.802116 255.471758 
L 32.165169 269.405805 
L 33.528223 242.945807 
L 34.891276 262.441258 
L 37.617383 251.639145 
L 38.980437 227.514621 
L 40.34349 229.940841 
L 41.706543 194.078383 
L 43.069597 246.403784 
L 44.43265 250.411663 
L 45.795704 205.84664 
L 47.158757 249.191321 
L 48.521811 272.895437 
L 49.884864 243.090535 
L 51.247917 247.559579 
L 52.610971 238.429093 
L 53.974024 112.810292 
L 55.337078 184.323192 
L 56.700131 181.498781 
L 58.063185 30.975437 
L 60.789292 168.571026 
L 62.152345 110.868109 
L 63.515398 213.126183 
L 64.878452 156.293505 
L 66.241505 124.518024 
L 67.604559 151.875457 
L 68.967612 236.751655 
L 70.330666 106.655378 
L 71.693719 51.387485 
L 73.056772 102.788184 
L 74.419826 95.926279 
L 75.782879 36.542983 
L 77.145933 79.37836 
L 78.508986 35.439549 
L 79.87204 110.396771 
L 81.235093 116.980214 
L 82.598146 109.726148 
L 83.9612 177.160719 
L 85.324253 110.814502 
L 86.687307 153.702013 
L 88.05036 148.460822 
L 89.413414 164.812112 
L 90.776467 190.526245 
L 92.139521 181.526351 
L 93.502574 197.096587 
L 94.865627 219.976945 
L 96.228681 163.710275 
L 97.591734 173.022011 
L 98.954788 196.817697 
L 100.317841 179.527296 
L 101.680895 191.661352 
L 103.043948 192.887858 
L 104.407001 173.15897 
L 105.770055 188.50237 
L 107.133108 201.809366 
L 108.496162 195.197746 
L 109.859215 183.412435 
L 111.222269 192.046725 
L 112.585322 204.737627 
L 113.948375 199.025674 
L 115.311429 189.016626 
L 116.674482 185.809755 
L 118.037536 182.941981 
L 119.400589 200.02008 
L 120.763643 192.032303 
L 122.126696 181.775482 
L 123.48975 186.871327 
L 124.852803 193.9839 
L 126.215856 204.601463 
L 127.57891 225.669065 
L 128.941963 207.989558 
L 130.305017 218.057369 
L 131.66807 204.232725 
L 133.031124 217.282458 
L 134.394177 202.720535 
L 135.75723 195.141529 
L 137.120284 153.461242 
L 138.483337 171.531238 
L 139.846391 185.828914 
L 141.209444 204.950127 
L 142.572498 187.736367 
L 143.935551 211.671324 
L 145.298604 216.92144 
L 146.661658 231.587854 
L 148.024711 248.509599 
L 149.387765 240.826108 
L 150.750818 241.29957 
L 152.113872 247.072575 
L 153.476925 251.367839 
L 154.839979 251.669425 
L 156.203032 251.785215 
L 157.566085 242.900107 
L 158.929139 251.663262 
L 160.292192 241.186243 
L 161.655246 228.929625 
L 163.018299 240.670472 
L 164.381353 239.689961 
L 165.744406 228.587222 
L 167.107459 234.114512 
L 168.470513 220.053728 
L 169.833566 221.634093 
L 171.19662 247.789493 
L 172.559673 250.578039 
L 173.922727 230.847867 
L 175.28578 240.571341 
L 176.648833 229.667605 
L 178.011887 228.965012 
L 179.37494 226.507 
L 180.737994 266.267581 
L 182.101047 173.994674 
L 183.464101 228.352097 
L 184.827154 212.968149 
L 186.190208 243.863512 
L 187.553261 195.951487 
L 188.916314 187.500784 
L 190.279368 195.32975 
L 191.642421 238.855842 
L 193.005475 224.563828 
L 194.368528 239.674853 
L 195.731582 205.067187 
L 197.094635 219.657973 
L 198.457688 258.893645 
L 199.820742 189.095647 
L 201.183795 231.988543 
L 202.546849 230.452082 
L 203.909902 208.848889 
L 205.272956 214.413367 
L 206.636009 237.774657 
L 207.999063 208.216448 
L 209.362116 269.328924 
L 210.725169 186.857034 
L 212.088223 168.652783 
L 213.451276 211.199039 
L 214.81433 197.903063 
L 216.177383 190.42842 
L 217.540437 209.746404 
L 218.90349 135.123595 
L 220.266543 212.926136 
L 221.629597 239.34414 
L 222.99265 184.631705 
L 224.355704 193.892671 
L 225.718757 220.351516 
L 227.081811 197.002011 
L 228.444864 191.634272 
L 229.807917 213.253557 
L 231.170971 183.049443 
L 232.534024 199.198481 
L 233.897078 190.346771 
L 235.260131 160.309806 
L 236.623185 189.784075 
L 237.986238 198.104074 
L 239.349292 152.110827 
L 240.712345 152.9204 
L 242.075398 232.748365 
L 243.438452 165.024121 
L 244.801505 194.085734 
L 246.164559 199.838398 
L 247.527612 173.564927 
L 248.890666 209.205445 
L 250.253719 206.690562 
L 251.616772 156.249641 
L 252.979826 220.402577 
L 254.342879 215.284532 
L 255.705933 225.924092 
L 257.068986 188.099011 
L 258.43204 185.511636 
L 259.795093 211.199039 
L 261.158146 194.160213 
L 262.5212 184.55213 
L 263.884253 182.799057 
L 266.61036 203.930102 
L 267.973414 168.757197 
L 269.336467 220.491359 
L 270.699521 171.577359 
L 273.425627 192.11637 
L 274.788681 204.402838 
L 276.151734 198.987955 
L 277.514788 181.777237 
L 278.877841 142.696764 
L 280.240895 213.580923 
L 281.603948 220.529523 
L 282.967001 204.080643 
L 284.330055 205.292279 
L 285.693108 181.962456 
L 287.056162 194.793532 
L 288.419215 197.432704 
L 289.782269 173.295964 
L 291.145322 175.045451 
L 292.508375 167.16196 
L 293.871429 187.120934 
L 295.234482 183.834422 
L 296.597536 173.778001 
L 297.960589 181.23856 
L 299.323643 201.020413 
L 300.686696 187.828789 
L 302.04975 213.66936 
L 303.412803 207.768569 
L 304.775856 207.295129 
L 306.13891 192.832229 
L 307.501963 206.958159 
L 308.865017 188.728128 
L 310.22807 193.851266 
L 311.591124 207.103197 
L 312.954177 215.224404 
L 314.31723 196.113595 
L 315.680284 220.91992 
L 317.043337 200.04709 
L 318.406391 223.444191 
L 319.769444 251.024981 
L 321.132498 228.180558 
L 322.495551 208.755181 
L 323.858604 251.311193 
L 325.221658 254.432046 
L 326.584711 215.74342 
L 327.947765 126.299141 
L 329.310818 90.185267 
L 330.673872 169.01121 
L 332.036925 202.233317 
L 333.399979 208.810336 
L 334.763032 167.736099 
L 336.126085 215.685286 
L 337.489139 255.304956 
L 338.852192 257.151057 
L 340.215246 241.910597 
L 341.578299 230.363911 
L 342.941353 201.639485 
L 344.304406 252.591109 
L 345.667459 261.202922 
L 347.030513 248.191392 
L 348.393566 245.888016 
L 349.75662 248.528538 
L 351.119673 233.937612 
L 352.482727 243.873594 
L 353.84578 245.699396 
L 355.208833 238.379427 
L 356.571887 250.421781 
L 357.93494 242.025158 
L 359.297994 235.679743 
L 360.661047 231.977605 
L 362.024101 268.725993 
L 363.387154 251.010186 
L 364.750208 243.44844 
L 366.113261 231.173865 
L 367.476314 246.470516 
L 368.839368 240.806074 
L 370.202421 205.729567 
L 371.565475 216.74151 
L 372.928528 221.239134 
L 374.291582 222.049942 
L 375.654635 236.243828 
L 377.017688 216.587974 
L 378.380742 250.056764 
L 379.743795 220.887451 
L 381.106849 228.799652 
L 382.469902 253.712581 
L 383.832956 218.850978 
L 385.196009 215.357996 
L 385.196009 215.357996 
" clip-path="url(#pa67d216f3d)" style="fill: none; stroke: #1f77b4; stroke-width: 1.5; stroke-linecap: square"/>
   </g>
   <g id="line2d_17">
    <path d="M 29.439063 230.929789 
L 30.802116 242.60231 
L 32.165169 262.8168 
L 33.528223 257.425513 
L 34.891276 253.337157 
L 36.25433 259.836211 
L 37.617383 254.434415 
L 38.980437 240.414674 
L 40.34349 228.735232 
L 41.706543 213.41839 
L 43.069597 223.501825 
L 44.43265 248.433331 
L 45.795704 230.677266 
L 47.158757 229.912564 
L 48.521811 262.11981 
L 49.884864 259.625445 
L 51.247917 245.355694 
L 52.610971 243.118728 
L 53.974024 189.281671 
L 55.337078 152.189606 
L 56.700131 182.917915 
L 58.063185 119.473036 
L 59.426238 68.196709 
L 60.789292 137.669929 
L 62.152345 141.957318 
L 63.515398 170.127431 
L 64.878452 187.579679 
L 66.241505 141.084002 
L 67.604559 138.693349 
L 68.967612 201.292679 
L 70.330666 186.000414 
L 71.693719 80.567026 
L 73.056772 78.413733 
L 74.419826 99.383107 
L 75.782879 67.931655 
L 77.145933 58.815077 
L 78.508986 58.306173 
L 79.87204 75.699401 
L 81.235093 113.713912 
L 82.598146 113.383995 
L 83.9612 146.569691 
L 85.324253 147.022086 
L 86.687307 133.443524 
L 88.05036 151.100956 
L 89.413414 156.832948 
L 90.776467 178.224324 
L 92.139521 186.098223 
L 93.502574 189.532009 
L 94.865627 209.091256 
L 96.228681 194.807872 
L 97.591734 168.434555 
L 98.954788 185.419494 
L 100.317841 188.44227 
L 101.680895 185.724694 
L 103.043948 192.276003 
L 104.407001 183.362139 
L 105.770055 181.032368 
L 107.133108 195.324076 
L 108.496162 198.546144 
L 109.859215 189.431392 
L 111.222269 187.79659 
L 112.585322 198.54902 
L 113.948375 201.914295 
L 115.311429 194.115474 
L 116.674482 187.422411 
L 118.037536 184.383085 
L 119.400589 191.750659 
L 120.763643 196.087179 
L 122.126696 186.997904 
L 123.48975 184.346184 
L 124.852803 190.473981 
L 126.215856 199.403219 
L 127.57891 215.633088 
L 128.941963 217.185071 
L 130.305017 213.134848 
L 131.66807 211.351742 
L 133.031124 210.94113 
L 134.394177 210.228598 
L 135.75723 198.987184 
L 137.120284 175.731796 
L 138.483337 162.744798 
L 141.209444 195.737687 
L 142.572498 196.62741 
L 143.935551 200.268399 
L 145.298604 214.327003 
L 146.661658 224.517111 
L 148.024711 240.462163 
L 149.387765 244.757718 
L 150.750818 241.063165 
L 152.113872 244.236496 
L 153.476925 249.249927 
L 154.839979 251.518783 
L 156.203032 251.727342 
L 157.566085 247.466905 
L 158.929139 247.402446 
L 160.292192 246.595581 
L 161.655246 235.262778 
L 163.018299 234.987471 
L 164.381353 240.181603 
L 165.744406 234.304978 
L 167.107459 231.390872 
L 168.470513 227.332189 
L 169.833566 220.846856 
L 171.19662 235.644814 
L 172.559673 249.196285 
L 173.922727 241.279862 
L 175.28578 235.839395 
L 176.648833 235.281663 
L 178.011887 229.316941 
L 179.37494 227.743627 
L 180.737994 248.882551 
L 182.101047 230.621466 
L 183.464101 204.147875 
L 184.827154 220.93913 
L 186.190208 229.635769 
L 187.553261 222.625721 
L 188.916314 191.792225 
L 190.279368 191.471858 
L 191.642421 219.272458 
L 193.005475 231.97864 
L 194.368528 232.42119 
L 195.731582 223.814193 
L 197.094635 212.595296 
L 198.457688 241.501939 
L 199.820742 230.097519 
L 201.183795 212.536835 
L 202.546849 231.223399 
L 203.909902 220.196168 
L 205.272956 211.66473 
L 206.636009 226.773505 
L 207.999063 224.052711 
L 209.362116 244.24423 
L 210.725169 237.116008 
L 212.088223 178.033043 
L 214.81433 204.731901 
L 216.177383 194.218394 
L 217.540437 200.456001 
L 218.90349 177.011185 
L 220.266543 179.059561 
L 221.629597 227.005264 
L 222.99265 215.29372 
L 224.355704 189.34014 
L 225.718757 207.855357 
L 227.081811 209.25497 
L 228.444864 194.345323 
L 229.807917 202.914504 
L 231.170971 199.04078 
L 232.534024 191.364392 
L 233.897078 194.846812 
L 235.260131 176.074523 
L 236.623185 175.764073 
L 237.986238 194.009205 
L 239.349292 176.860376 
L 240.712345 152.516084 
L 242.075398 198.91713 
L 243.438452 203.448625 
L 244.801505 180.273516 
L 246.164559 196.993923 
L 247.527612 187.318791 
L 248.890666 192.562593 
L 250.253719 207.954654 
L 251.616772 183.674736 
L 252.979826 192.091624 
L 254.342879 217.873602 
L 255.705933 220.737602 
L 257.068986 208.513572 
L 258.43204 186.8113 
L 259.795093 198.998945 
L 261.158146 202.972279 
L 262.5212 189.440136 
L 263.884253 183.678277 
L 265.247307 188.335204 
L 266.61036 198.897374 
L 267.973414 187.448754 
L 269.336467 197.179515 
L 270.699521 198.341262 
L 272.062574 176.894581 
L 273.425627 187.16406 
L 274.788681 198.406453 
L 276.151734 201.724689 
L 277.514788 190.654224 
L 278.877841 163.401008 
L 280.240895 182.424595 
L 281.603948 217.110216 
L 282.967001 212.600777 
L 284.330055 204.687964 
L 285.693108 194.139114 
L 287.056162 188.526714 
L 288.419215 196.119779 
L 289.782269 185.880047 
L 291.145322 174.173214 
L 292.508375 171.1536 
L 293.871429 177.474475 
L 295.234482 185.48723 
L 296.597536 178.891638 
L 297.960589 177.554882 
L 299.323643 191.49043 
L 300.686696 194.588989 
L 302.04975 201.412831 
L 303.412803 210.756455 
L 304.775856 207.532084 
L 306.13891 200.270107 
L 307.501963 200.091846 
L 308.865017 198.165608 
L 310.22807 191.313905 
L 311.591124 200.651084 
L 312.954177 211.235099 
L 314.31723 206.046382 
L 315.680284 209.168684 
L 317.043337 210.952529 
L 318.406391 212.341773 
L 319.769444 238.302243 
L 321.132498 240.353858 
L 322.495551 218.904029 
L 323.858604 232.400817 
L 325.221658 252.888083 
L 326.584711 237.150337 
L 327.947765 177.577562 
L 329.310818 108.989297 
L 330.673872 133.576313 
L 332.036925 186.602691 
L 333.399979 205.566408 
L 334.763032 189.803691 
L 336.126085 193.854637 
L 337.489139 237.669294 
L 338.852192 256.234041 
L 340.215246 249.907348 
L 341.578299 236.3212 
L 342.941353 216.936234 
L 344.304406 230.424572 
L 345.667459 257.029702 
L 347.030513 254.991137 
L 348.393566 247.048016 
L 349.75662 247.219224 
L 351.119673 241.544538 
L 352.482727 239.046068 
L 353.84578 244.791574 
L 355.208833 242.11844 
L 356.571887 244.62081 
L 357.93494 246.332876 
L 359.297994 238.909678 
L 360.661047 233.847098 
L 362.024101 252.591834 
L 363.387154 260.456547 
L 364.750208 247.319155 
L 366.113261 237.521782 
L 367.476314 239.155159 
L 368.839368 243.68652 
L 370.202421 224.763671 
L 371.565475 211.366742 
L 372.928528 219.013772 
L 374.291582 221.645319 
L 375.654635 229.405031 
L 377.017688 226.898006 
L 378.380742 234.831969 
L 379.743795 236.643788 
L 381.106849 224.92031 
L 382.469902 242.167574 
L 383.832956 237.975354 
L 385.196009 217.118387 
L 385.196009 217.118387 
" clip-path="url(#pa67d216f3d)" style="fill: none; stroke: #ff7f0e; stroke-width: 1.5; stroke-linecap: square"/>
   </g>
   <g id="line2d_18">
    <path d="M 29.439063 229.122786 
L 30.802116 239.928401 
L 32.165169 252.698705 
L 33.528223 256.780278 
L 34.891276 259.139403 
L 36.25433 254.622372 
L 37.617383 257.208287 
L 38.980437 246.388486 
L 40.34349 237.055655 
L 41.706543 218.326475 
L 44.43265 233.387372 
L 45.795704 236.234427 
L 47.158757 237.293425 
L 49.884864 256.313321 
L 51.247917 255.822722 
L 52.610971 243.109331 
L 53.974024 212.36467 
L 56.700131 162.563334 
L 58.063185 143.84129 
L 59.426238 113.406318 
L 60.789292 107.256927 
L 62.152345 129.127564 
L 63.515398 169.610337 
L 64.878452 165.645532 
L 66.241505 169.115602 
L 67.604559 144.753156 
L 68.967612 179.647632 
L 70.330666 175.437505 
L 71.693719 150.710969 
L 73.056772 88.208754 
L 74.419826 84.394062 
L 75.782879 80.114816 
L 77.145933 71.804879 
L 78.508986 51.239386 
L 79.87204 76.931758 
L 81.235093 90.291085 
L 82.598146 112.392863 
L 83.9612 137.201801 
L 85.324253 135.362509 
L 86.687307 149.276885 
L 88.05036 138.58476 
L 89.413414 155.795645 
L 90.776467 168.900399 
L 94.865627 200.539182 
L 96.228681 195.575228 
L 97.591734 187.912342 
L 98.954788 178.52472 
L 100.317841 183.482093 
L 101.680895 189.523726 
L 103.043948 188.153999 
L 104.407001 186.18367 
L 105.770055 185.09643 
L 107.133108 188.315827 
L 108.496162 195.281979 
L 109.859215 193.687884 
L 111.222269 190.308761 
L 112.585322 193.689874 
L 113.948375 198.708102 
L 115.311429 197.755094 
L 116.674482 191.402728 
L 118.037536 185.944654 
L 119.400589 189.7987 
L 120.763643 191.844605 
L 122.126696 191.480812 
L 123.48975 186.955724 
L 124.852803 187.634041 
L 126.215856 195.355837 
L 127.57891 208.84012 
L 130.305017 217.476612 
L 131.66807 210.241718 
L 133.031124 213.36349 
L 134.394177 208.263285 
L 135.75723 205.402114 
L 137.120284 185.324114 
L 138.483337 174.344388 
L 139.846391 170.831497 
L 141.209444 188.120092 
L 142.572498 193.123075 
L 143.935551 201.848623 
L 145.298604 206.082407 
L 146.661658 220.402845 
L 148.024711 233.236603 
L 149.387765 240.583648 
L 150.750818 243.620823 
L 152.113872 243.114997 
L 154.839979 250.064959 
L 156.203032 251.607698 
L 157.566085 248.893225 
L 158.929139 248.891095 
L 160.292192 245.382199 
L 163.018299 237.10204 
L 164.381353 236.582508 
L 165.744406 236.477418 
L 167.107459 234.241533 
L 168.470513 227.752305 
L 169.833566 225.467971 
L 171.19662 230.718701 
L 172.559673 240.92208 
L 173.922727 243.507227 
L 175.28578 241.044337 
L 176.648833 233.826969 
L 178.011887 233.222764 
L 179.37494 228.38915 
L 180.737994 242.740121 
L 182.101047 229.269077 
L 183.464101 229.870881 
L 184.827154 207.161383 
L 186.190208 229.209749 
L 187.553261 219.501156 
L 188.916314 212.031087 
L 190.279368 192.98185 
L 191.642421 209.581314 
L 193.005475 221.065989 
L 194.368528 234.616737 
L 195.731582 224.06468 
L 197.094635 222.447011 
L 198.457688 230.764786 
L 199.820742 226.735849 
L 201.183795 230.732013 
L 202.546849 218.850986 
L 203.909902 224.281475 
L 205.272956 218.302399 
L 206.636009 221.123664 
L 207.999063 220.93512 
L 209.362116 242.141688 
L 210.725169 228.364316 
L 212.088223 218.44859 
L 213.451276 190.029585 
L 214.81433 193.727182 
L 216.177383 200.139008 
L 217.540437 199.610689 
L 218.90349 181.624175 
L 220.266543 190.09163 
L 222.99265 214.510045 
L 224.355704 208.573118 
L 225.718757 200.569432 
L 227.081811 204.342327 
L 228.444864 203.652593 
L 229.807917 200.974213 
L 231.170971 196.618162 
L 232.534024 199.093369 
L 233.897078 191.026031 
L 235.260131 184.214067 
L 236.623185 180.790352 
L 237.986238 183.611312 
L 239.349292 181.298308 
L 240.712345 169.270937 
L 242.075398 184.905831 
L 243.438452 188.492178 
L 244.801505 200.403438 
L 246.164559 187.108997 
L 247.527612 189.611924 
L 248.890666 195.033037 
L 250.253719 197.447481 
L 251.616772 192.747876 
L 252.979826 197.145102 
L 254.342879 200.314175 
L 255.705933 220.626045 
L 258.43204 201.295556 
L 259.795093 195.464272 
L 261.158146 197.405968 
L 262.5212 197.113713 
L 263.884253 187.261183 
L 265.247307 187.08549 
L 266.61036 193.741822 
L 267.973414 189.550213 
L 269.336467 199.469935 
L 270.699521 189.152671 
L 272.062574 193.119185 
L 273.425627 182.150609 
L 274.788681 193.164416 
L 276.151734 198.60058 
L 277.514788 195.400607 
L 278.877841 176.246527 
L 280.240895 182.20913 
L 281.603948 196.443074 
L 282.967001 212.928431 
L 284.330055 210.214796 
L 285.693108 197.539344 
L 287.056162 194.357613 
L 289.782269 188.916137 
L 291.145322 182.357292 
L 292.508375 171.871023 
L 293.871429 176.669151 
L 295.234482 179.625281 
L 296.597536 181.687232 
L 297.960589 179.678119 
L 299.323643 185.826618 
L 300.686696 190.280728 
L 302.04975 201.282161 
L 303.412803 203.568241 
L 304.775856 209.613962 
L 306.13891 202.82065 
L 307.501963 202.539923 
L 308.865017 196.411828 
L 310.22807 196.743275 
L 311.591124 196.795762 
L 312.954177 205.708887 
L 314.31723 206.399686 
L 315.680284 211.222913 
L 317.043337 206.203506 
L 318.406391 215.275699 
L 319.769444 227.04317 
L 321.132498 235.049338 
L 322.495551 230.893623 
L 323.858604 231.014516 
L 325.221658 240.403632 
L 326.584711 242.143466 
L 327.947765 209.55923 
L 329.310818 152.790998 
L 330.673872 131.180415 
L 332.036925 159.879638 
L 333.399979 194.434509 
L 334.763032 194.078898 
L 336.126085 199.039398 
L 337.489139 218.686553 
L 338.852192 244.703586 
L 340.215246 251.750355 
L 341.578299 243.877834 
L 342.941353 225.985777 
L 344.304406 230.404356 
L 347.030513 254.199875 
L 348.393566 252.076606 
L 351.119673 243.017663 
L 352.482727 242.328067 
L 353.84578 241.322359 
L 355.208833 242.707579 
L 356.571887 244.981923 
L 357.93494 243.764543 
L 359.297994 242.927891 
L 360.661047 236.657187 
L 362.024101 247.335431 
L 363.387154 252.068319 
L 364.750208 255.212423 
L 366.113261 242.265414 
L 367.476314 240.610269 
L 368.839368 239.708955 
L 370.202421 232.583033 
L 371.565475 222.156768 
L 372.928528 214.756056 
L 374.291582 220.03548 
L 375.654635 226.75576 
L 377.017688 225.307435 
L 378.380742 235.305016 
L 379.743795 230.400667 
L 381.106849 234.101419 
L 382.469902 235.597281 
L 383.832956 235.016415 
L 385.196009 230.998408 
L 385.196009 230.998408 
" clip-path="url(#pa67d216f3d)" style="fill: none; stroke: #2ca02c; stroke-width: 1.5; stroke-linecap: square"/>
   </g>
   <g id="line2d_19">
    <path d="M 29.439063 221.275211 
L 30.802116 236.505406 
L 32.165169 248.478994 
L 33.528223 250.372301 
L 34.891276 258.240554 
L 36.25433 258.641514 
L 37.617383 253.887849 
L 38.980437 250.742613 
L 40.34349 242.558839 
L 41.706543 227.832517 
L 43.069597 226.152528 
L 44.43265 232.537407 
L 45.795704 227.154092 
L 47.158757 239.663468 
L 48.521811 247.949949 
L 49.884864 246.12502 
L 51.247917 254.219959 
L 52.610971 251.824807 
L 53.974024 220.968504 
L 55.337078 205.919399 
L 56.700131 186.135769 
L 58.063185 136.533121 
L 59.426238 133.903952 
L 60.789292 128.780364 
L 62.152345 108.165345 
L 63.515398 154.661857 
L 64.878452 166.381937 
L 66.241505 156.222628 
L 68.967612 174.127491 
L 70.330666 164.056515 
L 71.693719 151.002816 
L 73.056772 139.788926 
L 74.419826 90.161987 
L 75.782879 73.226844 
L 77.145933 79.930908 
L 78.508986 63.162834 
L 79.87204 67.394559 
L 81.235093 87.608872 
L 82.598146 95.307164 
L 83.9612 130.829051 
L 85.324253 130.923693 
L 88.05036 149.07322 
L 89.413414 145.514995 
L 90.776467 165.230701 
L 92.139521 172.15619 
L 93.502574 183.990017 
L 94.865627 198.107108 
L 96.228681 192.195781 
L 97.591734 190.267628 
L 98.954788 190.194295 
L 100.317841 178.776002 
L 101.680895 185.572177 
L 103.043948 190.372599 
L 104.407001 184.54832 
L 105.770055 186.766963 
L 107.133108 189.473261 
L 108.496162 190.069324 
L 109.859215 192.410021 
L 113.948375 195.044354 
L 115.311429 196.351076 
L 116.674482 194.867136 
L 118.037536 189.335364 
L 119.400589 189.603599 
L 120.763643 190.360547 
L 122.126696 189.394825 
L 123.48975 190.342872 
L 124.852803 188.74688 
L 126.215856 192.084855 
L 127.57891 203.69443 
L 128.941963 208.628052 
L 130.305017 214.390906 
L 131.66807 214.306201 
L 133.031124 212.043229 
L 134.394177 210.791529 
L 135.75723 205.110817 
L 137.120284 194.096195 
L 138.483337 181.995215 
L 139.846391 177.300368 
L 141.209444 180.166067 
L 142.572498 188.02426 
L 143.935551 198.022962 
L 146.661658 213.03684 
L 148.024711 228.256977 
L 149.387765 235.194567 
L 150.750818 240.763189 
L 152.113872 244.49752 
L 153.476925 245.259188 
L 156.203032 250.498685 
L 157.566085 249.519384 
L 158.929139 249.59516 
L 160.292192 247.032432 
L 161.655246 241.548346 
L 163.018299 240.987516 
L 165.744406 234.646856 
L 167.107459 235.892398 
L 169.833566 226.256947 
L 171.19662 231.579139 
L 172.559673 236.122417 
L 173.922727 238.507266 
L 175.28578 242.782759 
L 176.648833 238.331566 
L 178.011887 232.634606 
L 179.37494 231.587191 
L 180.737994 239.646891 
L 182.101047 229.193149 
L 183.464101 229.040635 
L 184.827154 225.896331 
L 186.190208 217.632953 
L 187.553261 221.78581 
L 188.916314 212.266073 
L 190.279368 208.065956 
L 191.642421 206.313066 
L 193.005475 213.521109 
L 194.368528 226.061058 
L 195.731582 227.980673 
L 197.094635 222.980288 
L 198.457688 233.074257 
L 199.820742 221.710038 
L 201.183795 228.075685 
L 202.546849 230.662107 
L 203.909902 216.432907 
L 205.272956 221.898783 
L 206.636009 223.537176 
L 207.999063 218.034898 
L 209.362116 235.927619 
L 210.725169 230.806248 
L 212.088223 215.976432 
L 213.451276 216.679967 
L 214.81433 192.041922 
L 216.177383 192.910047 
L 217.540437 202.612348 
L 218.90349 185.877122 
L 220.266543 190.175906 
L 221.629597 204.536808 
L 222.99265 198.448671 
L 224.355704 209.676726 
L 225.718757 211.634562 
L 227.081811 199.686873 
L 228.444864 201.281933 
L 229.807917 206.126362 
L 231.170971 196.71423 
L 232.534024 197.268091 
L 233.897078 196.960725 
L 235.260131 183.923798 
L 236.623185 185.627441 
L 237.986238 185.325715 
L 239.349292 176.313222 
L 240.712345 174.670499 
L 242.075398 188.327129 
L 243.438452 180.177036 
L 246.164559 200.262414 
L 247.527612 183.839538 
L 248.890666 194.796847 
L 250.253719 198.049398 
L 251.616772 188.189868 
L 252.979826 200.271432 
L 254.342879 201.939318 
L 255.705933 207.269481 
L 257.068986 213.289999 
L 258.43204 204.949238 
L 259.795093 203.848238 
L 261.158146 195.139464 
L 262.5212 194.305696 
L 263.884253 193.674278 
L 265.247307 188.888776 
L 266.61036 191.5016 
L 267.973414 187.892686 
L 269.336467 198.041309 
L 270.699521 193.005785 
L 272.062574 187.405469 
L 273.425627 192.869183 
L 274.788681 188.066754 
L 276.151734 194.64471 
L 277.514788 194.587132 
L 278.877841 183.841066 
L 280.240895 186.599767 
L 281.603948 192.921842 
L 282.967001 198.395901 
L 284.330055 211.065593 
L 287.056162 196.858291 
L 288.419215 195.13317 
L 289.782269 187.209652 
L 291.145322 185.572071 
L 292.508375 178.699715 
L 293.871429 175.832866 
L 295.234482 178.493445 
L 296.597536 178.184745 
L 297.960589 181.575194 
L 299.323643 185.331186 
L 300.686696 186.329848 
L 302.04975 196.546057 
L 303.412803 202.936162 
L 304.775856 204.510717 
L 306.13891 205.626636 
L 307.501963 203.868227 
L 308.865017 199.222196 
L 310.22807 195.776348 
L 311.591124 199.414406 
L 312.954177 201.670223 
L 314.31723 203.378204 
L 315.680284 210.206468 
L 317.043337 208.524885 
L 318.406391 210.766072 
L 319.769444 225.546373 
L 322.495551 229.083162 
L 323.858604 236.464788 
L 325.221658 237.497733 
L 326.584711 234.806213 
L 327.947765 221.777563 
L 329.310818 187.059161 
L 330.673872 156.996009 
L 332.036925 152.052377 
L 333.399979 173.746238 
L 334.763032 188.21243 
L 336.126085 199.845473 
L 337.489139 216.297816 
L 340.215246 244.014071 
L 341.578299 246.895303 
L 342.941353 234.888058 
L 344.304406 233.419403 
L 345.667459 239.247932 
L 347.030513 243.609469 
L 348.393566 252.205565 
L 349.75662 251.204953 
L 351.119673 244.342162 
L 352.482727 243.23247 
L 353.84578 243.18381 
L 355.208833 240.595936 
L 356.571887 244.706237 
L 357.93494 244.25254 
L 359.297994 241.813187 
L 360.661047 240.314936 
L 362.024101 246.039879 
L 363.387154 248.270489 
L 364.750208 250.000714 
L 366.113261 249.838473 
L 367.476314 243.336882 
L 368.839368 240.659262 
L 370.202421 232.232699 
L 371.565475 228.85032 
L 372.928528 221.92811 
L 374.291582 216.625799 
L 375.654635 224.341012 
L 377.017688 224.305296 
L 378.380742 232.157378 
L 379.743795 231.895875 
L 381.106849 230.002881 
L 382.469902 239.449318 
L 383.832956 231.67145 
L 385.196009 230.453386 
L 385.196009 230.453386 
" clip-path="url(#pa67d216f3d)" style="fill: none; stroke: #d62728; stroke-width: 1.5; stroke-linecap: square"/>
   </g>
   <g id="line2d_20">
    <path d="M 29.439063 222.506149 
L 30.802116 229.225195 
L 32.165169 244.328125 
L 33.528223 247.402355 
L 34.891276 252.954749 
L 36.25433 258.019032 
L 37.617383 257.295259 
L 38.980437 249.2435 
L 40.34349 246.974437 
L 41.706543 234.54074 
L 43.069597 231.861658 
L 44.43265 231.553594 
L 45.795704 227.717781 
L 47.158757 232.012654 
L 48.521811 247.643113 
L 51.247917 246.413994 
L 52.610971 251.305355 
L 53.974024 234.325278 
L 55.337078 214.484016 
L 56.700131 201.387908 
L 58.063185 163.586194 
L 59.426238 129.858474 
L 60.789292 141.397281 
L 62.152345 125.3209 
L 63.515398 134.972888 
L 64.878452 154.989431 
L 66.241505 158.76708 
L 67.604559 155.361922 
L 68.967612 182.873277 
L 70.330666 162.532711 
L 71.693719 145.998895 
L 73.056772 142.271252 
L 74.419826 131.739654 
L 75.782879 80.2958 
L 77.145933 74.469261 
L 78.508986 71.612377 
L 79.87204 73.369884 
L 81.235093 78.170446 
L 82.598146 92.205622 
L 83.9612 114.651386 
L 85.324253 126.98029 
L 86.687307 135.707335 
L 88.05036 141.820322 
L 89.413414 152.338799 
L 90.776467 155.572908 
L 92.139521 168.629853 
L 93.502574 177.501124 
L 94.865627 192.046346 
L 96.228681 191.863517 
L 97.591734 188.562489 
L 98.954788 191.603524 
L 100.317841 188.124556 
L 101.680895 181.447777 
L 103.043948 187.0666 
L 104.407001 187.0915 
L 105.770055 185.34807 
L 107.133108 189.913695 
L 108.496162 190.637736 
L 109.859215 188.763136 
L 112.585322 195.654061 
L 113.948375 195.075047 
L 115.311429 193.860278 
L 116.674482 194.307816 
L 118.037536 192.563919 
L 119.400589 191.542008 
L 122.126696 188.685177 
L 123.48975 188.893792 
L 124.852803 191.078975 
L 126.215856 192.074346 
L 127.57891 199.593102 
L 128.941963 204.565698 
L 130.305017 210.577143 
L 131.66807 212.428944 
L 133.031124 214.907852 
L 134.394177 210.23647 
L 135.75723 207.817891 
L 137.120284 196.188428 
L 138.483337 189.862088 
L 139.846391 182.770205 
L 141.209444 183.291563 
L 142.572498 181.712392 
L 143.935551 193.113415 
L 146.661658 211.463604 
L 149.387765 230.909798 
L 152.113872 242.063784 
L 153.476925 245.919887 
L 154.839979 246.583547 
L 156.203032 248.741635 
L 157.566085 249.036102 
L 158.929139 249.952996 
L 160.292192 247.98217 
L 161.655246 243.701758 
L 163.018299 241.373489 
L 164.381353 240.72956 
L 165.744406 235.993508 
L 167.107459 234.540632 
L 168.470513 232.924776 
L 169.833566 229.099784 
L 171.19662 230.988135 
L 172.559673 235.724345 
L 173.922727 235.091221 
L 175.28578 238.923995 
L 176.648833 240.309621 
L 178.011887 236.532871 
L 179.37494 231.439783 
L 180.737994 239.832571 
L 182.101047 229.288225 
L 183.464101 229.025515 
L 184.827154 226.018762 
L 186.190208 229.776904 
L 187.553261 213.604985 
L 188.916314 215.680869 
L 190.279368 209.062995 
L 191.642421 214.984372 
L 193.005475 210.206824 
L 194.368528 219.314815 
L 195.731582 222.17396 
L 197.094635 226.369517 
L 198.457688 231.430807 
L 199.820742 225.577264 
L 201.183795 223.851206 
L 202.546849 228.555607 
L 203.909902 226.648719 
L 205.272956 216.031922 
L 206.636009 225.28565 
L 207.999063 220.640156 
L 209.362116 231.061495 
L 210.725169 227.73105 
L 212.088223 220.726004 
L 213.451276 215.037011 
L 214.81433 213.157231 
L 216.177383 191.720756 
L 217.540437 196.460668 
L 218.90349 191.350375 
L 220.266543 191.757527 
L 221.629597 201.836996 
L 222.99265 200.792232 
L 224.355704 197.550137 
L 225.718757 211.894043 
L 227.081811 208.846332 
L 228.444864 198.115669 
L 229.807917 203.773183 
L 231.170971 201.828184 
L 232.534024 197.214919 
L 233.897078 195.912493 
L 236.623185 185.115566 
L 237.986238 188.215948 
L 239.349292 179.230873 
L 240.712345 171.901027 
L 242.075398 188.619752 
L 243.438452 183.951829 
L 244.801505 183.070739 
L 246.164559 191.957715 
L 247.527612 195.323676 
L 248.890666 189.316525 
L 250.253719 197.266248 
L 251.616772 190.602066 
L 252.979826 195.331172 
L 254.342879 203.427593 
L 255.705933 207.153921 
L 257.068986 203.660003 
L 258.43204 208.209749 
L 259.795093 206.225655 
L 261.158146 201.968952 
L 262.5212 193.086981 
L 263.884253 192.080368 
L 265.247307 193.671134 
L 266.61036 192.037551 
L 267.973414 187.230909 
L 269.336467 195.127704 
L 270.699521 193.136595 
L 272.062574 190.879234 
L 273.425627 188.360647 
L 274.788681 195.259724 
L 276.151734 190.323195 
L 277.514788 192.16594 
L 278.877841 185.535827 
L 280.240895 190.356327 
L 281.603948 194.157665 
L 282.967001 195.231943 
L 284.330055 199.805793 
L 285.693108 205.75506 
L 287.056162 201.980701 
L 288.419215 196.973377 
L 291.145322 184.857416 
L 292.508375 182.068236 
L 293.871429 180.423619 
L 295.234482 177.468219 
L 296.597536 177.562124 
L 297.960589 178.80059 
L 299.323643 185.690961 
L 300.686696 185.834271 
L 303.412803 198.87215 
L 304.775856 203.82049 
L 306.13891 202.259429 
L 307.501963 205.894119 
L 308.865017 200.979192 
L 310.22807 198.165651 
L 311.591124 198.124359 
L 312.954177 202.74615 
L 314.31723 200.578123 
L 315.680284 207.104849 
L 317.043337 208.241904 
L 318.406391 211.671763 
L 319.769444 220.244674 
L 321.132498 226.078778 
L 322.495551 223.863886 
L 323.858604 233.998962 
L 325.221658 240.383726 
L 326.584711 233.517676 
L 327.947765 219.293385 
L 329.310818 203.251104 
L 330.673872 183.622751 
L 332.036925 167.197618 
L 333.399979 165.252998 
L 334.763032 172.562654 
L 336.126085 194.202864 
L 337.489139 213.618043 
L 338.852192 226.041419 
L 340.215246 232.462632 
L 341.578299 241.448056 
L 342.941353 239.391526 
L 344.304406 238.737845 
L 345.667459 239.787062 
L 347.030513 241.114508 
L 348.393566 244.070253 
L 349.75662 251.48424 
L 351.119673 248.029576 
L 352.482727 244.248661 
L 353.84578 243.731784 
L 355.208833 242.244278 
L 356.571887 242.65733 
L 357.93494 244.176889 
L 359.297994 242.605043 
L 360.661047 239.931252 
L 362.024101 246.935916 
L 363.387154 247.059347 
L 364.750208 247.328921 
L 366.113261 246.558014 
L 367.476314 249.176368 
L 368.839368 242.836748 
L 370.202421 234.590488 
L 371.565475 229.319501 
L 372.928528 227.373291 
L 374.291582 221.952487 
L 375.654635 220.862935 
L 377.017688 222.835301 
L 378.380742 230.068009 
L 379.743795 230.003639 
L 381.106849 231.284555 
L 382.469902 235.291923 
L 383.832956 235.670859 
L 385.196009 228.611926 
L 385.196009 228.611926 
" clip-path="url(#pa67d216f3d)" style="fill: none; stroke: #9467bd; stroke-width: 1.5; stroke-linecap: square"/>
   </g>
   <g id="line2d_21">
    <path d="M 29.439063 221.989476 
L 30.802116 228.904971 
L 32.165169 237.483987 
L 33.528223 244.099331 
L 34.891276 250.133055 
L 37.617383 256.994611 
L 38.980437 253.038847 
L 41.706543 239.915086 
L 43.069597 236.632969 
L 44.43265 235.239876 
L 45.795704 227.68395 
L 47.158757 231.670455 
L 48.521811 240.522 
L 49.884864 246.901912 
L 51.247917 247.094508 
L 52.610971 245.135114 
L 53.974024 236.98727 
L 55.337078 227.417148 
L 56.700131 209.558869 
L 59.426238 154.479575 
L 60.789292 136.912814 
L 62.152345 136.626651 
L 63.515398 143.651398 
L 64.878452 138.702995 
L 66.241505 150.24993 
L 67.604559 157.637623 
L 68.967612 172.805614 
L 70.330666 172.308881 
L 71.693719 147.756838 
L 73.056772 139.424444 
L 74.419826 135.249771 
L 75.782879 118.380389 
L 77.145933 80.14313 
L 78.508986 68.347758 
L 79.87204 78.528388 
L 82.598146 83.731536 
L 83.9612 109.142714 
L 85.324253 114.016671 
L 86.687307 131.704446 
L 88.05036 137.894546 
L 89.413414 145.867244 
L 90.776467 159.375849 
L 92.139521 160.199988 
L 93.502574 173.774933 
L 94.865627 185.603024 
L 96.228681 187.691034 
L 98.954788 189.973888 
L 100.317841 189.661866 
L 101.680895 188.720384 
L 103.043948 183.420157 
L 104.407001 184.839306 
L 105.770055 187.32764 
L 107.133108 188.234936 
L 108.496162 190.808875 
L 109.859215 189.459306 
L 111.222269 189.315904 
L 112.585322 194.488321 
L 113.948375 196.222111 
L 115.311429 194.084129 
L 116.674482 192.551171 
L 118.037536 192.477858 
L 119.400589 193.836383 
L 120.763643 191.623847 
L 122.126696 188.740474 
L 123.48975 188.38451 
L 124.852803 189.755489 
L 126.215856 193.432394 
L 127.57891 198.363082 
L 128.941963 201.032618 
L 130.305017 206.925265 
L 131.66807 209.543013 
L 133.031124 213.252545 
L 134.394177 212.963095 
L 135.75723 207.846519 
L 138.483337 192.369156 
L 139.846391 189.197994 
L 142.572498 184.042107 
L 143.935551 187.198671 
L 148.024711 218.675332 
L 149.387765 224.780796 
L 150.750818 232.725185 
L 153.476925 243.690539 
L 154.839979 246.907814 
L 156.203032 247.474879 
L 157.566085 247.797075 
L 158.929139 249.480254 
L 160.292192 248.556817 
L 161.655246 245.08607 
L 163.018299 243.204053 
L 165.744406 238.815428 
L 167.107459 235.683007 
L 168.470513 232.270423 
L 169.833566 231.130882 
L 171.19662 232.49656 
L 172.559673 234.57189 
L 173.922727 234.929153 
L 175.28578 236.028174 
L 176.648833 237.444895 
L 178.011887 238.514573 
L 179.37494 234.934333 
L 180.737994 238.395766 
L 182.101047 231.266365 
L 183.464101 229.132824 
L 184.827154 226.515892 
L 186.190208 229.239417 
L 187.553261 224.817696 
L 188.916314 209.621523 
L 190.279368 212.522123 
L 193.005475 216.641101 
L 194.368528 215.732855 
L 195.731582 217.061613 
L 197.094635 221.758769 
L 198.457688 232.710465 
L 199.820742 225.409058 
L 201.183795 226.675144 
L 202.546849 224.981941 
L 203.909902 225.516094 
L 205.272956 224.706134 
L 206.636009 219.993368 
L 207.999063 222.621729 
L 209.362116 230.960194 
L 210.725169 224.808205 
L 212.088223 219.699069 
L 213.451276 219.194515 
L 214.81433 212.348296 
L 216.177383 209.65087 
L 217.540437 194.907088 
L 218.90349 187.807324 
L 220.266543 195.211158 
L 221.629597 201.189777 
L 222.99265 199.121299 
L 224.355704 199.667689 
L 225.718757 201.664094 
L 227.081811 209.536309 
L 228.444864 206.137929 
L 229.807917 200.771985 
L 231.170971 200.539284 
L 232.534024 201.393693 
L 235.260131 190.557175 
L 236.623185 190.24811 
L 237.986238 187.367939 
L 239.349292 182.763564 
L 240.712345 175.139954 
L 242.075398 184.260041 
L 244.801505 185.693006 
L 246.164559 186.011723 
L 247.527612 189.053189 
L 248.890666 197.746163 
L 250.253719 192.377572 
L 251.616772 191.188962 
L 252.979826 196.093335 
L 254.342879 198.888857 
L 255.705933 207.49831 
L 258.43204 200.805821 
L 259.795093 208.713277 
L 261.158146 204.293783 
L 262.5212 199.221764 
L 263.884253 191.424833 
L 265.247307 192.344692 
L 266.61036 195.438584 
L 267.973414 188.410429 
L 269.336467 193.421343 
L 270.699521 191.466693 
L 272.062574 191.34645 
L 273.425627 191.086209 
L 274.788681 191.173373 
L 276.151734 195.888562 
L 277.514788 188.934661 
L 278.877841 184.957424 
L 281.603948 195.922878 
L 282.967001 195.865522 
L 284.330055 196.964714 
L 285.693108 196.992366 
L 287.056162 203.993471 
L 288.419215 201.233957 
L 289.782269 193.29733 
L 291.145322 188.48751 
L 292.508375 182.050611 
L 293.871429 182.922867 
L 295.234482 180.997684 
L 296.597536 176.85942 
L 297.960589 178.181248 
L 299.323643 182.759312 
L 300.686696 186.049535 
L 302.04975 190.908696 
L 303.412803 194.995539 
L 304.775856 200.316108 
L 306.13891 202.053777 
L 307.501963 203.05515 
L 308.865017 203.188982 
L 310.22807 199.818307 
L 311.591124 199.700281 
L 312.954177 201.146293 
L 314.31723 201.664569 
L 315.680284 204.221356 
L 317.043337 205.956449 
L 318.406391 210.922625 
L 319.769444 219.423925 
L 321.132498 221.610325 
L 322.495551 223.37897 
L 323.858604 229.049003 
L 325.221658 237.766712 
L 326.584711 236.693885 
L 329.310818 204.185953 
L 330.673872 198.109798 
L 333.399979 175.034151 
L 334.763032 165.669523 
L 336.126085 180.766015 
L 337.489139 207.173387 
L 338.852192 222.415569 
L 340.215246 228.878611 
L 341.578299 232.116043 
L 342.941353 235.824645 
L 344.304406 241.744141 
L 345.667459 242.955834 
L 347.030513 241.247706 
L 348.393566 241.929208 
L 349.75662 244.83055 
L 351.119673 248.808845 
L 352.482727 247.351661 
L 353.84578 244.492239 
L 355.208833 242.862764 
L 356.571887 243.66558 
L 357.93494 242.552297 
L 359.297994 242.817807 
L 360.661047 240.92033 
L 362.024101 245.569599 
L 363.387154 247.629856 
L 364.750208 246.468575 
L 366.113261 244.839602 
L 367.476314 246.543437 
L 368.839368 247.840138 
L 370.202421 237.555391 
L 371.565475 231.830536 
L 372.928528 228.017048 
L 374.291582 226.505229 
L 375.654635 224.482092 
L 377.017688 220.162131 
L 378.380742 227.964603 
L 379.743795 228.595117 
L 381.106849 229.804007 
L 382.469902 235.451266 
L 383.832956 232.73684 
L 385.196009 232.56268 
L 385.196009 232.56268 
" clip-path="url(#pa67d216f3d)" style="fill: none; stroke: #8c564b; stroke-width: 1.5; stroke-linecap: square"/>
   </g>
   <g id="line2d_22">
    <path d="M 29.439063 224.216778 
L 30.802116 227.596136 
L 32.165169 236.094002 
L 33.528223 238.285498 
L 34.891276 247.009287 
L 36.25433 251.173405 
L 37.617383 253.38057 
L 38.980437 253.391419 
L 40.34349 250.111493 
L 41.706543 240.35466 
L 43.069597 240.873149 
L 44.43265 238.743918 
L 45.795704 231.524757 
L 47.158757 231.087585 
L 48.521811 239.084283 
L 49.884864 240.893702 
L 51.247917 246.996197 
L 52.610971 245.910647 
L 53.974024 233.085415 
L 55.337078 230.86679 
L 56.700131 221.875268 
L 58.063185 192.984554 
L 59.426238 172.579527 
L 60.789292 156.56697 
L 62.152345 133.393898 
L 63.515398 150.105108 
L 64.878452 145.513232 
L 66.241505 136.739153 
L 67.604559 150.483069 
L 68.967612 172.207681 
L 70.330666 164.739432 
L 71.693719 159.007124 
L 73.056772 141.932814 
L 74.419826 133.752243 
L 77.145933 113.209754 
L 78.508986 74.203567 
L 79.87204 74.821343 
L 81.235093 84.425418 
L 82.598146 85.512302 
L 83.9612 100.005778 
L 85.324253 109.382331 
L 86.687307 120.19955 
L 88.05036 134.191304 
L 89.413414 141.997781 
L 90.776467 153.047456 
L 92.139521 162.735832 
L 93.502574 166.052801 
L 94.865627 181.433711 
L 96.228681 182.665304 
L 97.591734 185.684395 
L 98.954788 190.052933 
L 100.317841 188.528151 
L 101.680895 189.949308 
L 103.043948 189.323584 
L 104.407001 181.997329 
L 105.770055 185.368481 
L 107.133108 189.494891 
L 108.496162 189.251731 
L 109.859215 189.776067 
L 111.222269 189.831957 
L 112.585322 191.63289 
L 113.948375 195.146246 
L 115.311429 195.216294 
L 116.674482 192.932486 
L 118.037536 191.218756 
L 119.400589 193.58218 
L 120.763643 193.580143 
L 122.126696 190.258975 
L 123.48975 188.474989 
L 124.852803 189.198645 
L 126.215856 191.981943 
L 127.57891 198.601115 
L 128.941963 199.784621 
L 130.305017 203.618883 
L 131.66807 206.544268 
L 133.031124 210.681256 
L 134.394177 211.804545 
L 135.75723 210.573035 
L 137.120284 201.272819 
L 139.846391 191.453746 
L 141.209444 191.567199 
L 142.572498 186.873421 
L 143.935551 188.362043 
L 145.298604 191.892493 
L 148.024711 214.499122 
L 149.387765 222.158824 
L 150.750818 227.322903 
L 152.113872 234.922937 
L 153.476925 240.308315 
L 154.839979 244.880253 
L 156.203032 247.623529 
L 157.566085 246.836933 
L 158.929139 248.36133 
L 160.292192 248.346486 
L 161.655246 246.014508 
L 163.018299 244.469403 
L 164.381353 242.710852 
L 165.744406 239.410904 
L 167.107459 238.158751 
L 168.470513 233.598803 
L 169.833566 230.819473 
L 171.19662 233.710105 
L 172.559673 235.321048 
L 173.922727 234.048867 
L 175.28578 235.757231 
L 176.648833 235.145673 
L 178.011887 236.280027 
L 179.37494 236.891486 
L 180.737994 240.248563 
L 182.101047 231.206691 
L 183.464101 230.855381 
L 184.827154 226.97232 
L 186.190208 229.200263 
L 187.553261 225.060755 
L 188.916314 220.171876 
L 190.279368 207.679122 
L 191.642421 216.719103 
L 193.005475 216.123738 
L 194.368528 220.271379 
L 195.731582 214.26839 
L 197.094635 217.436337 
L 198.457688 228.104504 
L 199.820742 227.449084 
L 201.183795 226.376218 
L 202.546849 227.223636 
L 203.909902 222.819885 
L 205.272956 223.999794 
L 206.636009 226.684388 
L 207.999063 218.385403 
L 209.362116 231.107781 
L 210.725169 225.63427 
L 212.088223 218.212387 
L 213.451276 218.52415 
L 214.81433 216.383034 
L 216.177383 209.44702 
L 217.540437 209.664523 
L 218.90349 187.671964 
L 220.266543 191.709338 
L 221.629597 202.671045 
L 222.99265 198.947973 
L 224.355704 198.387136 
L 225.718757 202.852002 
L 227.081811 201.008475 
L 228.444864 207.131896 
L 229.807917 207.18111 
L 231.170971 198.380668 
L 232.534024 200.348606 
L 233.897078 199.87207 
L 235.260131 191.497092 
L 236.623185 190.446999 
L 237.986238 191.399083 
L 239.349292 182.804438 
L 240.712345 178.836405 
L 242.075398 185.145917 
L 243.438452 181.658839 
L 244.801505 186.284838 
L 246.164559 187.806378 
L 247.527612 184.297498 
L 248.890666 192.130815 
L 250.253719 199.063592 
L 251.616772 187.727666 
L 252.979826 195.808404 
L 254.342879 199.024939 
L 255.705933 203.154815 
L 257.068986 204.902638 
L 258.43204 201.663825 
L 259.795093 202.345891 
L 261.158146 206.736348 
L 262.5212 201.650842 
L 263.884253 196.995616 
L 265.247307 191.746216 
L 266.61036 194.064329 
L 267.973414 191.922213 
L 269.336467 193.527147 
L 270.699521 190.499864 
L 272.062574 190.157175 
L 273.425627 191.456708 
L 274.788681 193.073793 
L 276.151734 192.318328 
L 277.514788 193.959995 
L 278.877841 183.119016 
L 281.603948 195.385749 
L 282.967001 197.120655 
L 284.330055 197.255697 
L 285.693108 194.920628 
L 287.056162 196.680503 
L 288.419215 203.076989 
L 289.782269 197.57802 
L 291.145322 190.830877 
L 292.508375 185.624953 
L 293.871429 182.786056 
L 295.234482 183.053444 
L 296.597536 179.987536 
L 297.960589 177.492985 
L 299.323643 181.681811 
L 300.686696 183.494688 
L 302.04975 190.37394 
L 303.412803 193.456085 
L 304.775856 196.827227 
L 306.13891 199.273135 
L 307.501963 202.7665 
L 308.865017 201.103242 
L 310.22807 201.896283 
L 311.591124 200.885534 
L 312.954177 202.043694 
L 314.31723 200.439377 
L 315.680284 204.616121 
L 317.043337 203.633554 
L 318.406391 208.62509 
L 319.769444 217.74467 
L 321.132498 220.720925 
L 322.495551 219.863341 
L 323.858604 227.927071 
L 325.221658 233.158476 
L 326.584711 234.910488 
L 327.947765 225.785975 
L 329.310818 207.941713 
L 330.673872 199.687402 
L 332.036925 198.707123 
L 333.399979 190.269042 
L 334.763032 174.012436 
L 336.126085 174.001014 
L 338.852192 216.068495 
L 340.215246 225.453198 
L 341.578299 229.092188 
L 342.941353 228.265121 
L 344.304406 238.433858 
L 345.667459 244.842663 
L 347.030513 243.724589 
L 348.393566 241.926549 
L 349.75662 242.904976 
L 351.119673 243.356351 
L 352.482727 248.122206 
L 353.84578 247.117699 
L 355.208833 243.645552 
L 356.571887 243.986768 
L 357.93494 243.433191 
L 359.297994 241.603178 
L 360.661047 241.348576 
L 362.024101 245.588154 
L 364.750208 247.045601 
L 366.113261 244.443331 
L 368.839368 245.747859 
L 370.202421 242.868152 
L 371.565475 234.842259 
L 372.928528 230.38515 
L 374.291582 227.185875 
L 375.654635 227.958074 
L 377.017688 223.389952 
L 378.380742 225.05755 
L 379.743795 226.98329 
L 381.106849 228.624362 
L 382.469902 233.647225 
L 383.832956 233.246031 
L 385.196009 230.430796 
L 385.196009 230.430796 
" clip-path="url(#pa67d216f3d)" style="fill: none; stroke: #e377c2; stroke-width: 1.5; stroke-linecap: square"/>
   </g>
   <g id="patch_3">
    <path d="M 29.439063 284.991437 
L 29.439063 18.879437 
" style="fill: none; stroke: #000000; stroke-width: 0.8; stroke-linejoin: miter; stroke-linecap: square"/>
   </g>
   <g id="patch_4">
    <path d="M 386.559062 284.991437 
L 386.559062 18.879437 
" style="fill: none; stroke: #000000; stroke-width: 0.8; stroke-linejoin: miter; stroke-linecap: square"/>
   </g>
   <g id="patch_5">
    <path d="M 29.439063 284.991437 
L 386.559063 284.991437 
" style="fill: none; stroke: #000000; stroke-width: 0.8; stroke-linejoin: miter; stroke-linecap: square"/>
   </g>
   <g id="patch_6">
    <path d="M 29.439063 18.879437 
L 386.559063 18.879437 
" style="fill: none; stroke: #000000; stroke-width: 0.8; stroke-linejoin: miter; stroke-linecap: square"/>
   </g>
   <g id="legend_1">
    <g id="patch_7">
     <path d="M 341.260625 127.613812 
L 379.559062 127.613812 
Q 381.559062 127.613812 381.559062 125.613812 
L 381.559062 25.879437 
Q 381.559062 23.879437 379.559062 23.879437 
L 341.260625 23.879437 
Q 339.260625 23.879437 339.260625 25.879437 
L 339.260625 125.613812 
Q 339.260625 127.613812 341.260625 127.613812 
z
" style="fill: #ffffff; opacity: 0.8; stroke: #cccccc; stroke-linejoin: miter"/>
    </g>
    <g id="line2d_23">
     <path d="M 343.260625 31.870062 
L 353.260625 31.870062 
L 363.260625 31.870062 
" style="fill: none; stroke: #1f77b4; stroke-width: 1.5; stroke-linecap: square"/>
    </g>
    <g id="text_15">
     <!-- 1 -->
     <g transform="translate(371.260625 35.370062) scale(0.1 -0.1)">
      <use xlink:href="#IPAexGothic-31"/>
     </g>
    </g>
    <g id="line2d_24">
     <path d="M 343.260625 46.260687 
L 353.260625 46.260687 
L 363.260625 46.260687 
" style="fill: none; stroke: #ff7f0e; stroke-width: 1.5; stroke-linecap: square"/>
    </g>
    <g id="text_16">
     <!-- 2 -->
     <g transform="translate(371.260625 49.760687) scale(0.1 -0.1)">
      <use xlink:href="#IPAexGothic-32"/>
     </g>
    </g>
    <g id="line2d_25">
     <path d="M 343.260625 60.651312 
L 353.260625 60.651312 
L 363.260625 60.651312 
" style="fill: none; stroke: #2ca02c; stroke-width: 1.5; stroke-linecap: square"/>
    </g>
    <g id="text_17">
     <!-- 3 -->
     <g transform="translate(371.260625 64.151312) scale(0.1 -0.1)">
      <use xlink:href="#IPAexGothic-33"/>
     </g>
    </g>
    <g id="line2d_26">
     <path d="M 343.260625 75.041937 
L 353.260625 75.041937 
L 363.260625 75.041937 
" style="fill: none; stroke: #d62728; stroke-width: 1.5; stroke-linecap: square"/>
    </g>
    <g id="text_18">
     <!-- 4 -->
     <g transform="translate(371.260625 78.541937) scale(0.1 -0.1)">
      <defs>
       <path id="IPAexGothic-34" d="M 3813 1159 
L 3059 1159 
L 3059 63 
L 2547 63 
L 2547 1159 
L 197 1159 
L 197 1672 
L 2456 4678 
L 3059 4678 
L 3059 1634 
L 3813 1634 
L 3813 1159 
z
M 2578 4109 
L 2559 4109 
Q 2278 3656 2003 3284 
L 759 1634 
L 2547 1634 
L 2547 3144 
Q 2547 3481 2578 4109 
z
" transform="scale(0.015625)"/>
      </defs>
      <use xlink:href="#IPAexGothic-34"/>
     </g>
    </g>
    <g id="line2d_27">
     <path d="M 343.260625 89.432562 
L 353.260625 89.432562 
L 363.260625 89.432562 
" style="fill: none; stroke: #9467bd; stroke-width: 1.5; stroke-linecap: square"/>
    </g>
    <g id="text_19">
     <!-- 5 -->
     <g transform="translate(371.260625 92.932562) scale(0.1 -0.1)">
      <use xlink:href="#IPAexGothic-35"/>
     </g>
    </g>
    <g id="line2d_28">
     <path d="M 343.260625 103.823187 
L 353.260625 103.823187 
L 363.260625 103.823187 
" style="fill: none; stroke: #8c564b; stroke-width: 1.5; stroke-linecap: square"/>
    </g>
    <g id="text_20">
     <!-- 6 -->
     <g transform="translate(371.260625 107.323187) scale(0.1 -0.1)">
      <defs>
       <path id="IPAexGothic-36" d="M 1056 2328 
Q 1509 2981 2234 2981 
Q 2906 2981 3316 2513 
Q 3675 2106 3675 1522 
Q 3675 884 3272 434 
Q 2853 -31 2178 -31 
Q 1375 -31 922 581 
Q 481 1178 481 2228 
Q 481 3425 1013 4109 
Q 1494 4725 2272 4725 
Q 3191 4725 3609 4025 
L 3150 3775 
Q 2894 4266 2300 4266 
Q 1119 4266 1031 2328 
L 1056 2328 
z
M 2141 2547 
Q 1684 2547 1384 2206 
Q 1116 1900 1116 1541 
Q 1116 1156 1353 844 
Q 1672 428 2159 428 
Q 2669 428 2941 844 
Q 3125 1128 3125 1503 
Q 3125 1944 2881 2228 
Q 2600 2547 2141 2547 
z
" transform="scale(0.015625)"/>
      </defs>
      <use xlink:href="#IPAexGothic-36"/>
     </g>
    </g>
    <g id="line2d_29">
     <path d="M 343.260625 118.213812 
L 353.260625 118.213812 
L 363.260625 118.213812 
" style="fill: none; stroke: #e377c2; stroke-width: 1.5; stroke-linecap: square"/>
    </g>
    <g id="text_21">
     <!-- 7 -->
     <g transform="translate(371.260625 121.713812) scale(0.1 -0.1)">
      <defs>
       <path id="IPAexGothic-37" d="M 3597 4263 
Q 2238 2106 1778 63 
L 1131 63 
Q 1581 1834 2950 4128 
L 428 4128 
L 428 4634 
L 3597 4634 
L 3597 4263 
z
" transform="scale(0.015625)"/>
      </defs>
      <use xlink:href="#IPAexGothic-37"/>
     </g>
    </g>
   </g>
  </g>
  <g id="axes_2">
   <g id="matplotlib.axis_3"/>
   <g id="patch_8">
    <path d="M 29.439063 284.991437 
L 29.439063 18.879437 
" style="fill: none; stroke: #000000; stroke-width: 0.8; stroke-linejoin: miter; stroke-linecap: square"/>
   </g>
   <g id="patch_9">
    <path d="M 386.559062 284.991437 
L 386.559062 18.879437 
" style="fill: none; stroke: #000000; stroke-width: 0.8; stroke-linejoin: miter; stroke-linecap: square"/>
   </g>
   <g id="patch_10">
    <path d="M 29.439063 284.991437 
L 386.559063 284.991437 
" style="fill: none; stroke: #000000; stroke-width: 0.8; stroke-linejoin: miter; stroke-linecap: square"/>
   </g>
   <g id="patch_11">
    <path d="M 29.439063 18.879437 
L 386.559063 18.879437 
" style="fill: none; stroke: #000000; stroke-width: 0.8; stroke-linejoin: miter; stroke-linecap: square"/>
   </g>
  </g>
  <g id="text_22">
   <!-- : 2023/02/17 16:15:01(JST) -->
   <g transform="translate(211.087188 15.423437) scale(0.1 -0.1)">
    <defs>
     <path id="IPAexGothic-66f4" d="M 2956 3994 
L 2956 4588 
L 513 4588 
L 513 4984 
L 5881 4984 
L 5881 4588 
L 3413 4588 
L 3413 3994 
L 5300 3994 
L 5300 1288 
L 4838 1288 
L 4838 1759 
L 3406 1759 
Q 3384 1125 3150 709 
Q 4291 244 5997 31 
L 5694 -428 
Q 4109 -166 2906 384 
Q 2294 -266 744 -488 
L 494 -66 
Q 1903 59 2491 588 
Q 2041 813 1594 1166 
L 1928 1434 
Q 2331 1106 2747 897 
Q 2922 1219 2950 1759 
L 1556 1759 
L 1556 1413 
L 1097 1413 
L 1097 3994 
L 2956 3994 
z
M 2956 3609 
L 1556 3609 
L 1556 3078 
L 2956 3078 
L 2956 3609 
z
M 3413 3609 
L 3413 3078 
L 4838 3078 
L 4838 3609 
L 3413 3609 
z
M 2956 2700 
L 1556 2700 
L 1556 2144 
L 2956 2144 
L 2956 2700 
z
M 3413 2700 
L 3413 2144 
L 4838 2144 
L 4838 2700 
L 3413 2700 
z
" transform="scale(0.015625)"/>
     <path id="IPAexGothic-65b0" d="M 3891 2803 
Q 3881 1759 3794 1166 
Q 3653 197 3097 -563 
L 2741 -250 
Q 3450 700 3450 2631 
L 3450 4647 
Q 3516 4656 3622 4666 
Q 4656 4778 5447 5063 
L 5825 4678 
Q 4897 4419 3891 4294 
L 3891 3219 
L 6119 3219 
L 6119 2803 
L 5275 2803 
L 5275 -447 
L 4834 -447 
L 4834 2803 
L 3891 2803 
z
M 2822 4069 
Q 2678 3572 2519 3181 
L 3250 3181 
L 3250 2784 
L 2059 2784 
L 2059 2216 
L 3184 2216 
L 3184 1831 
L 2059 1831 
L 2059 1544 
Q 2613 1197 3031 847 
L 2781 456 
Q 2472 791 2059 1128 
L 2059 -447 
L 1644 -447 
L 1644 1294 
Q 1272 628 575 -31 
L 269 341 
Q 1041 938 1528 1831 
L 453 1831 
L 453 2216 
L 1644 2216 
L 1644 2784 
L 319 2784 
L 319 3181 
L 1125 3181 
Q 1013 3706 881 4069 
L 453 4069 
L 453 4453 
L 1631 4453 
L 1631 5309 
L 2072 5309 
L 2072 4453 
L 3166 4453 
L 3166 4069 
L 2822 4069 
z
M 2391 4069 
L 1325 4069 
Q 1450 3672 1534 3181 
L 2109 3181 
Q 2294 3659 2391 4069 
z
" transform="scale(0.015625)"/>
     <path id="IPAexGothic-65e5" d="M 5231 4800 
L 5231 -288 
L 4744 -288 
L 4744 128 
L 1647 128 
L 1647 -288 
L 1159 -288 
L 1159 4800 
L 5231 4800 
z
M 1647 4372 
L 1647 2731 
L 4744 2731 
L 4744 4372 
L 1647 4372 
z
M 1647 2297 
L 1647 556 
L 4744 556 
L 4744 2297 
L 1647 2297 
z
" transform="scale(0.015625)"/>
     <path id="IPAexGothic-6642" d="M 2328 4728 
L 2328 563 
L 934 563 
L 934 56 
L 519 56 
L 519 4728 
L 2328 4728 
z
M 934 4331 
L 934 2881 
L 1906 2881 
L 1906 4331 
L 934 4331 
z
M 934 2497 
L 934 953 
L 1906 953 
L 1906 2497 
L 934 2497 
z
M 3938 4372 
L 3938 5313 
L 4378 5313 
L 4378 4372 
L 5772 4372 
L 5772 3981 
L 4378 3981 
L 4378 3194 
L 6072 3194 
L 6072 2803 
L 5203 2803 
L 5203 2047 
L 5959 2047 
L 5959 1650 
L 5216 1650 
L 5216 31 
Q 5216 -447 4691 -447 
Q 4394 -447 3888 -391 
L 3784 78 
Q 4272 0 4591 0 
Q 4775 0 4775 172 
L 4775 1650 
L 2581 1650 
L 2581 2047 
L 4763 2047 
L 4763 2803 
L 2538 2803 
L 2538 3194 
L 3938 3194 
L 3938 3981 
L 2716 3981 
L 2716 4372 
L 3938 4372 
z
M 3669 384 
Q 3331 950 2956 1325 
L 3291 1575 
Q 3719 1147 4025 659 
L 3669 384 
z
" transform="scale(0.015625)"/>
     <path id="IPAexGothic-3a" d="M 1369 2559 
L 672 2559 
L 672 3250 
L 1369 3250 
L 1369 2559 
z
M 1369 63 
L 672 63 
L 672 753 
L 1369 753 
L 1369 63 
z
" transform="scale(0.015625)"/>
     <path id="IPAexGothic-20" transform="scale(0.015625)"/>
     <path id="IPAexGothic-2f" d="M 2719 4709 
L 600 -884 
L 300 -763 
L 2413 4831 
L 2719 4709 
z
" transform="scale(0.015625)"/>
     <path id="IPAexGothic-28" d="M 1928 -1016 
L 1653 -1166 
Q 488 69 488 1875 
Q 488 3678 1653 4909 
L 1928 4763 
Q 1006 3522 1006 1881 
Q 1006 203 1928 -1016 
z
" transform="scale(0.015625)"/>
     <path id="IPAexGothic-54" d="M 3866 4141 
L 2175 4141 
L 2175 63 
L 1606 63 
L 1606 4141 
L -31 4141 
L -31 4634 
L 3866 4634 
L 3866 4141 
z
" transform="scale(0.015625)"/>
     <path id="IPAexGothic-29" d="M 466 4909 
Q 1638 3672 1638 1875 
Q 1638 75 466 -1166 
L 191 -1016 
Q 1119 216 1119 1881 
Q 1119 3509 191 4763 
L 466 4909 
z
" transform="scale(0.015625)"/>
    </defs>
    <use xlink:href="#IPAexGothic-66f4"/>
    <use xlink:href="#IPAexGothic-65b0" x="100"/>
    <use xlink:href="#IPAexGothic-65e5" x="200"/>
    <use xlink:href="#IPAexGothic-6642" x="300"/>
    <use xlink:href="#IPAexGothic-3a" x="400"/>
    <use xlink:href="#IPAexGothic-20" x="431.982422"/>
    <use xlink:href="#IPAexGothic-32" x="458.984375"/>
    <use xlink:href="#IPAexGothic-30" x="521.972656"/>
    <use xlink:href="#IPAexGothic-32" x="584.960938"/>
    <use xlink:href="#IPAexGothic-33" x="647.949219"/>
    <use xlink:href="#IPAexGothic-2f" x="710.9375"/>
    <use xlink:href="#IPAexGothic-30" x="760.9375"/>
    <use xlink:href="#IPAexGothic-32" x="823.925781"/>
    <use xlink:href="#IPAexGothic-2f" x="886.914062"/>
    <use xlink:href="#IPAexGothic-31" x="936.914062"/>
    <use xlink:href="#IPAexGothic-37" x="999.902344"/>
    <use xlink:href="#IPAexGothic-20" x="1062.890625"/>
    <use xlink:href="#IPAexGothic-31" x="1089.892578"/>
    <use xlink:href="#IPAexGothic-36" x="1152.880859"/>
    <use xlink:href="#IPAexGothic-3a" x="1215.869141"/>
    <use xlink:href="#IPAexGothic-31" x="1247.851562"/>
    <use xlink:href="#IPAexGothic-35" x="1310.839844"/>
    <use xlink:href="#IPAexGothic-3a" x="1373.828125"/>
    <use xlink:href="#IPAexGothic-30" x="1405.810547"/>
    <use xlink:href="#IPAexGothic-31" x="1468.798828"/>
    <use xlink:href="#IPAexGothic-28" x="1531.787109"/>
    <use xlink:href="#IPAexGothic-4a" x="1565.087891"/>
    <use xlink:href="#IPAexGothic-53" x="1603.076172"/>
    <use xlink:href="#IPAexGothic-54" x="1661.572266"/>
    <use xlink:href="#IPAexGothic-29" x="1721.484375"/>
   </g>
  </g>
 </g>
 <defs>
  <clipPath id="pa67d216f3d">
   <rect x="29.439063" y="18.879437" width="357.12" height="266.112"/>
  </clipPath>
 </defs>
</svg>
