<?xml version="1.0" encoding="utf-8" standalone="no"?>
<!DOCTYPE svg PUBLIC "-//W3C//DTD SVG 1.1//EN"
  "http://www.w3.org/Graphics/SVG/1.1/DTD/svg11.dtd">
<svg xmlns:xlink="http://www.w3.org/1999/xlink" width="393.759062pt" height="308.582062pt" viewBox="0 0 393.759062 308.582062" xmlns="http://www.w3.org/2000/svg" version="1.1">
 <metadata>
  <rdf:RDF xmlns:dc="http://purl.org/dc/elements/1.1/" xmlns:cc="http://creativecommons.org/ns#" xmlns:rdf="http://www.w3.org/1999/02/22-rdf-syntax-ns#">
   <cc:Work>
    <dc:type rdf:resource="http://purl.org/dc/dcmitype/StillImage"/>
    <dc:date>2023-03-26T07:12:56.773023</dc:date>
    <dc:format>image/svg+xml</dc:format>
    <dc:creator>
     <cc:Agent>
      <dc:title>Matplotlib v3.7.1, https://matplotlib.org/</dc:title>
     </cc:Agent>
    </dc:creator>
   </cc:Work>
  </rdf:RDF>
 </metadata>
 <defs>
  <style type="text/css">*{stroke-linejoin: round; stroke-linecap: butt}</style>
 </defs>
 <g id="figure_1">
  <g id="patch_1">
   <path d="M 0 308.582062 
L 393.759062 308.582062 
L 393.759062 0 
L 0 0 
z
" style="fill: #ffffff"/>
  </g>
  <g id="axes_1">
   <g id="patch_2">
    <path d="M 29.439063 284.991437 
L 386.559062 284.991437 
L 386.559062 18.879437 
L 29.439063 18.879437 
z
" style="fill: #ffffff"/>
   </g>
   <g id="line2d_1">
    <path d="M 29.439063 211.199039 
L 386.559062 211.199039 
" clip-path="url(#p71b2e33224)" style="fill: none; stroke: #000000; stroke-linecap: square"/>
   </g>
   <g id="matplotlib.axis_1">
    <g id="xtick_1">
     <g id="line2d_2">
      <defs>
       <path id="m64aa611f3a" d="M 0 0 
L 0 3.5 
" style="stroke: #000000; stroke-width: 0.8"/>
      </defs>
      <g>
       <use xlink:href="#m64aa611f3a" x="29.439062" y="284.991437" style="stroke: #000000; stroke-width: 0.8"/>
      </g>
     </g>
     <g id="text_1">
      <!-- Jun -->
      <g transform="translate(21.499219 299.482062) scale(0.1 -0.1)">
       <defs>
        <path id="IPAexGothic-4a" d="M 1819 4634 
L 1819 1234 
Q 1819 -31 763 -31 
Q 303 -31 -125 209 
L 84 644 
Q 378 447 694 447 
Q 1250 447 1250 1203 
L 1250 4634 
L 1819 4634 
z
" transform="scale(0.015625)"/>
        <path id="IPAexGothic-75" d="M 3284 63 
L 2772 63 
L 2772 644 
Q 2300 0 1625 0 
Q 1072 0 763 375 
Q 519 678 519 1241 
L 519 3250 
L 1069 3250 
L 1069 1259 
Q 1069 466 1734 466 
Q 2406 466 2734 1291 
L 2734 3250 
L 3284 3250 
L 3284 63 
z
" transform="scale(0.015625)"/>
        <path id="IPAexGothic-6e" d="M 3328 63 
L 2778 63 
L 2778 2041 
Q 2778 2853 2106 2853 
Q 1428 2853 1113 2041 
L 1113 63 
L 563 63 
L 563 3250 
L 1075 3250 
L 1075 2675 
Q 1525 3316 2222 3316 
Q 3328 3316 3328 2072 
L 3328 63 
z
" transform="scale(0.015625)"/>
       </defs>
       <use xlink:href="#IPAexGothic-4a"/>
       <use xlink:href="#IPAexGothic-75" x="37.988281"/>
       <use xlink:href="#IPAexGothic-6e" x="98.388672"/>
      </g>
     </g>
    </g>
    <g id="xtick_2">
     <g id="line2d_3">
      <g>
       <use xlink:href="#m64aa611f3a" x="65.270501" y="284.991437" style="stroke: #000000; stroke-width: 0.8"/>
      </g>
     </g>
     <g id="text_2">
      <!-- Jul -->
      <g transform="translate(59.000969 299.482062) scale(0.1 -0.1)">
       <defs>
        <path id="IPAexGothic-6c" d="M 1131 63 
L 581 63 
L 581 4794 
L 1131 4794 
L 1131 63 
z
" transform="scale(0.015625)"/>
       </defs>
       <use xlink:href="#IPAexGothic-4a"/>
       <use xlink:href="#IPAexGothic-75" x="37.988281"/>
       <use xlink:href="#IPAexGothic-6c" x="98.388672"/>
      </g>
     </g>
    </g>
    <g id="xtick_3">
     <g id="line2d_4">
      <g>
       <use xlink:href="#m64aa611f3a" x="102.29632" y="284.991437" style="stroke: #000000; stroke-width: 0.8"/>
      </g>
     </g>
     <g id="text_3">
      <!-- Aug -->
      <g transform="translate(93.314289 299.42425) scale(0.1 -0.1)">
       <defs>
        <path id="IPAexGothic-41" d="M 4056 63 
L 3444 63 
L 2938 1409 
L 1100 1409 
L 603 63 
L -6 63 
L 1806 4666 
L 2259 4666 
L 4056 63 
z
M 2778 1863 
L 2316 3078 
Q 2125 3588 2028 4000 
L 2009 4000 
Q 1897 3563 1716 3078 
L 1263 1863 
L 2778 1863 
z
" transform="scale(0.015625)"/>
        <path id="IPAexGothic-67" d="M 1331 1150 
Q 1006 1122 1006 900 
Q 1006 613 1763 575 
L 2131 556 
Q 3303 497 3303 -294 
Q 3303 -700 2925 -959 
Q 2519 -1253 1794 -1253 
Q 1138 -1253 738 -1028 
Q 353 -809 353 -428 
Q 353 84 1075 247 
L 1075 269 
Q 506 413 506 778 
Q 506 1116 994 1297 
Q 456 1575 456 2181 
Q 456 2650 769 2963 
Q 1128 3322 1738 3322 
Q 2125 3322 2422 3153 
Q 2650 3453 3259 3463 
L 3259 3013 
Q 2838 3003 2703 2938 
Q 3034 2613 3034 2169 
Q 3034 1728 2734 1425 
Q 2400 1094 1813 1094 
Q 1563 1094 1331 1150 
z
M 1734 2919 
Q 1409 2919 1197 2706 
Q 988 2497 988 2181 
Q 988 1872 1184 1684 
Q 1397 1472 1756 1472 
Q 2094 1472 2297 1678 
Q 2503 1881 2503 2203 
Q 2503 2497 2297 2700 
Q 2081 2919 1734 2919 
z
M 1753 159 
Q 903 159 903 -366 
Q 903 -875 1800 -875 
Q 2378 -875 2638 -606 
Q 2772 -481 2772 -313 
Q 2772 159 1753 159 
z
" transform="scale(0.015625)"/>
       </defs>
       <use xlink:href="#IPAexGothic-41"/>
       <use xlink:href="#IPAexGothic-75" x="63.720703"/>
       <use xlink:href="#IPAexGothic-67" x="124.121094"/>
      </g>
     </g>
    </g>
    <g id="xtick_4">
     <g id="line2d_5">
      <g>
       <use xlink:href="#m64aa611f3a" x="139.322139" y="284.991437" style="stroke: #000000; stroke-width: 0.8"/>
      </g>
     </g>
     <g id="text_4">
      <!-- Sep -->
      <g transform="translate(130.447139 299.482062) scale(0.1 -0.1)">
       <defs>
        <path id="IPAexGothic-53" d="M 2919 3641 
Q 2563 4259 1853 4259 
Q 1453 4259 1213 4009 
Q 1028 3803 1028 3534 
Q 1028 3238 1266 3047 
Q 1444 2913 1984 2688 
L 2200 2597 
Q 2925 2306 3191 1953 
Q 3422 1644 3422 1259 
Q 3422 644 2969 288 
Q 2559 -31 1931 -31 
Q 881 -31 313 766 
L 753 1100 
Q 1203 459 1938 459 
Q 2288 459 2534 625 
Q 2841 847 2841 1216 
Q 2841 1503 2616 1728 
Q 2375 1959 1728 2206 
L 1541 2278 
Q 453 2694 453 3481 
Q 453 4006 806 4347 
Q 1203 4725 1863 4725 
Q 2841 4725 3359 3956 
L 2919 3641 
z
" transform="scale(0.015625)"/>
        <path id="IPAexGothic-65" d="M 863 1594 
Q 891 1041 1209 722 
Q 1534 397 1997 397 
Q 2606 397 2963 966 
L 3322 728 
Q 2869 -31 1931 -31 
Q 1222 -31 766 422 
Q 306 884 306 1641 
Q 306 2444 788 2925 
Q 1216 3353 1856 3353 
Q 2459 3353 2866 2956 
Q 3322 2494 3322 1722 
L 3322 1594 
L 863 1594 
z
M 2756 1997 
Q 2709 2431 2450 2681 
Q 2194 2938 1844 2938 
Q 1438 2938 1150 2591 
Q 953 2356 894 1997 
L 2756 1997 
z
" transform="scale(0.015625)"/>
        <path id="IPAexGothic-70" d="M 1075 2688 
Q 1525 3341 2206 3341 
Q 2769 3341 3172 2938 
Q 3641 2469 3641 1644 
Q 3641 841 3178 372 
Q 2775 -31 2200 -31 
Q 1569 -31 1106 497 
L 1106 -1216 
L 563 -1216 
L 563 3250 
L 1075 3250 
L 1075 2688 
z
M 1106 1950 
L 1106 1291 
Q 1106 897 1516 600 
Q 1791 403 2106 403 
Q 2469 403 2725 659 
Q 3066 997 3066 1631 
Q 3066 2200 2784 2559 
Q 2503 2900 2100 2900 
Q 1656 2900 1338 2484 
Q 1106 2184 1106 1950 
z
" transform="scale(0.015625)"/>
       </defs>
       <use xlink:href="#IPAexGothic-53"/>
       <use xlink:href="#IPAexGothic-65" x="58.496094"/>
       <use xlink:href="#IPAexGothic-70" x="115.380859"/>
      </g>
     </g>
    </g>
    <g id="xtick_5">
     <g id="line2d_6">
      <g>
       <use xlink:href="#m64aa611f3a" x="175.153578" y="284.991437" style="stroke: #000000; stroke-width: 0.8"/>
      </g>
     </g>
     <g id="text_5">
      <!-- Oct -->
      <g transform="translate(166.718421 299.482062) scale(0.1 -0.1)">
       <defs>
        <path id="IPAexGothic-4f" d="M 2541 4725 
Q 3456 4725 4044 4138 
Q 4709 3472 4709 2331 
Q 4709 1219 4031 550 
Q 3450 -31 2541 -31 
Q 1638 -31 1056 550 
Q 378 1219 378 2356 
Q 378 3469 1044 4138 
Q 1631 4725 2541 4725 
z
M 2541 4266 
Q 1953 4266 1531 3844 
Q 994 3303 994 2350 
Q 994 1391 1531 863 
Q 1947 447 2541 447 
Q 3131 447 3556 863 
Q 4094 1400 4094 2375 
Q 4094 3297 3550 3844 
Q 3138 4266 2541 4266 
z
" transform="scale(0.015625)"/>
        <path id="IPAexGothic-63" d="M 3269 784 
Q 2834 -31 1900 -31 
Q 1228 -31 788 409 
Q 313 891 313 1663 
Q 313 2428 788 2913 
Q 1222 3347 1881 3347 
Q 2813 3347 3206 2541 
L 2763 2309 
Q 2484 2900 1900 2900 
Q 1516 2900 1234 2619 
Q 881 2266 881 1650 
Q 881 1069 1222 728 
Q 1522 428 1956 428 
Q 2547 428 2847 1016 
L 3269 784 
z
" transform="scale(0.015625)"/>
        <path id="IPAexGothic-74" d="M 2125 241 
Q 1769 -6 1397 -6 
Q 653 -6 653 831 
L 653 2859 
L 219 2859 
L 219 3250 
L 653 3250 
L 653 3966 
L 1178 4228 
L 1178 3250 
L 2063 3250 
L 2063 2859 
L 1178 2859 
L 1178 906 
Q 1178 416 1513 416 
Q 1738 416 1941 588 
L 2125 241 
z
" transform="scale(0.015625)"/>
       </defs>
       <use xlink:href="#IPAexGothic-4f"/>
       <use xlink:href="#IPAexGothic-63" x="79.6875"/>
       <use xlink:href="#IPAexGothic-74" x="134.082031"/>
      </g>
     </g>
    </g>
    <g id="xtick_6">
     <g id="line2d_7">
      <g>
       <use xlink:href="#m64aa611f3a" x="212.179397" y="284.991437" style="stroke: #000000; stroke-width: 0.8"/>
      </g>
     </g>
     <g id="text_6">
      <!-- Nov -->
      <g transform="translate(202.930959 299.482062) scale(0.1 -0.1)">
       <defs>
        <path id="IPAexGothic-4e" d="M 4244 63 
L 3731 63 
L 1697 3150 
Q 1466 3500 1141 4097 
L 1116 4097 
L 1128 3797 
Q 1159 2803 1159 2469 
L 1159 63 
L 609 63 
L 609 4634 
L 1366 4634 
L 3113 1978 
Q 3453 1447 3713 966 
L 3738 966 
Q 3694 1897 3694 2469 
L 3694 4634 
L 4244 4634 
L 4244 63 
z
" transform="scale(0.015625)"/>
        <path id="IPAexGothic-6f" d="M 1919 3341 
Q 2594 3341 3056 2888 
Q 3531 2413 3531 1638 
Q 3531 888 3066 422 
Q 2609 -31 1919 -31 
Q 1228 -31 781 416 
Q 313 881 313 1656 
Q 313 2413 788 2888 
Q 1241 3341 1919 3341 
z
M 1919 2919 
Q 1519 2919 1241 2631 
Q 888 2278 888 1650 
Q 888 1031 1234 684 
Q 1516 403 1919 403 
Q 2331 403 2609 691 
Q 2956 1038 2956 1672 
Q 2956 2269 2603 2631 
Q 2316 2919 1919 2919 
z
" transform="scale(0.015625)"/>
        <path id="IPAexGothic-76" d="M 3103 3250 
L 1747 6 
L 1375 6 
L 25 3250 
L 628 3250 
L 1338 1388 
L 1522 844 
L 1569 703 
L 1588 703 
Q 1641 884 1822 1388 
L 2516 3250 
L 3103 3250 
z
" transform="scale(0.015625)"/>
       </defs>
       <use xlink:href="#IPAexGothic-4e"/>
       <use xlink:href="#IPAexGothic-6f" x="75.976562"/>
       <use xlink:href="#IPAexGothic-76" x="136.376953"/>
      </g>
     </g>
    </g>
    <g id="xtick_7">
     <g id="line2d_8">
      <g>
       <use xlink:href="#m64aa611f3a" x="248.010835" y="284.991437" style="stroke: #000000; stroke-width: 0.8"/>
      </g>
     </g>
     <g id="text_7">
      <!-- Dec -->
      <g transform="translate(238.662398 299.482062) scale(0.1 -0.1)">
       <defs>
        <path id="IPAexGothic-44" d="M 609 4634 
L 1984 4634 
Q 3159 4634 3791 4050 
Q 4456 3444 4456 2356 
Q 4456 1047 3516 441 
Q 2925 63 1941 63 
L 609 63 
L 609 4634 
z
M 1172 556 
L 1894 556 
Q 3853 556 3853 2356 
Q 3853 4147 1928 4147 
L 1172 4147 
L 1172 556 
z
" transform="scale(0.015625)"/>
       </defs>
       <use xlink:href="#IPAexGothic-44"/>
       <use xlink:href="#IPAexGothic-65" x="75.683594"/>
       <use xlink:href="#IPAexGothic-63" x="132.568359"/>
      </g>
     </g>
    </g>
    <g id="xtick_8">
     <g id="line2d_9">
      <g>
       <use xlink:href="#m64aa611f3a" x="285.036654" y="284.991437" style="stroke: #000000; stroke-width: 0.8"/>
      </g>
     </g>
     <g id="text_8">
      <!-- 2023 -->
      <g transform="translate(272.439779 299.482062) scale(0.1 -0.1)">
       <defs>
        <path id="IPAexGothic-32" d="M 3659 63 
L 447 63 
L 447 594 
Q 825 1475 1894 2203 
L 2072 2322 
Q 2619 2697 2791 2906 
Q 2988 3153 2988 3444 
Q 2988 3772 2756 4003 
Q 2500 4259 2084 4259 
Q 1250 4259 991 3328 
L 497 3506 
Q 853 4725 2116 4725 
Q 2806 4725 3216 4316 
Q 3575 3947 3575 3425 
Q 3575 3038 3344 2722 
Q 3131 2416 2366 1938 
L 2231 1856 
Q 1256 1253 978 569 
L 3659 569 
L 3659 63 
z
" transform="scale(0.015625)"/>
        <path id="IPAexGothic-30" d="M 2038 4725 
Q 2881 4725 3334 3944 
Q 3694 3325 3694 2344 
Q 3694 1372 3334 741 
Q 2888 -31 2016 -31 
Q 1147 -31 700 741 
Q 341 1372 341 2350 
Q 341 3713 1000 4334 
Q 1419 4725 2038 4725 
z
M 2016 4266 
Q 1516 4266 1228 3759 
Q 934 3247 934 2344 
Q 934 1456 1222 947 
Q 1513 447 2016 447 
Q 2619 447 2909 1153 
Q 3100 1622 3100 2375 
Q 3100 3256 2806 3759 
Q 2509 4266 2016 4266 
z
" transform="scale(0.015625)"/>
        <path id="IPAexGothic-33" d="M 2381 2419 
Q 3506 2216 3506 1278 
Q 3506 716 3128 356 
Q 2709 -31 1944 -31 
Q 797 -31 288 881 
L 756 1131 
Q 1109 441 1938 441 
Q 2425 441 2694 691 
Q 2950 928 2950 1291 
Q 2950 1719 2566 1978 
Q 2216 2213 1644 2213 
L 1363 2213 
L 1363 2669 
L 1656 2669 
Q 2231 2669 2534 2888 
Q 2859 3119 2859 3509 
Q 2859 3934 2494 4138 
Q 2259 4278 1931 4278 
Q 1238 4278 903 3578 
L 434 3803 
Q 897 4725 1938 4725 
Q 2597 4725 3006 4394 
Q 3416 4069 3416 3534 
Q 3416 3028 3019 2706 
Q 2763 2500 2381 2444 
L 2381 2419 
z
" transform="scale(0.015625)"/>
       </defs>
       <use xlink:href="#IPAexGothic-32"/>
       <use xlink:href="#IPAexGothic-30" x="62.988281"/>
       <use xlink:href="#IPAexGothic-32" x="125.976562"/>
       <use xlink:href="#IPAexGothic-33" x="188.964844"/>
      </g>
     </g>
    </g>
    <g id="xtick_9">
     <g id="line2d_10">
      <g>
       <use xlink:href="#m64aa611f3a" x="322.062474" y="284.991437" style="stroke: #000000; stroke-width: 0.8"/>
      </g>
     </g>
     <g id="text_9">
      <!-- Feb -->
      <g transform="translate(313.239036 299.482062) scale(0.1 -0.1)">
       <defs>
        <path id="IPAexGothic-46" d="M 3469 4141 
L 1172 4141 
L 1172 2656 
L 3206 2656 
L 3206 2188 
L 1172 2188 
L 1172 63 
L 609 63 
L 609 4634 
L 3469 4634 
L 3469 4141 
z
" transform="scale(0.015625)"/>
        <path id="IPAexGothic-62" d="M 1125 2731 
Q 1550 3341 2219 3341 
Q 2788 3341 3191 2938 
Q 3659 2469 3659 1644 
Q 3659 838 3191 372 
Q 2788 -31 2206 -31 
Q 1559 -31 1088 516 
L 1009 44 
L 581 44 
L 581 4794 
L 1125 4794 
L 1125 2731 
z
M 1125 1997 
L 1125 1253 
Q 1125 888 1528 600 
Q 1803 403 2119 403 
Q 2488 403 2744 659 
Q 3084 1009 3084 1631 
Q 3084 2194 2803 2553 
Q 2525 2900 2125 2900 
Q 1759 2900 1438 2578 
Q 1125 2266 1125 1997 
z
" transform="scale(0.015625)"/>
       </defs>
       <use xlink:href="#IPAexGothic-46"/>
       <use xlink:href="#IPAexGothic-65" x="57.177734"/>
       <use xlink:href="#IPAexGothic-62" x="114.0625"/>
      </g>
     </g>
    </g>
    <g id="xtick_10">
     <g id="line2d_11">
      <g>
       <use xlink:href="#m64aa611f3a" x="355.505149" y="284.991437" style="stroke: #000000; stroke-width: 0.8"/>
      </g>
     </g>
     <g id="text_10">
      <!-- Mar -->
      <g transform="translate(346.395774 299.482062) scale(0.1 -0.1)">
       <defs>
        <path id="IPAexGothic-4d" d="M 5147 63 
L 4597 63 
L 4597 2534 
Q 4597 3281 4634 4134 
L 4609 4134 
Q 4356 3409 4066 2675 
L 3066 209 
L 2650 209 
L 1641 2725 
Q 1328 3506 1128 4141 
L 1103 4141 
Q 1141 3131 1141 2553 
L 1141 63 
L 609 63 
L 609 4634 
L 1416 4634 
L 2503 1944 
Q 2697 1472 2869 906 
L 2888 906 
Q 3028 1416 3234 1931 
L 4316 4634 
L 5147 4634 
L 5147 63 
z
" transform="scale(0.015625)"/>
        <path id="IPAexGothic-61" d="M 3156 63 
L 2672 63 
Q 2559 303 2531 556 
L 2509 556 
Q 2147 -25 1428 -25 
Q 934 -25 622 288 
Q 347 563 347 959 
Q 347 1947 2050 1997 
L 2478 2009 
L 2478 2175 
Q 2478 2509 2288 2700 
Q 2088 2900 1775 2900 
Q 1238 2900 969 2378 
L 494 2597 
Q 938 3328 1788 3328 
Q 2375 3328 2691 3000 
Q 2984 2706 2984 2169 
L 2984 997 
Q 2984 400 3156 63 
z
M 2491 1625 
L 2141 1619 
Q 903 1591 903 953 
Q 903 728 1050 581 
Q 1231 403 1525 403 
Q 1934 403 2234 703 
Q 2491 969 2491 1344 
L 2491 1625 
z
" transform="scale(0.015625)"/>
        <path id="IPAexGothic-72" d="M 2309 3316 
L 2213 2769 
Q 2106 2791 2022 2791 
Q 1653 2791 1413 2444 
Q 1113 2006 1113 1675 
L 1113 63 
L 563 63 
L 563 3250 
L 1081 3250 
L 1056 2303 
L 1069 2303 
Q 1422 3341 2097 3341 
Q 2206 3341 2309 3316 
z
" transform="scale(0.015625)"/>
       </defs>
       <use xlink:href="#IPAexGothic-4d"/>
       <use xlink:href="#IPAexGothic-61" x="90.185547"/>
       <use xlink:href="#IPAexGothic-72" x="145.166016"/>
      </g>
     </g>
    </g>
   </g>
   <g id="matplotlib.axis_2">
    <g id="ytick_1">
     <g id="line2d_12">
      <defs>
       <path id="m0617c9cd0b" d="M 0 0 
L -3.5 0 
" style="stroke: #000000; stroke-width: 0.8"/>
      </defs>
      <g>
       <use xlink:href="#m0617c9cd0b" x="29.439063" y="269.014637" style="stroke: #000000; stroke-width: 0.8"/>
      </g>
     </g>
     <g id="text_11">
      <!-- 0.5 -->
      <g transform="translate(7.2 272.759949) scale(0.1 -0.1)">
       <defs>
        <path id="IPAexGothic-2e" d="M 1184 63 
L 494 63 
L 494 753 
L 1184 753 
L 1184 63 
z
" transform="scale(0.015625)"/>
        <path id="IPAexGothic-35" d="M 1178 2603 
Q 1634 2963 2172 2963 
Q 2816 2963 3241 2528 
Q 3638 2113 3638 1497 
Q 3638 938 3297 513 
Q 2869 -31 2031 -31 
Q 959 -31 469 784 
L 938 1028 
Q 1309 434 2013 434 
Q 2466 434 2769 716 
Q 3081 1013 3081 1503 
Q 3081 1966 2806 2241 
Q 2519 2528 2056 2528 
Q 1406 2528 1072 2028 
L 591 2091 
L 884 4634 
L 3406 4634 
L 3406 4153 
L 1341 4153 
L 1134 2603 
L 1178 2603 
z
" transform="scale(0.015625)"/>
       </defs>
       <use xlink:href="#IPAexGothic-30"/>
       <use xlink:href="#IPAexGothic-2e" x="62.988281"/>
       <use xlink:href="#IPAexGothic-35" x="89.404297"/>
      </g>
     </g>
    </g>
    <g id="ytick_2">
     <g id="line2d_13">
      <g>
       <use xlink:href="#m0617c9cd0b" x="29.439063" y="211.199039" style="stroke: #000000; stroke-width: 0.8"/>
      </g>
     </g>
     <g id="text_12">
      <!-- 1.0 -->
      <g transform="translate(7.2 214.944352) scale(0.1 -0.1)">
       <defs>
        <path id="IPAexGothic-31" d="M 2463 63 
L 1900 63 
L 1900 4103 
Q 1372 3922 788 3797 
L 684 4231 
Q 1519 4441 2106 4731 
L 2463 4731 
L 2463 63 
z
" transform="scale(0.015625)"/>
       </defs>
       <use xlink:href="#IPAexGothic-31"/>
       <use xlink:href="#IPAexGothic-2e" x="62.988281"/>
       <use xlink:href="#IPAexGothic-30" x="89.404297"/>
      </g>
     </g>
    </g>
    <g id="ytick_3">
     <g id="line2d_14">
      <g>
       <use xlink:href="#m0617c9cd0b" x="29.439063" y="153.383442" style="stroke: #000000; stroke-width: 0.8"/>
      </g>
     </g>
     <g id="text_13">
      <!-- 1.5 -->
      <g transform="translate(7.2 157.128754) scale(0.1 -0.1)">
       <use xlink:href="#IPAexGothic-31"/>
       <use xlink:href="#IPAexGothic-2e" x="62.988281"/>
       <use xlink:href="#IPAexGothic-35" x="89.404297"/>
      </g>
     </g>
    </g>
    <g id="ytick_4">
     <g id="line2d_15">
      <g>
       <use xlink:href="#m0617c9cd0b" x="29.439063" y="95.567844" style="stroke: #000000; stroke-width: 0.8"/>
      </g>
     </g>
     <g id="text_14">
      <!-- 2.0 -->
      <g transform="translate(7.2 99.313157) scale(0.1 -0.1)">
       <use xlink:href="#IPAexGothic-32"/>
       <use xlink:href="#IPAexGothic-2e" x="62.988281"/>
       <use xlink:href="#IPAexGothic-30" x="89.404297"/>
      </g>
     </g>
    </g>
    <g id="ytick_5">
     <g id="line2d_16">
      <g>
       <use xlink:href="#m0617c9cd0b" x="29.439063" y="37.752247" style="stroke: #000000; stroke-width: 0.8"/>
      </g>
     </g>
     <g id="text_15">
      <!-- 2.5 -->
      <g transform="translate(7.2 41.497559) scale(0.1 -0.1)">
       <use xlink:href="#IPAexGothic-32"/>
       <use xlink:href="#IPAexGothic-2e" x="62.988281"/>
       <use xlink:href="#IPAexGothic-35" x="89.404297"/>
      </g>
     </g>
    </g>
   </g>
   <g id="line2d_17">
    <path d="M 29.439062 227.411867 
L 30.633444 255.471758 
L 31.827825 269.405805 
L 33.022206 242.945807 
L 34.216588 262.441258 
L 36.60535 251.639145 
L 37.799731 227.514621 
L 38.994113 229.940841 
L 40.188494 194.078383 
L 41.382875 246.403784 
L 42.577256 250.411663 
L 43.771638 205.84664 
L 44.966019 249.191321 
L 46.1604 272.895437 
L 47.354782 243.090535 
L 48.549163 247.559579 
L 49.743544 238.429093 
L 50.937925 112.810292 
L 52.132307 184.323192 
L 53.326688 181.498781 
L 54.521069 30.975437 
L 56.909832 168.571026 
L 58.104213 110.868109 
L 59.298594 213.126183 
L 60.492976 156.293505 
L 61.687357 124.518024 
L 62.881738 151.875457 
L 64.076119 236.751655 
L 65.270501 106.655378 
L 66.464882 51.387485 
L 67.659263 102.788184 
L 68.853644 95.926279 
L 70.048026 36.542983 
L 71.242407 79.37836 
L 72.436788 35.439549 
L 73.63117 110.396771 
L 74.825551 116.980214 
L 76.019932 109.726148 
L 77.214313 177.160719 
L 78.408695 110.814502 
L 79.603076 153.702013 
L 80.797457 148.460822 
L 81.991838 164.812112 
L 83.18622 190.526245 
L 84.380601 181.526351 
L 85.574982 197.096587 
L 86.769364 219.976945 
L 87.963745 163.710275 
L 89.158126 173.022011 
L 90.352507 196.817697 
L 91.546889 179.527296 
L 92.74127 191.661352 
L 93.935651 192.887858 
L 95.130032 173.15897 
L 96.324414 188.50237 
L 97.518795 201.809366 
L 98.713176 195.197746 
L 99.907557 183.412435 
L 101.101939 192.046725 
L 102.29632 204.737627 
L 103.490701 199.025674 
L 104.685083 189.016626 
L 105.879464 185.809755 
L 107.073845 182.941981 
L 108.268226 200.02008 
L 109.462608 192.032303 
L 110.656989 181.775482 
L 111.85137 186.871327 
L 113.045751 193.9839 
L 114.240133 204.601463 
L 115.434514 225.669065 
L 116.628895 207.989558 
L 117.823277 218.057369 
L 119.017658 204.232725 
L 120.212039 217.282458 
L 121.40642 202.720535 
L 122.600802 195.141529 
L 123.795183 153.461242 
L 124.989564 171.531238 
L 126.183945 185.828914 
L 127.378327 204.950127 
L 128.572708 187.736367 
L 129.767089 211.671324 
L 130.961471 216.92144 
L 132.155852 231.587854 
L 133.350233 248.509599 
L 134.544614 240.826108 
L 135.738996 241.29957 
L 136.933377 247.072575 
L 138.127758 251.367839 
L 139.322139 251.669425 
L 140.516521 251.785215 
L 141.710902 242.900107 
L 142.905283 251.663262 
L 144.099665 241.186243 
L 145.294046 228.929625 
L 146.488427 240.670472 
L 147.682808 239.689961 
L 148.87719 228.587222 
L 150.071571 234.114512 
L 151.265952 220.053728 
L 152.460333 221.634093 
L 153.654715 247.789493 
L 154.849096 250.578039 
L 156.043477 230.847867 
L 157.237858 240.571341 
L 158.43224 229.667605 
L 159.626621 228.965012 
L 160.821002 226.507 
L 162.015384 266.267581 
L 163.209765 173.994674 
L 164.404146 228.352097 
L 165.598527 212.968149 
L 166.792909 243.863512 
L 167.98729 195.951487 
L 169.181671 187.500784 
L 170.376052 195.32975 
L 171.570434 238.855842 
L 172.764815 224.563828 
L 173.959196 239.674853 
L 175.153578 205.067187 
L 176.347959 219.657973 
L 177.54234 258.893645 
L 178.736721 189.095647 
L 179.931103 231.988543 
L 181.125484 230.452082 
L 182.319865 208.848889 
L 183.514246 214.413367 
L 184.708628 237.774657 
L 185.903009 208.216448 
L 187.09739 269.328924 
L 188.291772 186.857034 
L 189.486153 168.652783 
L 190.680534 211.199039 
L 191.874915 197.903063 
L 193.069297 190.42842 
L 194.263678 209.746404 
L 195.458059 135.123595 
L 196.65244 212.926136 
L 197.846822 239.34414 
L 199.041203 184.631705 
L 200.235584 193.892671 
L 201.429966 220.351516 
L 202.624347 197.002011 
L 203.818728 191.634272 
L 205.013109 213.253557 
L 206.207491 183.049443 
L 207.401872 199.198481 
L 208.596253 190.346771 
L 209.790634 160.309806 
L 210.985016 189.784075 
L 212.179397 198.104074 
L 213.373778 152.110827 
L 214.568159 152.9204 
L 215.762541 232.748365 
L 216.956922 165.024121 
L 218.151303 194.085734 
L 219.345685 199.838398 
L 220.540066 173.564927 
L 221.734447 209.205445 
L 222.928828 206.690562 
L 224.12321 156.249641 
L 225.317591 220.402577 
L 226.511972 215.284532 
L 227.706353 225.924092 
L 228.900735 188.099011 
L 230.095116 185.511636 
L 231.289497 211.199039 
L 232.483879 194.160213 
L 233.67826 184.55213 
L 234.872641 182.799057 
L 237.261404 203.930102 
L 238.455785 168.757197 
L 239.650166 220.491359 
L 240.844547 171.577359 
L 243.23331 192.11637 
L 244.427691 204.402838 
L 245.622073 198.987955 
L 246.816454 181.777237 
L 248.010835 142.696764 
L 249.205216 213.580923 
L 250.399598 220.529523 
L 251.593979 204.080643 
L 252.78836 205.292279 
L 253.982741 181.962456 
L 255.177123 194.793532 
L 256.371504 197.432704 
L 257.565885 173.295964 
L 258.760267 175.045451 
L 259.954648 167.16196 
L 261.149029 187.120934 
L 262.34341 183.834422 
L 263.537792 173.778001 
L 264.732173 181.23856 
L 265.926554 201.020413 
L 267.120935 187.828789 
L 268.315317 213.66936 
L 269.509698 207.768569 
L 270.704079 207.295129 
L 271.89846 192.832229 
L 273.092842 206.958159 
L 274.287223 188.728128 
L 275.481604 193.851266 
L 276.675986 207.103197 
L 277.870367 215.224404 
L 279.064748 196.113595 
L 280.259129 220.91992 
L 281.453511 200.04709 
L 282.647892 223.444191 
L 283.842273 251.024981 
L 285.036654 228.180558 
L 286.231036 208.755181 
L 287.425417 251.311193 
L 288.619798 254.432046 
L 289.81418 215.74342 
L 291.008561 126.299141 
L 292.202942 90.185267 
L 293.397323 169.01121 
L 294.591705 202.233317 
L 295.786086 208.810336 
L 296.980467 167.736099 
L 298.174848 215.685286 
L 299.36923 255.304956 
L 300.563611 257.151057 
L 301.757992 241.910597 
L 302.952374 230.363911 
L 304.146755 201.639485 
L 305.341136 252.591109 
L 306.535517 261.202922 
L 307.729899 248.191392 
L 308.92428 245.888016 
L 310.118661 248.528538 
L 311.313042 233.937612 
L 312.507424 243.873594 
L 313.701805 245.699396 
L 314.896186 238.379427 
L 316.090568 250.421781 
L 317.284949 242.025158 
L 318.47933 235.679743 
L 319.673711 231.977605 
L 320.868093 268.725993 
L 322.062474 251.010186 
L 323.256855 243.44844 
L 324.451236 231.173865 
L 325.645618 246.470516 
L 326.839999 240.806074 
L 328.03438 205.729567 
L 329.228761 216.74151 
L 330.423143 221.239134 
L 331.617524 222.049942 
L 332.811905 236.243828 
L 334.006287 216.587974 
L 335.200668 250.056764 
L 336.395049 220.887451 
L 337.58943 228.799652 
L 338.783812 253.712581 
L 339.978193 218.850978 
L 341.172574 215.357996 
L 342.366955 237.280047 
L 343.561337 193.27922 
L 344.755718 224.105076 
L 345.950099 238.379537 
L 347.144481 241.772305 
L 348.338862 251.269511 
L 349.533243 255.03236 
L 351.922006 237.065956 
L 353.116387 226.130001 
L 354.310768 244.38679 
L 355.505149 206.157732 
L 356.699531 233.765533 
L 357.893912 159.336552 
L 359.088293 185.327724 
L 360.282675 214.962751 
L 361.477056 217.21233 
L 362.671437 183.217935 
L 363.865818 224.645526 
L 365.0602 214.214028 
L 366.254581 235.628575 
L 367.448962 247.936648 
L 368.643343 239.212375 
L 369.837725 229.20156 
L 371.032106 240.777423 
L 372.226487 253.457905 
L 373.420869 223.82357 
L 374.61525 230.110703 
L 375.809631 231.751414 
L 377.004012 221.724925 
L 378.198394 218.438731 
L 379.392775 196.729311 
L 380.587156 269.644947 
L 381.781537 186.805833 
L 382.975919 151.469654 
L 384.1703 195.417302 
L 385.364681 184.717511 
L 385.364681 184.717511 
" clip-path="url(#p71b2e33224)" style="fill: none; stroke: #1f77b4; stroke-width: 1.5; stroke-linecap: square"/>
   </g>
   <g id="line2d_18">
    <path d="M 29.439062 230.929789 
L 30.633444 242.60231 
L 31.827825 262.8168 
L 33.022206 257.425513 
L 34.216588 253.337157 
L 35.410969 259.836211 
L 36.60535 254.434415 
L 37.799731 240.414674 
L 38.994113 228.735232 
L 40.188494 213.41839 
L 41.382875 223.501825 
L 42.577256 248.433331 
L 43.771638 230.677266 
L 44.966019 229.912564 
L 46.1604 262.11981 
L 47.354782 259.625445 
L 48.549163 245.355694 
L 49.743544 243.118728 
L 50.937925 189.281671 
L 52.132307 152.189606 
L 53.326688 182.917915 
L 54.521069 119.473036 
L 55.71545 68.196709 
L 56.909832 137.669929 
L 58.104213 141.957318 
L 59.298594 170.127431 
L 60.492976 187.579679 
L 61.687357 141.084002 
L 62.881738 138.693349 
L 64.076119 201.292679 
L 65.270501 186.000414 
L 66.464882 80.567026 
L 67.659263 78.413733 
L 68.853644 99.383107 
L 70.048026 67.931655 
L 71.242407 58.815077 
L 72.436788 58.306173 
L 73.63117 75.699401 
L 74.825551 113.713912 
L 76.019932 113.383995 
L 77.214313 146.569691 
L 78.408695 147.022086 
L 79.603076 133.443524 
L 80.797457 151.100956 
L 81.991838 156.832948 
L 83.18622 178.224324 
L 84.380601 186.098223 
L 85.574982 189.532009 
L 86.769364 209.091256 
L 87.963745 194.807872 
L 89.158126 168.434555 
L 90.352507 185.419494 
L 91.546889 188.44227 
L 92.74127 185.724694 
L 93.935651 192.276003 
L 95.130032 183.362139 
L 96.324414 181.032368 
L 97.518795 195.324076 
L 98.713176 198.546144 
L 99.907557 189.431392 
L 101.101939 187.79659 
L 102.29632 198.54902 
L 103.490701 201.914295 
L 104.685083 194.115474 
L 105.879464 187.422411 
L 107.073845 184.383085 
L 108.268226 191.750659 
L 109.462608 196.087179 
L 110.656989 186.997904 
L 111.85137 184.346184 
L 113.045751 190.473981 
L 114.240133 199.403219 
L 115.434514 215.633088 
L 116.628895 217.185071 
L 117.823277 213.134848 
L 119.017658 211.351742 
L 120.212039 210.94113 
L 121.40642 210.228598 
L 122.600802 198.987184 
L 123.795183 175.731796 
L 124.989564 162.744798 
L 127.378327 195.737687 
L 128.572708 196.62741 
L 129.767089 200.268399 
L 130.961471 214.327003 
L 132.155852 224.517111 
L 133.350233 240.462163 
L 134.544614 244.757718 
L 135.738996 241.063165 
L 136.933377 244.236496 
L 138.127758 249.249927 
L 139.322139 251.518783 
L 140.516521 251.727342 
L 141.710902 247.466905 
L 142.905283 247.402446 
L 144.099665 246.595581 
L 145.294046 235.262778 
L 146.488427 234.987471 
L 147.682808 240.181603 
L 148.87719 234.304978 
L 150.071571 231.390872 
L 151.265952 227.332189 
L 152.460333 220.846856 
L 154.849096 249.196285 
L 156.043477 241.279862 
L 157.237858 235.839395 
L 158.43224 235.281663 
L 159.626621 229.316941 
L 160.821002 227.743627 
L 162.015384 248.882551 
L 163.209765 230.621466 
L 164.404146 204.147875 
L 165.598527 220.93913 
L 166.792909 229.635769 
L 167.98729 222.625721 
L 169.181671 191.792225 
L 170.376052 191.471858 
L 171.570434 219.272458 
L 172.764815 231.97864 
L 173.959196 232.42119 
L 175.153578 223.814193 
L 176.347959 212.595296 
L 177.54234 241.501939 
L 178.736721 230.097519 
L 179.931103 212.536835 
L 181.125484 231.223399 
L 182.319865 220.196168 
L 183.514246 211.66473 
L 184.708628 226.773505 
L 185.903009 224.052711 
L 187.09739 244.24423 
L 188.291772 237.116008 
L 189.486153 178.033043 
L 191.874915 204.731901 
L 193.069297 194.218394 
L 194.263678 200.456001 
L 195.458059 177.011185 
L 196.65244 179.059561 
L 197.846822 227.005264 
L 199.041203 215.29372 
L 200.235584 189.34014 
L 201.429966 207.855357 
L 202.624347 209.25497 
L 203.818728 194.345323 
L 205.013109 202.914504 
L 206.207491 199.04078 
L 207.401872 191.364392 
L 208.596253 194.846812 
L 209.790634 176.074523 
L 210.985016 175.764073 
L 212.179397 194.009205 
L 213.373778 176.860376 
L 214.568159 152.516084 
L 215.762541 198.91713 
L 216.956922 203.448625 
L 218.151303 180.273516 
L 219.345685 196.993923 
L 220.540066 187.318791 
L 221.734447 192.562593 
L 222.928828 207.954654 
L 224.12321 183.674736 
L 225.317591 192.091624 
L 226.511972 217.873602 
L 227.706353 220.737602 
L 228.900735 208.513572 
L 230.095116 186.8113 
L 231.289497 198.998945 
L 232.483879 202.972279 
L 233.67826 189.440136 
L 234.872641 183.678277 
L 236.067022 188.335204 
L 237.261404 198.897374 
L 238.455785 187.448754 
L 239.650166 197.179515 
L 240.844547 198.341262 
L 242.038929 176.894581 
L 243.23331 187.16406 
L 244.427691 198.406453 
L 245.622073 201.724689 
L 246.816454 190.654224 
L 248.010835 163.401008 
L 249.205216 182.424595 
L 250.399598 217.110216 
L 251.593979 212.600777 
L 252.78836 204.687964 
L 253.982741 194.139114 
L 255.177123 188.526714 
L 256.371504 196.119779 
L 257.565885 185.880047 
L 258.760267 174.173214 
L 259.954648 171.1536 
L 261.149029 177.474475 
L 262.34341 185.48723 
L 263.537792 178.891638 
L 264.732173 177.554882 
L 265.926554 191.49043 
L 267.120935 194.588989 
L 268.315317 201.412831 
L 269.509698 210.756455 
L 270.704079 207.532084 
L 271.89846 200.270107 
L 273.092842 200.091846 
L 274.287223 198.165608 
L 275.481604 191.313905 
L 276.675986 200.651084 
L 277.870367 211.235099 
L 279.064748 206.046382 
L 280.259129 209.168684 
L 281.453511 210.952529 
L 282.647892 212.341773 
L 283.842273 238.302243 
L 285.036654 240.353858 
L 286.231036 218.904029 
L 287.425417 232.400817 
L 288.619798 252.888083 
L 289.81418 237.150337 
L 291.008561 177.577562 
L 292.202942 108.989297 
L 293.397323 133.576313 
L 294.591705 186.602691 
L 295.786086 205.566408 
L 296.980467 189.803691 
L 298.174848 193.854637 
L 299.36923 237.669294 
L 300.563611 256.234041 
L 301.757992 249.907348 
L 302.952374 236.3212 
L 304.146755 216.936234 
L 305.341136 230.424572 
L 306.535517 257.029702 
L 307.729899 254.991137 
L 308.92428 247.048016 
L 310.118661 247.219224 
L 311.313042 241.544538 
L 312.507424 239.046068 
L 313.701805 244.791574 
L 314.896186 242.11844 
L 316.090568 244.62081 
L 317.284949 246.332876 
L 318.47933 238.909678 
L 319.673711 233.847098 
L 320.868093 252.591834 
L 322.062474 260.456547 
L 323.256855 247.319155 
L 324.451236 237.521782 
L 325.645618 239.155159 
L 326.839999 243.68652 
L 328.03438 224.763671 
L 329.228761 211.366742 
L 330.423143 219.013772 
L 331.617524 221.645319 
L 332.811905 229.405031 
L 334.006287 226.898006 
L 335.200668 234.831969 
L 336.395049 236.643788 
L 337.58943 224.92031 
L 338.783812 242.167574 
L 339.978193 237.975354 
L 341.172574 217.118387 
L 342.366955 226.918474 
L 343.561337 217.470651 
L 344.755718 209.70189 
L 345.950099 231.509136 
L 347.144481 240.092508 
L 349.533243 253.174961 
L 350.727624 250.620979 
L 351.922006 241.617658 
L 353.116387 231.755086 
L 354.310768 235.714517 
L 355.505149 227.087281 
L 356.699531 220.856887 
L 357.893912 201.979325 
L 359.088293 172.879669 
L 360.282675 201.014775 
L 361.477056 216.093253 
L 362.671437 201.361197 
L 363.865818 205.689899 
L 365.0602 219.5565 
L 366.254581 225.485354 
L 367.448962 242.005556 
L 368.643343 243.688865 
L 369.837725 234.342313 
L 371.032106 235.172055 
L 372.226487 247.370212 
L 373.420869 239.894402 
L 374.61525 227.016627 
L 375.809631 230.934568 
L 377.004012 226.863796 
L 378.198394 220.094475 
L 379.392775 208.079088 
L 380.587156 240.575619 
L 381.781537 237.346517 
L 382.975919 170.130648 
L 384.1703 175.025596 
L 385.364681 190.172085 
L 385.364681 190.172085 
" clip-path="url(#p71b2e33224)" style="fill: none; stroke: #ff7f0e; stroke-width: 1.5; stroke-linecap: square"/>
   </g>
   <g id="line2d_19">
    <path d="M 29.439062 229.122786 
L 30.633444 239.928401 
L 31.827825 252.698705 
L 33.022206 256.780278 
L 34.216588 259.139403 
L 35.410969 254.622372 
L 36.60535 257.208287 
L 37.799731 246.388486 
L 38.994113 237.055655 
L 40.188494 218.326475 
L 42.577256 233.387372 
L 43.771638 236.234427 
L 44.966019 237.293425 
L 47.354782 256.313321 
L 48.549163 255.822722 
L 49.743544 243.109331 
L 50.937925 212.36467 
L 53.326688 162.563334 
L 54.521069 143.84129 
L 55.71545 113.406318 
L 56.909832 107.256927 
L 58.104213 129.127564 
L 59.298594 169.610337 
L 60.492976 165.645532 
L 61.687357 169.115602 
L 62.881738 144.753156 
L 64.076119 179.647632 
L 65.270501 175.437505 
L 66.464882 150.710969 
L 67.659263 88.208754 
L 68.853644 84.394062 
L 70.048026 80.114816 
L 71.242407 71.804879 
L 72.436788 51.239386 
L 73.63117 76.931758 
L 74.825551 90.291085 
L 76.019932 112.392863 
L 77.214313 137.201801 
L 78.408695 135.362509 
L 79.603076 149.276885 
L 80.797457 138.58476 
L 81.991838 155.795645 
L 83.18622 168.900399 
L 86.769364 200.539182 
L 87.963745 195.575228 
L 89.158126 187.912342 
L 90.352507 178.52472 
L 91.546889 183.482093 
L 92.74127 189.523726 
L 93.935651 188.153999 
L 95.130032 186.18367 
L 96.324414 185.09643 
L 97.518795 188.315827 
L 98.713176 195.281979 
L 99.907557 193.687884 
L 101.101939 190.308761 
L 102.29632 193.689874 
L 103.490701 198.708102 
L 104.685083 197.755094 
L 105.879464 191.402728 
L 107.073845 185.944654 
L 108.268226 189.7987 
L 109.462608 191.844605 
L 110.656989 191.480812 
L 111.85137 186.955724 
L 113.045751 187.634041 
L 114.240133 195.355837 
L 115.434514 208.84012 
L 117.823277 217.476612 
L 119.017658 210.241718 
L 120.212039 213.36349 
L 121.40642 208.263285 
L 122.600802 205.402114 
L 123.795183 185.324114 
L 124.989564 174.344388 
L 126.183945 170.831497 
L 127.378327 188.120092 
L 128.572708 193.123075 
L 129.767089 201.848623 
L 130.961471 206.082407 
L 132.155852 220.402845 
L 133.350233 233.236603 
L 134.544614 240.583648 
L 135.738996 243.620823 
L 136.933377 243.114997 
L 139.322139 250.064959 
L 140.516521 251.607698 
L 141.710902 248.893225 
L 142.905283 248.891095 
L 144.099665 245.382199 
L 146.488427 237.10204 
L 147.682808 236.582508 
L 148.87719 236.477418 
L 150.071571 234.241533 
L 151.265952 227.752305 
L 152.460333 225.467971 
L 153.654715 230.718701 
L 154.849096 240.92208 
L 156.043477 243.507227 
L 157.237858 241.044337 
L 158.43224 233.826969 
L 159.626621 233.222764 
L 160.821002 228.38915 
L 162.015384 242.740121 
L 163.209765 229.269077 
L 164.404146 229.870881 
L 165.598527 207.161383 
L 166.792909 229.209749 
L 167.98729 219.501156 
L 169.181671 212.031087 
L 170.376052 192.98185 
L 171.570434 209.581314 
L 172.764815 221.065989 
L 173.959196 234.616737 
L 175.153578 224.06468 
L 176.347959 222.447011 
L 177.54234 230.764786 
L 178.736721 226.735849 
L 179.931103 230.732013 
L 181.125484 218.850986 
L 182.319865 224.281475 
L 183.514246 218.302399 
L 184.708628 221.123664 
L 185.903009 220.93512 
L 187.09739 242.141688 
L 188.291772 228.364316 
L 189.486153 218.44859 
L 190.680534 190.029585 
L 191.874915 193.727182 
L 193.069297 200.139008 
L 194.263678 199.610689 
L 195.458059 181.624175 
L 196.65244 190.09163 
L 199.041203 214.510045 
L 200.235584 208.573118 
L 201.429966 200.569432 
L 202.624347 204.342327 
L 203.818728 203.652593 
L 205.013109 200.974213 
L 206.207491 196.618162 
L 207.401872 199.093369 
L 208.596253 191.026031 
L 209.790634 184.214067 
L 210.985016 180.790352 
L 212.179397 183.611312 
L 213.373778 181.298308 
L 214.568159 169.270937 
L 215.762541 184.905831 
L 216.956922 188.492178 
L 218.151303 200.403438 
L 219.345685 187.108997 
L 220.540066 189.611924 
L 221.734447 195.033037 
L 222.928828 197.447481 
L 224.12321 192.747876 
L 225.317591 197.145102 
L 226.511972 200.314175 
L 227.706353 220.626045 
L 230.095116 201.295556 
L 231.289497 195.464272 
L 232.483879 197.405968 
L 233.67826 197.113713 
L 234.872641 187.261183 
L 236.067022 187.08549 
L 237.261404 193.741822 
L 238.455785 189.550213 
L 239.650166 199.469935 
L 240.844547 189.152671 
L 242.038929 193.119185 
L 243.23331 182.150609 
L 244.427691 193.164416 
L 245.622073 198.60058 
L 246.816454 195.400607 
L 248.010835 176.246527 
L 249.205216 182.20913 
L 250.399598 196.443074 
L 251.593979 212.928431 
L 252.78836 210.214796 
L 253.982741 197.539344 
L 255.177123 194.357613 
L 257.565885 188.916137 
L 258.760267 182.357292 
L 259.954648 171.871023 
L 261.149029 176.669151 
L 262.34341 179.625281 
L 263.537792 181.687232 
L 264.732173 179.678119 
L 265.926554 185.826618 
L 267.120935 190.280728 
L 268.315317 201.282161 
L 269.509698 203.568241 
L 270.704079 209.613962 
L 271.89846 202.82065 
L 273.092842 202.539923 
L 274.287223 196.411828 
L 275.481604 196.743275 
L 276.675986 196.795762 
L 277.870367 205.708887 
L 279.064748 206.399686 
L 280.259129 211.222913 
L 281.453511 206.203506 
L 282.647892 215.275699 
L 283.842273 227.04317 
L 285.036654 235.049338 
L 286.231036 230.893623 
L 287.425417 231.014516 
L 288.619798 240.403632 
L 289.81418 242.143466 
L 291.008561 209.55923 
L 292.202942 152.790998 
L 293.397323 131.180415 
L 294.591705 159.879638 
L 295.786086 194.434509 
L 296.980467 194.078898 
L 298.174848 199.039398 
L 299.36923 218.686553 
L 300.563611 244.703586 
L 301.757992 251.750355 
L 302.952374 243.877834 
L 304.146755 225.985777 
L 305.341136 230.404356 
L 307.729899 254.199875 
L 308.92428 252.076606 
L 311.313042 243.017663 
L 312.507424 242.328067 
L 313.701805 241.322359 
L 314.896186 242.707579 
L 316.090568 244.981923 
L 317.284949 243.764543 
L 318.47933 242.927891 
L 319.673711 236.657187 
L 320.868093 247.335431 
L 322.062474 252.068319 
L 323.256855 255.212423 
L 324.451236 242.265414 
L 325.645618 240.610269 
L 326.839999 239.708955 
L 328.03438 232.583033 
L 329.228761 222.156768 
L 330.423143 214.756056 
L 331.617524 220.03548 
L 332.811905 226.75576 
L 334.006287 225.307435 
L 335.200668 235.305016 
L 336.395049 230.400667 
L 337.58943 234.101419 
L 338.783812 235.597281 
L 339.978193 235.016415 
L 341.172574 230.998408 
L 342.366955 224.298607 
L 343.561337 216.77092 
L 344.755718 219.728418 
L 345.950099 220.168553 
L 347.144481 235.06089 
L 348.338862 243.990749 
L 349.533243 249.55491 
L 350.727624 250.837773 
L 351.922006 246.346832 
L 353.116387 236.739674 
L 354.310768 236.167242 
L 355.505149 226.769203 
L 356.699531 229.364982 
L 357.893912 203.387961 
L 359.088293 196.658751 
L 360.282675 188.424055 
L 361.477056 206.663801 
L 362.671437 206.069522 
L 363.865818 209.659357 
L 365.0602 208.600655 
L 366.254581 225.206181 
L 367.448962 233.601789 
L 368.643343 241.084532 
L 369.837725 239.115899 
L 371.032106 236.539116 
L 372.226487 241.724612 
L 373.420869 240.189745 
L 374.61525 236.74839 
L 375.809631 228.620524 
L 377.004012 227.958032 
L 378.198394 224.130838 
L 379.392775 212.813983 
L 380.587156 233.750892 
L 381.781537 225.457117 
L 382.975919 214.850353 
L 384.1703 179.058535 
L 385.364681 178.327535 
L 385.364681 178.327535 
" clip-path="url(#p71b2e33224)" style="fill: none; stroke: #2ca02c; stroke-width: 1.5; stroke-linecap: square"/>
   </g>
   <g id="line2d_20">
    <path d="M 29.439062 221.275211 
L 30.633444 236.505406 
L 31.827825 248.478994 
L 33.022206 250.372301 
L 34.216588 258.240554 
L 35.410969 258.641514 
L 36.60535 253.887849 
L 37.799731 250.742613 
L 38.994113 242.558839 
L 40.188494 227.832517 
L 41.382875 226.152528 
L 42.577256 232.537407 
L 43.771638 227.154092 
L 44.966019 239.663468 
L 46.1604 247.949949 
L 47.354782 246.12502 
L 48.549163 254.219959 
L 49.743544 251.824807 
L 50.937925 220.968504 
L 52.132307 205.919399 
L 53.326688 186.135769 
L 54.521069 136.533121 
L 55.71545 133.903952 
L 56.909832 128.780364 
L 58.104213 108.165345 
L 59.298594 154.661857 
L 60.492976 166.381937 
L 61.687357 156.222628 
L 64.076119 174.127491 
L 65.270501 164.056515 
L 66.464882 151.002816 
L 67.659263 139.788926 
L 68.853644 90.161987 
L 70.048026 73.226844 
L 71.242407 79.930908 
L 72.436788 63.162834 
L 73.63117 67.394559 
L 74.825551 87.608872 
L 76.019932 95.307164 
L 77.214313 130.829051 
L 78.408695 130.923693 
L 80.797457 149.07322 
L 81.991838 145.514995 
L 83.18622 165.230701 
L 84.380601 172.15619 
L 85.574982 183.990017 
L 86.769364 198.107108 
L 87.963745 192.195781 
L 89.158126 190.267628 
L 90.352507 190.194295 
L 91.546889 178.776002 
L 92.74127 185.572177 
L 93.935651 190.372599 
L 95.130032 184.54832 
L 96.324414 186.766963 
L 97.518795 189.473261 
L 98.713176 190.069324 
L 99.907557 192.410021 
L 103.490701 195.044354 
L 104.685083 196.351076 
L 105.879464 194.867136 
L 107.073845 189.335364 
L 108.268226 189.603599 
L 109.462608 190.360547 
L 110.656989 189.394825 
L 111.85137 190.342872 
L 113.045751 188.74688 
L 114.240133 192.084855 
L 115.434514 203.69443 
L 116.628895 208.628052 
L 117.823277 214.390906 
L 119.017658 214.306201 
L 120.212039 212.043229 
L 121.40642 210.791529 
L 122.600802 205.110817 
L 123.795183 194.096195 
L 124.989564 181.995215 
L 126.183945 177.300368 
L 127.378327 180.166067 
L 128.572708 188.02426 
L 129.767089 198.022962 
L 132.155852 213.03684 
L 133.350233 228.256977 
L 134.544614 235.194567 
L 135.738996 240.763189 
L 136.933377 244.49752 
L 138.127758 245.259188 
L 140.516521 250.498685 
L 141.710902 249.519384 
L 142.905283 249.59516 
L 144.099665 247.032432 
L 145.294046 241.548346 
L 146.488427 240.987516 
L 148.87719 234.646856 
L 150.071571 235.892398 
L 152.460333 226.256947 
L 153.654715 231.579139 
L 154.849096 236.122417 
L 156.043477 238.507266 
L 157.237858 242.782759 
L 158.43224 238.331566 
L 159.626621 232.634606 
L 160.821002 231.587191 
L 162.015384 239.646891 
L 163.209765 229.193149 
L 164.404146 229.040635 
L 165.598527 225.896331 
L 166.792909 217.632953 
L 167.98729 221.78581 
L 169.181671 212.266073 
L 170.376052 208.065956 
L 171.570434 206.313066 
L 172.764815 213.521109 
L 173.959196 226.061058 
L 175.153578 227.980673 
L 176.347959 222.980288 
L 177.54234 233.074257 
L 178.736721 221.710038 
L 179.931103 228.075685 
L 181.125484 230.662107 
L 182.319865 216.432907 
L 183.514246 221.898783 
L 184.708628 223.537176 
L 185.903009 218.034898 
L 187.09739 235.927619 
L 188.291772 230.806248 
L 189.486153 215.976432 
L 190.680534 216.679967 
L 191.874915 192.041922 
L 193.069297 192.910047 
L 194.263678 202.612348 
L 195.458059 185.877122 
L 196.65244 190.175906 
L 197.846822 204.536808 
L 199.041203 198.448671 
L 200.235584 209.676726 
L 201.429966 211.634562 
L 202.624347 199.686873 
L 203.818728 201.281933 
L 205.013109 206.126362 
L 206.207491 196.71423 
L 207.401872 197.268091 
L 208.596253 196.960725 
L 209.790634 183.923798 
L 210.985016 185.627441 
L 212.179397 185.325715 
L 213.373778 176.313222 
L 214.568159 174.670499 
L 215.762541 188.327129 
L 216.956922 180.177036 
L 219.345685 200.262414 
L 220.540066 183.839538 
L 221.734447 194.796847 
L 222.928828 198.049398 
L 224.12321 188.189868 
L 225.317591 200.271432 
L 226.511972 201.939318 
L 227.706353 207.269481 
L 228.900735 213.289999 
L 230.095116 204.949238 
L 231.289497 203.848238 
L 232.483879 195.139464 
L 233.67826 194.305696 
L 234.872641 193.674278 
L 236.067022 188.888776 
L 237.261404 191.5016 
L 238.455785 187.892686 
L 239.650166 198.041309 
L 240.844547 193.005785 
L 242.038929 187.405469 
L 243.23331 192.869183 
L 244.427691 188.066754 
L 245.622073 194.64471 
L 246.816454 194.587132 
L 248.010835 183.841066 
L 249.205216 186.599767 
L 250.399598 192.921842 
L 251.593979 198.395901 
L 252.78836 211.065593 
L 255.177123 196.858291 
L 256.371504 195.13317 
L 257.565885 187.209652 
L 258.760267 185.572071 
L 259.954648 178.699715 
L 261.149029 175.832866 
L 262.34341 178.493445 
L 263.537792 178.184745 
L 264.732173 181.575194 
L 265.926554 185.331186 
L 267.120935 186.329848 
L 268.315317 196.546057 
L 269.509698 202.936162 
L 270.704079 204.510717 
L 271.89846 205.626636 
L 273.092842 203.868227 
L 274.287223 199.222196 
L 275.481604 195.776348 
L 276.675986 199.414406 
L 277.870367 201.670223 
L 279.064748 203.378204 
L 280.259129 210.206468 
L 281.453511 208.524885 
L 282.647892 210.766072 
L 283.842273 225.546373 
L 286.231036 229.083162 
L 287.425417 236.464788 
L 288.619798 237.497733 
L 289.81418 234.806213 
L 291.008561 221.777563 
L 292.202942 187.059161 
L 293.397323 156.996009 
L 294.591705 152.052377 
L 295.786086 173.746238 
L 296.980467 188.21243 
L 298.174848 199.845473 
L 299.36923 216.297816 
L 301.757992 244.014071 
L 302.952374 246.895303 
L 304.146755 234.888058 
L 305.341136 233.419403 
L 306.535517 239.247932 
L 307.729899 243.609469 
L 308.92428 252.205565 
L 310.118661 251.204953 
L 311.313042 244.342162 
L 312.507424 243.23247 
L 313.701805 243.18381 
L 314.896186 240.595936 
L 316.090568 244.706237 
L 317.284949 244.25254 
L 318.47933 241.813187 
L 319.673711 240.314936 
L 320.868093 246.039879 
L 322.062474 248.270489 
L 323.256855 250.000714 
L 324.451236 249.838473 
L 325.645618 243.336882 
L 326.839999 240.659262 
L 328.03438 232.232699 
L 329.228761 228.85032 
L 330.423143 221.92811 
L 331.617524 216.625799 
L 332.811905 224.341012 
L 334.006287 224.305296 
L 335.200668 232.157378 
L 336.395049 231.895875 
L 337.58943 230.002881 
L 338.783812 239.449318 
L 339.978193 231.67145 
L 341.172574 230.453386 
L 342.366955 232.608966 
L 343.561337 217.294661 
L 344.755718 218.652145 
L 345.950099 224.730893 
L 347.144481 226.036156 
L 348.338862 239.412963 
L 349.533243 246.900947 
L 350.727624 248.666268 
L 351.922006 247.606781 
L 353.116387 241.709108 
L 354.310768 238.715508 
L 355.505149 229.449148 
L 356.699531 228.566113 
L 357.893912 215.237231 
L 359.088293 199.101393 
L 360.282675 201.497978 
L 361.477056 196.262164 
L 362.671437 201.188106 
L 363.865818 211.008323 
L 365.0602 210.81501 
L 366.254581 216.028823 
L 367.448962 231.439145 
L 368.643343 235.037249 
L 369.837725 238.256773 
L 371.032106 239.534264 
L 372.226487 241.103387 
L 373.420869 237.564451 
L 374.61525 237.772997 
L 375.809631 235.524322 
L 377.004012 226.940241 
L 378.198394 225.659602 
L 379.392775 217.875523 
L 380.587156 230.879977 
L 381.781537 223.746317 
L 382.975919 210.571632 
L 384.1703 210.279631 
L 385.364681 180.494062 
L 385.364681 180.494062 
" clip-path="url(#p71b2e33224)" style="fill: none; stroke: #d62728; stroke-width: 1.5; stroke-linecap: square"/>
   </g>
   <g id="line2d_21">
    <path d="M 29.439062 222.506149 
L 30.633444 229.225195 
L 31.827825 244.328125 
L 33.022206 247.402355 
L 35.410969 258.019032 
L 36.60535 257.295259 
L 37.799731 249.2435 
L 38.994113 246.974437 
L 40.188494 234.54074 
L 41.382875 231.861658 
L 42.577256 231.553594 
L 43.771638 227.717781 
L 44.966019 232.012654 
L 46.1604 247.643113 
L 48.549163 246.413994 
L 49.743544 251.305355 
L 50.937925 234.325278 
L 52.132307 214.484016 
L 53.326688 201.387908 
L 54.521069 163.586194 
L 55.71545 129.858474 
L 56.909832 141.397281 
L 58.104213 125.3209 
L 59.298594 134.972888 
L 60.492976 154.989431 
L 61.687357 158.76708 
L 62.881738 155.361922 
L 64.076119 182.873277 
L 65.270501 162.532711 
L 66.464882 145.998895 
L 67.659263 142.271252 
L 68.853644 131.739654 
L 70.048026 80.2958 
L 71.242407 74.469261 
L 72.436788 71.612377 
L 73.63117 73.369884 
L 74.825551 78.170446 
L 76.019932 92.205622 
L 77.214313 114.651386 
L 78.408695 126.98029 
L 79.603076 135.707335 
L 80.797457 141.820322 
L 81.991838 152.338799 
L 83.18622 155.572908 
L 84.380601 168.629853 
L 85.574982 177.501124 
L 86.769364 192.046346 
L 87.963745 191.863517 
L 89.158126 188.562489 
L 90.352507 191.603524 
L 91.546889 188.124556 
L 92.74127 181.447777 
L 93.935651 187.0666 
L 95.130032 187.0915 
L 96.324414 185.34807 
L 97.518795 189.913695 
L 98.713176 190.637736 
L 99.907557 188.763136 
L 102.29632 195.654061 
L 103.490701 195.075047 
L 104.685083 193.860278 
L 105.879464 194.307816 
L 107.073845 192.563919 
L 108.268226 191.542008 
L 110.656989 188.685177 
L 111.85137 188.893792 
L 113.045751 191.078975 
L 114.240133 192.074346 
L 115.434514 199.593102 
L 116.628895 204.565698 
L 117.823277 210.577143 
L 119.017658 212.428944 
L 120.212039 214.907852 
L 121.40642 210.23647 
L 122.600802 207.817891 
L 123.795183 196.188428 
L 124.989564 189.862088 
L 126.183945 182.770205 
L 127.378327 183.291563 
L 128.572708 181.712392 
L 129.767089 193.113415 
L 132.155852 211.463604 
L 134.544614 230.909798 
L 136.933377 242.063784 
L 138.127758 245.919887 
L 139.322139 246.583547 
L 140.516521 248.741635 
L 141.710902 249.036102 
L 142.905283 249.952996 
L 144.099665 247.98217 
L 145.294046 243.701758 
L 146.488427 241.373489 
L 147.682808 240.72956 
L 148.87719 235.993508 
L 151.265952 232.924776 
L 152.460333 229.099784 
L 153.654715 230.988135 
L 154.849096 235.724345 
L 156.043477 235.091221 
L 157.237858 238.923995 
L 158.43224 240.309621 
L 159.626621 236.532871 
L 160.821002 231.439783 
L 162.015384 239.832571 
L 163.209765 229.288225 
L 164.404146 229.025515 
L 165.598527 226.018762 
L 166.792909 229.776904 
L 167.98729 213.604985 
L 169.181671 215.680869 
L 170.376052 209.062995 
L 171.570434 214.984372 
L 172.764815 210.206824 
L 173.959196 219.314815 
L 175.153578 222.17396 
L 176.347959 226.369517 
L 177.54234 231.430807 
L 178.736721 225.577264 
L 179.931103 223.851206 
L 181.125484 228.555607 
L 182.319865 226.648719 
L 183.514246 216.031922 
L 184.708628 225.28565 
L 185.903009 220.640156 
L 187.09739 231.061495 
L 188.291772 227.73105 
L 189.486153 220.726004 
L 190.680534 215.037011 
L 191.874915 213.157231 
L 193.069297 191.720756 
L 194.263678 196.460668 
L 195.458059 191.350375 
L 196.65244 191.757527 
L 197.846822 201.836996 
L 199.041203 200.792232 
L 200.235584 197.550137 
L 201.429966 211.894043 
L 202.624347 208.846332 
L 203.818728 198.115669 
L 205.013109 203.773183 
L 206.207491 201.828184 
L 207.401872 197.214919 
L 208.596253 195.912493 
L 210.985016 185.115566 
L 212.179397 188.215948 
L 213.373778 179.230873 
L 214.568159 171.901027 
L 215.762541 188.619752 
L 216.956922 183.951829 
L 218.151303 183.070739 
L 219.345685 191.957715 
L 220.540066 195.323676 
L 221.734447 189.316525 
L 222.928828 197.266248 
L 224.12321 190.602066 
L 225.317591 195.331172 
L 226.511972 203.427593 
L 227.706353 207.153921 
L 228.900735 203.660003 
L 230.095116 208.209749 
L 231.289497 206.225655 
L 232.483879 201.968952 
L 233.67826 193.086981 
L 234.872641 192.080368 
L 236.067022 193.671134 
L 237.261404 192.037551 
L 238.455785 187.230909 
L 239.650166 195.127704 
L 240.844547 193.136595 
L 242.038929 190.879234 
L 243.23331 188.360647 
L 244.427691 195.259724 
L 245.622073 190.323195 
L 246.816454 192.16594 
L 248.010835 185.535827 
L 249.205216 190.356327 
L 250.399598 194.157665 
L 251.593979 195.231943 
L 252.78836 199.805793 
L 253.982741 205.75506 
L 255.177123 201.980701 
L 256.371504 196.973377 
L 258.760267 184.857416 
L 259.954648 182.068236 
L 261.149029 180.423619 
L 262.34341 177.468219 
L 263.537792 177.562124 
L 264.732173 178.80059 
L 265.926554 185.690961 
L 267.120935 185.834271 
L 269.509698 198.87215 
L 270.704079 203.82049 
L 271.89846 202.259429 
L 273.092842 205.894119 
L 274.287223 200.979192 
L 275.481604 198.165651 
L 276.675986 198.124359 
L 277.870367 202.74615 
L 279.064748 200.578123 
L 280.259129 207.104849 
L 281.453511 208.241904 
L 282.647892 211.671763 
L 283.842273 220.244674 
L 285.036654 226.078778 
L 286.231036 223.863886 
L 287.425417 233.998962 
L 288.619798 240.383726 
L 289.81418 233.517676 
L 291.008561 219.293385 
L 292.202942 203.251104 
L 293.397323 183.622751 
L 294.591705 167.197618 
L 295.786086 165.252998 
L 296.980467 172.562654 
L 298.174848 194.202864 
L 299.36923 213.618043 
L 300.563611 226.041419 
L 301.757992 232.462632 
L 302.952374 241.448056 
L 304.146755 239.391526 
L 305.341136 238.737845 
L 306.535517 239.787062 
L 307.729899 241.114508 
L 308.92428 244.070253 
L 310.118661 251.48424 
L 312.507424 244.248661 
L 313.701805 243.731784 
L 314.896186 242.244278 
L 316.090568 242.65733 
L 317.284949 244.176889 
L 318.47933 242.605043 
L 319.673711 239.931252 
L 320.868093 246.935916 
L 322.062474 247.059347 
L 323.256855 247.328921 
L 324.451236 246.558014 
L 325.645618 249.176368 
L 326.839999 242.836748 
L 328.03438 234.590488 
L 329.228761 229.319501 
L 330.423143 227.373291 
L 331.617524 221.952487 
L 332.811905 220.862935 
L 334.006287 222.835301 
L 335.200668 230.068009 
L 336.395049 230.003639 
L 337.58943 231.284555 
L 338.783812 235.291923 
L 339.978193 235.670859 
L 341.172574 228.611926 
L 342.366955 231.859133 
L 343.561337 225.800643 
L 344.755718 218.691941 
L 345.950099 222.921585 
L 347.144481 228.392567 
L 348.338862 231.680575 
L 349.533243 242.787511 
L 350.727624 246.709389 
L 351.922006 246.472815 
L 353.116387 243.713377 
L 354.310768 242.251513 
L 355.505149 232.996184 
L 356.699531 230.328151 
L 357.893912 217.506195 
L 360.282675 202.444106 
L 361.477056 204.81148 
L 362.671437 193.751729 
L 363.865818 206.275183 
L 365.0602 211.656683 
L 366.254581 216.266542 
L 367.448962 223.305393 
L 368.643343 233.047093 
L 369.837725 233.898707 
L 371.032106 238.766741 
L 372.226487 242.515821 
L 373.420869 237.896497 
L 374.61525 236.121135 
L 375.809631 236.59999 
L 377.004012 232.917594 
L 378.198394 225.295033 
L 379.392775 220.440519 
L 380.587156 231.054901 
L 381.781537 223.345173 
L 382.975919 212.189456 
L 384.1703 207.687463 
L 385.364681 205.564468 
L 385.364681 205.564468 
" clip-path="url(#p71b2e33224)" style="fill: none; stroke: #9467bd; stroke-width: 1.5; stroke-linecap: square"/>
   </g>
   <g id="line2d_22">
    <path d="M 29.439062 221.989476 
L 30.633444 228.904971 
L 31.827825 237.483987 
L 34.216588 250.133055 
L 36.60535 256.994611 
L 37.799731 253.038847 
L 40.188494 239.915086 
L 41.382875 236.632969 
L 42.577256 235.239876 
L 43.771638 227.68395 
L 44.966019 231.670455 
L 46.1604 240.522 
L 47.354782 246.901912 
L 48.549163 247.094508 
L 49.743544 245.135114 
L 50.937925 236.98727 
L 52.132307 227.417148 
L 53.326688 209.558869 
L 55.71545 154.479575 
L 56.909832 136.912814 
L 58.104213 136.626651 
L 59.298594 143.651398 
L 60.492976 138.702995 
L 61.687357 150.24993 
L 62.881738 157.637623 
L 64.076119 172.805614 
L 65.270501 172.308881 
L 66.464882 147.756838 
L 67.659263 139.424444 
L 68.853644 135.249771 
L 70.048026 118.380389 
L 71.242407 80.14313 
L 72.436788 68.347758 
L 73.63117 78.528388 
L 76.019932 83.731536 
L 77.214313 109.142714 
L 78.408695 114.016671 
L 79.603076 131.704446 
L 80.797457 137.894546 
L 81.991838 145.867244 
L 83.18622 159.375849 
L 84.380601 160.199988 
L 85.574982 173.774933 
L 86.769364 185.603024 
L 87.963745 187.691034 
L 90.352507 189.973888 
L 91.546889 189.661866 
L 92.74127 188.720384 
L 93.935651 183.420157 
L 95.130032 184.839306 
L 96.324414 187.32764 
L 97.518795 188.234936 
L 98.713176 190.808875 
L 99.907557 189.459306 
L 101.101939 189.315904 
L 102.29632 194.488321 
L 103.490701 196.222111 
L 104.685083 194.084129 
L 105.879464 192.551171 
L 107.073845 192.477858 
L 108.268226 193.836383 
L 109.462608 191.623847 
L 110.656989 188.740474 
L 111.85137 188.38451 
L 113.045751 189.755489 
L 114.240133 193.432394 
L 115.434514 198.363082 
L 116.628895 201.032618 
L 117.823277 206.925265 
L 119.017658 209.543013 
L 120.212039 213.252545 
L 121.40642 212.963095 
L 122.600802 207.846519 
L 124.989564 192.369156 
L 126.183945 189.197994 
L 128.572708 184.042107 
L 129.767089 187.198671 
L 133.350233 218.675332 
L 134.544614 224.780796 
L 135.738996 232.725185 
L 138.127758 243.690539 
L 139.322139 246.907814 
L 140.516521 247.474879 
L 141.710902 247.797075 
L 142.905283 249.480254 
L 144.099665 248.556817 
L 145.294046 245.08607 
L 146.488427 243.204053 
L 148.87719 238.815428 
L 151.265952 232.270423 
L 152.460333 231.130882 
L 153.654715 232.49656 
L 154.849096 234.57189 
L 156.043477 234.929153 
L 157.237858 236.028174 
L 158.43224 237.444895 
L 159.626621 238.514573 
L 160.821002 234.934333 
L 162.015384 238.395766 
L 163.209765 231.266365 
L 164.404146 229.132824 
L 165.598527 226.515892 
L 166.792909 229.239417 
L 167.98729 224.817696 
L 169.181671 209.621523 
L 170.376052 212.522123 
L 172.764815 216.641101 
L 173.959196 215.732855 
L 175.153578 217.061613 
L 176.347959 221.758769 
L 177.54234 232.710465 
L 178.736721 225.409058 
L 179.931103 226.675144 
L 181.125484 224.981941 
L 182.319865 225.516094 
L 183.514246 224.706134 
L 184.708628 219.993368 
L 185.903009 222.621729 
L 187.09739 230.960194 
L 188.291772 224.808205 
L 189.486153 219.699069 
L 190.680534 219.194515 
L 191.874915 212.348296 
L 193.069297 209.65087 
L 194.263678 194.907088 
L 195.458059 187.807324 
L 196.65244 195.211158 
L 197.846822 201.189777 
L 199.041203 199.121299 
L 200.235584 199.667689 
L 201.429966 201.664094 
L 202.624347 209.536309 
L 203.818728 206.137929 
L 205.013109 200.771985 
L 206.207491 200.539284 
L 207.401872 201.393693 
L 209.790634 190.557175 
L 210.985016 190.24811 
L 212.179397 187.367939 
L 213.373778 182.763564 
L 214.568159 175.139954 
L 215.762541 184.260041 
L 218.151303 185.693006 
L 219.345685 186.011723 
L 220.540066 189.053189 
L 221.734447 197.746163 
L 222.928828 192.377572 
L 224.12321 191.188962 
L 225.317591 196.093335 
L 226.511972 198.888857 
L 227.706353 207.49831 
L 230.095116 200.805821 
L 231.289497 208.713277 
L 232.483879 204.293783 
L 233.67826 199.221764 
L 234.872641 191.424833 
L 236.067022 192.344692 
L 237.261404 195.438584 
L 238.455785 188.410429 
L 239.650166 193.421343 
L 240.844547 191.466693 
L 242.038929 191.34645 
L 243.23331 191.086209 
L 244.427691 191.173373 
L 245.622073 195.888562 
L 246.816454 188.934661 
L 248.010835 184.957424 
L 250.399598 195.922878 
L 251.593979 195.865522 
L 252.78836 196.964714 
L 253.982741 196.992366 
L 255.177123 203.993471 
L 256.371504 201.233957 
L 257.565885 193.29733 
L 258.760267 188.48751 
L 259.954648 182.050611 
L 261.149029 182.922867 
L 262.34341 180.997684 
L 263.537792 176.85942 
L 264.732173 178.181248 
L 265.926554 182.759312 
L 267.120935 186.049535 
L 268.315317 190.908696 
L 269.509698 194.995539 
L 270.704079 200.316108 
L 271.89846 202.053777 
L 273.092842 203.05515 
L 274.287223 203.188982 
L 275.481604 199.818307 
L 276.675986 199.700281 
L 277.870367 201.146293 
L 279.064748 201.664569 
L 280.259129 204.221356 
L 281.453511 205.956449 
L 282.647892 210.922625 
L 283.842273 219.423925 
L 285.036654 221.610325 
L 286.231036 223.37897 
L 287.425417 229.049003 
L 288.619798 237.766712 
L 289.81418 236.693885 
L 292.202942 204.185953 
L 293.397323 198.109798 
L 295.786086 175.034151 
L 296.980467 165.669523 
L 298.174848 180.766015 
L 299.36923 207.173387 
L 300.563611 222.415569 
L 301.757992 228.878611 
L 302.952374 232.116043 
L 304.146755 235.824645 
L 305.341136 241.744141 
L 306.535517 242.955834 
L 307.729899 241.247706 
L 308.92428 241.929208 
L 310.118661 244.83055 
L 311.313042 248.808845 
L 312.507424 247.351661 
L 313.701805 244.492239 
L 314.896186 242.862764 
L 316.090568 243.66558 
L 317.284949 242.552297 
L 318.47933 242.817807 
L 319.673711 240.92033 
L 320.868093 245.569599 
L 322.062474 247.629856 
L 323.256855 246.468575 
L 324.451236 244.839602 
L 325.645618 246.543437 
L 326.839999 247.840138 
L 328.03438 237.555391 
L 329.228761 231.830536 
L 330.423143 228.017048 
L 331.617524 226.505229 
L 332.811905 224.482092 
L 334.006287 220.162131 
L 335.200668 227.964603 
L 336.395049 228.595117 
L 337.58943 229.804007 
L 338.783812 235.451266 
L 339.978193 232.73684 
L 341.172574 232.56268 
L 342.366955 230.112794 
L 343.561337 226.306774 
L 344.755718 225.520005 
L 345.950099 222.253967 
L 347.144481 226.331124 
L 348.338862 232.637563 
L 349.533243 236.043033 
L 350.727624 243.321083 
L 351.922006 245.177288 
L 353.116387 243.392969 
L 354.310768 243.825994 
L 355.505149 237.09032 
L 356.699531 233.124849 
L 357.893912 221.039659 
L 359.088293 212.702705 
L 360.282675 210.684665 
L 361.477056 205.036894 
L 362.671437 201.452401 
L 363.865818 199.483568 
L 366.254581 216.050304 
L 367.448962 222.313926 
L 368.643343 226.144196 
L 369.837725 232.416854 
L 371.032106 235.082206 
L 372.226487 241.405172 
L 373.420869 239.654475 
L 374.61525 236.643814 
L 377.004012 234.275732 
L 378.198394 230.64629 
L 379.392775 221.01198 
L 380.587156 230.898177 
L 381.781537 224.796132 
L 382.975919 213.836756 
L 384.1703 209.550685 
L 385.364681 204.134751 
L 385.364681 204.134751 
" clip-path="url(#p71b2e33224)" style="fill: none; stroke: #8c564b; stroke-width: 1.5; stroke-linecap: square"/>
   </g>
   <g id="line2d_23">
    <path d="M 29.439062 224.216778 
L 30.633444 227.596136 
L 31.827825 236.094002 
L 33.022206 238.285498 
L 34.216588 247.009287 
L 35.410969 251.173405 
L 36.60535 253.38057 
L 37.799731 253.391419 
L 38.994113 250.111493 
L 40.188494 240.35466 
L 41.382875 240.873149 
L 42.577256 238.743918 
L 43.771638 231.524757 
L 44.966019 231.087585 
L 46.1604 239.084283 
L 47.354782 240.893702 
L 48.549163 246.996197 
L 49.743544 245.910647 
L 50.937925 233.085415 
L 52.132307 230.86679 
L 53.326688 221.875268 
L 54.521069 192.984554 
L 55.71545 172.579527 
L 56.909832 156.56697 
L 58.104213 133.393898 
L 59.298594 150.105108 
L 60.492976 145.513232 
L 61.687357 136.739153 
L 62.881738 150.483069 
L 64.076119 172.207681 
L 65.270501 164.739432 
L 66.464882 159.007124 
L 67.659263 141.932814 
L 68.853644 133.752243 
L 71.242407 113.209754 
L 72.436788 74.203567 
L 73.63117 74.821343 
L 74.825551 84.425418 
L 76.019932 85.512302 
L 77.214313 100.005778 
L 78.408695 109.382331 
L 79.603076 120.19955 
L 80.797457 134.191304 
L 81.991838 141.997781 
L 83.18622 153.047456 
L 84.380601 162.735832 
L 85.574982 166.052801 
L 86.769364 181.433711 
L 87.963745 182.665304 
L 89.158126 185.684395 
L 90.352507 190.052933 
L 91.546889 188.528151 
L 92.74127 189.949308 
L 93.935651 189.323584 
L 95.130032 181.997329 
L 96.324414 185.368481 
L 97.518795 189.494891 
L 98.713176 189.251731 
L 99.907557 189.776067 
L 101.101939 189.831957 
L 102.29632 191.63289 
L 103.490701 195.146246 
L 104.685083 195.216294 
L 105.879464 192.932486 
L 107.073845 191.218756 
L 108.268226 193.58218 
L 109.462608 193.580143 
L 110.656989 190.258975 
L 111.85137 188.474989 
L 113.045751 189.198645 
L 114.240133 191.981943 
L 115.434514 198.601115 
L 116.628895 199.784621 
L 117.823277 203.618883 
L 119.017658 206.544268 
L 120.212039 210.681256 
L 121.40642 211.804545 
L 122.600802 210.573035 
L 123.795183 201.272819 
L 126.183945 191.453746 
L 127.378327 191.567199 
L 128.572708 186.873421 
L 129.767089 188.362043 
L 130.961471 191.892493 
L 133.350233 214.499122 
L 134.544614 222.158824 
L 135.738996 227.322903 
L 136.933377 234.922937 
L 138.127758 240.308315 
L 139.322139 244.880253 
L 140.516521 247.623529 
L 141.710902 246.836933 
L 142.905283 248.36133 
L 144.099665 248.346486 
L 145.294046 246.014508 
L 146.488427 244.469403 
L 147.682808 242.710852 
L 148.87719 239.410904 
L 150.071571 238.158751 
L 151.265952 233.598803 
L 152.460333 230.819473 
L 153.654715 233.710105 
L 154.849096 235.321048 
L 156.043477 234.048867 
L 157.237858 235.757231 
L 158.43224 235.145673 
L 159.626621 236.280027 
L 160.821002 236.891486 
L 162.015384 240.248563 
L 163.209765 231.206691 
L 164.404146 230.855381 
L 165.598527 226.97232 
L 166.792909 229.200263 
L 167.98729 225.060755 
L 169.181671 220.171876 
L 170.376052 207.679122 
L 171.570434 216.719103 
L 172.764815 216.123738 
L 173.959196 220.271379 
L 175.153578 214.26839 
L 176.347959 217.436337 
L 177.54234 228.104504 
L 178.736721 227.449084 
L 179.931103 226.376218 
L 181.125484 227.223636 
L 182.319865 222.819885 
L 183.514246 223.999794 
L 184.708628 226.684388 
L 185.903009 218.385403 
L 187.09739 231.107781 
L 188.291772 225.63427 
L 189.486153 218.212387 
L 190.680534 218.52415 
L 191.874915 216.383034 
L 193.069297 209.44702 
L 194.263678 209.664523 
L 195.458059 187.671964 
L 196.65244 191.709338 
L 197.846822 202.671045 
L 199.041203 198.947973 
L 200.235584 198.387136 
L 201.429966 202.852002 
L 202.624347 201.008475 
L 203.818728 207.131896 
L 205.013109 207.18111 
L 206.207491 198.380668 
L 207.401872 200.348606 
L 208.596253 199.87207 
L 209.790634 191.497092 
L 210.985016 190.446999 
L 212.179397 191.399083 
L 213.373778 182.804438 
L 214.568159 178.836405 
L 215.762541 185.145917 
L 216.956922 181.658839 
L 218.151303 186.284838 
L 219.345685 187.806378 
L 220.540066 184.297498 
L 221.734447 192.130815 
L 222.928828 199.063592 
L 224.12321 187.727666 
L 225.317591 195.808404 
L 226.511972 199.024939 
L 227.706353 203.154815 
L 228.900735 204.902638 
L 230.095116 201.663825 
L 231.289497 202.345891 
L 232.483879 206.736348 
L 236.067022 191.746216 
L 237.261404 194.064329 
L 238.455785 191.922213 
L 239.650166 193.527147 
L 240.844547 190.499864 
L 242.038929 190.157175 
L 243.23331 191.456708 
L 244.427691 193.073793 
L 245.622073 192.318328 
L 246.816454 193.959995 
L 248.010835 183.119016 
L 250.399598 195.385749 
L 251.593979 197.120655 
L 252.78836 197.255697 
L 253.982741 194.920628 
L 255.177123 196.680503 
L 256.371504 203.076989 
L 257.565885 197.57802 
L 258.760267 190.830877 
L 259.954648 185.624953 
L 261.149029 182.786056 
L 262.34341 183.053444 
L 263.537792 179.987536 
L 264.732173 177.492985 
L 265.926554 181.681811 
L 267.120935 183.494688 
L 268.315317 190.37394 
L 270.704079 196.827227 
L 271.89846 199.273135 
L 273.092842 202.7665 
L 274.287223 201.103242 
L 275.481604 201.896283 
L 276.675986 200.885534 
L 277.870367 202.043694 
L 279.064748 200.439377 
L 280.259129 204.616121 
L 281.453511 203.633554 
L 282.647892 208.62509 
L 283.842273 217.74467 
L 285.036654 220.720925 
L 286.231036 219.863341 
L 287.425417 227.927071 
L 288.619798 233.158476 
L 289.81418 234.910488 
L 291.008561 225.785975 
L 292.202942 207.941713 
L 293.397323 199.687402 
L 294.591705 198.707123 
L 295.786086 190.269042 
L 296.980467 174.012436 
L 298.174848 174.001014 
L 300.563611 216.068495 
L 301.757992 225.453198 
L 302.952374 229.092188 
L 304.146755 228.265121 
L 305.341136 238.433858 
L 306.535517 244.842663 
L 307.729899 243.724589 
L 308.92428 241.926549 
L 310.118661 242.904976 
L 311.313042 243.356351 
L 312.507424 248.122206 
L 313.701805 247.117699 
L 314.896186 243.645552 
L 316.090568 243.986768 
L 317.284949 243.433191 
L 318.47933 241.603178 
L 319.673711 241.348576 
L 320.868093 245.588154 
L 323.256855 247.045601 
L 324.451236 244.443331 
L 326.839999 245.747859 
L 328.03438 242.868152 
L 329.228761 234.842259 
L 330.423143 230.38515 
L 331.617524 227.185875 
L 332.811905 227.958074 
L 334.006287 223.389952 
L 335.200668 225.05755 
L 336.395049 226.98329 
L 337.58943 228.624362 
L 338.783812 233.647225 
L 339.978193 233.246031 
L 341.172574 230.430796 
L 342.366955 233.251507 
L 343.561337 225.549898 
L 344.755718 225.995159 
L 345.950099 227.465659 
L 347.144481 225.295127 
L 348.338862 230.343622 
L 349.533243 236.22079 
L 350.727624 237.527549 
L 351.922006 242.454916 
L 353.116387 242.69455 
L 354.310768 243.535674 
L 355.505149 239.268226 
L 356.699531 236.622724 
L 357.893912 225.01847 
L 359.088293 216.551369 
L 360.282675 213.028343 
L 361.477056 211.640465 
L 362.671437 202.135661 
L 363.865818 205.063105 
L 365.0602 201.700388 
L 366.254581 212.108094 
L 367.448962 221.294101 
L 368.643343 224.91422 
L 369.837725 226.586756 
L 371.032106 233.659203 
L 372.226487 237.965307 
L 373.420869 239.090415 
L 374.61525 238.351026 
L 377.004012 233.567325 
L 378.198394 232.163538 
L 379.392775 226.405136 
L 380.587156 229.918076 
L 381.781537 225.572872 
L 382.975919 216.58916 
L 385.364681 206.288316 
L 385.364681 206.288316 
" clip-path="url(#p71b2e33224)" style="fill: none; stroke: #e377c2; stroke-width: 1.5; stroke-linecap: square"/>
   </g>
   <g id="patch_3">
    <path d="M 29.439063 284.991437 
L 29.439063 18.879437 
" style="fill: none; stroke: #000000; stroke-width: 0.8; stroke-linejoin: miter; stroke-linecap: square"/>
   </g>
   <g id="patch_4">
    <path d="M 386.559062 284.991437 
L 386.559062 18.879437 
" style="fill: none; stroke: #000000; stroke-width: 0.8; stroke-linejoin: miter; stroke-linecap: square"/>
   </g>
   <g id="patch_5">
    <path d="M 29.439062 284.991437 
L 386.559062 284.991437 
" style="fill: none; stroke: #000000; stroke-width: 0.8; stroke-linejoin: miter; stroke-linecap: square"/>
   </g>
   <g id="patch_6">
    <path d="M 29.439062 18.879437 
L 386.559062 18.879437 
" style="fill: none; stroke: #000000; stroke-width: 0.8; stroke-linejoin: miter; stroke-linecap: square"/>
   </g>
   <g id="legend_1">
    <g id="patch_7">
     <path d="M 341.260625 127.613812 
L 379.559062 127.613812 
Q 381.559062 127.613812 381.559062 125.613812 
L 381.559062 25.879437 
Q 381.559062 23.879437 379.559062 23.879437 
L 341.260625 23.879437 
Q 339.260625 23.879437 339.260625 25.879437 
L 339.260625 125.613812 
Q 339.260625 127.613812 341.260625 127.613812 
z
" style="fill: #ffffff; opacity: 0.8; stroke: #cccccc; stroke-linejoin: miter"/>
    </g>
    <g id="line2d_24">
     <path d="M 343.260625 31.870062 
L 353.260625 31.870062 
L 363.260625 31.870062 
" style="fill: none; stroke: #1f77b4; stroke-width: 1.5; stroke-linecap: square"/>
    </g>
    <g id="text_16">
     <!-- 1 -->
     <g transform="translate(371.260625 35.370062) scale(0.1 -0.1)">
      <use xlink:href="#IPAexGothic-31"/>
     </g>
    </g>
    <g id="line2d_25">
     <path d="M 343.260625 46.260687 
L 353.260625 46.260687 
L 363.260625 46.260687 
" style="fill: none; stroke: #ff7f0e; stroke-width: 1.5; stroke-linecap: square"/>
    </g>
    <g id="text_17">
     <!-- 2 -->
     <g transform="translate(371.260625 49.760687) scale(0.1 -0.1)">
      <use xlink:href="#IPAexGothic-32"/>
     </g>
    </g>
    <g id="line2d_26">
     <path d="M 343.260625 60.651312 
L 353.260625 60.651312 
L 363.260625 60.651312 
" style="fill: none; stroke: #2ca02c; stroke-width: 1.5; stroke-linecap: square"/>
    </g>
    <g id="text_18">
     <!-- 3 -->
     <g transform="translate(371.260625 64.151312) scale(0.1 -0.1)">
      <use xlink:href="#IPAexGothic-33"/>
     </g>
    </g>
    <g id="line2d_27">
     <path d="M 343.260625 75.041937 
L 353.260625 75.041937 
L 363.260625 75.041937 
" style="fill: none; stroke: #d62728; stroke-width: 1.5; stroke-linecap: square"/>
    </g>
    <g id="text_19">
     <!-- 4 -->
     <g transform="translate(371.260625 78.541937) scale(0.1 -0.1)">
      <defs>
       <path id="IPAexGothic-34" d="M 3813 1159 
L 3059 1159 
L 3059 63 
L 2547 63 
L 2547 1159 
L 197 1159 
L 197 1672 
L 2456 4678 
L 3059 4678 
L 3059 1634 
L 3813 1634 
L 3813 1159 
z
M 2578 4109 
L 2559 4109 
Q 2278 3656 2003 3284 
L 759 1634 
L 2547 1634 
L 2547 3144 
Q 2547 3481 2578 4109 
z
" transform="scale(0.015625)"/>
      </defs>
      <use xlink:href="#IPAexGothic-34"/>
     </g>
    </g>
    <g id="line2d_28">
     <path d="M 343.260625 89.432562 
L 353.260625 89.432562 
L 363.260625 89.432562 
" style="fill: none; stroke: #9467bd; stroke-width: 1.5; stroke-linecap: square"/>
    </g>
    <g id="text_20">
     <!-- 5 -->
     <g transform="translate(371.260625 92.932562) scale(0.1 -0.1)">
      <use xlink:href="#IPAexGothic-35"/>
     </g>
    </g>
    <g id="line2d_29">
     <path d="M 343.260625 103.823187 
L 353.260625 103.823187 
L 363.260625 103.823187 
" style="fill: none; stroke: #8c564b; stroke-width: 1.5; stroke-linecap: square"/>
    </g>
    <g id="text_21">
     <!-- 6 -->
     <g transform="translate(371.260625 107.323187) scale(0.1 -0.1)">
      <defs>
       <path id="IPAexGothic-36" d="M 1056 2328 
Q 1509 2981 2234 2981 
Q 2906 2981 3316 2513 
Q 3675 2106 3675 1522 
Q 3675 884 3272 434 
Q 2853 -31 2178 -31 
Q 1375 -31 922 581 
Q 481 1178 481 2228 
Q 481 3425 1013 4109 
Q 1494 4725 2272 4725 
Q 3191 4725 3609 4025 
L 3150 3775 
Q 2894 4266 2300 4266 
Q 1119 4266 1031 2328 
L 1056 2328 
z
M 2141 2547 
Q 1684 2547 1384 2206 
Q 1116 1900 1116 1541 
Q 1116 1156 1353 844 
Q 1672 428 2159 428 
Q 2669 428 2941 844 
Q 3125 1128 3125 1503 
Q 3125 1944 2881 2228 
Q 2600 2547 2141 2547 
z
" transform="scale(0.015625)"/>
      </defs>
      <use xlink:href="#IPAexGothic-36"/>
     </g>
    </g>
    <g id="line2d_30">
     <path d="M 343.260625 118.213812 
L 353.260625 118.213812 
L 363.260625 118.213812 
" style="fill: none; stroke: #e377c2; stroke-width: 1.5; stroke-linecap: square"/>
    </g>
    <g id="text_22">
     <!-- 7 -->
     <g transform="translate(371.260625 121.713812) scale(0.1 -0.1)">
      <defs>
       <path id="IPAexGothic-37" d="M 3597 4263 
Q 2238 2106 1778 63 
L 1131 63 
Q 1581 1834 2950 4128 
L 428 4128 
L 428 4634 
L 3597 4634 
L 3597 4263 
z
" transform="scale(0.015625)"/>
      </defs>
      <use xlink:href="#IPAexGothic-37"/>
     </g>
    </g>
   </g>
  </g>
  <g id="axes_2">
   <g id="matplotlib.axis_3"/>
   <g id="patch_8">
    <path d="M 29.439063 284.991437 
L 29.439063 18.879437 
" style="fill: none; stroke: #000000; stroke-width: 0.8; stroke-linejoin: miter; stroke-linecap: square"/>
   </g>
   <g id="patch_9">
    <path d="M 386.559062 284.991437 
L 386.559062 18.879437 
" style="fill: none; stroke: #000000; stroke-width: 0.8; stroke-linejoin: miter; stroke-linecap: square"/>
   </g>
   <g id="patch_10">
    <path d="M 29.439062 284.991437 
L 386.559062 284.991437 
" style="fill: none; stroke: #000000; stroke-width: 0.8; stroke-linejoin: miter; stroke-linecap: square"/>
   </g>
   <g id="patch_11">
    <path d="M 29.439062 18.879437 
L 386.559062 18.879437 
" style="fill: none; stroke: #000000; stroke-width: 0.8; stroke-linejoin: miter; stroke-linecap: square"/>
   </g>
  </g>
  <g id="text_23">
   <!-- : 2023/03/26 16:12:55(JST) -->
   <g transform="translate(211.087188 15.423437) scale(0.1 -0.1)">
    <defs>
     <path id="IPAexGothic-66f4" d="M 2956 3994 
L 2956 4588 
L 513 4588 
L 513 4984 
L 5881 4984 
L 5881 4588 
L 3413 4588 
L 3413 3994 
L 5300 3994 
L 5300 1288 
L 4838 1288 
L 4838 1759 
L 3406 1759 
Q 3384 1125 3150 709 
Q 4291 244 5997 31 
L 5694 -428 
Q 4109 -166 2906 384 
Q 2294 -266 744 -488 
L 494 -66 
Q 1903 59 2491 588 
Q 2041 813 1594 1166 
L 1928 1434 
Q 2331 1106 2747 897 
Q 2922 1219 2950 1759 
L 1556 1759 
L 1556 1413 
L 1097 1413 
L 1097 3994 
L 2956 3994 
z
M 2956 3609 
L 1556 3609 
L 1556 3078 
L 2956 3078 
L 2956 3609 
z
M 3413 3609 
L 3413 3078 
L 4838 3078 
L 4838 3609 
L 3413 3609 
z
M 2956 2700 
L 1556 2700 
L 1556 2144 
L 2956 2144 
L 2956 2700 
z
M 3413 2700 
L 3413 2144 
L 4838 2144 
L 4838 2700 
L 3413 2700 
z
" transform="scale(0.015625)"/>
     <path id="IPAexGothic-65b0" d="M 3891 2803 
Q 3881 1759 3794 1166 
Q 3653 197 3097 -563 
L 2741 -250 
Q 3450 700 3450 2631 
L 3450 4647 
Q 3516 4656 3622 4666 
Q 4656 4778 5447 5063 
L 5825 4678 
Q 4897 4419 3891 4294 
L 3891 3219 
L 6119 3219 
L 6119 2803 
L 5275 2803 
L 5275 -447 
L 4834 -447 
L 4834 2803 
L 3891 2803 
z
M 2822 4069 
Q 2678 3572 2519 3181 
L 3250 3181 
L 3250 2784 
L 2059 2784 
L 2059 2216 
L 3184 2216 
L 3184 1831 
L 2059 1831 
L 2059 1544 
Q 2613 1197 3031 847 
L 2781 456 
Q 2472 791 2059 1128 
L 2059 -447 
L 1644 -447 
L 1644 1294 
Q 1272 628 575 -31 
L 269 341 
Q 1041 938 1528 1831 
L 453 1831 
L 453 2216 
L 1644 2216 
L 1644 2784 
L 319 2784 
L 319 3181 
L 1125 3181 
Q 1013 3706 881 4069 
L 453 4069 
L 453 4453 
L 1631 4453 
L 1631 5309 
L 2072 5309 
L 2072 4453 
L 3166 4453 
L 3166 4069 
L 2822 4069 
z
M 2391 4069 
L 1325 4069 
Q 1450 3672 1534 3181 
L 2109 3181 
Q 2294 3659 2391 4069 
z
" transform="scale(0.015625)"/>
     <path id="IPAexGothic-65e5" d="M 5231 4800 
L 5231 -288 
L 4744 -288 
L 4744 128 
L 1647 128 
L 1647 -288 
L 1159 -288 
L 1159 4800 
L 5231 4800 
z
M 1647 4372 
L 1647 2731 
L 4744 2731 
L 4744 4372 
L 1647 4372 
z
M 1647 2297 
L 1647 556 
L 4744 556 
L 4744 2297 
L 1647 2297 
z
" transform="scale(0.015625)"/>
     <path id="IPAexGothic-6642" d="M 2328 4728 
L 2328 563 
L 934 563 
L 934 56 
L 519 56 
L 519 4728 
L 2328 4728 
z
M 934 4331 
L 934 2881 
L 1906 2881 
L 1906 4331 
L 934 4331 
z
M 934 2497 
L 934 953 
L 1906 953 
L 1906 2497 
L 934 2497 
z
M 3938 4372 
L 3938 5313 
L 4378 5313 
L 4378 4372 
L 5772 4372 
L 5772 3981 
L 4378 3981 
L 4378 3194 
L 6072 3194 
L 6072 2803 
L 5203 2803 
L 5203 2047 
L 5959 2047 
L 5959 1650 
L 5216 1650 
L 5216 31 
Q 5216 -447 4691 -447 
Q 4394 -447 3888 -391 
L 3784 78 
Q 4272 0 4591 0 
Q 4775 0 4775 172 
L 4775 1650 
L 2581 1650 
L 2581 2047 
L 4763 2047 
L 4763 2803 
L 2538 2803 
L 2538 3194 
L 3938 3194 
L 3938 3981 
L 2716 3981 
L 2716 4372 
L 3938 4372 
z
M 3669 384 
Q 3331 950 2956 1325 
L 3291 1575 
Q 3719 1147 4025 659 
L 3669 384 
z
" transform="scale(0.015625)"/>
     <path id="IPAexGothic-3a" d="M 1369 2559 
L 672 2559 
L 672 3250 
L 1369 3250 
L 1369 2559 
z
M 1369 63 
L 672 63 
L 672 753 
L 1369 753 
L 1369 63 
z
" transform="scale(0.015625)"/>
     <path id="IPAexGothic-20" transform="scale(0.015625)"/>
     <path id="IPAexGothic-2f" d="M 2719 4709 
L 600 -884 
L 300 -763 
L 2413 4831 
L 2719 4709 
z
" transform="scale(0.015625)"/>
     <path id="IPAexGothic-28" d="M 1928 -1016 
L 1653 -1166 
Q 488 69 488 1875 
Q 488 3678 1653 4909 
L 1928 4763 
Q 1006 3522 1006 1881 
Q 1006 203 1928 -1016 
z
" transform="scale(0.015625)"/>
     <path id="IPAexGothic-54" d="M 3866 4141 
L 2175 4141 
L 2175 63 
L 1606 63 
L 1606 4141 
L -31 4141 
L -31 4634 
L 3866 4634 
L 3866 4141 
z
" transform="scale(0.015625)"/>
     <path id="IPAexGothic-29" d="M 466 4909 
Q 1638 3672 1638 1875 
Q 1638 75 466 -1166 
L 191 -1016 
Q 1119 216 1119 1881 
Q 1119 3509 191 4763 
L 466 4909 
z
" transform="scale(0.015625)"/>
    </defs>
    <use xlink:href="#IPAexGothic-66f4"/>
    <use xlink:href="#IPAexGothic-65b0" x="100"/>
    <use xlink:href="#IPAexGothic-65e5" x="200"/>
    <use xlink:href="#IPAexGothic-6642" x="300"/>
    <use xlink:href="#IPAexGothic-3a" x="400"/>
    <use xlink:href="#IPAexGothic-20" x="431.982422"/>
    <use xlink:href="#IPAexGothic-32" x="458.984375"/>
    <use xlink:href="#IPAexGothic-30" x="521.972656"/>
    <use xlink:href="#IPAexGothic-32" x="584.960938"/>
    <use xlink:href="#IPAexGothic-33" x="647.949219"/>
    <use xlink:href="#IPAexGothic-2f" x="710.9375"/>
    <use xlink:href="#IPAexGothic-30" x="760.9375"/>
    <use xlink:href="#IPAexGothic-33" x="823.925781"/>
    <use xlink:href="#IPAexGothic-2f" x="886.914062"/>
    <use xlink:href="#IPAexGothic-32" x="936.914062"/>
    <use xlink:href="#IPAexGothic-36" x="999.902344"/>
    <use xlink:href="#IPAexGothic-20" x="1062.890625"/>
    <use xlink:href="#IPAexGothic-31" x="1089.892578"/>
    <use xlink:href="#IPAexGothic-36" x="1152.880859"/>
    <use xlink:href="#IPAexGothic-3a" x="1215.869141"/>
    <use xlink:href="#IPAexGothic-31" x="1247.851562"/>
    <use xlink:href="#IPAexGothic-32" x="1310.839844"/>
    <use xlink:href="#IPAexGothic-3a" x="1373.828125"/>
    <use xlink:href="#IPAexGothic-35" x="1405.810547"/>
    <use xlink:href="#IPAexGothic-35" x="1468.798828"/>
    <use xlink:href="#IPAexGothic-28" x="1531.787109"/>
    <use xlink:href="#IPAexGothic-4a" x="1565.087891"/>
    <use xlink:href="#IPAexGothic-53" x="1603.076172"/>
    <use xlink:href="#IPAexGothic-54" x="1661.572266"/>
    <use xlink:href="#IPAexGothic-29" x="1721.484375"/>
   </g>
  </g>
 </g>
 <defs>
  <clipPath id="p71b2e33224">
   <rect x="29.439063" y="18.879437" width="357.12" height="266.112"/>
  </clipPath>
 </defs>
</svg>
