<?xml version="1.0" encoding="utf-8" standalone="no"?>
<!DOCTYPE svg PUBLIC "-//W3C//DTD SVG 1.1//EN"
  "http://www.w3.org/Graphics/SVG/1.1/DTD/svg11.dtd">
<svg xmlns:xlink="http://www.w3.org/1999/xlink" width="400.271201pt" height="308.582062pt" viewBox="0 0 400.271201 308.582062" xmlns="http://www.w3.org/2000/svg" version="1.1">
 <metadata>
  <rdf:RDF xmlns:dc="http://purl.org/dc/elements/1.1/" xmlns:cc="http://creativecommons.org/ns#" xmlns:rdf="http://www.w3.org/1999/02/22-rdf-syntax-ns#">
   <cc:Work>
    <dc:type rdf:resource="http://purl.org/dc/dcmitype/StillImage"/>
    <dc:date>2023-03-02T07:15:21.444266</dc:date>
    <dc:format>image/svg+xml</dc:format>
    <dc:creator>
     <cc:Agent>
      <dc:title>Matplotlib v3.7.0, https://matplotlib.org/</dc:title>
     </cc:Agent>
    </dc:creator>
   </cc:Work>
  </rdf:RDF>
 </metadata>
 <defs>
  <style type="text/css">*{stroke-linejoin: round; stroke-linecap: butt}</style>
 </defs>
 <g id="figure_1">
  <g id="patch_1">
   <path d="M 0 308.582062 
L 400.271201 308.582062 
L 400.271201 0 
L 0 0 
z
" style="fill: #ffffff"/>
  </g>
  <g id="axes_1">
   <g id="patch_2">
    <path d="M 29.439063 284.991437 
L 386.559062 284.991437 
L 386.559062 18.879437 
L 29.439063 18.879437 
z
" style="fill: #ffffff"/>
   </g>
   <g id="line2d_1">
    <path d="M 29.439063 211.199039 
L 386.559062 211.199039 
" clip-path="url(#p148e5ae496)" style="fill: none; stroke: #000000; stroke-linecap: square"/>
   </g>
   <g id="matplotlib.axis_1">
    <g id="xtick_1">
     <g id="line2d_2">
      <defs>
       <path id="m8efb10eb3d" d="M 0 0 
L 0 3.5 
" style="stroke: #000000; stroke-width: 0.8"/>
      </defs>
      <g>
       <use xlink:href="#m8efb10eb3d" x="29.439063" y="284.991437" style="stroke: #000000; stroke-width: 0.8"/>
      </g>
     </g>
     <g id="text_1">
      <!-- Jun -->
      <g transform="translate(21.499219 299.482062) scale(0.1 -0.1)">
       <defs>
        <path id="IPAexGothic-4a" d="M 1819 4634 
L 1819 1234 
Q 1819 -31 763 -31 
Q 303 -31 -125 209 
L 84 644 
Q 378 447 694 447 
Q 1250 447 1250 1203 
L 1250 4634 
L 1819 4634 
z
" transform="scale(0.015625)"/>
        <path id="IPAexGothic-75" d="M 3284 63 
L 2772 63 
L 2772 644 
Q 2300 0 1625 0 
Q 1072 0 763 375 
Q 519 678 519 1241 
L 519 3250 
L 1069 3250 
L 1069 1259 
Q 1069 466 1734 466 
Q 2406 466 2734 1291 
L 2734 3250 
L 3284 3250 
L 3284 63 
z
" transform="scale(0.015625)"/>
        <path id="IPAexGothic-6e" d="M 3328 63 
L 2778 63 
L 2778 2041 
Q 2778 2853 2106 2853 
Q 1428 2853 1113 2041 
L 1113 63 
L 563 63 
L 563 3250 
L 1075 3250 
L 1075 2675 
Q 1525 3316 2222 3316 
Q 3328 3316 3328 2072 
L 3328 63 
z
" transform="scale(0.015625)"/>
       </defs>
       <use xlink:href="#IPAexGothic-4a"/>
       <use xlink:href="#IPAexGothic-75" x="37.988281"/>
       <use xlink:href="#IPAexGothic-6e" x="98.388672"/>
      </g>
     </g>
    </g>
    <g id="xtick_2">
     <g id="line2d_3">
      <g>
       <use xlink:href="#m8efb10eb3d" x="68.397608" y="284.991437" style="stroke: #000000; stroke-width: 0.8"/>
      </g>
     </g>
     <g id="text_2">
      <!-- Jul -->
      <g transform="translate(62.128077 299.482062) scale(0.1 -0.1)">
       <defs>
        <path id="IPAexGothic-6c" d="M 1131 63 
L 581 63 
L 581 4794 
L 1131 4794 
L 1131 63 
z
" transform="scale(0.015625)"/>
       </defs>
       <use xlink:href="#IPAexGothic-4a"/>
       <use xlink:href="#IPAexGothic-75" x="37.988281"/>
       <use xlink:href="#IPAexGothic-6c" x="98.388672"/>
      </g>
     </g>
    </g>
    <g id="xtick_3">
     <g id="line2d_4">
      <g>
       <use xlink:href="#m8efb10eb3d" x="108.654772" y="284.991437" style="stroke: #000000; stroke-width: 0.8"/>
      </g>
     </g>
     <g id="text_3">
      <!-- Aug -->
      <g transform="translate(99.67274 299.42425) scale(0.1 -0.1)">
       <defs>
        <path id="IPAexGothic-41" d="M 4056 63 
L 3444 63 
L 2938 1409 
L 1100 1409 
L 603 63 
L -6 63 
L 1806 4666 
L 2259 4666 
L 4056 63 
z
M 2778 1863 
L 2316 3078 
Q 2125 3588 2028 4000 
L 2009 4000 
Q 1897 3563 1716 3078 
L 1263 1863 
L 2778 1863 
z
" transform="scale(0.015625)"/>
        <path id="IPAexGothic-67" d="M 1331 1150 
Q 1006 1122 1006 900 
Q 1006 613 1763 575 
L 2131 556 
Q 3303 497 3303 -294 
Q 3303 -700 2925 -959 
Q 2519 -1253 1794 -1253 
Q 1138 -1253 738 -1028 
Q 353 -809 353 -428 
Q 353 84 1075 247 
L 1075 269 
Q 506 413 506 778 
Q 506 1116 994 1297 
Q 456 1575 456 2181 
Q 456 2650 769 2963 
Q 1128 3322 1738 3322 
Q 2125 3322 2422 3153 
Q 2650 3453 3259 3463 
L 3259 3013 
Q 2838 3003 2703 2938 
Q 3034 2613 3034 2169 
Q 3034 1728 2734 1425 
Q 2400 1094 1813 1094 
Q 1563 1094 1331 1150 
z
M 1734 2919 
Q 1409 2919 1197 2706 
Q 988 2497 988 2181 
Q 988 1872 1184 1684 
Q 1397 1472 1756 1472 
Q 2094 1472 2297 1678 
Q 2503 1881 2503 2203 
Q 2503 2497 2297 2700 
Q 2081 2919 1734 2919 
z
M 1753 159 
Q 903 159 903 -366 
Q 903 -875 1800 -875 
Q 2378 -875 2638 -606 
Q 2772 -481 2772 -313 
Q 2772 159 1753 159 
z
" transform="scale(0.015625)"/>
       </defs>
       <use xlink:href="#IPAexGothic-41"/>
       <use xlink:href="#IPAexGothic-75" x="63.720703"/>
       <use xlink:href="#IPAexGothic-67" x="124.121094"/>
      </g>
     </g>
    </g>
    <g id="xtick_4">
     <g id="line2d_5">
      <g>
       <use xlink:href="#m8efb10eb3d" x="148.911935" y="284.991437" style="stroke: #000000; stroke-width: 0.8"/>
      </g>
     </g>
     <g id="text_4">
      <!-- Sep -->
      <g transform="translate(140.036935 299.482062) scale(0.1 -0.1)">
       <defs>
        <path id="IPAexGothic-53" d="M 2919 3641 
Q 2563 4259 1853 4259 
Q 1453 4259 1213 4009 
Q 1028 3803 1028 3534 
Q 1028 3238 1266 3047 
Q 1444 2913 1984 2688 
L 2200 2597 
Q 2925 2306 3191 1953 
Q 3422 1644 3422 1259 
Q 3422 644 2969 288 
Q 2559 -31 1931 -31 
Q 881 -31 313 766 
L 753 1100 
Q 1203 459 1938 459 
Q 2288 459 2534 625 
Q 2841 847 2841 1216 
Q 2841 1503 2616 1728 
Q 2375 1959 1728 2206 
L 1541 2278 
Q 453 2694 453 3481 
Q 453 4006 806 4347 
Q 1203 4725 1863 4725 
Q 2841 4725 3359 3956 
L 2919 3641 
z
" transform="scale(0.015625)"/>
        <path id="IPAexGothic-65" d="M 863 1594 
Q 891 1041 1209 722 
Q 1534 397 1997 397 
Q 2606 397 2963 966 
L 3322 728 
Q 2869 -31 1931 -31 
Q 1222 -31 766 422 
Q 306 884 306 1641 
Q 306 2444 788 2925 
Q 1216 3353 1856 3353 
Q 2459 3353 2866 2956 
Q 3322 2494 3322 1722 
L 3322 1594 
L 863 1594 
z
M 2756 1997 
Q 2709 2431 2450 2681 
Q 2194 2938 1844 2938 
Q 1438 2938 1150 2591 
Q 953 2356 894 1997 
L 2756 1997 
z
" transform="scale(0.015625)"/>
        <path id="IPAexGothic-70" d="M 1075 2688 
Q 1525 3341 2206 3341 
Q 2769 3341 3172 2938 
Q 3641 2469 3641 1644 
Q 3641 841 3178 372 
Q 2775 -31 2200 -31 
Q 1569 -31 1106 497 
L 1106 -1216 
L 563 -1216 
L 563 3250 
L 1075 3250 
L 1075 2688 
z
M 1106 1950 
L 1106 1291 
Q 1106 897 1516 600 
Q 1791 403 2106 403 
Q 2469 403 2725 659 
Q 3066 997 3066 1631 
Q 3066 2200 2784 2559 
Q 2503 2900 2100 2900 
Q 1656 2900 1338 2484 
Q 1106 2184 1106 1950 
z
" transform="scale(0.015625)"/>
       </defs>
       <use xlink:href="#IPAexGothic-53"/>
       <use xlink:href="#IPAexGothic-65" x="58.496094"/>
       <use xlink:href="#IPAexGothic-70" x="115.380859"/>
      </g>
     </g>
    </g>
    <g id="xtick_5">
     <g id="line2d_6">
      <g>
       <use xlink:href="#m8efb10eb3d" x="187.870481" y="284.991437" style="stroke: #000000; stroke-width: 0.8"/>
      </g>
     </g>
     <g id="text_5">
      <!-- Oct -->
      <g transform="translate(179.435324 299.482062) scale(0.1 -0.1)">
       <defs>
        <path id="IPAexGothic-4f" d="M 2541 4725 
Q 3456 4725 4044 4138 
Q 4709 3472 4709 2331 
Q 4709 1219 4031 550 
Q 3450 -31 2541 -31 
Q 1638 -31 1056 550 
Q 378 1219 378 2356 
Q 378 3469 1044 4138 
Q 1631 4725 2541 4725 
z
M 2541 4266 
Q 1953 4266 1531 3844 
Q 994 3303 994 2350 
Q 994 1391 1531 863 
Q 1947 447 2541 447 
Q 3131 447 3556 863 
Q 4094 1400 4094 2375 
Q 4094 3297 3550 3844 
Q 3138 4266 2541 4266 
z
" transform="scale(0.015625)"/>
        <path id="IPAexGothic-63" d="M 3269 784 
Q 2834 -31 1900 -31 
Q 1228 -31 788 409 
Q 313 891 313 1663 
Q 313 2428 788 2913 
Q 1222 3347 1881 3347 
Q 2813 3347 3206 2541 
L 2763 2309 
Q 2484 2900 1900 2900 
Q 1516 2900 1234 2619 
Q 881 2266 881 1650 
Q 881 1069 1222 728 
Q 1522 428 1956 428 
Q 2547 428 2847 1016 
L 3269 784 
z
" transform="scale(0.015625)"/>
        <path id="IPAexGothic-74" d="M 2125 241 
Q 1769 -6 1397 -6 
Q 653 -6 653 831 
L 653 2859 
L 219 2859 
L 219 3250 
L 653 3250 
L 653 3966 
L 1178 4228 
L 1178 3250 
L 2063 3250 
L 2063 2859 
L 1178 2859 
L 1178 906 
Q 1178 416 1513 416 
Q 1738 416 1941 588 
L 2125 241 
z
" transform="scale(0.015625)"/>
       </defs>
       <use xlink:href="#IPAexGothic-4f"/>
       <use xlink:href="#IPAexGothic-63" x="79.6875"/>
       <use xlink:href="#IPAexGothic-74" x="134.082031"/>
      </g>
     </g>
    </g>
    <g id="xtick_6">
     <g id="line2d_7">
      <g>
       <use xlink:href="#m8efb10eb3d" x="228.127644" y="284.991437" style="stroke: #000000; stroke-width: 0.8"/>
      </g>
     </g>
     <g id="text_6">
      <!-- Nov -->
      <g transform="translate(218.879207 299.482062) scale(0.1 -0.1)">
       <defs>
        <path id="IPAexGothic-4e" d="M 4244 63 
L 3731 63 
L 1697 3150 
Q 1466 3500 1141 4097 
L 1116 4097 
L 1128 3797 
Q 1159 2803 1159 2469 
L 1159 63 
L 609 63 
L 609 4634 
L 1366 4634 
L 3113 1978 
Q 3453 1447 3713 966 
L 3738 966 
Q 3694 1897 3694 2469 
L 3694 4634 
L 4244 4634 
L 4244 63 
z
" transform="scale(0.015625)"/>
        <path id="IPAexGothic-6f" d="M 1919 3341 
Q 2594 3341 3056 2888 
Q 3531 2413 3531 1638 
Q 3531 888 3066 422 
Q 2609 -31 1919 -31 
Q 1228 -31 781 416 
Q 313 881 313 1656 
Q 313 2413 788 2888 
Q 1241 3341 1919 3341 
z
M 1919 2919 
Q 1519 2919 1241 2631 
Q 888 2278 888 1650 
Q 888 1031 1234 684 
Q 1516 403 1919 403 
Q 2331 403 2609 691 
Q 2956 1038 2956 1672 
Q 2956 2269 2603 2631 
Q 2316 2919 1919 2919 
z
" transform="scale(0.015625)"/>
        <path id="IPAexGothic-76" d="M 3103 3250 
L 1747 6 
L 1375 6 
L 25 3250 
L 628 3250 
L 1338 1388 
L 1522 844 
L 1569 703 
L 1588 703 
Q 1641 884 1822 1388 
L 2516 3250 
L 3103 3250 
z
" transform="scale(0.015625)"/>
       </defs>
       <use xlink:href="#IPAexGothic-4e"/>
       <use xlink:href="#IPAexGothic-6f" x="75.976562"/>
       <use xlink:href="#IPAexGothic-76" x="136.376953"/>
      </g>
     </g>
    </g>
    <g id="xtick_7">
     <g id="line2d_8">
      <g>
       <use xlink:href="#m8efb10eb3d" x="267.08619" y="284.991437" style="stroke: #000000; stroke-width: 0.8"/>
      </g>
     </g>
     <g id="text_7">
      <!-- Dec -->
      <g transform="translate(257.737752 299.482062) scale(0.1 -0.1)">
       <defs>
        <path id="IPAexGothic-44" d="M 609 4634 
L 1984 4634 
Q 3159 4634 3791 4050 
Q 4456 3444 4456 2356 
Q 4456 1047 3516 441 
Q 2925 63 1941 63 
L 609 63 
L 609 4634 
z
M 1172 556 
L 1894 556 
Q 3853 556 3853 2356 
Q 3853 4147 1928 4147 
L 1172 4147 
L 1172 556 
z
" transform="scale(0.015625)"/>
       </defs>
       <use xlink:href="#IPAexGothic-44"/>
       <use xlink:href="#IPAexGothic-65" x="75.683594"/>
       <use xlink:href="#IPAexGothic-63" x="132.568359"/>
      </g>
     </g>
    </g>
    <g id="xtick_8">
     <g id="line2d_9">
      <g>
       <use xlink:href="#m8efb10eb3d" x="307.343353" y="284.991437" style="stroke: #000000; stroke-width: 0.8"/>
      </g>
     </g>
     <g id="text_8">
      <!-- 2023 -->
      <g transform="translate(294.746478 299.482062) scale(0.1 -0.1)">
       <defs>
        <path id="IPAexGothic-32" d="M 3659 63 
L 447 63 
L 447 594 
Q 825 1475 1894 2203 
L 2072 2322 
Q 2619 2697 2791 2906 
Q 2988 3153 2988 3444 
Q 2988 3772 2756 4003 
Q 2500 4259 2084 4259 
Q 1250 4259 991 3328 
L 497 3506 
Q 853 4725 2116 4725 
Q 2806 4725 3216 4316 
Q 3575 3947 3575 3425 
Q 3575 3038 3344 2722 
Q 3131 2416 2366 1938 
L 2231 1856 
Q 1256 1253 978 569 
L 3659 569 
L 3659 63 
z
" transform="scale(0.015625)"/>
        <path id="IPAexGothic-30" d="M 2038 4725 
Q 2881 4725 3334 3944 
Q 3694 3325 3694 2344 
Q 3694 1372 3334 741 
Q 2888 -31 2016 -31 
Q 1147 -31 700 741 
Q 341 1372 341 2350 
Q 341 3713 1000 4334 
Q 1419 4725 2038 4725 
z
M 2016 4266 
Q 1516 4266 1228 3759 
Q 934 3247 934 2344 
Q 934 1456 1222 947 
Q 1513 447 2016 447 
Q 2619 447 2909 1153 
Q 3100 1622 3100 2375 
Q 3100 3256 2806 3759 
Q 2509 4266 2016 4266 
z
" transform="scale(0.015625)"/>
        <path id="IPAexGothic-33" d="M 2381 2419 
Q 3506 2216 3506 1278 
Q 3506 716 3128 356 
Q 2709 -31 1944 -31 
Q 797 -31 288 881 
L 756 1131 
Q 1109 441 1938 441 
Q 2425 441 2694 691 
Q 2950 928 2950 1291 
Q 2950 1719 2566 1978 
Q 2216 2213 1644 2213 
L 1363 2213 
L 1363 2669 
L 1656 2669 
Q 2231 2669 2534 2888 
Q 2859 3119 2859 3509 
Q 2859 3934 2494 4138 
Q 2259 4278 1931 4278 
Q 1238 4278 903 3578 
L 434 3803 
Q 897 4725 1938 4725 
Q 2597 4725 3006 4394 
Q 3416 4069 3416 3534 
Q 3416 3028 3019 2706 
Q 2763 2500 2381 2444 
L 2381 2419 
z
" transform="scale(0.015625)"/>
       </defs>
       <use xlink:href="#IPAexGothic-32"/>
       <use xlink:href="#IPAexGothic-30" x="62.988281"/>
       <use xlink:href="#IPAexGothic-32" x="125.976562"/>
       <use xlink:href="#IPAexGothic-33" x="188.964844"/>
      </g>
     </g>
    </g>
    <g id="xtick_9">
     <g id="line2d_10">
      <g>
       <use xlink:href="#m8efb10eb3d" x="347.600517" y="284.991437" style="stroke: #000000; stroke-width: 0.8"/>
      </g>
     </g>
     <g id="text_9">
      <!-- Feb -->
      <g transform="translate(338.77708 299.482062) scale(0.1 -0.1)">
       <defs>
        <path id="IPAexGothic-46" d="M 3469 4141 
L 1172 4141 
L 1172 2656 
L 3206 2656 
L 3206 2188 
L 1172 2188 
L 1172 63 
L 609 63 
L 609 4634 
L 3469 4634 
L 3469 4141 
z
" transform="scale(0.015625)"/>
        <path id="IPAexGothic-62" d="M 1125 2731 
Q 1550 3341 2219 3341 
Q 2788 3341 3191 2938 
Q 3659 2469 3659 1644 
Q 3659 838 3191 372 
Q 2788 -31 2206 -31 
Q 1559 -31 1088 516 
L 1009 44 
L 581 44 
L 581 4794 
L 1125 4794 
L 1125 2731 
z
M 1125 1997 
L 1125 1253 
Q 1125 888 1528 600 
Q 1803 403 2119 403 
Q 2488 403 2744 659 
Q 3084 1009 3084 1631 
Q 3084 2194 2803 2553 
Q 2525 2900 2125 2900 
Q 1759 2900 1438 2578 
Q 1125 2266 1125 1997 
z
" transform="scale(0.015625)"/>
       </defs>
       <use xlink:href="#IPAexGothic-46"/>
       <use xlink:href="#IPAexGothic-65" x="57.177734"/>
       <use xlink:href="#IPAexGothic-62" x="114.0625"/>
      </g>
     </g>
    </g>
    <g id="xtick_10">
     <g id="line2d_11">
      <g>
       <use xlink:href="#m8efb10eb3d" x="383.961826" y="284.991437" style="stroke: #000000; stroke-width: 0.8"/>
      </g>
     </g>
     <g id="text_10">
      <!-- Mar -->
      <g transform="translate(374.852451 299.482062) scale(0.1 -0.1)">
       <defs>
        <path id="IPAexGothic-4d" d="M 5147 63 
L 4597 63 
L 4597 2534 
Q 4597 3281 4634 4134 
L 4609 4134 
Q 4356 3409 4066 2675 
L 3066 209 
L 2650 209 
L 1641 2725 
Q 1328 3506 1128 4141 
L 1103 4141 
Q 1141 3131 1141 2553 
L 1141 63 
L 609 63 
L 609 4634 
L 1416 4634 
L 2503 1944 
Q 2697 1472 2869 906 
L 2888 906 
Q 3028 1416 3234 1931 
L 4316 4634 
L 5147 4634 
L 5147 63 
z
" transform="scale(0.015625)"/>
        <path id="IPAexGothic-61" d="M 3156 63 
L 2672 63 
Q 2559 303 2531 556 
L 2509 556 
Q 2147 -25 1428 -25 
Q 934 -25 622 288 
Q 347 563 347 959 
Q 347 1947 2050 1997 
L 2478 2009 
L 2478 2175 
Q 2478 2509 2288 2700 
Q 2088 2900 1775 2900 
Q 1238 2900 969 2378 
L 494 2597 
Q 938 3328 1788 3328 
Q 2375 3328 2691 3000 
Q 2984 2706 2984 2169 
L 2984 997 
Q 2984 400 3156 63 
z
M 2491 1625 
L 2141 1619 
Q 903 1591 903 953 
Q 903 728 1050 581 
Q 1231 403 1525 403 
Q 1934 403 2234 703 
Q 2491 969 2491 1344 
L 2491 1625 
z
" transform="scale(0.015625)"/>
        <path id="IPAexGothic-72" d="M 2309 3316 
L 2213 2769 
Q 2106 2791 2022 2791 
Q 1653 2791 1413 2444 
Q 1113 2006 1113 1675 
L 1113 63 
L 563 63 
L 563 3250 
L 1081 3250 
L 1056 2303 
L 1069 2303 
Q 1422 3341 2097 3341 
Q 2206 3341 2309 3316 
z
" transform="scale(0.015625)"/>
       </defs>
       <use xlink:href="#IPAexGothic-4d"/>
       <use xlink:href="#IPAexGothic-61" x="90.185547"/>
       <use xlink:href="#IPAexGothic-72" x="145.166016"/>
      </g>
     </g>
    </g>
   </g>
   <g id="matplotlib.axis_2">
    <g id="ytick_1">
     <g id="line2d_12">
      <defs>
       <path id="md4f363cd9c" d="M 0 0 
L -3.5 0 
" style="stroke: #000000; stroke-width: 0.8"/>
      </defs>
      <g>
       <use xlink:href="#md4f363cd9c" x="29.439063" y="269.014637" style="stroke: #000000; stroke-width: 0.8"/>
      </g>
     </g>
     <g id="text_11">
      <!-- 0.5 -->
      <g transform="translate(7.2 272.759949) scale(0.1 -0.1)">
       <defs>
        <path id="IPAexGothic-2e" d="M 1184 63 
L 494 63 
L 494 753 
L 1184 753 
L 1184 63 
z
" transform="scale(0.015625)"/>
        <path id="IPAexGothic-35" d="M 1178 2603 
Q 1634 2963 2172 2963 
Q 2816 2963 3241 2528 
Q 3638 2113 3638 1497 
Q 3638 938 3297 513 
Q 2869 -31 2031 -31 
Q 959 -31 469 784 
L 938 1028 
Q 1309 434 2013 434 
Q 2466 434 2769 716 
Q 3081 1013 3081 1503 
Q 3081 1966 2806 2241 
Q 2519 2528 2056 2528 
Q 1406 2528 1072 2028 
L 591 2091 
L 884 4634 
L 3406 4634 
L 3406 4153 
L 1341 4153 
L 1134 2603 
L 1178 2603 
z
" transform="scale(0.015625)"/>
       </defs>
       <use xlink:href="#IPAexGothic-30"/>
       <use xlink:href="#IPAexGothic-2e" x="62.988281"/>
       <use xlink:href="#IPAexGothic-35" x="89.404297"/>
      </g>
     </g>
    </g>
    <g id="ytick_2">
     <g id="line2d_13">
      <g>
       <use xlink:href="#md4f363cd9c" x="29.439063" y="211.199039" style="stroke: #000000; stroke-width: 0.8"/>
      </g>
     </g>
     <g id="text_12">
      <!-- 1.0 -->
      <g transform="translate(7.2 214.944352) scale(0.1 -0.1)">
       <defs>
        <path id="IPAexGothic-31" d="M 2463 63 
L 1900 63 
L 1900 4103 
Q 1372 3922 788 3797 
L 684 4231 
Q 1519 4441 2106 4731 
L 2463 4731 
L 2463 63 
z
" transform="scale(0.015625)"/>
       </defs>
       <use xlink:href="#IPAexGothic-31"/>
       <use xlink:href="#IPAexGothic-2e" x="62.988281"/>
       <use xlink:href="#IPAexGothic-30" x="89.404297"/>
      </g>
     </g>
    </g>
    <g id="ytick_3">
     <g id="line2d_14">
      <g>
       <use xlink:href="#md4f363cd9c" x="29.439063" y="153.383442" style="stroke: #000000; stroke-width: 0.8"/>
      </g>
     </g>
     <g id="text_13">
      <!-- 1.5 -->
      <g transform="translate(7.2 157.128754) scale(0.1 -0.1)">
       <use xlink:href="#IPAexGothic-31"/>
       <use xlink:href="#IPAexGothic-2e" x="62.988281"/>
       <use xlink:href="#IPAexGothic-35" x="89.404297"/>
      </g>
     </g>
    </g>
    <g id="ytick_4">
     <g id="line2d_15">
      <g>
       <use xlink:href="#md4f363cd9c" x="29.439063" y="95.567844" style="stroke: #000000; stroke-width: 0.8"/>
      </g>
     </g>
     <g id="text_14">
      <!-- 2.0 -->
      <g transform="translate(7.2 99.313157) scale(0.1 -0.1)">
       <use xlink:href="#IPAexGothic-32"/>
       <use xlink:href="#IPAexGothic-2e" x="62.988281"/>
       <use xlink:href="#IPAexGothic-30" x="89.404297"/>
      </g>
     </g>
    </g>
    <g id="ytick_5">
     <g id="line2d_16">
      <g>
       <use xlink:href="#md4f363cd9c" x="29.439063" y="37.752247" style="stroke: #000000; stroke-width: 0.8"/>
      </g>
     </g>
     <g id="text_15">
      <!-- 2.5 -->
      <g transform="translate(7.2 41.497559) scale(0.1 -0.1)">
       <use xlink:href="#IPAexGothic-32"/>
       <use xlink:href="#IPAexGothic-2e" x="62.988281"/>
       <use xlink:href="#IPAexGothic-35" x="89.404297"/>
      </g>
     </g>
    </g>
   </g>
   <g id="line2d_17">
    <path d="M 29.439063 227.411867 
L 30.737681 255.471758 
L 32.036299 269.405805 
L 33.334917 242.945807 
L 34.633535 262.441258 
L 37.230772 251.639145 
L 38.52939 227.514621 
L 39.828008 229.940841 
L 41.126626 194.078383 
L 42.425244 246.403784 
L 43.723863 250.411663 
L 45.022481 205.84664 
L 46.321099 249.191321 
L 47.619717 272.895437 
L 48.918335 243.090535 
L 50.216953 247.559579 
L 51.515572 238.429093 
L 52.81419 112.810292 
L 54.112808 184.323192 
L 55.411426 181.498781 
L 56.710044 30.975437 
L 59.307281 168.571026 
L 60.605899 110.868109 
L 61.904517 213.126183 
L 63.203135 156.293505 
L 64.501753 124.518024 
L 65.800372 151.875457 
L 67.09899 236.751655 
L 68.397608 106.655378 
L 69.696226 51.387485 
L 70.994844 102.788184 
L 72.293463 95.926279 
L 73.592081 36.542983 
L 74.890699 79.37836 
L 76.189317 35.439549 
L 77.487935 110.396771 
L 78.786553 116.980214 
L 80.085172 109.726148 
L 81.38379 177.160719 
L 82.682408 110.814502 
L 83.981026 153.702013 
L 85.279644 148.460822 
L 86.578263 164.812112 
L 87.876881 190.526245 
L 89.175499 181.526351 
L 90.474117 197.096587 
L 91.772735 219.976945 
L 93.071353 163.710275 
L 94.369972 173.022011 
L 95.66859 196.817697 
L 96.967208 179.527296 
L 98.265826 191.661352 
L 99.564444 192.887858 
L 100.863063 173.15897 
L 102.161681 188.50237 
L 103.460299 201.809366 
L 104.758917 195.197746 
L 106.057535 183.412435 
L 107.356153 192.046725 
L 108.654772 204.737627 
L 109.95339 199.025674 
L 111.252008 189.016626 
L 112.550626 185.809755 
L 113.849244 182.941981 
L 115.147863 200.02008 
L 116.446481 192.032303 
L 117.745099 181.775482 
L 119.043717 186.871327 
L 120.342335 193.9839 
L 121.640953 204.601463 
L 122.939572 225.669065 
L 124.23819 207.989558 
L 125.536808 218.057369 
L 126.835426 204.232725 
L 128.134044 217.282458 
L 129.432663 202.720535 
L 130.731281 195.141529 
L 132.029899 153.461242 
L 133.328517 171.531238 
L 134.627135 185.828914 
L 135.925753 204.950127 
L 137.224372 187.736367 
L 138.52299 211.671324 
L 139.821608 216.92144 
L 141.120226 231.587854 
L 142.418844 248.509599 
L 143.717463 240.826108 
L 145.016081 241.29957 
L 146.314699 247.072575 
L 147.613317 251.367839 
L 148.911935 251.669425 
L 150.210553 251.785215 
L 151.509172 242.900107 
L 152.80779 251.663262 
L 154.106408 241.186243 
L 155.405026 228.929625 
L 156.703644 240.670472 
L 158.002263 239.689961 
L 159.300881 228.587222 
L 160.599499 234.114512 
L 161.898117 220.053728 
L 163.196735 221.634093 
L 164.495353 247.789493 
L 165.793972 250.578039 
L 167.09259 230.847867 
L 168.391208 240.571341 
L 169.689826 229.667605 
L 170.988444 228.965012 
L 172.287063 226.507 
L 173.585681 266.267581 
L 174.884299 173.994674 
L 176.182917 228.352097 
L 177.481535 212.968149 
L 178.780153 243.863512 
L 180.078772 195.951487 
L 181.37739 187.500784 
L 182.676008 195.32975 
L 183.974626 238.855842 
L 185.273244 224.563828 
L 186.571863 239.674853 
L 187.870481 205.067187 
L 189.169099 219.657973 
L 190.467717 258.893645 
L 191.766335 189.095647 
L 193.064953 231.988543 
L 194.363572 230.452082 
L 195.66219 208.848889 
L 196.960808 214.413367 
L 198.259426 237.774657 
L 199.558044 208.216448 
L 200.856663 269.328924 
L 202.155281 186.857034 
L 203.453899 168.652783 
L 204.752517 211.199039 
L 206.051135 197.903063 
L 207.349753 190.42842 
L 208.648372 209.746404 
L 209.94699 135.123595 
L 211.245608 212.926136 
L 212.544226 239.34414 
L 213.842844 184.631705 
L 215.141463 193.892671 
L 216.440081 220.351516 
L 217.738699 197.002011 
L 219.037317 191.634272 
L 220.335935 213.253557 
L 221.634553 183.049443 
L 222.933172 199.198481 
L 224.23179 190.346771 
L 225.530408 160.309806 
L 226.829026 189.784075 
L 228.127644 198.104074 
L 229.426263 152.110827 
L 230.724881 152.9204 
L 232.023499 232.748365 
L 233.322117 165.024121 
L 234.620735 194.085734 
L 235.919353 199.838398 
L 237.217972 173.564927 
L 238.51659 209.205445 
L 239.815208 206.690562 
L 241.113826 156.249641 
L 242.412444 220.402577 
L 243.711063 215.284532 
L 245.009681 225.924092 
L 246.308299 188.099011 
L 247.606917 185.511636 
L 248.905535 211.199039 
L 250.204153 194.160213 
L 251.502772 184.55213 
L 252.80139 182.799057 
L 255.398626 203.930102 
L 256.697244 168.757197 
L 257.995863 220.491359 
L 259.294481 171.577359 
L 261.891717 192.11637 
L 263.190335 204.402838 
L 264.488953 198.987955 
L 265.787572 181.777237 
L 267.08619 142.696764 
L 268.384808 213.580923 
L 269.683426 220.529523 
L 270.982044 204.080643 
L 272.280663 205.292279 
L 273.579281 181.962456 
L 274.877899 194.793532 
L 276.176517 197.432704 
L 277.475135 173.295964 
L 278.773753 175.045451 
L 280.072372 167.16196 
L 281.37099 187.120934 
L 282.669608 183.834422 
L 283.968226 173.778001 
L 285.266844 181.23856 
L 286.565463 201.020413 
L 287.864081 187.828789 
L 289.162699 213.66936 
L 290.461317 207.768569 
L 291.759935 207.295129 
L 293.058553 192.832229 
L 294.357172 206.958159 
L 295.65579 188.728128 
L 296.954408 193.851266 
L 298.253026 207.103197 
L 299.551644 215.224404 
L 300.850263 196.113595 
L 302.148881 220.91992 
L 303.447499 200.04709 
L 304.746117 223.444191 
L 306.044735 251.024981 
L 307.343353 228.180558 
L 308.641972 208.755181 
L 309.94059 251.311193 
L 311.239208 254.432046 
L 312.537826 215.74342 
L 313.836444 126.299141 
L 315.135063 90.185267 
L 316.433681 169.01121 
L 317.732299 202.233317 
L 319.030917 208.810336 
L 320.329535 167.736099 
L 321.628153 215.685286 
L 322.926772 255.304956 
L 324.22539 257.151057 
L 325.524008 241.910597 
L 326.822626 230.363911 
L 328.121244 201.639485 
L 329.419863 252.591109 
L 330.718481 261.202922 
L 332.017099 248.191392 
L 333.315717 245.888016 
L 334.614335 248.528538 
L 335.912953 233.937612 
L 337.211572 243.873594 
L 338.51019 245.699396 
L 339.808808 238.379427 
L 341.107426 250.421781 
L 342.406044 242.025158 
L 343.704663 235.679743 
L 345.003281 231.977605 
L 346.301899 268.725993 
L 347.600517 251.010186 
L 348.899135 243.44844 
L 350.197753 231.173865 
L 351.496372 246.470516 
L 352.79499 240.806074 
L 354.093608 205.729567 
L 355.392226 216.74151 
L 356.690844 221.239134 
L 357.989463 222.049942 
L 359.288081 236.243828 
L 360.586699 216.587974 
L 361.885317 250.056764 
L 363.183935 220.887451 
L 364.482553 228.799652 
L 365.781172 253.712581 
L 367.07979 218.850978 
L 368.378408 215.357996 
L 369.677026 237.280047 
L 370.975644 193.27922 
L 372.274263 224.105076 
L 373.572881 238.379537 
L 374.871499 241.772305 
L 376.170117 251.269511 
L 377.468735 255.03236 
L 380.065972 237.065956 
L 381.36459 226.130001 
L 382.663208 244.38679 
L 383.961826 206.157732 
L 385.260444 233.765533 
L 385.260444 233.765533 
" clip-path="url(#p148e5ae496)" style="fill: none; stroke: #1f77b4; stroke-width: 1.5; stroke-linecap: square"/>
   </g>
   <g id="line2d_18">
    <path d="M 29.439063 230.929789 
L 30.737681 242.60231 
L 32.036299 262.8168 
L 33.334917 257.425513 
L 34.633535 253.337157 
L 35.932153 259.836211 
L 37.230772 254.434415 
L 38.52939 240.414674 
L 39.828008 228.735232 
L 41.126626 213.41839 
L 42.425244 223.501825 
L 43.723863 248.433331 
L 45.022481 230.677266 
L 46.321099 229.912564 
L 47.619717 262.11981 
L 48.918335 259.625445 
L 50.216953 245.355694 
L 51.515572 243.118728 
L 52.81419 189.281671 
L 54.112808 152.189606 
L 55.411426 182.917915 
L 56.710044 119.473036 
L 58.008663 68.196709 
L 59.307281 137.669929 
L 60.605899 141.957318 
L 61.904517 170.127431 
L 63.203135 187.579679 
L 64.501753 141.084002 
L 65.800372 138.693349 
L 67.09899 201.292679 
L 68.397608 186.000414 
L 69.696226 80.567026 
L 70.994844 78.413733 
L 72.293463 99.383107 
L 73.592081 67.931655 
L 74.890699 58.815077 
L 76.189317 58.306173 
L 77.487935 75.699401 
L 78.786553 113.713912 
L 80.085172 113.383995 
L 81.38379 146.569691 
L 82.682408 147.022086 
L 83.981026 133.443524 
L 85.279644 151.100956 
L 86.578263 156.832948 
L 87.876881 178.224324 
L 89.175499 186.098223 
L 90.474117 189.532009 
L 91.772735 209.091256 
L 93.071353 194.807872 
L 94.369972 168.434555 
L 95.66859 185.419494 
L 96.967208 188.44227 
L 98.265826 185.724694 
L 99.564444 192.276003 
L 100.863063 183.362139 
L 102.161681 181.032368 
L 103.460299 195.324076 
L 104.758917 198.546144 
L 106.057535 189.431392 
L 107.356153 187.79659 
L 108.654772 198.54902 
L 109.95339 201.914295 
L 111.252008 194.115474 
L 112.550626 187.422411 
L 113.849244 184.383085 
L 115.147863 191.750659 
L 116.446481 196.087179 
L 117.745099 186.997904 
L 119.043717 184.346184 
L 120.342335 190.473981 
L 121.640953 199.403219 
L 122.939572 215.633088 
L 124.23819 217.185071 
L 125.536808 213.134848 
L 126.835426 211.351742 
L 128.134044 210.94113 
L 129.432663 210.228598 
L 130.731281 198.987184 
L 132.029899 175.731796 
L 133.328517 162.744798 
L 135.925753 195.737687 
L 137.224372 196.62741 
L 138.52299 200.268399 
L 139.821608 214.327003 
L 141.120226 224.517111 
L 142.418844 240.462163 
L 143.717463 244.757718 
L 145.016081 241.063165 
L 146.314699 244.236496 
L 147.613317 249.249927 
L 148.911935 251.518783 
L 150.210553 251.727342 
L 151.509172 247.466905 
L 152.80779 247.402446 
L 154.106408 246.595581 
L 155.405026 235.262778 
L 156.703644 234.987471 
L 158.002263 240.181603 
L 159.300881 234.304978 
L 160.599499 231.390872 
L 161.898117 227.332189 
L 163.196735 220.846856 
L 165.793972 249.196285 
L 167.09259 241.279862 
L 168.391208 235.839395 
L 169.689826 235.281663 
L 170.988444 229.316941 
L 172.287063 227.743627 
L 173.585681 248.882551 
L 174.884299 230.621466 
L 176.182917 204.147875 
L 177.481535 220.93913 
L 178.780153 229.635769 
L 180.078772 222.625721 
L 181.37739 191.792225 
L 182.676008 191.471858 
L 183.974626 219.272458 
L 185.273244 231.97864 
L 186.571863 232.42119 
L 187.870481 223.814193 
L 189.169099 212.595296 
L 190.467717 241.501939 
L 191.766335 230.097519 
L 193.064953 212.536835 
L 194.363572 231.223399 
L 195.66219 220.196168 
L 196.960808 211.66473 
L 198.259426 226.773505 
L 199.558044 224.052711 
L 200.856663 244.24423 
L 202.155281 237.116008 
L 203.453899 178.033043 
L 206.051135 204.731901 
L 207.349753 194.218394 
L 208.648372 200.456001 
L 209.94699 177.011185 
L 211.245608 179.059561 
L 212.544226 227.005264 
L 213.842844 215.29372 
L 215.141463 189.34014 
L 216.440081 207.855357 
L 217.738699 209.25497 
L 219.037317 194.345323 
L 220.335935 202.914504 
L 221.634553 199.04078 
L 222.933172 191.364392 
L 224.23179 194.846812 
L 225.530408 176.074523 
L 226.829026 175.764073 
L 228.127644 194.009205 
L 229.426263 176.860376 
L 230.724881 152.516084 
L 232.023499 198.91713 
L 233.322117 203.448625 
L 234.620735 180.273516 
L 235.919353 196.993923 
L 237.217972 187.318791 
L 238.51659 192.562593 
L 239.815208 207.954654 
L 241.113826 183.674736 
L 242.412444 192.091624 
L 243.711063 217.873602 
L 245.009681 220.737602 
L 246.308299 208.513572 
L 247.606917 186.8113 
L 248.905535 198.998945 
L 250.204153 202.972279 
L 251.502772 189.440136 
L 252.80139 183.678277 
L 254.100008 188.335204 
L 255.398626 198.897374 
L 256.697244 187.448754 
L 257.995863 197.179515 
L 259.294481 198.341262 
L 260.593099 176.894581 
L 261.891717 187.16406 
L 263.190335 198.406453 
L 264.488953 201.724689 
L 265.787572 190.654224 
L 267.08619 163.401008 
L 268.384808 182.424595 
L 269.683426 217.110216 
L 270.982044 212.600777 
L 272.280663 204.687964 
L 273.579281 194.139114 
L 274.877899 188.526714 
L 276.176517 196.119779 
L 277.475135 185.880047 
L 278.773753 174.173214 
L 280.072372 171.1536 
L 281.37099 177.474475 
L 282.669608 185.48723 
L 283.968226 178.891638 
L 285.266844 177.554882 
L 286.565463 191.49043 
L 287.864081 194.588989 
L 289.162699 201.412831 
L 290.461317 210.756455 
L 291.759935 207.532084 
L 293.058553 200.270107 
L 294.357172 200.091846 
L 295.65579 198.165608 
L 296.954408 191.313905 
L 298.253026 200.651084 
L 299.551644 211.235099 
L 300.850263 206.046382 
L 302.148881 209.168684 
L 303.447499 210.952529 
L 304.746117 212.341773 
L 306.044735 238.302243 
L 307.343353 240.353858 
L 308.641972 218.904029 
L 309.94059 232.400817 
L 311.239208 252.888083 
L 312.537826 237.150337 
L 313.836444 177.577562 
L 315.135063 108.989297 
L 316.433681 133.576313 
L 317.732299 186.602691 
L 319.030917 205.566408 
L 320.329535 189.803691 
L 321.628153 193.854637 
L 322.926772 237.669294 
L 324.22539 256.234041 
L 325.524008 249.907348 
L 326.822626 236.3212 
L 328.121244 216.936234 
L 329.419863 230.424572 
L 330.718481 257.029702 
L 332.017099 254.991137 
L 333.315717 247.048016 
L 334.614335 247.219224 
L 335.912953 241.544538 
L 337.211572 239.046068 
L 338.51019 244.791574 
L 339.808808 242.11844 
L 341.107426 244.62081 
L 342.406044 246.332876 
L 343.704663 238.909678 
L 345.003281 233.847098 
L 346.301899 252.591834 
L 347.600517 260.456547 
L 348.899135 247.319155 
L 350.197753 237.521782 
L 351.496372 239.155159 
L 352.79499 243.68652 
L 354.093608 224.763671 
L 355.392226 211.366742 
L 356.690844 219.013772 
L 357.989463 221.645319 
L 359.288081 229.405031 
L 360.586699 226.898006 
L 361.885317 234.831969 
L 363.183935 236.643788 
L 364.482553 224.92031 
L 365.781172 242.167574 
L 367.07979 237.975354 
L 368.378408 217.118387 
L 369.677026 226.918474 
L 370.975644 217.470651 
L 372.274263 209.70189 
L 373.572881 231.509136 
L 374.871499 240.092508 
L 377.468735 253.174961 
L 378.767353 250.620979 
L 380.065972 241.617658 
L 381.36459 231.755086 
L 382.663208 235.714517 
L 383.961826 227.087281 
L 385.260444 220.856887 
L 385.260444 220.856887 
" clip-path="url(#p148e5ae496)" style="fill: none; stroke: #ff7f0e; stroke-width: 1.5; stroke-linecap: square"/>
   </g>
   <g id="line2d_19">
    <path d="M 29.439063 229.122786 
L 30.737681 239.928401 
L 32.036299 252.698705 
L 33.334917 256.780278 
L 34.633535 259.139403 
L 35.932153 254.622372 
L 37.230772 257.208287 
L 38.52939 246.388486 
L 39.828008 237.055655 
L 41.126626 218.326475 
L 43.723863 233.387372 
L 45.022481 236.234427 
L 46.321099 237.293425 
L 48.918335 256.313321 
L 50.216953 255.822722 
L 51.515572 243.109331 
L 52.81419 212.36467 
L 55.411426 162.563334 
L 56.710044 143.84129 
L 58.008663 113.406318 
L 59.307281 107.256927 
L 60.605899 129.127564 
L 61.904517 169.610337 
L 63.203135 165.645532 
L 64.501753 169.115602 
L 65.800372 144.753156 
L 67.09899 179.647632 
L 68.397608 175.437505 
L 69.696226 150.710969 
L 70.994844 88.208754 
L 72.293463 84.394062 
L 73.592081 80.114816 
L 74.890699 71.804879 
L 76.189317 51.239386 
L 77.487935 76.931758 
L 78.786553 90.291085 
L 80.085172 112.392863 
L 81.38379 137.201801 
L 82.682408 135.362509 
L 83.981026 149.276885 
L 85.279644 138.58476 
L 86.578263 155.795645 
L 87.876881 168.900399 
L 91.772735 200.539182 
L 93.071353 195.575228 
L 94.369972 187.912342 
L 95.66859 178.52472 
L 96.967208 183.482093 
L 98.265826 189.523726 
L 99.564444 188.153999 
L 100.863063 186.18367 
L 102.161681 185.09643 
L 103.460299 188.315827 
L 104.758917 195.281979 
L 106.057535 193.687884 
L 107.356153 190.308761 
L 108.654772 193.689874 
L 109.95339 198.708102 
L 111.252008 197.755094 
L 112.550626 191.402728 
L 113.849244 185.944654 
L 115.147863 189.7987 
L 116.446481 191.844605 
L 117.745099 191.480812 
L 119.043717 186.955724 
L 120.342335 187.634041 
L 121.640953 195.355837 
L 122.939572 208.84012 
L 125.536808 217.476612 
L 126.835426 210.241718 
L 128.134044 213.36349 
L 129.432663 208.263285 
L 130.731281 205.402114 
L 132.029899 185.324114 
L 133.328517 174.344388 
L 134.627135 170.831497 
L 135.925753 188.120092 
L 137.224372 193.123075 
L 138.52299 201.848623 
L 139.821608 206.082407 
L 141.120226 220.402845 
L 142.418844 233.236603 
L 143.717463 240.583648 
L 145.016081 243.620823 
L 146.314699 243.114997 
L 148.911935 250.064959 
L 150.210553 251.607698 
L 151.509172 248.893225 
L 152.80779 248.891095 
L 154.106408 245.382199 
L 156.703644 237.10204 
L 158.002263 236.582508 
L 159.300881 236.477418 
L 160.599499 234.241533 
L 161.898117 227.752305 
L 163.196735 225.467971 
L 164.495353 230.718701 
L 165.793972 240.92208 
L 167.09259 243.507227 
L 168.391208 241.044337 
L 169.689826 233.826969 
L 170.988444 233.222764 
L 172.287063 228.38915 
L 173.585681 242.740121 
L 174.884299 229.269077 
L 176.182917 229.870881 
L 177.481535 207.161383 
L 178.780153 229.209749 
L 180.078772 219.501156 
L 181.37739 212.031087 
L 182.676008 192.98185 
L 183.974626 209.581314 
L 185.273244 221.065989 
L 186.571863 234.616737 
L 187.870481 224.06468 
L 189.169099 222.447011 
L 190.467717 230.764786 
L 191.766335 226.735849 
L 193.064953 230.732013 
L 194.363572 218.850986 
L 195.66219 224.281475 
L 196.960808 218.302399 
L 198.259426 221.123664 
L 199.558044 220.93512 
L 200.856663 242.141688 
L 202.155281 228.364316 
L 203.453899 218.44859 
L 204.752517 190.029585 
L 206.051135 193.727182 
L 207.349753 200.139008 
L 208.648372 199.610689 
L 209.94699 181.624175 
L 211.245608 190.09163 
L 213.842844 214.510045 
L 215.141463 208.573118 
L 216.440081 200.569432 
L 217.738699 204.342327 
L 219.037317 203.652593 
L 220.335935 200.974213 
L 221.634553 196.618162 
L 222.933172 199.093369 
L 224.23179 191.026031 
L 225.530408 184.214067 
L 226.829026 180.790352 
L 228.127644 183.611312 
L 229.426263 181.298308 
L 230.724881 169.270937 
L 232.023499 184.905831 
L 233.322117 188.492178 
L 234.620735 200.403438 
L 235.919353 187.108997 
L 237.217972 189.611924 
L 238.51659 195.033037 
L 239.815208 197.447481 
L 241.113826 192.747876 
L 242.412444 197.145102 
L 243.711063 200.314175 
L 245.009681 220.626045 
L 247.606917 201.295556 
L 248.905535 195.464272 
L 250.204153 197.405968 
L 251.502772 197.113713 
L 252.80139 187.261183 
L 254.100008 187.08549 
L 255.398626 193.741822 
L 256.697244 189.550213 
L 257.995863 199.469935 
L 259.294481 189.152671 
L 260.593099 193.119185 
L 261.891717 182.150609 
L 263.190335 193.164416 
L 264.488953 198.60058 
L 265.787572 195.400607 
L 267.08619 176.246527 
L 268.384808 182.20913 
L 269.683426 196.443074 
L 270.982044 212.928431 
L 272.280663 210.214796 
L 273.579281 197.539344 
L 274.877899 194.357613 
L 277.475135 188.916137 
L 278.773753 182.357292 
L 280.072372 171.871023 
L 281.37099 176.669151 
L 282.669608 179.625281 
L 283.968226 181.687232 
L 285.266844 179.678119 
L 286.565463 185.826618 
L 287.864081 190.280728 
L 289.162699 201.282161 
L 290.461317 203.568241 
L 291.759935 209.613962 
L 293.058553 202.82065 
L 294.357172 202.539923 
L 295.65579 196.411828 
L 296.954408 196.743275 
L 298.253026 196.795762 
L 299.551644 205.708887 
L 300.850263 206.399686 
L 302.148881 211.222913 
L 303.447499 206.203506 
L 304.746117 215.275699 
L 306.044735 227.04317 
L 307.343353 235.049338 
L 308.641972 230.893623 
L 309.94059 231.014516 
L 311.239208 240.403632 
L 312.537826 242.143466 
L 313.836444 209.55923 
L 315.135063 152.790998 
L 316.433681 131.180415 
L 317.732299 159.879638 
L 319.030917 194.434509 
L 320.329535 194.078898 
L 321.628153 199.039398 
L 322.926772 218.686553 
L 324.22539 244.703586 
L 325.524008 251.750355 
L 326.822626 243.877834 
L 328.121244 225.985777 
L 329.419863 230.404356 
L 332.017099 254.199875 
L 333.315717 252.076606 
L 335.912953 243.017663 
L 337.211572 242.328067 
L 338.51019 241.322359 
L 339.808808 242.707579 
L 341.107426 244.981923 
L 342.406044 243.764543 
L 343.704663 242.927891 
L 345.003281 236.657187 
L 346.301899 247.335431 
L 347.600517 252.068319 
L 348.899135 255.212423 
L 350.197753 242.265414 
L 351.496372 240.610269 
L 352.79499 239.708955 
L 354.093608 232.583033 
L 355.392226 222.156768 
L 356.690844 214.756056 
L 357.989463 220.03548 
L 359.288081 226.75576 
L 360.586699 225.307435 
L 361.885317 235.305016 
L 363.183935 230.400667 
L 364.482553 234.101419 
L 365.781172 235.597281 
L 367.07979 235.016415 
L 368.378408 230.998408 
L 369.677026 224.298607 
L 370.975644 216.77092 
L 372.274263 219.728418 
L 373.572881 220.168553 
L 374.871499 235.06089 
L 376.170117 243.990749 
L 377.468735 249.55491 
L 378.767353 250.837773 
L 380.065972 246.346832 
L 381.36459 236.739674 
L 382.663208 236.167242 
L 383.961826 226.769203 
L 385.260444 229.364982 
L 385.260444 229.364982 
" clip-path="url(#p148e5ae496)" style="fill: none; stroke: #2ca02c; stroke-width: 1.5; stroke-linecap: square"/>
   </g>
   <g id="line2d_20">
    <path d="M 29.439063 221.275211 
L 30.737681 236.505406 
L 32.036299 248.478994 
L 33.334917 250.372301 
L 34.633535 258.240554 
L 35.932153 258.641514 
L 37.230772 253.887849 
L 38.52939 250.742613 
L 39.828008 242.558839 
L 41.126626 227.832517 
L 42.425244 226.152528 
L 43.723863 232.537407 
L 45.022481 227.154092 
L 46.321099 239.663468 
L 47.619717 247.949949 
L 48.918335 246.12502 
L 50.216953 254.219959 
L 51.515572 251.824807 
L 52.81419 220.968504 
L 54.112808 205.919399 
L 55.411426 186.135769 
L 56.710044 136.533121 
L 58.008663 133.903952 
L 59.307281 128.780364 
L 60.605899 108.165345 
L 61.904517 154.661857 
L 63.203135 166.381937 
L 64.501753 156.222628 
L 67.09899 174.127491 
L 68.397608 164.056515 
L 69.696226 151.002816 
L 70.994844 139.788926 
L 72.293463 90.161987 
L 73.592081 73.226844 
L 74.890699 79.930908 
L 76.189317 63.162834 
L 77.487935 67.394559 
L 78.786553 87.608872 
L 80.085172 95.307164 
L 81.38379 130.829051 
L 82.682408 130.923693 
L 85.279644 149.07322 
L 86.578263 145.514995 
L 87.876881 165.230701 
L 89.175499 172.15619 
L 90.474117 183.990017 
L 91.772735 198.107108 
L 93.071353 192.195781 
L 94.369972 190.267628 
L 95.66859 190.194295 
L 96.967208 178.776002 
L 98.265826 185.572177 
L 99.564444 190.372599 
L 100.863063 184.54832 
L 102.161681 186.766963 
L 103.460299 189.473261 
L 104.758917 190.069324 
L 106.057535 192.410021 
L 109.95339 195.044354 
L 111.252008 196.351076 
L 112.550626 194.867136 
L 113.849244 189.335364 
L 115.147863 189.603599 
L 116.446481 190.360547 
L 117.745099 189.394825 
L 119.043717 190.342872 
L 120.342335 188.74688 
L 121.640953 192.084855 
L 122.939572 203.69443 
L 124.23819 208.628052 
L 125.536808 214.390906 
L 126.835426 214.306201 
L 128.134044 212.043229 
L 129.432663 210.791529 
L 130.731281 205.110817 
L 132.029899 194.096195 
L 133.328517 181.995215 
L 134.627135 177.300368 
L 135.925753 180.166067 
L 137.224372 188.02426 
L 138.52299 198.022962 
L 141.120226 213.03684 
L 142.418844 228.256977 
L 143.717463 235.194567 
L 145.016081 240.763189 
L 146.314699 244.49752 
L 147.613317 245.259188 
L 150.210553 250.498685 
L 151.509172 249.519384 
L 152.80779 249.59516 
L 154.106408 247.032432 
L 155.405026 241.548346 
L 156.703644 240.987516 
L 159.300881 234.646856 
L 160.599499 235.892398 
L 163.196735 226.256947 
L 164.495353 231.579139 
L 165.793972 236.122417 
L 167.09259 238.507266 
L 168.391208 242.782759 
L 169.689826 238.331566 
L 170.988444 232.634606 
L 172.287063 231.587191 
L 173.585681 239.646891 
L 174.884299 229.193149 
L 176.182917 229.040635 
L 177.481535 225.896331 
L 178.780153 217.632953 
L 180.078772 221.78581 
L 181.37739 212.266073 
L 182.676008 208.065956 
L 183.974626 206.313066 
L 185.273244 213.521109 
L 186.571863 226.061058 
L 187.870481 227.980673 
L 189.169099 222.980288 
L 190.467717 233.074257 
L 191.766335 221.710038 
L 193.064953 228.075685 
L 194.363572 230.662107 
L 195.66219 216.432907 
L 196.960808 221.898783 
L 198.259426 223.537176 
L 199.558044 218.034898 
L 200.856663 235.927619 
L 202.155281 230.806248 
L 203.453899 215.976432 
L 204.752517 216.679967 
L 206.051135 192.041922 
L 207.349753 192.910047 
L 208.648372 202.612348 
L 209.94699 185.877122 
L 211.245608 190.175906 
L 212.544226 204.536808 
L 213.842844 198.448671 
L 215.141463 209.676726 
L 216.440081 211.634562 
L 217.738699 199.686873 
L 219.037317 201.281933 
L 220.335935 206.126362 
L 221.634553 196.71423 
L 222.933172 197.268091 
L 224.23179 196.960725 
L 225.530408 183.923798 
L 226.829026 185.627441 
L 228.127644 185.325715 
L 229.426263 176.313222 
L 230.724881 174.670499 
L 232.023499 188.327129 
L 233.322117 180.177036 
L 235.919353 200.262414 
L 237.217972 183.839538 
L 238.51659 194.796847 
L 239.815208 198.049398 
L 241.113826 188.189868 
L 242.412444 200.271432 
L 243.711063 201.939318 
L 245.009681 207.269481 
L 246.308299 213.289999 
L 247.606917 204.949238 
L 248.905535 203.848238 
L 250.204153 195.139464 
L 251.502772 194.305696 
L 252.80139 193.674278 
L 254.100008 188.888776 
L 255.398626 191.5016 
L 256.697244 187.892686 
L 257.995863 198.041309 
L 259.294481 193.005785 
L 260.593099 187.405469 
L 261.891717 192.869183 
L 263.190335 188.066754 
L 264.488953 194.64471 
L 265.787572 194.587132 
L 267.08619 183.841066 
L 268.384808 186.599767 
L 269.683426 192.921842 
L 270.982044 198.395901 
L 272.280663 211.065593 
L 274.877899 196.858291 
L 276.176517 195.13317 
L 277.475135 187.209652 
L 278.773753 185.572071 
L 280.072372 178.699715 
L 281.37099 175.832866 
L 282.669608 178.493445 
L 283.968226 178.184745 
L 285.266844 181.575194 
L 286.565463 185.331186 
L 287.864081 186.329848 
L 289.162699 196.546057 
L 290.461317 202.936162 
L 291.759935 204.510717 
L 293.058553 205.626636 
L 294.357172 203.868227 
L 295.65579 199.222196 
L 296.954408 195.776348 
L 298.253026 199.414406 
L 299.551644 201.670223 
L 300.850263 203.378204 
L 302.148881 210.206468 
L 303.447499 208.524885 
L 304.746117 210.766072 
L 306.044735 225.546373 
L 308.641972 229.083162 
L 309.94059 236.464788 
L 311.239208 237.497733 
L 312.537826 234.806213 
L 313.836444 221.777563 
L 315.135063 187.059161 
L 316.433681 156.996009 
L 317.732299 152.052377 
L 319.030917 173.746238 
L 320.329535 188.21243 
L 321.628153 199.845473 
L 322.926772 216.297816 
L 325.524008 244.014071 
L 326.822626 246.895303 
L 328.121244 234.888058 
L 329.419863 233.419403 
L 330.718481 239.247932 
L 332.017099 243.609469 
L 333.315717 252.205565 
L 334.614335 251.204953 
L 335.912953 244.342162 
L 337.211572 243.23247 
L 338.51019 243.18381 
L 339.808808 240.595936 
L 341.107426 244.706237 
L 342.406044 244.25254 
L 343.704663 241.813187 
L 345.003281 240.314936 
L 346.301899 246.039879 
L 347.600517 248.270489 
L 348.899135 250.000714 
L 350.197753 249.838473 
L 351.496372 243.336882 
L 352.79499 240.659262 
L 354.093608 232.232699 
L 355.392226 228.85032 
L 356.690844 221.92811 
L 357.989463 216.625799 
L 359.288081 224.341012 
L 360.586699 224.305296 
L 361.885317 232.157378 
L 363.183935 231.895875 
L 364.482553 230.002881 
L 365.781172 239.449318 
L 367.07979 231.67145 
L 368.378408 230.453386 
L 369.677026 232.608966 
L 370.975644 217.294661 
L 372.274263 218.652145 
L 373.572881 224.730893 
L 374.871499 226.036156 
L 376.170117 239.412963 
L 377.468735 246.900947 
L 378.767353 248.666268 
L 380.065972 247.606781 
L 381.36459 241.709108 
L 382.663208 238.715508 
L 383.961826 229.449148 
L 385.260444 228.566113 
L 385.260444 228.566113 
" clip-path="url(#p148e5ae496)" style="fill: none; stroke: #d62728; stroke-width: 1.5; stroke-linecap: square"/>
   </g>
   <g id="line2d_21">
    <path d="M 29.439063 222.506149 
L 30.737681 229.225195 
L 32.036299 244.328125 
L 33.334917 247.402355 
L 34.633535 252.954749 
L 35.932153 258.019032 
L 37.230772 257.295259 
L 38.52939 249.2435 
L 39.828008 246.974437 
L 41.126626 234.54074 
L 42.425244 231.861658 
L 43.723863 231.553594 
L 45.022481 227.717781 
L 46.321099 232.012654 
L 47.619717 247.643113 
L 50.216953 246.413994 
L 51.515572 251.305355 
L 52.81419 234.325278 
L 54.112808 214.484016 
L 55.411426 201.387908 
L 56.710044 163.586194 
L 58.008663 129.858474 
L 59.307281 141.397281 
L 60.605899 125.3209 
L 61.904517 134.972888 
L 63.203135 154.989431 
L 64.501753 158.76708 
L 65.800372 155.361922 
L 67.09899 182.873277 
L 68.397608 162.532711 
L 69.696226 145.998895 
L 70.994844 142.271252 
L 72.293463 131.739654 
L 73.592081 80.2958 
L 74.890699 74.469261 
L 76.189317 71.612377 
L 77.487935 73.369884 
L 78.786553 78.170446 
L 80.085172 92.205622 
L 81.38379 114.651386 
L 82.682408 126.98029 
L 83.981026 135.707335 
L 85.279644 141.820322 
L 86.578263 152.338799 
L 87.876881 155.572908 
L 89.175499 168.629853 
L 90.474117 177.501124 
L 91.772735 192.046346 
L 93.071353 191.863517 
L 94.369972 188.562489 
L 95.66859 191.603524 
L 96.967208 188.124556 
L 98.265826 181.447777 
L 99.564444 187.0666 
L 100.863063 187.0915 
L 102.161681 185.34807 
L 103.460299 189.913695 
L 104.758917 190.637736 
L 106.057535 188.763136 
L 108.654772 195.654061 
L 109.95339 195.075047 
L 111.252008 193.860278 
L 112.550626 194.307816 
L 113.849244 192.563919 
L 115.147863 191.542008 
L 117.745099 188.685177 
L 119.043717 188.893792 
L 120.342335 191.078975 
L 121.640953 192.074346 
L 122.939572 199.593102 
L 124.23819 204.565698 
L 125.536808 210.577143 
L 126.835426 212.428944 
L 128.134044 214.907852 
L 129.432663 210.23647 
L 130.731281 207.817891 
L 132.029899 196.188428 
L 133.328517 189.862088 
L 134.627135 182.770205 
L 135.925753 183.291563 
L 137.224372 181.712392 
L 138.52299 193.113415 
L 141.120226 211.463604 
L 143.717463 230.909798 
L 146.314699 242.063784 
L 147.613317 245.919887 
L 148.911935 246.583547 
L 150.210553 248.741635 
L 151.509172 249.036102 
L 152.80779 249.952996 
L 154.106408 247.98217 
L 155.405026 243.701758 
L 156.703644 241.373489 
L 158.002263 240.72956 
L 159.300881 235.993508 
L 161.898117 232.924776 
L 163.196735 229.099784 
L 164.495353 230.988135 
L 165.793972 235.724345 
L 167.09259 235.091221 
L 168.391208 238.923995 
L 169.689826 240.309621 
L 170.988444 236.532871 
L 172.287063 231.439783 
L 173.585681 239.832571 
L 174.884299 229.288225 
L 176.182917 229.025515 
L 177.481535 226.018762 
L 178.780153 229.776904 
L 180.078772 213.604985 
L 181.37739 215.680869 
L 182.676008 209.062995 
L 183.974626 214.984372 
L 185.273244 210.206824 
L 186.571863 219.314815 
L 187.870481 222.17396 
L 189.169099 226.369517 
L 190.467717 231.430807 
L 191.766335 225.577264 
L 193.064953 223.851206 
L 194.363572 228.555607 
L 195.66219 226.648719 
L 196.960808 216.031922 
L 198.259426 225.28565 
L 199.558044 220.640156 
L 200.856663 231.061495 
L 202.155281 227.73105 
L 203.453899 220.726004 
L 204.752517 215.037011 
L 206.051135 213.157231 
L 207.349753 191.720756 
L 208.648372 196.460668 
L 209.94699 191.350375 
L 211.245608 191.757527 
L 212.544226 201.836996 
L 213.842844 200.792232 
L 215.141463 197.550137 
L 216.440081 211.894043 
L 217.738699 208.846332 
L 219.037317 198.115669 
L 220.335935 203.773183 
L 221.634553 201.828184 
L 222.933172 197.214919 
L 224.23179 195.912493 
L 226.829026 185.115566 
L 228.127644 188.215948 
L 229.426263 179.230873 
L 230.724881 171.901027 
L 232.023499 188.619752 
L 233.322117 183.951829 
L 234.620735 183.070739 
L 235.919353 191.957715 
L 237.217972 195.323676 
L 238.51659 189.316525 
L 239.815208 197.266248 
L 241.113826 190.602066 
L 242.412444 195.331172 
L 243.711063 203.427593 
L 245.009681 207.153921 
L 246.308299 203.660003 
L 247.606917 208.209749 
L 248.905535 206.225655 
L 250.204153 201.968952 
L 251.502772 193.086981 
L 252.80139 192.080368 
L 254.100008 193.671134 
L 255.398626 192.037551 
L 256.697244 187.230909 
L 257.995863 195.127704 
L 259.294481 193.136595 
L 260.593099 190.879234 
L 261.891717 188.360647 
L 263.190335 195.259724 
L 264.488953 190.323195 
L 265.787572 192.16594 
L 267.08619 185.535827 
L 268.384808 190.356327 
L 269.683426 194.157665 
L 270.982044 195.231943 
L 272.280663 199.805793 
L 273.579281 205.75506 
L 274.877899 201.980701 
L 276.176517 196.973377 
L 278.773753 184.857416 
L 280.072372 182.068236 
L 281.37099 180.423619 
L 282.669608 177.468219 
L 283.968226 177.562124 
L 285.266844 178.80059 
L 286.565463 185.690961 
L 287.864081 185.834271 
L 290.461317 198.87215 
L 291.759935 203.82049 
L 293.058553 202.259429 
L 294.357172 205.894119 
L 295.65579 200.979192 
L 296.954408 198.165651 
L 298.253026 198.124359 
L 299.551644 202.74615 
L 300.850263 200.578123 
L 302.148881 207.104849 
L 303.447499 208.241904 
L 304.746117 211.671763 
L 306.044735 220.244674 
L 307.343353 226.078778 
L 308.641972 223.863886 
L 309.94059 233.998962 
L 311.239208 240.383726 
L 312.537826 233.517676 
L 313.836444 219.293385 
L 315.135063 203.251104 
L 316.433681 183.622751 
L 317.732299 167.197618 
L 319.030917 165.252998 
L 320.329535 172.562654 
L 321.628153 194.202864 
L 322.926772 213.618043 
L 324.22539 226.041419 
L 325.524008 232.462632 
L 326.822626 241.448056 
L 328.121244 239.391526 
L 329.419863 238.737845 
L 330.718481 239.787062 
L 332.017099 241.114508 
L 333.315717 244.070253 
L 334.614335 251.48424 
L 335.912953 248.029576 
L 337.211572 244.248661 
L 338.51019 243.731784 
L 339.808808 242.244278 
L 341.107426 242.65733 
L 342.406044 244.176889 
L 343.704663 242.605043 
L 345.003281 239.931252 
L 346.301899 246.935916 
L 347.600517 247.059347 
L 348.899135 247.328921 
L 350.197753 246.558014 
L 351.496372 249.176368 
L 352.79499 242.836748 
L 354.093608 234.590488 
L 355.392226 229.319501 
L 356.690844 227.373291 
L 357.989463 221.952487 
L 359.288081 220.862935 
L 360.586699 222.835301 
L 361.885317 230.068009 
L 363.183935 230.003639 
L 364.482553 231.284555 
L 365.781172 235.291923 
L 367.07979 235.670859 
L 368.378408 228.611926 
L 369.677026 231.859133 
L 370.975644 225.800643 
L 372.274263 218.691941 
L 373.572881 222.921585 
L 374.871499 228.392567 
L 376.170117 231.680575 
L 377.468735 242.787511 
L 378.767353 246.709389 
L 380.065972 246.472815 
L 381.36459 243.713377 
L 382.663208 242.251513 
L 383.961826 232.996184 
L 385.260444 230.328151 
L 385.260444 230.328151 
" clip-path="url(#p148e5ae496)" style="fill: none; stroke: #9467bd; stroke-width: 1.5; stroke-linecap: square"/>
   </g>
   <g id="line2d_22">
    <path d="M 29.439063 221.989476 
L 30.737681 228.904971 
L 32.036299 237.483987 
L 33.334917 244.099331 
L 34.633535 250.133055 
L 37.230772 256.994611 
L 38.52939 253.038847 
L 41.126626 239.915086 
L 42.425244 236.632969 
L 43.723863 235.239876 
L 45.022481 227.68395 
L 46.321099 231.670455 
L 47.619717 240.522 
L 48.918335 246.901912 
L 50.216953 247.094508 
L 51.515572 245.135114 
L 52.81419 236.98727 
L 54.112808 227.417148 
L 55.411426 209.558869 
L 58.008663 154.479575 
L 59.307281 136.912814 
L 60.605899 136.626651 
L 61.904517 143.651398 
L 63.203135 138.702995 
L 64.501753 150.24993 
L 65.800372 157.637623 
L 67.09899 172.805614 
L 68.397608 172.308881 
L 69.696226 147.756838 
L 70.994844 139.424444 
L 72.293463 135.249771 
L 73.592081 118.380389 
L 74.890699 80.14313 
L 76.189317 68.347758 
L 77.487935 78.528388 
L 80.085172 83.731536 
L 81.38379 109.142714 
L 82.682408 114.016671 
L 83.981026 131.704446 
L 85.279644 137.894546 
L 86.578263 145.867244 
L 87.876881 159.375849 
L 89.175499 160.199988 
L 90.474117 173.774933 
L 91.772735 185.603024 
L 93.071353 187.691034 
L 95.66859 189.973888 
L 96.967208 189.661866 
L 98.265826 188.720384 
L 99.564444 183.420157 
L 100.863063 184.839306 
L 102.161681 187.32764 
L 103.460299 188.234936 
L 104.758917 190.808875 
L 106.057535 189.459306 
L 107.356153 189.315904 
L 108.654772 194.488321 
L 109.95339 196.222111 
L 111.252008 194.084129 
L 112.550626 192.551171 
L 113.849244 192.477858 
L 115.147863 193.836383 
L 116.446481 191.623847 
L 117.745099 188.740474 
L 119.043717 188.38451 
L 120.342335 189.755489 
L 121.640953 193.432394 
L 122.939572 198.363082 
L 124.23819 201.032618 
L 125.536808 206.925265 
L 126.835426 209.543013 
L 128.134044 213.252545 
L 129.432663 212.963095 
L 130.731281 207.846519 
L 133.328517 192.369156 
L 134.627135 189.197994 
L 137.224372 184.042107 
L 138.52299 187.198671 
L 142.418844 218.675332 
L 143.717463 224.780796 
L 145.016081 232.725185 
L 147.613317 243.690539 
L 148.911935 246.907814 
L 150.210553 247.474879 
L 151.509172 247.797075 
L 152.80779 249.480254 
L 154.106408 248.556817 
L 155.405026 245.08607 
L 156.703644 243.204053 
L 159.300881 238.815428 
L 161.898117 232.270423 
L 163.196735 231.130882 
L 164.495353 232.49656 
L 165.793972 234.57189 
L 167.09259 234.929153 
L 168.391208 236.028174 
L 169.689826 237.444895 
L 170.988444 238.514573 
L 172.287063 234.934333 
L 173.585681 238.395766 
L 174.884299 231.266365 
L 176.182917 229.132824 
L 177.481535 226.515892 
L 178.780153 229.239417 
L 180.078772 224.817696 
L 181.37739 209.621523 
L 182.676008 212.522123 
L 185.273244 216.641101 
L 186.571863 215.732855 
L 187.870481 217.061613 
L 189.169099 221.758769 
L 190.467717 232.710465 
L 191.766335 225.409058 
L 193.064953 226.675144 
L 194.363572 224.981941 
L 195.66219 225.516094 
L 196.960808 224.706134 
L 198.259426 219.993368 
L 199.558044 222.621729 
L 200.856663 230.960194 
L 202.155281 224.808205 
L 203.453899 219.699069 
L 204.752517 219.194515 
L 206.051135 212.348296 
L 207.349753 209.65087 
L 208.648372 194.907088 
L 209.94699 187.807324 
L 211.245608 195.211158 
L 212.544226 201.189777 
L 213.842844 199.121299 
L 215.141463 199.667689 
L 216.440081 201.664094 
L 217.738699 209.536309 
L 219.037317 206.137929 
L 220.335935 200.771985 
L 221.634553 200.539284 
L 222.933172 201.393693 
L 225.530408 190.557175 
L 226.829026 190.24811 
L 228.127644 187.367939 
L 229.426263 182.763564 
L 230.724881 175.139954 
L 232.023499 184.260041 
L 234.620735 185.693006 
L 235.919353 186.011723 
L 237.217972 189.053189 
L 238.51659 197.746163 
L 239.815208 192.377572 
L 241.113826 191.188962 
L 242.412444 196.093335 
L 243.711063 198.888857 
L 245.009681 207.49831 
L 247.606917 200.805821 
L 248.905535 208.713277 
L 250.204153 204.293783 
L 251.502772 199.221764 
L 252.80139 191.424833 
L 254.100008 192.344692 
L 255.398626 195.438584 
L 256.697244 188.410429 
L 257.995863 193.421343 
L 259.294481 191.466693 
L 260.593099 191.34645 
L 261.891717 191.086209 
L 263.190335 191.173373 
L 264.488953 195.888562 
L 265.787572 188.934661 
L 267.08619 184.957424 
L 269.683426 195.922878 
L 270.982044 195.865522 
L 272.280663 196.964714 
L 273.579281 196.992366 
L 274.877899 203.993471 
L 276.176517 201.233957 
L 277.475135 193.29733 
L 278.773753 188.48751 
L 280.072372 182.050611 
L 281.37099 182.922867 
L 282.669608 180.997684 
L 283.968226 176.85942 
L 285.266844 178.181248 
L 286.565463 182.759312 
L 287.864081 186.049535 
L 289.162699 190.908696 
L 290.461317 194.995539 
L 291.759935 200.316108 
L 293.058553 202.053777 
L 294.357172 203.05515 
L 295.65579 203.188982 
L 296.954408 199.818307 
L 298.253026 199.700281 
L 299.551644 201.146293 
L 300.850263 201.664569 
L 302.148881 204.221356 
L 303.447499 205.956449 
L 304.746117 210.922625 
L 306.044735 219.423925 
L 307.343353 221.610325 
L 308.641972 223.37897 
L 309.94059 229.049003 
L 311.239208 237.766712 
L 312.537826 236.693885 
L 315.135063 204.185953 
L 316.433681 198.109798 
L 319.030917 175.034151 
L 320.329535 165.669523 
L 321.628153 180.766015 
L 322.926772 207.173387 
L 324.22539 222.415569 
L 325.524008 228.878611 
L 326.822626 232.116043 
L 328.121244 235.824645 
L 329.419863 241.744141 
L 330.718481 242.955834 
L 332.017099 241.247706 
L 333.315717 241.929208 
L 334.614335 244.83055 
L 335.912953 248.808845 
L 337.211572 247.351661 
L 338.51019 244.492239 
L 339.808808 242.862764 
L 341.107426 243.66558 
L 342.406044 242.552297 
L 343.704663 242.817807 
L 345.003281 240.92033 
L 346.301899 245.569599 
L 347.600517 247.629856 
L 348.899135 246.468575 
L 350.197753 244.839602 
L 351.496372 246.543437 
L 352.79499 247.840138 
L 354.093608 237.555391 
L 355.392226 231.830536 
L 356.690844 228.017048 
L 357.989463 226.505229 
L 359.288081 224.482092 
L 360.586699 220.162131 
L 361.885317 227.964603 
L 363.183935 228.595117 
L 364.482553 229.804007 
L 365.781172 235.451266 
L 367.07979 232.73684 
L 368.378408 232.56268 
L 369.677026 230.112794 
L 370.975644 226.306774 
L 372.274263 225.520005 
L 373.572881 222.253967 
L 374.871499 226.331124 
L 376.170117 232.637563 
L 377.468735 236.043033 
L 378.767353 243.321083 
L 380.065972 245.177288 
L 381.36459 243.392969 
L 382.663208 243.825994 
L 383.961826 237.09032 
L 385.260444 233.124849 
L 385.260444 233.124849 
" clip-path="url(#p148e5ae496)" style="fill: none; stroke: #8c564b; stroke-width: 1.5; stroke-linecap: square"/>
   </g>
   <g id="line2d_23">
    <path d="M 29.439063 224.216778 
L 30.737681 227.596136 
L 32.036299 236.094002 
L 33.334917 238.285498 
L 34.633535 247.009287 
L 35.932153 251.173405 
L 37.230772 253.38057 
L 38.52939 253.391419 
L 39.828008 250.111493 
L 41.126626 240.35466 
L 42.425244 240.873149 
L 43.723863 238.743918 
L 45.022481 231.524757 
L 46.321099 231.087585 
L 47.619717 239.084283 
L 48.918335 240.893702 
L 50.216953 246.996197 
L 51.515572 245.910647 
L 52.81419 233.085415 
L 54.112808 230.86679 
L 55.411426 221.875268 
L 56.710044 192.984554 
L 58.008663 172.579527 
L 59.307281 156.56697 
L 60.605899 133.393898 
L 61.904517 150.105108 
L 63.203135 145.513232 
L 64.501753 136.739153 
L 65.800372 150.483069 
L 67.09899 172.207681 
L 68.397608 164.739432 
L 69.696226 159.007124 
L 70.994844 141.932814 
L 72.293463 133.752243 
L 74.890699 113.209754 
L 76.189317 74.203567 
L 77.487935 74.821343 
L 78.786553 84.425418 
L 80.085172 85.512302 
L 81.38379 100.005778 
L 82.682408 109.382331 
L 83.981026 120.19955 
L 85.279644 134.191304 
L 86.578263 141.997781 
L 87.876881 153.047456 
L 89.175499 162.735832 
L 90.474117 166.052801 
L 91.772735 181.433711 
L 93.071353 182.665304 
L 94.369972 185.684395 
L 95.66859 190.052933 
L 96.967208 188.528151 
L 98.265826 189.949308 
L 99.564444 189.323584 
L 100.863063 181.997329 
L 102.161681 185.368481 
L 103.460299 189.494891 
L 104.758917 189.251731 
L 106.057535 189.776067 
L 107.356153 189.831957 
L 108.654772 191.63289 
L 109.95339 195.146246 
L 111.252008 195.216294 
L 112.550626 192.932486 
L 113.849244 191.218756 
L 115.147863 193.58218 
L 116.446481 193.580143 
L 117.745099 190.258975 
L 119.043717 188.474989 
L 120.342335 189.198645 
L 121.640953 191.981943 
L 122.939572 198.601115 
L 124.23819 199.784621 
L 125.536808 203.618883 
L 126.835426 206.544268 
L 128.134044 210.681256 
L 129.432663 211.804545 
L 130.731281 210.573035 
L 132.029899 201.272819 
L 134.627135 191.453746 
L 135.925753 191.567199 
L 137.224372 186.873421 
L 138.52299 188.362043 
L 139.821608 191.892493 
L 142.418844 214.499122 
L 143.717463 222.158824 
L 145.016081 227.322903 
L 146.314699 234.922937 
L 147.613317 240.308315 
L 148.911935 244.880253 
L 150.210553 247.623529 
L 151.509172 246.836933 
L 152.80779 248.36133 
L 154.106408 248.346486 
L 155.405026 246.014508 
L 156.703644 244.469403 
L 158.002263 242.710852 
L 159.300881 239.410904 
L 160.599499 238.158751 
L 161.898117 233.598803 
L 163.196735 230.819473 
L 164.495353 233.710105 
L 165.793972 235.321048 
L 167.09259 234.048867 
L 168.391208 235.757231 
L 169.689826 235.145673 
L 170.988444 236.280027 
L 172.287063 236.891486 
L 173.585681 240.248563 
L 174.884299 231.206691 
L 176.182917 230.855381 
L 177.481535 226.97232 
L 178.780153 229.200263 
L 180.078772 225.060755 
L 181.37739 220.171876 
L 182.676008 207.679122 
L 183.974626 216.719103 
L 185.273244 216.123738 
L 186.571863 220.271379 
L 187.870481 214.26839 
L 189.169099 217.436337 
L 190.467717 228.104504 
L 191.766335 227.449084 
L 193.064953 226.376218 
L 194.363572 227.223636 
L 195.66219 222.819885 
L 196.960808 223.999794 
L 198.259426 226.684388 
L 199.558044 218.385403 
L 200.856663 231.107781 
L 202.155281 225.63427 
L 203.453899 218.212387 
L 204.752517 218.52415 
L 206.051135 216.383034 
L 207.349753 209.44702 
L 208.648372 209.664523 
L 209.94699 187.671964 
L 211.245608 191.709338 
L 212.544226 202.671045 
L 213.842844 198.947973 
L 215.141463 198.387136 
L 216.440081 202.852002 
L 217.738699 201.008475 
L 219.037317 207.131896 
L 220.335935 207.18111 
L 221.634553 198.380668 
L 222.933172 200.348606 
L 224.23179 199.87207 
L 225.530408 191.497092 
L 226.829026 190.446999 
L 228.127644 191.399083 
L 229.426263 182.804438 
L 230.724881 178.836405 
L 232.023499 185.145917 
L 233.322117 181.658839 
L 234.620735 186.284838 
L 235.919353 187.806378 
L 237.217972 184.297498 
L 238.51659 192.130815 
L 239.815208 199.063592 
L 241.113826 187.727666 
L 242.412444 195.808404 
L 243.711063 199.024939 
L 245.009681 203.154815 
L 246.308299 204.902638 
L 247.606917 201.663825 
L 248.905535 202.345891 
L 250.204153 206.736348 
L 254.100008 191.746216 
L 255.398626 194.064329 
L 256.697244 191.922213 
L 257.995863 193.527147 
L 259.294481 190.499864 
L 260.593099 190.157175 
L 261.891717 191.456708 
L 263.190335 193.073793 
L 264.488953 192.318328 
L 265.787572 193.959995 
L 267.08619 183.119016 
L 269.683426 195.385749 
L 270.982044 197.120655 
L 272.280663 197.255697 
L 273.579281 194.920628 
L 274.877899 196.680503 
L 276.176517 203.076989 
L 277.475135 197.57802 
L 278.773753 190.830877 
L 280.072372 185.624953 
L 281.37099 182.786056 
L 282.669608 183.053444 
L 283.968226 179.987536 
L 285.266844 177.492985 
L 286.565463 181.681811 
L 287.864081 183.494688 
L 289.162699 190.37394 
L 290.461317 193.456085 
L 291.759935 196.827227 
L 293.058553 199.273135 
L 294.357172 202.7665 
L 295.65579 201.103242 
L 296.954408 201.896283 
L 298.253026 200.885534 
L 299.551644 202.043694 
L 300.850263 200.439377 
L 302.148881 204.616121 
L 303.447499 203.633554 
L 304.746117 208.62509 
L 306.044735 217.74467 
L 307.343353 220.720925 
L 308.641972 219.863341 
L 309.94059 227.927071 
L 311.239208 233.158476 
L 312.537826 234.910488 
L 313.836444 225.785975 
L 315.135063 207.941713 
L 316.433681 199.687402 
L 317.732299 198.707123 
L 319.030917 190.269042 
L 320.329535 174.012436 
L 321.628153 174.001014 
L 324.22539 216.068495 
L 325.524008 225.453198 
L 326.822626 229.092188 
L 328.121244 228.265121 
L 329.419863 238.433858 
L 330.718481 244.842663 
L 332.017099 243.724589 
L 333.315717 241.926549 
L 334.614335 242.904976 
L 335.912953 243.356351 
L 337.211572 248.122206 
L 338.51019 247.117699 
L 339.808808 243.645552 
L 341.107426 243.986768 
L 342.406044 243.433191 
L 343.704663 241.603178 
L 345.003281 241.348576 
L 346.301899 245.588154 
L 348.899135 247.045601 
L 350.197753 244.443331 
L 352.79499 245.747859 
L 354.093608 242.868152 
L 355.392226 234.842259 
L 356.690844 230.38515 
L 357.989463 227.185875 
L 359.288081 227.958074 
L 360.586699 223.389952 
L 361.885317 225.05755 
L 363.183935 226.98329 
L 364.482553 228.624362 
L 365.781172 233.647225 
L 367.07979 233.246031 
L 368.378408 230.430796 
L 369.677026 233.251507 
L 370.975644 225.549898 
L 372.274263 225.995159 
L 373.572881 227.465659 
L 374.871499 225.295127 
L 376.170117 230.343622 
L 377.468735 236.22079 
L 378.767353 237.527549 
L 380.065972 242.454916 
L 381.36459 242.69455 
L 382.663208 243.535674 
L 383.961826 239.268226 
L 385.260444 236.622724 
L 385.260444 236.622724 
" clip-path="url(#p148e5ae496)" style="fill: none; stroke: #e377c2; stroke-width: 1.5; stroke-linecap: square"/>
   </g>
   <g id="patch_3">
    <path d="M 29.439063 284.991437 
L 29.439063 18.879437 
" style="fill: none; stroke: #000000; stroke-width: 0.8; stroke-linejoin: miter; stroke-linecap: square"/>
   </g>
   <g id="patch_4">
    <path d="M 386.559062 284.991437 
L 386.559062 18.879437 
" style="fill: none; stroke: #000000; stroke-width: 0.8; stroke-linejoin: miter; stroke-linecap: square"/>
   </g>
   <g id="patch_5">
    <path d="M 29.439063 284.991437 
L 386.559063 284.991437 
" style="fill: none; stroke: #000000; stroke-width: 0.8; stroke-linejoin: miter; stroke-linecap: square"/>
   </g>
   <g id="patch_6">
    <path d="M 29.439063 18.879437 
L 386.559063 18.879437 
" style="fill: none; stroke: #000000; stroke-width: 0.8; stroke-linejoin: miter; stroke-linecap: square"/>
   </g>
   <g id="legend_1">
    <g id="patch_7">
     <path d="M 341.260625 127.613812 
L 379.559062 127.613812 
Q 381.559062 127.613812 381.559062 125.613812 
L 381.559062 25.879437 
Q 381.559062 23.879437 379.559062 23.879437 
L 341.260625 23.879437 
Q 339.260625 23.879437 339.260625 25.879437 
L 339.260625 125.613812 
Q 339.260625 127.613812 341.260625 127.613812 
z
" style="fill: #ffffff; opacity: 0.8; stroke: #cccccc; stroke-linejoin: miter"/>
    </g>
    <g id="line2d_24">
     <path d="M 343.260625 31.870062 
L 353.260625 31.870062 
L 363.260625 31.870062 
" style="fill: none; stroke: #1f77b4; stroke-width: 1.5; stroke-linecap: square"/>
    </g>
    <g id="text_16">
     <!-- 1 -->
     <g transform="translate(371.260625 35.370062) scale(0.1 -0.1)">
      <use xlink:href="#IPAexGothic-31"/>
     </g>
    </g>
    <g id="line2d_25">
     <path d="M 343.260625 46.260687 
L 353.260625 46.260687 
L 363.260625 46.260687 
" style="fill: none; stroke: #ff7f0e; stroke-width: 1.5; stroke-linecap: square"/>
    </g>
    <g id="text_17">
     <!-- 2 -->
     <g transform="translate(371.260625 49.760687) scale(0.1 -0.1)">
      <use xlink:href="#IPAexGothic-32"/>
     </g>
    </g>
    <g id="line2d_26">
     <path d="M 343.260625 60.651312 
L 353.260625 60.651312 
L 363.260625 60.651312 
" style="fill: none; stroke: #2ca02c; stroke-width: 1.5; stroke-linecap: square"/>
    </g>
    <g id="text_18">
     <!-- 3 -->
     <g transform="translate(371.260625 64.151312) scale(0.1 -0.1)">
      <use xlink:href="#IPAexGothic-33"/>
     </g>
    </g>
    <g id="line2d_27">
     <path d="M 343.260625 75.041937 
L 353.260625 75.041937 
L 363.260625 75.041937 
" style="fill: none; stroke: #d62728; stroke-width: 1.5; stroke-linecap: square"/>
    </g>
    <g id="text_19">
     <!-- 4 -->
     <g transform="translate(371.260625 78.541937) scale(0.1 -0.1)">
      <defs>
       <path id="IPAexGothic-34" d="M 3813 1159 
L 3059 1159 
L 3059 63 
L 2547 63 
L 2547 1159 
L 197 1159 
L 197 1672 
L 2456 4678 
L 3059 4678 
L 3059 1634 
L 3813 1634 
L 3813 1159 
z
M 2578 4109 
L 2559 4109 
Q 2278 3656 2003 3284 
L 759 1634 
L 2547 1634 
L 2547 3144 
Q 2547 3481 2578 4109 
z
" transform="scale(0.015625)"/>
      </defs>
      <use xlink:href="#IPAexGothic-34"/>
     </g>
    </g>
    <g id="line2d_28">
     <path d="M 343.260625 89.432562 
L 353.260625 89.432562 
L 363.260625 89.432562 
" style="fill: none; stroke: #9467bd; stroke-width: 1.5; stroke-linecap: square"/>
    </g>
    <g id="text_20">
     <!-- 5 -->
     <g transform="translate(371.260625 92.932562) scale(0.1 -0.1)">
      <use xlink:href="#IPAexGothic-35"/>
     </g>
    </g>
    <g id="line2d_29">
     <path d="M 343.260625 103.823187 
L 353.260625 103.823187 
L 363.260625 103.823187 
" style="fill: none; stroke: #8c564b; stroke-width: 1.5; stroke-linecap: square"/>
    </g>
    <g id="text_21">
     <!-- 6 -->
     <g transform="translate(371.260625 107.323187) scale(0.1 -0.1)">
      <defs>
       <path id="IPAexGothic-36" d="M 1056 2328 
Q 1509 2981 2234 2981 
Q 2906 2981 3316 2513 
Q 3675 2106 3675 1522 
Q 3675 884 3272 434 
Q 2853 -31 2178 -31 
Q 1375 -31 922 581 
Q 481 1178 481 2228 
Q 481 3425 1013 4109 
Q 1494 4725 2272 4725 
Q 3191 4725 3609 4025 
L 3150 3775 
Q 2894 4266 2300 4266 
Q 1119 4266 1031 2328 
L 1056 2328 
z
M 2141 2547 
Q 1684 2547 1384 2206 
Q 1116 1900 1116 1541 
Q 1116 1156 1353 844 
Q 1672 428 2159 428 
Q 2669 428 2941 844 
Q 3125 1128 3125 1503 
Q 3125 1944 2881 2228 
Q 2600 2547 2141 2547 
z
" transform="scale(0.015625)"/>
      </defs>
      <use xlink:href="#IPAexGothic-36"/>
     </g>
    </g>
    <g id="line2d_30">
     <path d="M 343.260625 118.213812 
L 353.260625 118.213812 
L 363.260625 118.213812 
" style="fill: none; stroke: #e377c2; stroke-width: 1.5; stroke-linecap: square"/>
    </g>
    <g id="text_22">
     <!-- 7 -->
     <g transform="translate(371.260625 121.713812) scale(0.1 -0.1)">
      <defs>
       <path id="IPAexGothic-37" d="M 3597 4263 
Q 2238 2106 1778 63 
L 1131 63 
Q 1581 1834 2950 4128 
L 428 4128 
L 428 4634 
L 3597 4634 
L 3597 4263 
z
" transform="scale(0.015625)"/>
      </defs>
      <use xlink:href="#IPAexGothic-37"/>
     </g>
    </g>
   </g>
  </g>
  <g id="axes_2">
   <g id="matplotlib.axis_3"/>
   <g id="patch_8">
    <path d="M 29.439063 284.991437 
L 29.439063 18.879437 
" style="fill: none; stroke: #000000; stroke-width: 0.8; stroke-linejoin: miter; stroke-linecap: square"/>
   </g>
   <g id="patch_9">
    <path d="M 386.559062 284.991437 
L 386.559062 18.879437 
" style="fill: none; stroke: #000000; stroke-width: 0.8; stroke-linejoin: miter; stroke-linecap: square"/>
   </g>
   <g id="patch_10">
    <path d="M 29.439063 284.991437 
L 386.559063 284.991437 
" style="fill: none; stroke: #000000; stroke-width: 0.8; stroke-linejoin: miter; stroke-linecap: square"/>
   </g>
   <g id="patch_11">
    <path d="M 29.439063 18.879437 
L 386.559063 18.879437 
" style="fill: none; stroke: #000000; stroke-width: 0.8; stroke-linejoin: miter; stroke-linecap: square"/>
   </g>
  </g>
  <g id="text_23">
   <!-- : 2023/03/02 16:15:20(JST) -->
   <g transform="translate(211.087188 15.423437) scale(0.1 -0.1)">
    <defs>
     <path id="IPAexGothic-66f4" d="M 2956 3994 
L 2956 4588 
L 513 4588 
L 513 4984 
L 5881 4984 
L 5881 4588 
L 3413 4588 
L 3413 3994 
L 5300 3994 
L 5300 1288 
L 4838 1288 
L 4838 1759 
L 3406 1759 
Q 3384 1125 3150 709 
Q 4291 244 5997 31 
L 5694 -428 
Q 4109 -166 2906 384 
Q 2294 -266 744 -488 
L 494 -66 
Q 1903 59 2491 588 
Q 2041 813 1594 1166 
L 1928 1434 
Q 2331 1106 2747 897 
Q 2922 1219 2950 1759 
L 1556 1759 
L 1556 1413 
L 1097 1413 
L 1097 3994 
L 2956 3994 
z
M 2956 3609 
L 1556 3609 
L 1556 3078 
L 2956 3078 
L 2956 3609 
z
M 3413 3609 
L 3413 3078 
L 4838 3078 
L 4838 3609 
L 3413 3609 
z
M 2956 2700 
L 1556 2700 
L 1556 2144 
L 2956 2144 
L 2956 2700 
z
M 3413 2700 
L 3413 2144 
L 4838 2144 
L 4838 2700 
L 3413 2700 
z
" transform="scale(0.015625)"/>
     <path id="IPAexGothic-65b0" d="M 3891 2803 
Q 3881 1759 3794 1166 
Q 3653 197 3097 -563 
L 2741 -250 
Q 3450 700 3450 2631 
L 3450 4647 
Q 3516 4656 3622 4666 
Q 4656 4778 5447 5063 
L 5825 4678 
Q 4897 4419 3891 4294 
L 3891 3219 
L 6119 3219 
L 6119 2803 
L 5275 2803 
L 5275 -447 
L 4834 -447 
L 4834 2803 
L 3891 2803 
z
M 2822 4069 
Q 2678 3572 2519 3181 
L 3250 3181 
L 3250 2784 
L 2059 2784 
L 2059 2216 
L 3184 2216 
L 3184 1831 
L 2059 1831 
L 2059 1544 
Q 2613 1197 3031 847 
L 2781 456 
Q 2472 791 2059 1128 
L 2059 -447 
L 1644 -447 
L 1644 1294 
Q 1272 628 575 -31 
L 269 341 
Q 1041 938 1528 1831 
L 453 1831 
L 453 2216 
L 1644 2216 
L 1644 2784 
L 319 2784 
L 319 3181 
L 1125 3181 
Q 1013 3706 881 4069 
L 453 4069 
L 453 4453 
L 1631 4453 
L 1631 5309 
L 2072 5309 
L 2072 4453 
L 3166 4453 
L 3166 4069 
L 2822 4069 
z
M 2391 4069 
L 1325 4069 
Q 1450 3672 1534 3181 
L 2109 3181 
Q 2294 3659 2391 4069 
z
" transform="scale(0.015625)"/>
     <path id="IPAexGothic-65e5" d="M 5231 4800 
L 5231 -288 
L 4744 -288 
L 4744 128 
L 1647 128 
L 1647 -288 
L 1159 -288 
L 1159 4800 
L 5231 4800 
z
M 1647 4372 
L 1647 2731 
L 4744 2731 
L 4744 4372 
L 1647 4372 
z
M 1647 2297 
L 1647 556 
L 4744 556 
L 4744 2297 
L 1647 2297 
z
" transform="scale(0.015625)"/>
     <path id="IPAexGothic-6642" d="M 2328 4728 
L 2328 563 
L 934 563 
L 934 56 
L 519 56 
L 519 4728 
L 2328 4728 
z
M 934 4331 
L 934 2881 
L 1906 2881 
L 1906 4331 
L 934 4331 
z
M 934 2497 
L 934 953 
L 1906 953 
L 1906 2497 
L 934 2497 
z
M 3938 4372 
L 3938 5313 
L 4378 5313 
L 4378 4372 
L 5772 4372 
L 5772 3981 
L 4378 3981 
L 4378 3194 
L 6072 3194 
L 6072 2803 
L 5203 2803 
L 5203 2047 
L 5959 2047 
L 5959 1650 
L 5216 1650 
L 5216 31 
Q 5216 -447 4691 -447 
Q 4394 -447 3888 -391 
L 3784 78 
Q 4272 0 4591 0 
Q 4775 0 4775 172 
L 4775 1650 
L 2581 1650 
L 2581 2047 
L 4763 2047 
L 4763 2803 
L 2538 2803 
L 2538 3194 
L 3938 3194 
L 3938 3981 
L 2716 3981 
L 2716 4372 
L 3938 4372 
z
M 3669 384 
Q 3331 950 2956 1325 
L 3291 1575 
Q 3719 1147 4025 659 
L 3669 384 
z
" transform="scale(0.015625)"/>
     <path id="IPAexGothic-3a" d="M 1369 2559 
L 672 2559 
L 672 3250 
L 1369 3250 
L 1369 2559 
z
M 1369 63 
L 672 63 
L 672 753 
L 1369 753 
L 1369 63 
z
" transform="scale(0.015625)"/>
     <path id="IPAexGothic-20" transform="scale(0.015625)"/>
     <path id="IPAexGothic-2f" d="M 2719 4709 
L 600 -884 
L 300 -763 
L 2413 4831 
L 2719 4709 
z
" transform="scale(0.015625)"/>
     <path id="IPAexGothic-28" d="M 1928 -1016 
L 1653 -1166 
Q 488 69 488 1875 
Q 488 3678 1653 4909 
L 1928 4763 
Q 1006 3522 1006 1881 
Q 1006 203 1928 -1016 
z
" transform="scale(0.015625)"/>
     <path id="IPAexGothic-54" d="M 3866 4141 
L 2175 4141 
L 2175 63 
L 1606 63 
L 1606 4141 
L -31 4141 
L -31 4634 
L 3866 4634 
L 3866 4141 
z
" transform="scale(0.015625)"/>
     <path id="IPAexGothic-29" d="M 466 4909 
Q 1638 3672 1638 1875 
Q 1638 75 466 -1166 
L 191 -1016 
Q 1119 216 1119 1881 
Q 1119 3509 191 4763 
L 466 4909 
z
" transform="scale(0.015625)"/>
    </defs>
    <use xlink:href="#IPAexGothic-66f4"/>
    <use xlink:href="#IPAexGothic-65b0" x="100"/>
    <use xlink:href="#IPAexGothic-65e5" x="200"/>
    <use xlink:href="#IPAexGothic-6642" x="300"/>
    <use xlink:href="#IPAexGothic-3a" x="400"/>
    <use xlink:href="#IPAexGothic-20" x="431.982422"/>
    <use xlink:href="#IPAexGothic-32" x="458.984375"/>
    <use xlink:href="#IPAexGothic-30" x="521.972656"/>
    <use xlink:href="#IPAexGothic-32" x="584.960938"/>
    <use xlink:href="#IPAexGothic-33" x="647.949219"/>
    <use xlink:href="#IPAexGothic-2f" x="710.9375"/>
    <use xlink:href="#IPAexGothic-30" x="760.9375"/>
    <use xlink:href="#IPAexGothic-33" x="823.925781"/>
    <use xlink:href="#IPAexGothic-2f" x="886.914062"/>
    <use xlink:href="#IPAexGothic-30" x="936.914062"/>
    <use xlink:href="#IPAexGothic-32" x="999.902344"/>
    <use xlink:href="#IPAexGothic-20" x="1062.890625"/>
    <use xlink:href="#IPAexGothic-31" x="1089.892578"/>
    <use xlink:href="#IPAexGothic-36" x="1152.880859"/>
    <use xlink:href="#IPAexGothic-3a" x="1215.869141"/>
    <use xlink:href="#IPAexGothic-31" x="1247.851562"/>
    <use xlink:href="#IPAexGothic-35" x="1310.839844"/>
    <use xlink:href="#IPAexGothic-3a" x="1373.828125"/>
    <use xlink:href="#IPAexGothic-32" x="1405.810547"/>
    <use xlink:href="#IPAexGothic-30" x="1468.798828"/>
    <use xlink:href="#IPAexGothic-28" x="1531.787109"/>
    <use xlink:href="#IPAexGothic-4a" x="1565.087891"/>
    <use xlink:href="#IPAexGothic-53" x="1603.076172"/>
    <use xlink:href="#IPAexGothic-54" x="1661.572266"/>
    <use xlink:href="#IPAexGothic-29" x="1721.484375"/>
   </g>
  </g>
 </g>
 <defs>
  <clipPath id="p148e5ae496">
   <rect x="29.439063" y="18.879437" width="357.12" height="266.112"/>
  </clipPath>
 </defs>
</svg>
