<?xml version="1.0" encoding="utf-8" standalone="no"?>
<!DOCTYPE svg PUBLIC "-//W3C//DTD SVG 1.1//EN"
  "http://www.w3.org/Graphics/SVG/1.1/DTD/svg11.dtd">
<svg xmlns:xlink="http://www.w3.org/1999/xlink" width="397.259063pt" height="308.582062pt" viewBox="0 0 397.259063 308.582062" xmlns="http://www.w3.org/2000/svg" version="1.1">
 <metadata>
  <rdf:RDF xmlns:dc="http://purl.org/dc/elements/1.1/" xmlns:cc="http://creativecommons.org/ns#" xmlns:rdf="http://www.w3.org/1999/02/22-rdf-syntax-ns#">
   <cc:Work>
    <dc:type rdf:resource="http://purl.org/dc/dcmitype/StillImage"/>
    <dc:date>2023-02-10T07:15:17.482927</dc:date>
    <dc:format>image/svg+xml</dc:format>
    <dc:creator>
     <cc:Agent>
      <dc:title>Matplotlib v3.6.3, https://matplotlib.org/</dc:title>
     </cc:Agent>
    </dc:creator>
   </cc:Work>
  </rdf:RDF>
 </metadata>
 <defs>
  <style type="text/css">*{stroke-linejoin: round; stroke-linecap: butt}</style>
 </defs>
 <g id="figure_1">
  <g id="patch_1">
   <path d="M 0 308.582062 
L 397.259063 308.582062 
L 397.259063 0 
L 0 0 
z
" style="fill: #ffffff"/>
  </g>
  <g id="axes_1">
   <g id="patch_2">
    <path d="M 29.439063 284.991437 
L 386.559062 284.991437 
L 386.559062 18.879437 
L 29.439063 18.879437 
z
" style="fill: #ffffff"/>
   </g>
   <g id="line2d_1">
    <path d="M 29.439063 211.199039 
L 386.559062 211.199039 
" clip-path="url(#p798524cd20)" style="fill: none; stroke: #000000; stroke-linecap: square"/>
   </g>
   <g id="matplotlib.axis_1">
    <g id="xtick_1">
     <g id="line2d_2">
      <defs>
       <path id="m335a2174a4" d="M 0 0 
L 0 3.5 
" style="stroke: #000000; stroke-width: 0.8"/>
      </defs>
      <g>
       <use xlink:href="#m335a2174a4" x="29.439062" y="284.991437" style="stroke: #000000; stroke-width: 0.8"/>
      </g>
     </g>
     <g id="text_1">
      <!-- Jun -->
      <g transform="translate(21.499219 299.482062) scale(0.1 -0.1)">
       <defs>
        <path id="IPAexGothic-4a" d="M 1819 4634 
L 1819 1234 
Q 1819 -31 763 -31 
Q 303 -31 -125 209 
L 84 644 
Q 378 447 694 447 
Q 1250 447 1250 1203 
L 1250 4634 
L 1819 4634 
z
" transform="scale(0.015625)"/>
        <path id="IPAexGothic-75" d="M 3284 63 
L 2772 63 
L 2772 644 
Q 2300 0 1625 0 
Q 1072 0 763 375 
Q 519 678 519 1241 
L 519 3250 
L 1069 3250 
L 1069 1259 
Q 1069 466 1734 466 
Q 2406 466 2734 1291 
L 2734 3250 
L 3284 3250 
L 3284 63 
z
" transform="scale(0.015625)"/>
        <path id="IPAexGothic-6e" d="M 3328 63 
L 2778 63 
L 2778 2041 
Q 2778 2853 2106 2853 
Q 1428 2853 1113 2041 
L 1113 63 
L 563 63 
L 563 3250 
L 1075 3250 
L 1075 2675 
Q 1525 3316 2222 3316 
Q 3328 3316 3328 2072 
L 3328 63 
z
" transform="scale(0.015625)"/>
       </defs>
       <use xlink:href="#IPAexGothic-4a"/>
       <use xlink:href="#IPAexGothic-75" x="37.988281"/>
       <use xlink:href="#IPAexGothic-6e" x="98.388672"/>
      </g>
     </g>
    </g>
    <g id="xtick_2">
     <g id="line2d_3">
      <g>
       <use xlink:href="#m335a2174a4" x="71.45318" y="284.991437" style="stroke: #000000; stroke-width: 0.8"/>
      </g>
     </g>
     <g id="text_2">
      <!-- Jul -->
      <g transform="translate(65.183649 299.482062) scale(0.1 -0.1)">
       <defs>
        <path id="IPAexGothic-6c" d="M 1131 63 
L 581 63 
L 581 4794 
L 1131 4794 
L 1131 63 
z
" transform="scale(0.015625)"/>
       </defs>
       <use xlink:href="#IPAexGothic-4a"/>
       <use xlink:href="#IPAexGothic-75" x="37.988281"/>
       <use xlink:href="#IPAexGothic-6c" x="98.388672"/>
      </g>
     </g>
    </g>
    <g id="xtick_3">
     <g id="line2d_4">
      <g>
       <use xlink:href="#m335a2174a4" x="114.867768" y="284.991437" style="stroke: #000000; stroke-width: 0.8"/>
      </g>
     </g>
     <g id="text_3">
      <!-- Aug -->
      <g transform="translate(105.885737 299.42425) scale(0.1 -0.1)">
       <defs>
        <path id="IPAexGothic-41" d="M 4056 63 
L 3444 63 
L 2938 1409 
L 1100 1409 
L 603 63 
L -6 63 
L 1806 4666 
L 2259 4666 
L 4056 63 
z
M 2778 1863 
L 2316 3078 
Q 2125 3588 2028 4000 
L 2009 4000 
Q 1897 3563 1716 3078 
L 1263 1863 
L 2778 1863 
z
" transform="scale(0.015625)"/>
        <path id="IPAexGothic-67" d="M 1331 1150 
Q 1006 1122 1006 900 
Q 1006 613 1763 575 
L 2131 556 
Q 3303 497 3303 -294 
Q 3303 -700 2925 -959 
Q 2519 -1253 1794 -1253 
Q 1138 -1253 738 -1028 
Q 353 -809 353 -428 
Q 353 84 1075 247 
L 1075 269 
Q 506 413 506 778 
Q 506 1116 994 1297 
Q 456 1575 456 2181 
Q 456 2650 769 2963 
Q 1128 3322 1738 3322 
Q 2125 3322 2422 3153 
Q 2650 3453 3259 3463 
L 3259 3013 
Q 2838 3003 2703 2938 
Q 3034 2613 3034 2169 
Q 3034 1728 2734 1425 
Q 2400 1094 1813 1094 
Q 1563 1094 1331 1150 
z
M 1734 2919 
Q 1409 2919 1197 2706 
Q 988 2497 988 2181 
Q 988 1872 1184 1684 
Q 1397 1472 1756 1472 
Q 2094 1472 2297 1678 
Q 2503 1881 2503 2203 
Q 2503 2497 2297 2700 
Q 2081 2919 1734 2919 
z
M 1753 159 
Q 903 159 903 -366 
Q 903 -875 1800 -875 
Q 2378 -875 2638 -606 
Q 2772 -481 2772 -313 
Q 2772 159 1753 159 
z
" transform="scale(0.015625)"/>
       </defs>
       <use xlink:href="#IPAexGothic-41"/>
       <use xlink:href="#IPAexGothic-75" x="63.720703"/>
       <use xlink:href="#IPAexGothic-67" x="124.121094"/>
      </g>
     </g>
    </g>
    <g id="xtick_4">
     <g id="line2d_5">
      <g>
       <use xlink:href="#m335a2174a4" x="158.282357" y="284.991437" style="stroke: #000000; stroke-width: 0.8"/>
      </g>
     </g>
     <g id="text_4">
      <!-- Sep -->
      <g transform="translate(149.407357 299.482062) scale(0.1 -0.1)">
       <defs>
        <path id="IPAexGothic-53" d="M 2919 3641 
Q 2563 4259 1853 4259 
Q 1453 4259 1213 4009 
Q 1028 3803 1028 3534 
Q 1028 3238 1266 3047 
Q 1444 2913 1984 2688 
L 2200 2597 
Q 2925 2306 3191 1953 
Q 3422 1644 3422 1259 
Q 3422 644 2969 288 
Q 2559 -31 1931 -31 
Q 881 -31 313 766 
L 753 1100 
Q 1203 459 1938 459 
Q 2288 459 2534 625 
Q 2841 847 2841 1216 
Q 2841 1503 2616 1728 
Q 2375 1959 1728 2206 
L 1541 2278 
Q 453 2694 453 3481 
Q 453 4006 806 4347 
Q 1203 4725 1863 4725 
Q 2841 4725 3359 3956 
L 2919 3641 
z
" transform="scale(0.015625)"/>
        <path id="IPAexGothic-65" d="M 863 1594 
Q 891 1041 1209 722 
Q 1534 397 1997 397 
Q 2606 397 2963 966 
L 3322 728 
Q 2869 -31 1931 -31 
Q 1222 -31 766 422 
Q 306 884 306 1641 
Q 306 2444 788 2925 
Q 1216 3353 1856 3353 
Q 2459 3353 2866 2956 
Q 3322 2494 3322 1722 
L 3322 1594 
L 863 1594 
z
M 2756 1997 
Q 2709 2431 2450 2681 
Q 2194 2938 1844 2938 
Q 1438 2938 1150 2591 
Q 953 2356 894 1997 
L 2756 1997 
z
" transform="scale(0.015625)"/>
        <path id="IPAexGothic-70" d="M 1075 2688 
Q 1525 3341 2206 3341 
Q 2769 3341 3172 2938 
Q 3641 2469 3641 1644 
Q 3641 841 3178 372 
Q 2775 -31 2200 -31 
Q 1569 -31 1106 497 
L 1106 -1216 
L 563 -1216 
L 563 3250 
L 1075 3250 
L 1075 2688 
z
M 1106 1950 
L 1106 1291 
Q 1106 897 1516 600 
Q 1791 403 2106 403 
Q 2469 403 2725 659 
Q 3066 997 3066 1631 
Q 3066 2200 2784 2559 
Q 2503 2900 2100 2900 
Q 1656 2900 1338 2484 
Q 1106 2184 1106 1950 
z
" transform="scale(0.015625)"/>
       </defs>
       <use xlink:href="#IPAexGothic-53"/>
       <use xlink:href="#IPAexGothic-65" x="58.496094"/>
       <use xlink:href="#IPAexGothic-70" x="115.380859"/>
      </g>
     </g>
    </g>
    <g id="xtick_5">
     <g id="line2d_6">
      <g>
       <use xlink:href="#m335a2174a4" x="200.296474" y="284.991437" style="stroke: #000000; stroke-width: 0.8"/>
      </g>
     </g>
     <g id="text_5">
      <!-- Oct -->
      <g transform="translate(191.861318 299.482062) scale(0.1 -0.1)">
       <defs>
        <path id="IPAexGothic-4f" d="M 2541 4725 
Q 3456 4725 4044 4138 
Q 4709 3472 4709 2331 
Q 4709 1219 4031 550 
Q 3450 -31 2541 -31 
Q 1638 -31 1056 550 
Q 378 1219 378 2356 
Q 378 3469 1044 4138 
Q 1631 4725 2541 4725 
z
M 2541 4266 
Q 1953 4266 1531 3844 
Q 994 3303 994 2350 
Q 994 1391 1531 863 
Q 1947 447 2541 447 
Q 3131 447 3556 863 
Q 4094 1400 4094 2375 
Q 4094 3297 3550 3844 
Q 3138 4266 2541 4266 
z
" transform="scale(0.015625)"/>
        <path id="IPAexGothic-63" d="M 3269 784 
Q 2834 -31 1900 -31 
Q 1228 -31 788 409 
Q 313 891 313 1663 
Q 313 2428 788 2913 
Q 1222 3347 1881 3347 
Q 2813 3347 3206 2541 
L 2763 2309 
Q 2484 2900 1900 2900 
Q 1516 2900 1234 2619 
Q 881 2266 881 1650 
Q 881 1069 1222 728 
Q 1522 428 1956 428 
Q 2547 428 2847 1016 
L 3269 784 
z
" transform="scale(0.015625)"/>
        <path id="IPAexGothic-74" d="M 2125 241 
Q 1769 -6 1397 -6 
Q 653 -6 653 831 
L 653 2859 
L 219 2859 
L 219 3250 
L 653 3250 
L 653 3966 
L 1178 4228 
L 1178 3250 
L 2063 3250 
L 2063 2859 
L 1178 2859 
L 1178 906 
Q 1178 416 1513 416 
Q 1738 416 1941 588 
L 2125 241 
z
" transform="scale(0.015625)"/>
       </defs>
       <use xlink:href="#IPAexGothic-4f"/>
       <use xlink:href="#IPAexGothic-63" x="79.6875"/>
       <use xlink:href="#IPAexGothic-74" x="134.082031"/>
      </g>
     </g>
    </g>
    <g id="xtick_6">
     <g id="line2d_7">
      <g>
       <use xlink:href="#m335a2174a4" x="243.711062" y="284.991437" style="stroke: #000000; stroke-width: 0.8"/>
      </g>
     </g>
     <g id="text_6">
      <!-- Nov -->
      <g transform="translate(234.462625 299.482062) scale(0.1 -0.1)">
       <defs>
        <path id="IPAexGothic-4e" d="M 4244 63 
L 3731 63 
L 1697 3150 
Q 1466 3500 1141 4097 
L 1116 4097 
L 1128 3797 
Q 1159 2803 1159 2469 
L 1159 63 
L 609 63 
L 609 4634 
L 1366 4634 
L 3113 1978 
Q 3453 1447 3713 966 
L 3738 966 
Q 3694 1897 3694 2469 
L 3694 4634 
L 4244 4634 
L 4244 63 
z
" transform="scale(0.015625)"/>
        <path id="IPAexGothic-6f" d="M 1919 3341 
Q 2594 3341 3056 2888 
Q 3531 2413 3531 1638 
Q 3531 888 3066 422 
Q 2609 -31 1919 -31 
Q 1228 -31 781 416 
Q 313 881 313 1656 
Q 313 2413 788 2888 
Q 1241 3341 1919 3341 
z
M 1919 2919 
Q 1519 2919 1241 2631 
Q 888 2278 888 1650 
Q 888 1031 1234 684 
Q 1516 403 1919 403 
Q 2331 403 2609 691 
Q 2956 1038 2956 1672 
Q 2956 2269 2603 2631 
Q 2316 2919 1919 2919 
z
" transform="scale(0.015625)"/>
        <path id="IPAexGothic-76" d="M 3103 3250 
L 1747 6 
L 1375 6 
L 25 3250 
L 628 3250 
L 1338 1388 
L 1522 844 
L 1569 703 
L 1588 703 
Q 1641 884 1822 1388 
L 2516 3250 
L 3103 3250 
z
" transform="scale(0.015625)"/>
       </defs>
       <use xlink:href="#IPAexGothic-4e"/>
       <use xlink:href="#IPAexGothic-6f" x="75.976562"/>
       <use xlink:href="#IPAexGothic-76" x="136.376953"/>
      </g>
     </g>
    </g>
    <g id="xtick_7">
     <g id="line2d_8">
      <g>
       <use xlink:href="#m335a2174a4" x="285.72518" y="284.991437" style="stroke: #000000; stroke-width: 0.8"/>
      </g>
     </g>
     <g id="text_7">
      <!-- Dec -->
      <g transform="translate(276.376743 299.482062) scale(0.1 -0.1)">
       <defs>
        <path id="IPAexGothic-44" d="M 609 4634 
L 1984 4634 
Q 3159 4634 3791 4050 
Q 4456 3444 4456 2356 
Q 4456 1047 3516 441 
Q 2925 63 1941 63 
L 609 63 
L 609 4634 
z
M 1172 556 
L 1894 556 
Q 3853 556 3853 2356 
Q 3853 4147 1928 4147 
L 1172 4147 
L 1172 556 
z
" transform="scale(0.015625)"/>
       </defs>
       <use xlink:href="#IPAexGothic-44"/>
       <use xlink:href="#IPAexGothic-65" x="75.683594"/>
       <use xlink:href="#IPAexGothic-63" x="132.568359"/>
      </g>
     </g>
    </g>
    <g id="xtick_8">
     <g id="line2d_9">
      <g>
       <use xlink:href="#m335a2174a4" x="329.139768" y="284.991437" style="stroke: #000000; stroke-width: 0.8"/>
      </g>
     </g>
     <g id="text_8">
      <!-- 2023 -->
      <g transform="translate(316.542893 299.482062) scale(0.1 -0.1)">
       <defs>
        <path id="IPAexGothic-32" d="M 3659 63 
L 447 63 
L 447 594 
Q 825 1475 1894 2203 
L 2072 2322 
Q 2619 2697 2791 2906 
Q 2988 3153 2988 3444 
Q 2988 3772 2756 4003 
Q 2500 4259 2084 4259 
Q 1250 4259 991 3328 
L 497 3506 
Q 853 4725 2116 4725 
Q 2806 4725 3216 4316 
Q 3575 3947 3575 3425 
Q 3575 3038 3344 2722 
Q 3131 2416 2366 1938 
L 2231 1856 
Q 1256 1253 978 569 
L 3659 569 
L 3659 63 
z
" transform="scale(0.015625)"/>
        <path id="IPAexGothic-30" d="M 2038 4725 
Q 2881 4725 3334 3944 
Q 3694 3325 3694 2344 
Q 3694 1372 3334 741 
Q 2888 -31 2016 -31 
Q 1147 -31 700 741 
Q 341 1372 341 2350 
Q 341 3713 1000 4334 
Q 1419 4725 2038 4725 
z
M 2016 4266 
Q 1516 4266 1228 3759 
Q 934 3247 934 2344 
Q 934 1456 1222 947 
Q 1513 447 2016 447 
Q 2619 447 2909 1153 
Q 3100 1622 3100 2375 
Q 3100 3256 2806 3759 
Q 2509 4266 2016 4266 
z
" transform="scale(0.015625)"/>
        <path id="IPAexGothic-33" d="M 2381 2419 
Q 3506 2216 3506 1278 
Q 3506 716 3128 356 
Q 2709 -31 1944 -31 
Q 797 -31 288 881 
L 756 1131 
Q 1109 441 1938 441 
Q 2425 441 2694 691 
Q 2950 928 2950 1291 
Q 2950 1719 2566 1978 
Q 2216 2213 1644 2213 
L 1363 2213 
L 1363 2669 
L 1656 2669 
Q 2231 2669 2534 2888 
Q 2859 3119 2859 3509 
Q 2859 3934 2494 4138 
Q 2259 4278 1931 4278 
Q 1238 4278 903 3578 
L 434 3803 
Q 897 4725 1938 4725 
Q 2597 4725 3006 4394 
Q 3416 4069 3416 3534 
Q 3416 3028 3019 2706 
Q 2763 2500 2381 2444 
L 2381 2419 
z
" transform="scale(0.015625)"/>
       </defs>
       <use xlink:href="#IPAexGothic-32"/>
       <use xlink:href="#IPAexGothic-30" x="62.988281"/>
       <use xlink:href="#IPAexGothic-32" x="125.976562"/>
       <use xlink:href="#IPAexGothic-33" x="188.964844"/>
      </g>
     </g>
    </g>
    <g id="xtick_9">
     <g id="line2d_10">
      <g>
       <use xlink:href="#m335a2174a4" x="372.554357" y="284.991437" style="stroke: #000000; stroke-width: 0.8"/>
      </g>
     </g>
     <g id="text_9">
      <!-- Feb -->
      <g transform="translate(363.730919 299.482062) scale(0.1 -0.1)">
       <defs>
        <path id="IPAexGothic-46" d="M 3469 4141 
L 1172 4141 
L 1172 2656 
L 3206 2656 
L 3206 2188 
L 1172 2188 
L 1172 63 
L 609 63 
L 609 4634 
L 3469 4634 
L 3469 4141 
z
" transform="scale(0.015625)"/>
        <path id="IPAexGothic-62" d="M 1125 2731 
Q 1550 3341 2219 3341 
Q 2788 3341 3191 2938 
Q 3659 2469 3659 1644 
Q 3659 838 3191 372 
Q 2788 -31 2206 -31 
Q 1559 -31 1088 516 
L 1009 44 
L 581 44 
L 581 4794 
L 1125 4794 
L 1125 2731 
z
M 1125 1997 
L 1125 1253 
Q 1125 888 1528 600 
Q 1803 403 2119 403 
Q 2488 403 2744 659 
Q 3084 1009 3084 1631 
Q 3084 2194 2803 2553 
Q 2525 2900 2125 2900 
Q 1759 2900 1438 2578 
Q 1125 2266 1125 1997 
z
" transform="scale(0.015625)"/>
       </defs>
       <use xlink:href="#IPAexGothic-46"/>
       <use xlink:href="#IPAexGothic-65" x="57.177734"/>
       <use xlink:href="#IPAexGothic-62" x="114.0625"/>
      </g>
     </g>
    </g>
   </g>
   <g id="matplotlib.axis_2">
    <g id="ytick_1">
     <g id="line2d_11">
      <defs>
       <path id="m6ef8ed71eb" d="M 0 0 
L -3.5 0 
" style="stroke: #000000; stroke-width: 0.8"/>
      </defs>
      <g>
       <use xlink:href="#m6ef8ed71eb" x="29.439063" y="269.014637" style="stroke: #000000; stroke-width: 0.8"/>
      </g>
     </g>
     <g id="text_10">
      <!-- 0.5 -->
      <g transform="translate(7.2 272.759949) scale(0.1 -0.1)">
       <defs>
        <path id="IPAexGothic-2e" d="M 1184 63 
L 494 63 
L 494 753 
L 1184 753 
L 1184 63 
z
" transform="scale(0.015625)"/>
        <path id="IPAexGothic-35" d="M 1178 2603 
Q 1634 2963 2172 2963 
Q 2816 2963 3241 2528 
Q 3638 2113 3638 1497 
Q 3638 938 3297 513 
Q 2869 -31 2031 -31 
Q 959 -31 469 784 
L 938 1028 
Q 1309 434 2013 434 
Q 2466 434 2769 716 
Q 3081 1013 3081 1503 
Q 3081 1966 2806 2241 
Q 2519 2528 2056 2528 
Q 1406 2528 1072 2028 
L 591 2091 
L 884 4634 
L 3406 4634 
L 3406 4153 
L 1341 4153 
L 1134 2603 
L 1178 2603 
z
" transform="scale(0.015625)"/>
       </defs>
       <use xlink:href="#IPAexGothic-30"/>
       <use xlink:href="#IPAexGothic-2e" x="62.988281"/>
       <use xlink:href="#IPAexGothic-35" x="89.404297"/>
      </g>
     </g>
    </g>
    <g id="ytick_2">
     <g id="line2d_12">
      <g>
       <use xlink:href="#m6ef8ed71eb" x="29.439063" y="211.199039" style="stroke: #000000; stroke-width: 0.8"/>
      </g>
     </g>
     <g id="text_11">
      <!-- 1.0 -->
      <g transform="translate(7.2 214.944352) scale(0.1 -0.1)">
       <defs>
        <path id="IPAexGothic-31" d="M 2463 63 
L 1900 63 
L 1900 4103 
Q 1372 3922 788 3797 
L 684 4231 
Q 1519 4441 2106 4731 
L 2463 4731 
L 2463 63 
z
" transform="scale(0.015625)"/>
       </defs>
       <use xlink:href="#IPAexGothic-31"/>
       <use xlink:href="#IPAexGothic-2e" x="62.988281"/>
       <use xlink:href="#IPAexGothic-30" x="89.404297"/>
      </g>
     </g>
    </g>
    <g id="ytick_3">
     <g id="line2d_13">
      <g>
       <use xlink:href="#m6ef8ed71eb" x="29.439063" y="153.383442" style="stroke: #000000; stroke-width: 0.8"/>
      </g>
     </g>
     <g id="text_12">
      <!-- 1.5 -->
      <g transform="translate(7.2 157.128754) scale(0.1 -0.1)">
       <use xlink:href="#IPAexGothic-31"/>
       <use xlink:href="#IPAexGothic-2e" x="62.988281"/>
       <use xlink:href="#IPAexGothic-35" x="89.404297"/>
      </g>
     </g>
    </g>
    <g id="ytick_4">
     <g id="line2d_14">
      <g>
       <use xlink:href="#m6ef8ed71eb" x="29.439063" y="95.567844" style="stroke: #000000; stroke-width: 0.8"/>
      </g>
     </g>
     <g id="text_13">
      <!-- 2.0 -->
      <g transform="translate(7.2 99.313157) scale(0.1 -0.1)">
       <use xlink:href="#IPAexGothic-32"/>
       <use xlink:href="#IPAexGothic-2e" x="62.988281"/>
       <use xlink:href="#IPAexGothic-30" x="89.404297"/>
      </g>
     </g>
    </g>
    <g id="ytick_5">
     <g id="line2d_15">
      <g>
       <use xlink:href="#m6ef8ed71eb" x="29.439063" y="37.752247" style="stroke: #000000; stroke-width: 0.8"/>
      </g>
     </g>
     <g id="text_14">
      <!-- 2.5 -->
      <g transform="translate(7.2 41.497559) scale(0.1 -0.1)">
       <use xlink:href="#IPAexGothic-32"/>
       <use xlink:href="#IPAexGothic-2e" x="62.988281"/>
       <use xlink:href="#IPAexGothic-35" x="89.404297"/>
      </g>
     </g>
    </g>
   </g>
   <g id="line2d_16">
    <path d="M 29.439062 227.411867 
L 30.839533 255.471758 
L 32.240004 269.405805 
L 33.640474 242.945807 
L 35.040945 262.441258 
L 37.841886 251.639145 
L 39.242357 227.514621 
L 40.642827 229.940841 
L 42.043298 194.078383 
L 43.443768 246.403784 
L 44.844239 250.411663 
L 46.24471 205.84664 
L 47.64518 249.191321 
L 49.045651 272.895437 
L 50.446121 243.090535 
L 51.846592 247.559579 
L 53.247062 238.429093 
L 54.647533 112.810292 
L 56.048004 184.323192 
L 57.448474 181.498781 
L 58.848945 30.975437 
L 61.649886 168.571026 
L 63.050357 110.868109 
L 64.450827 213.126183 
L 65.851298 156.293505 
L 67.251768 124.518024 
L 68.652239 151.875457 
L 70.05271 236.751655 
L 71.45318 106.655378 
L 72.853651 51.387485 
L 74.254121 102.788184 
L 75.654592 95.926279 
L 77.055062 36.542983 
L 78.455533 79.37836 
L 79.856004 35.439549 
L 81.256474 110.396771 
L 82.656945 116.980214 
L 84.057415 109.726148 
L 85.457886 177.160719 
L 86.858357 110.814502 
L 88.258827 153.702013 
L 89.659298 148.460822 
L 91.059768 164.812112 
L 92.460239 190.526245 
L 93.86071 181.526351 
L 95.26118 197.096587 
L 96.661651 219.976945 
L 98.062121 163.710275 
L 99.462592 173.022011 
L 100.863063 196.817697 
L 102.263533 179.527296 
L 103.664004 191.661352 
L 105.064474 192.887858 
L 106.464945 173.15897 
L 107.865415 188.50237 
L 109.265886 201.809366 
L 110.666357 195.197746 
L 112.066827 183.412435 
L 113.467298 192.046725 
L 114.867768 204.737627 
L 116.268239 199.025674 
L 117.66871 189.016626 
L 119.06918 185.809755 
L 120.469651 182.941981 
L 121.870121 200.02008 
L 123.270592 192.032303 
L 124.671062 181.775482 
L 126.071533 186.871327 
L 127.472004 193.9839 
L 128.872474 204.601463 
L 130.272945 225.669065 
L 131.673415 207.989558 
L 133.073886 218.057369 
L 134.474357 204.232725 
L 135.874827 217.282458 
L 137.275298 202.720535 
L 138.675768 195.141529 
L 140.076239 153.461242 
L 141.47671 171.531238 
L 142.87718 185.828914 
L 144.277651 204.950127 
L 145.678121 187.736367 
L 147.078592 211.671324 
L 148.479062 216.92144 
L 149.879533 231.587854 
L 151.280004 248.509599 
L 152.680474 240.826108 
L 154.080945 241.29957 
L 155.481415 247.072575 
L 156.881886 251.367839 
L 158.282357 251.669425 
L 159.682827 251.785215 
L 161.083298 242.900107 
L 162.483768 251.663262 
L 163.884239 241.186243 
L 165.28471 228.929625 
L 166.68518 240.670472 
L 168.085651 239.689961 
L 169.486121 228.587222 
L 170.886592 234.114512 
L 172.287062 220.053728 
L 173.687533 221.634093 
L 175.088004 247.789493 
L 176.488474 250.578039 
L 177.888945 230.847867 
L 179.289415 240.571341 
L 180.689886 229.667605 
L 182.090357 228.965012 
L 183.490827 226.507 
L 184.891298 266.267581 
L 186.291768 173.994674 
L 187.692239 228.352097 
L 189.09271 212.968149 
L 190.49318 243.863512 
L 191.893651 195.951487 
L 193.294121 187.500784 
L 194.694592 195.32975 
L 196.095063 238.855842 
L 197.495533 224.563828 
L 198.896004 239.674853 
L 200.296474 205.067187 
L 201.696945 219.657973 
L 203.097415 258.893645 
L 204.497886 189.095647 
L 205.898357 231.988543 
L 207.298827 230.452082 
L 208.699298 208.848889 
L 210.099768 214.413367 
L 211.500239 237.774657 
L 212.90071 208.216448 
L 214.30118 269.328924 
L 215.701651 186.857034 
L 217.102121 168.652783 
L 218.502592 211.199039 
L 219.903062 197.903063 
L 221.303533 190.42842 
L 222.704004 209.746404 
L 224.104474 135.123595 
L 225.504945 212.926136 
L 226.905415 239.34414 
L 228.305886 184.631705 
L 229.706357 193.892671 
L 231.106827 220.351516 
L 232.507298 197.002011 
L 233.907768 191.634272 
L 235.308239 213.253557 
L 236.70871 183.049443 
L 238.10918 199.198481 
L 239.509651 190.346771 
L 240.910121 160.309806 
L 242.310592 189.784075 
L 243.711062 198.104074 
L 245.111533 152.110827 
L 246.512004 152.9204 
L 247.912474 232.748365 
L 249.312945 165.024121 
L 250.713415 194.085734 
L 252.113886 199.838398 
L 253.514357 173.564927 
L 254.914827 209.205445 
L 256.315298 206.690562 
L 257.715768 156.249641 
L 259.116239 220.402577 
L 260.51671 215.284532 
L 261.91718 225.924092 
L 263.317651 188.099011 
L 264.718121 185.511636 
L 266.118592 211.199039 
L 267.519062 194.160213 
L 268.919533 184.55213 
L 270.320004 182.799057 
L 273.120945 203.930102 
L 274.521415 168.757197 
L 275.921886 220.491359 
L 277.322357 171.577359 
L 280.123298 192.11637 
L 281.523768 204.402838 
L 282.924239 198.987955 
L 284.32471 181.777237 
L 285.72518 142.696764 
L 287.125651 213.580923 
L 288.526121 220.529523 
L 289.926592 204.080643 
L 291.327063 205.292279 
L 292.727533 181.962456 
L 294.128004 194.793532 
L 295.528474 197.432704 
L 296.928945 173.295964 
L 298.329415 175.045451 
L 299.729886 167.16196 
L 301.130357 187.120934 
L 302.530827 183.834422 
L 303.931298 173.778001 
L 305.331768 181.23856 
L 306.732239 201.020413 
L 308.13271 187.828789 
L 309.53318 213.66936 
L 310.933651 207.768569 
L 312.334121 207.295129 
L 313.734592 192.832229 
L 315.135062 206.958159 
L 316.535533 188.728128 
L 317.936004 193.851266 
L 319.336474 207.103197 
L 320.736945 215.224404 
L 322.137415 196.113595 
L 323.537886 220.91992 
L 324.938357 200.04709 
L 326.338827 223.444191 
L 327.739298 251.024981 
L 329.139768 228.180558 
L 330.540239 208.755181 
L 331.94071 251.311193 
L 333.34118 254.432046 
L 334.741651 215.74342 
L 336.142121 126.299141 
L 337.542592 90.185267 
L 338.943062 169.01121 
L 340.343533 202.233317 
L 341.744004 208.810336 
L 343.144474 167.736099 
L 344.544945 215.685286 
L 345.945415 255.304956 
L 347.345886 257.151057 
L 348.746357 241.910597 
L 350.146827 230.363911 
L 351.547298 201.639485 
L 352.947768 252.591109 
L 354.348239 261.202922 
L 355.74871 248.191392 
L 357.14918 245.888016 
L 358.549651 248.528538 
L 359.950121 233.937612 
L 361.350592 243.873594 
L 362.751062 245.699396 
L 364.151533 238.379427 
L 365.552004 250.421781 
L 366.952474 242.025158 
L 368.352945 235.679743 
L 369.753415 231.977605 
L 371.153886 268.725993 
L 372.554357 251.010186 
L 373.954827 243.44844 
L 375.355298 231.173865 
L 376.755768 246.470516 
L 378.156239 240.806074 
L 379.55671 205.729567 
L 380.95718 216.74151 
L 382.357651 221.239134 
L 383.758121 222.049942 
L 385.158592 236.243828 
L 385.158592 236.243828 
" clip-path="url(#p798524cd20)" style="fill: none; stroke: #1f77b4; stroke-width: 1.5; stroke-linecap: square"/>
   </g>
   <g id="line2d_17">
    <path d="M 29.439062 230.929789 
L 30.839533 242.60231 
L 32.240004 262.8168 
L 33.640474 257.425513 
L 35.040945 253.337157 
L 36.441415 259.836211 
L 37.841886 254.434415 
L 39.242357 240.414674 
L 40.642827 228.735232 
L 42.043298 213.41839 
L 43.443768 223.501825 
L 44.844239 248.433331 
L 46.24471 230.677266 
L 47.64518 229.912564 
L 49.045651 262.11981 
L 50.446121 259.625445 
L 51.846592 245.355694 
L 53.247062 243.118728 
L 54.647533 189.281671 
L 56.048004 152.189606 
L 57.448474 182.917915 
L 58.848945 119.473036 
L 60.249415 68.196709 
L 61.649886 137.669929 
L 63.050357 141.957318 
L 64.450827 170.127431 
L 65.851298 187.579679 
L 67.251768 141.084002 
L 68.652239 138.693349 
L 70.05271 201.292679 
L 71.45318 186.000414 
L 72.853651 80.567026 
L 74.254121 78.413733 
L 75.654592 99.383107 
L 77.055062 67.931655 
L 78.455533 58.815077 
L 79.856004 58.306173 
L 81.256474 75.699401 
L 82.656945 113.713912 
L 84.057415 113.383995 
L 85.457886 146.569691 
L 86.858357 147.022086 
L 88.258827 133.443524 
L 89.659298 151.100956 
L 91.059768 156.832948 
L 92.460239 178.224324 
L 93.86071 186.098223 
L 95.26118 189.532009 
L 96.661651 209.091256 
L 98.062121 194.807872 
L 99.462592 168.434555 
L 100.863063 185.419494 
L 102.263533 188.44227 
L 103.664004 185.724694 
L 105.064474 192.276003 
L 106.464945 183.362139 
L 107.865415 181.032368 
L 109.265886 195.324076 
L 110.666357 198.546144 
L 112.066827 189.431392 
L 113.467298 187.79659 
L 114.867768 198.54902 
L 116.268239 201.914295 
L 117.66871 194.115474 
L 119.06918 187.422411 
L 120.469651 184.383085 
L 121.870121 191.750659 
L 123.270592 196.087179 
L 124.671062 186.997904 
L 126.071533 184.346184 
L 127.472004 190.473981 
L 128.872474 199.403219 
L 130.272945 215.633088 
L 131.673415 217.185071 
L 133.073886 213.134848 
L 134.474357 211.351742 
L 135.874827 210.94113 
L 137.275298 210.228598 
L 138.675768 198.987184 
L 140.076239 175.731796 
L 141.47671 162.744798 
L 144.277651 195.737687 
L 145.678121 196.62741 
L 147.078592 200.268399 
L 148.479062 214.327003 
L 149.879533 224.517111 
L 151.280004 240.462163 
L 152.680474 244.757718 
L 154.080945 241.063165 
L 155.481415 244.236496 
L 156.881886 249.249927 
L 158.282357 251.518783 
L 159.682827 251.727342 
L 161.083298 247.466905 
L 162.483768 247.402446 
L 163.884239 246.595581 
L 165.28471 235.262778 
L 166.68518 234.987471 
L 168.085651 240.181603 
L 169.486121 234.304978 
L 170.886592 231.390872 
L 172.287062 227.332189 
L 173.687533 220.846856 
L 175.088004 235.644814 
L 176.488474 249.196285 
L 177.888945 241.279862 
L 179.289415 235.839395 
L 180.689886 235.281663 
L 182.090357 229.316941 
L 183.490827 227.743627 
L 184.891298 248.882551 
L 186.291768 230.621466 
L 187.692239 204.147875 
L 189.09271 220.93913 
L 190.49318 229.635769 
L 191.893651 222.625721 
L 193.294121 191.792225 
L 194.694592 191.471858 
L 196.095063 219.272458 
L 197.495533 231.97864 
L 198.896004 232.42119 
L 200.296474 223.814193 
L 201.696945 212.595296 
L 203.097415 241.501939 
L 204.497886 230.097519 
L 205.898357 212.536835 
L 207.298827 231.223399 
L 208.699298 220.196168 
L 210.099768 211.66473 
L 211.500239 226.773505 
L 212.90071 224.052711 
L 214.30118 244.24423 
L 215.701651 237.116008 
L 217.102121 178.033043 
L 219.903062 204.731901 
L 221.303533 194.218394 
L 222.704004 200.456001 
L 224.104474 177.011185 
L 225.504945 179.059561 
L 226.905415 227.005264 
L 228.305886 215.29372 
L 229.706357 189.34014 
L 231.106827 207.855357 
L 232.507298 209.25497 
L 233.907768 194.345323 
L 235.308239 202.914504 
L 236.70871 199.04078 
L 238.10918 191.364392 
L 239.509651 194.846812 
L 240.910121 176.074523 
L 242.310592 175.764073 
L 243.711062 194.009205 
L 245.111533 176.860376 
L 246.512004 152.516084 
L 247.912474 198.91713 
L 249.312945 203.448625 
L 250.713415 180.273516 
L 252.113886 196.993923 
L 253.514357 187.318791 
L 254.914827 192.562593 
L 256.315298 207.954654 
L 257.715768 183.674736 
L 259.116239 192.091624 
L 260.51671 217.873602 
L 261.91718 220.737602 
L 263.317651 208.513572 
L 264.718121 186.8113 
L 266.118592 198.998945 
L 267.519062 202.972279 
L 268.919533 189.440136 
L 270.320004 183.678277 
L 271.720474 188.335204 
L 273.120945 198.897374 
L 274.521415 187.448754 
L 275.921886 197.179515 
L 277.322357 198.341262 
L 278.722827 176.894581 
L 280.123298 187.16406 
L 281.523768 198.406453 
L 282.924239 201.724689 
L 284.32471 190.654224 
L 285.72518 163.401008 
L 287.125651 182.424595 
L 288.526121 217.110216 
L 289.926592 212.600777 
L 291.327063 204.687964 
L 292.727533 194.139114 
L 294.128004 188.526714 
L 295.528474 196.119779 
L 296.928945 185.880047 
L 298.329415 174.173214 
L 299.729886 171.1536 
L 301.130357 177.474475 
L 302.530827 185.48723 
L 303.931298 178.891638 
L 305.331768 177.554882 
L 306.732239 191.49043 
L 308.13271 194.588989 
L 309.53318 201.412831 
L 310.933651 210.756455 
L 312.334121 207.532084 
L 313.734592 200.270107 
L 315.135062 200.091846 
L 316.535533 198.165608 
L 317.936004 191.313905 
L 319.336474 200.651084 
L 320.736945 211.235099 
L 322.137415 206.046382 
L 323.537886 209.168684 
L 324.938357 210.952529 
L 326.338827 212.341773 
L 327.739298 238.302243 
L 329.139768 240.353858 
L 330.540239 218.904029 
L 331.94071 232.400817 
L 333.34118 252.888083 
L 334.741651 237.150337 
L 336.142121 177.577562 
L 337.542592 108.989297 
L 338.943062 133.576313 
L 340.343533 186.602691 
L 341.744004 205.566408 
L 343.144474 189.803691 
L 344.544945 193.854637 
L 345.945415 237.669294 
L 347.345886 256.234041 
L 348.746357 249.907348 
L 350.146827 236.3212 
L 351.547298 216.936234 
L 352.947768 230.424572 
L 354.348239 257.029702 
L 355.74871 254.991137 
L 357.14918 247.048016 
L 358.549651 247.219224 
L 359.950121 241.544538 
L 361.350592 239.046068 
L 362.751062 244.791574 
L 364.151533 242.11844 
L 365.552004 244.62081 
L 366.952474 246.332876 
L 368.352945 238.909678 
L 369.753415 233.847098 
L 371.153886 252.591834 
L 372.554357 260.456547 
L 373.954827 247.319155 
L 375.355298 237.521782 
L 376.755768 239.155159 
L 378.156239 243.68652 
L 379.55671 224.763671 
L 380.95718 211.366742 
L 382.357651 219.013772 
L 383.758121 221.645319 
L 385.158592 229.405031 
L 385.158592 229.405031 
" clip-path="url(#p798524cd20)" style="fill: none; stroke: #ff7f0e; stroke-width: 1.5; stroke-linecap: square"/>
   </g>
   <g id="line2d_18">
    <path d="M 29.439062 229.122786 
L 30.839533 239.928401 
L 32.240004 252.698705 
L 33.640474 256.780278 
L 35.040945 259.139403 
L 36.441415 254.622372 
L 37.841886 257.208287 
L 39.242357 246.388486 
L 40.642827 237.055655 
L 42.043298 218.326475 
L 44.844239 233.387372 
L 46.24471 236.234427 
L 47.64518 237.293425 
L 50.446121 256.313321 
L 51.846592 255.822722 
L 53.247062 243.109331 
L 54.647533 212.36467 
L 57.448474 162.563334 
L 58.848945 143.84129 
L 60.249415 113.406318 
L 61.649886 107.256927 
L 63.050357 129.127564 
L 64.450827 169.610337 
L 65.851298 165.645532 
L 67.251768 169.115602 
L 68.652239 144.753156 
L 70.05271 179.647632 
L 71.45318 175.437505 
L 72.853651 150.710969 
L 74.254121 88.208754 
L 75.654592 84.394062 
L 77.055062 80.114816 
L 78.455533 71.804879 
L 79.856004 51.239386 
L 81.256474 76.931758 
L 82.656945 90.291085 
L 84.057415 112.392863 
L 85.457886 137.201801 
L 86.858357 135.362509 
L 88.258827 149.276885 
L 89.659298 138.58476 
L 91.059768 155.795645 
L 92.460239 168.900399 
L 96.661651 200.539182 
L 98.062121 195.575228 
L 99.462592 187.912342 
L 100.863063 178.52472 
L 102.263533 183.482093 
L 103.664004 189.523726 
L 105.064474 188.153999 
L 106.464945 186.18367 
L 107.865415 185.09643 
L 109.265886 188.315827 
L 110.666357 195.281979 
L 112.066827 193.687884 
L 113.467298 190.308761 
L 114.867768 193.689874 
L 116.268239 198.708102 
L 117.66871 197.755094 
L 119.06918 191.402728 
L 120.469651 185.944654 
L 121.870121 189.7987 
L 123.270592 191.844605 
L 124.671062 191.480812 
L 126.071533 186.955724 
L 127.472004 187.634041 
L 128.872474 195.355837 
L 130.272945 208.84012 
L 133.073886 217.476612 
L 134.474357 210.241718 
L 135.874827 213.36349 
L 137.275298 208.263285 
L 138.675768 205.402114 
L 140.076239 185.324114 
L 141.47671 174.344388 
L 142.87718 170.831497 
L 144.277651 188.120092 
L 145.678121 193.123075 
L 147.078592 201.848623 
L 148.479062 206.082407 
L 149.879533 220.402845 
L 151.280004 233.236603 
L 152.680474 240.583648 
L 154.080945 243.620823 
L 155.481415 243.114997 
L 158.282357 250.064959 
L 159.682827 251.607698 
L 161.083298 248.893225 
L 162.483768 248.891095 
L 163.884239 245.382199 
L 166.68518 237.10204 
L 168.085651 236.582508 
L 169.486121 236.477418 
L 170.886592 234.241533 
L 172.287062 227.752305 
L 173.687533 225.467971 
L 175.088004 230.718701 
L 176.488474 240.92208 
L 177.888945 243.507227 
L 179.289415 241.044337 
L 180.689886 233.826969 
L 182.090357 233.222764 
L 183.490827 228.38915 
L 184.891298 242.740121 
L 186.291768 229.269077 
L 187.692239 229.870881 
L 189.09271 207.161383 
L 190.49318 229.209749 
L 191.893651 219.501156 
L 193.294121 212.031087 
L 194.694592 192.98185 
L 196.095063 209.581314 
L 197.495533 221.065989 
L 198.896004 234.616737 
L 200.296474 224.06468 
L 201.696945 222.447011 
L 203.097415 230.764786 
L 204.497886 226.735849 
L 205.898357 230.732013 
L 207.298827 218.850986 
L 208.699298 224.281475 
L 210.099768 218.302399 
L 211.500239 221.123664 
L 212.90071 220.93512 
L 214.30118 242.141688 
L 215.701651 228.364316 
L 217.102121 218.44859 
L 218.502592 190.029585 
L 219.903062 193.727182 
L 221.303533 200.139008 
L 222.704004 199.610689 
L 224.104474 181.624175 
L 225.504945 190.09163 
L 228.305886 214.510045 
L 229.706357 208.573118 
L 231.106827 200.569432 
L 232.507298 204.342327 
L 233.907768 203.652593 
L 235.308239 200.974213 
L 236.70871 196.618162 
L 238.10918 199.093369 
L 239.509651 191.026031 
L 240.910121 184.214067 
L 242.310592 180.790352 
L 243.711062 183.611312 
L 245.111533 181.298308 
L 246.512004 169.270937 
L 247.912474 184.905831 
L 249.312945 188.492178 
L 250.713415 200.403438 
L 252.113886 187.108997 
L 253.514357 189.611924 
L 254.914827 195.033037 
L 256.315298 197.447481 
L 257.715768 192.747876 
L 259.116239 197.145102 
L 260.51671 200.314175 
L 261.91718 220.626045 
L 264.718121 201.295556 
L 266.118592 195.464272 
L 267.519062 197.405968 
L 268.919533 197.113713 
L 270.320004 187.261183 
L 271.720474 187.08549 
L 273.120945 193.741822 
L 274.521415 189.550213 
L 275.921886 199.469935 
L 277.322357 189.152671 
L 278.722827 193.119185 
L 280.123298 182.150609 
L 281.523768 193.164416 
L 282.924239 198.60058 
L 284.32471 195.400607 
L 285.72518 176.246527 
L 287.125651 182.20913 
L 288.526121 196.443074 
L 289.926592 212.928431 
L 291.327063 210.214796 
L 292.727533 197.539344 
L 294.128004 194.357613 
L 296.928945 188.916137 
L 298.329415 182.357292 
L 299.729886 171.871023 
L 301.130357 176.669151 
L 302.530827 179.625281 
L 303.931298 181.687232 
L 305.331768 179.678119 
L 306.732239 185.826618 
L 308.13271 190.280728 
L 309.53318 201.282161 
L 310.933651 203.568241 
L 312.334121 209.613962 
L 313.734592 202.82065 
L 315.135062 202.539923 
L 316.535533 196.411828 
L 317.936004 196.743275 
L 319.336474 196.795762 
L 320.736945 205.708887 
L 322.137415 206.399686 
L 323.537886 211.222913 
L 324.938357 206.203506 
L 326.338827 215.275699 
L 327.739298 227.04317 
L 329.139768 235.049338 
L 330.540239 230.893623 
L 331.94071 231.014516 
L 333.34118 240.403632 
L 334.741651 242.143466 
L 336.142121 209.55923 
L 337.542592 152.790998 
L 338.943062 131.180415 
L 340.343533 159.879638 
L 341.744004 194.434509 
L 343.144474 194.078898 
L 344.544945 199.039398 
L 345.945415 218.686553 
L 347.345886 244.703586 
L 348.746357 251.750355 
L 350.146827 243.877834 
L 351.547298 225.985777 
L 352.947768 230.404356 
L 355.74871 254.199875 
L 357.14918 252.076606 
L 359.950121 243.017663 
L 361.350592 242.328067 
L 362.751062 241.322359 
L 364.151533 242.707579 
L 365.552004 244.981923 
L 366.952474 243.764543 
L 368.352945 242.927891 
L 369.753415 236.657187 
L 371.153886 247.335431 
L 372.554357 252.068319 
L 373.954827 255.212423 
L 375.355298 242.265414 
L 376.755768 240.610269 
L 378.156239 239.708955 
L 379.55671 232.583033 
L 380.95718 222.156768 
L 382.357651 214.756056 
L 383.758121 220.03548 
L 385.158592 226.75576 
L 385.158592 226.75576 
" clip-path="url(#p798524cd20)" style="fill: none; stroke: #2ca02c; stroke-width: 1.5; stroke-linecap: square"/>
   </g>
   <g id="line2d_19">
    <path d="M 29.439062 221.275211 
L 30.839533 236.505406 
L 32.240004 248.478994 
L 33.640474 250.372301 
L 35.040945 258.240554 
L 36.441415 258.641514 
L 37.841886 253.887849 
L 39.242357 250.742613 
L 40.642827 242.558839 
L 42.043298 227.832517 
L 43.443768 226.152528 
L 44.844239 232.537407 
L 46.24471 227.154092 
L 47.64518 239.663468 
L 49.045651 247.949949 
L 50.446121 246.12502 
L 51.846592 254.219959 
L 53.247062 251.824807 
L 54.647533 220.968504 
L 56.048004 205.919399 
L 57.448474 186.135769 
L 58.848945 136.533121 
L 60.249415 133.903952 
L 61.649886 128.780364 
L 63.050357 108.165345 
L 64.450827 154.661857 
L 65.851298 166.381937 
L 67.251768 156.222628 
L 70.05271 174.127491 
L 71.45318 164.056515 
L 72.853651 151.002816 
L 74.254121 139.788926 
L 75.654592 90.161987 
L 77.055062 73.226844 
L 78.455533 79.930908 
L 79.856004 63.162834 
L 81.256474 67.394559 
L 82.656945 87.608872 
L 84.057415 95.307164 
L 85.457886 130.829051 
L 86.858357 130.923693 
L 89.659298 149.07322 
L 91.059768 145.514995 
L 92.460239 165.230701 
L 93.86071 172.15619 
L 95.26118 183.990017 
L 96.661651 198.107108 
L 98.062121 192.195781 
L 99.462592 190.267628 
L 100.863063 190.194295 
L 102.263533 178.776002 
L 103.664004 185.572177 
L 105.064474 190.372599 
L 106.464945 184.54832 
L 107.865415 186.766963 
L 109.265886 189.473261 
L 110.666357 190.069324 
L 112.066827 192.410021 
L 116.268239 195.044354 
L 117.66871 196.351076 
L 119.06918 194.867136 
L 120.469651 189.335364 
L 121.870121 189.603599 
L 123.270592 190.360547 
L 124.671062 189.394825 
L 126.071533 190.342872 
L 127.472004 188.74688 
L 128.872474 192.084855 
L 130.272945 203.69443 
L 131.673415 208.628052 
L 133.073886 214.390906 
L 134.474357 214.306201 
L 135.874827 212.043229 
L 137.275298 210.791529 
L 138.675768 205.110817 
L 140.076239 194.096195 
L 141.47671 181.995215 
L 142.87718 177.300368 
L 144.277651 180.166067 
L 145.678121 188.02426 
L 147.078592 198.022962 
L 149.879533 213.03684 
L 151.280004 228.256977 
L 152.680474 235.194567 
L 154.080945 240.763189 
L 155.481415 244.49752 
L 156.881886 245.259188 
L 159.682827 250.498685 
L 161.083298 249.519384 
L 162.483768 249.59516 
L 163.884239 247.032432 
L 165.28471 241.548346 
L 166.68518 240.987516 
L 169.486121 234.646856 
L 170.886592 235.892398 
L 173.687533 226.256947 
L 175.088004 231.579139 
L 176.488474 236.122417 
L 177.888945 238.507266 
L 179.289415 242.782759 
L 180.689886 238.331566 
L 182.090357 232.634606 
L 183.490827 231.587191 
L 184.891298 239.646891 
L 186.291768 229.193149 
L 187.692239 229.040635 
L 189.09271 225.896331 
L 190.49318 217.632953 
L 191.893651 221.78581 
L 193.294121 212.266073 
L 194.694592 208.065956 
L 196.095063 206.313066 
L 197.495533 213.521109 
L 198.896004 226.061058 
L 200.296474 227.980673 
L 201.696945 222.980288 
L 203.097415 233.074257 
L 204.497886 221.710038 
L 205.898357 228.075685 
L 207.298827 230.662107 
L 208.699298 216.432907 
L 210.099768 221.898783 
L 211.500239 223.537176 
L 212.90071 218.034898 
L 214.30118 235.927619 
L 215.701651 230.806248 
L 217.102121 215.976432 
L 218.502592 216.679967 
L 219.903062 192.041922 
L 221.303533 192.910047 
L 222.704004 202.612348 
L 224.104474 185.877122 
L 225.504945 190.175906 
L 226.905415 204.536808 
L 228.305886 198.448671 
L 229.706357 209.676726 
L 231.106827 211.634562 
L 232.507298 199.686873 
L 233.907768 201.281933 
L 235.308239 206.126362 
L 236.70871 196.71423 
L 238.10918 197.268091 
L 239.509651 196.960725 
L 240.910121 183.923798 
L 242.310592 185.627441 
L 243.711062 185.325715 
L 245.111533 176.313222 
L 246.512004 174.670499 
L 247.912474 188.327129 
L 249.312945 180.177036 
L 252.113886 200.262414 
L 253.514357 183.839538 
L 254.914827 194.796847 
L 256.315298 198.049398 
L 257.715768 188.189868 
L 259.116239 200.271432 
L 260.51671 201.939318 
L 261.91718 207.269481 
L 263.317651 213.289999 
L 264.718121 204.949238 
L 266.118592 203.848238 
L 267.519062 195.139464 
L 268.919533 194.305696 
L 270.320004 193.674278 
L 271.720474 188.888776 
L 273.120945 191.5016 
L 274.521415 187.892686 
L 275.921886 198.041309 
L 277.322357 193.005785 
L 278.722827 187.405469 
L 280.123298 192.869183 
L 281.523768 188.066754 
L 282.924239 194.64471 
L 284.32471 194.587132 
L 285.72518 183.841066 
L 287.125651 186.599767 
L 288.526121 192.921842 
L 289.926592 198.395901 
L 291.327063 211.065593 
L 294.128004 196.858291 
L 295.528474 195.13317 
L 296.928945 187.209652 
L 298.329415 185.572071 
L 299.729886 178.699715 
L 301.130357 175.832866 
L 302.530827 178.493445 
L 303.931298 178.184745 
L 305.331768 181.575194 
L 306.732239 185.331186 
L 308.13271 186.329848 
L 309.53318 196.546057 
L 310.933651 202.936162 
L 312.334121 204.510717 
L 313.734592 205.626636 
L 315.135062 203.868227 
L 316.535533 199.222196 
L 317.936004 195.776348 
L 319.336474 199.414406 
L 320.736945 201.670223 
L 322.137415 203.378204 
L 323.537886 210.206468 
L 324.938357 208.524885 
L 326.338827 210.766072 
L 327.739298 225.546373 
L 330.540239 229.083162 
L 331.94071 236.464788 
L 333.34118 237.497733 
L 334.741651 234.806213 
L 336.142121 221.777563 
L 337.542592 187.059161 
L 338.943062 156.996009 
L 340.343533 152.052377 
L 341.744004 173.746238 
L 343.144474 188.21243 
L 344.544945 199.845473 
L 345.945415 216.297816 
L 348.746357 244.014071 
L 350.146827 246.895303 
L 351.547298 234.888058 
L 352.947768 233.419403 
L 354.348239 239.247932 
L 355.74871 243.609469 
L 357.14918 252.205565 
L 358.549651 251.204953 
L 359.950121 244.342162 
L 361.350592 243.23247 
L 362.751062 243.18381 
L 364.151533 240.595936 
L 365.552004 244.706237 
L 366.952474 244.25254 
L 368.352945 241.813187 
L 369.753415 240.314936 
L 371.153886 246.039879 
L 372.554357 248.270489 
L 373.954827 250.000714 
L 375.355298 249.838473 
L 376.755768 243.336882 
L 378.156239 240.659262 
L 379.55671 232.232699 
L 380.95718 228.85032 
L 382.357651 221.92811 
L 383.758121 216.625799 
L 385.158592 224.341012 
L 385.158592 224.341012 
" clip-path="url(#p798524cd20)" style="fill: none; stroke: #d62728; stroke-width: 1.5; stroke-linecap: square"/>
   </g>
   <g id="line2d_20">
    <path d="M 29.439062 222.506149 
L 30.839533 229.225195 
L 32.240004 244.328125 
L 33.640474 247.402355 
L 35.040945 252.954749 
L 36.441415 258.019032 
L 37.841886 257.295259 
L 39.242357 249.2435 
L 40.642827 246.974437 
L 42.043298 234.54074 
L 43.443768 231.861658 
L 44.844239 231.553594 
L 46.24471 227.717781 
L 47.64518 232.012654 
L 49.045651 247.643113 
L 51.846592 246.413994 
L 53.247062 251.305355 
L 54.647533 234.325278 
L 56.048004 214.484016 
L 57.448474 201.387908 
L 58.848945 163.586194 
L 60.249415 129.858474 
L 61.649886 141.397281 
L 63.050357 125.3209 
L 64.450827 134.972888 
L 65.851298 154.989431 
L 67.251768 158.76708 
L 68.652239 155.361922 
L 70.05271 182.873277 
L 71.45318 162.532711 
L 72.853651 145.998895 
L 74.254121 142.271252 
L 75.654592 131.739654 
L 77.055062 80.2958 
L 78.455533 74.469261 
L 79.856004 71.612377 
L 81.256474 73.369884 
L 82.656945 78.170446 
L 84.057415 92.205622 
L 85.457886 114.651386 
L 86.858357 126.98029 
L 88.258827 135.707335 
L 89.659298 141.820322 
L 91.059768 152.338799 
L 92.460239 155.572908 
L 93.86071 168.629853 
L 95.26118 177.501124 
L 96.661651 192.046346 
L 98.062121 191.863517 
L 99.462592 188.562489 
L 100.863063 191.603524 
L 102.263533 188.124556 
L 103.664004 181.447777 
L 105.064474 187.0666 
L 106.464945 187.0915 
L 107.865415 185.34807 
L 109.265886 189.913695 
L 110.666357 190.637736 
L 112.066827 188.763136 
L 114.867768 195.654061 
L 116.268239 195.075047 
L 117.66871 193.860278 
L 119.06918 194.307816 
L 120.469651 192.563919 
L 121.870121 191.542008 
L 124.671062 188.685177 
L 126.071533 188.893792 
L 127.472004 191.078975 
L 128.872474 192.074346 
L 130.272945 199.593102 
L 131.673415 204.565698 
L 133.073886 210.577143 
L 134.474357 212.428944 
L 135.874827 214.907852 
L 137.275298 210.23647 
L 138.675768 207.817891 
L 140.076239 196.188428 
L 141.47671 189.862088 
L 142.87718 182.770205 
L 144.277651 183.291563 
L 145.678121 181.712392 
L 147.078592 193.113415 
L 149.879533 211.463604 
L 152.680474 230.909798 
L 155.481415 242.063784 
L 156.881886 245.919887 
L 158.282357 246.583547 
L 159.682827 248.741635 
L 161.083298 249.036102 
L 162.483768 249.952996 
L 163.884239 247.98217 
L 165.28471 243.701758 
L 166.68518 241.373489 
L 168.085651 240.72956 
L 169.486121 235.993508 
L 170.886592 234.540632 
L 172.287062 232.924776 
L 173.687533 229.099784 
L 175.088004 230.988135 
L 176.488474 235.724345 
L 177.888945 235.091221 
L 179.289415 238.923995 
L 180.689886 240.309621 
L 182.090357 236.532871 
L 183.490827 231.439783 
L 184.891298 239.832571 
L 186.291768 229.288225 
L 187.692239 229.025515 
L 189.09271 226.018762 
L 190.49318 229.776904 
L 191.893651 213.604985 
L 193.294121 215.680869 
L 194.694592 209.062995 
L 196.095063 214.984372 
L 197.495533 210.206824 
L 198.896004 219.314815 
L 200.296474 222.17396 
L 201.696945 226.369517 
L 203.097415 231.430807 
L 204.497886 225.577264 
L 205.898357 223.851206 
L 207.298827 228.555607 
L 208.699298 226.648719 
L 210.099768 216.031922 
L 211.500239 225.28565 
L 212.90071 220.640156 
L 214.30118 231.061495 
L 215.701651 227.73105 
L 217.102121 220.726004 
L 218.502592 215.037011 
L 219.903062 213.157231 
L 221.303533 191.720756 
L 222.704004 196.460668 
L 224.104474 191.350375 
L 225.504945 191.757527 
L 226.905415 201.836996 
L 228.305886 200.792232 
L 229.706357 197.550137 
L 231.106827 211.894043 
L 232.507298 208.846332 
L 233.907768 198.115669 
L 235.308239 203.773183 
L 236.70871 201.828184 
L 238.10918 197.214919 
L 239.509651 195.912493 
L 242.310592 185.115566 
L 243.711062 188.215948 
L 245.111533 179.230873 
L 246.512004 171.901027 
L 247.912474 188.619752 
L 249.312945 183.951829 
L 250.713415 183.070739 
L 252.113886 191.957715 
L 253.514357 195.323676 
L 254.914827 189.316525 
L 256.315298 197.266248 
L 257.715768 190.602066 
L 259.116239 195.331172 
L 260.51671 203.427593 
L 261.91718 207.153921 
L 263.317651 203.660003 
L 264.718121 208.209749 
L 266.118592 206.225655 
L 267.519062 201.968952 
L 268.919533 193.086981 
L 270.320004 192.080368 
L 271.720474 193.671134 
L 273.120945 192.037551 
L 274.521415 187.230909 
L 275.921886 195.127704 
L 277.322357 193.136595 
L 278.722827 190.879234 
L 280.123298 188.360647 
L 281.523768 195.259724 
L 282.924239 190.323195 
L 284.32471 192.16594 
L 285.72518 185.535827 
L 287.125651 190.356327 
L 288.526121 194.157665 
L 289.926592 195.231943 
L 291.327063 199.805793 
L 292.727533 205.75506 
L 294.128004 201.980701 
L 295.528474 196.973377 
L 298.329415 184.857416 
L 299.729886 182.068236 
L 301.130357 180.423619 
L 302.530827 177.468219 
L 303.931298 177.562124 
L 305.331768 178.80059 
L 306.732239 185.690961 
L 308.13271 185.834271 
L 310.933651 198.87215 
L 312.334121 203.82049 
L 313.734592 202.259429 
L 315.135062 205.894119 
L 316.535533 200.979192 
L 317.936004 198.165651 
L 319.336474 198.124359 
L 320.736945 202.74615 
L 322.137415 200.578123 
L 323.537886 207.104849 
L 324.938357 208.241904 
L 326.338827 211.671763 
L 327.739298 220.244674 
L 329.139768 226.078778 
L 330.540239 223.863886 
L 331.94071 233.998962 
L 333.34118 240.383726 
L 334.741651 233.517676 
L 336.142121 219.293385 
L 337.542592 203.251104 
L 338.943062 183.622751 
L 340.343533 167.197618 
L 341.744004 165.252998 
L 343.144474 172.562654 
L 344.544945 194.202864 
L 345.945415 213.618043 
L 347.345886 226.041419 
L 348.746357 232.462632 
L 350.146827 241.448056 
L 351.547298 239.391526 
L 352.947768 238.737845 
L 354.348239 239.787062 
L 355.74871 241.114508 
L 357.14918 244.070253 
L 358.549651 251.48424 
L 359.950121 248.029576 
L 361.350592 244.248661 
L 362.751062 243.731784 
L 364.151533 242.244278 
L 365.552004 242.65733 
L 366.952474 244.176889 
L 368.352945 242.605043 
L 369.753415 239.931252 
L 371.153886 246.935916 
L 372.554357 247.059347 
L 373.954827 247.328921 
L 375.355298 246.558014 
L 376.755768 249.176368 
L 378.156239 242.836748 
L 379.55671 234.590488 
L 380.95718 229.319501 
L 382.357651 227.373291 
L 383.758121 221.952487 
L 385.158592 220.862935 
L 385.158592 220.862935 
" clip-path="url(#p798524cd20)" style="fill: none; stroke: #9467bd; stroke-width: 1.5; stroke-linecap: square"/>
   </g>
   <g id="line2d_21">
    <path d="M 29.439062 221.989476 
L 30.839533 228.904971 
L 32.240004 237.483987 
L 33.640474 244.099331 
L 35.040945 250.133055 
L 37.841886 256.994611 
L 39.242357 253.038847 
L 42.043298 239.915086 
L 43.443768 236.632969 
L 44.844239 235.239876 
L 46.24471 227.68395 
L 47.64518 231.670455 
L 49.045651 240.522 
L 50.446121 246.901912 
L 51.846592 247.094508 
L 53.247062 245.135114 
L 54.647533 236.98727 
L 56.048004 227.417148 
L 57.448474 209.558869 
L 60.249415 154.479575 
L 61.649886 136.912814 
L 63.050357 136.626651 
L 64.450827 143.651398 
L 65.851298 138.702995 
L 67.251768 150.24993 
L 68.652239 157.637623 
L 70.05271 172.805614 
L 71.45318 172.308881 
L 72.853651 147.756838 
L 74.254121 139.424444 
L 75.654592 135.249771 
L 77.055062 118.380389 
L 78.455533 80.14313 
L 79.856004 68.347758 
L 81.256474 78.528388 
L 84.057415 83.731536 
L 85.457886 109.142714 
L 86.858357 114.016671 
L 88.258827 131.704446 
L 89.659298 137.894546 
L 91.059768 145.867244 
L 92.460239 159.375849 
L 93.86071 160.199988 
L 95.26118 173.774933 
L 96.661651 185.603024 
L 98.062121 187.691034 
L 100.863063 189.973888 
L 102.263533 189.661866 
L 103.664004 188.720384 
L 105.064474 183.420157 
L 106.464945 184.839306 
L 107.865415 187.32764 
L 109.265886 188.234936 
L 110.666357 190.808875 
L 112.066827 189.459306 
L 113.467298 189.315904 
L 114.867768 194.488321 
L 116.268239 196.222111 
L 117.66871 194.084129 
L 119.06918 192.551171 
L 120.469651 192.477858 
L 121.870121 193.836383 
L 123.270592 191.623847 
L 124.671062 188.740474 
L 126.071533 188.38451 
L 127.472004 189.755489 
L 128.872474 193.432394 
L 130.272945 198.363082 
L 131.673415 201.032618 
L 133.073886 206.925265 
L 134.474357 209.543013 
L 135.874827 213.252545 
L 137.275298 212.963095 
L 138.675768 207.846519 
L 141.47671 192.369156 
L 142.87718 189.197994 
L 145.678121 184.042107 
L 147.078592 187.198671 
L 149.879533 207.540235 
L 151.280004 218.675332 
L 152.680474 224.780796 
L 154.080945 232.725185 
L 156.881886 243.690539 
L 158.282357 246.907814 
L 159.682827 247.474879 
L 161.083298 247.797075 
L 162.483768 249.480254 
L 163.884239 248.556817 
L 165.28471 245.08607 
L 166.68518 243.204053 
L 169.486121 238.815428 
L 170.886592 235.683007 
L 172.287062 232.270423 
L 173.687533 231.130882 
L 175.088004 232.49656 
L 176.488474 234.57189 
L 177.888945 234.929153 
L 179.289415 236.028174 
L 180.689886 237.444895 
L 182.090357 238.514573 
L 183.490827 234.934333 
L 184.891298 238.395766 
L 186.291768 231.266365 
L 187.692239 229.132824 
L 189.09271 226.515892 
L 190.49318 229.239417 
L 191.893651 224.817696 
L 193.294121 209.621523 
L 194.694592 212.522123 
L 197.495533 216.641101 
L 198.896004 215.732855 
L 200.296474 217.061613 
L 201.696945 221.758769 
L 203.097415 232.710465 
L 204.497886 225.409058 
L 205.898357 226.675144 
L 207.298827 224.981941 
L 208.699298 225.516094 
L 210.099768 224.706134 
L 211.500239 219.993368 
L 212.90071 222.621729 
L 214.30118 230.960194 
L 215.701651 224.808205 
L 217.102121 219.699069 
L 218.502592 219.194515 
L 219.903062 212.348296 
L 221.303533 209.65087 
L 222.704004 194.907088 
L 224.104474 187.807324 
L 225.504945 195.211158 
L 226.905415 201.189777 
L 228.305886 199.121299 
L 229.706357 199.667689 
L 231.106827 201.664094 
L 232.507298 209.536309 
L 233.907768 206.137929 
L 235.308239 200.771985 
L 236.70871 200.539284 
L 238.10918 201.393693 
L 240.910121 190.557175 
L 242.310592 190.24811 
L 243.711062 187.367939 
L 245.111533 182.763564 
L 246.512004 175.139954 
L 247.912474 184.260041 
L 250.713415 185.693006 
L 252.113886 186.011723 
L 253.514357 189.053189 
L 254.914827 197.746163 
L 256.315298 192.377572 
L 257.715768 191.188962 
L 259.116239 196.093335 
L 260.51671 198.888857 
L 261.91718 207.49831 
L 264.718121 200.805821 
L 266.118592 208.713277 
L 267.519062 204.293783 
L 268.919533 199.221764 
L 270.320004 191.424833 
L 271.720474 192.344692 
L 273.120945 195.438584 
L 274.521415 188.410429 
L 275.921886 193.421343 
L 277.322357 191.466693 
L 278.722827 191.34645 
L 280.123298 191.086209 
L 281.523768 191.173373 
L 282.924239 195.888562 
L 284.32471 188.934661 
L 285.72518 184.957424 
L 288.526121 195.922878 
L 289.926592 195.865522 
L 291.327063 196.964714 
L 292.727533 196.992366 
L 294.128004 203.993471 
L 295.528474 201.233957 
L 296.928945 193.29733 
L 298.329415 188.48751 
L 299.729886 182.050611 
L 301.130357 182.922867 
L 302.530827 180.997684 
L 303.931298 176.85942 
L 305.331768 178.181248 
L 306.732239 182.759312 
L 308.13271 186.049535 
L 309.53318 190.908696 
L 310.933651 194.995539 
L 312.334121 200.316108 
L 313.734592 202.053777 
L 315.135062 203.05515 
L 316.535533 203.188982 
L 317.936004 199.818307 
L 319.336474 199.700281 
L 320.736945 201.146293 
L 322.137415 201.664569 
L 323.537886 204.221356 
L 324.938357 205.956449 
L 326.338827 210.922625 
L 327.739298 219.423925 
L 329.139768 221.610325 
L 330.540239 223.37897 
L 331.94071 229.049003 
L 333.34118 237.766712 
L 334.741651 236.693885 
L 337.542592 204.185953 
L 338.943062 198.109798 
L 341.744004 175.034151 
L 343.144474 165.669523 
L 344.544945 180.766015 
L 345.945415 207.173387 
L 347.345886 222.415569 
L 348.746357 228.878611 
L 350.146827 232.116043 
L 351.547298 235.824645 
L 352.947768 241.744141 
L 354.348239 242.955834 
L 355.74871 241.247706 
L 357.14918 241.929208 
L 358.549651 244.83055 
L 359.950121 248.808845 
L 361.350592 247.351661 
L 362.751062 244.492239 
L 364.151533 242.862764 
L 365.552004 243.66558 
L 366.952474 242.552297 
L 368.352945 242.817807 
L 369.753415 240.92033 
L 371.153886 245.569599 
L 372.554357 247.629856 
L 373.954827 246.468575 
L 375.355298 244.839602 
L 376.755768 246.543437 
L 378.156239 247.840138 
L 379.55671 237.555391 
L 380.95718 231.830536 
L 382.357651 228.017048 
L 383.758121 226.505229 
L 385.158592 224.482092 
L 385.158592 224.482092 
" clip-path="url(#p798524cd20)" style="fill: none; stroke: #8c564b; stroke-width: 1.5; stroke-linecap: square"/>
   </g>
   <g id="line2d_22">
    <path d="M 29.439062 224.216778 
L 30.839533 227.596136 
L 32.240004 236.094002 
L 33.640474 238.285498 
L 35.040945 247.009287 
L 36.441415 251.173405 
L 37.841886 253.38057 
L 39.242357 253.391419 
L 40.642827 250.111493 
L 42.043298 240.35466 
L 43.443768 240.873149 
L 44.844239 238.743918 
L 46.24471 231.524757 
L 47.64518 231.087585 
L 49.045651 239.084283 
L 50.446121 240.893702 
L 51.846592 246.996197 
L 53.247062 245.910647 
L 54.647533 233.085415 
L 56.048004 230.86679 
L 57.448474 221.875268 
L 58.848945 192.984554 
L 60.249415 172.579527 
L 61.649886 156.56697 
L 63.050357 133.393898 
L 64.450827 150.105108 
L 65.851298 145.513232 
L 67.251768 136.739153 
L 68.652239 150.483069 
L 70.05271 172.207681 
L 71.45318 164.739432 
L 72.853651 159.007124 
L 74.254121 141.932814 
L 75.654592 133.752243 
L 78.455533 113.209754 
L 79.856004 74.203567 
L 81.256474 74.821343 
L 82.656945 84.425418 
L 84.057415 85.512302 
L 85.457886 100.005778 
L 86.858357 109.382331 
L 88.258827 120.19955 
L 89.659298 134.191304 
L 91.059768 141.997781 
L 92.460239 153.047456 
L 93.86071 162.735832 
L 95.26118 166.052801 
L 96.661651 181.433711 
L 98.062121 182.665304 
L 99.462592 185.684395 
L 100.863063 190.052933 
L 102.263533 188.528151 
L 103.664004 189.949308 
L 105.064474 189.323584 
L 106.464945 181.997329 
L 107.865415 185.368481 
L 109.265886 189.494891 
L 110.666357 189.251731 
L 112.066827 189.776067 
L 113.467298 189.831957 
L 114.867768 191.63289 
L 116.268239 195.146246 
L 117.66871 195.216294 
L 119.06918 192.932486 
L 120.469651 191.218756 
L 121.870121 193.58218 
L 123.270592 193.580143 
L 124.671062 190.258975 
L 126.071533 188.474989 
L 127.472004 189.198645 
L 128.872474 191.981943 
L 130.272945 198.601115 
L 131.673415 199.784621 
L 133.073886 203.618883 
L 134.474357 206.544268 
L 135.874827 210.681256 
L 137.275298 211.804545 
L 138.675768 210.573035 
L 140.076239 201.272819 
L 142.87718 191.453746 
L 144.277651 191.567199 
L 145.678121 186.873421 
L 147.078592 188.362043 
L 148.479062 191.892493 
L 151.280004 214.499122 
L 152.680474 222.158824 
L 154.080945 227.322903 
L 155.481415 234.922937 
L 156.881886 240.308315 
L 158.282357 244.880253 
L 159.682827 247.623529 
L 161.083298 246.836933 
L 162.483768 248.36133 
L 163.884239 248.346486 
L 165.28471 246.014508 
L 166.68518 244.469403 
L 168.085651 242.710852 
L 169.486121 239.410904 
L 170.886592 238.158751 
L 172.287062 233.598803 
L 173.687533 230.819473 
L 175.088004 233.710105 
L 176.488474 235.321048 
L 177.888945 234.048867 
L 179.289415 235.757231 
L 180.689886 235.145673 
L 182.090357 236.280027 
L 183.490827 236.891486 
L 184.891298 240.248563 
L 186.291768 231.206691 
L 187.692239 230.855381 
L 189.09271 226.97232 
L 190.49318 229.200263 
L 191.893651 225.060755 
L 193.294121 220.171876 
L 194.694592 207.679122 
L 196.095063 216.719103 
L 197.495533 216.123738 
L 198.896004 220.271379 
L 200.296474 214.26839 
L 201.696945 217.436337 
L 203.097415 228.104504 
L 204.497886 227.449084 
L 205.898357 226.376218 
L 207.298827 227.223636 
L 208.699298 222.819885 
L 210.099768 223.999794 
L 211.500239 226.684388 
L 212.90071 218.385403 
L 214.30118 231.107781 
L 215.701651 225.63427 
L 217.102121 218.212387 
L 218.502592 218.52415 
L 219.903062 216.383034 
L 221.303533 209.44702 
L 222.704004 209.664523 
L 224.104474 187.671964 
L 225.504945 191.709338 
L 226.905415 202.671045 
L 228.305886 198.947973 
L 229.706357 198.387136 
L 231.106827 202.852002 
L 232.507298 201.008475 
L 233.907768 207.131896 
L 235.308239 207.18111 
L 236.70871 198.380668 
L 238.10918 200.348606 
L 239.509651 199.87207 
L 240.910121 191.497092 
L 242.310592 190.446999 
L 243.711062 191.399083 
L 245.111533 182.804438 
L 246.512004 178.836405 
L 247.912474 185.145917 
L 249.312945 181.658839 
L 250.713415 186.284838 
L 252.113886 187.806378 
L 253.514357 184.297498 
L 254.914827 192.130815 
L 256.315298 199.063592 
L 257.715768 187.727666 
L 259.116239 195.808404 
L 260.51671 199.024939 
L 261.91718 203.154815 
L 263.317651 204.902638 
L 264.718121 201.663825 
L 266.118592 202.345891 
L 267.519062 206.736348 
L 268.919533 201.650842 
L 270.320004 196.995616 
L 271.720474 191.746216 
L 273.120945 194.064329 
L 274.521415 191.922213 
L 275.921886 193.527147 
L 277.322357 190.499864 
L 278.722827 190.157175 
L 280.123298 191.456708 
L 281.523768 193.073793 
L 282.924239 192.318328 
L 284.32471 193.959995 
L 285.72518 183.119016 
L 288.526121 195.385749 
L 289.926592 197.120655 
L 291.327063 197.255697 
L 292.727533 194.920628 
L 294.128004 196.680503 
L 295.528474 203.076989 
L 296.928945 197.57802 
L 298.329415 190.830877 
L 299.729886 185.624953 
L 301.130357 182.786056 
L 302.530827 183.053444 
L 303.931298 179.987536 
L 305.331768 177.492985 
L 306.732239 181.681811 
L 308.13271 183.494688 
L 309.53318 190.37394 
L 310.933651 193.456085 
L 312.334121 196.827227 
L 313.734592 199.273135 
L 315.135062 202.7665 
L 316.535533 201.103242 
L 317.936004 201.896283 
L 319.336474 200.885534 
L 320.736945 202.043694 
L 322.137415 200.439377 
L 323.537886 204.616121 
L 324.938357 203.633554 
L 326.338827 208.62509 
L 327.739298 217.74467 
L 329.139768 220.720925 
L 330.540239 219.863341 
L 331.94071 227.927071 
L 333.34118 233.158476 
L 334.741651 234.910488 
L 336.142121 225.785975 
L 337.542592 207.941713 
L 338.943062 199.687402 
L 340.343533 198.707123 
L 341.744004 190.269042 
L 343.144474 174.012436 
L 344.544945 174.001014 
L 347.345886 216.068495 
L 348.746357 225.453198 
L 350.146827 229.092188 
L 351.547298 228.265121 
L 352.947768 238.433858 
L 354.348239 244.842663 
L 355.74871 243.724589 
L 357.14918 241.926549 
L 358.549651 242.904976 
L 359.950121 243.356351 
L 361.350592 248.122206 
L 362.751062 247.117699 
L 364.151533 243.645552 
L 365.552004 243.986768 
L 366.952474 243.433191 
L 368.352945 241.603178 
L 369.753415 241.348576 
L 371.153886 245.588154 
L 373.954827 247.045601 
L 375.355298 244.443331 
L 378.156239 245.747859 
L 379.55671 242.868152 
L 380.95718 234.842259 
L 382.357651 230.38515 
L 383.758121 227.185875 
L 385.158592 227.958074 
L 385.158592 227.958074 
" clip-path="url(#p798524cd20)" style="fill: none; stroke: #e377c2; stroke-width: 1.5; stroke-linecap: square"/>
   </g>
   <g id="patch_3">
    <path d="M 29.439063 284.991437 
L 29.439063 18.879437 
" style="fill: none; stroke: #000000; stroke-width: 0.8; stroke-linejoin: miter; stroke-linecap: square"/>
   </g>
   <g id="patch_4">
    <path d="M 386.559062 284.991437 
L 386.559062 18.879437 
" style="fill: none; stroke: #000000; stroke-width: 0.8; stroke-linejoin: miter; stroke-linecap: square"/>
   </g>
   <g id="patch_5">
    <path d="M 29.439062 284.991437 
L 386.559063 284.991437 
" style="fill: none; stroke: #000000; stroke-width: 0.8; stroke-linejoin: miter; stroke-linecap: square"/>
   </g>
   <g id="patch_6">
    <path d="M 29.439062 18.879437 
L 386.559063 18.879437 
" style="fill: none; stroke: #000000; stroke-width: 0.8; stroke-linejoin: miter; stroke-linecap: square"/>
   </g>
   <g id="legend_1">
    <g id="patch_7">
     <path d="M 341.260625 127.613812 
L 379.559062 127.613812 
Q 381.559062 127.613812 381.559062 125.613812 
L 381.559062 25.879437 
Q 381.559062 23.879437 379.559062 23.879437 
L 341.260625 23.879437 
Q 339.260625 23.879437 339.260625 25.879437 
L 339.260625 125.613812 
Q 339.260625 127.613812 341.260625 127.613812 
z
" style="fill: #ffffff; opacity: 0.8; stroke: #cccccc; stroke-linejoin: miter"/>
    </g>
    <g id="line2d_23">
     <path d="M 343.260625 31.870062 
L 353.260625 31.870062 
L 363.260625 31.870062 
" style="fill: none; stroke: #1f77b4; stroke-width: 1.5; stroke-linecap: square"/>
    </g>
    <g id="text_15">
     <!-- 1 -->
     <g transform="translate(371.260625 35.370062) scale(0.1 -0.1)">
      <use xlink:href="#IPAexGothic-31"/>
     </g>
    </g>
    <g id="line2d_24">
     <path d="M 343.260625 46.260687 
L 353.260625 46.260687 
L 363.260625 46.260687 
" style="fill: none; stroke: #ff7f0e; stroke-width: 1.5; stroke-linecap: square"/>
    </g>
    <g id="text_16">
     <!-- 2 -->
     <g transform="translate(371.260625 49.760687) scale(0.1 -0.1)">
      <use xlink:href="#IPAexGothic-32"/>
     </g>
    </g>
    <g id="line2d_25">
     <path d="M 343.260625 60.651312 
L 353.260625 60.651312 
L 363.260625 60.651312 
" style="fill: none; stroke: #2ca02c; stroke-width: 1.5; stroke-linecap: square"/>
    </g>
    <g id="text_17">
     <!-- 3 -->
     <g transform="translate(371.260625 64.151312) scale(0.1 -0.1)">
      <use xlink:href="#IPAexGothic-33"/>
     </g>
    </g>
    <g id="line2d_26">
     <path d="M 343.260625 75.041937 
L 353.260625 75.041937 
L 363.260625 75.041937 
" style="fill: none; stroke: #d62728; stroke-width: 1.5; stroke-linecap: square"/>
    </g>
    <g id="text_18">
     <!-- 4 -->
     <g transform="translate(371.260625 78.541937) scale(0.1 -0.1)">
      <defs>
       <path id="IPAexGothic-34" d="M 3813 1159 
L 3059 1159 
L 3059 63 
L 2547 63 
L 2547 1159 
L 197 1159 
L 197 1672 
L 2456 4678 
L 3059 4678 
L 3059 1634 
L 3813 1634 
L 3813 1159 
z
M 2578 4109 
L 2559 4109 
Q 2278 3656 2003 3284 
L 759 1634 
L 2547 1634 
L 2547 3144 
Q 2547 3481 2578 4109 
z
" transform="scale(0.015625)"/>
      </defs>
      <use xlink:href="#IPAexGothic-34"/>
     </g>
    </g>
    <g id="line2d_27">
     <path d="M 343.260625 89.432562 
L 353.260625 89.432562 
L 363.260625 89.432562 
" style="fill: none; stroke: #9467bd; stroke-width: 1.5; stroke-linecap: square"/>
    </g>
    <g id="text_19">
     <!-- 5 -->
     <g transform="translate(371.260625 92.932562) scale(0.1 -0.1)">
      <use xlink:href="#IPAexGothic-35"/>
     </g>
    </g>
    <g id="line2d_28">
     <path d="M 343.260625 103.823187 
L 353.260625 103.823187 
L 363.260625 103.823187 
" style="fill: none; stroke: #8c564b; stroke-width: 1.5; stroke-linecap: square"/>
    </g>
    <g id="text_20">
     <!-- 6 -->
     <g transform="translate(371.260625 107.323187) scale(0.1 -0.1)">
      <defs>
       <path id="IPAexGothic-36" d="M 1056 2328 
Q 1509 2981 2234 2981 
Q 2906 2981 3316 2513 
Q 3675 2106 3675 1522 
Q 3675 884 3272 434 
Q 2853 -31 2178 -31 
Q 1375 -31 922 581 
Q 481 1178 481 2228 
Q 481 3425 1013 4109 
Q 1494 4725 2272 4725 
Q 3191 4725 3609 4025 
L 3150 3775 
Q 2894 4266 2300 4266 
Q 1119 4266 1031 2328 
L 1056 2328 
z
M 2141 2547 
Q 1684 2547 1384 2206 
Q 1116 1900 1116 1541 
Q 1116 1156 1353 844 
Q 1672 428 2159 428 
Q 2669 428 2941 844 
Q 3125 1128 3125 1503 
Q 3125 1944 2881 2228 
Q 2600 2547 2141 2547 
z
" transform="scale(0.015625)"/>
      </defs>
      <use xlink:href="#IPAexGothic-36"/>
     </g>
    </g>
    <g id="line2d_29">
     <path d="M 343.260625 118.213812 
L 353.260625 118.213812 
L 363.260625 118.213812 
" style="fill: none; stroke: #e377c2; stroke-width: 1.5; stroke-linecap: square"/>
    </g>
    <g id="text_21">
     <!-- 7 -->
     <g transform="translate(371.260625 121.713812) scale(0.1 -0.1)">
      <defs>
       <path id="IPAexGothic-37" d="M 3597 4263 
Q 2238 2106 1778 63 
L 1131 63 
Q 1581 1834 2950 4128 
L 428 4128 
L 428 4634 
L 3597 4634 
L 3597 4263 
z
" transform="scale(0.015625)"/>
      </defs>
      <use xlink:href="#IPAexGothic-37"/>
     </g>
    </g>
   </g>
  </g>
  <g id="axes_2">
   <g id="matplotlib.axis_3"/>
   <g id="patch_8">
    <path d="M 29.439063 284.991437 
L 29.439063 18.879437 
" style="fill: none; stroke: #000000; stroke-width: 0.8; stroke-linejoin: miter; stroke-linecap: square"/>
   </g>
   <g id="patch_9">
    <path d="M 386.559062 284.991437 
L 386.559062 18.879437 
" style="fill: none; stroke: #000000; stroke-width: 0.8; stroke-linejoin: miter; stroke-linecap: square"/>
   </g>
   <g id="patch_10">
    <path d="M 29.439062 284.991437 
L 386.559063 284.991437 
" style="fill: none; stroke: #000000; stroke-width: 0.8; stroke-linejoin: miter; stroke-linecap: square"/>
   </g>
   <g id="patch_11">
    <path d="M 29.439062 18.879437 
L 386.559063 18.879437 
" style="fill: none; stroke: #000000; stroke-width: 0.8; stroke-linejoin: miter; stroke-linecap: square"/>
   </g>
  </g>
  <g id="text_22">
   <!-- : 2023/02/10 16:15:16(JST) -->
   <g transform="translate(211.087188 15.423437) scale(0.1 -0.1)">
    <defs>
     <path id="IPAexGothic-66f4" d="M 2956 3994 
L 2956 4588 
L 513 4588 
L 513 4984 
L 5881 4984 
L 5881 4588 
L 3413 4588 
L 3413 3994 
L 5300 3994 
L 5300 1288 
L 4838 1288 
L 4838 1759 
L 3406 1759 
Q 3384 1125 3150 709 
Q 4291 244 5997 31 
L 5694 -428 
Q 4109 -166 2906 384 
Q 2294 -266 744 -488 
L 494 -66 
Q 1903 59 2491 588 
Q 2041 813 1594 1166 
L 1928 1434 
Q 2331 1106 2747 897 
Q 2922 1219 2950 1759 
L 1556 1759 
L 1556 1413 
L 1097 1413 
L 1097 3994 
L 2956 3994 
z
M 2956 3609 
L 1556 3609 
L 1556 3078 
L 2956 3078 
L 2956 3609 
z
M 3413 3609 
L 3413 3078 
L 4838 3078 
L 4838 3609 
L 3413 3609 
z
M 2956 2700 
L 1556 2700 
L 1556 2144 
L 2956 2144 
L 2956 2700 
z
M 3413 2700 
L 3413 2144 
L 4838 2144 
L 4838 2700 
L 3413 2700 
z
" transform="scale(0.015625)"/>
     <path id="IPAexGothic-65b0" d="M 3891 2803 
Q 3881 1759 3794 1166 
Q 3653 197 3097 -563 
L 2741 -250 
Q 3450 700 3450 2631 
L 3450 4647 
Q 3516 4656 3622 4666 
Q 4656 4778 5447 5063 
L 5825 4678 
Q 4897 4419 3891 4294 
L 3891 3219 
L 6119 3219 
L 6119 2803 
L 5275 2803 
L 5275 -447 
L 4834 -447 
L 4834 2803 
L 3891 2803 
z
M 2822 4069 
Q 2678 3572 2519 3181 
L 3250 3181 
L 3250 2784 
L 2059 2784 
L 2059 2216 
L 3184 2216 
L 3184 1831 
L 2059 1831 
L 2059 1544 
Q 2613 1197 3031 847 
L 2781 456 
Q 2472 791 2059 1128 
L 2059 -447 
L 1644 -447 
L 1644 1294 
Q 1272 628 575 -31 
L 269 341 
Q 1041 938 1528 1831 
L 453 1831 
L 453 2216 
L 1644 2216 
L 1644 2784 
L 319 2784 
L 319 3181 
L 1125 3181 
Q 1013 3706 881 4069 
L 453 4069 
L 453 4453 
L 1631 4453 
L 1631 5309 
L 2072 5309 
L 2072 4453 
L 3166 4453 
L 3166 4069 
L 2822 4069 
z
M 2391 4069 
L 1325 4069 
Q 1450 3672 1534 3181 
L 2109 3181 
Q 2294 3659 2391 4069 
z
" transform="scale(0.015625)"/>
     <path id="IPAexGothic-65e5" d="M 5231 4800 
L 5231 -288 
L 4744 -288 
L 4744 128 
L 1647 128 
L 1647 -288 
L 1159 -288 
L 1159 4800 
L 5231 4800 
z
M 1647 4372 
L 1647 2731 
L 4744 2731 
L 4744 4372 
L 1647 4372 
z
M 1647 2297 
L 1647 556 
L 4744 556 
L 4744 2297 
L 1647 2297 
z
" transform="scale(0.015625)"/>
     <path id="IPAexGothic-6642" d="M 2328 4728 
L 2328 563 
L 934 563 
L 934 56 
L 519 56 
L 519 4728 
L 2328 4728 
z
M 934 4331 
L 934 2881 
L 1906 2881 
L 1906 4331 
L 934 4331 
z
M 934 2497 
L 934 953 
L 1906 953 
L 1906 2497 
L 934 2497 
z
M 3938 4372 
L 3938 5313 
L 4378 5313 
L 4378 4372 
L 5772 4372 
L 5772 3981 
L 4378 3981 
L 4378 3194 
L 6072 3194 
L 6072 2803 
L 5203 2803 
L 5203 2047 
L 5959 2047 
L 5959 1650 
L 5216 1650 
L 5216 31 
Q 5216 -447 4691 -447 
Q 4394 -447 3888 -391 
L 3784 78 
Q 4272 0 4591 0 
Q 4775 0 4775 172 
L 4775 1650 
L 2581 1650 
L 2581 2047 
L 4763 2047 
L 4763 2803 
L 2538 2803 
L 2538 3194 
L 3938 3194 
L 3938 3981 
L 2716 3981 
L 2716 4372 
L 3938 4372 
z
M 3669 384 
Q 3331 950 2956 1325 
L 3291 1575 
Q 3719 1147 4025 659 
L 3669 384 
z
" transform="scale(0.015625)"/>
     <path id="IPAexGothic-3a" d="M 1369 2559 
L 672 2559 
L 672 3250 
L 1369 3250 
L 1369 2559 
z
M 1369 63 
L 672 63 
L 672 753 
L 1369 753 
L 1369 63 
z
" transform="scale(0.015625)"/>
     <path id="IPAexGothic-20" transform="scale(0.015625)"/>
     <path id="IPAexGothic-2f" d="M 2719 4709 
L 600 -884 
L 300 -763 
L 2413 4831 
L 2719 4709 
z
" transform="scale(0.015625)"/>
     <path id="IPAexGothic-28" d="M 1928 -1016 
L 1653 -1166 
Q 488 69 488 1875 
Q 488 3678 1653 4909 
L 1928 4763 
Q 1006 3522 1006 1881 
Q 1006 203 1928 -1016 
z
" transform="scale(0.015625)"/>
     <path id="IPAexGothic-54" d="M 3866 4141 
L 2175 4141 
L 2175 63 
L 1606 63 
L 1606 4141 
L -31 4141 
L -31 4634 
L 3866 4634 
L 3866 4141 
z
" transform="scale(0.015625)"/>
     <path id="IPAexGothic-29" d="M 466 4909 
Q 1638 3672 1638 1875 
Q 1638 75 466 -1166 
L 191 -1016 
Q 1119 216 1119 1881 
Q 1119 3509 191 4763 
L 466 4909 
z
" transform="scale(0.015625)"/>
    </defs>
    <use xlink:href="#IPAexGothic-66f4"/>
    <use xlink:href="#IPAexGothic-65b0" x="100"/>
    <use xlink:href="#IPAexGothic-65e5" x="200"/>
    <use xlink:href="#IPAexGothic-6642" x="300"/>
    <use xlink:href="#IPAexGothic-3a" x="400"/>
    <use xlink:href="#IPAexGothic-20" x="431.982422"/>
    <use xlink:href="#IPAexGothic-32" x="458.984375"/>
    <use xlink:href="#IPAexGothic-30" x="521.972656"/>
    <use xlink:href="#IPAexGothic-32" x="584.960938"/>
    <use xlink:href="#IPAexGothic-33" x="647.949219"/>
    <use xlink:href="#IPAexGothic-2f" x="710.9375"/>
    <use xlink:href="#IPAexGothic-30" x="760.9375"/>
    <use xlink:href="#IPAexGothic-32" x="823.925781"/>
    <use xlink:href="#IPAexGothic-2f" x="886.914062"/>
    <use xlink:href="#IPAexGothic-31" x="936.914062"/>
    <use xlink:href="#IPAexGothic-30" x="999.902344"/>
    <use xlink:href="#IPAexGothic-20" x="1062.890625"/>
    <use xlink:href="#IPAexGothic-31" x="1089.892578"/>
    <use xlink:href="#IPAexGothic-36" x="1152.880859"/>
    <use xlink:href="#IPAexGothic-3a" x="1215.869141"/>
    <use xlink:href="#IPAexGothic-31" x="1247.851562"/>
    <use xlink:href="#IPAexGothic-35" x="1310.839844"/>
    <use xlink:href="#IPAexGothic-3a" x="1373.828125"/>
    <use xlink:href="#IPAexGothic-31" x="1405.810547"/>
    <use xlink:href="#IPAexGothic-36" x="1468.798828"/>
    <use xlink:href="#IPAexGothic-28" x="1531.787109"/>
    <use xlink:href="#IPAexGothic-4a" x="1565.087891"/>
    <use xlink:href="#IPAexGothic-53" x="1603.076172"/>
    <use xlink:href="#IPAexGothic-54" x="1661.572266"/>
    <use xlink:href="#IPAexGothic-29" x="1721.484375"/>
   </g>
  </g>
 </g>
 <defs>
  <clipPath id="p798524cd20">
   <rect x="29.439063" y="18.879437" width="357.12" height="266.112"/>
  </clipPath>
 </defs>
</svg>
